<?xml version="1.0" encoding="utf-8"?>
<!-- Generator: Adobe Illustrator 17.0.0, SVG Export Plug-In . SVG Version: 6.00 Build 0)  -->
<!DOCTYPE svg PUBLIC "-//W3C//DTD SVG 1.1//EN" "http://www.w3.org/Graphics/SVG/1.1/DTD/svg11.dtd">
<svg version="1.1" id="Calque_1" xmlns="http://www.w3.org/2000/svg" xmlns:xlink="http://www.w3.org/1999/xlink" x="0px" y="0px"
	 width="54px" height="52.25px" viewBox="0 0 54 52.25" enable-background="new 0 0 54 52.25" xml:space="preserve">
<g>
	<path fill="#FFFFFF" d="M26.998,50.798C13.405,50.797,2.365,39.547,2.369,25.701C2.371,12.719,13.172,0.852,27.558,1.016
		c12.856,0.146,24.507,10.271,24.599,24.75C52.256,41.364,39.232,51.186,26.998,50.798 M27.305,46.121
		c9.27,0.567,20.109-7.967,20.269-19.79c0.153-11.422-9.386-20.613-20.061-20.778C15.77,5.371,6.65,16.184,6.934,26.053
		C7.254,37.157,16.066,46.121,27.305,46.121"/>
	<path fill="#FFFFFF" d="M24.141,28.198c0.986,0.518,1.914,1.009,2.836,1.494c-1.512,3.126-4.604,4.528-8.231,3.829
		c-3.265-0.631-5.496-3.256-5.629-6.62c-0.175-4.461,1.539-7.42,4.883-8.428c3.615-1.088,7.065,0.151,8.984,3.358
		c-1.066,0.566-2.125,1.129-3.193,1.698c-0.432-0.493-0.719-1.087-1.179-1.289c-0.776-0.341-1.688-0.673-2.493-0.578
		c-1.533,0.18-2.295,1.457-2.431,3.543c-0.175,2.698,0.514,4.336,2.055,4.89c1.511,0.541,2.749,0.055,4.025-1.577
		C23.835,28.434,23.934,28.374,24.141,28.198"/>
	<path fill="#FFFFFF" d="M41.342,21.841c-1.139,0.598-2.163,1.136-3.285,1.725c-0.194-0.252-0.361-0.452-0.51-0.665
		c-0.791-1.13-1.865-1.606-3.208-1.281c-1.43,0.346-2.149,1.396-2.32,2.777c-0.116,0.939-0.096,1.908-0.019,2.854
		c0.113,1.396,0.807,2.449,2.186,2.896c1.579,0.51,2.732-0.044,4.147-1.962c0.521,0.254,1.065,0.508,1.6,0.783
		c0.482,0.25,0.952,0.525,1.423,0.787c-1.769,3.244-4.977,4.593-8.6,3.68c-3.385-0.854-5.253-3.378-5.334-7.209
		c-0.086-4.018,1.768-6.866,5.063-7.783C36.111,17.432,39.438,18.65,41.342,21.841"/>
</g>
</svg>
