<?xml version="1.0" encoding="utf-8"?>
<!-- Generator: Adobe Illustrator 17.0.0, SVG Export Plug-In . SVG Version: 6.00 Build 0)  -->
<!DOCTYPE svg PUBLIC "-//W3C//DTD SVG 1.1//EN" "http://www.w3.org/Graphics/SVG/1.1/DTD/svg11.dtd">
<svg version="1.1" id="Calque_1" xmlns="http://www.w3.org/2000/svg" xmlns:xlink="http://www.w3.org/1999/xlink" x="0px" y="0px"
	 width="151.75px" height="49.5px" viewBox="0 0 151.75 49.5" enable-background="new 0 0 151.75 49.5" xml:space="preserve">
<g>
	<path fill="#FFFFFF" d="M1.953,29.143c0,0-0.012,0.037-0.029,0.099C1.934,29.209,1.941,29.176,1.953,29.143"/>
	<path fill="#FFFFFF" d="M1.848,29.516c-0.058,0.224-0.135,0.543-0.215,0.941C1.729,30.153,1.777,29.828,1.848,29.516"/>
	<path fill="#FFFFFF" d="M19.587,40.854c-1.306,1.271-2.805,1.84-4.629,1.828c-5.384-0.037-8.773-3.606-9.621-10.008
		c-0.261-1.962,0.319-2.72,2.296-2.69c3.893,0.057,7.791-0.091,11.682,0.015c1.941,0.054,2.427-0.766,2.308-2.508
		c-0.211-3.061-2.705-5.753-6.128-6.458c-5.898-1.216-11.327,2.059-13.541,8.11c-0.012,0.033-0.02,0.065-0.029,0.099
		c-0.02,0.062-0.044,0.155-0.075,0.274c-0.071,0.312-0.12,0.637-0.217,0.941C1.198,32.63,0.701,37.12,2.816,41.067
		c3.701,6.389,13.589,7.047,17.997,1.074c0.438-0.591,1.278-1.313,0.579-2.031C20.525,39.217,20.059,40.395,19.587,40.854
		 M6.484,26.372c1.536-2.779,5.404-4.381,8.155-3.302c1.54,0.604,2.439,1.744,2.307,3.386c-0.146,1.802-1.736,1.444-2.883,1.556
		c-1.15,0.111-2.32,0.023-3.483,0.023v0.067c-1.007,0-2.017-0.045-3.021,0.01C6.078,28.192,5.744,27.711,6.484,26.372"/>
	<path fill="#FFFFFF" d="M130.945,27.764c-2.252-6.518-9.108-9.219-16.135-6.172c-1.909,0.827-2.071,0.15-2.055-1.434
		c0.062-5.443-0.11-10.89,0.275-16.328c0.058-0.826,0.457-2.166-1.244-1.602c-1.768,0.586-3.49,1.306-5.223,1.99
		c-1.158,0.456-1.288,1.262-0.237,1.827c1.954,1.052,1.993,2.79,1.994,4.606c0.002,5.372,0.001,10.742,0.001,16.111
		c-0.055,0-0.108,0.001-0.164,0.001c0,5.678,0,11.354,0.003,17.033c0,0.679-0.011,1.785,0.979,1.099
		c1.245-0.864,2.202-0.322,3.276,0.029c3.353,1.101,6.719,1.185,10.104,0.161C129.556,42.958,133.438,34.975,130.945,27.764
		 M119.752,43.749c-3.371,0.508-6.086-1.306-6.63-4.649c-0.716-4.394-0.322-8.834-0.261-13.256c0.021-1.474,0.918-2.152,2.277-2.511
		c4.536-1.202,8.77,0.967,10.51,5.459c0.653,1.688,0.807,3.472,0.951,4.854C126.551,39.517,124.021,43.104,119.752,43.749"/>
	<path fill="#FFFFFF" d="M103.106,42.667c-2.774,0.629-3.903-0.192-4.016-3.046c-0.087-2.177-0.018-4.358-0.018-6.075
		c0.117-2.328,0.196-4.193,0.308-6.056c0.279-4.706-2.142-7.274-6.834-6.947c-3.912,0.271-7.096,2.16-9.64,5.1
		c-0.44,0.509-0.722,1.206-0.915,1.863c-0.203,0.693,0.099,1.177,0.91,1.296c1.586,0.232,3.607-1.027,3.975-2.522
		c0.62-2.543,1.848-3.545,4.114-3.365c2.186,0.175,3.628,1.587,3.888,3.947c0.119,1.078,0.016,2.178,0.053,3.268
		c0.049,1.439-0.552,2.246-1.98,2.724c-2.726,0.911-5.435,1.91-8.052,3.092c-2.678,1.207-3.519,3.051-2.944,5.637
		c0.551,2.481,2.542,4.075,5.159,4.304c2.169,0.19,3.968-0.694,5.656-1.818c1.249-0.83,2.045-0.788,3.156,0.357
		c2.104,2.168,5.986,1.807,7.908-0.51c0.3-0.36,0.688-0.729,0.331-1.207C103.889,42.333,103.485,42.58,103.106,42.667
		 M94.557,37.892c-0.178,3.501-1.055,4.708-3.805,5.08c-1.948,0.263-3.352-0.531-4.016-2.413c-0.618-1.752,0.1-3.045,1.619-3.913
		c0.874-0.499,1.807-0.915,2.751-1.269C94.579,34.077,94.742,34.208,94.557,37.892"/>
	<path fill="#FFFFFF" d="M64.216,42.891c-2.412,0.641-3.498-0.033-3.888-2.515c-0.391-2.48,0.096-4.967,0.161-7.451
		c0-2.258,0.066-4.517-0.021-6.771c-0.08-2.147-0.912-3.938-2.966-4.934c-4.044-1.962-12.704,1.67-14.156,5.904
		c-0.288,0.841-0.407,1.531,0.668,1.823c1.383,0.377,3.722-1.011,4.055-2.396c0.616-2.567,1.833-3.626,4.042-3.514
		c2.21,0.112,3.755,1.677,3.958,4.136c0.096,1.16-0.044,2.336,0.009,3.501c0.056,1.215-0.512,1.807-1.625,2.203
		c-2.781,0.993-5.568,1.997-8.273,3.177c-2.57,1.12-3.521,2.955-3.116,5.377c0.417,2.5,2.345,4.221,4.939,4.56
		c2.244,0.292,4.146-0.54,5.914-1.712c1.21-0.802,1.991-0.924,3.14,0.298c2.024,2.151,6.062,1.79,7.957-0.444
		c0.315-0.371,0.668-0.765,0.408-1.231C65.091,42.311,64.632,42.782,64.216,42.891 M55.961,36.121
		c-0.041,0.615-0.153,1.225-0.192,1.524c-0.199,4.064-1.788,5.78-4.827,5.508c-1.565-0.141-2.538-0.987-3.007-2.479
		c-0.452-1.443-0.034-2.621,1.114-3.502c1.631-1.25,3.605-1.763,5.535-2.318C55.6,34.562,56.024,35.154,55.961,36.121"/>
	<path fill="#FFFFFF" d="M77.618,43.57c-2.683-0.044-2.83-1.889-2.827-3.88c0.008-5.836,0.004-11.67,0.004-17.506h0.115
		c0-5.678-0.019-11.356,0.005-17.033c0.014-3.223,0.049-3.21-2.837-2.039C71,3.549,69.894,3.914,68.797,4.305
		c-1.311,0.467-1.785,1.182-0.353,2.009c1.522,0.879,1.804,2.209,1.803,3.755c-0.004,9.959-0.009,19.916,0.003,29.877
		c0.002,1.951-0.27,3.623-2.783,3.668c-0.57,0.01-1.074,0.286-1.008,1.011c0.07,0.788,0.648,0.739,1.205,0.698
		c3.258-0.242,6.516-0.242,9.773-0.027c0.592,0.04,1.123-0.004,1.198-0.736C78.709,43.839,78.199,43.58,77.618,43.57"/>
	<path fill="#FFFFFF" d="M34.241,24.061c1.632,0.033,3.267-0.017,4.9-0.008c0.881,0.005,1.547-0.181,1.495-1.271
		c-0.047-1.013-0.642-1.306-1.551-1.287c-1.167,0.025-2.344-0.083-3.499,0.034c-2.104,0.214-3.563-0.119-3.036-2.766
		c0.105-0.528,0.037-1.131-0.658-1.308c-0.679-0.173-0.983,0.314-1.251,0.803c-1.13,2.062-2.748,3.545-5.013,4.281
		c-0.445,0.146-0.932,0.366-0.881,0.932c0.069,0.781,0.757,0.696,1.256,0.67c1.798-0.093,1.994,0.991,1.96,2.412
		c-0.056,2.331-0.015,4.667-0.015,7h0.009c0,2.411-0.03,4.823,0.011,7.233c0.031,1.886,0.645,3.536,2.358,4.543
		c2.579,1.516,7.221,0.877,9.396-1.261c0.364-0.357,1.021-0.684,0.659-1.322c-0.471-0.831-1.034-0.214-1.581,0.017
		c-3.504,1.475-5.931,0.183-6.177-3.639c-0.285-4.417-0.151-8.859-0.235-13.29C32.366,24.516,32.991,24.036,34.241,24.061"/>
	<path fill="#FFFFFF" d="M121.557,12.16h-0.021c-0.453,0.515-0.967,0.823-1.666,0.823c-1.039,0-1.831-0.844-1.831-2.305
		c0-1.492,0.977-2.695,2.438-2.695c0.268,0,0.545,0.061,0.782,0.144c0.226,0.083,0.411,0.165,0.586,0.165
		c0.206,0,0.474-0.206,0.659-0.309v4.65c0,1.531-1.03,2.303-2.398,2.303c-1.234,0-1.801-0.349-1.801-0.812
		c0-0.236,0.196-0.462,0.494-0.462c0.598,0,0.462,0.905,1.421,0.905c0.843,0,1.336-0.484,1.336-1.678V12.16z M121.557,9.391
		c0-0.709-0.433-1.1-1.069-1.1c-0.834,0-1.44,0.771-1.44,2.037c0,1.192,0.587,1.913,1.471,1.913c0.483,0,0.854-0.196,1.039-0.556
		V9.391z"/>
	<path fill="#FFFFFF" d="M126.165,7.983c1.46,0,2.489,1.007,2.489,2.447c0,1.544-1.152,2.654-2.489,2.654
		c-1.461,0-2.49-1.008-2.49-2.447C123.675,9.093,124.827,7.983,126.165,7.983 M126.35,12.776c0.658,0,1.235-0.451,1.235-1.811
		c0-1.779-0.741-2.674-1.606-2.674c-0.657,0-1.233,0.452-1.233,1.811C124.745,11.882,125.486,12.776,126.35,12.776"/>
	<path fill="#FFFFFF" d="M132.789,8.991c0-0.617-0.134-0.762-0.699-0.762V8.046h1.645v3.826c0,0.441,0.094,0.556,0.289,0.556
		s0.37-0.032,0.453-0.042v0.165l-1.184,0.381c-0.195,0.062-0.318,0.112-0.38,0.112c-0.103,0-0.124-0.061-0.124-0.206v-0.472
		c-0.37,0.349-0.988,0.678-1.554,0.678c-0.751,0-1.367-0.493-1.367-1.625V8.991c0-0.617-0.125-0.762-0.7-0.762V8.046h1.646v3.322
		c0,0.729,0.267,1.06,0.863,1.06c0.453,0,0.936-0.268,1.111-0.453V8.991z"/>
	<path fill="#FFFFFF" d="M137.264,8.046v0.184c-0.453,0-0.597,0.135-0.597,0.31c0,0.123,0.071,0.288,0.215,0.616l1.039,2.469
		l1.009-2.51c0.092-0.227,0.165-0.442,0.165-0.606c0-0.195-0.104-0.278-0.495-0.278V8.046h1.605v0.184
		c-0.288,0.062-0.452,0.176-0.576,0.453l-1.801,4.156c-0.061,0.145-0.111,0.205-0.184,0.205c-0.062,0-0.094-0.061-0.155-0.205
		l-1.729-3.898c-0.246-0.556-0.37-0.68-0.761-0.711V8.046H137.264z"/>
	<path fill="#FFFFFF" d="M141.018,11.83c0.34,0,0.617,0.278,0.617,0.618c0,0.339-0.277,0.617-0.617,0.617
		c-0.339,0-0.617-0.278-0.617-0.617C140.4,12.108,140.679,11.83,141.018,11.83"/>
	<path fill="#FFFFFF" d="M142.91,8.046h0.904V7.325c0-1.256,0.844-1.791,1.626-1.791c0.689,0,1.11,0.3,1.11,0.752
		c0,0.257-0.174,0.462-0.513,0.462c-0.639,0-0.371-0.904-0.865-0.904c-0.246,0-0.411,0.154-0.411,0.515v1.688h1.215v0.369h-1.215
		v3.621c0,0.617,0.123,0.762,1.296,0.762v0.186h-3.147v-0.186c0.781,0,0.904-0.145,0.904-0.762V8.415h-0.904V8.046z"/>
	<path fill="#FFFFFF" d="M147.621,9.155c0-0.441-0.093-0.555-0.289-0.555c-0.194,0-0.369,0.03-0.453,0.041V8.477l1.184-0.382
		c0.196-0.061,0.319-0.112,0.382-0.112c0.103,0,0.123,0.063,0.123,0.205v0.741h0.021c0.236-0.422,0.781-0.946,1.296-0.946
		c0.37,0,0.658,0.257,0.658,0.586c0,0.248-0.186,0.484-0.442,0.484c-0.329,0-0.504-0.392-0.802-0.392
		c-0.289,0-0.556,0.329-0.73,0.761v2.613c0,0.617,0.123,0.762,0.843,0.762v0.186h-2.51v-0.186c0.596,0,0.721-0.145,0.721-0.762
		V9.155z"/>
</g>
</svg>
