<?xml version="1.0" encoding="utf-8"?>
<!-- Generator: Adobe Illustrator 17.0.0, SVG Export Plug-In . SVG Version: 6.00 Build 0)  -->
<!DOCTYPE svg PUBLIC "-//W3C//DTD SVG 1.1//EN" "http://www.w3.org/Graphics/SVG/1.1/DTD/svg11.dtd">
<svg version="1.1" id="Calque_1" xmlns="http://www.w3.org/2000/svg" xmlns:xlink="http://www.w3.org/1999/xlink" x="0px" y="0px"
	 width="111.5px" height="52.75px" viewBox="0 0 111.5 52.75" enable-background="new 0 0 111.5 52.75" xml:space="preserve">
<g>
	<g opacity="0.7">
		<g>
			<defs>
				<rect id="SVGID_1_" x="86.024" y="15.588" width="15.979" height="15.979"/>
			</defs>
			<clipPath id="SVGID_2_">
				<use xlink:href="#SVGID_1_"  overflow="visible"/>
			</clipPath>
			<path clip-path="url(#SVGID_2_)" fill="#FFFFFF" d="M102.003,23.578c0,4.412-3.577,7.989-7.99,7.989
				c-4.413,0-7.99-3.577-7.99-7.989c0-4.413,3.577-7.99,7.99-7.99C98.426,15.588,102.003,19.165,102.003,23.578"/>
		</g>
	</g>
	<g opacity="0.7">
		<g>
			<defs>
				<rect id="SVGID_3_" x="94.051" y="15.588" width="15.979" height="15.979"/>
			</defs>
			<clipPath id="SVGID_4_">
				<use xlink:href="#SVGID_3_"  overflow="visible"/>
			</clipPath>
			<path clip-path="url(#SVGID_4_)" fill="#FFFFFF" d="M110.03,23.578c0,4.412-3.577,7.989-7.99,7.989
				c-4.413,0-7.989-3.577-7.989-7.989c0-4.413,3.577-7.99,7.989-7.99C106.453,15.588,110.03,19.165,110.03,23.578"/>
		</g>
	</g>
	<g>
		<g>
			<defs>
				<rect id="SVGID_5_" x="90.052" y="7.152" width="15.979" height="15.981"/>
			</defs>
			<clipPath id="SVGID_6_">
				<use xlink:href="#SVGID_5_"  overflow="visible"/>
			</clipPath>
			<path clip-path="url(#SVGID_6_)" fill="#FFFFFF" d="M106.031,15.142c0,4.413-3.577,7.99-7.99,7.99
				c-4.412,0-7.989-3.577-7.989-7.99c0-4.412,3.577-7.989,7.989-7.989C102.454,7.153,106.031,10.73,106.031,15.142"/>
		</g>
	</g>
	<path fill-rule="evenodd" clip-rule="evenodd" fill="#FFFFFF" d="M37.139,51.568v-3.828c0-3.79,0.014-7.58-0.014-11.369
		c-0.004-0.605,0.151-0.788,0.766-0.779c0.609,0.009,0.865,0.112,0.86,0.808c-0.033,4.287-0.021,8.573-0.014,12.861
		C38.738,50.323,38.348,51.113,37.139,51.568"/>
	<path fill-rule="evenodd" clip-rule="evenodd" fill="#FFFFFF" d="M37.928,33.588c0.404,0.016,0.838-0.144,0.83,0.538
		c-0.009,0.734-0.493,0.546-0.888,0.562c-0.395,0.016-0.779,0.094-0.787-0.558C37.073,33.354,37.599,33.651,37.928,33.588"/>
	<path fill="#FFFFFF" d="M32.351,10.803c-0.093-0.006-0.188,0.013-0.279-0.003c-0.65-0.107-0.83,0.154-0.827,0.809
		c0.019,4.01-0.006,8.019-0.022,12.029c-0.004,1.116-0.396,1.519-1.501,1.526c-1.555,0.012-3.109,0.007-4.663,0.002
		c-1.331-0.005-1.723-0.395-1.724-1.709c-0.002-3.979-0.011-7.958,0.012-11.937c0.003-0.549-0.09-0.786-0.701-0.732
		c-0.678,0.061-1.371,0.059-2.049,0.001c-0.643-0.056-0.829,0.132-0.824,0.799c0.034,4.103,0.011,8.208,0.019,12.31
		c0.005,2.555,1.914,4.479,4.466,4.499c2.02,0.017,4.044,0.072,6.06-0.027c0.923-0.045,1.029,0.266,1.024,1.057
		c-0.033,4.754-0.017,9.508-0.017,14.423c1.083-0.566,1.998-1.081,2.947-1.524c0.448-0.209,0.545-0.492,0.545-0.943
		c0.01-9.355,0.036-18.712,0.047-28.068c0.001-0.801,0.208-1.844-0.204-2.34C34.227,10.451,33.147,10.86,32.351,10.803"/>
	<path fill="#FFFFFF" d="M88.712,18.218c-0.002-0.365,0.04-0.752-0.259-1.049c-0.014-0.651-0.022-1.303-0.042-1.955
		c-0.07-2.424-1.993-4.371-4.396-4.406c-1.925-0.027-3.854-0.071-5.774,0.027c-0.798,0.041-0.825-0.241-0.816-0.857
		c0.03-2.08,0.026-4.16,0.004-6.242c-0.009-0.858,0.378-2.035-0.161-2.49c-0.514-0.432-1.656-0.076-2.513-0.158
		c-0.738-0.071-0.851,0.223-0.849,0.887c0.023,7.268,0.01,14.534,0.017,21.801c0.003,2.558,1.978,4.539,4.531,4.562
		c1.553,0.015,3.107-0.036,4.659,0.016c1.18,0.039,2.276-0.173,3.305-0.743c0.505-0.048,0.846-0.357,1.139-0.731
		c0.73-0.932,1.141-1.985,1.154-3.174C88.73,21.876,88.722,20.047,88.712,18.218 M84.894,23.343
		c-0.009,0.916-0.381,1.285-1.303,1.292c-1.613,0.013-3.227,0.011-4.84,0.001c-0.944-0.006-1.309-0.356-1.312-1.271
		c-0.009-2.607,0.006-5.214-0.008-7.82c-0.005-0.869,0.438-1.249,1.254-1.254c1.645-0.01,3.289-0.018,4.934,0.004
		c0.923,0.012,1.268,0.385,1.276,1.324c0.012,1.303,0.003,2.606,0.003,3.908C84.898,20.799,84.908,22.072,84.894,23.343"/>
	<path fill="#FFFFFF" d="M46.587,10.806c-1.865-0.019-3.733-0.069-5.594,0.026c-0.848,0.044-0.933-0.231-0.915-0.952
		c0.048-2.02,0.022-4.041,0.014-6.062c-0.004-0.864,0.293-2.011-0.142-2.521c-0.506-0.594-1.692-0.097-2.574-0.205
		c-0.658-0.081-0.82,0.15-0.813,0.804C36.598,5.564,36.58,9.233,36.58,12.9c0,3.637-0.006,7.273,0.002,10.909
		c0.006,2.51,1.971,4.501,4.475,4.527c1.865,0.02,3.73,0.028,5.595-0.003c2.372-0.04,4.343-1.965,4.378-4.328
		c0.043-2.952,0.046-5.906,0-8.858C50.991,12.711,49.033,10.832,46.587,10.806 M47.555,23.38c-0.001,0.827-0.396,1.264-1.25,1.261
		c-1.644-0.007-3.288,0.008-4.932-0.006c-0.925-0.008-1.267-0.364-1.276-1.309c-0.012-1.271-0.003-2.544-0.003-3.815
		c0-1.303-0.009-2.604,0.003-3.907c0.009-0.964,0.322-1.298,1.279-1.31c1.644-0.021,3.288-0.014,4.932-0.004
		c0.829,0.006,1.25,0.43,1.248,1.273C47.553,18.169,47.557,20.774,47.555,23.38"/>
	<path fill="#FFFFFF" d="M18.044,15.298c-0.076-2.857-1.976-4.494-4.858-4.495c-1.989-0.001-3.978-0.032-5.965,0.021
		c-0.582,0.016-0.732-0.093-0.722-0.68C6.537,8.031,6.52,5.917,6.511,3.805C6.508,2.941,6.8,1.787,6.362,1.289
		c-0.51-0.58-1.696-0.09-2.578-0.197C3.105,1.01,2.98,1.275,2.984,1.909C3.014,6.197,3,10.486,3,14.773
		c0,3.637-0.012,7.272,0.008,10.908c0.005,0.89-0.394,2.075,0.169,2.584c0.483,0.438,1.653,0.077,2.514,0.149
		c0.681,0.057,0.881-0.124,0.873-0.845c-0.042-3.822-0.02-7.645-0.02-11.467c0-1.803,0.271-2.066,2.117-2.066
		c1.274,0,2.547,0,3.822,0c1.721,0,2.051,0.334,2.052,2.077c0,3.854,0.01,7.706-0.011,11.56c-0.003,0.534,0.073,0.791,0.694,0.742
		c0.771-0.06,1.553-0.029,2.329-0.008c0.392,0.01,0.543-0.109,0.542-0.526C18.073,23.687,18.156,19.489,18.044,15.298"/>
	<path fill="#FFFFFF" d="M72.21,15.355c-0.022-2.58-1.966-4.53-4.542-4.55c-1.802-0.013-3.604-0.013-5.407,0
		c-2.718,0.021-4.786,2.308-4.583,5.011c0.031,0.41,0.163,0.537,0.55,0.528c0.777-0.017,1.556-0.039,2.33,0.008
		c0.553,0.032,0.655-0.183,0.661-0.688c0.012-1.033,0.383-1.361,1.435-1.373c1.025-0.012,2.051-0.006,3.077-0.001
		c0.683,0.003,1.367-0.006,2.048,0.038c0.484,0.032,0.776,0.339,0.895,0.814c0.132,0.529-0.285,0.597-0.605,0.766
		c-2.631,1.384-5.268,2.758-7.886,4.164c-1.908,1.027-2.809,2.998-2.302,4.91c0.516,1.951,2.333,3.343,4.41,3.356
		c1.802,0.012,3.605,0.015,5.407,0c2.499-0.022,4.478-1.996,4.511-4.5c0.018-1.399,0.003-2.796,0.003-4.195
		C72.212,18.213,72.222,16.783,72.21,15.355 M68.686,23.759c-0.011,0.656-0.401,1.048-1.053,1.056
		c-1.797,0.024-3.595,0.015-5.393,0.003c-0.492-0.003-0.824-0.299-0.946-0.751c-0.115-0.429,0.204-0.701,0.53-0.876
		c2.254-1.199,4.517-2.382,6.869-3.617C68.693,21.046,68.709,22.403,68.686,23.759"/>
	<path fill="#FFFFFF" d="M56.265,14.696c0-4.259-0.013-8.517,0.014-12.775c0.004-0.636-0.142-0.893-0.814-0.832
		c-0.647,0.059-1.306,0.045-1.957,0.003c-0.535-0.034-0.747,0.075-0.745,0.691c0.024,7.398,0,14.796,0.027,22.193
		c0.006,1.857,1.021,3.13,2.631,3.972c0.652,0.341,0.868,0.236,0.861-0.569C56.244,23.15,56.265,18.923,56.265,14.696"/>
	<path fill="#FFFFFF" d="M7.454,33.566c-0.78-0.033-1.085,0.193-0.941,0.969c0.137,0.742-0.107,1.069-0.922,0.97
		c-0.642-0.079-1.302-0.034-1.954-0.012c-1.283,0.043-2.126,0.783-2.194,2.058c-0.071,1.33-0.073,2.67-0.004,4.001
		c0.069,1.336,0.912,2.063,2.253,2.086c0.714,0.012,1.428,0.009,2.142,0.001c1.474-0.018,2.284-0.826,2.302-2.317
		c0.014-1.148,0.003-2.298,0.003-3.445c0-1.18-0.021-2.359,0.01-3.538C8.162,33.81,8.069,33.591,7.454,33.566 M5.733,41.988
		c-0.031-0.003-0.062,0-0.093-0.001c-3.039-0.062-2.476,0.483-2.539-2.434v-0.188c0-2.276,0.553-2.703,2.856-2.227
		c0.419,0.087,0.556,0.342,0.556,0.726c0,1.116-0.008,2.234,0.004,3.351C6.521,41.762,6.29,42.03,5.733,41.988"/>
	<path fill="#FFFFFF" d="M15.531,37.473c-0.116-1.205-0.864-1.909-2.071-1.974c-0.836-0.045-1.679-0.046-2.515,0.001
		c-1.207,0.066-2.105,0.999-2.074,2.087c0.006,0.208-0.04,0.539,0.26,0.485c0.5-0.089,1.3,0.5,1.428-0.579
		c0.031-0.262,0.32-0.354,0.592-0.354c0.714,0.003,1.429-0.002,2.143,0.004c0.267,0.002,0.509,0.09,0.562,0.383
		c0.051,0.281-0.207,0.34-0.395,0.438c-1.151,0.606-2.311,1.196-3.449,1.825c-0.919,0.509-1.295,1.344-1.075,2.252
		c0.229,0.943,0.995,1.56,2.033,1.591c0.837,0.024,1.678,0.025,2.516,0.001c1.131-0.034,1.916-0.734,2.036-1.887
		c0.074-0.705,0.014-1.424,0.014-2.137c0.002,0,0.005,0,0.008,0C15.544,38.898,15.599,38.179,15.531,37.473 M13.674,41.806
		c-0.789,0.499-1.872,0.217-2.815,0.121c-0.401-0.041-0.359-0.486-0.013-0.681c0.964-0.538,1.95-1.035,2.959-1.565
		C13.918,40.491,14.226,41.456,13.674,41.806"/>
	<path fill="#FFFFFF" d="M29.335,39.595c0-0.621,0.011-1.242-0.002-1.862c-0.027-1.333-0.79-2.163-2.111-2.235
		c-0.835-0.044-1.677-0.042-2.513,0.002c-0.827,0.044-1.486,0.436-1.865,1.195c-0.196,0.39-0.393,0.885-0.171,1.246
		c0.222,0.362,0.747,0.111,1.136,0.158c0.281,0.034,0.462-0.033,0.472-0.388c0.013-0.491,0.37-0.58,0.784-0.574
		c0.621,0.008,1.242,0.005,1.862,0c0.292-0.002,0.597,0.024,0.695,0.338c0.125,0.396-0.282,0.441-0.493,0.556
		c-1.114,0.607-2.259,1.158-3.368,1.774c-0.914,0.507-1.286,1.375-1.046,2.255c0.259,0.953,1.016,1.55,2.047,1.575
		c0.807,0.02,1.614,0.02,2.421,0.001c1.308-0.03,2.114-0.85,2.148-2.179C29.349,40.836,29.335,40.215,29.335,39.595 M27.413,41.863
		c-0.858,0.36-1.899,0.192-2.846,0.058c-0.348-0.05-0.286-0.476,0.002-0.638c0.988-0.556,2-1.07,3.034-1.618
		c0.056,0.208,0.108,0.3,0.098,0.384C27.627,40.676,28.041,41.6,27.413,41.863"/>
	<path fill="#FFFFFF" d="M21.037,42.14c-0.496,0.016-0.993,0.003-1.49,0.003c-1.697,0-1.522-0.024-1.754-1.665
		c-0.269-1.9,0.297-3.076,2.125-3.645c0.506-0.157,0.502-0.419,0.283-0.898c-0.319-0.697-0.66-0.755-1.244-0.346
		c-0.323,0.228-0.703,0.373-1.118,0.586c0-0.684-0.048-1.276,0.012-1.856c0.071-0.677-0.26-0.729-0.809-0.743
		c-0.6-0.018-0.794,0.141-0.784,0.767c0.037,2.358,0.008,4.717,0.018,7.076c0.005,1.355,0.829,2.182,2.203,2.216
		c0.837,0.021,1.676-0.012,2.514,0.009c0.564,0.015,0.989,0.046,0.981-0.782C21.967,42.07,21.555,42.122,21.037,42.14"/>
	<path fill="#FFFFFF" d="M101.903,37.801c-0.009-1.483-0.808-2.318-2.309-2.298c-1.162,0.016-2.371-0.274-3.469,0.365
		c-0.137,0.08-0.231,0.006-0.333-0.045c-1.211-0.602-2.508-0.34-3.759-0.294c-1.229,0.044-1.902,0.924-1.911,2.195
		c-0.006,0.839-0.001,1.677-0.001,2.517c0,0.869,0.029,1.74-0.01,2.607c-0.026,0.565,0.078,0.829,0.741,0.814
		c0.604-0.014,0.792-0.167,0.776-0.782c-0.042-1.645-0.001-3.292-0.021-4.938c-0.008-0.633,0.251-0.917,0.884-0.895
		c0.527,0.018,1.059,0.041,1.584-0.006c0.825-0.073,1.174,0.187,1.133,1.089c-0.071,1.55,0.014,3.105-0.036,4.657
		c-0.021,0.683,0.148,0.909,0.867,0.9c0.674-0.008,0.837-0.214,0.807-0.851c-0.051-1.084-0.015-2.173-0.015-3.261
		c0-2.622,0-2.606,2.637-2.537c0.676,0.018,0.938,0.253,0.925,0.941c-0.034,1.646,0.012,3.292-0.023,4.938
		c-0.013,0.563,0.13,0.764,0.721,0.737c0.53-0.025,0.853-0.04,0.832-0.732C101.872,41.219,101.914,39.509,101.903,37.801"/>
	<path fill="#FFFFFF" d="M76.313,37.564c-0.027-1.192-0.837-2.045-2.038-2.096c-0.867-0.038-1.738-0.038-2.605,0
		c-1.11,0.048-1.941,0.838-2.039,1.916c-0.022,0.25-0.237,0.728,0.306,0.666c0.448-0.051,1.13,0.379,1.311-0.324
		c0.14-0.541,0.411-0.619,0.846-0.617c0.62,0.003,1.241-0.002,1.861,0.003c0.281,0.002,0.598-0.001,0.67,0.351
		c0.069,0.335-0.253,0.379-0.459,0.488c-1.147,0.611-2.307,1.198-3.442,1.83c-0.875,0.487-1.247,1.325-1.043,2.179
		c0.229,0.955,0.992,1.587,2.011,1.617c0.867,0.024,1.738,0.031,2.605-0.003c1.205-0.047,1.988-0.878,2.016-2.101
		c0.015-0.651,0.003-1.304,0.003-1.954C76.316,38.866,76.328,38.215,76.313,37.564 M74.364,41.834
		c-0.834,0.349-1.85,0.235-2.75,0.038c-0.557-0.123-0.25-0.55,0.059-0.721c0.942-0.523,1.909-1.003,2.929-1.531
		c0.031,0.199,0.081,0.317,0.06,0.422C74.544,40.654,75.048,41.548,74.364,41.834"/>
	<path fill="#FFFFFF" d="M108.363,41.137c-0.298,0.017-0.541,0.015-0.575,0.417c-0.031,0.363-0.302,0.517-0.655,0.517
		c-0.776,0-1.553-0.001-2.329-0.002c-0.272-0.001-0.481-0.104-0.576-0.378c-0.129-0.367,0.191-0.402,0.39-0.509
		c1.147-0.61,2.305-1.206,3.45-1.821c0.934-0.503,1.397-1.358,1.217-2.193c-0.207-0.961-0.995-1.619-2.088-1.671
		c-0.806-0.038-1.616-0.04-2.421,0c-1.322,0.067-2.095,0.895-2.122,2.221c-0.013,0.621-0.002,1.242-0.002,1.862
		c0,0.622-0.009,1.243,0.002,1.863c0.021,1.273,0.803,2.129,2.048,2.188c0.868,0.04,1.741,0.043,2.607-0.005
		c0.914-0.05,1.574-0.515,1.894-1.401C109.535,41.295,109.361,41.078,108.363,41.137 M104.433,37.247
		c0.819-0.514,1.936-0.248,2.909-0.129c0.562,0.069,0.466,0.565,0.088,0.789c-1.027,0.605-2.098,1.138-3.12,1.682
		c-0.104-0.109-0.141-0.131-0.14-0.148C104.214,38.687,103.772,37.663,104.433,37.247"/>
	<path fill="#FFFFFF" d="M46.281,37.72c-0.012-1.338-0.763-2.154-2.104-2.223c-0.806-0.041-1.619-0.041-2.424,0
		c-1.321,0.067-2.086,0.896-2.1,2.236c-0.013,1.243-0.017,2.486,0.001,3.73c0.02,1.282,0.805,2.112,2.066,2.167
		c0.838,0.036,1.68,0.037,2.518-0.001c1.271-0.056,2.027-0.883,2.042-2.179c0.007-0.622,0.001-1.244,0.001-1.866
		C46.281,38.964,46.286,38.342,46.281,37.72 M44.801,38.175c-0.058,0.99-0.04,1.988-0.004,2.981
		c0.025,0.696-0.275,0.974-0.942,0.918c-0.062-0.006-0.125,0-0.187-0.001c-2.918-0.043-2.468,0.419-2.509-2.512
		c0.039-2.912-0.403-2.447,2.519-2.521C44.533,37.019,44.852,37.316,44.801,38.175"/>
	<path fill="#FFFFFF" d="M85.258,37.06c0.527-0.026,1.056-0.004,1.585-0.009c0.486-0.004,0.858,0.025,1.045,0.65
		c0.173,0.576,0.806,0.272,1.212,0.25c0.484-0.025,0.272-0.478,0.229-0.739c-0.159-0.977-0.96-1.661-2.034-1.714
		c-0.838-0.04-1.68-0.037-2.517-0.001c-1.053,0.047-1.846,0.739-2.05,1.718c-0.186,0.891,0.229,1.619,1.227,2.141
		c1.099,0.573,2.202,1.142,3.299,1.718c0.282,0.149,0.581,0.345,0.489,0.702c-0.086,0.329-0.43,0.299-0.711,0.299
		c-0.684,0.001-1.368,0.004-2.052-0.002c-0.281-0.003-0.62,0.004-0.674-0.35c-0.154-0.996-0.969-0.652-1.366-0.507
		c-0.556,0.205-0.214,0.81-0.05,1.195c0.332,0.782,0.986,1.175,1.829,1.224c0.403,0.023,0.808,0.004,1.212,0.004v-0.003
		c0.497,0,0.997,0.029,1.492-0.007c0.944-0.069,1.7-0.742,1.904-1.648c0.201-0.895-0.173-1.633-1.084-2.113
		c-1.069-0.565-2.146-1.113-3.211-1.687c-0.313-0.169-0.781-0.3-0.7-0.761C84.423,36.904,84.915,37.075,85.258,37.06"/>
	<path fill="#FFFFFF" d="M68.88,37.716c-0.018-1.343-0.799-2.159-2.121-2.221c-0.806-0.037-1.617-0.037-2.423,0.002
		c-1.279,0.061-2.068,0.867-2.107,2.139c-0.027,0.869-0.005,1.74-0.006,2.61c0,0.933,0.03,1.866-0.01,2.797
		c-0.028,0.626,0.334,0.601,0.768,0.604c0.442,0.003,0.781,0.004,0.761-0.612c-0.038-1.148-0.023-2.3-0.008-3.449
		c0.035-2.936-0.425-2.473,2.593-2.543c0.838-0.02,1.071,0.324,1.048,1.111c-0.046,1.584,0.007,3.171-0.025,4.756
		c-0.011,0.545,0.1,0.785,0.709,0.746c0.512-0.032,0.866-0.007,0.844-0.718C68.851,41.198,68.902,39.456,68.88,37.716"/>
	<path fill="#FFFFFF" d="M52.996,35.468c-0.592-0.001-0.808,0.14-0.792,0.771c0.044,1.613,0.002,3.231,0.021,4.845
		c0.007,0.691-0.235,1.049-0.981,0.997c-0.557-0.039-1.12-0.039-1.676,0c-0.768,0.056-1.048-0.254-1.029-1.026
		c0.041-1.645-0.019-3.293,0.027-4.937c0.02-0.694-0.367-0.627-0.82-0.639c-0.459-0.013-0.745,0.017-0.732,0.623
		c0.039,1.801-0.008,3.603,0.022,5.403c0.021,1.257,0.852,2.072,2.121,2.126c0.744,0.031,1.49,0.016,2.236,0.005
		c1.492-0.021,2.303-0.824,2.321-2.301c0.01-0.838,0.002-1.677,0.002-2.515c0-0.87-0.033-1.741,0.011-2.608
		C53.755,35.64,53.574,35.468,52.996,35.468"/>
	<path fill="#FFFFFF" d="M59.367,35.554c-0.929-0.037-1.863-0.039-2.792,0.001c-1.243,0.053-2.087,0.904-2.108,2.147
		c-0.03,1.769,0.025,3.539-0.023,5.307c-0.021,0.796,0.477,0.621,0.913,0.628c0.424,0.007,0.883,0.118,0.827-0.612
		c-0.062-0.802-0.014-1.612-0.014-2.42v-0.838c0-2.733,0-2.73,2.761-2.529c0.436,0.033,0.699,0.131,0.841,0.652
		c0.211,0.775,0.93,0.289,1.405,0.337c0.5,0.052,0.31-0.434,0.284-0.697C61.35,36.396,60.517,35.598,59.367,35.554"/>
	<path fill="#FFFFFF" d="M78.899,38.658c0-1.517-0.021-3.034,0.009-4.552c0.016-0.771-0.523-0.512-0.896-0.539
		c-0.385-0.027-0.787-0.129-0.777,0.549c0.036,2.508,0.008,5.017,0.021,7.524c0.004,0.689,0.311,1.253,0.875,1.659
		c0.196,0.142,0.422,0.349,0.664,0.225c0.218-0.11,0.1-0.391,0.101-0.594C78.904,41.507,78.899,40.082,78.899,38.658"/>
	<path fill="#FFFFFF" d="M80.908,35.613c-0.475-0.053-0.731,0.039-0.718,0.627c0.037,1.798,0.016,3.597,0.013,5.396
		c-0.002,0.99,0.494,1.608,1.555,2.02c0-2.573-0.022-5.021,0.013-7.469C81.782,35.43,81.297,35.655,80.908,35.613"/>
	<path fill="#FFFFFF" d="M80.994,33.557c-0.434,0.011-0.908-0.149-0.887,0.589c0.02,0.667,0.44,0.539,0.826,0.544
		c0.423,0.005,0.861,0.123,0.851-0.602C81.775,33.39,81.335,33.584,80.994,33.557"/>
</g>
</svg>
