<?xml version="1.0" encoding="utf-8"?>
<!-- Generator: Adobe Illustrator 17.0.0, SVG Export Plug-In . SVG Version: 6.00 Build 0)  -->
<!DOCTYPE svg PUBLIC "-//W3C//DTD SVG 1.1//EN" "http://www.w3.org/Graphics/SVG/1.1/DTD/svg11.dtd">
<svg version="1.1" id="Calque_1" xmlns="http://www.w3.org/2000/svg" xmlns:xlink="http://www.w3.org/1999/xlink" x="0px" y="0px"
	 width="60.75px" height="52.25px" viewBox="0 0 60.75 52.25" enable-background="new 0 0 60.75 52.25" xml:space="preserve">
<g>
	<path fill="#FFFFFF" d="M30.386,1.631c8.888,0.07,16.474,6.453,17.937,15.158c1.425,8.473-3.24,16.793-11.176,19.939
		c-0.764,0.303-0.932,0.229-1.22-0.539c-1.254-3.342-2.506-6.684-3.759-10.026c-0.333-0.889-0.316-0.928,0.531-1.327
		c2.358-1.111,3.639-3.677,3.074-6.159c-0.566-2.487-2.802-4.298-5.319-4.308c-2.597-0.009-4.816,1.767-5.413,4.333
		c-0.565,2.428,0.729,5.028,3.046,6.124c0.892,0.421,0.898,0.428,0.547,1.366c-1.25,3.342-2.503,6.684-3.757,10.025
		c-0.272,0.724-0.478,0.829-1.184,0.524c-6.317-2.729-10.209-7.443-11.224-14.271c-1.452-9.765,4.96-18.631,14.664-20.478
		C28.202,1.787,29.302,1.747,30.386,1.631"/>
	<path fill="#FFFFFF" d="M9.413,46.834v3.753H8.139v-9.741c0.867-0.172,0.977-0.139,1.248,0.402c0.65-0.396,1.334-0.611,2.108-0.402
		c1.078,0.291,1.722,0.967,1.821,2.09c0.066,0.736,0.077,1.489,0,2.223c-0.192,1.819-1.917,2.697-3.536,1.842
		C9.695,46.956,9.607,46.922,9.413,46.834 M12.034,44.059c0-0.331,0.04-0.667-0.008-0.99c-0.109-0.749-0.691-1.183-1.449-1.126
		c-0.657,0.051-1.156,0.586-1.176,1.293c-0.016,0.545-0.015,1.09,0,1.635c0.018,0.697,0.523,1.246,1.172,1.303
		c0.744,0.063,1.341-0.38,1.453-1.124C12.074,44.726,12.034,44.39,12.034,44.059"/>
	<path fill="#FFFFFF" d="M19.144,44.283c-1.156,0-2.247,0.039-3.333-0.014c-0.61-0.03-0.692,0.238-0.633,0.726
		c0.08,0.652,0.423,1.144,0.955,1.277c0.587,0.147,1.074,0.004,1.422-0.531c0.437-0.67,0.831-0.064,1.181,0.102
		c0.445,0.213,0.075,0.507-0.077,0.703c-0.76,0.98-1.813,1.076-2.915,0.843c-1.068-0.227-1.722-0.93-1.807-2.024
		c-0.067-0.871-0.092-1.764,0.019-2.627c0.179-1.385,1.402-2.211,2.909-2.088c1.276,0.104,2.271,1.206,2.277,2.525
		C19.145,43.521,19.144,43.868,19.144,44.283 M15.252,43.198h2.564c0.02-0.804-0.524-1.394-1.259-1.413
		C15.788,41.764,15.235,42.342,15.252,43.198"/>
	<path fill="#FFFFFF" d="M2.105,44.053c0-0.39-0.012-0.78,0.002-1.171c0.034-0.975,0.518-1.657,1.405-2.037
		c1.52-0.651,3.371-0.015,3.645,1.425c0.221,1.157,0.199,2.416,0.001,3.582c-0.211,1.238-1.578,1.846-3.04,1.601
		c-1.217-0.203-1.993-1.104-2.015-2.347c-0.006-0.352-0.001-0.703-0.001-1.054H2.105z M6.072,44.066
		c-0.023-0.395-0.022-0.786-0.074-1.172c-0.087-0.649-0.652-1.133-1.285-1.137c-0.63-0.005-1.244,0.479-1.29,1.125
		c-0.055,0.775-0.057,1.559-0.002,2.334c0.047,0.669,0.619,1.121,1.278,1.124c0.654,0.003,1.207-0.455,1.298-1.112
		C6.05,44.843,6.049,44.452,6.072,44.066"/>
	<path fill="#FFFFFF" d="M21.129,47.311h-1.265v-6.519c0.445,0.079,1.026-0.369,1.205,0.494c0.762-0.521,1.543-0.67,2.372-0.382
		c0.883,0.308,1.509,0.917,1.556,1.856c0.074,1.496,0.019,2.999,0.019,4.543h-1.219c-0.014-0.199-0.042-0.405-0.043-0.61
		c-0.004-1.113,0.006-2.226-0.004-3.339c-0.008-0.886-0.539-1.432-1.351-1.416c-0.764,0.017-1.267,0.58-1.269,1.436
		C21.127,44.662,21.129,45.948,21.129,47.311"/>
	<path fill="#FFFFFF" d="M59.394,44.164h-4.223c0.142,0.662,0.156,1.283,0.41,1.783c0.428,0.845,1.547,0.952,2.252,0.313
		c0.617-0.561,0.617-0.561,1.32-0.011c-0.092,0.155-0.168,0.335-0.288,0.477c-0.587,0.685-2.034,0.963-3.057,0.602
		c-0.921-0.326-1.462-1.137-1.476-2.229c-0.009-0.626-0.009-1.25-0.002-1.875c0.015-1.43,1.102-2.48,2.549-2.471
		c1.461,0.008,2.508,1.047,2.513,2.494C59.394,43.519,59.394,43.793,59.394,44.164 M58.383,43.449
		c0.096-0.796-0.16-1.344-0.747-1.68c-0.538-0.309-1.273-0.258-1.758,0.119c-0.466,0.363-0.661,0.972-0.487,1.561H58.383z"/>
	<path fill="#FFFFFF" d="M38.541,44.112c0,0.331,0.005,0.663-0.001,0.995c-0.027,1.346-0.83,2.243-2.106,2.357
		c-1.631,0.147-2.722-0.508-2.895-1.926c-0.124-1.012-0.096-2.068,0.046-3.079c0.17-1.215,1.245-1.798,2.786-1.693
		c1.207,0.082,2.071,0.899,2.151,2.06c0.03,0.426,0.005,0.857,0.005,1.286C38.532,44.112,38.536,44.112,38.541,44.112 M37.56,44.124
		c0-0.37,0.013-0.742-0.002-1.112c-0.029-0.72-0.6-1.33-1.312-1.424c-0.818-0.107-1.615,0.3-1.705,1.06
		c-0.114,0.957-0.117,1.947-0.002,2.903c0.093,0.776,0.925,1.207,1.747,1.09c0.689-0.098,1.25-0.734,1.273-1.463
		C37.571,44.828,37.561,44.475,37.56,44.124"/>
	<path fill="#FFFFFF" d="M28.598,45.816c0.584,0.877,1.38,1.094,2.327,0.863c0.519-0.126,0.893-0.41,0.917-0.988
		c0.023-0.552-0.36-0.799-0.812-0.933c-0.577-0.171-1.169-0.296-1.752-0.449c-1.132-0.298-1.472-0.667-1.465-1.579
		c0.007-0.971,0.581-1.748,1.564-1.91c0.945-0.157,1.909-0.182,2.774,0.387c0.263,0.173,0.544,0.316,0.781,0.516
		c-0.558,0.543-0.87,0.759-1.336,0.262c-0.643-0.685-1.492-0.628-2.287-0.331c-0.243,0.091-0.512,0.484-0.516,0.742
		c-0.004,0.284,0.215,0.69,0.46,0.834c0.407,0.238,0.91,0.317,1.375,0.452c0.224,0.064,0.458,0.094,0.683,0.155
		c1.103,0.298,1.52,0.733,1.516,1.572c-0.004,1.001-0.559,1.753-1.576,1.978c-0.864,0.189-1.748,0.195-2.575-0.209
		c-0.207-0.1-0.399-0.248-0.565-0.408c-0.428-0.414-0.393-0.569,0.161-0.826C28.358,45.902,28.45,45.874,28.598,45.816"/>
	<path fill="#FFFFFF" d="M39.332,40.921h0.948c0,0.654-0.011,1.312,0.003,1.968c0.017,0.818,0,1.643,0.103,2.451
		c0.085,0.658,0.715,1.131,1.354,1.182c0.703,0.055,1.333-0.311,1.585-0.959c0.082-0.212,0.104-0.455,0.107-0.685
		c0.011-1.055,0.005-2.11,0.005-3.165c0.001-0.86,0.001-0.86,0.92-0.794v6.386h-0.692c-0.035-0.289-0.068-0.568-0.109-0.906
		c-0.132,0.07-0.234,0.093-0.284,0.156c-0.644,0.826-1.482,0.973-2.413,0.641c-0.968-0.346-1.472-1.107-1.512-2.1
		C39.291,43.732,39.332,42.364,39.332,40.921"/>
	<path fill="#FFFFFF" d="M49.967,44.092c0,0.332-0.004,0.664,0,0.996c0.011,0.726,0.363,1.242,1.031,1.485
		c0.625,0.228,1.182,0.045,1.65-0.439c0.133-0.137,0.352-0.295,0.512-0.275c0.205,0.025,0.492,0.184,0.55,0.353
		c0.052,0.148-0.116,0.442-0.271,0.579c-0.871,0.78-1.906,0.863-2.962,0.524c-0.985-0.315-1.451-1.085-1.468-2.103
		c-0.014-0.857-0.01-1.719,0.044-2.574c0.044-0.686,0.422-1.201,1.021-1.547c0.934-0.54,2.421-0.451,3.266,0.22
		c0.24,0.191,0.644,0.431,0.301,0.783c-0.242,0.249-0.607,0.493-0.984,0.031c-0.451-0.553-1.062-0.716-1.739-0.443
		c-0.68,0.274-0.953,0.824-0.957,1.53c-0.002,0.293-0.001,0.586-0.001,0.88C49.961,44.092,49.964,44.092,49.967,44.092"/>
	<path fill="#FFFFFF" d="M46.624,40.936v1.11c0.744-0.621,1.266-1.445,2.318-1.086v0.91c-0.108,0-0.2,0.006-0.289-0.001
		c-1.173-0.097-1.894,0.544-1.916,1.736c-0.019,1.034-0.004,2.067-0.004,3.103c0,0.19,0,0.381,0,0.604h-0.93v-6.376H46.624z"/>
	<path fill="#FFFFFF" d="M49.226,35.17c0.304-1.211,0.607-2.419,0.938-3.738c0.498,0.952,0.951,1.818,1.459,2.789
		c0.49-0.949,0.928-1.799,1.436-2.783c0.344,1.338,0.648,2.529,0.953,3.726c-0.394,0.146-0.553,0.056-0.625-0.31
		c-0.118-0.586-0.291-1.16-0.475-1.873c-0.459,0.832-0.855,1.552-1.293,2.344c-0.436-0.803-0.826-1.523-1.301-2.399
		c-0.182,0.759-0.333,1.333-0.455,1.914C49.785,35.215,49.604,35.332,49.226,35.17"/>
	<path fill="#FFFFFF" d="M47.649,35.209h-0.65v-3.222H45.98c-0.04-0.055-0.08-0.108-0.12-0.163c0.108-0.1,0.213-0.285,0.324-0.288
		c0.816-0.024,1.634-0.013,2.448-0.013c0.023,0.371,0.023,0.371-0.983,0.49V35.209z"/>
</g>
</svg>
