<?xml version="1.0" encoding="utf-8"?>
<!-- Generator: Adobe Illustrator 17.0.0, SVG Export Plug-In . SVG Version: 6.00 Build 0)  -->
<!DOCTYPE svg PUBLIC "-//W3C//DTD SVG 1.1//EN" "http://www.w3.org/Graphics/SVG/1.1/DTD/svg11.dtd">
<svg version="1.1" id="Calque_1" xmlns="http://www.w3.org/2000/svg" xmlns:xlink="http://www.w3.org/1999/xlink" x="0px" y="0px"
	 width="950px" height="911.667px" viewBox="0 0 950 911.667" enable-background="new 0 0 950 911.667" xml:space="preserve">
<g>
	<path fill="#91B024" d="M341.196,15.047l4.784,5.412l-17.541,5.412l-1.595,2.547l-3.508,0.955l-0.957,11.143l-31.574,14.008
		l-11.8-2.229c0,0,1.914,10.506-5.103,10.187c-7.016-0.318-6.379,1.273-6.379,1.273l0.638,3.502l2.233,3.82l3.189,1.91l-0.957,2.547
		l-4.784,1.273l10.206,12.734l10.206-0.637L288.573,94l3.189,2.865l6.698,0.955l5.422,8.914l-4.146,7.004l17.541,17.51l-2.233,2.229
		c0,0-3.827,1.592-3.827,0.637c0-0.955-0.319,5.73,0,6.686c0.319,0.955-20.73,23.558-21.368,22.922s-2.232,5.094-2.232,5.094
		s-1.276,2.229,0,2.547c1.276,0.318,7.016,3.82,7.016,3.82l18.498,7.004c0,0-0.319,6.049,0,7.004
		c0.319,0.955,1.914,6.367,1.914,6.367l4.465,4.457l0.957,2.865l-5.103,0.955l1.276,3.184c0,0,4.465,0.637,4.465,1.91
		c0,1.273-3.827,20.375-3.827,20.375l23.92,7.004l-17.541,10.506l-3.189,5.094v7.641l-3.827,5.73l-12.757,12.098h-6.698
		l-20.092-2.228l-7.016,4.775l-6.06-0.637l1.276,6.049l-20.73,7.959l0.319,5.73l-14.033,2.547l-14.671,5.094l0.287,0.365
		l3.221,4.092l42.736,12.416l6.06,10.824l15.946,3.184l4.146,6.367l7.335,5.73l17.222,13.053c0,0,3.189,0.637,4.146,0.637
		s16.903,12.734,16.903,12.734l24.876,16.555l11.163,7.641l4.465,7.004l-5.103,1.91L325.25,433.05c0,0-8.292-1.273-8.611-1.273
		c-0.319,0-3.827,3.82-3.827,3.82l-21.049-2.865c0,0-10.206,5.412-10.525,4.457c-0.319-0.955-21.687-2.865-21.687-2.865
		l-94.403-39.158l-14.352,6.686l7.335,2.865l-21.368,35.019l3.189,1.592l9.887,1.91l-1.276,4.775l-7.016,5.094l-9.887,12.734
		l-29.022,0.955L84.14,456.609l-2.87,1.91l10.206,11.143l-5.741,4.457l-3.827,1.91l0.319,2.547l-5.103,1.91l-0.319,3.184
		l-8.93,2.865c0,0-4.146,4.139,2.551,9.232c6.697,5.094,10.525,6.686,11.481,7.004c0.957,0.318,5.103,0.955,5.103,0.955l2.232,4.139
		c0,0,7.016,0.955,8.611-1.91c1.595-2.865,10.206,0.318,10.206,0.318l0.319,7.322l0.319,5.094l2.233,1.91l7.654,2.865
		c0,0,2.232,5.094,1.276,5.094s-8.292,2.229-8.292,2.229l-5.741,0.318l-4.465,2.547l-7.654-2.228l-5.103,1.592l-5.103,4.139
		l-77.5,80.544c0,0,30.617-0.955,42.736,2.547c12.119,3.502,69.845,28.971,69.845,28.971l15.627-7.322l222.293,12.416
		c0,0,8.93,4.139,12.119,5.73c2.454,1.225,8.611,0.318,8.611,0.318s3.508-1.592-0.319,8.596l-12.438,56.986l21.049,71.63
		l20.092,14.008l0.957,12.416l31.574,3.184l3.827-7.004l-0.957-4.139l5.422-2.228l-0.957-15.918l7.973-3.502l-5.741,5.412
		l1.276,15.281l-4.784,3.82l-0.638,9.551h6.379l2.87,3.502l9.249-1.273l7.016,1.91l7.016-1.91l15.946,13.371h9.249l18.179,9.551
		l2.87-2.229L616.75,735.49l14.352-12.098l66.656-49.345l16.903-6.685l15.946-7.322c0,0,10.844-0.955,11.162,0
		c0.319,0.955,15.946,7.641,15.946,7.641l15.946,7.959l10.525,4.775l13.076-1.91l8.292-4.139v-12.734l20.093-35.974l6.06,0.955
		l27.109-1.273l7.973-7.322l-1.914-26.105l8.611-8.277l0.319,3.184l23.92,1.273l14.671-2.229l11.056-4.669
		c0,0,0.106-25.893,0.106-24.62s-38.909-40.113-27.428-46.48c11.481-6.367,28.066-14.326,28.066-14.326l-0.957-7.959l-15.628-12.734
		l-14.671,5.094l28.704-22.603l13.076-20.693l-0.957-21.012c0,0-14.033-12.734-14.352-11.461s-26.471-2.865-26.471-2.865
		s-30.936,4.139-32.85-2.865c-1.914-7.004,1.276-12.416,7.335-13.053s37.315-4.457,37.315-4.457l12.438-7.322l15.946-3.82
		l9.249-19.42l-0.957-9.232c0,0-32.212-10.824-38.909-27.697c-6.698-16.873-12.119-13.689-9.568-20.057s-9.249-7.322-9.249-7.322
		l-4.146,3.82l-50.391-13.371l-4.146,3.82v2.547l-77.819-21.967l-0.957-3.184l7.973-26.424c0,0-10.844-9.869-10.525-8.914
		s-0.319-15.6-0.319-15.6l-4.146-3.82c0,0-0.957-5.094-0.638-4.139c0.319,0.955-29.341-25.469-29.979-24.514
		c-0.638,0.955-7.973-18.465-7.973-17.191c0,1.273-69.207-8.914-69.207-8.914l-2.551-10.824l4.784-1.592v-7.641l3.189-2.547
		l-0.638-2.229l-33.487-7.322l-0.957-4.457l-4.465-0.637l-4.465,4.139c0,0-14.671-2.229-15.309-1.273s-13.395-3.82-13.395-3.82
		l-10.844-7.641c0,0-4.146-21.648-4.146-20.693c0,0.955-3.189-1.592-3.189-1.592h-3.827l-4.146-6.049L512.461,58.98l0.319-8.596
		c0,0-11.162-3.82-10.206-3.502c0.957,0.318-6.698-10.824-6.698-10.824l-4.784,0.955c0,0-37.527,7.641-45.607-9.763
		c0,0-6.379-11.036-11.481-9.763l-2.126-1.698l-39.547,0.424l-7.229-6.367h-7.229l-5.528,0.849l-4.678-0.424l-4.678,2.971
		l-6.379-4.669L341.196,15.047z"/>
	<path fill="none" stroke="#9BC448" stroke-width="2.5491" stroke-miterlimit="10" d="M341.196,236.305l14.033-5.73l11.8-7.959
		h11.481l16.265,19.42l6.06-1.592l1.276,6.686c0,0,6.379,5.412,6.698,6.049c0.319,0.637,7.654,0.637,7.654,0.637l-2.87,9.551
		l4.146,2.865l-3.827,3.184l4.146,5.412c0,0-11.8,13.371-10.844,14.326s12.119-1.273,12.119-1.273s10.844-6.049,10.844,3.502
		s2.87,6.049,7.335,6.367c4.465,0.318,62.191,53.802,62.191,53.802l14.352,26.424c0,0,25.833,17.828,26.79,18.146
		s7.973,4.775,8.292,5.73c0.319,0.955,4.784,6.685,4.784,6.685l20.411-2.547c0,0-0.319-5.094,0.638-5.094s9.887-4.457,9.887-4.457
		l7.654-1.91l1.914-5.094l7.335-4.775l3.827,4.457l2.232,4.139l20.411,1.91l4.784-5.094l2.87,3.502l4.465-3.502l5.103,3.184
		l5.422-2.547l38.271,9.232l3.189,3.184l10.844,0.637l-0.957,8.277l5.741,3.82l44.969-7.641l18.179-29.607l3.827-1.592l19.136,2.547
		"/>
	<path fill="none" stroke="#9BC448" stroke-width="2.5491" stroke-miterlimit="10" d="M862.006,387.525l7.016-28.971l-3.827-8.277
		l-25.833-1.592l-3.508,7.004l-2.551,2.865l-8.93,2.865l-7.016-0.955l-8.93-1.592l-5.741-10.506l-8.611,3.82l-8.611,0.637
		l8.611,26.742l-2.87,30.244l-18.817,10.506l-0.319,3.502l4.465,2.547l-1.276,2.228l-13.395,7.004c0,0-4.784,14.326-6.06,14.644
		c-1.276,0.318-12.438,8.596-12.438,8.596l-4.146-1.273l-2.87,3.82l-2.87,4.775l2.232,3.184l6.379,3.82l-7.973-0.637l-1.276,3.82
		l-5.741,2.547l2.233,7.959l2.551,2.865l-5.741-0.955l-2.87,3.184l13.395,8.914l-0.957,10.506l11.8,13.689
		c0,0,30.617,1.273,31.574,1.91s11.162,5.73,11.162,5.73l5.741-56.986l4.146-4.139l-0.957-11.142l-6.698,1.592l-0.957-4.139
		l5.741-3.502v-12.734l6.379,6.049l-0.957-6.367l7.229,4.457l-8.186-11.143l10.525-23.24l-4.465-16.873l4.146-18.465l-3.508-17.191"
		/>
	<path fill="none" stroke="#9BC448" stroke-width="2.5491" stroke-miterlimit="10" d="M673.998,396.28l-17.063,11.62l-9.887,0.955
		l-22.963,10.187l-1.276,5.73l-5.741,0.318l1.595,3.82c0,0-9.887-2.547-9.249-1.273c0.638,1.273-1.276,7.004-1.276,7.004
		s13.076,0.637,12.438,1.592s-0.957,9.232-0.957,9.232l-5.741,2.865l7.973,4.139l-4.784,3.184v2.865l-2.87,2.229l7.654,3.184
		l-1.914,5.412l3.189,4.457l-16.903,11.779l24.557,15.599c0,0,4.465-1.273,6.06-4.775c1.595-3.502,4.784-14.644,12.438-12.098
		c7.654,2.547,18.498,5.094,18.498,5.094l13.714,8.277l0.957-17.51l6.379-2.865l-0.319-4.775l-2.232-4.457l2.551-1.91l5.103-3.184
		l0.638-3.82l7.335,4.457l1.595,3.82l7.654-1.273l-0.638,5.73l10.206,2.229c0,0-2.87,7.004-2.232,7.959
		c0.638,0.955,7.016,6.526,7.016,6.526"/>
	<path fill="none" stroke="#9BC448" stroke-width="2.5491" stroke-miterlimit="10" d="M620.578,436.234l-16.903,3.184
		l-19.774,24.514l-8.292,0.637c0,0-10.844,7.959-12.119,7.959s-17.541-9.232-16.903-8.277c0.638,0.955-38.909,31.836-38.271,32.791
		c0.638,0.955,20.092,13.689,20.092,13.689l8.611-12.416l-1.276,6.686l10.206,5.094c0,0,14.99-4.139,14.033-4.139
		s-2.87,4.457-2.87,4.457l10.525,5.412l-0.638,4.139l-5.741,4.457l-4.146-0.637l-2.551,3.502l20.411,18.146l5.422-0.637l2.232-5.412
		l5.422,6.049l4.784-1.592l5.422,5.412v4.775l27.747-14.326l1.914-4.139c0,0,7.973-7.959,7.654-8.596s-15.946-18.783-15.946-18.783
		l0.319-4.775l10.844-2.229"/>
	<path fill="none" stroke="#9BC448" stroke-width="2.5491" stroke-miterlimit="10" d="M598.253,554.026l-8.611,0.955l0.319,6.049
		l8.93,5.73l-2.87,9.869l19.136-4.775l-2.232,12.416l3.827-2.229l11.481,0.637l13.714-9.551l0.957,3.82l-1.914,3.184l2.551,1.91
		l6.06-6.367l4.465,5.094l5.103-0.955l4.465,6.367l-7.016,5.412l4.784,2.865l-6.91,7.534l-7.123-4.351c0,0-1.276-2.865-5.103,1.273
		c-3.415,3.693-9.462,5.624-1.595,8.914c2.942,1.23-4.784,2.865-4.784,2.865l6.06,6.367l-4.146,2.547l2.87,2.865l-6.697,5.73
		l11.162-0.318l-1.914,5.412l-1.914,3.82l-9.887-0.955l-4.146,5.412l1.595,2.865l8.611-1.273l-0.319,6.367l6.379,3.184
		l-17.222,12.416l-4.146-1.91l-5.103-7.004l-5.103-2.865l-5.741,7.641l-4.146-1.91c0,0-6.379,6.367-7.016,5.094
		s-3.827,0.955-7.654-2.229c-3.827-3.184-9.887-10.187-13.076-7.004s-7.654,7.004-7.654,7.004l-3.508-2.865
		c0,0-7.654,2.229-6.698,2.229s-5.103-8.277-5.103-8.277l5.422-7.004l10.525-1.91l13.714-12.734l7.654-1.91l0.957-3.82l9.568-2.865
		c0,0,6.379-4.775-2.551-4.457s-17.86-2.865-17.86-2.865l-6.379-5.094l-14.352,2.547l-0.319-10.506l-8.611-6.049l6.06-4.457
		l1.276-7.641l-7.654-4.457l8.292-14.326l22.325,7.322l4.465,9.232l9.568,2.229l2.551-7.641"/>
	<path fill="none" stroke="#9BC448" stroke-width="2.5491" stroke-miterlimit="10" d="M558.068,566.442l-11.8-7.004l-18.179-1.592
		c0,0-10.525,7.959-12.119,7.959c-1.595,0-1.914-7.641-3.827-12.098c-1.914-4.457-5.103-6.049-7.335-4.457
		c-2.232,1.592,5.422,19.101-15.627,19.42c0,0-2.233-7.959-2.233-7.004c0,0.955-4.465,6.686-4.465,6.686s1.914,24.832,10.525,29.926
		c8.611,5.094,13.714,20.057,13.714,20.057l14.99,11.461l12.757,6.686l5.741,7.004l5.103-1.91l8.611,7.322"/>
	<polyline fill="none" stroke="#9BC448" stroke-width="2.5491" stroke-miterlimit="10" points="377.235,660.357 380.105,654.945 
		401.155,669.271 485.99,586.817 	"/>
	<path fill="none" stroke="#9BC448" stroke-width="2.5491" stroke-miterlimit="10" d="M550.52,645.713l-2.977,8.277l-6.698-1.273
		l-47.839,35.019l45.607,10.506l-1.276,3.184l-6.698-1.91c0,0-7.335,4.457-6.379,4.457s16.584,6.685,16.584,6.685l-0.957,5.094
		l-13.076,7.641l0.319,6.685l10.206-5.73l3.508,2.865l-4.465,9.869l7.016,5.73"/>
	<path fill="none" stroke="#9BC448" stroke-width="2.5491" stroke-miterlimit="10" d="M558.705,735.171l-6.379,0.955l-2.233-4.139
		l-5.103,3.502l1.914,3.82l-7.016,7.004l-0.957,9.869l-11.162-8.596l-19.136,1.91l-1.595,3.502l14.033,11.779l6.06-2.865
		l3.508-3.502l3.827,2.229l12.757-5.094c0,0,5.741-5.73,5.422-7.004s5.103-7.959,5.103-7.959l2.87-13.689l3.508-1.91l4.465,17.191
		l6.06,0.637l24.876-19.101l1.276-6.367l14.352-15.918l54.856-40.431c0,0-4.146-16.236-2.87-15.599
		c1.276,0.637,26.471-10.824,26.471-10.824"/>
	<path fill="none" stroke="#9BC448" stroke-width="2.5491" stroke-miterlimit="10" d="M645.135,627.885
		c0.957,0,49.753-2.229,49.753-1.273s-1.276,10.506-1.276,10.506l37.953,13.689c0,0,0.319,7.959,0,8.596"/>
	<polyline fill="none" stroke="#9BC448" stroke-width="2.5491" stroke-miterlimit="10" points="825.436,624.489 829.795,610.375 
		834.897,608.147 827.562,603.69 835.216,602.098 828.2,598.278 829.795,584.907 813.529,574.719 790.885,579.495 788.015,584.27 
		783.231,582.678 779.723,588.09 774.301,587.772 767.285,583.952 761.863,582.041 759.63,591.274 749.106,597.004 750.7,604.326 
		745.916,610.057 766.328,614.196 770.474,616.742 775.896,629.158 766.966,632.342 761.863,627.248 751.338,626.93 
		731.565,650.807 	"/>
	<path fill="none" stroke="#9BC448" stroke-width="2.5491" stroke-miterlimit="10" d="M641.946,573.127
		c0-0.955,30.936-24.513,30.936-24.513l23.92,9.551l-15.627,12.734v5.094l68.57,28.652"/>
	<path fill="none" stroke="#9BC448" stroke-width="2.5491" stroke-miterlimit="10" d="M711.685,588.196l5.953-3.608l-2.977-2.971
		l8.717-4.669l16.372-12.734c0,0-4.465-4.669-3.402-4.457c1.063,0.212,5.953,1.698,5.953,1.698l13.82-10.612
		c0,0,5.315,2.335,4.89,2.971c-0.425,0.637,4.89-2.335,4.89-2.335l-0.425-4.033l6.591-1.91v-5.094c0,0,7.442-5.518,7.654,0.212
		c0.213,5.73-2.126,8.065-2.126,8.065s-5.953,7.216-5.315,7.641c0.638,0.424,29.88,14.469,29.554,15.281
		c-0.425,1.061-2.551,5.943-2.551,5.943"/>
	
		<line fill="none" stroke="#9BC448" stroke-width="1.2746" stroke-miterlimit="10" x1="778.022" y1="548.083" x2="790.247" y2="532.696"/>
	<polyline fill="none" stroke="#9BC448" stroke-width="2.5491" stroke-miterlimit="10" points="792.48,507.546 820.865,503.726 
		853.395,507.546 841.595,516.141 813.529,574.719 	"/>
	
		<line fill="none" stroke="#9BC448" stroke-width="2.5491" stroke-miterlimit="10" x1="898.577" y1="476.347" x2="853.395" y2="507.546"/>
	<polygon fill="#91B024" points="500.341,847.552 516.926,858.057 502.255,877.795 497.471,874.294 502.255,858.057 
		496.833,848.507 	"/>
	<path fill="none" stroke="#1D1D1B" stroke-width="1.2746" stroke-miterlimit="10" d="M216.176,306.662"/>
	<path fill="#744712" d="M363.415,412.251l-5.528,0.849l-42.099-27.591l-9.78,0.424l-7.654-11.885l-22.538-14.432l-16.584,3.396
		l-5.103-15.281l-37.846-13.583l2.977-6.367l-3.083-21.118l3.508,4.457l42.736,12.416l6.06,10.824c0,0,17.116,2.122,16.903,2.759
		s3.189,6.792,3.189,6.792l24.557,18.783l5.422,0.318c0,0,14.671,12.098,15.628,13.053s37.315,23.665,37.315,23.665l3.189,7.534
		L363.415,412.251z"/>
	<polyline fill="#744712" points="317.277,229.301 317.064,252.648 320.466,253.072 320.466,251.905 323.655,246.811 
		341.196,236.305 317.277,229.301 	"/>
	<polygon fill="#676F28" points="136.763,459.792 136.763,439.736 139.952,441.328 150.371,442.176 148.563,448.013 
		141.547,453.107 	"/>
	<polygon fill="#676F28" points="149.095,420.316 150.796,401.851 158.131,404.716 	"/>
	<polygon fill="#676F28" points="84.884,474.649 91.475,469.661 81.269,458.519 82.226,478.575 82.545,475.498 	"/>
	<path fill="#744712" d="M96.791,531.953c-1.276-4.245-10.631-3.82-10.631-3.82l-4.678,1.698c0,0,1.701-6.367-2.126-3.82
		c-3.827,2.547-13.714-3.184-13.714-3.184l0.638-32.154c0,0,3.083,4.988,9.249,8.808c6.166,3.82,11.481,4.245,11.481,4.245
		l2.232,4.139c0,0,5.847,0.743,7.548-0.743c1.701-1.486,1.701-3.396,6.804-2.122c4.053,1.011,4.465,1.273,4.465,1.273l0.638,12.416
		l2.233,1.91l7.654,2.865l2.232,5.094l-9.78,2.971c0,0-5.315-0.212-5.528,0.424c-0.213,0.637-4.465,2.547-4.465,2.547
		L96.791,531.953z"/>
	<path fill="#744712" d="M372.983,686.887l-9.78-2.971c0,0-5.422,0.955-6.06,2.547s-11.481-5.094-10.844-6.367
		s-21.033,0.719-22.325,0.318c3.083,0.955-192.063-1.807-188.343-1.489c0,0-18.816,10.824-19.135,9.55
		c-0.319-1.273-48.793-35.336-59.318-43.931s-48.306,6.899-48.306,6.899l-2.87-33.746c0,0,36.996-1.273,45.288,2.759
		s67.294,28.758,67.294,28.758l15.627-7.322l222.187,11.673c0,0,10.631,6.155,14.671,6.579s9.78-2.547,7.229,4.881
		C375.747,672.455,372.983,686.887,372.983,686.887z"/>
	<polygon fill="#744712" points="437.831,826.752 437.831,848.613 394.882,845.217 382.976,820.173 372.77,816.352 368.943,792.582 
		364.478,725.939 385.527,797.569 405.62,811.577 406.577,823.993 	"/>
	<path fill="#744712" d="M497.365,862.833l-6.804,2.122l-18.71-2.335l-7.654-7.641l-13.608,4.245l-2.977-7.641l-4.04,0.424
		c0,0,0.213-21.648,0-23.558h6.379l2.87,3.502l9.249-1.273l7.016,1.91l7.016-1.91l15.946,13.371h9.249l18.179,9.551l-5.422,2.547
		l-13.714-8.596l-3.402,1.486L497.365,862.833z"/>
	<polygon fill="#676F28" points="497.471,874.294 496.833,848.507 502.255,858.057 	"/>
	<polyline fill="#744712" points="516.926,858.057 515.863,880.873 502.893,905.917 495.451,899.974 497.454,877.69 
		497.471,874.294 504.594,876.204 516.926,858.057 	"/>
	<path fill="#744712" d="M805.556,674.365l3.508,33.746l-31.893,3.82l-29.341-8.914l-17.86-14.008l-25.514,7.641l-80.37,64.945
		l-94.403,127.343l-8.93-1.698c0,0-5.528-9.126-5.741-9.763l1.914-19.42l-4.252-2.865l4.89-2.335l1.914,0.743l2.87-2.229
		l95.36-118.004l80.051-59.321l33.062-14.538h10.206l2.339,1.273l40.398,19.314l13.82-2.335L805.556,674.365z"/>
	<polygon fill="#744712" points="866.79,618.016 866.471,642.317 853.714,661.419 824.798,660.57 805.237,698.348 805.024,674.365 
		805.556,661.631 825.649,625.02 830.114,625.763 858.392,624.701 	"/>
	<path fill="#744712" d="M923.453,581.193l-0.85,23.771l-12.757,22.922l-28.066,1.273l-11.907-22.497l-3.402,35.656l-0.425-24.195
		c0,0-2.658-26.848-1.914-26.53s9.143-8.914,9.143-8.914l0.531,4.139l23.92,1.273l14.671-2.229L923.453,581.193z"/>
	<path fill="#744712" d="M924.197,495.767c0,16.193-0.755,18.301-1.595,46.799c0,0-14.458-12.31-16.159-4.669
		c0,0-18.71-22.922-11.056-28.015S924.197,495.767,924.197,495.767z"/>
	<polygon fill="#744712" points="934.722,436.871 939.187,482.714 928.981,491.628 917.287,482.926 907.613,475.073 
		892.411,480.592 909.42,466.584 921.646,457.564 	"/>
	<path fill="#744712" d="M942.376,350.596l-0.213,50.194l-7.229,6.367l-11.056-2.122l-11.481-2.547l-7.654,0.849l-11.8-1.804
		c0,0-32.637,4.988-33.487-4.351s4.89-11.249,7.973-11.567s37.953-4.775,37.953-4.775l11.8-7.004l15.946-3.82L942.376,350.596z"/>
	<polygon fill="#9BC448" points="753.783,263.047 754.209,231.53 746.235,257.954 747.192,261.137 	"/>
	<polygon fill="#9BC448" points="636.843,149.075 636.843,125.835 633.654,128.382 633.654,136.023 628.87,137.615 631.421,148.439 
			"/>
	<path fill="#744712" d="M314.938,214.233c0,0-4.678-5.73-5.103-5.306c-0.425,0.424-5.103,2.971-5.103,2.971l-2.126-10.187
		l-11.907,2.122l-3.615-33.321l7.548,4.669l18.392,6.155l0.106,7.853l1.807,5.73l5.103,4.245l0.425,3.714l-5.103,0.955
		L314.938,214.233z"/>
	<polygon fill="#744712" points="317.064,234.82 314.938,228.028 314.938,203.196 316.639,207.016 321.316,208.29 317.702,227.179 	
		"/>
	<polygon fill="#744712" points="300.905,153.532 291.975,140.161 284.321,136.341 285.596,131.247 283.045,125.517 
		276.666,128.701 270.926,115.33 267.524,63.756 269.969,70.653 274.434,72.988 273.477,75.535 268.693,76.808 278.899,89.543 
		289.104,88.906 289.211,92.832 291.762,96.653 300.692,97.077 304.732,106.734 300.905,112.783 317.702,130.398 315.895,133.476 
		312.174,135.068 312.067,140.798 	"/>
	<polyline fill="#744712" points="437.831,848.613 443.785,827.601 444.21,818.899 437.831,832.27 437.831,848.613 	"/>
	<polygon fill="#9BC448" points="496.94,889.575 503.318,890.424 516.713,871.747 516.926,858.057 504.169,875.143 497.471,874.294 
			"/>
	<path fill="#676F28" d="M443.572,828.45h6.379l2.87,3.502l9.249-1.273l7.654,1.804l6.379-1.804l16.584,13.477l8.611-0.106
		l18.179,9.551l1.754,17.828l-4.518-5.837l0.213-7.534l-16.584-10.506l-3.402,1.486v8.49l-4.04,0.424l-18.923-2.971
		c0,0-7.654-8.065-7.867-8.914s-8.93,1.698-8.93,1.698l-5.103-0.424l-3.615-7.641l-4.89,1.486V828.45z"/>
	<path fill="#676F28" d="M437.619,826.752l3.827-7.004c0,0-0.85-2.971-0.638-3.396c0.213-0.424,5.103-3.396,5.103-3.396
		l-0.425-15.493l7.867-2.971l-5.315,5.094l0.85,15.918l-4.465,3.396l-0.213,4.881l-7.016,16.555L437.619,826.752z"/>
	<polygon fill="#676F28" points="364.265,726.788 385.74,797.676 405.726,811.259 406.577,823.569 437.619,826.752 437.194,840.335 
		398.072,839.699 393.607,816.777 390.417,814.018 375.322,807.863 367.455,771.146 	"/>
	<path fill="#676F28" d="M377.66,667.149c0,0,5.315-7.428-1.276-7.216c-6.591,0.212-14.033-3.184-19.774-6.155
		c-5.741-2.971-222.187-12.098-222.187-12.098l-15.946,7.004c0,0-56.769-24.407-60.171-26.105
		c-3.402-1.698-14.245-5.094-24.239-5.306S5.79,617.698,5.79,617.698l2.126,18.889c0,0,46.138-13.795,56.131,0.424
		s54.218,34.807,54.218,34.807l16.584-8.277l214.745,2.759c0,0,1.276,6.367,5.953,9.126c4.678,2.759,5.315-4.245,10.631-2.547
		c5.315,1.698,8.292,5.306,8.292,5.306L377.66,667.149z"/>
	<path fill="#676F28" d="M116.139,530.043l4.89-1.273l-1.914-5.094l-8.08-2.971l-2.126-1.91l-0.85-12.522
		c0,0-6.166-4.881-9.993-0.849c-3.827,4.033-7.229,2.122-8.292,1.486s-2.551-3.82-2.551-3.82s-15.096-2.547-20.837-13.159
		l-0.425,22.285c0,0,9.993,9.339,15.734,4.033s4.89-0.212,3.402,3.184c-1.488,3.396,12.545-5.73,14.033,2.971
		c1.488,8.702,7.442,8.702,9.143,9.339C109.973,532.378,116.139,530.043,116.139,530.043z"/>
	<path fill="#676F28" d="M216.708,306.556l2.764,4.457l43.587,12.522l5.528,9.763c0,0,16.372,2.335,16.797,2.971
		s2.977,7.641,2.977,7.641l25.089,18.252l6.591-1.061l15.096,15.281l36.783,23.346l2.764,8.065l-5.103,1.486l-10.844-1.061
		l-38.697-31.411l-11.056,1.698l-4.252-9.126l-21.687-16.555l-18.71-2.547l-3.402-10.612l-37.208-14.432l-4.465,2.122
		L216.708,306.556z"/>
	<polygon fill="#676F28" points="264.122,279.39 265.397,285.332 262.633,286.606 	"/>
	<polygon fill="#676F28" points="286.872,170.511 293.888,174.756 313.662,180.274 313.024,188.127 316.426,195.556 
		320.253,199.376 320.891,203.408 315.363,204.045 317.277,207.016 321.742,208.078 317.489,228.24 317.702,211.898 
		315.788,211.686 311.961,206.804 311.536,202.559 306.433,205.319 306.858,195.768 294.526,193.221 289.636,190.462 	"/>
	<path fill="#676F28" d="M317.702,229.514c-0.213-0.637,24.451,6.579,24.451,6.579l-15.521,8.914h-9.355L317.702,229.514z"/>
	<polygon fill="#676F28" points="267.736,63.543 270.075,70.76 274.54,72.67 274.115,75.853 269.862,77.127 279.218,89.436 
		288.998,88.588 289.423,92.62 291.762,96.228 300.905,96.653 305.582,106.84 300.905,112.358 318.552,130.186 315.576,133.582 
		312.599,134.855 312.174,140.374 308.559,145.043 300.267,129.337 291.55,127.639 292.187,120.635 286.234,111.085 276.454,117.24 
		269.65,98.775 	"/>
	<polygon fill="#676F28" points="341.302,15.365 341.09,22.369 346.405,20.247 	"/>
	<path fill="#9BC448" d="M512.886,50.172c-0.213,0.849-0.425,9.126-0.425,9.126l1.914,0.849L512.886,50.172z"/>
	<path fill="#9BC448" d="M942.376,349.959v20.905l-7.016,13.584l-11.907-1.486l-9.355,6.579l-32.319,2.759l-14.67,10.824
		c0,0-7.654-0.424-8.505-5.943c-1.329-8.624,3.296-12.416,10.844-12.947c7.715-0.542,7.652-0.541,35.933-3.396l11.435-8.074
		l15.817-4.218L942.376,349.959z"/>
	<polygon fill="#9BC448" points="934.722,436.871 934.084,458.519 926.217,471.041 910.909,478.257 908.251,475.551 
		891.826,480.485 922.603,455.972 	"/>
	<path fill="#9BC448" d="M924.197,495.767c0,0-30.298,11.779-31.096,16.555c-0.797,4.775,2.286,8.596,2.286,8.596
		s24.451-10.559,26.365-6.58c0,0,1.169-5.412,2.126-7.004C924.835,505.742,924.197,495.767,924.197,495.767z"/>
	<path fill="#9BC448" d="M923.453,581.193l-11.514,3.779l-15.224,2.768l-22.697-1.56l0.319-4.988l-11.056,10.4l2.711,27.06
		l-8.877,3.502l-28.278,1.061l-3.668,1.804l-20.252,36.452l-0.319,12.734l-6.379,3.184l-14.192,2.069l-43.002-22.497l-11.216-0.106
		l-32.581,16.492l-80.269,59.905l-94.613,118.12l-2.87,2.229l1.754,17.828l9.408-4.457l90.257-123.682l79.694-61.046l33.047-10.744
		c0,0,17.222,12.734,17.063,13.212c-0.159,0.478,29.66,7.322,29.66,7.322l21.847-7.163l6.538-4.616l1.116-14.963l17.275-27.856
		l27.641,2.971l12.544-10.824l0.904-9.975v-21.648l3.349-0.637v4.139l17.647,6.049l18.285-4.245l15.521-8.702L923.453,581.193z"/>
	<path fill="#9BC448" d="M893.261,291.7c0,0-3.615,5.094,0.425,7.641L893.261,291.7z"/>
</g>
</svg>
