<?xml version="1.0" encoding="utf-8"?>
<!-- Generator: Adobe Illustrator 16.0.0, SVG Export Plug-In . SVG Version: 6.00 Build 0)  -->
<!DOCTYPE svg PUBLIC "-//W3C//DTD SVG 1.1//EN" "http://www.w3.org/Graphics/SVG/1.1/DTD/svg11.dtd">
<svg version="1.1" id="Calque_1" xmlns="http://www.w3.org/2000/svg" xmlns:xlink="http://www.w3.org/1999/xlink" x="0px" y="0px"
	 width="72.312px" height="70.875px" viewBox="-1.188 0 72.312 70.875" enable-background="new -1.188 0 72.312 70.875"
	 xml:space="preserve">
<radialGradient id="SVGID_1_" cx="35.415" cy="35.2749" r="35.0759" gradientUnits="userSpaceOnUse">
	<stop  offset="0" style="stop-color:#8DD8F8"/>
	<stop  offset="0.131" style="stop-color:#8DD8F8"/>
	<stop  offset="1" style="stop-color:#8DD8F8"/>
</radialGradient>
<ellipse opacity="0.4" fill="url(#SVGID_1_)" cx="35.416" cy="35.275" rx="34.709" ry="35.438"/>
<rect x="-3.561" y="-0.127" fill="none" width="71" height="71.002"/>
<circle fill="none" stroke="#8F421D" stroke-miterlimit="10" cx="35.252" cy="35.235" r="34.874"/>
<path fill="#8F421D" d="M35.289,25.33c0.972,0,1.947-0.004,2.92,0.002c0.602,0.005,0.826,0.196,0.918,0.789
	c0.459,3.081,0.912,6.163,1.371,9.243c0.476,3.178,0.957,6.357,1.432,9.537c0.18,1.188,0.355,2.375,0.533,3.562
	c0.053,0.351-0.053,0.642-0.303,0.896c-2.082,2.131-4.158,4.269-6.242,6.398c-0.478,0.486-0.854,0.49-1.323,0.01
	c-2.084-2.132-4.159-4.268-6.243-6.397c-0.264-0.267-0.359-0.567-0.305-0.935c0.533-3.561,1.072-7.119,1.603-10.684
	c0.56-3.76,1.106-7.521,1.66-11.28c0.019-0.112,0.046-0.225,0.065-0.337c0.105-0.615,0.313-0.798,0.947-0.803
	C33.312,25.326,34.297,25.33,35.289,25.33 M38.947,35.071c-0.156,0.146-0.262,0.24-0.359,0.339
	c-2.664,2.661-5.323,5.329-7.995,7.983c-0.267,0.262-0.373,0.547-0.423,0.897c-0.172,1.26-0.352,2.519-0.557,3.772
	c-0.048,0.285,0,0.476,0.206,0.685c1.729,1.755,3.441,3.521,5.161,5.282c0.089,0.089,0.186,0.164,0.294,0.259
	c1.854-1.903,3.688-3.775,5.507-5.658c0.092-0.096,0.145-0.285,0.129-0.419c-0.136-0.99-0.291-1.979-0.437-2.967
	c-0.396-2.645-0.787-5.285-1.181-7.928C39.185,36.59,39.069,35.862,38.947,35.071 M32.77,26.823
	c-0.711,4.793-1.417,9.556-2.139,14.435c2.693-2.692,5.289-5.282,7.877-7.88c0.092-0.089,0.138-0.271,0.123-0.402
	c-0.047-0.481-0.125-0.964-0.196-1.445c-0.233-1.562-0.472-3.129-0.704-4.705L32.77,26.823L32.77,26.823z"/>
<path fill="#8F421D" d="M35.168,14.347c1.104,0,2.207-0.014,3.312,0.006c1.283,0.021,2.275,0.872,2.369,2.025
	c0.018,0.219-0.023,0.457-0.1,0.665c-0.5,1.336-0.973,2.687-1.549,3.991c-0.258,0.584-0.678,1.131-1.131,1.586
	c-0.289,0.287-0.768,0.503-1.178,0.527c-1.141,0.07-2.293,0.092-3.432,0.008c-1.185-0.09-1.826-0.978-2.252-1.953
	c-0.608-1.399-1.123-2.841-1.651-4.275c-0.332-0.893,0.353-2.042,1.427-2.402c0.328-0.113,0.697-0.162,1.051-0.169
	C33.078,14.333,34.125,14.347,35.168,14.347 M35.162,15.842c-0.559,0-1.119-0.004-1.678,0.002c-0.586,0.004-1.177-0.014-1.759,0.036
	c-0.63,0.055-0.83,0.414-0.608,0.987c0.453,1.185,0.897,2.378,1.375,3.556c0.129,0.324,0.314,0.655,0.561,0.898
	c0.191,0.189,0.508,0.331,0.775,0.346c0.799,0.043,1.605-0.029,2.406,0.029c0.652,0.047,1.062-0.231,1.364-0.754
	c0.118-0.21,0.231-0.427,0.319-0.652c0.447-1.157,0.89-2.32,1.334-3.479c0.181-0.466,0.006-0.808-0.483-0.917
	c-0.194-0.043-0.401-0.048-0.599-0.05C37.168,15.839,36.164,15.842,35.162,15.842"/>
</svg>
