<?xml version="1.0" encoding="utf-8"?>
<!-- Generator: Adobe Illustrator 17.0.0, SVG Export Plug-In . SVG Version: 6.00 Build 0)  -->
<!DOCTYPE svg PUBLIC "-//W3C//DTD SVG 1.1//EN" "http://www.w3.org/Graphics/SVG/1.1/DTD/svg11.dtd">
<svg version="1.1" id="Calque_1" xmlns="http://www.w3.org/2000/svg" xmlns:xlink="http://www.w3.org/1999/xlink" x="0px" y="0px"
	 width="71.125px" height="70.875px" viewBox="17.25 13.5 71.125 70.875" enable-background="new 17.25 13.5 71.125 70.875"
	 xml:space="preserve">
<g>
	<rect x="14.047" y="13.536" fill="none" width="71" height="71.002"/>
	<circle fill="none" stroke="#8F421D" stroke-miterlimit="10" cx="52.859" cy="48.898" r="34.874"/>
	<path fill="#8F421D" d="M52.896,38.993c0.972,0,1.948-0.004,2.921,0.002c0.601,0.005,0.826,0.197,0.917,0.789
		c0.46,3.081,0.913,6.163,1.372,9.244c0.475,3.177,0.956,6.357,1.431,9.536c0.18,1.188,0.355,2.375,0.533,3.562
		c0.053,0.351-0.052,0.641-0.303,0.896c-2.081,2.131-4.157,4.268-6.241,6.398c-0.478,0.486-0.854,0.49-1.324,0.01
		c-2.084-2.132-4.159-4.268-6.243-6.398c-0.263-0.267-0.359-0.567-0.305-0.935c0.534-3.56,1.073-7.119,1.603-10.683
		c0.559-3.76,1.106-7.521,1.66-11.28c0.018-0.113,0.046-0.225,0.065-0.337c0.106-0.615,0.314-0.798,0.947-0.803
		C50.92,38.989,51.905,38.993,52.896,38.993 M56.555,48.734c-0.157,0.147-0.262,0.24-0.36,0.339
		c-2.664,2.661-5.323,5.33-7.995,7.984c-0.267,0.262-0.373,0.546-0.422,0.897c-0.173,1.26-0.352,2.518-0.558,3.772
		c-0.047,0.286,0,0.476,0.207,0.685c1.729,1.755,3.441,3.521,5.161,5.283c0.089,0.088,0.186,0.163,0.294,0.258
		c1.855-1.903,3.688-3.775,5.507-5.658c0.092-0.096,0.144-0.285,0.129-0.419c-0.136-0.99-0.292-1.978-0.437-2.967
		c-0.395-2.644-0.787-5.285-1.181-7.928C56.792,50.253,56.677,49.525,56.555,48.734 M50.377,40.487
		c-0.711,4.792-1.417,9.555-2.139,14.434c2.694-2.692,5.29-5.283,7.877-7.88c0.092-0.089,0.138-0.271,0.124-0.403
		c-0.048-0.481-0.126-0.963-0.197-1.444c-0.233-1.563-0.471-3.13-0.704-4.706L50.377,40.487L50.377,40.487z"/>
	<path fill="#8F421D" d="M52.776,28.01c1.103,0,2.207-0.014,3.312,0.006c1.283,0.021,2.276,0.872,2.369,2.025
		c0.018,0.219-0.024,0.457-0.1,0.665c-0.5,1.336-0.972,2.687-1.549,3.991c-0.257,0.584-0.677,1.131-1.13,1.586
		c-0.289,0.287-0.768,0.503-1.178,0.527c-1.141,0.071-2.293,0.093-3.432,0.009c-1.184-0.09-1.826-0.978-2.252-1.954
		c-0.608-1.399-1.123-2.841-1.651-4.275c-0.332-0.893,0.353-2.042,1.427-2.402c0.328-0.113,0.697-0.162,1.05-0.169
		C50.686,27.996,51.733,28.01,52.776,28.01 M52.77,29.505c-0.559,0-1.119-0.004-1.678,0.002c-0.586,0.004-1.177-0.014-1.759,0.036
		c-0.63,0.055-0.83,0.414-0.608,0.987c0.453,1.185,0.897,2.378,1.375,3.556c0.129,0.324,0.314,0.655,0.56,0.898
		c0.191,0.189,0.508,0.331,0.776,0.346c0.799,0.043,1.605-0.029,2.406,0.029c0.652,0.047,1.062-0.231,1.364-0.754
		c0.118-0.21,0.231-0.427,0.32-0.652c0.447-1.157,0.889-2.32,1.333-3.479c0.181-0.466,0.006-0.808-0.483-0.917
		c-0.195-0.043-0.401-0.048-0.599-0.05C54.776,29.502,53.771,29.505,52.77,29.505"/>
</g>
</svg>
