<?xml version="1.0" encoding="utf-8"?>
<!-- Generator: Adobe Illustrator 16.0.0, SVG Export Plug-In . SVG Version: 6.00 Build 0)  -->
<!DOCTYPE svg PUBLIC "-//W3C//DTD SVG 1.1//EN" "http://www.w3.org/Graphics/SVG/1.1/DTD/svg11.dtd">
<svg version="1.1" id="Calque_1" xmlns="http://www.w3.org/2000/svg" xmlns:xlink="http://www.w3.org/1999/xlink" x="0px" y="0px"
	 width="72.542px" height="72.75px" viewBox="0 -1.75 72.542 72.75" enable-background="new 0 -1.75 72.542 72.75"
	 xml:space="preserve">
<radialGradient id="SVGID_1_" cx="36.2085" cy="34.874" r="34.874" gradientUnits="userSpaceOnUse">
	<stop  offset="0" style="stop-color:#8DD8F8"/>
	<stop  offset="0.131" style="stop-color:#8DD8F8"/>
	<stop  offset="1" style="stop-color:#8DD8F8"/>
</radialGradient>
<circle opacity="0.4" fill="url(#SVGID_1_)" cx="36.208" cy="34.874" r="34.874"/>
<g>
	<circle fill="none" stroke="#8F421D" stroke-miterlimit="10" cx="36.208" cy="34.874" r="34.874"/>
	<path fill="#8F421D" d="M18.823,45.122c0.201-0.545,0.421-1.128,0.974-1.36c0.552-0.234,0.621-0.615,0.652-1.115
		c0.319-5.047,2.352-9.363,5.659-13.119c1.742-1.978,3.776-3.6,6.106-4.842c0.09-0.049,0.177-0.101,0.265-0.149
		c-0.047-0.791-0.025-0.808,1.237-0.91c-0.052-0.123-0.093-0.231-0.142-0.336c-0.914-1.914-1.828-3.828-2.746-5.744
		c-0.301-0.633-0.064-1.002,0.646-1.002c3.155,0,6.313,0,9.469,0c0.711,0,0.945,0.369,0.643,1.001
		c-0.909,1.905-1.82,3.81-2.73,5.713c-0.052,0.107-0.098,0.223-0.154,0.354c0.344,0.035,0.671,0.007,0.953,0.107
		c0.342,0.125,0.354,0.457,0.254,0.791c0.457,0.262,0.914,0.508,1.352,0.779c4.023,2.5,6.997,5.932,8.953,10.234
		c1.012,2.225,1.621,4.563,1.755,7.018c0,0.021,0.007,0.045,0.007,0.068c-0.007,0.506,0.07,0.912,0.647,1.15
		c0.553,0.229,0.771,0.815,0.972,1.36v0.883c-0.068,0.162-0.13,0.328-0.21,0.483c-0.468,0.926-1.256,1.271-2.254,1.271
		c-8.974-0.004-17.944-0.004-26.923-0.004c-1.008,0-2.016,0.005-3.021,0c-0.777-0.004-1.453-0.244-1.918-0.895
		c-0.186-0.258-0.299-0.569-0.444-0.856L18.823,45.122L18.823,45.122z M50.909,43.361c-0.031-0.422-0.057-0.791-0.088-1.159
		c-0.19-2.345-0.825-4.577-1.854-6.681c-2.188-4.477-5.455-7.92-9.936-10.17c-0.783-0.393-1.578-0.695-2.49-0.602
		c-0.494,0.049-0.992-0.002-1.494,0.014c-0.186,0.006-0.379,0.045-0.553,0.113c-1.826,0.714-3.473,1.73-4.99,2.965
		c-2.195,1.783-3.986,3.906-5.377,6.364c-1.329,2.353-2.174,4.878-2.502,7.565c-0.062,0.52-0.075,1.045-0.113,1.59
		c0.306,0,0.543-0.006,0.777,0c0.424,0.01,0.671,0.211,0.679,0.553c0.009,0.357-0.242,0.578-0.681,0.586
		c-0.439,0.008-0.885-0.006-1.322,0.004c-0.504,0.012-0.923,0.379-0.996,0.852c-0.082,0.547,0.176,1.026,0.674,1.188
		c0.189,0.062,0.399,0.071,0.6,0.071c8.226,0.003,16.455,0.003,24.683,0.003c1.785,0,3.571,0.001,5.362,0
		c0.716-0.001,1.181-0.425,1.179-1.069c-0.005-0.631-0.463-1.045-1.158-1.047c-0.375-0.002-0.748,0.001-1.123-0.001
		c-0.472-0.004-0.73-0.204-0.736-0.563c-0.004-0.365,0.252-0.57,0.723-0.576C50.395,43.359,50.62,43.361,50.909,43.361
		 M32.194,17.693c0.004,0.058,0,0.083,0.008,0.103c0.904,1.892,1.805,3.787,2.723,5.676c0.042,0.089,0.203,0.164,0.311,0.168
		c0.623,0.017,1.244-0.004,1.867,0.015c0.237,0.007,0.359-0.068,0.457-0.283c0.852-1.797,1.715-3.586,2.57-5.377
		c0.042-0.089,0.072-0.184,0.113-0.292h-5.055c0,0.268,0.002,0.515,0,0.763c-0.006,0.415-0.213,0.675-0.543,0.69
		c-0.34,0.017-0.574-0.255-0.593-0.687c-0.007-0.254,0-0.51,0-0.775H32.194z"/>
	<path fill="#8F421D" d="M45.581,44.503c-0.699,0-1.399,0.004-2.1-0.002c-0.398-0.002-0.64-0.179-0.685-0.474
		c-0.056-0.391,0.196-0.66,0.657-0.664c1.041-0.006,2.076-0.004,3.119-0.004c0.371,0,0.744-0.004,1.119,0.004
		c0.389,0.011,0.638,0.23,0.644,0.555c0.011,0.334-0.247,0.575-0.655,0.581C46.983,44.509,46.282,44.503,45.581,44.503"/>
	<path fill="#8F421D" stroke="#8F421D" stroke-width="0.75" stroke-miterlimit="10" d="M33.636,38.753
		c-0.144-0.099-0.164-0.207-0.054-0.322c0.379-0.399,0.599-0.887,0.758-1.403c0.191-0.635,0.23-1.282,0.178-1.938
		c0-0.006-0.006-0.01-0.01-0.024h-0.09c-0.678,0-1.354,0-2.025,0c-0.031,0-0.062,0-0.091-0.002c-0.098-0.007-0.168-0.08-0.169-0.176
		c0-0.097,0.068-0.172,0.164-0.181c0.029-0.002,0.057-0.002,0.083-0.002c0.662,0,1.321,0,1.983,0h0.101
		c-0.063-0.413-0.172-0.81-0.312-1.194c-0.121-0.335-0.191-0.679-0.183-1.035c0.013-0.519,0.15-0.996,0.492-1.4
		c0.265-0.314,0.603-0.514,0.996-0.611c0.116-0.027,0.231-0.047,0.349-0.066h0.491c0.129,0.021,0.263,0.033,0.392,0.062
		c0.976,0.201,1.543,0.816,1.795,1.756c0.033,0.135,0.051,0.271,0.071,0.408c0.019,0.121-0.048,0.21-0.149,0.222
		c-0.11,0.015-0.19-0.061-0.213-0.185c-0.033-0.19-0.058-0.385-0.119-0.564c-0.25-0.732-0.769-1.162-1.531-1.295
		c-0.361-0.064-0.727-0.07-1.081,0.037c-0.438,0.131-0.758,0.406-0.944,0.824c-0.252,0.551-0.222,1.111-0.039,1.676
		c0.113,0.365,0.207,0.74,0.311,1.111c0.021,0.078,0.029,0.164,0.047,0.256h0.095c0.566,0,1.132,0,1.696,0
		c0.109,0,0.186,0.045,0.209,0.123c0.036,0.117-0.041,0.227-0.164,0.234c-0.027,0.002-0.055,0.002-0.083,0.002
		c-0.539,0-1.076,0-1.617,0h-0.094c0.09,1.084-0.076,2.106-0.604,3.065c0.146-0.033,0.287-0.067,0.432-0.096
		c0.57-0.104,1.128-0.054,1.678,0.143c0.32,0.113,0.65,0.188,0.994,0.193c0.447,0.006,0.852-0.101,1.152-0.459
		c0.084-0.101,0.189-0.11,0.271-0.04c0.083,0.07,0.08,0.181,0,0.281c-0.295,0.351-0.682,0.52-1.125,0.566
		c-0.49,0.057-0.959-0.045-1.418-0.201c-0.451-0.154-0.906-0.213-1.378-0.143c-0.397,0.062-0.776,0.177-1.129,0.377L33.636,38.753
		L33.636,38.753z"/>
</g>
</svg>
