<?xml version="1.0" encoding="utf-8"?>
<!-- Generator: Adobe Illustrator 17.0.0, SVG Export Plug-In . SVG Version: 6.00 Build 0)  -->
<!DOCTYPE svg PUBLIC "-//W3C//DTD SVG 1.1//EN" "http://www.w3.org/Graphics/SVG/1.1/DTD/svg11.dtd">
<svg version="1.1" id="Calque_1" xmlns="http://www.w3.org/2000/svg" xmlns:xlink="http://www.w3.org/1999/xlink" x="0px" y="0px"
	 width="1280px" height="1381.166px" viewBox="0 0 1280 1381.166" enable-background="new 0 0 1280 1381.166" xml:space="preserve">
<ellipse fill="#E8A484" cx="653.895" cy="335.251" rx="416.958" ry="155.357"/>
<path fill="#BDD57D" d="M1033.064,248.8c-38.01-30.868-102.371-56.293-182.355-72.279c-30.774-6.151-63.858-10.906-98.646-14.034
	c-31.482-2.831-64.354-4.333-98.169-4.333c-230.28,0-416.958,69.556-416.958,155.357c0,13.634,4.72,26.857,13.574,39.456
	c23.384,33.279,75.64,62.205,146.204,82.836c70.847,20.713,160.142,33.065,257.181,33.065c196.097,0,360.576-50.439,405.086-118.396
	c7.759-11.846,11.872-24.225,11.872-36.961C1070.853,290.417,1057.323,268.501,1033.064,248.8z"/>
<polygon fill="#EED6A9" points="554.434,198.881 542.983,202.459 728.815,266.868 740.504,266.391 753.863,262.813 "/>
<g>
	<path fill="#73A846" d="M731.073,226.312c0-7.939,5.462-14.6,12.833-16.436c-1.315-0.328-2.69-0.504-4.107-0.504
		c-9.356,0-16.94,7.584-16.94,16.94c0,9.356,7.584,16.94,16.94,16.94c1.417,0,2.792-0.176,4.107-0.504
		C736.536,240.912,731.073,234.251,731.073,226.312z"/>
	<path fill="#80BB4E" d="M756.74,226.312c0-7.939-5.462-14.6-12.833-16.436c-7.371,1.836-12.833,8.497-12.833,16.436
		c0,7.939,5.462,14.6,12.833,16.436C751.278,240.912,756.74,234.251,756.74,226.312z"/>
</g>
<g>
	<path fill="#EED6A9" d="M486,264v-18h-14v41h0.271c0.256,2,3.529,5.276,7.207,5.276c0.79,0,1.523-0.432,2.523-0.642V264H486z"/>
	<path fill="#D4BD90" d="M486.146,287H486v-23h-4v27.634C485,290.868,485.945,288,486.146,287z"/>
</g>
<g>
	<path fill="#73A846" d="M763.87,253.949c0-4.596,3.162-8.452,7.43-9.515c-0.761-0.19-1.557-0.292-2.378-0.292
		c-5.416,0-9.807,4.391-9.807,9.807s4.391,9.807,9.807,9.807c0.82,0,1.616-0.102,2.378-0.292
		C767.032,262.401,763.87,258.545,763.87,253.949z"/>
	<path fill="#80BB4E" d="M778.729,253.949c0-4.596-3.162-8.452-7.43-9.515c-4.267,1.063-7.43,4.919-7.43,9.515
		c0,4.596,3.162,8.452,7.43,9.515C775.567,262.401,778.729,258.545,778.729,253.949z"/>
</g>
<ellipse opacity="0.3" fill="#80BB4E" cx="740.519" cy="340.828" rx="28.974" ry="8.692"/>
<ellipse opacity="0.3" fill="#80BB4E" cx="555.97" cy="280.203" rx="28.974" ry="8.692"/>
<polygon fill="#DBC397" points="739,344.363 739,305.002 752.85,301.424 752.366,340.547 "/>
<polygon fill="#EED6A9" points="726.995,339.933 727.169,301.35 740.213,297.409 739.865,344.281 "/>
<polygon fill="#DBC397" points="740,305.752 740,266.391 753.611,262.813 753.246,301.935 "/>
<polygon fill="#DBC397" points="556,284.881 556,245.52 569.257,241.942 569.07,281.064 "/>
<polygon fill="#EED6A9" points="542.809,280.451 542.983,241.868 556.488,238.289 555.679,284.799 "/>
<polygon fill="#FFF5E3" points="543,202.459 543,242.059 740,305.514 740,266.391 "/>
<text transform="matrix(1 0.312 0 1 573.5161 238.9588)" fill="#DBC397" font-family="'AvenirNextLTPro-Bold'" font-size="19.1751" letter-spacing="0.955">TEAM K2000</text>
<polygon fill="#EED6A9" points="594.85,271.987 583.4,275.565 769.232,339.975 780.921,339.498 794.28,335.919 "/>
<ellipse opacity="0.3" fill="#80BB4E" cx="780.936" cy="413.935" rx="28.974" ry="8.692"/>
<ellipse opacity="0.3" fill="#80BB4E" cx="596.386" cy="353.31" rx="28.974" ry="8.692"/>
<polygon fill="#DBC397" points="780,417.47 780,378.109 793.558,374.53 793.22,413.653 "/>
<polygon fill="#EED6A9" points="767.411,413.04 767.585,374.456 780.63,370.515 780.282,417.388 "/>
<polygon fill="#DBC397" points="780,378.859 780,339.498 793.819,335.919 793.351,375.042 "/>
<polygon fill="#DBC397" points="596,357.988 596,318.627 609.466,315.048 609.174,354.171 "/>
<polygon fill="#EED6A9" points="583.226,353.558 583.4,314.974 596.904,311.396 596.096,357.906 "/>
<polygon fill="#FFF5E3" points="583,275.565 583,315.165 780,378.62 780,339.498 "/>
<text transform="matrix(1 0.312 0 1 594.9122 308.4991)" fill="#DBC397" font-family="'AvenirNextLTPro-Bold'" font-size="19.1751" letter-spacing="0.955">ET PARTENAIRES</text>
<g>
	<path fill="#73A846" d="M477.26,193.95c-2.339,0-4.628,0.209-6.858,0.589c17.451,4.53,30.337,20.387,30.337,39.256
		c0,20.06-14.568,36.707-33.698,39.967c3.265,0.848,6.689,1.301,10.219,1.301c22.399,0,40.556-18.158,40.556-40.556
		S499.658,193.95,477.26,193.95z"/>
	<path fill="#80BB4E" d="M500.739,233.795c0-18.868-12.886-34.726-30.337-39.256c-19.131,3.26-33.698,19.907-33.698,39.967
		c0,18.868,12.886,34.726,30.337,39.256C486.171,270.502,500.739,253.855,500.739,233.795z"/>
</g>
<g>
	<path fill="#73A846" d="M794.016,389.39c1.237,0,2.448,0.111,3.627,0.312c-9.23,2.396-16.045,10.783-16.045,20.762
		c0,10.61,7.705,19.414,17.823,21.139c-1.727,0.448-3.538,0.688-5.405,0.688c-11.847,0-21.45-9.604-21.45-21.45
		C772.566,398.993,782.17,389.39,794.016,389.39z"/>
	<path fill="#80BB4E" d="M781.598,410.464c0-9.979,6.815-18.366,16.045-20.762c10.118,1.724,17.823,10.529,17.823,21.139
		c0,9.979-6.815,18.366-16.045,20.762C789.303,429.878,781.598,421.073,781.598,410.464z"/>
</g>
<g>
	<path fill="#73A846" d="M794.016,365.646c0.939,0,1.859,0.084,2.755,0.237c-7.01,1.82-12.186,8.189-12.186,15.768
		c0,8.058,5.852,14.745,13.536,16.054c-1.311,0.34-2.687,0.522-4.105,0.522c-8.997,0-16.291-7.294-16.291-16.291
		C777.726,372.94,785.019,365.646,794.016,365.646z"/>
	<path fill="#80BB4E" d="M784.585,381.651c0-7.579,5.176-13.949,12.186-15.768c7.684,1.31,13.536,7.996,13.536,16.054
		c0,7.579-5.176,13.949-12.186,15.768C790.437,396.396,784.585,389.709,784.585,381.651z"/>
</g>
<path fill="#E6E6E6" d="M477.434,158.331c-2.031,0-3.985,0.326-5.817,0.922c-2.612-14.547-15.324-25.59-30.624-25.59
	c-17.19,0-31.124,13.935-31.124,31.124c0,2.155,0.219,4.258,0.636,6.289c-1.009-0.26-2.06-0.396-3.149-0.396
	c-6.178,0-11.311,4.32-12.401,10.32h19.447h5.355h39.282h8.546h28.244c0.258-1,0.396-2.544,0.396-3.863
	C496.224,166.759,487.812,158.331,477.434,158.331z"/>
<path fill="#E6E6E6" d="M936.485,180.423c-1.109,0-2.177,0.178-3.178,0.504c-1.427-7.947-8.371-13.979-16.729-13.979
	c-9.39,0-17.003,7.612-17.003,17.003c0,1.177,0.12,2.326,0.347,3.436c-0.551-0.142-1.125-0.12-1.72-0.12
	c-3.375,0-6.179,2.734-6.775,5.734h10.624h2.926h21.459h4.668h15.429c0.141-1,0.216-1.487,0.216-2.207
	C946.75,185.124,942.154,180.423,936.485,180.423z"/>
<path fill="#E6E6E6" d="M625.315,134.063c1.109,0,2.177,0.178,3.178,0.504c1.427-7.947,8.371-13.979,16.729-13.979
	c9.39,0,17.003,7.612,17.003,17.003c0,1.177-0.12,2.326-0.348,3.436c0.551-0.142,1.125-0.44,1.72-0.44
	c3.375,0,6.179,2.414,6.775,5.414h-10.624h-2.926h-21.459h-4.668h-15.429c-0.141-1-0.216-1.167-0.216-1.887
	C615.05,138.444,619.646,134.063,625.315,134.063z"/>
<path fill="#E6E6E6" d="M740.607,176.039c0.693,0,1.361,0.111,1.986,0.315c0.892-4.967,5.232-8.737,10.456-8.737
	c5.869,0,10.627,4.758,10.627,10.627c0,0.736-0.075,1.454-0.217,2.147c0.344-0.089,0.703-0.025,1.075-0.025
	c2.109,0,3.862,1.634,4.234,3.634h-6.64h-1.828h-13.412h-2.918h-9.643c-0.088-1-0.135-0.979-0.135-1.429
	C734.191,179.028,737.064,176.039,740.607,176.039z"/>
</svg>
