<?xml version="1.0" encoding="utf-8"?>
<!-- Generator: Adobe Illustrator 17.0.0, SVG Export Plug-In . SVG Version: 6.00 Build 0)  -->
<!DOCTYPE svg PUBLIC "-//W3C//DTD SVG 1.1//EN" "http://www.w3.org/Graphics/SVG/1.1/DTD/svg11.dtd">
<svg version="1.1" id="Calque_1" xmlns="http://www.w3.org/2000/svg" xmlns:xlink="http://www.w3.org/1999/xlink" x="0px" y="0px"
	 width="1280px" height="800px" viewBox="0 0 1280 800" enable-background="new 0 0 1280 800" xml:space="preserve">
<ellipse fill="#E8A484" cx="640" cy="446.038" rx="521.561" ry="194.332"/>
<path fill="#BDD57D" d="M762.797,229.932c-39.379-3.541-80.499-5.419-122.797-5.419c-288.05,0-521.561,87.005-521.561,194.332
	S351.95,613.176,640,613.176c245.292,0,451.034-63.092,506.71-148.098c9.705-14.818,14.85-30.302,14.85-46.233
	C1161.561,327.278,991.591,250.505,762.797,229.932z"/>
<polygon fill="#EAEAEA" points="127.172,382.455 123.026,392.633 597.971,256.557 597.217,247.51 "/>
<path fill="#E8A484" d="M719.724,331.483l-67.096,19.372c2.997,1.526,7.342,2.287,10.68,3.707l65.525-20.221L719.724,331.483z"/>
<g>
	<path fill="#73A846" d="M308.104,467.275c0-5.83-4.011-10.721-9.424-12.069c0.966-0.241,1.975-0.37,3.016-0.37
		c6.87,0,12.439,5.569,12.439,12.439c0,6.87-5.569,12.439-12.439,12.439c-1.04,0-2.05-0.13-3.016-0.37
		C304.093,477.996,308.104,473.105,308.104,467.275z"/>
	<path fill="#80BB4E" d="M289.257,467.275c0-5.83,4.011-10.721,9.424-12.069c5.412,1.348,9.424,6.239,9.424,12.069
		c0,5.83-4.011,10.721-9.424,12.069C293.268,477.996,289.257,473.105,289.257,467.275z"/>
</g>
<polygon fill="#FFF5E3" points="308.484,481.933 308.484,459.234 324.127,432.094 330.347,434.105 346.178,459.611 346.178,493.854 
	"/>
<polygon fill="#EED6A9" points="346.178,447.301 380.857,437.752 380.668,483.959 346.084,493.854 "/>
<polygon fill="#EED6A9" points="330.846,435.455 324.658,433.539 310.083,459.768 308.136,459.957 323.59,431.874 330.281,433.759 
	"/>
<polygon fill="#EEBA58" points="346.178,449.28 380.825,439.417 380.857,437.752 346.178,447.553 "/>
<path opacity="0.4" fill="#80BB4E" d="M538.1,497.368c2.996-4.574,4.584-9.354,4.584-14.272c0-28.267-52.47-51.966-123.099-58.317
	l-35.811,80.757L538.1,497.368z"/>
<polygon fill="#E34636" points="330.347,434.112 368.418,423.369 383.307,461.723 345.236,472.466 "/>
<polygon fill="#E88A5E" points="360.502,421.045 368.418,423.369 330.347,434.112 322.808,431.599 "/>
<polygon fill="#E34636" points="322.808,431.599 306.599,460.733 308.39,460.357 324.127,432.086 "/>
<polygon fill="#EED6A9" points="321.426,460.117 330.598,463.07 330.598,488.934 321.363,486.013 "/>
<polygon fill="#D4BD90" points="361.319,454.589 352.146,457.542 352.146,475.693 361.381,472.803 "/>
<polyline fill="none" stroke="#FFF5E3" stroke-width="2" stroke-miterlimit="10" points="361.319,454.589 361.381,472.803 
	352.146,475.693 "/>
<polygon fill="#D4BD90" points="377.16,449.56 367.987,452.513 367.987,470.664 377.222,467.774 "/>
<polyline fill="none" stroke="#FFF5E3" stroke-width="2" stroke-miterlimit="10" points="377.16,449.56 377.222,467.774 
	367.987,470.664 "/>
<polyline fill="none" stroke="#D4BD90" stroke-miterlimit="10" points="321.426,460.255 321.297,485.887 330.485,488.761 "/>
<polygon fill="#FFF5E3" points="346.178,493.618 346.178,412.054 361.821,385.291 368.041,387.552 383.872,423.55 383.872,505.539 
	"/>
<polygon fill="#EED6A9" points="383.872,424.681 418.551,415.823 418.362,495.644 383.778,505.539 "/>
<polygon fill="#EED6A9" points="368.603,388.966 362.761,387.27 348.625,412.996 346.081,413.09 361.535,385.008 368.226,386.893 
	"/>
<polygon fill="#C9B489" points="383.872,427.019 418.519,417.156 418.551,415.491 383.872,425.292 "/>
<polygon fill="#E34636" points="368.041,387.335 406.112,376.592 421.001,414.945 382.93,425.688 "/>
<polygon fill="#E88A5E" points="398.196,374.267 406.112,376.592 368.041,387.335 360.502,384.822 "/>
<polygon fill="#E34636" points="360.502,384.822 344.293,413.956 346.084,413.579 361.821,385.309 "/>
<polygon fill="#EED6A9" points="359.12,471.803 368.292,474.755 368.292,500.619 359.057,497.698 "/>
<polygon fill="#EED6A9" points="355.327,434.227 360.88,436.014 360.88,451.571 355.289,449.821 "/>
<polyline fill="none" stroke="#D4BD90" stroke-miterlimit="10" points="355.327,434.227 355.327,449.821 360.88,451.571 "/>
<polygon fill="#EED6A9" points="367.828,438.31 373.382,440.098 373.382,455.655 367.79,453.905 "/>
<polyline fill="none" stroke="#D4BD90" stroke-miterlimit="10" points="367.828,438.31 367.828,453.905 373.382,455.655 "/>
<polyline fill="none" stroke="#D4BD90" stroke-miterlimit="10" points="359.12,471.94 358.991,497.572 368.179,500.446 "/>
<path fill="none" stroke="#FF2FE3" stroke-width="2" stroke-miterlimit="10" d="M383.307,462.477"/>
<path fill="none" stroke="#FF2FE3" stroke-width="2" stroke-miterlimit="10" d="M346.175,451.444"/>
<polygon fill="#DBC397" points="398.159,467.102 392.606,468.889 392.606,484.446 398.197,482.697 "/>
<polyline fill="none" stroke="#C9B489" stroke-miterlimit="10" points="398.159,467.102 398.159,482.697 392.606,484.446 "/>
<polygon fill="#DBC397" points="410.849,463.584 405.296,465.371 405.296,480.928 410.887,479.178 "/>
<polyline fill="none" stroke="#C9B489" stroke-miterlimit="10" points="410.849,463.584 410.849,479.178 405.296,480.928 "/>
<polygon fill="#DBC397" points="398.159,434.036 392.606,435.824 392.606,451.381 398.197,449.631 "/>
<polyline fill="none" stroke="#C9B489" stroke-miterlimit="10" points="398.159,434.036 398.159,449.631 392.606,451.381 "/>
<polygon fill="#DBC397" points="410.849,430.518 405.296,432.306 405.296,447.863 410.887,446.113 "/>
<polyline fill="none" stroke="#C9B489" stroke-miterlimit="10" points="410.849,430.518 410.849,446.113 405.296,447.863 "/>
<g>
	<path fill="#D4BD90" d="M360.876,414.944c-0.549-3.226,1.247-5.265,4.061-5.338c-0.395-0.089-0.806-0.137-1.234-0.127
		c-2.827,0.063-4.634,2.105-4.083,5.34c0.503,2.953,2.701,5.403,4.9,5.843c0.362,0.072,0.715,0.094,1.056,0.074
		C363.445,420.191,361.363,417.806,360.876,414.944z"/>
	<path fill="#EED6A9" d="M369.483,415.32c-0.378-2.863-2.124-5.167-4.546-5.715c-2.814,0.074-4.61,2.112-4.061,5.338
		c0.487,2.863,2.569,5.247,4.699,5.791C368.051,420.591,369.856,418.148,369.483,415.32z"/>
</g>
<g>
	<path fill="#EED6A9" d="M445,446v-9h8v21h-0.182c-0.136,2-1.702,2.887-3.65,2.887c-0.419,0-1.168-0.137-1.168-0.249V446H445z"/>
	<path fill="#D4BD90" d="M445.468,458H445v-12h3v14.638C446,460.232,445.574,459,445.468,458z"/>
</g>
<g>
	<path fill="#73A846" d="M441.951,442H442v-32h-0.076c0.114-4,4.334-10.743,9.983-12.092c-0.968-0.231-1.977-0.54-3.016-0.54
		c-7.098,0-12.864,6.632-12.998,12.632H435v32h0.92c0.451,7,6.092,12.198,12.988,12.198c1.038,0,2.048-0.129,3.016-0.36
		C446.462,452.538,442.334,448,441.951,442z"/>
	<path fill="#80BB4E" d="M461.895,442H461v0.004c0-0.286,0.031-0.573,0.031-0.863c0-0.29-0.031-0.578-0.031-0.863V410h0.89
		c-0.114-4-4.334-11.111-9.983-12.459c-5.648,1.349-9.868,8.459-9.983,12.459H442v32h-0.049c0.383,6,4.511,10.533,9.972,11.833
		C457.383,452.533,461.511,448,461.895,442z"/>
</g>
<g>
	<path fill="#73A846" d="M463.781,466.899c0-5.83,4.011-10.721,9.424-12.069c-0.966-0.241-1.975-0.37-3.016-0.37
		c-6.87,0-12.439,5.569-12.439,12.439c0,6.87,5.569,12.439,12.439,12.439c1.04,0,2.05-0.13,3.016-0.37
		C467.792,477.619,463.781,472.728,463.781,466.899z"/>
	<path fill="#80BB4E" d="M482.628,466.899c0-5.83-4.011-10.721-9.423-12.069c-5.412,1.348-9.424,6.239-9.424,12.069
		s4.011,10.721,9.424,12.069C478.617,477.619,482.628,472.728,482.628,466.899z"/>
</g>
<g>
	<path fill="#73A846" d="M616.442,375.302c0-5.83-4.011-10.721-9.424-12.069c0.966-0.241,1.975-0.37,3.016-0.37
		c6.87,0,12.439,5.569,12.439,12.439c0,6.87-5.569,12.439-12.439,12.439c-1.04,0-2.05-0.13-3.016-0.37
		C612.431,386.023,616.442,381.132,616.442,375.302z"/>
	<path fill="#80BB4E" d="M597.595,375.302c0-5.83,4.011-10.721,9.424-12.069c5.412,1.348,9.424,6.239,9.424,12.069
		s-4.011,10.721-9.424,12.069C601.606,386.023,597.595,381.132,597.595,375.302z"/>
</g>
<g>
	<path fill="#73A846" d="M567.816,550.579c0-5.83-4.011-10.721-9.424-12.069c0.966-0.241,1.975-0.37,3.016-0.37
		c6.87,0,12.439,5.569,12.439,12.439c0,6.87-5.569,12.439-12.439,12.439c-1.04,0-2.05-0.13-3.016-0.37
		C563.805,561.3,567.816,556.409,567.816,550.579z"/>
	<path fill="#80BB4E" d="M548.969,550.579c0-5.83,4.011-10.721,9.424-12.069c5.412,1.348,9.424,6.239,9.424,12.069
		s-4.011,10.721-9.424,12.069C552.98,561.3,548.969,556.409,548.969,550.579z"/>
</g>
<g>
	<path fill="#73A846" d="M427.914,457.475c0-1.767,1.215-3.249,2.856-3.657c-0.293-0.073-0.599-0.112-0.914-0.112
		c-2.082,0-3.769,1.688-3.769,3.769s1.688,3.769,3.769,3.769c0.315,0,0.621-0.039,0.914-0.112
		C429.13,460.724,427.914,459.242,427.914,457.475z"/>
	<path fill="#80BB4E" d="M433.625,457.475c0-1.767-1.215-3.249-2.856-3.657c-1.64,0.409-2.856,1.891-2.856,3.657
		s1.215,3.249,2.856,3.657C432.41,460.724,433.625,459.242,433.625,457.475z"/>
</g>
<g>
	<path fill="#73A846" d="M628.938,385.102c0-1.767-1.215-3.249-2.856-3.657c0.293-0.073,0.599-0.112,0.914-0.112
		c2.082,0,3.769,1.688,3.769,3.769c0,2.082-1.688,3.769-3.769,3.769c-0.315,0-0.621-0.039-0.914-0.112
		C627.722,388.351,628.938,386.869,628.938,385.102z"/>
	<path fill="#80BB4E" d="M623.227,385.102c0-1.767,1.215-3.249,2.856-3.657c1.64,0.409,2.856,1.891,2.856,3.657
		c0,1.767-1.215,3.249-2.856,3.657C624.442,388.351,623.227,386.869,623.227,385.102z"/>
</g>
<g>
	<path fill="#73A846" d="M400.709,491.126c-0.552,0-1.093,0.049-1.62,0.139c4.122,1.07,7.166,4.815,7.166,9.272
		c0,4.738-3.441,8.67-7.959,9.44c0.771,0.2,1.58,0.307,2.414,0.307c5.29,0,9.579-4.289,9.579-9.579
		C410.289,495.415,406,491.126,400.709,491.126z"/>
	<path fill="#80BB4E" d="M406.255,500.538c0-4.457-3.044-8.202-7.166-9.272c-4.519,0.77-7.959,4.702-7.959,9.44
		c0,4.457,3.044,8.202,7.166,9.272C402.814,509.208,406.255,505.276,406.255,500.538z"/>
</g>
<g>
	<path fill="#73A846" d="M400.709,480.523c-0.42,0-0.83,0.037-1.23,0.106c3.13,0.813,5.442,3.657,5.442,7.042
		c0,3.598-2.613,6.585-6.045,7.169c0.586,0.152,1.2,0.233,1.833,0.233c4.018,0,7.275-3.257,7.275-7.275
		S404.727,480.523,400.709,480.523z"/>
	<path fill="#80BB4E" d="M404.921,487.67c0-3.385-2.312-6.229-5.442-7.042c-3.432,0.585-6.045,3.571-6.045,7.169
		c0,3.385,2.312,6.229,5.442,7.042C402.308,494.255,404.921,491.269,404.921,487.67z"/>
</g>
<polygon fill="#FFF5E3" points="581.389,288.185 581.389,265.486 597.032,238.347 603.252,240.357 619.083,265.863 619.083,300.106 
	"/>
<polygon fill="#EED6A9" points="619.083,253.554 653.762,244.005 653.573,290.211 618.989,300.106 "/>
<polygon fill="#EED6A9" points="603.751,241.708 597.563,239.792 582.988,266.02 581.041,266.209 596.495,238.127 603.186,240.012 
	"/>
<polygon fill="#EEBA58" points="619.083,255.533 653.73,245.669 653.762,244.005 619.083,253.805 "/>
<path opacity="0.4" fill="#80BB4E" d="M821.855,316.625c2.475-3.779,3.787-7.727,3.787-11.79c0-23.35-43.343-42.927-101.686-48.173
	l-29.582,66.709L821.855,316.625z"/>
<polygon fill="#E34636" points="603.252,240.364 641.323,229.622 656.212,267.975 618.141,278.718 "/>
<polygon fill="#E88A5E" points="633.407,227.297 641.323,229.622 603.252,240.364 595.713,237.852 "/>
<polygon fill="#E34636" points="595.713,237.852 579.505,266.986 581.295,266.609 597.032,238.338 "/>
<polygon fill="#EED6A9" points="594.331,266.37 603.503,269.323 603.503,295.186 594.268,292.265 "/>
<polygon fill="#D4BD90" points="634.224,260.841 625.052,263.794 625.052,281.945 634.287,279.055 "/>
<polyline fill="none" stroke="#FFF5E3" stroke-width="2" stroke-miterlimit="10" points="634.224,260.841 634.287,279.055 
	625.052,281.945 "/>
<polygon fill="#D4BD90" points="650.065,255.812 640.893,258.765 640.893,276.916 650.128,274.026 "/>
<polyline fill="none" stroke="#FFF5E3" stroke-width="2" stroke-miterlimit="10" points="650.065,255.812 650.128,274.026 
	640.893,276.916 "/>
<polyline fill="none" stroke="#D4BD90" stroke-miterlimit="10" points="594.331,266.507 594.202,292.139 603.39,295.014 "/>
<polygon fill="#FFF5E3" points="619.083,299.87 619.083,218.306 634.726,191.543 640.946,193.805 656.777,229.803 656.777,311.791 
	"/>
<polygon fill="#EED6A9" points="656.777,230.934 691.456,222.075 691.267,301.896 656.683,311.791 "/>
<polygon fill="#EED6A9" points="641.508,195.218 635.666,193.522 621.53,219.248 618.986,219.343 634.441,191.261 641.131,193.145 
	"/>
<polygon fill="#EEBA58" points="656.777,233.272 691.425,223.409 691.456,221.744 656.777,231.544 "/>
<polygon fill="#E34636" points="640.946,193.587 679.017,182.844 693.906,221.198 655.835,231.941 "/>
<polygon fill="#E88A5E" points="671.101,180.52 679.017,182.844 640.946,193.587 633.407,191.074 "/>
<polygon fill="#E34636" points="633.407,191.074 617.199,220.208 618.989,219.831 634.726,191.561 "/>
<polygon fill="#EED6A9" points="632.025,278.055 641.197,281.008 641.197,306.871 631.962,303.95 "/>
<polygon fill="#EED6A9" points="628.232,240.479 633.785,242.267 633.785,257.823 628.194,256.074 "/>
<polyline fill="none" stroke="#D4BD90" stroke-miterlimit="10" points="628.232,240.479 628.232,256.074 633.785,257.823 "/>
<polygon fill="#EED6A9" points="640.734,244.563 646.287,246.35 646.287,261.907 640.696,260.157 "/>
<polyline fill="none" stroke="#D4BD90" stroke-miterlimit="10" points="640.734,244.563 640.734,260.157 646.287,261.907 "/>
<polygon fill="#EED6A9" points="634.514,218.167 640.067,219.954 640.067,235.511 634.476,233.761 "/>
<polyline fill="none" stroke="#D4BD90" stroke-miterlimit="10" points="634.514,218.167 634.514,233.761 640.067,235.511 "/>
<polyline fill="none" stroke="#D4BD90" stroke-miterlimit="10" points="632.025,278.193 631.896,303.825 641.084,306.699 "/>
<path fill="none" stroke="#FF2FE3" stroke-width="2" stroke-miterlimit="10" d="M656.212,268.729"/>
<path fill="none" stroke="#FF2FE3" stroke-width="2" stroke-miterlimit="10" d="M619.08,257.696"/>
<polygon fill="#DBC397" points="671.064,273.354 665.511,275.142 665.511,290.699 671.102,288.949 "/>
<polyline fill="none" stroke="#C9B489" stroke-miterlimit="10" points="671.064,273.354 671.064,288.949 665.511,290.699 "/>
<polygon fill="#DBC397" points="683.754,269.836 678.201,271.624 678.201,287.181 683.792,285.431 "/>
<polyline fill="none" stroke="#C9B489" stroke-miterlimit="10" points="683.754,269.836 683.754,285.431 678.201,287.181 "/>
<polygon fill="#DBC397" points="671.064,240.289 665.511,242.076 665.511,257.633 671.102,255.883 "/>
<polyline fill="none" stroke="#C9B489" stroke-miterlimit="10" points="671.064,240.289 671.064,255.883 665.511,257.633 "/>
<polygon fill="#DBC397" points="683.754,236.771 678.201,238.558 678.201,254.115 683.792,252.365 "/>
<polyline fill="none" stroke="#C9B489" stroke-miterlimit="10" points="683.754,236.771 683.754,252.365 678.201,254.115 "/>
<polygon fill="#EEBA58" points="656.777,267.218 691.425,257.355 691.456,255.69 656.777,265.49 "/>
<polygon fill="#D4BD90" points="671.918,272.527 662.746,275.479 662.746,293.63 671.981,290.741 "/>
<polyline fill="none" stroke="#FFF5E3" stroke-width="2" stroke-miterlimit="10" points="671.918,272.527 671.981,290.741 
	662.746,293.63 "/>
<polygon fill="#D4BD90" points="687.759,267.498 678.587,270.45 678.587,288.601 687.822,285.712 "/>
<polyline fill="none" stroke="#FFF5E3" stroke-width="2" stroke-miterlimit="10" points="687.759,267.498 687.822,285.712 
	678.587,288.601 "/>
<polygon fill="#FFF5E3" points="656.777,311.556 656.777,229.991 672.42,203.228 678.64,205.49 694.471,241.488 694.471,323.476 "/>
<polygon fill="#EED6A9" points="694.471,242.619 729.15,233.761 728.962,313.582 694.377,323.476 "/>
<polygon fill="#EED6A9" points="679.202,206.904 673.36,205.207 659.224,230.934 656.68,231.028 672.135,202.946 678.825,204.83 "/>
<polygon fill="#C9B489" points="694.471,244.957 729.119,235.094 729.15,233.429 694.471,243.229 "/>
<polygon fill="#E34636" points="678.64,205.272 716.711,194.529 731.6,232.883 693.529,243.626 "/>
<polygon fill="#E88A5E" points="708.795,192.205 716.711,194.529 678.64,205.272 671.101,202.759 "/>
<polygon fill="#E34636" points="671.101,202.759 654.893,231.894 656.683,231.517 672.42,203.246 "/>
<polygon fill="#EED6A9" points="669.719,289.74 678.891,292.693 678.891,318.557 669.656,315.635 "/>
<polygon fill="#EED6A9" points="665.926,252.164 671.479,253.952 671.479,269.509 665.888,267.759 "/>
<polyline fill="none" stroke="#D4BD90" stroke-miterlimit="10" points="665.926,252.164 665.926,267.759 671.479,269.509 "/>
<polygon fill="#EED6A9" points="678.428,256.248 683.981,258.035 683.981,273.592 678.39,271.842 "/>
<polyline fill="none" stroke="#D4BD90" stroke-miterlimit="10" points="678.428,256.248 678.428,271.842 683.981,273.592 "/>
<polygon fill="#EED6A9" points="665.926,227.774 671.479,229.562 671.479,245.118 665.888,243.369 "/>
<polyline fill="none" stroke="#D4BD90" stroke-miterlimit="10" points="665.926,227.774 665.926,243.369 671.479,245.118 "/>
<polygon fill="#EED6A9" points="678.428,231.857 683.981,233.645 683.981,249.202 678.39,247.452 "/>
<polyline fill="none" stroke="#D4BD90" stroke-miterlimit="10" points="678.428,231.857 678.428,247.452 683.981,249.202 "/>
<polyline fill="none" stroke="#D4BD90" stroke-miterlimit="10" points="669.719,289.878 669.59,315.51 678.778,318.384 "/>
<path fill="none" stroke="#FF2FE3" stroke-width="2" stroke-miterlimit="10" d="M693.906,280.414"/>
<polygon fill="#DBC397" points="708.758,285.039 703.205,286.827 703.205,302.384 708.796,300.634 "/>
<polyline fill="none" stroke="#C9B489" stroke-miterlimit="10" points="708.758,285.039 708.758,300.634 703.205,302.384 "/>
<polygon fill="#DBC397" points="721.448,281.521 715.895,283.309 715.895,298.866 721.487,297.116 "/>
<polyline fill="none" stroke="#C9B489" stroke-miterlimit="10" points="721.448,281.521 721.448,297.116 715.895,298.866 "/>
<g>
	<path fill="#C9B489" d="M715.716,263.037c0.549-3.226-1.247-5.265-4.061-5.338c0.395-0.089,0.806-0.137,1.234-0.127
		c2.827,0.063,4.634,2.105,4.083,5.34c-0.503,2.953-2.701,5.403-4.9,5.843c-0.362,0.072-0.715,0.094-1.056,0.074
		C713.147,268.284,715.229,265.899,715.716,263.037z"/>
	<path fill="#DBC397" d="M707.109,263.413c0.378-2.863,2.124-5.167,4.546-5.715c2.814,0.074,4.61,2.112,4.061,5.338
		c-0.487,2.863-2.569,5.247-4.699,5.791C708.541,268.684,706.736,266.24,707.109,263.413z"/>
</g>
<g>
	<path fill="#EED6A9" d="M549,267v-10h6v22h1.1c-0.136,2-1.342,2.863-3.291,2.863c-0.419,0-0.809-0.161-0.809-0.272V267H549z"/>
	<path fill="#D4BD90" d="M548.75,279H549v-12h3v14.591C550,281.185,548.856,281,548.75,279z"/>
</g>
<g>
	<path fill="#73A846" d="M771.139,256H771v-16h0.125c0.06-4,2.264-5.985,5.214-6.689c-0.506-0.121-1.033-0.096-1.575-0.096
		c-3.708,0-6.72,1.785-6.789,6.785H767v16h0.988c0.236,4,3.182,6.356,6.784,6.356c0.542,0,1.069-0.06,1.575-0.18
		C773.495,261.496,771.339,259,771.139,256z"/>
	<path fill="#80BB4E" d="M781.556,256H781v-0.029c0-0.149,0.016-0.299,0.016-0.451S781,255.218,781,255.069V240h0.554
		c-0.06-4-2.264-5.803-5.214-6.508c-2.95,0.704-5.155,2.508-5.214,6.508H771v16h0.139c0.2,3,2.357,5.502,5.209,6.181
		C779.2,261.502,781.356,259,781.556,256z"/>
</g>
<g>
	<path fill="#73A846" d="M746.109,257.696c0-5.83,4.011-10.721,9.424-12.069c-0.966-0.241-1.975-0.37-3.016-0.37
		c-6.87,0-12.439,5.569-12.439,12.439c0,6.87,5.569,12.439,12.439,12.439c1.04,0,2.05-0.13,3.016-0.37
		C750.12,268.417,746.109,263.526,746.109,257.696z"/>
	<path fill="#80BB4E" d="M764.956,257.696c0-5.83-4.011-10.721-9.424-12.069c-5.412,1.348-9.424,6.239-9.424,12.069
		c0,5.83,4.011,10.721,9.424,12.069C760.945,268.417,764.956,263.526,764.956,257.696z"/>
</g>
<polygon fill="#E8A484" points="738.759,337.608 772.307,327.336 749.062,320.017 714.072,329.788 "/>
<polyline fill="none" stroke="#C45F2F" stroke-width="3" stroke-miterlimit="10" points="714.072,329.788 749.062,320.017 
	772.307,327.336 "/>
<g>
	<path fill="#73A846" d="M811.952,272.877c0.813,0,1.609,0.073,2.385,0.205c-6.068,1.575-10.549,7.09-10.549,13.651
		c0,6.976,5.066,12.765,11.718,13.898c-1.135,0.295-2.326,0.452-3.554,0.452c-7.789,0-14.103-6.314-14.103-14.103
		C797.849,279.191,804.163,272.877,811.952,272.877z"/>
	<path fill="#80BB4E" d="M803.788,286.732c0-6.561,4.481-12.075,10.549-13.651c6.653,1.134,11.718,6.923,11.718,13.898
		c0,6.561-4.481,12.075-10.549,13.651C808.853,299.497,803.788,293.708,803.788,286.732z"/>
</g>
<g>
	<path fill="#73A846" d="M811.952,257.266c0.618,0,1.222,0.055,1.811,0.156c-4.609,1.196-8.012,5.384-8.012,10.367
		c0,5.298,3.847,9.694,8.9,10.555c-0.862,0.224-1.767,0.343-2.699,0.343c-5.915,0-10.711-4.795-10.711-10.711
		C801.241,262.061,806.037,257.266,811.952,257.266z"/>
	<path fill="#80BB4E" d="M805.752,267.789c0-4.983,3.403-9.171,8.012-10.367c5.052,0.861,8.9,5.257,8.9,10.555
		c0,4.983-3.403,9.171-8.012,10.367C809.599,277.483,805.752,273.086,805.752,267.789z"/>
</g>
<polygon fill="#EED6A9" points="764.844,320.89 758.735,318.96 753.034,320.89 758.939,321.643 761.021,322.044 "/>
<polygon fill="#EED6A9" points="736.987,334.466 725.482,331.069 725.482,325.478 736.987,328.901 "/>
<polygon fill="#EED6A9" points="742.781,327.308 731.178,323.87 725.482,325.478 736.987,328.901 "/>
<polygon fill="#85B2CC" points="744.924,321.805 735.787,319.113 731.178,323.87 742.781,327.308 "/>
<path fill="none" d="M735.787,319.113"/>
<polygon fill="#FFF5E3" points="758.032,318.011 748.789,315.286 735.787,319.113 744.924,321.805 "/>
<g>
	<polygon fill="#BBDAEF" points="761.021,322.044 758.032,318.011 751.449,319.916 753.742,324.145 	"/>
	<polygon fill="#FFF5E3" points="742.88,327.036 742.781,327.308 744.924,321.805 	"/>
	<path fill="#FFF5E3" d="M764.844,320.89l-3.823,1.154v2.635c0.869,0,1.573,1.022,1.573,2.282c0,0.014-0.001,0.028-0.002,0.042
		l2.252-0.669V320.89z"/>
	<polygon fill="#FFF5E3" points="753.742,329.593 753.742,329.593 744.44,332.315 	"/>
	<polygon fill="#BBDAEF" points="751.449,319.916 744.924,321.805 742.781,327.308 753.742,324.145 	"/>
	<path fill="#FFF5E3" d="M761.021,324.678v-2.635l-7.279,2.101l0,0v5.448l5.841-1.709c-0.086-0.282-0.135-0.594-0.135-0.923
		C759.448,325.7,760.152,324.678,761.021,324.678z"/>
	<path fill="#FFF5E3" d="M753.742,324.145l-10.961,3.164v2.663c0.918,0,1.663,1.003,1.663,2.24c0,0.035-0.003,0.069-0.004,0.103
		l9.302-2.722V324.145L753.742,324.145z"/>
</g>
<g>
	<path fill="#FFF5E3" d="M742.781,329.972v-2.663l-5.795,1.593v5.564l4.314-1.24c-0.115-0.305-0.182-0.649-0.182-1.014
		C741.119,330.974,741.863,329.972,742.781,329.972z"/>
</g>
<ellipse fill="#998769" cx="742.781" cy="332.211" rx="1.326" ry="1.786"/>
<ellipse fill="#998769" cx="761.054" cy="326.806" rx="1.326" ry="1.786"/>
<polygon opacity="0.3" fill="#FFF5E3" points="736.987,328.901 731.235,323.886 742.781,327.308 "/>
<polygon opacity="0.3" fill="#BBDAEF" points="744.924,322.044 731.235,323.886 742.781,327.308 "/>
<path fill="none" stroke="#E88A5E" stroke-width="0.5" stroke-linejoin="round" stroke-miterlimit="10" d="M761.021,322.044"/>
<path fill="none" stroke="#E88A5E" stroke-width="0.5" stroke-linejoin="round" stroke-miterlimit="10" d="M736.987,328.901"/>
<line fill="none" stroke="#E88A5E" stroke-width="0.5" stroke-linejoin="round" stroke-miterlimit="10" x1="742.781" y1="327.308" x2="731.178" y2="323.87"/>
<polyline fill="none" stroke="#E88A5E" stroke-width="0.5" stroke-linejoin="round" stroke-miterlimit="10" points="731.178,323.87 
	742.781,327.308 744.924,321.805 "/>
<g>
	<polyline fill="none" stroke="#E88A5E" stroke-width="0.5" stroke-linejoin="round" stroke-miterlimit="10" points="
		758.032,318.011 751.449,319.916 753.742,324.145 761.021,322.044 	"/>
	<g>
		<polygon fill="#E88A5E" points="744.924,321.805 742.88,327.036 742.781,327.308 744.924,321.805 		"/>
	</g>
	
		<line fill="none" stroke="#E88A5E" stroke-width="0.5" stroke-linejoin="round" stroke-miterlimit="10" x1="761.021" y1="322.044" x2="761.021" y2="324.678"/>
	<g>
		<path fill="#E88A5E" d="M751.201,320.508l1.805,3.329l-9.392,2.711l1.686-4.331L751.201,320.508 M751.449,319.916l-6.525,1.889
			l-2.143,5.504l10.961-3.164L751.449,319.916L751.449,319.916z"/>
	</g>
	<polyline fill="none" stroke="#E88A5E" stroke-width="0.5" stroke-linejoin="round" stroke-miterlimit="10" points="
		761.021,324.678 761.021,322.044 753.742,324.145 753.742,324.145 753.742,329.593 	"/>
	<polyline fill="none" stroke="#E88A5E" stroke-width="0.5" stroke-linejoin="round" stroke-miterlimit="10" points="
		753.742,329.593 753.742,324.145 753.742,324.145 742.781,327.308 742.781,329.972 	"/>
</g>
<g>
	
		<line fill="none" stroke="#E88A5E" stroke-width="0.5" stroke-linejoin="round" stroke-miterlimit="10" x1="742.781" y1="329.972" x2="742.781" y2="327.308"/>
</g>
<g>
	<path fill="#BDD57D" d="M938.716,514.777c2.555-3.902,3.91-7.979,3.91-12.174c0-24.111-44.755-44.326-105-49.743l-30.546,68.884
		L938.716,514.777z"/>
	<path opacity="0.4" fill="#80BB4E" d="M937.962,514.777c2.556-3.902,3.91-7.979,3.91-12.174c0-24.111-44.755-44.326-105-49.743
		l-30.546,68.884L937.962,514.777z"/>
</g>
<g>
	<path fill="#73A846" d="M933.327,468.132c0.618,0,1.222,0.055,1.811,0.156c-4.609,1.196-8.012,5.384-8.012,10.367
		c0,5.298,3.847,9.694,8.9,10.555c-0.862,0.224-1.767,0.343-2.699,0.343c-5.915,0-10.711-4.795-10.711-10.711
		S927.412,468.132,933.327,468.132z"/>
	<path fill="#80BB4E" d="M927.126,478.655c0-4.983,3.403-9.171,8.012-10.367c5.052,0.861,8.9,5.257,8.9,10.555
		c0,4.983-3.403,9.171-8.012,10.367C930.974,488.349,927.126,483.953,927.126,478.655z"/>
</g>
<g>
	<path fill="#73A846" d="M933.327,452.898c0.618,0,1.222,0.055,1.811,0.156c-4.609,1.196-8.012,5.384-8.012,10.367
		c0,5.298,3.847,9.694,8.9,10.555c-0.862,0.224-1.767,0.343-2.699,0.343c-5.915,0-10.711-4.795-10.711-10.711
		C922.616,457.693,927.412,452.898,933.327,452.898z"/>
	<path fill="#80BB4E" d="M927.126,463.421c0-4.983,3.403-9.171,8.012-10.367c5.052,0.861,8.9,5.257,8.9,10.555
		c0,4.983-3.403,9.171-8.012,10.367C930.974,473.115,927.126,468.719,927.126,463.421z"/>
</g>
<g>
	<path fill="#73A846" d="M859.945,490.269c0-5.83,4.011-10.721,9.424-12.069c-0.966-0.241-1.975-0.37-3.016-0.37
		c-6.87,0-12.439,5.569-12.439,12.439c0,6.87,5.569,12.439,12.439,12.439c1.04,0,2.05-0.13,3.016-0.37
		C863.957,500.99,859.945,496.099,859.945,490.269z"/>
	<path fill="#80BB4E" d="M878.793,490.269c0-5.83-4.011-10.721-9.424-12.069c-5.412,1.348-9.424,6.239-9.424,12.069
		s4.011,10.721,9.424,12.069C874.781,500.99,878.793,496.099,878.793,490.269z"/>
</g>
<g>
	<path fill="#73A846" d="M878.678,500.823c0-3.533,2.431-6.497,5.711-7.315c-0.585-0.146-1.197-0.224-1.828-0.224
		c-4.164,0-7.539,3.375-7.539,7.539c0,4.164,3.375,7.539,7.539,7.539c0.63,0,1.242-0.079,1.828-0.224
		C881.109,507.321,878.678,504.356,878.678,500.823z"/>
	<path fill="#80BB4E" d="M890.101,500.823c0-3.533-2.431-6.497-5.711-7.315c-3.28,0.817-5.711,3.781-5.711,7.315
		c0,3.533,2.431,6.497,5.711,7.314C887.67,507.321,890.101,504.356,890.101,500.823z"/>
</g>
<g>
	<path fill="#73A846" d="M590.924,388.872c0-3.533-2.431-6.497-5.711-7.315c0.585-0.146,1.197-0.224,1.828-0.224
		c4.164,0,7.539,3.375,7.539,7.539c0,4.164-3.375,7.539-7.539,7.539c-0.63,0-1.242-0.079-1.828-0.224
		C588.493,395.369,590.924,392.405,590.924,388.872z"/>
	<path fill="#80BB4E" d="M579.502,388.872c0-3.533,2.431-6.497,5.711-7.315c3.28,0.817,5.711,3.781,5.711,7.315
		c0,3.533-2.431,6.497-5.711,7.314C581.932,395.369,579.502,392.405,579.502,388.872z"/>
</g>
<g>
	<path fill="#73A846" d="M886.83,479.463c0-2.061,1.418-3.79,3.332-4.267c-0.341-0.085-0.698-0.131-1.066-0.131
		c-2.429,0-4.398,1.969-4.398,4.398s1.969,4.398,4.398,4.398c0.368,0,0.725-0.046,1.066-0.131
		C888.248,483.253,886.83,481.524,886.83,479.463z"/>
	<path fill="#80BB4E" d="M893.493,479.463c0-2.061-1.418-3.79-3.332-4.267c-1.914,0.477-3.332,2.206-3.332,4.267
		s1.418,3.79,3.332,4.267C892.075,483.253,893.493,481.524,893.493,479.463z"/>
</g>
<polygon fill="#E8A484" points="849.957,535.125 883.504,524.853 860.26,517.534 825.27,527.305 "/>
<polyline fill="none" stroke="#C45F2F" stroke-width="3" stroke-miterlimit="10" points="825.27,527.305 860.26,517.534 
	883.504,524.853 "/>
<polygon fill="#E8A484" points="887.651,546.81 921.198,536.538 897.954,529.219 862.964,538.99 "/>
<polyline fill="none" stroke="#C45F2F" stroke-width="3" stroke-miterlimit="10" points="862.964,538.99 897.954,529.219 
	921.198,536.538 "/>
<g>
	<path fill="#73A846" d="M864.334,462H865v-16h-0.652c-0.06-4-2.264-6.269-5.214-6.973c0.506-0.121,1.033,0.046,1.575,0.046
		c3.708,0,6.72,1.927,6.789,6.927H867v16h0.465c-0.236,4-3.172,6.072-6.774,6.072c-0.542,0-1.065,0.082-1.57-0.038
		C861.973,467.355,864.134,465,864.334,462z"/>
	<path fill="#80BB4E" d="M853.917,462H854v-0.597c0-0.149-0.016-0.299-0.016-0.451c0-0.152,0.016-0.302,0.016-0.451V446h-0.081
		c0.06-4,2.264-5.803,5.214-6.508c2.95,0.704,5.155,2.508,5.214,6.508H865v16h-0.666c-0.2,3-2.357,5.502-5.209,6.181
		C856.273,467.502,854.117,465,853.917,462z"/>
</g>
<g>
	<path fill="#73A846" d="M589.921,544H590v-16h-0.065c-0.06-3-2.264-5.805-5.214-6.509c0.506-0.121,1.033-0.186,1.575-0.186
		c3.708,0,6.72,3.695,6.789,6.695H592v16h1.052c-0.236,4-3.172,6.536-6.774,6.536c-0.542,0-1.065-0.15-1.57-0.27
		C587.56,549.586,589.721,547,589.921,544z"/>
	<path fill="#80BB4E" d="M579.504,544H579v0.33c0-0.149-0.016-0.299-0.016-0.451s0.016-0.302,0.016-0.451V528h0.506
		c0.06-3,2.264-5.803,5.214-6.508c2.95,0.704,5.155,3.508,5.214,6.508H590v16h-0.079c-0.2,3-2.357,5.502-5.209,6.181
		C581.86,549.502,579.704,547,579.504,544z"/>
</g>
<polygon fill="#EED6A9" points="875.476,517.842 869.367,515.911 863.666,517.842 869.571,518.595 871.653,518.995 "/>
<polygon fill="#EED6A9" points="847.619,531.417 836.114,528.02 836.114,522.429 847.619,525.853 "/>
<polygon fill="#EED6A9" points="853.414,524.26 841.81,520.821 836.114,522.429 847.619,525.853 "/>
<polygon fill="#85B2CC" points="855.557,518.756 846.419,516.065 841.81,520.821 853.414,524.26 "/>
<path fill="none" d="M846.419,516.065"/>
<polygon fill="#FFF5E3" points="868.664,514.962 859.421,512.238 846.419,516.065 855.557,518.756 "/>
<g>
	<polygon fill="#BBDAEF" points="871.653,518.995 868.664,514.962 862.081,516.868 864.374,521.096 	"/>
	<polygon fill="#FFF5E3" points="853.512,523.987 853.414,524.26 855.557,518.756 	"/>
	<path fill="#FFF5E3" d="M875.476,517.842l-3.823,1.154v2.635c0.869,0,1.573,1.022,1.573,2.282c0,0.014-0.001,0.028-0.001,0.042
		l2.252-0.669V517.842z"/>
	<polygon fill="#FFF5E3" points="864.374,526.545 864.374,526.545 855.072,529.266 	"/>
	<polygon fill="#BBDAEF" points="862.081,516.868 855.557,518.756 853.414,524.26 864.374,521.096 	"/>
	<path fill="#FFF5E3" d="M871.653,521.63v-2.635l-7.279,2.101l0,0v5.448l5.841-1.709c-0.086-0.282-0.135-0.594-0.135-0.923
		C870.08,522.652,870.785,521.63,871.653,521.63z"/>
	<path fill="#FFF5E3" d="M864.374,521.096l-10.961,3.164v2.663c0.918,0,1.663,1.003,1.663,2.24c0,0.035-0.003,0.069-0.004,0.103
		l9.302-2.722V521.096L864.374,521.096z"/>
</g>
<g>
	<path fill="#FFF5E3" d="M853.414,526.923v-2.663l-5.795,1.593v5.564l4.314-1.24c-0.115-0.305-0.182-0.649-0.182-1.014
		C851.751,527.926,852.495,526.923,853.414,526.923z"/>
</g>
<ellipse fill="#998769" cx="853.414" cy="529.163" rx="1.326" ry="1.786"/>
<ellipse fill="#998769" cx="871.686" cy="523.757" rx="1.326" ry="1.786"/>
<polygon opacity="0.3" fill="#FFF5E3" points="847.619,525.853 841.867,520.838 853.414,524.26 "/>
<polygon opacity="0.3" fill="#BBDAEF" points="855.557,518.995 841.867,520.838 853.414,524.26 "/>
<path fill="none" stroke="#E88A5E" stroke-width="0.5" stroke-linejoin="round" stroke-miterlimit="10" d="M871.653,518.995"/>
<path fill="none" stroke="#E88A5E" stroke-width="0.5" stroke-linejoin="round" stroke-miterlimit="10" d="M847.619,525.853"/>
<line fill="none" stroke="#E88A5E" stroke-width="0.5" stroke-linejoin="round" stroke-miterlimit="10" x1="853.414" y1="524.26" x2="841.81" y2="520.821"/>
<polyline fill="none" stroke="#E88A5E" stroke-width="0.5" stroke-linejoin="round" stroke-miterlimit="10" points="841.81,520.821 
	853.414,524.26 855.557,518.756 "/>
<g>
	<polyline fill="none" stroke="#E88A5E" stroke-width="0.5" stroke-linejoin="round" stroke-miterlimit="10" points="
		868.664,514.962 862.081,516.868 864.374,521.096 871.653,518.995 	"/>
	<g>
		<polygon fill="#E88A5E" points="855.557,518.756 853.512,523.987 853.414,524.26 855.557,518.756 		"/>
	</g>
	
		<line fill="none" stroke="#E88A5E" stroke-width="0.5" stroke-linejoin="round" stroke-miterlimit="10" x1="871.653" y1="518.995" x2="871.653" y2="521.63"/>
	<g>
		<path fill="#E88A5E" d="M861.833,517.46l1.805,3.329l-9.392,2.711l1.686-4.331L861.833,517.46 M862.081,516.868l-6.525,1.889
			l-2.143,5.504l10.961-3.164L862.081,516.868L862.081,516.868z"/>
	</g>
	<polyline fill="none" stroke="#E88A5E" stroke-width="0.5" stroke-linejoin="round" stroke-miterlimit="10" points="
		871.653,521.63 871.653,518.995 864.374,521.096 864.374,521.096 864.374,526.545 	"/>
	<polyline fill="none" stroke="#E88A5E" stroke-width="0.5" stroke-linejoin="round" stroke-miterlimit="10" points="
		864.374,526.545 864.374,521.096 864.374,521.096 853.414,524.26 853.414,526.923 	"/>
</g>
<g>
	
		<line fill="none" stroke="#E88A5E" stroke-width="0.5" stroke-linejoin="round" stroke-miterlimit="10" x1="853.414" y1="526.923" x2="853.414" y2="524.26"/>
</g>
<polygon fill="#EED6A9" points="912.605,528.773 906.496,526.843 900.794,528.773 906.7,529.526 908.782,529.927 "/>
<polygon fill="#EED6A9" points="884.748,542.348 873.243,538.951 873.243,533.361 884.748,536.784 "/>
<polygon fill="#EED6A9" points="890.542,535.191 878.939,531.753 873.243,533.361 884.748,536.784 "/>
<polygon fill="#85B2CC" points="892.685,529.688 883.548,526.996 878.939,531.753 890.542,535.191 "/>
<path fill="none" d="M883.548,526.996"/>
<polygon fill="#FFF5E3" points="905.793,525.893 896.55,523.169 883.548,526.996 892.685,529.688 "/>
<g>
	<polygon fill="#BBDAEF" points="908.782,529.927 905.793,525.893 899.21,527.799 901.503,532.028 	"/>
	<polygon fill="#FFF5E3" points="890.641,534.918 890.542,535.191 892.685,529.688 	"/>
	<path fill="#FFF5E3" d="M912.605,528.773l-3.823,1.154v2.635c0.869,0,1.573,1.022,1.573,2.282c0,0.014-0.001,0.028-0.002,0.042
		l2.252-0.669V528.773z"/>
	<polygon fill="#FFF5E3" points="901.503,537.476 901.503,537.476 892.201,540.198 	"/>
	<polygon fill="#BBDAEF" points="899.21,527.799 892.685,529.688 890.542,535.191 901.503,532.028 	"/>
	<path fill="#FFF5E3" d="M908.782,532.561v-2.635l-7.279,2.101l0,0v5.448l5.841-1.709c-0.086-0.282-0.135-0.594-0.135-0.923
		C907.209,533.583,907.913,532.561,908.782,532.561z"/>
	<path fill="#FFF5E3" d="M901.503,532.028l-10.961,3.164v2.663c0.918,0,1.663,1.003,1.663,2.24c0,0.035-0.003,0.069-0.004,0.103
		l9.302-2.722V532.028L901.503,532.028z"/>
</g>
<g>
	<path fill="#FFF5E3" d="M890.542,537.854v-2.663l-5.795,1.593v5.564l4.314-1.24c-0.115-0.305-0.182-0.649-0.182-1.014
		C888.88,538.857,889.624,537.854,890.542,537.854z"/>
</g>
<ellipse fill="#998769" cx="890.542" cy="540.094" rx="1.326" ry="1.786"/>
<ellipse fill="#998769" cx="908.815" cy="534.688" rx="1.326" ry="1.786"/>
<polygon opacity="0.3" fill="#FFF5E3" points="884.748,536.784 878.995,531.769 890.542,535.191 "/>
<polygon opacity="0.3" fill="#BBDAEF" points="892.685,529.927 878.995,531.769 890.542,535.191 "/>
<path fill="none" stroke="#E88A5E" stroke-width="0.5" stroke-linejoin="round" stroke-miterlimit="10" d="M908.782,529.927"/>
<path fill="none" stroke="#E88A5E" stroke-width="0.5" stroke-linejoin="round" stroke-miterlimit="10" d="M884.748,536.784"/>
<line fill="none" stroke="#E88A5E" stroke-width="0.5" stroke-linejoin="round" stroke-miterlimit="10" x1="890.542" y1="535.191" x2="878.939" y2="531.753"/>
<polyline fill="none" stroke="#E88A5E" stroke-width="0.5" stroke-linejoin="round" stroke-miterlimit="10" points="
	878.939,531.753 890.542,535.191 892.685,529.688 "/>
<g>
	<polyline fill="none" stroke="#E88A5E" stroke-width="0.5" stroke-linejoin="round" stroke-miterlimit="10" points="
		905.793,525.893 899.21,527.799 901.503,532.028 908.782,529.927 	"/>
	<g>
		<polygon fill="#E88A5E" points="892.685,529.688 890.641,534.918 890.542,535.191 892.685,529.688 		"/>
	</g>
	
		<line fill="none" stroke="#E88A5E" stroke-width="0.5" stroke-linejoin="round" stroke-miterlimit="10" x1="908.782" y1="529.927" x2="908.782" y2="532.561"/>
	<g>
		<path fill="#E88A5E" d="M898.962,528.391l1.805,3.328l-9.392,2.711l1.686-4.331L898.962,528.391 M899.21,527.799l-6.525,1.889
			l-2.143,5.504l10.961-3.164L899.21,527.799L899.21,527.799z"/>
	</g>
	<polyline fill="none" stroke="#E88A5E" stroke-width="0.5" stroke-linejoin="round" stroke-miterlimit="10" points="
		908.782,532.561 908.782,529.927 901.503,532.028 901.503,532.028 901.503,537.476 	"/>
	<polyline fill="none" stroke="#E88A5E" stroke-width="0.5" stroke-linejoin="round" stroke-miterlimit="10" points="
		901.503,537.476 901.503,532.028 901.503,532.028 890.542,535.191 890.542,537.854 	"/>
</g>
<g>
	
		<line fill="none" stroke="#E88A5E" stroke-width="0.5" stroke-linejoin="round" stroke-miterlimit="10" x1="890.542" y1="537.854" x2="890.542" y2="535.191"/>
</g>
<ellipse opacity="0.4" fill="#80BB4E" cx="936.841" cy="302.929" rx="8.11" ry="2.355"/>
<polygon fill="#DBC397" points="1118,367.562 1118,339.127 1127.642,336.542 1127.474,364.805 "/>
<polygon fill="#DBC397" points="983,352.485 983,324.049 993.424,321.464 992.865,349.727 "/>
<polygon fill="#EED6A9" points="975.163,349.284 975.289,321.411 985.045,318.826 984.461,352.426 "/>
<polygon fill="#DBC397" points="1118,395.456 1118,367.021 1127.454,364.436 1127.38,392.699 "/>
<polygon fill="#EED6A9" points="1108.223,392.256 1108.349,364.382 1117.772,361.535 1117.521,395.397 "/>
<polygon fill="#EAEAEA" points="352.206,256.934 334.866,261.457 1107.595,504.961 1117.019,498.176 "/>
<polygon fill="#EAEAEA" points="1038.615,293.12 500.72,448.043 925.533,581.857 944.38,577.334 533.137,447.289 1050.3,299.151 "/>
<path fill="#EAEAEA" d="M792.096,539.263l-245.388,70.488l24.878,1.885l234.08-67.472
	C805.665,544.163,803.027,540.016,792.096,539.263z"/>
<line fill="none" stroke="#FFFFFF" stroke-width="2" stroke-miterlimit="10" x1="352.233" y1="260.882" x2="1104.757" y2="498.908"/>
<g>
	<g>
		
			<line fill="none" stroke="#FFFFFF" stroke-width="2" stroke-miterlimit="10" x1="561.031" y1="609.751" x2="566.798" y2="608.095"/>
		
			<line fill="none" stroke="#FFFFFF" stroke-width="2" stroke-miterlimit="10" stroke-dasharray="12.3099,12.3099" x1="578.63" y1="604.698" x2="785.69" y2="545.255"/>
		
			<line fill="none" stroke="#FFFFFF" stroke-width="2" stroke-miterlimit="10" x1="791.606" y1="543.557" x2="797.373" y2="541.901"/>
	</g>
</g>
<polyline fill="none" stroke="#FFFFFF" stroke-width="2" stroke-miterlimit="10" stroke-dasharray="12" points="928.548,576.957 
	518.06,446.912 723.115,387.732 "/>
<line fill="none" stroke="#FFFFFF" stroke-width="2" stroke-miterlimit="10" stroke-dasharray="12" x1="749.878" y1="379.942" x2="1038.615" y2="297.769"/>
<line fill="none" stroke="#FFFFFF" stroke-width="2" stroke-miterlimit="10" x1="127.172" y1="386.225" x2="584.778" y2="255.049"/>
<g>
	<path fill="#EED6A9" d="M947,341v-11h8v22h-0.097c-0.136,2-2.244,2.926-4.192,2.926c-0.419,0-0.711-0.098-1.711-0.209V341H947z"/>
	<path fill="#D4BD90" d="M947.553,352H947v-11h2v13.718C949,354.312,947.659,353,947.553,352z"/>
</g>
<g>
	<path fill="#73A846" d="M250.31,352.034c-0.813,0-1.609,0.073-2.385,0.205c6.068,1.575,10.549,7.089,10.549,13.651
		c0,6.976-5.066,12.765-11.718,13.898c1.135,0.295,2.326,0.452,3.554,0.452c7.789,0,14.103-6.314,14.103-14.103
		C264.413,358.349,258.099,352.034,250.31,352.034z"/>
	<path fill="#80BB4E" d="M258.475,365.89c0-6.561-4.481-12.075-10.549-13.651c-6.653,1.134-11.718,6.923-11.718,13.898
		c0,6.561,4.481,12.075,10.549,13.651C253.409,378.655,258.475,372.866,258.475,365.89z"/>
</g>
<line fill="none" stroke="#80BB4E" stroke-width="2" stroke-miterlimit="10" x1="546.707" y1="609.751" x2="789.834" y2="539.263"/>
<line fill="none" stroke="#80BB4E" stroke-width="2" stroke-miterlimit="10" x1="944.38" y1="577.334" x2="533.137" y2="447.289"/>
<line fill="none" stroke="#80BB4E" stroke-width="2" stroke-miterlimit="10" x1="500.72" y1="448.043" x2="721.051" y2="383.57"/>
<polyline fill="none" stroke="#80BB4E" stroke-width="2" stroke-miterlimit="10" points="1036.535,293.108 739.709,378.481 
	470.587,293.674 "/>
<polygon fill="#EED6A9" points="983.561,290.356 975.289,292.941 1109.538,339.472 1117.983,339.127 1127.634,336.542 "/>
<polygon fill="#FFF5E3" points="975,292.941 975,321.549 1118,367.39 1118,339.127 "/>
<text transform="matrix(1 0.312 0 1 1007.653 323.8177)" fill="#DBC397" font-family="'AvenirNextLTPro-Bold'" font-size="13.8526" letter-spacing="0.955">scrollez</text>
<g>
	<path fill="#73A846" d="M957.948,336H958v-31h-0.026c-0.114-6-4.334-11.204-9.983-12.552c0.968-0.231,1.977-0.31,3.016-0.31
		c7.098,0,12.864,4.862,12.998,12.862H964v31h-0.021c-0.451,8-6.092,12.238-12.988,12.238c-1.038,0-2.047-0.149-3.016-0.38
		C953.436,346.558,957.565,342,957.948,336z"/>
	<path fill="#80BB4E" d="M938.004,336H938v0.084c0-0.286-0.031-0.573-0.031-0.863c0-0.29,0.031-0.578,0.031-0.863V305h0.009
		c0.114-6,4.334-11.111,9.983-12.459c5.648,1.349,9.868,6.459,9.983,12.459H958v31h-0.052c-0.383,6-4.511,10.533-9.972,11.833
		C942.515,346.533,938.387,342,938.004,336z"/>
</g>
<line fill="none" stroke="#80BB4E" stroke-width="2" stroke-miterlimit="10" x1="1117.019" y1="498.176" x2="755.54" y2="384.135"/>
<line fill="none" stroke="#80BB4E" stroke-width="2" stroke-miterlimit="10" x1="127.172" y1="382.455" x2="434.402" y2="293.674"/>
<polyline fill="none" stroke="#80BB4E" stroke-width="2" stroke-miterlimit="10" points="589.317,249.574 453.06,288.02 
	352.206,256.934 "/>
<g>
	<path fill="#73A846" d="M559.144,264H559v-32h0.171c-0.114-6-4.334-11.267-9.983-12.615c0.968-0.231,1.977-0.279,3.016-0.279
		c7.098,0,12.864,5.894,12.998,12.894H565v32h0.175c-0.451,6-6.092,11.674-12.988,11.674c-1.038,0-2.047,0.132-3.016-0.098
		C554.633,274.276,558.761,269,559.144,264z"/>
	<path fill="#80BB4E" d="M539.2,264H538v-1.043c0-0.286-0.031-0.573-0.031-0.863c0-0.29,0.031-0.578,0.031-0.863V232h1.206
		c0.114-6,4.334-11.111,9.983-12.459c5.648,1.349,9.868,6.459,9.983,12.459H559v32h0.144c-0.383,5-4.511,10.533-9.972,11.833
		C543.712,274.533,539.584,269,539.2,264z"/>
</g>
<path fill="#E8A484" d="M832.806,529.753l-19.413,5.74c2.997,1.526,6.18,1.628,9.518,3.047l19.005-5.928L832.806,529.753z"/>
<path fill="#E8A484" d="M870.217,541.312l-19.884,5.866c2.997,1.526,6.18,1.628,9.518,3.047l19.365-6.062L870.217,541.312z"/>
<polygon fill="#FFF5E3" points="769.106,509.826 769.106,463.384 784.749,435.365 790.968,437.489 806.8,475.446 806.8,521.747 "/>
<polygon fill="#EED6A9" points="806.8,475.195 841.478,465.646 841.29,511.853 806.706,521.747 "/>
<polygon fill="#EED6A9" points="791.688,439.256 785.845,437.56 771.71,463.286 769.166,463.38 784.62,435.298 791.311,437.183 "/>
<polygon fill="#C9B489" points="806.8,477.174 841.447,467.311 841.478,465.646 806.8,475.446 "/>
<polygon fill="#E34636" points="790.968,437.489 829.039,426.746 843.929,465.1 805.857,475.843 "/>
<polygon fill="#E88A5E" points="821.124,424.422 829.039,426.746 790.968,437.489 783.43,434.976 "/>
<polygon fill="#E34636" points="783.43,434.976 767.221,464.111 769.012,463.734 784.749,435.463 "/>
<polygon fill="#EED6A9" points="782.047,488.011 791.22,490.964 791.22,516.828 781.985,513.906 "/>
<polygon fill="#EED6A9" points="784.16,456.217 789.713,458.005 789.713,473.562 784.122,471.812 "/>
<polyline fill="none" stroke="#D4BD90" stroke-miterlimit="10" points="784.16,456.217 784.16,471.812 789.713,473.562 "/>
<polyline fill="none" stroke="#D4BD90" stroke-miterlimit="10" points="782.047,488.149 781.919,513.781 791.107,516.655 "/>
<polygon fill="#DBC397" points="822.469,485.164 816.915,486.951 816.915,502.508 822.507,500.758 "/>
<polyline fill="none" stroke="#C9B489" stroke-miterlimit="10" points="822.469,485.164 822.469,500.758 816.915,502.508 "/>
<polygon fill="#DBC397" points="835.033,481.3 829.48,483.088 829.48,498.644 835.071,496.895 "/>
<polyline fill="none" stroke="#C9B489" stroke-miterlimit="10" points="835.033,481.3 835.033,496.895 829.48,498.644 "/>
<polygon fill="#C73A2C" points="831.863,434.105 834.078,439.476 824.105,437.686 826.461,433.1 "/>
<polygon fill="#FFF5E3" points="824.089,425.891 824.089,437.717 820.838,433.131 820.822,424.775 "/>
<path fill="#DBC397" d="M823,424.304v1.508l1.416-0.031l2.074-0.471l-1.871-0.911C824.62,424.398,824,423.896,823,424.304z"/>
<polygon fill="#EED6A9" points="824.089,437.717 827.356,436.649 827.356,425.294 824.089,425.891 "/>
<path fill="#C9B489" d="M823.963,424.351v1.366l-2.136-0.895C821.827,424.823,823.728,424.053,823.963,424.351z"/>
<polygon fill="none" stroke="#FFF5E3" stroke-miterlimit="10" points="824.089,425.891 826.775,425.231 823.995,424.147 
	821.403,424.807 "/>
<g>
	<path fill="#73A846" d="M250.31,336.423c-0.618,0-1.222,0.055-1.811,0.156c4.609,1.196,8.012,5.384,8.012,10.367
		c0,5.298-3.847,9.694-8.9,10.555c0.862,0.224,1.767,0.343,2.699,0.343c5.915,0,10.711-4.795,10.711-10.711
		C261.021,341.219,256.226,336.423,250.31,336.423z"/>
	<path fill="#80BB4E" d="M256.511,346.946c0-4.983-3.403-9.171-8.012-10.367c-5.052,0.861-8.9,5.257-8.9,10.555
		c0,4.983,3.403,9.171,8.012,10.367C252.664,356.64,256.511,352.244,256.511,346.946z"/>
</g>
</svg>
