<?xml version="1.0" encoding="utf-8"?>
<!-- Generator: Adobe Illustrator 19.2.0, SVG Export Plug-In . SVG Version: 6.00 Build 0)  -->
<svg version="1.1" id="Calque_1" xmlns="http://www.w3.org/2000/svg" xmlns:xlink="http://www.w3.org/1999/xlink" x="0px" y="0px"
	 viewBox="0 0 1280 800" style="enable-background:new 0 0 1280 800;" xml:space="preserve">
<style type="text/css">
	.st0{fill:#FFFFFF;}
</style>
<title>scroll_bas</title>
<path class="st0" d="M640.2,444.6c-24.8,0-45-20.2-45-45c0-24.8,20.2-45,45-45c24.8,0,45,20.2,45,45
	C685.2,424.4,665,444.6,640.2,444.6z M640.2,357.5c-23.2,0-42,18.8-42,42c0,23.2,18.8,42,42,42c23.2,0,42-18.8,42-42
	C682.2,376.4,663.4,357.5,640.2,357.5z"/>
<path class="st0" d="M640.1,415c-0.5,0-1-0.3-1.3-0.8l-12.3-21.4c-0.4-0.7-0.2-1.6,0.6-2c0.7-0.4,1.6-0.2,2,0.6l11,19.2l11-19.2
	c0.4-0.7,1.3-1,2-0.6c0.7,0.4,1,1.3,0.6,2l-12.3,21.4C641.1,414.7,640.7,415,640.1,415z"/>
</svg>
