<?xml version="1.0" encoding="utf-8"?>
<!-- Generator: Adobe Illustrator 16.0.0, SVG Export Plug-In . SVG Version: 6.00 Build 0)  -->
<!DOCTYPE svg PUBLIC "-//W3C//DTD SVG 1.1//EN" "http://www.w3.org/Graphics/SVG/1.1/DTD/svg11.dtd">
<svg version="1.1" id="Calque_1" xmlns="http://www.w3.org/2000/svg" xmlns:xlink="http://www.w3.org/1999/xlink" x="0px" y="0px"
	 width="85.04px" height="85.04px" viewBox="0 0 85.04 85.04" enable-background="new 0 0 85.04 85.04" xml:space="preserve">
<path fill="#ED796B" d="M35.376,42.113L12.633,56.697l-1.14,3.74l4.335,0.784L38.75,48.285
	C38.75,48.285,35.179,45.945,35.376,42.113z"/>
<path fill="#EB6A5B" d="M36.233,45.545c-0.537-0.939-0.927-2.095-0.857-3.432L12.633,56.697l-1.14,3.74L36.233,45.545z"/>
<path fill="#ED796B" d="M45.678,48.772l23.394,13.517l3.846-0.702l-1.292-4.211L49.611,42.945
	C49.611,42.945,49.173,47.192,45.678,48.772z"/>
<path fill="#EB6A5B" d="M48.333,46.432c-0.588,0.912-1.435,1.788-2.654,2.34l23.394,13.517l3.846-0.702L48.333,46.432z"/>
<path fill="#183356" d="M49.764,42.386c-0.007,4.043-3.291,7.315-7.337,7.306c-4.043-0.008-7.313-3.293-7.304-7.335
	c0.01-4.038,3.293-7.31,7.337-7.302C46.503,35.061,49.772,38.344,49.764,42.386z"/>
<path fill="#ED796B" d="M46.176,36.098L45.414,9.095l-2.617-2.907l-2.908,3.31l-0.736,26.311
	C39.152,35.809,42.998,33.954,46.176,36.098z"/>
<path fill="#EB6A5B" d="M42.795,35.069c1.081,0.021,2.271,0.281,3.381,1.029L45.414,9.095l-2.617-2.907L42.795,35.069z"/>
<circle fill="#EB6A5B" cx="42.444" cy="42.373" r="2.487"/>
</svg>
