<?xml version="1.0" encoding="utf-8"?>
<!-- Generator: Adobe Illustrator 16.0.0, SVG Export Plug-In . SVG Version: 6.00 Build 0)  -->
<!DOCTYPE svg PUBLIC "-//W3C//DTD SVG 1.1//EN" "http://www.w3.org/Graphics/SVG/1.1/DTD/svg11.dtd">
<svg version="1.1" id="M__A__P_-_copie" xmlns="http://www.w3.org/2000/svg" xmlns:xlink="http://www.w3.org/1999/xlink" x="0px"
	 y="0px" width="419.037px" height="407.543px" viewBox="0 0 419.037 407.543" enable-background="new 0 0 419.037 407.543"
	 xml:space="preserve">
<g>
	<path fill="#179FAE" d="M47.262,284.996c-3.505-1.84-7.357-3.966-8.899-4.954c0.303-0.356,0.73-0.808,1.151-1.203
		c0.248-0.232,0.388-0.558,0.388-0.897v-2.457c0-0.459-0.255-0.879-0.661-1.091l-2.922-1.53c-0.201-0.105-0.427-0.153-0.652-0.138
		l-4.093,0.273c-0.647,0.044-1.149,0.582-1.149,1.229v4.128c0,0.318,0.123,0.624,0.343,0.854l4.287,4.461
		c0.153,0.159,0.344,0.273,0.556,0.333l6.965,1.952l3.109,4.384c0.235,0.332,0.613,0.52,1.005,0.52c0.125,0,0.25-0.019,0.374-0.058
		c0.511-0.163,0.858-0.638,0.858-1.174v-3.542C47.921,285.629,47.667,285.208,47.262,284.996z"/>
	<path fill="#179FAE" d="M28.48,327.457c-0.159-0.214-0.384-0.372-0.64-0.448l-5.527-1.643c-0.303-0.092-0.63-0.062-0.912,0.083
		l-1.106,0.565c-0.368,0.187-0.616,0.546-0.663,0.955c-0.048,0.409,0.113,0.815,0.427,1.082l4.534,3.839
		c0.222,0.188,0.504,0.291,0.796,0.291h4.142c0.465,0,0.891-0.262,1.1-0.676c0.209-0.417,0.166-0.915-0.11-1.288L28.48,327.457z"/>
	<path fill="#179FAE" d="M243.813,385.494c-0.082-0.394-0.35-0.723-0.72-0.882l-3.905-1.681c-0.432-0.186-0.931-0.109-1.289,0.197
		l-2.738,2.347c-0.103,0.089-0.267,0.117-0.382,0.083c-0.135-0.04-0.239-0.145-0.279-0.279l-1.487-5.063
		c-0.033-0.109-0.017-0.229,0.042-0.327l2.359-3.916c0.123-0.205,0.184-0.439,0.176-0.676l-1.336-40.513
		c-0.006-0.211-0.068-0.417-0.178-0.599l-11.488-18.917c-0.001-0.107,0.04-0.213,0.117-0.292l2.529-2.582
		c0.288-0.293,0.41-0.71,0.326-1.112c-0.083-0.402-0.36-0.736-0.74-0.891l-7.909-3.23c-0.021-0.009-0.042-0.02-0.062-0.031
		l-5.18-14.751c-0.068-0.194-0.183-0.367-0.336-0.505l-9.52-8.615c-0.103-0.092-0.151-0.229-0.131-0.365
		c0.019-0.124,0.099-0.231,0.218-0.295c0.042-0.023,0.07-0.061,0.109-0.086l-1.579-4.504c-0.023-0.059-0.071-0.104-0.131-0.123
		l-11.741-3.664c-0.087-0.027-0.183,0.006-0.233,0.083l-1.289,1.971l-14.694-3.803l-0.966-0.25l-0.457-0.146l-0.656-0.359
		l-13.973-7.638c-0.063-0.035-0.14-0.034-0.202,0.003l-12.859,7.534c-0.073,0.043-0.111,0.125-0.099,0.208l1.61,10.574l-8.321,0.941
		l-3.18-3.173l-3.407-10.902c-0.019-0.062-0.068-0.112-0.13-0.133c-0.062-0.021-0.131-0.011-0.185,0.027l-7.489,5.296
		c-0.057,0.04-0.09,0.107-0.086,0.177l0.644,12.508l0.296,4.038c0.003,0.036,0.015,0.071,0.036,0.102l4.566,6.636l-5.442,3.845
		l-21.906-4.111l-2.044-7.168c-0.021-0.078-0.088-0.135-0.167-0.147l-8.427-1.224l-1.597-3.498c-0.014-0.03-0.034-0.057-0.061-0.077
		L71.59,272.908c-0.025-0.019-0.053-0.033-0.083-0.039l-3.347-0.517c-0.001,0.02,0.005,0.038,0.005,0.058l-0.034-0.009
		c-0.038,0.107-0.107,0.19-0.194,0.235l-4.194,2.111c-0.307,0.153-0.535,0.429-0.629,0.758l-3.234,11.191
		c-0.021,0.072-0.06,0.137-0.116,0.188L49.11,296.63c-0.302,0.277-0.447,0.685-0.387,1.09l1.765,11.875
		c0.044,0.293,0.19,0.559,0.413,0.752l17.5,15.125l16.151,20.516c0.04,0.051,0.067,0.111,0.08,0.174l3.945,19.765
		c0.115,0.576,0.621,0.991,1.208,0.991h4.16c0.091,0,0.18,0.03,0.288,0.113l37.774,27.272c0.221,0.159,0.484,0.242,0.758,0.232
		l14.07-0.412c0.131,0,0.26,0.067,0.336,0.174l5.672,8.046c0.12,0.169,0.28,0.307,0.466,0.397l9.56,4.676
		c0.172,0.083,0.357,0.125,0.542,0.125c0.227,0,0.453-0.063,0.652-0.187c0.361-0.225,0.58-0.62,0.58-1.045v-7.29
		c0-0.226,0.185-0.411,0.411-0.411h13.104c0.366,0,0.712-0.162,0.946-0.442l3.908-4.682c0.002-0.002,0.004-0.004,0.006-0.006
		l13.799,4.24c0.096,0.029,0.195,0.047,0.296,0.053l8.971,0.48c0.26,0.015,0.524-0.057,0.744-0.203l6.149-4.057
		c0.104-0.069,0.227-0.09,0.355-0.048c0.119,0.039,0.213,0.129,0.256,0.247l1.061,2.86c0.124,0.335,0.387,0.6,0.722,0.726
		l6.785,2.548c0.23,0.085,0.48,0.102,0.719,0.044l9.461-2.253c0.233-0.055,0.446-0.179,0.611-0.353l10.556-11.176
		C243.779,386.296,243.895,385.888,243.813,385.494z"/>
</g>
<path fill="#179FAE" d="M193.684,190.477c-0.027-0.087-0.106-0.146-0.196-0.146h-4.929l-4.224-2.705
	c-0.033-0.021-0.071-0.032-0.11-0.032h-11.634l-3.494-4.048v-7.114l14.035,1.085c0.059,0.006,0.123-0.019,0.166-0.064l4.942-5.244
	c0.046-0.049,0.065-0.117,0.051-0.184c-0.015-0.066-0.061-0.121-0.124-0.146l-11.299-4.597c-0.024-0.01-0.051-0.015-0.078-0.015
	h-5.011l-4.695-8.156l1.895-5.108c0.036-0.097-0.005-0.205-0.096-0.253l-8.76-4.72l-0.204-9.194
	c-0.019-0.004-0.033-0.016-0.051-0.018l-0.049,0.002l-14.848-3.676c-0.057-0.015-0.111-0.04-0.157-0.077l-7.724-6.114
	c-0.22-0.174-0.511-0.274-0.773-0.265l-4.123,0.028c-0.334,0.002-0.654,0.14-0.885,0.383c-0.23,0.243-0.353,0.569-0.338,0.903
	l0.186,4.195c0.008,0.176-0.097,0.338-0.261,0.401l-16.311,6.339c-0.146,0.057-0.281,0.141-0.396,0.25l-12.333,11.573
	c-0.016,0-0.031,0-0.047,0.001l-16.538-1.386c-0.211-0.015-0.425,0.021-0.618,0.108l-13.255,6.1
	c-0.12,0.055-0.264,0.048-0.376-0.017c-0.115-0.066-0.191-0.184-0.204-0.316l-0.103-1.056c-0.047-0.48-0.368-0.887-0.824-1.045
	c-0.455-0.158-0.961-0.035-1.293,0.312l-2.804,2.933c-0.061,0.063-0.142,0.106-0.229,0.122l-7.662,1.289
	c-0.468,0.079-0.849,0.418-0.979,0.875l-0.847,2.949c-0.113,0.395-0.022,0.82,0.242,1.134l1.631,1.937
	c0.12,0.142,0.128,0.349,0.021,0.502l-2.927,4.133c-0.19,0.269-0.265,0.602-0.208,0.926l1.767,10.031
	c0.039,0.22-0.107,0.433-0.328,0.475l-6.272,1.189c-0.149,0.028-0.292,0.084-0.421,0.165c-2.105,1.311-4.598,2.758-5.965,3.427
	c-0.086-0.327-0.303-0.604-0.601-0.766c-0.31-0.169-0.677-0.195-1.009-0.077l-4.972,1.8c-0.112,0.041-0.244,0.027-0.348-0.034
	l-3.066-1.834c-0.521-0.312-1.192-0.197-1.581,0.271l-2.529,3.049c-0.104,0.124-0.181,0.267-0.228,0.421l-1.306,4.207
	c-0.04,0.131-0.145,0.231-0.272,0.271l-12.064-2.281c-0.39-0.074-0.792,0.044-1.081,0.32l-2.453,2.347
	c-0.331,0.316-0.458,0.791-0.332,1.231l1.498,5.192c0.038,0.131,0.007,0.271-0.08,0.377c-0.08,0.095-0.2,0.156-0.357,0.146
	l-2.329-0.24c-0.308-0.031-0.616,0.054-0.864,0.24l-9.151,6.84c-0.292,0.218-0.473,0.556-0.493,0.92
	c-0.02,0.365,0.125,0.719,0.391,0.968l4.919,4.575c0.069,0.063,0.113,0.149,0.127,0.24l-2.849,7.943
	c-0.213,0.597,0.059,1.257,0.63,1.528l9.37,4.465c0.166,0.079,0.347,0.12,0.53,0.12h1.029c0.238,0,0.471-0.068,0.67-0.198
	l6.655-4.313c0.141-0.012,0.273,0.051,0.356,0.161l3.153,4.142c0.045,0.06,0.096,0.115,0.151,0.165l4.359,3.967
	c0.347,0.316,0.843,0.407,1.276,0.237l8.646-3.371c0.142-0.056,0.274-0.137,0.386-0.241l6.512-5.993
	c0.057-0.052,0.126-0.087,0.202-0.101l12.947-2.465c0.033,0,0.066,0.004,0.097,0.011l16.862,4.297
	c0.213,0.052,0.681,0.155,0.51,0.292c-0.15,0.12-0.533,0.148-0.768,0.119l-13.158-1.635c-0.152-0.022-0.306-0.015-0.455,0.022
	l-14.865,3.561c-0.439,0.104-0.785,0.441-0.903,0.876l-1.358,5.02c-0.115,0.421,0.003,0.872,0.309,1.183l2.549,2.605
	c0.097,0.099,0.136,0.238,0.108,0.372l-1.766,8.313c-0.033,0.156-0.154,0.279-0.31,0.316l-4.556,1.057
	c-0.249,0.058-0.474,0.191-0.643,0.382l-1.539,1.732c-0.273,0.308-0.375,0.731-0.271,1.129c0.104,0.399,0.401,0.718,0.79,0.852
	l19.805,6.845c0.085,0.029,0.157,0.084,0.208,0.158l7.983,11.758c0.063,0.091,0.069,0.194,0.063,0.264
	c-0.001,0.017,0.005,0.032,0.005,0.048l3.347,0.517c0.03,0.006,0.058,0.02,0.083,0.039l16.254,12.624
	c0.026,0.02,0.046,0.047,0.061,0.077l1.597,3.498l8.427,1.224c0.08,0.012,0.146,0.069,0.167,0.147l2.044,7.168l21.906,4.111
	l5.442-3.845l-4.566-6.636c-0.021-0.031-0.033-0.065-0.036-0.102l-0.296-4.038l-0.644-12.508c-0.004-0.07,0.029-0.138,0.086-0.177
	l7.489-5.296c0.054-0.038,0.122-0.048,0.185-0.027c0.062,0.021,0.111,0.071,0.13,0.133l3.407,10.902l3.18,3.173l8.321-0.941
	l-1.61-10.574c-0.012-0.083,0.026-0.165,0.099-0.208l12.859-7.534c0.062-0.037,0.138-0.038,0.202-0.003l13.973,7.638l0.656,0.359
	l0.457,0.146l2.884-2.5c0.079-0.069,0.094-0.186,0.034-0.271l-6.062-8.803c-0.022-0.034-0.055-0.06-0.093-0.075l-4.87-1.951
	l-2.081-5.648l8.825-7.584c0.066-0.057,0.089-0.15,0.057-0.232l-4.844-12.175c-0.021-0.051-0.06-0.091-0.11-0.112
	c-0.05-0.022-0.106-0.023-0.157-0.002l-3.934,1.59l-5.611-5.635l-1.059-4.107c-0.02-0.079-0.085-0.137-0.164-0.151l-7.901-1.327
	l5.826-4.921l23.392-6.459l14.604,1.686c0.052,0.006,0.104-0.008,0.146-0.039l8.46-6.267c0.07-0.052,0.1-0.143,0.073-0.225
	L193.684,190.477z"/>
<path fill="#179FAE" d="M339.122,175.066c0.127-0.202,0.194-0.437,0.191-0.675l-0.072-5.211c0.002-0.021,0.002-0.04,0.002-0.059
	c0-0.019-0.009-0.036-0.01-0.055l-5.164-0.432l-4.782,5.22c-0.038,0.041-0.09,0.065-0.146,0.066c-0.001,0-0.003,0-0.005,0
	c-0.054,0-0.105-0.021-0.144-0.058l-3.638-3.563l-7.952-0.559c-0.05-0.004-0.097-0.026-0.132-0.062l-6.699-6.884l-11.215-1.978
	l-2.681,3.699c-0.049,0.066-0.128,0.099-0.208,0.081l-8.515-1.76c-0.067-0.015-0.124-0.062-0.149-0.126l-3.121-7.946
	c-0.033-0.083-0.008-0.178,0.061-0.234l3.984-3.256l-8.578,0.346l-13.222-1.059c-0.093-0.008-0.169-0.076-0.186-0.168l-1.32-7.336
	l-0.218-1.212l-0.936-0.57l-2.537-1.544c-0.036-0.022-0.081-0.034-0.121-0.03l-5.714,0.424l-4.52-1.477l-3.44-0.402
	c-0.081-0.007-0.159,0.029-0.2,0.099l-2.693,4.515l-5.326,1.003c-0.025,0.004-0.049,0.013-0.07,0.027l-5.473,3.395l-14.177-1.678
	l-7.145-5.256c-0.043-0.033-0.1-0.047-0.156-0.037l-3.922,0.656l-2.561,0.879l-8.171-5.074c-0.02-0.011-0.04-0.021-0.063-0.026
	l-3.781-0.85c-0.063-0.015-0.128,0.002-0.177,0.043c-0.049,0.042-0.077,0.104-0.073,0.167l0.232,4.498l-20.976-3.441
	c-0.081-0.014-0.16,0.023-0.204,0.09l-1.275,1.929l-6.424-2.707l-3.736-1.573l-1.201-0.506c-0.016,0.079-0.031,0.158-0.031,0.24
	v4.781c0,0.128-0.058,0.246-0.157,0.324c-0.062,0.049-0.145,0.068-0.203,0.075c-0.017,0.003-0.031,0.013-0.049,0.017l0.204,9.194
	l8.76,4.72c0.091,0.048,0.131,0.156,0.096,0.253l-1.895,5.108l4.695,8.156h5.011c0.026,0,0.054,0.005,0.078,0.015l11.299,4.597
	c0.063,0.025,0.109,0.08,0.124,0.146c0.014,0.067-0.005,0.135-0.051,0.184l-4.942,5.244c-0.043,0.046-0.107,0.07-0.166,0.064
	l-14.035-1.085v7.114l3.494,4.048h11.634c0.039,0,0.078,0.011,0.11,0.032l4.224,2.705h4.929c0.09,0,0.169,0.059,0.196,0.146
	l5.113,16.533c0.026,0.083-0.003,0.173-0.073,0.225l-8.46,6.267c-0.042,0.031-0.094,0.045-0.146,0.039l-14.604-1.686l-23.392,6.459
	l-5.826,4.921l7.901,1.327c0.079,0.014,0.144,0.073,0.164,0.151l1.059,4.107l5.611,5.635l3.934-1.59
	c0.051-0.021,0.107-0.02,0.157,0.002c0.051,0.021,0.09,0.061,0.11,0.112l4.844,12.175c0.032,0.082,0.009,0.175-0.057,0.232
	l-8.825,7.584l2.081,5.648l4.87,1.951c0.038,0.015,0.07,0.041,0.093,0.075l6.062,8.803c0.06,0.085,0.044,0.202-0.034,0.271
	l-2.131,1.848l-0.752,0.653l0.966,0.25l14.694,3.803l1.289-1.971c0.05-0.077,0.146-0.11,0.233-0.083l11.741,3.664
	c0.061,0.019,0.108,0.064,0.131,0.123l1.579,4.504c0.069-0.019,0.139-0.039,0.204-0.07l13.135-6.162
	c0.133-0.062,0.29-0.048,0.412,0.04l3.195,2.297c0.185,0.133,0.404,0.212,0.632,0.228l17.547,1.237
	c0.382,0.03,0.755-0.126,1.009-0.414l6.24-7.061c0.328-0.371,0.402-0.904,0.187-1.351l-2.165-4.493
	c-0.051-0.106-0.054-0.23-0.006-0.338c0.046-0.108,0.137-0.192,0.25-0.229l11.324-3.69c0.789-0.175,12.769-1.843,20.629-2.92
	c0.011-0.002,0.092-0.009,0.104-0.011l19.005,0.314c1.932,0.034,6.038,0.188,6.658,0.347c0.365,0.114,0.764,0.051,1.076-0.168
	l4.49-3.167c0.213-0.15,0.371-0.363,0.455-0.603c0.376-0.694,3.07-4.58,5.517-8.021c0.077-0.106,0.202-0.169,0.333-0.169h6.46
	c0.673,0,1.222-0.541,1.231-1.214l0.211-14.923c0-0.049,0.01-0.098,0.027-0.144l5.164-13.531c0.021-0.053,0.051-0.101,0.093-0.142
	l8.011-7.981c0.181-0.181,0.302-0.412,0.345-0.663l4.265-24.651c0.095-0.547-0.188-1.09-0.689-1.326l-2.351-1.105
	c-0.106-0.05-0.187-0.144-0.22-0.258c-0.032-0.113-0.016-0.234,0.048-0.333L339.122,175.066z"/>
<path fill="#179FAE" d="M304.659,32.673c-0.006-0.027-0.015-0.055-0.016-0.085l-0.331-11.433c-0.009-0.329-0.148-0.639-0.389-0.864
	c-0.239-0.224-0.547-0.336-0.887-0.332l-8.61,0.312c-0.119,0-0.233-0.062-0.307-0.163l-1.501-12.771
	c-0.033-0.283-0.163-0.545-0.368-0.743l-6.479-6.25C285.541,0.124,285.235,0,284.916,0h-2.309c-0.524,0-0.99,0.33-1.163,0.823
	l-2.394,6.806c-0.058,0.164-0.212,0.274-0.386,0.274h-5.324c-0.342,0-0.669,0.143-0.902,0.393l-4.693,5.05
	c-0.914-0.313-3.002-1.461-4.666-2.51c-0.197-0.124-0.424-0.19-0.657-0.19h-13.774c-0.083,0-0.166,0.009-0.246,0.025l-20.212,4.124
	c-0.092,0.018-0.18,0.048-0.265,0.085l-3.515,1.601c-0.433,0.197-0.714,0.626-0.722,1.102l-0.044,2.752
	c-0.003,0.175-0.117,0.329-0.284,0.383l-5.474,1.779c-0.147,0.046-0.31,0.009-0.418-0.1l-10.701-10.698
	c-0.258-0.257-0.619-0.385-0.981-0.355l-18.254,1.625c-0.077,0-0.15-0.022-0.216-0.063l-4.144-2.609
	c-0.354-0.222-0.797-0.25-1.176-0.074c-0.379,0.177-0.643,0.533-0.701,0.947l-1.659,11.892c-0.02,0.146-0.015,0.294,0.018,0.438
	l4.009,18.001c0.029,0.128-0.006,0.264-0.094,0.362l-5.597,6.294c-0.2,0.226-0.312,0.517-0.312,0.818v7.016
	c0,0.091,0.011,0.181,0.03,0.269l9.427,42.153c0.028,0.127-0.006,0.261-0.091,0.36l-3.539,4.049c-0.078,0.089-0.188,0.14-0.329,0.14
	c-0.001,0-0.002,0-0.003,0l-6.851-0.383c-0.474-0.023-0.921,0.221-1.148,0.637l-9.002,16.405c-0.021,0.04-0.041,0.08-0.059,0.122
	l-5.674,13.712c-0.062,0.149-0.093,0.309-0.093,0.471v0.254c0,0.075,0.017,0.146,0.031,0.218l1.201,0.506l3.736,1.573l6.405,3.155
	c0.091,0.045,0.205,0.016,0.262-0.071l1.301-1.969l21.095,3.46c0.062,0.01,0.123-0.008,0.17-0.049
	c0.046-0.041,0.071-0.102,0.068-0.164l-0.23-4.481l3.483,0.784l8.223,5.106c0.053,0.033,0.117,0.041,0.175,0.021l2.621-0.902
	l3.804-0.634l7.119,5.237c0.029,0.021,0.062,0.035,0.098,0.039l14.302,1.692c0.008,0.001,0.016,0.001,0.024,0.001
	c0.038,0,0.076-0.01,0.108-0.03l5.501-3.412l5.379-1.014c0.058-0.012,0.109-0.046,0.139-0.098l2.672-4.48l3.268,0.379l4.52,1.48
	c0.024,0.008,0.052,0.013,0.079,0.01l5.688-0.422l2.791,1.699l-0.097-0.539l0.936,0.57l-0.194-1.081l-1.093-6.074l-4.651-0.049
	c-0.075-0.001-0.145-0.042-0.18-0.11l-2.435-4.64c-0.043-0.081-0.026-0.18,0.038-0.243l8.821-8.556l-3.844-6.064
	c-0.032-0.049-0.041-0.111-0.023-0.169c0.018-0.057,0.058-0.104,0.112-0.128l14.591-6.529l-6.165-10.439
	c-0.019-0.031-0.028-0.067-0.028-0.104v-6.415c0-0.114,0.092-0.206,0.205-0.206h4.485l8.358-2.386l1.22-9.898l-3.187-2.215
	c-0.052-0.037-0.085-0.095-0.087-0.159l-0.201-4.351c-0.003-0.068,0.028-0.135,0.084-0.175l11.846-8.609l-0.733-23.149
	c-0.003-0.089,0.052-0.17,0.136-0.2l3.029-1.085l0.167-2.613c0.005-0.079,0.056-0.149,0.131-0.178l8.812-3.209
	c0.138-0.025,0.189-0.076,0.208-0.128c0.002-0.003,0.007-0.007,0.008-0.012c0.01,0.02,0.014,0.033,0.029,0.057
	C304.659,32.71,304.664,32.692,304.659,32.673z"/>
<path fill="#179FAE" d="M418.471,70.976l-25.429-16.341c-0.187-0.12-0.399-0.187-0.62-0.194l-1.398-0.053
	c-0.488-0.014-0.901,0.229-1.125,0.636c-0.59,1.066-1.341,2.307-1.827,2.995c-10.862-5.994-27.407-15.238-29.985-16.97
	l-2.876-21.017c-0.051-0.375-0.272-0.706-0.601-0.897l-9.846-5.734c-0.387-0.226-0.865-0.223-1.25,0.006l-23.277,13.856
	c-0.296,0.176-0.505,0.468-0.576,0.805l-0.838,3.987c-0.022,0.109-0.091,0.207-0.185,0.265c-0.093,0.059-0.21,0.077-0.318,0.049
	l-6.859-1.741c-0.258-0.066-0.53-0.045-0.776,0.056l-5.478,2.273c-0.119,0.05-0.263,0.037-0.375-0.037
	c-0.056-0.035-0.101-0.085-0.135-0.15c-0.009-0.015-0.024-0.024-0.032-0.04c-0.016-0.024-0.02-0.037-0.029-0.057
	c-0.001,0.005-0.006,0.008-0.008,0.012c-0.02,0.052-0.07,0.104-0.208,0.128l-8.812,3.209c-0.075,0.028-0.125,0.099-0.131,0.178
	l-0.167,2.613l-3.029,1.085c-0.083,0.03-0.139,0.111-0.136,0.2l0.733,23.149l-11.846,8.609c-0.056,0.04-0.087,0.106-0.084,0.175
	l0.201,4.351c0.002,0.063,0.035,0.122,0.087,0.159l3.187,2.215l-1.22,9.898l-8.358,2.386h-4.485c-0.113,0-0.205,0.091-0.205,0.206
	v6.415c0,0.038,0.01,0.073,0.028,0.104l6.165,10.439l-14.591,6.529c-0.055,0.025-0.095,0.072-0.112,0.128
	c-0.018,0.058-0.009,0.12,0.023,0.169l3.844,6.064l-8.821,8.556c-0.064,0.063-0.081,0.162-0.038,0.243l2.435,4.64
	c0.035,0.067,0.104,0.109,0.18,0.11l4.651,0.049l1.093,6.074l0,0l0.414,2.292c-0.001,0-0.001,0-0.001,0l1.32,7.336
	c0.017,0.092,0.093,0.161,0.186,0.168l13.222,1.059l8.578-0.346l-3.984,3.256c-0.068,0.056-0.094,0.151-0.061,0.234l3.121,7.946
	c0.026,0.064,0.082,0.112,0.149,0.126l8.515,1.76c0.08,0.018,0.16-0.015,0.208-0.081l2.681-3.699l11.215,1.978l6.699,6.884
	c0.035,0.036,0.083,0.058,0.132,0.062l7.952,0.559l3.638,3.563c0.039,0.037,0.09,0.058,0.144,0.058c0.002,0,0.003,0,0.005,0
	c0.056-0.001,0.108-0.026,0.146-0.066l4.782-5.22l5.164,0.432c0.004-0.018,0.018-0.031,0.022-0.049
	c0.026-0.102,0.086-0.188,0.168-0.242c0.117-0.077,0.267-0.091,0.395-0.034l15.132,6.708c0.158,0.071,0.328,0.106,0.499,0.106
	c0.128,0,0.258-0.021,0.382-0.061l2.297-0.747c0.267-0.086,0.497-0.263,0.649-0.498l4.833-7.399h1.291
	c0.198,0,0.393-0.047,0.568-0.139l18.098-9.387c0.163-0.084,0.304-0.203,0.414-0.347l20.844-27.371
	c0.192-0.253,0.28-0.572,0.244-0.889l-1.136-9.766c-0.015-0.116,0.022-0.233,0.102-0.32c0.077-0.087,0.189-0.137,0.306-0.137h4.372
	c0.601,0,1.113-0.433,1.215-1.025l3.657-21.407c0.111-0.646-0.306-1.267-0.946-1.41c-1.366-0.305-2.982-0.73-3.776-1.007
	l-0.169-6.12c-0.006-0.219,0.162-0.404,0.381-0.42l2.226-0.164c0.388-0.029,0.74-0.24,0.949-0.568l6.596-10.387
	c0.125-0.198,0.193-0.427,0.193-0.661v-3.314C419.037,71.592,418.824,71.202,418.471,70.976z"/>
</svg>
