<?xml version="1.0" encoding="UTF-8" standalone="no"?>
<svg
   xmlns:dc="http://purl.org/dc/elements/1.1/"
   xmlns:cc="http://creativecommons.org/ns#"
   xmlns:rdf="http://www.w3.org/1999/02/22-rdf-syntax-ns#"
   xmlns:svg="http://www.w3.org/2000/svg"
   xmlns="http://www.w3.org/2000/svg"
   xmlns:sodipodi="http://sodipodi.sourceforge.net/DTD/sodipodi-0.dtd"
   xmlns:inkscape="http://www.inkscape.org/namespaces/inkscape"
   width="296.926mm"
   height="209.973mm"
   viewBox="0 0 3507 2480"
   version="1.2"
   id="svg2"
   inkscape:version="0.91 r13725"
   sodipodi:docname="EPCI.svg">
  <metadata
     id="metadata110">
    <rdf:RDF>
      <cc:Work
         rdf:about="">
        <dc:format>image/svg+xml</dc:format>
        <dc:type
           rdf:resource="http://purl.org/dc/dcmitype/StillImage" />
      </cc:Work>
    </rdf:RDF>
  </metadata>
  <sodipodi:namedview
     pagecolor="#ffffff"
     bordercolor="#666666"
     borderopacity="1"
     objecttolerance="10"
     gridtolerance="10"
     guidetolerance="10"
     inkscape:pageopacity="0"
     inkscape:pageshadow="2"
     inkscape:window-width="1366"
     inkscape:window-height="705"
     id="namedview108"
     showgrid="false"
     inkscape:zoom="0.97794626"
     inkscape:cx="340.71711"
     inkscape:cy="386.03591"
     inkscape:window-x="-8"
     inkscape:window-y="-8"
     inkscape:window-maximized="1"
     inkscape:current-layer="g36" />
  <desc
     id="desc4">Generated with Qt</desc>
  <defs
     id="defs6" />
  <g
     fill="none"
     stroke="black"
     stroke-width="1"
     fill-rule="evenodd"
     stroke-linecap="square"
     stroke-linejoin="bevel"
     id="g8">
    <g
       fill="none"
       stroke="#000000"
       stroke-opacity="1"
       stroke-width="1"
       stroke-linecap="square"
       stroke-linejoin="bevel"
       transform="matrix(1,0,0,1,0,0)"
       font-family="MS Shell Dlg 2"
       font-size="34.375"
       font-weight="400"
       font-style="normal"
       id="g10" />
    <g
       fill="none"
       stroke="#000000"
       stroke-opacity="1"
       stroke-width="1"
       stroke-linecap="square"
       stroke-linejoin="bevel"
       transform="matrix(11.8081,0,0,11.8081,0,0)"
       font-family="MS Shell Dlg 2"
       font-size="34.375"
       font-weight="400"
       font-style="normal"
       id="g12" />
    <g
       fill="#ffffff"
       fill-opacity="1"
       stroke="none"
       transform="matrix(0.999751,0,0,0.999751,0,0)"
       font-family="MS Shell Dlg 2"
       font-size="34.375"
       font-weight="400"
       font-style="normal"
       id="g14">
      <path
         vector-effect="none"
         fill-rule="evenodd"
         d="M-1,-1 L3508.87,-1 L3508.87,2481.31 L-1,2481.31 L-1,-1"
         id="path16" />
    </g>
    <g
       fill="none"
       stroke="#000000"
       stroke-opacity="1"
       stroke-width="1"
       stroke-linecap="square"
       stroke-linejoin="bevel"
       transform="matrix(11.8081,0,0,11.8081,0,0)"
       font-family="MS Shell Dlg 2"
       font-size="34.375"
       font-weight="400"
       font-style="normal"
       id="g18" />
    <g
       fill="none"
       stroke="#000000"
       stroke-opacity="1"
       stroke-width="1"
       stroke-linecap="square"
       stroke-linejoin="bevel"
       transform="matrix(11.8081,0,0,11.8081,0,0)"
       font-family="MS Shell Dlg 2"
       font-size="34.375"
       font-weight="400"
       font-style="normal"
       id="g20" />
    <g
       fill="none"
       stroke="#000000"
       stroke-opacity="1"
       stroke-width="1"
       stroke-linecap="square"
       stroke-linejoin="bevel"
       transform="matrix(11.8081,0,0,11.8081,47.2323,53.1364)"
       font-family="MS Shell Dlg 2"
       font-size="34.375"
       font-weight="400"
       font-style="normal"
       id="g22" />
    <g
       fill="none"
       stroke="#000000"
       stroke-opacity="1"
       stroke-width="1"
       stroke-linecap="square"
       stroke-linejoin="bevel"
       transform="matrix(11.8081,0,0,11.8081,47.2323,53.1364)"
       font-family="MS Shell Dlg 2"
       font-size="34.375"
       font-weight="400"
       font-style="normal"
       id="g24" />
    <g
       fill="#ffffff"
       fill-opacity="1"
       stroke="none"
       transform="matrix(11.8081,0,0,11.8081,47.2323,53.1364)"
       font-family="MS Shell Dlg 2"
       font-size="34.375"
       font-weight="400"
       font-style="normal"
       id="g26">
      <path
         vector-effect="non-scaling-stroke"
         d="M0,0 L289,0 L289,201 L0,201 L0,0"
         id="path28"
         fill-rule="evenodd" />
    </g>
    <g
       fill="none"
       stroke="#000000"
       stroke-opacity="1"
       stroke-width="1"
       stroke-linecap="square"
       stroke-linejoin="bevel"
       transform="matrix(11.8081,0,0,11.8081,47.2323,53.1364)"
       font-family="MS Shell Dlg 2"
       font-size="34.375"
       font-weight="400"
       font-style="normal"
       id="g30" />
    <g
       fill="#000000"
       fill-opacity="0"
       stroke="none"
       transform="matrix(0.999751,0,0,0.999751,47.2323,53.1364)"
       font-family="MS Shell Dlg 2"
       font-size="34.375"
       font-weight="400"
       font-style="normal"
       id="g32">
      <path
         vector-effect="non-scaling-stroke"
         fill-rule="evenodd"
         d="M0,0 L3413,0 L3413,2374 L0,2374 L0,0"
         id="path34" />
    </g>
    <g
       fill="#3cb346"
       fill-opacity="1"
       stroke="#000000"
       stroke-opacity="1"
       stroke-width="3.07087"
       stroke-linecap="square"
       stroke-linejoin="bevel"
       transform="matrix(0.999751,0,0,0.999751,47.2323,53.1364)"
       font-family="MS Shell Dlg 2"
       font-size="34.375"
       font-weight="400"
       font-style="normal"
       id="g36">
      <path
         vector-effect="none"
         fill-rule="evenodd"
         d="M574.128,1044.44 L545.02,1031.34 L537.117,1021.08 L541.195,1011.03 L569.796,1005.24 L610.294,972.936 L616.539,970.617 L653.246,948.549 L662.249,956.994 L699.498,959.109 L701.139,952.864 L674.739,934.435 L685.942,912.417 L672.911,891.178 L685.976,863.001 L698.144,859.345 L721.769,839.9 L724.189,859.328 L735.46,875.304 L754.347,880.855 L777.718,870.802 L790.952,870.887 L804.406,885.39 L855.854,876.556 L861.895,838.242 L880.257,811.079 L885.47,778.756 L886.841,778.146 L908.706,788.842 L934.091,788.842 L938.356,793.598 L930.114,809.878 L951.133,824.347 L927.305,845.603 L930.96,870.041 L923.514,893.378 L924.022,899.505 L911.752,899.945 L897.841,911.503 L902.275,935.399 L904.61,967.977 L888.059,988.895 L881.391,988.844 L875.163,990.841 L879.547,1002.47 L865.466,1038.73 L842.484,1049.95 L846.664,1067.72 L843.178,1080.18 L843.178,1080.52 L786.061,1125.2 L773.961,1148.87 L836.612,1177.44 L860.152,1176.81 L840.064,1214.43 L833.515,1225.91 L810.363,1238.87 L778.97,1228.73 L737.779,1209.49 L711.852,1211.62 L694.658,1220.53 L692.593,1226.58 L700.192,1244.15 L695.927,1248.94 L660.1,1238.01 L650.961,1228.67 L608.077,1212.3 L593.354,1200.68 L540.298,1176.25 L545.714,1164.98 L558.491,1161.85 L571.539,1160.67 L582.895,1167.1 L586.567,1162.83 L587.041,1161.21 L583.961,1156.91 L601.274,1132.39 L602.357,1119.17 L596.823,1085.88 L580.119,1052.24 L574.128,1044.44"
         id="guerande_atlantique"
         inkscape:label="guerande_atlantique"
         onmouseover="">
        <desc
           id="desc4947">CA de la Presqu'île de Guérande - Atlantique (hors dépt 56)</desc>
      </path>
      <path
         vector-effect="none"
         fill-rule="evenodd"
         d="M1114.44,1037.67 L1113.63,1034.11 L1120.08,1008.85 L1132.11,993.515 L1138.7,994.039 L1168.41,1027.28 L1176.27,1051.02 L1195.24,1052.53 L1204.95,1060.19 L1193.34,1082.04 L1171.41,1093.53 L1172.29,1099.69 L1229.54,1123.67 L1230.47,1129.85 L1237.19,1153.86 L1233.69,1179.13 L1227.36,1179.28 L1216.31,1175.66 L1209.03,1191.72 L1194.19,1203.54 L1195.64,1176.63 L1185.44,1177.85 L1148.8,1191.45 L1109.67,1187.07 L1058.26,1195.7 L1016.1,1216.52 L1006.78,1195.5 L1004.32,1201.61 L1004.81,1223.49 L990.379,1226.13 L982.204,1242.98 L951.438,1253.41 L941.47,1269.49 L915.458,1273.07 L886.434,1298.68 L854.568,1305.74 L844.177,1300.22 L802.816,1267.05 L792.441,1243.36 L778.97,1228.73 L810.363,1238.87 L833.515,1225.91 L840.064,1214.43 L860.152,1176.81 L836.612,1177.44 L773.961,1148.87 L786.061,1125.2 L843.178,1080.52 L843.178,1080.18 L846.664,1067.72 L842.484,1049.95 L865.466,1038.73 L879.547,1002.47 L875.163,990.841 L881.391,988.844 L888.059,988.895 L904.61,967.977 L902.275,935.399 L897.841,911.503 L911.752,899.945 L924.022,899.505 L923.514,893.378 L929.251,896.306 L960.17,889.063 L978.938,893.158 L972.44,917.884 L961.93,924.298 L963.961,930.373 L980.698,939.529 L980.901,958.449 L997.689,972.8 L1015.83,999.218 L1011.97,1011.49 L1015.24,1017.04 L1027.86,1014.57 L1040.18,1029.38 L1062.07,1057.81 L1071.95,1063.44 L1081.82,1041.65 L1100.13,1057.86 L1114.44,1037.67"
         id="carene"
         inkscape:label="carene">
        <desc
           id="desc4949">Communauté d'agglomération de la région nazairienne et de l'estuaire</desc>
      </path>
      <path
         vector-effect="none"
         fill-rule="evenodd"
         d="M1594.28,1278.84 L1564.74,1337.89 L1533.84,1348.3 L1519.24,1361.84 L1512.64,1362.9 L1480.58,1354.34 L1450.71,1327.89 L1431.73,1324.45 L1429.7,1313.45 L1423.04,1313.42 L1408.07,1300.2 L1368.7,1255.52 L1390.86,1226.43 L1399.23,1203.52 L1405.68,1205.28 L1436.52,1193.35 L1477.98,1160.45 L1496.36,1165.59 L1501.86,1165.44 L1497.03,1155.95 L1508.74,1159.26 L1515.18,1148.75 L1513.72,1165.76 L1520.96,1175.15 L1520.63,1186.93 L1532.52,1202.05 L1580.65,1261.04 L1596.19,1272.18 L1594.28,1278.84"
         id="coeur_estuaire"
         inkscape:label="coeur_estuaire">
        <desc
           id="desc4965">CC Coeur d'Estuaire</desc>
      </path>
      <path
         vector-effect="none"
         fill-rule="evenodd"
         d="M1523.64,1593.99 L1517.9,1605.35 L1487.25,1614.3 L1483.61,1619.58 L1478.18,1643.82 L1481.36,1655.92 L1475.1,1667 L1473.29,1673.25 L1445.43,1689.83 L1439.56,1701.46 L1404.94,1688.07 L1373.75,1695.01 L1369.21,1690.49 L1366.6,1685.13 L1378.86,1658.1 L1334.33,1647.74 L1314.01,1631.65 L1294.46,1629.84 L1297.52,1577.48 L1303.34,1577.58 L1299.01,1565.43 L1315.14,1530.31 L1330.2,1518.08 L1309.3,1493.69 L1307.19,1487.55 L1306.73,1481.05 L1319.29,1466.26 L1302.6,1440.51 L1309.88,1408.5 L1328.44,1391.08 L1334.96,1390.86 L1341.46,1379.59 L1347.84,1378.3 L1378.45,1388.02 L1388.08,1372.04 L1388.1,1353.09 L1404.07,1342.39 L1402.75,1351.51 L1438.51,1377.88 L1459.33,1400.3 L1449.46,1423.51 L1460.01,1430.43 L1476.2,1425.55 L1485.34,1434.41 L1527.46,1445.22 L1513.48,1469.62 L1537.02,1480.05 L1555.13,1498.55 L1587.54,1503.03 L1551.95,1537.32 L1569.09,1555.39 L1540.87,1587.48 L1523.64,1593.99"
         id="pays_retz"
         inkscape:label="pays_retz">
        <desc
           id="desc4951">CC Coeur Pays de Retz</desc>
      </path>
      <path
         vector-effect="none"
         fill-rule="evenodd"
         d="M1652.14,478.99 L1653.85,466.043 L1659.72,463.15 L1685.12,457.92 L1716.87,464.52 L1739.28,443.349 L1747.21,443.586 L1751.06,406.997 L1765.29,373.794 L1775.19,367.329 L1792.55,369.512 L1802.76,363.369 L1814.03,378.583 L1851.29,380.512 L1872.11,395.083 L1891.08,395.591 L1894.87,400.736 L1896.28,433.178 L1904.57,443.163 L1906.35,455.652 L1882.26,477.061 L1876.58,514.851 L1901.81,541.59 L1940.7,544.839 L1958.99,538.171 L1973.28,587.689 L1987.26,601.042 L1955.51,618.033 L1930.75,622.163 L1905.69,619.15 L1881.91,609.978 L1850.13,609.301 L1845.69,619.539 L1848.92,631.521 L1834.32,670.648 L1788.37,668.33 L1777.91,660.19 L1753.85,670.056 L1715.28,667.738 L1711.93,699.486 L1687.9,717.645 L1639.92,729.187 L1600.37,709.572 L1599.74,709.488 L1604.45,673.305 L1615.28,658.43 L1615.01,646.194 L1636.84,644.349 L1638.12,631.454 L1629.68,621.756 L1622.69,576.977 L1632.02,540.05 L1638.36,540.473 L1656.52,507.608 L1624.72,490.684 L1620.59,485.861 L1625.28,474.708 L1628.65,479.616 L1652.14,478.99"
         id="secteur_derval"
         inkscape:label="secteur_derval">
        <desc
           id="desc4979">CC du secteur de Derval</desc>
      </path>
      <path
         vector-effect="none"
         fill-rule="evenodd"
         d="M1849.38,1732.88 L1821.93,1759.59 L1803.3,1762.72 L1776.54,1777.11 L1789.2,1798.94 L1778.57,1821.58 L1759.64,1820.63 L1750.65,1850.55 L1744.9,1853.3 L1739.12,1850.57 L1736.08,1838.23 L1726.06,1846.36 L1703.16,1837.13 L1679.76,1847.95 L1679.91,1860.74 L1674.27,1864.02 L1610.24,1860.96 L1596.27,1853.33 L1600.33,1816.27 L1616.23,1789.73 L1597.25,1783.99 L1573.6,1748.42 L1571.87,1742.48 L1580.08,1733.93 L1550.6,1725.37 L1535.7,1736.22 L1530.1,1733.56 L1518.73,1710.63 L1573.48,1630.6 L1563.19,1615.98 L1572.55,1607.63 L1605.7,1546.13 L1635.25,1545.2 L1641.59,1562.08 L1646.54,1565.66 L1651.33,1561.89 L1659.5,1570.81 L1683.89,1575.7 L1669.79,1595.84 L1673.7,1606.8 L1705.16,1585.85 L1717.51,1584.16 L1719.76,1571.27 L1745.13,1533.2 L1761.94,1525.23 L1763.19,1518.8 L1787.27,1512.69 L1799.49,1526.5 L1796.75,1532.07 L1807.29,1554.39 L1806.4,1566.71 L1819.8,1586.95 L1848.55,1563.31 L1867.1,1561.89 L1887.17,1589.02 L1884.28,1594.89 L1915.18,1628.23 L1930.14,1638.84 L1944.24,1681.69 L1925.11,1715.57 L1914.23,1721.83 L1909.7,1733.63 L1873.48,1744.16 L1866.32,1734.61 L1854.64,1731.65 L1849.38,1732.88"
         id="grandlieu"
         inkscape:label="grandlieu">
        <desc
           id="desc4969">CC de Grandlieu</desc>
      </path>
      <path
         vector-effect="none"
         fill-rule="evenodd"
         d="M1463.29,980.822 L1459.24,999.624 L1484.26,1004.73 L1479.26,1029.21 L1404.9,1070.06 L1398.39,1069.25 L1366.33,1069.48 L1354.79,1063.05 L1363.27,1032.68 L1356.08,1001.65 L1363.27,977.403 L1352.39,954.286 L1369.7,946.484 L1376.18,909.083 L1388.45,913.568 L1400.86,910.302 L1418.97,903.092 L1451.32,871.141 L1425.16,834.485 L1433.33,824.331 L1478.03,798.844 L1494.11,763.863 L1535.97,748.124 L1536.47,722.214 L1542.1,710.537 L1564.17,700.704 L1599.74,709.488 L1600.37,709.572 L1594.43,728.814 L1582.09,739.933 L1591.18,756.806 L1592.45,816.123 L1580.21,831.523 L1578.06,851.374 L1603.09,852.339 L1626.33,859.362 L1655.08,848.887 L1670.18,859.311 L1679.69,854.116 L1700.57,863.864 L1706.82,886.829 L1706.31,930.204 L1690.33,948.261 L1668.84,933.758 L1664.98,914.973 L1659.6,911.317 L1653.09,911.842 L1650.8,917.985 L1644.37,994.953 L1641.12,1000.62 L1611.08,1012.05 L1591.69,1027.11 L1567.89,1004.36 L1566.84,985.205 L1555.81,978.334 L1523.03,976.913 L1490.13,955.809 L1483.58,956.841 L1469.67,979.045 L1463.29,980.822"
         id="blain"
         inkscape:label="blain">
        <desc
           id="desc4973">CC de la Région de Blain</desc>
      </path>
      <path
         vector-effect="none"
         fill-rule="evenodd"
         d="M1421.1,1882.51 L1414.35,1871.76 L1362.17,1868.73 L1333.21,1853.13 L1311.21,1829.7 L1305.78,1804.34 L1309,1792.02 L1286.03,1784.67 L1280.65,1787.68 L1267.52,1772.99 L1250.73,1729.01 L1242.06,1719.21 L1242.28,1706.53 L1228.76,1693.33 L1231.13,1667.81 L1234.01,1662.06 L1246.74,1663.04 L1267.59,1648.64 L1294.07,1635.91 L1294.46,1629.84 L1314.01,1631.65 L1334.33,1647.74 L1378.86,1658.1 L1366.6,1685.13 L1369.21,1690.49 L1373.75,1695.01 L1404.94,1688.07 L1439.56,1701.46 L1445.43,1689.83 L1473.29,1673.25 L1475.1,1667 L1481.36,1655.92 L1478.18,1643.82 L1483.61,1619.58 L1487.25,1614.3 L1517.9,1605.35 L1523.64,1593.99 L1540.87,1587.48 L1569.09,1555.39 L1598.29,1543.8 L1605.7,1546.13 L1572.55,1607.63 L1563.19,1615.98 L1573.48,1630.6 L1518.73,1710.63 L1530.1,1733.56 L1535.7,1736.22 L1550.6,1725.37 L1580.08,1733.93 L1571.87,1742.48 L1573.6,1748.42 L1597.25,1783.99 L1616.23,1789.73 L1600.33,1816.27 L1596.27,1853.33 L1610.24,1860.96 L1599.89,1883.47 L1599.29,1896.33 L1607.43,1905.93 L1607.15,1912.39 L1594.99,1916.74 L1586.51,1926.51 L1582.65,1937.57 L1564.58,1943.57 L1556.84,1953.33 L1531.57,1957.48 L1520.63,1942.92 L1523.91,1937.59 L1515.48,1921.02 L1477.05,1928.4 L1467.3,1919.89 L1454.54,1921.5 L1410.71,1911.43 L1418.1,1901.24 L1421.1,1882.51"
         id="region_machecoul"
         inkscape:label="region_machecoul">
        <desc
           id="desc4961">CC de la Région de Machecoul</desc>
      </path>
      <path
         vector-effect="none"
         fill-rule="evenodd"
         d="M1986.55,792.481 L1980.25,803.938 L1923.57,822.232 L1902.59,838.411 L1896.46,835.788 L1888.96,865.235 L1815.89,932.522 L1792.94,944.724 L1787.09,956.571 L1754,938.463 L1741.21,937.075 L1709.02,952.34 L1690.33,948.261 L1706.31,930.204 L1706.82,886.829 L1700.57,863.864 L1679.69,854.116 L1670.18,859.311 L1655.08,848.887 L1626.33,859.362 L1603.09,852.339 L1578.06,851.374 L1580.21,831.523 L1592.45,816.123 L1591.18,756.806 L1582.09,739.933 L1594.43,728.814 L1600.37,709.572 L1639.92,729.187 L1687.9,717.645 L1711.93,699.486 L1715.28,667.738 L1753.85,670.056 L1777.91,660.19 L1788.37,668.33 L1834.32,670.648 L1848.92,631.521 L1845.69,619.539 L1850.13,609.301 L1881.91,609.978 L1905.69,619.15 L1902.08,637.715 L1912.34,668.804 L1902.15,700.044 L1914.94,699.029 L1942.54,713.008 L1987.27,713.837 L2009.73,758.972 L2004.1,762.001 L2001.64,781.006 L1986.55,792.481"
         id="region_nozay"
         inkscape:label="region_nozay">
        <desc
           id="desc4977">CC de la Région de Nozay</desc>
      </path>
      <path
         vector-effect="none"
         fill-rule="evenodd"
         d="M1925.11,1715.57 L1944.24,1681.69 L1930.14,1638.84 L1945.88,1648.2 L1964.83,1625.34 L1961.99,1619.53 L1968.13,1608.21 L1963.11,1589.7 L1970.77,1572.7 L1988.58,1569.34 L1999.02,1553.87 L1996.84,1547.89 L2002.15,1550.75 L2013.25,1546.17 L2024.86,1554.63 L2029.26,1559.37 L2054.85,1561.31 L2065,1576.88 L2077.39,1580.59 L2084.43,1590.64 L2102.03,1588.83 L2109.29,1598.6 L2138.79,1595.21 L2150.75,1607.84 L2198.28,1616.08 L2199.58,1622.02 L2176.16,1643.82 L2187.77,1649.72 L2205.67,1641.48 L2269.81,1656.1 L2277.09,1658 L2286.85,1683.71 L2303.01,1703.29 L2344.65,1718.5 L2337.01,1735.25 L2339.43,1760.42 L2299,1778.49 L2238.16,1756.05 L2223,1736.69 L2213.76,1728.92 L2198.02,1708.75 L2174.67,1698.45 L2151.43,1667.63 L2145.17,1669.35 L2138.18,1679.25 L2126.44,1681.08 L2121.22,1692.07 L2123.91,1715 L2107.19,1739.08 L2105.06,1744.71 L2110.44,1747.34 L2106.82,1758.49 L2082.1,1757.91 L2059.37,1738.28 L2047.66,1734.51 L2044.76,1746.14 L2025.28,1744.38 L2007.21,1762.53 L2017.52,1786.24 L2018.41,1805.54 L2019.75,1811.93 L2003.6,1839.08 L2023.85,1854.8 L2021.12,1873.55 L2011.98,1882.2 L2012.18,1900.17 L2002.44,1908.31 L1996.92,1904.83 L1980.06,1914.69 L1947.55,1919.8 L1890.56,1951.45 L1874.02,1936.68 L1893.47,1894.4 L1879.67,1872.59 L1874.58,1846.8 L1879.01,1834.68 L1891.6,1830.65 L1892.15,1818.45 L1884.89,1808.08 L1879.27,1770.51 L1882.65,1752.79 L1873.48,1744.16 L1909.7,1733.63 L1914.23,1721.83 L1925.11,1715.57"
         id="vallee_clisson"
         inkscape:label="vallee_clisson">
        <desc
           id="desc4981">CC de la  Vallee de Clisson</desc>
      </path>
      <path
         vector-effect="none"
         fill-rule="evenodd"
         d="M1242.06,1719.21 L1231.59,1717.94 L1205.65,1657.29 L1185.56,1640.11 L1169.33,1628.84 L1149.02,1601.07 L1145.47,1589.39 L1077.64,1559 L1084.85,1547.47 L1071.87,1555.88 L1014.43,1545.54 L990.548,1527.08 L945.057,1518.94 L909.501,1502.39 L906.997,1496.75 L927.355,1479.81 L931.976,1467.42 L968.276,1456.74 L993.594,1462.55 L1002.56,1453.19 L1009.81,1442.82 L1020.91,1393.4 L1024.16,1387.85 L1055.65,1394.18 L1072.91,1401.35 L1123.18,1398.31 L1128.3,1401.96 L1161.54,1410.02 L1161.58,1403.86 L1178.67,1412.44 L1223.01,1411.8 L1229.86,1400.85 L1230.12,1400.59 L1235.57,1386.09 L1254.45,1386.05 L1272.14,1393.89 L1296.8,1386.51 L1328.44,1391.08 L1309.88,1408.5 L1302.6,1440.51 L1319.29,1466.26 L1306.73,1481.05 L1307.19,1487.55 L1309.3,1493.69 L1330.2,1518.08 L1315.14,1530.31 L1299.01,1565.43 L1303.34,1577.58 L1297.52,1577.48 L1294.46,1629.84 L1294.07,1635.91 L1267.59,1648.64 L1246.74,1663.04 L1234.01,1662.06 L1231.13,1667.81 L1228.76,1693.33 L1242.28,1706.53 L1242.06,1719.21"
         id="pornic"
         inkscape:label="pornic">
        <desc
           id="desc4959">CC de Pornic</desc>
      </path>
      <path
         vector-effect="none"
         d="M1790.39,1141.61 L1756.12,1176.09 L1777.08,1229.6 L1767.56,1246.17 L1766.84,1290.91 L1754.76,1288.86 L1729.34,1243.27 L1697.44,1220.07 L1685.27,1224.22 L1679.55,1220.95 L1668.43,1237.69 L1657.27,1232.98 L1632.61,1254.32 L1613.99,1260.5 L1601.71,1256.71 L1595.82,1259.53 L1596.19,1272.18 L1580.65,1261.04 L1532.52,1202.05 L1520.63,1186.93 L1520.96,1175.15 L1513.72,1165.76 L1515.18,1148.75 L1508.74,1159.26 L1497.03,1155.95 L1453.57,1106.58 L1450.24,1068.54 L1399.98,1079.91 L1398.39,1069.25 L1404.9,1070.06 L1479.26,1029.21 L1484.26,1004.73 L1459.24,999.624 L1463.29,980.822 L1469.67,979.045 L1483.58,956.841 L1490.13,955.809 L1523.03,976.913 L1555.81,978.334 L1566.84,985.205 L1567.89,1004.36 L1591.69,1027.11 L1611.08,1012.05 L1641.12,1000.62 L1644.37,994.953 L1650.8,917.985 L1653.09,911.842 L1659.6,911.317 L1664.98,914.973 L1668.84,933.758 L1690.33,948.261 L1709.02,952.34 L1741.21,937.075 L1754,938.463 L1787.09,956.571 L1792.94,944.724 L1815.89,932.522 L1888.96,865.235 L1921.46,867.282 L1932.32,873.696 L1935.34,892.921 L1921.86,906.511 L1918.24,918.527 L1921.81,923.976 L1941.22,925.279 L1967.42,908.051 L2022.95,920.371 L2018.77,938.953 L2022.1,951.291 L2037.57,962.595 L2062.58,966.082 L2066.42,971.209 L2077.48,993.532 L2064.85,993.261 L2062.94,980.5 L2056.56,979.35 L2050.41,981.414 L2032.19,1007.87 L2013.61,1013.55 L1982.4,1008.48 L1980.01,1040.78 L1990,1048.79 L1992.66,1061.53 L1975.46,1102.96 L2026.42,1138.04 L2004.84,1170.5 L1967.25,1171.47 L1952.56,1182.09 L1941.61,1197.61 L1906.41,1206.78 L1851.17,1196.66 L1837.38,1224.98 L1824.74,1211.13 L1826.42,1198.98 L1819.83,1181.06 L1790.39,1141.61"
         id="erdre_gesvres"
         fill-rule="evenodd"
         inkscape:label="erdre_gesvres">
        <desc
           id="desc4971">CC Erdre et Gesvres</desc>
      </path>
      <path
         vector-effect="none"
         fill-rule="evenodd"
         d="M2236.1,1439.01 L2275.38,1442.46 L2282.33,1459.67 L2279.07,1470.42 L2297.53,1484.24 L2286.06,1512.47 L2260.76,1534.25 L2232.85,1558.54 L2220.33,1558.29 L2194.57,1574.63 L2203.47,1581.89 L2201.61,1594.64 L2208.33,1605.74 L2199.58,1622.02 L2198.28,1616.08 L2150.75,1607.84 L2138.79,1595.21 L2109.29,1598.6 L2102.03,1588.83 L2084.43,1590.64 L2077.39,1580.59 L2065,1576.88 L2054.85,1561.31 L2029.26,1559.37 L2024.86,1554.63 L2013.25,1546.17 L2018.73,1517.55 L2027.48,1508.67 L2023.98,1496.55 L2024.45,1472.13 L2029.87,1469.22 L2033.07,1451.13 L2036.61,1451.92 L2060.47,1463.02 L2068.57,1472.8 L2088.22,1471.6 L2096.94,1461.52 L2122.56,1467.14 L2154.93,1460.64 L2164.95,1452.17 L2176.85,1429.04 L2207.45,1416.87 L2236.1,1439.01"
         id="vallet"
         inkscape:label="vallet">
        <desc
           id="desc4987">CC de Vallet</desc>
      </path>
      <path
         vector-effect="none"
         fill-rule="evenodd"
         d="M2266.78,1418.29 L2248.3,1421.29 L2231.99,1410.83 L2222.53,1401.96 L2214.01,1378.63 L2231.61,1371.65 L2249.05,1355.15 L2260.54,1357.39 L2278.27,1379.57 L2266.78,1418.29"
         id="path64" />
      <path
         vector-effect="none"
         fill-rule="evenodd"
         d="M2302.71,728.679 L2234.22,707.322 L2223.56,711.214 L2220.75,733.011 L2189.09,783.9 L2190.93,789.84 L2159.94,792.633 L2103.67,779.873 L2088.02,770.48 L2087.21,794.325 L2062.84,809.421 L2050.7,804.936 L2012.51,808.473 L1988.44,798.691 L1986.55,792.481 L2001.64,781.006 L2004.1,762.001 L2009.73,758.972 L1987.27,713.837 L1942.54,713.008 L1914.94,699.029 L1902.15,700.044 L1912.34,668.804 L1902.08,637.715 L1905.69,619.15 L1930.75,622.163 L1955.51,618.033 L1987.26,601.042 L1973.28,587.689 L1958.99,538.171 L1940.7,544.839 L1901.81,541.59 L1876.58,514.851 L1882.26,477.061 L1906.35,455.652 L1904.57,443.163 L1896.28,433.178 L1894.87,400.736 L1891.08,395.591 L1872.11,395.083 L1851.29,380.512 L1814.03,378.583 L1802.76,363.369 L1808.82,345.819 L1820.31,341.08 L1832.78,343.06 L1857.37,334.142 L1890.39,334.057 L1914.79,312.023 L1925.54,305.406 L1936.64,310.804 L1955.25,307.657 L1971.04,298.873 L1970.62,281.594 L1956.83,249.287 L1959.98,243.804 L1978.34,244.752 L1988.8,251.2 L2031.87,253.874 L2041.11,262.149 L2048.3,262.725 L2052.78,267.48 L2070.67,262.251 L2102.51,316.034 L2132.41,328.015 L2135.95,329.302 L2249.6,369.224 L2246.41,394.829 L2259.34,409.181 L2251.45,433.076 L2233.7,432.67 L2234.29,451.32 L2259.08,470.224 L2282.35,480.005 L2307.67,475.893 L2306.97,494.103 L2324.78,523.736 L2331.24,528.271 L2320.53,576.571 L2330.33,592.546 L2343.06,593.054 L2349.79,621.689 L2347.68,639.425 L2371.33,666.722 L2370.74,672.764 L2326.17,682.478 L2302.71,728.679"
         id="castelbriantais" />
      <path
         vector-effect="none"
         fill-rule="evenodd"
         d="M2287.19,1166.54 L2257.52,1174.14 L2228.82,1171.58 L2223.63,1175.17 L2192.2,1185.99 L2159.13,1185.55 L2127.48,1195.28 L2105.43,1219.68 L2086.51,1225.06 L2063.55,1248.86 L2056.59,1251.85 L2045.52,1236.99 L2025.88,1235.23 L2015.16,1228.33 L2008.02,1209.81 L2004.84,1170.5 L2026.42,1138.04 L1975.46,1102.96 L1992.66,1061.53 L1990,1048.79 L1980.01,1040.78 L1982.4,1008.48 L2013.61,1013.55 L2032.19,1007.87 L2050.41,981.414 L2056.56,979.35 L2062.94,980.5 L2064.85,993.261 L2077.48,993.532 L2066.42,971.209 L2062.58,966.082 L2037.57,962.595 L2022.1,951.291 L2018.77,938.953 L2022.95,920.371 L1967.42,908.051 L1941.22,925.279 L1921.81,923.976 L1918.24,918.527 L1921.86,906.511 L1935.34,892.921 L1932.32,873.696 L1921.46,867.282 L1888.96,865.235 L1896.46,835.788 L1902.59,838.411 L1923.57,822.232 L1980.25,803.938 L1986.55,792.481 L1988.44,798.691 L2012.51,808.473 L2050.7,804.936 L2062.84,809.421 L2087.21,794.325 L2088.02,770.48 L2103.67,779.873 L2159.94,792.633 L2190.93,789.84 L2189.09,783.9 L2220.75,733.011 L2223.56,711.214 L2234.22,707.322 L2302.71,728.679 L2326.17,682.478 L2370.74,672.764 L2388.83,673.17 L2415.03,672.087 L2449.18,700.992 L2511.83,717.543 L2531.43,733.536 L2532.46,739.798 L2516.18,758.955 L2499.41,767.84 L2488.51,772.257 L2486.92,783.579 L2469.98,778.925 L2445.38,773.34 L2413.78,775.168 L2321.68,756.992 L2312.34,803.176 L2342.31,814.82 L2343.16,821.25 L2323.26,837.192 L2324.78,850.088 L2339.16,877.453 L2356.07,887.066 L2399.26,896.458 L2437.07,893.903 L2442.19,897.592 L2478.44,891.889 L2501.7,903.228 L2518.86,923.418 L2577.63,922.724 L2584.89,942.981 L2573.49,955.724 L2572.35,967.148 L2588.6,995.867 L2592.95,1053.47 L2599.14,1061.56 L2622.41,1100.06 L2605.57,1119.95 L2592.83,1120.69 L2576.84,1132.74 L2563.48,1139.04 L2552.52,1148.79 L2534.43,1144.91 L2505.61,1156.39 L2480.66,1156.49 L2440.52,1144.66 L2422.02,1142.56 L2391.86,1148.82 L2378.92,1149.46 L2376.23,1146.28 L2337.2,1143.41 L2304.84,1147.89 L2287.19,1166.54"
         id="pays_ancenis"
         inkscape:label="pays_ancenis">
        <desc
           id="desc4991">CC du Pays d'Ancenis</desc>
      </path>
      <path
         vector-effect="none"
         fill-rule="evenodd"
         d="M1071.95,1063.44 L1062.07,1057.81 L1040.18,1029.38 L1027.86,1014.57 L1015.24,1017.04 L1011.97,1011.49 L1015.83,999.218 L997.689,972.8 L980.901,958.449 L980.698,939.529 L963.961,930.373 L961.93,924.298 L972.44,917.884 L978.938,893.158 L960.17,889.063 L929.251,896.306 L923.514,893.378 L930.96,870.041 L927.305,845.603 L951.133,824.347 L987.705,801.433 L1011.57,795.341 L1024.75,794.342 L1027.61,800.299 L1020.81,824.686 L1024.75,829.983 L1050.15,836.126 L1064.93,823.924 L1070.17,778.654 L1082.53,773.932 L1140.88,761.731 L1143.84,749.156 L1136.38,731.928 L1148.33,688.384 L1164.89,679.279 L1226.38,699.537 L1236.7,707.372 L1263.34,726.699 L1273.73,750.493 L1311.81,756.434 L1315.51,788.639 L1332.86,796.847 L1336.35,821.741 L1367.42,828.121 L1412.48,819.694 L1425.16,834.485 L1451.32,871.141 L1418.97,903.092 L1400.86,910.302 L1388.45,913.568 L1376.18,909.083 L1371.22,897.542 L1358.84,894.275 L1323.4,859.616 L1312.21,865.116 L1302.09,887.811 L1282.93,886.846 L1286.93,914.939 L1286.23,934.79 L1259.29,954.286 L1233.59,960.869 L1174.07,955.86 L1171.31,961.817 L1216.14,988.522 L1201.57,1016.78 L1210.13,1025.48 L1209.44,1031.83 L1195.24,1052.53 L1176.27,1051.02 L1168.41,1027.28 L1138.7,994.039 L1132.11,993.515 L1120.08,1008.85 L1113.63,1034.11 L1114.44,1037.67 L1100.13,1057.86 L1081.82,1041.65 L1071.95,1063.44"
         id="pays_pontchateau"
         inkscape:label="pays_pontchateau">
        <desc
           id="desc4953">CC du Pays de Pontchâteau St-Gildas-des-Bois</desc>
      </path>
      <path
         vector-effect="none"
         fill-rule="evenodd"
         d="M1625.28,474.708 L1620.59,485.861 L1624.72,490.684 L1656.52,507.608 L1638.36,540.473 L1632.02,540.05 L1622.69,576.977 L1629.68,621.756 L1638.12,631.454 L1636.84,644.349 L1615.01,646.194 L1615.28,658.43 L1604.45,673.305 L1599.74,709.488 L1564.17,700.704 L1542.1,710.537 L1536.47,722.214 L1535.97,748.124 L1494.11,763.863 L1478.03,798.844 L1433.33,824.331 L1425.16,834.485 L1412.48,819.694 L1367.42,828.121 L1336.35,821.741 L1332.86,796.847 L1315.51,788.639 L1311.81,756.434 L1273.73,750.493 L1263.34,726.699 L1236.7,707.372 L1226.38,699.537 L1164.89,679.279 L1148.33,688.384 L1138.34,678.501 L1144.35,676.402 L1143.72,645.382 L1165.05,631.775 L1166.94,625.717 L1169.26,599.671 L1155.06,578.178 L1176.25,545.516 L1214.5,546.075 L1221.89,521.383 L1227.6,518.151 L1237.77,513.565 L1266.74,519.217 L1319.3,470.359 L1319.73,470.613 L1324.08,482.612 L1322.16,508.064 L1325.63,513.429 L1338.22,514.817 L1366.71,487.181 L1431.61,473.879 L1434.47,475.724 L1454.89,464.605 L1460.97,454.366 L1472.83,453.774 L1492.58,457.396 L1504.78,452.809 L1514.91,460.949 L1557.04,474.285 L1575.47,477.67 L1603.47,464.148 L1625.28,474.708"
         id="pays_redon"
         inkscape:label="pays_redon">
        <desc
           id="desc4975">CC du Pays de Redon (communes du 44)</desc>
      </path>
      <path
         vector-effect="none"
         fill-rule="evenodd"
         d="M1071.43,1244.59 L1156.7,1236.47 L1176.42,1230.21 L1179.04,1223.96 L1183.66,1219.85 L1201.52,1224.44 L1223.48,1235.86 L1225.23,1211.49 L1234.72,1205.96 L1249.88,1212.12 L1283.78,1227.45 L1340.07,1241.85 L1336.75,1254.66 L1356.52,1272.35 L1401.38,1329.36 L1404.07,1342.39 L1388.1,1353.09 L1388.08,1372.04 L1378.45,1388.02 L1347.84,1378.3 L1341.46,1379.59 L1334.96,1390.86 L1328.44,1391.08 L1296.8,1386.51 L1272.14,1393.89 L1254.45,1386.05 L1235.57,1386.09 L1230.12,1400.59 L1229.86,1400.85 L1223.01,1411.8 L1178.67,1412.44 L1161.58,1403.86 L1161.54,1410.02 L1128.3,1401.96 L1123.18,1398.31 L1072.91,1401.35 L1055.65,1394.18 L1024.16,1387.85 L1023.95,1361.47 L999.28,1314.33 L1014.66,1304.48 L1016.86,1259.45 L1020.2,1253.75 L1045.67,1252.56 L1062.02,1246.08 L1071.43,1244.59"
         id="sud_estuaire"
         inkscape:label="sud_estuaire">
        <desc
           id="desc4957">CC Sud Estuaire</desc>
      </path>
      <path
         vector-effect="none"
         fill-rule="evenodd"
         d="M1785.55,1878.04 L1783.65,1884.25 L1795.82,1906.69 L1810.73,1918.3 L1812.12,1931.01 L1802.62,1947.56 L1777.81,1945.7 L1796.66,1979.31 L1828.94,2009.57 L1831.32,2028 L1796.56,2044.12 L1784.01,2040.54 L1771.65,2044.19 L1767.42,2068.22 L1730.09,2056.63 L1701.44,2040.13 L1690.01,2042.74 L1651.07,2026.78 L1631.52,2025.63 L1620.17,2032.09 L1587.54,2001.17 L1549.02,2009.04 L1537.55,2002.68 L1530.15,1986.52 L1531.57,1957.48 L1556.84,1953.33 L1564.58,1943.57 L1582.65,1937.57 L1586.51,1926.51 L1594.99,1916.74 L1607.15,1912.39 L1607.43,1905.93 L1599.29,1896.33 L1599.89,1883.47 L1610.24,1860.96 L1674.27,1864.02 L1679.91,1860.74 L1679.76,1847.95 L1703.16,1837.13 L1726.06,1846.36 L1736.08,1838.23 L1739.12,1850.57 L1744.9,1853.3 L1750.65,1850.55 L1759.64,1820.63 L1778.57,1821.58 L1772.85,1845.29 L1785.55,1878.04"
         id="loire-atlantique_meridionale"
         inkscape:label="loire-atlantique_meridionale">
        <desc
           id="desc4967">CC Loire-Atlantique Méridionale</desc>
      </path>
      <path
         vector-effect="none"
         d="M2275.38,1442.46 L2236.1,1439.01 L2207.45,1416.87 L2176.85,1429.04 L2164.95,1452.17 L2154.93,1460.64 L2122.56,1467.14 L2096.94,1461.52 L2088.22,1471.6 L2068.57,1472.8 L2060.47,1463.02 L2036.61,1451.92 L2033.07,1451.13 L1998.92,1418.29 L1944.42,1402.12 L1932.58,1373.26 L1920.59,1358.52 L1943.85,1337.43 L1975.6,1316.89 L1999.71,1287.61 L2008.14,1281.91 L2056.59,1251.85 L2063.55,1248.86 L2082.23,1255.88 L2115.01,1253.93 L2138.96,1252.22 L2139.14,1258.28 L2156.85,1275.16 L2160.84,1284.5 L2159.37,1319.16 L2185.94,1357.34 L2214.01,1378.63 L2222.53,1401.96 L2231.99,1410.83 L2248.3,1421.29 L2266.78,1418.29 L2284.11,1429.75 L2275.38,1442.46"
         id="loire_divatte"
         fill-rule="evenodd"
         inkscape:label="loire_divatte">
        <desc
           id="desc4989">CC Loire Divatte</desc>
      </path>
      <path
         vector-effect="none"
         fill-rule="evenodd"
         d="M1286.93,914.939 L1282.93,886.846 L1302.09,887.811 L1312.21,865.116 L1323.4,859.616 L1358.84,894.275 L1371.22,897.542 L1376.18,909.083 L1369.7,946.484 L1352.39,954.286 L1363.27,977.403 L1356.08,1001.65 L1363.27,1032.68 L1354.79,1063.05 L1366.33,1069.48 L1398.39,1069.25 L1399.98,1079.91 L1450.24,1068.54 L1453.57,1106.58 L1497.03,1155.95 L1501.86,1165.44 L1496.36,1165.59 L1477.98,1160.45 L1436.52,1193.35 L1405.68,1205.28 L1399.23,1203.52 L1390.86,1226.43 L1368.7,1255.52 L1340.07,1241.85 L1283.78,1227.45 L1249.88,1212.12 L1234.72,1205.96 L1225.23,1211.49 L1227.36,1179.28 L1233.69,1179.13 L1237.19,1153.86 L1230.47,1129.85 L1229.54,1123.67 L1172.29,1099.69 L1171.41,1093.53 L1193.34,1082.04 L1204.95,1060.19 L1195.24,1052.53 L1209.44,1031.83 L1210.13,1025.48 L1201.57,1016.78 L1216.14,988.522 L1171.31,961.817 L1174.07,955.86 L1233.59,960.869 L1259.29,954.286 L1286.23,934.79 L1286.93,914.939"
         id="loire_sillon"
         inkscape:label="loire_sillon">
        <desc
           id="desc4955">CC Loire et Sillon</desc>
      </path>
      <path
         vector-effect="none"
         fill-rule="evenodd"
         d="M2013.25,1546.17 L2002.15,1550.75 L1996.84,1547.89 L1999.02,1553.87 L1988.58,1569.34 L1970.77,1572.7 L1963.11,1589.7 L1968.13,1608.21 L1961.99,1619.53 L1964.83,1625.34 L1945.88,1648.2 L1930.14,1638.84 L1915.18,1628.23 L1884.28,1594.89 L1887.17,1589.02 L1917.63,1581.2 L1921.32,1568.69 L1935.79,1555.37 L1937.28,1542.34 L1928.11,1534.85 L1942.32,1525.22 L1975.73,1482.69 L1974.51,1476.68 L1934.4,1465.83 L1932.63,1422.24 L1944.42,1402.12 L1998.92,1418.29 L2033.07,1451.13 L2029.87,1469.22 L2024.45,1472.13 L2023.98,1496.55 L2027.48,1508.67 L2018.73,1517.55 L2013.25,1546.17"
         id="sevre_maine_goulaine"
         inkscape:label="sevre_maine_goulaine">
        <desc
           id="desc4983">CC Sevre Maine et Goulaine</desc>
      </path>
      <path
         vector-effect="none"
         fill-rule="evenodd"
         d="M1867.1,1561.89 L1848.55,1563.31 L1819.8,1586.95 L1806.4,1566.71 L1807.29,1554.39 L1796.75,1532.07 L1799.49,1526.5 L1787.27,1512.69 L1763.19,1518.8 L1761.94,1525.23 L1745.13,1533.2 L1719.76,1571.27 L1717.51,1584.16 L1705.16,1585.85 L1673.7,1606.8 L1669.79,1595.84 L1683.89,1575.7 L1659.5,1570.81 L1651.33,1561.89 L1646.54,1565.66 L1641.59,1562.08 L1635.25,1545.2 L1605.7,1546.13 L1598.29,1543.8 L1569.09,1555.39 L1551.95,1537.32 L1587.54,1503.03 L1555.13,1498.55 L1537.02,1480.05 L1513.48,1469.62 L1527.46,1445.22 L1485.34,1434.41 L1476.2,1425.55 L1460.01,1430.43 L1449.46,1423.51 L1459.33,1400.3 L1438.51,1377.88 L1402.75,1351.51 L1404.07,1342.39 L1401.38,1329.36 L1356.52,1272.35 L1336.75,1254.66 L1340.07,1241.85 L1368.7,1255.52 L1408.07,1300.2 L1423.04,1313.42 L1429.7,1313.45 L1431.73,1324.45 L1450.71,1327.89 L1480.58,1354.34 L1512.64,1362.9 L1519.24,1361.84 L1533.84,1348.3 L1564.74,1337.89 L1594.28,1278.84 L1596.19,1272.18 L1595.82,1259.53 L1601.71,1256.71 L1613.99,1260.5 L1632.61,1254.32 L1657.27,1232.98 L1668.43,1237.69 L1679.55,1220.95 L1685.27,1224.22 L1697.44,1220.07 L1729.34,1243.27 L1754.76,1288.86 L1766.84,1290.91 L1767.56,1246.17 L1777.08,1229.6 L1756.12,1176.09 L1790.39,1141.61 L1819.83,1181.06 L1826.42,1198.98 L1824.74,1211.13 L1837.38,1224.98 L1851.17,1196.66 L1906.41,1206.78 L1941.61,1197.61 L1952.56,1182.09 L1967.25,1171.47 L2004.84,1170.5 L2008.02,1209.81 L2015.16,1228.33 L2025.88,1235.23 L2045.52,1236.99 L2056.59,1251.85 L2008.14,1281.91 L1999.71,1287.61 L1975.6,1316.89 L1943.85,1337.43 L1920.59,1358.52 L1932.58,1373.26 L1944.42,1402.12 L1932.63,1422.24 L1934.4,1465.83 L1974.51,1476.68 L1975.73,1482.69 L1942.32,1525.22 L1928.11,1534.85 L1937.28,1542.34 L1935.79,1555.37 L1921.32,1568.69 L1917.63,1581.2 L1887.17,1589.02 L1867.1,1561.89"
         id="nantes_metropole"
         inkscape:label="nantes_metropole">
        <desc
           id="desc4963">Nantes Métropole</desc>
      </path>
    </g>
    <g
       fill="none"
       stroke="#000000"
       stroke-opacity="1"
       stroke-width="1"
       stroke-linecap="square"
       stroke-linejoin="bevel"
       transform="matrix(11.8081,0,0,11.8081,47.2323,53.1364)"
       font-family="MS Shell Dlg 2"
       font-size="34.375"
       font-weight="400"
       font-style="normal"
       id="g86" />
    <g
       fill="none"
       stroke="#000000"
       stroke-opacity="1"
       stroke-width="1"
       stroke-linecap="square"
       stroke-linejoin="bevel"
       transform="matrix(11.8081,0,0,11.8081,47.2323,53.1364)"
       font-family="MS Shell Dlg 2"
       font-size="34.375"
       font-weight="400"
       font-style="normal"
       id="g88" />
    <g
       fill="none"
       stroke="#000000"
       stroke-opacity="1"
       stroke-width="1"
       stroke-linecap="square"
       stroke-linejoin="bevel"
       transform="matrix(11.8081,0,0,11.8081,47.2323,53.1364)"
       font-family="MS Shell Dlg 2"
       font-size="34.375"
       font-weight="400"
       font-style="normal"
       id="g90" />
    <g
       fill="none"
       stroke="#000000"
       stroke-opacity="1"
       stroke-width="1"
       stroke-linecap="square"
       stroke-linejoin="bevel"
       transform="matrix(1,0,0,1,0,0)"
       font-family="MS Shell Dlg 2"
       font-size="34.375"
       font-weight="400"
       font-style="normal"
       id="g92" />
    <g
       fill="none"
       stroke="#000000"
       stroke-opacity="1"
       stroke-width="1"
       stroke-linecap="square"
       stroke-linejoin="bevel"
       transform="matrix(11.8081,0,0,11.8081,47.2323,53.1364)"
       font-family="MS Shell Dlg 2"
       font-size="34.375"
       font-weight="400"
       font-style="normal"
       id="g94" />
    <g
       fill="none"
       stroke="#000000"
       stroke-opacity="1"
       stroke-width="1"
       stroke-linecap="square"
       stroke-linejoin="bevel"
       transform="matrix(11.8081,0,0,11.8081,47.2323,53.1364)"
       font-family="MS Shell Dlg 2"
       font-size="34.375"
       font-weight="400"
       font-style="normal"
       id="g96" />
    <g
       fill="none"
       stroke="#000000"
       stroke-opacity="1"
       stroke-width="1"
       stroke-linecap="square"
       stroke-linejoin="bevel"
       transform="matrix(11.8081,0,0,11.8081,47.2323,53.1364)"
       font-family="MS Shell Dlg 2"
       font-size="34.375"
       font-weight="400"
       font-style="normal"
       id="g98" />
    <g
       fill="none"
       stroke="#000000"
       stroke-opacity="1"
       stroke-width="1"
       stroke-linecap="square"
       stroke-linejoin="bevel"
       transform="matrix(11.8081,0,0,11.8081,47.2323,53.1364)"
       font-family="MS Shell Dlg 2"
       font-size="34.375"
       font-weight="400"
       font-style="normal"
       id="g100" />
    <g
       fill="none"
       stroke="#000000"
       stroke-opacity="1"
       stroke-width="1"
       stroke-linecap="square"
       stroke-linejoin="bevel"
       transform="matrix(11.8081,0,0,11.8081,0,0)"
       font-family="MS Shell Dlg 2"
       font-size="34.375"
       font-weight="400"
       font-style="normal"
       id="g102" />
    <g
       fill="none"
       stroke="#000000"
       stroke-opacity="1"
       stroke-width="1"
       stroke-linecap="square"
       stroke-linejoin="bevel"
       transform="matrix(11.8081,0,0,11.8081,0,0)"
       font-family="MS Shell Dlg 2"
       font-size="34.375"
       font-weight="400"
       font-style="normal"
       id="g104" />
    <g
       fill="none"
       stroke="#000000"
       stroke-opacity="1"
       stroke-width="1"
       stroke-linecap="square"
       stroke-linejoin="bevel"
       transform="matrix(1,0,0,1,0,0)"
       font-family="MS Shell Dlg 2"
       font-size="34.375"
       font-weight="400"
       font-style="normal"
       id="g106" />
  </g>
</svg>
