<?xml version="1.0" encoding="utf-8"?>
<!-- Generator: Adobe Illustrator 17.0.0, SVG Export Plug-In . SVG Version: 6.00 Build 0)  -->
<!DOCTYPE svg PUBLIC "-//W3C//DTD SVG 1.1//EN" "http://www.w3.org/Graphics/SVG/1.1/DTD/svg11.dtd">
<svg version="1.1" id="Calque_1" xmlns="http://www.w3.org/2000/svg" xmlns:xlink="http://www.w3.org/1999/xlink" x="0px" y="0px"
	 width="145px" height="49.5px" viewBox="0 0 145 49.5" enable-background="new 0 0 145 49.5" xml:space="preserve">
<g>
	<path fill="#FFFFFF" d="M5.279,32.987c-1.08,0.094-3.764,0.329-3.764,0.329l0.015,0.155c0.366-0.021,0.818,0.155,1.286,0.553
		c2.703,2.305,8.713,12.886,11.686,12.626c0.457-0.041,0.457-0.041,1.918-0.169C15.062,43.845,7.947,32.754,5.279,32.987"/>
	<path fill="#FFFFFF" d="M15.644,23.136c-1.747,0.154-6.09,0.534-6.09,0.534l0.023,0.253c0.594-0.035,1.325,0.249,2.08,0.893
		c4.376,3.728,14.101,20.848,18.91,20.426c0.74-0.063,0.74-0.063,3.102-0.271C31.473,40.708,19.96,22.759,15.644,23.136"/>
	<path fill="#FFFFFF" d="M1.591,34.177l1.181,13.498l3.242-0.284l-0.825-9.446c-1.112-1.492-2.12-2.78-2.829-3.386
		C2.022,34.274,1.747,34.175,1.591,34.177"/>
	<path fill="#FFFFFF" d="M32.875,7.161c-2.828,0.248-9.855,0.862-9.855,0.862l0.035,0.409c0.96-0.056,2.146,0.403,3.366,1.446
		c7.081,6.03,22.814,33.731,30.599,33.051c1.196-0.104,1.196-0.104,5.02-0.438C58.486,35.588,39.856,6.55,32.875,7.161"/>
	<path fill="#FFFFFF" d="M62.097,38.439L59.16,4.862l-8.487,0.742l1.584,18.099c3.947,5.528,7.445,11.027,9.636,14.755
		L62.097,38.439z"/>
	<path fill="#FFFFFF" d="M33.712,42.568l-2.078-23.762c-2.513-3.329-4.765-6.125-6.408-7.525c-0.876-0.748-1.6-1.008-2.009-1.007
		l1.698,19.419c3.593,4.602,6.992,10.076,8.672,12.887L33.712,42.568z"/>
	<path fill="#FFFFFF" d="M16.447,44.996l-1.245-14.228c-1.683-2.245-3.199-4.159-4.286-5.084c-0.54-0.461-0.988-0.623-1.24-0.622
		l1.012,11.573c2.338,2.92,4.594,6.549,5.682,8.369L16.447,44.996z"/>
	<path fill="#FFFFFF" d="M75.109,10.052l-2.321-5.066l1.088-0.095l1.015,2.316c0.295,0.668,0.536,1.237,0.745,1.855l0.015-0.002
		c0.107-0.621,0.269-1.267,0.447-1.932l0.666-2.491l1.056-0.093l-1.553,5.404L75.109,10.052z"/>
	
		<rect x="78.377" y="6.402" transform="matrix(-0.0872 -0.9962 0.9962 -0.0872 81.1933 88.1973)" fill="#FFFFFF" width="5.25" height="1.001"/>
	<polygon fill="#FFFFFF" points="84.779,3.937 85.778,3.85 86.162,8.245 88.563,8.034 88.636,8.869 85.237,9.166 	"/>
	<polygon fill="#FFFFFF" points="90.507,3.436 91.505,3.348 91.889,7.744 94.29,7.533 94.363,8.367 90.963,8.666 	"/>
	<polygon fill="#FFFFFF" points="99.699,5.585 97.487,5.779 97.619,7.268 100.085,7.052 100.156,7.86 96.691,8.165 96.233,2.935 
		99.575,2.642 99.646,3.452 97.303,3.657 97.418,4.971 99.629,4.777 	"/>
	<path fill="#FFFFFF" d="M106.163,6.579c0.157,0.013,0.401-0.006,0.644-0.027c1.466-0.119,2.21-0.949,2.102-2.183
		c-0.096-1.178-0.925-1.733-2.285-1.615c-0.372,0.034-0.625,0.09-0.783,0.135L106.163,6.579z M104.778,2.258
		c0.481-0.113,1.076-0.211,1.711-0.267c1.105-0.097,1.872,0.043,2.447,0.434c0.572,0.378,0.954,0.971,1.026,1.805
		c0.077,0.875-0.195,1.593-0.68,2.109c-0.539,0.562-1.449,0.906-2.58,1.005c-0.646,0.057-1.114,0.067-1.474,0.055L104.778,2.258z"/>
	<polygon fill="#FFFFFF" points="115.669,4.188 113.457,4.382 113.586,5.872 116.054,5.656 116.125,6.465 112.658,6.767 
		112.201,1.539 115.543,1.246 115.614,2.055 113.27,2.26 113.385,3.573 115.597,3.381 	"/>
	<path fill="#FFFFFF" d="M74.679,26.595c-3.029,0.236-5.019,1.098-4.859,2.901c0.104,1.196,0.991,1.767,2.286,1.652
		c1.394-0.122,2.434-1.17,2.681-2.248c0.055-0.283,0.041-0.612,0.015-0.9L74.679,26.595z M80.036,29.711
		c0.142,1.616,0.365,3.112,0.609,3.938l-4.709,0.411l-0.454-1.572l-0.118,0.012c-0.991,1.388-2.696,2.243-4.757,2.425
		c-3.549,0.309-5.724-1.973-5.938-4.443c-0.366-4.17,3.206-6.568,9.571-7.104l-0.014-0.155c-0.063-0.715-0.536-1.895-3.344-1.748
		c-2.809,0.147-4.855,1.307-4.855,1.307l-1.165-2.984c0,0,2.491-1.558,6.594-1.916c5.501-0.481,7.757,2.417,8.103,6.358
		L80.036,29.711z"/>
	<path fill="#FFFFFF" d="M109.069,27.68c-1.539,0.026-2.161-1.081-2.32-2.91l-0.492-5.62L110,18.824l-0.34-3.892l-3.744,0.327
		l-0.385-4.408l-4.957,1.79l1.153,13.181c0.327,3.748,2.066,6.062,5.92,5.859c2.1-0.109,4.091-1.068,4.091-1.068l-0.965-3.248
		C110.773,27.365,109.868,27.667,109.069,27.68"/>
	<path fill="#FFFFFF" d="M88.534,32.958l-5.227,0.457l-0.948-10.826c-0.182-2.081-0.393-3.814-0.589-5.216l4.534-0.396l0.44,2.325
		l0.118-0.01c0.505-1.004,2.062-2.942,5.078-3.206c3.356-0.293,6.42,1.559,6.866,6.663l0.809,9.239l-5.229,0.458l-0.744-8.516
		c-0.229-2.614-1.482-3.659-3.256-3.505c-1.774,0.154-2.827,1.403-2.598,4.018L88.534,32.958z"/>
	<path fill="#FFFFFF" d="M130.482,24.741c0.711,0.312,2.814,0.979,4.871,0.835c1.646-0.114,2.288-0.659,2.153-1.43
		c-0.342-1.928-7.71-1.075-8.251-6.233c-0.322-3.054,2.172-5.281,6.409-5.653c2.06-0.18,4.011,0.213,5.048,0.564l-0.503,3.385
		c0,0-1.964-0.722-4.04-0.539c-1.26,0.11-2.032,0.615-1.888,1.443c0.317,1.796,7.734,1.02,8.281,6.224
		c0.304,2.889-1.781,5.446-6.804,5.886c-2.346,0.205-4.381-0.131-5.841-0.699L130.482,24.741z"/>
	<path fill="#FFFFFF" d="M122.864,19.925c-0.073-0.916-0.799-3.068-3.401-2.84c-2.347,0.204-3.13,2.171-3.195,3.416L122.864,19.925z
		 M116.635,24.052c0.612,3.343,6.36,2.935,9.9,1.459l0.951,3.2c0,0-2.81,1.48-6.064,1.766c-6.025,0.525-9.366-2.965-9.76-7.469
		c-0.321-3.661,1.379-8.993,7.779-9.329c5.801-0.304,8.011,3.817,8.332,7.495c0.068,0.777,0.032,1.559-0.03,1.906L116.635,24.052z"
		/>
</g>
</svg>
