<?xml version="1.0" standalone="no"?>
<!DOCTYPE svg PUBLIC "-//W3C//DTD SVG 1.1//EN" "http://www.w3.org/Graphics/SVG/1.1/DTD/svg11.dtd" >
<svg xmlns="http://www.w3.org/2000/svg">
<metadata></metadata>
<defs>
<font id="brush_script_stdmedium" horiz-adv-x="1157" >
<font-face units-per-em="2048" ascent="1399" descent="-649" />
<missing-glyph horiz-adv-x="696" />
<glyph unicode="&#xfb01;" horiz-adv-x="1183" d="M-176 -266q0 49 14.5 103t36 108.5t47 105.5t45.5 94q-25 27 -42 52.5t-17 64.5q0 61 34.5 87t80.5 50q90 49 146 120t103 159q12 25 42 78t68 118.5t82 135t86 126t80 93.5t64 37q16 0 26.5 -9.5t15.5 -23.5t6 -29.5t1 -27.5q0 -31 -10 -70t-25.5 -80t-35 -77t-35.5 -60 l-383 -535q45 -27 65.5 -71.5t40.5 -89.5l254 157q25 74 68 138.5t94 113.5t102.5 77t88.5 28q27 0 58.5 -11.5t31.5 -46.5q0 -39 -33 -89t-79 -99t-95 -91t-82 -65q-12 -63 12.5 -96t96.5 -33q41 0 80.5 17.5t77.5 44t73 55.5t66 51l18 -78q-35 -43 -84 -94t-106.5 -96 t-119 -76t-118.5 -31q-45 0 -79 23.5t-55.5 59.5t-31.5 79t-10 82q0 10 2 12l-4 4q-41 -39 -88 -73.5t-103 -61.5q6 -29 5 -56.5t-3 -55.5q-6 -92 -56 -177.5t-119.5 -152t-145.5 -110.5t-131 -52q-35 -6 -58.5 22.5t-38 68.5t-19.5 84t-5 69zM4 -160q-6 -49 6 -93t35 -89 q47 31 87 76t67.5 97t40 109.5t6.5 114.5q-49 -4 -80 -1t-68 18q-41 -68 -64.5 -124.5t-29.5 -107.5zM995 836q0 31 16.5 59.5t43 50t57.5 34.5t62 13q29 0 48 -17.5t19 -45.5q0 -31 -13.5 -63.5t-36 -58.5t-52 -43t-62.5 -17q-37 0 -59.5 25.5t-22.5 62.5z" />
<glyph unicode="&#xfb02;" horiz-adv-x="1204" d="M-176 -266q0 49 14.5 103t36 108.5t47 105.5t45.5 94q-25 27 -42 52.5t-17 64.5q0 61 34.5 87t80.5 50q90 49 146 120t103 159q12 25 42 78t68 118.5t82 135t86 126t80 93.5t64 37q16 0 26.5 -9.5t15.5 -23.5t6 -29.5t1 -27.5q0 -31 -10 -70t-25.5 -80t-35 -77t-35.5 -60 l-383 -535q45 -27 65.5 -71.5t40.5 -89.5l201 126q16 143 76.5 284.5t148.5 252.5q68 84 135.5 159t128 132t106.5 90t71 33q27 0 35 -28t6 -48q-6 -74 -23.5 -147.5t-71 -166t-152.5 -211t-265 -280.5q-14 -27 -18.5 -65.5t3.5 -75.5q14 -35 38 -61.5t65 -26.5 q43 0 91 21.5t96 53t91 66.5t74 64l29 -62q-43 -43 -98.5 -99.5t-119 -106.5t-131 -83.5t-133.5 -33.5q-51 0 -84.5 19t-54 52t-31 74t-12.5 82q-35 -31 -77 -60.5t-89 -52.5q6 -29 5 -56.5t-3 -55.5q-6 -92 -56 -177.5t-119.5 -152t-145.5 -110.5t-131 -52 q-35 -6 -58.5 22.5t-38 68.5t-19.5 84t-5 69zM4 -160q-6 -49 6 -93t35 -89q47 31 87 76t67.5 97t40 109.5t6.5 114.5q-49 -4 -80 -1t-68 18q-41 -68 -64.5 -124.5t-29.5 -107.5zM799 582l4 -4q53 49 103 108t91 119.5t71 117t46 101.5l-2 -2l-4 4q-106 -86 -179 -203.5 t-130 -240.5z" />
<glyph horiz-adv-x="0" />
<glyph unicode="&#xd;" horiz-adv-x="696" />
<glyph unicode=" "  horiz-adv-x="696" />
<glyph unicode="&#x09;" horiz-adv-x="696" />
<glyph unicode="&#xa0;" horiz-adv-x="696" />
<glyph unicode="!" horiz-adv-x="802" d="M145 76q0 27 8.5 69.5t24 82.5t37 69t49.5 29q53 0 90 -39t37 -92q0 -27 -8 -65t-24.5 -71.5t-42 -57.5t-60.5 -24q-41 0 -76 29t-35 70zM264 469q0 18 7.5 42t16.5 48.5t20.5 48t17.5 39.5l288 660q6 14 14.5 32.5t18.5 35t23.5 26.5t34.5 10q16 0 42.5 -7t43.5 -11 q8 -2 21 -5.5t26.5 -8.5t22.5 -13t9 -20t-7 -33t-16 -42.5t-19.5 -41t-16.5 -31.5l-367 -715q10 -20 11 -34q0 -29 -18.5 -60t-49.5 -31q-18 0 -39.5 10.5t-40 27t-31 36t-12.5 37.5z" />
<glyph unicode="&#x22;" horiz-adv-x="681" d="M78 1337q0 68 24.5 94.5t63.5 26.5t63.5 -26.5t24.5 -94.5q0 -20 -4 -73.5t-10.5 -121t-12.5 -139t-12 -129.5q-4 -35 -18.5 -49t-30.5 -14t-30.5 14.5t-18.5 48.5q-6 57 -12.5 129t-12.5 139.5t-10 121t-4 73.5zM428 1337q0 68 24.5 94.5t63.5 26.5t63.5 -26.5 t24.5 -94.5q0 -20 -4 -73.5t-10 -121t-12.5 -139t-12.5 -129.5q-4 -35 -18.5 -49t-30.5 -14t-30.5 14.5t-18.5 48.5q-6 57 -12 129t-12.5 139.5t-10.5 121t-4 73.5z" />
<glyph unicode="#" horiz-adv-x="1153" d="M109 385l30 129h219l121 285h-211l33 129h229l162 379h131l-161 -379h249l160 379h133l-160 -379h195l-33 -129h-215l-121 -285h207l-33 -129h-227l-164 -385h-131l162 385h-250l-162 -385h-131l162 385h-194zM487 514h250l123 285h-250z" />
<glyph unicode="$" d="M-70 150q0 12 11.5 39.5t31 56t47 50t60.5 21.5l393 5l76 307q-61 12 -99 17t-65 10.5t-50.5 11.5t-58.5 18q-39 14 -52 42t-13 69q0 20 7 53t18.5 68.5t23.5 67.5t23 48q25 43 83 80t126.5 67.5t137 52t115.5 34.5q16 43 41 109.5t60 129t80 107.5t102 45q27 0 42 -21.5 t15 -46.5q0 -27 -11 -48t-27 -42q-25 -29 -40.5 -50t-27.5 -43t-23.5 -47.5t-23.5 -62.5l190 13q47 4 102.5 -2t100.5 -23q18 -4 28.5 -10t6.5 -29q-6 -57 -16.5 -93t-29 -59.5t-49 -39t-75.5 -31.5q-47 -16 -83 -31.5t-77 -46.5q-12 -10 -31.5 -20.5t-35.5 -10.5 q-25 0 -25 23q4 23 44 51.5t103 75.5l-4 4l-247 -33l-89 -309q41 -14 101.5 -32.5t117 -45t96.5 -64.5t40 -91q0 -82 -51.5 -151t-116.5 -112q-80 -53 -163 -84.5t-177 -56.5l-47 -270q-18 6 -44 10t-50.5 13.5t-42 23.5t-17.5 41q0 41 11.5 79t11.5 62q-76 -6 -134.5 -5 t-107.5 3q-72 2 -118 11.5t-73.5 22.5t-38 31.5t-12.5 37.5zM391 844q0 -18 24.5 -32.5t56.5 -24t64 -15.5t46 -8l71 235q-20 -4 -63 -21t-87 -41t-78 -49.5t-34 -43.5zM647 344q20 6 65.5 20.5t91.5 34t81 42t35 46.5q0 23 -26 39.5t-60.5 28.5t-69.5 21.5t-51 15.5z" />
<glyph unicode="%" horiz-adv-x="1316" d="M178 948q0 98 46 181t111.5 145.5t137.5 100.5t123 44q25 4 49.5 -17.5t24.5 -45.5q0 -10 -7.5 -19.5t-13.5 -15.5q59 -2 82 -34t23 -89q0 -72 -33 -156t-87 -156.5t-126 -121.5t-148 -49q-43 0 -77.5 22.5t-57 56t-35 74.5t-12.5 80zM209 53q0 39 23.5 89.5t56.5 101.5 t69.5 97t61.5 77l416 500q106 129 227 240.5t262 203.5q8 -37 6 -72t-25.5 -81t-73.5 -108.5t-138 -154.5q-80 -84 -169 -186.5t-175 -211t-165 -218t-141 -207.5q-18 -29 -38.5 -59.5t-32.5 -63.5q-8 -23 -19.5 -46.5t-42.5 -23.5q-23 0 -41 11.5t-31.5 30t-21.5 40 t-8 41.5zM328 948q0 -16 6 -38.5t10 -22.5q33 -6 70 13.5t70.5 53t64.5 74.5t53.5 81t35.5 72.5t13 47.5q0 10 -11 17t-24 7q-12 0 -21 -7t-18.5 -14t-17.5 -14.5t-20 -7.5q-10 0 -20.5 6.5t-18.5 12.5q-33 -20 -63.5 -52t-55.5 -70t-39 -79t-14 -80zM752 219q0 98 46 181 t111.5 145.5t137 100.5t122.5 44q25 4 49.5 -17.5t24.5 -45.5q0 -10 -7 -19.5t-13 -15.5q59 -2 81.5 -34t22.5 -89q0 -72 -32.5 -156t-87 -156.5t-126 -121.5t-147.5 -49q-43 0 -78 22.5t-57.5 56t-34.5 74.5t-12 80zM901 219q0 -16 6 -38.5t11 -22.5q33 -6 69.5 13t70.5 53 t64.5 75t53 81t36 72.5t13.5 47.5q0 10 -11.5 17t-23.5 7t-21.5 -7t-18.5 -14t-17.5 -14.5t-20.5 -7.5q-10 0 -20.5 6.5t-18.5 12.5q-33 -20 -63.5 -52t-55 -70t-39 -79t-14.5 -80z" />
<glyph unicode="&#x26;" horiz-adv-x="1191" d="M-10 287q12 121 53 203.5t102.5 141t137 101.5t157.5 86q-18 125 31 230.5t135 183.5t194.5 123t209.5 49q39 2 74.5 -12.5t64.5 -41t46 -61.5t17 -73q0 -92 -56 -159t-128 -110l-305 -178q20 -133 100 -254l328 260q12 -37 25.5 -78t13.5 -80q0 -47 -23.5 -88 t-59.5 -77.5t-76 -68.5t-70 -60q8 -29 26.5 -42.5t36.5 -13.5q16 0 31.5 8.5t27.5 8.5t22.5 -12.5t10.5 -24.5q0 -23 -19.5 -64t-49 -83t-62.5 -72.5t-59 -30.5q-18 0 -44 18.5t-51.5 43t-48 50t-34.5 37.5q-49 -29 -100.5 -61.5t-107 -59t-112.5 -44t-117 -17.5 q-70 0 -131 24.5t-105 67.5t-67.5 101.5t-17.5 128.5zM197 309q0 -14 11 -22t26.5 -11.5t32 -3.5h26.5q84 0 159.5 30t147.5 69l-115 260q-35 -14 -84 -52t-94 -86.5t-76.5 -97.5t-33.5 -86zM696 952q35 20 92.5 57.5t111.5 81.5t93 92t39 95q0 14 -11 20.5t-24 4.5 q-84 -16 -135 -52.5t-84 -84.5t-50.5 -104.5t-31.5 -109.5z" />
<glyph unicode="'" horiz-adv-x="454" d="M139 1337q0 68 24.5 94.5t63.5 26.5t63.5 -26.5t24.5 -94.5q0 -20 -4 -73.5t-10 -121t-12 -139t-13 -129.5q-4 -35 -18 -49t-31 -14q-16 0 -30.5 14.5t-18.5 48.5q-6 57 -12 129t-12.5 139.5t-10.5 121t-4 73.5z" />
<glyph unicode="(" horiz-adv-x="667" d="M100 88q0 190 57.5 380.5t135.5 362.5q14 33 41.5 92.5t64.5 127t80 138.5t88 128t89 93t83 36q37 0 55.5 -21.5t18.5 -56.5q0 -23 -16.5 -52.5t-28.5 -45.5q-78 -109 -154.5 -258.5t-140 -312t-102.5 -324.5t-39 -295q0 -45 5 -89t11 -89q8 4 21 4q8 0 14 -10.5 t10 -24.5t5 -27.5t1 -19.5q0 -27 -9 -53.5t-26.5 -48t-41 -35t-52.5 -13.5q-61 0 -95 48.5t-51.5 116t-20.5 137t-3 112.5z" />
<glyph unicode=")" horiz-adv-x="667" d="M35 -248q0 23 16.5 52.5t28.5 45.5q76 109 153.5 258.5t141 312.5t102.5 324.5t39 294.5q0 45 -5 89.5t-11 89.5q-8 -4 -21 -5q-10 0 -15 10.5t-9 25t-5 27.5t-1 19q0 27 9 53.5t26.5 48t41 35t52.5 13.5q61 0 95 -48t51 -116t20.5 -137.5t3.5 -112.5 q0 -190 -57.5 -380.5t-135.5 -362.5q-14 -35 -42 -93.5t-64.5 -126t-79.5 -138t-88 -128t-89.5 -93.5t-82.5 -36q-37 0 -55.5 21.5t-18.5 56.5z" />
<glyph unicode="*" horiz-adv-x="1122" d="M236 725q0 43 33.5 79t80.5 65.5t95.5 54t76.5 45.5q-68 63 -139 104q-41 23 -60.5 42.5t-19.5 72.5q0 25 11.5 52.5t41.5 27.5q41 0 64.5 -23.5l50.5 -50.5q29 -29 58.5 -52.5t58.5 -51.5l4 147q2 29 2 52.5t20 45.5q6 8 17.5 19.5t25 21.5t26.5 17.5t26 7.5 q23 0 36 -14.5t13 -36.5q0 -10 -4 -27.5t-9 -28.5q-6 -23 -8 -51.5t-6 -50.5l-12 -111q20 12 55 32t72 37t72.5 30.5t60.5 13.5q18 0 29.5 -8t20.5 -21.5t20.5 -32t33.5 -36.5l-319 -148l182 -143q14 -14 33.5 -30.5t19.5 -39.5q0 -12 -6 -28.5t-15 -34t-17.5 -34.5 t-10.5 -30l-252 219l-18 -344q-31 10 -56.5 15.5t-44 15.5t-28.5 29.5t-10 58.5q0 59 9 114.5t17 112.5l-194 -133q-16 -10 -37 -27.5t-41 -17.5q-29 0 -44 23.5t-15 50.5z" />
<glyph unicode="+" horiz-adv-x="1314" d="M283 471v123h403v412h129v-412h402v-123h-402v-448h-129v448h-403z" />
<glyph unicode="," horiz-adv-x="616" d="M100 -123q25 33 49.5 66.5t43.5 72.5q-29 10 -53.5 23.5t-24.5 48.5q0 31 17.5 66.5t44 64.5t60 48.5t66.5 19.5q12 0 29.5 -1t35 -5.5t29 -13.5t11.5 -27q0 -20 -10.5 -53t-25 -67t-31.5 -63.5t-30 -44.5q-47 -57 -78.5 -84.5t-55 -39t-42 -11.5h-35.5z" />
<glyph unicode="-" horiz-adv-x="655" d="M0 475v180h614v-180h-614z" />
<glyph unicode="." horiz-adv-x="616" d="M113 76q0 27 16 68.5t44 77.5t65.5 58.5t80.5 14.5q10 -2 28 -4t34 -8.5t27.5 -18.5t11.5 -35l-10 -39q-11 -40 -32.5 -86.5t-55 -83t-80.5 -30.5q-20 2 -43 6t-42.5 13t-31.5 24.5t-12 42.5z" />
<glyph unicode="/" horiz-adv-x="946" d="M70 -51q0 43 24.5 113.5t63.5 154.5t90 178t104.5 186.5t104.5 177.5l90 150q162 270 295 428t227 236q8 -29 13 -56.5t5 -56.5q0 -47 -25 -91t-48 -83l-406 -659q-86 -139 -141 -240.5t-95 -187.5t-69 -167t-61 -177q-4 -14 -13.5 -29.5t-25.5 -15.5q-59 0 -96 42 t-37 97z" />
<glyph unicode="0" d="M92 319q0 86 25.5 176.5t67.5 175.5t95.5 161.5t110.5 140.5q68 74 156 139.5t176 114.5t167 76.5t128 27.5q31 0 63.5 -16.5t59 -39t44 -47t17.5 -40.5q0 -8 -8 -13.5t-18.5 -8.5t-20.5 -6t-16 -9q35 -10 55 -33.5t30.5 -53.5t13.5 -62.5t3 -63.5q0 -98 -28.5 -205.5 t-82 -212t-129 -200t-170 -169t-206 -121.5t-234.5 -57q-72 -6 -127 24t-93 79t-58.5 113.5t-20.5 129.5zM324 311q0 -14 1 -40.5t8 -52t19.5 -45t34.5 -19.5q23 0 56.5 13t68.5 31.5t66 39t49 36.5l200 185q33 37 79 98t87 129t70 134.5t29 117.5q0 16 -4.5 36.5t-13.5 39 t-24.5 32t-35.5 13.5t-40 -12.5t-36 -25.5t-29.5 -25.5t-21.5 -12.5q-12 0 -16.5 13.5t-4.5 23.5q-139 -78 -239.5 -169t-166 -184.5t-99 -184.5t-37.5 -171z" />
<glyph unicode="1" d="M309 113q0 39 14.5 96t36 118.5t47 117t46.5 90.5q55 92 112.5 178t108.5 157.5t91 126t62 82.5l-4 4l-194 -73q-6 -4 -27.5 -12.5t-28.5 -8.5q-16 0 -17 18.5t1 28.5q4 45 30.5 64.5t63.5 42.5q25 14 76 44t106.5 58.5t103.5 51t71 22.5q20 0 37.5 -17.5t29.5 -41 t19.5 -47t7.5 -35.5q0 -14 -1 -26.5t-10.5 -34t-29 -57.5t-55 -97.5t-91 -154.5t-135.5 -230q-27 -45 -67.5 -117t-78.5 -151t-65.5 -153.5t-27.5 -125.5q0 -18 3 -36t3 -36q0 -29 -29 -29q-8 0 -21.5 7.5t-21.5 11.5q-29 16 -58.5 28.5t-53 30t-39 41t-15.5 64.5z" />
<glyph unicode="2" d="M78 225q0 47 44 101.5t112.5 111t154.5 111.5t168 103t151.5 85t108.5 60q33 18 82 45.5t95 63.5t79 76t33 83q0 31 -27.5 42t-50.5 11q-63 0 -136 -20.5t-146.5 -49t-143.5 -62.5t-127 -60v-4l121 -15q10 -2 23.5 -3t25.5 -5t20.5 -12t8.5 -23q0 -23 -17.5 -29t-33.5 -8 l-222 -43q-10 -2 -34.5 -6t-34.5 -4q-29 0 -38 28.5t-9 51.5q0 29 10 66.5t27.5 76.5t38 73t38.5 56q45 51 124 88t168 61.5t179.5 37t155.5 12.5q57 0 100 -11t72 -45t43 -97.5t14 -170.5q0 -41 -8 -82.5t-55 -95t-149.5 -125t-290.5 -172.5q-131 -70 -258 -143.5 t-244 -165.5l4 -4l797 139q-20 -57 -40 -110.5t-48.5 -97.5t-72.5 -75.5t-112 -43.5q-121 -23 -223 -36.5t-182 -16.5t-132.5 2.5t-72.5 21.5q-23 18 -40 46t-28.5 59.5t-16.5 63.5t-5 60z" />
<glyph unicode="3" d="M-63 145q0 18 20 52t49 67t59.5 56.5t49.5 23.5q10 0 20 -6t10 -19q0 -6 -17 -27.5t-30 -33.5q51 -20 97.5 -33.5t101.5 -13.5q113 0 222.5 28.5t195.5 67.5t138 81t52 69q0 43 -49 66.5t-113.5 35.5t-127 15.5t-91.5 3.5q-53 0 -92 -3.5t-90 -13.5q-12 -4 -29.5 -6 t-29.5 -2q-20 0 -27.5 12.5t-3.5 30.5q14 96 61 150.5t162 62.5q29 2 90.5 11t137 24.5t156.5 37t146.5 48t108.5 57.5t43 66q0 33 -24.5 50t-59.5 24.5t-70.5 8.5t-56.5 1q-115 0 -224.5 -22.5t-215.5 -63.5v-4l43 -9q4 0 16.5 -2t25.5 -6t23.5 -11t10.5 -15 q0 -12 -13.5 -17.5t-23.5 -7.5q-18 -4 -43 -7t-52.5 -4t-52 -2t-43.5 -1q-49 0 -76.5 29.5t-27.5 80.5q0 39 19.5 67.5t49 50t63.5 36t64 26.5q94 37 198 49.5t204 12.5q70 0 143.5 -6t134 -33t99.5 -78t39 -139q0 -57 -37 -116.5t-86 -92.5q-53 -33 -119 -52.5t-125 -31.5 l-309 -68v-4q61 -10 132 -22t134.5 -40t107.5 -77t50 -133q4 -51 -39 -127t-136.5 -146.5t-235.5 -120.5t-339 -50q-104 0 -175 17t-114 44t-61 54.5t-18 49.5z" />
<glyph unicode="4" d="M76 504q0 39 26.5 89t64.5 98t79 90t69 67q98 84 230.5 168t263.5 150.5t238.5 108.5t156.5 42q27 0 52.5 -13.5t25.5 -43.5q0 -16 -15.5 -35t-27.5 -29q29 -14 38 -38.5t3 -53.5q-6 -59 -53 -119q-80 -98 -149.5 -198.5t-141.5 -213.5q39 0 78 5.5t78 5.5q29 0 52 -9.5 t23 -42.5q0 -16 -12 -42.5t-27.5 -53t-31 -50.5t-21.5 -36l-287 -35q-16 -59 -25 -89.5t-9 -63.5q0 -29 12 -53.5t29 -47.5q-18 -8 -53 -26.5t-73 -38t-72 -34.5t-48 -15q-16 0 -25.5 11t-14.5 27.5t-7 34t-2 29.5q0 59 15 120.5t26 129.5q-84 -4 -153 -9t-121 -5t-84.5 7 t-45.5 30q-23 41 -42 88t-19 94zM315 561q0 -18 76 -20q41 -4 109 0t168 16l491 594l-4 4q-68 -31 -135.5 -62.5t-130.5 -68.5q-160 -94 -266.5 -170t-171 -134t-96 -98t-40.5 -61z" />
<glyph unicode="5" d="M-2 156q0 55 46 98t103.5 71.5t108.5 43t63 14.5q10 0 21.5 -4t11.5 -19q0 -14 -16.5 -26t-26.5 -19l-125 -86l4 -4q182 20 324.5 66.5t240 102t147.5 111.5t50 99q0 20 -16 35.5t-39 25t-47.5 13.5t-38.5 4q-61 0 -128 -10t-126 -23q-59 -10 -103 -22.5t-63 -12.5 q-31 0 -53.5 26t-35.5 60.5t-20.5 71.5t-7.5 62q0 49 34 99t67 85l211 225q33 35 58.5 52.5t53 23.5t59 6h76.5h494q-51 -92 -82 -146.5t-61.5 -83t-70.5 -36.5t-110 -8l-348 4q-104 -84 -174 -209q72 18 142.5 30.5t142.5 12.5q66 0 127 -16.5t107 -51.5t74 -87t28 -124 q0 -129 -74 -252q-47 -78 -123 -147.5t-178 -120.5t-232.5 -80.5t-283.5 -29.5q-76 0 -118 9t-62.5 29.5t-25.5 54t-5 83.5z" />
<glyph unicode="6" d="M152 391q0 135 65.5 262t164.5 239t218 203t223 156q37 23 62.5 37.5t49 21.5t51.5 10t71 3q6 0 32.5 1t56.5 -1t52.5 -7t22.5 -20q0 -16 -16.5 -27.5t-26.5 -15.5q-37 -16 -80 -41.5t-87 -54.5t-84 -59.5t-71 -57.5l-281 -243l5 -4q61 29 124.5 57.5t135.5 28.5 q57 0 102 -22.5t77 -59.5t49 -86t17 -105q0 -84 -32.5 -162.5t-86 -148.5t-118 -129.5t-129 -102.5t-120.5 -66.5t-91 -23.5q-43 0 -103.5 29t-117 83t-96 132t-39.5 174zM383 309q0 -12 1 -34.5t5 -45t15.5 -38t29.5 -11.5q55 8 131 48t144.5 103.5t118 145.5t51.5 174 q0 33 -9.5 55.5t-50.5 22.5q-33 0 -78 -22.5t-90 -55.5t-85 -66.5t-64 -54.5q-33 -29 -55.5 -50t-37 -44.5t-20.5 -52.5t-6 -74z" />
<glyph unicode="7" d="M254 981q0 16 19.5 50t46 69t52 66.5t38.5 43.5q23 25 63.5 45.5t118.5 36t202 24.5t312 9q29 0 61.5 -5t51.5 -32q8 -12 16 -33.5t16.5 -45t13.5 -46t5 -37.5q0 -16 -11.5 -33.5t-28 -34t-33.5 -30.5t-30 -22q-98 -84 -187 -176.5t-164 -200t-133 -232.5t-97 -272 q27 10 49 10q20 0 22 -20q2 -12 -32.5 -41t-81.5 -58.5t-98.5 -53t-84.5 -25.5q-29 -2 -49 8t-32.5 28.5t-17.5 42t-5 50.5q0 61 31.5 133.5t77 145.5t95.5 139.5t87 113.5l434 455q-178 4 -283.5 -2.5t-167 -20.5t-93 -31.5t-64.5 -33.5q-12 -6 -30.5 -17.5t-35.5 -11.5 q-16 0 -34.5 13.5t-18.5 31.5z" />
<glyph unicode="8" d="M141 137q0 61 43 128t102.5 129.5t123 116.5t106.5 93q-31 37 -60.5 75t-53 78t-38 83t-14.5 94q0 63 25.5 115.5t66.5 93.5t94.5 71.5t108.5 49.5q84 29 188.5 48t202.5 25q98 4 170 -7t90 -17q16 -4 24.5 -12.5t8.5 -26.5q0 -39 -20.5 -75t-40.5 -66 q-33 -49 -52.5 -66.5t-60.5 -9.5q4 -18 4 -30.5t-6 -26t-21 -28.5t-42 -40l-340 -303q55 -68 77.5 -138.5t24.5 -158.5q0 -45 -18.5 -104.5t-70.5 -113t-144.5 -94t-239.5 -49.5q-37 -2 -78 7.5t-77 31t-59.5 53t-23.5 74.5zM322 164q0 -35 21.5 -39t47.5 -4q45 0 94.5 13 t90 39t68.5 63.5t28 89.5q0 53 -19.5 89t-48.5 77l-172 -158q-16 -14 -34.5 -34.5t-36 -43.5t-28.5 -47.5t-11 -44.5zM557 913q0 -16 10.5 -40.5t27.5 -51t36.5 -52.5t38.5 -44l395 340l-158 12q-86 6 -150.5 -6t-109.5 -36.5t-67.5 -56.5t-22.5 -65z" />
<glyph unicode="9" d="M209 754q0 63 38 129.5t101.5 131t148.5 122t178 99.5t190.5 66.5t185.5 22.5q31 0 65.5 -26.5t64 -60.5t50 -67.5t20.5 -52.5q0 -18 -13 -34.5t-31.5 -30t-39 -24.5t-32.5 -19l-76 -47q-16 -10 -30.5 -18.5t-35.5 -8.5q-10 0 -16 7t-6 18v5t9 13t31.5 30.5t65.5 57.5 l-4 4q-184 -47 -310 -104.5t-203 -116.5t-110.5 -117.5t-33.5 -107.5q0 -33 33 -33q59 0 134.5 26.5t151.5 65.5t144.5 84t113.5 82q12 8 29.5 23.5t38 28.5t41 23.5t37.5 10.5q8 0 26.5 -3t37 -10.5t32.5 -16.5t14 -21t-8 -27.5t-18.5 -31t-21.5 -30t-19 -22.5l-539 -633 q-45 -53 -82 -89t-69.5 -57.5t-62.5 -32.5t-60 -13q-18 -2 -31.5 7t-13.5 30q0 10 6 24.5t15 29.5t18.5 28.5t13.5 21.5l22.5 37.5t22.5 30t28.5 18.5t43.5 4l387 461l-4 4q-31 -23 -86.5 -57.5t-115 -66.5t-117.5 -55.5t-95 -23.5q-27 0 -70 25t-84 66.5t-70.5 98 t-29.5 122.5z" />
<glyph unicode=":" horiz-adv-x="616" d="M98 76q0 27 16.5 68.5t44 77.5t65.5 58.5t81 14.5q10 -2 27.5 -4t34 -8.5t28 -18.5t11.5 -35l-10 -39q-11 -40 -32.5 -86.5t-55.5 -83t-81 -30.5q-20 2 -42.5 6t-42 13t-32 24.5t-12.5 42.5zM342 561q0 27 16.5 69t44 77.5t65.5 58t81 14.5q10 -2 27.5 -4t34 -8 t27.5 -18.5t11 -34.5l-10 -40t-31.5 -86t-55.5 -83t-81 -31q-20 2 -42.5 6t-42 13.5t-32 25t-12.5 41.5z" />
<glyph unicode=";" horiz-adv-x="616" d="M98 -123q25 33 49.5 66.5t42.5 72.5q-29 10 -53 23.5t-24 48.5q0 31 17 66.5t44 64.5t60.5 48.5t66.5 19.5q12 0 29.5 -1t35 -5.5t29 -13.5t11.5 -27q0 -20 -10.5 -53t-25 -67t-31.5 -63.5t-30 -44.5q-47 -57 -78.5 -84.5t-55 -39t-42 -11.5h-35.5zM344 563q0 27 16.5 69 t44 77.5t65.5 58.5t81 14q10 -2 27.5 -4t34 -8t27.5 -18.5t11 -34.5l-10 -40t-31.5 -86t-55.5 -83t-81 -31q-20 2 -42.5 6t-42 13.5t-32 25t-12.5 41.5z" />
<glyph unicode="&#x3c;" horiz-adv-x="1327" d="M303 469v125l922 459v-138l-795 -380v-5l795 -385v-137z" />
<glyph unicode="=" horiz-adv-x="1263" d="M233 264v123h932v-123h-932zM233 680v123h932v-123h-932z" />
<glyph unicode="&#x3e;" horiz-adv-x="1327" d="M303 915v138l922 -459v-127l-920 -459v137l793 383v4z" />
<glyph unicode="?" horiz-adv-x="956" d="M246 76q0 27 8 69.5t23.5 82.5t37 69t50.5 29q53 0 90 -39t37 -92q0 -27 -8.5 -65t-25 -71.5t-42 -57.5t-60.5 -24q-41 0 -75.5 29t-34.5 70zM283 1098q0 14 5 37.5t13 47t17.5 46t17.5 35.5q20 37 76.5 62.5t122 42.5t130 25.5t103.5 8.5q57 0 103.5 -10.5t79 -35 t50 -66.5t17.5 -105q0 -106 -38 -191.5t-106 -165.5l-266 -315q-20 -25 -36.5 -42t-16.5 -50q0 -14 6 -27.5t6 -27.5q0 -47 -45 -48q-25 0 -46 14.5t-36.5 37t-24.5 48t-9 48.5q0 37 13 72.5t34.5 67.5t47 60.5t52.5 53.5l235 217q18 16 40 34.5t41.5 40t32.5 46t13 49.5 q0 33 -13 50.5t-34.5 25.5t-46 10t-49.5 2q-90 0 -160.5 -22.5t-152.5 -53.5l20 -8q16 -6 39 -16.5t23 -32.5q0 -18 -13.5 -27.5t-29.5 -9.5q-8 0 -18.5 2t-18.5 4l-80 12h-32.5t-32 5.5t-24.5 15.5t-9 33z" />
<glyph unicode="@" horiz-adv-x="1626" d="M109.5 153.5q-17.5 116.5 17.5 256.5q37 152 126 289t217 240t289 164.5t341 61.5q160 0 270.5 -48t174 -129t78.5 -187.5t-13 -222.5q-29 -115 -85.5 -202t-127 -146.5t-149.5 -89t-150 -29.5q-70 0 -107 45t-18 135h-6q-68 -78 -155 -129t-181 -51q-98 0 -146.5 70.5 t-17.5 193.5q25 98 81 183t136 147.5t177 99.5t202 37q72 0 134.5 -13.5t100.5 -33.5l-159 -359q-49 -113 -42 -163t54 -52q33 0 81 19.5t97 60.5t91 107.5t67 160.5q27 106 12.5 197.5t-68 159t-147.5 105.5t-229 38q-113 0 -239 -46t-238.5 -131t-199.5 -204t-124 -266 q-33 -131 -14.5 -233.5t77 -173t152.5 -107.5t211 -37q86 0 174 19.5t162 56.5l10 -92q-100 -47 -192.5 -65.5t-198.5 -18.5q-154 0 -265.5 48t-177 133t-83 201.5zM633 406q-16 -61 4 -108.5t92 -47.5q39 0 82 23.5t83 60.5t73.5 82t54.5 88l94 207q-14 4 -44 10t-62 6 q-59 0 -119 -25.5t-112 -69.5t-91 -102.5t-55 -123.5z" />
<glyph unicode="A" horiz-adv-x="1595" d="M-150 -72q0 25 28 71t75 95t111.5 95.5t136.5 70.5l159 176q-49 -2 -85.5 -3t-62.5 2t-38 12.5t-12 29.5q0 14 24.5 50t63.5 75t84 74t86 47q31 10 63.5 17.5t61 10.5t47 0t18.5 -14q0 -14 -23.5 -19t-51 -8t-51 -8.5t-23.5 -19.5q0 -10 10 -14t18 -4q12 0 32 1t40.5 2 t34.5 2t18 1l459 381q76 61 156 124.5t153.5 113.5t134 82t95.5 32q33 0 52 -30t19 -58q0 -33 -23.5 -77t-39.5 -73l-254 -444q57 0 75.5 3t28 4t22.5 -2t62 -13q-45 -53 -81.5 -112.5t-71.5 -121.5l-164 -8l-129 -252q0 -16 10 -24.5t27 -8.5q14 0 26.5 5.5t32 17.5 t48 33.5t73.5 56.5l37 -53q-37 -37 -86 -83t-104.5 -86t-114 -67.5t-113.5 -27.5t-79.5 36.5t-24.5 85.5q0 6 -2 14.5t9 40t43 99.5t99 193l-446 -15l-420 -418q-18 -18 -42 -41.5t-49.5 -44t-54 -35t-55.5 -14.5q-23 0 -47.5 8.5t-24.5 36.5zM823 694l4 -4l314 23l278 467 l-4 4z" />
<glyph unicode="B" horiz-adv-x="1454" d="M111 926q0 10 23.5 59t70.5 113q33 43 76 92t96 70q74 29 177 56t214 50t217.5 36t185.5 13q131 0 216.5 -23.5t134.5 -60.5t67.5 -81t18.5 -85q0 -84 -47.5 -146.5t-123 -110.5t-169.5 -81.5t-190.5 -57.5t-183.5 -39t-146 -28l-41 -36q37 -6 98 -15.5t134 -22 t146.5 -31.5t133 -46t97.5 -63.5t38 -86.5q0 -43 -48.5 -110.5t-146.5 -133t-249.5 -116.5t-358.5 -64q-16 -1 -33 -1q-40 0 -84 6q-62 10 -115 36.5t-86.5 71.5t-33.5 115q0 25 2 44t22.5 57t66.5 104.5t136 183.5q-23 2 -54.5 5t-61 10t-51 22.5t-21.5 42.5q0 33 46 51 t105.5 29.5t116.5 17.5t80 12q49 49 101 101.5t108.5 97.5t121 73.5t142.5 28.5q-6 -12 -13.5 -26.5t-28 -42t-57 -72.5t-100.5 -119q174 25 284.5 60t174 72.5t87.5 71.5t21 54q0 16 -13 37t-47 37.5t-91 24.5q-33 5 -76 5q-32 0 -70 -3q-18 -2 -66 -8.5t-122 -22.5 t-172 -43t-215 -70q10 -4 19.5 -11t9.5 -19q0 -23 -27 -33t-47 -14q-47 -8 -81 -15.5t-64.5 -16.5t-62.5 -20.5t-77 -25.5q-14 -4 -30.5 -9.5t-32.5 -5.5q-51 0 -51 56zM430 322q0 -33 26.5 -54.5t62.5 -35t75 -18.5t63 -5q68 0 150 22.5t151.5 55t116.5 70.5t47 69 q0 27 -31.5 47.5t-80.5 35.5t-108.5 25.5t-116 16.5t-103 9t-66.5 3l-114 -125q-20 -23 -46 -53.5t-26 -62.5z" />
<glyph unicode="C" horiz-adv-x="1464" d="M-18 109q0 113 43 227.5t109.5 222t148.5 203.5t161 170q43 41 106.5 94t137.5 107.5t155 106.5t160.5 94t153.5 66.5t135 24.5q92 0 148.5 -48t60.5 -146v-14q1 -65 -33 -142q-38 -86 -103 -176t-147.5 -177t-169.5 -157.5t-171 -117t-148 -56.5q-8 -1 -16 -1 q-35 0 -64 22q-35 28 -35 77q0 47 33 89t66 71l151 133q6 6 19.5 18.5t30 27t32 24.5t23.5 10q35 0 20 -47l4 -4q74 63 134.5 129t103.5 122t66.5 102t23.5 71q0 27 -15.5 37t-39.5 4q-14 -4 -65.5 -15.5t-141.5 -64.5t-220 -163.5t-302 -311.5q-53 -63 -99.5 -135 t-79 -144.5t-51 -143.5t-18.5 -128q0 -111 53 -171t164 -60q63 0 142 25.5t163 67.5t170 96t165 110.5t146.5 110.5t116.5 97q1 -11 1 -21q0 -25 -4 -45q-5 -26 -17.5 -48.5t-34 -44t-49.5 -47.5q-150 -145 -287 -242.5t-257 -156t-218.5 -84t-169.5 -25.5q-86 0 -158 25.5 t-124 74.5t-80.5 118.5t-28.5 158.5z" />
<glyph unicode="D" horiz-adv-x="1646" d="M111 950q0 27 11 71t17 71q20 82 69.5 122.5t125.5 75.5q74 31 162 57.5t180 46t183 30t171 10.5q57 0 123 -5.5t130.5 -17.5t125.5 -33.5t111 -52.5q55 -37 96 -87t67.5 -110.5t39 -126t12.5 -129.5q0 -111 -42 -209t-111 -183t-156 -153.5t-177 -119.5 q-84 -47 -190.5 -89t-220 -73t-226 -49.5t-209.5 -18.5h-41.5t-48 2.5t-48 7.5t-38.5 13q-29 16 -38 48t-9 61q0 57 18.5 110t46 103.5t62.5 96.5t70 89l489 610q-113 -10 -224.5 -32.5t-215.5 -63.5v-4h55q4 0 21.5 1t38 -1t36 -6t15.5 -17q0 -18 -24.5 -26t-39.5 -11 q-37 -6 -82 -19t-90 -26.5t-88 -23.5t-80 -10q-35 0 -56 18t-21 53zM411 294q-1 -6 -1 -12q0 -20 8 -36q6 -10 29.5 -22.5t87.5 -14.5q53 0 113.5 6t121.5 18.5t121.5 29t114.5 34.5q162 57 272.5 124.5t179 139.5t98 144.5t29.5 140.5q0 66 -31.5 112t-84 76.5t-118 47 t-132 25.5t-130 13t-108.5 6q-12 -49 -24.5 -79.5t-43.5 -71.5l-452 -590q-47 -63 -50 -91z" />
<glyph unicode="E" horiz-adv-x="1437" d="M43 104q0 51 38 123t128 148t241.5 149.5t376.5 128.5v6q-174 6 -283.5 27t-171 53.5t-84 72.5t-22.5 83q0 76 57.5 165t176 167t302 130t437.5 52h69t89 -5t82 -18.5t49 -37.5l4 -86q1 -29 1 -50v-19q-1 -26 -12.5 -42t-35 -26.5t-66.5 -24.5q-49 -16 -95 -39l-85 -42.5 t-66.5 -34.5t-39.5 -17q-6 -2 -14.5 4t-8.5 16t16.5 30.5t40 42t47 41t37.5 32.5h-21q-170 0 -304 -30q-142 -32 -238 -75t-145 -89q-45 -43 -45 -69q0 -5 5 -22q3 -10 20.5 -19.5t55 -18.5t110.5 -15.5t185 -8.5q37 -1 80 -1q86 0 195 3h30.5t46 -4t42 -13t18.5 -28 q0 -14 -8 -33.5t-19.5 -39t-24.5 -36t-24 -24.5q-12 -10 -37.5 -18t-55.5 -15.5t-58.5 -12.5t-42.5 -7q-197 -33 -337 -87t-230.5 -112.5t-132.5 -111.5t-42 -80q0 -29 44 -45.5t128 -20.5q19 -1 39 0q73 0 168 10q121 14 277 62q111 35 210 97.5t201 119.5q3 -44 3 -81v-18 q-1 -44 -13 -83t-37.5 -74t-70.5 -72q-27 -23 -89.5 -62.5t-157.5 -78.5q-95 -40 -223 -68q-112 -25 -248 -24h-38q-72 2 -142.5 14.5t-138.5 30.5q-33 8 -59.5 34.5t-45 59.5t-28.5 70t-10 67z" />
<glyph unicode="F" horiz-adv-x="1423" d="M96 813q0 23 18.5 68t45 93t52.5 91t42 61q31 37 65.5 61.5t74.5 41t82 27t87 20.5q201 45 336 71.5t225 39t147.5 15.5t102.5 3q27 0 64 -3t69.5 -13.5t55 -33t22.5 -59.5q0 -57 -37 -152t-89 -197.5t-106.5 -195t-88.5 -143.5l137 -22l-82 -131q-12 -20 -23.5 -38 t-31.5 -28q-35 -16 -84 -23.5t-84 -15.5l-351 -368q-27 -29 -81 -79t-116.5 -99.5t-121.5 -86t-94 -36.5q-23 0 -36 14t-13 37q0 20 14 50t33.5 58.5t41 54t36.5 42.5q47 53 96 81.5t117 47.5l239 253l-305 -24h-22.5t-34 2t-31.5 8t-16 17q-2 17 -2 33q0 23 5 45 q9 36 50 63q25 14 59.5 29.5t73.5 29t77 23.5t66 16l314 60q25 33 64.5 97t77.5 135t64.5 137.5t26.5 103.5q0 31 -19.5 35t-45.5 4q-2 0 -7.5 1t-21.5 0t-50 -5.5t-91 -12.5q-178 -29 -351.5 -75t-337.5 -117l5 -4l106 2q10 0 24.5 -1.5t14.5 -17.5q0 -18 -24.5 -24.5 t-36.5 -10.5l-238 -73q-53 -16 -84 -20.5t-47.5 -0.5t-21.5 14.5t-5 24.5z" />
<glyph unicode="G" horiz-adv-x="1427" d="M63 383q0 66 23 137.5t58.5 140t80.5 130t90 108.5q53 57 148.5 135t231.5 153t310.5 135t387.5 85q10 1 18 1q17 0 30 -5q19 -8 36 -31q16 -23 26 -62.5t10 -68.5q0 -41 -26.5 -65.5t-56.5 -45.5q-106 -70 -170 -107.5t-100 -55t-51 -20.5t-22 -3q-27 0 -26 29 q0 16 22.5 33.5t32.5 25.5l86 70l-4 4q-154 -45 -285 -113.5t-239.5 -146.5t-191.5 -160t-137 -153.5t-81 -128.5q-21 -46 -21 -70q0 -6 1 -10q8 -33 22.5 -55.5t48.5 -22.5q33 0 73 21.5t67 41.5l749 570q10 10 21.5 18t25.5 8t39 -13t37 -22q16 -10 33.5 -22t17.5 -33 q0 -16 -11 -37.5t-17 -34.5q-66 -133 -161 -275t-214 -329l4 -4l451 291q-2 -35 -5.5 -58.5t-27 -52t-77.5 -71.5t-159 -113l-330 -223q-20 -29 -58 -73t-86 -94t-101.5 -101.5t-105.5 -91.5t-99 -65.5t-82 -25.5q-39 0 -56.5 25.5t-19.5 60.5v6q0 49 29 103q31 59 83 115.5 t120.5 106.5t144.5 87q94 121 179 246t149 260l-4 4l-228 -166q-39 -29 -90 -66.5t-106.5 -71.5t-109.5 -55q-42 -17 -78 -17q-10 0 -19 1q-121 14 -175.5 96t-54.5 191z" />
<glyph unicode="H" horiz-adv-x="1845" d="M131 852q0 23 6 53.5t15.5 63t21.5 61.5t27 47q27 31 97.5 67t152 67.5t160.5 58t122 41.5q63 20 141 39.5t159 34t160 22.5t144 8q63 0 106.5 -17.5t69 -45t36 -64.5t10.5 -74q0 -47 -20.5 -94t-51.5 -90t-67 -82t-66 -71l-232 -246l316 37l370 465q8 12 27.5 36.5 t42.5 49t45.5 43t38.5 18.5q20 0 27.5 -15.5t7.5 -31.5q0 -25 -5 -47.5t-21.5 -53t-50.5 -76.5t-91 -116l-221 -272q72 -2 143.5 -7.5t134.5 -44.5q-72 -57 -134 -125.5t-112 -148.5q-47 10 -96 14q-24 2 -52 2t-60 -2q-12 -20 -30 -46.5t-35 -55.5t-29.5 -57.5t-12.5 -51.5 q0 -29 8 -61.5t15 -60.5q-25 6 -55.5 -7.5t-61.5 -29t-58.5 -26.5t-48.5 -5q-27 11 -36 33q-5 12 -5 30q0 17 4 39q8 47 35 118.5t84 180.5l-377 -49l-213 -250q-10 -12 -22 -32.5t-27.5 -39t-33 -31.5t-35.5 -13q-35 0 -68 26.5t-33 61.5q0 20 23.5 55t53.5 72t58.5 71.5 t38.5 55.5q-36 -3 -66 -3q-60 0 -93 13q-50 20 -50 74q0 18 10.5 44.5t27 51t37 42t40.5 17.5q10 0 22.5 -7t24.5 -7q8 0 18.5 3t42 11t95 22.5t180.5 37.5q59 57 164.5 171.5t241.5 268.5q10 10 24.5 27.5t28.5 38t23.5 40t9.5 35.5q0 29 -27 37t-45 8q-82 0 -265.5 -55 t-436.5 -160q10 -4 19 -10t9 -20q0 -23 -16.5 -33t-34.5 -17q-57 -20 -89 -32.5t-56.5 -24.5t-53 -27.5t-82.5 -42.5q-18 -10 -38.5 -19t-42.5 -9q-35 0 -48.5 32.5t-13.5 61.5z" />
<glyph unicode="I" horiz-adv-x="1009" d="M156 898q44 81 111 156.5t153 142.5t177 116t182 77.5t169 28.5q51 0 89 -18.5t63.5 -49t38 -72.5t12.5 -89q0 -66 -25.5 -152t-67.5 -180t-96.5 -191.5t-108.5 -188.5t-106.5 -171t-91.5 -135q6 -16 6 -34.5t-6 -38.5q-12 -40 -36.5 -75.5t-55.5 -60t-55 -26.5h-7 q-15 0 -31 6q-20 8 -38 21t-29.5 31.5t-11.5 37.5q0 23 11.5 43t23.5 37q133 190 235.5 355t171 293t103.5 216t35 127q0 25 -12.5 54.5t-43.5 29.5q-41 -6 -114.5 -44t-153.5 -96.5t-154.5 -133t-115.5 -152.5l51 10q16 4 38.5 8t39.5 4q18 0 18 -20q0 -23 -22.5 -40 t-38.5 -30q-12 -8 -34.5 -25.5t-48.5 -36t-50.5 -31.5t-38.5 -13t-46 15t-63.5 39t-54.5 50q-21 23 -21 43q-1 71 50 163z" />
<glyph unicode="J" horiz-adv-x="1114" d="M-68 -414q0 53 31 120t103.5 145.5t193.5 171t299 196.5l293 492q72 123 123 255t69 273q-115 -39 -218 -114.5t-186 -175t-139.5 -215.5t-78.5 -234q43 27 69.5 43t41 24t20.5 11.5t8 3.5q18 0 19 -17q0 -10 -13.5 -27.5t-30 -37t-34 -35.5t-23.5 -25 q-18 -23 -44.5 -51.5t-57.5 -56t-63.5 -46t-63.5 -18.5q-29 0 -45.5 16.5t-24.5 39t-9 49t-1 49.5q0 51 13.5 112.5t34 122t46 117.5t49.5 105q80 152 189.5 255t219 166.5t205 91t150.5 27.5q29 0 55.5 -14t47 -34.5t33 -43t12.5 -39.5q0 -49 -14.5 -117.5t-59.5 -178 t-129 -269.5t-221 -393l4 -4l237 104l27 -65l-362 -172l-416 -482q-18 -23 -53 -59.5t-75 -72.5t-80 -62.5t-71 -26.5q-37 0 -58.5 32t-21.5 64z" />
<glyph unicode="K" horiz-adv-x="1720" d="M145 891q0 14 6.5 40.5t14.5 55.5t16 54.5t15 41.5q10 31 19 48.5t21.5 31t30 25.5t41.5 31l113 84q14 10 30.5 20t32.5 10q20 0 21 -22q0 -6 -1 -10.5t-9.5 -13.5t-27.5 -25.5t-56 -49.5l4 -4q39 14 112.5 45t171 65t211 61.5t230.5 33.5q10 1 19 1q26 0 37 -9 q15 -12 40 -41q16 -23 37.5 -54.5t21.5 -60.5t-17 -57.5t-34 -50.5l-104 -152l4 -4l653 309q8 4 25.5 12.5t36 15.5t36 13t25.5 6q39 0 39 -38q0 -10 -21.5 -49.5t-58.5 -79t-85 -66.5q-31 -17 -63 -17q-18 0 -36 5l-752 -375q-23 -16 -35 -32.5t-12 -43.5q0 -16 10.5 -28.5 t25.5 -23.5t30.5 -19.5t27.5 -14.5l518 -301q35 -20 69 -42.5t60.5 -50.5t43 -62.5t16.5 -77.5q0 -12 -2 -28.5t-7.5 -33t-15.5 -28t-26 -11.5q-10 0 -23.5 5t-29 12.5t-29 15.5t-21.5 12l-809 445l-164 -197q0 -37 -26.5 -79t-66.5 -76.5t-83 -58t-73 -23.5q-20 0 -38 11 t-18 34q0 29 13.5 49t29.5 43l305 393q-16 23 -25 40t-9 46q0 61 41 98t88 62l217 112l198 312q-129 -31 -224 -62t-183 -66.5t-179.5 -79.5t-211.5 -104q-25 -12 -56.5 -25.5t-60.5 -13.5q-63 0 -64 62z" />
<glyph unicode="L" horiz-adv-x="1433" d="M-115 33q0 18 15.5 45.5t37 57.5t42 56.5t32.5 43.5q14 18 27.5 34.5t36.5 22.5q66 16 132 21t132 18l596 708q18 23 54 61t80 81t94 88t97.5 82t89.5 59.5t68 22.5q27 0 46.5 -12.5t31.5 -32t18.5 -43t6.5 -46.5q0 -49 -28 -114.5t-64.5 -134t-76.5 -132t-65 -106.5 q12 -2 24.5 -7t12.5 -22q0 -14 -14.5 -31.5t-32.5 -34t-37.5 -30.5t-30.5 -22q-12 -10 -36.5 -27.5t-51 -35t-51 -31t-39.5 -13.5q-29 0 -38 19.5t-9 42.5q0 57 28.5 124.5t71.5 134t90.5 127t84.5 101.5q12 14 13 26.5t-9 12.5t-33 -16.5t-63 -56.5t-100 -105.5 t-146 -163.5l-410 -469q127 -25 228.5 -44.5t195.5 -40t189.5 -42t209.5 -47.5l-108 -109q-49 -49 -81 -74.5t-80 -30.5q-13 -1 -28 -1q-42 0 -103 10q-83 14 -233 45q-135 29 -271 45q-109 13 -220 13q-28 0 -55 -1l-45 -20q-37 -12 -79 -30.5t-83 -18.5q-23 0 -43.5 7 t-20.5 36z" />
<glyph unicode="M" horiz-adv-x="2340" d="M92 920q16 84 28.5 155.5t24.5 85.5q6 8 11.5 15.5t22 20.5t52 39t103.5 75q8 6 24.5 17t26.5 11q8 0 16.5 -5t8.5 -15t-25 -38t-84 -81l4 -4l232 107q6 2 31.5 14t62.5 28.5t81 34t85 32.5t74.5 24.5t52.5 9.5q37 -2 49 -20.5t28 -45.5l50 -86q10 -20 17 -37.5t7 -39.5 q0 -25 -16.5 -73t-38 -102.5t-43 -103.5t-29.5 -78l4 -4l326 315q29 27 73 66t91 75t93 61.5t77 25.5q16 0 41.5 -6.5t49 -23.5t41 -45t17.5 -67q0 -57 -35.5 -137t-85 -163t-101.5 -158.5t-83 -124.5l4 -4q190 164 371.5 328.5t384.5 324.5q20 16 48 41t56 25 q20 0 45 -21.5t46.5 -50.5t36 -58.5t14.5 -46.5q0 -16 -10.5 -35.5t-24.5 -40t-29.5 -38t-23.5 -29.5l-318 -387q-35 -43 -77 -99.5t-76.5 -118t-58 -126t-23.5 -121.5q0 -31 17 -65.5t54 -34.5q43 0 165 79.5t329 280.5l8 -78q-12 -35 -54 -85t-101.5 -104t-130 -108.5 t-140.5 -96.5t-133 -68.5t-106 -26.5q-51 0 -85 21.5t-55.5 57.5t-31 80t-9.5 89q0 92 43 192.5t105.5 198.5t132 188t123.5 160l-4 4q-88 -74 -157 -133t-129 -113.5t-115.5 -108.5t-113 -117.5t-123 -141.5t-145.5 -181q-12 -14 -34.5 -40.5t-48 -52t-52 -44t-45.5 -18.5 q-31 0 -51.5 23.5t-32.5 57.5t-18 68.5t-6 57.5q0 43 28 85.5t53 75.5l140 183q72 94 123 164.5t89 128t65.5 106.5t54.5 100q24 43 24 64q0 25 -20 25q-18 0 -36 -15.5t-28 -27.5l-491 -533l-308 -414q-12 -18 -28.5 -39.5t-36 -40t-41 -32t-45.5 -13.5q-33 0 -56.5 27 t-42 62.5t-30.5 73.5t-21 63l428 540q80 143 118 228.5t48 129.5t0 56t-22 12t-31.5 -9l-32.5 -15q-158 -74 -259 -125t-162.5 -84t-93.5 -51.5t-50 -26.5t-31.5 -10t-40.5 -2q-25 0 -41 20q-11 13 -11 33q0 11 3 23z" />
<glyph unicode="N" horiz-adv-x="1712" d="M98 823.5v24.5q0 61 27 122.5t67.5 119t90 105.5t96.5 85t83 57.5t52 20.5q8 0 15.5 -4t7.5 -13l-3 -7q-4 -7 -15 -22.5t-33.5 -40t-59.5 -61.5l4 -4q55 31 127 69t148.5 72.5t153.5 58.5t140 24q53 0 95 -29q37 -26 37 -74q0 -6 -1 -12q-4 -61 -23.5 -123t-60 -146.5 t-107.5 -202.5t-165 -292l4 -4q147 178 255 301t182.5 202.5t118.5 120.5t63 54q23 14 60.5 40.5t76.5 53.5t72.5 45t52.5 18q12 0 41 -16t56.5 -44t49 -62.5t21.5 -71.5q0 -49 -44 -122t-111.5 -171t-148.5 -221t-155 -268q-23 -45 -35 -76t-18 -50.5t-8 -29.5t-2 -12 q0 -29 9 -56.5t44 -27.5q31 0 90 44t122.5 103t119 116.5t77.5 86.5q4 -37 6.5 -57.5t2.5 -34.5q0 -12 -5.5 -21.5t-17.5 -25.5q-111 -143 -206 -237.5t-171 -151t-132 -80t-89 -23.5q-39 0 -65.5 15.5t-43 41t-23.5 57t-7 64.5q0 86 34.5 176t75.5 164l349 641l-5 4 q-129 -123 -252.5 -246.5t-234.5 -246.5q-23 -25 -70 -87.5t-104 -138t-113.5 -151.5t-97.5 -131q-10 -16 -27.5 -37t-38.5 -21q-16 0 -43.5 13.5t-54 34t-45 42t-18.5 39.5q0 10 8 23.5t12 22.5q20 33 64.5 105.5t97.5 166.5t108.5 197.5t101.5 195.5t75.5 163t29.5 99 q0 20 -6 31.5t-26 11.5q-53 0 -216 -83t-423 -255q-12 -10 -29.5 -18t-32.5 -8q-14 0 -22.5 10t-11.5 25.5t-3 30z" />
<glyph unicode="O" horiz-adv-x="1308" d="M72 408q-1 12 -1 25q0 99 43 199q48 113 132 218.5t194.5 201t229 170t237.5 123t217 62.5q8 1 17 1q28 0 55 -16q35 -20 63.5 -49.5t46 -58.5t17.5 -41q0 -16 -11.5 -27.5t-27.5 -20.5t-32.5 -14t-28.5 -10q-25 -10 -46 -21.5t-44 -23.5l2 -2q44 12 81 12q14 0 26 -2 q46 -6 77 -28q59 -49 63 -162v-11q0 -97 -34 -201q-36 -110 -102 -217t-157.5 -202.5t-197 -167t-221.5 -114.5q-111 -41 -224 -41h-10q-61 0 -122.5 21.5t-112.5 69.5t-87 128t-42 199zM279 272q0 -53 24.5 -93t83.5 -40q43 0 95.5 14.5t104.5 38t99 51t80 56.5 q102 88 183 176t136.5 171t85 157t31.5 129v7q0 33 -18 61q-20 32 -62 32q-68 0 -144.5 -28.5t-149 -74.5t-133 -101.5t-97.5 -110.5q-10 -12 -27.5 -33.5t-35.5 -21.5q-20 0 -23.5 21.5t-5.5 35.5q-43 -43 -84 -94.5t-73 -108.5t-51 -118.5t-19 -125.5z" />
<glyph unicode="P" horiz-adv-x="1519" d="M94 -25q0 33 23.5 88.5t55.5 114t64.5 111.5t51.5 86q-37 23 -64.5 53.5t-27.5 77.5q0 45 38.5 77.5t92 57.5t109 40t87.5 26l326 430q-135 -2 -253 -23.5t-211 -47.5t-155.5 -46.5t-85.5 -20.5q-10 0 -21 3.5t-11 17.5q0 18 19.5 53t44 74t50 73.5t37.5 51.5 q29 39 71 55t85 29q135 39 273 55t278 16q190 0 315 -29.5t200 -83.5t104.5 -132t29.5 -172q0 -164 -93 -299.5t-254 -227.5t-377 -132q-125 -23 -261 -23q-98 0 -201 12l-84 -139q14 -4 26.5 -12.5t12.5 -24.5q0 -20 -31.5 -66.5t-72.5 -99.5q-20 -29 -51 -62.5t-70 -33.5 q-37 0 -53.5 19.5t-16.5 53.5zM616 582q58 -16 110 -20q28 -2 54 -3q24 0 47 2q150 8 273 60.5t208 122.5q85 68 128 140q36 59 36 104q0 9 -2 18q-6 31 -38.5 54t-80.5 39.5t-104.5 28t-111 17.5t-99.5 8t-67 2q-2 -41 -12 -66.5t-33 -58.5l-215 -297q29 0 57.5 4t51 5 t36.5 -2t14 -17q0 -16 -27.5 -26.5t-63.5 -17.5t-69.5 -14.5t-45.5 -15.5z" />
<glyph unicode="Q" horiz-adv-x="1398" d="M39 6q0 39 11 84t30.5 86t43 74t48.5 49q31 22 73 22q6 0 12 -1q50 -3 120 -3q244 129 421 256t292.5 238t171 196t55.5 128q0 14 -9.5 23t-22.5 13.5t-27.5 6.5t-26.5 2q-31 0 -109 -19.5t-179 -56.5t-213 -91.5t-206 -123.5v-4q57 0 95 2t60.5 1t32 -8.5t9.5 -25.5 t-13.5 -24.5t-27.5 -10.5q-84 -16 -167 -46t-157 -68q-29 -12 -47 -14.5t-28.5 12t-14.5 50t-4 99.5q-3 93 -3 103q0 37 22 65q27 35 90 78t148 87t183.5 85t196.5 71.5t188.5 50t155.5 19.5q55 0 101.5 -19.5t80 -53t53 -82t19.5 -103.5q0 -82 -47 -166t-124 -166 t-172 -159.5t-192.5 -146.5t-186.5 -125t-150 -97q135 -27 228 -44.5t157.5 -28.5t106.5 -15t77 -4q47 0 91 10t91 16q-31 -100 -62.5 -162.5t-49.5 -95.5q-23 -41 -97 -45q-11 -1 -24 -1q-72 0 -197 20l-684 106q-18 -12 -38.5 -26.5t-43 -28.5t-46 -23.5t-46.5 -9.5 t-36 9.5t-13 35.5z" />
<glyph unicode="R" horiz-adv-x="1648" d="M96 -55q0 29 9.5 52t25.5 48l191 313q-12 2 -31 9.5t-34 16.5t-26.5 21.5t-7.5 28.5q6 39 29.5 77t63.5 66.5t95.5 47t127.5 20.5l303 438q-113 -18 -224.5 -41.5t-216.5 -64.5v-4q49 -4 81 -6t52.5 -4.5t28.5 -7.5t8 -17t-15 -17.5t-24 -5.5l-159 -16q-43 -4 -94.5 -12 t-96.5 -8q-23 0 -48 10t-25 39q0 25 10 59.5t26.5 69.5t34 67.5t33.5 51.5q37 43 132 82.5t225 71.5t285 50.5t310 18.5q47 0 108.5 -3t127 -12.5t129 -27t113 -49t80 -77.5t30.5 -112q0 -39 -11 -86t-31.5 -92t-47.5 -85t-57 -64q-43 -35 -82 -58.5t-90.5 -42t-119 -34 t-165.5 -35t-232.5 -43t-318.5 -58.5v-4l553 -176q131 -43 201.5 -73.5t103.5 -53.5t39 -36t10 -19q15 -27 23 -66q8 -35 7 -66v-8q-1 -34 -13.5 -60t-38.5 -26q-20 0 -54 11.5t-72 27t-73 31t-55 23.5l-758 280l-176 -256q8 -27 -6.5 -53.5t-40 -47t-55 -33.5t-50.5 -13 q-18 0 -32.5 11t-14.5 32zM735 692l510 133q31 8 91.5 33t120 58.5t103.5 72.5t44 76q0 25 -35 37t-81 18t-90 7h-26q-23 0 -35 -1l-379 -26v-9q0 -48 -20 -84q-22 -40 -51 -83z" />
<glyph unicode="S" horiz-adv-x="1458" d="M12 88q0 16 11.5 42t29 53.5t34.5 51t30 35.5q8 8 32.5 18.5t52 19.5t53.5 15.5t38 6.5q16 0 16 -15q0 -16 -12 -24t-23 -15q-10 -6 -17 -13l-17 -17v-4q71 -3 136 -3q185 -1 318 21q180 28 285.5 68.5t148.5 79t43 51.5q0 27 -42 50t-108.5 44.5t-145 39t-153.5 32 t-133.5 23.5t-82.5 14q-39 6 -76 16t-66.5 29.5t-48 49t-18.5 77.5q0 25 5 62.5t14.5 77.5t21.5 75.5t24 56.5q25 39 103 91t194.5 98t267 78t318.5 32q125 0 258 -29q35 -8 44 -22.5t9 -44.5q0 -57 -10 -94t-30.5 -62t-53 -42t-78.5 -36q-33 -12 -54 -21.5t-40.5 -19.5 t-39 -24.5t-50.5 -34.5q-10 -6 -24.5 -13.5t-26.5 -7.5q-33 0 -33 31q0 4 33 45t117 98l-4 5q-199 -6 -341.5 -41t-234.5 -77t-137 -81t-45 -57q0 -8 1 -14.5t13 -14.5t43 -20.5t92.5 -29t156.5 -41t239 -57.5q156 -37 229.5 -109.5t73.5 -148.5q0 -102 -54.5 -177 t-142.5 -127t-197.5 -85t-222 -51t-216 -25.5t-177.5 -7.5q-31 0 -86 2t-109.5 13.5t-94.5 35t-40 68.5z" />
<glyph unicode="T" horiz-adv-x="1386" d="M119 930q0 25 7 58.5t11 60.5q8 49 15.5 83.5t20.5 60.5t41 46.5t77 42.5q176 80 374.5 107.5t391.5 27.5q78 0 155.5 -5t153.5 -21q47 -10 72.5 -29t40 -46.5t26 -66.5t31.5 -92q3 -9 3 -19t-3 -22q-6 -22 -19.5 -45.5t-30 -45t-26.5 -38.5l-481 -729l4 -4q16 6 31.5 0 t15.5 -29q0 -16 -10 -35.5t-23.5 -40t-29 -39t-23.5 -30.5q-14 -18 -35.5 -46t-46 -55.5t-50.5 -47t-50 -19.5q-39 0 -75 21.5t-36 64.5q0 51 29 121.5t74 150.5t102 165t113.5 162t107.5 142.5t84 108.5l205 262q-266 -4 -524 -42t-512 -116v-4q10 -2 37.5 -6t55.5 -11 t49.5 -18.5t21.5 -25.5q0 -16 -14.5 -19.5t-37 -1.5t-52 6.5t-60.5 4.5l-119 -3q-35 0 -63.5 7.5t-28.5 48.5z" />
<glyph unicode="U" horiz-adv-x="1789" d="M98 821q10 66 51 148t112 157.5t172.5 135t236.5 79.5q45 6 103 20.5t118.5 29t118 24.5t100.5 10q45 0 72.5 -24.5t41.5 -60.5q13 -34 12 -73v-6q-1 -42 -11 -77q-12 -37 -28.5 -67t-37 -58.5t-45 -57t-51.5 -65.5q-18 -18 -60 -66.5t-94.5 -110t-109 -130t-102.5 -130 t-75.5 -107.5t-29.5 -64q0 -37 41 -37q20 0 63 26.5t97.5 66.5t115 90t113.5 97t95 86t61 58q172 170 285.5 283.5t185 183t109.5 98.5t61 29t38 -14.5t25 -35t15.5 -43t5.5 -38.5q2 -5 2 -12q1 -13 -7 -30q-12 -26 -54 -87.5t-120.5 -171t-210.5 -293.5q-61 -86 -97 -148.5 t-55.5 -106.5t-25.5 -70t-6 -38q0 -35 22.5 -58.5t55.5 -23.5q39 0 97.5 32t117.5 75t112.5 88t84.5 69q4 -27 7 -40t3 -27t-31 -48t-80 -76t-112.5 -87t-127 -82t-124 -60.5t-105.5 -23.5q-72 0 -117 45t-45 117q0 88 32 159.5t75 143.5l168 285l-4 4q-397 -387 -607 -559 q-198 -163 -256 -163q-3 0 -6 1q-98 16 -145 71.5t-47 139.5q0 49 28.5 107.5t68.5 116.5t85 111.5t76 90.5q100 119 173 199.5t119 132t67.5 78t21.5 38.5q0 20 -21 21q-10 0 -30.5 -9.5t-28.5 -13.5q-41 -18 -67.5 -28.5t-51 -21.5t-51.5 -23.5t-69 -32t-103 -50 t-154 -75.5q-20 -10 -46.5 -21.5t-55.5 -21.5t-56.5 -16.5t-49.5 -6.5q-26 0 -42 8q-12 6 -13 24q0 5 1 11z" />
<glyph unicode="V" horiz-adv-x="1431" d="M104 733q0 72 26 142.5t79 119.5q27 25 92.5 66t150.5 88t180 93t182 85t158.5 62.5t108.5 25.5q27 0 52.5 -20.5t44 -48t30 -54t11.5 -37.5q0 -16 -9.5 -36.5t-21.5 -43t-25.5 -43t-21.5 -32.5q-137 -219 -223.5 -366.5t-133.5 -243t-64.5 -144.5t-19.5 -72 q-2 -18 0 -40.5t8.5 -42t17.5 -30.5t28 -5q14 4 32.5 14t47 36.5t70.5 75t101.5 130.5t140.5 201.5t187 289.5q-2 12 -2 24q-1 41 19 89q26 64 66 120t82 92q34 29 56 29q6 0 11 -2q33 -13 37 -69v-8q0 -56 -44 -162q-48 -114 -159 -293.5t-307 -435.5q-25 -33 -70 -92.5 t-97.5 -118t-105.5 -102.5t-94 -44q-31 0 -72 22.5t-77 61.5q-36 38 -60 90q-23 48 -22 100v9q0 20 5 50t19 77t42 113.5t75 160t116.5 217t166.5 283.5l-5 4q-139 -66 -275 -138.5t-255 -176.5l4 -4l115 6q6 0 19.5 1t27.5 0t24.5 -5t10.5 -17q0 -12 -12.5 -19t-28 -11 t-29.5 -6.5t-20 -4.5q-70 -14 -128.5 -34.5t-102.5 -39t-72.5 -31.5t-40.5 -13q-14 0 -23.5 13t-13.5 31.5t-6.5 36t-2.5 27.5z" />
<glyph unicode="W" horiz-adv-x="2002" d="M110 896q-3 11 -2 27q0 22 6 53q10 52 50 142q10 25 22.5 42.5t27.5 31.5t32.5 27.5t40.5 29.5l141 111q8 8 20.5 15t24.5 7q6 0 13.5 -8t-9.5 -33l-57 -65l4 -4q127 45 254 88t268 45q47 0 90 -7t74 -48q12 -16 23.5 -43t20.5 -56.5t14.5 -58.5t5.5 -49q0 -16 -4.5 -39 t-20.5 -58.5t-51 -91t-98.5 -140.5t-160 -201.5t-233.5 -276.5q-16 -20 -21 -33.5t-3 -22t9 -13.5t13 -7h1q11 0 75 49q68 53 180.5 161t266 266.5t337.5 367.5q16 18 41 50t54.5 63.5t64.5 54t74 22.5q20 0 37.5 -16t29 -37.5t17.5 -44t6 -35.5q0 -10 -8 -28.5t-20.5 -37 t-24 -36t-17.5 -25.5q-23 -31 -64.5 -93t-93 -140t-103.5 -165t-96 -165t-70.5 -140.5t-26.5 -92.5q-2 -14 8 -24.5t20 -6.5q68 31 156 102.5t180 174t181 232.5t159 279q-6 18 -8 37t-2 39q0 27 19.5 62.5t46 68.5t51 56.5t36.5 23.5q14 0 25.5 -13.5t18 -30.5t8.5 -35.5 t2 -28.5q-4 -113 -52.5 -244t-122 -261t-165.5 -252t-186.5 -218.5t-181.5 -157.5t-150 -70q-6 -1 -12 -1q-23 0 -53 12q-38 14 -73.5 41.5t-60.5 66.5t-25 84q0 47 12.5 103.5t31 114t39 112.5t36.5 98l-4 4l-287 -309q-80 -86 -144.5 -149.5t-115.5 -103.5t-92 -59.5 t-76 -19.5q-31 0 -64.5 29t-60 68.5t-42.5 81.5q-12 33 -12 57q0 6 1 12q2 14 4 28.5t15.5 41t45 73.5t97 128t171 202t265.5 295q16 20 40 46t24 54q0 29 -22.5 40.5t-49.5 11.5q-29 0 -78 -12.5t-106.5 -33t-121 -46t-120.5 -51t-104.5 -49t-73.5 -40.5q-29 -16 -66 -32.5 t-71 -16.5q-8 0 -23 8t-21 36z" />
<glyph unicode="X" horiz-adv-x="1409" d="M94 858q0 20 14.5 61.5t36 84.5t45 80.5t39.5 52.5q61 53 160.5 101t212.5 84t221.5 57.5t188.5 21.5q55 0 84.5 -14.5t43 -40t13.5 -63.5t-4 -83l-25 -254l334 314q16 16 45 39.5t53 23.5q23 0 30 -12.5t7 -30.5q0 -27 -15 -65.5t-40 -74.5q-24 -36 -56 -60 q-27 -21 -56 -22q-5 0 -9 1l-309 -297l-41 -477q-2 -18 -4.5 -40t1 -39.5t15 -28.5t37.5 -11q27 0 60.5 15.5t66.5 36t62.5 42t52.5 35.5l37 -53q-31 -41 -86.5 -93.5t-119 -100.5t-128 -81t-115.5 -33q-49 0 -72.5 30t-33.5 72q-8 36 -8 76v12q2 46 4 81l16 311l-389 -366 q-74 -72 -124 -111t-81 -59.5t-46 -24.5t-24 -4q-27 0 -41 16.5t-14 42.5q0 45 36 99.5t88 102.5t111.5 83t104.5 45l393 373l21 463q-145 -49 -290.5 -98.5t-281.5 -123.5v-4q86 -6 118 -6t32 -18q0 -10 -13.5 -16.5t-46 -15.5t-85 -24.5t-132.5 -40.5q-12 -4 -27.5 -7 t-30.5 -2t-25.5 10.5t-10.5 27.5z" />
<glyph unicode="Y" horiz-adv-x="1519" d="M98 766q-1 5 -1 12q0 23 14 70l30 110q16 59 46 88t81 62q63 39 167 92t215.5 102.5t219 83t181.5 33.5q53 0 98 -25.5t45 -86.5q0 -35 -25.5 -84t-60.5 -99.5t-71 -96.5t-58 -75q-121 -156 -197.5 -250t-122 -151t-61.5 -86t-18 -51q-2 -20 28 -30q5 -1 11 -1 q27 0 69 35q72 59 110 89t64.5 50.5t54 44t84 72.5t152.5 136l256 232q8 8 22.5 21.5t31 27t32.5 23.5t29 10q18 0 35.5 -13t31 -31.5t21.5 -40t8 -38.5q0 -23 -18.5 -53t-63.5 -91.5t-118.5 -161t-184.5 -257.5q-63 -90 -116.5 -165.5t-88.5 -132t-46 -88.5t9 -34 q10 0 21.5 5.5t37 21.5t76 45t140.5 76q102 51 149 51t47 -24q0 -12 -15 -32t-35.5 -38.5t-42 -34.5t-32.5 -22q-49 -37 -116.5 -91.5t-136 -113t-130 -115.5t-98.5 -102q-16 -18 -37.5 -42t-46 -45.5t-50.5 -36t-52 -14.5q-43 0 -66.5 30t-23.5 71q0 51 37.5 138t97 190.5 t133.5 215t146.5 213t134 184.5t98.5 128l-4 4l-543 -469q-23 -20 -57.5 -49t-73.5 -56.5t-78 -47t-70 -19.5q-25 0 -52 11t-48.5 30.5t-33 44.5t-7.5 51q2 10 3 25.5t10.5 40t30 62.5t60.5 96.5t103 141.5t158 195q131 158 200.5 245t69.5 124q2 10 -7 15t-20 7 q-117 -59 -211 -108t-172.5 -92t-148.5 -81t-139 -75q-10 -8 -32 -16t-34 -8q-29 0 -35 18z" />
<glyph unicode="Z" horiz-adv-x="1318" d="M111 -336q0 45 54 124t163.5 174t276.5 201.5t392 207.5q0 25 -12 53.5t-46 44.5q-27 13 -71 13q-10 0 -22 -1q-60 -4 -154 -45l-213 -94q-72 -31 -107.5 -50.5t-52 -28.5t-24.5 -12t-23 -3q-33 0 -32 28q0 6 13 52.5t40 113.5q10 29 18 47.5t35 38.5q29 20 75 47 t101.5 55.5t112.5 55.5t107.5 50.5t86 40t48.5 22.5q96 53 158.5 89t99 62.5t51 48t14.5 48.5t-25.5 41t-48.5 14q-76 0 -162.5 -21.5t-203.5 -72t-271.5 -133t-365.5 -203.5q4 102 16.5 181t43 141.5t88 116.5t149.5 108q66 37 152.5 71.5t180 61t185.5 42t168 15.5 q63 0 121.5 -11.5t103.5 -39t73 -74.5t28 -121q0 -102 -52.5 -175t-130.5 -127t-166 -96t-161 -85q57 -10 102 -26.5t78 -43t53.5 -67.5t28.5 -103q61 20 92 25.5t44 1.5t13 -11v-12q0 -10 -3 -18t-17.5 -17.5t-45 -22.5t-83.5 -34q-14 -78 -47 -150.5t-77 -138t-99.5 -124 t-112.5 -109.5q-45 -41 -122 -92t-161 -95t-160.5 -75t-121.5 -31q-18 0 -47 12.5t-56.5 31t-48 41t-20.5 42.5zM338 -262q0 -10 9 -15.5t15 -5.5q33 0 85.5 23.5t113 64.5t125 94.5t120.5 112t100.5 119t62.5 115.5q-135 -68 -251 -148t-200 -153.5t-132 -131t-48 -75.5z " />
<glyph unicode="[" horiz-adv-x="778" d="M113 -268l444 1714h598l-55 -180h-328l-350 -1354h354l-57 -180h-606z" />
<glyph unicode="\" horiz-adv-x="684" d="M289 1378h139l156 -1458h-142z" />
<glyph unicode="]" horiz-adv-x="778" d="M-98 -268l55 180h328l350 1354h-354l57 180h606l-444 -1714h-598z" />
<glyph unicode="^" horiz-adv-x="1323" d="M342 489l385 814h125l385 -814h-139l-312 685l-311 -685h-133z" />
<glyph unicode="_" horiz-adv-x="1024" d="M0 -154h1024v-102h-1024v102z" />
<glyph unicode="`" horiz-adv-x="716" d="M89 933.5q1 18.5 3 49.5q2 16 2 31.5t4 28t13.5 20.5t27.5 8q16 0 32 -4l32 -8l121 -37q23 -6 57.5 -16.5t70 -22.5t68.5 -24.5t51 -24.5t38 -37t20 -47q0 -12 -9.5 -15.5t-19.5 -3.5q-16 0 -33.5 5.5t-34.5 11.5q-41 16 -96 26.5t-98 16.5q-29 4 -49.5 6t-39 3t-39 1 t-46.5 -2q-31 -2 -47.5 -1t-22.5 9t-5 26.5z" />
<glyph unicode="a" horiz-adv-x="997" d="M-63 244v6q1 60 37 120q38 64 103.5 121.5t147.5 107.5t168 87t166 58.5t139 23.5q35 0 60.5 -11.5t42 -27.5t23.5 -33.5t7 -25.5q0 -18 -28.5 -32.5t-42.5 -19.5q29 -12 44 -30.5t15 -52.5q0 -25 -27.5 -62t-61.5 -79t-61.5 -85t-27.5 -80q0 -27 19.5 -38t44.5 -11 q33 0 69.5 17.5t74.5 42t76 53.5t70 51l17 -76q-33 -37 -95.5 -92t-132 -105.5t-134 -86t-101.5 -35.5q-51 0 -74.5 31.5t-23.5 76.5q0 25 8 55.5t19 62.5t24.5 61.5t23.5 50.5l-4 4l-188 -152q-14 -12 -44 -34.5t-61.5 -45t-62.5 -40t-49 -17.5q-23 0 -52.5 22.5t-57 58.5 t-48 78t-22.5 83zM86 193q2 -8 10 -27q6 -15 22 -15q4 0 9 1q10 2 23.5 5t37 14t58.5 35.5t88 70t128 115t175 171.5l-4 4q-182 -55 -291 -107t-166 -98.5t-73.5 -89.5t-16.5 -79z" />
<glyph unicode="b" horiz-adv-x="819" d="M0 279q0 96 21.5 186t59.5 173t89 161t113 149q61 74 147 154t170 145.5t153.5 107.5t102.5 42q31 0 45 -23.5t14 -52.5q0 -70 -49 -158t-118.5 -175t-143.5 -164t-123 -124l-319 -313q-12 -43 -12 -80v-11q2 -42 14 -74t35.5 -48t52.5 -12q49 8 79.5 42t57.5 64 q-12 20 -20.5 38t-8.5 42q0 45 28 100.5t70 104.5t92 82t95 33q37 0 49.5 -31t12.5 -59q0 -33 -10.5 -66t-26 -65.5t-32.5 -64.5t-30 -60q20 -4 39 -4q41 0 77 18q52 26 101 61l21 -67q-70 -72 -150 -100.5t-178 -30.5q-33 -35 -76 -73t-90 -70.5t-98 -53t-102 -20.5 q-49 0 -80 32.5t-46.5 78.5t-20.5 97.5t-5 88.5zM236 604l4 -4q160 160 255 265.5t146 175t72.5 108.5t34.5 68l-5 4q-154 -129 -284.5 -283t-222.5 -334z" />
<glyph unicode="c" horiz-adv-x="735" d="M-6 272q0 63 11 110.5t36 84.5t61.5 70.5t85.5 70.5q35 27 86.5 57.5t107.5 58.5t111.5 46t98.5 18q92 0 92 -94q0 -43 -26.5 -90t-61.5 -87t-72 -66.5t-57 -26.5q-35 0 -51.5 30.5t-18.5 59.5l-172 -129q-35 -25 -58.5 -51.5t-23.5 -69.5q0 -35 38 -72.5t118 -37.5 q57 0 118.5 23.5t121 59t114 76.5t99.5 76l24 -80q-47 -49 -111.5 -108.5t-137 -109.5t-149.5 -84t-151 -34q-59 0 -103 26t-72.5 68t-43 95t-14.5 110z" />
<glyph unicode="d" horiz-adv-x="1026" d="M-14 291q0 59 30.5 116.5t80.5 107.5t113.5 91t128 72t125 49t103.5 21q33 2 49.5 -16.5t36.5 -41.5q16 29 42 80t57.5 111.5t68.5 123t75 112.5t78 82t77 32q31 0 48 -24.5t17 -53.5q0 -23 -9 -49.5t-22.5 -53t-29 -51.5t-27.5 -43l-209 -323q-25 -41 -54.5 -85t-54 -91 t-41 -96.5t-16.5 -98.5q0 -12 1 -29.5t5.5 -34t14.5 -27.5t26 -11q27 0 71 26.5t92 61.5t92 69.5t69 51.5l14 -68q-37 -41 -91 -95t-116.5 -105.5t-128 -86t-120.5 -34.5q-29 0 -49.5 13t-34 34.5t-19.5 48t-6 51.5q0 39 5 78t11 78q-27 -23 -72.5 -67t-97 -87t-100.5 -74.5 t-84 -31.5t-62.5 31.5t-47 75.5t-29.5 89t-10 72zM166 248v-6q0 -27 31 -33h1q8 1 34 17q28 18 68 47.5t87 68.5t88 79t71 78.5t38 69.5q-135 -43 -216 -79.5t-124 -73.5t-58.5 -77t-19.5 -91z" />
<glyph unicode="e" horiz-adv-x="731" d="M-16 236v15q0 92 45 182q49 97 129 174t180 123t201 46q25 0 50 -4t46.5 -14t36 -29.5t14.5 -50.5q0 -37 -21.5 -83t-78 -96t-151.5 -101.5t-242 -100.5l-5 -45v-10q0 -51 37 -72q41 -23 90 -23q55 0 112.5 25t114 60.5t107.5 76.5t92 74l19 -78q-47 -55 -110.5 -114.5 t-136.5 -108.5t-151.5 -82t-154.5 -33q-55 0 -97 22.5t-70 60.5t-41 86t-15 100zM205 397q68 23 123 59t95 70.5t61.5 65.5t21.5 43q0 11 -7 19q-4 5 -10 5q-4 0 -8 -2q-39 -10 -79 -32.5t-76.5 -56t-68.5 -77t-52 -94.5z" />
<glyph unicode="f" horiz-adv-x="634" d="M-176 -266q0 49 14.5 103t36 108.5t47 105.5t45.5 94q-25 27 -42 52.5t-17 64.5q0 61 34.5 87t80.5 50q90 49 146 120t103 159q12 25 42 78t68 118.5t82 135t86 126t80 93.5t64 37q16 0 26.5 -9.5t15.5 -23.5t6 -29.5t1 -27.5q0 -31 -10 -70t-25.5 -80t-35 -76.5 t-35.5 -60.5l-383 -535q45 -27 65.5 -71.5t40.5 -89.5l277 172l22 -76q-61 -55 -124.5 -106.5t-139.5 -88.5q6 -29 5 -56.5t-3 -55.5q-6 -92 -56 -177.5t-119.5 -152t-145.5 -110.5t-131 -52q-6 -1 -12 -1q-27 0 -47 23q-23 29 -37.5 69t-19.5 84t-5 69zM4 -160 q-2 -16 -2 -32q0 -32 8 -61q12 -44 35 -89q47 31 87 76t67.5 97t40.5 109q8 39 8 78q0 19 -2 37q-28 -2 -50 -2q-17 0 -30 1q-31 3 -68 18q-41 -68 -64.5 -124.5t-29.5 -107.5z" />
<glyph unicode="g" horiz-adv-x="907" d="M-20 -471q0 55 50 127t119.5 141.5t140 128.5t113.5 90l144 281l-4 4q-29 -31 -79 -77t-107.5 -88t-115 -72.5t-100.5 -30.5t-72.5 24.5t-47 61.5t-25.5 78t-8 75q0 68 33.5 129.5t88 115.5t122 100.5t134 79t127 52t99.5 23.5q10 0 28.5 -1t36 -7t30.5 -16.5t13 -26.5 q0 -29 -23.5 -49.5t-43.5 -34.5l-234 -127q-49 -27 -98 -52.5t-88 -56t-61 -71.5q-16 -32 -16 -73q0 -12 1 -24q2 -20 33 -20q20 -2 53 5t69 24.5t72.5 42t65.5 55.5l219 242q16 16 34.5 36.5t43.5 20.5q14 0 28.5 -11.5t26 -27.5t17.5 -34.5t6 -30.5q0 -23 -16.5 -53.5 t-26.5 -51.5l-154 -287l4 -4l312 223l10 -86l-432 -323q-80 -129 -154 -218t-135 -146.5t-108.5 -83t-77.5 -25.5q-23 0 -35 14t-12 35z" />
<glyph unicode="h" horiz-adv-x="905" d="M-20 223q0 106 35.5 187.5t88.5 169.5q59 100 132 194t147 179t145.5 156t131 121t102.5 78.5t61 28.5q25 0 56.5 -12t31.5 -43q0 -35 -49 -109.5t-124.5 -169t-168 -198t-179.5 -196.5t-157.5 -165.5t-103.5 -105.5v-80q25 20 71 58t101 83t116.5 92.5t118 86 t103.5 63.5t76 25q37 0 67.5 -32t30.5 -67q0 -14 -13.5 -36.5t-30.5 -46t-35.5 -44t-26.5 -30.5q-47 -57 -73 -90t-36 -50.5t-11 -24.5t-1 -16q0 -20 13 -31.5t32 -11.5q25 0 62.5 17.5t77.5 42t77 50.5t59 40l11 -84q-35 -27 -94.5 -73t-126 -90t-129 -76.5t-105.5 -32.5 q-47 0 -70.5 33.5t-23.5 74.5q0 49 23.5 100.5t56 102.5t69.5 96t66 82l-4 4q-131 -90 -219.5 -173t-146.5 -145.5t-93 -100.5t-60 -38q-27 0 -43 26t-24 60.5t-11 68.5t-3 52z" />
<glyph unicode="i" horiz-adv-x="569" d="M-27 213q0 94 42 182t101.5 158t124 112t111.5 42q27 0 58.5 -11.5t31.5 -46.5q0 -39 -32.5 -89t-78.5 -99t-95.5 -91t-81.5 -65q-4 -21 -4 -39q0 -35 16 -57q24 -33 96 -33q41 0 81 17.5t78 44t72.5 55t65.5 51.5l19 -78q-35 -43 -84.5 -94t-106.5 -96t-118.5 -76 t-118.5 -31q-45 0 -79 23.5t-55.5 59.5t-32 79t-10.5 82zM381 836q0 31 16.5 59.5t43 50t57 34.5t61.5 13q29 0 48.5 -17.5t19.5 -45.5q0 -31 -13.5 -63.5t-36 -58.5t-52 -43t-62.5 -17q-37 0 -59.5 25.5t-22.5 62.5z" />
<glyph unicode="j" horiz-adv-x="735" d="M-125 -373q0 55 34 115.5t83 118t103.5 105.5t97.5 79l262 508q-115 -33 -221.5 -81t-223.5 -71q18 45 28.5 77t17.5 55.5t12.5 40t13.5 28.5q16 25 67.5 46.5t108.5 41.5q27 8 68 24.5t86 32t87 26.5t70 11q37 -2 63.5 -18t26.5 -57q0 -27 -17 -65t-30 -60l-213 -412 l4 -4l334 197l13 -91l-437 -258q-16 -25 -42.5 -68.5t-59.5 -96t-69 -106.5t-72.5 -98t-71.5 -73t-66 -29q-33 0 -45 27t-12 55zM514 930q0 31 16.5 59.5t43 50t57.5 34.5t61 13q29 0 48.5 -17t19.5 -46q0 -31 -13.5 -63.5t-36 -58t-52 -43t-62.5 -17.5q-37 0 -59.5 25.5 t-22.5 62.5z" />
<glyph unicode="k" horiz-adv-x="993" d="M-29 256q0 49 14.5 94t36 87t48 83t53.5 82q55 86 130 175t157 171t163.5 154t152.5 125t124 83q50 28 73 27h3q23 -2 37 -16t14 -37q0 -35 -54.5 -110.5t-139.5 -170t-187 -199t-197.5 -198.5t-170 -169t-105.5 -107l-4 -56q27 25 79 70t116.5 98.5t136 107.5t138 98 t123 73t91.5 29q27 0 46 -14.5t32.5 -37t20.5 -48t7 -48.5q0 -72 -45 -128t-109.5 -101t-136 -81t-122.5 -67q29 -41 54 -63.5t79 -26.5q14 0 38.5 7.5t66.5 31t106.5 69.5t160.5 122l21 -84q-39 -35 -100.5 -89.5t-130 -107.5t-136 -91t-118.5 -38t-94.5 25.5t-79 64.5 t-65.5 83t-54 81q-35 -31 -60.5 -65.5t-48.5 -73.5q-12 -23 -28.5 -42.5t-45.5 -19.5q-27 0 -44 32t-27 74t-14.5 83t-4.5 59zM360 330q47 -16 78 -45l193 133q12 8 28.5 20.5t32 26.5t26.5 29.5t11 31.5q0 10 -9 13.5t-18 3.5q-29 0 -79 -23.5t-102 -57.5t-97 -70t-64 -62z " />
<glyph unicode="l" horiz-adv-x="614" d="M-12 246q0 80 16 163t46 161.5t72 151.5t91 134q68 84 135.5 159t128 132t106.5 90t70 33q27 0 35 -28q6 -22 6 -40v-8q-6 -74 -23.5 -147.5t-70.5 -166t-152.5 -211t-265.5 -280.5q-14 -27 -18 -65q-1 -13 -1 -26q0 -25 5 -50q14 -35 37.5 -61.5t64.5 -26.5 q43 0 91.5 21.5t96.5 53t91 66.5t74 64l28 -62q-43 -43 -98 -99.5t-118.5 -106.5t-131 -83.5t-133.5 -33.5q-55 0 -91 24.5t-56.5 63t-27.5 86t-7 92.5zM223 582l4 -4q55 51 104.5 110.5t90.5 119.5t70.5 117.5t44.5 100.5q-37 -18 -78 -60t-81 -101.5t-79 -131t-76 -151.5z " />
<glyph unicode="m" horiz-adv-x="1454" d="M-23 236q0 76 37 158.5t89.5 151t110.5 111.5q51 38 93 38q6 0 12 -1q12 -2 27.5 -3t30 -6t25 -13t10.5 -25q0 -16 -9.5 -33.5t-22.5 -36t-27.5 -35t-22.5 -26.5q-29 -33 -59.5 -61.5t-53.5 -63.5q-16 -23 -37.5 -48.5t-21.5 -57.5q0 -4 4 -11.5t10 -7.5q8 0 22.5 14.5 l18.5 18.5q25 27 70 72t100 96t116.5 105.5t120 97.5t108.5 70.5t83 27.5q41 0 62.5 -26.5t21.5 -67.5q0 -35 -23.5 -80t-55.5 -92t-63.5 -90t-47.5 -74l4 -4l454 358q16 12 47 35t50 23q6 0 12 -8.5t12 -17.5t11 -19.5t8 -12.5q10 -16 23 -37.5t13 -44.5q0 -27 -23.5 -56.5 t-39.5 -47.5q-59 -66 -94 -108t-52.5 -68.5t-22.5 -44t-5 -35.5q-2 -18 14.5 -36.5t34.5 -14.5q16 4 32.5 9t48.5 21.5t87 51t149 100.5l13 -96q-37 -29 -103.5 -82t-142.5 -105.5t-146.5 -91.5t-113.5 -39q-47 0 -76 37t-29 82q0 39 16.5 84t40 89t50.5 86t45 73l-4 4 l-326 -299q-18 -16 -39.5 -39t-46 -43.5t-51.5 -33.5t-53 -13q-36 0 -62 24q-28 27 -28 66q0 44 39 121q41 80 141 231q4 4 8 13.5t4 13.5q0 14 -14 14q-8 0 -19.5 -8t-22.5 -18.5t-21.5 -20.5t-16.5 -16q-80 -86 -163 -175t-154 -180q-16 -20 -38 -38.5t-51 -18.5 q-37 0 -61.5 25.5t-38.5 62.5t-20.5 77t-6.5 69z" />
<glyph unicode="n" horiz-adv-x="942" d="M-29 205v9q1 48 19 106q20 62 55 124t79 117t89 92q20 16 36.5 20.5t43.5 4.5q45 -2 68.5 -7t34 -12.5t10.5 -14.5v-11q0 -31 -40 -80t-89.5 -99.5t-89.5 -94.5t-40 -62q0 -23 23 -23q10 0 22.5 10.5t18.5 18.5q41 51 97.5 106.5t117.5 106.5t123.5 96t116 79t92.5 53.5 t53 19.5q16 0 33 -39q10 -23 18 -50.5t12 -60.5q0 -31 -38.5 -72.5t-87 -92t-87 -104.5t-38.5 -107q0 -14 10 -25.5t26 -11.5q18 0 43 11t49.5 27.5t47.5 34t37 29.5l122 103l17 -91q-41 -37 -98.5 -95t-121 -114.5t-129 -97.5t-120.5 -41q-59 0 -87 41t-28 94 q0 45 18.5 93.5t45 94.5t57.5 88t55 77l-4 4q-90 -66 -168 -144.5t-147 -169.5q-12 -14 -30.5 -37.5t-41 -46t-46.5 -39t-44 -16.5q-35 0 -56.5 21.5t-33.5 52.5t-18.5 64.5t-6.5 60.5z" />
<glyph unicode="o" horiz-adv-x="811" d="M-25 281v16q1 105 49 181q52 82 138 147q84 68 186.5 107.5t196.5 43.5q16 0 35.5 -3t37 -12t28.5 -23.5t11 -35.5q0 -23 -15 -34t-32 -21q47 -12 60.5 -43t13.5 -78q0 -68 -25.5 -125t-54.5 -116q33 -6 61.5 3t54 26.5t48 39t47.5 39.5l21 -86q-70 -88 -145 -127 t-187 -39q-66 -66 -141.5 -109.5t-174.5 -43.5q-80 0 -143 75.5t-70 217.5zM127 215q0 -45 25.5 -61.5t64.5 -16.5q51 0 87 24.5t71 57.5q-10 25 -17.5 46.5t-7.5 47.5q0 39 15.5 81t32 77t29.5 57.5t11 24.5q-53 -31 -116.5 -67.5t-110.5 -82.5q-35 -35 -59.5 -88 t-24.5 -100z" />
<glyph unicode="p" horiz-adv-x="999" d="M-207 -336v9q0 73 31 147q33 78 96 168q72 100 151 228t179 298l-4 4l-324 -309l-8 96l543 584q18 20 35.5 39.5t36 36t41 26.5t51.5 10q10 0 26.5 -2t31.5 -8t25.5 -15t10.5 -24q0 -16 -17.5 -41.5t-40 -51t-46 -49.5t-36.5 -36q-53 -55 -98 -113.5t-76 -128.5l5 -4 q33 25 85 59t109 64.5t113.5 53t97.5 22.5t63.5 -27.5t22.5 -68.5q0 -84 -80 -194.5t-252 -262.5q29 -2 55 -2q31 0 57 3q46 5 90 27.5t98.5 65.5t135.5 115l15 -94q-57 -55 -119.5 -108.5t-132.5 -94.5t-146.5 -66.5t-158.5 -25.5q-41 0 -75 11t-71 30l-46 -8t-48 -4 q-23 0 -42.5 4t-39.5 8l-192 -377q-6 -12 -15.5 -26.5t-21.5 -28t-26.5 -22.5t-28.5 -9q-35 0 -47.5 31.5t-12.5 60.5zM276 231q19 1 38 1q71 0 135 -21l145 172q16 23 33.5 47.5t17.5 52.5q0 10 -5 19.5t-17 9.5t-35 -10t-46.5 -23.5t-45 -28t-31.5 -20.5 q-57 -41 -102.5 -92t-86.5 -107z" />
<glyph unicode="q" horiz-adv-x="925" d="M-33 240q0 96 42 159.5t112 126.5q53 49 127 94.5t154.5 79t166.5 54t164 20.5q20 0 37.5 -1t34.5 -17q8 -8 15 -24.5t7 -26.5q0 -14 -11 -27.5t-21 -24.5q23 -8 36 -29.5t13 -43.5q0 -35 -32 -86.5t-74 -104.5t-83 -102t-59 -80q25 -10 52.5 -5t64.5 24.5t85.5 56.5 t116.5 90l25 -78l-240 -211q2 -14 2 -28q0 -39 -13 -80q-17 -54 -47 -104t-67.5 -95t-72.5 -82q-43 -45 -97.5 -89t-105.5 -79t-93 -56.5t-61 -21.5q-20 0 -35.5 15.5t-26.5 37t-16.5 45t-5.5 39.5q0 41 22.5 75t43.5 69q98 160 220 314.5t239 311.5l-4 4q-33 -29 -92.5 -85 t-126 -113.5t-131 -100.5t-107.5 -43q-23 0 -49.5 16.5t-51 46.5t-41 69.5t-16.5 89.5zM117 199h7q39 0 94 21q61 22 135.5 71t160.5 126.5t178 188.5l-2 2q-117 -31 -229.5 -77t-214.5 -115q-35 -25 -58.5 -45.5t-38 -45t-22.5 -54t-10 -72.5zM246 -350q43 18 95 55t99 83 t79 96t32 93q0 10 -1 21.5t-3 21.5h-26.5h-14.5t-13.5 1.5t-21.5 3.5l-131 -183q-31 -43 -55.5 -91t-38.5 -101z" />
<glyph unicode="r" horiz-adv-x="712" d="M-111 281q41 33 74 70.5t62 78.5q-33 4 -44.5 17.5t-11.5 46.5q0 55 34 108t77 94t86 66.5t61 25.5q16 0 26.5 -10t10.5 -24q0 -16 -4 -29.5t-10 -28.5q145 20 227 32q34 5 56 6q32 0 42 -11q43 -55 50 -109q0 -47 -26 -75.5t-60 -57.5q-23 -18 -50.5 -45.5t-52 -59.5 t-41 -64.5t-16.5 -63.5q0 -25 20.5 -41.5t42.5 -16.5q33 0 72 21.5t78 51.5t74.5 61.5t60.5 50.5l14 -76q-29 -33 -83 -86t-116.5 -104.5t-125 -88t-105.5 -36.5q-66 0 -102.5 49t-36.5 108q0 51 17.5 98.5t45 90.5t61.5 82t64 75l-4 5l-213 -48q-53 -84 -116.5 -136 t-128.5 -118z" />
<glyph unicode="s" horiz-adv-x="735" d="M-184 217q0 20 18.5 39.5t30.5 32.5l444 407q4 51 33 92t84 41q47 0 61.5 -16t18.5 -59q6 -59 22.5 -114.5t16.5 -123.5q0 -63 -23.5 -117.5t-60.5 -101.5t-85 -85t-97 -69q28 -5 53 -4q19 0 37 2q41 6 77.5 22.5t71.5 41t72 53.5l123 94l20 -78q-47 -47 -109.5 -101 t-132 -100t-139.5 -76q-61 -26 -116 -26h-15q-51 2 -103 17.5t-97.5 45t-78 73t-46.5 98.5q-10 -10 -20.5 -18.5t-25.5 -8.5q-16 0 -25 12.5t-9 26.5zM16 309q57 -4 94 -42t66 -79q45 29 76 51.5t49 47t26.5 55.5t10.5 76q-4 33 -10.5 74t-16.5 94z" />
<glyph unicode="t" horiz-adv-x="598" d="M-113 279q92 72 173 150.5t139 176.5q-47 0 -67.5 1t-36 1t-33 -2t-58.5 -8l23 37q41 68 69.5 109.5t62.5 65.5t83 33t131 13q23 31 44 63.5t46.5 58.5t57.5 42t77 16q20 0 43 -7t23 -32q0 -14 -9.5 -32.5t-23 -37t-26.5 -36t-21 -27.5l127 -10l-62.5 -125t-58.5 -82 t-83 -43q-33 -8 -82 -8q-24 0 -52 2q-27 -35 -58.5 -81t-60.5 -97t-48.5 -104.5t-19.5 -98.5q0 -35 13.5 -53.5t48.5 -18.5q25 0 52.5 12.5t67.5 38t96 65.5t136 97l10 -90q-45 -41 -107.5 -98t-131 -108.5t-140 -87t-137.5 -35.5q-59 0 -94 37.5t-35 99.5q0 51 16.5 105.5 t36.5 99.5l-4 4l-104 -84z" />
<glyph unicode="u" horiz-adv-x="978" d="M-33 211q0 74 25.5 147.5t67.5 139t92.5 118t99.5 84.5q23 14 43 18.5t47 4.5q10 0 32.5 2t44 0t36 -12.5t12.5 -32.5q-2 -12 -11.5 -28.5t-22.5 -32t-26.5 -28.5t-21.5 -20q-25 -27 -40 -45t-31.5 -33.5t-35 -32t-49.5 -36.5q-47 -35 -79.5 -73t-32.5 -103q0 -8 3 -19.5 t13 -11.5q14 0 41 10.5t60.5 29.5t70.5 45.5t74 59.5l203 183q16 14 57 53t87 79t89 70.5t62 30.5q6 0 13 -3t13 -13t11.5 -33.5t9.5 -62.5q2 -18 -6.5 -36t-21.5 -34t-28.5 -30.5t-27.5 -24.5q-25 -23 -61 -62t-69.5 -83t-57 -89t-23.5 -80q0 -45 51 -45q29 0 73 23.5 t90 54.5t88 63.5t64 51.5l13 -88q-39 -37 -96.5 -94.5t-122 -111.5t-131 -92t-123.5 -38t-89 41t-32 94q0 47 13 89t30 83l-4 4q-31 -27 -70 -69.5t-83 -83.5t-89 -71t-88 -30q-37 0 -66.5 19.5t-49 49t-30 65.5t-10.5 69z" />
<glyph unicode="v" horiz-adv-x="870" d="M-18 291q0 106 40.5 194t94 151.5t108 98.5t80.5 35q10 0 30.5 -1t41 -6t36 -14.5t15.5 -25.5q0 -35 -31.5 -87t-74.5 -105.5t-88.5 -99.5t-71.5 -69q-8 -25 -19.5 -60.5t-11.5 -59.5q0 -25 9.5 -52.5t39.5 -27.5q23 0 61 23.5t77.5 56t74.5 63.5t51 47q-1 11 -1 21 q0 59 29 109q34 58 75 112q14 18 37.5 48t50.5 56.5t56.5 46t56.5 19.5q31 0 46 -18.5t15 -49.5t-19.5 -79t-46 -98t-56.5 -96t-48 -73q16 -16 30.5 -21t39.5 -5q41 0 90 29.5t84 52.5l14 -87q-53 -61 -114.5 -103t-147.5 -42q-33 0 -56.5 17.5t-50.5 35.5 q-23 -25 -67.5 -66.5t-96 -81.5t-100.5 -68.5t-80 -28.5q-45 0 -83 26.5t-64.5 69.5t-40.5 98t-14 115z" />
<glyph unicode="w" horiz-adv-x="1300" d="M-20 272q2 57 14 103.5t33.5 86.5t52.5 76.5t70 75.5q66 66 107.5 103t68 55.5t44 21.5t33.5 3q70 -4 95.5 -22.5t25.5 -43.5q0 -39 -43 -96t-100 -114.5t-115.5 -106.5t-89.5 -74q-4 -10 -10 -47t-6 -70q0 -12 4 -28.5t18 -16.5q12 0 41 19.5t60.5 45t60.5 51.5t39 36 l291 299q6 8 21.5 26.5t32.5 38t34.5 33.5t28.5 14q8 0 24 -3t32.5 -9t29 -14t12.5 -17q0 -10 -5 -24.5t-13.5 -28.5t-15.5 -27.5t-13 -21.5q-16 -27 -47 -79t-62 -110.5t-53.5 -111.5t-22.5 -82q0 -16 10.5 -28.5t28.5 -12.5q20 0 49 18.5t56.5 43t52.5 50t41 40.5 q-4 29 -5 52t8 51t29.5 62.5t61.5 85.5q12 16 32.5 41t44.5 47.5t49.5 39t47.5 16.5q18 0 30.5 -11.5t21 -26.5t11.5 -32.5t3 -32.5q0 -86 -44 -156.5t-95 -131.5q20 -12 34.5 -20.5t36.5 -8.5q18 0 41 10t44.5 24.5t42 30t34.5 27.5l4 -90q-47 -47 -100 -85t-125 -38 q-41 0 -64.5 10.5t-58.5 30.5q-33 -25 -78 -67.5t-93 -83.5t-97 -72t-93 -31q-23 0 -40 11.5t-33 27.5q-8 10 -16.5 21.5t-14.5 36t-8 66.5q-1 14 -1 32q0 35 3 84q-29 -25 -67 -68t-81 -83q-43 -41 -86 -69q-40 -27 -74 -26h-5q-43 2 -83 22.5t-70 55.5t-48 85 q-15 43 -14 93v18z" />
<glyph unicode="x" horiz-adv-x="712" d="M-70 39q0 10 8.5 27.5t20.5 35t24.5 34t18.5 24.5q27 31 48.5 45t60.5 24l108 97l-2 245q-57 -29 -93 -48t-57.5 -29.5t-30.5 -14.5t-16 -4q-23 4 -22 27q0 10 22.5 36.5t57.5 59.5t77 70t83 66.5t72.5 49t47.5 19.5q18 0 27.5 -12.5t12.5 -29t2 -34.5t-1 -31l-6 -186 l182 166q23 23 53.5 46t63.5 23q16 0 20.5 -12t6.5 -20q2 -16 -13.5 -50t-41.5 -68q-26 -35 -60 -57q-26 -18 -53 -17q-7 0 -14 1l-142 -141l-2 -86v-9q1 -32 13 -58q14 -28 61 -29q31 0 66.5 19.5t71.5 46t68 55t54 47.5l12 -82q-39 -33 -91 -87.5t-109.5 -105.5t-117 -88 t-110.5 -37q-45 0 -65 28q-21 29 -27 67q-5 29 -5 59q0 10 1 21q2 42 2 71l-119 -115q-10 -10 -27.5 -25.5t-36 -28.5t-38 -23.5t-33.5 -10.5q-33 0 -33 29z" />
<glyph unicode="y" horiz-adv-x="905" d="M-14 274v9q0 57 22 114q25 62 65 118t88 104.5t93 84t81 57t50 21.5q12 0 26.5 -10t29 -25.5t23.5 -32t9 -26.5q0 -29 -37 -79t-87 -102t-100 -97t-75 -66q-35 -51 -39 -119q41 4 80 21.5t76 43t70.5 55.5t66.5 61q158 145 255 241t126 101q12 2 22.5 -9.5t17.5 -29 t11 -36t4 -28.5q0 -20 -9 -45t-22.5 -49.5t-27.5 -47t-25 -38.5l-303 -451l4 -4l455 404l16 -76l-616 -678q-8 -8 -21.5 -25.5t-29 -34t-31.5 -29.5t-29 -13q-16 0 -27.5 16t-19.5 37.5t-11 45.5t-3 36t6 29.5t15.5 35t18.5 32.5t15 26l275 463l-5 4q-63 -53 -120.5 -99.5 t-103.5 -80t-77.5 -52t-40.5 -18.5q-23 2 -49 18.5t-50.5 47t-42 74.5t-19.5 101z" />
<glyph unicode="z" horiz-adv-x="753" d="M-141 -397q0 43 16 79.5t44 70.5t60.5 62.5t63.5 53.5l266 213q-8 33 -18 52.5t-25.5 31.5t-36 19.5t-51.5 15.5q-12 2 -25.5 5t-24.5 8t-18.5 14.5t-5.5 23.5q4 25 31 50.5t74 59t114.5 80.5t153.5 119l-4 4l-250 -43l-233 -254l-23 68l144 174q-23 4 -39.5 15.5 t-16.5 39.5q0 29 25.5 67t61.5 71.5t74 57t63 23.5q29 0 40 -23.5t11 -47.5q121 18 181 38.5t91 20.5q14 0 26.5 -22.5t20.5 -50t13.5 -54.5t5.5 -35q0 -25 -21.5 -46t-40.5 -34l-262 -190q82 -61 107 -162l323 250l6 -88l-327 -285q-18 -123 -80 -222t-138.5 -171 t-154.5 -111.5t-129 -46.5h-9q-36 0 -58 27q-26 31 -25 72zM-39 -393q51 14 108.5 50t106.5 84t85 104.5t46 111.5l-235 -184q-43 -35 -74 -73t-37 -93z" />
<glyph unicode="{" horiz-adv-x="716" d="M117 -147q4 29 12 64.5t25 78.5l104 373q27 96 18.5 146t-61.5 73h2v4q35 12 60.5 28.5t44 43t33 62.5t28.5 85l90 330q20 78 45 139t72 101t128 55.5t218 3.5v-4q-68 -23 -105.5 -74t-64.5 -148l-96 -348q-18 -68 -37 -114.5t-42.5 -78.5t-51 -51.5t-64.5 -31.5h-2v-4 q72 -20 78 -84q4 -33 -5.5 -74t-25.5 -94l-108 -377q-29 -98 -21 -147.5t62 -77.5l-2 -4q-127 -8 -199 0t-100 39q-16 16 -25.5 36.5t-9.5 49.5z" />
<glyph unicode="|" horiz-adv-x="829" d="M467 -512v2052h162v-2052h-162z" />
<glyph unicode="}" horiz-adv-x="716" d="M-66 -262q68 23 106 74t64 147l97 348q18 68 36.5 115t42 78.5t51 51t64.5 32.5h2v4q-72 20 -78 84q-4 33 5.5 74t25.5 94l109 377q29 98 20.5 147t-61.5 78l2 4q127 8 198.5 0t100.5 -39q16 -16 25.5 -36.5t9.5 -49.5q-4 -29 -12.5 -64.5t-24.5 -78.5l-105 -373 q-27 -96 -18.5 -146.5t61.5 -72.5h-2v-4q-35 -12 -60.5 -28.5t-44 -43.5t-32.5 -62.5t-29 -85.5l-90 -329q-23 -78 -46 -139.5t-70.5 -101.5t-128 -55.5t-218.5 -2.5v4z" />
<glyph unicode="~" horiz-adv-x="1226" d="M178 459q47 86 123 138t166 52q72 0 125 -26.5t96 -49.5q53 -31 93 -50t91 -19q61 0 105.5 35.5t89.5 107.5l74 -72q-47 -84 -113.5 -137t-155.5 -53q-63 0 -113 21.5t-122 60.5q-43 25 -87 45t-95 20q-68 0 -114 -44t-87 -99z" />
<glyph unicode="&#xa1;" horiz-adv-x="802" d="M-18 -485q0 12 7 32.5t16 42t19.5 41t16.5 31.5l367 715q-10 20 -11 35q0 29 18.5 59.5t49.5 30.5q18 0 39.5 -10.5t40 -26.5t31 -35.5t12.5 -38.5q0 -18 -7.5 -41.5t-16.5 -48.5t-20.5 -48.5t-17.5 -39.5l-288 -659q-6 -16 -14.5 -34t-18.5 -34t-23.5 -26.5t-34.5 -10.5 q-16 0 -42.5 7t-43.5 12q-8 2 -21 5t-26.5 8t-22.5 13t-9 21zM461 668q0 27 8 64.5t24.5 71.5t42 57.5t60.5 23.5q41 0 76 -29t35 -70q0 -27 -8.5 -69.5t-24 -82.5t-38 -68.5t-48.5 -28.5q-53 0 -90 38.5t-37 92.5z" />
<glyph unicode="&#xa2;" d="M217 571q0 100 50 193.5t122 161.5q74 70 173.5 100.5t195.5 54.5q41 76 66.5 125t49 77t53 38t79.5 10q16 0 27 -3t11 -21q0 -29 -23.5 -59.5t-41.5 -51.5l-21.5 -21.5t-15.5 -18.5t-11 -20.5t-11 -29.5q29 0 64.5 -1t57.5 -22q25 -20 37.5 -60t12.5 -71q0 -23 -5.5 -37 t-14.5 -23t-24.5 -16.5t-33.5 -15.5q-16 -8 -46 -24.5t-48 -16.5q-20 0 -21 19q0 12 6.5 22.5t14.5 18.5l-115 -9l-113 -260q51 12 113.5 23.5t109.5 36.5q10 4 28 13t28 9t16 -13t9 -30.5t3 -34v-22.5q0 -68 -42 -110t-103 -68.5t-129 -42t-117 -27.5q-6 -29 -10 -52.5 t-6 -50t-3 -58t-1 -77.5q-31 8 -58.5 13.5t-48 15.5t-32 30.5t-11.5 57.5q0 31 7.5 62.5t15.5 60.5q-57 4 -102.5 16.5t-77 38t-48 67.5t-16.5 103zM397 649q-4 -27 9.5 -42t34 -21t45 -7t44.5 -1l109 253q-117 -25 -174 -73.5t-68 -108.5z" />
<glyph unicode="&#xa3;" horiz-adv-x="1228" d="M-260 33q0 27 21.5 65.5t51 78.5t59.5 76.5t46 59.5l289 43l149 185q-61 14 -124.5 9t-122.5 -15q23 37 40 60t38.5 36.5t50 17.5t73.5 2l127 -8l94 125l431 543q61 78 115.5 128t99.5 77.5t78.5 38t56.5 8.5q53 -6 87 -48t34 -88q0 -59 -30 -130.5t-71 -144.5 t-85 -141.5t-70 -121.5q16 -4 27.5 -9.5t11.5 -23.5q0 -20 -27 -49t-61.5 -57.5t-69.5 -52t-49 -35.5q-16 -12 -44 -32t-51 -20q-31 0 -40 27t-9 51q0 43 20.5 100.5t51.5 115t65.5 109.5t63.5 85q49 59 68.5 91t23.5 46t-2 16t-8 2q-12 0 -25.5 -12t-23.5 -20 q-135 -147 -255 -299t-247 -304q18 -2 47 -8t56.5 -18t48 -28.5t20.5 -41.5q0 -23 -14.5 -33t-34.5 -10q-18 0 -42 6.5t-42 10.5l-123 24l-137 -158q109 -6 215 -28.5t210.5 -50t210 -57t212.5 -50.5q-33 -31 -66 -72t-69.5 -77.5t-77.5 -62t-92 -25.5q-29 0 -62 5t-61 11 q-193 45 -385.5 83t-391.5 34q-20 -10 -47.5 -24.5t-58.5 -28t-60.5 -23.5t-50.5 -10q-23 0 -43 11t-20 36z" />
<glyph unicode="&#xa4;" horiz-adv-x="1421" d="M385 258l135 139q-35 43 -63.5 109.5t-28.5 159.5q0 74 24.5 146.5t67.5 119.5l-135 135l88 84l125 -147q47 43 107.5 61t113.5 18q61 0 119.5 -17t105.5 -62l127 147l84 -84l-135 -135q45 -47 69.5 -120t24.5 -146q0 -72 -27.5 -146t-70.5 -121l139 -141l-86 -84 l-129 154q-51 -43 -109.5 -60.5t-111.5 -17.5t-112.5 15.5t-108.5 58.5l-127 -150zM567 666q0 -133 73 -213t181 -80q53 0 99.5 21.5t81 59.5t54 92t19.5 120t-19.5 120t-54 93t-81 60.5t-99.5 21.5h-4q-51 0 -97 -21.5t-80 -60.5t-53.5 -93.5t-19.5 -119.5z" />
<glyph unicode="&#xa5;" horiz-adv-x="1658" d="M86 936q-10 18 12 53l31 76q16 39 52 60.5t98 45.5q51 20 125.5 49t160.5 59t178.5 59.5t181.5 55t169 42t141 22.5q33 2 65.5 1t58 -7t42 -18.5t18.5 -30.5q2 -23 -29.5 -59.5t-73.5 -73.5t-84 -70t-63 -49q-121 -98 -209 -164.5t-145 -111t-83.5 -70t-26.5 -41.5 q0 -12 36.5 -15.5t96.5 29.5q86 47 131 69.5t76.5 38t66.5 34t101.5 56.5t181 103.5t305.5 175.5q23 12 65.5 37t73.5 29q25 2 46.5 -4t39 -17.5t27.5 -24.5t12 -24q2 -14 -18.5 -35.5t-68.5 -66.5t-128 -119t-199 -192q-41 -41 -73.5 -75t-61.5 -73l111 10q29 2 75 5.5 t92 1.5t81.5 -12.5t46.5 -32.5q8 -27 -17.5 -40.5t-61.5 -18.5t-71 -6t-45 -1l-299 -25q-16 -20 -28.5 -42.5t-28.5 -47.5l100 11q29 2 75 5t92 1t82 -12.5t46 -32.5q8 -27 -17.5 -40.5t-61.5 -18.5t-70.5 -6t-45.5 -1l-266 -25l-2 -2l-160 -282q-4 -29 -22.5 -55.5t-47 -48 t-63.5 -35t-69 -13.5q-43 0 -71 23.5t-28 48.5q0 43 47.5 131t124.5 195q-66 -10 -130 -25.5t-124 -36.5q20 41 38 68.5t45.5 46t69.5 32t110 25.5l73 15q16 23 30.5 43t31.5 40q-63 -10 -126 -26.5t-118 -32.5q20 41 38.5 69.5t45.5 48t69 32t111 24.5l72 12 q109 137 204 220.5t146 124.5l-8 2l-649 -359q-29 -16 -70 -38.5t-87 -44t-93 -38t-86 -18.5q-31 -4 -65.5 0t-62.5 13t-44.5 23.5t-11.5 33.5q2 12 6 28.5t41 57.5t121.5 114.5t252.5 198.5q154 115 237 176t81 88q0 6 -12.5 10t-22.5 0q-287 -98 -483.5 -170.5 t-333.5 -130.5q-10 -4 -37 -11t-41 -9q-37 -2 -45 6z" />
<glyph unicode="&#xa6;" horiz-adv-x="829" d="M467 -356v714h160v-714h-160zM467 668v718h160v-718h-160z" />
<glyph unicode="&#xa7;" horiz-adv-x="1126" d="M100 -43l80 133q35 -25 108.5 -51.5t168.5 -26.5q43 0 88 9.5t85 28t68.5 47t38.5 69.5q18 70 -38 108.5t-191 79.5q-80 25 -142.5 52.5t-101.5 64.5t-52 86t3 115q16 61 71.5 126.5t153.5 104.5q-29 31 -41 78t0 96q18 74 64.5 130.5t112 93t146.5 55t167 18.5 q94 0 166.5 -18.5t126.5 -46.5l-72 -135q-37 23 -101.5 41t-146.5 18q-102 0 -177 -37t-91 -102q-16 -63 43 -99.5t199 -81.5q76 -25 132 -54.5t91 -66t46 -85t-3 -111.5q-18 -72 -71.5 -131t-135.5 -109q35 -29 45 -79t-2 -97q-23 -86 -77 -144.5t-126.5 -94t-152.5 -52 t-150 -16.5q-104 0 -188 19.5t-144 64.5zM397 700q-16 -63 29 -102t164 -78q78 -25 132 -47t83 -41q41 23 72.5 58.5t42.5 76.5q16 66 -25 108t-139 75q-57 18 -117.5 39.5t-108.5 44.5q-47 -23 -83.5 -53.5t-49.5 -78.5v-2z" />
<glyph unicode="&#xa8;" horiz-adv-x="917" d="M276 993q0 12 9.5 41t28 56.5t47 46t67.5 12.5q16 -2 35.5 -5t36 -11.5t26 -21.5t6.5 -34q-2 -20 -11 -49t-25.5 -54.5t-38.5 -43t-51 -17.5q-18 0 -41 4.5t-43.5 14.5t-34 24.5t-11.5 36.5zM666 993q0 12 9 41t27.5 56.5t47 46t67.5 12.5q16 -2 35.5 -5t36 -11.5 t26 -21.5t7.5 -34q-2 -20 -11.5 -49t-26 -54.5t-38.5 -43t-51 -17.5q-18 0 -41 4.5t-43.5 14.5t-33.5 24.5t-11 36.5z" />
<glyph unicode="&#xa9;" horiz-adv-x="1781" d="M127 723q0 160 59.5 299t163 242.5t242.5 163t299 59.5t299 -59.5t242.5 -163t163 -242.5t59.5 -299q0 -158 -59.5 -297t-163 -242.5t-242.5 -164t-299 -60.5t-299 60.5t-242.5 164t-163 242.5t-59.5 297zM319 723q0 -115 46.5 -219.5t124 -182t182 -123.5t219.5 -46 t218 46t182 123.5t125 182t46 219.5t-46 218t-125 182t-182 125t-218 46t-219.5 -46t-182 -125t-124 -182t-46.5 -218zM494 733q0 102 29.5 185t84 140.5t128 87.5t161.5 23q76 -6 138.5 -23.5t108.5 -53t76 -92t44 -136.5h-201q0 25 -8 35t-29 39q-20 18 -52 34.5t-79 16.5 q-104 0 -149.5 -71.5t-45.5 -184.5t45.5 -184.5t149.5 -71.5q68 0 118 37t50 88h201q-14 -86 -44 -140t-75 -89q-47 -35 -108.5 -53.5t-139.5 -22.5q-88 -6 -161.5 22.5t-128 86t-84 141.5t-29.5 186z" />
<glyph unicode="&#xaa;" horiz-adv-x="786" d="M180 760v67h686v-67h-686zM180 1085q-2 57 53.5 113.5t134 100.5t163.5 72t145 30q45 2 65.5 -23.5t20.5 -36.5q0 -10 -18.5 -18t-28.5 -12q18 -8 28.5 -18.5t10.5 -30.5q0 -16 -18.5 -39t-40 -47.5t-40 -51t-18.5 -47.5q0 -16 12.5 -22t28.5 -6q20 0 45 10t49.5 24.5 t46 29.5t39.5 26l8 -47q-16 -18 -54 -50t-82 -61t-86 -50.5t-66 -21.5q-33 0 -48.5 18.5t-15.5 47.5t17.5 70.5t31.5 66.5l-2 -2l-4 4l-119 -90q-10 -8 -28.5 -22.5t-40 -30t-41 -26.5t-31.5 -11q-14 0 -33.5 14.5t-38 37t-32 49t-13.5 50.5zM283 1055q0 -4 2 -11.5t18 -7.5 q8 0 24.5 4t52.5 28t96.5 72t156.5 136l-4 4q-117 -35 -186.5 -65.5t-104.5 -58.5t-45 -53.5t-10 -47.5z" />
<glyph unicode="&#xab;" horiz-adv-x="782" d="M78 506q0 35 17.5 63.5t39.5 57.5q41 70 85 132t79 142q16 -35 41 -81t25 -87q0 -23 -16.5 -43t-29.5 -37q-8 -10 -23 -30.5t-30.5 -45t-27 -46t-11.5 -33.5q0 -10 24.5 -40t90.5 -48q35 -10 60.5 -34t25.5 -65q0 -35 -20.5 -57.5t-55.5 -22.5q-29 0 -78 31t-95 74 t-76.5 90t-24.5 80zM424 506q0 35 17.5 63.5t39.5 57.5q41 70 85 132t79 142q16 -35 41 -81t25 -87q0 -23 -16.5 -43t-28.5 -37q-8 -10 -23.5 -30.5t-31 -45t-27 -46t-11.5 -33.5q0 -10 25 -40t90 -48q35 -10 60.5 -34t25.5 -65q0 -35 -20.5 -57.5t-55.5 -22.5q-29 0 -78 31 t-95 74t-76.5 90t-24.5 80z" />
<glyph unicode="&#xac;" horiz-adv-x="1259" d="M227 657v123h934v-565h-127v442h-807z" />
<glyph unicode="&#xad;" horiz-adv-x="655" d="M0 475v180h614v-180h-614z" />
<glyph unicode="&#xae;" horiz-adv-x="1781" d="M127 723q0 160 59.5 299t163 242.5t242.5 163t299 59.5t299 -59.5t242.5 -163t163 -242.5t59.5 -299q0 -158 -59.5 -297t-163 -242.5t-242.5 -164t-299 -60.5t-299 60.5t-242.5 164t-163 242.5t-59.5 297zM319 723q0 -115 46.5 -218.5t124 -182t182 -124.5t219.5 -46 t218 46t182 124.5t125 182t46 218.5t-46 218t-125 182t-182 125t-218 46t-219.5 -46t-182 -125t-124 -182t-46.5 -218zM575 369v751h367q49 0 106.5 -3t98.5 -30q53 -33 71.5 -85t18.5 -111q0 -104 -50 -150.5t-138 -54.5l165 -317h-206l-154 317h-98v-317h-181zM756 817 h180q53 0 87 16.5t34 75.5q0 31 -15.5 46.5t-38 23.5t-49 9t-49.5 1h-149v-172z" />
<glyph unicode="&#xaf;" horiz-adv-x="696" d="M139 819q2 23 6.5 54.5t13.5 61.5t25 48t45 16q147 -16 297 -11t314 5v-4q-6 0 -14.5 -26.5t-17.5 -59.5t-21.5 -58.5t-28.5 -25.5q-123 6 -284 9t-335 -9z" />
<glyph unicode="&#xb0;" horiz-adv-x="985" d="M340 1049q0 66 22.5 120t60.5 91.5t88 58t105 20.5h2q61 0 112.5 -22.5t87.5 -62.5t56.5 -92t20.5 -113q0 -68 -22.5 -121.5t-60.5 -90t-88 -56t-108 -19.5q-55 0 -105 19.5t-88 56t-60.5 90t-22.5 121.5zM449 1051q0 -88 47 -146.5t125 -58.5t121.5 55t43.5 146 q0 86 -42 146t-128 60h-2q-72 0 -118.5 -55t-46.5 -147z" />
<glyph unicode="&#xb1;" horiz-adv-x="1347" d="M313 618v123h404v389h127v-389h401v-123h-401v-409h-127v409h-404zM315 -6v119h932v-119h-932z" />
<glyph unicode="&#xb2;" horiz-adv-x="768" d="M172 754q0 27 28.5 59.5t73.5 66t100.5 67.5t109 62.5t99.5 51t70 35.5q20 10 54 27.5t66 39t54.5 46t22.5 48.5q0 18 -22.5 16.5t-36.5 -1.5q-41 0 -89.5 -9.5t-95.5 -23.5t-93 -31.5t-83 -33.5v-5l80 -6q12 -4 30.5 -7t18.5 -19q0 -12 -11.5 -16.5t-21.5 -6.5l-143 -24 q-8 -2 -23.5 -4.5t-21.5 -2.5q-18 0 -24.5 17.5t-6.5 29.5q0 16 7.5 40t17.5 46.5t23.5 44t25.5 33.5q29 31 80 54.5t109.5 40t116.5 24.5t101 8q37 0 64 -7t44 -28.5t25.5 -61.5t8.5 -105q0 -29 -5 -50.5t-16.5 -38t-29 -32t-39.5 -33.5q-35 -27 -110 -67t-160 -84 t-162.5 -88t-120.5 -76l4 -5l514 84q-23 -55 -39 -96t-60 -67.5t-129 -42t-245 -19.5h-54t-51 14q-27 23 -41 62t-14 74z" />
<glyph unicode="&#xb3;" horiz-adv-x="833" d="M127 709q0 12 13.5 31.5t31.5 39t37.5 33.5t32.5 14q20 0 20 -14q0 -6 -3 -10t-28 -27q35 -12 65 -16t64 -4q76 0 147 15t125 36.5t87 46.5t33 41q0 25 -31 40t-73 22.5t-82 9.5t-58 2q-35 0 -59.5 -2t-57.5 -11q-10 0 -20.5 -2t-18.5 -2q-14 0 -17 7.5t-3 19.5 q0 23 12 49.5t29 42.5q18 20 48 31.5t56 15.5q18 2 58 7t89.5 13.5t100.5 18.5t94 24.5t71 32t28 37.5t-15.5 30.5t-37 16t-45 6.5t-38.5 1q-74 0 -145.5 -15.5t-138.5 -38.5v-4l26 -4q6 0 27.5 -5t21.5 -15q0 -8 -9 -11.5t-13 -3.5q-23 -4 -62.5 -6t-62.5 -2q-68 0 -68 66 q0 23 12.5 40t32 30.5t42 22.5t40.5 15q61 23 129 28t134 5q45 0 93 -3t88 -18.5t65.5 -45t25.5 -83.5q0 -35 -24.5 -70.5t-57.5 -53.5q-16 -10 -27.5 -15.5t-43 -13.5t-97 -22.5t-192.5 -41.5v-4q39 -6 88 -13t90 -23.5t69.5 -46t28.5 -79.5q0 -39 -30.5 -85t-92 -86.5 t-153 -68.5t-211.5 -28q-125 0 -182.5 35t-57.5 68z" />
<glyph unicode="&#xb4;" horiz-adv-x="716" d="M231 852q0 23 19.5 47.5t38.5 36.5q18 12 51 24.5t68.5 24.5t70.5 22.5t58 16.5l120 37l32 8t32 4q18 0 27.5 -8t13.5 -20.5t4 -28t2 -31.5q2 -31 3 -49t-5 -26.5t-22.5 -9.5t-47.5 1q-29 2 -48 2t-37.5 -1t-39 -3t-49.5 -6q-43 -6 -98 -16.5t-96 -26.5q-16 -6 -34 -11 t-34 -5q-10 0 -19.5 3t-9.5 15z" />
<glyph unicode="&#xb5;" horiz-adv-x="978" d="M-373.5 -210q11.5 54 119.5 132q59 43 150.5 165t201.5 335q31 59 92.5 136t159.5 142q23 14 43.5 18.5t46.5 4.5q10 0 33 2t44.5 0t35.5 -12.5t12 -32.5q-2 -12 -11 -28.5t-22.5 -32t-26.5 -28.5t-22 -20q-25 -27 -40 -45t-31.5 -33.5t-35 -32t-48.5 -36.5 q-41 -29 -77 -76t-36 -100q0 -8 3 -18.5t13 -14.5q14 0 41 11.5t61 30.5t70.5 45.5t73.5 59.5l203 183q16 14 57 53t87 79t89 70.5t62 30.5q6 0 13 -3t13.5 -13t11.5 -33.5t9 -62.5q2 -18 -6 -36t-21.5 -34t-29 -30.5t-27.5 -24.5q-25 -23 -60.5 -62t-69.5 -83t-57.5 -89 t-23.5 -80q0 -45 51 -45q29 0 73 23.5t90 54.5t88 63.5t65 51.5l12 -88q-39 -37 -96.5 -94.5t-122 -111.5t-131 -92t-123.5 -38t-89 41t-32 94q0 47 13.5 89t29.5 83l-4 4q-31 -27 -70 -69.5t-83 -83.5t-89 -71t-88 -30q-37 0 -68.5 21.5t-66.5 66.5 q-115 -229 -222.5 -332.5t-182.5 -62.5q-66 35 -54.5 89z" />
<glyph unicode="&#xb6;" horiz-adv-x="1345" d="M348 913q0 96 31 178.5t100.5 141.5t182 93t274.5 34q88 0 151.5 -5t102.5 -14v-1439h-139v1327h-148v-1327h-137v622h-25q-72 0 -141.5 22.5t-125.5 70t-91 121t-35 175.5z" />
<glyph unicode="&#xb7;" horiz-adv-x="616" d="M254 389q0 27 16.5 69t44 77.5t65.5 58t81 14.5q10 -2 27.5 -4t34 -8t27.5 -18.5t11 -34.5l-10 -40t-31.5 -86t-55.5 -83t-81 -31q-20 2 -43 6t-42 13.5t-31.5 24.5t-12.5 42z" />
<glyph unicode="&#xb8;" horiz-adv-x="696" d="M2 -270q0 8 5 15t13 7q12 0 26.5 -7t33 -15.5t39 -15.5t43.5 -7q33 0 68.5 17.5t35.5 56.5q0 23 -11 36t-28.5 20t-38 9t-38.5 2l77 152h84l-57 -113q31 2 64.5 -2t62.5 -16t47 -35.5t18 -60.5q0 -41 -19 -69t-50 -44t-68 -22.5t-73 -4.5q-18 0 -56.5 7.5t-78.5 19.5 t-69.5 29.5t-29.5 40.5z" />
<glyph unicode="&#xb9;" horiz-adv-x="727" d="M336 690q0 23 10 57.5t23.5 70.5t30 70t28.5 56l168 234l76 90l-4 4l-125 -43q-4 -2 -18.5 -7t-18.5 -5q-10 0 -10 11v17q4 27 21.5 39t39.5 23q18 8 51 25.5t69 35.5t66.5 31.5t44.5 13.5q16 0 24.5 -8t14.5 -19q6 -10 14.5 -28.5t8.5 -28.5q0 -16 -12.5 -41.5 t-28.5 -54.5t-33.5 -55.5t-25.5 -40.5l-109 -168q-18 -27 -45 -70t-51.5 -90t-42 -92t-17.5 -76q0 -10 2 -21.5t2 -21.5q0 -16 -18 -16q-4 0 -14.5 3t-14.5 7q-18 10 -37.5 17t-35 17.5t-24.5 25t-9 38.5z" />
<glyph unicode="&#xba;" horiz-adv-x="686" d="M180 760v67h586v-67h-586zM209 1104q-2 70 30.5 118t88.5 89q53 41 120.5 63.5t129.5 26.5q23 2 48 -8.5t25 -36.5q0 -14 -10 -20.5t-20 -12.5q29 -8 38 -25.5t9 -46.5q0 -41 -16.5 -75.5t-35.5 -69.5q20 -4 39 2t36.5 16.5t32 23.5t30.5 23l12 -51q-45 -53 -94 -76.5 t-121 -23.5q-41 -41 -91 -69.5t-114 -28.5q-53 0 -93 48t-44 134zM311 1065q0 -29 14.5 -35t39.5 -6q33 0 56 11.5t46 31.5q-16 29 -16 57q0 18 8 41t17 43.5t18.5 36t13.5 21.5l-4 2q-31 -18 -73 -41t-71 -49q-23 -20 -36 -52t-13 -61z" />
<glyph unicode="&#xbb;" horiz-adv-x="782" d="M133 821q0 35 20.5 57.5t55.5 22.5q29 0 78 -30.5t95 -73.5t76.5 -90.5t24.5 -79.5q0 -35 -17 -63.5t-40 -57.5q-41 -70 -85 -132.5t-79 -142.5q-16 35 -40.5 81t-24.5 87q0 23 16 43.5t29 36.5q8 8 23.5 29.5t30.5 46.5t26.5 46.5t11.5 33.5q0 10 -24.5 40t-90.5 48 q-35 10 -60.5 33.5t-25.5 64.5zM479 821q0 35 20.5 57.5t55.5 22.5q29 0 78 -30.5t95 -73.5t77 -90.5t24 -79.5q0 -35 -17 -63.5t-40 -57.5q-41 -70 -85 -132.5t-79 -142.5q-16 35 -40.5 81t-24.5 87q0 23 16 43.5t29 36.5q8 8 23.5 29.5t30.5 46.5t26.5 46.5t11.5 33.5 q0 10 -24.5 40t-90.5 48q-35 10 -60.5 33.5t-25.5 64.5z" />
<glyph unicode="&#xbc;" horiz-adv-x="1624" d="M193 -20l1107 1347h132l-1106 -1347h-133zM317 1231l226 88h147l-194 -784h-168l161 645h-4l-161 -62zM799 190l22 91l533 510h166l-123 -490h131l-27 -111h-131l-47 -190h-158l47 190h-413zM969 303l2 -2h270l53 217q16 68 37 121l-6 2q-49 -55 -92 -98z" />
<glyph unicode="&#xbd;" horiz-adv-x="1708" d="M193 -20l1107 1347h132l-1106 -1347h-133zM317 1231l226 88h147l-194 -784h-168l161 645h-4l-161 -62zM909 0l25 96l178 123q84 57 145.5 102.5t103.5 83t65.5 69.5t31.5 65q4 20 2 41.5t-15 40t-41 31t-73 12.5q-55 0 -114.5 -19.5t-96.5 -42.5l-20 109q55 31 136 57.5 t171 26.5q139 0 196.5 -66.5t32.5 -165.5q-14 -57 -48 -104t-84 -92t-113.5 -89.5t-139.5 -93.5l-86 -53l-2 -4h379l-33 -127h-600z" />
<glyph unicode="&#xbe;" horiz-adv-x="1779" d="M145 578l66 114q23 -16 78 -32.5t121 -16.5q96 0 159.5 36t77.5 89q14 59 -44 94t-169 35h-65l24 104h68q45 0 86 8.5t73.5 24t55 36t29.5 44.5q8 35 -20 66.5t-116 31.5q-57 0 -114.5 -18t-85.5 -35l-11 109q47 23 122 42t161 19q145 0 201.5 -56t36.5 -136 q-16 -66 -76 -113t-141 -70l-3 -4q90 -12 134.5 -65.5t25.5 -124.5q-12 -49 -46 -91t-87 -75t-125 -51.5t-158 -18.5t-154.5 15.5t-103.5 38.5zM350 -20l1108 1347h131l-1106 -1347h-133zM956 190l23 91l530 510h166l-121 -490h129l-26 -111h-131l-47 -190h-156l49 190h-416 zM1126 303l2 -2h271l55 217q8 33 16.5 62.5t18.5 58.5l-4 2q-27 -29 -50.5 -53.5t-43.5 -46.5z" />
<glyph unicode="&#xbf;" horiz-adv-x="956" d="M-14 -334q0 106 37.5 191.5t105.5 165.5l266 315q20 25 37 42t17 50q0 14 -6.5 27.5t-6.5 27.5q0 47 45 47q25 0 46.5 -14t37 -36.5t24.5 -48t9 -48.5q0 -37 -13.5 -73t-35 -67.5t-47 -60t-51.5 -53.5l-236 -217q-18 -16 -39.5 -35.5t-41 -41t-33 -45t-13.5 -48.5 q0 -33 13.5 -50.5t35 -25.5t46 -10t48.5 -2q90 0 161 22.5t153 53.5l-21 8q-16 6 -38.5 16.5t-22.5 32.5q0 18 13 27.5t30 9.5q8 0 18.5 -2t18.5 -4l80 -13h31.5t32.5 -5t24.5 -15t9.5 -33q0 -16 -5 -38.5t-13.5 -46t-17.5 -46t-17 -35.5q-23 -37 -78 -62.5t-121 -43 t-130.5 -25.5t-102.5 -8q-57 0 -103.5 10.5t-79.5 35t-50 66.5t-17 105zM514 659q0 27 8 65t24.5 71.5t42 57.5t60.5 24q41 0 76 -29t35 -70q0 -27 -8.5 -69.5t-23.5 -82.5t-37.5 -69t-49.5 -29q-53 0 -90 39t-37 92z" />
<glyph unicode="&#xc0;" horiz-adv-x="1595" d="M-150 -72q0 25 28 71t75 95t111.5 95.5t136.5 70.5l159 176q-49 -2 -85.5 -3t-62.5 2t-38 12.5t-12 29.5q0 14 24.5 50t63.5 75t84 74t86 47q31 10 63.5 17.5t61 10.5t47 0t18.5 -14q0 -14 -23.5 -19t-51 -8t-51 -8.5t-23.5 -19.5q0 -10 10 -14t18 -4q12 0 32 1t40.5 2 t34.5 2t18 1l459 381q76 61 156 124.5t153.5 113.5t134 82t95.5 32q33 0 52 -30t19 -58q0 -33 -23.5 -77t-39.5 -73l-254 -444q57 0 75.5 3t28 4t22.5 -2t62 -13q-45 -53 -81.5 -112.5t-71.5 -121.5l-164 -8l-129 -252q0 -16 10 -24.5t27 -8.5q14 0 26.5 5.5t32 17.5 t48 33.5t73.5 56.5l37 -53q-37 -37 -86 -83t-104.5 -86t-114 -67.5t-113.5 -27.5t-79.5 36.5t-24.5 85.5q0 6 -2 14.5t9 40t43 99.5t99 193l-446 -15l-420 -418q-18 -18 -42 -41.5t-49.5 -44t-54 -35t-55.5 -14.5q-23 0 -47.5 8.5t-24.5 36.5zM823 694l4 -4l314 23l278 467 l-4 4zM1144 1593.5q1 18.5 3 48.5q2 16 2 32t4 28t13.5 20.5t27.5 8.5q16 0 31.5 -4.5t31.5 -8.5l121 -37q23 -6 57.5 -16t70.5 -22.5t69 -24.5t51 -25q18 -12 37.5 -36.5t19.5 -47.5q0 -12 -9 -15t-19 -3q-16 0 -33.5 5t-34.5 11q-41 16 -96 26.5t-98 16.5q-29 4 -49.5 6.5 t-39 3.5t-39 1t-46.5 -2q-31 -2 -47.5 -1t-22.5 9t-5 26.5z" />
<glyph unicode="&#xc1;" horiz-adv-x="1595" d="M-150 -72q0 25 28 71t75 95t111.5 95.5t136.5 70.5l159 176q-49 -2 -85.5 -3t-62.5 2t-38 12.5t-12 29.5q0 14 24.5 50t63.5 75t84 74t86 47q31 10 63.5 17.5t61 10.5t47 0t18.5 -14q0 -14 -23.5 -19t-51 -8t-51 -8.5t-23.5 -19.5q0 -10 10 -14t18 -4q12 0 32 1t40.5 2 t34.5 2t18 1l459 381q76 61 156 124.5t153.5 113.5t134 82t95.5 32q33 0 52 -30t19 -58q0 -33 -23.5 -77t-39.5 -73l-254 -444q57 0 75.5 3t28 4t22.5 -2t62 -13q-45 -53 -81.5 -112.5t-71.5 -121.5l-164 -8l-129 -252q0 -16 10 -24.5t27 -8.5q14 0 26.5 5.5t32 17.5 t48 33.5t73.5 56.5l37 -53q-37 -37 -86 -83t-104.5 -86t-114 -67.5t-113.5 -27.5t-79.5 36.5t-24.5 85.5q0 6 -2 14.5t9 40t43 99.5t99 193l-446 -15l-420 -418q-18 -18 -42 -41.5t-49.5 -44t-54 -35t-55.5 -14.5q-23 0 -47.5 8.5t-24.5 36.5zM823 694l4 -4l314 23l278 467 l-4 4zM1286 1470q0 23 19.5 47.5t37.5 36.5t51 24.5t69 25t70.5 22.5t57.5 16l121 37q16 4 31.5 8.5t32.5 4.5q18 0 27 -8.5t13.5 -20.5t4.5 -27.5t2 -31.5q2 -31 3 -49.5t-5 -26.5t-22.5 -9t-47.5 1q-29 2 -48.5 2t-37.5 -1t-38.5 -3t-49.5 -7q-43 -6 -98.5 -16t-96.5 -27 q-16 -6 -33.5 -11t-33.5 -5q-10 0 -19.5 3t-9.5 15z" />
<glyph unicode="&#xc2;" horiz-adv-x="1595" d="M-150 -72q0 25 28 71t75 95t111.5 95.5t136.5 70.5l159 176q-49 -2 -85.5 -3t-62.5 2t-38 12.5t-12 29.5q0 14 24.5 50t63.5 75t84 74t86 47q31 10 63.5 17.5t61 10.5t47 0t18.5 -14q0 -14 -23.5 -19t-51 -8t-51 -8.5t-23.5 -19.5q0 -10 10 -14t18 -4q12 0 32 1t40.5 2 t34.5 2t18 1l459 381q76 61 156 124.5t153.5 113.5t134 82t95.5 32q33 0 52 -30t19 -58q0 -33 -23.5 -77t-39.5 -73l-254 -444q57 0 75.5 3t28 4t22.5 -2t62 -13q-45 -53 -81.5 -112.5t-71.5 -121.5l-164 -8l-129 -252q0 -16 10 -24.5t27 -8.5q14 0 26.5 5.5t32 17.5 t48 33.5t73.5 56.5l37 -53q-37 -37 -86 -83t-104.5 -86t-114 -67.5t-113.5 -27.5t-79.5 36.5t-24.5 85.5q0 6 -2 14.5t9 40t43 99.5t99 193l-446 -15l-420 -418q-18 -18 -42 -41.5t-49.5 -44t-54 -35t-55.5 -14.5q-23 0 -47.5 8.5t-24.5 36.5zM823 694l4 -4l314 23l278 467 l-4 4zM1260 1468q0 29 27.5 60t101.5 59l165 66q35 14 83.5 30.5t84.5 16.5q35 0 65 -31t52 -53q6 -6 17.5 -16.5t23.5 -22.5t20.5 -25.5t8.5 -23.5q0 -23 -13.5 -35t-29.5 -23q-12 -8 -22.5 -14t-18.5 -16q-23 12 -46.5 34.5t-49 45t-51 40t-48.5 17.5q-8 0 -22.5 -4 t-29.5 -10.5t-28.5 -12.5t-21.5 -8l-180 -76q-10 -4 -35 -15t-35 -11q-12 0 -15 10t-3 18z" />
<glyph unicode="&#xc3;" horiz-adv-x="1595" d="M-150 -72q0 25 28 71t75 95t111.5 95.5t136.5 70.5l159 176q-49 -2 -85.5 -3t-62.5 2t-38 12.5t-12 29.5q0 14 24.5 50t63.5 75t84 74t86 47q31 10 63.5 17.5t61 10.5t47 0t18.5 -14q0 -14 -23.5 -19t-51 -8t-51 -8.5t-23.5 -19.5q0 -10 10 -14t18 -4q12 0 32 1t40.5 2 t34.5 2t18 1l459 381q76 61 156 124.5t153.5 113.5t134 82t95.5 32q33 0 52 -30t19 -58q0 -33 -23.5 -77t-39.5 -73l-254 -444q57 0 75.5 3t28 4t22.5 -2t62 -13q-45 -53 -81.5 -112.5t-71.5 -121.5l-164 -8l-129 -252q0 -16 10 -24.5t27 -8.5q14 0 26.5 5.5t32 17.5 t48 33.5t73.5 56.5l37 -53q-37 -37 -86 -83t-104.5 -86t-114 -67.5t-113.5 -27.5t-79.5 36.5t-24.5 85.5q0 6 -2 14.5t9 40t43 99.5t99 193l-446 -15l-420 -418q-18 -18 -42 -41.5t-49.5 -44t-54 -35t-55.5 -14.5q-23 0 -47.5 8.5t-24.5 36.5zM823 694l4 -4l314 23l278 467 l-4 4zM1296 1563q0 45 15.5 70.5t62.5 25.5l266 -27l5 4q-51 35 -61.5 51.5t-10.5 20.5q0 10 8 19.5t18 9.5q14 0 41 -16.5t52.5 -41t44 -55.5t18.5 -59q0 -86 -88 -86q-63 0 -126.5 15t-127.5 13q33 -29 41 -36t8 -21q0 -20 -20 -20q-14 0 -29.5 10t-26.5 18 q-29 20 -59.5 42t-30.5 63z" />
<glyph unicode="&#xc4;" horiz-adv-x="1595" d="M-150 -72q0 25 28 71t75 95t111.5 95.5t136.5 70.5l159 176q-49 -2 -85.5 -3t-62.5 2t-38 12.5t-12 29.5q0 14 24.5 50t63.5 75t84 74t86 47q31 10 63.5 17.5t61 10.5t47 0t18.5 -14q0 -14 -23.5 -19t-51 -8t-51 -8.5t-23.5 -19.5q0 -10 10 -14t18 -4q12 0 32 1t40.5 2 t34.5 2t18 1l459 381q76 61 156 124.5t153.5 113.5t134 82t95.5 32q33 0 52 -30t19 -58q0 -33 -23.5 -77t-39.5 -73l-254 -444q57 0 75.5 3t28 4t22.5 -2t62 -13q-45 -53 -81.5 -112.5t-71.5 -121.5l-164 -8l-129 -252q0 -16 10 -24.5t27 -8.5q14 0 26.5 5.5t32 17.5 t48 33.5t73.5 56.5l37 -53q-37 -37 -86 -83t-104.5 -86t-114 -67.5t-113.5 -27.5t-79.5 36.5t-24.5 85.5q0 6 -2 14.5t9 40t43 99.5t99 193l-446 -15l-420 -418q-18 -18 -42 -41.5t-49.5 -44t-54 -35t-55.5 -14.5q-23 0 -47.5 8.5t-24.5 36.5zM823 694l4 -4l314 23l278 467 l-4 4zM1231 1591q0 12 9 41t27.5 56.5t47 46t67.5 12.5q16 -2 36 -5t36 -11.5t25.5 -21.5t7.5 -34q-2 -20 -11.5 -49t-25.5 -54.5t-38.5 -43t-51.5 -17.5q-18 0 -41 4.5t-43.5 14.5t-33.5 24.5t-11 36.5zM1620 1591q0 12 9 41t27.5 56.5t47.5 46t68 12.5q16 -2 35.5 -5 t36 -11.5t25.5 -21.5t7 -34q-2 -20 -11.5 -49t-25.5 -54.5t-38.5 -43t-51.5 -17.5q-18 0 -40.5 4.5t-43 14.5t-34 24.5t-11.5 36.5z" />
<glyph unicode="&#xc5;" horiz-adv-x="1595" d="M-150 -72q0 25 28 71t75 95t111.5 95.5t136.5 70.5l159 176q-49 -2 -85.5 -3t-62.5 2t-38 12.5t-12 29.5q0 14 24.5 50t63.5 75t84 74t86 47q31 10 63.5 17.5t61 10.5t47 0t18.5 -14q0 -14 -23.5 -19t-51 -8t-51 -8.5t-23.5 -19.5q0 -10 10 -14t18 -4q12 0 32 1t40.5 2 t34.5 2t18 1l459 381q76 61 156 124.5t153.5 113.5t134 82t95.5 32q33 0 52 -30t19 -58q0 -33 -23.5 -77t-39.5 -73l-254 -444q57 0 75.5 3t28 4t22.5 -2t62 -13q-45 -53 -81.5 -112.5t-71.5 -121.5l-164 -8l-129 -252q0 -16 10 -24.5t27 -8.5q14 0 26.5 5.5t32 17.5 t48 33.5t73.5 56.5l37 -53q-37 -37 -86 -83t-104.5 -86t-114 -67.5t-113.5 -27.5t-79.5 36.5t-24.5 85.5q0 6 -2 14.5t9 40t43 99.5t99 193l-446 -15l-420 -418q-18 -18 -42 -41.5t-49.5 -44t-54 -35t-55.5 -14.5q-23 0 -47.5 8.5t-24.5 36.5zM823 694l4 -4l314 23l278 467 l-4 4zM1554 1593q0 39 21.5 78t51.5 68.5t58.5 48t43.5 18.5q16 0 31.5 -10t29.5 -18l74 -41q12 -12 16 -29.5t4 -34.5q0 -41 -10 -81t-31.5 -72.5t-54.5 -53t-80 -20.5q-29 0 -56.5 11t-49 31.5t-35 47.5t-13.5 57zM1657 1534q0 -4 5 -10t5 -11q37 33 63.5 62t26.5 78 q0 26 -6 51q-47 -35 -70.5 -73t-23.5 -97z" />
<glyph unicode="&#xc6;" horiz-adv-x="2623" d="M-150 -72q0 25 28 71t75 95t111.5 95.5t136.5 70.5l159 176q-49 -2 -85.5 -3t-62.5 2t-38 12.5t-12 29.5q0 14 24.5 50t63.5 75t84 74t86 47q31 10 63.5 17.5t61 10.5t47 0t18.5 -14q0 -14 -23.5 -19t-51 -8t-51 -8.5t-23.5 -19.5q0 -10 10 -14t18 -4q12 0 32 1t40.5 2 t34.5 2t18 1l459 381q76 61 156 124.5t153.5 113.5t134 82t95.5 32q14 0 29.5 -7t25.5 -23.5t12 -42t-10 -60.5l4 -4q172 113 357.5 151.5t394.5 38.5q25 0 68.5 1t89 -4t82.5 -17t49 -37l4 -86q2 -43 1 -68.5t-12.5 -42t-35 -27t-66.5 -24.5q-49 -16 -95 -40t-85 -44 t-66.5 -34.5t-40.5 -14.5q-23 0 -22 20q0 12 20.5 36t46 46.5t47 41t23.5 22.5v-4h4v4q-182 2 -324.5 -30t-238.5 -75t-145.5 -89t-45.5 -72q2 -8 5.5 -18.5t20.5 -21t55 -18.5t111 -14t184.5 -9t275.5 1h30.5t46 -4.5t42 -12.5t18.5 -26q0 -14 -8 -34t-19.5 -39.5 t-25 -35.5t-23.5 -24q-12 -10 -37.5 -18.5t-55.5 -15.5t-58.5 -12.5t-42.5 -7.5q-197 -33 -337.5 -87t-230.5 -112.5t-132 -111.5t-42 -80q0 -29 44 -45t128 -20q86 -4 207 10t277 61q111 35 210 97.5t201 119.5q4 -55 3 -99t-13 -83t-37.5 -73.5t-71.5 -71.5 q-74 -61 -166 -106.5t-192 -74t-202.5 -42t-194.5 -11.5q-72 2 -142.5 14.5t-138.5 30.5q-33 8 -59.5 34t-45 57.5t-26.5 62.5t-6 53q-29 -23 -63.5 -48.5t-72.5 -48t-78 -37.5t-77 -15q-55 0 -79.5 36.5t-24.5 85.5q0 6 -2 14.5t9 40t43 99.5t99 193l-446 -15l-420 -418 q-18 -18 -42 -41.5t-49.5 -44t-54 -35t-55.5 -14.5q-23 0 -47.5 8.5t-24.5 36.5zM825 694l4 -4l312 23l276 465l-4 4zM1114 215q-2 -16 5 -21.5t22 -5.5q27 0 59.5 21.5t50.5 38.5l17 14q41 92 120.5 164t182 124t218.5 88t226 58v4l-323 45q-78 18 -135.5 47t-98.5 97 l-94 -166q31 2 48.5 4t28.5 0t19 -6t21 -14q-43 -53 -77 -109.5t-63 -118.5l-106 -6l-70 -133q-25 -49 -37 -79t-14 -46z" />
<glyph unicode="&#xc7;" horiz-adv-x="1464" d="M-18 109q0 113 43 227.5t109.5 222t148.5 203.5t161 170q43 41 106.5 94t137.5 107.5t155 106.5t160.5 94t153.5 66.5t135 24.5q92 0 148.5 -48t60.5 -146q4 -70 -33.5 -156t-102.5 -176t-147.5 -177t-169.5 -157.5t-171 -117t-148 -56.5q-45 -6 -80 21.5t-35 76.5 q0 47 33 89t66 71l151 133q6 6 19.5 18.5t30 27t32 24.5t23.5 10q35 0 20 -47l4 -4q74 63 134.5 129t103.5 122t66.5 102t23.5 71q0 27 -15.5 37t-39.5 4q-14 -4 -65.5 -15.5t-141.5 -64.5t-220 -163.5t-302 -311.5q-53 -63 -99.5 -135t-79 -144.5t-51 -143.5t-18.5 -128 q0 -111 53 -171t164 -60q63 0 142 25.5t163 67.5t170 96t165 110.5t146.5 110.5t116.5 97q2 -39 -3 -65.5t-17.5 -49t-34 -44t-49.5 -47.5q-227 -219 -426 -333t-347 -151l-36 -73q31 2 64.5 -2.5t62 -16.5t47 -35.5t18.5 -60.5q0 -41 -19.5 -68.5t-50 -44t-67.5 -22.5 t-74 -4q-18 0 -56 7t-78 19.5t-69.5 29.5t-29.5 40q0 8 5 15t13 7q12 0 26.5 -7t33 -15t39 -15.5t42.5 -7.5q33 0 69 17.5t36 56.5q0 23 -11.5 36t-28.5 20.5t-37.5 9.5t-39.5 2l47 94q-35 -6 -65 -6q-86 0 -158 25.5t-124 74.5t-80.5 118.5t-28.5 158.5z" />
<glyph unicode="&#xc8;" horiz-adv-x="1437" d="M43 104q0 51 38 123t128 148t241.5 149.5t376.5 128.5v6q-174 6 -283.5 27t-171 53.5t-84 72.5t-22.5 83q0 76 57.5 165t176 167t302 130t437.5 52h69t89 -5t82 -18.5t49 -37.5l4 -86q2 -43 1 -69t-12.5 -42t-35 -26.5t-66.5 -24.5q-49 -16 -95 -39l-85 -42.5 t-66.5 -34.5t-39.5 -17q-6 -2 -14.5 4t-8.5 16t16.5 30.5t40 42t47 41t37.5 32.5q-182 2 -324.5 -30t-238.5 -75t-145 -89t-45 -73q2 -8 5 -18t20.5 -19.5t55 -18.5t110.5 -15.5t184.5 -8.5t275.5 2h30.5t46 -4t42 -13t18.5 -28q0 -14 -8 -33.5t-19.5 -39t-24.5 -36 t-24 -24.5q-12 -10 -37.5 -18t-55.5 -15.5t-58.5 -12.5t-42.5 -7q-197 -33 -337 -87t-230.5 -112.5t-132.5 -111.5t-42 -80q0 -29 44 -45.5t128 -20.5q86 -4 207 10.5t277 61.5q111 35 210 97.5t201 119.5q4 -55 3 -99t-13 -83t-37.5 -74t-70.5 -72q-27 -23 -89.5 -62.5 t-157.5 -78.5t-223 -67.5t-286 -24.5q-72 2 -142.5 14.5t-138.5 30.5q-33 8 -59.5 34.5t-45 59.5t-28.5 70t-10 67zM736 1572.5q1 18.5 3 49.5q2 16 2 31.5t4.5 28t13.5 20.5t27 8q16 0 32 -4l32 -8l121 -37q23 -6 57.5 -16.5t70.5 -22.5t68.5 -24.5t51.5 -24.5 q18 -12 37.5 -37t19.5 -47q0 -12 -9.5 -15.5t-19.5 -3.5q-16 0 -33.5 5.5t-33.5 11.5q-41 16 -96.5 26.5t-98.5 16.5q-29 4 -49.5 6t-38.5 3t-38.5 1t-47.5 -2q-31 -2 -47 -1t-22.5 9t-5.5 26.5z" />
<glyph unicode="&#xc9;" horiz-adv-x="1437" d="M43 104q0 51 38 123t128 148t241.5 149.5t376.5 128.5v6q-174 6 -283.5 27t-171 53.5t-84 72.5t-22.5 83q0 76 57.5 165t176 167t302 130t437.5 52h69t89 -5t82 -18.5t49 -37.5l4 -86q2 -43 1 -69t-12.5 -42t-35 -26.5t-66.5 -24.5q-49 -16 -95 -39l-85 -42.5 t-66.5 -34.5t-39.5 -17q-6 -2 -14.5 4t-8.5 16t16.5 30.5t40 42t47 41t37.5 32.5q-182 2 -324.5 -30t-238.5 -75t-145 -89t-45 -73q2 -8 5 -18t20.5 -19.5t55 -18.5t110.5 -15.5t184.5 -8.5t275.5 2h30.5t46 -4t42 -13t18.5 -28q0 -14 -8 -33.5t-19.5 -39t-24.5 -36 t-24 -24.5q-12 -10 -37.5 -18t-55.5 -15.5t-58.5 -12.5t-42.5 -7q-197 -33 -337 -87t-230.5 -112.5t-132.5 -111.5t-42 -80q0 -29 44 -45.5t128 -20.5q86 -4 207 10.5t277 61.5q111 35 210 97.5t201 119.5q4 -55 3 -99t-13 -83t-37.5 -74t-70.5 -72q-27 -23 -89.5 -62.5 t-157.5 -78.5t-223 -67.5t-286 -24.5q-72 2 -142.5 14.5t-138.5 30.5q-33 8 -59.5 34.5t-45 59.5t-28.5 70t-10 67zM776 1470q0 23 19.5 47.5t38.5 36.5q18 12 51 24.5t68.5 25t70 22.5t57.5 16l121 37q16 4 31.5 8.5t32.5 4.5q18 0 27.5 -8.5t13.5 -20.5t4 -27.5t2 -31.5 q2 -31 3 -49.5t-5 -26.5t-22.5 -9t-47.5 1q-29 2 -48 2t-37.5 -1t-39 -3t-49.5 -7q-43 -6 -98.5 -16t-96.5 -27q-16 -6 -33.5 -11t-33.5 -5q-10 0 -19.5 3t-9.5 15z" />
<glyph unicode="&#xca;" horiz-adv-x="1437" d="M43 104q0 51 38 123t128 148t241.5 149.5t376.5 128.5v6q-174 6 -283.5 27t-171 53.5t-84 72.5t-22.5 83q0 76 57.5 165t176 167t302 130t437.5 52h69t89 -5t82 -18.5t49 -37.5l4 -86q2 -43 1 -69t-12.5 -42t-35 -26.5t-66.5 -24.5q-49 -16 -95 -39l-85 -42.5 t-66.5 -34.5t-39.5 -17q-6 -2 -14.5 4t-8.5 16t16.5 30.5t40 42t47 41t37.5 32.5q-182 2 -324.5 -30t-238.5 -75t-145 -89t-45 -73q2 -8 5 -18t20.5 -19.5t55 -18.5t110.5 -15.5t184.5 -8.5t275.5 2h30.5t46 -4t42 -13t18.5 -28q0 -14 -8 -33.5t-19.5 -39t-24.5 -36 t-24 -24.5q-12 -10 -37.5 -18t-55.5 -15.5t-58.5 -12.5t-42.5 -7q-197 -33 -337 -87t-230.5 -112.5t-132.5 -111.5t-42 -80q0 -29 44 -45.5t128 -20.5q86 -4 207 10.5t277 61.5q111 35 210 97.5t201 119.5q4 -55 3 -99t-13 -83t-37.5 -74t-70.5 -72q-27 -23 -89.5 -62.5 t-157.5 -78.5t-223 -67.5t-286 -24.5q-72 2 -142.5 14.5t-138.5 30.5q-33 8 -59.5 34.5t-45 59.5t-28.5 70t-10 67zM750 1468q0 29 27.5 60t101.5 59l165 66q35 14 83.5 30.5t84.5 16.5q35 0 65 -31t52 -53q6 -6 17.5 -16.5t23.5 -22.5t20.5 -25.5t8.5 -23.5 q0 -23 -13.5 -35t-29.5 -23q-12 -8 -22.5 -14t-18.5 -16q-23 12 -46.5 34.5t-49 45t-51 40t-48.5 17.5q-8 0 -22.5 -4t-29.5 -10.5t-28.5 -12.5t-21.5 -8l-180 -76q-10 -4 -35 -15t-35 -11q-12 0 -15 10t-3 18z" />
<glyph unicode="&#xcb;" horiz-adv-x="1437" d="M43 104q0 51 38 123t128 148t241.5 149.5t376.5 128.5v6q-174 6 -283.5 27t-171 53.5t-84 72.5t-22.5 83q0 76 57.5 165t176 167t302 130t437.5 52h69t89 -5t82 -18.5t49 -37.5l4 -86q2 -43 1 -69t-12.5 -42t-35 -26.5t-66.5 -24.5q-49 -16 -95 -39l-85 -42.5 t-66.5 -34.5t-39.5 -17q-6 -2 -14.5 4t-8.5 16t16.5 30.5t40 42t47 41t37.5 32.5q-182 2 -324.5 -30t-238.5 -75t-145 -89t-45 -73q2 -8 5 -18t20.5 -19.5t55 -18.5t110.5 -15.5t184.5 -8.5t275.5 2h30.5t46 -4t42 -13t18.5 -28q0 -14 -8 -33.5t-19.5 -39t-24.5 -36 t-24 -24.5q-12 -10 -37.5 -18t-55.5 -15.5t-58.5 -12.5t-42.5 -7q-197 -33 -337 -87t-230.5 -112.5t-132.5 -111.5t-42 -80q0 -29 44 -45.5t128 -20.5q86 -4 207 10.5t277 61.5q111 35 210 97.5t201 119.5q4 -55 3 -99t-13 -83t-37.5 -74t-70.5 -72q-27 -23 -89.5 -62.5 t-157.5 -78.5t-223 -67.5t-286 -24.5q-72 2 -142.5 14.5t-138.5 30.5q-33 8 -59.5 34.5t-45 59.5t-28.5 70t-10 67zM823 1591q0 12 9.5 41t28 56.5t47 46t67.5 12.5q16 -2 35.5 -5t36 -11.5t25.5 -21.5t7 -34q-2 -20 -11 -49t-25.5 -54.5t-39 -43t-51.5 -17.5 q-18 0 -40.5 4.5t-43 14.5t-34 24.5t-11.5 36.5zM1212 1591q0 12 9.5 41t28 56.5t47 46t67.5 12.5q16 -2 35.5 -5t36 -11.5t25.5 -21.5t7 -34q-2 -20 -11 -49t-25.5 -54.5t-39 -43t-51.5 -17.5q-18 0 -40.5 4.5t-43 14.5t-34 24.5t-11.5 36.5z" />
<glyph unicode="&#xcc;" horiz-adv-x="1009" d="M106 739q6 78 50.5 159t111 156.5t152.5 142.5t177 116t182 77.5t169 28.5q51 0 89 -18.5t63.5 -49t38 -72.5t12.5 -89q0 -66 -25.5 -152t-67.5 -180t-96.5 -191.5t-108.5 -188.5t-106.5 -171t-91.5 -135q12 -33 0 -73t-36.5 -75.5t-55.5 -60t-55 -26.5q-18 -2 -38.5 6 t-38 21t-29 31.5t-11.5 37.5q0 23 11.5 43t23.5 37q133 190 235.5 355t171 293t103.5 216t35 127q0 25 -12.5 54.5t-43.5 29.5q-41 -6 -114.5 -44t-153.5 -96.5t-154.5 -133t-115.5 -152.5l51 10q16 4 38.5 8t39.5 4q18 0 18 -20q0 -23 -22.5 -40t-38.5 -30 q-12 -8 -34.5 -25.5t-48.5 -36t-50.5 -31.5t-38.5 -13t-46 15t-63.5 39t-54.5 49.5t-21 47.5zM486 1593.5q1 18.5 3 48.5q2 16 2.5 32t4.5 28t13 20.5t28 8.5q16 0 31.5 -4.5t31.5 -8.5l121 -37q23 -6 57.5 -16t70.5 -22.5t68.5 -24.5t51.5 -25q18 -12 37.5 -36.5 t19.5 -47.5q0 -12 -9 -15t-20 -3q-16 0 -33.5 5t-33.5 11q-41 16 -96.5 26.5t-98.5 16.5q-29 4 -49 6.5t-38.5 3.5t-39 1t-47.5 -2q-31 -2 -47 -1t-22.5 9t-5.5 26.5z" />
<glyph unicode="&#xcd;" horiz-adv-x="1009" d="M106 739q6 78 50.5 159t111 156.5t152.5 142.5t177 116t182 77.5t169 28.5q51 0 89 -18.5t63.5 -49t38 -72.5t12.5 -89q0 -66 -25.5 -152t-67.5 -180t-96.5 -191.5t-108.5 -188.5t-106.5 -171t-91.5 -135q12 -33 0 -73t-36.5 -75.5t-55.5 -60t-55 -26.5q-18 -2 -38.5 6 t-38 21t-29 31.5t-11.5 37.5q0 23 11.5 43t23.5 37q133 190 235.5 355t171 293t103.5 216t35 127q0 25 -12.5 54.5t-43.5 29.5q-41 -6 -114.5 -44t-153.5 -96.5t-154.5 -133t-115.5 -152.5l51 10q16 4 38.5 8t39.5 4q18 0 18 -20q0 -23 -22.5 -40t-38.5 -30 q-12 -8 -34.5 -25.5t-48.5 -36t-50.5 -31.5t-38.5 -13t-46 15t-63.5 39t-54.5 49.5t-21 47.5zM563 1470q0 23 19.5 47.5t38.5 36.5q18 12 51 24.5t68.5 25t70 22.5t57.5 16l121 37q16 4 31.5 8.5t32.5 4.5q18 0 27.5 -8.5t13.5 -20.5t4 -27.5t2 -31.5q2 -31 3 -49.5 t-5 -26.5t-22.5 -9t-47.5 1q-29 2 -48 2t-37.5 -1t-39 -3t-49.5 -7q-43 -6 -98.5 -16t-96.5 -27q-16 -6 -33.5 -11t-33.5 -5q-10 0 -19.5 3t-9.5 15z" />
<glyph unicode="&#xce;" horiz-adv-x="1009" d="M106 739q6 78 50.5 159t111 156.5t152.5 142.5t177 116t182 77.5t169 28.5q51 0 89 -18.5t63.5 -49t38 -72.5t12.5 -89q0 -66 -25.5 -152t-67.5 -180t-96.5 -191.5t-108.5 -188.5t-106.5 -171t-91.5 -135q12 -33 0 -73t-36.5 -75.5t-55.5 -60t-55 -26.5q-18 -2 -38.5 6 t-38 21t-29 31.5t-11.5 37.5q0 23 11.5 43t23.5 37q133 190 235.5 355t171 293t103.5 216t35 127q0 25 -12.5 54.5t-43.5 29.5q-41 -6 -114.5 -44t-153.5 -96.5t-154.5 -133t-115.5 -152.5l51 10q16 4 38.5 8t39.5 4q18 0 18 -20q0 -23 -22.5 -40t-38.5 -30 q-12 -8 -34.5 -25.5t-48.5 -36t-50.5 -31.5t-38.5 -13t-46 15t-63.5 39t-54.5 49.5t-21 47.5zM537 1468q0 29 27.5 60t101.5 59l165 66q35 14 83.5 30.5t84.5 16.5q35 0 65 -31t52 -53q6 -6 17.5 -16.5t23.5 -22.5t20.5 -25.5t8.5 -23.5q0 -23 -13.5 -35t-29.5 -23 q-12 -8 -22.5 -14t-18.5 -16q-23 12 -46.5 34.5t-49 45t-51 40t-48.5 17.5q-8 0 -22.5 -4t-29.5 -10.5t-28.5 -12.5t-21.5 -8l-180 -76q-10 -4 -35 -15t-35 -11q-12 0 -15 10t-3 18z" />
<glyph unicode="&#xcf;" horiz-adv-x="1009" d="M106 739q6 78 50.5 159t111 156.5t152.5 142.5t177 116t182 77.5t169 28.5q51 0 89 -18.5t63.5 -49t38 -72.5t12.5 -89q0 -66 -25.5 -152t-67.5 -180t-96.5 -191.5t-108.5 -188.5t-106.5 -171t-91.5 -135q12 -33 0 -73t-36.5 -75.5t-55.5 -60t-55 -26.5q-18 -2 -38.5 6 t-38 21t-29 31.5t-11.5 37.5q0 23 11.5 43t23.5 37q133 190 235.5 355t171 293t103.5 216t35 127q0 25 -12.5 54.5t-43.5 29.5q-41 -6 -114.5 -44t-153.5 -96.5t-154.5 -133t-115.5 -152.5l51 10q16 4 38.5 8t39.5 4q18 0 18 -20q0 -23 -22.5 -40t-38.5 -30 q-12 -8 -34.5 -25.5t-48.5 -36t-50.5 -31.5t-38.5 -13t-46 15t-63.5 39t-54.5 49.5t-21 47.5zM573 1591q0 12 9.5 41t28 56.5t47 46t67.5 12.5q16 -2 35.5 -5t36 -11.5t25.5 -21.5t7 -34q-2 -20 -11 -49t-25.5 -54.5t-39 -43t-51.5 -17.5q-18 0 -40.5 4.5t-43 14.5t-34 24.5 t-11.5 36.5zM963 1591q0 12 9 41t27.5 56.5t47 46t67.5 12.5q16 -2 35.5 -5t36 -11.5t26 -21.5t7.5 -34q-2 -20 -11.5 -49t-26 -54.5t-38.5 -43t-51 -17.5q-18 0 -41 4.5t-43.5 14.5t-33.5 24.5t-11 36.5z" />
<glyph unicode="&#xd0;" horiz-adv-x="1646" d="M111 950q0 27 11 71t17 71q18 82 68.5 122.5t126.5 75.5q72 33 160 59.5t180 45t184 29t172 10.5q57 0 123 -5.5t130.5 -17.5t125.5 -33.5t111 -52.5q55 -37 96 -87t67.5 -110.5t39 -126t12.5 -129.5q0 -111 -42 -209t-111 -183t-156 -153.5t-177 -119.5 q-84 -47 -190.5 -89t-220 -73t-226 -49.5t-209.5 -18.5h-41.5t-48 2.5t-48 7.5t-38.5 13q-29 16 -38 48t-9 61q0 57 17.5 110t46 104.5t63.5 97.5t70 87l59 72l-4 4q-27 0 -61.5 -5.5t-66.5 -12.5t-55.5 -12t-29.5 -5q-12 0 -12 18q0 6 5 24.5t14.5 37t23.5 35t35 20.5 q131 23 256 29l325 405q-113 -10 -224.5 -32.5t-215.5 -63.5v-4h55h21.5t38 -2t36 -7t15.5 -14q0 -18 -24.5 -26t-39.5 -11q-37 -6 -82 -19t-90 -26.5t-88 -23.5t-80 -10q-35 0 -56 18t-21 53zM412 272q0 -29 28.5 -46t94.5 -17q106 0 234 24.5t237 63.5q162 57 272.5 124.5 t179 139.5t98 144.5t29.5 140.5q0 66 -31.5 112t-84 76.5t-118 47t-132 25.5t-130 13t-108.5 6q-12 -49 -24.5 -79.5t-43.5 -71.5l-200 -262q41 2 66.5 3t43.5 1q90 0 126 -14.5t38 -49.5q0 -51 -69 -51q-76 0 -153.5 -1t-143.5 -5l-160 -211q-23 -31 -36 -53.5t-13 -59.5z " />
<glyph unicode="&#xd1;" horiz-adv-x="1712" d="M98 823.5v24.5q0 61 27 122.5t67.5 119t90 105.5t96.5 85t83 57.5t52 20.5q8 0 15.5 -4t7.5 -13l-3 -7q-4 -7 -15 -22.5t-33.5 -40t-59.5 -61.5l4 -4q55 31 127 69t148.5 72.5t153.5 58.5t140 24q53 0 94.5 -29t36.5 -86q-4 -61 -23.5 -123t-60 -146.5t-107.5 -202.5 t-165 -292l4 -4q147 178 255 301t182.5 202.5t118.5 120.5t63 54q23 14 60.5 40.5t76.5 53.5t72.5 45t52.5 18q12 0 41 -16t56.5 -44t49 -62.5t21.5 -71.5q0 -49 -44 -122t-111.5 -171t-148.5 -221t-155 -268q-23 -45 -35 -76t-18 -50.5t-8 -29.5t-2 -12q0 -29 9 -56.5 t44 -27.5q31 0 90 44t122.5 103t119 116.5t77.5 86.5q4 -37 6.5 -57.5t2.5 -34.5q0 -12 -5.5 -21.5t-17.5 -25.5q-111 -143 -206 -237.5t-171 -151t-132 -80t-89 -23.5q-39 0 -65.5 15.5t-43 41t-23.5 57t-7 64.5q0 86 34.5 176t75.5 164l349 641l-5 4 q-129 -123 -252.5 -246.5t-234.5 -246.5q-23 -25 -70 -87.5t-104 -138t-113.5 -151.5t-97.5 -131q-10 -16 -27.5 -37t-38.5 -21q-16 0 -43.5 13.5t-54 34t-45 42t-18.5 39.5q0 10 8 23.5t12 22.5q20 33 64.5 105.5t97.5 166.5t108.5 197.5t101.5 195.5t75.5 163t29.5 99 q0 20 -6 31.5t-26 11.5q-53 0 -216 -83t-423 -255q-12 -10 -29.5 -18t-32.5 -8q-14 0 -22.5 10t-11.5 25.5t-3 30zM1143 1563q0 45 15.5 70.5t62.5 25.5l266 -27l4 4q-51 35 -61.5 51.5t-10.5 20.5q0 10 8.5 19.5t18.5 9.5q14 0 40.5 -16.5t52.5 -41t44.5 -55.5t18.5 -59 q0 -86 -89 -86q-63 0 -126.5 15t-126.5 13q33 -29 41 -36t8 -21q0 -20 -21 -20q-14 0 -29.5 10t-25.5 18q-29 20 -59.5 42t-30.5 63z" />
<glyph unicode="&#xd2;" horiz-adv-x="1308" d="M72 408q-6 111 42 224t132 218.5t194.5 201t229 170t237.5 123t217 62.5q37 6 72 -14.5t63.5 -50t46 -58.5t17.5 -41q0 -16 -11.5 -27.5t-27.5 -20.5t-32.5 -14t-28.5 -10q-25 -10 -46 -21.5t-44 -23.5l2 -2q61 16 107 10t77 -28q59 -49 63 -162q2 -102 -33.5 -212.5 t-102 -217t-158 -202t-197 -167t-222 -114.5t-233.5 -41q-61 0 -122.5 21.5t-112.5 69.5t-87 128t-42 199zM279 272q0 -53 24.5 -93t83.5 -40q43 0 95.5 14.5t104.5 38t99 51t80 56.5q102 88 183 176t136.5 171t85 157t31.5 129q2 37 -18.5 68.5t-61.5 31.5 q-68 0 -144.5 -28.5t-149 -74.5t-133 -101.5t-97.5 -110.5q-10 -12 -27.5 -33.5t-35.5 -21.5q-20 0 -23.5 21.5t-5.5 35.5q-43 -43 -84 -94.5t-73 -108.5t-51 -118.5t-19 -125.5zM724 1593.5q1 18.5 3 48.5q2 16 2 32t4 28t13.5 20.5t27.5 8.5q16 0 32 -4.5t32 -8.5l120 -37 q23 -6 58 -16t70.5 -22.5t68.5 -24.5t51 -25q18 -12 38 -36.5t20 -47.5q0 -12 -9.5 -15t-19.5 -3q-16 0 -33.5 5t-34.5 11q-41 16 -96 26.5t-98 16.5q-29 4 -49.5 6.5t-39 3.5t-39 1t-46.5 -2q-31 -2 -47.5 -1t-22.5 9t-5 26.5z" />
<glyph unicode="&#xd3;" horiz-adv-x="1308" d="M72 408q-6 111 42 224t132 218.5t194.5 201t229 170t237.5 123t217 62.5q37 6 72 -14.5t63.5 -50t46 -58.5t17.5 -41q0 -16 -11.5 -27.5t-27.5 -20.5t-32.5 -14t-28.5 -10q-25 -10 -46 -21.5t-44 -23.5l2 -2q61 16 107 10t77 -28q59 -49 63 -162q2 -102 -33.5 -212.5 t-102 -217t-158 -202t-197 -167t-222 -114.5t-233.5 -41q-61 0 -122.5 21.5t-112.5 69.5t-87 128t-42 199zM279 272q0 -53 24.5 -93t83.5 -40q43 0 95.5 14.5t104.5 38t99 51t80 56.5q102 88 183 176t136.5 171t85 157t31.5 129q2 37 -18.5 68.5t-61.5 31.5 q-68 0 -144.5 -28.5t-149 -74.5t-133 -101.5t-97.5 -110.5q-10 -12 -27.5 -33.5t-35.5 -21.5q-20 0 -23.5 21.5t-5.5 35.5q-43 -43 -84 -94.5t-73 -108.5t-51 -118.5t-19 -125.5zM836 1470q0 23 19 47.5t38 36.5q18 12 51 24.5t69 25t70.5 22.5t57.5 16l121 37 q16 4 31.5 8.5t31.5 4.5q18 0 27.5 -8.5t13.5 -20.5t4 -27.5t2 -31.5q2 -31 3 -49.5t-5 -26.5t-22.5 -9t-47.5 1q-29 2 -48 2t-37.5 -1t-39 -3t-49.5 -7q-43 -6 -98 -16t-96 -27q-16 -6 -33.5 -11t-34.5 -5q-10 0 -19 3t-9 15z" />
<glyph unicode="&#xd4;" horiz-adv-x="1308" d="M72 408q-6 111 42 224t132 218.5t194.5 201t229 170t237.5 123t217 62.5q37 6 72 -14.5t63.5 -50t46 -58.5t17.5 -41q0 -16 -11.5 -27.5t-27.5 -20.5t-32.5 -14t-28.5 -10q-25 -10 -46 -21.5t-44 -23.5l2 -2q61 16 107 10t77 -28q59 -49 63 -162q2 -102 -33.5 -212.5 t-102 -217t-158 -202t-197 -167t-222 -114.5t-233.5 -41q-61 0 -122.5 21.5t-112.5 69.5t-87 128t-42 199zM279 272q0 -53 24.5 -93t83.5 -40q43 0 95.5 14.5t104.5 38t99 51t80 56.5q102 88 183 176t136.5 171t85 157t31.5 129q2 37 -18.5 68.5t-61.5 31.5 q-68 0 -144.5 -28.5t-149 -74.5t-133 -101.5t-97.5 -110.5q-10 -12 -27.5 -33.5t-35.5 -21.5q-20 0 -23.5 21.5t-5.5 35.5q-43 -43 -84 -94.5t-73 -108.5t-51 -118.5t-19 -125.5zM768 1468q0 29 27.5 60t101.5 59l166 66q35 14 83 30.5t85 16.5q35 0 64.5 -31t52.5 -53 q6 -6 17 -16.5t23.5 -22.5t20.5 -25.5t8 -23.5q0 -23 -13 -35t-30 -23q-12 -8 -22.5 -14t-18.5 -16q-23 12 -46 34.5t-49 45t-51.5 40t-47.5 17.5q-8 0 -22.5 -4t-30 -10.5t-29 -12.5t-21.5 -8l-180 -76q-10 -4 -34.5 -15t-35.5 -11q-12 0 -15 10t-3 18z" />
<glyph unicode="&#xd5;" horiz-adv-x="1308" d="M72 408q-6 111 42 224t132 218.5t194.5 201t229 170t237.5 123t217 62.5q37 6 72 -14.5t63.5 -50t46 -58.5t17.5 -41q0 -16 -11.5 -27.5t-27.5 -20.5t-32.5 -14t-28.5 -10q-25 -10 -46 -21.5t-44 -23.5l2 -2q61 16 107 10t77 -28q59 -49 63 -162q2 -102 -33.5 -212.5 t-102 -217t-158 -202t-197 -167t-222 -114.5t-233.5 -41q-61 0 -122.5 21.5t-112.5 69.5t-87 128t-42 199zM279 272q0 -53 24.5 -93t83.5 -40q43 0 95.5 14.5t104.5 38t99 51t80 56.5q102 88 183 176t136.5 171t85 157t31.5 129q2 37 -18.5 68.5t-61.5 31.5 q-68 0 -144.5 -28.5t-149 -74.5t-133 -101.5t-97.5 -110.5q-10 -12 -27.5 -33.5t-35.5 -21.5q-20 0 -23.5 21.5t-5.5 35.5q-43 -43 -84 -94.5t-73 -108.5t-51 -118.5t-19 -125.5zM813 1583q0 45 15.5 70.5t62.5 25.5l266 -26l4 4q-51 35 -61 51t-10 21q0 10 8 19t18 9 q14 0 41 -16.5t52.5 -41t44 -55t18.5 -59.5q0 -86 -88 -86q-63 0 -127 15.5t-127 13.5q33 -29 41 -36t8 -22q0 -20 -21 -20q-14 0 -29.5 10t-25.5 19q-29 20 -59.5 41.5t-30.5 62.5z" />
<glyph unicode="&#xd6;" horiz-adv-x="1308" d="M72 408q-6 111 42 224t132 218.5t194.5 201t229 170t237.5 123t217 62.5q37 6 72 -14.5t63.5 -50t46 -58.5t17.5 -41q0 -16 -11.5 -27.5t-27.5 -20.5t-32.5 -14t-28.5 -10q-25 -10 -46 -21.5t-44 -23.5l2 -2q61 16 107 10t77 -28q59 -49 63 -162q2 -102 -33.5 -212.5 t-102 -217t-158 -202t-197 -167t-222 -114.5t-233.5 -41q-61 0 -122.5 21.5t-112.5 69.5t-87 128t-42 199zM279 272q0 -53 24.5 -93t83.5 -40q43 0 95.5 14.5t104.5 38t99 51t80 56.5q102 88 183 176t136.5 171t85 157t31.5 129q2 37 -18.5 68.5t-61.5 31.5 q-68 0 -144.5 -28.5t-149 -74.5t-133 -101.5t-97.5 -110.5q-10 -12 -27.5 -33.5t-35.5 -21.5q-20 0 -23.5 21.5t-5.5 35.5q-43 -43 -84 -94.5t-73 -108.5t-51 -118.5t-19 -125.5zM811 1591q0 12 9 41t27.5 56.5t47.5 46t68 12.5q16 -2 35.5 -5t36 -11.5t25.5 -21.5t7 -34 q-2 -20 -11 -49t-25.5 -54.5t-39 -43t-51.5 -17.5q-18 0 -40.5 4.5t-43 14.5t-34 24.5t-11.5 36.5zM1200 1591q0 12 9.5 41t27.5 56.5t47 46t68 12.5q16 -2 35.5 -5t36 -11.5t25.5 -21.5t7 -34q-2 -20 -11 -49t-25.5 -54.5t-39 -43t-51.5 -17.5q-18 0 -40.5 4.5t-43 14.5 t-34 24.5t-11.5 36.5z" />
<glyph unicode="&#xd7;" horiz-adv-x="1312" d="M285 119l377 395l-375 395l90 86l373 -391l370 393l88 -84l-379 -397l379 -397l-92 -88l-373 395l-370 -393z" />
<glyph unicode="&#xd8;" horiz-adv-x="1308" d="M-43 -102q0 39 27.5 69.5t56.5 55.5l104 120q-33 57 -51 125t-22 140q-6 111 42 224t132 218.5t195.5 201t230.5 170t237.5 123t216.5 62.5q37 6 72 -14.5t63.5 -50t46 -58.5t17.5 -41q0 -16 -11 -27.5t-27.5 -20.5t-33 -14t-28.5 -10q-25 -10 -46.5 -21t-43.5 -24l2 -2 q61 16 107 10t77 -28q20 12 55 38.5t74 54.5t77 48.5t62 20.5q31 0 58.5 -29t48.5 -51l-322 -189q10 -25 9 -47t-1 -47q0 -78 -28.5 -165t-72.5 -170t-100.5 -157.5t-113.5 -129.5q-59 -55 -128 -106.5t-145.5 -90.5t-156.5 -64.5t-160 -29.5q-72 -4 -123 10t-94 39 q-37 -35 -76 -72t-57 -78q-14 -29 -27.5 -56.5t-52.5 -27.5q-37 0 -63.5 27t-26.5 64zM279 262l895 750q-16 16 -27.5 16t-22.5 4q-68 0 -144.5 -29.5t-149 -74.5t-134 -100.5t-98.5 -110.5q-10 -12 -27.5 -33.5t-35.5 -21.5q-20 0 -23.5 21.5t-7.5 35.5q-43 -43 -84 -94.5 t-73 -109.5t-51 -121.5t-17 -131.5zM352 143q16 -4 35 -3t41 1q29 0 82 19.5t111.5 48.5t111.5 64.5t84 70.5q96 84 164 166t135 178q23 43 40.5 88t33.5 88l-4 4z" />
<glyph unicode="&#xd9;" horiz-adv-x="1789" d="M98 821q10 66 51 148t112 157.5t172.5 135t236.5 79.5q45 6 103 20.5t118.5 29t118 24.5t100.5 10q45 0 72.5 -24.5t41 -61t12.5 -78.5t-11 -77q-12 -37 -28.5 -67t-37 -58.5t-45 -57t-51.5 -65.5q-18 -18 -60 -66.5t-94.5 -110t-109 -130t-102.5 -130t-75.5 -107.5 t-29.5 -64q0 -37 41 -37q20 0 63 26.5t97.5 66.5t115 90t113.5 97t95 86t61 58q172 170 285.5 283.5t185 183t109.5 98.5t61 29t38 -14.5t25 -35t15.5 -43t5.5 -38.5q6 -16 -5.5 -42t-53.5 -87.5t-120.5 -171t-210.5 -293.5q-61 -86 -97 -148.5t-55.5 -106.5t-25.5 -70 t-6 -38q0 -35 22.5 -58.5t55.5 -23.5q39 0 97.5 32t117.5 75t112.5 88t84.5 69q4 -27 7 -40t3 -27t-31 -48t-80 -76t-112.5 -87t-127 -82t-124 -60.5t-105.5 -23.5q-72 0 -117 45t-45 117q0 88 32 159.5t75 143.5l168 285l-4 4q-397 -387 -607 -559t-262 -162 q-98 16 -145 71.5t-47 139.5q0 49 28.5 107.5t68.5 116.5t85 111.5t76 90.5q100 119 173 199.5t119 132t67.5 78t21.5 38.5q0 20 -21 21q-10 0 -30.5 -9.5t-28.5 -13.5q-41 -18 -67.5 -28.5t-51 -21.5t-51.5 -23.5t-69 -32t-103 -50t-154 -75.5q-20 -10 -46.5 -21.5 t-55.5 -21.5t-56.5 -16.5t-49.5 -6.5q-27 0 -42.5 7.5t-11.5 35.5zM1037 1593.5q1 18.5 3 48.5q2 16 2 32t4.5 28t13.5 20.5t27 8.5q16 0 32 -4.5t32 -8.5l121 -37q23 -6 57.5 -16t70.5 -22.5t68.5 -24.5t51.5 -25q18 -12 37.5 -36.5t19.5 -47.5q0 -12 -9 -15t-20 -3 q-16 0 -33.5 5t-33.5 11q-41 16 -96.5 26.5t-98.5 16.5q-29 4 -49 6.5t-38.5 3.5t-39 1t-47.5 -2q-31 -2 -47 -1t-22.5 9t-5.5 26.5z" />
<glyph unicode="&#xda;" horiz-adv-x="1789" d="M98 821q10 66 51 148t112 157.5t172.5 135t236.5 79.5q45 6 103 20.5t118.5 29t118 24.5t100.5 10q45 0 72.5 -24.5t41 -61t12.5 -78.5t-11 -77q-12 -37 -28.5 -67t-37 -58.5t-45 -57t-51.5 -65.5q-18 -18 -60 -66.5t-94.5 -110t-109 -130t-102.5 -130t-75.5 -107.5 t-29.5 -64q0 -37 41 -37q20 0 63 26.5t97.5 66.5t115 90t113.5 97t95 86t61 58q172 170 285.5 283.5t185 183t109.5 98.5t61 29t38 -14.5t25 -35t15.5 -43t5.5 -38.5q6 -16 -5.5 -42t-53.5 -87.5t-120.5 -171t-210.5 -293.5q-61 -86 -97 -148.5t-55.5 -106.5t-25.5 -70 t-6 -38q0 -35 22.5 -58.5t55.5 -23.5q39 0 97.5 32t117.5 75t112.5 88t84.5 69q4 -27 7 -40t3 -27t-31 -48t-80 -76t-112.5 -87t-127 -82t-124 -60.5t-105.5 -23.5q-72 0 -117 45t-45 117q0 88 32 159.5t75 143.5l168 285l-4 4q-397 -387 -607 -559t-262 -162 q-98 16 -145 71.5t-47 139.5q0 49 28.5 107.5t68.5 116.5t85 111.5t76 90.5q100 119 173 199.5t119 132t67.5 78t21.5 38.5q0 20 -21 21q-10 0 -30.5 -9.5t-28.5 -13.5q-41 -18 -67.5 -28.5t-51 -21.5t-51.5 -23.5t-69 -32t-103 -50t-154 -75.5q-20 -10 -46.5 -21.5 t-55.5 -21.5t-56.5 -16.5t-49.5 -6.5q-27 0 -42.5 7.5t-11.5 35.5zM1178 1470q0 23 19.5 47.5t37.5 36.5t51 24.5t69 25t70.5 22.5t57.5 16l121 37q16 4 31.5 8.5t31.5 4.5q18 0 27.5 -8.5t13.5 -20.5t4 -27.5t2 -31.5q2 -31 3 -49.5t-5 -26.5t-22.5 -9t-47.5 1q-29 2 -48 2 t-37.5 -1t-39 -3t-49.5 -7q-43 -6 -98 -16t-96 -27q-16 -6 -33.5 -11t-34.5 -5q-10 0 -19 3t-9 15z" />
<glyph unicode="&#xdb;" horiz-adv-x="1789" d="M98 821q10 66 51 148t112 157.5t172.5 135t236.5 79.5q45 6 103 20.5t118.5 29t118 24.5t100.5 10q45 0 72.5 -24.5t41 -61t12.5 -78.5t-11 -77q-12 -37 -28.5 -67t-37 -58.5t-45 -57t-51.5 -65.5q-18 -18 -60 -66.5t-94.5 -110t-109 -130t-102.5 -130t-75.5 -107.5 t-29.5 -64q0 -37 41 -37q20 0 63 26.5t97.5 66.5t115 90t113.5 97t95 86t61 58q172 170 285.5 283.5t185 183t109.5 98.5t61 29t38 -14.5t25 -35t15.5 -43t5.5 -38.5q6 -16 -5.5 -42t-53.5 -87.5t-120.5 -171t-210.5 -293.5q-61 -86 -97 -148.5t-55.5 -106.5t-25.5 -70 t-6 -38q0 -35 22.5 -58.5t55.5 -23.5q39 0 97.5 32t117.5 75t112.5 88t84.5 69q4 -27 7 -40t3 -27t-31 -48t-80 -76t-112.5 -87t-127 -82t-124 -60.5t-105.5 -23.5q-72 0 -117 45t-45 117q0 88 32 159.5t75 143.5l168 285l-4 4q-397 -387 -607 -559t-262 -162 q-98 16 -145 71.5t-47 139.5q0 49 28.5 107.5t68.5 116.5t85 111.5t76 90.5q100 119 173 199.5t119 132t67.5 78t21.5 38.5q0 20 -21 21q-10 0 -30.5 -9.5t-28.5 -13.5q-41 -18 -67.5 -28.5t-51 -21.5t-51.5 -23.5t-69 -32t-103 -50t-154 -75.5q-20 -10 -46.5 -21.5 t-55.5 -21.5t-56.5 -16.5t-49.5 -6.5q-27 0 -42.5 7.5t-11.5 35.5zM1049 1468q0 29 27.5 60t101.5 59l165 66q35 14 83.5 30.5t84.5 16.5q35 0 65 -31t52 -53q6 -6 17.5 -16.5t23.5 -22.5t20.5 -25.5t8.5 -23.5q0 -23 -13.5 -35t-29.5 -23q-12 -8 -22.5 -14t-18.5 -16 q-23 12 -46.5 34.5t-49 45t-51 40t-48.5 17.5q-8 0 -22.5 -4t-29.5 -10.5t-28.5 -12.5t-21.5 -8l-180 -76q-10 -4 -35 -15t-35 -11q-12 0 -15 10t-3 18z" />
<glyph unicode="&#xdc;" horiz-adv-x="1789" d="M98 821q10 66 51 148t112 157.5t172.5 135t236.5 79.5q45 6 103 20.5t118.5 29t118 24.5t100.5 10q45 0 72.5 -24.5t41 -61t12.5 -78.5t-11 -77q-12 -37 -28.5 -67t-37 -58.5t-45 -57t-51.5 -65.5q-18 -18 -60 -66.5t-94.5 -110t-109 -130t-102.5 -130t-75.5 -107.5 t-29.5 -64q0 -37 41 -37q20 0 63 26.5t97.5 66.5t115 90t113.5 97t95 86t61 58q172 170 285.5 283.5t185 183t109.5 98.5t61 29t38 -14.5t25 -35t15.5 -43t5.5 -38.5q6 -16 -5.5 -42t-53.5 -87.5t-120.5 -171t-210.5 -293.5q-61 -86 -97 -148.5t-55.5 -106.5t-25.5 -70 t-6 -38q0 -35 22.5 -58.5t55.5 -23.5q39 0 97.5 32t117.5 75t112.5 88t84.5 69q4 -27 7 -40t3 -27t-31 -48t-80 -76t-112.5 -87t-127 -82t-124 -60.5t-105.5 -23.5q-72 0 -117 45t-45 117q0 88 32 159.5t75 143.5l168 285l-4 4q-397 -387 -607 -559t-262 -162 q-98 16 -145 71.5t-47 139.5q0 49 28.5 107.5t68.5 116.5t85 111.5t76 90.5q100 119 173 199.5t119 132t67.5 78t21.5 38.5q0 20 -21 21q-10 0 -30.5 -9.5t-28.5 -13.5q-41 -18 -67.5 -28.5t-51 -21.5t-51.5 -23.5t-69 -32t-103 -50t-154 -75.5q-20 -10 -46.5 -21.5 t-55.5 -21.5t-56.5 -16.5t-49.5 -6.5q-27 0 -42.5 7.5t-11.5 35.5zM1188 1591q0 12 9 41t27.5 56.5t47 46t67.5 12.5q16 -2 36 -5t36 -11.5t25.5 -21.5t7.5 -34q-2 -20 -11.5 -49t-25.5 -54.5t-38.5 -43t-51.5 -17.5q-18 0 -41 4.5t-43.5 14.5t-33.5 24.5t-11 36.5z M1577 1591q0 12 9 41t27.5 56.5t47.5 46t68 12.5q16 -2 35.5 -5t36 -11.5t25.5 -21.5t7 -34q-2 -20 -11.5 -49t-25.5 -54.5t-38.5 -43t-51.5 -17.5q-18 0 -41 4.5t-43 14.5t-33.5 24.5t-11.5 36.5z" />
<glyph unicode="&#xdd;" horiz-adv-x="1519" d="M98 766q-6 20 13 82l30 110q16 59 46 88t81 62q63 39 167 92t215.5 102.5t219 83t181.5 33.5q53 0 98 -25.5t45 -86.5q0 -35 -25.5 -84t-60.5 -99.5t-71 -96.5t-58 -75q-121 -156 -197.5 -250t-122 -151t-61.5 -86t-18 -51q-2 -20 27.5 -29.5t80.5 33.5q72 59 110 89 t64.5 50.5t54 44t84 72.5t152.5 136l256 232q8 8 22.5 21.5t31 27t32.5 23.5t29 10q18 0 35.5 -13t31 -31.5t21.5 -40t8 -38.5q0 -23 -18.5 -53t-63.5 -91.5t-118.5 -161t-184.5 -257.5q-63 -90 -116.5 -165.5t-88.5 -132t-46 -88.5t9 -34q10 0 21.5 5.5t37 21.5t76 45 t140.5 76q102 51 149 51t47 -24q0 -12 -15 -32t-35.5 -38.5t-42 -34.5t-32.5 -22q-49 -37 -116.5 -91.5t-136 -113t-130 -115.5t-98.5 -102q-16 -18 -37.5 -42t-46 -45.5t-50.5 -36t-52 -14.5q-43 0 -66.5 30t-23.5 71q0 51 37.5 138t97 190.5t133.5 215t146.5 213 t134 184.5t98.5 128l-4 4l-543 -469q-23 -20 -57.5 -49t-73.5 -56.5t-78 -47t-70 -19.5q-25 0 -52 11t-48.5 30.5t-33 44.5t-7.5 51q2 10 3 25.5t10.5 40t30 62.5t60.5 96.5t103 141.5t158 195q131 158 200.5 245t69.5 124q2 10 -7 15t-20 7q-117 -59 -211 -108t-172.5 -92 t-148.5 -81t-139 -75q-10 -8 -32 -16t-34 -8q-29 0 -35 18zM1083 1470q0 23 19.5 47.5t38.5 36.5q18 12 51 24.5t68.5 25t70.5 22.5t58 16l120 37q16 4 31.5 8.5t32.5 4.5q18 0 27.5 -8.5t13.5 -20.5t4 -27.5t2 -31.5q2 -31 3 -49.5t-5 -26.5t-22.5 -9t-47.5 1q-29 2 -48 2 t-37.5 -1t-39 -3t-49.5 -7q-43 -6 -98 -16t-96 -27q-16 -6 -34 -11t-34 -5q-10 0 -19.5 3t-9.5 15z" />
<glyph unicode="&#xde;" horiz-adv-x="1253" d="M76 874q0 12 22.5 52.5t52 84.5t56 80.5t33.5 43.5q10 8 49 18t91 19.5t113.5 17.5t118 14t101.5 9.5t67 3.5q68 0 100.5 -1.5t55.5 -3.5l100 142q35 49 67 70.5t66 21.5q14 0 25.5 -10.5t11.5 -24.5q0 -20 -8 -40.5t-37 -57.5l-88 -117q74 -10 154 -42t146.5 -83 t108.5 -120.5t42 -151.5q0 -84 -64.5 -178.5t-188.5 -176.5t-303.5 -135t-408.5 -53q-63 0 -108 4t-70 8l-88 -147q16 0 26.5 -9.5t10.5 -25.5q0 -18 -17.5 -49t-43 -60.5t-57.5 -52t-60 -22.5q-27 0 -42.5 21.5t-15.5 51.5q0 18 7.5 42t17.5 50.5t22.5 51t24.5 45.5l78 133 q-57 10 -89 42t-32 64q0 37 26.5 73t71.5 62.5t104.5 43t125.5 16.5l282 360q-141 -8 -252.5 -26.5t-191.5 -38t-128 -33.5t-61 -14q-25 0 -24 28zM537 492q25 -8 64.5 -12.5t107.5 -4.5q129 0 246.5 37t207.5 86t143.5 101.5t53.5 82.5q0 49 -39 80t-103.5 49.5 t-147.5 27.5t-173 15z" />
<glyph unicode="&#xdf;" horiz-adv-x="1138" d="M-45 -82q0 31 16.5 86t43 123t59 141.5t64.5 141t58.5 125t43.5 90.5q-27 4 -46.5 16t-19.5 41q0 23 16.5 37t39 23.5t46 13.5t39.5 6q55 92 114.5 182t141.5 162q39 35 88.5 70.5t103.5 64.5t110.5 47.5t109.5 18.5q84 0 136 -45t52 -134q0 -51 -30.5 -93t-79.5 -78.5 t-110.5 -67.5t-123 -56.5t-117 -47t-92.5 -40.5l5 -4q59 4 136 1t136 -21q78 -27 123 -85t45 -142q0 -70 -28.5 -135.5t-78 -124t-114 -106.5t-134 -83t-141 -54.5t-135.5 -19.5q-66 0 -104.5 21.5t-38.5 93.5q0 41 16.5 78t52.5 59q8 4 24.5 9.5t35 10.5t36 8t27.5 3 q20 0 21 -21q0 -23 -15 -28l5 -4q55 10 115.5 28.5t109.5 50t81.5 80t32.5 117.5q0 49 -22.5 81t-56 50.5t-75.5 25.5t-81 5l-174 -10l-256 -631q-8 -20 -20.5 -50t-29 -58.5t-38 -49t-47.5 -20.5q-41 0 -58.5 30.5t-17.5 67.5zM506 799l299 114q27 10 54.5 23.5t51 33 t39 45t15.5 58.5q0 39 -27 61.5t-64 22.5q-29 0 -60.5 -14.5t-62 -36t-57 -46t-45.5 -44.5q-45 -47 -78.5 -102.5t-64.5 -114.5z" />
<glyph unicode="&#xe0;" horiz-adv-x="997" d="M-63 244q-2 63 36.5 126.5t104 121t147.5 107.5t168 87t166 58.5t139 23.5q35 0 60.5 -11.5t42 -27.5t23.5 -33.5t7 -25.5q0 -18 -28.5 -32.5t-42.5 -19.5q29 -12 44 -30.5t15 -52.5q0 -25 -27.5 -62t-61.5 -79t-61.5 -85t-27.5 -80q0 -27 19.5 -38t44.5 -11 q33 0 69.5 17.5t74.5 42t76 53.5t70 51l17 -76q-33 -37 -95.5 -92t-132 -105.5t-134 -86t-101.5 -35.5q-51 0 -74.5 31.5t-23.5 76.5q0 25 8 55.5t19 62.5t24.5 61.5t23.5 50.5l-4 4l-188 -152q-14 -12 -44 -34.5t-61.5 -45t-62.5 -40t-49 -17.5q-23 0 -52.5 22.5t-57 58.5 t-48 78t-22.5 83zM86 193q2 -8 10 -27t31 -14q10 2 23.5 5t37 14t58.5 35.5t88 70t128 115t175 171.5l-4 4q-182 -55 -291 -107t-166 -98.5t-73.5 -89.5t-16.5 -79zM230 933.5q1 18.5 3 49.5q2 16 2.5 31.5t4.5 28t13 20.5t28 8q16 0 31.5 -4t31.5 -8l121 -37 q23 -6 57.5 -16.5t70.5 -22.5t68.5 -24.5t51.5 -24.5q18 -12 37.5 -37t19.5 -47q0 -12 -9 -15.5t-20 -3.5q-16 0 -33.5 5.5t-33.5 11.5q-41 16 -96.5 26.5t-98.5 16.5q-29 4 -49 6t-38.5 3t-39 1t-47.5 -2q-31 -2 -47 -1t-22.5 9t-5.5 26.5z" />
<glyph unicode="&#xe1;" horiz-adv-x="997" d="M-63 244q-2 63 36.5 126.5t104 121t147.5 107.5t168 87t166 58.5t139 23.5q35 0 60.5 -11.5t42 -27.5t23.5 -33.5t7 -25.5q0 -18 -28.5 -32.5t-42.5 -19.5q29 -12 44 -30.5t15 -52.5q0 -25 -27.5 -62t-61.5 -79t-61.5 -85t-27.5 -80q0 -27 19.5 -38t44.5 -11 q33 0 69.5 17.5t74.5 42t76 53.5t70 51l17 -76q-33 -37 -95.5 -92t-132 -105.5t-134 -86t-101.5 -35.5q-51 0 -74.5 31.5t-23.5 76.5q0 25 8 55.5t19 62.5t24.5 61.5t23.5 50.5l-4 4l-188 -152q-14 -12 -44 -34.5t-61.5 -45t-62.5 -40t-49 -17.5q-23 0 -52.5 22.5t-57 58.5 t-48 78t-22.5 83zM86 193q2 -8 10 -27t31 -14q10 2 23.5 5t37 14t58.5 35.5t88 70t128 115t175 171.5l-4 4q-182 -55 -291 -107t-166 -98.5t-73.5 -89.5t-16.5 -79zM373 852q0 23 19.5 47.5t37.5 36.5t51 24.5t69 24.5t70.5 22.5t57.5 16.5l121 37q16 4 31.5 8t31.5 4 q18 0 27.5 -8t13.5 -20.5t4 -28t2 -31.5q2 -31 3 -49t-5 -26.5t-22.5 -9.5t-46.5 1q-29 2 -48.5 2t-38 -1t-39 -3t-48.5 -6q-43 -6 -98.5 -16.5t-96.5 -26.5q-16 -6 -33.5 -11t-34.5 -5q-10 0 -19 3t-9 15z" />
<glyph unicode="&#xe2;" horiz-adv-x="997" d="M-63 244q-2 63 36.5 126.5t104 121t147.5 107.5t168 87t166 58.5t139 23.5q35 0 60.5 -11.5t42 -27.5t23.5 -33.5t7 -25.5q0 -18 -28.5 -32.5t-42.5 -19.5q29 -12 44 -30.5t15 -52.5q0 -25 -27.5 -62t-61.5 -79t-61.5 -85t-27.5 -80q0 -27 19.5 -38t44.5 -11 q33 0 69.5 17.5t74.5 42t76 53.5t70 51l17 -76q-33 -37 -95.5 -92t-132 -105.5t-134 -86t-101.5 -35.5q-51 0 -74.5 31.5t-23.5 76.5q0 25 8 55.5t19 62.5t24.5 61.5t23.5 50.5l-4 4l-188 -152q-14 -12 -44 -34.5t-61.5 -45t-62.5 -40t-49 -17.5q-23 0 -52.5 22.5t-57 58.5 t-48 78t-22.5 83zM86 193q2 -8 10 -27t31 -14q10 2 23.5 5t37 14t58.5 35.5t88 70t128 115t175 171.5l-4 4q-182 -55 -291 -107t-166 -98.5t-73.5 -89.5t-16.5 -79zM244 850q0 29 27.5 59.5t101.5 59.5l166 65q35 14 83 30.5t85 16.5q35 0 64.5 -30.5t51.5 -53.5 q6 -6 17.5 -16t24 -22.5t20.5 -25.5t8 -24q0 -23 -13.5 -35t-29.5 -22q-12 -8 -22.5 -14.5t-18.5 -16.5q-23 12 -46.5 35t-49 45.5t-51 39.5t-48.5 17q-8 0 -22 -4t-29.5 -10t-29 -12t-21.5 -8l-180 -76q-10 -4 -35 -15.5t-35 -11.5q-12 0 -15 10.5t-3 18.5z" />
<glyph unicode="&#xe3;" horiz-adv-x="997" d="M-63 244q-2 63 36.5 126.5t104 121t147.5 107.5t168 87t166 58.5t139 23.5q35 0 60.5 -11.5t42 -27.5t23.5 -33.5t7 -25.5q0 -18 -28.5 -32.5t-42.5 -19.5q29 -12 44 -30.5t15 -52.5q0 -25 -27.5 -62t-61.5 -79t-61.5 -85t-27.5 -80q0 -27 19.5 -38t44.5 -11 q33 0 69.5 17.5t74.5 42t76 53.5t70 51l17 -76q-33 -37 -95.5 -92t-132 -105.5t-134 -86t-101.5 -35.5q-51 0 -74.5 31.5t-23.5 76.5q0 25 8 55.5t19 62.5t24.5 61.5t23.5 50.5l-4 4l-188 -152q-14 -12 -44 -34.5t-61.5 -45t-62.5 -40t-49 -17.5q-23 0 -52.5 22.5t-57 58.5 t-48 78t-22.5 83zM86 193q2 -8 10 -27t31 -14q10 2 23.5 5t37 14t58.5 35.5t88 70t128 115t175 171.5l-4 4q-182 -55 -291 -107t-166 -98.5t-73.5 -89.5t-16.5 -79zM383 924q0 45 15.5 70.5t62.5 25.5l266 -27l4 4q-51 35 -61.5 51.5t-10.5 20.5q0 10 8.5 19.5t18.5 9.5 q14 0 41 -16.5t52.5 -41t44 -55.5t18.5 -59q0 -86 -88 -86q-63 0 -127 15t-127 13q33 -29 41 -36t8 -21q0 -20 -21 -20q-14 0 -29.5 10t-25.5 18q-29 20 -59.5 42t-30.5 63z" />
<glyph unicode="&#xe4;" horiz-adv-x="997" d="M-63 244q-2 63 36.5 126.5t104 121t147.5 107.5t168 87t166 58.5t139 23.5q35 0 60.5 -11.5t42 -27.5t23.5 -33.5t7 -25.5q0 -18 -28.5 -32.5t-42.5 -19.5q29 -12 44 -30.5t15 -52.5q0 -25 -27.5 -62t-61.5 -79t-61.5 -85t-27.5 -80q0 -27 19.5 -38t44.5 -11 q33 0 69.5 17.5t74.5 42t76 53.5t70 51l17 -76q-33 -37 -95.5 -92t-132 -105.5t-134 -86t-101.5 -35.5q-51 0 -74.5 31.5t-23.5 76.5q0 25 8 55.5t19 62.5t24.5 61.5t23.5 50.5l-4 4l-188 -152q-14 -12 -44 -34.5t-61.5 -45t-62.5 -40t-49 -17.5q-23 0 -52.5 22.5t-57 58.5 t-48 78t-22.5 83zM86 193q2 -8 10 -27t31 -14q10 2 23.5 5t37 14t58.5 35.5t88 70t128 115t175 171.5l-4 4q-182 -55 -291 -107t-166 -98.5t-73.5 -89.5t-16.5 -79zM317 993q0 12 9.5 41t28 56.5t47 46t67.5 12.5q16 -2 35.5 -5t36 -11.5t25.5 -21.5t7 -34q-2 -20 -11 -49 t-25.5 -54.5t-39 -43t-51.5 -17.5q-18 0 -40.5 4.5t-43 14.5t-34 24.5t-11.5 36.5zM707 993q0 12 9 41t27.5 56.5t47 46t67.5 12.5q16 -2 35.5 -5t36 -11.5t26 -21.5t7.5 -34q-2 -20 -11.5 -49t-26 -54.5t-38.5 -43t-51 -17.5q-18 0 -41 4.5t-43.5 14.5t-33.5 24.5t-11 36.5 z" />
<glyph unicode="&#xe5;" horiz-adv-x="997" d="M-63 244q-2 63 36.5 126.5t104 121t147.5 107.5t168 87t166 58.5t139 23.5q35 0 60.5 -11.5t42 -27.5t23.5 -33.5t7 -25.5q0 -18 -28.5 -32.5t-42.5 -19.5q29 -12 44 -30.5t15 -52.5q0 -25 -27.5 -62t-61.5 -79t-61.5 -85t-27.5 -80q0 -27 19.5 -38t44.5 -11 q33 0 69.5 17.5t74.5 42t76 53.5t70 51l17 -76q-33 -37 -95.5 -92t-132 -105.5t-134 -86t-101.5 -35.5q-51 0 -74.5 31.5t-23.5 76.5q0 25 8 55.5t19 62.5t24.5 61.5t23.5 50.5l-4 4l-188 -152q-14 -12 -44 -34.5t-61.5 -45t-62.5 -40t-49 -17.5q-23 0 -52.5 22.5t-57 58.5 t-48 78t-22.5 83zM86 193q2 -8 10 -27t31 -14q10 2 23.5 5t37 14t58.5 35.5t88 70t128 115t175 171.5l-4 4q-182 -55 -291 -107t-166 -98.5t-73.5 -89.5t-16.5 -79zM641 975q0 39 21.5 78t51 68.5t58.5 48t43 18.5q16 0 32 -10.5t30 -18.5l73 -41q12 -12 16.5 -29.5 t4.5 -33.5q0 -41 -10.5 -81t-32 -73t-54 -53.5t-79.5 -20.5q-29 0 -56.5 11.5t-49 32t-35 47t-13.5 57.5zM743 915q0 -4 5.5 -10t5.5 -10q37 33 63.5 61.5t26.5 77.5q0 26 -6 51q-47 -35 -71 -72.5t-24 -97.5z" />
<glyph unicode="&#xe6;" horiz-adv-x="1286" d="M-45 238q0 63 27.5 118.5t70.5 103.5t96.5 86t102.5 66q39 23 99.5 51.5t126 53t128 42t107.5 17.5q47 0 72.5 -18.5t52.5 -52.5q61 35 122.5 53t133.5 18q25 0 50 -4t45.5 -14t34 -29.5t13.5 -50.5q0 -37 -21.5 -83t-76 -96t-149.5 -101.5t-242 -100.5l-5 -45 q0 -59 39 -82t88 -23q55 0 112.5 25t114 60.5t107.5 76.5t92 74l19 -78q-47 -55 -110.5 -114.5t-136.5 -108.5t-151.5 -82t-154.5 -33q-23 0 -50.5 8.5t-54 22.5t-49 31.5t-35.5 36.5q-35 53 -36.5 111.5t0.5 117.5q-25 -16 -82.5 -63.5t-122 -98.5t-120.5 -90t-79 -39 q-20 0 -50 22.5t-58.5 56.5t-49 76t-20.5 79zM104 203q0 -37 43 -37q23 0 50 16.5t43 28.5l84 57q94 66 175 140.5t152 160.5l-4 4q-96 -27 -190.5 -60.5t-182.5 -86.5q-35 -20 -65.5 -42t-53 -47.5t-37 -58t-14.5 -75.5zM760 397q68 23 123 59t94 70.5t59.5 65.5t20.5 43 q0 10 -5 18.5t-16 3.5q-39 -10 -78.5 -32.5t-76.5 -56t-69 -77t-52 -94.5z" />
<glyph unicode="&#xe7;" horiz-adv-x="735" d="M-6 272q0 63 11 110.5t36 84.5t61.5 70.5t85.5 70.5q35 27 86.5 57.5t107.5 58.5t111.5 46t98.5 18q92 0 92 -94q0 -43 -26.5 -90t-61.5 -87t-72 -66.5t-57 -26.5q-35 0 -51.5 30.5t-18.5 59.5l-172 -129q-35 -25 -58.5 -51.5t-23.5 -69.5q0 -35 38 -72.5t118 -37.5 q57 0 118.5 23.5t121 59t114 76.5t99.5 76l24 -80q-39 -41 -90 -89t-109.5 -93t-122 -81t-126.5 -54l-54 -105q31 2 65 -2t62.5 -16t47 -35.5t18.5 -60.5q0 -41 -19.5 -69t-50 -44t-67.5 -22.5t-74 -4.5q-18 0 -56 7.5t-78 19.5t-69.5 29.5t-29.5 40.5q0 8 5 15t13 7 q12 0 26.5 -7t33 -15.5t39 -15.5t42.5 -7q33 0 69 17.5t36 56.5q0 23 -11.5 36t-29 20t-38 9t-38.5 2l66 127q-2 -2 -9 -2q-59 0 -103 26t-72.5 68t-43 95t-14.5 110z" />
<glyph unicode="&#xe8;" horiz-adv-x="731" d="M-16 236q-4 100 45 197t129 174t180 123t201 46q25 0 50 -4t46.5 -14t36 -29.5t14.5 -50.5q0 -37 -21.5 -83t-78 -96t-151.5 -101.5t-242 -100.5l-5 -45q-4 -59 37 -82t90 -23q55 0 112.5 25t114 60.5t107.5 76.5t92 74l19 -78q-47 -55 -110.5 -114.5t-136.5 -108.5 t-151.5 -82t-154.5 -33q-55 0 -97 22.5t-70 60.5t-41 86t-15 100zM97 933.5q1 18.5 3 49.5q2 16 2 31.5t4.5 28t13.5 20.5t27 8q16 0 32 -4l32 -8l121 -37q23 -6 57.5 -16.5t70.5 -22.5t68.5 -24.5t51.5 -24.5q18 -12 37.5 -37t19.5 -47q0 -12 -9.5 -15.5t-19.5 -3.5 q-16 0 -33.5 5.5t-33.5 11.5q-41 16 -96.5 26.5t-98.5 16.5q-29 4 -49.5 6t-38.5 3t-38.5 1t-47.5 -2q-31 -2 -47 -1t-22.5 9t-5.5 26.5zM205 397q68 23 123 59t95 70.5t61.5 65.5t21.5 43q0 10 -7 18.5t-18 3.5q-39 -10 -79 -32.5t-76.5 -56t-68.5 -77t-52 -94.5z" />
<glyph unicode="&#xe9;" horiz-adv-x="731" d="M-16 236q-4 100 45 197t129 174t180 123t201 46q25 0 50 -4t46.5 -14t36 -29.5t14.5 -50.5q0 -37 -21.5 -83t-78 -96t-151.5 -101.5t-242 -100.5l-5 -45q-4 -59 37 -82t90 -23q55 0 112.5 25t114 60.5t107.5 76.5t92 74l19 -78q-47 -55 -110.5 -114.5t-136.5 -108.5 t-151.5 -82t-154.5 -33q-55 0 -97 22.5t-70 60.5t-41 86t-15 100zM205 397q68 23 123 59t95 70.5t61.5 65.5t21.5 43q0 10 -7 18.5t-18 3.5q-39 -10 -79 -32.5t-76.5 -56t-68.5 -77t-52 -94.5zM240 852q0 23 19.5 47.5t37.5 36.5t51 24.5t69 24.5t70.5 22.5t57.5 16.5 l121 37q16 4 31.5 8t31.5 4q18 0 27.5 -8t13.5 -20.5t4 -28t2 -31.5q2 -31 3 -49t-5 -26.5t-22.5 -9.5t-46.5 1q-29 2 -48.5 2t-38 -1t-39 -3t-49.5 -6q-43 -6 -98 -16.5t-96 -26.5q-16 -6 -33.5 -11t-34.5 -5q-10 0 -19 3t-9 15z" />
<glyph unicode="&#xea;" horiz-adv-x="731" d="M-16 236q-4 100 45 197t129 174t180 123t201 46q25 0 50 -4t46.5 -14t36 -29.5t14.5 -50.5q0 -37 -21.5 -83t-78 -96t-151.5 -101.5t-242 -100.5l-5 -45q-4 -59 37 -82t90 -23q55 0 112.5 25t114 60.5t107.5 76.5t92 74l19 -78q-47 -55 -110.5 -114.5t-136.5 -108.5 t-151.5 -82t-154.5 -33q-55 0 -97 22.5t-70 60.5t-41 86t-15 100zM111 850q0 29 27.5 59.5t101.5 59.5l166 65q35 14 83 30.5t84 16.5q35 0 65 -30.5t52 -53.5q6 -6 17.5 -16t23.5 -22.5t20.5 -25.5t8.5 -24q0 -23 -13.5 -35t-29.5 -22q-12 -8 -22.5 -14.5t-18.5 -16.5 q-23 12 -46.5 35t-49 45.5t-51 39.5t-48.5 17q-8 0 -22.5 -4t-29.5 -10t-28.5 -12t-21.5 -8l-180 -76q-10 -4 -35 -15.5t-35 -11.5q-12 0 -15 10.5t-3 18.5zM205 397q68 23 123 59t95 70.5t61.5 65.5t21.5 43q0 10 -7 18.5t-18 3.5q-39 -10 -79 -32.5t-76.5 -56t-68.5 -77 t-52 -94.5z" />
<glyph unicode="&#xeb;" horiz-adv-x="731" d="M-16 236q-4 100 45 197t129 174t180 123t201 46q25 0 50 -4t46.5 -14t36 -29.5t14.5 -50.5q0 -37 -21.5 -83t-78 -96t-151.5 -101.5t-242 -100.5l-5 -45q-4 -59 37 -82t90 -23q55 0 112.5 25t114 60.5t107.5 76.5t92 74l19 -78q-47 -55 -110.5 -114.5t-136.5 -108.5 t-151.5 -82t-154.5 -33q-55 0 -97 22.5t-70 60.5t-41 86t-15 100zM184 993q0 12 9.5 41t28 56.5t47 46t67.5 12.5q16 -2 35.5 -5t36 -11.5t25.5 -21.5t7 -34q-2 -20 -11 -49t-25.5 -54.5t-39 -43t-51.5 -17.5q-18 0 -40.5 4.5t-43 14.5t-34 24.5t-11.5 36.5zM205 397 q68 23 123 59t95 70.5t61.5 65.5t21.5 43q0 10 -7 18.5t-18 3.5q-39 -10 -79 -32.5t-76.5 -56t-68.5 -77t-52 -94.5zM573 993q0 12 9.5 41t28 56.5t47 46t67.5 12.5q16 -2 35.5 -5t36 -11.5t25.5 -21.5t7 -34q-2 -20 -11 -49t-25.5 -54.5t-39 -43t-51.5 -17.5 q-18 0 -40.5 4.5t-43 14.5t-34 24.5t-11.5 36.5z" />
<glyph unicode="&#xec;" horiz-adv-x="569" d="M-27 213q0 94 42 182t101.5 158t124 112t111.5 42q27 0 58.5 -11.5t31.5 -46.5q0 -39 -32.5 -89t-78.5 -99t-95.5 -91t-81.5 -65q-12 -63 12 -96t96 -33q41 0 81 17.5t78 44t72.5 55t65.5 51.5l19 -78q-35 -43 -84.5 -94t-106.5 -96t-118.5 -76t-118.5 -31 q-45 0 -79 23.5t-55.5 59.5t-32 79t-10.5 82zM15 933.5q1 18.5 3 49.5q2 16 2 31.5t4.5 28t13.5 20.5t28 8q16 0 31.5 -4t31.5 -8l121 -37q23 -6 57.5 -16.5t70.5 -22.5t68.5 -24.5t51.5 -24.5q18 -12 37.5 -37t19.5 -47q0 -12 -9 -15.5t-20 -3.5q-16 0 -33.5 5.5 t-33.5 11.5q-41 16 -96.5 26.5t-98.5 16.5q-29 4 -49 6t-38.5 3t-39 1t-47.5 -2q-31 -2 -47 -1t-22.5 9t-5.5 26.5z" />
<glyph unicode="&#xed;" horiz-adv-x="569" d="M-27 213q0 94 42 182t101.5 158t124 112t111.5 42q27 0 58.5 -11.5t31.5 -46.5q0 -39 -32.5 -89t-78.5 -99t-95.5 -91t-81.5 -65q-12 -63 12 -96t96 -33q41 0 81 17.5t78 44t72.5 55t65.5 51.5l19 -78q-35 -43 -84.5 -94t-106.5 -96t-118.5 -76t-118.5 -31 q-45 0 -79 23.5t-55.5 59.5t-32 79t-10.5 82zM158 852q0 23 19.5 47.5t37.5 36.5t51 24.5t69 24.5t70.5 22.5t57.5 16.5l121 37q16 4 31.5 8t31.5 4q18 0 27.5 -8t13.5 -20.5t4 -28t2 -31.5q2 -31 3 -49t-5 -26.5t-22.5 -9.5t-46.5 1q-29 2 -48.5 2t-38 -1t-39 -3t-48.5 -6 q-43 -6 -98.5 -16.5t-96.5 -26.5q-16 -6 -33.5 -11t-34.5 -5q-10 0 -19 3t-9 15z" />
<glyph unicode="&#xee;" horiz-adv-x="569" d="M-27 213q0 94 42 182t101.5 158t124 112t111.5 42q27 0 58.5 -11.5t31.5 -46.5q0 -39 -32.5 -89t-78.5 -99t-95.5 -91t-81.5 -65q-12 -63 12 -96t96 -33q41 0 81 17.5t78 44t72.5 55t65.5 51.5l19 -78q-35 -43 -84.5 -94t-106.5 -96t-118.5 -76t-118.5 -31 q-45 0 -79 23.5t-55.5 59.5t-32 79t-10.5 82zM29 850q0 29 27.5 59.5t101.5 59.5l166 65q35 14 83 30.5t85 16.5q35 0 64.5 -30.5t51.5 -53.5q6 -6 17.5 -16t24 -22.5t20.5 -25.5t8 -24q0 -23 -13.5 -35t-29.5 -22q-12 -8 -22.5 -14.5t-18.5 -16.5q-23 12 -46.5 35t-49 45.5 t-51 39.5t-48.5 17q-8 0 -22.5 -4t-29.5 -10t-28.5 -12t-21.5 -8l-180 -76q-10 -4 -35 -15.5t-35 -11.5q-12 0 -15 10.5t-3 18.5z" />
<glyph unicode="&#xef;" horiz-adv-x="569" d="M-27 213q0 94 42 182t101.5 158t124 112t111.5 42q27 0 58.5 -11.5t31.5 -46.5q0 -39 -32.5 -89t-78.5 -99t-95.5 -91t-81.5 -65q-12 -63 12 -96t96 -33q41 0 81 17.5t78 44t72.5 55t65.5 51.5l19 -78q-35 -43 -84.5 -94t-106.5 -96t-118.5 -76t-118.5 -31 q-45 0 -79 23.5t-55.5 59.5t-32 79t-10.5 82zM102 993q0 12 9.5 41t28 56.5t47 46t67.5 12.5q16 -2 35.5 -5t36 -11.5t25.5 -21.5t7 -34q-2 -20 -11 -49t-25.5 -54.5t-39 -43t-51.5 -17.5q-18 0 -40.5 4.5t-43 14.5t-34 24.5t-11.5 36.5zM492 993q0 12 9 41t27.5 56.5t47 46 t67.5 12.5q16 -2 35.5 -5t36 -11.5t26 -21.5t7.5 -34q-2 -20 -11.5 -49t-26 -54.5t-38.5 -43t-51 -17.5q-18 0 -41 4.5t-43.5 14.5t-34 24.5t-10.5 36.5z" />
<glyph unicode="&#xf0;" horiz-adv-x="1026" d="M-23 281q0 117 49.5 197.5t135.5 148.5q41 33 92 60.5t102.5 48t100.5 30.5t88 10q33 0 45 -10t22 -27h4q25 82 25 179q0 35 -2 59t-6 43l-166 -59q-43 -16 -55 -17q-6 0 -13.5 9.5t-14.5 20.5t-11 22.5t-4 17.5q0 18 26 28l207 76q-23 39 -46.5 67.5t-45 48t-34.5 31 t-13 17.5q0 14 20.5 40t42.5 26q12 0 40 -15.5t59.5 -40t63.5 -57.5t52 -66l150 54q59 23 76 22q6 0 13 -10t12 -23.5t8.5 -25.5t3.5 -17q0 -12 -15.5 -19t-27.5 -11l-179 -64q12 -41 23.5 -95t11.5 -140q0 -139 -60.5 -284.5t-152.5 -270.5q10 -2 17.5 -2h15.5 q53 0 97 37.5t81 72.5l21 -86q-70 -88 -145 -127t-187 -39q-66 -66 -141.5 -109.5t-174.5 -43.5q-41 0 -78.5 19.5t-66.5 57t-47.5 92t-18.5 124.5zM127 215q0 -45 25.5 -61.5t64.5 -16.5q47 0 83 24.5t71 57.5q31 33 59.5 81t55 100.5t48 103.5t33.5 90q-82 -10 -160.5 -43 t-141 -84t-100.5 -115.5t-38 -136.5z" />
<glyph unicode="&#xf1;" horiz-adv-x="942" d="M-29 205q-2 53 18.5 115.5t55.5 124t79 116.5t89 92q20 16 36.5 20.5t43.5 4.5q45 -2 68.5 -7t34 -12.5t10.5 -14.5v-11q0 -31 -40 -80t-89.5 -99.5t-89.5 -94.5t-40 -62q0 -23 23 -23q10 0 22.5 10.5t18.5 18.5q41 51 97.5 106.5t117.5 106.5t123.5 96t116 79t92.5 53.5 t53 19.5q16 0 33 -39q10 -23 18 -50.5t12 -60.5q0 -31 -38.5 -72.5t-87 -92t-87 -104.5t-38.5 -107q0 -14 10 -25.5t26 -11.5q18 0 43 11t49.5 27.5t47.5 34t37 29.5l122 103l17 -91q-41 -37 -98.5 -95t-121 -114.5t-129 -97.5t-120.5 -41q-59 0 -87 41t-28 94 q0 45 18.5 93.5t45 94.5t57.5 88t55 77l-4 4q-90 -66 -168 -144.5t-147 -169.5q-12 -14 -30.5 -37.5t-41 -46t-46.5 -39t-44 -16.5q-35 0 -56.5 21.5t-33.5 52.5t-18.5 64.5t-6.5 60.5zM354 924q0 45 15.5 70.5t62.5 25.5l266 -27l4 4q-51 35 -61 51.5t-10 20.5q0 10 8 19.5 t18 9.5q14 0 41 -16.5t52.5 -41t44 -55.5t18.5 -59q0 -86 -88 -86q-63 0 -126.5 15t-127.5 13q33 -29 41 -36t8 -21q0 -20 -20 -20q-14 0 -29.5 10t-26.5 18q-29 20 -59.5 42t-30.5 63z" />
<glyph unicode="&#xf2;" horiz-adv-x="811" d="M-25 281q-4 115 48.5 196.5t138.5 147.5q84 68 186.5 107.5t196.5 43.5q16 0 35.5 -3t37 -12t28.5 -23.5t11 -35.5q0 -23 -15 -34t-32 -21q47 -12 60.5 -43t13.5 -78q0 -68 -25.5 -125t-54.5 -116q33 -6 61.5 3t54 26.5t48 39t47.5 39.5l21 -86q-70 -88 -145 -127 t-187 -39q-66 -66 -141.5 -109.5t-174.5 -43.5q-80 0 -143 75.5t-70 217.5zM127 215q0 -45 25.5 -61.5t64.5 -16.5q51 0 87 24.5t71 57.5q-10 25 -17.5 46.5t-7.5 47.5q0 39 15.5 81t32 77t29.5 57.5t11 24.5q-53 -31 -116.5 -67.5t-110.5 -82.5q-35 -35 -59.5 -88 t-24.5 -100zM136 933.5q1 18.5 3 49.5q2 16 2 31.5t4.5 28t13.5 20.5t27 8q16 0 32 -4l32 -8l121 -37q23 -6 57.5 -16.5t70.5 -22.5t68.5 -24.5t50.5 -24.5t38 -37t20 -47q0 -12 -9.5 -15.5t-19.5 -3.5q-16 0 -33.5 5.5t-33.5 11.5q-41 16 -96.5 26.5t-98.5 16.5 q-29 4 -49.5 6t-38.5 3t-38.5 1t-47.5 -2q-31 -2 -47.5 -1t-22.5 9t-5 26.5z" />
<glyph unicode="&#xf3;" horiz-adv-x="811" d="M-25 281q-4 115 48.5 196.5t138.5 147.5q84 68 186.5 107.5t196.5 43.5q16 0 35.5 -3t37 -12t28.5 -23.5t11 -35.5q0 -23 -15 -34t-32 -21q47 -12 60.5 -43t13.5 -78q0 -68 -25.5 -125t-54.5 -116q33 -6 61.5 3t54 26.5t48 39t47.5 39.5l21 -86q-70 -88 -145 -127 t-187 -39q-66 -66 -141.5 -109.5t-174.5 -43.5q-80 0 -143 75.5t-70 217.5zM127 215q0 -45 25.5 -61.5t64.5 -16.5q51 0 87 24.5t71 57.5q-10 25 -17.5 46.5t-7.5 47.5q0 39 15.5 81t32 77t29.5 57.5t11 24.5q-53 -31 -116.5 -67.5t-110.5 -82.5q-35 -35 -59.5 -88 t-24.5 -100zM279 852q0 23 19 47.5t38 36.5q18 12 51 24.5t69 24.5t70.5 22.5t57.5 16.5l121 37q16 4 31.5 8t31.5 4q18 0 27.5 -8t13.5 -20.5t4 -28t2 -31.5q2 -31 3 -49t-5 -26.5t-22.5 -9.5t-47.5 1q-29 2 -48 2t-37.5 -1t-39 -3t-49.5 -6q-43 -6 -98 -16.5t-96 -26.5 q-16 -6 -33.5 -11t-34.5 -5q-10 0 -19 3t-9 15z" />
<glyph unicode="&#xf4;" horiz-adv-x="811" d="M-25 281q-4 115 48.5 196.5t138.5 147.5q84 68 186.5 107.5t196.5 43.5q16 0 35.5 -3t37 -12t28.5 -23.5t11 -35.5q0 -23 -15 -34t-32 -21q47 -12 60.5 -43t13.5 -78q0 -68 -25.5 -125t-54.5 -116q33 -6 61.5 3t54 26.5t48 39t47.5 39.5l21 -86q-70 -88 -145 -127 t-187 -39q-66 -66 -141.5 -109.5t-174.5 -43.5q-80 0 -143 75.5t-70 217.5zM127 215q0 -45 25.5 -61.5t64.5 -16.5q51 0 87 24.5t71 57.5q-10 25 -17.5 46.5t-7.5 47.5q0 39 15.5 81t32 77t29.5 57.5t11 24.5q-53 -31 -116.5 -67.5t-110.5 -82.5q-35 -35 -59.5 -88 t-24.5 -100zM150 850q0 29 27.5 59.5t101.5 59.5l165 65q35 14 83 30.5t85 16.5q35 0 65 -30.5t52 -53.5q6 -6 17.5 -16t23.5 -22.5t20.5 -25.5t8.5 -24q0 -23 -13.5 -35t-29.5 -22q-12 -8 -22.5 -14.5t-18.5 -16.5q-23 12 -46.5 35t-49 45.5t-51 39.5t-48.5 17 q-8 0 -22.5 -4t-29.5 -10t-28.5 -12t-21.5 -8l-180 -76q-10 -4 -35 -15.5t-35 -11.5q-12 0 -15 10.5t-3 18.5z" />
<glyph unicode="&#xf5;" horiz-adv-x="811" d="M-25 281q-4 115 48.5 196.5t138.5 147.5q84 68 186.5 107.5t196.5 43.5q16 0 35.5 -3t37 -12t28.5 -23.5t11 -35.5q0 -23 -15 -34t-32 -21q47 -12 60.5 -43t13.5 -78q0 -68 -25.5 -125t-54.5 -116q33 -6 61.5 3t54 26.5t48 39t47.5 39.5l21 -86q-70 -88 -145 -127 t-187 -39q-66 -66 -141.5 -109.5t-174.5 -43.5q-80 0 -143 75.5t-70 217.5zM127 215q0 -45 25.5 -61.5t64.5 -16.5q51 0 87 24.5t71 57.5q-10 25 -17.5 46.5t-7.5 47.5q0 39 15.5 81t32 77t29.5 57.5t11 24.5q-53 -31 -116.5 -67.5t-110.5 -82.5q-35 -35 -59.5 -88 t-24.5 -100zM289 924q0 45 15.5 70.5t62.5 25.5l266 -27l4 4q-51 35 -61.5 51.5t-10.5 20.5q0 10 8.5 19.5t18.5 9.5q14 0 40.5 -16.5t52.5 -41t44.5 -55.5t18.5 -59q0 -86 -89 -86q-63 0 -126.5 15t-126.5 13q33 -29 41 -36t8 -21q0 -20 -21 -20q-14 0 -29.5 10t-25.5 18 q-29 20 -59.5 42t-30.5 63z" />
<glyph unicode="&#xf6;" horiz-adv-x="811" d="M-25 281q-4 115 48.5 196.5t138.5 147.5q84 68 186.5 107.5t196.5 43.5q16 0 35.5 -3t37 -12t28.5 -23.5t11 -35.5q0 -23 -15 -34t-32 -21q47 -12 60.5 -43t13.5 -78q0 -68 -25.5 -125t-54.5 -116q33 -6 61.5 3t54 26.5t48 39t47.5 39.5l21 -86q-70 -88 -145 -127 t-187 -39q-66 -66 -141.5 -109.5t-174.5 -43.5q-80 0 -143 75.5t-70 217.5zM127 215q0 -45 25.5 -61.5t64.5 -16.5q51 0 87 24.5t71 57.5q-10 25 -17.5 46.5t-7.5 47.5q0 39 15.5 81t32 77t29.5 57.5t11 24.5q-53 -31 -116.5 -67.5t-110.5 -82.5q-35 -35 -59.5 -88 t-24.5 -100zM223 993q0 12 9.5 41t28 56.5t47 46t67.5 12.5q16 -2 35.5 -5t36 -11.5t25.5 -21.5t7 -34q-2 -20 -11 -49t-25.5 -54.5t-39 -43t-51.5 -17.5q-18 0 -40.5 4.5t-43 14.5t-34 24.5t-11.5 36.5zM612 993q0 12 9.5 41t28 56.5t47 46t67.5 12.5q16 -2 35.5 -5 t36 -11.5t25.5 -21.5t7 -34q-2 -20 -11 -49t-25.5 -54.5t-39 -43t-51.5 -17.5q-18 0 -40.5 4.5t-43 14.5t-34 24.5t-11.5 36.5z" />
<glyph unicode="&#xf7;" horiz-adv-x="1308" d="M276 471v123h934v-123h-934zM647 190q0 43 29 73t72 30h2q35 0 63.5 -30t28.5 -73q0 -41 -30 -73.5t-64 -32.5q-43 0 -72 33t-29 73zM651 874q0 41 30 72t67 31q41 0 69.5 -31t28.5 -72q0 -43 -29 -72.5t-69 -29.5h-3q-35 0 -64.5 29.5t-29.5 72.5z" />
<glyph unicode="&#xf8;" horiz-adv-x="811" d="M-25 281q-4 115 48.5 196.5t138.5 147.5q84 68 186.5 107.5t196.5 43.5q16 0 24 -2l62 74q10 16 19 28.5t21.5 18.5t30 4t43.5 -14l74 -8l-203 -232q41 -12 54.5 -43t13.5 -76q0 -68 -25.5 -125t-54.5 -116q33 -6 61.5 3t54 26.5t48.5 39t47 39.5l21 -86 q-70 -88 -145 -127t-187 -39q-66 -66 -140.5 -108.5t-170.5 -44.5l-58 -119q-4 -31 -14 -49.5t-39 -24.5q-59 23 -61.5 74t45.5 139l12 23q-43 35 -70.5 98.5t-32.5 151.5zM127 215q0 -45 25.5 -61.5t64.5 -16.5q51 0 87 24.5t71 57.5q-10 25 -17.5 46.5t-7.5 47.5 q0 39 15.5 81t32 77t29.5 57.5t11 24.5q-53 -31 -116.5 -67.5t-110.5 -82.5q-35 -35 -59.5 -88t-24.5 -100z" />
<glyph unicode="&#xf9;" horiz-adv-x="978" d="M-33 211q0 74 25.5 147.5t67.5 139t92.5 118t99.5 84.5q23 14 43 18.5t47 4.5q10 0 32.5 2t44 0t36 -12.5t12.5 -32.5q-2 -12 -11.5 -28.5t-22.5 -32t-26.5 -28.5t-21.5 -20q-25 -27 -40 -45t-31.5 -33.5t-35 -32t-49.5 -36.5q-47 -35 -79.5 -73t-32.5 -103q0 -8 3 -19.5 t13 -11.5q14 0 41 10.5t60.5 29.5t70.5 45.5t74 59.5l203 183q16 14 57 53t87 79t89 70.5t62 30.5q6 0 13 -3t13 -13t11.5 -33.5t9.5 -62.5q2 -18 -6.5 -36t-21.5 -34t-28.5 -30.5t-27.5 -24.5q-25 -23 -61 -62t-69.5 -83t-57 -89t-23.5 -80q0 -45 51 -45q29 0 73 23.5 t90 54.5t88 63.5t64 51.5l13 -88q-39 -37 -96.5 -94.5t-122 -111.5t-131 -92t-123.5 -38t-89 41t-32 94q0 47 13 89t30 83l-4 4q-31 -27 -70 -69.5t-83 -83.5t-89 -71t-88 -30q-37 0 -66.5 19.5t-49 49t-30 65.5t-10.5 69zM220 933.5q1 18.5 3 49.5q2 16 2 31.5t4 28 t13.5 20.5t27.5 8q16 0 32 -4l32 -8l121 -37q23 -6 57.5 -16.5t70 -22.5t68.5 -24.5t51 -24.5t38 -37t20 -47q0 -12 -9.5 -15.5t-19.5 -3.5q-16 0 -33.5 5.5t-33.5 11.5q-41 16 -96.5 26.5t-98.5 16.5q-29 4 -49.5 6t-39 3t-38.5 1t-47 -2q-31 -2 -47.5 -1t-22.5 9t-5 26.5z " />
<glyph unicode="&#xfa;" horiz-adv-x="978" d="M-33 211q0 74 25.5 147.5t67.5 139t92.5 118t99.5 84.5q23 14 43 18.5t47 4.5q10 0 32.5 2t44 0t36 -12.5t12.5 -32.5q-2 -12 -11.5 -28.5t-22.5 -32t-26.5 -28.5t-21.5 -20q-25 -27 -40 -45t-31.5 -33.5t-35 -32t-49.5 -36.5q-47 -35 -79.5 -73t-32.5 -103q0 -8 3 -19.5 t13 -11.5q14 0 41 10.5t60.5 29.5t70.5 45.5t74 59.5l203 183q16 14 57 53t87 79t89 70.5t62 30.5q6 0 13 -3t13 -13t11.5 -33.5t9.5 -62.5q2 -18 -6.5 -36t-21.5 -34t-28.5 -30.5t-27.5 -24.5q-25 -23 -61 -62t-69.5 -83t-57 -89t-23.5 -80q0 -45 51 -45q29 0 73 23.5 t90 54.5t88 63.5t64 51.5l13 -88q-39 -37 -96.5 -94.5t-122 -111.5t-131 -92t-123.5 -38t-89 41t-32 94q0 47 13 89t30 83l-4 4q-31 -27 -70 -69.5t-83 -83.5t-89 -71t-88 -30q-37 0 -66.5 19.5t-49 49t-30 65.5t-10.5 69zM362 852q0 23 19.5 47.5t38.5 36.5q18 12 51 24.5 t68.5 24.5t70.5 22.5t58 16.5l120 37l32 8t32 4q18 0 27.5 -8t13.5 -20.5t4 -28t2 -31.5q2 -31 3 -49t-5 -26.5t-22.5 -9.5t-47.5 1q-29 2 -48 2t-37.5 -1t-39 -3t-49.5 -6q-43 -6 -98 -16.5t-96 -26.5q-16 -6 -33.5 -11t-34.5 -5q-10 0 -19.5 3t-9.5 15z" />
<glyph unicode="&#xfb;" horiz-adv-x="978" d="M-33 211q0 74 25.5 147.5t67.5 139t92.5 118t99.5 84.5q23 14 43 18.5t47 4.5q10 0 32.5 2t44 0t36 -12.5t12.5 -32.5q-2 -12 -11.5 -28.5t-22.5 -32t-26.5 -28.5t-21.5 -20q-25 -27 -40 -45t-31.5 -33.5t-35 -32t-49.5 -36.5q-47 -35 -79.5 -73t-32.5 -103q0 -8 3 -19.5 t13 -11.5q14 0 41 10.5t60.5 29.5t70.5 45.5t74 59.5l203 183q16 14 57 53t87 79t89 70.5t62 30.5q6 0 13 -3t13 -13t11.5 -33.5t9.5 -62.5q2 -18 -6.5 -36t-21.5 -34t-28.5 -30.5t-27.5 -24.5q-25 -23 -61 -62t-69.5 -83t-57 -89t-23.5 -80q0 -45 51 -45q29 0 73 23.5 t90 54.5t88 63.5t64 51.5l13 -88q-39 -37 -96.5 -94.5t-122 -111.5t-131 -92t-123.5 -38t-89 41t-32 94q0 47 13 89t30 83l-4 4q-31 -27 -70 -69.5t-83 -83.5t-89 -71t-88 -30q-37 0 -66.5 19.5t-49 49t-30 65.5t-10.5 69zM233 850q0 29 28 59.5t101 59.5l166 65 q35 14 83 30.5t85 16.5q35 0 65 -30.5t52 -53.5q6 -6 17.5 -16t23.5 -22.5t20.5 -25.5t8.5 -24q0 -23 -13.5 -35t-29.5 -22q-12 -8 -22.5 -14.5t-18.5 -16.5q-23 12 -46.5 35t-49 45.5t-51 39.5t-48.5 17q-8 0 -22.5 -4t-29.5 -10t-28.5 -12t-21.5 -8l-180 -76 q-10 -4 -35 -15.5t-35 -11.5q-12 0 -15.5 10.5t-3.5 18.5z" />
<glyph unicode="&#xfc;" horiz-adv-x="978" d="M-33 211q0 74 25.5 147.5t67.5 139t92.5 118t99.5 84.5q23 14 43 18.5t47 4.5q10 0 32.5 2t44 0t36 -12.5t12.5 -32.5q-2 -12 -11.5 -28.5t-22.5 -32t-26.5 -28.5t-21.5 -20q-25 -27 -40 -45t-31.5 -33.5t-35 -32t-49.5 -36.5q-47 -35 -79.5 -73t-32.5 -103q0 -8 3 -19.5 t13 -11.5q14 0 41 10.5t60.5 29.5t70.5 45.5t74 59.5l203 183q16 14 57 53t87 79t89 70.5t62 30.5q6 0 13 -3t13 -13t11.5 -33.5t9.5 -62.5q2 -18 -6.5 -36t-21.5 -34t-28.5 -30.5t-27.5 -24.5q-25 -23 -61 -62t-69.5 -83t-57 -89t-23.5 -80q0 -45 51 -45q29 0 73 23.5 t90 54.5t88 63.5t64 51.5l13 -88q-39 -37 -96.5 -94.5t-122 -111.5t-131 -92t-123.5 -38t-89 41t-32 94q0 47 13 89t30 83l-4 4q-31 -27 -70 -69.5t-83 -83.5t-89 -71t-88 -30q-37 0 -66.5 19.5t-49 49t-30 65.5t-10.5 69zM307 993q0 12 9.5 41t27.5 56.5t47 46t68 12.5 q16 -2 35.5 -5t36 -11.5t25.5 -21.5t7 -34q-2 -20 -11 -49t-25.5 -54.5t-39 -43t-51.5 -17.5q-18 0 -40.5 4.5t-43 14.5t-34 24.5t-11.5 36.5zM696 993q0 12 9.5 41t28 56.5t47 46t67.5 12.5q16 -2 35.5 -5t36 -11.5t25.5 -21.5t7 -34q-2 -20 -11 -49t-25.5 -54.5t-39 -43 t-51.5 -17.5q-18 0 -40.5 4.5t-43 14.5t-34 24.5t-11.5 36.5z" />
<glyph unicode="&#xfd;" horiz-adv-x="905" d="M-14 274q-2 61 22.5 123t64.5 118t88 104.5t93 84t81 57t50 21.5q12 0 26.5 -10t29 -25.5t23.5 -32t9 -26.5q0 -29 -37 -79t-87 -102t-100 -97t-75 -66q-35 -51 -39 -119q41 4 80 21.5t76 43t70.5 55.5t66.5 61q158 145 255 241t126 101q12 2 22.5 -9.5t17.5 -29t11 -36 t4 -28.5q0 -20 -9 -45t-22.5 -49.5t-27.5 -47t-25 -38.5l-303 -451l4 -4l455 404l16 -76l-616 -678q-8 -8 -21.5 -25.5t-29 -34t-31.5 -29.5t-29 -13q-16 0 -27.5 16t-19.5 37.5t-11 45.5t-3 36t6 29.5t15.5 35t18.5 32.5t15 26l275 463l-5 4q-63 -53 -120.5 -99.5 t-103.5 -80t-77.5 -52t-40.5 -18.5q-23 2 -49 18.5t-50.5 47t-42 74.5t-19.5 101zM326 852q0 23 19.5 47.5t37.5 36.5t51 24.5t69 24.5t70.5 22.5t57.5 16.5l121 37q16 4 31.5 8t31.5 4q18 0 27.5 -8t13.5 -20.5t4 -28t2 -31.5q2 -31 3 -49t-5 -26.5t-22.5 -9.5t-46.5 1 q-29 2 -48.5 2t-38 -1t-39 -3t-49.5 -6q-43 -6 -98 -16.5t-96 -26.5q-16 -6 -33.5 -11t-34.5 -5q-10 0 -19 3t-9 15z" />
<glyph unicode="&#xfe;" horiz-adv-x="999" d="M-207 -336q-2 78 31 156t96 168q72 100 151 228t179 298l-4 4l-324 -309l-8 96l405 436q57 61 119 130t120 136.5t109.5 127t88.5 100.5q35 41 64.5 52t53.5 11q8 0 26 -3t33 -10t27.5 -17.5t12.5 -24.5q0 -4 -3 -10t-13.5 -18.5t-31 -35t-53.5 -61.5l-294 -338 q-66 -76 -110 -138t-67 -110l5 -4q33 25 85 59t109 64.5t113.5 53t97.5 22.5t63.5 -27.5t22.5 -68.5q0 -84 -80 -194.5t-252 -262.5q16 0 30.5 -1t29.5 -1q47 0 86 10.5t81 35t92 65.5t117 100l15 -94q-57 -55 -119.5 -108.5t-132.5 -94.5t-146.5 -66.5t-158.5 -25.5 q-41 0 -75 11t-71 30l-46 -8t-48 -4q-23 0 -42 4t-40 8l-192 -377q-6 -12 -15.5 -26.5t-21.5 -28t-26.5 -22.5t-28.5 -9q-35 0 -47.5 31.5t-12.5 60.5zM276 231q93 7 173 -20l145 172q16 23 33.5 47.5t17.5 52.5q0 10 -5 19.5t-17 9.5t-35 -10t-46.5 -23.5t-45 -28 t-31.5 -20.5q-57 -41 -102.5 -92t-86.5 -107z" />
<glyph unicode="&#xff;" horiz-adv-x="905" d="M-14 274q-2 61 22.5 123t64.5 118t88 104.5t93 84t81 57t50 21.5q12 0 26.5 -10t29 -25.5t23.5 -32t9 -26.5q0 -29 -37 -79t-87 -102t-100 -97t-75 -66q-35 -51 -39 -119q41 4 80 21.5t76 43t70.5 55.5t66.5 61q158 145 255 241t126 101q12 2 22.5 -9.5t17.5 -29t11 -36 t4 -28.5q0 -20 -9 -45t-22.5 -49.5t-27.5 -47t-25 -38.5l-303 -451l4 -4l455 404l16 -76l-616 -678q-8 -8 -21.5 -25.5t-29 -34t-31.5 -29.5t-29 -13q-16 0 -27.5 16t-19.5 37.5t-11 45.5t-3 36t6 29.5t15.5 35t18.5 32.5t15 26l275 463l-5 4q-63 -53 -120.5 -99.5 t-103.5 -80t-77.5 -52t-40.5 -18.5q-23 2 -49 18.5t-50.5 47t-42 74.5t-19.5 101zM270 993q0 12 9.5 41t28 56.5t47 46t67.5 12.5q16 -2 35.5 -5t36 -11.5t25.5 -21.5t7 -34q-2 -20 -11 -49t-25.5 -54.5t-39 -43t-51.5 -17.5q-18 0 -40.5 4.5t-43 14.5t-34 24.5t-11.5 36.5z M659 993q0 12 9.5 41t28 56.5t47 46t67.5 12.5q16 -2 35.5 -5t36 -11.5t26 -21.5t6.5 -34q-2 -20 -11 -49t-25.5 -54.5t-39 -43t-51.5 -17.5q-18 0 -40.5 4.5t-43 14.5t-34 24.5t-11.5 36.5z" />
<glyph unicode="&#x152;" horiz-adv-x="2375" d="M96 442q-6 111 42 224.5t132 219t194.5 201t229.5 170t238 122.5t217 63q37 6 71.5 -14.5t63.5 -50t46.5 -58.5t17.5 -41q0 -16 -11.5 -27.5t-28 -20.5t-32.5 -14.5t-29 -9.5q-25 -10 -47 -21t-45 -22l4 -4l78 8q25 0 43 -4t41 -12q45 57 96 96t101.5 66.5t99.5 46 t92 33.5q113 37 244 49t248 14q25 0 68.5 1t88.5 -4t82 -17t49 -37l4 -86q2 -43 1 -68.5t-12 -42t-34.5 -27t-66.5 -24.5q-49 -16 -95 -40t-85 -44t-67 -34.5t-40 -14.5q-23 0 -22 20q0 12 20.5 36t46 46.5t47 41t23.5 22.5v-4h4v4q-182 2 -324.5 -30t-239 -75t-145.5 -89 t-45 -72q2 -8 5 -18.5t20.5 -21t55.5 -18.5t110.5 -14t184.5 -8t275 2h31t46.5 -4.5t42 -13.5t18.5 -27q0 -14 -8.5 -34t-19.5 -39.5t-24.5 -35.5t-23.5 -24q-12 -10 -38 -18.5t-55.5 -15.5t-58 -12.5t-43.5 -7.5q-197 -33 -337 -87t-230 -112.5t-132 -111.5t-42 -80 q0 -29 44 -45t128 -20q86 -4 207 10t276 61q111 35 210.5 97.5t201.5 119.5q4 -55 3 -99t-13.5 -83t-38 -73.5t-70.5 -71.5q-74 -61 -166 -106.5t-192.5 -74t-202.5 -42t-194 -11.5q-72 2 -142.5 14.5t-138.5 30.5q-33 8 -59.5 35t-46 59.5t-28.5 69.5t-9 68q0 29 12 59.5 t24 58.5l-4 5q-61 -57 -131.5 -104.5t-144.5 -81.5t-150.5 -52t-150.5 -16q-61 2 -123 22.5t-113 68.5t-87 128t-42 198zM303 307q0 -53 24.5 -93t84.5 -40q43 0 95 14.5t104.5 38t99.5 51t80 56.5q102 88 183 176t136 171t86 156.5t33 129.5q2 37 -19.5 67.5t-62.5 30.5 q-68 0 -144.5 -28.5t-149.5 -73.5t-133 -100.5t-97 -110.5q-10 -12 -27.5 -34t-36.5 -22q-20 0 -23.5 21.5t-5.5 36.5q-43 -43 -83.5 -94.5t-72.5 -108.5t-51.5 -118.5t-19.5 -125.5zM1200 455l4 -4q70 57 141.5 95t144.5 65.5t147.5 49t152.5 44.5v4l-152 12 q-70 6 -137 17.5t-131 39.5q-8 -45 -25.5 -88t-40 -83t-48 -77.5t-50.5 -70.5z" />
<glyph unicode="&#x153;" horiz-adv-x="1159" d="M-23 313q0 102 49.5 177t129.5 133q37 27 83 50t96 41.5t101 30t96 11.5q53 0 80 -20.5t45 -67.5q66 49 146 78.5t164 29.5q25 0 50 -4t45.5 -14t34 -29.5t13.5 -50.5q0 -37 -21.5 -83t-77 -96t-150.5 -101.5t-245 -100.5l-4 -45q0 -59 41 -82t90 -23q55 0 112.5 25 t114 60.5t107.5 76.5t92 74l19 -78q-47 -55 -110.5 -114.5t-136.5 -108.5t-151.5 -82t-154.5 -33q-80 0 -124 35t-79 100q-18 -23 -26.5 -33t-14.5 -17t-15 -13t-28 -19q-39 -23 -81 -41t-87 -18q-59 0 -98 39t-61.5 94.5t-33 115.5t-10.5 103zM127 229q0 -14 4 -37.5 t13.5 -45t23.5 -38t33 -16.5q12 0 30.5 6t38 15.5t37 18.5t27.5 15q14 8 28.5 22.5t43.5 63.5q0 150 88 269q1 30 -13 57q-57 -20 -119.5 -47t-114.5 -65.5t-86 -92t-34 -125.5zM633 397q68 23 123 59t94 70.5t59.5 65.5t20.5 43q0 10 -5 18.5t-16 3.5q-39 -10 -78.5 -32.5 t-76.5 -56t-69 -77t-52 -94.5z" />
<glyph unicode="&#x178;" horiz-adv-x="1519" d="M98 766q-6 20 13 82l30 110q16 59 46 88t81 62q63 39 167 92t215.5 102.5t219 83t181.5 33.5q53 0 98 -25.5t45 -86.5q0 -35 -25.5 -84t-60.5 -99.5t-71 -96.5t-58 -75q-121 -156 -197.5 -250t-122 -151t-61.5 -86t-18 -51q-2 -20 27.5 -29.5t80.5 33.5q72 59 110 89 t64.5 50.5t54 44t84 72.5t152.5 136l256 232q8 8 22.5 21.5t31 27t32.5 23.5t29 10q18 0 35.5 -13t31 -31.5t21.5 -40t8 -38.5q0 -23 -18.5 -53t-63.5 -91.5t-118.5 -161t-184.5 -257.5q-63 -90 -116.5 -165.5t-88.5 -132t-46 -88.5t9 -34q10 0 21.5 5.5t37 21.5t76 45 t140.5 76q102 51 149 51t47 -24q0 -12 -15 -32t-35.5 -38.5t-42 -34.5t-32.5 -22q-49 -37 -116.5 -91.5t-136 -113t-130 -115.5t-98.5 -102q-16 -18 -37.5 -42t-46 -45.5t-50.5 -36t-52 -14.5q-43 0 -66.5 30t-23.5 71q0 51 37.5 138t97 190.5t133.5 215t146.5 213 t134 184.5t98.5 128l-4 4l-543 -469q-23 -20 -57.5 -49t-73.5 -56.5t-78 -47t-70 -19.5q-25 0 -52 11t-48.5 30.5t-33 44.5t-7.5 51q2 10 3 25.5t10.5 40t30 62.5t60.5 96.5t103 141.5t158 195q131 158 200.5 245t69.5 124q2 10 -7 15t-20 7q-117 -59 -211 -108t-172.5 -92 t-148.5 -81t-139 -75q-10 -8 -32 -16t-34 -8q-29 0 -35 18zM1028 1591q0 12 9.5 41t27.5 56.5t47 46t68 12.5q16 -2 35.5 -5t36 -11.5t25.5 -21.5t7 -34q-2 -20 -11 -49t-25.5 -54.5t-39 -43t-51.5 -17.5q-18 0 -40.5 4.5t-43 14.5t-34 24.5t-11.5 36.5zM1417 1591 q0 12 9.5 41t28 56.5t47 46t67.5 12.5q16 -2 35.5 -5t36 -11.5t25.5 -21.5t7 -34q-2 -20 -11 -49t-25.5 -54.5t-39 -43t-51.5 -17.5q-18 0 -40.5 4.5t-43 14.5t-34 24.5t-11.5 36.5z" />
<glyph unicode="&#x2c6;" horiz-adv-x="819" d="M154 850q0 29 27.5 59.5t101.5 59.5l166 65q35 14 83 30.5t84 16.5q35 0 65 -30.5t52 -53.5q6 -6 17.5 -16t23.5 -22.5t20.5 -25.5t8.5 -24q0 -23 -13.5 -35t-29.5 -22q-12 -8 -22.5 -14.5t-18.5 -16.5q-23 12 -46.5 35t-49 45.5t-51 39.5t-48.5 17q-8 0 -22.5 -4 t-29.5 -10t-28.5 -12t-21.5 -8l-180 -76q-10 -4 -35 -15.5t-35 -11.5q-12 0 -15 10.5t-3 18.5z" />
<glyph unicode="&#x2dc;" horiz-adv-x="696" d="M231 924q0 45 15.5 70.5t62.5 25.5l266 -27l5 4q-51 35 -61.5 51.5t-10.5 20.5q0 10 8 19.5t19 9.5q14 0 40.5 -16.5t52 -41t44 -55.5t18.5 -59q0 -86 -88 -86q-63 0 -126.5 15t-127.5 13q33 -29 41 -36t8 -21q0 -20 -20 -20q-14 0 -29.5 10t-25.5 18q-29 20 -60 42 t-31 63z" />
<glyph unicode="&#x2000;" horiz-adv-x="903" />
<glyph unicode="&#x2001;" horiz-adv-x="1806" />
<glyph unicode="&#x2002;" horiz-adv-x="903" />
<glyph unicode="&#x2003;" horiz-adv-x="1806" />
<glyph unicode="&#x2004;" horiz-adv-x="602" />
<glyph unicode="&#x2005;" horiz-adv-x="451" />
<glyph unicode="&#x2006;" horiz-adv-x="301" />
<glyph unicode="&#x2007;" horiz-adv-x="301" />
<glyph unicode="&#x2008;" horiz-adv-x="225" />
<glyph unicode="&#x2009;" horiz-adv-x="361" />
<glyph unicode="&#x200a;" horiz-adv-x="100" />
<glyph unicode="&#x2010;" horiz-adv-x="655" d="M0 475v180h614v-180h-614z" />
<glyph unicode="&#x2011;" horiz-adv-x="655" d="M0 475v180h614v-180h-614z" />
<glyph unicode="&#x2012;" horiz-adv-x="655" d="M0 475v180h614v-180h-614z" />
<glyph unicode="&#x2013;" horiz-adv-x="1024" d="M0 475v180h1024v-180h-1024z" />
<glyph unicode="&#x2014;" horiz-adv-x="2048" d="M0 475v180h2048v-180h-2048z" />
<glyph unicode="&#x2018;" horiz-adv-x="616" d="M219 1049q0 20 10.5 53t24.5 66.5t31.5 62.5t29.5 45q45 57 78 85t56.5 39t42 11h34.5q-25 -33 -49 -66.5t-43 -72.5q29 -10 53.5 -23.5t24.5 -48.5q0 -31 -17.5 -66.5t-44 -64.5t-60.5 -48.5t-66 -19.5q-12 0 -30 1.5t-35 5.5t-28.5 13t-11.5 28z" />
<glyph unicode="&#x2019;" horiz-adv-x="616" d="M358 993q25 33 49.5 67t43.5 73q-29 10 -53.5 23t-24.5 48q0 31 17.5 67t44 64.5t60 48t66.5 19.5q12 0 29.5 -1t35 -5t29 -13.5t11.5 -27.5q0 -20 -10.5 -53t-25 -67t-31.5 -63.5t-30 -44.5q-47 -57 -78.5 -84.5t-55 -39t-42 -11.5h-35.5z" />
<glyph unicode="&#x201a;" horiz-adv-x="616" d="M100 -123q25 33 49.5 66.5t43.5 72.5q-29 10 -53.5 23.5t-24.5 48.5q0 31 17.5 66.5t44 64.5t60 48.5t66.5 19.5q12 0 29.5 -1t35 -5.5t29 -13.5t11.5 -27q0 -20 -10.5 -53t-25 -67t-31.5 -63.5t-30 -44.5q-47 -57 -78.5 -84.5t-55 -39t-42 -11.5h-35.5z" />
<glyph unicode="&#x201c;" horiz-adv-x="962" d="M319 1049q0 20 10.5 53t25 66.5t31.5 62.5t30 45q45 57 77.5 85t56 39t42 11h35.5q-25 -33 -49.5 -66.5t-42.5 -72.5q29 -10 53 -23.5t24 -48.5q0 -31 -17 -66.5t-44 -64.5t-60.5 -48.5t-66.5 -19.5q-12 0 -29.5 1.5t-35 5.5t-29 13t-11.5 28zM666 1049q0 20 10 53 t24.5 66.5t32 62.5t29.5 45q45 57 77.5 85t56.5 39t42 11h35q-25 -33 -49.5 -66.5t-42.5 -72.5q29 -10 53 -23.5t24 -48.5q0 -31 -17 -66.5t-44 -64.5t-60.5 -48.5t-66.5 -19.5q-12 0 -29.5 1.5t-35 5.5t-28.5 13t-11 28z" />
<glyph unicode="&#x201d;" horiz-adv-x="962" d="M252 993q25 33 49.5 67t42.5 73q-29 10 -53.5 23t-24.5 48q0 31 17.5 67t44 64.5t60.5 48t67 19.5q12 0 29.5 -1t35 -5t28.5 -13.5t11 -27.5q0 -20 -10 -53t-24.5 -67t-32 -63.5t-29.5 -44.5q-47 -57 -79 -84.5t-55.5 -39t-42 -11.5h-34.5zM598 993q25 33 49.5 67 t42.5 73q-29 10 -53.5 23t-24.5 48q0 31 17.5 67t44 64.5t60.5 48t67 19.5q12 0 29.5 -1t35 -5t28.5 -13.5t11 -27.5q0 -20 -10 -53t-24.5 -67t-32 -63.5t-29.5 -44.5q-47 -57 -79 -84.5t-55.5 -39t-42 -11.5h-34.5z" />
<glyph unicode="&#x201e;" horiz-adv-x="962" d="M100 -123q25 33 49.5 66.5t43.5 72.5q-29 10 -53.5 23.5t-24.5 48.5q0 31 17.5 66.5t44 64.5t60 48.5t66.5 19.5q12 0 29.5 -1t35 -5.5t29 -13.5t11.5 -27q0 -20 -10.5 -53t-25 -67t-31.5 -63.5t-30 -44.5q-47 -57 -78.5 -84.5t-55 -39t-42 -11.5h-35.5zM446 -123 q25 33 49.5 66.5t43.5 72.5q-29 10 -53.5 23.5t-24.5 48.5q0 31 17.5 66.5t44 64.5t60 48.5t66.5 19.5q12 0 29.5 -1t35 -5.5t29 -13.5t11.5 -27q0 -20 -10.5 -53t-24.5 -67t-31.5 -63.5t-30.5 -44.5q-47 -57 -78.5 -84.5t-55 -39t-42 -11.5h-35.5z" />
<glyph unicode="&#x2022;" horiz-adv-x="819" d="M109 604q0 25 11 73t34.5 104.5t59.5 114.5t87 103t117.5 71t150.5 15q55 0 110.5 -11t101.5 -36.5t75 -68t29 -105.5t-28 -149t-78 -165t-122.5 -133.5t-160.5 -54.5q-51 0 -118 13.5t-127.5 43.5t-101 75t-40.5 110z" />
<glyph unicode="&#x2026;" horiz-adv-x="2048" d="M188 76q0 27 16.5 68.5t44 77.5t65.5 58.5t81 14.5q10 -2 27.5 -4t34 -8.5t28 -18.5t11.5 -35l-10 -39q-11 -40 -32.5 -86.5t-55.5 -83t-81 -30.5q-20 2 -42.5 6t-42 13t-32 24.5t-12.5 42.5zM870 76q0 27 16.5 68.5t44 77.5t65.5 58.5t81 14.5q10 -2 27.5 -4t34 -8.5 t28 -18.5t11.5 -35l-10 -39q-11 -40 -32.5 -86.5t-55.5 -83t-81 -30.5q-20 2 -42.5 6t-42 13t-32 24.5t-12.5 42.5zM1552 76q0 27 16.5 68.5t44 77.5t65.5 58.5t81 14.5q10 -2 27.5 -4t34 -8.5t28 -18.5t11.5 -35l-10 -39q-11 -40 -32.5 -86.5t-55.5 -83t-81 -30.5 q-20 2 -42.5 6t-42 13t-32 24.5t-12.5 42.5z" />
<glyph unicode="&#x202f;" horiz-adv-x="361" />
<glyph unicode="&#x2039;" horiz-adv-x="436" d="M78 506q0 35 17.5 63.5t39.5 57.5q41 70 85 132t79 142q16 -35 41 -81t25 -87q0 -23 -16.5 -43t-29.5 -37q-8 -10 -23 -30.5t-30.5 -45t-27 -46t-11.5 -33.5q0 -10 24.5 -40t90.5 -48q35 -10 60.5 -34t25.5 -65q0 -35 -20.5 -57.5t-55.5 -22.5q-29 0 -78 31t-95 74 t-76.5 90t-24.5 80z" />
<glyph unicode="&#x203a;" horiz-adv-x="436" d="M143 821q0 35 20.5 57.5t55.5 22.5q29 0 78 -30.5t95 -73.5t77 -90.5t25 -79.5q0 -35 -17.5 -63.5t-40.5 -57.5q-41 -70 -85 -132.5t-79 -142.5q-16 35 -40.5 81t-24.5 87q0 23 16.5 43.5t28.5 36.5q8 8 23.5 29.5t31 46.5t26.5 46.5t11 33.5q0 10 -24.5 40t-90.5 48 q-35 10 -60.5 33.5t-25.5 64.5z" />
<glyph unicode="&#x205f;" horiz-adv-x="451" />
<glyph unicode="&#x20ac;" d="M82 432l102 164h82q2 10 5 26.5t8 34.5q8 33 18 56h-145l102 164h98q43 98 104.5 181t141.5 143.5t180.5 94t222.5 33.5q117 0 198 -26.5t114 -51.5l-53 -213q-31 35 -99.5 66t-183.5 31q-150 0 -250 -70t-152 -188h572l-103 -164h-536q-4 -10 -7 -23.5t-7 -30.5 q-4 -16 -8.5 -34.5t-6.5 -28.5h492l-103 -164h-405q-8 -127 60.5 -196.5t215.5 -69.5q111 0 193 29.5t135 68.5l-55 -217q-37 -23 -128 -48.5t-222 -25.5q-215 0 -325 112t-93 347h-162z" />
<glyph unicode="&#x2122;" horiz-adv-x="1499" d="M145 1251v150h562v-150h-193v-514h-180v514h-189zM782 737v664h271l114 -328h4l113 328h268v-664h-180v469h-4l-158 -469h-84l-159 469h-4v-469h-181z" />
<glyph unicode="&#x25fc;" horiz-adv-x="798" d="M0 0v799h799v-799h-799z" />
</font>
</defs>
</svg>
