<?xml version="1.0" encoding="utf-8"?>
<!-- Generator: Adobe Illustrator 16.0.0, SVG Export Plug-In . SVG Version: 6.00 Build 0)  -->
<!DOCTYPE svg PUBLIC "-//W3C//DTD SVG 1.1//EN" "http://www.w3.org/Graphics/SVG/1.1/DTD/svg11.dtd">
<svg version="1.1" id="Calque_1" xmlns="http://www.w3.org/2000/svg" xmlns:xlink="http://www.w3.org/1999/xlink" x="0px" y="0px"
	 width="1280px" height="800px" viewBox="0 0 1280 800" enable-background="new 0 0 1280 800" xml:space="preserve">
<pattern  x="240.5" y="600.5" width="49" height="49" patternUnits="userSpaceOnUse" id="SVGID_1_" viewBox="0 -49 49 49" overflow="visible">
	<g>
		<polygon fill="none" points="0,0 49,0 49,-49 0,-49 		"/>
		<g>
			<polygon fill="none" points="0,0 49,0 49,-49 0,-49 			"/>
			<polygon fill="#EB6A5B" points="49,-49 0,-49 0,0 49,0 			"/>
		</g>
	</g>
</pattern>
<pattern  x="240.5" y="600.5" width="49" height="49" patternUnits="userSpaceOnUse" id="SVGID_2_" viewBox="0 -49 49 49" overflow="visible">
	<g>
		<polygon fill="none" points="0,0 49,0 49,-49 0,-49 		"/>
		<g>
			<polygon fill="none" points="0,0 49,0 49,-49 0,-49 			"/>
			<polygon fill="#EB6A5B" points="49,-49 0,-49 0,0 49,0 			"/>
		</g>
	</g>
</pattern>
<pattern  x="240.5" y="600.5" width="49" height="49" patternUnits="userSpaceOnUse" id="SVGID_3_" viewBox="0 -49 49 49" overflow="visible">
	<g>
		<polygon fill="none" points="0,0 49,0 49,-49 0,-49 		"/>
		<g>
			<polygon fill="none" points="0,0 49,0 49,-49 0,-49 			"/>
			<polygon fill="#EB6A5B" points="49,-49 0,-49 0,0 49,0 			"/>
		</g>
	</g>
</pattern>
<pattern  x="240.5" y="600.5" width="49" height="49" patternUnits="userSpaceOnUse" id="SVGID_4_" viewBox="0 -49 49 49" overflow="visible">
	<g>
		<polygon fill="none" points="0,0 49,0 49,-49 0,-49 		"/>
		<g>
			<polygon fill="none" points="0,0 49,0 49,-49 0,-49 			"/>
			<polygon fill="#EB6A5B" points="49,-49 0,-49 0,0 49,0 			"/>
		</g>
	</g>
</pattern>
<pattern  x="240.5" y="600.5" width="49" height="49" patternUnits="userSpaceOnUse" id="SVGID_5_" viewBox="0 -49 49 49" overflow="visible">
	<g>
		<polygon fill="none" points="0,0 49,0 49,-49 0,-49 		"/>
		<g>
			<polygon fill="none" points="0,0 49,0 49,-49 0,-49 			"/>
			<polygon fill="#EB6A5B" points="49,-49 0,-49 0,0 49,0 			"/>
		</g>
	</g>
</pattern>
<pattern  x="240.5" y="600.5" width="49" height="49" patternUnits="userSpaceOnUse" id="SVGID_6_" viewBox="0 -49 49 49" overflow="visible">
	<g>
		<polygon fill="none" points="0,0 49,0 49,-49 0,-49 		"/>
		<g>
			<polygon fill="none" points="0,0 49,0 49,-49 0,-49 			"/>
			<polygon fill="#EB6A5B" points="49,-49 0,-49 0,0 49,0 			"/>
		</g>
	</g>
</pattern>
<g id="Calque_2">
	<rect y="-1" fill="#F7FBFC" width="1280" height="798"/>
	<rect y="-2" fill="#F7FBFC" width="1280" height="798"/>
	<rect y="-2" fill="#F7FBFC" width="1280" height="798"/>
	<rect y="-2" fill="#F7FBFC" width="1280" height="798"/>
	<rect y="-2" fill="#F7FBFC" width="1280" height="798"/>
	<rect y="-2" fill="#F7FBFC" width="1280" height="798"/>
	<rect y="-2" fill="#F7FBFC" width="1280" height="798"/>
</g>
<line fill="none" stroke="#183356" stroke-width="3" stroke-miterlimit="10" x1="114" y1="465.5" x2="1166" y2="465.5"/>
<g>
	<path fill="none" stroke="#183356" stroke-width="2" stroke-miterlimit="10" d="M265.333,394.122
		c0.667-1.345,4.723-9.546,4.723-9.546l26.254-15.147c3.214-1.854,4.32-5.991,2.469-9.2l-20.198-35.007
		c-1.853-3.213-5.986-4.322-9.2-2.469l-26.255,15.148c0,0-9.129-0.593-10.627-0.688c-1.49-0.096-2.112,0.263-2.949,0.746
		l-1.458,0.841c-1.458,0.842-2.076,3.144-1.236,4.599l30.3,52.516c0.839,1.456,3.139,2.072,4.598,1.23l1.459-0.843
		C264.05,395.819,264.671,395.461,265.333,394.122z M242.791,357.537l3.927,0.066l8.079,14.003l-1.907,3.434L242.791,357.537z
		 M269.607,377.06l-20.197-35.007l23.337-13.465l20.198,35.007L269.607,377.06z"/>
	<rect x="289.885" y="392.211" fill="none" width="169.085" height="80.006"/>
	<text transform="matrix(1 0 0 1 289.8848 404.083)" fill="#183356" font-family="'Montserrat-Light'" font-size="16">Elouarn Lainé</text>
	<text transform="matrix(1 0 0 1 289.8848 426.083)" fill="#183356" font-family="'Montserrat-Light'" font-size="16">Anthony Le Coq</text>
	<text transform="matrix(1 0 0 1 289.8848 448.083)" fill="#183356" font-family="'Montserrat-Light'" font-size="16">Frederic Llorca</text>
	<path fill="#183356" d="M597.461,316.893c-2.245,3.001-1.567,4.913-1.567,4.913l12.595,9.413l14.099,10.537l8.929,0.585
		l-3.088-8.396l-14.102-10.536l-12.594-9.413C601.732,313.996,599.707,313.888,597.461,316.893z M627.461,334.61l1.063,2.86
		c-0.492,0.36-0.977,0.781-1.514,1.499c-0.538,0.721-0.803,1.302-1.012,1.877l-3.047-0.211l-0.979-0.73c0,0-0.2-1.609,1.355-3.688
		c1.552-2.074,3.156-2.342,3.156-2.342L627.461,334.61z"/>
	<g>
		<path fill="#2B3D49" d="M608.86,179.711c-0.062-18.9-15.396-34.205-34.313-34.205c-18.915,0-34.251,15.305-34.312,34.205h-0.005
			v111.421h68.636V179.711H608.86z"/>
		<path fill="#FFFFFF" d="M575.008,246.816c0,0-19.766,2.372-19.766-17.395c0-19.769-0.197-49.223-0.197-49.223
			s0.396-13.045,20.361-12.653c19.965,0.396,20.359,12.454,20.359,12.454v49.422C595.767,229.422,597.348,247.607,575.008,246.816z"
			/>
		<circle fill="#2B3D49" cx="572.75" cy="197.769" r="1.651"/>
		<circle fill="#2B3D49" cx="580.344" cy="197.769" r="1.652"/>
		<path fill="#2B3D49" d="M560.124,166.432c0,0,14.182,27.332,38.276,23.728C622.493,186.559,560.129,146.504,560.124,166.432z"/>
		<rect x="574.344" y="245.532" fill="#F2EDEB" width="1.851" height="6.573"/>
		<polygon fill="#AECD58" points="558.633,252.52 593.137,252.52 599.607,312.393 554.01,312.393 		"/>
		<rect x="567.453" y="333.646" fill="#183356" width="6.981" height="123.584"/>
		<rect x="579.814" y="333.659" fill="#183356" width="6.983" height="123.848"/>
		<pattern  id="SVGID_7_" xlink:href="#SVGID_1_" patternTransform="matrix(0.1392 0.3599 -0.3599 0.1392 -14440.4863 1056.3955)">
		</pattern>
		<path fill="url(#SVGID_7_)" d="M558.217,326.105c2.226-0.857,3.33-3.36,2.471-5.578l-2.018-5.219
			c-0.855-2.224-3.359-3.325-5.578-2.464l0,0c-2.228,0.861-3.332,3.356-2.475,5.582l2.017,5.21
			C553.492,325.861,555.994,326.967,558.217,326.105L558.217,326.105z"/>
		<pattern  id="SVGID_8_" xlink:href="#SVGID_2_" patternTransform="matrix(0.0505 0.3825 0.3825 -0.0505 -13699.0762 -1459.5381)">
		</pattern>
		<path fill="url(#SVGID_8_)" d="M605.273,326.518c-2.362,0.309-4.531-1.352-4.845-3.715l-0.731-5.543
			c-0.312-2.362,1.354-4.528,3.716-4.842l0,0c2.368-0.309,4.535,1.348,4.848,3.712l0.732,5.542
			C609.302,324.035,607.639,326.201,605.273,326.518L605.273,326.518z"/>
		<path fill="#183356" d="M574.46,464.851h-15.153c-2.11,0-3.821-1.714-3.821-3.822l0,0c0-2.11,1.711-3.823,3.821-3.823h15.153"/>
		<path fill="#183356" d="M579.804,464.747h15.153c2.111,0,3.823-1.714,3.823-3.822l0,0c0-2.11-1.712-3.825-3.823-3.825h-15.153"/>
	</g>
	<g>
		<rect x="621.875" y="414.211" fill="none" width="186.708" height="83.332"/>
		<text transform="matrix(1 0 0 1 621.8745 426.082)" fill="#183356" font-family="'Montserrat-Light'" font-size="16">Claire Lemonnier</text>
		<text transform="matrix(1 0 0 1 621.8745 448.082)" fill="#183356" font-family="'Montserrat-Light'" font-size="16">Carine Guillaud</text>
	</g>
	<g>
		<rect x="994.343" y="392.211" fill="none" width="179.72" height="83.333"/>
		<text transform="matrix(1 0 0 1 994.3428 404.083)" fill="#183356" font-family="'Montserrat-Light'" font-size="16">Laura Ferrero </text>
		<text transform="matrix(1 0 0 1 994.3428 426.083)" fill="#183356" font-family="'Montserrat-Light'" font-size="16">Margaux Lefaix</text>
		<text transform="matrix(1 0 0 1 994.3428 448.083)" fill="#183356" font-family="'Montserrat-Light'" font-size="16">Coline Bourdier</text>
	</g>
	<g>
		<path fill="#FFFFFF" d="M202.092,242.941c0,0-24.533,2.942-24.533-21.588c0-24.533-0.244-61.085-0.244-61.085
			s0.491-16.19,25.268-15.702c24.778,0.491,25.27,15.455,25.27,15.455v61.332C227.852,221.354,229.815,243.921,202.092,242.941z"/>
		<circle fill="#2B3D49" cx="195.837" cy="182.07" r="2.288"/>
		<circle fill="#2B3D49" cx="213.082" cy="182.07" r="2.29"/>
		<circle fill="#2B3D49" cx="202.468" cy="223.001" r="25.46"/>
		<polyline fill="#2B3D49" points="177.099,225.197 177.099,164.947 184.671,204.785 		"/>
		<polyline fill="#2B3D49" points="227.887,225.346 227.887,165.097 220.315,204.934 		"/>
		<path fill="#2B3D49" d="M187.477,146.766c0,0-10.89,3.231-10.574,15.152c0.242,9.293,0.242,9.355,0.242,9.355
			s9.784-1.284,11.738-8.623C190.839,155.314,189.434,152.144,187.477,146.766z"/>
		<path fill="#2B3D49" d="M216.967,146.632c0,0,11.46,4.239,11.125,15.644c-0.279,9.504-0.061,8.955-0.061,8.955
			s-10.514-1.375-12.472-8.71C213.602,155.182,215.009,152.013,216.967,146.632z"/>
		<path fill="#AFDCDF" d="M173.064,267.867c0,0,10.918-6.718,29.11-6.718c18.194,0,28.834,6.718,28.834,6.718H173.064z"/>
		<rect x="173.236" y="274.334" fill="#AFDCDF" width="57.507" height="8.04"/>
		<rect x="173.236" y="290.355" fill="#AFDCDF" width="57.507" height="8.04"/>
		<rect x="173.236" y="306.378" fill="#AFDCDF" width="57.507" height="8.039"/>
		<rect x="173.236" y="322.399" fill="#AFDCDF" width="57.507" height="8.04"/>
		<pattern  id="SVGID_9_" xlink:href="#SVGID_3_" patternTransform="matrix(-0.0697 0.4064 0.4064 0.0697 -15378.0146 205.1826)">
		</pattern>
		<path fill="url(#SVGID_9_)" d="M237.838,349.033c-2.508-0.433-4.196-2.816-3.766-5.327l1.011-5.887
			c0.429-2.512,2.816-4.196,5.326-3.764l0,0c2.514,0.433,4.201,2.813,3.771,5.323l-1.011,5.888
			C242.737,347.778,240.353,349.463,237.838,349.033L237.838,349.033z"/>
		
			<pattern  id="SVGID_10_" xlink:href="#SVGID_4_" patternTransform="matrix(-0.0114 0.4122 -0.4122 -0.0114 -16964.9082 -946.6973)">
		</pattern>
		<path fill="url(#SVGID_10_)" d="M171.38,348.679c2.547,0.071,4.669-1.938,4.741-4.479l0.164-5.975
			c0.072-2.546-1.938-4.666-4.482-4.734l0,0c-2.549-0.069-4.672,1.935-4.741,4.479l-0.166,5.972
			C166.826,346.486,168.833,348.609,171.38,348.679L171.38,348.679z"/>
		<path fill="#183356" d="M197.82,464.719h-28.661c-3.99,0-7.228-2.719-7.228-6.066l0,0c0-3.353,3.237-6.071,7.228-6.071h28.661"/>
		<path fill="#183356" d="M205.34,449.627l25.299,15.903c3.52,2.211,7.827,1.709,9.61-1.125l0,0c1.784-2.837,0.37-6.94-3.149-9.152
			l-25.299-15.903"/>
		<rect x="193.184" y="447.646" fill="#183356" width="4.609" height="5.378"/>
		
			<rect x="212.2" y="437.062" transform="matrix(0.846 0.5332 -0.5332 0.846 267.3323 -46.6963)" fill="#183356" width="4.612" height="4.782"/>
	</g>
	<g>
		<path fill="#2B3D49" d="M981.119,164.021c-0.062-10.336-15.477-18.707-34.491-18.707c-19.012,0-34.428,8.371-34.489,18.707h-0.004
			v60.941h68.989v-60.941H981.119z"/>
		<path fill="#FFFFFF" d="M947.093,247.149c0,0-19.868,2.383-19.868-17.485c0-19.87-0.197-49.477-0.197-49.477
			s0.396-13.113,20.466-12.719c20.067,0.398,20.465,12.518,20.465,12.518v49.678C967.957,229.664,969.547,247.943,947.093,247.149z"
			/>
		<path fill="#2B3D49" d="M946.482,197.848c0,0.915-0.742,1.656-1.659,1.656c-0.915,0-1.661-0.741-1.661-1.656
			c0-0.918,0.746-1.663,1.661-1.663C945.74,196.185,946.482,196.93,946.482,197.848z"/>
		<path fill="#2B3D49" d="M954.116,197.848c0,0.915-0.746,1.656-1.66,1.656c-0.918,0-1.662-0.741-1.662-1.656
			c0-0.918,0.744-1.663,1.662-1.663C953.37,196.185,954.116,196.93,954.116,197.848z"/>
		<path fill="#2B3D49" d="M932.131,166.35c0,0,14.255,27.472,38.475,23.85C994.822,186.58,932.135,146.318,932.131,166.35z"/>
		<rect x="946.425" y="245.857" fill="#FFFFFF" width="1.858" height="6.607"/>
		<polygon fill="#AFDCDF" points="930.631,252.881 965.315,252.881 971.818,391.71 925.985,391.71 		"/>
		<rect x="939.498" y="406.72" fill="#183356" width="7.019" height="51.933"/>
		<rect x="951.924" y="406.733" fill="#183356" width="7.021" height="52.195"/>
		<path fill="#183356" d="M946.541,466.311h-15.232c-2.12,0-3.842-1.723-3.842-3.842l0,0c0-2.122,1.722-3.844,3.842-3.844h15.232"/>
		<path fill="#183356" d="M951.913,466.207h15.229c2.123,0,3.845-1.724,3.845-3.842l0,0c0-2.122-1.722-3.847-3.845-3.847h-15.229"/>
		<path fill="#FFFFFF" d="M935.862,252.086c0,0-7.124,21.057,12.212,21.366c19.335,0.31,11.191-21.366,11.191-21.366H935.862z"/>
		<rect x="906" y="316" fill="#FFFFFF" width="94" height="26"/>
		
			<pattern  id="SVGID_11_" xlink:href="#SVGID_5_" patternTransform="matrix(-0.1694 0.3489 -0.3489 -0.1694 -19332.7285 -3009.1465)">
		</pattern>
		<path fill="url(#SVGID_11_)" d="M916.572,314.43c2.153,1.049,4.75,0.146,5.796-2.006l2.454-5.057
			c1.05-2.154,0.146-4.75-2.008-5.792l0,0c-2.16-1.048-4.752-0.151-5.802,2.004l-2.452,5.053
			C913.515,310.787,914.415,313.385,916.572,314.43L916.572,314.43z"/>
	</g>
	<path fill="#183356" d="M1002.913,362.57l-1.122-2.423l1.755-0.812c0.14-0.063,0.199-0.229,0.136-0.368l-9.898-21.383
		c-0.064-0.139-0.229-0.198-0.367-0.135l-16.658,7.71c-0.902,0.419-1.298,1.493-0.88,2.396l9.875,21.334
		c0.406,0.876,1.449,1.257,2.325,0.854l14.701-6.807C1002.917,362.875,1002.979,362.71,1002.913,362.57z M987.845,369.241
		c-0.601,0.275-1.312,0.015-1.588-0.582c-0.274-0.6-0.015-1.312,0.581-1.588l0.697-0.323c0.141-0.064,0.201-0.229,0.137-0.368
		c-0.063-0.14-0.229-0.199-0.369-0.135l-0.695,0.325c-0.42,0.192-0.726,0.532-0.888,0.93l-9.338-20.176
		c-0.29-0.625-0.018-1.371,0.607-1.659l16.405-7.594l9.667,20.881l-13.408,6.205c-0.141,0.062-0.199,0.229-0.135,0.367
		c0.063,0.139,0.229,0.201,0.367,0.135l11.401-5.278l1.006,2.171L987.845,369.241L987.845,369.241z M995.08,349.156l-3.71-8.02
		c-0.065-0.138-0.23-0.199-0.37-0.135l-6.013,2.783c-0.142,0.063-0.201,0.229-0.136,0.368l3.713,8.019
		c0.062,0.141,0.228,0.2,0.367,0.137l6.014-2.785C995.085,349.46,995.146,349.295,995.08,349.156z M988.95,351.688l-3.479-7.516
		l5.513-2.551l3.479,7.516L988.95,351.688z M995.331,350.358c0.139-0.065,0.304-0.005,0.368,0.135l3.712,8.019
		c0.063,0.139,0.005,0.305-0.135,0.367c-0.141,0.065-0.305,0.004-0.368-0.135l-3.711-8.019
		C995.132,350.588,995.192,350.423,995.331,350.358z M993.326,351.286c0.14-0.063,0.304-0.005,0.368,0.135l3.712,8.021
		c0.062,0.137,0.003,0.302-0.137,0.365c-0.138,0.064-0.303,0.005-0.367-0.135l-3.712-8.019
		C993.127,351.515,993.188,351.351,993.326,351.286z M991.321,352.215c0.139-0.064,0.305-0.004,0.366,0.134l3.713,8.021
		c0.063,0.137,0.003,0.303-0.136,0.367c-0.139,0.062-0.303,0.004-0.368-0.135l-3.712-8.021
		C991.122,352.442,991.183,352.278,991.321,352.215z M989.18,353.511c-0.062-0.139-0.002-0.304,0.136-0.368
		c0.141-0.063,0.306-0.004,0.369,0.137l3.712,8.017c0.064,0.142,0.004,0.305-0.136,0.371c-0.14,0.062-0.305,0.002-0.368-0.138
		L989.18,353.511z M986.924,353.236c-0.138,0.064-0.302,0.005-0.365-0.136l-3.715-8.018c-0.062-0.139-0.003-0.304,0.138-0.369
		c0.14-0.063,0.304-0.004,0.366,0.136l3.712,8.02C987.124,353.009,987.064,353.173,986.924,353.236z M984.922,354.164
		c-0.139,0.064-0.304,0.005-0.369-0.135l-3.712-8.019c-0.062-0.14-0.004-0.305,0.136-0.368c0.141-0.063,0.306-0.004,0.368,0.135
		l3.712,8.021C985.122,353.938,985.061,354.1,984.922,354.164z M982.917,355.092c-0.139,0.063-0.303,0.005-0.368-0.135l-3.71-8.02
		c-0.064-0.139-0.005-0.304,0.133-0.368c0.14-0.063,0.307-0.003,0.368,0.136l3.713,8.019
		C983.117,354.862,983.058,355.026,982.917,355.092z M991.299,362.688c-0.139,0.063-0.303,0.006-0.367-0.136l-3.713-8.02
		c-0.062-0.14-0.003-0.304,0.137-0.367c0.14-0.064,0.306-0.003,0.367,0.135l3.713,8.021
		C991.499,362.459,991.439,362.624,991.299,362.688z M989.296,363.616c-0.14,0.063-0.304,0.004-0.367-0.138l-3.713-8.019
		c-0.064-0.138-0.002-0.303,0.136-0.368c0.14-0.062,0.304-0.004,0.367,0.136l3.713,8.021
		C989.498,363.386,989.436,363.549,989.296,363.616z M987.292,364.543c-0.138,0.064-0.304,0.004-0.368-0.136l-3.712-8.019
		c-0.062-0.14-0.005-0.304,0.136-0.367c0.141-0.064,0.306-0.006,0.368,0.135l3.712,8.018
		C987.491,364.312,987.432,364.479,987.292,364.543z"/>
	
		<pattern  id="SVGID_12_" xlink:href="#SVGID_6_" patternTransform="matrix(-0.2603 -0.2849 -0.2849 0.2603 -20537.9668 2967.8086)">
	</pattern>
	<path fill="url(#SVGID_12_)" d="M973.533,334.267c1.761-1.602,4.486-1.481,6.099,0.277l3.771,4.127
		c1.607,1.76,1.481,4.487-0.275,6.098l0,0c-1.766,1.608-4.491,1.489-6.101-0.271l-3.772-4.128
		C971.649,338.609,971.773,335.88,973.533,334.267L973.533,334.267z"/>
</g>
<g>
	<g>
		<path fill="#7A1E72" d="M144.195,698.158h-0.657c-0.059,0-0.081-0.058-0.108-0.108l-0.775-1.44h-0.077
			c-0.139,0-0.354-0.017-0.479-0.021v1.461c0,0.062-0.041,0.108-0.102,0.108h-0.54c-0.06,0-0.106-0.048-0.106-0.108v-3.706
			c0-0.106,0.063-0.145,0.171-0.162c0.28-0.043,0.664-0.07,1.055-0.07c0.832,0,1.553,0.297,1.553,1.219v0.049
			c0,0.569-0.287,0.926-0.727,1.1l0.845,1.572c0.011,0.017,0.011,0.031,0.011,0.042C144.26,698.129,144.236,698.158,144.195,698.158
			 M143.387,695.329c0-0.405-0.272-0.575-0.81-0.575c-0.112,0-0.38,0.009-0.479,0.02v1.214c0.087,0.006,0.389,0.017,0.479,0.017
			c0.556,0,0.81-0.152,0.81-0.625V695.329z"/>
		<path fill="#7A1E72" d="M147.178,696.887h-1.757v0.018c0,0.312,0.131,0.685,0.645,0.685c0.396,0,0.765-0.034,0.995-0.055
			c0.005,0,0.008,0,0.014,0c0.054,0,0.1,0.024,0.1,0.078v0.354c0,0.087-0.019,0.125-0.114,0.145
			c-0.351,0.062-0.56,0.088-1.045,0.088c-0.541,0-1.303-0.287-1.303-1.352v-0.396c0-0.843,0.467-1.37,1.29-1.37
			c0.829,0,1.283,0.565,1.283,1.37v0.301C147.285,696.836,147.252,696.887,147.178,696.887 M146.569,696.358
			c0-0.422-0.233-0.663-0.567-0.663c-0.332,0-0.576,0.237-0.576,0.663v0.021h1.144L146.569,696.358L146.569,696.358z
			 M146.887,694.043l-0.638,0.667c-0.042,0.049-0.063,0.068-0.127,0.068h-0.464c-0.032,0-0.048-0.017-0.048-0.036
			c0-0.017,0.004-0.038,0.021-0.053l0.512-0.646c0.048-0.061,0.069-0.083,0.141-0.083h0.564c0.038,0,0.061,0.019,0.061,0.038
			C146.909,693.998,146.901,694.025,146.887,694.043z"/>
		<path fill="#7A1E72" d="M150.561,695.607l-0.177,0.071c0.083,0.125,0.134,0.242,0.134,0.433v0.036c0,0.673-0.465,0.98-1.277,0.98
			c-0.286,0-0.482-0.05-0.584-0.092c-0.067,0.042-0.093,0.092-0.093,0.139c0,0.107,0.058,0.148,0.181,0.179l0.636,0.151
			c0.732,0.172,1.208,0.285,1.208,0.861v0.038c0,0.552-0.405,0.845-1.321,0.845c-0.871,0-1.336-0.331-1.336-0.896v-0.047
			c0-0.223,0.106-0.437,0.275-0.592c-0.149-0.114-0.242-0.303-0.242-0.496v-0.006c0-0.168,0.073-0.334,0.216-0.438
			c-0.16-0.169-0.222-0.361-0.222-0.63v-0.036c0-0.542,0.351-0.992,1.283-0.992h1.262c0.082,0,0.145,0.063,0.145,0.145v0.229
			C150.647,695.569,150.625,695.582,150.561,695.607 M149.875,698.367c0-0.12-0.069-0.189-0.635-0.324l-0.482-0.113
			c-0.078,0.113-0.13,0.186-0.13,0.379v0.048c0,0.221,0.13,0.355,0.638,0.355c0.518,0,0.609-0.112,0.609-0.307V698.367z
			 M149.816,696.119c0-0.258-0.111-0.458-0.575-0.458c-0.458,0-0.581,0.206-0.581,0.458v0.044c0,0.201,0.082,0.426,0.581,0.426
			c0.448,0,0.575-0.155,0.575-0.426V696.119z"/>
		<path fill="#7A1E72" d="M151.89,694.715h-0.52c-0.061,0-0.115-0.051-0.115-0.108v-0.474c0-0.061,0.054-0.106,0.115-0.106h0.52
			c0.062,0,0.109,0.047,0.109,0.106v0.474C151.999,694.664,151.952,694.715,151.89,694.715 M151.874,698.158h-0.493
			c-0.06,0-0.11-0.058-0.11-0.115v-2.816c0-0.061,0.051-0.106,0.11-0.106h0.493c0.06,0,0.108,0.047,0.108,0.106v2.816
			C151.982,698.102,151.934,698.158,151.874,698.158z"/>
		<path fill="#7A1E72" d="M154.002,698.198c-0.845,0-1.288-0.569-1.288-1.339v-0.438c0-0.769,0.442-1.342,1.288-1.342
			c0.847,0,1.286,0.573,1.286,1.342v0.438C155.288,697.629,154.849,698.198,154.002,698.198 M154.577,696.422
			c0-0.441-0.197-0.727-0.575-0.727c-0.375,0-0.575,0.283-0.575,0.727v0.438c0,0.439,0.2,0.729,0.575,0.729
			c0.377,0,0.575-0.288,0.575-0.729V696.422z"/>
		<path fill="#7A1E72" d="M158.389,698.158h-0.497c-0.06,0-0.108-0.058-0.108-0.115v-1.756c0-0.467-0.044-0.602-0.459-0.602
			c-0.183,0-0.382,0.071-0.606,0.191v2.165c0,0.06-0.051,0.115-0.109,0.115h-0.498c-0.059,0-0.105-0.058-0.105-0.115v-2.815
			c0-0.062,0.046-0.107,0.105-0.107h0.47c0.059,0,0.108,0.047,0.108,0.107v0.112c0.313-0.199,0.518-0.26,0.874-0.26
			c0.773,0,0.931,0.522,0.931,1.207v1.756C158.496,698.102,158.445,698.158,158.389,698.158"/>
		<path fill="#005CA5" d="M161.583,701.973c0.013-0.034,0.025-0.061,0.025-0.094c0-0.102-0.086-0.184-0.209-0.184h-1.345
			c-0.109,0-0.196,0.096-0.231,0.193l-1.468,3.644c-0.084,0.207-0.159,0.245-0.219,0.245c-0.048,0-0.122-0.038-0.207-0.245
			l-1.469-3.644c-0.035-0.099-0.12-0.193-0.231-0.193h-1.356c-0.124,0-0.196,0.082-0.196,0.184c0,0.021,0.012,0.06,0.024,0.094
			l1.245,2.861c0.001,0.001,0.003,0.002,0.003,0.002l1.346,3.096v2.603c0,0.133,0.097,0.241,0.232,0.241h1.22
			c0.137,0,0.233-0.108,0.233-0.241v-2.603l0.789-1.81L161.583,701.973"/>
		<path fill="#005CA5" d="M144.139,707.39c-0.317,0-0.808-0.038-1.089-0.05v3.193c0,0.133-0.101,0.241-0.233,0.241h-1.223
			c-0.135,0-0.243-0.108-0.243-0.241v-8.412c0-0.242,0.145-0.33,0.391-0.367c0.636-0.098,1.503-0.16,2.396-0.16
			c1.882,0,3.52,0.664,3.52,2.826v0.109C147.659,706.694,146.021,707.39,144.139,707.39 M145.973,704.42
			c0-1.027-0.611-1.418-1.833-1.418c-0.258,0-0.869,0.023-1.089,0.047v2.91c0.195,0.015,0.879,0.037,1.089,0.037
			c1.32,0,1.833-0.486,1.833-1.467V704.42z"/>
		<path fill="#005CA5" d="M154.859,710.774h-1.296c-0.109,0-0.208-0.096-0.232-0.205l-0.562-2.323h-2.813l-0.563,2.323
			c-0.023,0.109-0.12,0.205-0.232,0.205h-1.294c-0.123,0-0.223-0.083-0.223-0.205c0-0.014,0.013-0.036,0.013-0.061l2.007-7.668
			c0.293-1.135,1.174-1.248,1.7-1.248c0.524,0,1.406,0.113,1.7,1.248l2.006,7.668c0,0.023,0.011,0.047,0.011,0.061
			C155.081,710.691,154.981,710.774,154.859,710.774 M151.558,703.221c-0.037-0.145-0.072-0.194-0.194-0.194
			c-0.125,0-0.162,0.051-0.198,0.194l-0.88,3.633h2.152L151.558,703.221z"/>
		<path fill="#005CA5" d="M164.951,710.875c-0.914,0-1.575-0.086-2.16-0.221c-0.123-0.024-0.234-0.11-0.234-0.242v-0.884
			c0-0.134,0.111-0.231,0.234-0.231c0.012,0,0.012,0,0.023,0c0.491,0.062,1.713,0.125,2.167,0.125c1.085,0,1.417-0.394,1.417-1.102
			c0-0.48-0.233-0.722-1.039-1.196l-1.617-0.968c-1.136-0.672-1.441-1.384-1.441-2.239c0-1.345,0.782-2.323,3.058-2.323
			c0.806,0,1.93,0.126,2.345,0.219c0.124,0.026,0.222,0.111,0.222,0.234v0.906c0,0.123-0.088,0.219-0.208,0.219
			c-0.015,0-0.015,0-0.026,0c-0.805-0.074-1.615-0.123-2.408-0.123c-0.904,0-1.283,0.318-1.283,0.868
			c0,0.403,0.207,0.65,1.001,1.089l1.47,0.821c1.343,0.745,1.698,1.523,1.698,2.493
			C168.171,709.557,167.399,710.875,164.951,710.875"/>
		<path fill="#005CA5" d="M175.42,710.875c-0.87,0-2.042-0.086-2.411-0.146c-0.206-0.036-0.315-0.135-0.315-0.379v-8.229
			c0-0.242,0.109-0.344,0.315-0.378c0.368-0.062,1.541-0.149,2.411-0.149c2.444,0,3.84,1.32,3.84,3.74v1.8
			C179.261,709.557,177.865,710.875,175.42,710.875 M177.571,705.334c0-1.831-0.927-2.309-2.15-2.309
			c-0.452,0-0.771,0.022-1.026,0.034v6.349c0.255,0.014,0.574,0.037,1.026,0.037c1.223,0,2.15-0.479,2.15-2.312V705.334z"/>
		<path fill="#005CA5" d="M185.799,710.704c-0.391,0.06-0.868,0.171-2.322,0.171c-1.591,0-2.825-0.426-2.825-2.506v-4.271
			c0-2.077,1.234-2.506,2.825-2.506c1.454,0,1.931,0.113,2.322,0.171c0.185,0.026,0.247,0.09,0.247,0.259v0.781
			c0,0.138-0.11,0.244-0.247,0.244h-2.496c-0.706,0-0.963,0.246-0.963,1.051v1.322h3.313c0.135,0,0.245,0.109,0.245,0.246v0.879
			c0,0.136-0.11,0.242-0.245,0.242h-3.313v1.58c0,0.808,0.257,1.053,0.963,1.053h2.496c0.136,0,0.247,0.106,0.247,0.243v0.784
			C186.046,710.616,185.984,710.68,185.799,710.704"/>
		<path fill="#005CA5" d="M195.654,710.704c-0.369,0.085-1.429,0.171-2.075,0.171c-1.596,0-2.827-0.426-2.827-2.506v-6.432
			c0-0.136,0.109-0.242,0.244-0.242h1.211c0.133,0,0.244,0.106,0.244,0.242v6.432c0,0.808,0.245,1.053,0.955,1.053h2.248
			c0.134,0,0.247,0.106,0.247,0.243v0.784C195.9,710.616,195.837,710.666,195.654,710.704"/>
		<path fill="#005CA5" d="M203.591,710.774h-1.297c-0.112,0-0.207-0.096-0.235-0.205l-0.558-2.323h-2.814l-0.564,2.323
			c-0.023,0.109-0.122,0.205-0.23,0.205h-1.295c-0.125,0-0.22-0.083-0.22-0.205c0-0.014,0.011-0.036,0.011-0.061l2.005-7.668
			c0.293-1.135,1.172-1.248,1.699-1.248c0.525,0,1.409,0.113,1.701,1.248l2.003,7.668c0,0.023,0.012,0.047,0.012,0.061
			C203.809,710.691,203.712,710.774,203.591,710.774 M200.288,703.221c-0.038-0.145-0.073-0.194-0.195-0.194
			c-0.122,0-0.158,0.051-0.194,0.194l-0.882,3.633h2.151L200.288,703.221z"/>
		<path fill="#005CA5" d="M212.92,710.704c-0.368,0.085-1.432,0.171-2.079,0.171c-1.591,0-2.826-0.426-2.826-2.506v-6.432
			c0-0.136,0.11-0.242,0.246-0.242h1.208c0.138,0,0.244,0.106,0.244,0.242v6.432c0,0.808,0.248,1.053,0.958,1.053h2.249
			c0.134,0,0.242,0.106,0.242,0.243v0.784C213.163,710.616,213.103,710.666,212.92,710.704"/>
		<path fill="#005CA5" d="M217.136,710.875c-2.019,0-3.487-1.124-3.487-3.815v-1.65c0-2.688,1.468-3.814,3.487-3.814
			c2.018,0,3.484,1.127,3.484,3.814v1.65C220.62,709.751,219.154,710.875,217.136,710.875 M218.909,705.408
			c0-1.612-0.576-2.332-1.773-2.332c-1.199,0-1.773,0.72-1.773,2.332v1.65c0,1.616,0.574,2.336,1.773,2.336
			c1.198,0,1.773-0.72,1.773-2.336V705.408z"/>
		<path fill="#005CA5" d="M223.665,710.774h-1.21c-0.136,0-0.245-0.108-0.245-0.241v-8.609c0-0.133,0.109-0.229,0.245-0.229h1.21
			c0.133,0,0.243,0.096,0.243,0.229v8.609C223.908,710.666,223.798,710.774,223.665,710.774"/>
		<path fill="#005CA5" d="M232.197,710.774h-1.494c-0.13,0-0.182-0.12-0.241-0.241l-1.761-3.265h-0.171
			c-0.321,0-0.808-0.038-1.09-0.051v3.314c0,0.133-0.098,0.241-0.232,0.241h-1.219c-0.137,0-0.247-0.108-0.247-0.241v-8.412
			c0-0.242,0.146-0.33,0.391-0.367c0.637-0.098,1.502-0.16,2.397-0.16c1.884,0,3.522,0.674,3.522,2.766v0.108
			c0,1.294-0.649,2.104-1.651,2.493l1.919,3.572c0.023,0.036,0.023,0.075,0.023,0.097
			C232.344,710.715,232.295,710.774,232.197,710.774 M230.366,704.358c0-0.919-0.612-1.311-1.835-1.311
			c-0.256,0-0.87,0.027-1.09,0.049v2.752c0.195,0.016,0.882,0.038,1.09,0.038c1.258,0,1.835-0.344,1.835-1.42V704.358z"/>
		<path fill="#005CA5" d="M238.567,710.704c-0.393,0.06-0.868,0.171-2.325,0.171c-1.59,0-2.825-0.426-2.825-2.506v-4.271
			c0-2.077,1.235-2.506,2.825-2.506c1.457,0,1.932,0.113,2.325,0.171c0.184,0.026,0.244,0.09,0.244,0.259v0.781
			c0,0.138-0.108,0.244-0.244,0.244h-2.496c-0.708,0-0.966,0.246-0.966,1.051v1.322h3.313c0.136,0,0.246,0.109,0.246,0.246v0.879
			c0,0.136-0.11,0.242-0.246,0.242h-3.313v1.58c0,0.808,0.259,1.053,0.966,1.053h2.496c0.135,0,0.244,0.106,0.244,0.243v0.784
			C238.811,710.616,238.751,710.68,238.567,710.704"/>
		<path fill="#009CB9" d="M127.248,706.232c0-6.812-2.642-12.998-6.959-17.645h-5.872c5.294,4.079,8.706,10.46,8.706,17.645
			c0,7.193-3.412,13.571-8.71,17.646h5.876C124.606,719.24,127.248,713.045,127.248,706.232"/>
		<path fill="#BDD143" d="M130.224,706.32c0-6.597-2.096-12.713-5.664-17.731h8.118c2.977,5.243,4.676,11.294,4.676,17.731
			c0,6.372-1.665,12.361-4.572,17.56h-8.112C128.174,718.898,130.224,712.854,130.224,706.32"/>
	</g>
</g>
<g>
	
		<image overflow="visible" enable-background="new    " width="150" height="150" xlink:href="F9B734A39BD45AB6.png"  transform="matrix(0.23 0 0 0.23 682.7803 686.2344)">
	</image>
	
		<image overflow="visible" enable-background="new    " width="550" height="475" xlink:href="F9B734A39BD45AB5.png"  transform="matrix(0.0899 0 0 0.0899 865.7646 683.4287)">
	</image>
	
		<image overflow="visible" enable-background="new    " width="305" height="165" xlink:href="F9B734A39BD45AB2.png"  transform="matrix(0.2141 0 0 0.2141 598.249 685.834)">
	</image>
	<g>
		<g>
			<path fill="#019CDE" d="M935.15,707.836c0,0-0.011,0.028-0.022,0.077C935.136,707.889,935.141,707.86,935.15,707.836z"/>
			<path fill="#019CDE" d="M935.065,708.135c-0.048,0.182-0.107,0.438-0.175,0.756C934.971,708.646,935.009,708.385,935.065,708.135
				z"/>
			<path fill="#019CDE" d="M949.309,717.238c-1.051,1.02-2.252,1.477-3.717,1.466c-4.324-0.029-7.042-2.896-7.725-8.034
				c-0.208-1.574,0.256-2.183,1.842-2.159c3.128,0.046,6.255-0.075,9.381,0.011c1.557,0.045,1.947-0.611,1.852-2.015
				c-0.168-2.455-2.169-4.615-4.919-5.183c-4.735-0.976-9.094,1.651-10.871,6.512c-0.011,0.024-0.016,0.053-0.022,0.077
				c-0.015,0.052-0.037,0.126-0.062,0.222c-0.058,0.25-0.096,0.513-0.175,0.756c-0.348,1.744-0.746,5.35,0.95,8.519
				c2.975,5.129,10.912,5.657,14.45,0.86c0.35-0.475,1.027-1.054,0.465-1.629C950.062,715.924,949.686,716.87,949.309,717.238z
				 M938.789,705.61c1.232-2.231,4.339-3.52,6.547-2.651c1.236,0.486,1.959,1.401,1.852,2.72c-0.115,1.445-1.396,1.159-2.313,1.247
				c-0.924,0.09-1.864,0.021-2.795,0.021c0,0.018,0,0.033,0,0.054c-0.81,0-1.619-0.036-2.426,0.008
				C938.464,707.071,938.194,706.686,938.789,705.61z"/>
			<path fill="#019CDE" d="M1038.712,706.729c-1.81-5.231-7.313-7.4-12.955-4.956c-1.532,0.666-1.663,0.122-1.648-1.149
				c0.049-4.369-0.089-8.742,0.221-13.108c0.046-0.663,0.367-1.737-0.999-1.284c-1.419,0.471-2.801,1.048-4.192,1.596
				c-0.93,0.367-1.034,1.015-0.19,1.469c1.568,0.844,1.6,2.239,1.602,3.697c0,4.312,0,8.623,0,12.936c-0.044,0-0.087,0-0.132,0
				c0,4.561,0,9.116,0.002,13.676c0,0.546-0.008,1.435,0.788,0.882c1-0.693,1.766-0.259,2.628,0.022
				c2.694,0.886,5.396,0.953,8.111,0.13C1037.595,718.926,1040.711,712.518,1038.712,706.729z M1029.724,719.561
				c-2.706,0.408-4.888-1.048-5.32-3.731c-0.577-3.526-0.263-7.091-0.212-10.642c0.018-1.184,0.737-1.729,1.829-2.017
				c3.643-0.965,7.04,0.777,8.438,4.383c0.522,1.356,0.646,2.786,0.764,3.897C1035.182,716.164,1033.151,719.043,1029.724,719.561z"
				/>
			<path fill="#019CDE" d="M1016.359,718.691c-2.229,0.507-3.134-0.153-3.224-2.444c-0.069-1.747-0.015-3.499-0.015-4.877
				c0.095-1.869,0.157-3.367,0.247-4.863c0.223-3.778-1.722-5.839-5.486-5.576c-3.141,0.219-5.697,1.733-7.739,4.095
				c-0.354,0.408-0.578,0.968-0.734,1.497c-0.164,0.556,0.079,0.941,0.729,1.04c1.273,0.187,2.898-0.823,3.191-2.025
				c0.498-2.041,1.484-2.847,3.305-2.701c1.752,0.14,2.911,1.273,3.119,3.17c0.097,0.864,0.014,1.748,0.043,2.622
				c0.04,1.155-0.443,1.804-1.592,2.188c-2.187,0.73-4.361,1.531-6.462,2.48c-2.151,0.969-2.825,2.448-2.364,4.526
				c0.441,1.991,2.041,3.271,4.144,3.455c1.739,0.15,3.185-0.56,4.538-1.46c1.005-0.667,1.644-0.635,2.536,0.288
				c1.688,1.737,4.808,1.448,6.35-0.412c0.239-0.289,0.551-0.585,0.266-0.97C1016.988,718.424,1016.665,718.624,1016.359,718.691z
				 M1009.496,714.858c-0.144,2.812-0.847,3.78-3.055,4.078c-1.563,0.212-2.691-0.426-3.224-1.938
				c-0.497-1.406,0.079-2.444,1.3-3.141c0.702-0.4,1.448-0.734,2.208-1.021C1009.516,711.797,1009.645,711.9,1009.496,714.858z"/>
			<path fill="#019CDE" d="M985.138,718.873c-1.938,0.516-2.81-0.026-3.123-2.021c-0.312-1.99,0.079-3.985,0.13-5.981
				c0-1.812,0.055-3.626-0.015-5.437c-0.063-1.723-0.733-3.161-2.382-3.961c-3.248-1.572-10.198,1.343-11.364,4.74
				c-0.23,0.676-0.329,1.23,0.535,1.465c1.11,0.302,2.987-0.811,3.255-1.924c0.495-2.062,1.473-2.912,3.247-2.82
				c1.771,0.09,3.015,1.346,3.177,3.321c0.076,0.929-0.037,1.874,0.006,2.809c0.045,0.977-0.411,1.45-1.305,1.77
				c-2.231,0.797-4.469,1.604-6.642,2.552c-2.063,0.897-2.826,2.37-2.503,4.316c0.336,2.007,1.883,3.389,3.967,3.66
				c1.8,0.234,3.327-0.435,4.748-1.375c0.972-0.646,1.598-0.741,2.521,0.238c1.623,1.729,4.865,1.438,6.39-0.356
				c0.252-0.296,0.534-0.613,0.325-0.987C985.84,718.405,985.472,718.785,985.138,718.873z M978.51,713.438
				c-0.033,0.492-0.123,0.982-0.154,1.226c-0.159,3.261-1.435,4.639-3.875,4.42c-1.257-0.112-2.038-0.793-2.413-1.989
				c-0.364-1.158-0.028-2.104,0.894-2.812c1.309-1.003,2.895-1.414,4.444-1.861C978.221,712.186,978.561,712.66,978.51,713.438z"/>
			<path fill="#019CDE" d="M995.896,719.419c-2.154-0.036-2.271-1.517-2.269-3.116c0.006-4.686,0.002-9.369,0.002-14.055
				c0.029,0,0.062,0,0.091,0c0-4.558-0.013-9.115,0.006-13.676c0.01-2.587,0.038-2.575-2.277-1.637
				c-0.865,0.351-1.753,0.646-2.635,0.957c-1.052,0.376-1.433,0.95-0.283,1.614c1.224,0.705,1.448,1.773,1.446,3.014
				c-0.004,7.996-0.008,15.991,0.003,23.985c0.002,1.567-0.217,2.91-2.233,2.946c-0.458,0.009-0.861,0.229-0.81,0.812
				c0.058,0.632,0.521,0.594,0.969,0.56c2.616-0.194,5.229-0.192,7.846-0.021c0.477,0.031,0.902-0.002,0.962-0.591
				C996.771,719.634,996.364,719.426,995.896,719.419z"/>
			<path fill="#019CDE" d="M961.072,703.755c1.31,0.027,2.622-0.014,3.936-0.006c0.707,0.004,1.24-0.146,1.199-1.021
				c-0.04-0.813-0.515-1.049-1.245-1.032c-0.937,0.019-1.881-0.067-2.809,0.025c-1.689,0.173-2.861-0.096-2.438-2.221
				c0.083-0.424,0.028-0.906-0.529-1.049c-0.545-0.139-0.79,0.252-1.004,0.645c-0.907,1.656-2.208,2.847-4.024,3.438
				c-0.358,0.116-0.748,0.293-0.708,0.748c0.056,0.627,0.606,0.56,1.009,0.538c1.443-0.074,1.601,0.795,1.573,1.936
				c-0.043,1.872-0.013,3.747-0.013,5.62c0.002,0,0.004,0,0.008,0c0,1.937-0.023,3.874,0.009,5.808
				c0.024,1.515,0.519,2.841,1.893,3.648c2.07,1.217,5.799,0.704,7.545-1.015c0.293-0.286,0.818-0.548,0.529-1.061
				c-0.377-0.669-0.831-0.172-1.27,0.013c-2.812,1.185-4.763,0.146-4.958-2.922c-0.229-3.546-0.123-7.11-0.188-10.668
				C959.567,704.122,960.07,703.735,961.072,703.755z"/>
		</g>
		<g>
			<path fill="#C80B1D" d="M1031.172,694.2h-0.016c-0.363,0.412-0.776,0.66-1.338,0.66c-0.834,0-1.471-0.678-1.471-1.851
				c0-1.197,0.783-2.163,1.958-2.163c0.214,0,0.437,0.05,0.627,0.114c0.182,0.067,0.331,0.133,0.471,0.133
				c0.166,0,0.381-0.165,0.528-0.247v3.732c0,1.229-0.824,1.851-1.925,1.851c-0.989,0-1.444-0.283-1.444-0.651
				c0-0.19,0.156-0.373,0.395-0.373c0.48,0,0.374,0.728,1.142,0.728c0.679,0,1.073-0.389,1.073-1.348V694.2z M1031.172,691.979
				c0-0.57-0.346-0.885-0.857-0.885c-0.67,0-1.157,0.619-1.157,1.637c0,0.956,0.473,1.535,1.182,1.535
				c0.39,0,0.688-0.157,0.834-0.445L1031.172,691.979L1031.172,691.979z"/>
			<path fill="#C80B1D" d="M1034.873,690.848c1.172,0,1.997,0.809,1.997,1.966c0,1.238-0.926,2.131-1.997,2.131
				c-1.175,0-2-0.811-2-1.966C1032.873,691.739,1033.799,690.848,1034.873,690.848z M1035.02,694.695
				c0.53,0,0.992-0.363,0.992-1.453c0-1.43-0.595-2.147-1.288-2.147c-0.528,0-0.991,0.362-0.991,1.454
				C1033.73,693.977,1034.328,694.695,1035.02,694.695z"/>
			<path fill="#C80B1D" d="M1040.191,691.655c0-0.495-0.108-0.609-0.562-0.609v-0.147h1.321v3.071c0,0.356,0.073,0.444,0.229,0.444
				s0.297-0.024,0.364-0.031v0.131l-0.95,0.308c-0.156,0.049-0.255,0.091-0.304,0.091c-0.083,0-0.1-0.051-0.1-0.166v-0.38
				c-0.299,0.28-0.794,0.546-1.249,0.546c-0.604,0-1.099-0.397-1.099-1.307v-1.949c0-0.495-0.099-0.609-0.561-0.609v-0.147h1.319
				v2.666c0,0.587,0.217,0.851,0.693,0.851c0.364,0,0.751-0.214,0.895-0.362v-2.398H1040.191z"/>
			<path fill="#C80B1D" d="M1043.783,690.896v0.148c-0.364,0-0.479,0.106-0.479,0.247c0,0.1,0.058,0.231,0.174,0.496l0.833,1.98
				l0.811-2.015c0.076-0.182,0.133-0.354,0.133-0.488c0-0.155-0.085-0.222-0.396-0.222v-0.147h1.29v0.147
				c-0.233,0.049-0.365,0.14-0.462,0.362l-1.447,3.337c-0.051,0.115-0.09,0.166-0.147,0.166c-0.051,0-0.075-0.051-0.124-0.166
				l-1.389-3.13c-0.196-0.445-0.298-0.546-0.611-0.569v-0.147H1043.783L1043.783,690.896z"/>
			<path fill="#C80B1D" d="M1046.798,693.936c0.271,0,0.495,0.224,0.495,0.496s-0.225,0.494-0.495,0.494
				c-0.272,0-0.497-0.222-0.497-0.494C1046.301,694.158,1046.524,693.936,1046.798,693.936z"/>
			<path fill="#C80B1D" d="M1048.314,690.896h0.728v-0.578c0-1.009,0.678-1.438,1.306-1.438c0.555,0,0.894,0.24,0.894,0.604
				c0,0.207-0.143,0.371-0.413,0.371c-0.513,0-0.299-0.727-0.694-0.727c-0.198,0-0.33,0.122-0.33,0.411v1.356h0.976v0.296h-0.976
				v2.906c0,0.496,0.1,0.612,1.039,0.612v0.147h-2.526v-0.147c0.629,0,0.728-0.116,0.728-0.612v-2.906h-0.728v-0.296H1048.314z"/>
			<path fill="#C80B1D" d="M1052.098,691.789c0-0.356-0.073-0.446-0.229-0.446s-0.297,0.025-0.364,0.032v-0.131l0.95-0.307
				c0.157-0.05,0.255-0.091,0.305-0.091c0.084,0,0.1,0.05,0.1,0.164v0.595h0.018c0.188-0.339,0.627-0.759,1.04-0.759
				c0.297,0,0.53,0.207,0.53,0.47c0,0.199-0.149,0.39-0.355,0.39c-0.265,0-0.405-0.313-0.645-0.313
				c-0.232,0-0.445,0.264-0.588,0.611v2.097c0,0.496,0.101,0.612,0.679,0.612v0.147h-2.016v-0.147c0.479,0,0.577-0.116,0.577-0.612
				L1052.098,691.789L1052.098,691.789z"/>
		</g>
	</g>
	<g>
		<g>
			<g>
				<path fill="#014A75" d="M392.058,720.936v-4.627v-0.192h2.703c0.513-0.003,0.887,0.165,1.101,0.466l0,0
					c0.214,0.297,0.267,0.672,0.269,1.069l0,0c-0.002,0.202,0.002,0.571-0.175,0.919l0,0c-0.175,0.353-0.573,0.646-1.221,0.64l0,0
					h-1.73v1.727L392.058,720.936L392.058,720.936z M393.004,718.378h1.25c0.008,0,0.019,0,0.031,0l0,0
					c0.271,0.002,0.481-0.003,0.612-0.038l0,0c0.132-0.045,0.174-0.074,0.231-0.2l0,0c0.032-0.088,0.056-0.226,0.056-0.423l0,0
					c0.004-0.42-0.056-0.614-0.118-0.667l0,0c-0.049-0.062-0.208-0.106-0.549-0.104l0,0h-1.513V718.378L393.004,718.378z"/>
			</g>
			<g>
				<path fill="#014A75" d="M401.058,716.081c0.629,0.007,1.083,0.097,1.393,0.384l0,0c0.309,0.292,0.401,0.729,0.401,1.298l0,0
					v1.578c0.002,0.544-0.107,0.97-0.42,1.254l0,0c-0.314,0.277-0.766,0.374-1.375,0.376l0,0h-0.664l0,0
					c-0.608-0.002-1.06-0.099-1.374-0.376l0,0c-0.313-0.284-0.423-0.71-0.422-1.254l0,0v-1.578c0-0.569,0.094-1.006,0.401-1.298l0,0
					c0.311-0.287,0.763-0.377,1.395-0.384l0,0H401.058 M400.393,716.91c-0.404-0.002-0.612,0.055-0.697,0.146l0,0
					c-0.091,0.082-0.155,0.286-0.153,0.707l0,0v1.578c0.001,0.424,0.082,0.599,0.179,0.673l0,0c0.099,0.086,0.318,0.126,0.671,0.126
					l0,0h0.661c0.356,0,0.578-0.04,0.674-0.126l0,0c0.099-0.075,0.179-0.249,0.179-0.673l0,0v-1.578
					c0.002-0.421-0.062-0.625-0.153-0.707l0,0c-0.084-0.091-0.292-0.146-0.697-0.146l0,0H400.393"/>
			</g>
			<g>
				<path fill="#014A75" d="M405.826,720.936v-4.819h0.947v3.989h2.508v0.83H405.826L405.826,720.936z"/>
			</g>
			<g>
				<path fill="#014A75" d="M412.879,720.934v-1.979l-1.984-2.838h1.123l1.358,1.931l1.356-1.931h1.144l-2.05,2.839v1.979H412.879
					L412.879,720.934z"/>
			</g>
			<g>
				<path fill="#014A75" d="M419.513,720.934v-3.986h-1.597v-0.831h4.136v0.831h-1.595v3.795v0.191H419.513L419.513,720.934z"/>
			</g>
			<g>
				<path fill="#014A75" d="M424.697,720.936v-4.819h3.552v0.831h-2.607v1.117h2.496v0.803l-2.496-0.001v1.239h2.607v0.83H424.697
					L424.697,720.936z"/>
			</g>
			<g>
				<path fill="#014A75" d="M432.776,720.971h-0.003l0,0c-0.484,0-0.896-0.141-1.187-0.421l0,0
					c-0.292-0.278-0.438-0.687-0.437-1.167l0,0v-1.714c-0.009-0.667,0.252-1.12,0.683-1.34l0,0c0.424-0.219,0.959-0.246,1.566-0.248
					l0,0h0.46c0.535,0,0.933,0.102,1.197,0.366l0,0c0.263,0.269,0.343,0.646,0.343,1.104l0,0v0.335h-0.945v-0.192v-0.125
					c0.002-0.301-0.044-0.459-0.111-0.525l0,0c-0.061-0.07-0.217-0.132-0.563-0.132l0,0h-0.314c-0.428,0-0.746,0.021-0.953,0.076
					l0,0c-0.208,0.06-0.288,0.128-0.35,0.257l0,0c-0.042,0.089-0.066,0.221-0.066,0.407l0,0v1.217c0,0.377,0.007,0.668,0.058,0.86
					l0,0c0.055,0.194,0.113,0.272,0.257,0.342l0,0c0.1,0.043,0.253,0.069,0.471,0.069l0,0h0.662c0.33,0,0.565-0.019,0.707-0.06l0,0
					c0.145-0.049,0.184-0.089,0.226-0.18l0,0c0.026-0.066,0.044-0.166,0.042-0.312l0,0v-0.549h0.947v0.607
					c0.009,0.55-0.22,0.938-0.591,1.117l0,0c-0.361,0.183-0.81,0.203-1.31,0.205l0,0h-0.788"/>
			</g>
			<g>
				<path fill="#014A75" d="M441.749,720.936v-2.039h-2.498v2.039h-0.944v-4.819h0.945l-0.001,1.948h2.498v-1.948h0.946v4.819
					H441.749L441.749,720.936z"/>
			</g>
		</g>
		<g>
			<path fill="#019CDE" d="M444.575,715.489c0.344,0,0.653,0.247,0.653,0.636c0,0.385-0.31,0.634-0.653,0.634
				c-0.345,0-0.653-0.249-0.653-0.634C443.922,715.736,444.23,715.489,444.575,715.489z M444.575,716.624
				c0.263,0,0.478-0.209,0.478-0.499c0-0.291-0.215-0.501-0.478-0.501c-0.269,0-0.48,0.21-0.48,0.501
				C444.095,716.415,444.307,716.624,444.575,716.624z M444.908,716.229c-0.027,0.172-0.158,0.27-0.309,0.27
				c-0.222,0-0.365-0.163-0.365-0.376c0-0.219,0.136-0.381,0.36-0.381c0.156,0,0.285,0.092,0.31,0.264h-0.134
				c-0.017-0.08-0.087-0.128-0.175-0.128c-0.128,0-0.197,0.102-0.197,0.243c0,0.131,0.077,0.244,0.202,0.244
				c0.093,0,0.161-0.052,0.171-0.136H444.908z"/>
		</g>
		<path fill="#019CDE" d="M416.879,685.979c-5.84,0.003-10.707,4.153-11.81,9.669h4.928c0.363-1.053,0.961-1.994,1.735-2.771
			c1.325-1.32,3.129-2.131,5.147-2.131c2.019,0,3.822,0.811,5.148,2.131c1.321,1.325,2.131,3.13,2.132,5.148
			c-0.001,2.02-0.812,3.822-2.132,5.146c-1.326,1.323-3.129,2.135-5.148,2.136c-2.018-0.001-3.822-0.812-5.147-2.136
			c-0.768-0.767-1.361-1.7-1.724-2.739h-4.93l0,0v6.141c0,5.176,4.483,4.872,4.483,4.872l0.001-3.852
			c2.028,1.556,4.564,2.479,7.317,2.479c6.654,0,12.045-5.391,12.046-12.045C428.924,691.371,423.533,685.981,416.879,685.979z"/>
	</g>
	<g>
		<path fill="#FFFFFF" d="M549.991,704.934c0.087,0,0.165,0.063,0.182,0.151c0.018,0.1-0.047,0.194-0.146,0.215
			c-0.021,0.005-2.127,0.438-2.562,1.395c-0.425,0.933-0.726,3.751,2.918,5.571c0.983,0.493,2.134,0.733,3.352,0.987
			c3.065,0.642,6.521,1.36,7.68,6.643c1.161-5.281,4.617-6.001,7.688-6.643c1.217-0.254,2.368-0.494,3.352-0.987
			c1.519-0.759,4.059-2.9,2.797-5.571c-0.429-0.911-2.047-1.304-2.369-1.37c-0.033-0.006-0.07-0.017-0.109-0.023
			c-0.1-0.021-0.161-0.117-0.143-0.217c0.02-0.097,0.112-0.164,0.212-0.146c0,0,0.043,0.008,0.119,0.022
			c0.212,0.041,0.429,0.062,0.638,0.062c0.843,0,1.604-0.335,2.205-0.971c0.902-0.953,1.366-2.479,1.272-4.188
			c-0.096-1.759-0.612-2.65-1.535-2.65c-1.178,0-2.62,1.37-2.634,1.385c-0.074,0.07-0.189,0.068-0.26-0.004
			c-0.071-0.071-0.07-0.188,0.003-0.259c3.862-3.813,3.111-8.358,1.852-9.946c-0.935-1.176-2.488-1.423-3.625-1.423
			c-0.789,0-1.635,0.114-2.514,0.336c-1.457,0.372-2.677,0.555-3.73,0.555c-1.41,0-2.49-0.338-3.218-1.002
			c-0.727,0.664-1.808,1.002-3.215,1.002c-1.052,0-2.272-0.183-3.729-0.555c-0.912-0.23-1.782-0.351-2.589-0.351
			c-1.139,0-2.678,0.25-3.541,1.433c-0.544,0.75-0.72,1.578-0.521,2.467c0.271,1.203,1.378,3.066,5.122,5.114l0.238,0.13
			c0.089,0.047,0.123,0.155,0.078,0.244c-0.045,0.091-0.152,0.128-0.242,0.085c-0.027-0.014-0.076-0.039-0.146-0.078l-0.104-0.057
			c-0.002-0.001-0.002-0.001-0.002-0.001c-1.297-0.704-2.457-1.062-3.453-1.062c-1.708,0-2.794,1.092-3.227,3.246
			c-0.271,1.354-0.257,4.056,0.942,5.52c0.687,0.839,1.679,1.156,2.936,0.943C549.97,704.936,549.98,704.934,549.991,704.934z"/>
		<g>
			<path fill="#987D4A" d="M549.474,709.487h0.19v-1.153h-0.19v-0.255h0.696v0.255h-0.22v1.156h0.457v-0.234h0.275v0.488h-1.209
				V709.487z"/>
			<path fill="#987D4A" d="M550.661,708.736c0.16-0.127,0.238-0.247,0.243-0.319c-0.088-0.024-0.146-0.092-0.146-0.187
				c0-0.097,0.086-0.183,0.196-0.183c0.107,0,0.204,0.078,0.204,0.234c0,0.146-0.104,0.37-0.419,0.553L550.661,708.736z"/>
			<path fill="#987D4A" d="M551.337,709.487h0.189v-1.153h-0.189v-0.255h1.242v0.476h-0.273v-0.223h-0.493v0.443h0.504v0.242h-0.504
				v0.473h0.496v-0.223h0.273v0.477h-1.245V709.487z M551.868,707.85l0.278-0.382c0.037-0.047,0.089-0.077,0.14-0.077
				c0.067,0,0.124,0.056,0.124,0.129c0,0.051-0.026,0.1-0.079,0.14l-0.377,0.272L551.868,707.85z"/>
			<path fill="#987D4A" d="M552.769,708.912c0-0.503,0.391-0.863,0.876-0.863c0.388,0,0.646,0.202,0.646,0.402
				c0,0.12-0.078,0.205-0.183,0.205c-0.114,0-0.192-0.07-0.192-0.181c0-0.032,0.007-0.066,0.018-0.086
				c-0.048-0.039-0.145-0.075-0.297-0.075c-0.321,0-0.57,0.246-0.57,0.594c0,0.334,0.232,0.599,0.585,0.599
				c0.193,0,0.354-0.085,0.478-0.22l0.19,0.198c-0.163,0.18-0.402,0.289-0.667,0.289
				C553.137,709.774,552.769,709.431,552.769,708.912z"/>
			<path fill="#987D4A" d="M554.495,708.912c0-0.489,0.354-0.863,0.86-0.863c0.504,0,0.848,0.377,0.848,0.863
				s-0.354,0.862-0.86,0.862C554.839,709.774,554.495,709.395,554.495,708.912z M555.907,708.912c0-0.347-0.235-0.598-0.557-0.598
				c-0.323,0-0.559,0.246-0.559,0.598c0,0.347,0.235,0.595,0.559,0.595C555.672,709.507,555.907,709.261,555.907,708.912z"/>
			<path fill="#987D4A" d="M556.414,709.487h0.189v-1.153h-0.189v-0.255h0.697v0.255h-0.221v1.156h0.457v-0.234h0.275v0.488h-1.209
				V709.487L556.414,709.487z"/>
			<path fill="#987D4A" d="M557.801,709.487h0.19v-1.153h-0.19v-0.255h1.242v0.476h-0.271v-0.223h-0.494v0.443h0.504v0.242h-0.504
				v0.473h0.496v-0.223h0.272v0.477h-1.245V709.487z"/>
			<path fill="#987D4A" d="M559.818,709.487h0.189v-1.153h-0.189v-0.255h0.63c0.602,0,0.959,0.312,0.959,0.815
				c0,0.51-0.337,0.85-0.989,0.85h-0.6V709.487z M560.458,709.487c0.43,0,0.653-0.231,0.653-0.589c0-0.365-0.26-0.564-0.673-0.564
				h-0.146v1.153H560.458z"/>
			<path fill="#987D4A" d="M561.618,709.487h0.19v-1.153h-0.19v-0.255h1.243v0.476h-0.273v-0.223h-0.493v0.443h0.503v0.242h-0.503
				v0.473h0.495v-0.223h0.273v0.477h-1.245V709.487z"/>
			<path fill="#987D4A" d="M563.636,709.487h0.189v-1.153h-0.189v-0.255h0.694v0.255h-0.218v1.156h0.458v-0.234h0.274v0.488h-1.209
				V709.487z"/>
			<path fill="#987D4A" d="M564.823,708.736c0.159-0.127,0.237-0.247,0.242-0.319c-0.09-0.024-0.146-0.092-0.146-0.187
				c0-0.097,0.085-0.183,0.194-0.183c0.108,0,0.206,0.078,0.206,0.234c0,0.146-0.104,0.37-0.42,0.553L564.823,708.736z"/>
			<path fill="#987D4A" d="M565.499,709.487h0.203v-1.153h-0.203v-0.255h0.69v0.255h-0.202v1.153h0.202v0.257h-0.69V709.487z"/>
			<path fill="#987D4A" d="M566.364,709.487h0.198l0.053-1.153h-0.207v-0.255h0.455l0.511,0.926l0.511-0.926h0.452v0.255h-0.207
				l0.053,1.153h0.197v0.257h-0.683v-0.257h0.2l-0.033-0.856l-0.475,0.833h-0.038l-0.477-0.833l-0.033,0.856h0.2v0.257h-0.678
				V709.487L566.364,709.487z"/>
			<path fill="#987D4A" d="M568.473,709.487h0.144l0.415-1.155h-0.183v-0.253h0.94v0.253h-0.182l0.414,1.155h0.145v0.257h-0.641
				v-0.254h0.191l-0.094-0.274h-0.622l-0.094,0.274h0.203v0.254h-0.64v-0.257H568.473z M569.547,708.979l-0.231-0.652l-0.233,0.652
				H569.547z"/>
			<path fill="#987D4A" d="M570.267,708.916c0-0.514,0.39-0.867,0.876-0.867c0.388,0,0.646,0.202,0.646,0.402
				c0,0.12-0.079,0.205-0.183,0.205c-0.113,0-0.192-0.07-0.192-0.181c0-0.032,0.007-0.066,0.018-0.086
				c-0.049-0.039-0.146-0.075-0.296-0.075c-0.323,0-0.571,0.239-0.571,0.6c0,0.367,0.265,0.601,0.546,0.601
				c0.174,0,0.297-0.036,0.401-0.105v-0.285h-0.415v-0.242h0.695v0.863h-0.273v-0.124c-0.115,0.091-0.266,0.154-0.452,0.154
				C570.656,709.774,570.267,709.45,570.267,708.916z"/>
			<path fill="#987D4A" d="M572.082,709.487h0.189v-1.153h-0.189v-0.255h1.242v0.476h-0.274v-0.223h-0.492v0.443h0.502v0.242h-0.502
				v0.473h0.495v-0.223h0.273v0.477h-1.244V709.487z"/>
		</g>
		<g>
			<g>
				<path fill="#987D4A" d="M557.023,691.625v0.893h0.208v0.257h-0.676v-0.257h0.19v-1.152h-0.19v-0.255h0.435l0.818,1.044v-0.789
					h-0.207v-0.255h0.668v0.255h-0.182v1.411l-0.155,0.006L557.023,691.625z"/>
				<path fill="#987D4A" d="M558.376,692.518h0.146l0.414-1.154h-0.183v-0.253h0.94v0.253h-0.183l0.415,1.154h0.145v0.257h-0.641
					v-0.255h0.192l-0.092-0.272h-0.623l-0.093,0.272h0.2v0.255h-0.639V692.518z M559.451,692.009l-0.233-0.653l-0.231,0.653H559.451
					z"/>
				<path fill="#987D4A" d="M560.667,691.625v0.893h0.207v0.257h-0.675v-0.257h0.189v-1.152h-0.189v-0.255h0.432l0.82,1.044v-0.789
					h-0.208v-0.255h0.667v0.255h-0.183v1.411l-0.154,0.006L560.667,691.625z"/>
				<path fill="#987D4A" d="M562.416,692.518h0.207v-1.16h-0.308v0.263h-0.271v-0.51h1.444v0.51h-0.271v-0.263h-0.309v1.16h0.208
					v0.257h-0.7V692.518L562.416,692.518z"/>
				<path fill="#987D4A" d="M563.641,692.518h0.189v-1.152h-0.189v-0.255h1.242v0.475h-0.273v-0.222h-0.492v0.443h0.503v0.243
					h-0.503v0.47h0.495v-0.222h0.272v0.476h-1.244V692.518z"/>
				<path fill="#987D4A" d="M565.07,692.418c0-0.12,0.071-0.198,0.175-0.198c0.111,0,0.182,0.082,0.182,0.163
					c0,0.043-0.008,0.071-0.022,0.103c0.062,0.043,0.154,0.069,0.264,0.069c0.183,0,0.298-0.078,0.298-0.224
					c0-0.138-0.139-0.202-0.306-0.262c-0.309-0.112-0.525-0.21-0.525-0.52c0-0.266,0.213-0.473,0.551-0.473
					c0.312,0,0.552,0.16,0.552,0.357c0,0.12-0.073,0.188-0.169,0.188c-0.117,0-0.183-0.086-0.183-0.17
					c0-0.04,0.007-0.06,0.019-0.078c-0.045-0.028-0.116-0.051-0.222-0.051c-0.164,0-0.26,0.084-0.26,0.206
					c0,0.135,0.139,0.195,0.306,0.257c0.3,0.104,0.524,0.211,0.524,0.519c0,0.315-0.246,0.495-0.586,0.495
					C565.336,692.803,565.07,692.618,565.07,692.418z"/>
			</g>
		</g>
		<path fill="#987D4A" d="M561.414,721.795L561.414,721.795c-0.44,0-0.806-0.314-0.871-0.75c-0.819-5.453-3.834-6.084-7.027-6.75
			c-1.229-0.257-2.502-0.521-3.608-1.076c-3.932-1.968-4.194-5.242-3.412-6.965c0.127-0.282,0.329-0.546,0.599-0.785
			c-0.333-0.215-0.633-0.481-0.894-0.8c-1.442-1.761-1.485-4.794-1.162-6.404c0.595-2.97,2.226-3.87,3.633-4.059
			c-1.02-1.019-1.656-2.067-1.893-3.123c-0.266-1.181-0.023-2.331,0.7-3.325c0.892-1.223,2.414-1.867,4.4-1.867
			c0.896,0,1.854,0.128,2.853,0.383c1.37,0.35,2.503,0.52,3.467,0.52c1.196,0,2.064-0.271,2.583-0.807
			c0.165-0.17,0.395-0.268,0.632-0.268c0.238,0,0.469,0.098,0.634,0.268c0.517,0.536,1.387,0.807,2.585,0.807
			c0.964,0,2.099-0.17,3.468-0.52c0.965-0.245,1.899-0.37,2.777-0.37c1.967,0,3.508,0.632,4.457,1.827
			c1.367,1.719,1.854,5.128,0.216,8.42c1.092,0.004,2.424,0.644,2.589,3.656c0.109,1.998-0.459,3.812-1.562,4.979
			c-0.272,0.286-0.573,0.53-0.895,0.724c0.229,0.227,0.406,0.469,0.53,0.729c0.704,1.495,0.926,4.876-3.285,6.979
			c-1.106,0.556-2.379,0.819-3.61,1.076c-3.195,0.666-6.212,1.297-7.034,6.75C562.22,721.474,561.845,721.795,561.414,721.795z
			 M551.88,686.258c-1.864,0-3.284,0.594-4.103,1.719c-0.66,0.903-0.881,1.952-0.641,3.025c0.242,1.08,0.94,2.162,2.077,3.216
			c0.055,0.05,0.074,0.128,0.048,0.198c-0.024,0.07-0.091,0.117-0.165,0.121c-1.353,0.061-3.093,0.771-3.698,3.8
			c-0.311,1.54-0.276,4.438,1.085,6.098c0.291,0.354,0.631,0.64,1.016,0.848c0.056,0.03,0.092,0.087,0.097,0.147
			c0.005,0.062-0.022,0.123-0.072,0.162c-0.329,0.247-0.562,0.521-0.693,0.814c-0.724,1.592-0.457,4.633,3.24,6.481
			c1.063,0.533,2.312,0.793,3.518,1.045c3.323,0.693,6.461,1.352,7.317,7.058c0.039,0.251,0.25,0.435,0.507,0.436
			c0.251,0,0.468-0.188,0.505-0.436c0.859-5.706,3.999-6.363,7.322-7.058c1.208-0.252,2.457-0.512,3.521-1.045
			c3.956-1.978,3.768-5.111,3.116-6.494c-0.133-0.28-0.345-0.543-0.628-0.775c-0.048-0.04-0.073-0.102-0.067-0.161
			c0.007-0.062,0.045-0.116,0.101-0.145c0.372-0.193,0.716-0.457,1.023-0.781c1.033-1.092,1.565-2.808,1.461-4.705
			c-0.118-2.164-0.89-3.309-2.229-3.309c-0.091,0-0.188,0.007-0.282,0.02c-0.066,0.01-0.136-0.023-0.175-0.079
			c-0.038-0.058-0.042-0.132-0.01-0.19c1.741-3.241,1.303-6.634-0.028-8.31c-0.876-1.104-2.319-1.688-4.169-1.688
			c-0.847,0-1.751,0.122-2.688,0.359c-1.397,0.355-2.562,0.53-3.558,0.53c-1.301,0-2.26-0.31-2.851-0.918
			c-0.191-0.198-0.544-0.198-0.735,0c-0.589,0.608-1.546,0.918-2.847,0.918c-0.994,0-2.158-0.175-3.56-0.53
			C553.672,686.385,552.744,686.258,551.88,686.258z"/>
		<path fill="#987D4A" d="M561.414,721.098L561.414,721.098c-0.091,0-0.168-0.064-0.182-0.155c-0.892-5.933-4.289-6.642-7.574-7.328
			c-1.241-0.258-2.414-0.504-3.438-1.018c-1.652-0.827-2.751-1.976-3.177-3.322c-0.35-1.105-0.185-2.139,0.087-2.734
			c0.253-0.557,0.924-0.949,1.55-1.207c-0.781-0.116-1.433-0.486-1.939-1.104c-1.289-1.574-1.314-4.347-1.019-5.825
			c0.324-1.615,1.208-3.542,3.586-3.542c0.468,0,0.967,0.071,1.493,0.218c-1.885-1.335-3.029-2.746-3.343-4.146
			c-0.219-0.979-0.017-1.936,0.584-2.763c0.756-1.036,2.082-1.582,3.838-1.582c0.837,0,1.738,0.12,2.68,0.361
			c1.428,0.362,2.617,0.539,3.64,0.539c1.393,0,2.429-0.342,3.082-1.019c0.069-0.068,0.195-0.068,0.265,0
			c0.654,0.677,1.692,1.019,3.086,1.019c1.023,0,2.213-0.177,3.639-0.539c0.91-0.231,1.787-0.35,2.606-0.35
			c1.746,0,3.1,0.541,3.912,1.562c1.423,1.789,1.771,5.732-0.773,9.164c0.473-0.265,1.013-0.48,1.526-0.48
			c1.153,0,1.794,1.011,1.903,2.998c0.098,1.812-0.403,3.438-1.373,4.461c-0.538,0.568-1.191,0.923-1.916,1.04
			c0.57,0.251,1.165,0.634,1.428,1.192c0.604,1.279,0.764,4.194-2.965,6.06c-1.027,0.514-2.201,0.76-3.441,1.018
			c-3.288,0.688-6.688,1.396-7.581,7.328C561.582,721.032,561.504,721.098,561.414,721.098z M549.991,704.934
			c0.087,0,0.165,0.063,0.182,0.151c0.018,0.1-0.047,0.194-0.146,0.215c-0.021,0.005-2.127,0.438-2.562,1.395
			c-0.425,0.933-0.726,3.751,2.918,5.571c0.983,0.493,2.134,0.733,3.352,0.987c3.065,0.642,6.521,1.36,7.68,6.643
			c1.161-5.281,4.617-6.001,7.688-6.643c1.217-0.254,2.368-0.494,3.352-0.987c1.519-0.759,4.059-2.9,2.797-5.571
			c-0.429-0.911-2.047-1.304-2.369-1.37c-0.033-0.006-0.07-0.017-0.109-0.023c-0.1-0.021-0.161-0.117-0.143-0.217
			c0.02-0.097,0.112-0.164,0.212-0.146c0,0,0.043,0.008,0.119,0.022c0.212,0.041,0.429,0.062,0.638,0.062
			c0.843,0,1.604-0.335,2.205-0.971c0.902-0.953,1.366-2.479,1.272-4.188c-0.096-1.759-0.612-2.65-1.535-2.65
			c-1.178,0-2.62,1.37-2.634,1.385c-0.074,0.07-0.189,0.068-0.26-0.004c-0.071-0.071-0.07-0.188,0.003-0.259
			c3.862-3.813,3.111-8.358,1.852-9.946c-0.935-1.176-2.488-1.423-3.625-1.423c-0.789,0-1.635,0.114-2.514,0.336
			c-1.457,0.372-2.677,0.555-3.73,0.555c-1.41,0-2.49-0.338-3.218-1.002c-0.727,0.664-1.808,1.002-3.215,1.002
			c-1.052,0-2.272-0.183-3.729-0.555c-0.912-0.23-1.782-0.351-2.589-0.351c-1.139,0-2.678,0.25-3.541,1.433
			c-0.544,0.75-0.72,1.578-0.521,2.467c0.271,1.203,1.378,3.066,5.122,5.114l0.238,0.13c0.089,0.047,0.123,0.155,0.078,0.244
			c-0.045,0.091-0.152,0.128-0.242,0.085c-0.027-0.014-0.076-0.039-0.146-0.078l-0.104-0.057c-0.002-0.001-0.002-0.001-0.002-0.001
			c-1.297-0.704-2.457-1.062-3.453-1.062c-1.708,0-2.794,1.092-3.227,3.246c-0.271,1.354-0.257,4.056,0.942,5.52
			c0.687,0.839,1.679,1.156,2.936,0.943C549.97,704.936,549.98,704.934,549.991,704.934z"/>
		<path fill="#987D4A" d="M554.503,700.506c0.462-1.48-0.479-3.299-1.409-4.021c-0.93,0.723-1.874,2.54-1.412,4.021H554.503z
			 M553.094,696.98c0.691,0.688,1.327,2.015,1.12,3.15h-2.241C551.767,698.995,552.403,697.668,553.094,696.98z"/>
		<path fill="#987D4A" d="M555.293,700.43c0.381-1.812-0.766-3.856-1.877-4.63c-0.185-0.128-0.457-0.128-0.642,0
			c-1.112,0.772-2.262,2.817-1.881,4.628c-1.415,0.953-1.941,2.691-1.444,4.844c0.059,0.26,0.289,0.434,0.542,0.434
			c0.041,0,0.083-0.005,0.125-0.016c0.299-0.068,0.486-0.365,0.417-0.666c-0.238-1.04-0.395-2.889,1.164-3.778h2.791
			c1.552,0.891,1.399,2.74,1.162,3.778c-0.069,0.302,0.119,0.6,0.419,0.668c0.301,0.068,0.599-0.118,0.667-0.42
			C557.229,703.119,556.702,701.383,555.293,700.43z M556.373,705.188l-0.359-0.082c0.267-1.159,0.43-3.245-1.423-4.232h-2.994
			c-1.857,0.987-1.692,3.073-1.425,4.232l-0.359,0.084c-0.482-2.101,0.067-3.763,1.511-4.591c-0.526-1.713,0.587-3.748,1.662-4.491
			l0.047-0.033h0.116l0.057,0.033c1.073,0.743,2.186,2.778,1.659,4.493C556.303,701.428,556.852,703.09,556.373,705.188z"/>
		<path fill="#987D4A" d="M565.021,700.461c-0.092-0.199-0.289-0.329-0.509-0.329h-3.104c-0.309,0-0.558,0.249-0.558,0.559
			c0,0.307,0.25,0.555,0.558,0.555h2.722c0.296,0.931,0.147,1.953-0.405,2.639c-0.516,0.638-1.295,0.883-2.195,0.69
			c-0.077-0.018-0.155-0.018-0.231,0c-0.901,0.191-1.682-0.055-2.196-0.69c-0.618-0.767-0.73-1.959-0.278-2.967
			c0.063-0.146,0.063-0.311,0-0.455c-0.452-1.008-0.339-2.2,0.278-2.965c0.51-0.631,1.278-0.879,2.168-0.698
			c0.081,0.021,0.169,0.024,0.253,0.008c1.07-0.213,1.872,0.077,2.202,0.794c0.016,0.031,0.031,0.078,0.035,0.096
			c0.075,0.298,0.377,0.477,0.678,0.401c0.298-0.075,0.479-0.379,0.402-0.677c-0.006-0.024-0.042-0.154-0.103-0.287
			c-0.535-1.158-1.8-1.705-3.317-1.44c-1.271-0.236-2.426,0.164-3.185,1.104c-0.842,1.04-1.038,2.547-0.524,3.895
			c-0.513,1.347-0.317,2.852,0.524,3.893c0.757,0.937,1.911,1.336,3.179,1.104c0.236,0.045,0.469,0.063,0.694,0.063
			c0.989,0,1.867-0.405,2.482-1.168C565.48,703.481,565.65,701.864,565.021,700.461z M564.301,704.349
			c-0.542,0.673-1.32,1.029-2.199,1.029c-0.224,0-0.453-0.022-0.688-0.07c-1.156,0.232-2.207-0.115-2.889-0.959
			c-0.787-0.976-0.945-2.4-0.412-3.658c-0.534-1.26-0.375-2.688,0.412-3.66c0.682-0.845,1.733-1.193,2.893-0.957
			c1.394-0.268,2.506,0.188,2.981,1.216c0.049,0.107,0.074,0.214,0.078,0.226l-0.356,0.091c0-0.002-0.021-0.084-0.057-0.161
			c-0.403-0.87-1.38-1.247-2.614-1.002l-0.221,0.044v-0.074c-0.984-0.166-1.84,0.135-2.418,0.851
			c-0.716,0.887-0.846,2.202-0.329,3.354l0.034,0.076l-0.034,0.073c-0.517,1.149-0.387,2.469,0.329,3.354
			c0.608,0.752,1.518,1.044,2.563,0.823l0.039-0.009l0.038,0.009c1.046,0.221,1.956-0.071,2.563-0.823
			c0.692-0.858,0.837-2.119,0.376-3.243h-2.982v-0.367h3.224l0.05,0.107C565.252,701.89,565.104,703.355,564.301,704.349z"/>
		<path fill="#987D4A" d="M571.936,699.942c0.487-0.397,0.715-0.902,0.658-1.456l-0.011-0.097l0.019-0.014
			c0.029-0.525-0.199-1.002-0.664-1.385c-1.024-0.843-2.982-1.086-4.701-0.603v4.152
			C568.954,701.029,570.911,700.783,571.936,699.942z M567.608,696.68c1.538-0.358,3.208-0.125,4.094,0.601
			c0.38,0.312,0.556,0.682,0.524,1.098c-0.008,0.048-0.009,0.098-0.005,0.147c0.043,0.431-0.131,0.811-0.521,1.13
			c-0.885,0.727-2.554,0.96-4.092,0.6V696.68L567.608,696.68z"/>
		<path fill="#987D4A" d="M570.438,701.392c0.768-0.159,1.455-0.454,1.968-0.876c0.659-0.539,0.987-1.262,0.931-2.036
			c0.064-0.784-0.264-1.514-0.929-2.06c-1.25-1.025-3.521-1.312-5.521-0.698c-0.232,0.072-0.394,0.288-0.394,0.533v4.378
			c-0.002,0.021,0,0.041,0,0.062c0,0.002,0,0.002,0,0.004c0.001,0.01,0,0.02,0,0.029v4.389c0,0.309,0.25,0.558,0.557,0.558
			c0.309,0,0.558-0.249,0.558-0.558v-3.628c0.07,0.024,0.144,0.051,0.219,0.077c1.807,0.638,4.834,1.705,4.445,3.446
			c-0.065,0.303,0.123,0.6,0.424,0.665c0.041,0.009,0.082,0.013,0.122,0.013c0.255,0,0.483-0.177,0.542-0.438
			C573.777,703.383,572.178,702.196,570.438,701.392z M572.997,705.175l-0.358-0.082c0.458-2.062-2.639-3.152-4.688-3.878
			c-0.266-0.094-0.502-0.178-0.715-0.258v4.16h-0.37v-8.998l0.131-0.041c1.858-0.569,4.034-0.305,5.175,0.629
			c0.583,0.479,0.856,1.092,0.79,1.77c0.06,0.673-0.215,1.275-0.792,1.752c-0.768,0.63-2.007,0.954-3.301,0.925
			C570.884,701.896,573.462,703.08,572.997,705.175z"/>
		<g>
			<path fill="#E30613" d="M553.67,696.26c0,0.32-0.262,0.58-0.58,0.58c-0.32,0-0.582-0.26-0.582-0.58
				c0-0.318,0.262-0.578,0.582-0.578C553.409,695.682,553.67,695.94,553.67,696.26z"/>
		</g>
		<g>
			<path fill="#E30613" d="M554.93,700.689c0,0.159-0.131,0.291-0.291,0.291c-0.158,0-0.291-0.132-0.291-0.291
				c0-0.16,0.133-0.291,0.291-0.291C554.799,700.398,554.93,700.529,554.93,700.689z"/>
		</g>
		<g>
			<circle fill="#E30613" cx="551.547" cy="700.689" r="0.29"/>
		</g>
		<g>
			<circle fill="#E30613" cx="556.202" cy="705.117" r="0.58"/>
		</g>
		<g>
			<path fill="#E30613" d="M550.571,705.117c0,0.322-0.263,0.581-0.579,0.581c-0.32,0-0.581-0.259-0.581-0.581
				c0-0.318,0.261-0.576,0.581-0.576C550.309,704.541,550.571,704.799,550.571,705.117z"/>
		</g>
		<g>
			<circle fill="#E30613" cx="561.407" cy="696.26" r="0.58"/>
		</g>
		<g>
			<circle fill="#E30613" cx="558.312" cy="700.689" r="0.579"/>
		</g>
		<g>
			<circle fill="#E30613" cx="561.407" cy="700.689" r="0.29"/>
		</g>
		<g>
			<path fill="#E30613" d="M564.588,697.557c0,0.161-0.131,0.291-0.292,0.291c-0.157,0-0.29-0.13-0.29-0.291
				c0-0.156,0.132-0.289,0.29-0.289C564.458,697.268,564.588,697.399,564.588,697.557z"/>
		</g>
		<g>
			<circle fill="#E30613" cx="564.514" cy="700.689" r="0.58"/>
		</g>
		<g>
			<circle fill="#E30613" cx="572.809" cy="705.117" r="0.58"/>
		</g>
		<g>
			<path fill="#E30613" d="M567.632,705.117c0,0.322-0.261,0.581-0.578,0.581c-0.32,0-0.582-0.259-0.582-0.581
				c0-0.318,0.262-0.576,0.582-0.576C567.371,704.541,567.632,704.799,567.632,705.117z"/>
		</g>
		<g>
			<circle fill="#E30613" cx="567.051" cy="700.689" r="0.289"/>
		</g>
		<g>
			<circle fill="#E30613" cx="567.051" cy="696.261" r="0.579"/>
		</g>
		<g>
			<circle fill="#E30613" cx="572.776" cy="698.467" r="0.581"/>
		</g>
		<g>
			<circle fill="#E30613" cx="561.407" cy="705.121" r="0.58"/>
		</g>
	</g>
	<g>
		<g>
			<path fill="#1D1D1B" d="M740.755,709.952c-0.821,0.071-2.864,0.249-2.864,0.249l0.013,0.118c0.278-0.017,0.624,0.118,0.979,0.422
				c2.056,1.751,6.625,9.799,8.888,9.601c0.347-0.029,0.347-0.029,1.457-0.128C748.194,718.209,742.783,709.773,740.755,709.952z"/>
			<path fill="#1D1D1B" d="M748.636,702.461c-1.328,0.117-4.631,0.404-4.631,0.404l0.019,0.192c0.45-0.026,1.009,0.189,1.583,0.68
				c3.326,2.836,10.721,15.854,14.38,15.534c0.562-0.05,0.562-0.05,2.358-0.205C760.676,715.822,751.918,702.174,748.636,702.461z"
				/>
			<path fill="#1D1D1B" d="M737.948,710.856l0.897,10.265l2.467-0.214l-0.629-7.187c-0.846-1.136-1.611-2.113-2.15-2.572
				C738.277,710.93,738.066,710.855,737.948,710.856z"/>
			<path fill="#1D1D1B" d="M761.74,690.31c-2.15,0.189-7.493,0.656-7.493,0.656l0.026,0.312c0.729-0.043,1.632,0.307,2.561,1.099
				c5.384,4.588,17.349,25.654,23.271,25.137c0.907-0.08,0.907-0.08,3.815-0.335C781.219,711.93,767.051,689.846,761.74,690.31z"/>
			<path fill="#1D1D1B" d="M783.965,714.097l-2.234-25.534l-6.453,0.563l1.204,13.765c3.001,4.205,5.661,8.388,7.329,11.222
				L783.965,714.097z"/>
			<path fill="#1D1D1B" d="M762.378,717.238l-1.582-18.072c-1.91-2.531-3.622-4.657-4.872-5.723
				c-0.665-0.568-1.216-0.768-1.527-0.767l1.291,14.769c2.732,3.501,5.316,7.664,6.597,9.802L762.378,717.238z"/>
			<path fill="#1D1D1B" d="M749.246,719.084l-0.944-10.821c-1.28-1.708-2.434-3.163-3.262-3.866
				c-0.411-0.35-0.751-0.473-0.942-0.473l0.77,8.801c1.777,2.224,3.495,4.981,4.322,6.365L749.246,719.084z"/>
			<path fill="#1D1D1B" d="M793.861,692.509l-1.768-3.852l0.827-0.074l0.772,1.765c0.224,0.506,0.406,0.939,0.564,1.41l0.012-0.002
				c0.082-0.473,0.205-0.964,0.342-1.469l0.506-1.896l0.804-0.068l-1.18,4.109L793.861,692.509z"/>
			
				<rect x="796.358" y="689.686" transform="matrix(0.0876 0.9962 -0.9962 0.0876 1415.8685 -165.6426)" fill="#1D1D1B" width="3.993" height="0.763"/>
			<polygon fill="#1D1D1B" points="801.214,687.86 801.973,687.793 802.267,691.134 804.092,690.975 804.146,691.608 
				801.562,691.836 			"/>
			<polygon fill="#1D1D1B" points="805.572,687.477 806.331,687.411 806.62,690.754 808.448,690.594 808.503,691.229 
				805.918,691.455 			"/>
			<polygon fill="#1D1D1B" points="812.562,689.111 810.88,689.258 810.979,690.392 812.854,690.229 812.909,690.842 
				810.273,691.073 809.926,687.098 812.468,686.873 812.521,687.49 810.737,687.645 810.827,688.645 812.508,688.497 			"/>
			<path fill="#1D1D1B" d="M817.477,689.867c0.121,0.01,0.307-0.004,0.491-0.021c1.114-0.089,1.682-0.721,1.598-1.658
				c-0.072-0.896-0.701-1.317-1.736-1.229c-0.285,0.024-0.477,0.066-0.597,0.104L817.477,689.867z M816.425,686.582
				c0.366-0.085,0.818-0.159,1.3-0.203c0.843-0.073,1.426,0.033,1.863,0.33c0.436,0.287,0.724,0.738,0.778,1.372
				c0.06,0.665-0.148,1.212-0.517,1.604c-0.41,0.429-1.103,0.688-1.964,0.766c-0.489,0.041-0.846,0.051-1.12,0.041L816.425,686.582z
				"/>
			<polygon fill="#1D1D1B" points="824.706,688.049 823.024,688.196 823.123,689.33 824.998,689.166 825.053,689.78 
				822.419,690.011 822.07,686.034 824.611,685.812 824.664,686.429 822.883,686.583 822.97,687.583 824.653,687.436 			"/>
			<path fill="#1D1D1B" d="M793.532,705.089c-2.305,0.181-3.815,0.837-3.694,2.207c0.079,0.91,0.754,1.344,1.738,1.258
				c1.059-0.093,1.851-0.89,2.038-1.71c0.042-0.216,0.03-0.465,0.014-0.685L793.532,705.089z M797.607,707.459
				c0.105,1.229,0.276,2.367,0.465,2.995l-3.582,0.312l-0.344-1.192l-0.092,0.008c-0.755,1.055-2.053,1.705-3.617,1.843
				c-2.7,0.237-4.354-1.499-4.519-3.378c-0.276-3.171,2.439-4.994,7.28-5.401l-0.01-0.118c-0.052-0.544-0.409-1.442-2.545-1.331
				c-2.137,0.112-3.692,0.995-3.692,0.995l-0.886-2.271c0,0,1.895-1.185,5.014-1.455c4.186-0.368,5.902,1.835,6.163,4.833
				L797.607,707.459z"/>
			<path fill="#1D1D1B" d="M819.688,705.916c-1.171,0.02-1.644-0.823-1.765-2.213l-0.374-4.274l2.848-0.25l-0.259-2.958
				l-2.849,0.248l-0.292-3.352l-3.771,1.361l0.877,10.022c0.248,2.85,1.571,4.609,4.503,4.457c1.596-0.084,3.109-0.812,3.109-0.812
				l-0.733-2.471C820.982,705.677,820.295,705.904,819.688,705.916z"/>
			<path fill="#1D1D1B" d="M804.07,709.93l-3.978,0.349l-0.72-8.234c-0.138-1.582-0.299-2.9-0.447-3.967l3.449-0.301l0.334,1.768
				l0.089-0.008c0.385-0.762,1.568-2.236,3.862-2.438c2.554-0.222,4.884,1.186,5.223,5.069l0.614,7.024l-3.976,0.349l-0.565-6.475
				c-0.174-1.988-1.128-2.784-2.479-2.666c-1.35,0.118-2.148,1.067-1.975,3.055L804.07,709.93z"/>
			<path fill="#1D1D1B" d="M835.971,703.682c0.541,0.235,2.141,0.743,3.706,0.634c1.252-0.087,1.74-0.501,1.639-1.087
				c-0.261-1.467-5.863-0.817-6.275-4.741c-0.246-2.322,1.65-4.017,4.876-4.3c1.564-0.136,3.048,0.162,3.839,0.43l-0.385,2.575
				c0,0-1.492-0.55-3.072-0.41c-0.957,0.084-1.547,0.469-1.434,1.097c0.239,1.366,5.881,0.776,6.297,4.733
				c0.23,2.198-1.354,4.143-5.175,4.477c-1.782,0.156-3.329-0.1-4.441-0.531L835.971,703.682z"/>
			<path fill="#1D1D1B" d="M830.179,700.017c-0.055-0.695-0.606-2.331-2.588-2.158c-1.784,0.155-2.38,1.65-2.43,2.599
				L830.179,700.017z M825.442,703.156c0.465,2.542,4.837,2.23,7.527,1.107l0.725,2.438c0,0-2.138,1.125-4.612,1.342
				c-4.583,0.398-7.123-2.256-7.423-5.68c-0.244-2.787,1.05-6.84,5.915-7.095c4.413-0.232,6.094,2.902,6.338,5.698
				c0.052,0.59,0.023,1.186-0.022,1.45L825.442,703.156z"/>
		</g>
	</g>
	<g>
		<g>
			<g>
				<path fill="#1D1D1B" d="M469.34,719.351c0,0.598-0.256,1.081-0.768,1.45c-0.461,0.334-1.002,0.5-1.623,0.5
					c-0.77,0-1.399-0.156-1.893-0.471v-1.02c0.756,0.36,1.393,0.538,1.911,0.538c0.263,0,0.483-0.058,0.662-0.172
					c0.211-0.128,0.318-0.315,0.318-0.564c0-0.294-0.256-0.561-0.77-0.795c-0.839-0.384-1.315-0.614-1.431-0.69
					c-0.512-0.357-0.768-0.841-0.768-1.447c0-0.544,0.233-0.99,0.7-1.342c0.43-0.326,0.922-0.489,1.479-0.489
					c0.583,0,1.144,0.159,1.68,0.48v0.739c-0.536-0.147-1.008-0.225-1.41-0.231c-0.275,0-0.506,0.048-0.69,0.146
					c-0.237,0.129-0.356,0.32-0.356,0.576c0,0.198,0.257,0.415,0.77,0.651c0.741,0.354,1.216,0.606,1.421,0.759
					C469.083,718.354,469.34,718.812,469.34,719.351z"/>
				<path fill="#1D1D1B" d="M474.642,720.984c-0.646,0.19-1.286,0.289-1.92,0.289c-0.773,0-1.406-0.251-1.9-0.751
					c-0.493-0.499-0.739-1.135-0.739-1.909c0-0.743,0.229-1.344,0.691-1.797c0.461-0.453,1.062-0.682,1.805-0.682
					c0.678,0,1.29,0.146,1.834,0.441v0.797c-0.717-0.16-1.255-0.229-1.614-0.202c-0.806,0.06-1.21,0.549-1.21,1.474
					c0,0.482,0.12,0.873,0.356,1.176c0.256,0.334,0.616,0.502,1.086,0.502c0.639,0,1.177-0.064,1.611-0.193V720.984L474.642,720.984
					z"/>
				<path fill="#1D1D1B" d="M477.121,714.983c0,0.217-0.074,0.399-0.224,0.553c-0.151,0.148-0.335,0.226-0.554,0.226
					c-0.218,0-0.4-0.076-0.553-0.226c-0.15-0.152-0.225-0.336-0.225-0.553c0-0.219,0.074-0.401,0.225-0.554
					c0.151-0.149,0.335-0.226,0.553-0.226c0.217,0,0.401,0.075,0.554,0.226C477.046,714.582,477.121,714.766,477.121,714.983z
					 M477.093,721.146h-1.526v-4.828h1.526V721.146z"/>
				<path fill="#1D1D1B" d="M482.806,718.746c0,0.077-0.006,0.187-0.018,0.328H479.6c0.045,0.832,0.555,1.248,1.526,1.248
					c0.55,0,1.067-0.064,1.546-0.193v0.855c-0.602,0.197-1.242,0.295-1.92,0.289c-0.75-0.016-1.376-0.267-1.882-0.756
					c-0.506-0.488-0.759-1.104-0.759-1.849c0-0.773,0.222-1.392,0.663-1.848c0.44-0.457,1.047-0.688,1.814-0.688
					c0.742,0,1.31,0.255,1.699,0.77C482.634,717.364,482.806,717.979,482.806,718.746z M481.578,718.201
					c-0.014-0.31-0.104-0.562-0.27-0.768c-0.167-0.198-0.399-0.301-0.701-0.301c-0.275,0-0.506,0.106-0.691,0.316
					c-0.185,0.212-0.292,0.462-0.317,0.751L481.578,718.201L481.578,718.201z"/>
				<path fill="#1D1D1B" d="M488.634,721.146h-1.507v-2.938c0-0.614-0.208-0.923-0.625-0.923c-0.409,0-0.752,0.113-1.027,0.336
					v3.523h-1.507v-4.827h1.507v0.526c0.218-0.197,0.479-0.365,0.783-0.504c0.304-0.137,0.593-0.206,0.869-0.206
					c0.499,0,0.88,0.163,1.142,0.489c0.244,0.3,0.365,0.707,0.365,1.221V721.146L488.634,721.146z"/>
				<path fill="#1D1D1B" d="M494.206,720.984c-0.646,0.19-1.286,0.289-1.92,0.289c-0.774,0-1.408-0.251-1.901-0.751
					c-0.492-0.499-0.739-1.135-0.739-1.909c0-0.743,0.231-1.344,0.691-1.797c0.461-0.453,1.062-0.682,1.805-0.682
					c0.68,0,1.291,0.146,1.835,0.441v0.797c-0.718-0.16-1.255-0.229-1.612-0.202c-0.808,0.06-1.21,0.549-1.21,1.474
					c0,0.482,0.119,0.873,0.354,1.176c0.256,0.334,0.618,0.502,1.085,0.502c0.641,0,1.178-0.064,1.612-0.193V720.984
					L494.206,720.984z"/>
				<path fill="#1D1D1B" d="M499.445,718.746c0,0.077-0.006,0.187-0.02,0.328h-3.188c0.044,0.832,0.554,1.248,1.526,1.248
					c0.55,0,1.066-0.064,1.546-0.193v0.855c-0.603,0.197-1.241,0.295-1.921,0.289c-0.749-0.016-1.376-0.267-1.882-0.756
					c-0.507-0.488-0.759-1.104-0.759-1.849c0-0.773,0.221-1.392,0.663-1.848c0.441-0.457,1.046-0.688,1.813-0.688
					c0.743,0,1.311,0.255,1.7,0.77C499.272,717.364,499.445,717.979,499.445,718.746z M498.217,718.201
					c-0.013-0.31-0.103-0.562-0.269-0.768c-0.167-0.198-0.401-0.301-0.702-0.301c-0.275,0-0.505,0.106-0.691,0.316
					c-0.186,0.212-0.292,0.462-0.316,0.751L498.217,718.201L498.217,718.201z"/>
				<path fill="#1D1D1B" d="M504.341,719.659c0,0.513-0.224,0.918-0.673,1.219c-0.391,0.263-0.854,0.396-1.392,0.396
					c-0.813,0-1.467-0.152-1.959-0.453v-0.979c0.652,0.338,1.271,0.508,1.854,0.508c0.492,0,0.739-0.17,0.739-0.508
					c0-0.191-0.218-0.368-0.653-0.526c-0.667-0.25-1.065-0.419-1.201-0.501c-0.435-0.262-0.652-0.616-0.652-1.065
					c0-0.524,0.211-0.934,0.634-1.229c0.371-0.256,0.832-0.384,1.383-0.384c0.583,0,1.098,0.134,1.546,0.403v0.768
					c-0.44-0.129-0.86-0.188-1.258-0.183c-0.59,0.007-0.883,0.156-0.883,0.451c0,0.212,0.217,0.39,0.652,0.538
					c0.678,0.225,1.081,0.374,1.21,0.451C504.123,718.819,504.341,719.186,504.341,719.659z"/>
				<path fill="#1D1D1B" d="M510.344,720.927c-0.543,0.249-1.272,0.374-2.188,0.374c-0.897,0-1.643-0.312-2.237-0.939
					c-0.596-0.628-0.894-1.394-0.894-2.296c0-0.922,0.296-1.688,0.889-2.299c0.591-0.611,1.345-0.918,2.261-0.918
					c0.704,0,1.352,0.163,1.94,0.49v0.95c-0.543-0.242-1.165-0.365-1.863-0.365c-1.133,0-1.699,0.714-1.699,2.142
					c0,0.667,0.146,1.19,0.433,1.574c0.325,0.423,0.813,0.634,1.459,0.634c0.462,0,1.096-0.106,1.901-0.325L510.344,720.927
					L510.344,720.927z"/>
				<path fill="#1D1D1B" d="M516.255,718.67c0,0.832-0.229,1.474-0.686,1.925c-0.458,0.452-1.104,0.68-1.937,0.68
					c-0.831,0-1.477-0.228-1.934-0.68c-0.458-0.451-0.688-1.093-0.688-1.925c0-0.831,0.228-1.461,0.683-1.892
					c0.454-0.43,1.101-0.644,1.938-0.644c0.789,0,1.421,0.229,1.901,0.682C516.016,717.271,516.255,717.89,516.255,718.67z
					 M514.748,718.688c0-0.421-0.08-0.764-0.24-1.025c-0.191-0.326-0.482-0.49-0.875-0.49c-0.395,0-0.688,0.16-0.882,0.48
					c-0.155,0.262-0.231,0.606-0.231,1.035c0,0.449,0.074,0.817,0.222,1.104c0.191,0.373,0.491,0.557,0.893,0.557
					c0.404,0,0.702-0.184,0.896-0.557C514.675,719.506,514.748,719.138,514.748,718.688z"/>
				<path fill="#1D1D1B" d="M524.788,721.146h-1.507v-2.938c0-0.614-0.206-0.923-0.62-0.923c-0.318,0-0.603,0.109-0.851,0.327
					c0,0.053,0,0.128,0,0.231v3.302h-1.507v-2.938c0-0.614-0.206-0.923-0.613-0.923c-0.365,0-0.65,0.113-0.855,0.336v3.524h-1.507
					v-4.828h1.507v0.526c0.187-0.19,0.415-0.357,0.688-0.5c0.271-0.141,0.53-0.21,0.773-0.21c0.654,0,1.1,0.269,1.336,0.807
					c0.642-0.538,1.188-0.807,1.645-0.807c0.5,0,0.882,0.163,1.145,0.489c0.244,0.294,0.366,0.701,0.366,1.221V721.146z"/>
			</g>
		</g>
		<g>
			<circle fill="#FFFFFF" cx="495.312" cy="697.371" r="11.324"/>
			<g>
				
					<radialGradient id="SVGID_13_" cx="509.7534" cy="-2.8252" r="18.7555" gradientTransform="matrix(1 0 0 -1 -21 703.5)" gradientUnits="userSpaceOnUse">
					<stop  offset="0" style="stop-color:#F9B233"/>
					<stop  offset="1" style="stop-color:#F18700"/>
				</radialGradient>
				<path fill="url(#SVGID_13_)" d="M500.613,701.661c-0.863-0.821-2.09-1.849-2.146-3.143c-0.099-2.272,3.428-3.365,5.116-4.167
					c0.763-0.361,1.524-0.724,2.289-1.078c-0.575-1.479-1.451-2.81-2.553-3.911c-1.374-1.372-3.097-2.395-5.024-2.919
					c-0.385,1.543-0.812,3.078-1.231,4.61c-0.426,1.562-0.946,4.117-3.088,3.811c-1.484-0.212-2.776-1.391-3.933-2.284
					c-1.109-0.858-2.187-1.756-3.248-2.672c-1.748,1.992-2.807,4.604-2.807,7.463c0,1.373,0.244,2.689,0.69,3.907
					c0.082-0.03,0.159-0.061,0.231-0.087c1.335-0.521,2.693-0.98,4.067-1.387c1.144-0.339,2.648-0.888,3.796-0.288
					c2.018,1.054,1.2,4.652,1.049,6.514c-0.067,0.849-0.134,1.692-0.211,2.537c0.555,0.085,1.123,0.128,1.698,0.128
					c3.497,0,6.621-1.583,8.698-4.072c-0.054-0.046-0.108-0.089-0.161-0.131C502.731,703.596,501.651,702.648,500.613,701.661z"/>
				
					<radialGradient id="SVGID_14_" cx="509.7524" cy="-2.8301" r="18.7602" gradientTransform="matrix(1 0 0 -1 -21 703.5)" gradientUnits="userSpaceOnUse">
					<stop  offset="0" style="stop-color:#F9B233"/>
					<stop  offset="1" style="stop-color:#F18700"/>
				</radialGradient>
				<path fill="url(#SVGID_14_)" d="M492.778,691.828c0.354,0.47,0.802,1.154,1.485,1.096c0.743-0.065,0.803-1.295,0.809-1.838
					c0.009-0.819,0.018-1.638,0.006-2.459c-0.013-0.859-0.039-1.718-0.092-2.577c-1.878,0.054-3.644,0.564-5.187,1.425
					c0.095,0.146,0.179,0.279,0.249,0.395C490.907,689.229,491.822,690.535,492.778,691.828z"/>
				
					<radialGradient id="SVGID_15_" cx="509.752" cy="-2.8252" r="18.7561" gradientTransform="matrix(1 0 0 -1 -21 703.5)" gradientUnits="userSpaceOnUse">
					<stop  offset="0" style="stop-color:#F9B233"/>
					<stop  offset="1" style="stop-color:#F18700"/>
				</radialGradient>
				<path fill="url(#SVGID_15_)" d="M501.132,699.358c0.468,0.319,1.045,0.573,1.549,0.822c1.029,0.511,2.084,0.963,3.154,1.378
					c0.516-1.296,0.8-2.709,0.8-4.188c0-0.299-0.011-0.596-0.034-0.889c-1.613,0.2-3.306,0.383-4.863,0.842
					C500.613,697.656,499.99,698.576,501.132,699.358z"/>
				
					<radialGradient id="SVGID_16_" cx="509.7534" cy="-2.8262" r="18.754" gradientTransform="matrix(1 0 0 -1 -21 703.5)" gradientUnits="userSpaceOnUse">
					<stop  offset="0" style="stop-color:#F9B233"/>
					<stop  offset="1" style="stop-color:#F18700"/>
				</radialGradient>
				<path fill="url(#SVGID_16_)" d="M490.9,701.324c-0.516,0.204-1.017,0.575-1.479,0.88c-1.032,0.683-2.027,1.418-2.991,2.194
					c0.272,0.344,0.563,0.671,0.873,0.98c0.911,0.909,1.978,1.665,3.154,2.227c0.622-1.507,1.332-3.068,1.715-4.658
					C492.409,701.971,492.098,700.854,490.9,701.324z"/>
			</g>
			<g>
				<g>
					
						<radialGradient id="SVGID_17_" cx="517.4805" cy="9.1963" r="11.9323" gradientTransform="matrix(1 0 0 -1 -21 703.5)" gradientUnits="userSpaceOnUse">
						<stop  offset="0" style="stop-color:#F9B233"/>
						<stop  offset="1" style="stop-color:#F18700"/>
					</radialGradient>
					<path fill="url(#SVGID_17_)" d="M495.311,708.469c-0.484,0-0.974-0.031-1.454-0.095c0.053-0.609,0.103-1.226,0.151-1.823
						l0.041-0.502c0.023-0.28,0.062-0.606,0.104-0.955c0.241-2.031,0.572-4.813-1.274-5.776c-0.376-0.195-0.804-0.292-1.303-0.292
						c-0.799,0-1.621,0.25-2.347,0.47c-0.108,0.031-0.213,0.063-0.314,0.095c-1.38,0.406-2.755,0.874-4.086,1.391
						c-0.004,0.002-0.009,0.004-0.013,0.006c-0.399-1.16-0.603-2.373-0.603-3.613c0-2.619,0.923-5.146,2.605-7.143
						c1.104,0.948,2.114,1.777,3.085,2.53c0.153,0.117,0.311,0.243,0.47,0.369c1.043,0.829,2.223,1.768,3.569,1.961
						c0.128,0.019,0.254,0.027,0.376,0.027c1.897,0,2.485-2.215,2.876-3.682c0.027-0.109,0.058-0.218,0.086-0.32
						c0.076-0.277,0.15-0.556,0.228-0.832c0.319-1.163,0.649-2.365,0.949-3.56c1.767,0.522,3.389,1.487,4.7,2.799
						c1.05,1.051,1.864,2.271,2.423,3.636c-0.544,0.255-1.095,0.515-1.627,0.768l-0.468,0.222c-0.255,0.121-0.559,0.253-0.879,0.391
						c-1.881,0.806-4.456,1.911-4.367,3.99c0.056,1.271,1.121,2.27,1.978,3.071c0.082,0.077,0.162,0.151,0.239,0.227
						c1.036,0.984,2.122,1.938,3.23,2.827C501.574,707.081,498.535,708.469,495.311,708.469z"/>
				</g>
				<g>
					
						<radialGradient id="SVGID_18_" cx="517.1724" cy="9.6113" r="11.1432" gradientTransform="matrix(1 0 0 -1 -21 703.5)" gradientUnits="userSpaceOnUse">
						<stop  offset="0" style="stop-color:#F9B233"/>
						<stop  offset="1" style="stop-color:#F18700"/>
					</radialGradient>
					<path fill="url(#SVGID_18_)" d="M494.181,692.701c-0.472,0-0.841-0.497-1.137-0.896c-0.029-0.04-0.058-0.078-0.085-0.114
						c-1.092-1.479-1.956-2.732-2.718-3.943c0,0-0.095-0.153-0.118-0.19c1.429-0.756,3.029-1.192,4.651-1.271
						c0.042,0.719,0.065,1.488,0.077,2.345c0.013,0.819,0.003,1.65-0.005,2.453c-0.012,1.008-0.225,1.581-0.602,1.613
						C494.222,692.699,494.202,692.701,494.181,692.701L494.181,692.701z"/>
				</g>
				<g>
					
						<radialGradient id="SVGID_19_" cx="518.0728" cy="8.7979" r="11.1646" gradientTransform="matrix(1 0 0 -1 -21 703.5)" gradientUnits="userSpaceOnUse">
						<stop  offset="0" style="stop-color:#F9B233"/>
						<stop  offset="1" style="stop-color:#F18700"/>
					</radialGradient>
					<path fill="url(#SVGID_19_)" d="M505.707,701.266c-1.033-0.403-2.016-0.838-2.924-1.285c-0.103-0.052-0.205-0.102-0.311-0.151
						c-0.419-0.2-0.852-0.41-1.211-0.656c-0.259-0.177-0.556-0.457-0.502-0.787c0.055-0.343,0.463-0.673,1.042-0.845
						c1.386-0.408,2.893-0.593,4.348-0.773c0.082-0.011,0.162-0.02,0.243-0.028c0.012,0.211,0.019,0.424,0.019,0.634
						C506.41,698.713,506.173,700.021,505.707,701.266z"/>
				</g>
				<g>
					
						<radialGradient id="SVGID_20_" cx="516.9204" cy="8.4863" r="11.1797" gradientTransform="matrix(1 0 0 -1 -21 703.5)" gradientUnits="userSpaceOnUse">
						<stop  offset="0" style="stop-color:#F9B233"/>
						<stop  offset="1" style="stop-color:#F18700"/>
					</radialGradient>
					<path fill="url(#SVGID_20_)" d="M490.342,707.296c-1.064-0.533-2.032-1.23-2.877-2.077c-0.25-0.248-0.488-0.512-0.714-0.786
						c0.938-0.745,1.877-1.432,2.796-2.039c0.087-0.058,0.175-0.115,0.266-0.178c0.381-0.259,0.775-0.522,1.172-0.682
						c0.159-0.063,0.306-0.095,0.432-0.095c0.175,0,0.309,0.062,0.41,0.188c0.201,0.255,0.25,0.752,0.126,1.267
						c-0.319,1.323-0.872,2.644-1.409,3.918C490.476,706.974,490.407,707.136,490.342,707.296z"/>
				</g>
			</g>
			<g opacity="0.4">
				<path fill="#FFFFFF" d="M486.199,691.031c-0.021,0.029-0.043,0.062-0.066,0.093c0.309-0.239,0.625-0.464,0.954-0.671
					c-0.09-0.078-0.179-0.152-0.268-0.23C486.6,690.481,486.394,690.754,486.199,691.031z"/>
				<path fill="#FFFFFF" d="M486.191,691.041C486.188,691.047,486.189,691.045,486.191,691.041L486.191,691.041z"/>
				<path fill="#FFFFFF" d="M486.199,691.031c0,0-0.004,0.006-0.008,0.01C486.193,691.039,486.195,691.036,486.199,691.031z"/>
				<path fill="#FFFFFF" d="M504.605,691.299l0.003,0.006c-1.437-2.192-3.635-3.842-6.151-4.584c-0.246,0.98-0.513,1.965-0.752,2.84
					c2.265,0.949,4.191,2.617,5.459,4.729c0.812-0.361,1.61-0.761,2.417-1.136C505.316,692.507,504.989,691.885,504.605,691.299z"/>
				<path fill="#FFFFFF" d="M490.123,687.554c0.283,0.45,0.569,0.897,0.865,1.341c1.27-0.254,2.583-0.29,3.865-0.112
					c-0.008-0.834-0.034-1.667-0.079-2.501C493.153,686.356,491.556,686.795,490.123,687.554z"/>
				<path fill="#FFFFFF" d="M506.391,696.732c-0.682,0.084-1.363,0.166-2.043,0.268c0.364,1.26,0.513,2.576,0.437,3.886
					c0.265,0.112,0.534,0.222,0.803,0.327c0.019,0.009,0.054,0.022,0.12,0.049C506.248,699.82,506.478,698.269,506.391,696.732z"/>
			</g>
		</g>
	</g>
	
		<image overflow="visible" enable-background="new    " width="862" height="290" xlink:href="F9B734A39BD45ABD.png"  transform="matrix(0.1271 0 0 0.1271 260.2852 686.4902)">
	</image>
	
		<image overflow="visible" enable-background="new    " width="650" height="320" xlink:href="F9B734A39BD45ABF.png"  transform="matrix(0.153 0 0 0.153 1070.5977 683.2861)">
	</image>
</g>
<rect x="805.082" y="511.631" fill="none" width="361.602" height="44.182"/>
<text transform="matrix(1 0 0 1 879.4678 520.1709)" fill="#183356" font-family="'Ubuntu'" font-size="11">Les données de notre équipe nous ont été fournies par </text>
<text transform="matrix(1 0 0 1 824.9199 535.1709)" fill="#183356" font-family="'Ubuntu'" font-size="11">la région Pays de la Loire et proviennent du site officiel de l’Ores. </text>
<text transform="matrix(1 0 0 1 863.5615 550.1709)" fill="#183356" font-family="'Ubuntu'" font-size="11">Ces données ont été récoltées sur la période 2003 à 2014.</text>
<g id="Calque_3">
</g>
</svg>
