<?xml version="1.0" encoding="utf-8"?>
<!-- Generator: Adobe Illustrator 16.0.0, SVG Export Plug-In . SVG Version: 6.00 Build 0)  -->
<!DOCTYPE svg PUBLIC "-//W3C//DTD SVG 1.1//EN" "http://www.w3.org/Graphics/SVG/1.1/DTD/svg11.dtd">
<svg version="1.1" id="Calque_1" xmlns="http://www.w3.org/2000/svg" xmlns:xlink="http://www.w3.org/1999/xlink" x="0px" y="0px"
	 width="1280px" height="800px" viewBox="0 0 1280 800" enable-background="new 0 0 1280 800" xml:space="preserve">
<path fill="none" stroke="#183356" stroke-width="2" stroke-miterlimit="10" d="M1231,44"/>
<rect x="-0.5" y="-0.5" fill="#F7FBFC" width="1280" height="798"/>
<path fill="#BFE3E5" d="M1164.964,606.5H805.917c0,0,51.2-96.926,166.247-39.611C972.164,566.889,1098.8,547.5,1164.964,606.5z"/>
<g>
	<path fill="#183356" d="M801.039,604.689v-15.745h-2.006v-85.562c0,0-3.203,1.386-7.332,0.322v85.562h-2.236v15.575
		c0,0-0.473,6.478,5.967,6.478C801.587,611.319,801.039,604.689,801.039,604.689z"/>
</g>
<g>
	<path fill="#183356" d="M898.884,604.689v-15.745h-2.007v-85.562c0,0-3.202,1.386-7.331,0.322v85.562h-2.236v15.575
		c0,0-0.474,6.478,5.968,6.478C899.433,611.319,898.884,604.689,898.884,604.689z"/>
</g>
<g>
	<path fill="#183356" d="M998.067,604.689v-15.745h-2.007v-85.562c0,0-3.202,1.386-7.33,0.322v85.562h-2.236v15.575
		c0,0-0.475,6.478,5.966,6.478C998.616,611.319,998.067,604.689,998.067,604.689z"/>
</g>
<rect x="-2.5" y="604.5" fill="#F9F6F5" width="1283" height="224"/>
<path fill="#CFEAEC" d="M853.96,605.133c0,0,14.327-30.342,80.066-16.013c0,0,35.083-46.985,116.838,15.38L853.96,605.133z"/>
<path fill="#BFE3E5" d="M571.957,655.5H736c0,0-38.671-39.342-96.021-13.336C639.979,642.164,593.959,634.5,571.957,655.5z"/>
<path fill="#CFEAEC" d="M523.944,664.5h164.043c0,0-38.67-39.344-96.021-13.336C591.966,651.164,545.945,642.5,523.944,664.5z"/>
<path fill="#D6E6AC" d="M179,604.5h347.597C526.597,604.5,350.823,394.5,179,604.5z"/>
<g>
	<polygon fill="#183356" points="61.904,457.945 61.904,604.238 130.794,604.238 130.794,457.945 96.348,423.418 	"/>
	<rect x="72.342" y="471.975" fill="#F2EDEC" width="9.012" height="19.227"/>
	<rect x="91.566" y="471.975" fill="#F2EDEC" width="9.012" height="19.227"/>
	<rect x="110.79" y="471.975" fill="#F2EDEC" width="9.015" height="19.227"/>
	<rect x="72.342" y="504.816" fill="#F2EDEC" width="9.012" height="19.225"/>
	<rect x="91.566" y="504.816" fill="#F2EDEC" width="9.012" height="19.225"/>
	<rect x="110.79" y="504.816" fill="#F2EDEC" width="9.015" height="19.225"/>
	<rect x="72.342" y="537.658" fill="#F2EDEC" width="9.012" height="19.223"/>
	<rect x="91.566" y="537.658" fill="#F2EDEC" width="9.012" height="19.223"/>
	<rect x="110.79" y="537.658" fill="#F2EDEC" width="9.015" height="19.223"/>
	<rect x="72.342" y="570.5" fill="#F2EDEC" width="9.012" height="19.222"/>
	<rect x="91.566" y="570.5" fill="#F2EDEC" width="9.012" height="19.222"/>
	<rect x="110.79" y="570.5" fill="#F2EDEC" width="9.015" height="19.222"/>
</g>
<g>
	<polygon fill="#183356" points="145.391,406.123 145.391,604.238 200.668,604.238 200.668,377.003 	"/>
	<rect x="151.977" y="418.997" fill="#F2EDEC" width="5.406" height="15.419"/>
	<rect x="163.99" y="418.997" fill="#F2EDEC" width="5.408" height="15.419"/>
	<rect x="176.007" y="418.997" fill="#F2EDEC" width="5.407" height="15.419"/>
	<rect x="188.021" y="418.997" fill="#F2EDEC" width="5.407" height="15.419"/>
	<rect x="151.977" y="441.025" fill="#F2EDEC" width="5.406" height="15.422"/>
	<rect x="163.99" y="441.025" fill="#F2EDEC" width="5.408" height="15.422"/>
	<rect x="176.007" y="441.025" fill="#F2EDEC" width="5.407" height="15.422"/>
	<rect x="188.021" y="441.025" fill="#F2EDEC" width="5.407" height="15.422"/>
	<rect x="151.977" y="463.054" fill="#F2EDEC" width="5.406" height="15.422"/>
	<rect x="163.99" y="463.054" fill="#F2EDEC" width="5.408" height="15.422"/>
	<rect x="176.007" y="463.054" fill="#F2EDEC" width="5.407" height="15.422"/>
	<rect x="188.021" y="463.054" fill="#F2EDEC" width="5.407" height="15.422"/>
	<rect x="151.977" y="485.084" fill="#F2EDEC" width="5.406" height="15.42"/>
	<rect x="163.99" y="485.084" fill="#F2EDEC" width="5.408" height="15.42"/>
	<rect x="176.007" y="485.084" fill="#F2EDEC" width="5.407" height="15.42"/>
	<rect x="188.021" y="485.084" fill="#F2EDEC" width="5.407" height="15.42"/>
	<rect x="151.977" y="507.113" fill="#F2EDEC" width="5.406" height="15.422"/>
	<rect x="163.99" y="507.113" fill="#F2EDEC" width="5.408" height="15.422"/>
	<rect x="176.007" y="507.113" fill="#F2EDEC" width="5.407" height="15.422"/>
	<rect x="188.021" y="507.113" fill="#F2EDEC" width="5.407" height="15.422"/>
	<rect x="151.977" y="529.145" fill="#F2EDEC" width="5.406" height="15.419"/>
	<rect x="163.99" y="529.145" fill="#F2EDEC" width="5.408" height="15.419"/>
	<rect x="176.007" y="529.145" fill="#F2EDEC" width="5.407" height="15.419"/>
	<rect x="188.021" y="529.145" fill="#F2EDEC" width="5.407" height="15.419"/>
	<rect x="151.977" y="551.17" fill="#F2EDEC" width="5.406" height="15.424"/>
	<rect x="163.99" y="551.17" fill="#F2EDEC" width="5.408" height="15.424"/>
	<rect x="176.007" y="551.17" fill="#F2EDEC" width="5.407" height="15.424"/>
	<rect x="188.021" y="551.17" fill="#F2EDEC" width="5.407" height="15.424"/>
	<rect x="151.977" y="573.201" fill="#F2EDEC" width="5.406" height="15.42"/>
	<rect x="163.99" y="573.201" fill="#F2EDEC" width="5.408" height="15.42"/>
	<rect x="176.007" y="573.201" fill="#F2EDEC" width="5.407" height="15.42"/>
	<rect x="188.021" y="573.201" fill="#F2EDEC" width="5.407" height="15.42"/>
</g>
<g>
	<rect x="197.449" y="429.84" fill="#183356" width="48.063" height="174.395"/>
	<rect x="205.458" y="444.026" fill="#F2EDEC" width="31.644" height="7.611"/>
	<rect x="205.458" y="459.245" fill="#F2EDEC" width="31.644" height="7.61"/>
	<rect x="205.458" y="474.465" fill="#F2EDEC" width="31.644" height="7.609"/>
	<rect x="205.458" y="489.682" fill="#F2EDEC" width="31.644" height="7.611"/>
	<rect x="205.458" y="504.902" fill="#F2EDEC" width="31.644" height="7.609"/>
	<rect x="205.458" y="520.121" fill="#F2EDEC" width="31.644" height="7.611"/>
	<rect x="205.458" y="535.34" fill="#F2EDEC" width="31.644" height="7.609"/>
	<rect x="205.458" y="550.559" fill="#F2EDEC" width="31.644" height="7.609"/>
	<rect x="205.458" y="565.777" fill="#F2EDEC" width="31.644" height="7.609"/>
	<rect x="205.458" y="580.997" fill="#F2EDEC" width="31.644" height="7.608"/>
</g>
<g>
	<rect x="282.472" y="360.035" fill="#183356" width="62.878" height="244.239"/>
	<rect x="304.992" y="378.091" fill="#F2EDEC" width="5.256" height="15.469"/>
	<rect x="314.306" y="378.091" fill="#F2EDEC" width="5.257" height="15.469"/>
	<rect x="323.616" y="378.091" fill="#F2EDEC" width="5.257" height="15.469"/>
	<rect x="332.929" y="378.091" fill="#F2EDEC" width="5.256" height="15.469"/>
	<rect x="304.992" y="397.542" fill="#F2EDEC" width="5.256" height="15.467"/>
	<rect x="314.306" y="397.542" fill="#F2EDEC" width="5.257" height="15.467"/>
	<rect x="323.616" y="397.542" fill="#F2EDEC" width="5.257" height="15.467"/>
	<rect x="332.929" y="397.542" fill="#F2EDEC" width="5.256" height="15.467"/>
	<rect x="304.992" y="416.99" fill="#F2EDEC" width="5.256" height="15.471"/>
	<rect x="314.306" y="416.99" fill="#F2EDEC" width="5.257" height="15.471"/>
	<rect x="323.616" y="416.99" fill="#F2EDEC" width="5.257" height="15.471"/>
	<rect x="332.929" y="416.99" fill="#F2EDEC" width="5.256" height="15.471"/>
	<rect x="304.992" y="436.439" fill="#F2EDEC" width="5.256" height="15.471"/>
	<rect x="314.306" y="436.439" fill="#F2EDEC" width="5.257" height="15.471"/>
	<rect x="323.616" y="436.439" fill="#F2EDEC" width="5.257" height="15.471"/>
	<rect x="332.929" y="436.439" fill="#F2EDEC" width="5.256" height="15.471"/>
	<rect x="304.992" y="455.891" fill="#F2EDEC" width="5.256" height="15.471"/>
	<rect x="314.306" y="455.891" fill="#F2EDEC" width="5.257" height="15.471"/>
	<rect x="323.616" y="455.891" fill="#F2EDEC" width="5.257" height="15.471"/>
	<rect x="332.929" y="455.891" fill="#F2EDEC" width="5.256" height="15.471"/>
	<rect x="304.992" y="475.341" fill="#F2EDEC" width="5.256" height="15.47"/>
	<rect x="314.306" y="475.341" fill="#F2EDEC" width="5.257" height="15.47"/>
	<rect x="323.616" y="475.341" fill="#F2EDEC" width="5.257" height="15.47"/>
	<rect x="332.929" y="475.341" fill="#F2EDEC" width="5.256" height="15.47"/>
	<rect x="304.992" y="494.791" fill="#F2EDEC" width="5.256" height="15.471"/>
	<rect x="314.306" y="494.791" fill="#F2EDEC" width="5.257" height="15.471"/>
	<rect x="323.616" y="494.791" fill="#F2EDEC" width="5.257" height="15.471"/>
	<rect x="332.929" y="494.791" fill="#F2EDEC" width="5.256" height="15.471"/>
	<rect x="304.992" y="514.242" fill="#F2EDEC" width="5.256" height="15.469"/>
	<rect x="314.306" y="514.242" fill="#F2EDEC" width="5.257" height="15.469"/>
	<rect x="323.616" y="514.242" fill="#F2EDEC" width="5.257" height="15.469"/>
	<rect x="332.929" y="514.242" fill="#F2EDEC" width="5.256" height="15.469"/>
	<rect x="304.992" y="533.691" fill="#F2EDEC" width="5.256" height="15.473"/>
	<rect x="314.306" y="533.691" fill="#F2EDEC" width="5.257" height="15.473"/>
	<rect x="323.616" y="533.691" fill="#F2EDEC" width="5.257" height="15.473"/>
	<rect x="332.929" y="533.691" fill="#F2EDEC" width="5.256" height="15.473"/>
	<rect x="304.992" y="553.143" fill="#F2EDEC" width="5.256" height="15.457"/>
	<rect x="314.306" y="553.143" fill="#F2EDEC" width="5.257" height="15.457"/>
	<rect x="323.616" y="553.143" fill="#F2EDEC" width="5.257" height="15.457"/>
	<rect x="332.929" y="553.143" fill="#F2EDEC" width="5.256" height="15.457"/>
	<rect x="304.992" y="572.58" fill="#F2EDEC" width="5.256" height="15.471"/>
	<rect x="314.306" y="572.58" fill="#F2EDEC" width="5.257" height="15.471"/>
	<rect x="323.616" y="572.58" fill="#F2EDEC" width="5.257" height="15.471"/>
	<rect x="332.929" y="572.58" fill="#F2EDEC" width="5.256" height="15.471"/>
</g>
<g>
	<polygon fill="#183356" points="455.558,419.242 455.558,397.511 415.308,397.511 415.308,419.242 407.395,419.242 
		407.395,604.191 464.669,604.191 464.669,419.242 	"/>
	<rect x="420.875" y="406.225" fill="#F2EDEC" width="6.424" height="11.715"/>
	<rect x="432.289" y="406.225" fill="#F2EDEC" width="6.426" height="11.715"/>
	<rect x="443.703" y="406.225" fill="#F2EDEC" width="6.428" height="11.715"/>
	<rect x="413.965" y="435.047" fill="#F2EDEC" width="10.411" height="20.027"/>
	<rect x="430.746" y="435.047" fill="#F2EDEC" width="10.41" height="20.027"/>
	<rect x="447.527" y="435.047" fill="#F2EDEC" width="10.411" height="20.027"/>
	<rect x="413.965" y="461.482" fill="#F2EDEC" width="10.411" height="20.026"/>
	<rect x="430.746" y="461.482" fill="#F2EDEC" width="10.41" height="20.026"/>
	<rect x="447.527" y="461.482" fill="#F2EDEC" width="10.411" height="20.026"/>
	<rect x="413.965" y="487.914" fill="#F2EDEC" width="10.411" height="20.028"/>
	<rect x="430.746" y="487.914" fill="#F2EDEC" width="10.41" height="20.028"/>
	<rect x="447.527" y="487.914" fill="#F2EDEC" width="10.411" height="20.028"/>
	<rect x="413.965" y="514.35" fill="#F2EDEC" width="10.411" height="20.027"/>
	<rect x="430.746" y="514.35" fill="#F2EDEC" width="10.41" height="20.027"/>
	<rect x="447.527" y="514.35" fill="#F2EDEC" width="10.411" height="20.027"/>
	<rect x="413.965" y="540.783" fill="#F2EDEC" width="10.411" height="20.027"/>
	<rect x="430.746" y="540.783" fill="#F2EDEC" width="10.41" height="20.027"/>
	<rect x="447.527" y="540.783" fill="#F2EDEC" width="10.411" height="20.027"/>
	<rect x="413.965" y="567.21" fill="#F2EDEC" width="10.411" height="20.009"/>
	<rect x="430.746" y="567.21" fill="#F2EDEC" width="10.41" height="20.009"/>
	<rect x="447.527" y="567.21" fill="#F2EDEC" width="10.411" height="20.009"/>
</g>
<g>
	<rect x="232.5" y="553.5" fill="#ED796B" width="78" height="23"/>
	<polygon fill="#AFDCDF" points="258.703,575.174 272.064,563.971 284.707,575.174 305.5,575.131 305.5,605.5 237.5,605.5 
		237.5,575.133 	"/>
	<rect x="254.5" y="583.5" fill="#F2EDEC" width="9" height="14"/>
	<rect x="267.5" y="587.5" fill="#183356" width="8" height="18"/>
	<rect x="267.5" y="572.5" fill="#F2EDEC" width="8" height="8"/>
	<rect x="242.5" y="583.5" fill="#F2EDEC" width="10" height="14"/>
	<rect x="291.5" y="583.5" fill="#F2EDEC" width="9" height="14"/>
	<rect x="279.5" y="583.5" fill="#F2EDEC" width="9" height="14"/>
	<rect x="284.5" y="550.5" fill="#AFDCDF" width="5" height="10"/>
</g>
<g>
	<rect x="856.5" y="631.5" fill="#2F4867" width="91" height="26"/>
	<polygon fill="#BFE3E5" points="886.916,656.801 902.88,643.578 917.382,656.801 941.5,656.748 941.5,692.5 861.5,692.5 
		861.5,656.75 	"/>
	<rect x="882.5" y="666.5" fill="#EB6A5B" width="10" height="17"/>
	<rect x="897.5" y="672.5" fill="#183356" width="10" height="20"/>
	<rect x="897.5" y="654.5" fill="#F2EDEC" width="10" height="8"/>
	<rect x="868.5" y="666.5" fill="#EB6A5B" width="11" height="17"/>
	<rect x="926.5" y="666.5" fill="#EB6A5B" width="10" height="17"/>
	<rect x="912.5" y="666.5" fill="#EB6A5B" width="10" height="17"/>
	<rect x="918.5" y="627.5" fill="#BFE3E5" width="4" height="11"/>
</g>
<g>
	<polygon fill="#AECD58" points="396.915,675.035 382.867,675.035 389.89,655.07 396.915,635.106 403.938,655.07 410.961,675.035 	
		"/>
	<path fill="#183356" d="M391.434,679.727h9.521C400.955,679.727,396.979,675.303,391.434,679.727z"/>
	<g>
		<path fill="#183356" d="M396.498,679.753c-0.223,0-0.403-0.181-0.403-0.402v-30.854c0-0.223,0.18-0.402,0.403-0.402
			s0.401,0.18,0.401,0.402v30.854C396.899,679.572,396.72,679.753,396.498,679.753z"/>
	</g>
	<g>
		<path fill="#183356" d="M396.363,672.373c-0.064,0-0.128-0.014-0.189-0.047l-7.513-4.023c-0.196-0.105-0.269-0.35-0.163-0.546
			c0.104-0.196,0.347-0.269,0.545-0.165l7.512,4.024c0.196,0.106,0.269,0.35,0.165,0.546
			C396.646,672.298,396.506,672.373,396.363,672.373z"/>
	</g>
	<g>
		<path fill="#183356" d="M396.75,668.421c-0.119,0-0.236-0.052-0.315-0.151c-0.139-0.175-0.108-0.428,0.065-0.566l7.111-5.641
			c0.174-0.137,0.428-0.107,0.566,0.066c0.138,0.174,0.109,0.428-0.065,0.564L397,668.334
			C396.926,668.393,396.838,668.421,396.75,668.421z"/>
	</g>
	<g>
		<path fill="#183356" d="M396.482,663.572c-0.064,0-0.129-0.016-0.189-0.049l-5.651-3.031c-0.196-0.105-0.269-0.349-0.164-0.545
			c0.105-0.197,0.35-0.271,0.544-0.164l5.651,3.032c0.195,0.104,0.268,0.349,0.164,0.544
			C396.765,663.496,396.626,663.572,396.482,663.572z"/>
	</g>
	<g>
		<path fill="#183356" d="M396.466,656.563c-0.064,0-0.129-0.015-0.189-0.046l-3.807-2.045c-0.195-0.104-0.27-0.35-0.164-0.545
			c0.105-0.193,0.349-0.269,0.544-0.164l3.807,2.043c0.196,0.105,0.27,0.35,0.165,0.545
			C396.75,656.487,396.61,656.563,396.466,656.563z"/>
	</g>
	<g>
		<path fill="#183356" d="M396.599,659.699c-0.095,0-0.188-0.033-0.266-0.1c-0.167-0.145-0.185-0.4-0.039-0.567l4.203-4.829
			c0.146-0.168,0.4-0.186,0.568-0.039c0.167,0.145,0.185,0.398,0.04,0.568l-4.204,4.829
			C396.822,659.651,396.71,659.699,396.599,659.699z"/>
	</g>
	<g>
		<path fill="#183356" d="M396.62,653.404c-0.093,0-0.187-0.033-0.264-0.099c-0.167-0.147-0.185-0.399-0.04-0.567l3.058-3.514
			c0.146-0.166,0.401-0.184,0.569-0.038c0.167,0.146,0.185,0.399,0.039,0.567l-3.057,3.513
			C396.845,653.357,396.733,653.404,396.62,653.404z"/>
	</g>
</g>
<polygon fill="#EB6A5B" points="285.196,569.531 287.191,569.527 272.083,556.209 256.205,569.527 258.201,569.531 272.083,558.209 
	"/>
<g>
	<path fill="#C6DC8A" d="M988.322,700.982c0-1.88-0.868-3.551-2.221-4.646c0.477-0.857,0.748-1.842,0.748-2.893
		c0-2.359-1.369-4.391-3.353-5.363c0.146-0.517,0.229-1.061,0.229-1.623c0-3.301-2.676-5.974-5.977-5.974
		c-0.532,0-1.045,0.077-1.538,0.206c-0.615-2.645-2.984-4.622-5.816-4.622c-2.646,0-4.883,1.72-5.67,4.102
		c-0.25-0.031-0.506-0.054-0.765-0.054c-3.302,0-5.978,2.674-5.978,5.973c0,0.843,0.18,1.646,0.493,2.369
		c-2.878,0.433-5.088,2.91-5.088,5.906c0,0.986,0.245,1.917,0.668,2.736c-0.191,0.584-0.299,1.21-0.299,1.86
		c0,1.633,0.658,3.11,1.722,4.19c-0.508,0.876-0.804,1.894-0.804,2.979c0,2.832,1.976,5.198,4.622,5.815
		c0.247,3.074,2.812,5.493,5.951,5.493c1.559,0,2.973-0.604,4.037-1.576c1.08,1.087,2.579,1.76,4.235,1.76
		c2.701,0,4.979-1.793,5.722-4.25c3.118-0.198,5.586-2.782,5.586-5.953c0-0.332-0.033-0.65-0.085-0.967
		C986.848,705.531,988.322,703.428,988.322,700.982z"/>
	<g>
		<path fill="#183356" d="M964.037,722.602h12.203C976.24,722.602,971.143,716.934,964.037,722.602z"/>
	</g>
	<g>
		<path fill="#183356" d="M970.523,722.637c-0.283,0-0.514-0.229-0.514-0.516v-39.545c0-0.287,0.23-0.516,0.514-0.516
			c0.286,0,0.52,0.229,0.52,0.516v39.545C971.043,722.407,970.81,722.637,970.523,722.637z"/>
	</g>
	<g>
		<path fill="#183356" d="M970.453,713.279c-0.081,0-0.166-0.018-0.243-0.062l-7.755-4.157c-0.251-0.135-0.348-0.445-0.213-0.699
			c0.135-0.251,0.446-0.346,0.7-0.21l7.755,4.157c0.252,0.135,0.346,0.447,0.212,0.697
			C970.816,713.182,970.636,713.279,970.453,713.279z"/>
	</g>
	<g>
		<path fill="#183356" d="M970.68,708.11c-0.152,0-0.303-0.067-0.403-0.194c-0.179-0.223-0.141-0.549,0.083-0.726l9.113-7.226
			c0.224-0.178,0.55-0.142,0.725,0.082c0.176,0.224,0.14,0.551-0.083,0.725L971,708C970.905,708.074,970.792,708.11,970.68,708.11z"
			/>
	</g>
	<g>
		<path fill="#183356" d="M970.506,701.898c-0.082,0-0.165-0.021-0.242-0.064l-7.242-3.883c-0.251-0.136-0.344-0.451-0.208-0.699
			c0.132-0.252,0.446-0.346,0.694-0.211l7.242,3.886c0.25,0.136,0.345,0.448,0.211,0.698
			C970.869,701.799,970.69,701.898,970.506,701.898z"/>
	</g>
	<g>
		<path fill="#183356" d="M970.485,692.916c-0.083,0-0.166-0.021-0.243-0.062l-4.88-2.619c-0.251-0.133-0.343-0.447-0.209-0.695
			c0.135-0.251,0.445-0.348,0.696-0.212l4.881,2.62c0.251,0.133,0.346,0.446,0.211,0.696
			C970.848,692.818,970.668,692.916,970.485,692.916z"/>
	</g>
	<g>
		<path fill="#183356" d="M970.785,696.932c-0.12,0-0.242-0.042-0.338-0.123c-0.216-0.189-0.239-0.515-0.053-0.731l5.387-6.188
			c0.188-0.217,0.516-0.237,0.729-0.05c0.217,0.186,0.238,0.511,0.052,0.727l-5.388,6.191
			C971.072,696.873,970.928,696.932,970.785,696.932z"/>
	</g>
	<g>
		<path fill="#183356" d="M970.68,688.865c-0.12,0-0.24-0.042-0.339-0.125c-0.214-0.187-0.239-0.514-0.051-0.727l3.92-4.505
			c0.187-0.215,0.51-0.235,0.726-0.05c0.215,0.188,0.238,0.514,0.05,0.73l-3.916,4.5
			C970.967,688.806,970.823,688.865,970.68,688.865z"/>
	</g>
</g>
<g>
	<path fill="#D6E6AC" d="M757.247,610.141c0-1.217-0.562-2.3-1.438-3.01c0.309-0.555,0.484-1.192,0.484-1.873
		c0-1.527-0.887-2.845-2.171-3.475c0.095-0.334,0.147-0.686,0.147-1.049c0-2.139-1.733-3.871-3.871-3.871
		c-0.345,0-0.676,0.05-0.996,0.133c-0.398-1.712-1.934-2.992-3.768-2.992c-1.713,0-3.162,1.113-3.672,2.656
		c-0.162-0.021-0.328-0.037-0.496-0.037c-2.139,0-3.871,1.734-3.871,3.87c0,0.547,0.116,1.067,0.318,1.535
		c-1.863,0.279-3.295,1.884-3.295,3.825c0,0.639,0.158,1.241,0.433,1.771c-0.124,0.38-0.193,0.785-0.193,1.207
		c0,1.058,0.426,2.014,1.114,2.714c-0.328,0.566-0.52,1.228-0.52,1.928c0,1.835,1.279,3.368,2.994,3.769
		c0.159,1.992,1.821,3.557,3.854,3.557c1.01,0,1.926-0.389,2.615-1.02c0.7,0.704,1.671,1.139,2.744,1.139
		c1.75,0,3.225-1.161,3.705-2.754c2.021-0.127,3.619-1.801,3.619-3.854c0-0.215-0.021-0.42-0.056-0.626
		C756.292,613.088,757.247,611.725,757.247,610.141z"/>
	<g>
		<path fill="#183356" d="M741.518,624.145h7.904C749.422,624.145,746.119,620.473,741.518,624.145z"/>
	</g>
	<g>
		<path fill="#183356" d="M745.719,624.166c-0.184,0-0.333-0.147-0.333-0.334v-25.613c0-0.186,0.149-0.334,0.333-0.334
			c0.185,0,0.336,0.148,0.336,0.334v25.613C746.055,624.019,745.903,624.166,745.719,624.166z"/>
	</g>
	<g>
		<path fill="#183356" d="M745.673,618.105c-0.053,0-0.107-0.011-0.157-0.039l-5.023-2.693c-0.162-0.086-0.225-0.289-0.138-0.452
			s0.289-0.225,0.453-0.136l5.023,2.692c0.163,0.087,0.224,0.289,0.137,0.452C745.908,618.043,745.791,618.105,745.673,618.105z"/>
	</g>
	<g>
		<path fill="#183356" d="M745.819,614.758c-0.099,0-0.196-0.043-0.262-0.125c-0.114-0.146-0.091-0.357,0.054-0.471l5.903-4.68
			c0.146-0.115,0.356-0.092,0.47,0.053s0.091,0.356-0.054,0.47l-5.904,4.682C745.966,614.734,745.893,614.758,745.819,614.758z"/>
	</g>
	<g>
		<path fill="#183356" d="M745.707,610.734c-0.053,0-0.107-0.013-0.156-0.041l-4.691-2.517c-0.163-0.087-0.224-0.29-0.135-0.451
			c0.086-0.163,0.289-0.226,0.449-0.137l4.691,2.517c0.161,0.088,0.223,0.29,0.137,0.451
			C745.941,610.67,745.827,610.734,745.707,610.734z"/>
	</g>
	<g>
		<path fill="#183356" d="M745.693,604.916c-0.054,0-0.107-0.014-0.157-0.041l-3.161-1.695c-0.162-0.087-0.222-0.29-0.135-0.451
			c0.087-0.162,0.289-0.225,0.451-0.137l3.161,1.696c0.162,0.087,0.224,0.289,0.137,0.451
			C745.929,604.854,745.812,604.916,745.693,604.916z"/>
	</g>
	<g>
		<path fill="#183356" d="M745.889,607.518c-0.078,0-0.157-0.027-0.22-0.08c-0.14-0.122-0.154-0.332-0.034-0.473l3.489-4.01
			c0.121-0.139,0.335-0.152,0.472-0.031c0.141,0.12,0.155,0.33,0.034,0.47l-3.49,4.013
			C746.074,607.479,745.98,607.518,745.889,607.518z"/>
	</g>
	<g>
		<path fill="#183356" d="M745.819,602.293c-0.077,0-0.155-0.027-0.22-0.08c-0.139-0.121-0.154-0.334-0.032-0.473l2.538-2.917
			c0.121-0.14,0.332-0.153,0.471-0.033c0.14,0.122,0.154,0.333,0.032,0.474l-2.536,2.915
			C746.006,602.254,745.912,602.293,745.819,602.293z"/>
	</g>
</g>
<g>
	<path fill="#CEE19B" d="M66.417,656.99c0-1.396-0.645-2.636-1.648-3.449c0.354-0.635,0.556-1.366,0.556-2.146
		c0-1.75-1.016-3.258-2.488-3.98c0.108-0.383,0.17-0.785,0.17-1.203c0-2.449-1.986-4.434-4.436-4.434
		c-0.395,0-0.775,0.057-1.142,0.152c-0.456-1.961-2.214-3.43-4.316-3.43c-1.963,0-3.623,1.276-4.207,3.044
		c-0.186-0.024-0.376-0.04-0.567-0.04c-2.45,0-4.436,1.984-4.436,4.432c0,0.627,0.133,1.221,0.365,1.759
		c-2.136,0.32-3.775,2.159-3.775,4.383c0,0.731,0.182,1.423,0.495,2.032c-0.142,0.432-0.221,0.896-0.221,1.379
		c0,1.212,0.487,2.309,1.276,3.11c-0.376,0.649-0.596,1.406-0.596,2.21c0,2.102,1.466,3.857,3.431,4.316
		c0.183,2.281,2.087,4.075,4.416,4.075c1.156,0,2.205-0.447,2.995-1.169c0.803,0.807,1.914,1.307,3.144,1.307
		c2.005,0,3.695-1.332,4.246-3.155c2.313-0.147,4.146-2.065,4.146-4.417c0-0.247-0.024-0.482-0.063-0.717
		C65.322,660.364,66.417,658.805,66.417,656.99z"/>
	<g>
		<path fill="#183356" d="M48.395,673.033h9.057C57.451,673.033,53.668,668.826,48.395,673.033z"/>
	</g>
	<g>
		<path fill="#183356" d="M53.209,673.059c-0.211,0-0.382-0.169-0.382-0.382V643.33c0-0.213,0.171-0.383,0.382-0.383
			c0.212,0,0.386,0.17,0.386,0.383v29.347C53.595,672.89,53.421,673.059,53.209,673.059z"/>
	</g>
	<g>
		<path fill="#183356" d="M53.156,666.115c-0.061,0-0.123-0.014-0.18-0.045l-5.756-3.086c-0.187-0.1-0.258-0.33-0.157-0.519
			c0.1-0.187,0.331-0.257,0.52-0.156l5.755,3.085c0.187,0.1,0.257,0.332,0.157,0.519C53.426,666.041,53.292,666.115,53.156,666.115z
			"/>
	</g>
	<g>
		<path fill="#183356" d="M53.325,662.279c-0.114,0-0.226-0.049-0.3-0.145c-0.133-0.166-0.104-0.407,0.062-0.537l6.763-5.363
			c0.166-0.132,0.408-0.105,0.538,0.061s0.104,0.409-0.062,0.537l-6.764,5.365C53.492,662.253,53.408,662.279,53.325,662.279z"/>
	</g>
	<g>
		<path fill="#183356" d="M53.195,657.669c-0.061,0-0.122-0.015-0.18-0.046l-5.374-2.884c-0.187-0.099-0.256-0.333-0.155-0.518
			c0.098-0.187,0.332-0.257,0.517-0.157l5.374,2.884c0.186,0.101,0.255,0.333,0.156,0.519
			C53.465,657.596,53.332,657.669,53.195,657.669z"/>
	</g>
	<g>
		<path fill="#183356" d="M53.18,651.004c-0.061,0-0.122-0.017-0.18-0.047l-3.621-1.943c-0.187-0.1-0.255-0.332-0.155-0.517
			c0.1-0.187,0.33-0.258,0.517-0.157l3.621,1.943c0.187,0.1,0.257,0.332,0.157,0.518C53.449,650.931,53.315,651.004,53.18,651.004z"
			/>
	</g>
	<g>
		<path fill="#183356" d="M53.402,653.983c-0.089,0-0.179-0.031-0.25-0.093c-0.16-0.139-0.178-0.381-0.04-0.541l3.998-4.593
			c0.14-0.159,0.382-0.175,0.541-0.036c0.161,0.138,0.177,0.379,0.038,0.539l-3.998,4.595
			C53.615,653.941,53.509,653.983,53.402,653.983z"/>
	</g>
	<g>
		<path fill="#183356" d="M53.325,647.997c-0.09,0-0.18-0.031-0.252-0.093c-0.159-0.139-0.178-0.381-0.038-0.54l2.909-3.342
			c0.138-0.159,0.378-0.175,0.539-0.036c0.158,0.137,0.176,0.381,0.036,0.54l-2.906,3.341
			C53.537,647.953,53.431,647.997,53.325,647.997z"/>
	</g>
</g>
<g>
	<path fill="#AECD58" d="M492.294,724.115c0-1.818-0.84-3.436-2.149-4.496c0.462-0.83,0.725-1.783,0.725-2.801
		c0-2.282-1.325-4.25-3.245-5.189c0.141-0.5,0.222-1.027,0.222-1.571c0-3.194-2.591-5.782-5.785-5.782
		c-0.515,0-1.011,0.074-1.489,0.198c-0.594-2.56-2.888-4.474-5.629-4.474c-2.561,0-4.726,1.664-5.487,3.971
		c-0.241-0.032-0.49-0.053-0.74-0.053c-3.196,0-5.785,2.59-5.785,5.781c0,0.816,0.174,1.594,0.477,2.295
		c-2.785,0.418-4.924,2.814-4.924,5.715c0,0.953,0.236,1.855,0.646,2.648c-0.185,0.566-0.288,1.172-0.288,1.801
		c0,1.581,0.637,3.01,1.665,4.057c-0.49,0.848-0.777,1.832-0.777,2.881c0,2.742,1.912,5.033,4.475,5.63
		c0.237,2.976,2.722,5.314,5.76,5.314c1.508,0,2.877-0.583,3.907-1.524c1.046,1.055,2.496,1.705,4.099,1.705
		c2.615,0,4.819-1.734,5.539-4.115c3.018-0.191,5.405-2.693,5.405-5.76c0-0.321-0.032-0.631-0.082-0.938
		C490.867,728.518,492.294,726.482,492.294,724.115z"/>
	<g>
		<path fill="#183356" d="M468.788,745.04h11.812C480.601,745.04,475.667,739.554,468.788,745.04z"/>
	</g>
	<g>
		<path fill="#183356" d="M475.067,745.074c-0.274,0-0.497-0.222-0.497-0.499v-38.274c0-0.278,0.223-0.499,0.497-0.499
			c0.276,0,0.503,0.221,0.503,0.499v38.274C475.57,744.853,475.344,745.074,475.067,745.074z"/>
	</g>
	<g>
		<path fill="#183356" d="M474.999,736.018c-0.078,0-0.16-0.018-0.234-0.061l-7.507-4.023c-0.243-0.129-0.335-0.432-0.206-0.677
			c0.131-0.241,0.433-0.333,0.678-0.202l7.507,4.023c0.243,0.129,0.334,0.433,0.204,0.675
			C475.351,735.922,475.175,736.018,474.999,736.018z"/>
	</g>
	<g>
		<path fill="#183356" d="M475.219,731.016c-0.148,0-0.293-0.066-0.391-0.188c-0.173-0.217-0.137-0.533,0.08-0.704l8.82-6.992
			c0.217-0.172,0.533-0.137,0.702,0.079c0.17,0.218,0.135,0.532-0.081,0.702l-8.821,6.995
			C475.437,730.98,475.328,731.016,475.219,731.016z"/>
	</g>
	<g>
		<path fill="#183356" d="M475.05,725.002c-0.078,0-0.159-0.02-0.234-0.061l-7.009-3.76c-0.242-0.132-0.333-0.434-0.202-0.676
			c0.127-0.242,0.433-0.334,0.673-0.205l7.009,3.762c0.242,0.131,0.334,0.434,0.205,0.676
			C475.401,724.906,475.229,725.002,475.05,725.002z"/>
	</g>
	<g>
		<path fill="#183356" d="M475.03,716.309c-0.079,0-0.16-0.021-0.235-0.061l-4.724-2.533c-0.242-0.131-0.331-0.434-0.201-0.675
			c0.13-0.243,0.431-0.336,0.675-0.206l4.722,2.535c0.244,0.129,0.336,0.434,0.205,0.676
			C475.381,716.215,475.207,716.309,475.03,716.309z"/>
	</g>
	<g>
		<path fill="#183356" d="M475.32,720.195c-0.115,0-0.233-0.041-0.326-0.121c-0.21-0.182-0.232-0.496-0.052-0.706l5.215-5.989
			c0.181-0.21,0.497-0.229,0.704-0.047c0.21,0.18,0.23,0.492,0.05,0.703l-5.214,5.991
			C475.598,720.139,475.458,720.195,475.32,720.195z"/>
	</g>
	<g>
		<path fill="#183356" d="M475.219,712.389c-0.116,0-0.233-0.039-0.328-0.123c-0.207-0.18-0.231-0.496-0.05-0.703l3.794-4.358
			c0.181-0.208,0.493-0.229,0.703-0.049c0.207,0.182,0.229,0.497,0.048,0.706l-3.79,4.355
			C475.495,712.332,475.357,712.389,475.219,712.389z"/>
	</g>
</g>
<g>
	<ellipse fill="#AECD58" cx="1061.075" cy="748.99" rx="18.493" ry="32.99"/>
	<path fill="#183356" d="M1052.736,788.553h16.206C1068.942,788.553,1062.176,781.026,1052.736,788.553z"/>
	<g>
		<path fill="#183356" d="M1061.354,788.602c-0.38,0-0.684-0.308-0.684-0.688v-52.511c0-0.378,0.304-0.685,0.684-0.685
			c0.379,0,0.685,0.307,0.685,0.685v52.511C1062.038,788.294,1061.732,788.602,1061.354,788.602z"/>
	</g>
	<g>
		<path fill="#183356" d="M1061.256,776.177c-0.106,0-0.218-0.026-0.321-0.083l-10.301-5.52c-0.332-0.181-0.459-0.594-0.28-0.928
			c0.178-0.334,0.594-0.46,0.93-0.279l10.3,5.518c0.333,0.182,0.459,0.594,0.28,0.93
			C1061.74,776.043,1061.502,776.177,1061.256,776.177z"/>
	</g>
	<g>
		<path fill="#183356" d="M1061.784,769.312c-0.201,0-0.399-0.087-0.537-0.259c-0.235-0.296-0.186-0.729,0.111-0.963l12.104-9.598
			c0.296-0.234,0.727-0.183,0.961,0.113c0.234,0.295,0.185,0.727-0.111,0.961l-12.102,9.6
			C1062.086,769.264,1061.936,769.312,1061.784,769.312z"/>
	</g>
	<g>
		<path fill="#183356" d="M1061.328,761.061c-0.111,0-0.222-0.025-0.324-0.082l-9.614-5.159c-0.333-0.181-0.457-0.594-0.278-0.929
			c0.179-0.332,0.596-0.459,0.928-0.278l9.612,5.161c0.335,0.179,0.461,0.595,0.28,0.926
			C1061.807,760.931,1061.573,761.061,1061.328,761.061z"/>
	</g>
	<g>
		<path fill="#183356" d="M1061.301,749.134c-0.108,0-0.221-0.027-0.323-0.083l-6.479-3.477c-0.332-0.18-0.457-0.594-0.277-0.927
			c0.178-0.333,0.594-0.457,0.926-0.28l6.479,3.479c0.334,0.178,0.461,0.594,0.28,0.926
			C1061.781,749.004,1061.545,749.134,1061.301,749.134z"/>
	</g>
	<g>
		<path fill="#183356" d="M1061.625,754.469c-0.158,0-0.318-0.055-0.449-0.168c-0.285-0.248-0.316-0.682-0.066-0.967l7.152-8.221
			c0.249-0.286,0.681-0.314,0.968-0.064c0.282,0.246,0.314,0.68,0.065,0.965l-7.153,8.221
			C1062.008,754.389,1061.816,754.469,1061.625,754.469z"/>
	</g>
	<g>
		<path fill="#183356" d="M1061.644,743.756c-0.157,0-0.319-0.056-0.449-0.167c-0.286-0.249-0.315-0.683-0.067-0.968l5.203-5.978
			c0.249-0.286,0.683-0.314,0.965-0.067c0.286,0.25,0.317,0.684,0.068,0.968l-5.204,5.978
			C1062.025,743.676,1061.833,743.756,1061.644,743.756z"/>
	</g>
</g>
<path fill="none" stroke="#183356" stroke-width="2" stroke-linecap="round" stroke-linejoin="round" stroke-miterlimit="10" d="
	M1084.276,464.676c0,0-8.016-5.062-12.656,2.953c0,0-3.797-8.438-13.922-2.531"/>
<path fill="none" stroke="#183356" stroke-width="2" stroke-linecap="round" stroke-linejoin="round" stroke-miterlimit="10" d="
	M1117.131,477.674c0,0-8.016-5.062-12.656,2.953c0,0-3.797-8.438-13.922-2.531"/>
<path fill="#F2EDEC" d="M670.75,739.5c4.004,0,6.75-3.746,6.75-7.75v-0.5c0-4.004-2.996-7.25-7-7.25l-1.5,0.125
	c-4.004,0-7.5-3.371-7.5-7.375v-0.5c0-4.004,2.746-6.75,6.75-6.75h7.5c4.004,0,6.75-3.746,6.75-7.75v-0.5
	c0-4.004-3.121-7.375-7.125-7.375l-6.5,0.125c-4.004,0-7.375-3.246-7.375-7.25v-0.5c0-4.004,3.621-7.375,7.625-7.375l17.25,0.125
	c4.004,0,7.125-3.246,7.125-7.25v-0.5c0-4.004-2.746-6.75-6.75-6.75h-164.5c-4.004,0-7.75,2.746-7.75,6.75v0.5
	c0,4.004,3.746,7.75,7.75,7.75h17.375c4.004,0,6.875,2.746,6.875,6.75v0.5c0,4.004-2.996,7.25-7,7.25l-2.5-0.125
	c-4.004,0-7.5,3.371-7.5,7.375v0.5c0,4.004,3.746,7.75,7.75,7.75h39.5c4.004,0,6.75,2.746,6.75,6.75v0.5
	c0,4.004-2.746,7.75-6.75,7.75h-2.375c-4.004,0-7.875,2.746-7.875,6.75v0.5c0,4.004,3.746,7.75,7.75,7.75H670.75z"/>
<path fill="#F2EDEC" d="M299.25,649.5c-4.004,0-7.75,2.746-7.75,6.75v0.5c0,4.004,3.621,7.375,7.625,7.375l17.25-0.125
	c4.004,0,7.125,3.246,7.125,7.25v0.5c0,4.004-2.746,7.75-6.75,7.75h-51.5c-4.004,0-7.75,2.746-7.75,6.75v0.5
	c0,4.004,3.496,7.375,7.5,7.375L294.375,694c4.004,0,7.125,3.246,7.125,7.25v0.5c0,4.004-2.746,7.75-6.75,7.75h-11.5
	c-4.004,0-7.75,2.746-7.75,6.75v0.5c0,4.004,3.746,7.75,7.75,7.75h5.5c4.004,0,6.75,2.746,6.75,6.75v0.5
	c0,4.004-2.746,7.75-6.75,7.75h-106.5c-4.004,0-7.75-3.746-7.75-7.75v-0.5c0-4.004,3.746-6.75,7.75-6.75h1.5
	c4.004,0,6.75-3.746,6.75-7.75v-0.5c0-4.004-3.121-7.375-7.125-7.375l-60.5,0.125c-4.004,0-7.375-3.246-7.375-7.25v-0.5
	c0-4.004,3.871-6.75,7.875-6.75h8.375c4.004,0,6.75-3.746,6.75-7.75v-0.5c0-4.004-2.871-6.75-6.875-6.75H85.25
	c-4.004,0-7.75-3.746-7.75-7.75v-0.5c0-4.004,3.871-6.75,7.875-6.75h2.375c4.004,0,6.75-3.746,6.75-7.75v-0.5
	c0-4.004-2.746-6.75-6.75-6.75h-12.5c-4.004,0-7.75-3.746-7.75-7.75v-0.5c0-4.004,3.621-7.375,7.625-7.375l28.25,0.125
	c4.004,0,7.125-3.246,7.125-7.25v-0.5c0-4.004-2.871-6.75-6.875-6.75H51.25c-4.004,0-7.75-3.746-7.75-7.75v-0.5
	c0-4.004,3.746-6.75,7.75-6.75h280.5c4.004,0,6.75,2.746,6.75,6.75v0.5c0,4.004-2.996,7.25-7,7.25l-23.5-0.125
	c-4.004,0-7.5,3.371-7.5,7.375v0.5c0,4.004,3.496,7.25,7.5,7.25l46.25-0.125c4.004,0,7.25,3.371,7.25,7.375v0.5
	c0,4.004-2.746,7.75-6.75,7.75H299.25z"/>
<g>
	<ellipse fill="#D6E6AC" cx="333.354" cy="625.906" rx="7.095" ry="12.658"/>
	<path fill="#183356" d="M330.153,641.086h6.218C336.371,641.086,333.775,638.199,330.153,641.086z"/>
	<g>
		<path fill="#183356" d="M333.46,641.105c-0.146,0-0.263-0.118-0.263-0.264v-20.146c0-0.146,0.117-0.264,0.263-0.264
			c0.145,0,0.263,0.118,0.263,0.264v20.146C333.723,640.987,333.604,641.105,333.46,641.105z"/>
	</g>
	<g>
		<path fill="#183356" d="M333.423,636.338c-0.041,0-0.084-0.01-0.124-0.032l-3.952-2.116c-0.127-0.069-0.176-0.229-0.107-0.357
			c0.068-0.128,0.228-0.176,0.357-0.107l3.951,2.119c0.128,0.068,0.176,0.227,0.107,0.355
			C333.608,636.288,333.517,636.338,333.423,636.338z"/>
	</g>
	<g>
		<path fill="#183356" d="M333.625,633.704c-0.077,0-0.153-0.034-0.206-0.099c-0.091-0.113-0.071-0.28,0.042-0.371l4.645-3.681
			c0.113-0.089,0.279-0.071,0.369,0.042c0.09,0.114,0.071,0.279-0.043,0.369l-4.643,3.683
			C333.741,633.687,333.684,633.704,333.625,633.704z"/>
	</g>
	<g>
		<path fill="#183356" d="M333.449,630.539c-0.041,0-0.084-0.011-0.124-0.033l-3.688-1.979c-0.128-0.07-0.176-0.227-0.107-0.355
			c0.068-0.128,0.229-0.176,0.355-0.107l3.688,1.979c0.128,0.069,0.177,0.229,0.107,0.355
			C333.634,630.488,333.544,630.539,333.449,630.539z"/>
	</g>
	<g>
		<path fill="#183356" d="M333.44,625.963c-0.043,0-0.085-0.011-0.125-0.033l-2.485-1.332c-0.127-0.07-0.176-0.229-0.107-0.355
			c0.068-0.129,0.229-0.176,0.355-0.108l2.486,1.335c0.127,0.068,0.177,0.228,0.107,0.355
			C333.625,625.912,333.533,625.963,333.44,625.963z"/>
	</g>
	<g>
		<path fill="#183356" d="M333.564,628.01c-0.062,0-0.123-0.021-0.173-0.064c-0.11-0.096-0.122-0.262-0.025-0.371l2.743-3.153
			c0.097-0.11,0.262-0.122,0.372-0.025c0.109,0.095,0.121,0.261,0.025,0.37l-2.744,3.154
			C333.711,627.979,333.638,628.01,333.564,628.01z"/>
	</g>
	<g>
		<path fill="#183356" d="M333.571,623.899c-0.062,0-0.123-0.021-0.173-0.065c-0.109-0.095-0.121-0.262-0.025-0.369l1.996-2.293
			c0.096-0.111,0.262-0.122,0.37-0.027c0.109,0.098,0.122,0.262,0.026,0.371l-1.997,2.293
			C333.718,623.868,333.645,623.899,333.571,623.899z"/>
	</g>
</g>
<g>
	<polygon fill="#BED77A" points="584.007,693.633 567.604,693.633 575.805,670.318 584.007,647.006 592.208,670.318 
		600.409,693.633 	"/>
	<path fill="#183356" d="M577.607,699.109h11.117C588.725,699.109,584.082,693.943,577.607,699.109z"/>
	<g>
		<path fill="#183356" d="M583.521,699.141c-0.261,0-0.471-0.21-0.471-0.471v-36.028c0-0.26,0.21-0.47,0.471-0.47
			c0.26,0,0.469,0.21,0.469,0.47v36.028C583.989,698.931,583.78,699.141,583.521,699.141z"/>
	</g>
	<g>
		<path fill="#183356" d="M583.363,690.523c-0.075,0-0.15-0.016-0.222-0.055l-8.772-4.699c-0.229-0.123-0.314-0.408-0.191-0.637
			c0.122-0.229,0.405-0.314,0.637-0.193l8.771,4.701c0.229,0.122,0.314,0.406,0.192,0.635
			C583.694,690.435,583.531,690.523,583.363,690.523z"/>
	</g>
	<g>
		<path fill="#183356" d="M583.816,685.907c-0.14,0-0.276-0.061-0.369-0.177c-0.162-0.204-0.127-0.5,0.076-0.66l8.304-6.587
			c0.204-0.16,0.5-0.125,0.661,0.077c0.161,0.203,0.128,0.499-0.076,0.66l-8.305,6.585
			C584.021,685.873,583.917,685.907,583.816,685.907z"/>
	</g>
	<g>
		<path fill="#183356" d="M583.502,680.246c-0.074,0-0.15-0.02-0.22-0.057l-6.599-3.541c-0.229-0.122-0.314-0.406-0.192-0.635
			c0.123-0.229,0.409-0.314,0.637-0.191l6.599,3.539c0.228,0.122,0.312,0.408,0.19,0.637
			C583.832,680.156,583.67,680.246,583.502,680.246z"/>
	</g>
	<g>
		<path fill="#183356" d="M583.483,672.062c-0.074,0-0.151-0.019-0.221-0.057l-4.445-2.385c-0.229-0.123-0.315-0.408-0.192-0.637
			c0.123-0.228,0.408-0.312,0.637-0.193l4.445,2.388c0.229,0.122,0.314,0.407,0.191,0.636
			C583.814,671.974,583.652,672.062,583.483,672.062z"/>
	</g>
	<g>
		<path fill="#183356" d="M583.638,675.722c-0.11,0-0.219-0.036-0.31-0.114c-0.195-0.17-0.216-0.469-0.045-0.663l4.908-5.639
			c0.171-0.196,0.467-0.218,0.663-0.046c0.195,0.17,0.216,0.466,0.046,0.664l-4.908,5.639
			C583.898,675.668,583.769,675.722,583.638,675.722z"/>
	</g>
	<g>
		<path fill="#183356" d="M583.664,668.373c-0.109,0-0.219-0.039-0.309-0.115c-0.195-0.17-0.216-0.468-0.047-0.664l3.57-4.101
			c0.172-0.195,0.469-0.214,0.665-0.046c0.195,0.172,0.216,0.467,0.045,0.664l-3.57,4.102
			C583.926,668.318,583.795,668.373,583.664,668.373z"/>
	</g>
</g>
<g>
	<g>
		<path fill="none" d="M886.91,760.146c-0.393,0.477-0.583,1.06-0.698,1.672c-0.055,0.281-0.093,0.625-0.128,0.895
			c-0.032,0.236-0.24,4.787-0.282,4.787c2.752,0,6.698,0,12.698,0v-8c0,0-9.153,0-9.203,0
			C888.478,759.5,887.473,759.457,886.91,760.146z"/>
		<path fill="none" d="M914.827,761.387c-1.351-1.918-3.534-1.959-5.669-1.94c-1.891,0.018-3.785,0.054-5.676,0.054
			c-0.491,0-1.982,0-1.982,0v8c5,0,9.369,0,15.156,0c0.04,0-0.751-3.867-1.313-5.035
			C915.098,761.965,914.897,761.49,914.827,761.387z"/>
	</g>
	<g>
		<path fill="#183356" d="M922.312,773.998c-3.467,0-6.287,2.82-6.287,6.285s2.82,6.285,6.287,6.285c3.466,0,6.285-2.82,6.285-6.285
			S925.778,773.998,922.312,773.998z M922.312,783.931c-2.016,0-3.647-1.634-3.647-3.647s1.632-3.646,3.647-3.646
			c2.013,0,3.646,1.633,3.646,3.646S924.325,783.931,922.312,783.931z"/>
	</g>
	<g>
		<path fill="none" d="M886.91,760.104c-0.393,0.477-0.583,1.115-0.698,1.729c-0.055,0.28-0.093,0.66-0.128,0.93
			c-0.032,0.236-0.24,4.738-0.282,4.738c2.752,0,6.698,0,12.698,0v-8c0,0-9.153,0-9.203,0
			C888.478,759.5,887.473,759.414,886.91,760.104z"/>
		<path fill="none" d="M914.827,761.288c-1.351-1.917-3.534-1.86-5.669-1.842c-1.891,0.018-3.785,0.054-5.676,0.054
			c-0.491,0-1.982,0-1.982,0v8c5,0,9.369,0,15.156,0c0.04,0-0.751-3.918-1.313-5.084
			C915.098,761.914,914.897,761.393,914.827,761.288z"/>
		<path fill="#AFDCDF" d="M933.5,779.531v-8.09c0-1.039-1.113-2.118-1.959-2.439c-2.283-0.869-5.035-0.527-7.444-0.895
			c-1.143-0.173-2.281-0.363-3.122-1.229c-1.227-1.261-1.429-3.152-2.05-4.718c-0.475-1.187-1.095-2.24-1.971-3.178
			c-1.785-1.896-4.054-3.098-6.705-3.069c-7.163,0.074-14.326,0.003-21.491,0.003c-1.526,0-5.57,0-6.051,5.598
			c-0.3,3.544-1.918,17.504-1.93,17.689c-0.091,1.631,1.43,1.846,2.807,1.787c0.514-0.021,1.009-0.086,1.39-0.123
			c0.374-0.04,0.752-0.055,1.128-0.074c-0.012-0.17-0.025-0.337-0.025-0.51c0-4.018,3.269-7.285,7.285-7.285
			s7.285,3.268,7.285,7.285c0,0.17-0.014,0.336-0.025,0.502c1.315,0.008,2.631,0.016,3.946,0.023
			c3.495,0.023,6.991,0.031,10.486,0.038c-0.015-0.187-0.028-0.373-0.028-0.563c0-4.018,3.269-7.285,7.287-7.285
			c4.017,0,7.285,3.268,7.285,7.285c0,0.207-0.014,0.41-0.031,0.61c1.004,0.006,1.764,0.011,2.764,0.011
			C933.844,780.904,933.5,779.531,933.5,779.531z M898.5,767.5c-6,0-9.946,0-12.698,0c0.042,0,0.25-4.564,0.282-4.801
			c0.035-0.27,0.073-0.587,0.128-0.867c0.115-0.613,0.306-1.189,0.698-1.666c0.562-0.689,1.567-0.666,2.387-0.666
			c0.05,0,9.203,0,9.203,0V767.5z M901.5,767.5v-8c0,0,1.491,0,1.982,0c1.891,0,3.785-0.036,5.676-0.054
			c2.135-0.019,4.318,0.05,5.669,1.967c0.07,0.104,0.271,0.563,0.516,1.065c0.562,1.166,1.354,5.021,1.313,5.021
			C910.869,767.5,906.5,767.5,901.5,767.5z"/>
		<path fill="#183356" d="M893.361,773.998c-3.466,0-6.285,2.82-6.285,6.285c0,0.156,0.012,0.311,0.023,0.465
			c0.239,3.249,2.953,5.82,6.262,5.82c3.298,0,6.006-2.555,6.26-5.789c0.014-0.164,0.025-0.328,0.025-0.496
			C899.646,776.818,896.827,773.998,893.361,773.998z M893.361,783.931c-1.854,0-3.367-1.388-3.6-3.177
			c-0.021-0.155-0.048-0.31-0.048-0.471c0-2.014,1.632-3.646,3.647-3.646c2.013,0,3.646,1.633,3.646,3.646
			c0,0.168-0.027,0.327-0.049,0.488C896.717,782.553,895.207,783.931,893.361,783.931z"/>
	</g>
</g>
<path fill="#DFF1F2" d="M1280.5,604.5h-276.25c-4.004,0-8.75,1.746-8.75,5.75v0.5c0,4.004,4.746,8.75,8.75,8.75h17.375
	c4.004,0,5.875,1.746,5.875,5.75v0.5c0,4.004-2.746,7.25-6.75,7.25l-28.25-0.125c-4.004,0-8,3.371-8,7.375v0.5
	c0,4.004,4.746,8.75,8.75,8.75h12.5c4.004,0,5.75,1.746,5.75,5.75v0.5c0,4.004-1.746,8.75-5.75,8.75h-2.375
	c-4.004,0-8.875,1.746-8.875,5.75v0.5c0,4.004,4.746,8.75,8.75,8.75h57.375c4.004,0,5.875,1.746,5.875,5.75v0.5
	c0,4.004-1.746,8.75-5.75,8.75h-10.375c-4.004,0-8.875,1.746-8.875,5.75v0.5c0,4.004,3.746,7.25,7.75,7.25l44.5-0.125
	c4.004,0,6.75,3.371,6.75,7.375v0.5c0,4.004-1.746,8.75-5.75,8.75h-1.5c-4.004,0-8.75,1.746-8.75,5.75v0.5
	c0,4.875,4.746,8.75,8.75,8.75h25h5.375c4.004,0,6.875,2.746,6.875,6.75v0.5c0,4.004-2.996,7.25-7,7.25l-30.5-0.125
	c-4.004,0-7.5,3.371-7.5,7.375v0.5c0,4.004,3.746,7.75,7.75,7.75h15.5c4.004,0,6.75,2.746,6.75,6.75v0.5
	c0,4.004-2.746,7.75-6.75,7.75h-2.375c-4.004,0-7.875,2.746-7.875,6.75v0.5c0,4.004,3.746,7.75,7.75,7.75h49.375
	c4.004,0,6.875,2.746,6.875,6.75v0.5c0,4.004-2.746,7.75-6.75,7.75h-4.375c-4.004,0-7.875,2.746-7.875,6.75v0.5
	c0,4.004,3.684,7.75,7.688,7.75H1280.5V604.5z"/>
<g>
	<ellipse fill="#BED77A" cx="177.619" cy="675.634" rx="10.724" ry="19.132"/>
	<path fill="#183356" d="M172.783,698.576h9.398C182.182,698.576,178.258,694.213,172.783,698.576z"/>
	<g>
		<path fill="#183356" d="M177.78,698.605c-0.22,0-0.396-0.178-0.396-0.398v-30.453c0-0.219,0.177-0.396,0.396-0.396
			s0.396,0.178,0.396,0.396v30.453C178.177,698.428,178,698.605,177.78,698.605z"/>
	</g>
	<g>
		<path fill="#183356" d="M177.725,691.4c-0.062,0-0.127-0.016-0.188-0.049l-5.973-3.201c-0.193-0.104-0.268-0.345-0.163-0.538
			c0.103-0.192,0.345-0.267,0.539-0.161l5.974,3.199c0.192,0.105,0.266,0.346,0.162,0.539
			C178.005,691.323,177.866,691.4,177.725,691.4z"/>
	</g>
	<g>
		<path fill="#183356" d="M178.03,687.418c-0.116,0-0.231-0.051-0.312-0.15c-0.137-0.17-0.107-0.422,0.064-0.558l7.02-5.565
			c0.172-0.137,0.422-0.105,0.557,0.065c0.137,0.171,0.108,0.421-0.063,0.557l-7.019,5.567
			C178.205,687.391,178.117,687.418,178.03,687.418z"/>
	</g>
	<g>
		<path fill="#183356" d="M177.766,682.634c-0.064,0-0.129-0.015-0.188-0.048l-5.575-2.992c-0.193-0.104-0.265-0.344-0.161-0.537
			s0.346-0.268,0.538-0.162l5.574,2.991c0.194,0.104,0.268,0.346,0.162,0.538C178.043,682.558,177.908,682.634,177.766,682.634z"/>
	</g>
	<g>
		<path fill="#183356" d="M177.75,675.717c-0.062,0-0.128-0.016-0.188-0.048l-3.758-2.017c-0.192-0.104-0.266-0.344-0.161-0.537
			c0.104-0.193,0.345-0.266,0.537-0.163l3.757,2.018c0.194,0.103,0.268,0.345,0.163,0.536
			C178.028,675.641,177.891,675.717,177.75,675.717z"/>
	</g>
	<g>
		<path fill="#183356" d="M177.938,678.811c-0.091,0-0.184-0.031-0.261-0.098c-0.165-0.145-0.183-0.395-0.038-0.561l4.148-4.767
			c0.145-0.167,0.395-0.183,0.561-0.038c0.164,0.143,0.183,0.395,0.038,0.56l-4.148,4.769
			C178.16,678.764,178.049,678.811,177.938,678.811z"/>
	</g>
	<g>
		<path fill="#183356" d="M177.948,672.598c-0.091,0-0.185-0.031-0.261-0.098c-0.165-0.143-0.182-0.395-0.038-0.559l3.018-3.468
			c0.145-0.167,0.396-0.183,0.559-0.04c0.166,0.145,0.185,0.396,0.04,0.562l-3.019,3.466
			C178.17,672.551,178.059,672.598,177.948,672.598z"/>
	</g>
</g>
<g>
	<path fill="#183356" d="M778.549,604.243h31.105C809.654,604.243,796.662,589.797,778.549,604.243z"/>
</g>
<path fill="#CFEAEC" d="M305.476,782.5H383c0,0-10.571-9.69-29.953-4.405C353.047,778.095,331.904,761.5,305.476,782.5z"/>
<path fill="#AFDCDF" d="M284.333,784.5h68.714c0,0-14.976-6.168-26.428-3.523C326.619,780.977,304.595,771.5,284.333,784.5z"/>
<rect x="51.28" y="98.507" fill="none" width="1177.441" height="151.49"/>
<text transform="matrix(1 0 0 1 90.0684 135.7549)"><tspan x="0" y="0" fill="#183356" font-family="'Ubuntu-Bold'" font-size="40" letter-spacing="1">LES ÉNERGIES RENOUVELABLES EN PAYS DE LA LOIRE</tspan><tspan x="1100.859" y="0" fill="#183356" font-family="'Ubuntu-Bold'" font-size="48" letter-spacing="1"> </tspan><tspan x="264.468" y="55" fill="#AECD58" font-family="'Ubuntu-Medium'" font-size="33">TOUT CE QUE VOUS DEVEZ SAVOIR</tspan></text>
<path fill="none" stroke="#183356" stroke-width="2" stroke-miterlimit="10" d="M1231,73"/>
<path fill="none" stroke="#183356" stroke-width="2" stroke-miterlimit="10" d="M46,73"/>
<path fill="#CFEAEC" d="M435.957,605.5h259.377c0,0-61.145-62.205-151.824-21.086C543.51,584.414,470.746,571.5,435.957,605.5z"/>
<polygon fill="#183356" points="917.522,650.84 919.714,650.836 903.121,636.209 885.683,650.836 887.875,650.84 903.121,638.406 
	"/>
<g>
	<g>
		<path fill="#7A1E72" d="M127.964,767.578h-0.505c-0.045,0-0.062-0.043-0.083-0.084l-0.597-1.108h-0.059
			c-0.107,0-0.273-0.013-0.369-0.017v1.125c0,0.047-0.031,0.084-0.078,0.084h-0.415c-0.046,0-0.082-0.037-0.082-0.084v-2.853
			c0-0.084,0.049-0.112,0.132-0.124c0.216-0.034,0.511-0.056,0.812-0.056c0.64,0,1.195,0.229,1.195,0.938v0.038
			c0,0.438-0.221,0.713-0.56,0.846l0.651,1.211c0.009,0.012,0.009,0.024,0.009,0.033
			C128.015,767.557,127.997,767.578,127.964,767.578 M127.343,765.399c0-0.312-0.209-0.443-0.623-0.443
			c-0.086,0-0.293,0.01-0.369,0.017v0.934c0.067,0.004,0.3,0.012,0.369,0.012c0.427,0,0.623-0.117,0.623-0.48V765.399z"/>
		<path fill="#7A1E72" d="M130.261,766.6h-1.353v0.012c0,0.24,0.101,0.526,0.497,0.526c0.304,0,0.589-0.024,0.765-0.04
			c0.004,0,0.006,0,0.011,0c0.042,0,0.077,0.019,0.077,0.059v0.275c0,0.065-0.014,0.096-0.088,0.109
			c-0.27,0.049-0.431,0.068-0.805,0.068c-0.417,0-1.003-0.221-1.003-1.039v-0.308c0-0.647,0.36-1.054,0.993-1.054
			c0.638,0,0.988,0.435,0.988,1.054v0.231C130.344,766.561,130.319,766.6,130.261,766.6 M129.793,766.192
			c0-0.324-0.18-0.511-0.438-0.511c-0.255,0-0.443,0.183-0.443,0.511v0.017h0.881V766.192z M130.037,764.41l-0.491,0.514
			c-0.032,0.037-0.049,0.053-0.098,0.053h-0.357c-0.024,0-0.037-0.011-0.037-0.029c0-0.012,0.003-0.027,0.017-0.04l0.394-0.497
			c0.037-0.047,0.053-0.064,0.108-0.064h0.435c0.029,0,0.046,0.014,0.046,0.029C130.054,764.383,130.048,764.396,130.037,764.41z"/>
		<path fill="#7A1E72" d="M132.866,765.615l-0.136,0.054c0.064,0.097,0.103,0.187,0.103,0.332v0.03c0,0.518-0.357,0.754-0.983,0.754
			c-0.22,0-0.371-0.037-0.45-0.07c-0.051,0.033-0.072,0.07-0.072,0.107c0,0.082,0.044,0.115,0.139,0.136l0.49,0.118
			c0.564,0.133,0.93,0.221,0.93,0.663v0.028c0,0.424-0.312,0.65-1.017,0.65c-0.671,0-1.029-0.254-1.029-0.688v-0.037
			c0-0.171,0.082-0.336,0.212-0.455c-0.115-0.088-0.187-0.233-0.187-0.383v-0.004c0-0.129,0.056-0.258,0.166-0.337
			c-0.124-0.129-0.17-0.278-0.17-0.483v-0.03c0-0.416,0.271-0.763,0.988-0.763h0.971c0.062,0,0.111,0.05,0.111,0.112v0.175
			C132.932,765.585,132.916,765.595,132.866,765.615 M132.338,767.739c0-0.093-0.054-0.146-0.489-0.249l-0.371-0.088
			c-0.06,0.088-0.101,0.142-0.101,0.291v0.037c0,0.17,0.101,0.274,0.492,0.274c0.398,0,0.469-0.088,0.469-0.237V767.739z
			 M132.292,766.008c0-0.197-0.086-0.352-0.443-0.352c-0.352,0-0.448,0.159-0.448,0.352v0.035c0,0.153,0.063,0.326,0.448,0.326
			c0.345,0,0.443-0.119,0.443-0.326V766.008z"/>
		<path fill="#7A1E72" d="M133.889,764.928h-0.4c-0.047,0-0.089-0.039-0.089-0.084v-0.365c0-0.045,0.042-0.082,0.089-0.082h0.4
			c0.048,0,0.084,0.037,0.084,0.082v0.365C133.973,764.889,133.937,764.928,133.889,764.928 M133.877,767.578h-0.38
			c-0.045,0-0.084-0.043-0.084-0.088v-2.17c0-0.046,0.039-0.082,0.084-0.082h0.38c0.045,0,0.083,0.036,0.083,0.082v2.17
			C133.96,767.535,133.922,767.578,133.877,767.578z"/>
		<path fill="#7A1E72" d="M135.515,767.609c-0.651,0-0.991-0.439-0.991-1.031v-0.338c0-0.59,0.34-1.031,0.991-1.031
			c0.651,0,0.99,0.441,0.99,1.031v0.338C136.505,767.17,136.167,767.609,135.515,767.609 M135.958,766.24
			c0-0.34-0.152-0.559-0.442-0.559c-0.289,0-0.443,0.219-0.443,0.559v0.338c0,0.339,0.154,0.56,0.443,0.56
			c0.29,0,0.442-0.221,0.442-0.56V766.24z"/>
		<path fill="#7A1E72" d="M138.893,767.578h-0.383c-0.046,0-0.083-0.043-0.083-0.088v-1.353c0-0.358-0.034-0.464-0.353-0.464
			c-0.141,0-0.294,0.057-0.467,0.148v1.668c0,0.045-0.04,0.088-0.084,0.088h-0.383c-0.046,0-0.082-0.043-0.082-0.088v-2.17
			c0-0.046,0.036-0.082,0.082-0.082h0.362c0.045,0,0.083,0.036,0.083,0.082v0.087c0.241-0.151,0.398-0.198,0.673-0.198
			c0.595,0,0.717,0.403,0.717,0.929v1.353C138.974,767.535,138.936,767.578,138.893,767.578"/>
		<path fill="#005CA5" d="M141.351,770.515c0.01-0.027,0.02-0.046,0.02-0.073c0-0.077-0.066-0.141-0.161-0.141h-1.035
			c-0.083,0-0.151,0.072-0.178,0.15l-1.13,2.805c-0.065,0.158-0.123,0.188-0.168,0.188c-0.038,0-0.094-0.029-0.16-0.188
			l-1.131-2.805c-0.027-0.078-0.093-0.15-0.178-0.15h-1.043c-0.096,0-0.152,0.063-0.152,0.141c0,0.018,0.01,0.046,0.019,0.073
			l0.958,2.202c0.001,0.001,0.002,0.002,0.002,0.005l1.036,2.381v2.001c0,0.104,0.075,0.187,0.179,0.187h0.939
			c0.105,0,0.179-0.083,0.179-0.187v-2.001l0.607-1.394L141.351,770.515"/>
		<path fill="#005CA5" d="M127.922,774.686c-0.244,0-0.622-0.03-0.838-0.039v2.457c0,0.104-0.078,0.187-0.18,0.187h-0.941
			c-0.104,0-0.187-0.083-0.187-0.187v-6.475c0-0.188,0.111-0.256,0.301-0.283c0.49-0.074,1.157-0.123,1.845-0.123
			c1.449,0,2.71,0.512,2.71,2.177v0.083C130.632,774.15,129.371,774.686,127.922,774.686 M129.333,772.399
			c0-0.793-0.471-1.093-1.412-1.093c-0.198,0-0.668,0.019-0.838,0.037v2.238c0.15,0.012,0.677,0.03,0.838,0.03
			c1.016,0,1.412-0.374,1.412-1.13V772.399z"/>
		<path fill="#005CA5" d="M136.174,777.29h-0.998c-0.083,0-0.16-0.072-0.179-0.157l-0.432-1.789H132.4l-0.434,1.789
			c-0.018,0.085-0.093,0.157-0.179,0.157h-0.997c-0.095,0-0.171-0.062-0.171-0.157c0-0.01,0.01-0.029,0.01-0.047l1.545-5.902
			c0.226-0.874,0.904-0.961,1.309-0.961c0.404,0,1.083,0.087,1.309,0.961l1.544,5.902c0,0.018,0.009,0.037,0.009,0.047
			C136.346,777.228,136.268,777.29,136.174,777.29 M133.633,771.476c-0.028-0.112-0.056-0.15-0.15-0.15
			c-0.096,0-0.125,0.038-0.152,0.15l-0.678,2.796h1.657L133.633,771.476z"/>
		<path fill="#005CA5" d="M143.944,777.367c-0.703,0-1.212-0.066-1.663-0.168c-0.095-0.02-0.18-0.086-0.18-0.188v-0.679
			c0-0.104,0.085-0.18,0.18-0.18c0.009,0,0.009,0,0.018,0c0.377,0.049,1.319,0.096,1.667,0.096c0.836,0,1.091-0.301,1.091-0.846
			c0-0.37-0.179-0.557-0.799-0.923l-1.245-0.745c-0.875-0.517-1.11-1.064-1.11-1.724c0-1.034,0.602-1.788,2.354-1.788
			c0.621,0,1.486,0.097,1.806,0.17c0.094,0.019,0.17,0.085,0.17,0.18v0.697c0,0.094-0.067,0.169-0.16,0.169c-0.011,0-0.011,0-0.02,0
			c-0.62-0.058-1.243-0.095-1.854-0.095c-0.696,0-0.987,0.245-0.987,0.667c0,0.312,0.159,0.501,0.771,0.84l1.132,0.63
			c1.034,0.574,1.307,1.175,1.307,1.922C146.422,776.353,145.829,777.367,143.944,777.367"/>
		<path fill="#005CA5" d="M152.004,777.367c-0.67,0-1.573-0.066-1.856-0.111c-0.159-0.028-0.243-0.104-0.243-0.293v-6.334
			c0-0.188,0.084-0.265,0.243-0.291c0.283-0.048,1.186-0.115,1.856-0.115c1.881,0,2.956,1.018,2.956,2.879v1.387
			C154.96,776.353,153.885,777.367,152.004,777.367 M153.659,773.102c0-1.408-0.714-1.776-1.655-1.776
			c-0.348,0-0.594,0.019-0.79,0.026v4.887c0.196,0.01,0.442,0.028,0.79,0.028c0.941,0,1.655-0.366,1.655-1.778V773.102z"/>
		<path fill="#005CA5" d="M159.994,777.236c-0.301,0.047-0.668,0.131-1.788,0.131c-1.225,0-2.175-0.327-2.175-1.929v-3.287
			c0-1.599,0.95-1.929,2.175-1.929c1.12,0,1.487,0.087,1.788,0.132c0.142,0.019,0.19,0.067,0.19,0.198v0.603
			c0,0.104-0.085,0.188-0.19,0.188h-1.922c-0.544,0-0.742,0.188-0.742,0.808v1.019h2.551c0.104,0,0.188,0.084,0.188,0.189v0.677
			c0,0.104-0.084,0.187-0.188,0.187h-2.551v1.216c0,0.622,0.198,0.81,0.742,0.81h1.922c0.104,0,0.19,0.084,0.19,0.188v0.604
			C160.184,777.17,160.136,777.218,159.994,777.236"/>
		<path fill="#005CA5" d="M167.581,777.236c-0.284,0.064-1.1,0.131-1.598,0.131c-1.229,0-2.177-0.327-2.177-1.929v-4.951
			c0-0.103,0.084-0.187,0.188-0.187h0.933c0.103,0,0.188,0.084,0.188,0.187v4.951c0,0.622,0.188,0.81,0.735,0.81h1.73
			c0.103,0,0.189,0.084,0.189,0.188v0.604C167.77,777.17,167.721,777.207,167.581,777.236"/>
		<path fill="#005CA5" d="M173.691,777.29h-0.998c-0.086,0-0.16-0.072-0.181-0.157l-0.43-1.789h-2.167l-0.434,1.789
			c-0.018,0.085-0.094,0.157-0.178,0.157h-0.997c-0.096,0-0.169-0.062-0.169-0.157c0-0.01,0.008-0.029,0.008-0.047l1.543-5.902
			c0.226-0.874,0.902-0.961,1.309-0.961c0.404,0,1.084,0.087,1.309,0.961l1.542,5.902c0,0.018,0.009,0.037,0.009,0.047
			C173.859,777.228,173.784,777.29,173.691,777.29 M171.148,771.476c-0.029-0.112-0.056-0.15-0.15-0.15
			c-0.095,0-0.122,0.038-0.149,0.15l-0.68,2.796h1.657L171.148,771.476z"/>
		<path fill="#005CA5" d="M180.873,777.236c-0.283,0.064-1.102,0.131-1.6,0.131c-1.225,0-2.176-0.327-2.176-1.929v-4.951
			c0-0.103,0.084-0.187,0.189-0.187h0.93c0.106,0,0.188,0.084,0.188,0.187v4.951c0,0.622,0.19,0.81,0.737,0.81h1.731
			c0.103,0,0.187,0.084,0.187,0.188v0.604C181.06,777.17,181.013,777.207,180.873,777.236"/>
		<path fill="#005CA5" d="M184.118,777.367c-1.555,0-2.685-0.865-2.685-2.937v-1.27c0-2.071,1.13-2.938,2.685-2.938
			c1.553,0,2.682,0.867,2.682,2.938v1.27C186.8,776.502,185.671,777.367,184.118,777.367 M185.483,773.161
			c0-1.243-0.443-1.798-1.365-1.798c-0.923,0-1.365,0.555-1.365,1.798v1.27c0,1.245,0.442,1.798,1.365,1.798
			c0.922,0,1.365-0.553,1.365-1.798V773.161z"/>
		<path fill="#005CA5" d="M189.145,777.29h-0.932c-0.105,0-0.189-0.083-0.189-0.187v-6.626c0-0.104,0.084-0.177,0.189-0.177h0.932
			c0.103,0,0.187,0.072,0.187,0.177v6.626C189.332,777.207,189.247,777.29,189.145,777.29"/>
		<path fill="#005CA5" d="M195.713,777.29h-1.15c-0.101,0-0.14-0.091-0.186-0.187l-1.355-2.512h-0.132
			c-0.247,0-0.622-0.029-0.839-0.039v2.551c0,0.104-0.075,0.187-0.178,0.187h-0.939c-0.105,0-0.19-0.083-0.19-0.187v-6.475
			c0-0.188,0.113-0.256,0.301-0.283c0.491-0.074,1.157-0.123,1.846-0.123c1.45,0,2.711,0.52,2.711,2.128v0.085
			c0,0.998-0.5,1.619-1.271,1.919l1.478,2.749c0.018,0.029,0.018,0.059,0.018,0.076C195.826,777.244,195.788,777.29,195.713,777.29
			 M194.303,772.351c0-0.707-0.471-1.007-1.413-1.007c-0.197,0-0.67,0.02-0.839,0.037v2.119c0.15,0.01,0.68,0.028,0.839,0.028
			c0.969,0,1.413-0.265,1.413-1.093V772.351z"/>
		<path fill="#005CA5" d="M200.617,777.236c-0.303,0.047-0.668,0.131-1.79,0.131c-1.224,0-2.175-0.327-2.175-1.929v-3.287
			c0-1.599,0.951-1.929,2.175-1.929c1.121,0,1.487,0.087,1.79,0.132c0.142,0.019,0.188,0.067,0.188,0.198v0.603
			c0,0.104-0.083,0.188-0.188,0.188h-1.922c-0.544,0-0.744,0.188-0.744,0.808v1.019h2.551c0.105,0,0.189,0.084,0.189,0.189v0.677
			c0,0.104-0.084,0.187-0.189,0.187h-2.551v1.216c0,0.622,0.199,0.81,0.744,0.81h1.922c0.104,0,0.188,0.084,0.188,0.188v0.604
			C200.805,777.17,200.759,777.218,200.617,777.236"/>
		<path fill="#009CB9" d="M114.918,773.793c0-5.243-2.034-10.006-5.357-13.582h-4.521c4.075,3.14,6.702,8.053,6.702,13.582
			c0,5.539-2.627,10.449-6.706,13.586h4.524C112.885,783.809,114.918,779.039,114.918,773.793"/>
		<path fill="#BDD143" d="M117.209,773.861c0-5.076-1.614-9.787-4.361-13.65h6.25c2.292,4.037,3.6,8.695,3.6,13.65
			c0,4.906-1.281,9.518-3.52,13.518h-6.245C115.631,783.546,117.209,778.89,117.209,773.861"/>
		<path fill="#009CB9" d="M41.625,775.801h-0.317c-0.061,0-0.11-0.056-0.11-0.125v-4.34c0-0.059,0.043-0.115,0.11-0.115h0.317
			c0.061,0,0.109,0.049,0.109,0.115v4.34C41.734,775.739,41.691,775.801,41.625,775.801"/>
		<path fill="#009CB9" d="M43.499,771.336l-0.353,1.15c-0.024,0.086-0.055,0.116-0.116,0.116h-0.286
			c-0.042,0-0.054-0.024-0.054-0.062c0-0.016,0-0.036,0.006-0.055l0.279-1.15c0.018-0.084,0.061-0.115,0.123-0.115h0.341
			c0.042,0,0.066,0.025,0.066,0.067C43.505,771.301,43.505,771.318,43.499,771.336"/>
		<path fill="#009CB9" d="M46.866,774.297h-2.04v0.084c0,0.725,0.287,0.992,0.847,0.992c0.353,0,0.803-0.025,1.083-0.066
			c0.013,0,0.018,0,0.031,0c0.049,0,0.098,0.023,0.098,0.086v0.205c0,0.078-0.024,0.124-0.122,0.142
			c-0.347,0.065-0.682,0.103-1.089,0.103c-0.7,0-1.382-0.33-1.382-1.461v-0.549c0-0.87,0.481-1.424,1.351-1.424
			c0.889,0,1.339,0.559,1.339,1.424v0.33C46.981,774.24,46.938,774.297,46.866,774.297 M46.439,773.832
			c0-0.689-0.262-0.955-0.798-0.955c-0.523,0-0.815,0.3-0.815,0.955v0.057h1.613V773.832z"/>
		<path fill="#009CB9" d="M48.997,775.842c-0.225,0-0.664-0.019-0.962-0.09c-0.079-0.02-0.128-0.057-0.128-0.125v-0.211
			c0-0.057,0.049-0.093,0.11-0.093c0.012,0,0.019,0,0.024,0c0.292,0.036,0.736,0.069,0.956,0.069c0.395,0,0.603-0.104,0.603-0.434
			c0-0.183-0.11-0.298-0.458-0.506l-0.615-0.367c-0.371-0.223-0.621-0.486-0.621-0.867c0-0.634,0.476-0.811,1.102-0.811
			c0.341,0,0.664,0.029,0.95,0.078c0.079,0.014,0.116,0.055,0.116,0.122v0.201c0,0.073-0.042,0.104-0.104,0.104
			c-0.005,0-0.012,0-0.018,0c-0.213-0.019-0.604-0.049-0.944-0.049s-0.565,0.043-0.565,0.354c0,0.181,0.14,0.297,0.419,0.461
			l0.603,0.36c0.505,0.298,0.669,0.559,0.669,0.919C50.134,775.581,49.678,775.842,48.997,775.842"/>
		<path fill="#009CB9" d="M52.406,775.842c-0.19,0-0.475-0.023-0.712-0.066v1.102c0,0.061-0.049,0.113-0.116,0.113h-0.311
			c-0.061,0-0.11-0.047-0.11-0.113v-4.189c0-0.079,0.019-0.115,0.128-0.139c0.323-0.08,0.749-0.141,1.121-0.141
			c0.907,0,1.327,0.59,1.327,1.504v0.438C53.733,775.307,53.295,775.842,52.406,775.842 M53.197,773.912
			c0-0.639-0.188-1.053-0.791-1.053c-0.256,0-0.542,0.03-0.712,0.061v2.41c0.2,0.037,0.518,0.062,0.712,0.062
			c0.596,0,0.791-0.392,0.791-1.043V773.912z"/>
		<path fill="#009CB9" d="M56.132,772.871c-0.28,0-0.536,0.073-0.84,0.255v2.55c0,0.063-0.055,0.125-0.122,0.125h-0.298
			c-0.062,0-0.116-0.056-0.116-0.125v-3.104c0-0.067,0.048-0.121,0.116-0.121h0.286c0.066,0,0.115,0.054,0.115,0.121v0.127
			c0.305-0.213,0.585-0.291,0.859-0.291c0.084,0,0.128,0.035,0.128,0.109v0.249C56.26,772.833,56.216,772.871,56.132,772.871"/>
		<path fill="#009CB9" d="M57.636,771.914h-0.311c-0.067,0-0.122-0.053-0.122-0.123v-0.484c0-0.068,0.055-0.123,0.122-0.123h0.311
			c0.067,0,0.122,0.055,0.122,0.123v0.484C57.757,771.861,57.703,771.914,57.636,771.914 M57.624,775.801h-0.292
			c-0.067,0-0.123-0.056-0.123-0.125v-3.104c0-0.067,0.056-0.121,0.123-0.121h0.292c0.067,0,0.122,0.054,0.122,0.121v3.104
			C57.746,775.745,57.69,775.801,57.624,775.801z"/>
		<path fill="#009CB9" d="M60.619,775.811c-0.122,0.02-0.281,0.031-0.396,0.031c-0.56,0-0.827-0.146-0.827-0.815v-2.124
			l-0.592-0.069c-0.067-0.005-0.115-0.042-0.115-0.108v-0.164c0-0.068,0.048-0.109,0.115-0.109h0.592v-0.598
			c0-0.062,0.042-0.109,0.108-0.122l0.317-0.048c0.006,0,0.012,0,0.018,0c0.049,0,0.091,0.043,0.091,0.104v0.664h0.658
			c0.067,0,0.121,0.054,0.121,0.121v0.208c0,0.067-0.054,0.122-0.121,0.122h-0.658v2.124c0,0.333,0.085,0.384,0.329,0.384h0.341
			c0.084,0,0.126,0.024,0.126,0.084v0.213C60.728,775.764,60.699,775.801,60.619,775.811"/>
		<path fill="#009CB9" d="M66.068,772.859l-0.219,0.043c0.109,0.113,0.207,0.297,0.207,0.626v0.049c0,0.669-0.414,1.04-1.351,1.04
			c-0.324,0-0.531-0.047-0.708-0.121c-0.104,0.049-0.152,0.116-0.152,0.207c0,0.105,0.048,0.16,0.189,0.195l0.908,0.232
			c0.596,0.152,1.168,0.32,1.168,0.895v0.047c0,0.586-0.39,0.945-1.388,0.945c-0.962,0-1.4-0.373-1.4-0.969v-0.055
			c0-0.342,0.182-0.621,0.383-0.773l-0.042-0.018c-0.196-0.084-0.281-0.286-0.281-0.476v-0.006c0-0.165,0.079-0.341,0.25-0.438
			c-0.188-0.178-0.28-0.396-0.28-0.707v-0.049c0-0.542,0.305-1.077,1.353-1.077h1.333c0.073,0,0.14,0.061,0.14,0.134v0.157
			C66.177,772.822,66.135,772.848,66.068,772.859 M65.574,776.025c0-0.238-0.194-0.337-0.743-0.476l-0.688-0.177
			c-0.176,0.152-0.298,0.303-0.298,0.621v0.055c0,0.342,0.201,0.554,0.877,0.554c0.695,0,0.852-0.192,0.852-0.53V776.025z
			 M65.526,773.528c0-0.364-0.165-0.651-0.821-0.651c-0.683,0-0.822,0.311-0.822,0.651v0.049c0,0.267,0.122,0.622,0.822,0.622
			c0.656,0,0.821-0.256,0.821-0.622V773.528z"/>
		<path fill="#009CB9" d="M68.491,772.871c-0.28,0-0.536,0.073-0.84,0.255v2.55c0,0.063-0.055,0.125-0.121,0.125h-0.3
			c-0.06,0-0.115-0.056-0.115-0.125v-3.104c0-0.067,0.049-0.121,0.115-0.121h0.287c0.067,0,0.115,0.054,0.115,0.121v0.127
			c0.305-0.213,0.584-0.291,0.859-0.291c0.085,0,0.129,0.035,0.129,0.109v0.249C68.62,772.833,68.576,772.871,68.491,772.871"/>
		<path fill="#009CB9" d="M71.548,775.801h-0.281c-0.066,0-0.122-0.056-0.122-0.125v-0.133c-0.292,0.171-0.596,0.299-0.937,0.299
			c-0.518,0-0.993-0.225-0.993-0.986v-0.074c0-0.656,0.384-0.984,1.468-0.984h0.452v-0.244c0-0.511-0.179-0.688-0.653-0.688
			c-0.396,0-0.688,0.025-0.931,0.049c-0.013,0-0.019,0-0.032,0c-0.055,0-0.108-0.019-0.108-0.098v-0.213
			c0-0.065,0.042-0.103,0.127-0.116c0.249-0.043,0.53-0.078,0.943-0.078c0.847,0,1.188,0.425,1.188,1.145v2.123
			C71.668,775.745,71.613,775.801,71.548,775.801 M71.134,774.18h-0.452c-0.737,0-0.932,0.164-0.932,0.597v0.073
			c0,0.438,0.207,0.555,0.559,0.555c0.281,0,0.53-0.086,0.824-0.245V774.18z"/>
		<path fill="#009CB9" d="M75.242,775.801h-0.293c-0.065,0-0.122-0.056-0.122-0.125v-2.002c0-0.614-0.206-0.803-0.669-0.803
			c-0.257,0-0.542,0.096-0.821,0.236v2.568c0,0.063-0.056,0.125-0.123,0.125h-0.298c-0.062,0-0.117-0.056-0.117-0.125v-3.104
			c0-0.067,0.05-0.121,0.117-0.121h0.304c0.067,0,0.117,0.054,0.117,0.121v0.115c0.334-0.188,0.608-0.279,0.967-0.279
			c0.731,0,1.06,0.456,1.06,1.266v2.002C75.364,775.745,75.31,775.801,75.242,775.801"/>
		<path fill="#009CB9" d="M78.834,775.739c-0.377,0.071-0.749,0.103-1.12,0.103c-0.907,0-1.328-0.592-1.328-1.504V773.9
			c0-0.956,0.44-1.492,1.328-1.492c0.188,0,0.474,0.016,0.712,0.061v-1.133c0-0.059,0.048-0.115,0.115-0.115h0.312
			c0.061,0,0.11,0.049,0.11,0.115v4.262C78.963,775.676,78.943,775.722,78.834,775.739 M78.426,772.92
			c-0.201-0.037-0.518-0.043-0.712-0.043c-0.597,0-0.792,0.371-0.792,1.023v0.438c0,0.663,0.188,1.035,0.792,1.035
			c0.206,0,0.505-0.021,0.712-0.037V772.92z"/>
		<path fill="#009CB9" d="M83.144,775.842c-0.895,0-1.352-0.592-1.352-1.487v-0.462c0-0.895,0.457-1.484,1.352-1.484
			c0.896,0,1.358,0.59,1.358,1.484v0.462C84.502,775.25,84.04,775.842,83.144,775.842 M83.967,773.893
			c0-0.619-0.25-1.016-0.823-1.016c-0.566,0-0.815,0.39-0.815,1.016v0.462c0,0.622,0.245,1.019,0.815,1.019
			c0.566,0,0.823-0.39,0.823-1.019V773.893z"/>
		<path fill="#009CB9" d="M87.972,775.801h-0.304c-0.066,0-0.117-0.056-0.117-0.125v-0.114c-0.334,0.19-0.608,0.28-0.967,0.28
			c-0.73,0-1.059-0.456-1.059-1.266v-2.004c0-0.067,0.055-0.121,0.123-0.121h0.292c0.067,0,0.122,0.054,0.122,0.121v2.004
			c0,0.614,0.206,0.803,0.668,0.803c0.257,0,0.543-0.096,0.822-0.237v-2.569c0-0.061,0.056-0.121,0.124-0.121h0.297
			c0.06,0,0.117,0.054,0.117,0.121v3.104C88.089,775.745,88.039,775.801,87.972,775.801"/>
		<path fill="#009CB9" d="M91.789,772.598l-0.822,2.896c-0.079,0.275-0.285,0.348-0.547,0.348c-0.263,0-0.47-0.072-0.547-0.348
			l-0.824-2.896c-0.004-0.02-0.004-0.031-0.004-0.043c0-0.062,0.035-0.104,0.096-0.104h0.335c0.049,0,0.09,0.035,0.116,0.115
			l0.7,2.654c0.037,0.146,0.067,0.178,0.128,0.178c0.054,0,0.09-0.031,0.128-0.178l0.699-2.654c0.025-0.08,0.067-0.115,0.116-0.115
			h0.335c0.061,0,0.098,0.041,0.098,0.104C91.796,772.566,91.796,772.578,91.789,772.598"/>
		<path fill="#009CB9" d="M95.095,774.297h-2.039v0.084c0,0.725,0.286,0.992,0.845,0.992c0.355,0,0.804-0.025,1.084-0.066
			c0.013,0,0.019,0,0.031,0c0.049,0,0.098,0.023,0.098,0.086v0.205c0,0.078-0.024,0.124-0.122,0.142
			c-0.345,0.065-0.682,0.103-1.091,0.103c-0.698,0-1.381-0.33-1.381-1.461v-0.549c0-0.87,0.481-1.424,1.352-1.424
			c0.889,0,1.339,0.559,1.339,1.424v0.33C95.21,774.24,95.168,774.297,95.095,774.297 M94.669,773.832
			c0-0.689-0.262-0.955-0.797-0.955c-0.523,0-0.816,0.3-0.816,0.955v0.057h1.613V773.832z"/>
		<path fill="#009CB9" d="M97.622,772.871c-0.28,0-0.535,0.073-0.84,0.255v2.55c0,0.063-0.054,0.125-0.123,0.125h-0.297
			c-0.061,0-0.116-0.056-0.116-0.125v-3.104c0-0.067,0.05-0.121,0.116-0.121h0.288c0.066,0,0.115,0.054,0.115,0.121v0.127
			c0.304-0.213,0.583-0.291,0.857-0.291c0.085,0,0.128,0.035,0.128,0.109v0.249C97.75,772.833,97.707,772.871,97.622,772.871"/>
		<path fill="#009CB9" d="M100.3,775.811c-0.121,0.02-0.278,0.031-0.395,0.031c-0.56,0-0.829-0.146-0.829-0.815v-2.124l-0.59-0.069
			c-0.068-0.005-0.115-0.042-0.115-0.108v-0.164c0-0.068,0.047-0.109,0.115-0.109h0.59v-0.598c0-0.062,0.042-0.109,0.109-0.122
			l0.316-0.048c0.007,0,0.012,0,0.019,0c0.049,0,0.091,0.043,0.091,0.104v0.664h0.659c0.065,0,0.121,0.054,0.121,0.121v0.208
			c0,0.067-0.055,0.122-0.121,0.122h-0.659v2.124c0,0.333,0.085,0.384,0.329,0.384h0.341c0.086,0,0.127,0.024,0.127,0.084v0.213
			C100.41,775.764,100.379,775.801,100.3,775.811"/>
	</g>
</g>
<polygon opacity="0.5" fill="#F9F6F5" points="797.112,753.883 814.082,736.584 818.572,736.498 801.609,753.795 "/>
<polygon opacity="0.5" fill="#F9F6F5" points="744.112,753.883 761.082,736.584 765.572,736.498 748.609,753.795 "/>
<polygon opacity="0.5" fill="#F9F6F5" points="781.112,724.883 798.082,707.584 802.572,707.498 785.609,724.795 "/>
</svg>
