<?xml version="1.0" encoding="utf-8"?>
<!-- Generator: Adobe Illustrator 16.0.0, SVG Export Plug-In . SVG Version: 6.00 Build 0)  -->
<!DOCTYPE svg PUBLIC "-//W3C//DTD SVG 1.1//EN" "http://www.w3.org/Graphics/SVG/1.1/DTD/svg11.dtd">
<svg version="1.1" id="Calque_1" xmlns="http://www.w3.org/2000/svg" xmlns:xlink="http://www.w3.org/1999/xlink" x="0px" y="0px"
	 width="1280px" height="800px" viewBox="0 0 1280 800" enable-background="new 0 0 1280 800" xml:space="preserve">
<rect x="-0.5" y="-1.5" fill="#F7FBFC" width="1280" height="798"/>
<rect x="56.997" y="88.268" fill="none" width="1166.006" height="116"/>
<text transform="matrix(1 0 0 1 272.5869 116.9785)" fill="#183356" font-family="'Ubuntu-Medium'" font-size="30">LA </text>
<text transform="matrix(1 0 0 1 318.3657 116.9785)" fill="#ED796B" font-family="'Ubuntu-Bold'" font-size="37">PRODUCTION </text>
<text transform="matrix(1 0 0 1 574.5342 116.9785)" fill="#183356" font-family="'Ubuntu-Medium'" font-size="30">D’ÉNERGIES RENOUVELABLES </text>
<text transform="matrix(1 0 0 1 455.5 156.9785)" fill="#183356" font-family="'Ubuntu-Medium'" font-size="30">DE LA RÉGION ALIMENTE : </text>
<g>
	<g>
		<path fill="#7A1E72" d="M127.964,763.578h-0.505c-0.045,0-0.062-0.043-0.083-0.084l-0.597-1.109h-0.059
			c-0.107,0-0.273-0.012-0.369-0.016v1.125c0,0.047-0.031,0.084-0.078,0.084h-0.415c-0.046,0-0.082-0.037-0.082-0.084v-2.854
			c0-0.084,0.049-0.111,0.132-0.125c0.216-0.032,0.511-0.055,0.812-0.055c0.64,0,1.195,0.229,1.195,0.938v0.038
			c0,0.438-0.221,0.713-0.56,0.846l0.651,1.211c0.009,0.012,0.009,0.023,0.009,0.033
			C128.015,763.556,127.997,763.578,127.964,763.578 M127.343,761.399c0-0.312-0.209-0.443-0.623-0.443
			c-0.086,0-0.293,0.009-0.369,0.016v0.935c0.067,0.005,0.3,0.013,0.369,0.013c0.427,0,0.623-0.117,0.623-0.479V761.399z"/>
		<path fill="#7A1E72" d="M130.261,762.6h-1.353v0.013c0,0.239,0.101,0.525,0.497,0.525c0.304,0,0.589-0.023,0.765-0.041
			c0.004,0,0.006,0,0.011,0c0.042,0,0.077,0.021,0.077,0.062v0.273c0,0.065-0.014,0.097-0.088,0.109
			c-0.27,0.049-0.431,0.068-0.805,0.068c-0.417,0-1.003-0.223-1.003-1.039v-0.309c0-0.646,0.36-1.054,0.993-1.054
			c0.638,0,0.988,0.435,0.988,1.054v0.231C130.344,762.561,130.319,762.6,130.261,762.6 M129.793,762.191
			c0-0.323-0.18-0.511-0.438-0.511c-0.255,0-0.443,0.184-0.443,0.511v0.018h0.881V762.191z M130.037,760.409l-0.491,0.514
			c-0.032,0.038-0.049,0.054-0.098,0.054h-0.357c-0.024,0-0.037-0.012-0.037-0.028c0-0.013,0.003-0.027,0.017-0.04l0.394-0.498
			c0.037-0.046,0.053-0.063,0.108-0.063h0.435c0.029,0,0.046,0.015,0.046,0.029C130.054,760.383,130.048,760.396,130.037,760.409z"
			/>
		<path fill="#7A1E72" d="M132.866,761.615l-0.136,0.054c0.064,0.097,0.103,0.188,0.103,0.332v0.029
			c0,0.518-0.357,0.755-0.983,0.755c-0.22,0-0.371-0.038-0.45-0.07c-0.051,0.032-0.072,0.07-0.072,0.107
			c0,0.082,0.044,0.114,0.139,0.136l0.49,0.118c0.564,0.133,0.93,0.22,0.93,0.662v0.028c0,0.425-0.312,0.65-1.017,0.65
			c-0.671,0-1.029-0.254-1.029-0.688v-0.036c0-0.171,0.082-0.335,0.212-0.455c-0.115-0.087-0.187-0.233-0.187-0.383v-0.004
			c0-0.129,0.056-0.258,0.166-0.337c-0.124-0.13-0.17-0.277-0.17-0.483v-0.029c0-0.416,0.271-0.763,0.988-0.763h0.971
			c0.062,0,0.111,0.049,0.111,0.11v0.175C132.932,761.585,132.916,761.595,132.866,761.615 M132.338,763.738
			c0-0.092-0.054-0.146-0.489-0.249l-0.371-0.087c-0.06,0.087-0.101,0.143-0.101,0.29v0.036c0,0.172,0.101,0.274,0.492,0.274
			c0.398,0,0.469-0.087,0.469-0.236V763.738z M132.292,762.008c0-0.197-0.086-0.352-0.443-0.352c-0.352,0-0.448,0.158-0.448,0.352
			v0.035c0,0.153,0.063,0.326,0.448,0.326c0.345,0,0.443-0.119,0.443-0.326V762.008z"/>
		<path fill="#7A1E72" d="M133.889,760.928h-0.4c-0.047,0-0.089-0.039-0.089-0.085v-0.364c0-0.045,0.042-0.082,0.089-0.082h0.4
			c0.048,0,0.084,0.037,0.084,0.082v0.364C133.973,760.889,133.937,760.928,133.889,760.928 M133.877,763.578h-0.38
			c-0.045,0-0.084-0.043-0.084-0.089v-2.169c0-0.046,0.039-0.082,0.084-0.082h0.38c0.045,0,0.083,0.036,0.083,0.082v2.169
			C133.96,763.535,133.922,763.578,133.877,763.578z"/>
		<path fill="#7A1E72" d="M135.515,763.609c-0.651,0-0.991-0.439-0.991-1.031v-0.338c0-0.591,0.34-1.031,0.991-1.031
			s0.99,0.44,0.99,1.031v0.338C136.505,763.17,136.167,763.609,135.515,763.609 M135.958,762.24c0-0.34-0.152-0.56-0.442-0.56
			c-0.289,0-0.443,0.22-0.443,0.56v0.338c0,0.339,0.154,0.56,0.443,0.56c0.29,0,0.442-0.221,0.442-0.56V762.24z"/>
		<path fill="#7A1E72" d="M138.893,763.578h-0.383c-0.046,0-0.083-0.043-0.083-0.089v-1.354c0-0.357-0.034-0.463-0.353-0.463
			c-0.141,0-0.294,0.056-0.467,0.148v1.667c0,0.046-0.04,0.089-0.084,0.089h-0.383c-0.046,0-0.082-0.043-0.082-0.089v-2.169
			c0-0.046,0.036-0.082,0.082-0.082h0.362c0.045,0,0.083,0.036,0.083,0.082v0.087c0.241-0.152,0.398-0.198,0.673-0.198
			c0.595,0,0.717,0.403,0.717,0.928v1.354C138.974,763.535,138.936,763.578,138.893,763.578"/>
		<path fill="#005CA5" d="M141.351,766.515c0.01-0.026,0.02-0.047,0.02-0.072c0-0.077-0.066-0.142-0.161-0.142h-1.035
			c-0.083,0-0.151,0.073-0.178,0.149l-1.13,2.805c-0.065,0.159-0.123,0.188-0.168,0.188c-0.038,0-0.094-0.029-0.16-0.188
			l-1.131-2.805c-0.027-0.076-0.093-0.149-0.178-0.149h-1.043c-0.096,0-0.152,0.063-0.152,0.142c0,0.018,0.01,0.046,0.019,0.072
			l0.958,2.202c0.001,0.001,0.002,0.002,0.002,0.004l1.036,2.381v2.003c0,0.104,0.075,0.187,0.179,0.187h0.939
			c0.105,0,0.179-0.083,0.179-0.187v-2.003l0.607-1.393L141.351,766.515"/>
		<path fill="#005CA5" d="M127.922,770.685c-0.244,0-0.622-0.028-0.838-0.038v2.457c0,0.104-0.078,0.188-0.18,0.188h-0.941
			c-0.104,0-0.187-0.083-0.187-0.188v-6.475c0-0.188,0.111-0.255,0.301-0.283c0.49-0.074,1.157-0.123,1.845-0.123
			c1.449,0,2.71,0.512,2.71,2.177v0.084C130.632,770.149,129.371,770.685,127.922,770.685 M129.333,768.398
			c0-0.792-0.471-1.093-1.412-1.093c-0.198,0-0.668,0.02-0.838,0.037v2.239c0.15,0.011,0.677,0.028,0.838,0.028
			c1.016,0,1.412-0.374,1.412-1.129V768.398z"/>
		<path fill="#005CA5" d="M136.174,773.29h-0.998c-0.083,0-0.16-0.072-0.179-0.157l-0.432-1.789H132.4l-0.434,1.789
			c-0.018,0.085-0.093,0.157-0.179,0.157h-0.997c-0.095,0-0.171-0.063-0.171-0.157c0-0.01,0.01-0.029,0.01-0.047l1.545-5.902
			c0.226-0.874,0.904-0.961,1.309-0.961c0.404,0,1.083,0.087,1.309,0.961l1.544,5.902c0,0.018,0.009,0.037,0.009,0.047
			C136.346,773.227,136.268,773.29,136.174,773.29 M133.633,767.475c-0.028-0.11-0.056-0.148-0.15-0.148
			c-0.096,0-0.125,0.038-0.152,0.148l-0.678,2.797h1.657L133.633,767.475z"/>
		<path fill="#005CA5" d="M143.944,773.367c-0.703,0-1.212-0.066-1.663-0.169c-0.095-0.02-0.18-0.085-0.18-0.188v-0.679
			c0-0.104,0.085-0.18,0.18-0.18c0.009,0,0.009,0,0.018,0c0.377,0.049,1.319,0.096,1.667,0.096c0.836,0,1.091-0.302,1.091-0.846
			c0-0.37-0.179-0.558-0.799-0.923l-1.245-0.745c-0.875-0.518-1.11-1.064-1.11-1.725c0-1.034,0.602-1.788,2.354-1.788
			c0.621,0,1.486,0.098,1.806,0.17c0.094,0.02,0.17,0.085,0.17,0.181v0.696c0,0.095-0.067,0.17-0.16,0.17c-0.011,0-0.011,0-0.02,0
			c-0.62-0.059-1.243-0.096-1.854-0.096c-0.696,0-0.987,0.244-0.987,0.667c0,0.312,0.159,0.501,0.771,0.839l1.132,0.631
			c1.034,0.574,1.307,1.176,1.307,1.923C146.422,772.354,145.829,773.367,143.944,773.367"/>
		<path fill="#005CA5" d="M152.004,773.367c-0.67,0-1.573-0.066-1.856-0.112c-0.159-0.028-0.243-0.103-0.243-0.292v-6.334
			c0-0.188,0.084-0.265,0.243-0.291c0.283-0.048,1.186-0.115,1.856-0.115c1.881,0,2.956,1.019,2.956,2.879v1.388
			C154.96,772.354,153.885,773.367,152.004,773.367 M153.659,769.102c0-1.408-0.714-1.775-1.655-1.775
			c-0.348,0-0.594,0.019-0.79,0.025v4.888c0.196,0.01,0.442,0.027,0.79,0.027c0.941,0,1.655-0.365,1.655-1.777V769.102z"/>
		<path fill="#005CA5" d="M159.994,773.236c-0.301,0.046-0.668,0.131-1.788,0.131c-1.225,0-2.175-0.327-2.175-1.928v-3.288
			c0-1.6,0.95-1.93,2.175-1.93c1.12,0,1.487,0.087,1.788,0.132c0.142,0.021,0.19,0.067,0.19,0.198v0.603
			c0,0.104-0.085,0.188-0.19,0.188h-1.922c-0.544,0-0.742,0.188-0.742,0.809v1.019h2.551c0.104,0,0.188,0.084,0.188,0.189v0.677
			c0,0.104-0.084,0.187-0.188,0.187h-2.551v1.218c0,0.62,0.198,0.809,0.742,0.809h1.922c0.104,0,0.19,0.084,0.19,0.188v0.604
			C160.184,773.17,160.136,773.218,159.994,773.236"/>
		<path fill="#005CA5" d="M167.581,773.236c-0.284,0.063-1.1,0.131-1.598,0.131c-1.229,0-2.177-0.327-2.177-1.928v-4.952
			c0-0.104,0.084-0.188,0.188-0.188h0.933c0.103,0,0.188,0.083,0.188,0.188v4.952c0,0.62,0.188,0.809,0.735,0.809h1.73
			c0.103,0,0.189,0.084,0.189,0.188v0.604C167.77,773.17,167.721,773.207,167.581,773.236"/>
		<path fill="#005CA5" d="M173.691,773.29h-0.998c-0.086,0-0.16-0.072-0.181-0.157l-0.43-1.789h-2.167l-0.434,1.789
			c-0.018,0.085-0.094,0.157-0.178,0.157h-0.997c-0.096,0-0.169-0.063-0.169-0.157c0-0.01,0.008-0.029,0.008-0.047l1.543-5.902
			c0.226-0.874,0.902-0.961,1.309-0.961c0.404,0,1.084,0.087,1.309,0.961l1.542,5.902c0,0.018,0.009,0.037,0.009,0.047
			C173.859,773.227,173.784,773.29,173.691,773.29 M171.148,767.475c-0.029-0.11-0.056-0.148-0.15-0.148
			c-0.095,0-0.122,0.038-0.149,0.148l-0.68,2.797h1.657L171.148,767.475z"/>
		<path fill="#005CA5" d="M180.873,773.236c-0.283,0.063-1.102,0.131-1.6,0.131c-1.225,0-2.176-0.327-2.176-1.928v-4.952
			c0-0.104,0.084-0.188,0.189-0.188h0.93c0.106,0,0.188,0.083,0.188,0.188v4.952c0,0.62,0.19,0.809,0.737,0.809h1.731
			c0.103,0,0.187,0.084,0.187,0.188v0.604C181.06,773.17,181.013,773.207,180.873,773.236"/>
		<path fill="#005CA5" d="M184.118,773.367c-1.555,0-2.685-0.865-2.685-2.938v-1.271c0-2.07,1.13-2.938,2.685-2.938
			c1.553,0,2.682,0.867,2.682,2.938v1.271C186.8,772.502,185.671,773.367,184.118,773.367 M185.483,769.16
			c0-1.242-0.443-1.797-1.365-1.797c-0.923,0-1.365,0.555-1.365,1.797v1.271c0,1.244,0.442,1.798,1.365,1.798
			c0.922,0,1.365-0.554,1.365-1.798V769.16z"/>
		<path fill="#005CA5" d="M189.145,773.29h-0.932c-0.105,0-0.189-0.083-0.189-0.188v-6.626c0-0.104,0.084-0.177,0.189-0.177h0.932
			c0.103,0,0.187,0.073,0.187,0.177v6.626C189.332,773.207,189.247,773.29,189.145,773.29"/>
		<path fill="#005CA5" d="M195.713,773.29h-1.15c-0.101,0-0.14-0.092-0.186-0.188l-1.355-2.512h-0.132
			c-0.247,0-0.622-0.029-0.839-0.039v2.551c0,0.104-0.075,0.188-0.178,0.188h-0.939c-0.105,0-0.19-0.083-0.19-0.188v-6.475
			c0-0.188,0.113-0.255,0.301-0.283c0.491-0.073,1.157-0.123,1.846-0.123c1.45,0,2.711,0.521,2.711,2.128v0.085
			c0,0.997-0.5,1.619-1.271,1.921l1.478,2.747c0.018,0.029,0.018,0.06,0.018,0.076C195.826,773.244,195.788,773.29,195.713,773.29
			 M194.303,768.351c0-0.706-0.471-1.007-1.413-1.007c-0.197,0-0.67,0.021-0.839,0.037v2.119c0.15,0.01,0.68,0.028,0.839,0.028
			c0.969,0,1.413-0.266,1.413-1.094V768.351z"/>
		<path fill="#005CA5" d="M200.617,773.236c-0.303,0.046-0.668,0.131-1.79,0.131c-1.224,0-2.175-0.327-2.175-1.928v-3.288
			c0-1.6,0.951-1.93,2.175-1.93c1.121,0,1.487,0.087,1.79,0.132c0.142,0.021,0.188,0.067,0.188,0.198v0.603
			c0,0.104-0.083,0.188-0.188,0.188h-1.922c-0.544,0-0.744,0.188-0.744,0.809v1.019h2.551c0.105,0,0.189,0.084,0.189,0.189v0.677
			c0,0.104-0.084,0.187-0.189,0.187h-2.551v1.218c0,0.62,0.199,0.809,0.744,0.809h1.922c0.104,0,0.188,0.084,0.188,0.188v0.604
			C200.805,773.17,200.759,773.218,200.617,773.236"/>
		<path fill="#009CB9" d="M114.918,769.793c0-5.243-2.034-10.006-5.357-13.582h-4.521c4.075,3.141,6.702,8.053,6.702,13.582
			c0,5.539-2.627,10.449-6.706,13.586h4.524C112.885,779.808,114.918,775.038,114.918,769.793"/>
		<path fill="#BDD143" d="M117.209,769.861c0-5.076-1.614-9.787-4.361-13.65h6.25c2.292,4.037,3.6,8.694,3.6,13.65
			c0,4.905-1.281,9.518-3.52,13.518h-6.245C115.631,779.545,117.209,774.89,117.209,769.861"/>
		<path fill="#009CB9" d="M41.625,771.8h-0.317c-0.061,0-0.11-0.056-0.11-0.124v-4.34c0-0.06,0.043-0.115,0.11-0.115h0.317
			c0.061,0,0.109,0.049,0.109,0.115v4.34C41.734,771.738,41.691,771.8,41.625,771.8"/>
		<path fill="#009CB9" d="M43.499,767.336l-0.353,1.15c-0.024,0.086-0.055,0.114-0.116,0.114h-0.286
			c-0.042,0-0.054-0.022-0.054-0.061c0-0.017,0-0.036,0.006-0.055l0.279-1.15c0.018-0.084,0.061-0.115,0.123-0.115h0.341
			c0.042,0,0.066,0.025,0.066,0.066C43.505,767.301,43.505,767.318,43.499,767.336"/>
		<path fill="#009CB9" d="M46.866,770.297h-2.04v0.084c0,0.725,0.287,0.992,0.847,0.992c0.353,0,0.803-0.025,1.083-0.066
			c0.013,0,0.018,0,0.031,0c0.049,0,0.098,0.023,0.098,0.086v0.205c0,0.078-0.024,0.123-0.122,0.142
			c-0.347,0.065-0.682,0.104-1.089,0.104c-0.7,0-1.382-0.33-1.382-1.461v-0.549c0-0.87,0.481-1.424,1.351-1.424
			c0.889,0,1.339,0.559,1.339,1.424v0.33C46.981,770.24,46.938,770.297,46.866,770.297 M46.439,769.832
			c0-0.689-0.262-0.955-0.798-0.955c-0.523,0-0.815,0.3-0.815,0.955v0.056h1.613V769.832z"/>
		<path fill="#009CB9" d="M48.997,771.842c-0.225,0-0.664-0.019-0.962-0.09c-0.079-0.02-0.128-0.057-0.128-0.125v-0.211
			c0-0.057,0.049-0.093,0.11-0.093c0.012,0,0.019,0,0.024,0c0.292,0.036,0.736,0.068,0.956,0.068c0.395,0,0.603-0.104,0.603-0.434
			c0-0.183-0.11-0.298-0.458-0.506l-0.615-0.367c-0.371-0.223-0.621-0.486-0.621-0.867c0-0.634,0.476-0.811,1.102-0.811
			c0.341,0,0.664,0.028,0.95,0.078c0.079,0.014,0.116,0.055,0.116,0.122v0.2c0,0.073-0.042,0.104-0.104,0.104
			c-0.005,0-0.012,0-0.018,0c-0.213-0.02-0.604-0.049-0.944-0.049c-0.34,0-0.565,0.043-0.565,0.354c0,0.182,0.14,0.297,0.419,0.461
			l0.603,0.36c0.505,0.298,0.669,0.559,0.669,0.919C50.134,771.58,49.678,771.842,48.997,771.842"/>
		<path fill="#009CB9" d="M52.406,771.842c-0.19,0-0.475-0.023-0.712-0.065v1.102c0,0.062-0.049,0.113-0.116,0.113h-0.311
			c-0.061,0-0.11-0.047-0.11-0.113v-4.188c0-0.079,0.019-0.115,0.128-0.14c0.323-0.081,0.749-0.141,1.121-0.141
			c0.907,0,1.327,0.59,1.327,1.504v0.438C53.733,771.307,53.295,771.842,52.406,771.842 M53.197,769.912
			c0-0.641-0.188-1.053-0.791-1.053c-0.256,0-0.542,0.028-0.712,0.06v2.411c0.2,0.037,0.518,0.062,0.712,0.062
			c0.596,0,0.791-0.392,0.791-1.043V769.912z"/>
		<path fill="#009CB9" d="M56.132,768.871c-0.28,0-0.536,0.073-0.84,0.255v2.55c0,0.062-0.055,0.124-0.122,0.124h-0.298
			c-0.062,0-0.116-0.056-0.116-0.124v-3.104c0-0.067,0.048-0.122,0.116-0.122h0.286c0.066,0,0.115,0.055,0.115,0.122v0.127
			c0.305-0.213,0.585-0.291,0.859-0.291c0.084,0,0.128,0.035,0.128,0.107v0.249C56.26,768.833,56.216,768.871,56.132,768.871"/>
		<path fill="#009CB9" d="M57.636,767.915h-0.311c-0.067,0-0.122-0.055-0.122-0.123v-0.485c0-0.067,0.055-0.123,0.122-0.123h0.311
			c0.067,0,0.122,0.056,0.122,0.123v0.485C57.757,767.86,57.703,767.915,57.636,767.915 M57.624,771.8h-0.292
			c-0.067,0-0.123-0.056-0.123-0.124v-3.104c0-0.067,0.056-0.122,0.123-0.122h0.292c0.067,0,0.122,0.055,0.122,0.122v3.104
			C57.746,771.744,57.69,771.8,57.624,771.8z"/>
		<path fill="#009CB9" d="M60.619,771.811c-0.122,0.021-0.281,0.031-0.396,0.031c-0.56,0-0.827-0.146-0.827-0.814v-2.124
			l-0.592-0.069c-0.067-0.005-0.115-0.042-0.115-0.108v-0.163c0-0.068,0.048-0.11,0.115-0.11h0.592v-0.597
			c0-0.062,0.042-0.109,0.108-0.122l0.317-0.048c0.006,0,0.012,0,0.018,0c0.049,0,0.091,0.043,0.091,0.103v0.664h0.658
			c0.067,0,0.121,0.055,0.121,0.122v0.208c0,0.067-0.054,0.122-0.121,0.122H59.93v2.124c0,0.333,0.085,0.383,0.329,0.383H60.6
			c0.084,0,0.126,0.025,0.126,0.085v0.214C60.728,771.764,60.699,771.8,60.619,771.811"/>
		<path fill="#009CB9" d="M66.068,768.859l-0.219,0.043c0.109,0.112,0.207,0.297,0.207,0.626v0.049c0,0.669-0.414,1.04-1.351,1.04
			c-0.324,0-0.531-0.047-0.708-0.122c-0.104,0.05-0.152,0.117-0.152,0.208c0,0.104,0.048,0.159,0.189,0.195l0.908,0.231
			c0.596,0.151,1.168,0.32,1.168,0.896v0.047c0,0.586-0.39,0.944-1.388,0.944c-0.962,0-1.4-0.372-1.4-0.969v-0.055
			c0-0.342,0.182-0.621,0.383-0.774l-0.042-0.017c-0.196-0.085-0.281-0.286-0.281-0.477v-0.007c0-0.164,0.079-0.34,0.25-0.438
			c-0.188-0.178-0.28-0.396-0.28-0.706v-0.049c0-0.542,0.305-1.078,1.353-1.078h1.333c0.073,0,0.14,0.062,0.14,0.135v0.157
			C66.177,768.822,66.135,768.848,66.068,768.859 M65.574,772.025c0-0.239-0.194-0.337-0.743-0.477l-0.688-0.177
			c-0.176,0.152-0.298,0.303-0.298,0.621v0.055c0,0.342,0.201,0.555,0.877,0.555c0.695,0,0.852-0.193,0.852-0.53V772.025z
			 M65.526,769.528c0-0.364-0.165-0.651-0.821-0.651c-0.683,0-0.822,0.311-0.822,0.651v0.049c0,0.267,0.122,0.621,0.822,0.621
			c0.656,0,0.821-0.255,0.821-0.621V769.528z"/>
		<path fill="#009CB9" d="M68.491,768.871c-0.28,0-0.536,0.073-0.84,0.255v2.55c0,0.062-0.055,0.124-0.121,0.124h-0.3
			c-0.06,0-0.115-0.056-0.115-0.124v-3.104c0-0.067,0.049-0.122,0.115-0.122h0.287c0.067,0,0.115,0.055,0.115,0.122v0.127
			c0.305-0.213,0.584-0.291,0.859-0.291c0.085,0,0.129,0.035,0.129,0.107v0.249C68.62,768.833,68.576,768.871,68.491,768.871"/>
		<path fill="#009CB9" d="M71.548,771.8h-0.281c-0.066,0-0.122-0.056-0.122-0.124v-0.133c-0.292,0.17-0.596,0.299-0.937,0.299
			c-0.518,0-0.993-0.225-0.993-0.984v-0.075c0-0.656,0.384-0.985,1.468-0.985h0.452v-0.244c0-0.51-0.179-0.688-0.653-0.688
			c-0.396,0-0.688,0.023-0.931,0.049c-0.013,0-0.019,0-0.032,0c-0.055,0-0.108-0.02-0.108-0.098v-0.215
			c0-0.063,0.042-0.102,0.127-0.114c0.249-0.043,0.53-0.078,0.943-0.078c0.847,0,1.188,0.425,1.188,1.144v2.124
			C71.668,771.744,71.613,771.8,71.548,771.8 M71.134,770.18h-0.452c-0.737,0-0.932,0.164-0.932,0.598v0.072
			c0,0.438,0.207,0.556,0.559,0.556c0.281,0,0.53-0.087,0.824-0.245L71.134,770.18L71.134,770.18z"/>
		<path fill="#009CB9" d="M75.242,771.8h-0.293c-0.065,0-0.122-0.056-0.122-0.124v-2.002c0-0.614-0.206-0.803-0.669-0.803
			c-0.257,0-0.542,0.096-0.821,0.236v2.567c0,0.062-0.056,0.124-0.123,0.124h-0.298c-0.062,0-0.117-0.056-0.117-0.124v-3.104
			c0-0.067,0.05-0.122,0.117-0.122h0.304c0.067,0,0.117,0.055,0.117,0.122v0.114c0.334-0.188,0.608-0.278,0.967-0.278
			c0.731,0,1.06,0.456,1.06,1.266v2.002C75.364,771.744,75.31,771.8,75.242,771.8"/>
		<path fill="#009CB9" d="M78.834,771.738c-0.377,0.071-0.749,0.104-1.12,0.104c-0.907,0-1.328-0.591-1.328-1.504V769.9
			c0-0.956,0.44-1.492,1.328-1.492c0.188,0,0.474,0.016,0.712,0.06v-1.132c0-0.06,0.048-0.115,0.115-0.115h0.312
			c0.061,0,0.11,0.049,0.11,0.115v4.262C78.963,771.676,78.943,771.721,78.834,771.738 M78.426,768.919
			c-0.201-0.036-0.518-0.042-0.712-0.042c-0.597,0-0.792,0.371-0.792,1.023v0.438c0,0.663,0.188,1.035,0.792,1.035
			c0.206,0,0.505-0.021,0.712-0.037V768.919z"/>
		<path fill="#009CB9" d="M83.144,771.842c-0.895,0-1.352-0.591-1.352-1.486v-0.463c0-0.895,0.457-1.483,1.352-1.483
			c0.896,0,1.358,0.59,1.358,1.483v0.463C84.502,771.251,84.04,771.842,83.144,771.842 M83.967,769.893
			c0-0.619-0.25-1.016-0.823-1.016c-0.566,0-0.815,0.39-0.815,1.016v0.464c0,0.62,0.245,1.018,0.815,1.018
			c0.566,0,0.823-0.39,0.823-1.018V769.893z"/>
		<path fill="#009CB9" d="M87.972,771.8h-0.304c-0.066,0-0.117-0.056-0.117-0.124v-0.114c-0.334,0.19-0.608,0.28-0.967,0.28
			c-0.73,0-1.059-0.456-1.059-1.266v-2.004c0-0.067,0.055-0.122,0.123-0.122h0.292c0.067,0,0.122,0.055,0.122,0.122v2.004
			c0,0.614,0.206,0.803,0.668,0.803c0.257,0,0.543-0.097,0.822-0.237v-2.568c0-0.062,0.056-0.122,0.124-0.122h0.297
			c0.06,0,0.117,0.055,0.117,0.122v3.104C88.089,771.744,88.039,771.8,87.972,771.8"/>
		<path fill="#009CB9" d="M91.789,768.597l-0.822,2.897c-0.079,0.274-0.285,0.348-0.547,0.348c-0.263,0-0.47-0.072-0.547-0.348
			l-0.824-2.897c-0.004-0.019-0.004-0.029-0.004-0.042c0-0.062,0.035-0.104,0.096-0.104h0.335c0.049,0,0.09,0.036,0.116,0.116
			l0.7,2.652c0.037,0.147,0.067,0.179,0.128,0.179c0.054,0,0.09-0.03,0.128-0.179l0.699-2.652c0.025-0.08,0.067-0.116,0.116-0.116
			h0.335c0.061,0,0.098,0.042,0.098,0.104C91.796,768.566,91.796,768.578,91.789,768.597"/>
		<path fill="#009CB9" d="M95.095,770.297h-2.039v0.084c0,0.725,0.286,0.992,0.845,0.992c0.355,0,0.804-0.025,1.084-0.066
			c0.013,0,0.019,0,0.031,0c0.049,0,0.098,0.023,0.098,0.086v0.205c0,0.078-0.024,0.123-0.122,0.142
			c-0.345,0.065-0.682,0.104-1.091,0.104c-0.698,0-1.381-0.33-1.381-1.461v-0.549c0-0.87,0.481-1.424,1.352-1.424
			c0.889,0,1.339,0.559,1.339,1.424v0.33C95.21,770.24,95.168,770.297,95.095,770.297 M94.669,769.832
			c0-0.689-0.262-0.955-0.797-0.955c-0.523,0-0.816,0.3-0.816,0.955v0.056h1.613V769.832z"/>
		<path fill="#009CB9" d="M97.622,768.871c-0.28,0-0.535,0.073-0.84,0.255v2.55c0,0.062-0.054,0.124-0.123,0.124h-0.297
			c-0.061,0-0.116-0.056-0.116-0.124v-3.104c0-0.067,0.05-0.122,0.116-0.122h0.288c0.066,0,0.115,0.055,0.115,0.122v0.127
			c0.304-0.213,0.583-0.291,0.857-0.291c0.085,0,0.128,0.035,0.128,0.107v0.249C97.75,768.833,97.707,768.871,97.622,768.871"/>
		<path fill="#009CB9" d="M100.3,771.811c-0.121,0.021-0.278,0.031-0.395,0.031c-0.56,0-0.829-0.146-0.829-0.814v-2.124l-0.59-0.069
			c-0.068-0.005-0.115-0.042-0.115-0.108v-0.163c0-0.068,0.047-0.11,0.115-0.11h0.59v-0.597c0-0.062,0.042-0.109,0.109-0.122
			l0.316-0.048c0.007,0,0.012,0,0.019,0c0.049,0,0.091,0.043,0.091,0.103v0.664h0.659c0.065,0,0.121,0.055,0.121,0.122v0.208
			c0,0.067-0.055,0.122-0.121,0.122h-0.659v2.124c0,0.333,0.085,0.383,0.329,0.383h0.341c0.086,0,0.127,0.025,0.127,0.085v0.214
			C100.41,771.764,100.379,771.8,100.3,771.811"/>
	</g>
</g>
</svg>
