<?xml version="1.0" encoding="utf-8"?>
<!-- Generator: Adobe Illustrator 16.0.0, SVG Export Plug-In . SVG Version: 6.00 Build 0)  -->
<!DOCTYPE svg PUBLIC "-//W3C//DTD SVG 1.1//EN" "http://www.w3.org/Graphics/SVG/1.1/DTD/svg11.dtd">
<svg version="1.1" id="Calque_1" xmlns="http://www.w3.org/2000/svg" xmlns:xlink="http://www.w3.org/1999/xlink" x="0px" y="0px"
	 width="1280px" height="800px" viewBox="0 0 1280 800" enable-background="new 0 0 1280 800" xml:space="preserve">
<g id="Calque_2">
	<rect y="-2" fill="#F7FBFC" width="1280" height="798"/>
</g>
<g id="Calque_1_1_">
	<path fill="#BFE3E5" d="M534.602,388h-172.33c0,0,24.573-48.291,79.792-19.734C442.062,368.266,502.846,359,534.602,388z"/>
	<g>
		<path fill="#183356" d="M427.921,389.198v-14.221h-1.812v-77.281c0,0-2.892,1.252-6.622,0.29v77.282h-2.02v14.065
			c0,0-0.428,5.853,5.39,5.853C428.417,395.188,427.921,389.198,427.921,389.198z"/>
	</g>
	<g>
		<path fill="#183356" d="M517.505,389.198v-14.221h-1.811v-77.281c0,0-2.892,1.252-6.621,0.29v77.282h-2.021v14.065
			c0,0-0.431,5.853,5.388,5.853C518.001,395.188,517.505,389.198,517.505,389.198z"/>
	</g>
	<path fill="#CFEAEC" d="M387.347,389.599c0,0,12.94-27.404,72.316-14.462c0,0,31.688-42.438,105.529,13.894L387.347,389.599z"/>
	<path fill="#7A8C3A" d="M735.651,352h169.406c0,0-39.936-40.628-99.161-13.771C805.896,338.229,758.373,332,735.651,352z"/>
	<path fill="#CEE19B" d="M726.367,369h169.408c0,0-39.938-51.168-99.162-17.346C796.613,351.654,749.087,342,726.367,369z"/>
	<path fill="#183356" d="M727.539,371.291c0,0,22.287-15.875,54.951-11.905c32.664,3.971,65.856,17.603,75.099,2.139
		c9.24-15.465,51.897-15.876,58.003,0.916c6.105,16.79,4.58,40.602,4.58,40.602l-180.728-2.747L727.539,371.291z"/>
	<g>
		<polygon fill="#183356" points="720.036,288.572 720.036,376.912 761.636,376.912 761.636,288.572 740.837,267.723 		"/>
		<rect x="726.341" y="297.043" fill="#F2EDEC" width="5.441" height="11.611"/>
		<rect x="737.95" y="297.043" fill="#F2EDEC" width="5.439" height="11.611"/>
		<rect x="749.557" y="297.043" fill="#F2EDEC" width="5.444" height="11.611"/>
		<rect x="726.341" y="316.875" fill="#F2EDEC" width="5.441" height="11.609"/>
		<rect x="737.95" y="316.875" fill="#F2EDEC" width="5.439" height="11.609"/>
		<rect x="749.557" y="316.875" fill="#F2EDEC" width="5.444" height="11.609"/>
		<rect x="726.341" y="336.707" fill="#F2EDEC" width="5.441" height="11.608"/>
		<rect x="737.95" y="336.707" fill="#F2EDEC" width="5.439" height="11.608"/>
		<rect x="749.557" y="336.707" fill="#F2EDEC" width="5.444" height="11.608"/>
		<rect x="726.341" y="356.541" fill="#F2EDEC" width="5.441" height="11.605"/>
		<rect x="737.95" y="356.541" fill="#F2EDEC" width="5.439" height="11.605"/>
		<rect x="749.557" y="356.541" fill="#F2EDEC" width="5.444" height="11.605"/>
	</g>
	<g>
		<polygon fill="#183356" points="770.452,257.278 770.452,376.912 803.832,376.912 803.832,239.694 		"/>
		<rect x="774.427" y="265.052" fill="#F2EDEC" width="3.267" height="9.312"/>
		<rect x="781.683" y="265.052" fill="#F2EDEC" width="3.268" height="9.312"/>
		<rect x="788.939" y="265.052" fill="#F2EDEC" width="3.266" height="9.312"/>
		<rect x="796.192" y="265.052" fill="#F2EDEC" width="3.268" height="9.312"/>
		<rect x="774.427" y="278.355" fill="#F2EDEC" width="3.267" height="9.311"/>
		<rect x="781.683" y="278.355" fill="#F2EDEC" width="3.268" height="9.311"/>
		<rect x="788.939" y="278.355" fill="#F2EDEC" width="3.266" height="9.311"/>
		<rect x="796.192" y="278.355" fill="#F2EDEC" width="3.268" height="9.311"/>
		<rect x="774.427" y="291.657" fill="#F2EDEC" width="3.267" height="9.312"/>
		<rect x="781.683" y="291.657" fill="#F2EDEC" width="3.268" height="9.312"/>
		<rect x="788.939" y="291.657" fill="#F2EDEC" width="3.266" height="9.312"/>
		<rect x="796.192" y="291.657" fill="#F2EDEC" width="3.268" height="9.312"/>
		<rect x="774.427" y="304.961" fill="#F2EDEC" width="3.267" height="9.312"/>
		<rect x="781.683" y="304.961" fill="#F2EDEC" width="3.268" height="9.312"/>
		<rect x="788.939" y="304.961" fill="#F2EDEC" width="3.266" height="9.312"/>
		<rect x="796.192" y="304.961" fill="#F2EDEC" width="3.268" height="9.312"/>
		<rect x="774.427" y="318.264" fill="#F2EDEC" width="3.267" height="9.312"/>
		<rect x="781.683" y="318.264" fill="#F2EDEC" width="3.268" height="9.312"/>
		<rect x="788.939" y="318.264" fill="#F2EDEC" width="3.266" height="9.312"/>
		<rect x="796.192" y="318.264" fill="#F2EDEC" width="3.268" height="9.312"/>
		<rect x="774.427" y="331.567" fill="#F2EDEC" width="3.267" height="9.31"/>
		<rect x="781.683" y="331.567" fill="#F2EDEC" width="3.268" height="9.31"/>
		<rect x="788.939" y="331.567" fill="#F2EDEC" width="3.266" height="9.31"/>
		<rect x="796.192" y="331.567" fill="#F2EDEC" width="3.268" height="9.31"/>
		<rect x="774.427" y="344.867" fill="#F2EDEC" width="3.267" height="9.313"/>
		<rect x="781.683" y="344.867" fill="#F2EDEC" width="3.268" height="9.313"/>
		<rect x="788.939" y="344.867" fill="#F2EDEC" width="3.266" height="9.313"/>
		<rect x="796.192" y="344.867" fill="#F2EDEC" width="3.268" height="9.313"/>
		<rect x="774.427" y="358.171" fill="#F2EDEC" width="3.267" height="9.312"/>
		<rect x="781.683" y="358.171" fill="#F2EDEC" width="3.268" height="9.312"/>
		<rect x="788.939" y="358.171" fill="#F2EDEC" width="3.266" height="9.312"/>
		<rect x="796.192" y="358.171" fill="#F2EDEC" width="3.268" height="9.312"/>
	</g>
	<g>
		<rect x="801.887" y="271.601" fill="#183356" width="29.024" height="105.311"/>
		<rect x="806.724" y="280.168" fill="#F2EDEC" width="19.108" height="4.597"/>
		<rect x="806.724" y="289.356" fill="#F2EDEC" width="19.108" height="4.597"/>
		<rect x="806.724" y="298.545" fill="#F2EDEC" width="19.108" height="4.598"/>
		<rect x="806.724" y="307.737" fill="#F2EDEC" width="19.108" height="4.595"/>
		<rect x="806.724" y="316.928" fill="#F2EDEC" width="19.108" height="4.596"/>
		<rect x="806.724" y="326.118" fill="#F2EDEC" width="19.108" height="4.596"/>
		<rect x="806.724" y="335.307" fill="#F2EDEC" width="19.108" height="4.597"/>
		<rect x="806.724" y="344.498" fill="#F2EDEC" width="19.108" height="4.596"/>
		<rect x="806.724" y="353.688" fill="#F2EDEC" width="19.108" height="4.597"/>
		<rect x="806.724" y="362.88" fill="#F2EDEC" width="19.108" height="4.592"/>
	</g>
	<g>
		<rect x="790.604" y="278.441" fill="#183356" width="26.774" height="104"/>
		<rect x="800.193" y="286.13" fill="#F2EDEC" width="2.237" height="6.587"/>
		<rect x="804.159" y="286.13" fill="#F2EDEC" width="2.237" height="6.587"/>
		<rect x="808.124" y="286.13" fill="#F2EDEC" width="2.238" height="6.587"/>
		<rect x="812.09" y="286.13" fill="#F2EDEC" width="2.236" height="6.587"/>
		<rect x="800.193" y="294.412" fill="#F2EDEC" width="2.237" height="6.588"/>
		<rect x="804.159" y="294.412" fill="#F2EDEC" width="2.237" height="6.588"/>
		<rect x="808.124" y="294.412" fill="#F2EDEC" width="2.238" height="6.588"/>
		<rect x="812.09" y="294.412" fill="#F2EDEC" width="2.236" height="6.588"/>
		<rect x="800.193" y="302.694" fill="#F2EDEC" width="2.237" height="6.588"/>
		<rect x="804.159" y="302.694" fill="#F2EDEC" width="2.237" height="6.588"/>
		<rect x="808.124" y="302.694" fill="#F2EDEC" width="2.238" height="6.588"/>
		<rect x="812.09" y="302.694" fill="#F2EDEC" width="2.236" height="6.588"/>
		<rect x="800.193" y="310.976" fill="#F2EDEC" width="2.237" height="6.589"/>
		<rect x="804.159" y="310.976" fill="#F2EDEC" width="2.237" height="6.589"/>
		<rect x="808.124" y="310.976" fill="#F2EDEC" width="2.238" height="6.589"/>
		<rect x="812.09" y="310.976" fill="#F2EDEC" width="2.236" height="6.589"/>
		<rect x="800.193" y="319.258" fill="#F2EDEC" width="2.237" height="6.588"/>
		<rect x="804.159" y="319.258" fill="#F2EDEC" width="2.237" height="6.588"/>
		<rect x="808.124" y="319.258" fill="#F2EDEC" width="2.238" height="6.588"/>
		<rect x="812.09" y="319.258" fill="#F2EDEC" width="2.236" height="6.588"/>
		<rect x="800.193" y="327.541" fill="#F2EDEC" width="2.237" height="6.586"/>
		<rect x="804.159" y="327.541" fill="#F2EDEC" width="2.237" height="6.586"/>
		<rect x="808.124" y="327.541" fill="#F2EDEC" width="2.238" height="6.586"/>
		<rect x="812.09" y="327.541" fill="#F2EDEC" width="2.236" height="6.586"/>
		<rect x="800.193" y="335.823" fill="#F2EDEC" width="2.237" height="6.586"/>
		<rect x="804.159" y="335.823" fill="#F2EDEC" width="2.237" height="6.586"/>
		<rect x="808.124" y="335.823" fill="#F2EDEC" width="2.238" height="6.586"/>
		<rect x="812.09" y="335.823" fill="#F2EDEC" width="2.236" height="6.586"/>
		<rect x="800.193" y="344.104" fill="#F2EDEC" width="2.237" height="6.588"/>
		<rect x="804.159" y="344.104" fill="#F2EDEC" width="2.237" height="6.588"/>
		<rect x="808.124" y="344.104" fill="#F2EDEC" width="2.238" height="6.588"/>
		<rect x="812.09" y="344.104" fill="#F2EDEC" width="2.236" height="6.588"/>
		<rect x="800.193" y="352.387" fill="#F2EDEC" width="2.237" height="6.588"/>
		<rect x="804.159" y="352.387" fill="#F2EDEC" width="2.237" height="6.588"/>
		<rect x="808.124" y="352.387" fill="#F2EDEC" width="2.238" height="6.588"/>
		<rect x="812.09" y="352.387" fill="#F2EDEC" width="2.236" height="6.588"/>
		<rect x="800.193" y="360.67" fill="#F2EDEC" width="2.237" height="6.581"/>
		<rect x="804.159" y="360.67" fill="#F2EDEC" width="2.237" height="6.581"/>
		<rect x="808.124" y="360.67" fill="#F2EDEC" width="2.238" height="6.581"/>
		<rect x="812.09" y="360.67" fill="#F2EDEC" width="2.236" height="6.581"/>
		<rect x="800.193" y="368.945" fill="#F2EDEC" width="2.237" height="6.588"/>
		<rect x="804.159" y="368.945" fill="#F2EDEC" width="2.237" height="6.588"/>
		<rect x="808.124" y="368.945" fill="#F2EDEC" width="2.238" height="6.588"/>
		<rect x="812.09" y="368.945" fill="#F2EDEC" width="2.236" height="6.588"/>
	</g>
	<g>
		<path fill="#AECD58" d="M499.41,358.008c0,12.917-5.869,23.392-13.112,23.392c-7.242,0-13.112-10.475-13.112-23.392
			c0-12.922,5.87-23.396,13.112-23.396C493.541,334.612,499.41,345.086,499.41,358.008z"/>
		<g>
			<path fill="#183356" d="M486.496,386.091c-0.268,0-0.484-0.217-0.484-0.484v-37.232c0-0.27,0.217-0.485,0.484-0.485
				c0.269,0,0.485,0.217,0.485,0.485v37.232C486.981,385.874,486.765,386.091,486.496,386.091z"/>
		</g>
		<g>
			<path fill="#183356" d="M486.426,377.283c-0.075,0-0.152-0.021-0.227-0.062l-7.305-3.913c-0.234-0.128-0.326-0.42-0.197-0.656
				c0.125-0.237,0.42-0.327,0.658-0.199l7.303,3.914c0.235,0.128,0.326,0.42,0.199,0.658
				C486.772,377.188,486.602,377.283,486.426,377.283z"/>
		</g>
		<g>
			<path fill="#183356" d="M486.802,372.415c-0.144,0-0.285-0.063-0.38-0.185c-0.167-0.209-0.133-0.519,0.078-0.682l8.582-6.806
				c0.212-0.167,0.516-0.131,0.682,0.079c0.167,0.209,0.13,0.516-0.079,0.683l-8.579,6.806
				C487.017,372.381,486.907,372.415,486.802,372.415z"/>
		</g>
		<g>
			<path fill="#183356" d="M486.479,366.564c-0.077,0-0.156-0.021-0.23-0.058l-6.817-3.66c-0.235-0.127-0.321-0.42-0.196-0.656
				c0.127-0.235,0.423-0.324,0.658-0.199l6.816,3.659c0.237,0.129,0.326,0.424,0.198,0.657
				C486.818,366.47,486.652,366.564,486.479,366.564z"/>
		</g>
		<g>
			<path fill="#183356" d="M486.458,358.109c-0.076,0-0.155-0.021-0.228-0.062l-4.597-2.465c-0.233-0.126-0.325-0.42-0.194-0.655
				c0.123-0.236,0.42-0.323,0.656-0.199l4.592,2.468c0.238,0.125,0.328,0.42,0.197,0.656
				C486.8,358.014,486.632,358.109,486.458,358.109z"/>
		</g>
		<g>
			<path fill="#183356" d="M486.688,361.891c-0.11,0-0.223-0.041-0.316-0.118c-0.204-0.177-0.225-0.484-0.047-0.686l5.073-5.829
				c0.175-0.205,0.479-0.225,0.685-0.049c0.2,0.178,0.222,0.483,0.047,0.685l-5.073,5.831
				C486.962,361.835,486.824,361.891,486.688,361.891z"/>
		</g>
		<g>
			<path fill="#183356" d="M486.702,354.295c-0.113,0-0.228-0.039-0.318-0.12c-0.201-0.175-0.223-0.482-0.047-0.685l3.689-4.238
				c0.175-0.205,0.482-0.224,0.684-0.048c0.205,0.176,0.226,0.483,0.048,0.685l-3.689,4.238
				C486.973,354.235,486.836,354.295,486.702,354.295z"/>
		</g>
	</g>
	<g>
		<g id="Layer_3_6_">
			<path fill="#EB6A5B" d="M454.146,363.514h-1.507c-0.195,0-0.356-0.157-0.356-0.354c0-0.197,0.161-0.354,0.356-0.354h1.507
				c0.194,0,0.353,0.157,0.353,0.354C454.499,363.355,454.342,363.514,454.146,363.514z"/>
			<g>
				<path fill="#183356" d="M458.672,368.688c-4.854,0-8.8,3.504-8.8,8.357c0,2.327,0.922,4.45,2.599,5.984
					c1.628,1.489,3.829,2.31,6.201,2.31c2.374,0,4.575-0.819,6.204-2.31c1.676-1.535,2.6-3.657,2.6-5.984
					C467.476,372.19,463.525,368.688,458.672,368.688z M458.672,380.796c-2.065,0-3.75-1.685-3.75-3.751s1.685-3.75,3.75-3.75
					c2.067,0,3.751,1.684,3.751,3.75S460.74,380.796,458.672,380.796z"/>
				<path fill="#183356" d="M440.562,373.234c-3.436,0-6.23,2.798-6.23,6.231c0,1.646,0.653,3.153,1.84,4.237
					c1.151,1.055,2.712,1.635,4.391,1.635c1.681,0,3.24-0.58,4.393-1.635c1.187-1.084,1.839-2.591,1.839-4.237
					C446.795,376.032,444.001,373.234,440.562,373.234z M440.562,382.11c-1.456,0-2.642-1.188-2.642-2.645
					c0-1.456,1.186-2.643,2.642-2.643c1.46,0,2.644,1.187,2.644,2.643C443.207,380.924,442.022,382.11,440.562,382.11z"/>
				<path fill="#04A1AF" d="M451.821,370.367c1.807-1.683,4.242-2.607,6.852-2.607c1.76,0,3.438,0.422,4.901,1.21
					c0.003,0.003,0.012,0.005,0.019,0.009c0.134,0.099,0.304,0.148,0.48,0.134c0.392-0.035,0.682-0.382,0.647-0.775
					c-0.008-0.074-0.67-7.479-0.794-8.935c-0.196-2.299-1.855-2.299-2.481-2.299h-9.624c-0.859,0-2.452,0-2.942,2.438
					c-0.275,1.37-0.885,4.253-1.353,6.455c-2.473,0-4.792,0-6.579,0v-3.608c0-0.522-0.427-0.95-0.953-0.95
					c-0.525,0-0.953,0.428-0.953,0.95v3.608c-0.913,0-1.491,0-1.605,0c-2.756,0-3.607,5.923-2.09,8.578
					c1.308-1.393,3.164-2.267,5.221-2.267c3.6,0,6.587,2.674,7.084,6.138h1.398c-0.069-0.457-0.105-0.926-0.105-1.399
					C448.943,374.463,449.967,372.092,451.821,370.367z M462.506,359.525c0.08,0.909,0.366,4.15,0.573,6.47
					c-1.129,0-3.301,0-5.923,0v-7.464h4.289C462.141,358.531,462.425,358.57,462.506,359.525z M450.276,359.822
					c0.26-1.291,0.748-1.291,1.544-1.291h4.191v7.464c-2.209,0-4.656,0-7.033,0C449.479,363.668,450.079,360.795,450.276,359.822z"
					/>
			</g>
		</g>
	</g>
	<path fill="none" stroke="#183356" stroke-width="17.3481" stroke-miterlimit="10" d="M810.843,520.821
		c0,94.853-76.896,171.748-171.751,171.748c-94.869,0-171.764-76.896-171.764-171.748c0-94.853,76.895-171.746,171.764-171.746
		C733.947,349.075,810.843,425.97,810.843,520.821z"/>
	<path fill="none" d="M810.752,521c0,94.247-76.404,170.65-170.652,170.65c-94.268,0-170.67-76.403-170.67-170.65
		c0-94.25,76.402-170.65,170.67-170.65C734.348,350.35,810.752,426.75,810.752,521z"/>
	
		<text transform="matrix(0.8758 -0.4827 0.4827 0.8758 555.8125 372.5596)" fill="#E8E8E8" font-family="'MyriadPro-Regular'" font-size="22.3804">.</text>
	
		<text transform="matrix(0.8758 -0.4827 0.4827 0.8758 563.0342 368.6758)" fill="#E8E8E8" font-family="'MyriadPro-Regular'" font-size="22.3804">.</text>
	
		<text transform="matrix(0.8758 -0.4827 0.4827 0.8758 570.4316 365.1484)" fill="#E8E8E8" font-family="'MyriadPro-Regular'" font-size="22.3804">.</text>
	
		<text transform="matrix(0.8758 -0.4827 0.4827 0.8758 577.96 361.9932)" fill="#E8E8E8" font-family="'MyriadPro-Regular'" font-size="22.3804">.</text>
	
		<text transform="matrix(0.8758 -0.4827 0.4827 0.8758 585.667 359.1924)" fill="#E8E8E8" font-family="'MyriadPro-Regular'" font-size="22.3804">.</text>
	
		<text transform="matrix(0.8758 -0.4827 0.4827 0.8758 593.4814 356.7744)" fill="#E8E8E8" font-family="'MyriadPro-Regular'" font-size="22.3804">.</text>
	
		<text transform="matrix(0.8758 -0.4827 0.4827 0.8758 601.4189 354.7324)" fill="#E8E8E8" font-family="'MyriadPro-Regular'" font-size="22.3804">.</text>
	
		<text transform="matrix(0.8758 -0.4827 0.4827 0.8758 609.4375 353.0762)" fill="#E8E8E8" font-family="'MyriadPro-Regular'" font-size="22.3804">.</text>
	
		<text transform="matrix(0.8758 -0.4827 0.4827 0.8758 617.5225 351.8086)" fill="#E8E8E8" font-family="'MyriadPro-Regular'" font-size="22.3804">.</text>
	
		<text transform="matrix(0.8758 -0.4827 0.4827 0.8758 625.6641 350.9326)" fill="#E8E8E8" font-family="'MyriadPro-Regular'" font-size="22.3804">.</text>
	
		<text transform="matrix(0.8758 -0.4827 0.4827 0.8758 633.8477 350.4424)" fill="#E8E8E8" font-family="'MyriadPro-Regular'" font-size="22.3804">.</text>
	
		<text transform="matrix(0.8758 -0.4827 0.4827 0.8758 642.041 350.3418)" fill="#E8E8E8" font-family="'MyriadPro-Regular'" font-size="22.3804">.</text>
	
		<text transform="matrix(0.8758 -0.4827 0.4827 0.8758 650.1963 350.625)" fill="#E8E8E8" font-family="'MyriadPro-Regular'" font-size="22.3804">.</text>
	
		<text transform="matrix(0.8758 -0.4827 0.4827 0.8758 658.3701 351.2979)" fill="#E8E8E8" font-family="'MyriadPro-Regular'" font-size="22.3804">.</text>
	
		<text transform="matrix(0.8758 -0.4827 0.4827 0.8758 666.501 352.3613)" fill="#E8E8E8" font-family="'MyriadPro-Regular'" font-size="22.3804">.</text>
	
		<text transform="matrix(0.8758 -0.4827 0.4827 0.8758 674.5557 353.8105)" fill="#E8E8E8" font-family="'MyriadPro-Regular'" font-size="22.3804">.</text>
	
		<text transform="matrix(0.8758 -0.4827 0.4827 0.8758 682.54 355.6514)" fill="#E8E8E8" font-family="'MyriadPro-Regular'" font-size="22.3804">.</text>
	
		<text transform="matrix(0.8758 -0.4827 0.4827 0.8758 690.4111 357.8691)" fill="#E8E8E8" font-family="'MyriadPro-Regular'" font-size="22.3804">.</text>
	
		<text transform="matrix(0.8758 -0.4827 0.4827 0.8758 698.1553 360.4609)" fill="#E8E8E8" font-family="'MyriadPro-Regular'" font-size="22.3804">.</text>
	
		<text transform="matrix(0.8758 -0.4827 0.4827 0.8758 705.793 363.4336)" fill="#E8E8E8" font-family="'MyriadPro-Regular'" font-size="22.3804">.</text>
	
		<text transform="matrix(0.8758 -0.4827 0.4827 0.8758 713.2754 366.7715)" fill="#E8E8E8" font-family="'MyriadPro-Regular'" font-size="22.3804">.</text>
	
		<text transform="matrix(0.8758 -0.4827 0.4827 0.8758 720.5918 370.4688)" fill="#E8E8E8" font-family="'MyriadPro-Regular'" font-size="22.3804">.</text>
	
		<text transform="matrix(0.8758 -0.4827 0.4827 0.8758 727.7041 374.5029)" fill="#E8E8E8" font-family="'MyriadPro-Regular'" font-size="22.3804">.</text>
	
		<text transform="matrix(0.8758 -0.4827 0.4827 0.8758 734.6279 378.8818)" fill="#E8E8E8" font-family="'MyriadPro-Regular'" font-size="22.3804">.</text>
	
		<text transform="matrix(0.8758 -0.4827 0.4827 0.8758 741.3213 383.5771)" fill="#E8E8E8" font-family="'MyriadPro-Regular'" font-size="22.3804">.</text>
	
		<text transform="matrix(0.8758 -0.4827 0.4827 0.8758 747.7998 388.6025)" fill="#E8E8E8" font-family="'MyriadPro-Regular'" font-size="22.3804">.</text>
	
		<text transform="matrix(0.8758 -0.4827 0.4827 0.8758 754.0264 393.9248)" fill="#E8E8E8" font-family="'MyriadPro-Regular'" font-size="22.3804">.</text>
	
		<text transform="matrix(0.8758 -0.4827 0.4827 0.8758 759.9902 399.5371)" fill="#E8E8E8" font-family="'MyriadPro-Regular'" font-size="22.3804">.</text>
	
		<text transform="matrix(0.8758 -0.4827 0.4827 0.8758 765.6797 405.4287)" fill="#E8E8E8" font-family="'MyriadPro-Regular'" font-size="22.3804">.</text>
	
		<text transform="matrix(0.8758 -0.4827 0.4827 0.8758 771.084 411.5859)" fill="#E8E8E8" font-family="'MyriadPro-Regular'" font-size="22.3804">.</text>
	
		<text transform="matrix(0.8758 -0.4827 0.4827 0.8758 776.1748 417.9775)" fill="#E8E8E8" font-family="'MyriadPro-Regular'" font-size="22.3804">.</text>
	
		<text transform="matrix(0.8758 -0.4827 0.4827 0.8758 780.96 424.6113)" fill="#E8E8E8" font-family="'MyriadPro-Regular'" font-size="22.3804">.</text>
	
		<text transform="matrix(0.8758 -0.4827 0.4827 0.8758 785.4287 431.4795)" fill="#E8E8E8" font-family="'MyriadPro-Regular'" font-size="22.3804">.</text>
	
		<text transform="matrix(0.8758 -0.4827 0.4827 0.8758 789.5596 438.5439)" fill="#E8E8E8" font-family="'MyriadPro-Regular'" font-size="22.3804">.</text>
	
		<text transform="matrix(0.8758 -0.4827 0.4827 0.8758 793.3555 445.8203)" fill="#E8E8E8" font-family="'MyriadPro-Regular'" font-size="22.3804">.</text>
	
		<text transform="matrix(0.8758 -0.4827 0.4827 0.8758 796.7812 453.2363)" fill="#E8E8E8" font-family="'MyriadPro-Regular'" font-size="22.3804">.</text>
	
		<text transform="matrix(0.8758 -0.4827 0.4827 0.8758 799.8604 460.8428)" fill="#E8E8E8" font-family="'MyriadPro-Regular'" font-size="22.3804">.</text>
	
		<text transform="matrix(0.8758 -0.4827 0.4827 0.8758 802.5566 468.5635)" fill="#E8E8E8" font-family="'MyriadPro-Regular'" font-size="22.3804">.</text>
	
		<text transform="matrix(0.8758 -0.4827 0.4827 0.8758 804.8818 476.4189)" fill="#E8E8E8" font-family="'MyriadPro-Regular'" font-size="22.3804">.</text>
	
		<text transform="matrix(0.8758 -0.4827 0.4827 0.8758 806.8223 484.3623)" fill="#E8E8E8" font-family="'MyriadPro-Regular'" font-size="22.3804">.</text>
	
		<text transform="matrix(0.8758 -0.4827 0.4827 0.8758 808.3809 492.417)" fill="#E8E8E8" font-family="'MyriadPro-Regular'" font-size="22.3804">.</text>
	
		<text transform="matrix(0.8758 -0.4827 0.4827 0.8758 809.5449 500.501)" fill="#E8E8E8" font-family="'MyriadPro-Regular'" font-size="22.3804">.</text>
	
		<text transform="matrix(0.8758 -0.4827 0.4827 0.8758 810.3252 508.6729)" fill="#E8E8E8" font-family="'MyriadPro-Regular'" font-size="22.3804">.</text>
	
		<text transform="matrix(0.8758 -0.4827 0.4827 0.8758 810.6992 516.8496)" fill="#E8E8E8" font-family="'MyriadPro-Regular'" font-size="22.3804">.</text>
	
		<text transform="matrix(0.8758 -0.4827 0.4827 0.8758 810.7158 525.0342)" fill="#E8E8E8" font-family="'MyriadPro-Regular'" font-size="22.3804">.</text>
	
		<text transform="matrix(0.8758 -0.4827 0.4827 0.8758 810.333 533.2012)" fill="#E8E8E8" font-family="'MyriadPro-Regular'" font-size="22.3804">.</text>
	
		<text transform="matrix(0.8758 -0.4827 0.4827 0.8758 809.5605 541.3652)" fill="#E8E8E8" font-family="'MyriadPro-Regular'" font-size="22.3804">.</text>
	
		<text transform="matrix(0.8758 -0.4827 0.4827 0.8758 808.3965 549.4795)" fill="#E8E8E8" font-family="'MyriadPro-Regular'" font-size="22.3804">.</text>
	
		<text transform="matrix(0.8758 -0.4827 0.4827 0.8758 806.8506 557.502)" fill="#E8E8E8" font-family="'MyriadPro-Regular'" font-size="22.3804">.</text>
	
		<text transform="matrix(0.8758 -0.4827 0.4827 0.8758 804.916 565.4521)" fill="#E8E8E8" font-family="'MyriadPro-Regular'" font-size="22.3804">.</text>
	
		<text transform="matrix(0.8758 -0.4827 0.4827 0.8758 802.5947 573.3135)" fill="#E8E8E8" font-family="'MyriadPro-Regular'" font-size="22.3804">.</text>
	
		<text transform="matrix(0.8758 -0.4827 0.4827 0.8758 799.8994 581.0469)" fill="#E8E8E8" font-family="'MyriadPro-Regular'" font-size="22.3804">.</text>
	
		<text transform="matrix(0.8758 -0.4827 0.4827 0.8758 796.8369 588.6357)" fill="#E8E8E8" font-family="'MyriadPro-Regular'" font-size="22.3804">.</text>
	
		<text transform="matrix(0.8758 -0.4827 0.4827 0.8758 793.4072 596.0703)" fill="#E8E8E8" font-family="'MyriadPro-Regular'" font-size="22.3804">.</text>
	
		<text transform="matrix(0.8758 -0.4827 0.4827 0.8758 789.6221 603.3379)" fill="#E8E8E8" font-family="'MyriadPro-Regular'" font-size="22.3804">.</text>
	
		<text transform="matrix(0.8758 -0.4827 0.4827 0.8758 785.5039 610.3955)" fill="#E8E8E8" font-family="'MyriadPro-Regular'" font-size="22.3804">.</text>
	
		<text transform="matrix(0.8758 -0.4827 0.4827 0.8758 781.0449 617.2607)" fill="#E8E8E8" font-family="'MyriadPro-Regular'" font-size="22.3804">.</text>
	
		<text transform="matrix(0.8758 -0.4827 0.4827 0.8758 776.25 623.9209)" fill="#E8E8E8" font-family="'MyriadPro-Regular'" font-size="22.3804">.</text>
	
		<text transform="matrix(0.8758 -0.4827 0.4827 0.8758 771.166 630.3086)" fill="#E8E8E8" font-family="'MyriadPro-Regular'" font-size="22.3804">.</text>
	
		<text transform="matrix(0.8758 -0.4827 0.4827 0.8758 765.7695 636.4697)" fill="#E8E8E8" font-family="'MyriadPro-Regular'" font-size="22.3804">.</text>
	
		<text transform="matrix(0.8758 -0.4827 0.4827 0.8758 760.084 642.3662)" fill="#E8E8E8" font-family="'MyriadPro-Regular'" font-size="22.3804">.</text>
	
		<text transform="matrix(0.8758 -0.4827 0.4827 0.8758 754.126 647.9834)" fill="#E8E8E8" font-family="'MyriadPro-Regular'" font-size="22.3804">.</text>
	
		<text transform="matrix(0.8758 -0.4827 0.4827 0.8758 747.9014 653.3145)" fill="#E8E8E8" font-family="'MyriadPro-Regular'" font-size="22.3804">.</text>
	
		<text transform="matrix(0.8758 -0.4827 0.4827 0.8758 741.4209 658.3457)" fill="#E8E8E8" font-family="'MyriadPro-Regular'" font-size="22.3804">.</text>
	
		<text transform="matrix(0.8758 -0.4827 0.4827 0.8758 734.7256 663.0508)" fill="#E8E8E8" font-family="'MyriadPro-Regular'" font-size="22.3804">.</text>
	
		<text transform="matrix(0.8758 -0.4827 0.4827 0.8758 727.8252 667.4219)" fill="#E8E8E8" font-family="'MyriadPro-Regular'" font-size="22.3804">.</text>
	
		<text transform="matrix(0.8758 -0.4827 0.4827 0.8758 720.7041 671.4668)" fill="#E8E8E8" font-family="'MyriadPro-Regular'" font-size="22.3804">.</text>
	
		<text transform="matrix(0.8758 -0.4827 0.4827 0.8758 713.3779 675.1768)" fill="#E8E8E8" font-family="'MyriadPro-Regular'" font-size="22.3804">.</text>
	
		<text transform="matrix(0.8758 -0.4827 0.4827 0.8758 705.9111 678.5137)" fill="#E8E8E8" font-family="'MyriadPro-Regular'" font-size="22.3804">.</text>
	
		<text transform="matrix(0.8758 -0.4827 0.4827 0.8758 698.29 681.4893)" fill="#E8E8E8" font-family="'MyriadPro-Regular'" font-size="22.3804">.</text>
	
		<text transform="matrix(0.8758 -0.4827 0.4827 0.8758 690.5244 684.0947)" fill="#E8E8E8" font-family="'MyriadPro-Regular'" font-size="22.3804">.</text>
	
		<text transform="matrix(0.8758 -0.4827 0.4827 0.8758 682.6611 686.3164)" fill="#E8E8E8" font-family="'MyriadPro-Regular'" font-size="22.3804">.</text>
	
		<text transform="matrix(0.8758 -0.4827 0.4827 0.8758 674.6807 688.1621)" fill="#E8E8E8" font-family="'MyriadPro-Regular'" font-size="22.3804">.</text>
	
		<text transform="matrix(0.8758 -0.4827 0.4827 0.8758 666.624 689.6172)" fill="#E8E8E8" font-family="'MyriadPro-Regular'" font-size="22.3804">.</text>
	
		<text transform="matrix(0.8758 -0.4827 0.4827 0.8758 658.5088 690.6855)" fill="#E8E8E8" font-family="'MyriadPro-Regular'" font-size="22.3804">.</text>
	
		<text transform="matrix(0.8758 -0.4827 0.4827 0.8758 650.3447 691.3643)" fill="#E8E8E8" font-family="'MyriadPro-Regular'" font-size="22.3804">.</text>
	
		<text transform="matrix(0.8758 -0.4827 0.4827 0.8758 642.208 691.6895)" fill="#E8E8E8" font-family="'MyriadPro-Regular'" font-size="22.3804">.</text>
	
		<text transform="matrix(0.8758 -0.4827 0.4827 0.8758 633.9727 691.5596)" fill="#E8E8E8" font-family="'MyriadPro-Regular'" font-size="22.3804">.</text>
	
		<text transform="matrix(0.8758 -0.4827 0.4827 0.8758 625.7988 691.0781)" fill="#E8E8E8" font-family="'MyriadPro-Regular'" font-size="22.3804">.</text>
	
		<text transform="matrix(0.8758 -0.4827 0.4827 0.8758 617.6641 690.207)" fill="#E8E8E8" font-family="'MyriadPro-Regular'" font-size="22.3804">.</text>
	
		<text transform="matrix(0.8758 -0.4827 0.4827 0.8758 609.5469 688.9395)" fill="#E8E8E8" font-family="'MyriadPro-Regular'" font-size="22.3804">.</text>
	
		<text transform="matrix(0.8758 -0.4827 0.4827 0.8758 601.542 687.2959)" fill="#E8E8E8" font-family="'MyriadPro-Regular'" font-size="22.3804">.</text>
	
		<text transform="matrix(0.8758 -0.4827 0.4827 0.8758 593.6143 685.2617)" fill="#E8E8E8" font-family="'MyriadPro-Regular'" font-size="22.3804">.</text>
	
		<text transform="matrix(0.8758 -0.4827 0.4827 0.8758 585.791 682.8467)" fill="#E8E8E8" font-family="'MyriadPro-Regular'" font-size="22.3804">.</text>
	
		<text transform="matrix(0.8758 -0.4827 0.4827 0.8758 578.1016 680.0596)" fill="#E8E8E8" font-family="'MyriadPro-Regular'" font-size="22.3804">.</text>
	
		<text transform="matrix(0.8758 -0.4827 0.4827 0.8758 570.5283 676.8916)" fill="#E8E8E8" font-family="'MyriadPro-Regular'" font-size="22.3804">.</text>
	
		<text transform="matrix(0.8758 -0.4827 0.4827 0.8758 563.1436 673.375)" fill="#E8E8E8" font-family="'MyriadPro-Regular'" font-size="22.3804">.</text>
	
		<text transform="matrix(0.8758 -0.4827 0.4827 0.8758 555.9297 669.5049)" fill="#E8E8E8" font-family="'MyriadPro-Regular'" font-size="22.3804">.</text>
	
		<text transform="matrix(0.8758 -0.4827 0.4827 0.8758 548.9258 665.3027)" fill="#E8E8E8" font-family="'MyriadPro-Regular'" font-size="22.3804">.</text>
	
		<text transform="matrix(0.8758 -0.4827 0.4827 0.8758 542.0938 660.7432)" fill="#E8E8E8" font-family="'MyriadPro-Regular'" font-size="22.3804">.</text>
	
		<text transform="matrix(0.8758 -0.4827 0.4827 0.8758 535.5215 655.8877)" fill="#E8E8E8" font-family="'MyriadPro-Regular'" font-size="22.3804">.</text>
	
		<text transform="matrix(0.8758 -0.4827 0.4827 0.8758 529.1699 650.707)" fill="#E8E8E8" font-family="'MyriadPro-Regular'" font-size="22.3804">.</text>
	
		<text transform="matrix(0.8758 -0.4827 0.4827 0.8758 523.0762 645.2354)" fill="#E8E8E8" font-family="'MyriadPro-Regular'" font-size="22.3804">.</text>
	
		<text transform="matrix(0.8758 -0.4827 0.4827 0.8758 517.2529 639.4785)" fill="#E8E8E8" font-family="'MyriadPro-Regular'" font-size="22.3804">.</text>
	
		<text transform="matrix(0.8758 -0.4827 0.4827 0.8758 511.708 633.4492)" fill="#E8E8E8" font-family="'MyriadPro-Regular'" font-size="22.3804">.</text>
	
		<text transform="matrix(0.8758 -0.4827 0.4827 0.8758 506.4531 627.1582)" fill="#E8E8E8" font-family="'MyriadPro-Regular'" font-size="22.3804">.</text>
	
		<text transform="matrix(0.8758 -0.4827 0.4827 0.8758 501.5186 620.6406)" fill="#E8E8E8" font-family="'MyriadPro-Regular'" font-size="22.3804">.</text>
	
		<text transform="matrix(0.8758 -0.4827 0.4827 0.8758 496.8926 613.8848)" fill="#E8E8E8" font-family="'MyriadPro-Regular'" font-size="22.3804">.</text>
	
		<text transform="matrix(0.8758 -0.4827 0.4827 0.8758 492.6045 606.9277)" fill="#E8E8E8" font-family="'MyriadPro-Regular'" font-size="22.3804">.</text>
	
		<text transform="matrix(0.8758 -0.4827 0.4827 0.8758 488.6445 599.7549)" fill="#E8E8E8" font-family="'MyriadPro-Regular'" font-size="22.3804">.</text>
	
		<text transform="matrix(0.8758 -0.4827 0.4827 0.8758 485.0361 592.4033)" fill="#E8E8E8" font-family="'MyriadPro-Regular'" font-size="22.3804">.</text>
	
		<text transform="matrix(0.8758 -0.4827 0.4827 0.8758 481.7871 584.8887)" fill="#E8E8E8" font-family="'MyriadPro-Regular'" font-size="22.3804">.</text>
	
		<text transform="matrix(0.8758 -0.4827 0.4827 0.8758 478.9033 577.2207)" fill="#E8E8E8" font-family="'MyriadPro-Regular'" font-size="22.3804">.</text>
	
		<text transform="matrix(0.8758 -0.4827 0.4827 0.8758 476.3916 569.4141)" fill="#E8E8E8" font-family="'MyriadPro-Regular'" font-size="22.3804">.</text>
	
		<text transform="matrix(0.8758 -0.4827 0.4827 0.8758 474.2637 561.5117)" fill="#E8E8E8" font-family="'MyriadPro-Regular'" font-size="22.3804">.</text>
	
		<text transform="matrix(0.8758 -0.4827 0.4827 0.8758 472.5225 553.5254)" fill="#E8E8E8" font-family="'MyriadPro-Regular'" font-size="22.3804">.</text>
	
		<text transform="matrix(0.8758 -0.4827 0.4827 0.8758 471.1631 545.4355)" fill="#E8E8E8" font-family="'MyriadPro-Regular'" font-size="22.3804">.</text>
	
		<text transform="matrix(0.8758 -0.4827 0.4827 0.8758 470.1973 537.3232)" fill="#E8E8E8" font-family="'MyriadPro-Regular'" font-size="22.3804">.</text>
	
		<text transform="matrix(0.8758 -0.4827 0.4827 0.8758 469.6191 529.165)" fill="#E8E8E8" font-family="'MyriadPro-Regular'" font-size="22.3804">.</text>
	
		<text transform="matrix(0.8758 -0.4827 0.4827 0.8758 469.4199 520.9766)" fill="#E8E8E8" font-family="'MyriadPro-Regular'" font-size="22.3804">.</text>
	
		<text transform="matrix(0.8758 -0.4827 0.4827 0.8758 469.6221 512.7637)" fill="#E8E8E8" font-family="'MyriadPro-Regular'" font-size="22.3804">.</text>
	
		<text transform="matrix(0.8758 -0.4827 0.4827 0.8758 470.2021 504.6162)" fill="#E8E8E8" font-family="'MyriadPro-Regular'" font-size="22.3804">.</text>
	
		<text transform="matrix(0.8758 -0.4827 0.4827 0.8758 471.1738 496.4766)" fill="#E8E8E8" font-family="'MyriadPro-Regular'" font-size="22.3804">.</text>
	
		<text transform="matrix(0.8758 -0.4827 0.4827 0.8758 472.5371 488.3926)" fill="#E8E8E8" font-family="'MyriadPro-Regular'" font-size="22.3804">.</text>
	
		<text transform="matrix(0.8758 -0.4827 0.4827 0.8758 474.2832 480.4053)" fill="#E8E8E8" font-family="'MyriadPro-Regular'" font-size="22.3804">.</text>
	
		<text transform="matrix(0.8758 -0.4827 0.4827 0.8758 476.415 472.502)" fill="#E8E8E8" font-family="'MyriadPro-Regular'" font-size="22.3804">.</text>
	
		<text transform="matrix(0.8758 -0.4827 0.4827 0.8758 478.9238 464.7178)" fill="#E8E8E8" font-family="'MyriadPro-Regular'" font-size="22.3804">.</text>
	
		<text transform="matrix(0.8758 -0.4827 0.4827 0.8758 481.8145 457.0439)" fill="#E8E8E8" font-family="'MyriadPro-Regular'" font-size="22.3804">.</text>
	
		<text transform="matrix(0.8758 -0.4827 0.4827 0.8758 485.0586 449.5459)" fill="#E8E8E8" font-family="'MyriadPro-Regular'" font-size="22.3804">.</text>
	
		<text transform="matrix(0.8758 -0.4827 0.4827 0.8758 488.6758 442.1807)" fill="#E8E8E8" font-family="'MyriadPro-Regular'" font-size="22.3804">.</text>
	
		<text transform="matrix(0.8758 -0.4827 0.4827 0.8758 492.6328 435.0195)" fill="#E8E8E8" font-family="'MyriadPro-Regular'" font-size="22.3804">.</text>
	
		<text transform="matrix(0.8758 -0.4827 0.4827 0.8758 496.9365 428.0469)" fill="#E8E8E8" font-family="'MyriadPro-Regular'" font-size="22.3804">.</text>
	
		<text transform="matrix(0.8758 -0.4827 0.4827 0.8758 501.5586 421.2988)" fill="#E8E8E8" font-family="'MyriadPro-Regular'" font-size="22.3804">.</text>
	
		<text transform="matrix(0.8758 -0.4827 0.4827 0.8758 506.5127 414.7646)" fill="#E8E8E8" font-family="'MyriadPro-Regular'" font-size="22.3804">.</text>
	
		<text transform="matrix(0.8758 -0.4827 0.4827 0.8758 511.7471 408.502)" fill="#E8E8E8" font-family="'MyriadPro-Regular'" font-size="22.3804">.</text>
	
		<text transform="matrix(0.8758 -0.4827 0.4827 0.8758 517.3037 402.4639)" fill="#E8E8E8" font-family="'MyriadPro-Regular'" font-size="22.3804">.</text>
	
		<text transform="matrix(0.8758 -0.4827 0.4827 0.8758 523.1191 396.7227)" fill="#E8E8E8" font-family="'MyriadPro-Regular'" font-size="22.3804">.</text>
	
		<text transform="matrix(0.8758 -0.4827 0.4827 0.8758 529.2168 391.25)" fill="#E8E8E8" font-family="'MyriadPro-Regular'" font-size="22.3804">.</text>
	
		<text transform="matrix(0.8758 -0.4827 0.4827 0.8758 535.5723 386.0723)" fill="#E8E8E8" font-family="'MyriadPro-Regular'" font-size="22.3804">.</text>
	
		<text transform="matrix(0.8758 -0.4827 0.4827 0.8758 542.1514 381.2139)" fill="#E8E8E8" font-family="'MyriadPro-Regular'" font-size="22.3804">.</text>
	
		<text transform="matrix(0.8758 -0.4827 0.4827 0.8758 548.9668 376.6699)" fill="#E8E8E8" font-family="'MyriadPro-Regular'" font-size="22.3804">.</text>
	<g>
		<path fill="#F2EDEC" d="M588.999,412.012l-5.929-11.756l-6.489,3.279l5.966,11.803
			C584.662,414.152,586.837,413.059,588.999,412.012z"/>
		<path fill="#F2EDEC" d="M521.3,519.953c0-2.453,0.224-4.85,0.364-7.27h-16.65v14.547h16.65
			C521.512,524.812,521.3,522.418,521.3,519.953z"/>
		<path fill="#F2EDEC" d="M648.668,400.246v-16.652h-14.555v16.652c2.422-0.152,4.82-0.363,7.291-0.363
			C643.855,399.874,646.264,400.094,648.668,400.246z"/>
		<path fill="#F2EDEC" d="M764.622,465.035l-3.28-6.477l-13.137,6.685c1.113,2.14,2.207,4.302,3.172,6.547L764.622,465.035z"/>
		<path fill="#F2EDEC" d="M704.982,418.222c2.069,1.278,4.095,2.616,6.047,4.024l7.292-11.314l-6.104-3.942L704.982,418.222z"/>
		<path fill="#F2EDEC" d="M527.071,449.129l11.965,8.242c1.266-2.068,2.544-4.139,3.939-6.128l-11.755-8.116L527.071,449.129z"/>
		<path fill="#F2EDEC" d="M690.808,629.321l8.887,17.604l6.487-3.292l-8.815-17.453C695.227,627.31,693.029,628.323,690.808,629.321
			z"/>
		<path fill="#F2EDEC" d="M736.262,593.462l15.327,10.568l4.115-5.977l-15.106-10.417
			C739.236,589.626,737.729,591.543,736.262,593.462z"/>
		<path fill="#F2EDEC" d="M761.145,512.685c0.163,2.431,0.373,4.824,0.373,7.27c0,2.465-0.233,4.858-0.373,7.276h16.642v-14.546
			H761.145L761.145,512.685z"/>
		<path fill="#F2EDEC" d="M634.124,639.682v16.662h14.56v-16.662c-2.407,0.175-4.813,0.385-7.259,0.385
			C638.944,640.054,636.545,639.811,634.124,639.682z"/>
		<path fill="#F2EDEC" d="M564.463,636.251l6.119,3.956l10.604-16.444c-2.114-1.221-4.211-2.439-6.209-3.788L564.463,636.251z"/>
		<path fill="#F2EDEC" d="M518.174,582.172l3.292,6.464l16.242-8.243c-1.229-2.104-2.407-4.219-3.487-6.384L518.174,582.172z"/>
		<polyline fill="#F2EDEC" points="636.349,527.114 714.309,527.114 714.309,512.791 646.52,512.791 646.52,412.873 
			636.292,412.873 636.292,512.791 636.292,517.531 636.292,523.952 		"/>
	</g>
	<circle fill="#E8E8E8" cx="563.79" cy="373.947" r="1.374"/>
	
		<line fill="none" stroke="#183356" stroke-width="10.0332" stroke-linecap="round" stroke-miterlimit="10" x1="641.94" y1="342.305" x2="641.94" y2="94.993"/>
	<polygon fill="#EF887C" points="695.291,276.046 567.273,276.046 589.61,253.851 567.273,231.656 695.291,231.656 720.203,253.851 
			"/>
	<polygon fill="#EF887C" points="595.771,121.376 714.883,121.376 694.1,142.026 714.883,162.676 595.771,162.676 572.594,142.026 	
		"/>
	<polygon fill="#BFE3E5" points="723.575,216.287 547.226,216.287 528.123,196.765 547.226,177.662 723.575,177.662 
		743.518,196.975 	"/>
	<polygon fill="#BFE3E5" points="698.969,316.571 576.974,316.571 563.763,303.069 576.974,289.855 698.969,289.855 
		712.761,303.213 	"/>
	<g>
		<rect x="572.393" y="297.28" fill="none" width="131.274" height="28"/>
		<text transform="matrix(1 0 0 1 604.9028 308.4102)" fill="#183356" font-family="'Montserrat-Regular'" font-size="15">Offshore</text>
	</g>
	<g>
		<rect x="589.852" y="247.663" fill="none" width="115.522" height="28"/>
		<text transform="matrix(1 0 0 1 613.5859 258.7959)" fill="#183356" font-family="'Montserrat-Regular'" font-size="15">Eolienne</text>
	</g>
	<rect x="584.967" y="135.026" fill="none" width="109.7" height="28"/>
	<text transform="matrix(1 0 0 1 599.0029 146.1582)" fill="#183356" font-family="'Montserrat-Regular'" font-size="15">Biomasses</text>
	<g>
		<rect x="538.518" y="190.266" fill="none" width="192.854" height="21.333"/>
		<text transform="matrix(1 0 0 1 571.4653 201.3975)" fill="#183356" font-family="'Montserrat-Regular'" font-size="15">Photovoltaiques</text>
	</g>
	<g>
		<g>
			
				<image overflow="visible" opacity="0.05" enable-background="new    " width="595" height="148" xlink:href="ACD6259A457AA42C.png"  transform="matrix(0.9983 0 0 0.9932 343.3501 365.3496)">
			</image>
			<g>
				<rect x="369.739" y="385.334" fill="#F7FBFC" width="540.347" height="93.417"/>
			</g>
		</g>
		<rect x="297" y="385" fill="#F7FBFC" width="74" height="94"/>
		<rect x="909" y="385" fill="#F7FBFC" width="74" height="94"/>
	</g>
	<g>
		<g>
			<path fill="#7A1E72" d="M123.967,767.253h-0.506c-0.045,0-0.062-0.043-0.083-0.084l-0.597-1.109h-0.059
				c-0.107,0-0.273-0.012-0.369-0.016v1.125c0,0.047-0.031,0.084-0.078,0.084h-0.416c-0.045,0-0.082-0.037-0.082-0.084v-2.853
				c0-0.084,0.049-0.112,0.133-0.125c0.215-0.034,0.51-0.056,0.812-0.056c0.64,0,1.194,0.229,1.194,0.938v0.038
				c0,0.438-0.221,0.713-0.56,0.846l0.65,1.211c0.01,0.012,0.01,0.024,0.01,0.033C124.018,767.23,123.998,767.253,123.967,767.253
				 M123.346,765.074c0-0.312-0.21-0.443-0.623-0.443c-0.087,0-0.293,0.009-0.369,0.016v0.935c0.066,0.005,0.299,0.013,0.369,0.013
				c0.427,0,0.623-0.117,0.623-0.479V765.074z"/>
			<path fill="#7A1E72" d="M126.264,766.274h-1.354v0.012c0,0.24,0.102,0.526,0.497,0.526c0.304,0,0.589-0.024,0.765-0.041
				c0.004,0,0.007,0,0.012,0c0.042,0,0.076,0.02,0.076,0.061v0.273c0,0.065-0.014,0.097-0.088,0.109
				c-0.27,0.049-0.43,0.069-0.805,0.069c-0.416,0-1.002-0.223-1.002-1.04v-0.309c0-0.646,0.359-1.054,0.992-1.054
				c0.639,0,0.988,0.436,0.988,1.054v0.231C126.346,766.235,126.32,766.274,126.264,766.274 M125.795,765.866
				c0-0.323-0.18-0.51-0.438-0.51c-0.255,0-0.443,0.183-0.443,0.51v0.018h0.881V765.866L125.795,765.866z M126.039,764.084
				l-0.49,0.514c-0.033,0.038-0.049,0.055-0.098,0.055h-0.357c-0.025,0-0.037-0.013-0.037-0.03c0-0.012,0.003-0.027,0.017-0.04
				l0.394-0.498c0.037-0.046,0.054-0.062,0.108-0.062h0.435c0.029,0,0.047,0.014,0.047,0.028
				C126.057,764.058,126.05,764.071,126.039,764.084z"/>
			<path fill="#7A1E72" d="M128.867,765.29l-0.136,0.054c0.064,0.098,0.103,0.188,0.103,0.332v0.029
				c0,0.518-0.357,0.755-0.982,0.755c-0.221,0-0.371-0.038-0.45-0.07c-0.052,0.032-0.071,0.07-0.071,0.108
				c0,0.082,0.044,0.115,0.139,0.135l0.49,0.118c0.563,0.133,0.93,0.22,0.93,0.662v0.028c0,0.425-0.312,0.65-1.018,0.65
				c-0.67,0-1.028-0.254-1.028-0.688v-0.037c0-0.17,0.081-0.334,0.212-0.455c-0.115-0.087-0.187-0.233-0.187-0.382v-0.005
				c0-0.128,0.056-0.258,0.166-0.337c-0.124-0.13-0.171-0.277-0.171-0.483v-0.029c0-0.416,0.271-0.763,0.988-0.763h0.971
				c0.062,0,0.111,0.049,0.111,0.11v0.176C128.934,765.26,128.918,765.27,128.867,765.29 M128.34,767.413
				c0-0.092-0.053-0.146-0.488-0.249l-0.371-0.087c-0.061,0.087-0.101,0.143-0.101,0.29v0.037c0,0.171,0.101,0.273,0.491,0.273
				c0.398,0,0.469-0.087,0.469-0.235V767.413z M128.295,765.683c0-0.197-0.086-0.352-0.443-0.352c-0.352,0-0.447,0.158-0.447,0.352
				v0.035c0,0.153,0.062,0.326,0.447,0.326c0.345,0,0.443-0.119,0.443-0.326V765.683z"/>
			<path fill="#7A1E72" d="M129.891,764.604h-0.4c-0.047,0-0.089-0.039-0.089-0.086v-0.363c0-0.045,0.042-0.082,0.089-0.082h0.4
				c0.049,0,0.084,0.037,0.084,0.082v0.363C129.975,764.562,129.939,764.604,129.891,764.604 M129.879,767.253h-0.381
				c-0.045,0-0.084-0.043-0.084-0.089v-2.169c0-0.046,0.039-0.082,0.084-0.082h0.381c0.045,0,0.084,0.036,0.084,0.082v2.169
				C129.963,767.21,129.924,767.253,129.879,767.253z"/>
			<path fill="#7A1E72" d="M131.518,767.285c-0.651,0-0.992-0.44-0.992-1.032v-0.338c0-0.59,0.341-1.031,0.992-1.031
				c0.65,0,0.99,0.441,0.99,1.031v0.338C132.508,766.845,132.168,767.285,131.518,767.285 M131.959,765.915
				c0-0.34-0.152-0.56-0.441-0.56s-0.443,0.22-0.443,0.56v0.338c0,0.339,0.154,0.56,0.443,0.56s0.441-0.221,0.441-0.56V765.915z"/>
			<path fill="#7A1E72" d="M134.895,767.253h-0.383c-0.046,0-0.084-0.043-0.084-0.089v-1.354c0-0.357-0.033-0.463-0.353-0.463
				c-0.142,0-0.294,0.057-0.467,0.149v1.667c0,0.046-0.04,0.089-0.084,0.089h-0.383c-0.046,0-0.081-0.043-0.081-0.089v-2.169
				c0-0.046,0.035-0.082,0.081-0.082h0.362c0.045,0,0.082,0.036,0.082,0.082v0.087c0.242-0.152,0.398-0.198,0.674-0.198
				c0.595,0,0.717,0.403,0.717,0.928v1.354C134.977,767.21,134.938,767.253,134.895,767.253"/>
			<path fill="#005CA5" d="M137.354,770.189c0.01-0.027,0.02-0.047,0.02-0.073c0-0.077-0.066-0.142-0.162-0.142h-1.035
				c-0.083,0-0.15,0.073-0.178,0.15l-1.13,2.804c-0.065,0.159-0.122,0.188-0.169,0.188c-0.037,0-0.094-0.029-0.159-0.188
				l-1.131-2.804c-0.027-0.077-0.093-0.15-0.179-0.15h-1.043c-0.096,0-0.152,0.064-0.152,0.142c0,0.017,0.01,0.045,0.02,0.073
				l0.958,2.201c0.001,0.001,0.002,0.002,0.002,0.005l1.036,2.381v2.002c0,0.104,0.074,0.187,0.179,0.187h0.939
				c0.104,0,0.179-0.083,0.179-0.187v-2.002l0.607-1.394L137.354,770.189"/>
			<path fill="#005CA5" d="M123.924,774.36c-0.244,0-0.622-0.03-0.838-0.039v2.457c0,0.104-0.078,0.187-0.18,0.187h-0.941
				c-0.104,0-0.188-0.083-0.188-0.187v-6.476c0-0.187,0.111-0.255,0.301-0.283c0.49-0.073,1.158-0.123,1.846-0.123
				c1.449,0,2.711,0.512,2.711,2.176v0.084C126.635,773.825,125.373,774.36,123.924,774.36 M125.336,772.073
				c0-0.792-0.471-1.092-1.412-1.092c-0.198,0-0.668,0.019-0.838,0.036v2.239c0.15,0.011,0.677,0.028,0.838,0.028
				c1.016,0,1.412-0.374,1.412-1.129V772.073z"/>
			<path fill="#005CA5" d="M132.176,776.965h-0.997c-0.083,0-0.159-0.072-0.179-0.157l-0.432-1.788h-2.166l-0.434,1.788
				c-0.018,0.085-0.094,0.157-0.18,0.157h-0.996c-0.095,0-0.172-0.062-0.172-0.157c0-0.01,0.01-0.028,0.01-0.047l1.545-5.901
				c0.227-0.874,0.904-0.96,1.31-0.96c0.403,0,1.083,0.086,1.31,0.96l1.543,5.901c0,0.019,0.01,0.037,0.01,0.047
				C132.348,776.901,132.27,776.965,132.176,776.965 M129.635,771.149c-0.027-0.111-0.056-0.149-0.149-0.149
				c-0.096,0-0.124,0.038-0.151,0.149l-0.678,2.797h1.656L129.635,771.149z"/>
			<path fill="#005CA5" d="M139.945,777.042c-0.703,0-1.211-0.066-1.662-0.168c-0.096-0.019-0.181-0.085-0.181-0.188v-0.679
				c0-0.104,0.085-0.18,0.181-0.18c0.009,0,0.009,0,0.018,0c0.377,0.049,1.318,0.095,1.668,0.095c0.836,0,1.09-0.301,1.09-0.845
				c0-0.37-0.178-0.558-0.799-0.923l-1.244-0.745c-0.875-0.518-1.11-1.064-1.11-1.725c0-1.033,0.603-1.788,2.354-1.788
				c0.621,0,1.486,0.097,1.806,0.171c0.095,0.018,0.171,0.084,0.171,0.18v0.697c0,0.094-0.068,0.169-0.16,0.169
				c-0.011,0-0.011,0-0.02,0c-0.621-0.059-1.243-0.096-1.854-0.096c-0.696,0-0.987,0.244-0.987,0.667
				c0,0.312,0.158,0.501,0.771,0.84l1.132,0.631c1.034,0.573,1.307,1.175,1.307,1.922
				C142.424,776.027,141.83,777.042,139.945,777.042"/>
			<path fill="#005CA5" d="M148.006,777.042c-0.67,0-1.572-0.066-1.855-0.112c-0.159-0.027-0.243-0.103-0.243-0.292v-6.334
				c0-0.187,0.084-0.264,0.243-0.291c0.283-0.048,1.186-0.114,1.855-0.114c1.881,0,2.956,1.017,2.956,2.878v1.387
				C150.962,776.027,149.887,777.042,148.006,777.042 M149.661,772.776c0-1.409-0.714-1.776-1.655-1.776
				c-0.348,0-0.594,0.019-0.79,0.026v4.887c0.196,0.009,0.442,0.028,0.79,0.028c0.941,0,1.655-0.366,1.655-1.778V772.776z"/>
			<path fill="#005CA5" d="M155.996,776.911c-0.301,0.046-0.668,0.131-1.787,0.131c-1.226,0-2.176-0.327-2.176-1.927v-3.289
				c0-1.6,0.95-1.928,2.176-1.928c1.119,0,1.486,0.086,1.787,0.131c0.143,0.02,0.189,0.066,0.189,0.197v0.603
				c0,0.105-0.085,0.188-0.189,0.188h-1.922c-0.544,0-0.742,0.188-0.742,0.809v1.019h2.551c0.104,0,0.189,0.084,0.189,0.189v0.677
				c0,0.105-0.085,0.188-0.189,0.188h-2.551v1.217c0,0.621,0.198,0.808,0.742,0.808h1.922c0.104,0,0.189,0.084,0.189,0.188v0.604
				C156.186,776.845,156.139,776.893,155.996,776.911"/>
			<path fill="#005CA5" d="M163.582,776.911c-0.283,0.063-1.1,0.131-1.598,0.131c-1.229,0-2.176-0.327-2.176-1.927v-4.953
				c0-0.104,0.084-0.188,0.188-0.188h0.933c0.103,0,0.188,0.083,0.188,0.188v4.953c0,0.621,0.188,0.808,0.734,0.808h1.73
				c0.104,0,0.189,0.084,0.189,0.188v0.604C163.771,776.845,163.723,776.882,163.582,776.911"/>
			<path fill="#005CA5" d="M169.693,776.965h-0.998c-0.087,0-0.16-0.072-0.182-0.157l-0.43-1.788h-2.166l-0.435,1.788
				c-0.019,0.085-0.095,0.157-0.178,0.157h-0.997c-0.096,0-0.169-0.062-0.169-0.157c0-0.01,0.009-0.028,0.009-0.047l1.543-5.901
				c0.227-0.874,0.902-0.96,1.309-0.96c0.404,0,1.084,0.086,1.309,0.96l1.543,5.901c0,0.019,0.01,0.037,0.01,0.047
				C169.861,776.901,169.786,776.965,169.693,776.965 M167.15,771.149c-0.029-0.111-0.057-0.149-0.15-0.149
				c-0.095,0-0.122,0.038-0.149,0.149l-0.68,2.797h1.657L167.15,771.149z"/>
			<path fill="#005CA5" d="M176.875,776.911c-0.283,0.063-1.102,0.131-1.6,0.131c-1.226,0-2.176-0.327-2.176-1.927v-4.953
				c0-0.104,0.084-0.188,0.188-0.188h0.931c0.105,0,0.188,0.083,0.188,0.188v4.953c0,0.621,0.19,0.808,0.737,0.808h1.731
				c0.104,0,0.187,0.084,0.187,0.188v0.604C177.062,776.845,177.015,776.882,176.875,776.911"/>
			<path fill="#005CA5" d="M180.12,777.042c-1.555,0-2.685-0.865-2.685-2.936v-1.271c0-2.07,1.13-2.937,2.685-2.937
				c1.554,0,2.683,0.866,2.683,2.937v1.271C182.803,776.177,181.674,777.042,180.12,777.042 M181.485,772.835
				c0-1.242-0.443-1.797-1.365-1.797c-0.923,0-1.364,0.555-1.364,1.797v1.271c0,1.243,0.441,1.797,1.364,1.797
				c0.922,0,1.365-0.555,1.365-1.797V772.835z"/>
			<path fill="#005CA5" d="M185.146,776.965h-0.932c-0.105,0-0.189-0.083-0.189-0.187v-6.626c0-0.104,0.084-0.178,0.189-0.178h0.932
				c0.103,0,0.188,0.073,0.188,0.178v6.626C185.334,776.882,185.249,776.965,185.146,776.965"/>
			<path fill="#005CA5" d="M191.715,776.965h-1.149c-0.101,0-0.14-0.091-0.186-0.187l-1.355-2.512h-0.132
				c-0.247,0-0.621-0.029-0.84-0.04v2.552c0,0.104-0.074,0.187-0.178,0.187h-0.939c-0.104,0-0.189-0.083-0.189-0.187v-6.476
				c0-0.187,0.113-0.255,0.301-0.282c0.49-0.074,1.156-0.123,1.846-0.123c1.45,0,2.711,0.52,2.711,2.127v0.085
				c0,0.998-0.5,1.619-1.271,1.92l1.479,2.748c0.018,0.028,0.018,0.059,0.018,0.076C191.828,776.919,191.79,776.965,191.715,776.965
				 M190.305,772.025c0-0.707-0.471-1.008-1.412-1.008c-0.197,0-0.67,0.021-0.84,0.037v2.119c0.15,0.01,0.68,0.028,0.84,0.028
				c0.969,0,1.412-0.265,1.412-1.093V772.025z"/>
			<path fill="#005CA5" d="M196.619,776.911c-0.303,0.046-0.668,0.131-1.789,0.131c-1.225,0-2.176-0.327-2.176-1.927v-3.289
				c0-1.6,0.951-1.928,2.176-1.928c1.121,0,1.486,0.086,1.789,0.131c0.142,0.02,0.188,0.066,0.188,0.197v0.603
				c0,0.105-0.084,0.188-0.188,0.188h-1.922c-0.545,0-0.744,0.188-0.744,0.809v1.019h2.551c0.105,0,0.189,0.084,0.189,0.189v0.677
				c0,0.105-0.084,0.188-0.189,0.188h-2.551v1.217c0,0.621,0.199,0.808,0.744,0.808h1.922c0.104,0,0.188,0.084,0.188,0.188v0.604
				C196.807,776.845,196.761,776.893,196.619,776.911"/>
			<path fill="#009CB9" d="M110.92,773.468c0-5.243-2.033-10.006-5.356-13.582h-4.521c4.075,3.141,6.702,8.054,6.702,13.582
				c0,5.539-2.627,10.45-6.706,13.586h4.524C108.887,783.482,110.92,778.713,110.92,773.468"/>
			<path fill="#BDD143" d="M113.211,773.536c0-5.076-1.613-9.787-4.36-13.65h6.249c2.292,4.037,3.601,8.694,3.601,13.65
				c0,4.906-1.281,9.518-3.521,13.518h-6.244C111.633,783.22,113.211,778.564,113.211,773.536"/>
			<path fill="#009CB9" d="M37.627,775.475h-0.318c-0.061,0-0.109-0.056-0.109-0.124v-4.34c0-0.06,0.043-0.115,0.109-0.115h0.318
				c0.061,0,0.109,0.05,0.109,0.115v4.34C37.736,775.413,37.693,775.475,37.627,775.475"/>
			<path fill="#009CB9" d="M39.501,771.011l-0.353,1.15c-0.025,0.086-0.056,0.115-0.117,0.115h-0.285
				c-0.042,0-0.055-0.023-0.055-0.062c0-0.017,0-0.036,0.006-0.055l0.279-1.15c0.019-0.084,0.062-0.115,0.123-0.115h0.341
				c0.042,0,0.066,0.025,0.066,0.066C39.507,770.976,39.507,770.993,39.501,771.011"/>
			<path fill="#009CB9" d="M42.868,773.972h-2.04v0.084c0,0.726,0.287,0.992,0.847,0.992c0.353,0,0.803-0.024,1.083-0.065
				c0.013,0,0.018,0,0.031,0c0.049,0,0.098,0.022,0.098,0.086v0.205c0,0.078-0.025,0.123-0.123,0.141
				c-0.347,0.066-0.682,0.104-1.089,0.104c-0.7,0-1.382-0.33-1.382-1.461v-0.549c0-0.87,0.48-1.424,1.351-1.424
				c0.89,0,1.339,0.559,1.339,1.424v0.33C42.982,773.915,42.94,773.972,42.868,773.972 M42.441,773.507
				c0-0.688-0.262-0.955-0.798-0.955c-0.522,0-0.815,0.3-0.815,0.955v0.057h1.613V773.507z"/>
			<path fill="#009CB9" d="M44.998,775.517c-0.225,0-0.663-0.019-0.961-0.09c-0.08-0.02-0.129-0.057-0.129-0.125v-0.211
				c0-0.057,0.049-0.093,0.109-0.093c0.013,0,0.02,0,0.025,0c0.292,0.036,0.736,0.07,0.955,0.07c0.396,0,0.604-0.105,0.604-0.435
				c0-0.183-0.11-0.298-0.457-0.506l-0.615-0.367c-0.371-0.223-0.621-0.485-0.621-0.867c0-0.634,0.476-0.811,1.102-0.811
				c0.342,0,0.664,0.029,0.951,0.078c0.078,0.014,0.115,0.055,0.115,0.122v0.201c0,0.072-0.043,0.104-0.104,0.104
				c-0.006,0-0.012,0-0.018,0c-0.213-0.019-0.604-0.048-0.945-0.048c-0.34,0-0.564,0.042-0.564,0.354
				c0,0.181,0.139,0.297,0.419,0.461l0.603,0.359c0.506,0.298,0.67,0.56,0.67,0.919C46.137,775.255,45.68,775.517,44.998,775.517"/>
			<path fill="#009CB9" d="M48.408,775.517c-0.189,0-0.475-0.023-0.713-0.065v1.102c0,0.062-0.049,0.114-0.115,0.114h-0.31
				c-0.061,0-0.109-0.047-0.109-0.114v-4.188c0-0.079,0.018-0.115,0.127-0.14c0.323-0.08,0.75-0.141,1.121-0.141
				c0.907,0,1.327,0.589,1.327,1.504v0.438C49.735,774.981,49.297,775.517,48.408,775.517 M49.199,773.587
				c0-0.64-0.188-1.053-0.791-1.053c-0.256,0-0.542,0.028-0.713,0.06v2.411c0.2,0.037,0.518,0.063,0.713,0.063
				c0.596,0,0.791-0.393,0.791-1.043V773.587z"/>
			<path fill="#009CB9" d="M52.134,772.546c-0.28,0-0.536,0.073-0.841,0.255v2.55c0,0.062-0.055,0.124-0.121,0.124h-0.299
				c-0.061,0-0.115-0.056-0.115-0.124v-3.104c0-0.068,0.048-0.122,0.115-0.122h0.287c0.066,0,0.115,0.054,0.115,0.122v0.126
				c0.305-0.213,0.584-0.291,0.858-0.291c0.085,0,0.128,0.035,0.128,0.109v0.249C52.262,772.508,52.219,772.546,52.134,772.546"/>
			<path fill="#009CB9" d="M53.638,771.589h-0.312c-0.066,0-0.121-0.054-0.121-0.123v-0.484c0-0.068,0.055-0.123,0.121-0.123h0.312
				c0.067,0,0.122,0.055,0.122,0.123v0.484C53.76,771.535,53.705,771.589,53.638,771.589 M53.625,775.475h-0.291
				c-0.067,0-0.123-0.056-0.123-0.124v-3.104c0-0.068,0.056-0.122,0.123-0.122h0.291c0.067,0,0.123,0.054,0.123,0.122v3.104
				C53.748,775.419,53.692,775.475,53.625,775.475z"/>
			<path fill="#009CB9" d="M56.621,775.485c-0.121,0.02-0.281,0.03-0.396,0.03c-0.56,0-0.826-0.146-0.826-0.814v-2.124l-0.592-0.069
				c-0.067-0.005-0.115-0.042-0.115-0.107v-0.165c0-0.068,0.048-0.11,0.115-0.11h0.592v-0.597c0-0.062,0.041-0.109,0.107-0.122
				l0.317-0.048c0.006,0,0.012,0,0.019,0c0.049,0,0.091,0.043,0.091,0.103v0.665h0.657c0.068,0,0.121,0.054,0.121,0.122v0.208
				c0,0.067-0.053,0.122-0.121,0.122h-0.657v2.124c0,0.333,0.085,0.383,0.329,0.383h0.342c0.084,0,0.126,0.025,0.126,0.085v0.214
				C56.729,775.438,56.701,775.475,56.621,775.485"/>
			<path fill="#009CB9" d="M62.07,772.534l-0.22,0.043c0.109,0.113,0.206,0.297,0.206,0.626v0.049c0,0.669-0.414,1.04-1.35,1.04
				c-0.324,0-0.531-0.047-0.708-0.122c-0.104,0.05-0.151,0.117-0.151,0.208c0,0.104,0.048,0.159,0.188,0.195l0.907,0.231
				c0.596,0.152,1.169,0.32,1.169,0.896v0.047c0,0.586-0.39,0.945-1.388,0.945c-0.963,0-1.4-0.373-1.4-0.97v-0.055
				c0-0.342,0.182-0.622,0.383-0.773l-0.041-0.018c-0.196-0.084-0.281-0.286-0.281-0.476v-0.008c0-0.163,0.079-0.34,0.25-0.438
				c-0.189-0.177-0.281-0.396-0.281-0.706v-0.049c0-0.542,0.305-1.078,1.354-1.078h1.332c0.073,0,0.141,0.061,0.141,0.134v0.158
				C62.18,772.498,62.137,772.521,62.07,772.534 M61.576,775.701c0-0.24-0.193-0.337-0.742-0.477l-0.689-0.177
				c-0.176,0.153-0.297,0.304-0.297,0.622v0.055c0,0.343,0.201,0.556,0.877,0.556c0.694,0,0.852-0.194,0.852-0.531L61.576,775.701
				L61.576,775.701z M61.527,773.203c0-0.364-0.164-0.651-0.82-0.651c-0.684,0-0.822,0.312-0.822,0.651v0.049
				c0,0.268,0.121,0.622,0.822,0.622c0.656,0,0.82-0.255,0.82-0.622V773.203z"/>
			<path fill="#009CB9" d="M64.492,772.546c-0.279,0-0.535,0.073-0.84,0.255v2.55c0,0.062-0.055,0.124-0.121,0.124h-0.299
				c-0.061,0-0.115-0.056-0.115-0.124v-3.104c0-0.068,0.049-0.122,0.115-0.122h0.286c0.067,0,0.115,0.054,0.115,0.122v0.126
				c0.306-0.213,0.585-0.291,0.858-0.291c0.086,0,0.129,0.035,0.129,0.109v0.249C64.621,772.508,64.578,772.546,64.492,772.546"/>
			<path fill="#009CB9" d="M67.55,775.475h-0.281c-0.066,0-0.122-0.056-0.122-0.124v-0.133c-0.291,0.17-0.596,0.299-0.938,0.299
				c-0.518,0-0.992-0.225-0.992-0.984v-0.075c0-0.656,0.384-0.985,1.467-0.985h0.452v-0.244c0-0.51-0.179-0.688-0.653-0.688
				c-0.395,0-0.688,0.024-0.93,0.048c-0.014,0-0.02,0-0.032,0c-0.055,0-0.108-0.019-0.108-0.098v-0.214
				c0-0.064,0.043-0.103,0.127-0.115c0.25-0.043,0.53-0.078,0.943-0.078c0.848,0,1.188,0.425,1.188,1.144v2.124
				C67.67,775.419,67.615,775.475,67.55,775.475 M67.136,773.854h-0.452c-0.736,0-0.932,0.164-0.932,0.598v0.073
				c0,0.438,0.207,0.555,0.56,0.555c0.28,0,0.53-0.086,0.824-0.245V773.854z"/>
			<path fill="#009CB9" d="M71.244,775.475h-0.293c-0.065,0-0.121-0.056-0.121-0.124v-2.002c0-0.613-0.207-0.803-0.67-0.803
				c-0.256,0-0.541,0.096-0.82,0.236v2.568c0,0.062-0.057,0.124-0.123,0.124h-0.298c-0.062,0-0.117-0.056-0.117-0.124v-3.104
				c0-0.068,0.05-0.122,0.117-0.122h0.304c0.066,0,0.117,0.054,0.117,0.122v0.115c0.334-0.188,0.607-0.279,0.967-0.279
				c0.73,0,1.06,0.457,1.06,1.266v2.002C71.366,775.419,71.312,775.475,71.244,775.475"/>
			<path fill="#009CB9" d="M74.836,775.413c-0.377,0.072-0.748,0.104-1.119,0.104c-0.908,0-1.328-0.591-1.328-1.504v-0.438
				c0-0.956,0.439-1.492,1.328-1.492c0.188,0,0.474,0.016,0.711,0.06v-1.132c0-0.06,0.049-0.114,0.115-0.114h0.312
				c0.061,0,0.109,0.049,0.109,0.114v4.263C74.965,775.351,74.945,775.396,74.836,775.413 M74.428,772.594
				c-0.201-0.036-0.518-0.042-0.711-0.042c-0.598,0-0.792,0.371-0.792,1.023v0.438c0,0.663,0.188,1.035,0.792,1.035
				c0.205,0,0.504-0.02,0.711-0.037V772.594z"/>
			<path fill="#009CB9" d="M79.146,775.517c-0.896,0-1.352-0.591-1.352-1.485v-0.462c0-0.896,0.456-1.485,1.352-1.485
				c0.895,0,1.357,0.589,1.357,1.485v0.462C80.504,774.926,80.041,775.517,79.146,775.517 M79.969,773.568
				c0-0.621-0.25-1.017-0.822-1.017c-0.566,0-0.816,0.391-0.816,1.017v0.462c0,0.622,0.245,1.017,0.816,1.017
				c0.566,0,0.822-0.389,0.822-1.017V773.568z"/>
			<path fill="#009CB9" d="M83.975,775.475H83.67c-0.066,0-0.117-0.056-0.117-0.124v-0.114c-0.334,0.189-0.607,0.279-0.967,0.279
				c-0.73,0-1.059-0.456-1.059-1.266v-2.003c0-0.068,0.055-0.122,0.122-0.122h0.292c0.066,0,0.121,0.054,0.121,0.122v2.003
				c0,0.614,0.207,0.803,0.669,0.803c0.257,0,0.543-0.096,0.821-0.236v-2.569c0-0.062,0.057-0.122,0.124-0.122h0.298
				c0.06,0,0.116,0.054,0.116,0.122v3.104C84.091,775.419,84.041,775.475,83.975,775.475"/>
			<path fill="#009CB9" d="M87.791,772.271l-0.822,2.896c-0.078,0.275-0.285,0.348-0.547,0.348c-0.262,0-0.469-0.071-0.547-0.348
				l-0.824-2.896c-0.004-0.02-0.004-0.03-0.004-0.043c0-0.062,0.035-0.104,0.096-0.104h0.336c0.049,0,0.09,0.036,0.115,0.116
				l0.7,2.653c0.036,0.146,0.067,0.178,0.128,0.178c0.055,0,0.091-0.031,0.129-0.178l0.698-2.653
				c0.025-0.08,0.067-0.116,0.116-0.116H87.7c0.061,0,0.098,0.042,0.098,0.104C87.798,772.241,87.798,772.253,87.791,772.271"/>
			<path fill="#009CB9" d="M91.097,773.972h-2.039v0.084c0,0.726,0.286,0.992,0.845,0.992c0.355,0,0.805-0.024,1.085-0.065
				c0.013,0,0.019,0,0.03,0c0.049,0,0.098,0.022,0.098,0.086v0.205c0,0.078-0.023,0.123-0.121,0.141
				c-0.346,0.066-0.682,0.104-1.092,0.104c-0.697,0-1.381-0.33-1.381-1.461v-0.549c0-0.87,0.48-1.424,1.352-1.424
				c0.889,0,1.34,0.559,1.34,1.424v0.33C91.213,773.915,91.17,773.972,91.097,773.972 M90.671,773.507
				c0-0.688-0.263-0.955-0.798-0.955c-0.523,0-0.815,0.3-0.815,0.955v0.057h1.613V773.507z"/>
			<path fill="#009CB9" d="M93.623,772.546c-0.279,0-0.534,0.073-0.84,0.255v2.55c0,0.062-0.054,0.124-0.123,0.124h-0.297
				c-0.061,0-0.115-0.056-0.115-0.124v-3.104c0-0.068,0.05-0.122,0.115-0.122h0.288c0.066,0,0.114,0.054,0.114,0.122v0.126
				c0.305-0.213,0.584-0.291,0.857-0.291c0.086,0,0.129,0.035,0.129,0.109v0.249C93.752,772.508,93.709,772.546,93.623,772.546"/>
			<path fill="#009CB9" d="M96.303,775.485c-0.121,0.02-0.279,0.03-0.395,0.03c-0.561,0-0.829-0.146-0.829-0.814v-2.124
				l-0.591-0.069c-0.067-0.005-0.114-0.042-0.114-0.107v-0.165c0-0.068,0.047-0.11,0.114-0.11h0.591v-0.597
				c0-0.062,0.042-0.109,0.109-0.122l0.316-0.048c0.007,0,0.013,0,0.019,0c0.049,0,0.092,0.043,0.092,0.103v0.665h0.658
				c0.066,0,0.121,0.054,0.121,0.122v0.208c0,0.067-0.055,0.122-0.121,0.122h-0.658v2.124c0,0.333,0.085,0.383,0.328,0.383h0.342
				c0.086,0,0.127,0.025,0.127,0.085v0.214C96.412,775.438,96.381,775.475,96.303,775.485"/>
		</g>
	</g>
</g>
<g id="Calque_3">
</g>
</svg>
