<?xml version="1.0" encoding="utf-8"?>
<!-- Generator: Adobe Illustrator 16.0.0, SVG Export Plug-In . SVG Version: 6.00 Build 0)  -->
<!DOCTYPE svg PUBLIC "-//W3C//DTD SVG 1.1//EN" "http://www.w3.org/Graphics/SVG/1.1/DTD/svg11.dtd">
<svg version="1.1" xmlns="http://www.w3.org/2000/svg" xmlns:xlink="http://www.w3.org/1999/xlink" x="0px" y="0px" width="1280px"
	 height="800px" viewBox="0 0 1280 800" enable-background="new 0 0 1280 800" xml:space="preserve">
<pattern  x="569.5" y="470.5" width="49" height="49" patternUnits="userSpaceOnUse" id="SVGID_1_" viewBox="0 -49 49 49" overflow="visible">
	<g>
		<polygon fill="none" points="0,0 49,0 49,-49 0,-49 		"/>
		<g>
			<polygon fill="none" points="0,-49 49,-49 49,0 0,0 			"/>
			<g>
				<polygon fill="none" points="0,-49 49,-49 49,0 0,0 				"/>
				<polygon fill="#EB6A5B" points="49,0 0,0 0,-49 49,-49 				"/>
			</g>
		</g>
	</g>
</pattern>
<pattern  x="569.5" y="470.5" width="49" height="49" patternUnits="userSpaceOnUse" id="SVGID_4_" viewBox="0 -49 49 49" overflow="visible">
	<g>
		<polygon fill="none" points="0,0 49,0 49,-49 0,-49 		"/>
		<g>
			<polygon fill="none" points="0,-49 49,-49 49,0 0,0 			"/>
			<g>
				<polygon fill="none" points="0,-49 49,-49 49,0 0,0 				"/>
				<polygon fill="#EB6A5B" points="49,0 0,0 0,-49 49,-49 				"/>
			</g>
		</g>
	</g>
</pattern>
<g id="Calque_2_1_">
	<rect y="-1" fill="#F7FBFC" width="1279.999" height="801"/>
</g>
<g id="Calque_1">
	<g id="Calque_2">
		<rect y="-1" fill="#F7FBFC" width="1280" height="798"/>
	</g>
	<g id="Calque_1_1_">
		<g>
			<path fill="#AFDCDF" d="M765.5,455.847c0,0-15,4.374-14.875,12.249S754,483.847,754,483.847l3.875,11.249c0,0,5.5,4.875,13,3.251
				c0,0,3.75-2.126,3.875-4.626s1.5-5.374,2.75-7.75c1.25-2.375,6.25-10.624,5.125-13.624S782.875,456.596,765.5,455.847z"/>
			<g>
				<path fill="#AFDCDF" d="M769.97,499.237h-7.417c-1.939,0-3.426-1.066-4.379-1.88c-0.076-0.058-0.182-0.146-0.236-0.207
					c-1.591-1.758-1.574-3.479-1.565-4.509c0.012-1.304-0.43-2.509-0.75-3.388c-0.064-0.178-0.125-0.342-0.177-0.492
					c-0.31-0.896-2.312-4.404-3.39-6.02c-3.435-5.156-3.188-9.669-3.057-12.098c0.25-4.597,2.116-8.387,5.709-11.586
					c1.461-1.301,3.241-2.333,5.291-3.064c1.835-0.723,3.809-1.121,5.833-1.174c0.047-0.007,0.096-0.013,0.144-0.013
					c0.008,0,0.065,0,0.071,0l0.201,0.003l0.042-0.003c0.019,0,0.058,0,0.074,0.003l0.105-0.003c0.007,0,0.072,0,0.079,0
					c0.042,0,0.084,0.003,0.123,0.011c2.298,0.051,4.52,0.543,6.606,1.467c1.715,0.694,3.253,1.634,4.534,2.773
					c3.609,3.218,5.479,7.01,5.708,11.593l0.015,0.268c0.021,0.394,0.045,0.786,0.045,1.182l-0.002,0.102
					c-0.005,2.754-0.361,6.412-3.113,10.54c-1.075,1.615-3.079,5.124-3.388,6.02c-0.054,0.152-0.112,0.317-0.178,0.496
					c-0.321,0.878-0.763,2.082-0.751,3.354c0.011,1.074,0.025,2.799-1.57,4.546c-0.059,0.062-0.156,0.146-0.23,0.201
					C773.396,498.175,771.92,499.237,769.97,499.237z M759.715,495.399c0.02,0.015,0.035,0.026,0.052,0.042
					c1.056,0.901,1.913,1.306,2.786,1.306h7.417c0.881,0,1.738-0.403,2.78-1.301c0.021-0.019,0.04-0.032,0.061-0.05
					c0.866-0.99,0.857-1.867,0.853-2.72c-0.016-1.767,0.536-3.273,0.901-4.273c0.059-0.163,0.112-0.312,0.158-0.448
					c0.438-1.271,2.703-5.141,3.672-6.593c2.366-3.556,2.689-6.611,2.693-9.136l0.002-0.097c0-0.375-0.02-0.72-0.039-1.062
					l-0.015-0.284c-0.196-3.887-1.792-7.11-4.877-9.858c-1.069-0.952-2.365-1.739-3.852-2.342c-1.854-0.821-3.794-1.243-5.798-1.273
					c-0.034,0-0.064-0.001-0.099-0.004h-0.062c-0.022,0-0.07-0.001-0.096-0.002h-0.126c-0.038,0.005-0.077,0.006-0.117,0.009
					c-1.771,0.032-3.505,0.376-5.141,1.021c-1.784,0.638-3.289,1.504-4.51,2.593c-3.07,2.733-4.666,5.959-4.878,9.858
					c-0.16,2.958-0.104,6.458,2.643,10.58c0.968,1.45,3.234,5.32,3.671,6.592c0.047,0.135,0.103,0.284,0.159,0.445
					c0.364,0.999,0.918,2.508,0.902,4.231C758.854,493.516,758.846,494.396,759.715,495.399z"/>
			</g>
			<g>
				<path fill="#AFDCDF" d="M760.977,505.411c-0.553,0-1.036-0.403-1.125-0.966c-0.096-0.623,0.33-1.206,0.953-1.302l10.565-1.622
					c0.624-0.099,1.205,0.329,1.3,0.952c0.097,0.622-0.33,1.204-0.953,1.302l-10.563,1.623
					C761.093,505.406,761.034,505.411,760.977,505.411z"/>
			</g>
			<g>
				<path fill="#AFDCDF" d="M760.977,508.579c-0.553,0-1.036-0.402-1.125-0.968c-0.096-0.621,0.33-1.204,0.953-1.298l10.565-1.624
					c0.624-0.1,1.205,0.328,1.3,0.951c0.097,0.623-0.33,1.206-0.953,1.303l-10.563,1.623
					C761.093,508.574,761.034,508.579,760.977,508.579z"/>
			</g>
			<path fill="#AFDCDF" d="M760.847,499.992c-0.013,0.002-0.021,0.008-0.036,0.01c-0.603,0.112-1.012,0.682-0.917,1.291
				c0.085,0.564,0.571,0.968,1.126,0.968c0.025,0,0.056-0.005,0.081-0.008l4.412-0.676l0.867-0.135
				c0.621-0.096,1.049-0.679,0.953-1.3c-0.014-0.082-0.035-0.158-0.063-0.23h-5.887L760.847,499.992z"/>
			<g>
				<path fill="#AFDCDF" d="M766.261,513.188c-1.869,0-3.535-1.188-4.146-2.956c-0.227-0.649,0.12-1.359,0.771-1.585
					c0.648-0.224,1.358,0.119,1.584,0.771c0.267,0.766,0.985,1.281,1.793,1.281c0.809,0,1.528-0.516,1.793-1.281
					c0.226-0.649,0.935-0.993,1.584-0.771c0.65,0.226,0.996,0.936,0.771,1.585C769.797,512,768.131,513.188,766.261,513.188z"/>
			</g>
		</g>
		<g>
			
				<line fill="none" stroke="#FFFFFF" stroke-width="1.8931" stroke-miterlimit="10" x1="630.586" y1="613.422" x2="634.195" y2="613.422"/>
			<path fill="#F2EDEC" d="M633.594,457.12c0,0-47.21,4.635-47.328-41.648c-0.121-47.325-0.473-117.845-0.473-117.845
				s0.945-31.237,48.748-30.29c47.8,0.946,48.746,29.816,48.746,29.816v118.319C683.287,415.471,687.412,458.576,633.594,457.12z"/>
			<circle fill="#2B3D49" cx="619.438" cy="334.708" r="2.839"/>
			<circle fill="#2B3D49" cx="649.749" cy="334.708" r="2.839"/>
			<path fill="none" stroke="#2B3D49" stroke-width="3.7863" stroke-miterlimit="10" d="M662.117,334.918
				c0,6.945-5.627,12.575-12.575,12.575c-6.944,0-12.57-5.63-12.57-12.575c0-6.944,5.626-12.573,12.57-12.573
				C656.49,322.345,662.117,327.974,662.117,334.918z"/>
			<circle fill="none" stroke="#2B3D49" stroke-width="3.7863" stroke-miterlimit="10" cx="619.134" cy="334.918" r="12.574"/>
			<path fill="none" stroke="#2B3D49" stroke-width="3.7863" stroke-miterlimit="10" d="M637.781,328.355
				c-0.743-0.857-1.891-1.546-3.652-1.546"/>
			<path fill="none" stroke="#2B3D49" stroke-width="3.7863" stroke-miterlimit="10" d="M630.912,327.982
				c0.755-0.666,1.83-1.152,3.354-1.152"/>
			<path fill="#2B3D49" d="M605.975,272.086c0,0-21.072,6.257-20.469,29.326c0.475,17.981,0.475,18.103,0.475,18.103
				s18.932-2.484,22.719-16.683C612.483,288.632,609.762,282.499,605.975,272.086z"/>
			<path fill="#2B3D49" d="M661.821,271.672c0,0,22.185,8.204,21.534,30.272c-0.545,18.394-0.118,17.333-0.118,17.333
				s-20.353-2.663-24.139-16.861C655.314,288.219,658.036,282.083,661.821,271.672z"/>
			<polygon fill="#2B3D49" points="623.171,359.25 590.594,378.021 677.555,378.021 646.153,359.39 			"/>
			<path fill="#AFDCDF" d="M568.715,598.443c-0.179-36.253-0.839-57.271-0.839-57.271s1.521-73.613,65.71-72.667
				c64.188,0.947,64.915,73.614,64.915,73.614l0.408,56.085"/>
			<path fill="none" stroke="#2B3D49" stroke-width="4.0231" stroke-miterlimit="10" d="M741.338,483.651
				c0,11.296-9.157,20.447-20.453,20.447c-11.291,0-20.45-9.151-20.45-20.447c0-11.292,9.159-20.449,20.45-20.449
				C732.181,463.202,741.338,472.358,741.338,483.651z"/>
			
				<line fill="none" stroke="#2B3D49" stroke-width="4.0231" stroke-linecap="round" stroke-miterlimit="10" x1="705.739" y1="500.084" x2="670.991" y2="534.271"/>
			<pattern  id="SVGID_2_" xlink:href="#SVGID_1_" patternTransform="matrix(1.0188 0 0 1.0188 295.2891 24138.3125)">
			</pattern>
			<path fill="url(#SVGID_2_)" d="M695.979,517.472c0,6.293-5.103,11.401-11.396,11.401h-14.753
				c-6.294,0-11.397-5.108-11.397-11.401l0,0c0-6.295,5.104-11.399,11.397-11.399h14.753
				C690.876,506.071,695.979,511.177,695.979,517.472L695.979,517.472z"/>
			<pattern  id="SVGID_3_" xlink:href="#SVGID_4_" patternTransform="matrix(0.8647 0 0 0.8647 -3501.666 19360.3789)">
			</pattern>
			<path fill="url(#SVGID_3_)" d="M782.268,520.312c0,5.341-4.33,9.677-9.675,9.677h-12.52c-5.345,0-9.675-4.336-9.675-9.677l0,0
				c0-5.344,4.33-9.677,9.675-9.677h12.52C777.938,510.636,782.268,514.969,782.268,520.312L782.268,520.312z"/>
			<rect x="568.822" y="590.633" fill="#2B3D49" width="129.915" height="7.573"/>
			<rect x="572.846" y="590.633" fill="#FFFFFF" width="3.076" height="7.573"/>
			<rect x="595.998" y="590.633" fill="#FFFFFF" width="3.076" height="7.573"/>
			<rect x="668.212" y="590.633" fill="#FFFFFF" width="3.075" height="7.573"/>
			<rect x="691.363" y="590.633" fill="#FFFFFF" width="3.076" height="7.573"/>
			
				<rect x="630.59" y="591.427" fill="none" stroke="#FFFFFF" stroke-width="1.8931" stroke-miterlimit="10" width="9.221" height="5.75"/>
			<polyline opacity="0.2" enable-background="new    " points="621,457 645.35,457 646,456.489 646,460 621,460 			"/>
		</g>
		<g>
			<g>
				<path fill="#BFE3E5" d="M631.957,123H796c0,0-38.671-39.341-96.021-13.335C699.979,109.665,653.959,102,631.957,123z"/>
				<path fill="#CFEAEC" d="M509.944,124h164.043c0,0-38.67-39.344-96.021-13.336C577.966,110.664,531.945,102,509.944,124z"/>
				<g>
					<rect x="487" y="73" fill="#20446B" width="76" height="20"/>
					<polygon fill="#183356" points="512.31,92.688 525.7,81.582 537.811,92.688 558,92.646 558,123 491,123 491,92.646 					"/>
					<rect x="510" y="100" fill="#F2EDEC" width="8" height="15"/>
					<rect x="522" y="105" fill="#EB6A5B" width="8" height="17"/>
					<rect x="522" y="90" fill="#F2EDEC" width="8" height="7"/>
					<rect x="497" y="100" fill="#F2EDEC" width="9" height="15"/>
					<rect x="547" y="100" fill="#F2EDEC" width="8" height="15"/>
					<rect x="534" y="100" fill="#F2EDEC" width="9" height="15"/>
					<rect x="539" y="67" fill="#BFE3E5" width="4" height="10"/>
				</g>
				<g>
					<ellipse fill="#AECD58" cx="610.538" cy="75.819" rx="18.493" ry="32.99"/>
					<path fill="#183356" d="M602.199,115.382h16.206C618.405,115.382,611.639,107.855,602.199,115.382z"/>
					<g>
						<path fill="#183356" d="M610.816,115.43c-0.382,0-0.686-0.307-0.686-0.687V62.232c0-0.377,0.304-0.684,0.686-0.684
							c0.379,0,0.685,0.306,0.685,0.684v52.511C611.501,115.123,611.195,115.43,610.816,115.43z"/>
					</g>
					<g>
						<path fill="#183356" d="M610.719,103.006c-0.104,0-0.218-0.027-0.319-0.083l-10.303-5.52
							c-0.332-0.181-0.459-0.594-0.278-0.928c0.178-0.334,0.594-0.459,0.93-0.28l10.3,5.519c0.333,0.181,0.459,0.593,0.28,0.929
							C611.203,102.872,610.965,103.006,610.719,103.006z"/>
					</g>
					<g>
						<path fill="#183356" d="M611.247,96.141c-0.201,0-0.399-0.088-0.537-0.259c-0.235-0.296-0.186-0.728,0.111-0.962l12.104-9.598
							c0.296-0.234,0.729-0.183,0.961,0.113c0.234,0.295,0.187,0.727-0.109,0.961l-12.104,9.6
							C611.549,96.093,611.398,96.141,611.247,96.141z"/>
					</g>
					<g>
						<path fill="#183356" d="M610.791,87.89c-0.111,0-0.222-0.026-0.324-0.082l-9.612-5.16c-0.334-0.18-0.457-0.593-0.278-0.928
							c0.179-0.332,0.596-0.459,0.928-0.278l9.612,5.16c0.335,0.179,0.461,0.596,0.278,0.927
							C611.27,87.76,611.036,87.89,610.791,87.89z"/>
					</g>
					<g>
						<path fill="#183356" d="M610.764,75.963c-0.106,0-0.221-0.028-0.321-0.083l-6.479-3.477c-0.332-0.179-0.457-0.594-0.277-0.926
							c0.18-0.333,0.596-0.458,0.928-0.281l6.479,3.479c0.334,0.178,0.461,0.594,0.28,0.926
							C611.244,75.832,611.008,75.963,610.764,75.963z"/>
					</g>
					<g>
						<path fill="#183356" d="M611.088,81.298c-0.158,0-0.318-0.055-0.449-0.168c-0.283-0.249-0.314-0.682-0.064-0.966l7.15-8.221
							c0.249-0.286,0.683-0.314,0.97-0.066c0.28,0.247,0.312,0.681,0.063,0.965l-7.151,8.221
							C611.471,81.218,611.279,81.298,611.088,81.298z"/>
					</g>
					<g>
						<path fill="#183356" d="M611.106,70.584c-0.157,0-0.319-0.055-0.449-0.168c-0.286-0.248-0.315-0.681-0.067-0.966l5.203-5.978
							c0.249-0.288,0.683-0.314,0.965-0.067c0.286,0.249,0.317,0.683,0.068,0.967l-5.204,5.977
							C611.488,70.504,611.296,70.584,611.106,70.584z"/>
					</g>
				</g>
			</g>
			<polygon fill="#183356" points="537.93,88.282 539.738,88.278 526.047,76.208 511.659,88.278 513.468,88.282 526.047,78.022 			
				"/>
		</g>
		<g>
			<g>
				
					<image overflow="visible" opacity="0.07" width="611" height="163" xlink:href="663241A115DEA247.png"  transform="matrix(1 0 0 1 340.4844 93.4844)">
				</image>
				<g>
					<g>
						<g>
							<rect x="369.739" y="122.333" fill="#F7FBFC" width="540.347" height="93.417"/>
						</g>
					</g>
				</g>
			</g>
			<rect x="297" y="122" fill="#F7FBFC" width="74" height="94"/>
			<rect x="909" y="122" fill="#F7FBFC" width="74" height="94"/>
		</g>
		<g>
			<g>
				<path fill="#F7FBFC" d="M767.057,472.217c0-2.989-1.156-5.706-3.055-7.743h-2.575c2.324,1.79,3.821,4.593,3.821,7.743
					c0,3.158-1.497,5.956-3.825,7.743h2.579C765.898,477.925,767.057,475.206,767.057,472.217"/>
				<path fill="#F7FBFC" d="M768.363,472.255c0-2.893-0.918-5.58-2.486-7.782h3.562c1.31,2.305,2.055,4.958,2.055,7.782
					c0,2.797-0.73,5.426-2.008,7.705h-3.56C767.464,477.776,768.363,475.122,768.363,472.255"/>
			</g>
		</g>
		<g>
			<g>
				<path fill="#7A1E72" d="M123.967,767.253h-0.506c-0.045,0-0.062-0.043-0.083-0.084l-0.597-1.109h-0.059
					c-0.107,0-0.273-0.012-0.369-0.016v1.125c0,0.047-0.031,0.084-0.078,0.084h-0.416c-0.045,0-0.082-0.037-0.082-0.084v-2.853
					c0-0.084,0.049-0.112,0.133-0.124c0.215-0.034,0.51-0.058,0.812-0.058c0.64,0,1.194,0.229,1.194,0.938v0.038
					c0,0.438-0.221,0.712-0.56,0.845l0.65,1.211c0.01,0.012,0.01,0.025,0.01,0.033C124.018,767.23,123.998,767.253,123.967,767.253
					 M123.346,765.075c0-0.312-0.21-0.444-0.623-0.444c-0.087,0-0.293,0.009-0.369,0.018v0.934c0.066,0.006,0.299,0.013,0.369,0.013
					c0.427,0,0.623-0.116,0.623-0.479V765.075z"/>
				<path fill="#7A1E72" d="M126.264,766.274h-1.354v0.012c0,0.24,0.102,0.526,0.497,0.526c0.304,0,0.589-0.024,0.765-0.041
					c0.004,0,0.007,0,0.012,0c0.042,0,0.076,0.019,0.076,0.06v0.275c0,0.064-0.014,0.096-0.088,0.108
					c-0.27,0.049-0.43,0.069-0.805,0.069c-0.416,0-1.002-0.225-1.002-1.04v-0.309c0-0.646,0.359-1.054,0.992-1.054
					c0.639,0,0.988,0.436,0.988,1.054v0.231C126.346,766.235,126.32,766.274,126.264,766.274 M125.795,765.867
					c0-0.324-0.18-0.51-0.438-0.51c-0.255,0-0.443,0.183-0.443,0.51v0.018h0.881V765.867L125.795,765.867z M126.039,764.083
					l-0.49,0.514c-0.033,0.038-0.049,0.057-0.098,0.057h-0.357c-0.025,0-0.037-0.015-0.037-0.03c0-0.012,0.003-0.027,0.017-0.041
					l0.394-0.498c0.037-0.045,0.054-0.062,0.108-0.062h0.435c0.029,0,0.047,0.015,0.047,0.028
					C126.057,764.058,126.05,764.071,126.039,764.083z"/>
				<path fill="#7A1E72" d="M128.867,765.29l-0.136,0.054c0.064,0.099,0.103,0.188,0.103,0.333v0.029
					c0,0.518-0.357,0.754-0.982,0.754c-0.221,0-0.371-0.038-0.45-0.07c-0.052,0.033-0.071,0.07-0.071,0.108
					c0,0.082,0.044,0.115,0.139,0.135l0.49,0.118c0.563,0.134,0.93,0.221,0.93,0.663v0.029c0,0.424-0.312,0.648-1.018,0.648
					c-0.67,0-1.028-0.254-1.028-0.688v-0.038c0-0.17,0.081-0.334,0.212-0.455c-0.115-0.087-0.187-0.233-0.187-0.381v-0.004
					c0-0.128,0.056-0.259,0.166-0.337c-0.124-0.131-0.171-0.278-0.171-0.483v-0.029c0-0.416,0.271-0.763,0.988-0.763h0.971
					c0.062,0,0.111,0.048,0.111,0.111v0.175C128.934,765.26,128.918,765.27,128.867,765.29 M128.34,767.414
					c0-0.092-0.053-0.146-0.488-0.25l-0.371-0.087c-0.061,0.087-0.101,0.143-0.101,0.29v0.038c0,0.17,0.101,0.272,0.491,0.272
					c0.398,0,0.469-0.086,0.469-0.234V767.414z M128.295,765.684c0-0.196-0.086-0.352-0.443-0.352c-0.352,0-0.447,0.158-0.447,0.352
					v0.034c0,0.154,0.062,0.326,0.447,0.326c0.345,0,0.443-0.119,0.443-0.326V765.684z"/>
				<path fill="#7A1E72" d="M129.891,764.604h-0.4c-0.047,0-0.089-0.038-0.089-0.086v-0.362c0-0.045,0.042-0.082,0.089-0.082h0.4
					c0.049,0,0.084,0.037,0.084,0.082v0.362C129.975,764.564,129.939,764.604,129.891,764.604 M129.879,767.253h-0.381
					c-0.045,0-0.084-0.043-0.084-0.089v-2.169c0-0.046,0.039-0.082,0.084-0.082h0.381c0.045,0,0.084,0.036,0.084,0.082v2.169
					C129.963,767.21,129.924,767.253,129.879,767.253z"/>
				<path fill="#7A1E72" d="M131.518,767.285c-0.651,0-0.992-0.44-0.992-1.032v-0.338c0-0.589,0.341-1.03,0.992-1.03
					c0.65,0,0.99,0.441,0.99,1.03v0.338C132.508,766.845,132.168,767.285,131.518,767.285 M131.959,765.915
					c0-0.339-0.152-0.558-0.441-0.558s-0.443,0.219-0.443,0.558v0.338c0,0.339,0.154,0.56,0.443,0.56s0.441-0.22,0.441-0.56V765.915
					z"/>
				<path fill="#7A1E72" d="M134.895,767.253h-0.383c-0.046,0-0.084-0.043-0.084-0.089v-1.354c0-0.356-0.033-0.462-0.353-0.462
					c-0.142,0-0.294,0.058-0.467,0.148v1.667c0,0.046-0.04,0.089-0.084,0.089h-0.383c-0.046,0-0.081-0.043-0.081-0.089v-2.169
					c0-0.046,0.035-0.082,0.081-0.082h0.362c0.045,0,0.082,0.036,0.082,0.082v0.086c0.242-0.152,0.398-0.197,0.674-0.197
					c0.595,0,0.717,0.403,0.717,0.927v1.354C134.977,767.21,134.938,767.253,134.895,767.253"/>
				<path fill="#005CA5" d="M137.354,770.19c0.01-0.028,0.02-0.048,0.02-0.073c0-0.078-0.066-0.144-0.162-0.144h-1.035
					c-0.083,0-0.15,0.073-0.178,0.15l-1.13,2.804c-0.065,0.159-0.122,0.189-0.169,0.189c-0.037,0-0.094-0.03-0.159-0.189
					l-1.131-2.804c-0.027-0.077-0.093-0.15-0.179-0.15h-1.043c-0.096,0-0.152,0.064-0.152,0.144c0,0.017,0.01,0.045,0.02,0.073
					l0.958,2.2c0.001,0.001,0.002,0.003,0.002,0.006l1.036,2.38v2.002c0,0.104,0.074,0.187,0.179,0.187h0.939
					c0.104,0,0.179-0.083,0.179-0.187v-2.002l0.607-1.394L137.354,770.19"/>
				<path fill="#005CA5" d="M123.924,774.36c-0.244,0-0.622-0.03-0.838-0.039v2.457c0,0.104-0.078,0.187-0.18,0.187h-0.941
					c-0.104,0-0.188-0.083-0.188-0.187v-6.477c0-0.187,0.111-0.255,0.301-0.283c0.49-0.072,1.158-0.123,1.846-0.123
					c1.449,0,2.711,0.513,2.711,2.177v0.084C126.635,773.825,125.373,774.36,123.924,774.36 M125.336,772.073
					c0-0.792-0.471-1.091-1.412-1.091c-0.198,0-0.668,0.018-0.838,0.035v2.239c0.15,0.011,0.677,0.028,0.838,0.028
					c1.016,0,1.412-0.374,1.412-1.129V772.073z"/>
				<path fill="#005CA5" d="M132.176,776.965h-0.997c-0.083,0-0.159-0.072-0.179-0.157l-0.432-1.788h-2.166l-0.434,1.788
					c-0.018,0.085-0.094,0.157-0.18,0.157h-0.996c-0.095,0-0.172-0.062-0.172-0.157c0-0.01,0.01-0.027,0.01-0.047l1.545-5.9
					c0.227-0.874,0.904-0.96,1.31-0.96c0.403,0,1.083,0.086,1.31,0.96l1.543,5.9c0,0.02,0.01,0.037,0.01,0.047
					C132.348,776.902,132.27,776.965,132.176,776.965 M129.635,771.15c-0.027-0.112-0.056-0.15-0.149-0.15
					c-0.096,0-0.124,0.038-0.151,0.15l-0.678,2.797h1.656L129.635,771.15z"/>
				<path fill="#005CA5" d="M139.945,777.042c-0.703,0-1.211-0.066-1.662-0.168c-0.096-0.019-0.181-0.085-0.181-0.188v-0.679
					c0-0.104,0.085-0.18,0.181-0.18c0.009,0,0.009,0,0.018,0c0.377,0.048,1.318,0.095,1.668,0.095c0.836,0,1.09-0.301,1.09-0.845
					c0-0.371-0.178-0.559-0.799-0.922l-1.244-0.746c-0.875-0.518-1.11-1.064-1.11-1.726c0-1.031,0.603-1.787,2.354-1.787
					c0.621,0,1.486,0.097,1.806,0.171c0.095,0.018,0.171,0.084,0.171,0.179v0.697c0,0.094-0.068,0.169-0.16,0.169
					c-0.011,0-0.011,0-0.02,0c-0.621-0.06-1.243-0.097-1.854-0.097c-0.696,0-0.987,0.245-0.987,0.667
					c0,0.312,0.158,0.501,0.771,0.841l1.132,0.631c1.034,0.574,1.307,1.175,1.307,1.922
					C142.424,776.027,141.83,777.042,139.945,777.042"/>
				<path fill="#005CA5" d="M148.006,777.042c-0.67,0-1.572-0.066-1.855-0.112c-0.159-0.026-0.243-0.103-0.243-0.292v-6.334
					c0-0.187,0.084-0.264,0.243-0.291c0.283-0.048,1.186-0.113,1.855-0.113c1.881,0,2.956,1.017,2.956,2.878v1.387
					C150.962,776.027,149.887,777.042,148.006,777.042 M149.661,772.776c0-1.409-0.714-1.776-1.655-1.776
					c-0.348,0-0.594,0.019-0.79,0.026v4.887c0.196,0.009,0.442,0.028,0.79,0.028c0.941,0,1.655-0.367,1.655-1.778V772.776z"/>
				<path fill="#005CA5" d="M155.996,776.911c-0.301,0.046-0.668,0.13-1.787,0.13c-1.226,0-2.176-0.327-2.176-1.927v-3.288
					c0-1.601,0.95-1.93,2.176-1.93c1.119,0,1.486,0.087,1.787,0.132c0.143,0.02,0.189,0.066,0.189,0.196v0.604
					c0,0.104-0.085,0.188-0.189,0.188h-1.922c-0.544,0-0.742,0.188-0.742,0.81v1.018h2.551c0.104,0,0.189,0.084,0.189,0.19v0.676
					c0,0.105-0.085,0.188-0.189,0.188h-2.551v1.217c0,0.621,0.198,0.808,0.742,0.808h1.922c0.104,0,0.189,0.084,0.189,0.188v0.604
					C156.186,776.845,156.139,776.893,155.996,776.911"/>
				<path fill="#005CA5" d="M163.582,776.911c-0.283,0.062-1.1,0.13-1.598,0.13c-1.229,0-2.176-0.327-2.176-1.927v-4.953
					c0-0.104,0.084-0.188,0.188-0.188h0.933c0.103,0,0.188,0.084,0.188,0.188v4.953c0,0.621,0.188,0.808,0.734,0.808h1.73
					c0.104,0,0.189,0.084,0.189,0.188v0.604C163.771,776.845,163.723,776.882,163.582,776.911"/>
				<path fill="#005CA5" d="M169.693,776.965h-0.998c-0.087,0-0.16-0.072-0.182-0.157l-0.43-1.788h-2.166l-0.435,1.788
					c-0.019,0.085-0.095,0.157-0.178,0.157h-0.997c-0.096,0-0.169-0.062-0.169-0.157c0-0.01,0.009-0.027,0.009-0.047l1.543-5.9
					c0.227-0.874,0.902-0.96,1.309-0.96c0.404,0,1.084,0.086,1.309,0.96l1.543,5.9c0,0.02,0.01,0.037,0.01,0.047
					C169.861,776.902,169.786,776.965,169.693,776.965 M167.15,771.15c-0.029-0.112-0.057-0.15-0.15-0.15
					c-0.095,0-0.122,0.038-0.149,0.15l-0.68,2.797h1.657L167.15,771.15z"/>
				<path fill="#005CA5" d="M176.875,776.911c-0.283,0.062-1.102,0.13-1.6,0.13c-1.226,0-2.176-0.327-2.176-1.927v-4.953
					c0-0.104,0.084-0.188,0.188-0.188h0.931c0.105,0,0.188,0.084,0.188,0.188v4.953c0,0.621,0.19,0.808,0.737,0.808h1.731
					c0.104,0,0.187,0.084,0.187,0.188v0.604C177.062,776.845,177.015,776.882,176.875,776.911"/>
				<path fill="#005CA5" d="M180.12,777.042c-1.555,0-2.685-0.865-2.685-2.936v-1.271c0-2.069,1.13-2.937,2.685-2.937
					c1.554,0,2.683,0.865,2.683,2.937v1.271C182.803,776.177,181.674,777.042,180.12,777.042 M181.485,772.834
					c0-1.242-0.443-1.796-1.365-1.796c-0.923,0-1.364,0.555-1.364,1.796v1.271c0,1.242,0.441,1.798,1.364,1.798
					c0.922,0,1.365-0.556,1.365-1.798V772.834z"/>
				<path fill="#005CA5" d="M185.146,776.965h-0.932c-0.105,0-0.189-0.083-0.189-0.187v-6.626c0-0.104,0.084-0.179,0.189-0.179
					h0.932c0.103,0,0.188,0.073,0.188,0.179v6.626C185.334,776.882,185.249,776.965,185.146,776.965"/>
				<path fill="#005CA5" d="M191.715,776.965h-1.149c-0.101,0-0.14-0.091-0.186-0.187l-1.355-2.513h-0.132
					c-0.247,0-0.621-0.028-0.84-0.04v2.553c0,0.104-0.074,0.187-0.178,0.187h-0.939c-0.104,0-0.189-0.083-0.189-0.187v-6.477
					c0-0.187,0.113-0.255,0.301-0.282c0.49-0.073,1.156-0.122,1.846-0.122c1.45,0,2.711,0.52,2.711,2.128v0.084
					c0,0.998-0.5,1.619-1.271,1.92l1.479,2.748c0.018,0.027,0.018,0.059,0.018,0.075
					C191.828,776.919,191.79,776.965,191.715,776.965 M190.305,772.026c0-0.708-0.471-1.009-1.412-1.009
					c-0.197,0-0.67,0.021-0.84,0.037v2.119c0.15,0.01,0.68,0.028,0.84,0.028c0.969,0,1.412-0.267,1.412-1.093V772.026z"/>
				<path fill="#005CA5" d="M196.619,776.911c-0.303,0.046-0.668,0.13-1.789,0.13c-1.225,0-2.176-0.327-2.176-1.927v-3.288
					c0-1.601,0.951-1.93,2.176-1.93c1.121,0,1.486,0.087,1.789,0.132c0.142,0.02,0.188,0.066,0.188,0.196v0.604
					c0,0.104-0.084,0.188-0.188,0.188h-1.922c-0.545,0-0.744,0.188-0.744,0.81v1.018h2.551c0.105,0,0.189,0.084,0.189,0.19v0.676
					c0,0.105-0.084,0.188-0.189,0.188h-2.551v1.217c0,0.621,0.199,0.808,0.744,0.808h1.922c0.104,0,0.188,0.084,0.188,0.188v0.604
					C196.807,776.845,196.761,776.893,196.619,776.911"/>
				<path fill="#009CB9" d="M110.92,773.468c0-5.243-2.033-10.006-5.356-13.583h-4.521c4.075,3.142,6.702,8.053,6.702,13.583
					c0,5.539-2.627,10.45-6.706,13.585h4.524C108.887,783.482,110.92,778.713,110.92,773.468"/>
				<path fill="#BDD143" d="M113.211,773.536c0-5.076-1.613-9.787-4.36-13.65h6.249c2.292,4.037,3.601,8.694,3.601,13.65
					c0,4.906-1.281,9.518-3.521,13.518h-6.244C111.633,783.22,113.211,778.564,113.211,773.536"/>
				<path fill="#009CB9" d="M37.627,775.476h-0.318c-0.061,0-0.109-0.057-0.109-0.124v-4.341c0-0.06,0.043-0.114,0.109-0.114h0.318
					c0.061,0,0.109,0.049,0.109,0.114v4.341C37.736,775.414,37.693,775.476,37.627,775.476"/>
				<path fill="#009CB9" d="M39.501,771.011l-0.353,1.15c-0.025,0.086-0.056,0.115-0.117,0.115h-0.285
					c-0.042,0-0.055-0.023-0.055-0.062c0-0.017,0-0.037,0.006-0.055l0.279-1.15c0.019-0.084,0.062-0.113,0.123-0.113h0.341
					c0.042,0,0.066,0.023,0.066,0.064C39.507,770.976,39.507,770.993,39.501,771.011"/>
				<path fill="#009CB9" d="M42.868,773.972h-2.04v0.084c0,0.727,0.287,0.992,0.847,0.992c0.353,0,0.803-0.023,1.083-0.063
					c0.013,0,0.018,0,0.031,0c0.049,0,0.098,0.021,0.098,0.086v0.203c0,0.078-0.025,0.123-0.123,0.142
					c-0.347,0.064-0.682,0.104-1.089,0.104c-0.7,0-1.382-0.331-1.382-1.461v-0.549c0-0.87,0.48-1.424,1.351-1.424
					c0.89,0,1.339,0.559,1.339,1.424v0.33C42.982,773.915,42.94,773.972,42.868,773.972 M42.441,773.507
					c0-0.688-0.262-0.955-0.798-0.955c-0.522,0-0.815,0.299-0.815,0.955v0.058h1.613V773.507z"/>
				<path fill="#009CB9" d="M44.998,775.517c-0.225,0-0.663-0.02-0.961-0.09c-0.08-0.02-0.129-0.057-0.129-0.125v-0.211
					c0-0.056,0.049-0.093,0.109-0.093c0.013,0,0.02,0,0.025,0c0.292,0.037,0.736,0.071,0.955,0.071c0.396,0,0.604-0.105,0.604-0.437
					c0-0.183-0.11-0.298-0.457-0.506l-0.615-0.367c-0.371-0.223-0.621-0.484-0.621-0.867c0-0.633,0.476-0.811,1.102-0.811
					c0.342,0,0.664,0.03,0.951,0.079c0.078,0.014,0.115,0.055,0.115,0.122v0.201c0,0.071-0.043,0.104-0.104,0.104
					c-0.006,0-0.012,0-0.018,0c-0.213-0.019-0.604-0.049-0.945-0.049c-0.34,0-0.564,0.042-0.564,0.354
					c0,0.183,0.139,0.299,0.419,0.463l0.603,0.358c0.506,0.298,0.67,0.561,0.67,0.919C46.137,775.255,45.68,775.517,44.998,775.517"
					/>
				<path fill="#009CB9" d="M48.408,775.517c-0.189,0-0.475-0.022-0.713-0.064v1.102c0,0.062-0.049,0.113-0.115,0.113h-0.31
					c-0.061,0-0.109-0.047-0.109-0.113v-4.188c0-0.08,0.018-0.115,0.127-0.141c0.323-0.079,0.75-0.141,1.121-0.141
					c0.907,0,1.327,0.59,1.327,1.504v0.438C49.735,774.982,49.297,775.517,48.408,775.517 M49.199,773.587
					c0-0.64-0.188-1.052-0.791-1.052c-0.256,0-0.542,0.029-0.713,0.059v2.411c0.2,0.037,0.518,0.063,0.713,0.063
					c0.596,0,0.791-0.394,0.791-1.044V773.587z"/>
				<path fill="#009CB9" d="M52.134,772.546c-0.28,0-0.536,0.073-0.841,0.254v2.552c0,0.062-0.055,0.123-0.121,0.123h-0.299
					c-0.061,0-0.115-0.057-0.115-0.123v-3.104c0-0.068,0.048-0.122,0.115-0.122h0.287c0.066,0,0.115,0.054,0.115,0.122v0.126
					c0.305-0.212,0.584-0.291,0.858-0.291c0.085,0,0.128,0.036,0.128,0.11v0.248C52.262,772.508,52.219,772.546,52.134,772.546"/>
				<path fill="#009CB9" d="M53.638,771.59h-0.312c-0.066,0-0.121-0.055-0.121-0.123v-0.483c0-0.068,0.055-0.124,0.121-0.124h0.312
					c0.067,0,0.122,0.055,0.122,0.124v0.483C53.76,771.535,53.705,771.59,53.638,771.59 M53.625,775.476h-0.291
					c-0.067,0-0.123-0.057-0.123-0.124v-3.104c0-0.068,0.056-0.122,0.123-0.122h0.291c0.067,0,0.123,0.054,0.123,0.122v3.104
					C53.748,775.419,53.692,775.476,53.625,775.476z"/>
				<path fill="#009CB9" d="M56.621,775.486c-0.121,0.019-0.281,0.029-0.396,0.029c-0.56,0-0.826-0.146-0.826-0.814v-2.124
					l-0.592-0.069c-0.067-0.005-0.115-0.042-0.115-0.106v-0.165c0-0.069,0.048-0.109,0.115-0.109h0.592v-0.598
					c0-0.062,0.041-0.109,0.107-0.122l0.317-0.048c0.006,0,0.012,0,0.019,0c0.049,0,0.091,0.043,0.091,0.103v0.665h0.657
					c0.068,0,0.121,0.054,0.121,0.122v0.208c0,0.067-0.053,0.122-0.121,0.122h-0.657v2.124c0,0.333,0.085,0.382,0.329,0.382h0.342
					c0.084,0,0.126,0.026,0.126,0.085v0.214C56.729,775.438,56.701,775.476,56.621,775.486"/>
				<path fill="#009CB9" d="M62.07,772.535l-0.22,0.042c0.109,0.112,0.206,0.296,0.206,0.626v0.049c0,0.669-0.414,1.04-1.35,1.04
					c-0.324,0-0.531-0.046-0.708-0.122c-0.104,0.05-0.151,0.118-0.151,0.208c0,0.104,0.048,0.16,0.188,0.195l0.907,0.23
					c0.596,0.152,1.169,0.32,1.169,0.896v0.046c0,0.586-0.39,0.945-1.388,0.945c-0.963,0-1.4-0.373-1.4-0.971v-0.055
					c0-0.342,0.182-0.622,0.383-0.774l-0.041-0.017c-0.196-0.084-0.281-0.286-0.281-0.476v-0.008c0-0.164,0.079-0.34,0.25-0.438
					c-0.189-0.176-0.281-0.396-0.281-0.706v-0.049c0-0.542,0.305-1.077,1.354-1.077h1.332c0.073,0,0.141,0.061,0.141,0.134v0.158
					C62.18,772.498,62.137,772.521,62.07,772.535 M61.576,775.701c0-0.24-0.193-0.338-0.742-0.478l-0.689-0.178
					c-0.176,0.154-0.297,0.304-0.297,0.622v0.055c0,0.344,0.201,0.557,0.877,0.557c0.694,0,0.852-0.195,0.852-0.531L61.576,775.701
					L61.576,775.701z M61.527,773.203c0-0.364-0.164-0.651-0.82-0.651c-0.684,0-0.822,0.312-0.822,0.651v0.049
					c0,0.268,0.121,0.622,0.822,0.622c0.656,0,0.82-0.255,0.82-0.622V773.203z"/>
				<path fill="#009CB9" d="M64.492,772.546c-0.279,0-0.535,0.073-0.84,0.254v2.552c0,0.062-0.055,0.123-0.121,0.123h-0.299
					c-0.061,0-0.115-0.057-0.115-0.123v-3.104c0-0.068,0.049-0.122,0.115-0.122h0.286c0.067,0,0.115,0.054,0.115,0.122v0.126
					c0.306-0.212,0.585-0.291,0.858-0.291c0.086,0,0.129,0.036,0.129,0.11v0.248C64.621,772.508,64.578,772.546,64.492,772.546"/>
				<path fill="#009CB9" d="M67.55,775.476h-0.281c-0.066,0-0.122-0.057-0.122-0.124v-0.134c-0.291,0.17-0.596,0.299-0.938,0.299
					c-0.518,0-0.992-0.226-0.992-0.984v-0.075c0-0.656,0.384-0.985,1.467-0.985h0.452v-0.243c0-0.512-0.179-0.688-0.653-0.688
					c-0.395,0-0.688,0.023-0.93,0.049c-0.014,0-0.02,0-0.032,0c-0.055,0-0.108-0.019-0.108-0.098v-0.214
					c0-0.064,0.043-0.104,0.127-0.115c0.25-0.042,0.53-0.079,0.943-0.079c0.848,0,1.188,0.426,1.188,1.146v2.125
					C67.67,775.419,67.615,775.476,67.55,775.476 M67.136,773.854h-0.452c-0.736,0-0.932,0.164-0.932,0.599v0.073
					c0,0.438,0.207,0.555,0.56,0.555c0.28,0,0.53-0.086,0.824-0.246V773.854z"/>
				<path fill="#009CB9" d="M71.244,775.476h-0.293c-0.065,0-0.121-0.057-0.121-0.124v-2.002c0-0.613-0.207-0.803-0.67-0.803
					c-0.256,0-0.541,0.095-0.82,0.236v2.567c0,0.062-0.057,0.124-0.123,0.124h-0.298c-0.062,0-0.117-0.057-0.117-0.124v-3.104
					c0-0.068,0.05-0.122,0.117-0.122h0.304c0.066,0,0.117,0.054,0.117,0.122v0.115c0.334-0.188,0.607-0.28,0.967-0.28
					c0.73,0,1.06,0.457,1.06,1.267v2.002C71.366,775.419,71.312,775.476,71.244,775.476"/>
				<path fill="#009CB9" d="M74.836,775.414c-0.377,0.072-0.748,0.104-1.119,0.104c-0.908,0-1.328-0.591-1.328-1.504v-0.438
					c0-0.956,0.439-1.493,1.328-1.493c0.188,0,0.474,0.017,0.711,0.061v-1.133c0-0.06,0.049-0.114,0.115-0.114h0.312
					c0.061,0,0.109,0.049,0.109,0.114v4.264C74.965,775.352,74.945,775.396,74.836,775.414 M74.428,772.594
					c-0.201-0.036-0.518-0.042-0.711-0.042c-0.598,0-0.792,0.37-0.792,1.023v0.438c0,0.663,0.188,1.034,0.792,1.034
					c0.205,0,0.504-0.02,0.711-0.037V772.594z"/>
				<path fill="#009CB9" d="M79.146,775.517c-0.896,0-1.352-0.591-1.352-1.484v-0.462c0-0.896,0.456-1.486,1.352-1.486
					c0.895,0,1.357,0.59,1.357,1.486v0.462C80.504,774.926,80.041,775.517,79.146,775.517 M79.969,773.568
					c0-0.621-0.25-1.018-0.822-1.018c-0.566,0-0.816,0.392-0.816,1.018v0.462c0,0.622,0.245,1.017,0.816,1.017
					c0.566,0,0.822-0.389,0.822-1.017V773.568z"/>
				<path fill="#009CB9" d="M83.975,775.476H83.67c-0.066,0-0.117-0.057-0.117-0.124v-0.113c-0.334,0.188-0.607,0.279-0.967,0.279
					c-0.73,0-1.059-0.457-1.059-1.267v-2.003c0-0.068,0.055-0.122,0.122-0.122h0.292c0.066,0,0.121,0.054,0.121,0.122v2.003
					c0,0.615,0.207,0.803,0.669,0.803c0.257,0,0.543-0.096,0.821-0.235v-2.569c0-0.062,0.057-0.122,0.124-0.122h0.298
					c0.06,0,0.116,0.054,0.116,0.122v3.104C84.091,775.419,84.041,775.476,83.975,775.476"/>
				<path fill="#009CB9" d="M87.791,772.271l-0.822,2.896c-0.078,0.275-0.285,0.348-0.547,0.348c-0.262,0-0.469-0.071-0.547-0.348
					l-0.824-2.896c-0.004-0.02-0.004-0.03-0.004-0.041c0-0.063,0.035-0.104,0.096-0.104h0.336c0.049,0,0.09,0.035,0.115,0.115
					l0.7,2.651c0.036,0.147,0.067,0.18,0.128,0.18c0.055,0,0.091-0.031,0.129-0.18l0.698-2.651c0.025-0.08,0.067-0.115,0.116-0.115
					H87.7c0.061,0,0.098,0.041,0.098,0.104C87.798,772.241,87.798,772.253,87.791,772.271"/>
				<path fill="#009CB9" d="M91.097,773.972h-2.039v0.084c0,0.727,0.286,0.992,0.845,0.992c0.355,0,0.805-0.023,1.085-0.063
					c0.013,0,0.019,0,0.03,0c0.049,0,0.098,0.021,0.098,0.086v0.203c0,0.078-0.023,0.123-0.121,0.142
					c-0.346,0.064-0.682,0.104-1.092,0.104c-0.697,0-1.381-0.331-1.381-1.461v-0.549c0-0.87,0.48-1.424,1.352-1.424
					c0.889,0,1.34,0.559,1.34,1.424v0.33C91.213,773.915,91.17,773.972,91.097,773.972 M90.671,773.507
					c0-0.688-0.263-0.955-0.798-0.955c-0.523,0-0.815,0.299-0.815,0.955v0.058h1.613V773.507z"/>
				<path fill="#009CB9" d="M93.623,772.546c-0.279,0-0.534,0.073-0.84,0.254v2.552c0,0.062-0.054,0.123-0.123,0.123h-0.297
					c-0.061,0-0.115-0.057-0.115-0.123v-3.104c0-0.068,0.05-0.122,0.115-0.122h0.288c0.066,0,0.114,0.054,0.114,0.122v0.126
					c0.305-0.212,0.584-0.291,0.857-0.291c0.086,0,0.129,0.036,0.129,0.11v0.248C93.752,772.508,93.709,772.546,93.623,772.546"/>
				<path fill="#009CB9" d="M96.303,775.486c-0.121,0.019-0.279,0.029-0.395,0.029c-0.561,0-0.829-0.146-0.829-0.814v-2.124
					l-0.591-0.069c-0.067-0.005-0.114-0.042-0.114-0.106v-0.165c0-0.069,0.047-0.109,0.114-0.109h0.591v-0.598
					c0-0.062,0.042-0.109,0.109-0.122l0.316-0.048c0.007,0,0.013,0,0.019,0c0.049,0,0.092,0.043,0.092,0.103v0.665h0.658
					c0.066,0,0.121,0.054,0.121,0.122v0.208c0,0.067-0.055,0.122-0.121,0.122h-0.658v2.124c0,0.333,0.085,0.382,0.328,0.382h0.342
					c0.086,0,0.127,0.026,0.127,0.085v0.214C96.412,775.438,96.381,775.476,96.303,775.486"/>
			</g>
		</g>
	</g>
	<g id="Calque_3">
	</g>
</g>
</svg>
