<?xml version="1.0" encoding="utf-8"?>
<!-- Generator: Adobe Illustrator 16.0.0, SVG Export Plug-In . SVG Version: 6.00 Build 0)  -->
<!DOCTYPE svg PUBLIC "-//W3C//DTD SVG 1.1//EN" "http://www.w3.org/Graphics/SVG/1.1/DTD/svg11.dtd">
<svg version="1.1" id="Calque_1" xmlns="http://www.w3.org/2000/svg" xmlns:xlink="http://www.w3.org/1999/xlink" x="0px" y="0px"
	 width="1280px" height="800px" viewBox="0 0 1280 800" enable-background="new 0 0 1280 800" xml:space="preserve">
<g id="Calque_2_1_">
	<rect x="0" fill="#F7FBFC" width="1280" height="800"/>
</g>
<g id="Calque_1_2_">
	<g id="Calque_2">
		<rect x="0" y="-1" fill="#F7FBFC" width="1280" height="798"/>
		<rect x="0" y="-2" fill="#F7FBFC" width="1280" height="798"/>
		<rect x="0" y="-2" fill="#F7FBFC" width="1280" height="798"/>
		<rect x="0" y="-2" fill="#F7FBFC" width="1280" height="798"/>
		<rect x="0" y="-2" fill="#F7FBFC" width="1280" height="798"/>
		<rect x="0" y="-2" fill="#F7FBFC" width="1280" height="798"/>
		<rect x="0" y="-2" fill="#F7FBFC" width="1280" height="798"/>
	</g>
	<g id="Calque_1_1_">
		<rect x="-2" y="757" fill="#F9F6F5" width="1280" height="42"/>
		<g>
			<rect x="452" y="677" fill="#20446B" width="183" height="51"/>
			<polygon fill="#183356" points="512.555,727.917 544.324,701.548 573.073,727.917 621,727.816 621,800 462,800 462,727.818 			
				"/>
			<rect x="505" y="747" fill="#F2EDEC" width="20" height="33"/>
			<rect x="534" y="758" fill="#EB6A5B" width="20" height="40"/>
			<rect x="534" y="723" fill="#F2EDEC" width="20" height="15"/>
			<rect x="477" y="747" fill="#F2EDEC" width="22" height="33"/>
			<rect x="593" y="747" fill="#F2EDEC" width="20" height="33"/>
			<rect x="565" y="747" fill="#F2EDEC" width="20" height="33"/>
			<rect x="576" y="668" fill="#BFE3E5" width="9" height="23"/>
		</g>
		<g>
			
				<image overflow="visible" opacity="0.03" enable-background="new    " width="1065" height="118" xlink:href="4478E6EAFB7A5367.png"  transform="matrix(0.9991 0 0 0.9915 136.658 133.6572)">
			</image>
			<g>
				<rect x="146.31" y="138.5" fill="#F7FBFC" width="1043.728" height="96.969"/>
			</g>
		</g>
		<polygon fill="#F7FBFC" points="800.278,102.455 1130.139,205.945 1132.36,102.455 		"/>
		<path fill="#BED77A" d="M536.964,800H-0.083c0,0,76.583-144.977,248.665-59.248C248.582,740.752,437.998,712,536.964,800z"/>
		<path fill="#CEE19B" d="M71.778,800.133c0,0,21.431-45.383,119.761-23.949c0,0,52.476-70.277,174.761,23.008L71.778,800.133z"/>
		<g>
			<polygon fill="#869941" points="99.376,748.539 68.183,748.539 83.779,704.204 99.376,659.872 114.971,704.204 130.567,748.539 
							"/>
			<path fill="#183356" d="M87.207,758.953h21.141C108.347,758.953,99.519,749.13,87.207,758.953z"/>
			<g>
				<path fill="#183356" d="M98.451,759.013c-0.496,0-0.896-0.397-0.896-0.896v-68.512c0-0.494,0.399-0.896,0.896-0.896
					c0.493,0,0.891,0.401,0.891,0.896v68.512C99.342,758.613,98.945,759.013,98.451,759.013z"/>
			</g>
			<g>
				<path fill="#183356" d="M98.152,742.626c-0.143,0-0.285-0.031-0.422-0.104l-16.682-8.938c-0.438-0.232-0.598-0.774-0.364-1.209
					c0.232-0.435,0.771-0.6,1.211-0.367l16.681,8.938c0.435,0.232,0.598,0.772,0.365,1.209
					C98.782,742.457,98.472,742.626,98.152,742.626z"/>
			</g>
			<g>
				<path fill="#183356" d="M99.014,733.848c-0.266,0-0.525-0.113-0.702-0.336c-0.309-0.388-0.242-0.951,0.146-1.257l15.791-12.522
					c0.388-0.309,0.951-0.237,1.257,0.146c0.307,0.387,0.243,0.949-0.146,1.256l-15.792,12.521
					C99.402,733.784,99.205,733.848,99.014,733.848z"/>
			</g>
			<g>
				<path fill="#183356" d="M98.416,723.082c-0.142,0-0.286-0.037-0.418-0.107l-12.548-6.731c-0.436-0.232-0.599-0.772-0.366-1.207
					c0.233-0.438,0.777-0.601,1.211-0.366l12.548,6.731c0.433,0.23,0.594,0.774,0.362,1.211
					C99.043,722.911,98.735,723.082,98.416,723.082z"/>
			</g>
			<g>
				<path fill="#183356" d="M98.38,707.521c-0.142,0-0.288-0.035-0.419-0.106l-8.454-4.536c-0.437-0.232-0.6-0.776-0.366-1.211
					c0.234-0.433,0.776-0.596,1.211-0.366l8.453,4.539c0.436,0.232,0.598,0.774,0.364,1.209
					C99.01,707.352,98.702,707.521,98.38,707.521z"/>
			</g>
			<g>
				<path fill="#183356" d="M98.674,714.479c-0.209,0-0.416-0.066-0.588-0.217c-0.372-0.321-0.411-0.89-0.085-1.261l9.333-10.725
					c0.325-0.374,0.888-0.412,1.261-0.086c0.372,0.319,0.411,0.886,0.087,1.261l-9.333,10.725
					C99.17,714.377,98.923,714.479,98.674,714.479z"/>
			</g>
			<g>
				<path fill="#183356" d="M98.724,700.505c-0.208,0-0.416-0.075-0.587-0.22c-0.371-0.325-0.41-0.891-0.089-1.263l6.789-7.8
					c0.327-0.369,0.892-0.406,1.265-0.087c0.372,0.324,0.411,0.89,0.085,1.265l-6.79,7.798
					C99.222,700.4,98.973,700.505,98.724,700.505z"/>
			</g>
		</g>
		<g>
			<ellipse fill="#869941" cx="178.92" cy="718.829" rx="14.524" ry="25.911"/>
			<path fill="#183356" d="M172.371,749.902H185.1C185.1,749.902,179.785,743.991,172.371,749.902z"/>
			<g>
				<path fill="#183356" d="M179.139,749.94c-0.298,0-0.536-0.241-0.536-0.54v-41.243c0-0.298,0.238-0.538,0.536-0.538
					c0.299,0,0.539,0.24,0.539,0.538V749.4C179.678,749.699,179.438,749.94,179.139,749.94z"/>
			</g>
			<g>
				<path fill="#183356" d="M179.062,740.182c-0.084,0-0.171-0.021-0.252-0.062l-8.091-4.335c-0.261-0.145-0.36-0.467-0.22-0.729
					c0.139-0.263,0.466-0.359,0.729-0.22l8.09,4.334c0.263,0.144,0.36,0.467,0.222,0.729
					C179.443,740.076,179.256,740.182,179.062,740.182z"/>
			</g>
			<g>
				<path fill="#183356" d="M179.478,734.79c-0.158,0-0.312-0.069-0.421-0.204c-0.186-0.229-0.146-0.572,0.087-0.756l9.507-7.538
					c0.232-0.184,0.57-0.144,0.755,0.089c0.186,0.231,0.146,0.57-0.087,0.755l-9.506,7.54
					C179.715,734.752,179.597,734.79,179.478,734.79z"/>
			</g>
			<g>
				<path fill="#183356" d="M179.119,728.31c-0.087,0-0.175-0.021-0.254-0.062l-7.553-4.053c-0.262-0.144-0.358-0.469-0.219-0.729
					s0.468-0.359,0.729-0.219l7.55,4.053c0.264,0.144,0.361,0.469,0.221,0.729C179.495,728.207,179.312,728.31,179.119,728.31z"/>
			</g>
			<g>
				<path fill="#183356" d="M179.098,718.941c-0.085,0-0.173-0.021-0.254-0.065l-5.089-2.729c-0.261-0.143-0.359-0.468-0.218-0.729
					c0.139-0.262,0.466-0.359,0.727-0.221l5.089,2.73c0.264,0.142,0.362,0.467,0.221,0.729
					C179.476,718.838,179.29,718.941,179.098,718.941z"/>
			</g>
			<g>
				<path fill="#183356" d="M179.353,723.132c-0.124,0-0.25-0.043-0.353-0.132c-0.226-0.196-0.248-0.536-0.054-0.76l5.618-6.457
					c0.195-0.227,0.534-0.247,0.762-0.051c0.221,0.192,0.245,0.532,0.051,0.757l-5.619,6.458
					C179.653,723.068,179.503,723.132,179.353,723.132z"/>
			</g>
			<g>
				<path fill="#183356" d="M179.367,714.718c-0.123,0-0.25-0.045-0.354-0.133c-0.226-0.194-0.248-0.535-0.054-0.759l4.088-4.695
					c0.195-0.226,0.535-0.247,0.758-0.053c0.225,0.195,0.249,0.536,0.053,0.76l-4.087,4.694
					C179.667,714.654,179.516,714.718,179.367,714.718z"/>
			</g>
		</g>
		<path fill="none" stroke="#183356" stroke-width="2" stroke-linecap="round" stroke-linejoin="round" stroke-miterlimit="10" d="
			M305,681c0,0-8.017-5.062-12.656,2.953c0,0-3.797-8.438-13.922-2.531"/>
		<path fill="none" stroke="#183356" stroke-width="2" stroke-linecap="round" stroke-linejoin="round" stroke-miterlimit="10" d="
			M337.854,693.998c0,0-8.016-5.062-12.656,2.953c0,0-3.797-8.438-13.922-2.531"/>
		<path fill="none" stroke="#183356" stroke-width="2" stroke-linecap="round" stroke-linejoin="round" stroke-miterlimit="10" d="
			M355.38,671.752c0,0-8.017-5.062-12.656,2.953c0,0-3.797-8.438-13.922-2.531"/>
		<rect x="268.551" y="172.688" fill="none" width="959.019" height="189.494"/>
		<rect x="176.932" y="292.644" fill="none" width="232.243" height="85.238"/>
		<rect x="512.967" y="292.949" fill="none" width="254.091" height="71.921"/>
		<rect x="851.163" y="292.928" fill="none" width="310.767" height="128.42"/>
		<rect x="178.098" y="474.726" fill="none" width="296.984" height="106.495"/>
		<rect x="512.08" y="476.281" fill="none" width="296.978" height="106.495"/>
		<rect x="851.055" y="477.414" fill="none" width="296.984" height="106.495"/>
		
			<line opacity="0.04" fill="none" stroke="#000000" stroke-miterlimit="10" enable-background="new    " x1="484.5" y1="236" x2="484.5" y2="677"/>
		
			<line opacity="0.04" fill="none" stroke="#000000" stroke-miterlimit="10" enable-background="new    " x1="826.5" y1="236" x2="826.5" y2="757"/>
		<g>
			<g>
				<path fill="#7A1E72" d="M123.967,767.253h-0.506c-0.045,0-0.062-0.043-0.083-0.084l-0.598-1.109h-0.059
					c-0.106,0-0.272-0.013-0.369-0.016v1.125c0,0.047-0.031,0.084-0.078,0.084h-0.416c-0.045,0-0.082-0.037-0.082-0.084v-2.853
					c0-0.084,0.05-0.112,0.134-0.125c0.215-0.033,0.51-0.057,0.812-0.057c0.64,0,1.194,0.229,1.194,0.938v0.038
					c0,0.438-0.222,0.713-0.561,0.846l0.65,1.211c0.01,0.013,0.01,0.024,0.01,0.033C124.018,767.23,123.998,767.253,123.967,767.253
					 M123.346,765.074c0-0.312-0.21-0.443-0.623-0.443c-0.087,0-0.293,0.009-0.369,0.016v0.936c0.066,0.006,0.299,0.013,0.369,0.013
					c0.427,0,0.623-0.117,0.623-0.479V765.074z"/>
				<path fill="#7A1E72" d="M126.264,766.274h-1.354v0.012c0,0.24,0.102,0.526,0.497,0.526c0.304,0,0.589-0.024,0.765-0.041
					c0.004,0,0.007,0,0.012,0c0.042,0,0.076,0.02,0.076,0.061v0.273c0,0.064-0.014,0.097-0.088,0.108
					c-0.271,0.049-0.43,0.069-0.805,0.069c-0.416,0-1.002-0.225-1.002-1.04v-0.31c0-0.646,0.358-1.054,0.991-1.054
					c0.64,0,0.988,0.437,0.988,1.054v0.231C126.346,766.235,126.32,766.274,126.264,766.274 M125.795,765.866
					c0-0.323-0.18-0.51-0.438-0.51c-0.255,0-0.442,0.183-0.442,0.51v0.018h0.881V765.866L125.795,765.866z M126.039,764.084
					l-0.49,0.514c-0.033,0.038-0.049,0.057-0.098,0.057h-0.357c-0.025,0-0.037-0.015-0.037-0.03c0-0.012,0.003-0.027,0.018-0.04
					l0.394-0.498c0.037-0.046,0.054-0.062,0.108-0.062h0.435c0.029,0,0.047,0.015,0.047,0.028
					C126.057,764.058,126.05,764.071,126.039,764.084z"/>
				<path fill="#7A1E72" d="M128.867,765.29l-0.137,0.054c0.064,0.099,0.104,0.188,0.104,0.332v0.029
					c0,0.518-0.357,0.755-0.982,0.755c-0.221,0-0.371-0.038-0.45-0.07c-0.052,0.032-0.07,0.07-0.07,0.108
					c0,0.081,0.044,0.114,0.139,0.135l0.49,0.118c0.562,0.133,0.93,0.22,0.93,0.662v0.028c0,0.425-0.312,0.649-1.018,0.649
					c-0.67,0-1.028-0.254-1.028-0.688v-0.037c0-0.17,0.081-0.334,0.212-0.455c-0.115-0.087-0.187-0.233-0.187-0.382v-0.006
					c0-0.128,0.056-0.258,0.166-0.337c-0.124-0.13-0.172-0.276-0.172-0.482v-0.029c0-0.416,0.271-0.763,0.988-0.763h0.971
					c0.062,0,0.111,0.049,0.111,0.109v0.177C128.934,765.26,128.918,765.27,128.867,765.29 M128.34,767.413
					c0-0.092-0.053-0.146-0.488-0.249l-0.371-0.087c-0.061,0.087-0.101,0.143-0.101,0.29v0.037c0,0.171,0.101,0.272,0.491,0.272
					c0.397,0,0.469-0.087,0.469-0.234V767.413z M128.295,765.684c0-0.196-0.086-0.353-0.443-0.353c-0.352,0-0.447,0.158-0.447,0.353
					v0.034c0,0.153,0.062,0.326,0.447,0.326c0.345,0,0.443-0.119,0.443-0.326V765.684z"/>
				<path fill="#7A1E72" d="M129.891,764.604h-0.399c-0.048,0-0.09-0.038-0.09-0.086v-0.362c0-0.045,0.042-0.082,0.09-0.082h0.399
					c0.049,0,0.084,0.037,0.084,0.082v0.362C129.975,764.562,129.939,764.604,129.891,764.604 M129.879,767.253h-0.381
					c-0.045,0-0.084-0.043-0.084-0.089v-2.169c0-0.046,0.039-0.082,0.084-0.082h0.381c0.045,0,0.084,0.036,0.084,0.082v2.169
					C129.963,767.21,129.924,767.253,129.879,767.253z"/>
				<path fill="#7A1E72" d="M131.518,767.285c-0.65,0-0.992-0.44-0.992-1.032v-0.338c0-0.591,0.342-1.031,0.992-1.031
					s0.99,0.44,0.99,1.031v0.338C132.508,766.845,132.168,767.285,131.518,767.285 M131.959,765.915c0-0.34-0.152-0.56-0.441-0.56
					s-0.442,0.22-0.442,0.56v0.338c0,0.339,0.153,0.56,0.442,0.56s0.441-0.221,0.441-0.56V765.915z"/>
				<path fill="#7A1E72" d="M134.895,767.253h-0.383c-0.046,0-0.084-0.043-0.084-0.089v-1.354c0-0.356-0.033-0.463-0.353-0.463
					c-0.143,0-0.295,0.058-0.468,0.149v1.666c0,0.046-0.04,0.089-0.084,0.089h-0.383c-0.046,0-0.081-0.043-0.081-0.089v-2.169
					c0-0.046,0.035-0.082,0.081-0.082h0.362c0.045,0,0.082,0.036,0.082,0.082v0.087c0.242-0.152,0.397-0.198,0.674-0.198
					c0.595,0,0.717,0.403,0.717,0.928v1.354C134.977,767.21,134.938,767.253,134.895,767.253"/>
				<path fill="#005CA5" d="M137.354,770.189c0.01-0.027,0.021-0.049,0.021-0.072c0-0.078-0.066-0.144-0.162-0.144h-1.035
					c-0.083,0-0.15,0.073-0.178,0.149l-1.13,2.805c-0.065,0.159-0.122,0.188-0.169,0.188c-0.037,0-0.095-0.029-0.159-0.188
					l-1.131-2.805c-0.027-0.076-0.094-0.149-0.18-0.149h-1.043c-0.096,0-0.151,0.063-0.151,0.144c0,0.017,0.01,0.045,0.02,0.072
					l0.958,2.2c0.001,0.001,0.002,0.002,0.002,0.005l1.036,2.382v2.002c0,0.104,0.074,0.187,0.179,0.187h0.939
					c0.104,0,0.179-0.083,0.179-0.187v-2.002l0.607-1.395L137.354,770.189"/>
				<path fill="#005CA5" d="M123.924,774.359c-0.244,0-0.622-0.029-0.838-0.038v2.457c0,0.104-0.078,0.187-0.181,0.187h-0.94
					c-0.104,0-0.188-0.083-0.188-0.187v-6.477c0-0.187,0.111-0.255,0.302-0.283c0.489-0.072,1.157-0.12,1.846-0.12
					c1.449,0,2.711,0.51,2.711,2.175v0.084C126.635,773.824,125.373,774.359,123.924,774.359 M125.336,772.073
					c0-0.792-0.471-1.092-1.412-1.092c-0.198,0-0.668,0.019-0.838,0.035v2.239c0.149,0.011,0.677,0.028,0.838,0.028
					c1.016,0,1.412-0.374,1.412-1.129V772.073z"/>
				<path fill="#005CA5" d="M132.176,776.965h-0.997c-0.083,0-0.159-0.072-0.179-0.157l-0.433-1.788h-2.166l-0.434,1.788
					c-0.018,0.085-0.094,0.157-0.18,0.157h-0.996c-0.096,0-0.172-0.062-0.172-0.157c0-0.011,0.01-0.027,0.01-0.047l1.545-5.9
					c0.227-0.874,0.904-0.96,1.31-0.96c0.403,0,1.083,0.086,1.311,0.96l1.543,5.9c0,0.02,0.01,0.036,0.01,0.047
					C132.348,776.901,132.27,776.965,132.176,776.965 M129.635,771.149c-0.027-0.111-0.056-0.149-0.149-0.149
					c-0.096,0-0.124,0.038-0.15,0.149l-0.678,2.797h1.655L129.635,771.149z"/>
				<path fill="#005CA5" d="M139.945,777.042c-0.702,0-1.211-0.066-1.661-0.169c-0.097-0.021-0.182-0.085-0.182-0.188v-0.679
					c0-0.104,0.085-0.18,0.182-0.18c0.009,0,0.009,0,0.018,0c0.377,0.049,1.318,0.095,1.668,0.095c0.836,0,1.09-0.301,1.09-0.845
					c0-0.37-0.178-0.559-0.799-0.923l-1.244-0.745c-0.875-0.519-1.11-1.064-1.11-1.726c0-1.031,0.604-1.785,2.354-1.785
					c0.621,0,1.486,0.096,1.806,0.17c0.096,0.018,0.171,0.084,0.171,0.18v0.696c0,0.094-0.067,0.169-0.159,0.169
					c-0.012,0-0.012,0-0.021,0c-0.621-0.06-1.243-0.097-1.854-0.097c-0.696,0-0.987,0.244-0.987,0.667
					c0,0.312,0.158,0.501,0.771,0.841l1.133,0.631c1.033,0.572,1.307,1.175,1.307,1.922
					C142.424,776.027,141.83,777.042,139.945,777.042"/>
				<path fill="#005CA5" d="M148.006,777.042c-0.67,0-1.572-0.066-1.855-0.112c-0.158-0.026-0.242-0.103-0.242-0.292v-6.334
					c0-0.187,0.084-0.265,0.242-0.291c0.283-0.048,1.187-0.112,1.855-0.112c1.881,0,2.956,1.017,2.956,2.878v1.387
					C150.962,776.027,149.887,777.042,148.006,777.042 M149.661,772.776c0-1.409-0.715-1.776-1.655-1.776
					c-0.348,0-0.594,0.019-0.79,0.026v4.887c0.196,0.009,0.442,0.028,0.79,0.028c0.94,0,1.655-0.366,1.655-1.778V772.776z"/>
				<path fill="#005CA5" d="M155.996,776.911c-0.302,0.046-0.668,0.131-1.787,0.131c-1.227,0-2.176-0.327-2.176-1.927v-3.289
					c0-1.601,0.949-1.928,2.176-1.928c1.119,0,1.485,0.086,1.787,0.131c0.143,0.02,0.188,0.065,0.188,0.196v0.604
					c0,0.104-0.085,0.188-0.188,0.188h-1.922c-0.545,0-0.742,0.188-0.742,0.81v1.019h2.551c0.104,0,0.188,0.084,0.188,0.189v0.677
					c0,0.105-0.085,0.188-0.188,0.188h-2.551v1.217c0,0.62,0.197,0.807,0.742,0.807h1.922c0.104,0,0.188,0.085,0.188,0.188v0.604
					C156.186,776.845,156.139,776.893,155.996,776.911"/>
				<path fill="#005CA5" d="M163.582,776.911c-0.283,0.062-1.101,0.131-1.599,0.131c-1.229,0-2.176-0.327-2.176-1.927v-4.953
					c0-0.104,0.084-0.188,0.188-0.188h0.933c0.104,0,0.188,0.083,0.188,0.188v4.953c0,0.62,0.188,0.807,0.733,0.807h1.73
					c0.104,0,0.188,0.085,0.188,0.188v0.604C163.771,776.845,163.723,776.882,163.582,776.911"/>
				<path fill="#005CA5" d="M169.693,776.965h-0.998c-0.087,0-0.159-0.072-0.182-0.157l-0.43-1.788h-2.166l-0.436,1.788
					c-0.019,0.085-0.095,0.157-0.178,0.157h-0.997c-0.096,0-0.169-0.062-0.169-0.157c0-0.011,0.009-0.027,0.009-0.047l1.543-5.9
					c0.228-0.874,0.902-0.96,1.31-0.96c0.403,0,1.084,0.086,1.309,0.96l1.543,5.9c0,0.02,0.01,0.036,0.01,0.047
					C169.861,776.901,169.786,776.965,169.693,776.965 M167.15,771.149C167.121,771.038,167.093,771,167,771
					c-0.096,0-0.122,0.038-0.149,0.149l-0.68,2.797h1.657L167.15,771.149z"/>
				<path fill="#005CA5" d="M176.875,776.911c-0.283,0.062-1.103,0.131-1.601,0.131c-1.226,0-2.176-0.327-2.176-1.927v-4.953
					c0-0.104,0.084-0.188,0.188-0.188h0.931c0.104,0,0.188,0.083,0.188,0.188v4.953c0,0.62,0.19,0.807,0.737,0.807h1.731
					c0.104,0,0.187,0.085,0.187,0.188v0.604C177.062,776.845,177.015,776.882,176.875,776.911"/>
				<path fill="#005CA5" d="M180.12,777.042c-1.556,0-2.686-0.865-2.686-2.937v-1.271c0-2.07,1.13-2.938,2.686-2.938
					c1.554,0,2.683,0.865,2.683,2.938v1.271C182.803,776.177,181.674,777.042,180.12,777.042 M181.485,772.835
					c0-1.242-0.442-1.797-1.364-1.797c-0.924,0-1.364,0.555-1.364,1.797v1.271c0,1.242,0.44,1.798,1.364,1.798
					c0.922,0,1.364-0.556,1.364-1.798V772.835z"/>
				<path fill="#005CA5" d="M185.146,776.965h-0.932c-0.105,0-0.189-0.083-0.189-0.187v-6.626c0-0.104,0.084-0.179,0.189-0.179
					h0.932c0.104,0,0.188,0.073,0.188,0.179v6.626C185.334,776.882,185.249,776.965,185.146,776.965"/>
				<path fill="#005CA5" d="M191.715,776.965h-1.149c-0.101,0-0.14-0.092-0.186-0.187l-1.355-2.513h-0.132
					c-0.247,0-0.621-0.028-0.84-0.04v2.553c0,0.104-0.074,0.187-0.178,0.187h-0.939c-0.104,0-0.188-0.083-0.188-0.187v-6.477
					c0-0.187,0.112-0.255,0.301-0.282c0.49-0.073,1.156-0.121,1.846-0.121c1.45,0,2.711,0.52,2.711,2.127v0.085
					c0,0.997-0.5,1.619-1.271,1.92l1.479,2.748c0.019,0.027,0.019,0.059,0.019,0.075
					C191.828,776.919,191.79,776.965,191.715,776.965 M190.305,772.025c0-0.707-0.471-1.009-1.412-1.009
					c-0.197,0-0.67,0.021-0.84,0.037v2.119c0.15,0.01,0.68,0.028,0.84,0.028c0.969,0,1.412-0.266,1.412-1.093V772.025z"/>
				<path fill="#005CA5" d="M196.619,776.911c-0.304,0.046-0.668,0.131-1.789,0.131c-1.226,0-2.177-0.327-2.177-1.927v-3.289
					c0-1.601,0.951-1.928,2.177-1.928c1.121,0,1.485,0.086,1.789,0.131c0.142,0.02,0.188,0.065,0.188,0.196v0.604
					c0,0.104-0.084,0.188-0.188,0.188h-1.923c-0.545,0-0.743,0.188-0.743,0.81v1.019h2.551c0.104,0,0.188,0.084,0.188,0.189v0.677
					c0,0.105-0.084,0.188-0.188,0.188h-2.551v1.217c0,0.62,0.198,0.807,0.743,0.807h1.923c0.104,0,0.188,0.085,0.188,0.188v0.604
					C196.807,776.845,196.761,776.893,196.619,776.911"/>
				<path fill="#009CB9" d="M110.92,773.468c0-5.243-2.033-10.006-5.356-13.582h-4.521c4.075,3.142,6.702,8.055,6.702,13.582
					c0,5.539-2.627,10.45-6.706,13.586h4.523C108.887,783.482,110.92,778.713,110.92,773.468"/>
				<path fill="#BDD143" d="M113.211,773.536c0-5.076-1.613-9.786-4.36-13.65h6.249c2.292,4.036,3.602,8.694,3.602,13.65
					c0,4.906-1.281,9.518-3.521,13.518h-6.244C111.633,783.22,113.211,778.564,113.211,773.536"/>
				<path fill="#009CB9" d="M37.627,775.475h-0.318c-0.061,0-0.108-0.056-0.108-0.123v-4.341c0-0.06,0.043-0.114,0.108-0.114h0.318
					c0.061,0,0.108,0.05,0.108,0.114v4.341C37.736,775.413,37.693,775.475,37.627,775.475"/>
				<path fill="#009CB9" d="M39.501,771.011l-0.354,1.15c-0.024,0.087-0.056,0.115-0.117,0.115h-0.284
					c-0.042,0-0.056-0.023-0.056-0.062c0-0.017,0-0.036,0.006-0.055l0.279-1.15c0.02-0.084,0.062-0.115,0.123-0.115h0.341
					c0.042,0,0.066,0.025,0.066,0.066C39.507,770.976,39.507,770.993,39.501,771.011"/>
				<path fill="#009CB9" d="M42.868,773.972h-2.04v0.084c0,0.727,0.287,0.991,0.847,0.991c0.353,0,0.803-0.022,1.083-0.063
					c0.013,0,0.018,0,0.031,0c0.049,0,0.098,0.021,0.098,0.087v0.203c0,0.078-0.025,0.122-0.123,0.142
					c-0.347,0.064-0.682,0.104-1.089,0.104c-0.7,0-1.382-0.33-1.382-1.461v-0.549c0-0.87,0.479-1.424,1.351-1.424
					c0.891,0,1.339,0.559,1.339,1.424v0.33C42.982,773.915,42.94,773.972,42.868,773.972 M42.441,773.507
					c0-0.688-0.262-0.955-0.798-0.955c-0.521,0-0.814,0.3-0.814,0.955v0.058h1.612V773.507z"/>
				<path fill="#009CB9" d="M44.998,775.517c-0.226,0-0.663-0.019-0.961-0.09c-0.08-0.02-0.129-0.057-0.129-0.125v-0.211
					c0-0.057,0.049-0.093,0.108-0.093c0.013,0,0.021,0,0.025,0c0.292,0.036,0.735,0.07,0.955,0.07c0.396,0,0.604-0.105,0.604-0.437
					c0-0.183-0.109-0.298-0.457-0.506l-0.615-0.367c-0.37-0.223-0.62-0.484-0.62-0.867c0-0.634,0.476-0.811,1.102-0.811
					c0.342,0,0.664,0.029,0.951,0.078c0.078,0.014,0.115,0.055,0.115,0.122v0.201c0,0.071-0.043,0.104-0.104,0.104
					c-0.006,0-0.012,0-0.018,0c-0.213-0.019-0.604-0.049-0.945-0.049c-0.34,0-0.564,0.043-0.564,0.354
					c0,0.183,0.14,0.299,0.419,0.463l0.604,0.358c0.506,0.298,0.67,0.561,0.67,0.919C46.137,775.255,45.68,775.517,44.998,775.517"
					/>
				<path fill="#009CB9" d="M48.408,775.517c-0.189,0-0.476-0.022-0.714-0.064v1.102c0,0.062-0.049,0.114-0.114,0.114H47.27
					c-0.061,0-0.108-0.048-0.108-0.114v-4.188c0-0.079,0.018-0.114,0.127-0.141c0.322-0.079,0.75-0.141,1.121-0.141
					c0.906,0,1.326,0.589,1.326,1.504v0.438C49.735,774.981,49.297,775.517,48.408,775.517 M49.199,773.587
					c0-0.64-0.188-1.053-0.791-1.053c-0.257,0-0.542,0.028-0.714,0.06v2.411c0.2,0.037,0.519,0.063,0.714,0.063
					c0.596,0,0.791-0.395,0.791-1.044V773.587z"/>
				<path fill="#009CB9" d="M52.134,772.546c-0.28,0-0.536,0.073-0.841,0.255v2.551c0,0.062-0.056,0.123-0.121,0.123h-0.299
					c-0.062,0-0.115-0.056-0.115-0.123v-3.104c0-0.068,0.048-0.123,0.115-0.123h0.287c0.065,0,0.114,0.055,0.114,0.123v0.126
					c0.306-0.213,0.584-0.291,0.858-0.291c0.085,0,0.128,0.035,0.128,0.108v0.249C52.262,772.508,52.219,772.546,52.134,772.546"/>
				<path fill="#009CB9" d="M53.638,771.59h-0.312c-0.066,0-0.121-0.055-0.121-0.123v-0.483c0-0.068,0.055-0.123,0.121-0.123h0.312
					c0.067,0,0.122,0.055,0.122,0.123v0.483C53.76,771.535,53.705,771.59,53.638,771.59 M53.625,775.475h-0.291
					c-0.067,0-0.123-0.056-0.123-0.123v-3.104c0-0.068,0.056-0.123,0.123-0.123h0.291c0.066,0,0.123,0.055,0.123,0.123v3.104
					C53.748,775.419,53.692,775.475,53.625,775.475z"/>
				<path fill="#009CB9" d="M56.621,775.485c-0.121,0.02-0.281,0.029-0.396,0.029c-0.56,0-0.826-0.146-0.826-0.813v-2.124
					l-0.592-0.069c-0.066-0.005-0.115-0.042-0.115-0.105v-0.165c0-0.068,0.049-0.11,0.115-0.11h0.592v-0.597
					c0-0.062,0.041-0.109,0.107-0.122l0.316-0.048c0.007,0,0.013,0,0.02,0c0.049,0,0.091,0.043,0.091,0.103v0.664h0.657
					c0.068,0,0.121,0.055,0.121,0.123v0.207c0,0.067-0.053,0.122-0.121,0.122h-0.657v2.124c0,0.333,0.085,0.383,0.329,0.383h0.342
					c0.084,0,0.126,0.025,0.126,0.085v0.214C56.729,775.438,56.701,775.475,56.621,775.485"/>
				<path fill="#009CB9" d="M62.07,772.534l-0.22,0.043c0.109,0.113,0.206,0.297,0.206,0.626v0.049c0,0.669-0.414,1.04-1.35,1.04
					c-0.324,0-0.531-0.047-0.708-0.122c-0.104,0.05-0.151,0.117-0.151,0.208c0,0.104,0.048,0.159,0.188,0.195l0.906,0.23
					c0.597,0.151,1.169,0.32,1.169,0.896v0.047c0,0.586-0.39,0.944-1.388,0.944c-0.963,0-1.4-0.373-1.4-0.971v-0.055
					c0-0.342,0.183-0.622,0.384-0.774l-0.041-0.017c-0.196-0.085-0.281-0.286-0.281-0.476v-0.009c0-0.163,0.079-0.34,0.25-0.438
					c-0.189-0.177-0.281-0.396-0.281-0.706v-0.049c0-0.542,0.306-1.078,1.354-1.078h1.332c0.072,0,0.141,0.062,0.141,0.135v0.158
					C62.18,772.498,62.137,772.521,62.07,772.534 M61.576,775.701c0-0.24-0.193-0.338-0.742-0.479l-0.689-0.178
					c-0.176,0.154-0.297,0.305-0.297,0.622v0.055c0,0.344,0.201,0.557,0.877,0.557c0.694,0,0.853-0.194,0.853-0.53L61.576,775.701
					L61.576,775.701z M61.527,773.203c0-0.364-0.164-0.651-0.819-0.651c-0.685,0-0.822,0.312-0.822,0.651v0.049
					c0,0.268,0.121,0.621,0.822,0.621c0.655,0,0.819-0.255,0.819-0.621V773.203z"/>
				<path fill="#009CB9" d="M64.492,772.546c-0.279,0-0.535,0.073-0.841,0.255v2.551c0,0.062-0.055,0.123-0.121,0.123h-0.299
					c-0.061,0-0.114-0.056-0.114-0.123v-3.104c0-0.068,0.049-0.123,0.114-0.123h0.286c0.067,0,0.115,0.055,0.115,0.123v0.126
					c0.306-0.213,0.585-0.291,0.858-0.291c0.086,0,0.129,0.035,0.129,0.108v0.249C64.621,772.508,64.578,772.546,64.492,772.546"/>
				<path fill="#009CB9" d="M67.55,775.475h-0.281c-0.065,0-0.122-0.056-0.122-0.123v-0.134c-0.291,0.17-0.596,0.299-0.938,0.299
					c-0.519,0-0.992-0.225-0.992-0.983v-0.075c0-0.656,0.384-0.985,1.467-0.985h0.452v-0.242c0-0.512-0.179-0.688-0.653-0.688
					c-0.395,0-0.688,0.024-0.93,0.049c-0.014,0-0.02,0-0.032,0c-0.055,0-0.107-0.019-0.107-0.098v-0.214
					c0-0.064,0.043-0.104,0.127-0.115c0.25-0.043,0.529-0.078,0.942-0.078c0.849,0,1.188,0.425,1.188,1.146v2.125
					C67.67,775.419,67.615,775.475,67.55,775.475 M67.136,773.854h-0.452c-0.736,0-0.932,0.164-0.932,0.599v0.073
					c0,0.438,0.207,0.555,0.56,0.555c0.28,0,0.53-0.087,0.824-0.245V773.854z"/>
				<path fill="#009CB9" d="M71.244,775.475h-0.293c-0.065,0-0.121-0.056-0.121-0.123v-2.003c0-0.612-0.207-0.803-0.67-0.803
					c-0.257,0-0.541,0.096-0.82,0.236v2.567c0,0.062-0.057,0.123-0.123,0.123h-0.298c-0.062,0-0.117-0.056-0.117-0.123v-3.104
					c0-0.068,0.05-0.123,0.117-0.123h0.304c0.066,0,0.117,0.055,0.117,0.123v0.114c0.334-0.188,0.606-0.279,0.967-0.279
					c0.73,0,1.061,0.456,1.061,1.266v2.003C71.366,775.419,71.312,775.475,71.244,775.475"/>
				<path fill="#009CB9" d="M74.836,775.413c-0.377,0.072-0.748,0.104-1.119,0.104c-0.908,0-1.328-0.591-1.328-1.504v-0.438
					c0-0.956,0.439-1.492,1.328-1.492c0.188,0,0.474,0.017,0.711,0.06v-1.132c0-0.06,0.049-0.114,0.115-0.114h0.312
					c0.062,0,0.109,0.05,0.109,0.114v4.264C74.965,775.352,74.945,775.396,74.836,775.413 M74.428,772.594
					c-0.201-0.036-0.518-0.042-0.711-0.042c-0.598,0-0.792,0.37-0.792,1.023v0.438c0,0.663,0.188,1.034,0.792,1.034
					c0.205,0,0.504-0.02,0.711-0.036V772.594z"/>
				<path fill="#009CB9" d="M79.146,775.517c-0.896,0-1.352-0.591-1.352-1.484v-0.462c0-0.896,0.456-1.485,1.352-1.485
					s1.357,0.589,1.357,1.485v0.462C80.504,774.926,80.041,775.517,79.146,775.517 M79.969,773.568c0-0.621-0.25-1.019-0.822-1.019
					c-0.565,0-0.815,0.392-0.815,1.019v0.462c0,0.622,0.245,1.017,0.815,1.017c0.566,0,0.822-0.389,0.822-1.017V773.568z"/>
				<path fill="#009CB9" d="M83.975,775.475H83.67c-0.066,0-0.117-0.056-0.117-0.123v-0.113c-0.334,0.188-0.607,0.278-0.967,0.278
					c-0.73,0-1.06-0.456-1.06-1.266v-2.003c0-0.068,0.056-0.123,0.122-0.123h0.292c0.066,0,0.121,0.055,0.121,0.123v2.003
					c0,0.614,0.207,0.803,0.669,0.803c0.257,0,0.543-0.097,0.821-0.235v-2.568c0-0.062,0.057-0.123,0.124-0.123h0.298
					c0.061,0,0.116,0.055,0.116,0.123v3.104C84.091,775.419,84.041,775.475,83.975,775.475"/>
				<path fill="#009CB9" d="M87.791,772.271l-0.822,2.896c-0.078,0.275-0.285,0.348-0.547,0.348s-0.469-0.07-0.547-0.348
					l-0.824-2.896c-0.004-0.021-0.004-0.03-0.004-0.044c0-0.062,0.035-0.104,0.096-0.104h0.336c0.049,0,0.09,0.036,0.115,0.116
					l0.7,2.652c0.036,0.146,0.066,0.179,0.128,0.179c0.055,0,0.091-0.03,0.129-0.179l0.698-2.652
					c0.024-0.08,0.066-0.116,0.116-0.116H87.7c0.061,0,0.098,0.042,0.098,0.104C87.798,772.241,87.798,772.253,87.791,772.271"/>
				<path fill="#009CB9" d="M91.097,773.972h-2.039v0.084c0,0.727,0.286,0.991,0.845,0.991c0.355,0,0.806-0.022,1.085-0.063
					c0.014,0,0.02,0,0.03,0c0.049,0,0.099,0.021,0.099,0.087v0.203c0,0.078-0.023,0.122-0.121,0.142
					c-0.347,0.064-0.683,0.104-1.093,0.104c-0.696,0-1.381-0.33-1.381-1.461v-0.549c0-0.87,0.48-1.424,1.353-1.424
					c0.889,0,1.34,0.559,1.34,1.424v0.33C91.213,773.915,91.17,773.972,91.097,773.972 M90.671,773.507
					c0-0.688-0.263-0.955-0.798-0.955c-0.523,0-0.815,0.3-0.815,0.955v0.058h1.613V773.507z"/>
				<path fill="#009CB9" d="M93.623,772.546c-0.279,0-0.534,0.073-0.84,0.255v2.551c0,0.062-0.055,0.123-0.123,0.123h-0.298
					c-0.061,0-0.114-0.056-0.114-0.123v-3.104c0-0.068,0.05-0.123,0.114-0.123h0.288c0.066,0,0.114,0.055,0.114,0.123v0.126
					c0.305-0.213,0.584-0.291,0.857-0.291c0.086,0,0.129,0.035,0.129,0.108v0.249C93.752,772.508,93.709,772.546,93.623,772.546"/>
				<path fill="#009CB9" d="M96.303,775.485c-0.121,0.02-0.279,0.029-0.395,0.029c-0.562,0-0.829-0.146-0.829-0.813v-2.124
					l-0.592-0.069c-0.066-0.005-0.113-0.042-0.113-0.105v-0.165c0-0.068,0.047-0.11,0.113-0.11h0.592v-0.597
					c0-0.062,0.042-0.109,0.108-0.122l0.316-0.048c0.007,0,0.013,0,0.019,0c0.049,0,0.093,0.043,0.093,0.103v0.664h0.657
					c0.066,0,0.121,0.055,0.121,0.123v0.207c0,0.067-0.055,0.122-0.121,0.122h-0.657v2.124c0,0.333,0.085,0.383,0.327,0.383h0.343
					c0.086,0,0.127,0.025,0.127,0.085v0.214C96.412,775.438,96.381,775.475,96.303,775.485"/>
			</g>
		</g>
	</g>
	<g id="Calque_3">
	</g>
</g>
<g>
	<path fill="#183356" d="M1219.276,781.987v-17.729h-2.258v-96.351c0,0-3.605,1.562-8.255,0.362v96.351h-2.519v17.537
		c0,0-0.533,7.296,6.719,7.296C1219.894,789.454,1219.276,781.987,1219.276,781.987z"/>
</g>
<g>
	<path fill="#183356" d="M1132.389,774.28v-14.22h-1.811v-77.281c0,0-2.892,1.252-6.621,0.29v77.282h-2.02v14.065
		c0,0-0.432,5.853,5.387,5.853C1132.885,780.27,1132.389,774.28,1132.389,774.28z"/>
</g>
<path fill="#CEE19B" d="M1044.675,790.5h236.323c0,0-32.226-29.54-91.309-13.429C1189.69,777.071,1125.24,726.5,1044.675,790.5z"/>
<path fill="#BED77A" d="M980.226,800.5h209.464c0,0-45.65-18.799-80.562-10.741C1109.127,789.759,1041.99,763.5,980.226,800.5z"/>
</svg>
