<?xml version="1.0" encoding="utf-8"?>
<!-- Generator: Adobe Illustrator 16.0.0, SVG Export Plug-In . SVG Version: 6.00 Build 0)  -->
<!DOCTYPE svg PUBLIC "-//W3C//DTD SVG 1.1//EN" "http://www.w3.org/Graphics/SVG/1.1/DTD/svg11.dtd">
<svg version="1.1" id="Calque_1" xmlns="http://www.w3.org/2000/svg" xmlns:xlink="http://www.w3.org/1999/xlink" x="0px" y="0px"
	 width="1280px" height="800px" viewBox="0 0 1280 800" enable-background="new 0 0 1280 800" xml:space="preserve">
<g id="Calque_2">
	<rect y="-1" fill="#F7FBFC" width="1280" height="798"/>
</g>
<g id="Calque_1_1_">
	<path fill="#EB6A5B" d="M903.12,803C882.94,791.588,864,785.936,847,782.968V751h-11V494.62c-21,2.969-38-0.11-38-0.11V750h-12
		v34.265C759,790.526,742.295,803,742.295,803H903.12z"/>
	<rect x="75.306" y="97.611" fill="none" width="557.285" height="133.494"/>
	<g>
		<g>
			<path fill="#7A1E72" d="M123.967,767.253h-0.506c-0.045,0-0.062-0.043-0.083-0.084l-0.597-1.109h-0.059
				c-0.107,0-0.273-0.012-0.369-0.016v1.125c0,0.047-0.031,0.084-0.078,0.084h-0.416c-0.045,0-0.082-0.037-0.082-0.084v-2.853
				c0-0.084,0.049-0.112,0.133-0.125c0.215-0.034,0.51-0.056,0.812-0.056c0.64,0,1.194,0.229,1.194,0.938v0.038
				c0,0.438-0.221,0.713-0.56,0.846l0.65,1.211c0.01,0.012,0.01,0.024,0.01,0.033C124.018,767.23,123.998,767.253,123.967,767.253
				 M123.346,765.074c0-0.312-0.21-0.443-0.623-0.443c-0.087,0-0.293,0.009-0.369,0.016v0.935c0.066,0.005,0.299,0.013,0.369,0.013
				c0.427,0,0.623-0.117,0.623-0.479V765.074z"/>
			<path fill="#7A1E72" d="M126.264,766.274h-1.354v0.012c0,0.24,0.102,0.526,0.497,0.526c0.304,0,0.589-0.024,0.765-0.041
				c0.004,0,0.007,0,0.012,0c0.042,0,0.076,0.02,0.076,0.061v0.273c0,0.065-0.014,0.097-0.088,0.109
				c-0.27,0.049-0.43,0.069-0.805,0.069c-0.416,0-1.002-0.223-1.002-1.04v-0.309c0-0.646,0.359-1.054,0.992-1.054
				c0.639,0,0.988,0.436,0.988,1.054v0.231C126.346,766.235,126.32,766.274,126.264,766.274 M125.795,765.866
				c0-0.323-0.18-0.51-0.438-0.51c-0.255,0-0.443,0.183-0.443,0.51v0.018h0.881V765.866L125.795,765.866z M126.039,764.084
				l-0.49,0.514c-0.033,0.038-0.049,0.055-0.098,0.055h-0.357c-0.025,0-0.037-0.013-0.037-0.03c0-0.012,0.003-0.027,0.017-0.04
				l0.394-0.498c0.037-0.046,0.054-0.062,0.108-0.062h0.435c0.029,0,0.047,0.014,0.047,0.028
				C126.057,764.058,126.05,764.071,126.039,764.084z"/>
			<path fill="#7A1E72" d="M128.867,765.29l-0.136,0.054c0.064,0.098,0.103,0.188,0.103,0.332v0.029
				c0,0.518-0.357,0.755-0.982,0.755c-0.221,0-0.371-0.038-0.45-0.07c-0.052,0.032-0.071,0.07-0.071,0.108
				c0,0.082,0.044,0.115,0.139,0.135l0.49,0.118c0.563,0.133,0.93,0.22,0.93,0.662v0.028c0,0.425-0.312,0.65-1.018,0.65
				c-0.67,0-1.028-0.254-1.028-0.688v-0.037c0-0.17,0.081-0.334,0.212-0.455c-0.115-0.087-0.187-0.233-0.187-0.382v-0.005
				c0-0.128,0.056-0.258,0.166-0.337c-0.124-0.13-0.171-0.277-0.171-0.483v-0.029c0-0.416,0.271-0.763,0.988-0.763h0.971
				c0.062,0,0.111,0.049,0.111,0.11v0.176C128.934,765.26,128.918,765.27,128.867,765.29 M128.34,767.413
				c0-0.092-0.053-0.146-0.488-0.249l-0.371-0.087c-0.061,0.087-0.101,0.143-0.101,0.29v0.037c0,0.171,0.101,0.273,0.491,0.273
				c0.398,0,0.469-0.087,0.469-0.235V767.413z M128.295,765.683c0-0.197-0.086-0.352-0.443-0.352c-0.352,0-0.447,0.158-0.447,0.352
				v0.035c0,0.153,0.062,0.326,0.447,0.326c0.345,0,0.443-0.119,0.443-0.326V765.683z"/>
			<path fill="#7A1E72" d="M129.891,764.604h-0.4c-0.047,0-0.089-0.039-0.089-0.086v-0.363c0-0.045,0.042-0.082,0.089-0.082h0.4
				c0.049,0,0.084,0.037,0.084,0.082v0.363C129.975,764.562,129.939,764.604,129.891,764.604 M129.879,767.253h-0.381
				c-0.045,0-0.084-0.043-0.084-0.089v-2.169c0-0.046,0.039-0.082,0.084-0.082h0.381c0.045,0,0.084,0.036,0.084,0.082v2.169
				C129.963,767.21,129.924,767.253,129.879,767.253z"/>
			<path fill="#7A1E72" d="M131.518,767.285c-0.651,0-0.992-0.44-0.992-1.032v-0.338c0-0.59,0.341-1.031,0.992-1.031
				c0.65,0,0.99,0.441,0.99,1.031v0.338C132.508,766.845,132.168,767.285,131.518,767.285 M131.959,765.915
				c0-0.34-0.152-0.56-0.441-0.56s-0.443,0.22-0.443,0.56v0.338c0,0.339,0.154,0.56,0.443,0.56s0.441-0.221,0.441-0.56V765.915z"/>
			<path fill="#7A1E72" d="M134.895,767.253h-0.383c-0.046,0-0.084-0.043-0.084-0.089v-1.354c0-0.357-0.033-0.463-0.353-0.463
				c-0.142,0-0.294,0.057-0.467,0.149v1.667c0,0.046-0.04,0.089-0.084,0.089h-0.383c-0.046,0-0.081-0.043-0.081-0.089v-2.169
				c0-0.046,0.035-0.082,0.081-0.082h0.362c0.045,0,0.082,0.036,0.082,0.082v0.087c0.242-0.152,0.398-0.198,0.674-0.198
				c0.595,0,0.717,0.403,0.717,0.928v1.354C134.977,767.21,134.938,767.253,134.895,767.253"/>
			<path fill="#005CA5" d="M137.354,770.189c0.01-0.027,0.02-0.047,0.02-0.073c0-0.077-0.066-0.142-0.162-0.142h-1.035
				c-0.083,0-0.15,0.073-0.178,0.15l-1.13,2.804c-0.065,0.159-0.122,0.188-0.169,0.188c-0.037,0-0.094-0.029-0.159-0.188
				l-1.131-2.804c-0.027-0.077-0.093-0.15-0.179-0.15h-1.043c-0.096,0-0.152,0.064-0.152,0.142c0,0.017,0.01,0.045,0.02,0.073
				l0.958,2.201c0.001,0.001,0.002,0.002,0.002,0.005l1.036,2.381v2.002c0,0.104,0.074,0.187,0.179,0.187h0.939
				c0.104,0,0.179-0.083,0.179-0.187v-2.002l0.607-1.394L137.354,770.189"/>
			<path fill="#005CA5" d="M123.924,774.36c-0.244,0-0.622-0.03-0.838-0.039v2.457c0,0.104-0.078,0.187-0.18,0.187h-0.941
				c-0.104,0-0.188-0.083-0.188-0.187v-6.476c0-0.187,0.111-0.255,0.301-0.283c0.49-0.073,1.158-0.123,1.846-0.123
				c1.449,0,2.711,0.512,2.711,2.176v0.084C126.635,773.825,125.373,774.36,123.924,774.36 M125.336,772.073
				c0-0.792-0.471-1.092-1.412-1.092c-0.198,0-0.668,0.019-0.838,0.036v2.239c0.15,0.011,0.677,0.028,0.838,0.028
				c1.016,0,1.412-0.374,1.412-1.129V772.073z"/>
			<path fill="#005CA5" d="M132.176,776.965h-0.997c-0.083,0-0.159-0.072-0.179-0.157l-0.432-1.788h-2.166l-0.434,1.788
				c-0.018,0.085-0.094,0.157-0.18,0.157h-0.996c-0.095,0-0.172-0.062-0.172-0.157c0-0.01,0.01-0.028,0.01-0.047l1.545-5.901
				c0.227-0.874,0.904-0.96,1.31-0.96c0.403,0,1.083,0.086,1.31,0.96l1.543,5.901c0,0.019,0.01,0.037,0.01,0.047
				C132.348,776.901,132.27,776.965,132.176,776.965 M129.635,771.149c-0.027-0.111-0.056-0.149-0.149-0.149
				c-0.096,0-0.124,0.038-0.151,0.149l-0.678,2.797h1.656L129.635,771.149z"/>
			<path fill="#005CA5" d="M139.945,777.042c-0.703,0-1.211-0.066-1.662-0.168c-0.096-0.019-0.181-0.085-0.181-0.188v-0.679
				c0-0.104,0.085-0.18,0.181-0.18c0.009,0,0.009,0,0.018,0c0.377,0.049,1.318,0.095,1.668,0.095c0.836,0,1.09-0.301,1.09-0.845
				c0-0.37-0.178-0.558-0.799-0.923l-1.244-0.745c-0.875-0.518-1.11-1.064-1.11-1.725c0-1.033,0.603-1.788,2.354-1.788
				c0.621,0,1.486,0.097,1.806,0.171c0.095,0.018,0.171,0.084,0.171,0.18v0.697c0,0.094-0.068,0.169-0.16,0.169
				c-0.011,0-0.011,0-0.02,0c-0.621-0.059-1.243-0.096-1.854-0.096c-0.696,0-0.987,0.244-0.987,0.667
				c0,0.312,0.158,0.501,0.771,0.84l1.132,0.631c1.034,0.573,1.307,1.175,1.307,1.922
				C142.424,776.027,141.83,777.042,139.945,777.042"/>
			<path fill="#005CA5" d="M148.006,777.042c-0.67,0-1.572-0.066-1.855-0.112c-0.159-0.027-0.243-0.103-0.243-0.292v-6.334
				c0-0.187,0.084-0.264,0.243-0.291c0.283-0.048,1.186-0.114,1.855-0.114c1.881,0,2.956,1.017,2.956,2.878v1.387
				C150.962,776.027,149.887,777.042,148.006,777.042 M149.661,772.776c0-1.409-0.714-1.776-1.655-1.776
				c-0.348,0-0.594,0.019-0.79,0.026v4.887c0.196,0.009,0.442,0.028,0.79,0.028c0.941,0,1.655-0.366,1.655-1.778V772.776z"/>
			<path fill="#005CA5" d="M155.996,776.911c-0.301,0.046-0.668,0.131-1.787,0.131c-1.226,0-2.176-0.327-2.176-1.927v-3.289
				c0-1.6,0.95-1.928,2.176-1.928c1.119,0,1.486,0.086,1.787,0.131c0.143,0.02,0.189,0.066,0.189,0.197v0.603
				c0,0.105-0.085,0.188-0.189,0.188h-1.922c-0.544,0-0.742,0.188-0.742,0.809v1.019h2.551c0.104,0,0.189,0.084,0.189,0.189v0.677
				c0,0.105-0.085,0.188-0.189,0.188h-2.551v1.217c0,0.621,0.198,0.808,0.742,0.808h1.922c0.104,0,0.189,0.084,0.189,0.188v0.604
				C156.186,776.845,156.139,776.893,155.996,776.911"/>
			<path fill="#005CA5" d="M163.582,776.911c-0.283,0.063-1.1,0.131-1.598,0.131c-1.229,0-2.176-0.327-2.176-1.927v-4.953
				c0-0.104,0.084-0.188,0.188-0.188h0.933c0.103,0,0.188,0.083,0.188,0.188v4.953c0,0.621,0.188,0.808,0.734,0.808h1.73
				c0.104,0,0.189,0.084,0.189,0.188v0.604C163.771,776.845,163.723,776.882,163.582,776.911"/>
			<path fill="#005CA5" d="M169.693,776.965h-0.998c-0.087,0-0.16-0.072-0.182-0.157l-0.43-1.788h-2.166l-0.435,1.788
				c-0.019,0.085-0.095,0.157-0.178,0.157h-0.997c-0.096,0-0.169-0.062-0.169-0.157c0-0.01,0.009-0.028,0.009-0.047l1.543-5.901
				c0.227-0.874,0.902-0.96,1.309-0.96c0.404,0,1.084,0.086,1.309,0.96l1.543,5.901c0,0.019,0.01,0.037,0.01,0.047
				C169.861,776.901,169.786,776.965,169.693,776.965 M167.15,771.149c-0.029-0.111-0.057-0.149-0.15-0.149
				c-0.095,0-0.122,0.038-0.149,0.149l-0.68,2.797h1.657L167.15,771.149z"/>
			<path fill="#005CA5" d="M176.875,776.911c-0.283,0.063-1.102,0.131-1.6,0.131c-1.226,0-2.176-0.327-2.176-1.927v-4.953
				c0-0.104,0.084-0.188,0.188-0.188h0.931c0.105,0,0.188,0.083,0.188,0.188v4.953c0,0.621,0.19,0.808,0.737,0.808h1.731
				c0.104,0,0.187,0.084,0.187,0.188v0.604C177.062,776.845,177.015,776.882,176.875,776.911"/>
			<path fill="#005CA5" d="M180.12,777.042c-1.555,0-2.685-0.865-2.685-2.936v-1.271c0-2.07,1.13-2.937,2.685-2.937
				c1.554,0,2.683,0.866,2.683,2.937v1.271C182.803,776.177,181.674,777.042,180.12,777.042 M181.485,772.835
				c0-1.242-0.443-1.797-1.365-1.797c-0.923,0-1.364,0.555-1.364,1.797v1.271c0,1.243,0.441,1.797,1.364,1.797
				c0.922,0,1.365-0.555,1.365-1.797V772.835z"/>
			<path fill="#005CA5" d="M185.146,776.965h-0.932c-0.105,0-0.189-0.083-0.189-0.187v-6.626c0-0.104,0.084-0.178,0.189-0.178h0.932
				c0.103,0,0.188,0.073,0.188,0.178v6.626C185.334,776.882,185.249,776.965,185.146,776.965"/>
			<path fill="#005CA5" d="M191.715,776.965h-1.149c-0.101,0-0.14-0.091-0.186-0.187l-1.355-2.512h-0.132
				c-0.247,0-0.621-0.029-0.84-0.04v2.552c0,0.104-0.074,0.187-0.178,0.187h-0.939c-0.104,0-0.189-0.083-0.189-0.187v-6.476
				c0-0.187,0.113-0.255,0.301-0.282c0.49-0.074,1.156-0.123,1.846-0.123c1.45,0,2.711,0.52,2.711,2.127v0.085
				c0,0.998-0.5,1.619-1.271,1.92l1.479,2.748c0.018,0.028,0.018,0.059,0.018,0.076C191.828,776.919,191.79,776.965,191.715,776.965
				 M190.305,772.025c0-0.707-0.471-1.008-1.412-1.008c-0.197,0-0.67,0.021-0.84,0.037v2.119c0.15,0.01,0.68,0.028,0.84,0.028
				c0.969,0,1.412-0.265,1.412-1.093V772.025z"/>
			<path fill="#005CA5" d="M196.619,776.911c-0.303,0.046-0.668,0.131-1.789,0.131c-1.225,0-2.176-0.327-2.176-1.927v-3.289
				c0-1.6,0.951-1.928,2.176-1.928c1.121,0,1.486,0.086,1.789,0.131c0.142,0.02,0.188,0.066,0.188,0.197v0.603
				c0,0.105-0.084,0.188-0.188,0.188h-1.922c-0.545,0-0.744,0.188-0.744,0.809v1.019h2.551c0.105,0,0.189,0.084,0.189,0.189v0.677
				c0,0.105-0.084,0.188-0.189,0.188h-2.551v1.217c0,0.621,0.199,0.808,0.744,0.808h1.922c0.104,0,0.188,0.084,0.188,0.188v0.604
				C196.807,776.845,196.761,776.893,196.619,776.911"/>
			<path fill="#009CB9" d="M110.92,773.468c0-5.243-2.033-10.006-5.356-13.582h-4.521c4.075,3.141,6.702,8.054,6.702,13.582
				c0,5.539-2.627,10.45-6.706,13.586h4.524C108.887,783.482,110.92,778.713,110.92,773.468"/>
			<path fill="#BDD143" d="M113.211,773.536c0-5.076-1.613-9.787-4.36-13.65h6.249c2.292,4.037,3.601,8.694,3.601,13.65
				c0,4.906-1.281,9.518-3.521,13.518h-6.244C111.633,783.22,113.211,778.564,113.211,773.536"/>
			<path fill="#009CB9" d="M37.627,775.475h-0.318c-0.061,0-0.109-0.056-0.109-0.124v-4.34c0-0.06,0.043-0.115,0.109-0.115h0.318
				c0.061,0,0.109,0.05,0.109,0.115v4.34C37.736,775.413,37.693,775.475,37.627,775.475"/>
			<path fill="#009CB9" d="M39.501,771.011l-0.353,1.15c-0.025,0.086-0.056,0.115-0.117,0.115h-0.285
				c-0.042,0-0.055-0.023-0.055-0.062c0-0.017,0-0.036,0.006-0.055l0.279-1.15c0.019-0.084,0.062-0.115,0.123-0.115h0.341
				c0.042,0,0.066,0.025,0.066,0.066C39.507,770.976,39.507,770.993,39.501,771.011"/>
			<path fill="#009CB9" d="M42.868,773.972h-2.04v0.084c0,0.726,0.287,0.992,0.847,0.992c0.353,0,0.803-0.024,1.083-0.065
				c0.013,0,0.018,0,0.031,0c0.049,0,0.098,0.022,0.098,0.086v0.205c0,0.078-0.025,0.123-0.123,0.141
				c-0.347,0.066-0.682,0.104-1.089,0.104c-0.7,0-1.382-0.33-1.382-1.461v-0.549c0-0.87,0.48-1.424,1.351-1.424
				c0.89,0,1.339,0.559,1.339,1.424v0.33C42.982,773.915,42.94,773.972,42.868,773.972 M42.441,773.507
				c0-0.688-0.262-0.955-0.798-0.955c-0.522,0-0.815,0.3-0.815,0.955v0.057h1.613V773.507z"/>
			<path fill="#009CB9" d="M44.998,775.517c-0.225,0-0.663-0.019-0.961-0.09c-0.08-0.02-0.129-0.057-0.129-0.125v-0.211
				c0-0.057,0.049-0.093,0.109-0.093c0.013,0,0.02,0,0.025,0c0.292,0.036,0.736,0.07,0.955,0.07c0.396,0,0.604-0.105,0.604-0.435
				c0-0.183-0.11-0.298-0.457-0.506l-0.615-0.367c-0.371-0.223-0.621-0.485-0.621-0.867c0-0.634,0.476-0.811,1.102-0.811
				c0.342,0,0.664,0.029,0.951,0.078c0.078,0.014,0.115,0.055,0.115,0.122v0.201c0,0.072-0.043,0.104-0.104,0.104
				c-0.006,0-0.012,0-0.018,0c-0.213-0.019-0.604-0.048-0.945-0.048c-0.34,0-0.564,0.042-0.564,0.354
				c0,0.181,0.139,0.297,0.419,0.461l0.603,0.359c0.506,0.298,0.67,0.56,0.67,0.919C46.137,775.255,45.68,775.517,44.998,775.517"/>
			<path fill="#009CB9" d="M48.408,775.517c-0.189,0-0.475-0.023-0.713-0.065v1.102c0,0.062-0.049,0.114-0.115,0.114h-0.31
				c-0.061,0-0.109-0.047-0.109-0.114v-4.188c0-0.079,0.018-0.115,0.127-0.14c0.323-0.08,0.75-0.141,1.121-0.141
				c0.907,0,1.327,0.589,1.327,1.504v0.438C49.735,774.981,49.297,775.517,48.408,775.517 M49.199,773.587
				c0-0.64-0.188-1.053-0.791-1.053c-0.256,0-0.542,0.028-0.713,0.06v2.411c0.2,0.037,0.518,0.063,0.713,0.063
				c0.596,0,0.791-0.393,0.791-1.043V773.587z"/>
			<path fill="#009CB9" d="M52.134,772.546c-0.28,0-0.536,0.073-0.841,0.255v2.55c0,0.062-0.055,0.124-0.121,0.124h-0.299
				c-0.061,0-0.115-0.056-0.115-0.124v-3.104c0-0.068,0.048-0.122,0.115-0.122h0.287c0.066,0,0.115,0.054,0.115,0.122v0.126
				c0.305-0.213,0.584-0.291,0.858-0.291c0.085,0,0.128,0.035,0.128,0.109v0.249C52.262,772.508,52.219,772.546,52.134,772.546"/>
			<path fill="#009CB9" d="M53.638,771.589h-0.312c-0.066,0-0.121-0.054-0.121-0.123v-0.484c0-0.068,0.055-0.123,0.121-0.123h0.312
				c0.067,0,0.122,0.055,0.122,0.123v0.484C53.76,771.535,53.705,771.589,53.638,771.589 M53.625,775.475h-0.291
				c-0.067,0-0.123-0.056-0.123-0.124v-3.104c0-0.068,0.056-0.122,0.123-0.122h0.291c0.067,0,0.123,0.054,0.123,0.122v3.104
				C53.748,775.419,53.692,775.475,53.625,775.475z"/>
			<path fill="#009CB9" d="M56.621,775.485c-0.121,0.02-0.281,0.03-0.396,0.03c-0.56,0-0.826-0.146-0.826-0.814v-2.124l-0.592-0.069
				c-0.067-0.005-0.115-0.042-0.115-0.107v-0.165c0-0.068,0.048-0.11,0.115-0.11h0.592v-0.597c0-0.062,0.041-0.109,0.107-0.122
				l0.317-0.048c0.006,0,0.012,0,0.019,0c0.049,0,0.091,0.043,0.091,0.103v0.665h0.657c0.068,0,0.121,0.054,0.121,0.122v0.208
				c0,0.067-0.053,0.122-0.121,0.122h-0.657v2.124c0,0.333,0.085,0.383,0.329,0.383h0.342c0.084,0,0.126,0.025,0.126,0.085v0.214
				C56.729,775.438,56.701,775.475,56.621,775.485"/>
			<path fill="#009CB9" d="M62.07,772.534l-0.22,0.043c0.109,0.113,0.206,0.297,0.206,0.626v0.049c0,0.669-0.414,1.04-1.35,1.04
				c-0.324,0-0.531-0.047-0.708-0.122c-0.104,0.05-0.151,0.117-0.151,0.208c0,0.104,0.048,0.159,0.188,0.195l0.907,0.231
				c0.596,0.152,1.169,0.32,1.169,0.896v0.047c0,0.586-0.39,0.945-1.388,0.945c-0.963,0-1.4-0.373-1.4-0.97v-0.055
				c0-0.342,0.182-0.622,0.383-0.773l-0.041-0.018c-0.196-0.084-0.281-0.286-0.281-0.476v-0.008c0-0.163,0.079-0.34,0.25-0.438
				c-0.189-0.177-0.281-0.396-0.281-0.706v-0.049c0-0.542,0.305-1.078,1.354-1.078h1.332c0.073,0,0.141,0.061,0.141,0.134v0.158
				C62.18,772.498,62.137,772.521,62.07,772.534 M61.576,775.701c0-0.24-0.193-0.337-0.742-0.477l-0.689-0.177
				c-0.176,0.153-0.297,0.304-0.297,0.622v0.055c0,0.343,0.201,0.556,0.877,0.556c0.694,0,0.852-0.194,0.852-0.531L61.576,775.701
				L61.576,775.701z M61.527,773.203c0-0.364-0.164-0.651-0.82-0.651c-0.684,0-0.822,0.312-0.822,0.651v0.049
				c0,0.268,0.121,0.622,0.822,0.622c0.656,0,0.82-0.255,0.82-0.622V773.203z"/>
			<path fill="#009CB9" d="M64.492,772.546c-0.279,0-0.535,0.073-0.84,0.255v2.55c0,0.062-0.055,0.124-0.121,0.124h-0.299
				c-0.061,0-0.115-0.056-0.115-0.124v-3.104c0-0.068,0.049-0.122,0.115-0.122h0.286c0.067,0,0.115,0.054,0.115,0.122v0.126
				c0.306-0.213,0.585-0.291,0.858-0.291c0.086,0,0.129,0.035,0.129,0.109v0.249C64.621,772.508,64.578,772.546,64.492,772.546"/>
			<path fill="#009CB9" d="M67.55,775.475h-0.281c-0.066,0-0.122-0.056-0.122-0.124v-0.133c-0.291,0.17-0.596,0.299-0.938,0.299
				c-0.518,0-0.992-0.225-0.992-0.984v-0.075c0-0.656,0.384-0.985,1.467-0.985h0.452v-0.244c0-0.51-0.179-0.688-0.653-0.688
				c-0.395,0-0.688,0.024-0.93,0.048c-0.014,0-0.02,0-0.032,0c-0.055,0-0.108-0.019-0.108-0.098v-0.214
				c0-0.064,0.043-0.103,0.127-0.115c0.25-0.043,0.53-0.078,0.943-0.078c0.848,0,1.188,0.425,1.188,1.144v2.124
				C67.67,775.419,67.615,775.475,67.55,775.475 M67.136,773.854h-0.452c-0.736,0-0.932,0.164-0.932,0.598v0.073
				c0,0.438,0.207,0.555,0.56,0.555c0.28,0,0.53-0.086,0.824-0.245V773.854z"/>
			<path fill="#009CB9" d="M71.244,775.475h-0.293c-0.065,0-0.121-0.056-0.121-0.124v-2.002c0-0.613-0.207-0.803-0.67-0.803
				c-0.256,0-0.541,0.096-0.82,0.236v2.568c0,0.062-0.057,0.124-0.123,0.124h-0.298c-0.062,0-0.117-0.056-0.117-0.124v-3.104
				c0-0.068,0.05-0.122,0.117-0.122h0.304c0.066,0,0.117,0.054,0.117,0.122v0.115c0.334-0.188,0.607-0.279,0.967-0.279
				c0.73,0,1.06,0.457,1.06,1.266v2.002C71.366,775.419,71.312,775.475,71.244,775.475"/>
			<path fill="#009CB9" d="M74.836,775.413c-0.377,0.072-0.748,0.104-1.119,0.104c-0.908,0-1.328-0.591-1.328-1.504v-0.438
				c0-0.956,0.439-1.492,1.328-1.492c0.188,0,0.474,0.016,0.711,0.06v-1.132c0-0.06,0.049-0.114,0.115-0.114h0.312
				c0.061,0,0.109,0.049,0.109,0.114v4.263C74.965,775.351,74.945,775.396,74.836,775.413 M74.428,772.594
				c-0.201-0.036-0.518-0.042-0.711-0.042c-0.598,0-0.792,0.371-0.792,1.023v0.438c0,0.663,0.188,1.035,0.792,1.035
				c0.205,0,0.504-0.02,0.711-0.037V772.594z"/>
			<path fill="#009CB9" d="M79.146,775.517c-0.896,0-1.352-0.591-1.352-1.485v-0.462c0-0.896,0.456-1.485,1.352-1.485
				c0.895,0,1.357,0.589,1.357,1.485v0.462C80.504,774.926,80.041,775.517,79.146,775.517 M79.969,773.568
				c0-0.621-0.25-1.017-0.822-1.017c-0.566,0-0.816,0.391-0.816,1.017v0.462c0,0.622,0.245,1.017,0.816,1.017
				c0.566,0,0.822-0.389,0.822-1.017V773.568z"/>
			<path fill="#009CB9" d="M83.975,775.475H83.67c-0.066,0-0.117-0.056-0.117-0.124v-0.114c-0.334,0.189-0.607,0.279-0.967,0.279
				c-0.73,0-1.059-0.456-1.059-1.266v-2.003c0-0.068,0.055-0.122,0.122-0.122h0.292c0.066,0,0.121,0.054,0.121,0.122v2.003
				c0,0.614,0.207,0.803,0.669,0.803c0.257,0,0.543-0.096,0.821-0.236v-2.569c0-0.062,0.057-0.122,0.124-0.122h0.298
				c0.06,0,0.116,0.054,0.116,0.122v3.104C84.091,775.419,84.041,775.475,83.975,775.475"/>
			<path fill="#009CB9" d="M87.791,772.271l-0.822,2.896c-0.078,0.275-0.285,0.348-0.547,0.348c-0.262,0-0.469-0.071-0.547-0.348
				l-0.824-2.896c-0.004-0.02-0.004-0.03-0.004-0.043c0-0.062,0.035-0.104,0.096-0.104h0.336c0.049,0,0.09,0.036,0.115,0.116
				l0.7,2.653c0.036,0.146,0.067,0.178,0.128,0.178c0.055,0,0.091-0.031,0.129-0.178l0.698-2.653
				c0.025-0.08,0.067-0.116,0.116-0.116H87.7c0.061,0,0.098,0.042,0.098,0.104C87.798,772.241,87.798,772.253,87.791,772.271"/>
			<path fill="#009CB9" d="M91.097,773.972h-2.039v0.084c0,0.726,0.286,0.992,0.845,0.992c0.355,0,0.805-0.024,1.085-0.065
				c0.013,0,0.019,0,0.03,0c0.049,0,0.098,0.022,0.098,0.086v0.205c0,0.078-0.023,0.123-0.121,0.141
				c-0.346,0.066-0.682,0.104-1.092,0.104c-0.697,0-1.381-0.33-1.381-1.461v-0.549c0-0.87,0.48-1.424,1.352-1.424
				c0.889,0,1.34,0.559,1.34,1.424v0.33C91.213,773.915,91.17,773.972,91.097,773.972 M90.671,773.507
				c0-0.688-0.263-0.955-0.798-0.955c-0.523,0-0.815,0.3-0.815,0.955v0.057h1.613V773.507z"/>
			<path fill="#009CB9" d="M93.623,772.546c-0.279,0-0.534,0.073-0.84,0.255v2.55c0,0.062-0.054,0.124-0.123,0.124h-0.297
				c-0.061,0-0.115-0.056-0.115-0.124v-3.104c0-0.068,0.05-0.122,0.115-0.122h0.288c0.066,0,0.114,0.054,0.114,0.122v0.126
				c0.305-0.213,0.584-0.291,0.857-0.291c0.086,0,0.129,0.035,0.129,0.109v0.249C93.752,772.508,93.709,772.546,93.623,772.546"/>
			<path fill="#009CB9" d="M96.303,775.485c-0.121,0.02-0.279,0.03-0.395,0.03c-0.561,0-0.829-0.146-0.829-0.814v-2.124
				l-0.591-0.069c-0.067-0.005-0.114-0.042-0.114-0.107v-0.165c0-0.068,0.047-0.11,0.114-0.11h0.591v-0.597
				c0-0.062,0.042-0.109,0.109-0.122l0.316-0.048c0.007,0,0.013,0,0.019,0c0.049,0,0.092,0.043,0.092,0.103v0.665h0.658
				c0.066,0,0.121,0.054,0.121,0.122v0.208c0,0.067-0.055,0.122-0.121,0.122h-0.658v2.124c0,0.333,0.085,0.383,0.328,0.383h0.342
				c0.086,0,0.127,0.025,0.127,0.085v0.214C96.412,775.438,96.381,775.475,96.303,775.485"/>
		</g>
	</g>
</g>
<g id="Calque_3">
</g>
</svg>
