<?xml version="1.0" encoding="utf-8"?>
<!-- Generator: Adobe Illustrator 16.0.0, SVG Export Plug-In . SVG Version: 6.00 Build 0)  -->
<!DOCTYPE svg PUBLIC "-//W3C//DTD SVG 1.1//EN" "http://www.w3.org/Graphics/SVG/1.1/DTD/svg11.dtd">
<svg version="1.1" xmlns="http://www.w3.org/2000/svg" xmlns:xlink="http://www.w3.org/1999/xlink" x="0px" y="0px" width="1280px"
	 height="800px" viewBox="0 0 1280 800" enable-background="new 0 0 1280 800" xml:space="preserve">
<pattern  y="-2624" width="49" height="49" patternUnits="userSpaceOnUse" id="Nouvelle_nuance_de_motif_1" viewBox="0 -49 49 49" overflow="visible">
	<g>
		<polygon fill="none" points="0,-49 49,-49 49,0 0,0 		"/>
		<polygon fill="#EB6A5B" points="49,0 0,0 0,-49 49,-49 		"/>
	</g>
</pattern>
<g id="Calque_2">
	<rect y="-1" fill="#F7FBFC" width="1280" height="798"/>
	<rect y="-2" fill="#F7FBFC" width="1280" height="798"/>
	<rect y="-2" fill="#F7FBFC" width="1280" height="798"/>
	<rect y="-2" fill="#F7FBFC" width="1280" height="798"/>
	<rect y="-2" fill="#F7FBFC" width="1280" height="798"/>
	<rect y="-2" fill="#F7FBFC" width="1280" height="798"/>
	<rect y="-2" fill="#F7FBFC" width="1280" height="798"/>
</g>
<g id="Calque_1">
	<g>
		<rect x="1.122" y="548.589" fill="none" width="1277.937" height="115.494"/>
		<text transform="matrix(1 0 0 1 506.4121 570.8486)" fill="#183356" font-family="'Montserrat-Regular'" font-size="30">Remerciements</text>
	</g>
	<line fill="none" stroke="#183356" stroke-width="3" stroke-miterlimit="10" x1="114" y1="502.5" x2="1166" y2="502.5"/>
	<g>
		<path fill="none" stroke="#183356" stroke-width="2" stroke-miterlimit="10" d="M265.333,431.122
			c0.667-1.345,4.723-9.546,4.723-9.546l26.254-15.147c3.214-1.855,4.32-5.992,2.469-9.2l-20.198-35.007
			c-1.853-3.213-5.986-4.323-9.2-2.469l-26.255,15.148c0,0-9.129-0.592-10.627-0.688c-1.49-0.096-2.112,0.263-2.949,0.746
			l-1.458,0.841c-1.458,0.842-2.076,3.143-1.236,4.598l30.3,52.516c0.839,1.456,3.139,2.072,4.598,1.231l1.459-0.843
			C264.05,432.819,264.671,432.461,265.333,431.122z M242.791,394.537l3.927,0.067l8.079,14.002l-1.907,3.434L242.791,394.537z
			 M269.607,414.06l-20.197-35.007l23.337-13.465l20.198,35.007L269.607,414.06z"/>
		<rect x="289.885" y="429.211" fill="none" width="169.085" height="80.006"/>
		<text transform="matrix(1 0 0 1 289.8848 441.083)"><tspan x="0" y="0" fill="#183356" font-family="'Montserrat-Light'" font-size="16">Elouarn Lainé</tspan><tspan x="0" y="22" fill="#183356" font-family="'Montserrat-Light'" font-size="16">Anthony Le Coq</tspan><tspan x="0" y="44" fill="#183356" font-family="'Montserrat-Light'" font-size="16">Frederic Llorca</tspan></text>
		<path fill="#183356" d="M597.461,353.893c-2.245,3.001-1.567,4.913-1.567,4.913l12.594,9.413l14.099,10.537l8.929,0.585
			l-3.088-8.396l-14.102-10.536l-12.594-9.413C601.732,350.996,599.707,350.888,597.461,353.893z M627.461,371.61l1.063,2.861
			c-0.492,0.36-0.976,0.781-1.513,1.499c-0.538,0.72-0.803,1.302-1.012,1.877l-3.047-0.211l-0.978-0.731c0,0-0.2-1.609,1.355-3.687
			c1.552-2.074,3.156-2.342,3.156-2.342L627.461,371.61z"/>
		<g>
			<path fill="#2B3D49" d="M608.86,216.711c-0.062-18.9-15.396-34.205-34.313-34.205c-18.915,0-34.251,15.305-34.312,34.205h-0.004
				v111.421h68.635V216.711H608.86z"/>
			<path fill="#FFFFFF" d="M575.008,283.816c0,0-19.766,2.372-19.766-17.395c0-19.769-0.197-49.223-0.197-49.223
				s0.395-13.045,20.361-12.653c19.965,0.396,20.36,12.454,20.36,12.454v49.422C595.767,266.422,597.348,284.607,575.008,283.816z"
				/>
			<circle fill="#2B3D49" cx="572.75" cy="234.769" r="1.651"/>
			<circle fill="#2B3D49" cx="580.344" cy="234.769" r="1.652"/>
			<path fill="#2B3D49" d="M560.124,203.432c0,0,14.182,27.332,38.276,23.728C622.493,223.559,560.129,183.504,560.124,203.432z"/>
			<rect x="574.344" y="282.532" fill="#F2EDEB" width="1.85" height="6.573"/>
			<polygon fill="#AECD58" points="558.633,289.52 593.137,289.52 599.607,349.393 554.01,349.393 			"/>
			<rect x="567.453" y="370.646" fill="#183356" width="6.982" height="123.584"/>
			<rect x="579.814" y="370.659" fill="#183356" width="6.984" height="123.848"/>
			
				<pattern  id="SVGID_2_" xlink:href="#Nouvelle_nuance_de_motif_1" patternTransform="matrix(0.1392 0.3599 0.3599 -0.1392 -4815.5205 -2063.5347)">
			</pattern>
			<path fill="url(#SVGID_2_)" d="M558.217,363.105c2.225-0.857,3.33-3.36,2.471-5.578l-2.018-5.218
				c-0.856-2.224-3.359-3.326-5.578-2.464l0,0c-2.228,0.861-3.332,3.356-2.475,5.582l2.017,5.21
				C553.492,362.861,555.994,363.967,558.217,363.105L558.217,363.105z"/>
			
				<pattern  id="SVGID_3_" xlink:href="#Nouvelle_nuance_de_motif_1" patternTransform="matrix(0.0505 0.3825 -0.3825 0.0505 -8859.6318 -1106.9368)">
			</pattern>
			<path fill="url(#SVGID_3_)" d="M605.273,363.518c-2.362,0.308-4.531-1.352-4.844-3.715l-0.732-5.543
				c-0.312-2.363,1.354-4.529,3.716-4.842l0,0c2.368-0.309,4.535,1.348,4.848,3.712l0.732,5.542
				C609.302,361.035,607.639,363.201,605.273,363.518L605.273,363.518z"/>
			<path fill="#183356" d="M574.46,501.851h-15.153c-2.111,0-3.822-1.714-3.822-3.823l0,0c0-2.11,1.711-3.823,3.822-3.823h15.153"/>
			<path fill="#183356" d="M579.804,501.747h15.153c2.111,0,3.823-1.714,3.823-3.822l0,0c0-2.111-1.712-3.825-3.823-3.825h-15.153"
				/>
		</g>
		<g>
			<rect x="621.875" y="451.211" fill="none" width="186.708" height="83.332"/>
			<text transform="matrix(1 0 0 1 621.8745 463.083)"><tspan x="0" y="0" fill="#183356" font-family="'Montserrat-Light'" font-size="16">Claire Lemonnier</tspan><tspan x="0" y="22" fill="#183356" font-family="'Montserrat-Light'" font-size="16">Carine Guillaud</tspan></text>
		</g>
		<g>
			<rect x="994.343" y="429.211" fill="none" width="179.719" height="83.333"/>
			<text transform="matrix(1 0 0 1 994.3428 441.083)"><tspan x="0" y="0" fill="#183356" font-family="'Montserrat-Light'" font-size="16">Laura Ferrero </tspan><tspan x="0" y="22" fill="#183356" font-family="'Montserrat-Light'" font-size="16">Margaux Lefaix</tspan><tspan x="0" y="44" fill="#183356" font-family="'Montserrat-Light'" font-size="16">Coline Bourdier</tspan></text>
		</g>
		<g>
			<path fill="#FFFFFF" d="M202.092,279.941c0,0-24.533,2.942-24.533-21.588c0-24.533-0.244-61.085-0.244-61.085
				s0.491-16.19,25.268-15.702c24.778,0.491,25.27,15.455,25.27,15.455v61.332C227.852,258.354,229.815,280.921,202.092,279.941z"/>
			<circle fill="#2B3D49" cx="195.837" cy="219.07" r="2.288"/>
			<circle fill="#2B3D49" cx="213.082" cy="219.07" r="2.29"/>
			<circle fill="#2B3D49" cx="202.468" cy="260.001" r="25.46"/>
			<polyline fill="#2B3D49" points="177.099,262.197 177.099,201.947 184.671,241.785 			"/>
			<polyline fill="#2B3D49" points="227.887,262.346 227.887,202.097 220.315,241.934 			"/>
			<path fill="#2B3D49" d="M187.477,183.766c0,0-10.89,3.231-10.574,15.152c0.242,9.293,0.242,9.355,0.242,9.355
				s9.784-1.284,11.738-8.623C190.839,192.314,189.434,189.144,187.477,183.766z"/>
			<path fill="#2B3D49" d="M216.967,183.632c0,0,11.46,4.239,11.125,15.644c-0.279,9.504-0.061,8.955-0.061,8.955
				s-10.514-1.375-12.472-8.71C213.602,192.182,215.009,189.013,216.967,183.632z"/>
			<path fill="#AFDCDF" d="M173.064,304.867c0,0,10.918-6.718,29.11-6.718c18.194,0,28.834,6.718,28.834,6.718H173.064z"/>
			<rect x="173.236" y="311.334" fill="#AFDCDF" width="57.507" height="8.04"/>
			<rect x="173.236" y="327.355" fill="#AFDCDF" width="57.507" height="8.04"/>
			<rect x="173.236" y="343.378" fill="#AFDCDF" width="57.507" height="8.039"/>
			<rect x="173.236" y="359.399" fill="#AFDCDF" width="57.507" height="8.04"/>
			
				<pattern  id="SVGID_4_" xlink:href="#Nouvelle_nuance_de_motif_1" patternTransform="matrix(-0.0697 0.4064 -0.4064 -0.0697 -9744.6836 -1459.9607)">
			</pattern>
			<path fill="url(#SVGID_4_)" d="M237.838,386.033c-2.508-0.432-4.196-2.816-3.766-5.327l1.011-5.887
				c0.429-2.511,2.816-4.196,5.326-3.763l0,0c2.514,0.432,4.201,2.813,3.771,5.323l-1.011,5.888
				C242.737,384.778,240.353,386.463,237.838,386.033L237.838,386.033z"/>
			
				<pattern  id="SVGID_5_" xlink:href="#Nouvelle_nuance_de_motif_1" patternTransform="matrix(-0.0114 0.4122 0.4122 0.0114 -5774.7661 -1019.3872)">
			</pattern>
			<path fill="url(#SVGID_5_)" d="M171.38,385.679c2.547,0.071,4.669-1.938,4.741-4.48l0.164-5.974
				c0.072-2.546-1.938-4.666-4.482-4.735l0,0c-2.549-0.069-4.672,1.935-4.741,4.48l-0.166,5.971
				C166.826,383.486,168.833,385.609,171.38,385.679L171.38,385.679z"/>
			<path fill="#183356" d="M197.82,501.719h-28.661c-3.99,0-7.228-2.719-7.228-6.067l0,0c0-3.352,3.237-6.071,7.228-6.071h28.661"/>
			<path fill="#183356" d="M205.34,486.627l25.299,15.903c3.52,2.211,7.827,1.709,9.61-1.125l0,0c1.784-2.837,0.37-6.94-3.149-9.152
				l-25.299-15.903"/>
			<rect x="193.184" y="484.646" fill="#183356" width="4.609" height="5.378"/>
			
				<rect x="212.209" y="474.068" transform="matrix(-0.846 -0.5332 0.5332 -0.846 141.9373 993.9166)" fill="#183356" width="4.612" height="4.782"/>
		</g>
		<g>
			<path fill="#2B3D49" d="M981.119,201.021c-0.062-10.336-15.476-18.707-34.491-18.707c-19.012,0-34.428,8.371-34.489,18.707
				h-0.004v60.941h68.989v-60.941H981.119z"/>
			<path fill="#FFFFFF" d="M947.093,284.149c0,0-19.868,2.383-19.868-17.485c0-19.87-0.198-49.477-0.198-49.477
				s0.396-13.113,20.466-12.719c20.068,0.398,20.465,12.518,20.465,12.518v49.678C967.957,266.664,969.547,284.943,947.093,284.149z
				"/>
			<path fill="#2B3D49" d="M946.482,234.848c0,0.915-0.742,1.656-1.659,1.656c-0.915,0-1.661-0.741-1.661-1.656
				c0-0.918,0.746-1.663,1.661-1.663C945.74,233.185,946.482,233.93,946.482,234.848z"/>
			<path fill="#2B3D49" d="M954.116,234.848c0,0.915-0.746,1.656-1.66,1.656c-0.918,0-1.662-0.741-1.662-1.656
				c0-0.918,0.744-1.663,1.662-1.663C953.37,233.185,954.116,233.93,954.116,234.848z"/>
			<path fill="#2B3D49" d="M932.131,203.35c0,0,14.255,27.472,38.474,23.85C994.822,223.58,932.135,183.318,932.131,203.35z"/>
			<rect x="946.425" y="282.857" fill="#FFFFFF" width="1.858" height="6.607"/>
			<polygon fill="#AFDCDF" points="930.631,289.881 965.315,289.881 971.818,428.71 925.985,428.71 			"/>
			<rect x="939.498" y="443.72" fill="#183356" width="7.019" height="51.932"/>
			<rect x="951.924" y="443.733" fill="#183356" width="7.02" height="52.196"/>
			<path fill="#183356" d="M946.541,503.311h-15.232c-2.121,0-3.842-1.723-3.842-3.842l0,0c0-2.122,1.721-3.844,3.842-3.844h15.232"
				/>
			<path fill="#183356" d="M951.913,503.207h15.23c2.123,0,3.844-1.724,3.844-3.842l0,0c0-2.122-1.721-3.846-3.844-3.846h-15.23"/>
			<path fill="#FFFFFF" d="M935.862,289.086c0,0-7.124,21.057,12.212,21.366c19.335,0.31,11.192-21.366,11.192-21.366H935.862z"/>
			<rect x="906" y="353" fill="#FFFFFF" width="94" height="26"/>
			
				<pattern  id="SVGID_6_" xlink:href="#Nouvelle_nuance_de_motif_1" patternTransform="matrix(-0.1694 0.3489 0.3489 0.1694 -7323.4395 -886.2073)">
			</pattern>
			<path fill="url(#SVGID_6_)" d="M916.572,351.43c2.154,1.049,4.75,0.146,5.796-2.006l2.454-5.057
				c1.05-2.154,0.146-4.75-2.008-5.792l0,0c-2.16-1.048-4.752-0.151-5.801,2.004l-2.452,5.053
				C913.515,347.787,914.415,350.385,916.572,351.43L916.572,351.43z"/>
		</g>
		<path fill="#183356" d="M1002.913,399.57l-1.122-2.423l1.755-0.811c0.14-0.064,0.199-0.229,0.136-0.368l-9.899-21.383
			c-0.064-0.139-0.229-0.198-0.367-0.135l-16.658,7.71c-0.903,0.419-1.298,1.493-0.88,2.396l9.875,21.334
			c0.406,0.876,1.449,1.257,2.325,0.854l14.701-6.806C1002.917,399.875,1002.978,399.71,1002.913,399.57z M987.845,406.241
			c-0.601,0.276-1.312,0.015-1.588-0.582c-0.275-0.599-0.015-1.311,0.581-1.588l0.697-0.323c0.141-0.064,0.201-0.229,0.137-0.368
			c-0.064-0.14-0.229-0.199-0.369-0.135l-0.696,0.325c-0.419,0.193-0.725,0.533-0.887,0.93l-9.338-20.176
			c-0.29-0.625-0.018-1.371,0.607-1.659l16.406-7.594l9.667,20.881l-13.409,6.205c-0.14,0.063-0.199,0.229-0.134,0.367
			c0.063,0.139,0.229,0.202,0.367,0.135l11.401-5.278l1.006,2.171L987.845,406.241L987.845,406.241z M995.08,386.156l-3.71-8.019
			c-0.065-0.138-0.23-0.199-0.37-0.135l-6.013,2.783c-0.141,0.064-0.201,0.23-0.135,0.368l3.712,8.019
			c0.063,0.14,0.228,0.2,0.368,0.137l6.013-2.786C995.085,386.46,995.146,386.295,995.08,386.156z M988.95,388.688l-3.479-7.516
			l5.512-2.551l3.479,7.516L988.95,388.688z M995.331,387.358c0.139-0.065,0.304-0.004,0.368,0.135l3.712,8.019
			c0.064,0.138,0.005,0.304-0.135,0.367c-0.14,0.065-0.304,0.004-0.368-0.135l-3.711-8.018
			C995.132,387.588,995.192,387.423,995.331,387.358z M993.326,388.286c0.14-0.063,0.304-0.005,0.368,0.135l3.712,8.021
			c0.063,0.137,0.003,0.302-0.136,0.366c-0.138,0.064-0.303,0.004-0.368-0.135l-3.712-8.019
			C993.127,388.515,993.187,388.351,993.326,388.286z M991.321,389.215c0.139-0.065,0.305-0.004,0.367,0.134l3.712,8.021
			c0.064,0.137,0.003,0.303-0.135,0.367c-0.139,0.063-0.303,0.004-0.368-0.134l-3.712-8.021
			C991.122,389.442,991.183,389.278,991.321,389.215z M989.18,390.511c-0.062-0.139-0.002-0.304,0.135-0.368
			c0.141-0.064,0.306-0.004,0.37,0.136l3.712,8.017c0.064,0.142,0.003,0.305-0.136,0.371c-0.14,0.062-0.305,0.002-0.368-0.138
			L989.18,390.511z M986.924,390.236c-0.138,0.065-0.302,0.005-0.365-0.135l-3.715-8.018c-0.063-0.139-0.003-0.304,0.137-0.369
			c0.14-0.064,0.304-0.004,0.367,0.136l3.712,8.019C987.124,390.009,987.064,390.173,986.924,390.236z M984.922,391.164
			c-0.139,0.065-0.304,0.005-0.369-0.135l-3.712-8.018c-0.063-0.14-0.004-0.305,0.136-0.368c0.14-0.064,0.305-0.004,0.368,0.134
			l3.712,8.021C985.122,390.937,985.061,391.1,984.922,391.164z M982.917,392.092c-0.139,0.063-0.303,0.005-0.368-0.135l-3.71-8.019
			c-0.065-0.139-0.005-0.304,0.133-0.369c0.139-0.063,0.306-0.003,0.368,0.136l3.713,8.019
			C983.117,391.862,983.058,392.026,982.917,392.092z M991.299,399.688c-0.139,0.063-0.303,0.005-0.367-0.136l-3.713-8.02
			c-0.062-0.139-0.003-0.303,0.136-0.367c0.14-0.064,0.306-0.003,0.368,0.135l3.713,8.02
			C991.499,399.459,991.439,399.624,991.299,399.688z M989.296,400.616c-0.14,0.064-0.304,0.004-0.367-0.137l-3.713-8.019
			c-0.065-0.138-0.002-0.303,0.136-0.368c0.139-0.062,0.303-0.004,0.367,0.136l3.713,8.02
			C989.498,400.386,989.436,400.549,989.296,400.616z M987.292,401.543c-0.138,0.064-0.304,0.004-0.368-0.136l-3.712-8.018
			c-0.063-0.14-0.005-0.304,0.136-0.368c0.14-0.064,0.305-0.005,0.368,0.135l3.712,8.018
			C987.491,401.312,987.432,401.479,987.292,401.543z"/>
		
			<pattern  id="SVGID_7_" xlink:href="#Nouvelle_nuance_de_motif_1" patternTransform="matrix(-0.2603 -0.2849 0.2849 -0.2603 -8255.2959 -8037.2588)">
		</pattern>
		<path fill="url(#SVGID_7_)" d="M973.533,371.267c1.761-1.602,4.487-1.482,6.099,0.277l3.77,4.127
			c1.608,1.76,1.482,4.487-0.275,6.098l0,0c-1.766,1.608-4.491,1.489-6.101-0.271l-3.772-4.128
			C971.649,375.609,971.773,372.88,973.533,371.267L973.533,371.267z"/>
	</g>
	<g>
		<g>
			<path fill="#7A1E72" d="M123.967,767.253h-0.506c-0.045,0-0.062-0.043-0.083-0.084l-0.597-1.109h-0.059
				c-0.107,0-0.273-0.013-0.369-0.016v1.125c0,0.047-0.031,0.084-0.078,0.084h-0.416c-0.045,0-0.082-0.037-0.082-0.084v-2.853
				c0-0.084,0.049-0.112,0.133-0.125c0.215-0.033,0.51-0.055,0.812-0.055c0.64,0,1.194,0.229,1.194,0.938v0.038
				c0,0.438-0.221,0.713-0.56,0.846l0.65,1.211c0.01,0.013,0.01,0.024,0.01,0.033C124.018,767.23,123.998,767.253,123.967,767.253
				 M123.346,765.074c0-0.312-0.21-0.443-0.623-0.443c-0.087,0-0.293,0.009-0.369,0.016v0.934c0.066,0.006,0.299,0.013,0.369,0.013
				c0.427,0,0.623-0.117,0.623-0.48V765.074z"/>
			<path fill="#7A1E72" d="M126.264,766.274h-1.354v0.012c0,0.24,0.102,0.526,0.497,0.526c0.304,0,0.589-0.024,0.765-0.041
				c0.004,0,0.007,0,0.012,0c0.042,0,0.076,0.02,0.076,0.061v0.274c0,0.065-0.014,0.096-0.088,0.109
				c-0.27,0.049-0.43,0.069-0.805,0.069c-0.416,0-1.002-0.223-1.002-1.04v-0.308c0-0.647,0.359-1.054,0.992-1.054
				c0.639,0,0.988,0.435,0.988,1.054v0.231C126.346,766.235,126.32,766.274,126.264,766.274 M125.795,765.866
				c0-0.323-0.18-0.51-0.438-0.51c-0.255,0-0.443,0.183-0.443,0.51v0.018h0.881V765.866z M126.039,764.084l-0.49,0.514
				c-0.033,0.038-0.049,0.055-0.098,0.055h-0.357c-0.025,0-0.037-0.013-0.037-0.03c0-0.012,0.003-0.027,0.017-0.04l0.394-0.498
				c0.037-0.046,0.054-0.063,0.108-0.063h0.435c0.029,0,0.047,0.014,0.047,0.029C126.057,764.058,126.05,764.071,126.039,764.084z"
				/>
			<path fill="#7A1E72" d="M128.867,765.29l-0.136,0.054c0.064,0.097,0.103,0.188,0.103,0.332v0.029
				c0,0.518-0.357,0.755-0.982,0.755c-0.221,0-0.371-0.038-0.45-0.07c-0.052,0.032-0.071,0.07-0.071,0.108
				c0,0.081,0.044,0.114,0.139,0.135l0.49,0.118c0.563,0.133,0.93,0.22,0.93,0.662v0.029c0,0.424-0.312,0.65-1.018,0.65
				c-0.67,0-1.028-0.254-1.028-0.688v-0.037c0-0.17,0.081-0.334,0.212-0.455c-0.115-0.087-0.187-0.233-0.187-0.382v-0.004
				c0-0.128,0.056-0.258,0.166-0.337c-0.124-0.13-0.171-0.278-0.171-0.484v-0.029c0-0.416,0.271-0.763,0.988-0.763h0.971
				c0.062,0,0.111,0.049,0.111,0.111v0.175C128.934,765.26,128.918,765.27,128.867,765.29 M128.34,767.413
				c0-0.092-0.053-0.146-0.488-0.249l-0.371-0.087c-0.061,0.087-0.101,0.143-0.101,0.29v0.037c0,0.171,0.101,0.274,0.491,0.274
				c0.398,0,0.469-0.087,0.469-0.236V767.413z M128.295,765.684c0-0.198-0.086-0.353-0.443-0.353c-0.352,0-0.447,0.158-0.447,0.353
				v0.034c0,0.153,0.062,0.326,0.447,0.326c0.345,0,0.443-0.119,0.443-0.326V765.684z"/>
			<path fill="#7A1E72" d="M129.891,764.603h-0.4c-0.047,0-0.089-0.039-0.089-0.085v-0.364c0-0.045,0.042-0.082,0.089-0.082h0.4
				c0.049,0,0.084,0.037,0.084,0.082v0.364C129.975,764.563,129.939,764.603,129.891,764.603 M129.879,767.253h-0.381
				c-0.045,0-0.084-0.043-0.084-0.089v-2.169c0-0.046,0.039-0.082,0.084-0.082h0.381c0.045,0,0.084,0.036,0.084,0.082v2.169
				C129.963,767.21,129.924,767.253,129.879,767.253z"/>
			<path fill="#7A1E72" d="M131.518,767.285c-0.651,0-0.992-0.44-0.992-1.032v-0.338c0-0.591,0.341-1.031,0.992-1.031
				c0.65,0,0.99,0.44,0.99,1.031v0.338C132.508,766.845,132.168,767.285,131.518,767.285 M131.959,765.915
				c0-0.34-0.152-0.559-0.441-0.559s-0.443,0.219-0.443,0.559v0.338c0,0.339,0.154,0.56,0.443,0.56s0.441-0.221,0.441-0.56V765.915z
				"/>
			<path fill="#7A1E72" d="M134.895,767.253h-0.383c-0.046,0-0.084-0.043-0.084-0.089v-1.353c0-0.358-0.033-0.463-0.353-0.463
				c-0.142,0-0.294,0.056-0.467,0.149v1.666c0,0.046-0.04,0.089-0.084,0.089h-0.383c-0.046,0-0.081-0.043-0.081-0.089v-2.169
				c0-0.046,0.035-0.082,0.081-0.082h0.362c0.045,0,0.082,0.036,0.082,0.082v0.087c0.242-0.152,0.398-0.198,0.674-0.198
				c0.595,0,0.717,0.403,0.717,0.928v1.353C134.977,767.21,134.938,767.253,134.895,767.253"/>
			<path fill="#005CA5" d="M137.354,770.189c0.01-0.027,0.02-0.047,0.02-0.072c0-0.078-0.066-0.142-0.162-0.142h-1.035
				c-0.083,0-0.15,0.073-0.178,0.149l-1.13,2.805c-0.065,0.159-0.122,0.188-0.169,0.188c-0.037,0-0.094-0.029-0.159-0.188
				l-1.131-2.805c-0.027-0.076-0.093-0.149-0.179-0.149h-1.043c-0.096,0-0.152,0.063-0.152,0.142c0,0.017,0.01,0.045,0.02,0.072
				l0.958,2.202c0.001,0.001,0.002,0.002,0.002,0.004l1.036,2.381v2.002c0,0.104,0.074,0.187,0.179,0.187h0.939
				c0.104,0,0.179-0.083,0.179-0.187v-2.002l0.607-1.393L137.354,770.189"/>
			<path fill="#005CA5" d="M123.924,774.359c-0.244,0-0.622-0.029-0.838-0.038v2.457c0,0.104-0.078,0.187-0.18,0.187h-0.941
				c-0.104,0-0.188-0.083-0.188-0.187v-6.475c0-0.187,0.111-0.255,0.301-0.283c0.49-0.074,1.158-0.122,1.846-0.122
				c1.449,0,2.711,0.51,2.711,2.175v0.084C126.635,773.824,125.373,774.359,123.924,774.359 M125.336,772.073
				c0-0.792-0.471-1.092-1.412-1.092c-0.198,0-0.668,0.019-0.838,0.037v2.239c0.15,0.011,0.677,0.028,0.838,0.028
				c1.016,0,1.412-0.374,1.412-1.129V772.073z"/>
			<path fill="#005CA5" d="M132.176,776.965h-0.997c-0.083,0-0.159-0.072-0.179-0.157l-0.432-1.789h-2.166l-0.434,1.789
				c-0.018,0.085-0.094,0.157-0.18,0.157h-0.996c-0.095,0-0.172-0.063-0.172-0.157c0-0.011,0.01-0.029,0.01-0.047l1.545-5.902
				c0.227-0.874,0.904-0.96,1.31-0.96c0.403,0,1.083,0.086,1.31,0.96l1.543,5.902c0,0.018,0.01,0.036,0.01,0.047
				C132.348,776.901,132.27,776.965,132.176,776.965 M129.635,771.149c-0.027-0.111-0.056-0.149-0.149-0.149
				c-0.096,0-0.124,0.038-0.151,0.149l-0.678,2.797h1.656L129.635,771.149z"/>
			<path fill="#005CA5" d="M139.945,777.042c-0.703,0-1.211-0.066-1.662-0.169c-0.096-0.019-0.181-0.085-0.181-0.188v-0.679
				c0-0.104,0.085-0.18,0.181-0.18c0.009,0,0.009,0,0.018,0c0.377,0.049,1.318,0.095,1.668,0.095c0.836,0,1.09-0.301,1.09-0.845
				c0-0.37-0.178-0.557-0.799-0.923l-1.244-0.745c-0.875-0.517-1.11-1.064-1.11-1.724c0-1.033,0.603-1.787,2.354-1.787
				c0.621,0,1.486,0.096,1.806,0.17c0.095,0.018,0.171,0.084,0.171,0.18v0.696c0,0.094-0.068,0.169-0.16,0.169
				c-0.011,0-0.011,0-0.02,0c-0.621-0.058-1.243-0.095-1.854-0.095c-0.696,0-0.987,0.244-0.987,0.667
				c0,0.311,0.158,0.501,0.771,0.839l1.132,0.631c1.034,0.574,1.307,1.175,1.307,1.922
				C142.424,776.027,141.83,777.042,139.945,777.042"/>
			<path fill="#005CA5" d="M148.006,777.042c-0.67,0-1.572-0.066-1.855-0.112c-0.159-0.028-0.243-0.103-0.243-0.292v-6.334
				c0-0.187,0.084-0.265,0.243-0.291c0.283-0.048,1.186-0.114,1.855-0.114c1.881,0,2.956,1.017,2.956,2.878v1.387
				C150.962,776.027,149.887,777.042,148.006,777.042 M149.661,772.776c0-1.409-0.714-1.776-1.655-1.776
				c-0.348,0-0.594,0.019-0.79,0.026v4.887c0.196,0.009,0.442,0.028,0.79,0.028c0.941,0,1.655-0.366,1.655-1.778V772.776z"/>
			<path fill="#005CA5" d="M155.996,776.911c-0.301,0.046-0.668,0.131-1.787,0.131c-1.226,0-2.176-0.327-2.176-1.927v-3.289
				c0-1.599,0.95-1.928,2.176-1.928c1.119,0,1.486,0.086,1.787,0.131c0.143,0.02,0.189,0.067,0.189,0.198v0.602
				c0,0.106-0.085,0.189-0.189,0.189h-1.922c-0.544,0-0.742,0.188-0.742,0.808v1.019h2.551c0.104,0,0.189,0.084,0.189,0.189v0.677
				c0,0.105-0.085,0.188-0.189,0.188h-2.551v1.217c0,0.62,0.198,0.807,0.742,0.807h1.922c0.104,0,0.189,0.085,0.189,0.188v0.604
				C156.186,776.845,156.139,776.893,155.996,776.911"/>
			<path fill="#005CA5" d="M163.582,776.911c-0.283,0.064-1.1,0.131-1.598,0.131c-1.229,0-2.176-0.327-2.176-1.927v-4.953
				c0-0.104,0.084-0.187,0.188-0.187h0.933c0.103,0,0.188,0.083,0.188,0.187v4.953c0,0.62,0.188,0.807,0.734,0.807h1.73
				c0.104,0,0.189,0.085,0.189,0.188v0.604C163.771,776.845,163.723,776.882,163.582,776.911"/>
			<path fill="#005CA5" d="M169.693,776.965h-0.998c-0.087,0-0.16-0.072-0.182-0.157l-0.43-1.789h-2.166l-0.435,1.789
				c-0.019,0.085-0.095,0.157-0.178,0.157h-0.997c-0.096,0-0.169-0.063-0.169-0.157c0-0.011,0.009-0.029,0.009-0.047l1.543-5.902
				c0.227-0.874,0.902-0.96,1.309-0.96c0.404,0,1.084,0.086,1.309,0.96l1.543,5.902c0,0.018,0.01,0.036,0.01,0.047
				C169.861,776.901,169.786,776.965,169.693,776.965 M167.15,771.149c-0.029-0.111-0.057-0.149-0.15-0.149
				c-0.095,0-0.122,0.038-0.149,0.149l-0.68,2.797h1.657L167.15,771.149z"/>
			<path fill="#005CA5" d="M176.875,776.911c-0.283,0.064-1.102,0.131-1.6,0.131c-1.226,0-2.176-0.327-2.176-1.927v-4.953
				c0-0.104,0.084-0.187,0.188-0.187h0.931c0.105,0,0.188,0.083,0.188,0.187v4.953c0,0.62,0.19,0.807,0.737,0.807h1.731
				c0.104,0,0.187,0.085,0.187,0.188v0.604C177.062,776.845,177.015,776.882,176.875,776.911"/>
			<path fill="#005CA5" d="M180.12,777.042c-1.555,0-2.685-0.865-2.685-2.937v-1.271c0-2.07,1.13-2.937,2.685-2.937
				c1.554,0,2.683,0.866,2.683,2.937v1.271C182.803,776.177,181.674,777.042,180.12,777.042 M181.485,772.835
				c0-1.242-0.443-1.797-1.365-1.797c-0.923,0-1.364,0.555-1.364,1.797v1.271c0,1.244,0.441,1.798,1.364,1.798
				c0.922,0,1.365-0.554,1.365-1.798V772.835z"/>
			<path fill="#005CA5" d="M185.146,776.965h-0.932c-0.105,0-0.189-0.083-0.189-0.187v-6.626c0-0.104,0.084-0.177,0.189-0.177h0.932
				c0.103,0,0.188,0.073,0.188,0.177v6.626C185.334,776.882,185.249,776.965,185.146,776.965"/>
			<path fill="#005CA5" d="M191.715,776.965h-1.149c-0.101,0-0.14-0.092-0.186-0.187l-1.355-2.511h-0.132
				c-0.247,0-0.621-0.03-0.84-0.04v2.551c0,0.104-0.074,0.187-0.178,0.187h-0.939c-0.104,0-0.189-0.083-0.189-0.187v-6.475
				c0-0.187,0.113-0.255,0.301-0.283c0.49-0.074,1.156-0.122,1.846-0.122c1.45,0,2.711,0.52,2.711,2.127v0.085
				c0,0.997-0.5,1.619-1.271,1.92l1.479,2.748c0.018,0.029,0.018,0.059,0.018,0.076C191.828,776.919,191.79,776.965,191.715,776.965
				 M190.305,772.025c0-0.707-0.471-1.007-1.412-1.007c-0.197,0-0.67,0.02-0.84,0.037v2.119c0.15,0.01,0.68,0.028,0.84,0.028
				c0.969,0,1.412-0.265,1.412-1.093V772.025z"/>
			<path fill="#005CA5" d="M196.619,776.911c-0.303,0.046-0.668,0.131-1.789,0.131c-1.225,0-2.176-0.327-2.176-1.927v-3.289
				c0-1.599,0.951-1.928,2.176-1.928c1.121,0,1.486,0.086,1.789,0.131c0.142,0.02,0.188,0.067,0.188,0.198v0.602
				c0,0.106-0.084,0.189-0.188,0.189h-1.922c-0.545,0-0.744,0.188-0.744,0.808v1.019h2.551c0.105,0,0.189,0.084,0.189,0.189v0.677
				c0,0.105-0.084,0.188-0.189,0.188h-2.551v1.217c0,0.62,0.199,0.807,0.744,0.807h1.922c0.104,0,0.188,0.085,0.188,0.188v0.604
				C196.807,776.845,196.761,776.893,196.619,776.911"/>
			<path fill="#009CB9" d="M110.92,773.468c0-5.243-2.033-10.006-5.356-13.582h-4.521c4.075,3.14,6.702,8.053,6.702,13.582
				c0,5.539-2.627,10.45-6.706,13.586h4.524C108.887,783.482,110.92,778.713,110.92,773.468"/>
			<path fill="#BDD143" d="M113.211,773.536c0-5.076-1.613-9.786-4.36-13.65h6.249c2.292,4.036,3.601,8.694,3.601,13.65
				c0,4.906-1.281,9.518-3.521,13.518h-6.244C111.633,783.22,113.211,778.564,113.211,773.536"/>
			<path fill="#009CB9" d="M37.627,775.475h-0.318c-0.061,0-0.109-0.056-0.109-0.123v-4.341c0-0.06,0.043-0.115,0.109-0.115h0.318
				c0.061,0,0.109,0.049,0.109,0.115v4.341C37.736,775.413,37.693,775.475,37.627,775.475"/>
			<path fill="#009CB9" d="M39.501,771.011l-0.353,1.15c-0.025,0.087-0.056,0.115-0.117,0.115h-0.285
				c-0.042,0-0.055-0.023-0.055-0.061c0-0.017,0-0.036,0.006-0.055l0.279-1.15c0.019-0.084,0.062-0.115,0.123-0.115h0.341
				c0.042,0,0.066,0.025,0.066,0.066C39.507,770.976,39.507,770.993,39.501,771.011"/>
			<path fill="#009CB9" d="M42.868,773.972h-2.04v0.084c0,0.725,0.287,0.991,0.847,0.991c0.353,0,0.803-0.024,1.083-0.065
				c0.013,0,0.018,0,0.031,0c0.049,0,0.098,0.023,0.098,0.087v0.204c0,0.079-0.025,0.123-0.123,0.141
				c-0.347,0.066-0.682,0.104-1.089,0.104c-0.7,0-1.382-0.33-1.382-1.461v-0.549c0-0.87,0.48-1.424,1.351-1.424
				c0.89,0,1.339,0.559,1.339,1.424v0.33C42.982,773.915,42.94,773.972,42.868,773.972 M42.441,773.507
				c0-0.689-0.262-0.955-0.798-0.955c-0.522,0-0.815,0.3-0.815,0.955v0.056h1.613V773.507z"/>
			<path fill="#009CB9" d="M44.998,775.517c-0.225,0-0.663-0.019-0.961-0.09c-0.08-0.02-0.129-0.057-0.129-0.125v-0.211
				c0-0.057,0.049-0.093,0.109-0.093c0.013,0,0.02,0,0.025,0c0.292,0.036,0.736,0.07,0.955,0.07c0.396,0,0.604-0.105,0.604-0.435
				c0-0.183-0.11-0.298-0.457-0.506l-0.615-0.367c-0.371-0.223-0.621-0.486-0.621-0.867c0-0.634,0.476-0.811,1.102-0.811
				c0.342,0,0.664,0.029,0.951,0.078c0.078,0.014,0.115,0.055,0.115,0.122v0.201c0,0.073-0.043,0.104-0.104,0.104
				c-0.006,0-0.012,0-0.018,0c-0.213-0.019-0.604-0.049-0.945-0.049c-0.34,0-0.564,0.043-0.564,0.354
				c0,0.181,0.139,0.297,0.419,0.461l0.603,0.36c0.506,0.298,0.67,0.559,0.67,0.919C46.137,775.255,45.68,775.517,44.998,775.517"/>
			<path fill="#009CB9" d="M48.408,775.517c-0.189,0-0.475-0.024-0.713-0.066v1.102c0,0.061-0.049,0.114-0.115,0.114H47.27
				c-0.061,0-0.109-0.048-0.109-0.114v-4.189c0-0.079,0.018-0.114,0.127-0.139c0.323-0.081,0.75-0.141,1.121-0.141
				c0.907,0,1.327,0.589,1.327,1.504v0.438C49.735,774.981,49.297,775.517,48.408,775.517 M49.199,773.587
				c0-0.64-0.188-1.053-0.791-1.053c-0.256,0-0.542,0.029-0.713,0.06v2.411c0.2,0.037,0.518,0.063,0.713,0.063
				c0.596,0,0.791-0.393,0.791-1.044V773.587z"/>
			<path fill="#009CB9" d="M52.134,772.546c-0.28,0-0.536,0.073-0.841,0.255v2.551c0,0.062-0.055,0.123-0.121,0.123h-0.299
				c-0.061,0-0.115-0.056-0.115-0.123v-3.104c0-0.068,0.048-0.123,0.115-0.123h0.287c0.066,0,0.115,0.055,0.115,0.123v0.126
				c0.305-0.213,0.584-0.291,0.858-0.291c0.085,0,0.128,0.035,0.128,0.108v0.249C52.262,772.508,52.219,772.546,52.134,772.546"/>
			<path fill="#009CB9" d="M53.638,771.59h-0.312c-0.066,0-0.121-0.055-0.121-0.123v-0.485c0-0.068,0.055-0.123,0.121-0.123h0.312
				c0.067,0,0.122,0.055,0.122,0.123v0.485C53.76,771.535,53.705,771.59,53.638,771.59 M53.625,775.475h-0.291
				c-0.067,0-0.123-0.056-0.123-0.123v-3.104c0-0.068,0.056-0.123,0.123-0.123h0.291c0.067,0,0.123,0.055,0.123,0.123v3.104
				C53.748,775.419,53.692,775.475,53.625,775.475z"/>
			<path fill="#009CB9" d="M56.621,775.485c-0.121,0.02-0.281,0.031-0.396,0.031c-0.56,0-0.826-0.146-0.826-0.815v-2.124
				l-0.592-0.069c-0.067-0.005-0.115-0.042-0.115-0.107v-0.165c0-0.068,0.048-0.11,0.115-0.11h0.592v-0.597
				c0-0.062,0.041-0.109,0.107-0.122l0.317-0.048c0.006,0,0.012,0,0.019,0c0.049,0,0.091,0.043,0.091,0.103v0.664h0.657
				c0.068,0,0.121,0.055,0.121,0.123v0.207c0,0.067-0.053,0.122-0.121,0.122h-0.657v2.124c0,0.333,0.085,0.383,0.329,0.383h0.342
				c0.084,0,0.126,0.025,0.126,0.085v0.214C56.729,775.438,56.701,775.475,56.621,775.485"/>
			<path fill="#009CB9" d="M62.07,772.534l-0.22,0.043c0.109,0.113,0.206,0.297,0.206,0.626v0.049c0,0.669-0.414,1.04-1.35,1.04
				c-0.324,0-0.531-0.047-0.708-0.122c-0.104,0.05-0.151,0.117-0.151,0.208c0,0.104,0.048,0.159,0.188,0.195l0.907,0.232
				c0.596,0.151,1.169,0.32,1.169,0.896v0.047c0,0.586-0.39,0.944-1.388,0.944c-0.963,0-1.4-0.373-1.4-0.969v-0.055
				c0-0.342,0.182-0.622,0.383-0.774l-0.041-0.017c-0.196-0.085-0.281-0.286-0.281-0.476v-0.007c0-0.163,0.079-0.34,0.25-0.438
				c-0.189-0.177-0.281-0.396-0.281-0.706v-0.049c0-0.542,0.305-1.078,1.354-1.078h1.332c0.073,0,0.141,0.062,0.141,0.135v0.158
				C62.18,772.498,62.137,772.522,62.07,772.534 M61.576,775.701c0-0.24-0.193-0.338-0.742-0.477l-0.689-0.178
				c-0.176,0.154-0.297,0.305-0.297,0.622v0.055c0,0.342,0.201,0.555,0.877,0.555c0.694,0,0.852-0.194,0.852-0.53V775.701z
				 M61.527,773.203c0-0.364-0.164-0.651-0.82-0.651c-0.684,0-0.822,0.311-0.822,0.651v0.049c0,0.267,0.121,0.621,0.822,0.621
				c0.656,0,0.82-0.255,0.82-0.621V773.203z"/>
			<path fill="#009CB9" d="M64.492,772.546c-0.279,0-0.535,0.073-0.84,0.255v2.551c0,0.062-0.055,0.123-0.121,0.123h-0.299
				c-0.061,0-0.115-0.056-0.115-0.123v-3.104c0-0.068,0.049-0.123,0.115-0.123h0.286c0.067,0,0.115,0.055,0.115,0.123v0.126
				c0.306-0.213,0.585-0.291,0.858-0.291c0.086,0,0.129,0.035,0.129,0.108v0.249C64.621,772.508,64.578,772.546,64.492,772.546"/>
			<path fill="#009CB9" d="M67.55,775.475h-0.281c-0.066,0-0.122-0.056-0.122-0.123v-0.134c-0.291,0.17-0.596,0.299-0.938,0.299
				c-0.518,0-0.992-0.225-0.992-0.985v-0.075c0-0.656,0.384-0.985,1.467-0.985h0.452v-0.244c0-0.51-0.179-0.688-0.653-0.688
				c-0.395,0-0.688,0.024-0.93,0.049c-0.014,0-0.02,0-0.032,0c-0.055,0-0.108-0.019-0.108-0.098v-0.214
				c0-0.064,0.043-0.102,0.127-0.115c0.25-0.043,0.53-0.078,0.943-0.078c0.848,0,1.188,0.425,1.188,1.144v2.125
				C67.67,775.419,67.615,775.475,67.55,775.475 M67.136,773.854h-0.452c-0.736,0-0.932,0.164-0.932,0.597v0.073
				c0,0.438,0.207,0.555,0.56,0.555c0.28,0,0.53-0.087,0.824-0.245V773.854z"/>
			<path fill="#009CB9" d="M71.244,775.475h-0.293c-0.065,0-0.121-0.056-0.121-0.123v-2.003c0-0.614-0.207-0.803-0.67-0.803
				c-0.256,0-0.541,0.096-0.82,0.236v2.569c0,0.062-0.057,0.123-0.123,0.123h-0.298c-0.062,0-0.117-0.056-0.117-0.123v-3.104
				c0-0.068,0.05-0.123,0.117-0.123h0.304c0.066,0,0.117,0.055,0.117,0.123v0.114c0.334-0.188,0.607-0.279,0.967-0.279
				c0.73,0,1.06,0.456,1.06,1.266v2.003C71.366,775.419,71.312,775.475,71.244,775.475"/>
			<path fill="#009CB9" d="M74.836,775.413c-0.377,0.072-0.748,0.104-1.119,0.104c-0.908,0-1.328-0.591-1.328-1.504v-0.438
				c0-0.956,0.439-1.492,1.328-1.492c0.188,0,0.474,0.017,0.711,0.06v-1.132c0-0.06,0.049-0.115,0.115-0.115h0.312
				c0.061,0,0.109,0.049,0.109,0.115v4.262C74.965,775.352,74.945,775.396,74.836,775.413 M74.428,772.594
				c-0.201-0.036-0.518-0.042-0.711-0.042c-0.598,0-0.792,0.37-0.792,1.023v0.438c0,0.663,0.188,1.034,0.792,1.034
				c0.205,0,0.504-0.02,0.711-0.036V772.594z"/>
			<path fill="#009CB9" d="M79.146,775.517c-0.896,0-1.352-0.591-1.352-1.486v-0.462c0-0.896,0.456-1.485,1.352-1.485
				c0.895,0,1.357,0.589,1.357,1.485v0.462C80.504,774.926,80.041,775.517,79.146,775.517 M79.969,773.568
				c0-0.621-0.25-1.017-0.822-1.017c-0.566,0-0.816,0.39-0.816,1.017v0.462c0,0.622,0.245,1.017,0.816,1.017
				c0.566,0,0.822-0.389,0.822-1.017V773.568z"/>
			<path fill="#009CB9" d="M83.975,775.475H83.67c-0.066,0-0.117-0.056-0.117-0.123v-0.115c-0.334,0.19-0.607,0.28-0.967,0.28
				c-0.73,0-1.059-0.456-1.059-1.266v-2.003c0-0.068,0.055-0.123,0.122-0.123h0.292c0.066,0,0.121,0.055,0.121,0.123v2.003
				c0,0.614,0.207,0.803,0.669,0.803c0.257,0,0.543-0.097,0.821-0.237v-2.568c0-0.062,0.057-0.123,0.124-0.123h0.298
				c0.06,0,0.116,0.055,0.116,0.123v3.104C84.091,775.419,84.041,775.475,83.975,775.475"/>
			<path fill="#009CB9" d="M87.791,772.271l-0.822,2.897c-0.078,0.275-0.285,0.348-0.547,0.348s-0.469-0.072-0.547-0.348
				l-0.824-2.897c-0.004-0.019-0.004-0.03-0.004-0.042c0-0.062,0.035-0.104,0.096-0.104h0.336c0.049,0,0.09,0.036,0.115,0.116
				l0.7,2.653c0.036,0.147,0.067,0.178,0.128,0.178c0.055,0,0.091-0.03,0.129-0.178l0.698-2.653c0.025-0.08,0.067-0.116,0.116-0.116
				H87.7c0.061,0,0.098,0.042,0.098,0.104C87.798,772.241,87.798,772.253,87.791,772.271"/>
			<path fill="#009CB9" d="M91.097,773.972h-2.039v0.084c0,0.725,0.286,0.991,0.845,0.991c0.355,0,0.805-0.024,1.085-0.065
				c0.013,0,0.019,0,0.03,0c0.049,0,0.098,0.023,0.098,0.087v0.204c0,0.079-0.023,0.123-0.121,0.141
				c-0.346,0.066-0.682,0.104-1.092,0.104c-0.697,0-1.381-0.33-1.381-1.461v-0.549c0-0.87,0.48-1.424,1.352-1.424
				c0.889,0,1.34,0.559,1.34,1.424v0.33C91.213,773.915,91.17,773.972,91.097,773.972 M90.671,773.507
				c0-0.689-0.263-0.955-0.798-0.955c-0.523,0-0.815,0.3-0.815,0.955v0.056h1.613V773.507z"/>
			<path fill="#009CB9" d="M93.623,772.546c-0.279,0-0.534,0.073-0.84,0.255v2.551c0,0.062-0.054,0.123-0.123,0.123h-0.297
				c-0.061,0-0.115-0.056-0.115-0.123v-3.104c0-0.068,0.05-0.123,0.115-0.123h0.288c0.066,0,0.114,0.055,0.114,0.123v0.126
				c0.305-0.213,0.584-0.291,0.857-0.291c0.086,0,0.129,0.035,0.129,0.108v0.249C93.752,772.508,93.709,772.546,93.623,772.546"/>
			<path fill="#009CB9" d="M96.303,775.485c-0.121,0.02-0.279,0.031-0.395,0.031c-0.561,0-0.829-0.146-0.829-0.815v-2.124
				l-0.591-0.069c-0.067-0.005-0.114-0.042-0.114-0.107v-0.165c0-0.068,0.047-0.11,0.114-0.11h0.591v-0.597
				c0-0.062,0.042-0.109,0.109-0.122l0.316-0.048c0.007,0,0.013,0,0.019,0c0.049,0,0.092,0.043,0.092,0.103v0.664h0.658
				c0.066,0,0.121,0.055,0.121,0.123v0.207c0,0.067-0.055,0.122-0.121,0.122h-0.658v2.124c0,0.333,0.085,0.383,0.328,0.383h0.342
				c0.086,0,0.127,0.025,0.127,0.085v0.214C96.412,775.438,96.381,775.475,96.303,775.485"/>
		</g>
	</g>
</g>
<g id="Calque_3">
</g>
</svg>
