<?xml version="1.0" encoding="utf-8"?>
<!-- Generator: Adobe Illustrator 16.0.0, SVG Export Plug-In . SVG Version: 6.00 Build 0)  -->
<!DOCTYPE svg PUBLIC "-//W3C//DTD SVG 1.1//EN" "http://www.w3.org/Graphics/SVG/1.1/DTD/svg11.dtd">
<svg version="1.1" xmlns="http://www.w3.org/2000/svg" xmlns:xlink="http://www.w3.org/1999/xlink" x="0px" y="0px" width="1280px"
	 height="800px" viewBox="0 0 1280 800" enable-background="new 0 0 1280 800" xml:space="preserve">
<g id="Calque_2">
	<rect y="-1" fill="#F7FBFC" width="1280" height="798"/>
</g>
<g id="Calque_1">
	<g>
		<path fill="#BFE3E5" d="M440.766,346h315.31c0,0-74.331-75.621-184.565-25.632C571.511,320.368,483.057,305,440.766,346z"/>
		<path fill="#CFEAEC" d="M348.48,363h315.31c0,0-74.328-75.623-184.565-25.635C479.225,337.365,390.77,320,348.48,363z"/>
		<path fill="#AECD58" d="M630.659,507c7.696,0,13.341-6.623,13.341-14.318v-0.961c0-7.695-5.943-13.935-13.639-13.935l-2.414,0.241
			c-7.696,0-13.947-6.48-13.947-14.177v-0.961c0-7.697,4.157-13.889,11.852-13.889h14.417c7.695,0,13.731-6.285,13.731-13.982v-0.96
			c0-7.697-6.377-14.176-14.074-14.176l-12.123,0.24c-7.695,0-13.804-6.239-13.804-13.936v-0.959
			c0-7.696,6.399-14.177,14.095-14.177l33.682,0.24c7.696,0,14.223-6.239,14.223-13.935v-0.961c0-7.695-6.893-13.394-14.587-13.394
			H345.224c-7.696,0-14.224,5.698-14.224,13.394v0.961c0,7.696,6.528,14.646,14.224,14.646h33.396c7.697,0,14.38,5.531,14.38,13.227
			v0.959c0,7.697-6.342,13.936-14.037,13.936l-4.176-0.24c-7.695,0-13.787,6.479-13.787,14.176v0.96
			c0,7.697,5.359,13.982,13.056,13.982h75.923c7.696,0,15.021,6.192,15.021,13.889v0.961c0,7.697-7.324,14.15-15.021,14.15h-4.565
			c-7.696,0-13.415,6.026-13.415,13.721v0.961c0,7.695,5.478,14.318,13.175,14.318H630.659z"/>
		<g>
			<polygon fill="#BED77A" points="463.927,419.416 432.398,419.416 448.163,374.604 463.927,329.794 479.691,374.604 
				495.455,419.416 			"/>
			<path fill="#183356" d="M451.627,429.943h21.367C472.995,429.943,464.072,420.013,451.627,429.943z"/>
			<g>
				<path fill="#183356" d="M462.993,430.003c-0.502,0-0.904-0.405-0.904-0.905v-69.25c0-0.5,0.402-0.904,0.904-0.904
					c0.5,0,0.901,0.404,0.901,0.904v69.25C463.894,429.598,463.493,430.003,462.993,430.003z"/>
			</g>
			<g>
				<path fill="#183356" d="M462.691,413.44c-0.145,0-0.29-0.031-0.427-0.107l-16.861-9.032c-0.441-0.234-0.604-0.785-0.368-1.223
					c0.234-0.439,0.779-0.606,1.224-0.371l16.859,9.034c0.44,0.236,0.605,0.782,0.37,1.221
					C463.327,413.269,463.013,413.44,462.691,413.44z"/>
			</g>
			<g>
				<path fill="#183356" d="M463.561,404.566c-0.268,0-0.531-0.116-0.708-0.34c-0.312-0.393-0.244-0.961,0.146-1.271l15.961-12.658
					c0.392-0.308,0.961-0.24,1.271,0.148c0.31,0.391,0.245,0.96-0.146,1.269l-15.962,12.656
					C463.955,404.502,463.755,404.566,463.561,404.566z"/>
			</g>
			<g>
				<path fill="#183356" d="M462.958,393.685c-0.144,0-0.289-0.036-0.423-0.109l-12.684-6.806c-0.439-0.234-0.604-0.781-0.369-1.22
					c0.236-0.441,0.787-0.606,1.224-0.368l12.684,6.803c0.437,0.236,0.6,0.784,0.365,1.222
					C463.591,393.512,463.281,393.685,462.958,393.685z"/>
			</g>
			<g>
				<path fill="#183356" d="M462.921,377.955c-0.142,0-0.291-0.035-0.424-0.108l-8.543-4.585c-0.442-0.236-0.607-0.784-0.37-1.224
					c0.235-0.438,0.785-0.603,1.223-0.372l8.544,4.589c0.44,0.235,0.605,0.781,0.368,1.222
					C463.559,377.784,463.247,377.955,462.921,377.955z"/>
			</g>
			<g>
				<path fill="#183356" d="M463.219,384.989c-0.212,0-0.421-0.07-0.595-0.22c-0.375-0.325-0.415-0.897-0.086-1.273l9.434-10.841
					c0.329-0.377,0.898-0.417,1.274-0.086c0.376,0.325,0.415,0.895,0.088,1.274l-9.434,10.84
					C463.719,384.886,463.47,384.989,463.219,384.989z"/>
			</g>
			<g>
				<path fill="#183356" d="M463.269,370.863c-0.211,0-0.421-0.074-0.594-0.222c-0.375-0.328-0.414-0.899-0.09-1.276l6.864-7.88
					c0.33-0.375,0.901-0.414,1.277-0.089c0.376,0.329,0.416,0.896,0.087,1.276l-6.862,7.883
					C463.772,370.758,463.521,370.863,463.269,370.863z"/>
			</g>
		</g>
		<g>
			<path fill="#183356" d="M748.933,403.005v-18.358h-2.34v-99.765c0,0-3.733,1.616-8.548,0.373v99.766h-2.608v18.161
				c0,0-0.551,7.553,6.959,7.553C749.572,410.735,748.933,403.005,748.933,403.005z"/>
		</g>
		<g>
			<path fill="#183356" d="M818.334,441.543V420.75h-2.649V307.759c0,0-4.23,1.83-9.683,0.425v112.991h-2.953v20.569
				c0,0-0.624,8.554,7.88,8.554C819.058,450.298,818.334,441.543,818.334,441.543z"/>
		</g>
		<g>
			<path fill="#183356" d="M891.935,402.81v-18.015h-2.296V286.89c0,0-3.664,1.585-8.387,0.367v97.904h-2.559v17.823
				c0,0-0.545,7.411,6.824,7.411C892.563,410.396,891.935,402.81,891.935,402.81z"/>
		</g>
		<g>
			<path fill="#AECD58" d="M948.949,466.766c0-3.922-1.811-7.408-4.633-9.694c0.996-1.786,1.561-3.84,1.561-6.035
				c0-4.918-2.854-9.159-6.994-11.187c0.304-1.078,0.479-2.212,0.479-3.385c0-6.886-5.586-12.463-12.47-12.463
				c-1.108,0-2.18,0.157-3.211,0.427c-1.279-5.516-6.224-9.642-12.133-9.642c-5.52,0-10.186,3.587-11.828,8.557
				c-0.52-0.068-1.057-0.113-1.595-0.113c-6.89,0-12.471,5.581-12.471,12.462c0,1.76,0.375,3.436,1.026,4.945
				c-6.003,0.899-10.612,6.069-10.612,12.319c0,2.055,0.509,4,1.391,5.71c-0.396,1.218-0.621,2.524-0.621,3.881
				c0,3.407,1.372,6.488,3.591,8.744c-1.059,1.828-1.677,3.946-1.677,6.211c0,5.91,4.122,10.848,9.645,12.135
				c0.513,6.412,5.866,11.454,12.417,11.454c3.249,0,6.2-1.252,8.421-3.285c2.255,2.272,5.38,3.675,8.833,3.675
				c5.639,0,10.39-3.739,11.941-8.869c6.504-0.415,11.651-5.806,11.651-12.418c0-0.694-0.07-1.359-0.178-2.019
				C945.875,476.254,948.949,471.87,948.949,466.766z"/>
			<g>
				<path fill="#183356" d="M898.283,511.867h25.462C923.745,511.867,913.11,500.044,898.283,511.867z"/>
			</g>
			<g>
				<path fill="#183356" d="M911.817,511.942c-0.592,0-1.071-0.477-1.071-1.074v-82.502c0-0.599,0.479-1.074,1.071-1.074
					c0.596,0,1.085,0.476,1.085,1.074v82.502C912.902,511.465,912.413,511.942,911.817,511.942z"/>
			</g>
			<g>
				<path fill="#183356" d="M911.669,492.42c-0.167,0-0.344-0.035-0.504-0.126l-16.183-8.676c-0.522-0.28-0.722-0.93-0.443-1.458
					c0.282-0.522,0.934-0.72,1.461-0.435l16.183,8.669c0.522,0.283,0.72,0.933,0.438,1.456
					C912.428,492.215,912.049,492.42,911.669,492.42z"/>
			</g>
			<g>
				<path fill="#183356" d="M912.144,481.638c-0.319,0-0.632-0.14-0.842-0.403c-0.372-0.469-0.296-1.152,0.172-1.52l19.014-15.073
					c0.466-0.368,1.147-0.294,1.513,0.173c0.366,0.467,0.29,1.148-0.174,1.514l-19.015,15.078
					C912.613,481.562,912.378,481.638,912.144,481.638z"/>
			</g>
			<g>
				<path fill="#183356" d="M911.78,468.677c-0.169,0-0.343-0.045-0.506-0.13l-15.108-8.106c-0.521-0.282-0.717-0.936-0.436-1.456
					c0.274-0.522,0.933-0.721,1.451-0.442l15.106,8.108c0.523,0.283,0.719,0.937,0.444,1.455
					C912.537,468.471,912.164,468.677,911.78,468.677z"/>
			</g>
			<g>
				<path fill="#183356" d="M911.737,449.938c-0.172,0-0.346-0.044-0.507-0.13l-10.183-5.462c-0.521-0.281-0.714-0.934-0.434-1.455
					c0.279-0.524,0.93-0.72,1.455-0.44l10.177,5.463c0.527,0.281,0.726,0.934,0.441,1.457
					C912.494,449.732,912.118,449.938,911.737,449.938z"/>
			</g>
			<g>
				<path fill="#183356" d="M912.363,458.316c-0.25,0-0.503-0.091-0.704-0.263c-0.452-0.39-0.501-1.069-0.111-1.522l11.24-12.91
					c0.39-0.452,1.072-0.492,1.519-0.104c0.452,0.39,0.496,1.066,0.106,1.518l-11.237,12.916
					C912.96,458.194,912.659,458.316,912.363,458.316z"/>
			</g>
			<g>
				<path fill="#183356" d="M912.144,441.487c-0.25,0-0.503-0.087-0.706-0.264c-0.446-0.389-0.501-1.069-0.109-1.515l8.179-9.397
					c0.39-0.449,1.062-0.493,1.516-0.104c0.446,0.39,0.494,1.071,0.104,1.52l-8.17,9.389
					C912.74,441.361,912.443,441.487,912.144,441.487z"/>
			</g>
		</g>
		<g>
			<path fill="#D6E6AC" d="M596.78,357.246c0,19.671-8.938,35.616-19.965,35.616c-11.024,0-19.961-15.946-19.961-35.616
				c0-19.667,8.937-35.615,19.961-35.615C587.841,321.631,596.78,337.579,596.78,357.246z"/>
			<path fill="#183356" d="M567.812,399.959h17.495C585.307,399.959,578.004,391.833,567.812,399.959z"/>
			<g>
				<path fill="#183356" d="M577.116,400.011c-0.409,0-0.74-0.331-0.74-0.739v-56.69c0-0.408,0.331-0.741,0.74-0.741
					c0.406,0,0.739,0.333,0.739,0.741v56.69C577.855,399.68,577.522,400.011,577.116,400.011z"/>
			</g>
			<g>
				<path fill="#183356" d="M577.011,386.598c-0.116,0-0.235-0.027-0.349-0.092l-11.12-5.956c-0.357-0.192-0.494-0.641-0.302-1.003
					c0.192-0.36,0.64-0.495,1.006-0.303l11.117,5.961c0.359,0.194,0.494,0.639,0.303,0.999
					C577.533,386.455,577.275,386.598,577.011,386.598z"/>
			</g>
			<g>
				<path fill="#183356" d="M577.581,379.187c-0.217,0-0.431-0.096-0.58-0.28c-0.255-0.315-0.2-0.785,0.118-1.041l13.07-10.359
					c0.318-0.25,0.786-0.197,1.038,0.121c0.252,0.321,0.201,0.785-0.121,1.038l-13.062,10.362
					C577.908,379.138,577.745,379.187,577.581,379.187z"/>
			</g>
			<g>
				<path fill="#183356" d="M577.086,370.279c-0.115,0-0.235-0.027-0.349-0.091l-10.377-5.566c-0.359-0.196-0.494-0.642-0.303-1.004
					c0.194-0.357,0.645-0.494,1.002-0.3l10.377,5.571c0.361,0.194,0.499,0.642,0.303,1
					C577.605,370.139,577.352,370.279,577.086,370.279z"/>
			</g>
			<g>
				<path fill="#183356" d="M577.062,357.405c-0.121,0-0.239-0.031-0.352-0.094l-6.994-3.75c-0.357-0.195-0.495-0.64-0.302-1
					c0.192-0.36,0.643-0.496,1-0.301l6.996,3.754c0.357,0.192,0.498,0.642,0.303,1.001
					C577.581,357.263,577.321,357.405,577.062,357.405z"/>
			</g>
			<g>
				<path fill="#183356" d="M577.41,363.165c-0.173,0-0.346-0.061-0.487-0.181c-0.31-0.272-0.342-0.737-0.071-1.045l7.718-8.874
					c0.272-0.308,0.736-0.342,1.047-0.069c0.307,0.265,0.341,0.733,0.072,1.038l-7.722,8.876
					C577.822,363.076,577.616,363.165,577.41,363.165z"/>
			</g>
			<g>
				<path fill="#183356" d="M577.429,351.598c-0.172,0-0.345-0.06-0.486-0.18c-0.308-0.269-0.34-0.738-0.07-1.044l5.616-6.453
					c0.27-0.31,0.736-0.34,1.042-0.075c0.307,0.273,0.342,0.736,0.072,1.045l-5.618,6.453
					C577.841,351.511,577.635,351.598,577.429,351.598z"/>
			</g>
		</g>
	</g>
	<rect x="18.813" y="89.182" fill="none" width="1277" height="150.496"/>
	<text transform="matrix(1 0 0 1 142.6675 117.894)"><tspan x="0" y="0" fill="#183356" font-family="'Ubuntu-Medium'" font-size="30">QUEL TYPE D’</tspan><tspan x="202.858" y="0" fill="#ED796B" font-family="'Ubuntu-Bold'" font-size="37">ÉNERGIE RENOUVELABLE</tspan><tspan x="683.038" y="0" fill="#183356" font-family="'Ubuntu-Medium'" font-size="30"> EST LE PLUS PRODUITS</tspan><tspan x="342.014" y="40" fill="#183356" font-family="'Ubuntu-Medium'" font-size="30"> EN PAYS DE LA LOIRE ?</tspan></text>
	<g>
		<g>
			<path fill="#7A1E72" d="M123.967,767.253h-0.506c-0.045,0-0.062-0.043-0.083-0.084l-0.597-1.109h-0.059
				c-0.107,0-0.273-0.012-0.369-0.016v1.125c0,0.047-0.031,0.084-0.078,0.084h-0.416c-0.045,0-0.082-0.037-0.082-0.084v-2.853
				c0-0.084,0.049-0.112,0.133-0.124c0.215-0.034,0.51-0.056,0.812-0.056c0.64,0,1.194,0.229,1.194,0.938v0.038
				c0,0.438-0.221,0.713-0.56,0.846l0.65,1.211c0.01,0.013,0.01,0.024,0.01,0.033C124.018,767.23,123.998,767.253,123.967,767.253
				 M123.346,765.074c0-0.312-0.21-0.443-0.623-0.443c-0.087,0-0.293,0.009-0.369,0.016v0.934c0.066,0.006,0.299,0.013,0.369,0.013
				c0.427,0,0.623-0.117,0.623-0.48V765.074z"/>
			<path fill="#7A1E72" d="M126.264,766.274h-1.354v0.012c0,0.24,0.102,0.526,0.497,0.526c0.304,0,0.589-0.024,0.765-0.041
				c0.004,0,0.007,0,0.012,0c0.042,0,0.076,0.02,0.076,0.061v0.274c0,0.065-0.014,0.096-0.088,0.109
				c-0.27,0.049-0.43,0.069-0.805,0.069c-0.416,0-1.002-0.223-1.002-1.04v-0.308c0-0.647,0.359-1.054,0.992-1.054
				c0.639,0,0.988,0.435,0.988,1.054v0.231C126.346,766.235,126.32,766.274,126.264,766.274 M125.795,765.866
				c0-0.323-0.18-0.51-0.438-0.51c-0.255,0-0.443,0.184-0.443,0.51v0.018h0.881V765.866z M126.039,764.084l-0.49,0.514
				c-0.033,0.038-0.049,0.055-0.098,0.055h-0.357c-0.025,0-0.037-0.013-0.037-0.03c0-0.012,0.003-0.027,0.017-0.04l0.394-0.498
				c0.037-0.046,0.054-0.063,0.108-0.063h0.435c0.029,0,0.047,0.014,0.047,0.029C126.057,764.058,126.05,764.071,126.039,764.084z"
				/>
			<path fill="#7A1E72" d="M128.867,765.29l-0.136,0.054c0.064,0.097,0.103,0.188,0.103,0.332v0.029
				c0,0.519-0.357,0.755-0.982,0.755c-0.221,0-0.371-0.038-0.45-0.07c-0.052,0.032-0.071,0.07-0.071,0.108
				c0,0.081,0.044,0.114,0.139,0.135l0.49,0.118c0.563,0.133,0.93,0.22,0.93,0.662v0.029c0,0.424-0.312,0.65-1.018,0.65
				c-0.67,0-1.028-0.254-1.028-0.688v-0.037c0-0.17,0.081-0.334,0.212-0.455c-0.115-0.087-0.187-0.233-0.187-0.382v-0.004
				c0-0.128,0.056-0.258,0.166-0.337c-0.124-0.13-0.171-0.278-0.171-0.484v-0.029c0-0.416,0.271-0.763,0.988-0.763h0.971
				c0.062,0,0.111,0.049,0.111,0.111v0.175C128.934,765.26,128.918,765.27,128.867,765.29 M128.34,767.413
				c0-0.092-0.053-0.146-0.488-0.249l-0.371-0.087c-0.061,0.087-0.101,0.143-0.101,0.29v0.037c0,0.171,0.101,0.274,0.491,0.274
				c0.398,0,0.469-0.087,0.469-0.236V767.413z M128.295,765.684c0-0.198-0.086-0.353-0.443-0.353c-0.352,0-0.447,0.158-0.447,0.353
				v0.034c0,0.153,0.062,0.326,0.447,0.326c0.345,0,0.443-0.119,0.443-0.326V765.684z"/>
			<path fill="#7A1E72" d="M129.891,764.603h-0.4c-0.047,0-0.089-0.039-0.089-0.085v-0.364c0-0.045,0.042-0.082,0.089-0.082h0.4
				c0.049,0,0.084,0.037,0.084,0.082v0.364C129.975,764.563,129.939,764.603,129.891,764.603 M129.879,767.253h-0.381
				c-0.045,0-0.084-0.043-0.084-0.089v-2.169c0-0.046,0.039-0.082,0.084-0.082h0.381c0.045,0,0.084,0.036,0.084,0.082v2.169
				C129.963,767.21,129.924,767.253,129.879,767.253z"/>
			<path fill="#7A1E72" d="M131.518,767.285c-0.651,0-0.992-0.44-0.992-1.032v-0.338c0-0.59,0.341-1.031,0.992-1.031
				c0.65,0,0.99,0.441,0.99,1.031v0.338C132.508,766.845,132.168,767.285,131.518,767.285 M131.959,765.915
				c0-0.34-0.152-0.559-0.441-0.559s-0.443,0.219-0.443,0.559v0.338c0,0.339,0.154,0.56,0.443,0.56s0.441-0.221,0.441-0.56V765.915z
				"/>
			<path fill="#7A1E72" d="M134.895,767.253h-0.383c-0.046,0-0.084-0.043-0.084-0.089v-1.353c0-0.358-0.033-0.463-0.353-0.463
				c-0.142,0-0.294,0.056-0.467,0.149v1.666c0,0.046-0.04,0.089-0.084,0.089h-0.383c-0.046,0-0.081-0.043-0.081-0.089v-2.169
				c0-0.046,0.035-0.082,0.081-0.082h0.362c0.045,0,0.082,0.036,0.082,0.082v0.087c0.242-0.152,0.398-0.198,0.674-0.198
				c0.595,0,0.717,0.403,0.717,0.928v1.353C134.977,767.21,134.938,767.253,134.895,767.253"/>
			<path fill="#005CA5" d="M137.354,770.189c0.01-0.027,0.02-0.046,0.02-0.072c0-0.077-0.066-0.142-0.162-0.142h-1.035
				c-0.083,0-0.15,0.073-0.178,0.15l-1.13,2.804c-0.065,0.159-0.122,0.188-0.169,0.188c-0.037,0-0.094-0.029-0.159-0.188
				l-1.131-2.804c-0.027-0.077-0.093-0.15-0.179-0.15h-1.043c-0.096,0-0.152,0.064-0.152,0.142c0,0.017,0.01,0.045,0.02,0.072
				l0.958,2.202c0.001,0.001,0.002,0.002,0.002,0.004l1.036,2.381v2.002c0,0.104,0.074,0.187,0.179,0.187h0.939
				c0.104,0,0.179-0.083,0.179-0.187v-2.002l0.607-1.393L137.354,770.189"/>
			<path fill="#005CA5" d="M123.924,774.36c-0.244,0-0.622-0.03-0.838-0.039v2.457c0,0.104-0.078,0.187-0.18,0.187h-0.941
				c-0.104,0-0.188-0.083-0.188-0.187v-6.475c0-0.187,0.111-0.255,0.301-0.283c0.49-0.074,1.158-0.122,1.846-0.122
				c1.449,0,2.711,0.511,2.711,2.175v0.084C126.635,773.825,125.373,774.36,123.924,774.36 M125.336,772.073
				c0-0.792-0.471-1.092-1.412-1.092c-0.198,0-0.668,0.019-0.838,0.037v2.239c0.15,0.011,0.677,0.028,0.838,0.028
				c1.016,0,1.412-0.374,1.412-1.129V772.073z"/>
			<path fill="#005CA5" d="M132.176,776.965h-0.997c-0.083,0-0.159-0.072-0.179-0.157l-0.432-1.789h-2.166l-0.434,1.789
				c-0.018,0.085-0.094,0.157-0.18,0.157h-0.996c-0.095,0-0.172-0.063-0.172-0.157c0-0.01,0.01-0.029,0.01-0.047l1.545-5.902
				c0.227-0.874,0.904-0.96,1.31-0.96c0.403,0,1.083,0.086,1.31,0.96l1.543,5.902c0,0.018,0.01,0.037,0.01,0.047
				C132.348,776.901,132.27,776.965,132.176,776.965 M129.635,771.149c-0.027-0.111-0.056-0.149-0.149-0.149
				c-0.096,0-0.124,0.038-0.151,0.149l-0.678,2.797h1.656L129.635,771.149z"/>
			<path fill="#005CA5" d="M139.945,777.042c-0.703,0-1.211-0.066-1.662-0.168c-0.096-0.02-0.181-0.086-0.181-0.188v-0.679
				c0-0.104,0.085-0.18,0.181-0.18c0.009,0,0.009,0,0.018,0c0.377,0.049,1.318,0.096,1.668,0.096c0.836,0,1.09-0.302,1.09-0.846
				c0-0.37-0.178-0.557-0.799-0.923l-1.244-0.745c-0.875-0.517-1.11-1.064-1.11-1.724c0-1.033,0.603-1.787,2.354-1.787
				c0.621,0,1.486,0.096,1.806,0.17c0.095,0.018,0.171,0.084,0.171,0.18v0.696c0,0.094-0.068,0.169-0.16,0.169
				c-0.011,0-0.011,0-0.02,0c-0.621-0.058-1.243-0.095-1.854-0.095c-0.696,0-0.987,0.244-0.987,0.667
				c0,0.311,0.158,0.501,0.771,0.839l1.132,0.631c1.034,0.574,1.307,1.175,1.307,1.922
				C142.424,776.027,141.83,777.042,139.945,777.042"/>
			<path fill="#005CA5" d="M148.006,777.042c-0.67,0-1.572-0.066-1.855-0.112c-0.159-0.028-0.243-0.103-0.243-0.292v-6.334
				c0-0.187,0.084-0.264,0.243-0.291c0.283-0.048,1.186-0.114,1.855-0.114c1.881,0,2.956,1.017,2.956,2.878v1.387
				C150.962,776.027,149.887,777.042,148.006,777.042 M149.661,772.776c0-1.409-0.714-1.776-1.655-1.776
				c-0.348,0-0.594,0.019-0.79,0.026v4.887c0.196,0.01,0.442,0.028,0.79,0.028c0.941,0,1.655-0.366,1.655-1.778V772.776z"/>
			<path fill="#005CA5" d="M155.996,776.911c-0.301,0.047-0.668,0.131-1.787,0.131c-1.226,0-2.176-0.327-2.176-1.927v-3.289
				c0-1.599,0.95-1.928,2.176-1.928c1.119,0,1.486,0.086,1.787,0.131c0.143,0.02,0.189,0.067,0.189,0.198v0.602
				c0,0.106-0.085,0.189-0.189,0.189h-1.922c-0.544,0-0.742,0.188-0.742,0.808v1.019h2.551c0.104,0,0.189,0.084,0.189,0.189v0.677
				c0,0.105-0.085,0.188-0.189,0.188h-2.551v1.217c0,0.62,0.198,0.808,0.742,0.808h1.922c0.104,0,0.189,0.084,0.189,0.188v0.604
				C156.186,776.845,156.139,776.893,155.996,776.911"/>
			<path fill="#005CA5" d="M163.582,776.911c-0.283,0.064-1.1,0.131-1.598,0.131c-1.229,0-2.176-0.327-2.176-1.927v-4.953
				c0-0.103,0.084-0.187,0.188-0.187h0.933c0.103,0,0.188,0.084,0.188,0.187v4.953c0,0.62,0.188,0.808,0.734,0.808h1.73
				c0.104,0,0.189,0.084,0.189,0.188v0.604C163.771,776.845,163.723,776.882,163.582,776.911"/>
			<path fill="#005CA5" d="M169.693,776.965h-0.998c-0.087,0-0.16-0.072-0.182-0.157l-0.43-1.789h-2.166l-0.435,1.789
				c-0.019,0.085-0.095,0.157-0.178,0.157h-0.997c-0.096,0-0.169-0.063-0.169-0.157c0-0.01,0.009-0.029,0.009-0.047l1.543-5.902
				c0.227-0.874,0.902-0.96,1.309-0.96c0.404,0,1.084,0.086,1.309,0.96l1.543,5.902c0,0.018,0.01,0.037,0.01,0.047
				C169.861,776.901,169.786,776.965,169.693,776.965 M167.15,771.149c-0.029-0.111-0.057-0.149-0.15-0.149
				c-0.095,0-0.122,0.038-0.149,0.149l-0.68,2.797h1.657L167.15,771.149z"/>
			<path fill="#005CA5" d="M176.875,776.911c-0.283,0.064-1.102,0.131-1.6,0.131c-1.226,0-2.176-0.327-2.176-1.927v-4.953
				c0-0.103,0.084-0.187,0.188-0.187h0.931c0.105,0,0.188,0.084,0.188,0.187v4.953c0,0.62,0.19,0.808,0.737,0.808h1.731
				c0.104,0,0.187,0.084,0.187,0.188v0.604C177.062,776.845,177.015,776.882,176.875,776.911"/>
			<path fill="#005CA5" d="M180.12,777.042c-1.555,0-2.685-0.865-2.685-2.937v-1.271c0-2.07,1.13-2.937,2.685-2.937
				c1.554,0,2.683,0.866,2.683,2.937v1.271C182.803,776.177,181.674,777.042,180.12,777.042 M181.485,772.835
				c0-1.242-0.443-1.797-1.365-1.797c-0.923,0-1.364,0.555-1.364,1.797v1.271c0,1.244,0.441,1.798,1.364,1.798
				c0.922,0,1.365-0.554,1.365-1.798V772.835z"/>
			<path fill="#005CA5" d="M185.146,776.965h-0.932c-0.105,0-0.189-0.083-0.189-0.187v-6.626c0-0.104,0.084-0.177,0.189-0.177h0.932
				c0.103,0,0.188,0.073,0.188,0.177v6.626C185.334,776.882,185.249,776.965,185.146,776.965"/>
			<path fill="#005CA5" d="M191.715,776.965h-1.149c-0.101,0-0.14-0.091-0.186-0.187l-1.355-2.511h-0.132
				c-0.247,0-0.621-0.03-0.84-0.04v2.551c0,0.104-0.074,0.187-0.178,0.187h-0.939c-0.104,0-0.189-0.083-0.189-0.187v-6.475
				c0-0.187,0.113-0.255,0.301-0.283c0.49-0.074,1.156-0.122,1.846-0.122c1.45,0,2.711,0.52,2.711,2.127v0.085
				c0,0.998-0.5,1.619-1.271,1.92l1.479,2.748c0.018,0.029,0.018,0.059,0.018,0.076C191.828,776.919,191.79,776.965,191.715,776.965
				 M190.305,772.025c0-0.707-0.471-1.007-1.412-1.007c-0.197,0-0.67,0.02-0.84,0.037v2.119c0.15,0.01,0.68,0.028,0.84,0.028
				c0.969,0,1.412-0.265,1.412-1.093V772.025z"/>
			<path fill="#005CA5" d="M196.619,776.911c-0.303,0.047-0.668,0.131-1.789,0.131c-1.225,0-2.176-0.327-2.176-1.927v-3.289
				c0-1.599,0.951-1.928,2.176-1.928c1.121,0,1.486,0.086,1.789,0.131c0.142,0.02,0.188,0.067,0.188,0.198v0.602
				c0,0.106-0.084,0.189-0.188,0.189h-1.922c-0.545,0-0.744,0.188-0.744,0.808v1.019h2.551c0.105,0,0.189,0.084,0.189,0.189v0.677
				c0,0.105-0.084,0.188-0.189,0.188h-2.551v1.217c0,0.62,0.199,0.808,0.744,0.808h1.922c0.104,0,0.188,0.084,0.188,0.188v0.604
				C196.807,776.845,196.761,776.893,196.619,776.911"/>
			<path fill="#009CB9" d="M110.92,773.468c0-5.243-2.033-10.006-5.356-13.582h-4.521c4.075,3.14,6.702,8.053,6.702,13.582
				c0,5.539-2.627,10.45-6.706,13.586h4.524C108.887,783.482,110.92,778.713,110.92,773.468"/>
			<path fill="#BDD143" d="M113.211,773.536c0-5.076-1.613-9.786-4.36-13.65h6.249c2.292,4.037,3.601,8.694,3.601,13.65
				c0,4.906-1.281,9.518-3.521,13.518h-6.244C111.633,783.22,113.211,778.564,113.211,773.536"/>
			<path fill="#009CB9" d="M37.627,775.476h-0.318c-0.061,0-0.109-0.057-0.109-0.124v-4.341c0-0.06,0.043-0.115,0.109-0.115h0.318
				c0.061,0,0.109,0.049,0.109,0.115v4.341C37.736,775.413,37.693,775.476,37.627,775.476"/>
			<path fill="#009CB9" d="M39.501,771.011l-0.353,1.15c-0.025,0.087-0.056,0.115-0.117,0.115h-0.285
				c-0.042,0-0.055-0.023-0.055-0.061c0-0.017,0-0.036,0.006-0.055l0.279-1.15c0.019-0.084,0.062-0.115,0.123-0.115h0.341
				c0.042,0,0.066,0.025,0.066,0.066C39.507,770.976,39.507,770.993,39.501,771.011"/>
			<path fill="#009CB9" d="M42.868,773.972h-2.04v0.084c0,0.725,0.287,0.992,0.847,0.992c0.353,0,0.803-0.025,1.083-0.066
				c0.013,0,0.018,0,0.031,0c0.049,0,0.098,0.023,0.098,0.087v0.204c0,0.079-0.025,0.123-0.123,0.141
				c-0.347,0.066-0.682,0.104-1.089,0.104c-0.7,0-1.382-0.33-1.382-1.461v-0.549c0-0.87,0.48-1.424,1.351-1.424
				c0.89,0,1.339,0.559,1.339,1.424v0.33C42.982,773.915,42.94,773.972,42.868,773.972 M42.441,773.507
				c0-0.689-0.262-0.955-0.798-0.955c-0.522,0-0.815,0.3-0.815,0.955v0.056h1.613V773.507z"/>
			<path fill="#009CB9" d="M44.998,775.517c-0.225,0-0.663-0.019-0.961-0.09c-0.08-0.02-0.129-0.057-0.129-0.125v-0.211
				c0-0.057,0.049-0.093,0.109-0.093c0.013,0,0.02,0,0.025,0c0.292,0.036,0.736,0.07,0.955,0.07c0.396,0,0.604-0.105,0.604-0.435
				c0-0.183-0.11-0.298-0.457-0.506l-0.615-0.367c-0.371-0.223-0.621-0.486-0.621-0.867c0-0.634,0.476-0.811,1.102-0.811
				c0.342,0,0.664,0.029,0.951,0.078c0.078,0.014,0.115,0.055,0.115,0.122v0.201c0,0.073-0.043,0.104-0.104,0.104
				c-0.006,0-0.012,0-0.018,0c-0.213-0.019-0.604-0.048-0.945-0.048c-0.34,0-0.564,0.042-0.564,0.354
				c0,0.181,0.139,0.297,0.419,0.461l0.603,0.36c0.506,0.298,0.67,0.559,0.67,0.919C46.137,775.255,45.68,775.517,44.998,775.517"/>
			<path fill="#009CB9" d="M48.408,775.517c-0.189,0-0.475-0.023-0.713-0.066v1.102c0,0.061-0.049,0.114-0.115,0.114H47.27
				c-0.061,0-0.109-0.048-0.109-0.114v-4.189c0-0.079,0.018-0.114,0.127-0.139c0.323-0.08,0.75-0.141,1.121-0.141
				c0.907,0,1.327,0.59,1.327,1.504v0.438C49.735,774.981,49.297,775.517,48.408,775.517 M49.199,773.587
				c0-0.64-0.188-1.053-0.791-1.053c-0.256,0-0.542,0.029-0.713,0.06v2.411c0.2,0.037,0.518,0.063,0.713,0.063
				c0.596,0,0.791-0.393,0.791-1.044V773.587z"/>
			<path fill="#009CB9" d="M52.134,772.546c-0.28,0-0.536,0.073-0.841,0.255v2.551c0,0.062-0.055,0.124-0.121,0.124h-0.299
				c-0.061,0-0.115-0.057-0.115-0.124v-3.104c0-0.068,0.048-0.122,0.115-0.122h0.287c0.066,0,0.115,0.054,0.115,0.122v0.126
				c0.305-0.213,0.584-0.291,0.858-0.291c0.085,0,0.128,0.035,0.128,0.109v0.248C52.262,772.508,52.219,772.546,52.134,772.546"/>
			<path fill="#009CB9" d="M53.638,771.59h-0.312c-0.066,0-0.121-0.055-0.121-0.123v-0.485c0-0.068,0.055-0.123,0.121-0.123h0.312
				c0.067,0,0.122,0.055,0.122,0.123v0.485C53.76,771.535,53.705,771.59,53.638,771.59 M53.625,775.476h-0.291
				c-0.067,0-0.123-0.057-0.123-0.124v-3.104c0-0.068,0.056-0.122,0.123-0.122h0.291c0.067,0,0.123,0.054,0.123,0.122v3.104
				C53.748,775.419,53.692,775.476,53.625,775.476z"/>
			<path fill="#009CB9" d="M56.621,775.485c-0.121,0.02-0.281,0.031-0.396,0.031c-0.56,0-0.826-0.146-0.826-0.815v-2.124
				l-0.592-0.069c-0.067-0.005-0.115-0.042-0.115-0.107v-0.165c0-0.068,0.048-0.109,0.115-0.109h0.592v-0.598
				c0-0.062,0.041-0.109,0.107-0.122l0.317-0.048c0.006,0,0.012,0,0.019,0c0.049,0,0.091,0.043,0.091,0.103v0.665h0.657
				c0.068,0,0.121,0.054,0.121,0.122v0.207c0,0.067-0.053,0.122-0.121,0.122h-0.657v2.124c0,0.333,0.085,0.383,0.329,0.383h0.342
				c0.084,0,0.126,0.025,0.126,0.085v0.214C56.729,775.438,56.701,775.476,56.621,775.485"/>
			<path fill="#009CB9" d="M62.07,772.534l-0.22,0.043c0.109,0.113,0.206,0.297,0.206,0.626v0.049c0,0.669-0.414,1.04-1.35,1.04
				c-0.324,0-0.531-0.047-0.708-0.122c-0.104,0.05-0.151,0.117-0.151,0.208c0,0.104,0.048,0.159,0.188,0.195l0.907,0.232
				c0.596,0.152,1.169,0.32,1.169,0.896v0.047c0,0.586-0.39,0.944-1.388,0.944c-0.963,0-1.4-0.373-1.4-0.969v-0.055
				c0-0.342,0.182-0.622,0.383-0.774l-0.041-0.017c-0.196-0.084-0.281-0.286-0.281-0.476v-0.007c0-0.163,0.079-0.34,0.25-0.438
				c-0.189-0.177-0.281-0.396-0.281-0.706v-0.049c0-0.542,0.305-1.077,1.354-1.077h1.332c0.073,0,0.141,0.061,0.141,0.134v0.158
				C62.18,772.498,62.137,772.522,62.07,772.534 M61.576,775.701c0-0.24-0.193-0.338-0.742-0.477l-0.689-0.177
				c-0.176,0.154-0.297,0.304-0.297,0.622v0.055c0,0.342,0.201,0.555,0.877,0.555c0.694,0,0.852-0.194,0.852-0.53V775.701z
				 M61.527,773.203c0-0.364-0.164-0.651-0.82-0.651c-0.684,0-0.822,0.311-0.822,0.651v0.049c0,0.267,0.121,0.622,0.822,0.622
				c0.656,0,0.82-0.256,0.82-0.622V773.203z"/>
			<path fill="#009CB9" d="M64.492,772.546c-0.279,0-0.535,0.073-0.84,0.255v2.551c0,0.062-0.055,0.124-0.121,0.124h-0.299
				c-0.061,0-0.115-0.057-0.115-0.124v-3.104c0-0.068,0.049-0.122,0.115-0.122h0.286c0.067,0,0.115,0.054,0.115,0.122v0.126
				c0.306-0.213,0.585-0.291,0.858-0.291c0.086,0,0.129,0.035,0.129,0.109v0.248C64.621,772.508,64.578,772.546,64.492,772.546"/>
			<path fill="#009CB9" d="M67.55,775.476h-0.281c-0.066,0-0.122-0.057-0.122-0.124v-0.134c-0.291,0.17-0.596,0.299-0.938,0.299
				c-0.518,0-0.992-0.225-0.992-0.985v-0.075c0-0.656,0.384-0.985,1.467-0.985h0.452v-0.243c0-0.511-0.179-0.688-0.653-0.688
				c-0.395,0-0.688,0.023-0.93,0.048c-0.014,0-0.02,0-0.032,0c-0.055,0-0.108-0.019-0.108-0.098v-0.214
				c0-0.064,0.043-0.102,0.127-0.115c0.25-0.043,0.53-0.078,0.943-0.078c0.848,0,1.188,0.425,1.188,1.145v2.124
				C67.67,775.419,67.615,775.476,67.55,775.476 M67.136,773.854h-0.452c-0.736,0-0.932,0.164-0.932,0.597v0.073
				c0,0.438,0.207,0.555,0.56,0.555c0.28,0,0.53-0.086,0.824-0.245V773.854z"/>
			<path fill="#009CB9" d="M71.244,775.476h-0.293c-0.065,0-0.121-0.057-0.121-0.124v-2.003c0-0.614-0.207-0.803-0.67-0.803
				c-0.256,0-0.541,0.096-0.82,0.236v2.569c0,0.062-0.057,0.124-0.123,0.124h-0.298c-0.062,0-0.117-0.057-0.117-0.124v-3.104
				c0-0.068,0.05-0.122,0.117-0.122h0.304c0.066,0,0.117,0.054,0.117,0.122v0.114c0.334-0.188,0.607-0.279,0.967-0.279
				c0.73,0,1.06,0.457,1.06,1.266v2.003C71.366,775.419,71.312,775.476,71.244,775.476"/>
			<path fill="#009CB9" d="M74.836,775.413c-0.377,0.072-0.748,0.104-1.119,0.104c-0.908,0-1.328-0.591-1.328-1.504v-0.438
				c0-0.956,0.439-1.492,1.328-1.492c0.188,0,0.474,0.017,0.711,0.061v-1.133c0-0.06,0.049-0.115,0.115-0.115h0.312
				c0.061,0,0.109,0.049,0.109,0.115v4.262C74.965,775.352,74.945,775.396,74.836,775.413 M74.428,772.594
				c-0.201-0.036-0.518-0.042-0.711-0.042c-0.598,0-0.792,0.371-0.792,1.023v0.438c0,0.663,0.188,1.035,0.792,1.035
				c0.205,0,0.504-0.02,0.711-0.037V772.594z"/>
			<path fill="#009CB9" d="M79.146,775.517c-0.896,0-1.352-0.591-1.352-1.486v-0.462c0-0.896,0.456-1.485,1.352-1.485
				c0.895,0,1.357,0.59,1.357,1.485v0.462C80.504,774.926,80.041,775.517,79.146,775.517 M79.969,773.568
				c0-0.621-0.25-1.017-0.822-1.017c-0.566,0-0.816,0.39-0.816,1.017v0.462c0,0.622,0.245,1.017,0.816,1.017
				c0.566,0,0.822-0.389,0.822-1.017V773.568z"/>
			<path fill="#009CB9" d="M83.975,775.476H83.67c-0.066,0-0.117-0.057-0.117-0.124v-0.115c-0.334,0.19-0.607,0.28-0.967,0.28
				c-0.73,0-1.059-0.456-1.059-1.266v-2.003c0-0.068,0.055-0.122,0.122-0.122h0.292c0.066,0,0.121,0.054,0.121,0.122v2.003
				c0,0.614,0.207,0.803,0.669,0.803c0.257,0,0.543-0.096,0.821-0.237v-2.568c0-0.062,0.057-0.122,0.124-0.122h0.298
				c0.06,0,0.116,0.054,0.116,0.122v3.104C84.091,775.419,84.041,775.476,83.975,775.476"/>
			<path fill="#009CB9" d="M87.791,772.271l-0.822,2.897c-0.078,0.275-0.285,0.348-0.547,0.348s-0.469-0.072-0.547-0.348
				l-0.824-2.897c-0.004-0.019-0.004-0.03-0.004-0.042c0-0.062,0.035-0.104,0.096-0.104h0.336c0.049,0,0.09,0.035,0.115,0.115
				l0.7,2.653c0.036,0.147,0.067,0.179,0.128,0.179c0.055,0,0.091-0.031,0.129-0.179l0.698-2.653
				c0.025-0.08,0.067-0.115,0.116-0.115H87.7c0.061,0,0.098,0.041,0.098,0.104C87.798,772.241,87.798,772.253,87.791,772.271"/>
			<path fill="#009CB9" d="M91.097,773.972h-2.039v0.084c0,0.725,0.286,0.992,0.845,0.992c0.355,0,0.805-0.025,1.085-0.066
				c0.013,0,0.019,0,0.03,0c0.049,0,0.098,0.023,0.098,0.087v0.204c0,0.079-0.023,0.123-0.121,0.141
				c-0.346,0.066-0.682,0.104-1.092,0.104c-0.697,0-1.381-0.33-1.381-1.461v-0.549c0-0.87,0.48-1.424,1.352-1.424
				c0.889,0,1.34,0.559,1.34,1.424v0.33C91.213,773.915,91.17,773.972,91.097,773.972 M90.671,773.507
				c0-0.689-0.263-0.955-0.798-0.955c-0.523,0-0.815,0.3-0.815,0.955v0.056h1.613V773.507z"/>
			<path fill="#009CB9" d="M93.623,772.546c-0.279,0-0.534,0.073-0.84,0.255v2.551c0,0.062-0.054,0.124-0.123,0.124h-0.297
				c-0.061,0-0.115-0.057-0.115-0.124v-3.104c0-0.068,0.05-0.122,0.115-0.122h0.288c0.066,0,0.114,0.054,0.114,0.122v0.126
				c0.305-0.213,0.584-0.291,0.857-0.291c0.086,0,0.129,0.035,0.129,0.109v0.248C93.752,772.508,93.709,772.546,93.623,772.546"/>
			<path fill="#009CB9" d="M96.303,775.485c-0.121,0.02-0.279,0.031-0.395,0.031c-0.561,0-0.829-0.146-0.829-0.815v-2.124
				l-0.591-0.069c-0.067-0.005-0.114-0.042-0.114-0.107v-0.165c0-0.068,0.047-0.109,0.114-0.109h0.591v-0.598
				c0-0.062,0.042-0.109,0.109-0.122l0.316-0.048c0.007,0,0.013,0,0.019,0c0.049,0,0.092,0.043,0.092,0.103v0.665h0.658
				c0.066,0,0.121,0.054,0.121,0.122v0.207c0,0.067-0.055,0.122-0.121,0.122h-0.658v2.124c0,0.333,0.085,0.383,0.328,0.383h0.342
				c0.086,0,0.127,0.025,0.127,0.085v0.214C96.412,775.438,96.381,775.476,96.303,775.485"/>
		</g>
	</g>
</g>
<g id="Calque_3">
</g>
</svg>
