<?xml version="1.0" encoding="utf-8"?>
<!-- Generator: Adobe Illustrator 16.0.0, SVG Export Plug-In . SVG Version: 6.00 Build 0)  -->
<!DOCTYPE svg PUBLIC "-//W3C//DTD SVG 1.1//EN" "http://www.w3.org/Graphics/SVG/1.1/DTD/svg11.dtd">
<svg version="1.1" xmlns="http://www.w3.org/2000/svg" xmlns:xlink="http://www.w3.org/1999/xlink" x="0px" y="0px" width="1280px"
	 height="800px" viewBox="0 0 1280 800" enable-background="new 0 0 1280 800" xml:space="preserve">
<g id="Calque_2">
	<rect y="-1" fill="#F7FBFC" width="1280" height="798"/>
</g>
<g id="Calque_1">
	<path fill="#BFE3E5" d="M1164.964,606H805.917c0,0,51.2-96.925,166.247-39.611C972.164,566.389,1098.8,547,1164.964,606z"/>
	<g>
		<path fill="#183356" d="M801.039,604.69v-15.746h-2.006v-85.562c0,0-3.203,1.386-7.332,0.322v85.562h-2.236v15.575
			c0,0-0.473,6.478,5.967,6.478C801.587,611.319,801.039,604.69,801.039,604.69z"/>
	</g>
	<g>
		<path fill="#183356" d="M898.884,604.69v-15.746h-2.007v-85.562c0,0-3.202,1.386-7.331,0.322v85.562h-2.236v15.575
			c0,0-0.474,6.478,5.968,6.478C899.433,611.319,898.884,604.69,898.884,604.69z"/>
	</g>
	<g>
		<path fill="#183356" d="M998.067,604.69v-15.746h-2.007v-85.562c0,0-3.202,1.386-7.33,0.322v85.562h-2.236v15.575
			c0,0-0.475,6.478,5.966,6.478C998.616,611.319,998.067,604.69,998.067,604.69z"/>
	</g>
	<rect x="-2" y="604" fill="#F9F6F5" width="1283" height="224"/>
	<path fill="#CFEAEC" d="M853.96,605.132c0,0,14.327-30.342,80.066-16.012c0,0,35.083-46.985,116.838,15.38L853.96,605.132z"/>
	<path fill="#BFE3E5" d="M571.957,655H736c0,0-38.671-39.341-96.021-13.335C639.979,641.665,593.959,634,571.957,655z"/>
	<path fill="#CFEAEC" d="M523.944,664h164.043c0,0-38.67-39.344-96.021-13.336C591.966,650.664,545.945,642,523.944,664z"/>
	<path fill="#D6E6AC" d="M179,604h347.597C526.597,604,350.823,394.652,179,604z"/>
	<g>
		<polygon fill="#183356" points="61.904,457.946 61.904,604.238 130.794,604.238 130.794,457.946 96.348,423.418 		"/>
		<rect x="72.342" y="471.974" fill="#F2EDEC" width="9.012" height="19.227"/>
		<rect x="91.566" y="471.974" fill="#F2EDEC" width="9.012" height="19.227"/>
		<rect x="110.79" y="471.974" fill="#F2EDEC" width="9.015" height="19.227"/>
		<rect x="72.342" y="504.817" fill="#F2EDEC" width="9.012" height="19.224"/>
		<rect x="91.566" y="504.817" fill="#F2EDEC" width="9.012" height="19.224"/>
		<rect x="110.79" y="504.817" fill="#F2EDEC" width="9.015" height="19.224"/>
		<rect x="72.342" y="537.658" fill="#F2EDEC" width="9.012" height="19.223"/>
		<rect x="91.566" y="537.658" fill="#F2EDEC" width="9.012" height="19.223"/>
		<rect x="110.79" y="537.658" fill="#F2EDEC" width="9.015" height="19.223"/>
		<rect x="72.342" y="570.501" fill="#F2EDEC" width="9.012" height="19.221"/>
		<rect x="91.566" y="570.501" fill="#F2EDEC" width="9.012" height="19.221"/>
		<rect x="110.79" y="570.501" fill="#F2EDEC" width="9.015" height="19.221"/>
	</g>
	<g>
		<polygon fill="#183356" points="145.391,406.123 145.391,604.238 200.668,604.238 200.668,377.003 		"/>
		<rect x="151.977" y="418.997" fill="#F2EDEC" width="5.406" height="15.419"/>
		<rect x="163.99" y="418.997" fill="#F2EDEC" width="5.408" height="15.419"/>
		<rect x="176.007" y="418.997" fill="#F2EDEC" width="5.407" height="15.419"/>
		<rect x="188.021" y="418.997" fill="#F2EDEC" width="5.407" height="15.419"/>
		<rect x="151.977" y="441.026" fill="#F2EDEC" width="5.406" height="15.421"/>
		<rect x="163.99" y="441.026" fill="#F2EDEC" width="5.408" height="15.421"/>
		<rect x="176.007" y="441.026" fill="#F2EDEC" width="5.407" height="15.421"/>
		<rect x="188.021" y="441.026" fill="#F2EDEC" width="5.407" height="15.421"/>
		<rect x="151.977" y="463.054" fill="#F2EDEC" width="5.406" height="15.422"/>
		<rect x="163.99" y="463.054" fill="#F2EDEC" width="5.408" height="15.422"/>
		<rect x="176.007" y="463.054" fill="#F2EDEC" width="5.407" height="15.422"/>
		<rect x="188.021" y="463.054" fill="#F2EDEC" width="5.407" height="15.422"/>
		<rect x="151.977" y="485.083" fill="#F2EDEC" width="5.406" height="15.421"/>
		<rect x="163.99" y="485.083" fill="#F2EDEC" width="5.408" height="15.421"/>
		<rect x="176.007" y="485.083" fill="#F2EDEC" width="5.407" height="15.421"/>
		<rect x="188.021" y="485.083" fill="#F2EDEC" width="5.407" height="15.421"/>
		<rect x="151.977" y="507.114" fill="#F2EDEC" width="5.406" height="15.421"/>
		<rect x="163.99" y="507.114" fill="#F2EDEC" width="5.408" height="15.421"/>
		<rect x="176.007" y="507.114" fill="#F2EDEC" width="5.407" height="15.421"/>
		<rect x="188.021" y="507.114" fill="#F2EDEC" width="5.407" height="15.421"/>
		<rect x="151.977" y="529.144" fill="#F2EDEC" width="5.406" height="15.419"/>
		<rect x="163.99" y="529.144" fill="#F2EDEC" width="5.408" height="15.419"/>
		<rect x="176.007" y="529.144" fill="#F2EDEC" width="5.407" height="15.419"/>
		<rect x="188.021" y="529.144" fill="#F2EDEC" width="5.407" height="15.419"/>
		<rect x="151.977" y="551.17" fill="#F2EDEC" width="5.406" height="15.424"/>
		<rect x="163.99" y="551.17" fill="#F2EDEC" width="5.408" height="15.424"/>
		<rect x="176.007" y="551.17" fill="#F2EDEC" width="5.407" height="15.424"/>
		<rect x="188.021" y="551.17" fill="#F2EDEC" width="5.407" height="15.424"/>
		<rect x="151.977" y="573.201" fill="#F2EDEC" width="5.406" height="15.419"/>
		<rect x="163.99" y="573.201" fill="#F2EDEC" width="5.408" height="15.419"/>
		<rect x="176.007" y="573.201" fill="#F2EDEC" width="5.407" height="15.419"/>
		<rect x="188.021" y="573.201" fill="#F2EDEC" width="5.407" height="15.419"/>
	</g>
	<g>
		<rect x="197.449" y="429.84" fill="#183356" width="48.063" height="174.395"/>
		<rect x="205.458" y="444.026" fill="#F2EDEC" width="31.644" height="7.611"/>
		<rect x="205.458" y="459.245" fill="#F2EDEC" width="31.644" height="7.61"/>
		<rect x="205.458" y="474.464" fill="#F2EDEC" width="31.644" height="7.61"/>
		<rect x="205.458" y="489.682" fill="#F2EDEC" width="31.644" height="7.611"/>
		<rect x="205.458" y="504.902" fill="#F2EDEC" width="31.644" height="7.61"/>
		<rect x="205.458" y="520.121" fill="#F2EDEC" width="31.644" height="7.612"/>
		<rect x="205.458" y="535.34" fill="#F2EDEC" width="31.644" height="7.609"/>
		<rect x="205.458" y="550.559" fill="#F2EDEC" width="31.644" height="7.609"/>
		<rect x="205.458" y="565.778" fill="#F2EDEC" width="31.644" height="7.609"/>
		<rect x="205.458" y="580.997" fill="#F2EDEC" width="31.644" height="7.609"/>
	</g>
	<g>
		<rect x="282.472" y="360.035" fill="#183356" width="62.878" height="244.239"/>
		<rect x="304.992" y="378.091" fill="#F2EDEC" width="5.256" height="15.469"/>
		<rect x="314.306" y="378.091" fill="#F2EDEC" width="5.257" height="15.469"/>
		<rect x="323.616" y="378.091" fill="#F2EDEC" width="5.257" height="15.469"/>
		<rect x="332.929" y="378.091" fill="#F2EDEC" width="5.256" height="15.469"/>
		<rect x="304.992" y="397.542" fill="#F2EDEC" width="5.256" height="15.467"/>
		<rect x="314.306" y="397.542" fill="#F2EDEC" width="5.257" height="15.467"/>
		<rect x="323.616" y="397.542" fill="#F2EDEC" width="5.257" height="15.467"/>
		<rect x="332.929" y="397.542" fill="#F2EDEC" width="5.256" height="15.467"/>
		<rect x="304.992" y="416.99" fill="#F2EDEC" width="5.256" height="15.47"/>
		<rect x="314.306" y="416.99" fill="#F2EDEC" width="5.257" height="15.47"/>
		<rect x="323.616" y="416.99" fill="#F2EDEC" width="5.257" height="15.47"/>
		<rect x="332.929" y="416.99" fill="#F2EDEC" width="5.256" height="15.47"/>
		<rect x="304.992" y="436.44" fill="#F2EDEC" width="5.256" height="15.471"/>
		<rect x="314.306" y="436.44" fill="#F2EDEC" width="5.257" height="15.471"/>
		<rect x="323.616" y="436.44" fill="#F2EDEC" width="5.257" height="15.471"/>
		<rect x="332.929" y="436.44" fill="#F2EDEC" width="5.256" height="15.471"/>
		<rect x="304.992" y="455.89" fill="#F2EDEC" width="5.256" height="15.471"/>
		<rect x="314.306" y="455.89" fill="#F2EDEC" width="5.257" height="15.471"/>
		<rect x="323.616" y="455.89" fill="#F2EDEC" width="5.257" height="15.471"/>
		<rect x="332.929" y="455.89" fill="#F2EDEC" width="5.256" height="15.471"/>
		<rect x="304.992" y="475.341" fill="#F2EDEC" width="5.256" height="15.47"/>
		<rect x="314.306" y="475.341" fill="#F2EDEC" width="5.257" height="15.47"/>
		<rect x="323.616" y="475.341" fill="#F2EDEC" width="5.257" height="15.47"/>
		<rect x="332.929" y="475.341" fill="#F2EDEC" width="5.256" height="15.47"/>
		<rect x="304.992" y="494.791" fill="#F2EDEC" width="5.256" height="15.471"/>
		<rect x="314.306" y="494.791" fill="#F2EDEC" width="5.257" height="15.471"/>
		<rect x="323.616" y="494.791" fill="#F2EDEC" width="5.257" height="15.471"/>
		<rect x="332.929" y="494.791" fill="#F2EDEC" width="5.256" height="15.471"/>
		<rect x="304.992" y="514.243" fill="#F2EDEC" width="5.256" height="15.469"/>
		<rect x="314.306" y="514.243" fill="#F2EDEC" width="5.257" height="15.469"/>
		<rect x="323.616" y="514.243" fill="#F2EDEC" width="5.257" height="15.469"/>
		<rect x="332.929" y="514.243" fill="#F2EDEC" width="5.256" height="15.469"/>
		<rect x="304.992" y="533.692" fill="#F2EDEC" width="5.256" height="15.472"/>
		<rect x="314.306" y="533.692" fill="#F2EDEC" width="5.257" height="15.472"/>
		<rect x="323.616" y="533.692" fill="#F2EDEC" width="5.257" height="15.472"/>
		<rect x="332.929" y="533.692" fill="#F2EDEC" width="5.256" height="15.472"/>
		<rect x="304.992" y="553.142" fill="#F2EDEC" width="5.256" height="15.458"/>
		<rect x="314.306" y="553.142" fill="#F2EDEC" width="5.257" height="15.458"/>
		<rect x="323.616" y="553.142" fill="#F2EDEC" width="5.257" height="15.458"/>
		<rect x="332.929" y="553.142" fill="#F2EDEC" width="5.256" height="15.458"/>
		<rect x="304.992" y="572.58" fill="#F2EDEC" width="5.256" height="15.471"/>
		<rect x="314.306" y="572.58" fill="#F2EDEC" width="5.257" height="15.471"/>
		<rect x="323.616" y="572.58" fill="#F2EDEC" width="5.257" height="15.471"/>
		<rect x="332.929" y="572.58" fill="#F2EDEC" width="5.256" height="15.471"/>
	</g>
	<g>
		<polygon fill="#183356" points="455.558,419.243 455.558,397.511 415.308,397.511 415.308,419.243 407.395,419.243 
			407.395,604.191 464.669,604.191 464.669,419.243 		"/>
		<rect x="420.875" y="406.224" fill="#F2EDEC" width="6.424" height="11.716"/>
		<rect x="432.289" y="406.224" fill="#F2EDEC" width="6.426" height="11.716"/>
		<rect x="443.703" y="406.224" fill="#F2EDEC" width="6.428" height="11.716"/>
		<rect x="413.965" y="435.047" fill="#F2EDEC" width="10.411" height="20.027"/>
		<rect x="430.746" y="435.047" fill="#F2EDEC" width="10.41" height="20.027"/>
		<rect x="447.527" y="435.047" fill="#F2EDEC" width="10.411" height="20.027"/>
		<rect x="413.965" y="461.482" fill="#F2EDEC" width="10.411" height="20.027"/>
		<rect x="430.746" y="461.482" fill="#F2EDEC" width="10.41" height="20.027"/>
		<rect x="447.527" y="461.482" fill="#F2EDEC" width="10.411" height="20.027"/>
		<rect x="413.965" y="487.915" fill="#F2EDEC" width="10.411" height="20.028"/>
		<rect x="430.746" y="487.915" fill="#F2EDEC" width="10.41" height="20.028"/>
		<rect x="447.527" y="487.915" fill="#F2EDEC" width="10.411" height="20.028"/>
		<rect x="413.965" y="514.35" fill="#F2EDEC" width="10.411" height="20.027"/>
		<rect x="430.746" y="514.35" fill="#F2EDEC" width="10.41" height="20.027"/>
		<rect x="447.527" y="514.35" fill="#F2EDEC" width="10.411" height="20.027"/>
		<rect x="413.965" y="540.783" fill="#F2EDEC" width="10.411" height="20.027"/>
		<rect x="430.746" y="540.783" fill="#F2EDEC" width="10.41" height="20.027"/>
		<rect x="447.527" y="540.783" fill="#F2EDEC" width="10.411" height="20.027"/>
		<rect x="413.965" y="567.21" fill="#F2EDEC" width="10.411" height="20.009"/>
		<rect x="430.746" y="567.21" fill="#F2EDEC" width="10.41" height="20.009"/>
		<rect x="447.527" y="567.21" fill="#F2EDEC" width="10.411" height="20.009"/>
	</g>
	<g>
		<rect x="233" y="553" fill="#ED796B" width="78" height="23"/>
		<polygon fill="#AFDCDF" points="258.953,575.174 272.189,563.971 285.02,575.174 306,575.131 306,605 238,605 238,575.133 		"/>
		<rect x="255" y="583" fill="#F2EDEC" width="9" height="14"/>
		<rect x="268" y="587" fill="#183356" width="8" height="18"/>
		<rect x="268" y="572" fill="#F2EDEC" width="8" height="8"/>
		<rect x="243" y="583" fill="#F2EDEC" width="10" height="14"/>
		<rect x="292" y="583" fill="#F2EDEC" width="9" height="14"/>
		<rect x="280" y="583" fill="#F2EDEC" width="9" height="14"/>
		<rect x="285" y="550" fill="#AFDCDF" width="5" height="10"/>
	</g>
	<g>
		<rect x="857" y="631" fill="#2F4867" width="91" height="26"/>
		<polygon fill="#BFE3E5" points="887.166,656.8 903.005,643.579 917.694,656.8 942,656.749 942,692 862,692 862,656.75 		"/>
		<rect x="883" y="666" fill="#EB6A5B" width="10" height="17"/>
		<rect x="898" y="672" fill="#183356" width="10" height="20"/>
		<rect x="898" y="654" fill="#F2EDEC" width="10" height="8"/>
		<rect x="869" y="666" fill="#EB6A5B" width="11" height="17"/>
		<rect x="927" y="666" fill="#EB6A5B" width="10" height="17"/>
		<rect x="913" y="666" fill="#EB6A5B" width="10" height="17"/>
		<rect x="919" y="627" fill="#BFE3E5" width="4" height="11"/>
	</g>
	<g>
		<polygon fill="#AECD58" points="396.915,675.035 382.867,675.035 389.89,655.071 396.915,635.106 403.938,655.071 
			410.961,675.035 		"/>
		<path fill="#183356" d="M391.434,679.727h9.521C400.955,679.727,396.979,675.303,391.434,679.727z"/>
		<g>
			<path fill="#183356" d="M396.498,679.753c-0.223,0-0.403-0.18-0.403-0.402v-30.854c0-0.222,0.18-0.402,0.403-0.402
				s0.401,0.18,0.401,0.402v30.854C396.899,679.573,396.72,679.753,396.498,679.753z"/>
		</g>
		<g>
			<path fill="#183356" d="M396.363,672.374c-0.064,0-0.128-0.014-0.189-0.047l-7.513-4.024c-0.196-0.106-0.269-0.35-0.163-0.546
				c0.104-0.196,0.347-0.269,0.545-0.165l7.512,4.024c0.196,0.106,0.269,0.35,0.165,0.546
				C396.646,672.298,396.506,672.374,396.363,672.374z"/>
		</g>
		<g>
			<path fill="#183356" d="M396.75,668.421c-0.119,0-0.236-0.052-0.315-0.152c-0.139-0.174-0.108-0.427,0.065-0.566l7.111-5.64
				c0.174-0.137,0.428-0.107,0.566,0.066c0.138,0.174,0.109,0.428-0.065,0.565l-7.112,5.64
				C396.926,668.392,396.838,668.421,396.75,668.421z"/>
		</g>
		<g>
			<path fill="#183356" d="M396.482,663.572c-0.064,0-0.129-0.016-0.189-0.049l-5.651-3.031c-0.196-0.105-0.269-0.349-0.164-0.545
				c0.105-0.197,0.35-0.271,0.544-0.164l5.651,3.032c0.195,0.104,0.268,0.349,0.164,0.544
				C396.765,663.496,396.626,663.572,396.482,663.572z"/>
		</g>
		<g>
			<path fill="#183356" d="M396.466,656.563c-0.064,0-0.129-0.015-0.189-0.046l-3.807-2.044c-0.195-0.104-0.27-0.35-0.164-0.545
				c0.105-0.194,0.349-0.269,0.544-0.165l3.807,2.043c0.196,0.105,0.27,0.35,0.165,0.545
				C396.75,656.487,396.61,656.563,396.466,656.563z"/>
		</g>
		<g>
			<path fill="#183356" d="M396.599,659.699c-0.095,0-0.188-0.033-0.266-0.099c-0.167-0.146-0.185-0.401-0.039-0.568l4.203-4.83
				c0.146-0.167,0.4-0.186,0.568-0.039c0.167,0.145,0.185,0.399,0.04,0.569l-4.204,4.829
				C396.822,659.651,396.71,659.699,396.599,659.699z"/>
		</g>
		<g>
			<path fill="#183356" d="M396.62,653.404c-0.093,0-0.187-0.033-0.264-0.099c-0.167-0.147-0.185-0.4-0.04-0.568l3.058-3.513
				c0.146-0.167,0.401-0.184,0.569-0.039c0.167,0.146,0.185,0.399,0.039,0.567l-3.057,3.513
				C396.845,653.358,396.733,653.404,396.62,653.404z"/>
		</g>
	</g>
	<polygon fill="#EB6A5B" points="285.196,569.531 287.191,569.527 272.083,556.208 256.205,569.527 258.201,569.531 
		272.083,558.208 	"/>
	<g>
		<path fill="#C6DC8A" d="M988.322,700.982c0-1.879-0.868-3.55-2.221-4.646c0.477-0.857,0.748-1.841,0.748-2.893
			c0-2.359-1.369-4.391-3.353-5.363c0.146-0.517,0.229-1.061,0.229-1.623c0-3.301-2.676-5.974-5.977-5.974
			c-0.532,0-1.045,0.077-1.538,0.206c-0.615-2.644-2.984-4.622-5.816-4.622c-2.646,0-4.883,1.72-5.67,4.102
			c-0.25-0.031-0.506-0.054-0.765-0.054c-3.302,0-5.978,2.674-5.978,5.973c0,0.843,0.18,1.646,0.493,2.369
			c-2.878,0.433-5.088,2.91-5.088,5.907c0,0.986,0.245,1.917,0.668,2.736c-0.191,0.584-0.299,1.21-0.299,1.86
			c0,1.633,0.658,3.111,1.722,4.19c-0.508,0.876-0.804,1.894-0.804,2.978c0,2.833,1.976,5.199,4.622,5.816
			c0.247,3.074,2.812,5.493,5.951,5.493c1.559,0,2.973-0.604,4.037-1.576c1.08,1.087,2.579,1.76,4.235,1.76
			c2.701,0,4.979-1.793,5.722-4.25c3.118-0.199,5.586-2.783,5.586-5.954c0-0.332-0.033-0.649-0.085-0.966
			C986.848,705.531,988.322,703.428,988.322,700.982z"/>
		<g>
			<path fill="#183356" d="M964.037,722.601h12.203C976.24,722.601,971.143,716.933,964.037,722.601z"/>
		</g>
		<g>
			<path fill="#183356" d="M970.523,722.636c-0.283,0-0.514-0.229-0.514-0.515v-39.545c0-0.287,0.23-0.515,0.514-0.515
				c0.286,0,0.52,0.228,0.52,0.515v39.545C971.043,722.407,970.81,722.636,970.523,722.636z"/>
		</g>
		<g>
			<path fill="#183356" d="M970.453,713.279c-0.081,0-0.166-0.017-0.243-0.061l-7.755-4.157c-0.251-0.135-0.348-0.446-0.213-0.699
				c0.135-0.251,0.446-0.346,0.7-0.21l7.755,4.158c0.252,0.134,0.346,0.446,0.212,0.697
				C970.816,713.181,970.636,713.279,970.453,713.279z"/>
		</g>
		<g>
			<path fill="#183356" d="M970.68,708.11c-0.152,0-0.303-0.068-0.403-0.195c-0.179-0.223-0.141-0.549,0.083-0.725l9.113-7.226
				c0.224-0.177,0.55-0.142,0.725,0.083c0.176,0.223,0.14,0.55-0.083,0.724L971,708C970.905,708.075,970.792,708.11,970.68,708.11z"
				/>
		</g>
		<g>
			<path fill="#183356" d="M970.506,701.898c-0.082,0-0.165-0.022-0.242-0.064l-7.242-3.884c-0.251-0.135-0.344-0.45-0.208-0.699
				c0.132-0.251,0.446-0.345,0.694-0.211l7.242,3.886c0.25,0.136,0.345,0.448,0.211,0.698
				C970.869,701.798,970.69,701.898,970.506,701.898z"/>
		</g>
		<g>
			<path fill="#183356" d="M970.485,692.916c-0.083,0-0.166-0.021-0.243-0.062l-4.88-2.62c-0.251-0.133-0.343-0.447-0.209-0.696
				c0.135-0.25,0.445-0.347,0.696-0.211l4.881,2.62c0.251,0.133,0.346,0.446,0.211,0.696
				C970.848,692.818,970.668,692.916,970.485,692.916z"/>
		</g>
		<g>
			<path fill="#183356" d="M970.785,696.931c-0.12,0-0.242-0.042-0.338-0.123c-0.216-0.189-0.239-0.514-0.053-0.731l5.387-6.188
				c0.188-0.217,0.516-0.237,0.729-0.05c0.217,0.187,0.238,0.511,0.052,0.727l-5.388,6.192
				C971.072,696.873,970.928,696.931,970.785,696.931z"/>
		</g>
		<g>
			<path fill="#183356" d="M970.68,688.866c-0.12,0-0.24-0.042-0.339-0.125c-0.214-0.187-0.239-0.514-0.051-0.727l3.92-4.504
				c0.187-0.215,0.51-0.236,0.726-0.05c0.215,0.188,0.238,0.515,0.05,0.73l-3.916,4.5
				C970.967,688.806,970.823,688.866,970.68,688.866z"/>
		</g>
	</g>
	<g>
		<path fill="#D6E6AC" d="M757.247,610.141c0-1.217-0.562-2.3-1.438-3.01c0.309-0.555,0.484-1.193,0.484-1.874
			c0-1.527-0.887-2.845-2.171-3.475c0.095-0.333,0.147-0.686,0.147-1.049c0-2.138-1.733-3.871-3.871-3.871
			c-0.345,0-0.676,0.05-0.996,0.133c-0.398-1.712-1.934-2.993-3.768-2.993c-1.713,0-3.162,1.114-3.672,2.657
			c-0.162-0.021-0.328-0.037-0.496-0.037c-2.139,0-3.871,1.734-3.871,3.87c0,0.547,0.116,1.067,0.318,1.535
			c-1.863,0.279-3.295,1.884-3.295,3.826c0,0.638,0.158,1.241,0.433,1.771c-0.124,0.379-0.193,0.785-0.193,1.206
			c0,1.058,0.426,2.014,1.114,2.714c-0.328,0.566-0.52,1.227-0.52,1.928c0,1.835,1.279,3.368,2.994,3.768
			c0.159,1.992,1.821,3.557,3.854,3.557c1.01,0,1.926-0.389,2.615-1.019c0.7,0.704,1.671,1.138,2.744,1.138
			c1.75,0,3.225-1.161,3.705-2.753c2.021-0.127,3.619-1.801,3.619-3.855c0-0.215-0.021-0.42-0.056-0.626
			C756.292,613.087,757.247,611.725,757.247,610.141z"/>
		<g>
			<path fill="#183356" d="M741.518,624.144h7.904C749.422,624.144,746.119,620.473,741.518,624.144z"/>
		</g>
		<g>
			<path fill="#183356" d="M745.719,624.167c-0.184,0-0.333-0.148-0.333-0.334v-25.614c0-0.185,0.149-0.334,0.333-0.334
				c0.185,0,0.336,0.149,0.336,0.334v25.614C746.055,624.019,745.903,624.167,745.719,624.167z"/>
		</g>
		<g>
			<path fill="#183356" d="M745.673,618.106c-0.053,0-0.107-0.011-0.157-0.04l-5.023-2.693c-0.162-0.087-0.225-0.289-0.138-0.453
				c0.087-0.163,0.289-0.225,0.453-0.135l5.023,2.692c0.163,0.087,0.224,0.289,0.137,0.452
				C745.908,618.042,745.791,618.106,745.673,618.106z"/>
		</g>
		<g>
			<path fill="#183356" d="M745.819,614.758c-0.099,0-0.196-0.042-0.262-0.125c-0.114-0.145-0.091-0.357,0.054-0.47l5.903-4.681
				c0.146-0.115,0.356-0.091,0.47,0.053c0.113,0.145,0.091,0.356-0.054,0.47l-5.904,4.682
				C745.966,614.734,745.893,614.758,745.819,614.758z"/>
		</g>
		<g>
			<path fill="#183356" d="M745.707,610.734c-0.053,0-0.107-0.013-0.156-0.041l-4.691-2.517c-0.163-0.087-0.224-0.29-0.135-0.451
				c0.086-0.163,0.289-0.225,0.449-0.137l4.691,2.517c0.161,0.088,0.223,0.29,0.137,0.451
				C745.941,610.67,745.827,610.734,745.707,610.734z"/>
		</g>
		<g>
			<path fill="#183356" d="M745.693,604.916c-0.054,0-0.107-0.013-0.157-0.04l-3.161-1.695c-0.162-0.087-0.222-0.291-0.135-0.451
				c0.087-0.163,0.289-0.225,0.451-0.137l3.161,1.696c0.162,0.086,0.224,0.289,0.137,0.451
				C745.929,604.853,745.812,604.916,745.693,604.916z"/>
		</g>
		<g>
			<path fill="#183356" d="M745.889,607.518c-0.078,0-0.157-0.027-0.22-0.08c-0.14-0.123-0.154-0.333-0.034-0.473l3.489-4.009
				c0.121-0.139,0.335-0.153,0.472-0.031c0.141,0.12,0.155,0.33,0.034,0.469l-3.49,4.012
				C746.074,607.479,745.98,607.518,745.889,607.518z"/>
		</g>
		<g>
			<path fill="#183356" d="M745.819,602.292c-0.077,0-0.155-0.027-0.22-0.08c-0.139-0.122-0.154-0.333-0.032-0.473l2.538-2.917
				c0.121-0.14,0.332-0.153,0.471-0.033c0.14,0.122,0.154,0.333,0.032,0.474l-2.536,2.915
				C746.006,602.254,745.912,602.292,745.819,602.292z"/>
		</g>
	</g>
	<g>
		<path fill="#CEE19B" d="M66.417,656.99c0-1.395-0.645-2.635-1.648-3.449c0.354-0.635,0.556-1.366,0.556-2.146
			c0-1.75-1.016-3.258-2.488-3.98c0.108-0.383,0.17-0.786,0.17-1.203c0-2.45-1.986-4.434-4.436-4.434
			c-0.395,0-0.775,0.056-1.142,0.152c-0.456-1.961-2.214-3.43-4.316-3.43c-1.963,0-3.623,1.276-4.207,3.044
			c-0.186-0.024-0.376-0.041-0.567-0.041c-2.45,0-4.436,1.985-4.436,4.432c0,0.626,0.133,1.221,0.365,1.759
			c-2.136,0.32-3.775,2.16-3.775,4.383c0,0.732,0.182,1.423,0.495,2.032c-0.142,0.433-0.221,0.897-0.221,1.379
			c0,1.212,0.487,2.309,1.276,3.11c-0.376,0.649-0.596,1.406-0.596,2.21c0,2.102,1.466,3.857,3.431,4.315
			c0.183,2.282,2.087,4.076,4.416,4.076c1.156,0,2.205-0.447,2.995-1.169c0.803,0.807,1.914,1.307,3.144,1.307
			c2.005,0,3.695-1.332,4.246-3.155c2.313-0.147,4.146-2.065,4.146-4.417c0-0.247-0.024-0.483-0.063-0.717
			C65.322,660.364,66.417,658.805,66.417,656.99z"/>
		<g>
			<path fill="#183356" d="M48.395,673.034h9.057C57.451,673.034,53.668,668.827,48.395,673.034z"/>
		</g>
		<g>
			<path fill="#183356" d="M53.209,673.059c-0.211,0-0.382-0.169-0.382-0.382v-29.346c0-0.213,0.171-0.383,0.382-0.383
				c0.212,0,0.386,0.17,0.386,0.383v29.346C53.595,672.89,53.421,673.059,53.209,673.059z"/>
		</g>
		<g>
			<path fill="#183356" d="M53.156,666.115c-0.061,0-0.123-0.014-0.18-0.045l-5.756-3.085c-0.187-0.1-0.258-0.331-0.157-0.519
				c0.1-0.187,0.331-0.257,0.52-0.156l5.755,3.085c0.187,0.1,0.257,0.332,0.157,0.519C53.426,666.042,53.292,666.115,53.156,666.115
				z"/>
		</g>
		<g>
			<path fill="#183356" d="M53.325,662.279c-0.114,0-0.226-0.049-0.3-0.145c-0.133-0.166-0.104-0.407,0.062-0.538l6.763-5.363
				c0.166-0.131,0.408-0.105,0.538,0.062c0.13,0.166,0.104,0.409-0.062,0.537l-6.764,5.365
				C53.492,662.253,53.408,662.279,53.325,662.279z"/>
		</g>
		<g>
			<path fill="#183356" d="M53.195,657.669c-0.061,0-0.122-0.015-0.18-0.046l-5.374-2.883c-0.187-0.099-0.256-0.333-0.155-0.518
				c0.098-0.187,0.332-0.257,0.517-0.157l5.374,2.883c0.186,0.101,0.255,0.333,0.156,0.519
				C53.465,657.596,53.332,657.669,53.195,657.669z"/>
		</g>
		<g>
			<path fill="#183356" d="M53.18,651.003c-0.061,0-0.122-0.016-0.18-0.047l-3.621-1.943c-0.187-0.099-0.255-0.332-0.155-0.517
				c0.1-0.187,0.33-0.258,0.517-0.157l3.621,1.943c0.187,0.1,0.257,0.332,0.157,0.518C53.449,650.931,53.315,651.003,53.18,651.003z
				"/>
		</g>
		<g>
			<path fill="#183356" d="M53.402,653.983c-0.089,0-0.179-0.031-0.25-0.093c-0.16-0.139-0.178-0.381-0.04-0.541l3.998-4.593
				c0.14-0.16,0.382-0.175,0.541-0.037c0.161,0.138,0.177,0.379,0.038,0.539l-3.998,4.595
				C53.615,653.941,53.509,653.983,53.402,653.983z"/>
		</g>
		<g>
			<path fill="#183356" d="M53.325,647.997c-0.09,0-0.18-0.031-0.252-0.093c-0.159-0.139-0.178-0.381-0.038-0.54l2.909-3.342
				c0.138-0.159,0.378-0.174,0.539-0.037c0.158,0.138,0.176,0.381,0.036,0.541l-2.906,3.34
				C53.537,647.953,53.431,647.997,53.325,647.997z"/>
		</g>
	</g>
	<g>
		<path fill="#AECD58" d="M492.294,724.115c0-1.819-0.84-3.436-2.149-4.497c0.462-0.829,0.725-1.783,0.725-2.8
			c0-2.282-1.325-4.25-3.245-5.189c0.141-0.5,0.222-1.027,0.222-1.571c0-3.195-2.591-5.782-5.785-5.782
			c-0.515,0-1.011,0.074-1.489,0.198c-0.594-2.559-2.888-4.473-5.629-4.473c-2.561,0-4.726,1.664-5.487,3.971
			c-0.241-0.033-0.49-0.054-0.74-0.054c-3.196,0-5.785,2.59-5.785,5.782c0,0.817,0.174,1.593,0.477,2.294
			c-2.785,0.418-4.924,2.815-4.924,5.715c0,0.954,0.236,1.856,0.646,2.649c-0.185,0.565-0.288,1.171-0.288,1.801
			c0,1.581,0.637,3.009,1.665,4.057c-0.49,0.847-0.777,1.831-0.777,2.881c0,2.742,1.912,5.033,4.475,5.629
			c0.237,2.976,2.722,5.314,5.76,5.314c1.508,0,2.877-0.583,3.907-1.524c1.046,1.054,2.496,1.705,4.099,1.705
			c2.615,0,4.819-1.735,5.539-4.116c3.018-0.192,5.405-2.693,5.405-5.76c0-0.321-0.032-0.63-0.082-0.938
			C490.867,728.517,492.294,726.482,492.294,724.115z"/>
		<g>
			<path fill="#183356" d="M468.788,745.04h11.812C480.601,745.04,475.667,739.554,468.788,745.04z"/>
		</g>
		<g>
			<path fill="#183356" d="M475.067,745.074c-0.274,0-0.497-0.221-0.497-0.499v-38.274c0-0.278,0.223-0.499,0.497-0.499
				c0.276,0,0.503,0.221,0.503,0.499v38.274C475.57,744.853,475.344,745.074,475.067,745.074z"/>
		</g>
		<g>
			<path fill="#183356" d="M474.999,736.017c-0.078,0-0.16-0.018-0.234-0.06l-7.507-4.024c-0.243-0.128-0.335-0.432-0.206-0.677
				c0.131-0.242,0.433-0.333,0.678-0.202l7.507,4.022c0.243,0.13,0.334,0.433,0.204,0.675
				C475.351,735.922,475.175,736.017,474.999,736.017z"/>
		</g>
		<g>
			<path fill="#183356" d="M475.219,731.015c-0.148,0-0.293-0.065-0.391-0.188c-0.173-0.217-0.137-0.533,0.08-0.705l8.82-6.992
				c0.217-0.172,0.533-0.137,0.702,0.08c0.17,0.217,0.135,0.533-0.081,0.702l-8.821,6.995
				C475.437,730.98,475.328,731.015,475.219,731.015z"/>
		</g>
		<g>
			<path fill="#183356" d="M475.05,725.001c-0.078,0-0.159-0.02-0.234-0.06l-7.009-3.761c-0.242-0.131-0.333-0.434-0.202-0.675
				c0.127-0.243,0.433-0.335,0.673-0.206l7.009,3.762c0.242,0.131,0.334,0.434,0.205,0.675
				C475.401,724.907,475.229,725.001,475.05,725.001z"/>
		</g>
		<g>
			<path fill="#183356" d="M475.03,716.309c-0.079,0-0.16-0.021-0.235-0.061l-4.724-2.534c-0.242-0.131-0.331-0.434-0.201-0.674
				c0.13-0.243,0.431-0.336,0.675-0.206l4.722,2.535c0.244,0.129,0.336,0.434,0.205,0.675
				C475.381,716.214,475.207,716.309,475.03,716.309z"/>
		</g>
		<g>
			<path fill="#183356" d="M475.32,720.195c-0.115,0-0.233-0.042-0.326-0.121c-0.21-0.182-0.232-0.497-0.052-0.707l5.215-5.99
				c0.181-0.209,0.497-0.229,0.704-0.047c0.21,0.18,0.23,0.493,0.05,0.703l-5.214,5.992
				C475.598,720.139,475.458,720.195,475.32,720.195z"/>
		</g>
		<g>
			<path fill="#183356" d="M475.219,712.389c-0.116,0-0.233-0.04-0.328-0.124c-0.207-0.179-0.231-0.496-0.05-0.703l3.794-4.358
				c0.181-0.208,0.493-0.229,0.703-0.049c0.207,0.182,0.229,0.498,0.048,0.706l-3.79,4.356
				C475.495,712.332,475.357,712.389,475.219,712.389z"/>
		</g>
	</g>
	<g>
		<ellipse fill="#AECD58" cx="1061.075" cy="748.991" rx="18.493" ry="32.99"/>
		<path fill="#183356" d="M1052.736,788.553h16.206C1068.942,788.553,1062.176,781.026,1052.736,788.553z"/>
		<g>
			<path fill="#183356" d="M1061.354,788.601c-0.38,0-0.684-0.307-0.684-0.687v-52.511c0-0.377,0.304-0.685,0.684-0.685
				c0.379,0,0.685,0.307,0.685,0.685v52.511C1062.038,788.294,1061.732,788.601,1061.354,788.601z"/>
		</g>
		<g>
			<path fill="#183356" d="M1061.256,776.177c-0.106,0-0.218-0.027-0.321-0.083l-10.301-5.519c-0.332-0.181-0.459-0.594-0.28-0.928
				c0.178-0.333,0.594-0.46,0.93-0.28l10.3,5.518c0.333,0.181,0.459,0.594,0.28,0.929
				C1061.74,776.042,1061.502,776.177,1061.256,776.177z"/>
		</g>
		<g>
			<path fill="#183356" d="M1061.784,769.312c-0.201,0-0.399-0.087-0.537-0.259c-0.235-0.296-0.186-0.729,0.111-0.963l12.104-9.598
				c0.296-0.234,0.727-0.183,0.961,0.114c0.234,0.295,0.185,0.726-0.111,0.96l-12.102,9.599
				C1062.086,769.264,1061.936,769.312,1061.784,769.312z"/>
		</g>
		<g>
			<path fill="#183356" d="M1061.328,761.061c-0.111,0-0.222-0.026-0.324-0.083l-9.614-5.159c-0.333-0.181-0.457-0.594-0.278-0.929
				c0.179-0.332,0.596-0.458,0.928-0.278l9.612,5.161c0.335,0.179,0.461,0.595,0.28,0.926
				C1061.807,760.931,1061.573,761.061,1061.328,761.061z"/>
		</g>
		<g>
			<path fill="#183356" d="M1061.301,749.134c-0.108,0-0.221-0.027-0.323-0.083l-6.479-3.477c-0.332-0.18-0.457-0.594-0.277-0.927
				c0.178-0.333,0.594-0.457,0.926-0.28l6.479,3.479c0.334,0.178,0.461,0.594,0.28,0.926
				C1061.781,749.003,1061.545,749.134,1061.301,749.134z"/>
		</g>
		<g>
			<path fill="#183356" d="M1061.625,754.469c-0.158,0-0.318-0.054-0.449-0.168c-0.285-0.249-0.316-0.682-0.066-0.967l7.152-8.22
				c0.249-0.287,0.681-0.315,0.968-0.065c0.282,0.247,0.314,0.681,0.065,0.965l-7.153,8.221
				C1062.008,754.389,1061.816,754.469,1061.625,754.469z"/>
		</g>
		<g>
			<path fill="#183356" d="M1061.644,743.756c-0.157,0-0.319-0.056-0.449-0.167c-0.286-0.249-0.315-0.682-0.067-0.968l5.203-5.978
				c0.249-0.287,0.683-0.314,0.965-0.067c0.286,0.25,0.317,0.683,0.068,0.968l-5.204,5.977
				C1062.025,743.675,1061.833,743.756,1061.644,743.756z"/>
		</g>
	</g>
	<path fill="none" stroke="#183356" stroke-width="2" stroke-linecap="round" stroke-linejoin="round" stroke-miterlimit="10" d="
		M1084.276,464.676c0,0-8.016-5.062-12.656,2.953c0,0-3.797-8.438-13.922-2.531"/>
	<path fill="none" stroke="#183356" stroke-width="2" stroke-linecap="round" stroke-linejoin="round" stroke-miterlimit="10" d="
		M1117.131,477.674c0,0-8.016-5.062-12.656,2.953c0,0-3.797-8.437-13.922-2.53"/>
	<path fill="#F2EDEC" d="M670.75,739c4.004,0,7.25-3.246,7.25-7.25v-0.5c0-4.003-3.246-7.25-7.25-7.25l-1.375,0.125
		c-4.004,0-7.375-3.371-7.375-7.375v-0.5c0-4.003,2.246-7.25,6.25-7.25h7.5c4.004,0,7.25-3.246,7.25-7.25v-0.5
		c0-4.003-3.371-7.375-7.375-7.375L669.25,694c-4.004,0-7.25-3.246-7.25-7.25v-0.5c0-4.003,3.371-7.375,7.375-7.375L686.75,679
		c4.004,0,7.25-3.246,7.25-7.25v-0.5c0-4.003-3.246-7.25-7.25-7.25h-164.5c-4.004,0-7.25,3.247-7.25,7.25v0.5
		c0,4.004,3.246,7.25,7.25,7.25h17.375c4.004,0,7.375,3.247,7.375,7.25v0.5c0,4.004-3.246,7.25-7.25,7.25l-2.375-0.125
		c-4.004,0-7.375,3.372-7.375,7.375v0.5c0,4.004,3.246,7.25,7.25,7.25h39.5c4.004,0,7.25,3.247,7.25,7.25v0.5
		c0,4.004-3.246,7.25-7.25,7.25h-2.375c-4.004,0-7.375,3.247-7.375,7.25v0.5c0,4.004,3.246,7.25,7.25,7.25H670.75z"/>
	<path fill="#F2EDEC" d="M299.25,649c-4.004,0-7.25,3.247-7.25,7.25v0.5c0,4.004,3.371,7.375,7.375,7.375L316.75,664
		c4.004,0,7.25,3.247,7.25,7.25v0.5c0,4.004-3.246,7.25-7.25,7.25h-51.5c-4.004,0-7.25,3.247-7.25,7.25v0.5
		c0,4.004,3.246,7.375,7.25,7.375l29.5-0.125c4.004,0,7.25,3.247,7.25,7.25v0.5c0,4.004-3.246,7.25-7.25,7.25h-11.5
		c-4.004,0-7.25,3.247-7.25,7.25v0.5c0,4.004,3.246,7.25,7.25,7.25h5.5c4.004,0,7.25,3.247,7.25,7.25v0.5
		c0,4.004-3.246,7.25-7.25,7.25h-106.5c-4.004,0-7.25-3.246-7.25-7.25v-0.5c0-4.003,3.246-7.25,7.25-7.25h1.5
		c4.004,0,7.25-3.246,7.25-7.25v-0.5c0-4.003-3.371-7.375-7.375-7.375L123.25,709c-4.004,0-7.25-3.246-7.25-7.25v-0.5
		c0-4.003,3.371-7.25,7.375-7.25h8.375c4.004,0,7.25-3.246,7.25-7.25v-0.5c0-4.003-3.371-7.25-7.375-7.25H85.25
		c-4.004,0-7.25-3.246-7.25-7.25v-0.5c0-4.003,3.371-7.25,7.375-7.25h2.375c4.004,0,7.25-3.246,7.25-7.25v-0.5
		c0-4.003-3.246-7.25-7.25-7.25h-12.5c-4.004,0-7.25-3.246-7.25-7.25v-0.5c0-4.003,3.371-7.375,7.375-7.375L103.75,634
		c4.004,0,7.25-3.246,7.25-7.25v-0.5c0-4.003-3.371-7.25-7.375-7.25H51.25c-4.004,0-7.25-3.246-7.25-7.25v-0.5
		c0-4.003,3.246-7.25,7.25-7.25h280.5c4.004,0,7.25,3.247,7.25,7.25v0.5c0,4.004-3.246,7.25-7.25,7.25l-23.375-0.125
		c-4.004,0-7.375,3.372-7.375,7.375v0.5c0,4.004,3.246,7.25,7.25,7.25l46.375-0.125c4.004,0,7.375,3.372,7.375,7.375v0.5
		c0,4.004-3.246,7.25-7.25,7.25H299.25z"/>
	<g>
		<ellipse fill="#D6E6AC" cx="333.354" cy="625.907" rx="7.095" ry="12.658"/>
		<path fill="#183356" d="M330.153,641.086h6.218C336.371,641.086,333.775,638.199,330.153,641.086z"/>
		<g>
			<path fill="#183356" d="M333.46,641.105c-0.146,0-0.263-0.118-0.263-0.263v-20.146c0-0.146,0.117-0.263,0.263-0.263
				c0.145,0,0.263,0.118,0.263,0.263v20.146C333.723,640.987,333.604,641.105,333.46,641.105z"/>
		</g>
		<g>
			<path fill="#183356" d="M333.423,636.338c-0.041,0-0.084-0.01-0.124-0.032l-3.952-2.117c-0.127-0.069-0.176-0.228-0.107-0.357
				c0.068-0.127,0.228-0.175,0.357-0.106l3.951,2.118c0.128,0.069,0.176,0.228,0.107,0.355
				C333.608,636.288,333.517,636.338,333.423,636.338z"/>
		</g>
		<g>
			<path fill="#183356" d="M333.625,633.704c-0.077,0-0.153-0.034-0.206-0.099c-0.091-0.113-0.071-0.28,0.042-0.371l4.645-3.681
				c0.113-0.089,0.279-0.071,0.369,0.042s0.071,0.278-0.043,0.369l-4.643,3.683C333.741,633.687,333.684,633.704,333.625,633.704z"
				/>
		</g>
		<g>
			<path fill="#183356" d="M333.449,630.539c-0.041,0-0.084-0.01-0.124-0.033l-3.688-1.979c-0.128-0.07-0.176-0.227-0.107-0.356
				c0.068-0.127,0.229-0.176,0.355-0.106l3.688,1.979c0.128,0.07,0.177,0.229,0.107,0.355
				C333.634,630.488,333.544,630.539,333.449,630.539z"/>
		</g>
		<g>
			<path fill="#183356" d="M333.44,625.963c-0.043,0-0.085-0.011-0.125-0.034l-2.485-1.333c-0.127-0.07-0.176-0.228-0.107-0.355
				c0.068-0.128,0.229-0.176,0.355-0.108l2.486,1.335c0.127,0.068,0.177,0.228,0.107,0.355
				C333.625,625.912,333.533,625.963,333.44,625.963z"/>
		</g>
		<g>
			<path fill="#183356" d="M333.564,628.01c-0.062,0-0.123-0.021-0.173-0.064c-0.11-0.097-0.122-0.262-0.025-0.371l2.743-3.154
				c0.097-0.11,0.262-0.122,0.372-0.025c0.109,0.095,0.121,0.261,0.025,0.37l-2.744,3.154
				C333.711,627.979,333.638,628.01,333.564,628.01z"/>
		</g>
		<g>
			<path fill="#183356" d="M333.571,623.899c-0.062,0-0.123-0.021-0.173-0.065c-0.109-0.095-0.121-0.262-0.025-0.37l1.996-2.293
				c0.096-0.11,0.262-0.122,0.37-0.026c0.109,0.097,0.122,0.262,0.026,0.37l-1.997,2.294
				C333.718,623.868,333.645,623.899,333.571,623.899z"/>
		</g>
	</g>
	<g>
		<polygon fill="#BED77A" points="584.007,693.633 567.604,693.633 575.805,670.318 584.007,647.006 592.208,670.318 
			600.409,693.633 		"/>
		<path fill="#183356" d="M577.607,699.11h11.117C588.725,699.11,584.082,693.943,577.607,699.11z"/>
		<g>
			<path fill="#183356" d="M583.521,699.141c-0.261,0-0.471-0.21-0.471-0.471v-36.028c0-0.26,0.21-0.47,0.471-0.47
				c0.26,0,0.469,0.21,0.469,0.47v36.028C583.989,698.931,583.78,699.141,583.521,699.141z"/>
		</g>
		<g>
			<path fill="#183356" d="M583.363,690.523c-0.075,0-0.15-0.016-0.222-0.055l-8.772-4.699c-0.229-0.123-0.314-0.407-0.191-0.636
				c0.122-0.229,0.405-0.315,0.637-0.193l8.771,4.701c0.229,0.123,0.314,0.407,0.192,0.635
				C583.694,690.435,583.531,690.523,583.363,690.523z"/>
		</g>
		<g>
			<path fill="#183356" d="M583.816,685.907c-0.14,0-0.276-0.061-0.369-0.177c-0.162-0.204-0.127-0.5,0.076-0.661l8.304-6.586
				c0.204-0.16,0.5-0.125,0.661,0.078c0.161,0.203,0.128,0.499-0.076,0.66l-8.305,6.584
				C584.021,685.874,583.917,685.907,583.816,685.907z"/>
		</g>
		<g>
			<path fill="#183356" d="M583.502,680.247c-0.074,0-0.15-0.02-0.22-0.057l-6.599-3.542c-0.229-0.122-0.314-0.405-0.192-0.634
				c0.123-0.229,0.409-0.315,0.637-0.192l6.599,3.54c0.228,0.122,0.312,0.408,0.19,0.636
				C583.832,680.156,583.67,680.247,583.502,680.247z"/>
		</g>
		<g>
			<path fill="#183356" d="M583.483,672.062c-0.074,0-0.151-0.019-0.221-0.056l-4.445-2.385c-0.229-0.123-0.315-0.408-0.192-0.637
				c0.123-0.228,0.408-0.313,0.637-0.193l4.445,2.387c0.229,0.122,0.314,0.407,0.191,0.636
				C583.814,671.974,583.652,672.062,583.483,672.062z"/>
		</g>
		<g>
			<path fill="#183356" d="M583.638,675.722c-0.11,0-0.219-0.036-0.31-0.114c-0.195-0.169-0.216-0.468-0.045-0.663l4.908-5.639
				c0.171-0.197,0.467-0.217,0.663-0.045c0.195,0.169,0.216,0.465,0.046,0.663l-4.908,5.639
				C583.898,675.667,583.769,675.722,583.638,675.722z"/>
		</g>
		<g>
			<path fill="#183356" d="M583.664,668.373c-0.109,0-0.219-0.039-0.309-0.115c-0.195-0.17-0.216-0.468-0.047-0.664l3.57-4.101
				c0.172-0.195,0.469-0.214,0.665-0.046c0.195,0.171,0.216,0.467,0.045,0.664l-3.57,4.102
				C583.926,668.318,583.795,668.373,583.664,668.373z"/>
		</g>
	</g>
	<g>
		<g>
			<path fill="none" d="M886.91,759.897c-0.393,0.476-0.583,1.184-0.698,1.797c-0.055,0.281-0.093,0.438-0.128,0.707
				c-0.032,0.236-0.24,4.6-0.282,4.6c2.752,0,7.198,0,13.198,0v-8c0,0-9.653,0-9.703,0C888.478,759,887.473,759.207,886.91,759.897z
				"/>
			<path fill="none" d="M914.827,761.387c-1.351-1.918-3.534-2.209-5.669-2.19c-1.891,0.018-3.785-0.196-5.676-0.196
				c-0.491,0-1.482,0-1.482,0v8c5,0,8.869,0,14.656,0c0.04,0-0.751-3.617-1.313-4.785
				C915.098,761.714,914.897,761.49,914.827,761.387z"/>
		</g>
		<g>
			<path fill="#183356" d="M922.312,773.998c-3.467,0-6.287,2.82-6.287,6.286s2.82,6.286,6.287,6.286
				c3.466,0,6.285-2.82,6.285-6.286S925.778,773.998,922.312,773.998z M922.312,783.931c-2.016,0-3.647-1.634-3.647-3.647
				c0-2.014,1.632-3.647,3.647-3.647c2.013,0,3.646,1.633,3.646,3.647C925.959,782.297,924.325,783.931,922.312,783.931z"/>
		</g>
		<g>
			<path fill="none" d="M886.91,759.854c-0.393,0.477-0.583,1.24-0.698,1.853c-0.055,0.281-0.093,0.474-0.128,0.743
				c-0.032,0.235-0.24,4.55-0.282,4.55c2.752,0,7.198,0,13.198,0v-8c0,0-9.653,0-9.703,0
				C888.478,759,887.473,759.164,886.91,759.854z"/>
			<path fill="none" d="M914.827,761.288c-1.351-1.917-3.534-2.11-5.669-2.092c-1.891,0.018-3.785-0.196-5.676-0.196
				c-0.491,0-1.482,0-1.482,0v8c5,0,8.869,0,14.656,0c0.04,0-0.751-3.667-1.313-4.834
				C915.098,761.665,914.897,761.392,914.827,761.288z"/>
			<path fill="#AFDCDF" d="M934,779.531v-8.089c0-1.04-1.363-2.119-2.209-2.44c-2.283-0.869-5.16-0.527-7.569-0.894
				c-1.143-0.173-2.344-0.363-3.185-1.229c-1.227-1.26-1.46-3.152-2.081-4.718c-0.475-1.187-1.11-2.24-1.986-3.178
				c-1.785-1.896-4.062-3.098-6.713-3.069c-7.163,0.074-14.33,0.002-21.495,0.002c-1.526,0-5.572,0-6.053,5.598
				c-0.3,3.544-1.919,17.504-1.931,17.689c-0.091,1.631,1.43,1.846,2.807,1.787c0.513-0.021,1.008-0.085,1.389-0.123
				c0.374-0.04,0.752-0.054,1.128-0.074c-0.012-0.169-0.025-0.336-0.025-0.509c0-4.018,3.269-7.286,7.285-7.286
				s7.285,3.268,7.285,7.286c0,0.17-0.014,0.335-0.025,0.502c1.315,0.007,2.631,0.015,3.946,0.023
				c3.495,0.023,6.991,0.031,10.486,0.038c-0.015-0.187-0.028-0.373-0.028-0.563c0-4.018,3.269-7.286,7.287-7.286
				c4.017,0,7.285,3.268,7.285,7.286c0,0.207-0.014,0.41-0.031,0.61c1.004,0.006,2.014,0.011,3.014,0.011
				C934.094,780.904,934,779.531,934,779.531z M899,767c-6,0-10.446,0-13.198,0c0.042,0,0.25-4.315,0.282-4.55
				c0.035-0.27,0.073-0.462,0.128-0.743c0.115-0.613,0.306-1.376,0.698-1.853c0.562-0.69,1.567-0.854,2.387-0.854
				c0.05,0,9.703,0,9.703,0V767z M902,767v-8c0,0,0.991,0,1.482,0c1.891,0,3.785,0.214,5.676,0.196
				c2.135-0.019,4.318,0.174,5.669,2.092c0.07,0.104,0.271,0.376,0.516,0.877c0.562,1.167,1.354,4.834,1.313,4.834
				C910.869,767,907,767,902,767z"/>
			<path fill="#183356" d="M893.361,773.998c-3.466,0-6.285,2.82-6.285,6.286c0,0.157,0.012,0.311,0.023,0.464
				c0.239,3.25,2.953,5.821,6.262,5.821c3.298,0,6.006-2.555,6.26-5.79c0.014-0.164,0.025-0.329,0.025-0.496
				C899.646,776.818,896.827,773.998,893.361,773.998z M893.361,783.931c-1.854,0-3.367-1.388-3.6-3.177
				c-0.021-0.155-0.048-0.31-0.048-0.471c0-2.014,1.632-3.647,3.647-3.647c2.013,0,3.646,1.633,3.646,3.647
				c0,0.167-0.027,0.327-0.049,0.488C896.717,782.552,895.207,783.931,893.361,783.931z"/>
		</g>
	</g>
	<path fill="#DFF1F2" d="M1281,604h-276.75c-4.004,0-8.25,2.247-8.25,6.25v0.5c0,4.004,4.246,8.25,8.25,8.25h17.375
		c4.004,0,6.375,2.247,6.375,6.25v0.5c0,4.004-2.996,7.25-7,7.25l-28.125-0.125c-4.004,0-7.875,3.372-7.875,7.375v0.5
		c0,4.004,4.246,8.25,8.25,8.25h12.5c4.004,0,6.25,2.247,6.25,6.25v0.5c0,4.004-2.246,8.25-6.25,8.25h-2.375
		c-4.004,0-8.375,2.247-8.375,6.25v0.5c0,4.004,4.246,8.25,8.25,8.25h57.375c4.004,0,6.375,2.247,6.375,6.25v0.5
		c0,4.004-2.246,8.25-6.25,8.25h-10.375c-4.004,0-8.375,2.247-8.375,6.25v0.5c0,4.004,3.496,7.25,7.5,7.25l44.625-0.125
		c4.004,0,6.875,3.372,6.875,7.375v0.5c0,4.004-2.246,8.25-6.25,8.25h-1.5c-4.004,0-8.25,2.247-8.25,6.25v0.5
		c0,4.875,4.246,8.25,8.25,8.25h25h5.375c4.004,0,7.375,3.247,7.375,7.25v0.5c0,4.004-3.246,7.25-7.25,7.25l-30.375-0.125
		c-4.004,0-7.375,3.372-7.375,7.375v0.5c0,4.004,3.246,7.25,7.25,7.25h15.5c4.004,0,7.25,3.247,7.25,7.25v0.5
		c0,4.004-3.246,7.25-7.25,7.25h-2.375c-4.004,0-7.375,3.247-7.375,7.25v0.5c0,4.004,3.246,7.25,7.25,7.25h49.375
		c4.004,0,7.375,3.247,7.375,7.25v0.5c0,4.004-3.246,7.25-7.25,7.25h-4.375c-4.004,0-7.375,3.247-7.375,7.25v0.5
		c0,4.004,3.184,7.25,7.188,7.25H1281V604z"/>
	<g>
		<ellipse fill="#BED77A" cx="177.619" cy="675.634" rx="10.724" ry="19.132"/>
		<path fill="#183356" d="M172.783,698.576h9.398C182.182,698.576,178.258,694.213,172.783,698.576z"/>
		<g>
			<path fill="#183356" d="M177.78,698.605c-0.22,0-0.396-0.178-0.396-0.398v-30.453c0-0.219,0.177-0.396,0.396-0.396
				s0.396,0.177,0.396,0.396v30.453C178.177,698.427,178,698.605,177.78,698.605z"/>
		</g>
		<g>
			<path fill="#183356" d="M177.725,691.4c-0.062,0-0.127-0.016-0.188-0.048l-5.973-3.202c-0.193-0.104-0.268-0.345-0.163-0.538
				c0.103-0.193,0.345-0.267,0.539-0.162l5.974,3.2c0.192,0.106,0.266,0.345,0.162,0.54
				C178.005,691.323,177.866,691.4,177.725,691.4z"/>
		</g>
		<g>
			<path fill="#183356" d="M178.03,687.417c-0.116,0-0.231-0.05-0.312-0.15c-0.137-0.17-0.107-0.422,0.064-0.558l7.02-5.565
				c0.172-0.137,0.422-0.106,0.557,0.065c0.137,0.171,0.108,0.421-0.063,0.557l-7.019,5.567
				C178.205,687.391,178.117,687.417,178.03,687.417z"/>
		</g>
		<g>
			<path fill="#183356" d="M177.766,682.634c-0.064,0-0.129-0.015-0.188-0.048l-5.575-2.992c-0.193-0.104-0.265-0.344-0.161-0.538
				c0.104-0.193,0.346-0.267,0.538-0.162l5.574,2.991c0.194,0.105,0.268,0.346,0.162,0.539
				C178.043,682.558,177.908,682.634,177.766,682.634z"/>
		</g>
		<g>
			<path fill="#183356" d="M177.75,675.717c-0.062,0-0.128-0.016-0.188-0.048l-3.758-2.017c-0.192-0.104-0.266-0.343-0.161-0.537
				c0.104-0.193,0.345-0.266,0.537-0.163l3.757,2.018c0.194,0.103,0.268,0.345,0.163,0.536
				C178.028,675.641,177.891,675.717,177.75,675.717z"/>
		</g>
		<g>
			<path fill="#183356" d="M177.938,678.811c-0.091,0-0.184-0.031-0.261-0.098c-0.165-0.145-0.183-0.395-0.038-0.561l4.148-4.767
				c0.145-0.167,0.395-0.182,0.561-0.038c0.164,0.143,0.183,0.395,0.038,0.559l-4.148,4.768
				C178.16,678.764,178.049,678.811,177.938,678.811z"/>
		</g>
		<g>
			<path fill="#183356" d="M177.948,672.598c-0.091,0-0.185-0.032-0.261-0.098c-0.165-0.143-0.182-0.394-0.038-0.559l3.018-3.467
				c0.145-0.167,0.396-0.183,0.559-0.04c0.166,0.145,0.185,0.397,0.04,0.562l-3.019,3.466
				C178.17,672.551,178.059,672.598,177.948,672.598z"/>
		</g>
	</g>
	<g>
		<path fill="#183356" d="M778.549,604.243h31.105C809.654,604.243,796.662,589.797,778.549,604.243z"/>
	</g>
	<path fill="#CFEAEC" d="M305.476,782H383c0,0-10.571-9.69-29.953-4.405C353.047,777.595,331.904,761,305.476,782z"/>
	<path fill="#AFDCDF" d="M284.333,784h68.714c0,0-14.976-6.167-26.428-3.523C326.619,780.477,304.595,771.667,284.333,784z"/>
	<rect x="51.28" y="98.507" fill="none" width="1177.441" height="151.49"/>
	<text transform="matrix(1 0 0 1 90.0684 135.7549)"><tspan x="0" y="0" fill="#183356" font-family="'Ubuntu-Bold'" font-size="40" letter-spacing="1">LES ÉNERGIES RENOUVELABLES EN PAYS DE LA LOIRE</tspan><tspan x="1100.859" y="0" fill="#183356" font-family="'Ubuntu-Bold'" font-size="48" letter-spacing="1"> </tspan><tspan x="264.468" y="55" fill="#AECD58" font-family="'Ubuntu-Medium'" font-size="33">TOUT CE QUE VOUS DEVEZ SAVOIR</tspan></text>
	<path fill="none" stroke="#183356" stroke-width="2" stroke-miterlimit="10" d="M1231,73"/>
	<path fill="none" stroke="#183356" stroke-width="2" stroke-miterlimit="10" d="M46,73"/>
	<path fill="#CFEAEC" d="M435.957,605h259.377c0,0-61.145-62.205-151.824-21.085C543.51,583.915,470.746,571.797,435.957,605z"/>
	<polygon fill="#183356" points="917.522,650.84 919.714,650.836 903.121,636.208 885.683,650.836 887.875,650.84 903.121,638.406 	
		"/>
	<polygon opacity="0.5" fill="#F9F6F5" points="797.112,753.883 814.082,736.583 818.572,736.499 801.609,753.795 	"/>
	<polygon opacity="0.5" fill="#F9F6F5" points="744.112,753.883 761.082,736.583 765.572,736.499 748.609,753.795 	"/>
	<polygon opacity="0.5" fill="#F9F6F5" points="781.112,724.883 798.082,707.583 802.572,707.499 785.609,724.795 	"/>
	<g>
		<g>
			<path fill="#7A1E72" d="M123.967,767.253h-0.506c-0.045,0-0.062-0.043-0.083-0.084l-0.597-1.109h-0.059
				c-0.107,0-0.273-0.012-0.369-0.016v1.125c0,0.047-0.031,0.084-0.078,0.084h-0.416c-0.045,0-0.082-0.037-0.082-0.084v-2.852
				c0-0.085,0.049-0.113,0.133-0.125c0.215-0.034,0.51-0.055,0.812-0.055c0.64,0,1.194,0.228,1.194,0.938v0.038
				c0,0.438-0.221,0.713-0.56,0.845l0.65,1.211c0.01,0.012,0.01,0.025,0.01,0.034C124.018,767.23,123.998,767.253,123.967,767.253
				 M123.346,765.075c0-0.312-0.21-0.443-0.623-0.443c-0.087,0-0.293,0.009-0.369,0.015v0.934c0.066,0.006,0.299,0.013,0.369,0.013
				c0.427,0,0.623-0.117,0.623-0.48V765.075z"/>
			<path fill="#7A1E72" d="M126.264,766.274h-1.354v0.012c0,0.24,0.102,0.526,0.497,0.526c0.304,0,0.589-0.025,0.765-0.042
				c0.004,0,0.007,0,0.012,0c0.042,0,0.076,0.019,0.076,0.06v0.275c0,0.066-0.014,0.096-0.088,0.11
				c-0.27,0.049-0.43,0.069-0.805,0.069c-0.416,0-1.002-0.223-1.002-1.04v-0.307c0-0.648,0.359-1.054,0.992-1.054
				c0.639,0,0.988,0.434,0.988,1.054v0.231C126.346,766.235,126.32,766.274,126.264,766.274 M125.795,765.867
				c0-0.324-0.18-0.51-0.438-0.51c-0.255,0-0.443,0.183-0.443,0.51v0.018h0.881V765.867z M126.039,764.083l-0.49,0.514
				c-0.033,0.039-0.049,0.055-0.098,0.055h-0.357c-0.025,0-0.037-0.012-0.037-0.03c0-0.012,0.003-0.028,0.017-0.041l0.394-0.498
				c0.037-0.045,0.054-0.062,0.108-0.062h0.435c0.029,0,0.047,0.014,0.047,0.029C126.057,764.058,126.05,764.071,126.039,764.083z"
				/>
			<path fill="#7A1E72" d="M128.867,765.29l-0.136,0.054c0.064,0.096,0.103,0.187,0.103,0.332v0.029
				c0,0.518-0.357,0.755-0.982,0.755c-0.221,0-0.371-0.038-0.45-0.07c-0.052,0.032-0.071,0.07-0.071,0.108
				c0,0.082,0.044,0.115,0.139,0.135l0.49,0.118c0.563,0.134,0.93,0.22,0.93,0.663v0.029c0,0.424-0.312,0.65-1.018,0.65
				c-0.67,0-1.028-0.253-1.028-0.688v-0.037c0-0.169,0.081-0.334,0.212-0.455c-0.115-0.086-0.187-0.233-0.187-0.381v-0.004
				c0-0.128,0.056-0.257,0.166-0.336c-0.124-0.13-0.171-0.279-0.171-0.485v-0.029c0-0.416,0.271-0.763,0.988-0.763h0.971
				c0.062,0,0.111,0.049,0.111,0.111v0.175C128.934,765.26,128.918,765.27,128.867,765.29 M128.34,767.413
				c0-0.091-0.053-0.146-0.488-0.249l-0.371-0.087c-0.061,0.087-0.101,0.143-0.101,0.29v0.037c0,0.171,0.101,0.274,0.491,0.274
				c0.398,0,0.469-0.086,0.469-0.236V767.413z M128.295,765.684c0-0.198-0.086-0.352-0.443-0.352c-0.352,0-0.447,0.158-0.447,0.352
				v0.034c0,0.154,0.062,0.326,0.447,0.326c0.345,0,0.443-0.119,0.443-0.326V765.684z"/>
			<path fill="#7A1E72" d="M129.891,764.603h-0.4c-0.047,0-0.089-0.039-0.089-0.085v-0.364c0-0.045,0.042-0.083,0.089-0.083h0.4
				c0.049,0,0.084,0.038,0.084,0.083v0.364C129.975,764.563,129.939,764.603,129.891,764.603 M129.879,767.253h-0.381
				c-0.045,0-0.084-0.043-0.084-0.089v-2.168c0-0.046,0.039-0.083,0.084-0.083h0.381c0.045,0,0.084,0.036,0.084,0.083v2.168
				C129.963,767.21,129.924,767.253,129.879,767.253z"/>
			<path fill="#7A1E72" d="M131.518,767.285c-0.651,0-0.992-0.44-0.992-1.032v-0.338c0-0.589,0.341-1.03,0.992-1.03
				c0.65,0,0.99,0.441,0.99,1.03v0.338C132.508,766.845,132.168,767.285,131.518,767.285 M131.959,765.915
				c0-0.339-0.152-0.558-0.441-0.558s-0.443,0.218-0.443,0.558v0.338c0,0.339,0.154,0.56,0.443,0.56s0.441-0.221,0.441-0.56V765.915
				z"/>
			<path fill="#7A1E72" d="M134.895,767.253h-0.383c-0.046,0-0.084-0.043-0.084-0.089v-1.353c0-0.358-0.033-0.462-0.353-0.462
				c-0.142,0-0.294,0.055-0.467,0.148v1.667c0,0.046-0.04,0.089-0.084,0.089h-0.383c-0.046,0-0.081-0.043-0.081-0.089v-2.168
				c0-0.046,0.035-0.083,0.081-0.083h0.362c0.045,0,0.082,0.036,0.082,0.083v0.086c0.242-0.152,0.398-0.197,0.674-0.197
				c0.595,0,0.717,0.403,0.717,0.927v1.353C134.977,767.21,134.938,767.253,134.895,767.253"/>
			<path fill="#005CA5" d="M137.354,770.19c0.01-0.027,0.02-0.046,0.02-0.073c0-0.077-0.066-0.141-0.162-0.141h-1.035
				c-0.083,0-0.15,0.073-0.178,0.15l-1.13,2.804c-0.065,0.159-0.122,0.189-0.169,0.189c-0.037,0-0.094-0.03-0.159-0.189
				l-1.131-2.804c-0.027-0.077-0.093-0.15-0.179-0.15h-1.043c-0.096,0-0.152,0.064-0.152,0.141c0,0.017,0.01,0.045,0.02,0.073
				l0.958,2.202c0.001,0.001,0.002,0.001,0.002,0.003l1.036,2.381v2.002c0,0.103,0.074,0.186,0.179,0.186h0.939
				c0.104,0,0.179-0.083,0.179-0.186v-2.002l0.607-1.392L137.354,770.19"/>
			<path fill="#005CA5" d="M123.924,774.36c-0.244,0-0.622-0.03-0.838-0.039v2.457c0,0.103-0.078,0.186-0.18,0.186h-0.941
				c-0.104,0-0.188-0.083-0.188-0.186v-6.475c0-0.187,0.111-0.255,0.301-0.283c0.49-0.074,1.158-0.123,1.846-0.123
				c1.449,0,2.711,0.511,2.711,2.176v0.083C126.635,773.825,125.373,774.36,123.924,774.36 M125.336,772.074
				c0-0.792-0.471-1.092-1.412-1.092c-0.198,0-0.668,0.018-0.838,0.037v2.239c0.15,0.011,0.677,0.029,0.838,0.029
				c1.016,0,1.412-0.375,1.412-1.13V772.074z"/>
			<path fill="#005CA5" d="M132.176,776.965h-0.997c-0.083,0-0.159-0.072-0.179-0.157l-0.432-1.79h-2.166l-0.434,1.79
				c-0.018,0.085-0.094,0.157-0.18,0.157h-0.996c-0.095,0-0.172-0.063-0.172-0.157c0-0.01,0.01-0.029,0.01-0.047l1.545-5.902
				c0.227-0.874,0.904-0.96,1.31-0.96c0.403,0,1.083,0.086,1.31,0.96l1.543,5.902c0,0.018,0.01,0.037,0.01,0.047
				C132.348,776.902,132.27,776.965,132.176,776.965 M129.635,771.15c-0.027-0.111-0.056-0.15-0.149-0.15
				c-0.096,0-0.124,0.039-0.151,0.15l-0.678,2.797h1.656L129.635,771.15z"/>
			<path fill="#005CA5" d="M139.945,777.042c-0.703,0-1.211-0.065-1.662-0.168c-0.096-0.019-0.181-0.085-0.181-0.188v-0.679
				c0-0.103,0.085-0.179,0.181-0.179c0.009,0,0.009,0,0.018,0c0.377,0.048,1.318,0.095,1.668,0.095c0.836,0,1.09-0.301,1.09-0.845
				c0-0.371-0.178-0.556-0.799-0.922l-1.244-0.745c-0.875-0.517-1.11-1.064-1.11-1.724c0-1.033,0.603-1.788,2.354-1.788
				c0.621,0,1.486,0.097,1.806,0.17c0.095,0.018,0.171,0.084,0.171,0.18v0.696c0,0.094-0.068,0.169-0.16,0.169
				c-0.011,0-0.011,0-0.02,0c-0.621-0.058-1.243-0.095-1.854-0.095c-0.696,0-0.987,0.244-0.987,0.667
				c0,0.311,0.158,0.501,0.771,0.839l1.132,0.63c1.034,0.575,1.307,1.175,1.307,1.922
				C142.424,776.027,141.83,777.042,139.945,777.042"/>
			<path fill="#005CA5" d="M148.006,777.042c-0.67,0-1.572-0.065-1.855-0.112c-0.159-0.028-0.243-0.103-0.243-0.292v-6.333
				c0-0.187,0.084-0.264,0.243-0.291c0.283-0.048,1.186-0.115,1.855-0.115c1.881,0,2.956,1.017,2.956,2.878v1.387
				C150.962,776.027,149.887,777.042,148.006,777.042 M149.661,772.776c0-1.409-0.714-1.776-1.655-1.776
				c-0.348,0-0.594,0.019-0.79,0.026v4.887c0.196,0.009,0.442,0.029,0.79,0.029c0.941,0,1.655-0.367,1.655-1.778V772.776z"/>
			<path fill="#005CA5" d="M155.996,776.911c-0.301,0.047-0.668,0.13-1.787,0.13c-1.226,0-2.176-0.326-2.176-1.927v-3.288
				c0-1.599,0.95-1.929,2.176-1.929c1.119,0,1.486,0.086,1.787,0.132c0.143,0.019,0.189,0.067,0.189,0.198v0.602
				c0,0.106-0.085,0.189-0.189,0.189h-1.922c-0.544,0-0.742,0.188-0.742,0.808v1.019h2.551c0.104,0,0.189,0.084,0.189,0.189v0.677
				c0,0.105-0.085,0.187-0.189,0.187h-2.551v1.217c0,0.621,0.198,0.808,0.742,0.808h1.922c0.104,0,0.189,0.084,0.189,0.188v0.605
				C156.186,776.845,156.139,776.893,155.996,776.911"/>
			<path fill="#005CA5" d="M163.582,776.911c-0.283,0.065-1.1,0.13-1.598,0.13c-1.229,0-2.176-0.326-2.176-1.927v-4.952
				c0-0.103,0.084-0.187,0.188-0.187h0.933c0.103,0,0.188,0.083,0.188,0.187v4.952c0,0.621,0.188,0.808,0.734,0.808h1.73
				c0.104,0,0.189,0.084,0.189,0.188v0.605C163.771,776.845,163.723,776.882,163.582,776.911"/>
			<path fill="#005CA5" d="M169.693,776.965h-0.998c-0.087,0-0.16-0.072-0.182-0.157l-0.43-1.79h-2.166l-0.435,1.79
				c-0.019,0.085-0.095,0.157-0.178,0.157h-0.997c-0.096,0-0.169-0.063-0.169-0.157c0-0.01,0.009-0.029,0.009-0.047l1.543-5.902
				c0.227-0.874,0.902-0.96,1.309-0.96c0.404,0,1.084,0.086,1.309,0.96l1.543,5.902c0,0.018,0.01,0.037,0.01,0.047
				C169.861,776.902,169.786,776.965,169.693,776.965 M167.15,771.15c-0.029-0.111-0.057-0.15-0.15-0.15
				c-0.095,0-0.122,0.039-0.149,0.15l-0.68,2.797h1.657L167.15,771.15z"/>
			<path fill="#005CA5" d="M176.875,776.911c-0.283,0.065-1.102,0.13-1.6,0.13c-1.226,0-2.176-0.326-2.176-1.927v-4.952
				c0-0.103,0.084-0.187,0.188-0.187h0.931c0.105,0,0.188,0.083,0.188,0.187v4.952c0,0.621,0.19,0.808,0.737,0.808h1.731
				c0.104,0,0.187,0.084,0.187,0.188v0.605C177.062,776.845,177.015,776.882,176.875,776.911"/>
			<path fill="#005CA5" d="M180.12,777.042c-1.555,0-2.685-0.865-2.685-2.936v-1.271c0-2.069,1.13-2.937,2.685-2.937
				c1.554,0,2.683,0.867,2.683,2.937v1.271C182.803,776.177,181.674,777.042,180.12,777.042 M181.485,772.834
				c0-1.242-0.443-1.796-1.365-1.796c-0.923,0-1.364,0.554-1.364,1.796v1.271c0,1.244,0.441,1.798,1.364,1.798
				c0.922,0,1.365-0.554,1.365-1.798V772.834z"/>
			<path fill="#005CA5" d="M185.146,776.965h-0.932c-0.105,0-0.189-0.083-0.189-0.186v-6.626c0-0.104,0.084-0.176,0.189-0.176h0.932
				c0.103,0,0.188,0.073,0.188,0.176v6.626C185.334,776.882,185.249,776.965,185.146,776.965"/>
			<path fill="#005CA5" d="M191.715,776.965h-1.149c-0.101,0-0.14-0.091-0.186-0.186l-1.355-2.511h-0.132
				c-0.247,0-0.621-0.03-0.84-0.04v2.551c0,0.103-0.074,0.186-0.178,0.186h-0.939c-0.104,0-0.189-0.083-0.189-0.186v-6.475
				c0-0.187,0.113-0.255,0.301-0.283c0.49-0.074,1.156-0.123,1.846-0.123c1.45,0,2.711,0.52,2.711,2.128v0.084
				c0,0.998-0.5,1.62-1.271,1.92l1.479,2.748c0.018,0.029,0.018,0.058,0.018,0.076C191.828,776.919,191.79,776.965,191.715,776.965
				 M190.305,772.026c0-0.708-0.471-1.007-1.412-1.007c-0.197,0-0.67,0.02-0.84,0.038v2.119c0.15,0.01,0.68,0.029,0.84,0.029
				c0.969,0,1.412-0.265,1.412-1.093V772.026z"/>
			<path fill="#005CA5" d="M196.619,776.911c-0.303,0.047-0.668,0.13-1.789,0.13c-1.225,0-2.176-0.326-2.176-1.927v-3.288
				c0-1.599,0.951-1.929,2.176-1.929c1.121,0,1.486,0.086,1.789,0.132c0.142,0.019,0.188,0.067,0.188,0.198v0.602
				c0,0.106-0.084,0.189-0.188,0.189h-1.922c-0.545,0-0.744,0.188-0.744,0.808v1.019h2.551c0.105,0,0.189,0.084,0.189,0.189v0.677
				c0,0.105-0.084,0.187-0.189,0.187h-2.551v1.217c0,0.621,0.199,0.808,0.744,0.808h1.922c0.104,0,0.188,0.084,0.188,0.188v0.605
				C196.807,776.845,196.761,776.893,196.619,776.911"/>
			<path fill="#009CB9" d="M110.92,773.468c0-5.243-2.033-10.006-5.356-13.583h-4.521c4.075,3.14,6.702,8.053,6.702,13.583
				c0,5.538-2.627,10.45-6.706,13.585h4.524C108.887,783.482,110.92,778.713,110.92,773.468"/>
			<path fill="#BDD143" d="M113.211,773.536c0-5.076-1.613-9.786-4.36-13.65h6.249c2.292,4.037,3.601,8.694,3.601,13.65
				c0,4.906-1.281,9.518-3.521,13.518h-6.244C111.633,783.22,113.211,778.565,113.211,773.536"/>
			<path fill="#009CB9" d="M37.627,775.476h-0.318c-0.061,0-0.109-0.056-0.109-0.124v-4.341c0-0.06,0.043-0.115,0.109-0.115h0.318
				c0.061,0,0.109,0.049,0.109,0.115v4.341C37.736,775.413,37.693,775.476,37.627,775.476"/>
			<path fill="#009CB9" d="M39.501,771.011l-0.353,1.15c-0.025,0.087-0.056,0.116-0.117,0.116h-0.285
				c-0.042,0-0.055-0.024-0.055-0.061c0-0.017,0-0.036,0.006-0.055l0.279-1.15c0.019-0.084,0.062-0.115,0.123-0.115h0.341
				c0.042,0,0.066,0.025,0.066,0.066C39.507,770.976,39.507,770.994,39.501,771.011"/>
			<path fill="#009CB9" d="M42.868,773.972h-2.04v0.084c0,0.724,0.287,0.991,0.847,0.991c0.353,0,0.803-0.025,1.083-0.065
				c0.013,0,0.018,0,0.031,0c0.049,0,0.098,0.023,0.098,0.086v0.205c0,0.079-0.025,0.123-0.123,0.14
				c-0.347,0.066-0.682,0.104-1.089,0.104c-0.7,0-1.382-0.331-1.382-1.461v-0.549c0-0.87,0.48-1.425,1.351-1.425
				c0.89,0,1.339,0.559,1.339,1.425v0.33C42.982,773.915,42.94,773.972,42.868,773.972 M42.441,773.507
				c0-0.689-0.262-0.955-0.798-0.955c-0.522,0-0.815,0.299-0.815,0.955v0.055h1.613V773.507z"/>
			<path fill="#009CB9" d="M44.998,775.517c-0.225,0-0.663-0.02-0.961-0.09c-0.08-0.02-0.129-0.057-0.129-0.125v-0.21
				c0-0.057,0.049-0.094,0.109-0.094c0.013,0,0.02,0,0.025,0c0.292,0.037,0.736,0.071,0.955,0.071c0.396,0,0.604-0.105,0.604-0.435
				c0-0.183-0.11-0.298-0.457-0.505l-0.615-0.368c-0.371-0.222-0.621-0.486-0.621-0.867c0-0.633,0.476-0.811,1.102-0.811
				c0.342,0,0.664,0.03,0.951,0.079c0.078,0.014,0.115,0.055,0.115,0.122v0.202c0,0.073-0.043,0.104-0.104,0.104
				c-0.006,0-0.012,0-0.018,0c-0.213-0.019-0.604-0.049-0.945-0.049c-0.34,0-0.564,0.042-0.564,0.354
				c0,0.181,0.139,0.297,0.419,0.461l0.603,0.361c0.506,0.298,0.67,0.559,0.67,0.918C46.137,775.255,45.68,775.517,44.998,775.517"
				/>
			<path fill="#009CB9" d="M48.408,775.517c-0.189,0-0.475-0.024-0.713-0.066v1.102c0,0.06-0.049,0.114-0.115,0.114H47.27
				c-0.061,0-0.109-0.047-0.109-0.114v-4.189c0-0.08,0.018-0.115,0.127-0.139c0.323-0.081,0.75-0.142,1.121-0.142
				c0.907,0,1.327,0.59,1.327,1.505v0.437C49.735,774.982,49.297,775.517,48.408,775.517 M49.199,773.587
				c0-0.64-0.188-1.053-0.791-1.053c-0.256,0-0.542,0.029-0.713,0.059v2.411c0.2,0.037,0.518,0.063,0.713,0.063
				c0.596,0,0.791-0.392,0.791-1.044V773.587z"/>
			<path fill="#009CB9" d="M52.134,772.546c-0.28,0-0.536,0.073-0.841,0.255v2.551c0,0.062-0.055,0.124-0.121,0.124h-0.299
				c-0.061,0-0.115-0.056-0.115-0.124v-3.104c0-0.068,0.048-0.122,0.115-0.122h0.287c0.066,0,0.115,0.054,0.115,0.122v0.125
				c0.305-0.212,0.584-0.291,0.858-0.291c0.085,0,0.128,0.036,0.128,0.11v0.248C52.262,772.508,52.219,772.546,52.134,772.546"/>
			<path fill="#009CB9" d="M53.638,771.59h-0.312c-0.066,0-0.121-0.055-0.121-0.123v-0.485c0-0.069,0.055-0.124,0.121-0.124h0.312
				c0.067,0,0.122,0.055,0.122,0.124v0.485C53.76,771.535,53.705,771.59,53.638,771.59 M53.625,775.476h-0.291
				c-0.067,0-0.123-0.056-0.123-0.124v-3.104c0-0.068,0.056-0.122,0.123-0.122h0.291c0.067,0,0.123,0.054,0.123,0.122v3.104
				C53.748,775.419,53.692,775.476,53.625,775.476z"/>
			<path fill="#009CB9" d="M56.621,775.486c-0.121,0.019-0.281,0.031-0.396,0.031c-0.56,0-0.826-0.146-0.826-0.816v-2.124
				l-0.592-0.069c-0.067-0.005-0.115-0.042-0.115-0.108v-0.165c0-0.069,0.048-0.109,0.115-0.109h0.592v-0.598
				c0-0.061,0.041-0.109,0.107-0.122l0.317-0.048c0.006,0,0.012,0,0.019,0c0.049,0,0.091,0.043,0.091,0.103v0.665h0.657
				c0.068,0,0.121,0.054,0.121,0.122v0.208c0,0.067-0.053,0.122-0.121,0.122h-0.657v2.124c0,0.333,0.085,0.382,0.329,0.382h0.342
				c0.084,0,0.126,0.026,0.126,0.085v0.214C56.729,775.438,56.701,775.476,56.621,775.486"/>
			<path fill="#009CB9" d="M62.07,772.535l-0.22,0.042c0.109,0.113,0.206,0.296,0.206,0.626v0.048c0,0.669-0.414,1.04-1.35,1.04
				c-0.324,0-0.531-0.046-0.708-0.122c-0.104,0.05-0.151,0.118-0.151,0.208c0,0.104,0.048,0.159,0.188,0.195l0.907,0.233
				c0.596,0.152,1.169,0.32,1.169,0.896v0.046c0,0.586-0.39,0.945-1.388,0.945c-0.963,0-1.4-0.374-1.4-0.97v-0.054
				c0-0.342,0.182-0.622,0.383-0.774l-0.041-0.017c-0.196-0.084-0.281-0.286-0.281-0.476v-0.007c0-0.164,0.079-0.339,0.25-0.438
				c-0.189-0.177-0.281-0.395-0.281-0.706v-0.048c0-0.542,0.305-1.078,1.354-1.078h1.332c0.073,0,0.141,0.061,0.141,0.134v0.158
				C62.18,772.498,62.137,772.522,62.07,772.535 M61.576,775.701c0-0.24-0.193-0.338-0.742-0.476l-0.689-0.178
				c-0.176,0.154-0.297,0.304-0.297,0.622v0.054c0,0.343,0.201,0.556,0.877,0.556c0.694,0,0.852-0.195,0.852-0.531V775.701z
				 M61.527,773.204c0-0.364-0.164-0.651-0.82-0.651c-0.684,0-0.822,0.311-0.822,0.651v0.048c0,0.267,0.121,0.622,0.822,0.622
				c0.656,0,0.82-0.255,0.82-0.622V773.204z"/>
			<path fill="#009CB9" d="M64.492,772.546c-0.279,0-0.535,0.073-0.84,0.255v2.551c0,0.062-0.055,0.124-0.121,0.124h-0.299
				c-0.061,0-0.115-0.056-0.115-0.124v-3.104c0-0.068,0.049-0.122,0.115-0.122h0.286c0.067,0,0.115,0.054,0.115,0.122v0.125
				c0.306-0.212,0.585-0.291,0.858-0.291c0.086,0,0.129,0.036,0.129,0.11v0.248C64.621,772.508,64.578,772.546,64.492,772.546"/>
			<path fill="#009CB9" d="M67.55,775.476h-0.281c-0.066,0-0.122-0.056-0.122-0.124v-0.134c-0.291,0.17-0.596,0.299-0.938,0.299
				c-0.518,0-0.992-0.226-0.992-0.986v-0.075c0-0.656,0.384-0.985,1.467-0.985h0.452v-0.243c0-0.511-0.179-0.688-0.653-0.688
				c-0.395,0-0.688,0.024-0.93,0.049c-0.014,0-0.02,0-0.032,0c-0.055,0-0.108-0.019-0.108-0.098v-0.214
				c0-0.064,0.043-0.102,0.127-0.116c0.25-0.042,0.53-0.079,0.943-0.079c0.848,0,1.188,0.426,1.188,1.145v2.124
				C67.67,775.419,67.615,775.476,67.55,775.476 M67.136,773.854h-0.452c-0.736,0-0.932,0.164-0.932,0.597v0.074
				c0,0.438,0.207,0.555,0.56,0.555c0.28,0,0.53-0.086,0.824-0.246V773.854z"/>
			<path fill="#009CB9" d="M71.244,775.476h-0.293c-0.065,0-0.121-0.056-0.121-0.124v-2.002c0-0.615-0.207-0.803-0.67-0.803
				c-0.256,0-0.541,0.096-0.82,0.237v2.569c0,0.062-0.057,0.124-0.123,0.124h-0.298c-0.062,0-0.117-0.056-0.117-0.124v-3.104
				c0-0.068,0.05-0.122,0.117-0.122h0.304c0.066,0,0.117,0.054,0.117,0.122v0.115c0.334-0.188,0.607-0.28,0.967-0.28
				c0.73,0,1.06,0.457,1.06,1.267v2.002C71.366,775.419,71.312,775.476,71.244,775.476"/>
			<path fill="#009CB9" d="M74.836,775.413c-0.377,0.073-0.748,0.104-1.119,0.104c-0.908,0-1.328-0.591-1.328-1.504v-0.438
				c0-0.956,0.439-1.493,1.328-1.493c0.188,0,0.474,0.017,0.711,0.061v-1.133c0-0.06,0.049-0.115,0.115-0.115h0.312
				c0.061,0,0.109,0.049,0.109,0.115v4.262C74.965,775.352,74.945,775.396,74.836,775.413 M74.428,772.594
				c-0.201-0.036-0.518-0.042-0.711-0.042c-0.598,0-0.792,0.37-0.792,1.023v0.438c0,0.663,0.188,1.034,0.792,1.034
				c0.205,0,0.504-0.02,0.711-0.037V772.594z"/>
			<path fill="#009CB9" d="M79.146,775.517c-0.896,0-1.352-0.591-1.352-1.486v-0.462c0-0.896,0.456-1.486,1.352-1.486
				c0.895,0,1.357,0.59,1.357,1.486v0.462C80.504,774.926,80.041,775.517,79.146,775.517 M79.969,773.568
				c0-0.621-0.25-1.016-0.822-1.016c-0.566,0-0.816,0.39-0.816,1.016v0.462c0,0.622,0.245,1.017,0.816,1.017
				c0.566,0,0.822-0.389,0.822-1.017V773.568z"/>
			<path fill="#009CB9" d="M83.975,775.476H83.67c-0.066,0-0.117-0.056-0.117-0.124v-0.115c-0.334,0.191-0.607,0.281-0.967,0.281
				c-0.73,0-1.059-0.456-1.059-1.267v-2.002c0-0.068,0.055-0.122,0.122-0.122h0.292c0.066,0,0.121,0.054,0.121,0.122v2.002
				c0,0.615,0.207,0.803,0.669,0.803c0.257,0,0.543-0.096,0.821-0.237v-2.568c0-0.062,0.057-0.122,0.124-0.122h0.298
				c0.06,0,0.116,0.054,0.116,0.122v3.104C84.091,775.419,84.041,775.476,83.975,775.476"/>
			<path fill="#009CB9" d="M87.791,772.271l-0.822,2.897c-0.078,0.275-0.285,0.348-0.547,0.348s-0.469-0.073-0.547-0.348
				l-0.824-2.897c-0.004-0.019-0.004-0.03-0.004-0.042c0-0.063,0.035-0.104,0.096-0.104h0.336c0.049,0,0.09,0.035,0.115,0.116
				l0.7,2.653c0.036,0.147,0.067,0.178,0.128,0.178c0.055,0,0.091-0.031,0.129-0.178l0.698-2.653
				c0.025-0.081,0.067-0.116,0.116-0.116H87.7c0.061,0,0.098,0.041,0.098,0.104C87.798,772.242,87.798,772.253,87.791,772.271"/>
			<path fill="#009CB9" d="M91.097,773.972h-2.039v0.084c0,0.724,0.286,0.991,0.845,0.991c0.355,0,0.805-0.025,1.085-0.065
				c0.013,0,0.019,0,0.03,0c0.049,0,0.098,0.023,0.098,0.086v0.205c0,0.079-0.023,0.123-0.121,0.14
				c-0.346,0.066-0.682,0.104-1.092,0.104c-0.697,0-1.381-0.331-1.381-1.461v-0.549c0-0.87,0.48-1.425,1.352-1.425
				c0.889,0,1.34,0.559,1.34,1.425v0.33C91.213,773.915,91.17,773.972,91.097,773.972 M90.671,773.507
				c0-0.689-0.263-0.955-0.798-0.955c-0.523,0-0.815,0.299-0.815,0.955v0.055h1.613V773.507z"/>
			<path fill="#009CB9" d="M93.623,772.546c-0.279,0-0.534,0.073-0.84,0.255v2.551c0,0.062-0.054,0.124-0.123,0.124h-0.297
				c-0.061,0-0.115-0.056-0.115-0.124v-3.104c0-0.068,0.05-0.122,0.115-0.122h0.288c0.066,0,0.114,0.054,0.114,0.122v0.125
				c0.305-0.212,0.584-0.291,0.857-0.291c0.086,0,0.129,0.036,0.129,0.11v0.248C93.752,772.508,93.709,772.546,93.623,772.546"/>
			<path fill="#009CB9" d="M96.303,775.486c-0.121,0.019-0.279,0.031-0.395,0.031c-0.561,0-0.829-0.146-0.829-0.816v-2.124
				l-0.591-0.069c-0.067-0.005-0.114-0.042-0.114-0.108v-0.165c0-0.069,0.047-0.109,0.114-0.109h0.591v-0.598
				c0-0.061,0.042-0.109,0.109-0.122l0.316-0.048c0.007,0,0.013,0,0.019,0c0.049,0,0.092,0.043,0.092,0.103v0.665h0.658
				c0.066,0,0.121,0.054,0.121,0.122v0.208c0,0.067-0.055,0.122-0.121,0.122h-0.658v2.124c0,0.333,0.085,0.382,0.328,0.382h0.342
				c0.086,0,0.127,0.026,0.127,0.085v0.214C96.412,775.438,96.381,775.476,96.303,775.486"/>
		</g>
	</g>
	<g>
		<g>
			<path fill="#7A1E72" d="M123.967,767.253h-0.506c-0.045,0-0.062-0.043-0.083-0.084l-0.597-1.109h-0.059
				c-0.107,0-0.273-0.012-0.369-0.016v1.125c0,0.047-0.031,0.084-0.078,0.084h-0.416c-0.045,0-0.082-0.037-0.082-0.084v-2.852
				c0-0.085,0.049-0.113,0.133-0.125c0.215-0.034,0.51-0.055,0.812-0.055c0.64,0,1.194,0.228,1.194,0.938v0.038
				c0,0.438-0.221,0.713-0.56,0.845l0.65,1.211c0.01,0.012,0.01,0.025,0.01,0.034C124.018,767.23,123.998,767.253,123.967,767.253
				 M123.346,765.075c0-0.312-0.21-0.443-0.623-0.443c-0.087,0-0.293,0.009-0.369,0.015v0.934c0.066,0.006,0.299,0.013,0.369,0.013
				c0.427,0,0.623-0.117,0.623-0.48V765.075z"/>
			<path fill="#7A1E72" d="M126.264,766.274h-1.354v0.012c0,0.24,0.102,0.526,0.497,0.526c0.304,0,0.589-0.025,0.765-0.042
				c0.004,0,0.007,0,0.012,0c0.042,0,0.076,0.019,0.076,0.06v0.275c0,0.066-0.014,0.096-0.088,0.11
				c-0.27,0.049-0.43,0.069-0.805,0.069c-0.416,0-1.002-0.223-1.002-1.04v-0.307c0-0.648,0.359-1.054,0.992-1.054
				c0.639,0,0.988,0.434,0.988,1.054v0.231C126.346,766.235,126.32,766.274,126.264,766.274 M125.795,765.867
				c0-0.324-0.18-0.51-0.438-0.51c-0.255,0-0.443,0.183-0.443,0.51v0.018h0.881V765.867z M126.039,764.083l-0.49,0.514
				c-0.033,0.039-0.049,0.055-0.098,0.055h-0.357c-0.025,0-0.037-0.012-0.037-0.03c0-0.012,0.003-0.028,0.017-0.041l0.394-0.498
				c0.037-0.045,0.054-0.062,0.108-0.062h0.435c0.029,0,0.047,0.014,0.047,0.029C126.057,764.058,126.05,764.071,126.039,764.083z"
				/>
			<path fill="#7A1E72" d="M128.867,765.29l-0.136,0.054c0.064,0.096,0.103,0.187,0.103,0.332v0.029
				c0,0.518-0.357,0.755-0.982,0.755c-0.221,0-0.371-0.038-0.45-0.07c-0.052,0.032-0.071,0.07-0.071,0.108
				c0,0.082,0.044,0.115,0.139,0.135l0.49,0.118c0.563,0.134,0.93,0.22,0.93,0.663v0.029c0,0.424-0.312,0.65-1.018,0.65
				c-0.67,0-1.028-0.253-1.028-0.688v-0.037c0-0.169,0.081-0.334,0.212-0.455c-0.115-0.086-0.187-0.233-0.187-0.381v-0.004
				c0-0.128,0.056-0.257,0.166-0.336c-0.124-0.13-0.171-0.279-0.171-0.485v-0.029c0-0.416,0.271-0.763,0.988-0.763h0.971
				c0.062,0,0.111,0.049,0.111,0.111v0.175C128.934,765.26,128.918,765.27,128.867,765.29 M128.34,767.413
				c0-0.091-0.053-0.146-0.488-0.249l-0.371-0.087c-0.061,0.087-0.101,0.143-0.101,0.29v0.037c0,0.171,0.101,0.274,0.491,0.274
				c0.398,0,0.469-0.086,0.469-0.236V767.413z M128.295,765.684c0-0.198-0.086-0.352-0.443-0.352c-0.352,0-0.447,0.158-0.447,0.352
				v0.034c0,0.154,0.062,0.326,0.447,0.326c0.345,0,0.443-0.119,0.443-0.326V765.684z"/>
			<path fill="#7A1E72" d="M129.891,764.603h-0.4c-0.047,0-0.089-0.039-0.089-0.085v-0.364c0-0.045,0.042-0.083,0.089-0.083h0.4
				c0.049,0,0.084,0.038,0.084,0.083v0.364C129.975,764.563,129.939,764.603,129.891,764.603 M129.879,767.253h-0.381
				c-0.045,0-0.084-0.043-0.084-0.089v-2.168c0-0.046,0.039-0.083,0.084-0.083h0.381c0.045,0,0.084,0.036,0.084,0.083v2.168
				C129.963,767.21,129.924,767.253,129.879,767.253z"/>
			<path fill="#7A1E72" d="M131.518,767.285c-0.651,0-0.992-0.44-0.992-1.032v-0.338c0-0.589,0.341-1.03,0.992-1.03
				c0.65,0,0.99,0.441,0.99,1.03v0.338C132.508,766.845,132.168,767.285,131.518,767.285 M131.959,765.915
				c0-0.339-0.152-0.558-0.441-0.558s-0.443,0.218-0.443,0.558v0.338c0,0.339,0.154,0.56,0.443,0.56s0.441-0.221,0.441-0.56V765.915
				z"/>
			<path fill="#7A1E72" d="M134.895,767.253h-0.383c-0.046,0-0.084-0.043-0.084-0.089v-1.353c0-0.358-0.033-0.462-0.353-0.462
				c-0.142,0-0.294,0.055-0.467,0.148v1.667c0,0.046-0.04,0.089-0.084,0.089h-0.383c-0.046,0-0.081-0.043-0.081-0.089v-2.168
				c0-0.046,0.035-0.083,0.081-0.083h0.362c0.045,0,0.082,0.036,0.082,0.083v0.086c0.242-0.152,0.398-0.197,0.674-0.197
				c0.595,0,0.717,0.403,0.717,0.927v1.353C134.977,767.21,134.938,767.253,134.895,767.253"/>
			<path fill="#005CA5" d="M137.354,770.19c0.01-0.027,0.02-0.046,0.02-0.073c0-0.077-0.066-0.141-0.162-0.141h-1.035
				c-0.083,0-0.15,0.073-0.178,0.15l-1.13,2.804c-0.065,0.159-0.122,0.189-0.169,0.189c-0.037,0-0.094-0.03-0.159-0.189
				l-1.131-2.804c-0.027-0.077-0.093-0.15-0.179-0.15h-1.043c-0.096,0-0.152,0.064-0.152,0.141c0,0.017,0.01,0.045,0.02,0.073
				l0.958,2.202c0.001,0.001,0.002,0.001,0.002,0.003l1.036,2.381v2.002c0,0.103,0.074,0.186,0.179,0.186h0.939
				c0.104,0,0.179-0.083,0.179-0.186v-2.002l0.607-1.392L137.354,770.19"/>
			<path fill="#005CA5" d="M123.924,774.36c-0.244,0-0.622-0.03-0.838-0.039v2.457c0,0.103-0.078,0.186-0.18,0.186h-0.941
				c-0.104,0-0.188-0.083-0.188-0.186v-6.475c0-0.187,0.111-0.255,0.301-0.283c0.49-0.074,1.158-0.123,1.846-0.123
				c1.449,0,2.711,0.511,2.711,2.176v0.083C126.635,773.825,125.373,774.36,123.924,774.36 M125.336,772.074
				c0-0.792-0.471-1.092-1.412-1.092c-0.198,0-0.668,0.018-0.838,0.037v2.239c0.15,0.011,0.677,0.029,0.838,0.029
				c1.016,0,1.412-0.375,1.412-1.13V772.074z"/>
			<path fill="#005CA5" d="M132.176,776.965h-0.997c-0.083,0-0.159-0.072-0.179-0.157l-0.432-1.79h-2.166l-0.434,1.79
				c-0.018,0.085-0.094,0.157-0.18,0.157h-0.996c-0.095,0-0.172-0.063-0.172-0.157c0-0.01,0.01-0.029,0.01-0.047l1.545-5.902
				c0.227-0.874,0.904-0.96,1.31-0.96c0.403,0,1.083,0.086,1.31,0.96l1.543,5.902c0,0.018,0.01,0.037,0.01,0.047
				C132.348,776.902,132.27,776.965,132.176,776.965 M129.635,771.15c-0.027-0.111-0.056-0.15-0.149-0.15
				c-0.096,0-0.124,0.039-0.151,0.15l-0.678,2.797h1.656L129.635,771.15z"/>
			<path fill="#005CA5" d="M139.945,777.042c-0.703,0-1.211-0.065-1.662-0.168c-0.096-0.019-0.181-0.085-0.181-0.188v-0.679
				c0-0.103,0.085-0.179,0.181-0.179c0.009,0,0.009,0,0.018,0c0.377,0.048,1.318,0.095,1.668,0.095c0.836,0,1.09-0.301,1.09-0.845
				c0-0.371-0.178-0.556-0.799-0.922l-1.244-0.745c-0.875-0.517-1.11-1.064-1.11-1.724c0-1.033,0.603-1.788,2.354-1.788
				c0.621,0,1.486,0.097,1.806,0.17c0.095,0.018,0.171,0.084,0.171,0.18v0.696c0,0.094-0.068,0.169-0.16,0.169
				c-0.011,0-0.011,0-0.02,0c-0.621-0.058-1.243-0.095-1.854-0.095c-0.696,0-0.987,0.244-0.987,0.667
				c0,0.311,0.158,0.501,0.771,0.839l1.132,0.63c1.034,0.575,1.307,1.175,1.307,1.922
				C142.424,776.027,141.83,777.042,139.945,777.042"/>
			<path fill="#005CA5" d="M148.006,777.042c-0.67,0-1.572-0.065-1.855-0.112c-0.159-0.028-0.243-0.103-0.243-0.292v-6.333
				c0-0.187,0.084-0.264,0.243-0.291c0.283-0.048,1.186-0.115,1.855-0.115c1.881,0,2.956,1.017,2.956,2.878v1.387
				C150.962,776.027,149.887,777.042,148.006,777.042 M149.661,772.776c0-1.409-0.714-1.776-1.655-1.776
				c-0.348,0-0.594,0.019-0.79,0.026v4.887c0.196,0.009,0.442,0.029,0.79,0.029c0.941,0,1.655-0.367,1.655-1.778V772.776z"/>
			<path fill="#005CA5" d="M155.996,776.911c-0.301,0.047-0.668,0.13-1.787,0.13c-1.226,0-2.176-0.326-2.176-1.927v-3.288
				c0-1.599,0.95-1.929,2.176-1.929c1.119,0,1.486,0.086,1.787,0.132c0.143,0.019,0.189,0.067,0.189,0.198v0.602
				c0,0.106-0.085,0.189-0.189,0.189h-1.922c-0.544,0-0.742,0.188-0.742,0.808v1.019h2.551c0.104,0,0.189,0.084,0.189,0.189v0.677
				c0,0.105-0.085,0.187-0.189,0.187h-2.551v1.217c0,0.621,0.198,0.808,0.742,0.808h1.922c0.104,0,0.189,0.084,0.189,0.188v0.605
				C156.186,776.845,156.139,776.893,155.996,776.911"/>
			<path fill="#005CA5" d="M163.582,776.911c-0.283,0.065-1.1,0.13-1.598,0.13c-1.229,0-2.176-0.326-2.176-1.927v-4.952
				c0-0.103,0.084-0.187,0.188-0.187h0.933c0.103,0,0.188,0.083,0.188,0.187v4.952c0,0.621,0.188,0.808,0.734,0.808h1.73
				c0.104,0,0.189,0.084,0.189,0.188v0.605C163.771,776.845,163.723,776.882,163.582,776.911"/>
			<path fill="#005CA5" d="M169.693,776.965h-0.998c-0.087,0-0.16-0.072-0.182-0.157l-0.43-1.79h-2.166l-0.435,1.79
				c-0.019,0.085-0.095,0.157-0.178,0.157h-0.997c-0.096,0-0.169-0.063-0.169-0.157c0-0.01,0.009-0.029,0.009-0.047l1.543-5.902
				c0.227-0.874,0.902-0.96,1.309-0.96c0.404,0,1.084,0.086,1.309,0.96l1.543,5.902c0,0.018,0.01,0.037,0.01,0.047
				C169.861,776.902,169.786,776.965,169.693,776.965 M167.15,771.15c-0.029-0.111-0.057-0.15-0.15-0.15
				c-0.095,0-0.122,0.039-0.149,0.15l-0.68,2.797h1.657L167.15,771.15z"/>
			<path fill="#005CA5" d="M176.875,776.911c-0.283,0.065-1.102,0.13-1.6,0.13c-1.226,0-2.176-0.326-2.176-1.927v-4.952
				c0-0.103,0.084-0.187,0.188-0.187h0.931c0.105,0,0.188,0.083,0.188,0.187v4.952c0,0.621,0.19,0.808,0.737,0.808h1.731
				c0.104,0,0.187,0.084,0.187,0.188v0.605C177.062,776.845,177.015,776.882,176.875,776.911"/>
			<path fill="#005CA5" d="M180.12,777.042c-1.555,0-2.685-0.865-2.685-2.936v-1.271c0-2.069,1.13-2.937,2.685-2.937
				c1.554,0,2.683,0.867,2.683,2.937v1.271C182.803,776.177,181.674,777.042,180.12,777.042 M181.485,772.834
				c0-1.242-0.443-1.796-1.365-1.796c-0.923,0-1.364,0.554-1.364,1.796v1.271c0,1.244,0.441,1.798,1.364,1.798
				c0.922,0,1.365-0.554,1.365-1.798V772.834z"/>
			<path fill="#005CA5" d="M185.146,776.965h-0.932c-0.105,0-0.189-0.083-0.189-0.186v-6.626c0-0.104,0.084-0.176,0.189-0.176h0.932
				c0.103,0,0.188,0.073,0.188,0.176v6.626C185.334,776.882,185.249,776.965,185.146,776.965"/>
			<path fill="#005CA5" d="M191.715,776.965h-1.149c-0.101,0-0.14-0.091-0.186-0.186l-1.355-2.511h-0.132
				c-0.247,0-0.621-0.03-0.84-0.04v2.551c0,0.103-0.074,0.186-0.178,0.186h-0.939c-0.104,0-0.189-0.083-0.189-0.186v-6.475
				c0-0.187,0.113-0.255,0.301-0.283c0.49-0.074,1.156-0.123,1.846-0.123c1.45,0,2.711,0.52,2.711,2.128v0.084
				c0,0.998-0.5,1.62-1.271,1.92l1.479,2.748c0.018,0.029,0.018,0.058,0.018,0.076C191.828,776.919,191.79,776.965,191.715,776.965
				 M190.305,772.026c0-0.708-0.471-1.007-1.412-1.007c-0.197,0-0.67,0.02-0.84,0.038v2.119c0.15,0.01,0.68,0.029,0.84,0.029
				c0.969,0,1.412-0.265,1.412-1.093V772.026z"/>
			<path fill="#005CA5" d="M196.619,776.911c-0.303,0.047-0.668,0.13-1.789,0.13c-1.225,0-2.176-0.326-2.176-1.927v-3.288
				c0-1.599,0.951-1.929,2.176-1.929c1.121,0,1.486,0.086,1.789,0.132c0.142,0.019,0.188,0.067,0.188,0.198v0.602
				c0,0.106-0.084,0.189-0.188,0.189h-1.922c-0.545,0-0.744,0.188-0.744,0.808v1.019h2.551c0.105,0,0.189,0.084,0.189,0.189v0.677
				c0,0.105-0.084,0.187-0.189,0.187h-2.551v1.217c0,0.621,0.199,0.808,0.744,0.808h1.922c0.104,0,0.188,0.084,0.188,0.188v0.605
				C196.807,776.845,196.761,776.893,196.619,776.911"/>
			<path fill="#009CB9" d="M110.92,773.468c0-5.243-2.033-10.006-5.356-13.583h-4.521c4.075,3.14,6.702,8.053,6.702,13.583
				c0,5.538-2.627,10.45-6.706,13.585h4.524C108.887,783.482,110.92,778.713,110.92,773.468"/>
			<path fill="#BDD143" d="M113.211,773.536c0-5.076-1.613-9.786-4.36-13.65h6.249c2.292,4.037,3.601,8.694,3.601,13.65
				c0,4.906-1.281,9.518-3.521,13.518h-6.244C111.633,783.22,113.211,778.565,113.211,773.536"/>
			<path fill="#009CB9" d="M37.627,775.476h-0.318c-0.061,0-0.109-0.056-0.109-0.124v-4.341c0-0.06,0.043-0.115,0.109-0.115h0.318
				c0.061,0,0.109,0.049,0.109,0.115v4.341C37.736,775.413,37.693,775.476,37.627,775.476"/>
			<path fill="#009CB9" d="M39.501,771.011l-0.353,1.15c-0.025,0.087-0.056,0.116-0.117,0.116h-0.285
				c-0.042,0-0.055-0.024-0.055-0.061c0-0.017,0-0.036,0.006-0.055l0.279-1.15c0.019-0.084,0.062-0.115,0.123-0.115h0.341
				c0.042,0,0.066,0.025,0.066,0.066C39.507,770.976,39.507,770.994,39.501,771.011"/>
			<path fill="#009CB9" d="M42.868,773.972h-2.04v0.084c0,0.724,0.287,0.991,0.847,0.991c0.353,0,0.803-0.025,1.083-0.065
				c0.013,0,0.018,0,0.031,0c0.049,0,0.098,0.023,0.098,0.086v0.205c0,0.079-0.025,0.123-0.123,0.14
				c-0.347,0.066-0.682,0.104-1.089,0.104c-0.7,0-1.382-0.331-1.382-1.461v-0.549c0-0.87,0.48-1.425,1.351-1.425
				c0.89,0,1.339,0.559,1.339,1.425v0.33C42.982,773.915,42.94,773.972,42.868,773.972 M42.441,773.507
				c0-0.689-0.262-0.955-0.798-0.955c-0.522,0-0.815,0.299-0.815,0.955v0.055h1.613V773.507z"/>
			<path fill="#009CB9" d="M44.998,775.517c-0.225,0-0.663-0.02-0.961-0.09c-0.08-0.02-0.129-0.057-0.129-0.125v-0.21
				c0-0.057,0.049-0.094,0.109-0.094c0.013,0,0.02,0,0.025,0c0.292,0.037,0.736,0.071,0.955,0.071c0.396,0,0.604-0.105,0.604-0.435
				c0-0.183-0.11-0.298-0.457-0.505l-0.615-0.368c-0.371-0.222-0.621-0.486-0.621-0.867c0-0.633,0.476-0.811,1.102-0.811
				c0.342,0,0.664,0.03,0.951,0.079c0.078,0.014,0.115,0.055,0.115,0.122v0.202c0,0.073-0.043,0.104-0.104,0.104
				c-0.006,0-0.012,0-0.018,0c-0.213-0.019-0.604-0.049-0.945-0.049c-0.34,0-0.564,0.042-0.564,0.354
				c0,0.181,0.139,0.297,0.419,0.461l0.603,0.361c0.506,0.298,0.67,0.559,0.67,0.918C46.137,775.255,45.68,775.517,44.998,775.517"
				/>
			<path fill="#009CB9" d="M48.408,775.517c-0.189,0-0.475-0.024-0.713-0.066v1.102c0,0.06-0.049,0.114-0.115,0.114H47.27
				c-0.061,0-0.109-0.047-0.109-0.114v-4.189c0-0.08,0.018-0.115,0.127-0.139c0.323-0.081,0.75-0.142,1.121-0.142
				c0.907,0,1.327,0.59,1.327,1.505v0.437C49.735,774.982,49.297,775.517,48.408,775.517 M49.199,773.587
				c0-0.64-0.188-1.053-0.791-1.053c-0.256,0-0.542,0.029-0.713,0.059v2.411c0.2,0.037,0.518,0.063,0.713,0.063
				c0.596,0,0.791-0.392,0.791-1.044V773.587z"/>
			<path fill="#009CB9" d="M52.134,772.546c-0.28,0-0.536,0.073-0.841,0.255v2.551c0,0.062-0.055,0.124-0.121,0.124h-0.299
				c-0.061,0-0.115-0.056-0.115-0.124v-3.104c0-0.068,0.048-0.122,0.115-0.122h0.287c0.066,0,0.115,0.054,0.115,0.122v0.125
				c0.305-0.212,0.584-0.291,0.858-0.291c0.085,0,0.128,0.036,0.128,0.11v0.248C52.262,772.508,52.219,772.546,52.134,772.546"/>
			<path fill="#009CB9" d="M53.638,771.59h-0.312c-0.066,0-0.121-0.055-0.121-0.123v-0.485c0-0.069,0.055-0.124,0.121-0.124h0.312
				c0.067,0,0.122,0.055,0.122,0.124v0.485C53.76,771.535,53.705,771.59,53.638,771.59 M53.625,775.476h-0.291
				c-0.067,0-0.123-0.056-0.123-0.124v-3.104c0-0.068,0.056-0.122,0.123-0.122h0.291c0.067,0,0.123,0.054,0.123,0.122v3.104
				C53.748,775.419,53.692,775.476,53.625,775.476z"/>
			<path fill="#009CB9" d="M56.621,775.486c-0.121,0.019-0.281,0.031-0.396,0.031c-0.56,0-0.826-0.146-0.826-0.816v-2.124
				l-0.592-0.069c-0.067-0.005-0.115-0.042-0.115-0.108v-0.165c0-0.069,0.048-0.109,0.115-0.109h0.592v-0.598
				c0-0.061,0.041-0.109,0.107-0.122l0.317-0.048c0.006,0,0.012,0,0.019,0c0.049,0,0.091,0.043,0.091,0.103v0.665h0.657
				c0.068,0,0.121,0.054,0.121,0.122v0.208c0,0.067-0.053,0.122-0.121,0.122h-0.657v2.124c0,0.333,0.085,0.382,0.329,0.382h0.342
				c0.084,0,0.126,0.026,0.126,0.085v0.214C56.729,775.438,56.701,775.476,56.621,775.486"/>
			<path fill="#009CB9" d="M62.07,772.535l-0.22,0.042c0.109,0.113,0.206,0.296,0.206,0.626v0.048c0,0.669-0.414,1.04-1.35,1.04
				c-0.324,0-0.531-0.046-0.708-0.122c-0.104,0.05-0.151,0.118-0.151,0.208c0,0.104,0.048,0.159,0.188,0.195l0.907,0.233
				c0.596,0.152,1.169,0.32,1.169,0.896v0.046c0,0.586-0.39,0.945-1.388,0.945c-0.963,0-1.4-0.374-1.4-0.97v-0.054
				c0-0.342,0.182-0.622,0.383-0.774l-0.041-0.017c-0.196-0.084-0.281-0.286-0.281-0.476v-0.007c0-0.164,0.079-0.339,0.25-0.438
				c-0.189-0.177-0.281-0.395-0.281-0.706v-0.048c0-0.542,0.305-1.078,1.354-1.078h1.332c0.073,0,0.141,0.061,0.141,0.134v0.158
				C62.18,772.498,62.137,772.522,62.07,772.535 M61.576,775.701c0-0.24-0.193-0.338-0.742-0.476l-0.689-0.178
				c-0.176,0.154-0.297,0.304-0.297,0.622v0.054c0,0.343,0.201,0.556,0.877,0.556c0.694,0,0.852-0.195,0.852-0.531V775.701z
				 M61.527,773.204c0-0.364-0.164-0.651-0.82-0.651c-0.684,0-0.822,0.311-0.822,0.651v0.048c0,0.267,0.121,0.622,0.822,0.622
				c0.656,0,0.82-0.255,0.82-0.622V773.204z"/>
			<path fill="#009CB9" d="M64.492,772.546c-0.279,0-0.535,0.073-0.84,0.255v2.551c0,0.062-0.055,0.124-0.121,0.124h-0.299
				c-0.061,0-0.115-0.056-0.115-0.124v-3.104c0-0.068,0.049-0.122,0.115-0.122h0.286c0.067,0,0.115,0.054,0.115,0.122v0.125
				c0.306-0.212,0.585-0.291,0.858-0.291c0.086,0,0.129,0.036,0.129,0.11v0.248C64.621,772.508,64.578,772.546,64.492,772.546"/>
			<path fill="#009CB9" d="M67.55,775.476h-0.281c-0.066,0-0.122-0.056-0.122-0.124v-0.134c-0.291,0.17-0.596,0.299-0.938,0.299
				c-0.518,0-0.992-0.226-0.992-0.986v-0.075c0-0.656,0.384-0.985,1.467-0.985h0.452v-0.243c0-0.511-0.179-0.688-0.653-0.688
				c-0.395,0-0.688,0.024-0.93,0.049c-0.014,0-0.02,0-0.032,0c-0.055,0-0.108-0.019-0.108-0.098v-0.214
				c0-0.064,0.043-0.102,0.127-0.116c0.25-0.042,0.53-0.079,0.943-0.079c0.848,0,1.188,0.426,1.188,1.145v2.124
				C67.67,775.419,67.615,775.476,67.55,775.476 M67.136,773.854h-0.452c-0.736,0-0.932,0.164-0.932,0.597v0.074
				c0,0.438,0.207,0.555,0.56,0.555c0.28,0,0.53-0.086,0.824-0.246V773.854z"/>
			<path fill="#009CB9" d="M71.244,775.476h-0.293c-0.065,0-0.121-0.056-0.121-0.124v-2.002c0-0.615-0.207-0.803-0.67-0.803
				c-0.256,0-0.541,0.096-0.82,0.237v2.569c0,0.062-0.057,0.124-0.123,0.124h-0.298c-0.062,0-0.117-0.056-0.117-0.124v-3.104
				c0-0.068,0.05-0.122,0.117-0.122h0.304c0.066,0,0.117,0.054,0.117,0.122v0.115c0.334-0.188,0.607-0.28,0.967-0.28
				c0.73,0,1.06,0.457,1.06,1.267v2.002C71.366,775.419,71.312,775.476,71.244,775.476"/>
			<path fill="#009CB9" d="M74.836,775.413c-0.377,0.073-0.748,0.104-1.119,0.104c-0.908,0-1.328-0.591-1.328-1.504v-0.438
				c0-0.956,0.439-1.493,1.328-1.493c0.188,0,0.474,0.017,0.711,0.061v-1.133c0-0.06,0.049-0.115,0.115-0.115h0.312
				c0.061,0,0.109,0.049,0.109,0.115v4.262C74.965,775.352,74.945,775.396,74.836,775.413 M74.428,772.594
				c-0.201-0.036-0.518-0.042-0.711-0.042c-0.598,0-0.792,0.37-0.792,1.023v0.438c0,0.663,0.188,1.034,0.792,1.034
				c0.205,0,0.504-0.02,0.711-0.037V772.594z"/>
			<path fill="#009CB9" d="M79.146,775.517c-0.896,0-1.352-0.591-1.352-1.486v-0.462c0-0.896,0.456-1.486,1.352-1.486
				c0.895,0,1.357,0.59,1.357,1.486v0.462C80.504,774.926,80.041,775.517,79.146,775.517 M79.969,773.568
				c0-0.621-0.25-1.016-0.822-1.016c-0.566,0-0.816,0.39-0.816,1.016v0.462c0,0.622,0.245,1.017,0.816,1.017
				c0.566,0,0.822-0.389,0.822-1.017V773.568z"/>
			<path fill="#009CB9" d="M83.975,775.476H83.67c-0.066,0-0.117-0.056-0.117-0.124v-0.115c-0.334,0.191-0.607,0.281-0.967,0.281
				c-0.73,0-1.059-0.456-1.059-1.267v-2.002c0-0.068,0.055-0.122,0.122-0.122h0.292c0.066,0,0.121,0.054,0.121,0.122v2.002
				c0,0.615,0.207,0.803,0.669,0.803c0.257,0,0.543-0.096,0.821-0.237v-2.568c0-0.062,0.057-0.122,0.124-0.122h0.298
				c0.06,0,0.116,0.054,0.116,0.122v3.104C84.091,775.419,84.041,775.476,83.975,775.476"/>
			<path fill="#009CB9" d="M87.791,772.271l-0.822,2.897c-0.078,0.275-0.285,0.348-0.547,0.348s-0.469-0.073-0.547-0.348
				l-0.824-2.897c-0.004-0.019-0.004-0.03-0.004-0.042c0-0.063,0.035-0.104,0.096-0.104h0.336c0.049,0,0.09,0.035,0.115,0.116
				l0.7,2.653c0.036,0.147,0.067,0.178,0.128,0.178c0.055,0,0.091-0.031,0.129-0.178l0.698-2.653
				c0.025-0.081,0.067-0.116,0.116-0.116H87.7c0.061,0,0.098,0.041,0.098,0.104C87.798,772.242,87.798,772.253,87.791,772.271"/>
			<path fill="#009CB9" d="M91.097,773.972h-2.039v0.084c0,0.724,0.286,0.991,0.845,0.991c0.355,0,0.805-0.025,1.085-0.065
				c0.013,0,0.019,0,0.03,0c0.049,0,0.098,0.023,0.098,0.086v0.205c0,0.079-0.023,0.123-0.121,0.14
				c-0.346,0.066-0.682,0.104-1.092,0.104c-0.697,0-1.381-0.331-1.381-1.461v-0.549c0-0.87,0.48-1.425,1.352-1.425
				c0.889,0,1.34,0.559,1.34,1.425v0.33C91.213,773.915,91.17,773.972,91.097,773.972 M90.671,773.507
				c0-0.689-0.263-0.955-0.798-0.955c-0.523,0-0.815,0.299-0.815,0.955v0.055h1.613V773.507z"/>
			<path fill="#009CB9" d="M93.623,772.546c-0.279,0-0.534,0.073-0.84,0.255v2.551c0,0.062-0.054,0.124-0.123,0.124h-0.297
				c-0.061,0-0.115-0.056-0.115-0.124v-3.104c0-0.068,0.05-0.122,0.115-0.122h0.288c0.066,0,0.114,0.054,0.114,0.122v0.125
				c0.305-0.212,0.584-0.291,0.857-0.291c0.086,0,0.129,0.036,0.129,0.11v0.248C93.752,772.508,93.709,772.546,93.623,772.546"/>
			<path fill="#009CB9" d="M96.303,775.486c-0.121,0.019-0.279,0.031-0.395,0.031c-0.561,0-0.829-0.146-0.829-0.816v-2.124
				l-0.591-0.069c-0.067-0.005-0.114-0.042-0.114-0.108v-0.165c0-0.069,0.047-0.109,0.114-0.109h0.591v-0.598
				c0-0.061,0.042-0.109,0.109-0.122l0.316-0.048c0.007,0,0.013,0,0.019,0c0.049,0,0.092,0.043,0.092,0.103v0.665h0.658
				c0.066,0,0.121,0.054,0.121,0.122v0.208c0,0.067-0.055,0.122-0.121,0.122h-0.658v2.124c0,0.333,0.085,0.382,0.328,0.382h0.342
				c0.086,0,0.127,0.026,0.127,0.085v0.214C96.412,775.438,96.381,775.476,96.303,775.486"/>
		</g>
	</g>
</g>
<g id="Calque_3">
</g>
</svg>
