<?xml version="1.0" encoding="utf-8"?>
<!-- Generator: Adobe Illustrator 16.0.0, SVG Export Plug-In . SVG Version: 6.00 Build 0)  -->
<!DOCTYPE svg PUBLIC "-//W3C//DTD SVG 1.1//EN" "http://www.w3.org/Graphics/SVG/1.1/DTD/svg11.dtd">
<svg version="1.1" id="Calque_1" xmlns="http://www.w3.org/2000/svg" xmlns:xlink="http://www.w3.org/1999/xlink" x="0px" y="0px"
	 width="1280px" height="800px" viewBox="0 0 1280 800" enable-background="new 0 0 1280 800" xml:space="preserve">
<g id="Calque_2">
	<rect y="-1" fill="#F7FBFC" width="1280" height="798"/>
</g>
<g id="Calque_1_1_">
	<path fill="#AFDCDF" stroke="#F7FBFC" stroke-width="2.1483" stroke-miterlimit="22.9256" d="M915.428,310.345
		c0.998,6.24,1.247,13.978,7.486,13.978c3.122,0,4.872-1.499,7.985-1.499c3.497,0,4.489,3.996,7.988,3.996
		c3.868,0,5.24-3.621,8.982-4.492c0.497,0.996,1.501,1.746,1.501,2.993c0,2.497-3.498,2.996-3.498,5.489
		c0,6.988,4.992,13.478,11.982,13.478c3.99,0,4.989-4.993,8.983-4.993c3.62,0,5.617,1.5,8.982,2.497
		c2.373,0.747,4.613,0,5.986,1.997c1.375,1.995-0.623,4.74,0.999,6.488c3.994,4.366,9.612,1.748,14.977,4.491
		c3.123,1.625,4.492,3.993,7.984,3.993c3.989,0,4.993-4.989,8.987-4.989c2.119,0,4.987,0,6.985,0.996l0,0
		c4.74,1.124,8.232-0.125,11.979,2.498c4.364,3.119,5.237,8.983,10.602,8.983h6.365v-10.481c-1.87-1.622-3.995-2.868-3.995-5.49
		c0-1.498,1.501-2.496,3.002-2.496c4.36,0,6.113,4.491,10.479,4.491c6.615,0,9.109-5.612,14.971-8.483
		c5.607-2.802,14.069-2.037,14.464-8.04l0,0c0.009-0.146,0.015-0.293,0.015-0.443c0-2.497-2.996-2.995-2.996-5.492
		c0-11.729,16.724-9.733,22.463-19.965c2.747-4.992,7.984-5.988,9.479-11.479c2.251-7.735-0.993-13.726,3.497-20.465
		c2.247,0.875,3.619,1.499,5.993,1.998c-0.878-5.614,3.989-8.359,3.989-13.977c0-2.618-2.499-3.866-2.499-6.488
		c0-4.117,1.997-6.363,1.997-10.481c0-4.492-5.987-5.363-5.987-9.857c0-1.623,0.375-2.494,0.497-4.119h5.992l0.501-1.997
		c-0.501-1.995-1.501-2.994-1.501-4.989c0-1.792,1.355-2.558,2.813-3.399l0,0c0.567-0.329,1.154-0.673,1.679-1.095
		c3.244-2.745,3.618-6.114,6.985-8.483l-0.496-1.997c-6.987-1.747-14.227-2.371-16.973-8.986l0,0
		c-7.736-0.622-13.599-4.117-16.97-10.978c-1.494-3.12-0.998-7.987-4.49-7.987c-5.49,0-7.736,4.991-13.229,4.991
		c-8.363,0-11.354-7.237-16.221-13.977c-4.867-6.737-14.849-4.616-17.47-12.479c-2.494-7.733-0.623-12.726-1.997-20.962
		c-1.369-8.858-7.239-15.971-16.098-15.971c-6.116,0-9.609,0.127-15.72,0.127c-4.37,0-4.491,5.488-7.612,8.357
		c-2.251,1.998-5.115,0.876-7.989,1.998c-6.489,2.496-5.486,12.977-12.478,12.977c-2.869,0-4.115-2.996-6.989-2.996
		c-1.618,0-2.363,1.498-3.489,2.497c-1.045-0.779-1.889-1.611-2.573-2.492l0,0c-2.995,4.618-8.781,4.486-14.397,4.486
		c0,2.373,0.871,3.868,0,5.992c-1.374,3.12-5.49,3.493-5.49,6.986c0,2.62,2.495,3.867,2.495,6.488c0,5.989-3.494,8.735-4.994,14.476
		c-0.872,3.242,1.753,5.739,0,8.483c-1.369,2.122-3.99,1.375-5.986,2.994c-2.496,1.997-3.371,4.243-5.987,6.489
		c-2.748,2.248-5.495,3.87-5.495,7.487c0,3.12,3.001,4.367,3.001,7.487c0,4.991-0.133,9.609-4.491,11.979
		c-6.118,3.369-13.98,4.492-13.98,11.48c0,7.112,6.488,9.86,6.488,16.97c0,8.362-11.854,5.99-19.965,7.987
		c1.126,5.24,3.995,7.612,5.993,12.477c-5.242,3.871-12.481,4.869-12.481,11.48c0,5.989,6.367,7.363,8.486,12.978
		C915.803,306.102,915.428,307.851,915.428,310.345L915.428,310.345z"/>
	<path fill="#AFDCDF" stroke="#F7FBFC" stroke-width="2.1483" stroke-miterlimit="22.9256" d="M841.058,111.694
		c2.626,2.623,2.87,5.242,5.491,7.487c1.87,1.625,4.871,1.25,5.987,3.493c1.378,2.746,1.378,5.117,3.497,7.488
		c2.869-2.119,1.369-6.114,3.995-8.486c3.364-3.118,7.733-0.87,11.974-2.994c1.247,3.744,1.876,6.49,4.993,8.987
		c2.743-2.746,4.74-4.616,8.486-5.493c2.994-0.621,5.489,0.75,7.982-0.997c2.12-1.498,1.502-4.993,3.996-5.989
		c3.619-1.372,6.863,1.123,9.981-0.999c1.621-1.123,1.494-3.995,3.491-3.995c2.252,0,2.495,2.624,4.493,3.496
		c5.119,2.369,8.486,3.244,13.977,4.99c0.126-3.244,1.373-6.488,4.496-6.987c2.367-0.373,4.491,1.374,6.482,0
		c4.497-3.242,2.374-11.979,7.985-11.979c7.988,0,15.477,5.493,15.477,13.477c0,1.998-0.998,2.994-0.998,4.991
		c0,7.488,7.487,13.852,14.976,11.979c1.041,6.676,0.432,12.483,3.914,16.975l0,0c-2.994,4.618-8.78,4.486-14.397,4.486
		c0,2.373,0.872,3.868,0,5.992c-1.374,3.12-5.49,3.493-5.49,6.986c0,2.62,2.495,3.867,2.495,6.488c0,5.989-3.494,8.735-4.994,14.476
		c-0.872,3.242,1.753,5.739,0,8.483c-1.369,2.122-3.99,1.375-5.986,2.994c-2.495,1.997-3.37,4.243-5.986,6.489
		c-2.748,2.248-5.496,3.87-5.496,7.487c0,3.12,3.001,4.367,3.001,7.487c0,4.991-0.132,9.609-4.491,11.979
		c-6.118,3.369-13.979,4.492-13.979,11.48c0,7.112,6.487,9.86,6.487,16.97c0,8.362-11.854,5.99-19.965,7.987
		c1.126,5.24,3.995,7.612,5.993,12.477c-5.242,3.871-12.481,4.869-12.481,11.48c0,5.989,6.367,7.363,8.486,12.978
		c0.873,2.245,0.498,3.994,0.498,6.488l0,0c-6.235-0.497-10.109,0.875-15.97-0.997c-3.001-0.999-3.745-4.494-6.991-4.494
		c-2.119,0-0.999,3.245-1.992,4.993c-1.998,3.369-6.113,1.372-9.986,1.995c-2.245,0.374-2.615,3.495-4.988,3.495
		c-8.237,0-12.604-2.745-20.471-4.993c-3.74-0.997-6.357-0.373-9.977-1.995c-3.372-1.498-4.744-4.49-8.486-4.49
		c-3.619,0-4.867,3.991-8.485,3.991c-5.115,0-3.868-9.481-8.982-9.481c-5.614,0-6.862,7.484-12.479,7.484
		c-5.115,0-6.988-4.99-12.104-4.99h-12.727c-8.114,0-9.485-7.479-16.972-10.598l0,0c3.77-8.581,7.984-14.748,12.353-24.84
		c1.622-3.868,1.498-6.362,2.494-10.481c0.877-3.619,3.622-4.742,6.488-6.988c3.495-2.745,5.989-4.991,10.483-4.991
		c3.492,0,5.488,0.996,8.981,1.496c0.129-0.748,1-1.121,1-1.996c0-3.868-3.493-5.614-3.493-9.484c0-1.995,0.995-2.994,0.995-4.991
		c0-6.861-5.987-9.733-5.987-16.596v-17.719c0-6.738-3.493-10.357-3.493-17.095c0-3.366,2.745-4.494,3.992-7.487
		c3.12-7.237,6.986-11.105,6.986-18.968c0-2.866-2.616-3.866-3.493-6.486c-1.496-4.368-1.248-7.361-1.248-12.104v-17.72
		c0-1.874,0.5-3.493,1.747-4.618v0.002l5.491-0.999c3.62,1.995,4.991,5.491,9.234,5.491c4.366,0,4.366-6.989,8.735-6.989
		c5.117,0,5.864,7.488,10.979,7.488C838.812,114.19,839.689,112.568,841.058,111.694L841.058,111.694z"/>
	<path fill="#AFDCDF" stroke="#F7FBFC" stroke-width="2.1483" stroke-miterlimit="22.9256" d="M624.188,484.792
		c2.247,2.991,1.123,6.358,2.746,9.733c4.491,9.104,10.854,11.73,17.47,19.467c2.37,2.742,4.865,3.741,8.485,4.492
		c2.993,0.617,5.364-1.875,7.984-0.497c4.743,2.494,3.868,8.729,8.487,11.477c9.732,5.861,17.218,5.987,28.573,5.987h3.867
		c0.871-7.736-0.872-12.229,0-19.963l-1.994-10.479c0.998-6.368,4.49-8.988,8.482-13.98c10.356,5.991-0.375,21.96,8.984,29.454
		c5.242-5.242,9.855-4.867,14.975-9.987c0-3.367,0.75-5.241,0.75-8.607v-10.858c2.618,1.749,4.117,3.498,7.236,3.498
		c4.99,0,6.737-5.495,7.487-10.483h2.494c4.615,4.613,6.488,9.48,12.979,10.98c4.49,0.999,8.607-0.497,11.979,2.494l0,0
		c0.873-1.865,0.996-2.991,0.996-4.988c0-10.357-8.859-15.97-18.969-18.469c2.373-5.865,4.244-9.981,9.485-13.479
		c2.245-1.496,4.49-2.743,4.49-5.484c0-3.372-2.118-4.868-2.993-7.99c-0.998-3.741-0.998-8.485-4.989-8.983
		c-5.368-0.624-9.485-2.246-11.982-6.986c-1.622-3.123-0.372-8.485-3.992-8.485c-1.745,0-2.743,0.375-4.491,0.498l0.998-1.998
		c4.865-4.867,8.36-8.11,14.975-9.48c3.743-0.75,6.367,0.498,9.982-0.502c5.115-1.369,7.113-5.49,12.478-5.49
		c4.869,0,7.237,2.992,12.104,2.992h10.233c4.864,0,7.486-1.491,12.104-2.992c-0.376-6.239-2.497-9.732-2.497-15.97
		c0-3.993,1.996-5.99,1.996-9.983c0-2.619-3.244-2.867-5.487-3.99c-5.366-2.748-8.986-4.116-15.101-4.116H777.67
		c0-5.117-2.996-7.615-2.996-12.729v-3.87h25.955c0.127-0.872,0.998-1.369,0.998-2.246c0-3.366-3.492-4.492-6.488-5.989
		c-3.865-1.871-5.862-3.744-9.481-5.987c-4.99-3.244-6.365-7.112-8.985-12.478c-1.746-3.617-1.62-6.365-3.493-9.984
		c-1.622-3.244-5.613-2.867-7.985-5.49c-4.492-4.742-4.326-9.061-5.823-15.425l0,0c-7.019-3.24-10.179-8.298-17.636-12.028
		c-2.745-1.372-4.991,0.499-7.986,0c-2.746-0.373-3.619-3.493-6.49-3.493c-3.617,0-3.242,4.742-5.49,7.487
		c-2.368,2.872-5.612,2.621-8.981,3.992c-2.371,0.875-3.495,2.497-5.989,2.996c-3.992,0.872-7.486-1.749-10.48,0.996
		c-3.121,2.872-1.123,7.115-3.995,10.483c-2.745,3.241-5.862,4.491-10.104,4.491h-11.729c-8.113,0-12.729,0.25-20.592,2.496
		c-3.244,0.875-4.117,3.993-7.485,3.993c-3.995,0-5.99-2.996-9.984-2.996c-9.106,0-11.353,10.98-20.463,10.98l-0.309,1.236l0,0
		l-0.19,0.76c0.875,1.873,1.498,2.997,1.498,4.99c0,4.491-2.869,6.615-3.495,10.981c-0.499,2.995,1.374,5.741-0.499,7.986
		c-1.62,1.872-4.241,1.122-5.99,2.997c-2.744,2.993-1.868,6.237-2.493,10.48c-2.246-1.249-3.995-1.997-5.989-3.496
		c-1.498-1.12-0.999-3.991-2.997-3.991c-3.993,0-5.239,3.743-8.484,5.989c-1.997-3.618-2.745-5.989-3.994-9.985
		c-7.109,5.119-5.738,12.729-10.481,19.967c-5.362-2.618-8.982-3.493-14.972-3.493c-5.863,0-7.808,3.063-12.925,5.809l0,0
		c-0.874,2.609-4.49,3.191-6.292,5.922c-2.058,3.118-2.245,5.74-5.74,7.485c-0.124,1.562-0.248,2.497-0.248,4.056
		c0,3.184,0.747,5.177,1.745,8.178c0.628,2.93,4.244,3.487,4.244,6.488c0,2.054-1.437,3.989-3.492,3.989
		c-2.436,0-3.685-1.247-6.117-1.247c-1.995,0-3.118,0.502-5.115,0.745c0.686,4.309,3.992,7.239,8.297,7.239h5.867
		c0.997,0,1.62,0.502,2.618,0.502h6.364c6.862,0,10.106,3.057,16.783,5.236c3.869,1.248,5.742,3.498,9.733,3.498
		c2.994,0,4.619-1.937,6.488-4.248c1.56-1.931,3.493-2.366,4.491-4.735c2.935-6.741,7.236-11.729,14.537-11.729h5.865
		c4.244,0,6.614,1.494,10.857,1.494h5.114c3.308,0,4.931,1.496,8.05,2.5c3.806,1.246,5.99,2.054,9.483,4.238
		c3.992,2.494,6.864,3.244,9.733,6.985c3.057,3.994,4.239,6.742,7.734,10.235c3.807,3.803,7.364,4.184,12.479,5.743
		c4.555,1.37,6.987,2.744,11.728,3.487c2.438,0.376,3.62,1.811,6.055,1.811h18.154c-1.81,3.873-6.239,3.184-10.482,3.184
		c-7.984,0-12.164-2.742-19.963-4.491c-9.606-2.186-15.662-2.556-23.959-7.736c-7.487-4.684-10.172-9.171-16.471-15.472
		c-2.497-2.499-4.931-3.058-8.485-3.492c-5.74-0.69-8.857-2.251-14.599-2.251c-5.305,0-8.485,0.126-13.601,1.5
		c-3.369,0.938-6.179,1.745-7.488,4.989c-1.434,3.498-0.438,6.053-1.247,9.732c-1.001,4.492-2.497,6.931-2.497,11.544
		c0,2.308,0.125,3.619,0,5.926c-2.996,1.876-5.241,1.997-8.733,1.997c0.248,1.188,0.124,1.812,0,2.997
		c2.309,0,3.18,1.685,5.237,2.743c2.562,1.312,4.743,0.44,7.239,1.753c2.746,1.491,3.805,3.301,6.738,4.238
		c3.057,0.999,5.178,0.375,8.236,1.247c2.433,0.689,2.871,2.808,4.991,4.243c3.056,2.058,5.24,2.87,8.233,4.994
		c2.373,1.684,2.621,4.182,5.242,5.485C621.504,479.551,623.378,481.482,624.188,484.792L624.188,484.792z"/>
	<path fill="#AFDCDF" stroke="#F7FBFC" stroke-width="2.1483" stroke-miterlimit="22.9256" d="M759.368,297.417
		c0.728,0.335,1.505,0.657,2.327,0.949c1.002-2.996,2.045-5.646,3.123-8.101l0,0c7.484,3.12,8.855,10.598,16.971,10.598h12.727
		c5.115,0,6.988,4.99,12.104,4.99c5.616,0,6.864-7.484,12.479-7.484c5.114,0,3.867,9.481,8.982,9.481
		c3.619,0,4.867-3.991,8.486-3.991c3.741,0,5.113,2.992,8.485,4.49c3.618,1.622,6.235,0.999,9.978,1.995
		c7.867,2.248,12.231,4.993,20.47,4.993c2.373,0,2.743-3.122,4.989-3.495c3.873-0.624,7.987,1.374,9.985-1.995
		c0.993-1.749-0.127-4.992,1.992-4.992c3.246,0,3.99,3.494,6.991,4.493c5.86,1.871,9.734,0.5,15.97,0.997l0,0
		c0.998,6.24,1.247,13.978,7.486,13.978c3.122,0,4.872-1.499,7.985-1.499c3.497,0,4.489,3.996,7.988,3.996
		c3.868,0,5.24-3.621,8.982-4.492c0.497,0.996,1.501,1.746,1.501,2.993c0,2.497-3.498,2.996-3.498,5.489
		c0,6.988,4.992,13.478,11.983,13.478c3.989,0,4.988-4.993,8.982-4.993c3.62,0,5.617,1.5,8.982,2.497
		c2.373,0.747,4.613,0,5.986,1.997c1.375,1.995-0.623,4.74,0.999,6.488c3.994,4.366,9.612,1.748,14.977,4.491
		c3.123,1.625,4.492,3.993,7.984,3.993c3.989,0,4.993-4.989,8.987-4.989c2.119,0,4.987,0,6.985,0.996l0,0
		c-0.872,6.364-4.491,9.609-4.491,15.973c0,2.496,3.492,2.996,3.492,5.49c0,3.245-2.62,4.491-3.492,7.487
		c-1.379,4.494-1.248,7.614-2.996,11.979c-2.247,5.616-5.987,8.358-5.987,14.473c0,1.624,1.491,2.373,1.491,3.995
		c0,3.742-4.237,4.117-6.483,6.986c-5.242,6.488-5.744,12.105-8.486,19.964c-3.869,11.233-4.492,18.473-8.983,29.454h-0.005
		c-5.738,1.367-9.602,0.745-13.475,4.986c-1.622,1.745-2.991,3.123-3.493,5.49c-0.749,2.997,0.624,7.488-2.493,7.488
		c-0.872,0-1.122-0.998-1.997-0.998l-2.5,0.501c0,3.324-1.194,7.203-3.984,8.224l0,0c-0.459,0.169-0.956,0.258-1.5,0.258
		c-3.366,0-7.614,0.381-7.989-2.995c-0.497-4.116,0.877-7.235-1.495-10.479c-2.368,1.247-3.746,2.995-6.49,2.995
		c-4.364,0-6.614-2.995-10.979-2.995c-5.744,0-8.237,4.993-13.977,4.993c-1.745,0-2.241-1.998-3.995-1.998
		c-6.113,0-7.36,7.985-13.476,7.985c-2.494,0-4.364-0.249-5.991-1.994c-1.491-1.622-1.247-4.496-3.489-4.496
		c-2.745,0-3.497,2.874-5.99,3.995c-1.368,0.624-3.118,0.249-3.994,1.497c-1.87,2.746-0.497,5.494-1.998,8.484
		c-3.244,6.241-8.982,8.486-15.969,8.486c-7.614,0-12.105,0.75-19.468-0.998c-2.372-0.502-3.492-1.998-5.988-1.998
		c-7.488,0-10.48,6.363-17.97,6.99l0,0c-6.239-6.865-13.226-7.239-20.463-12.979c-1.498,1.745-2.996,3.493-5.489,3.493
		c-6.613,0-9.357-5.986-15.972-6.989l0,0c0.873-1.866,0.996-2.992,0.996-4.989c0-10.357-8.859-15.97-18.969-18.468
		c2.373-5.866,4.244-9.982,9.485-13.479c2.245-1.496,4.49-2.743,4.49-5.484c0-3.372-2.118-4.867-2.993-7.99
		c-0.997-3.741-0.997-8.485-4.989-8.983c-5.368-0.624-9.485-2.246-11.982-6.986c-1.622-3.123-0.372-8.485-3.992-8.485
		c-1.745,0-2.742,0.375-4.49,0.498l0.997-1.998c4.865-4.867,8.36-8.11,14.975-9.48c3.743-0.75,6.367,0.498,9.982-0.502
		c5.115-1.369,7.113-5.49,12.478-5.49c4.869,0,7.238,2.992,12.104,2.992H803.5c4.864,0,7.486-1.491,12.104-2.992
		c-0.376-6.239-2.497-9.732-2.497-15.97c0-3.993,1.996-5.99,1.996-9.982c0-2.62-3.244-2.868-5.487-3.991
		c-5.366-2.748-8.986-4.116-15.101-4.116H777.67c0-5.117-2.996-7.615-2.996-12.729v-3.869h25.955
		c0.127-0.873,0.998-1.37,0.998-2.247c0-3.366-3.492-4.492-6.488-5.989c-3.865-1.871-5.862-3.744-9.481-5.987
		c-4.99-3.244-6.365-7.111-8.985-12.478c-1.746-3.617-1.62-6.365-3.493-9.984c-1.622-3.244-5.613-2.867-7.985-5.49
		C760.699,308.1,760.865,303.781,759.368,297.417L759.368,297.417z"/>
	<path fill="#AFDCDF" stroke="#F7FBFC" stroke-width="2.1483" stroke-miterlimit="22.9256" d="M559.24,476.803h-1.561v3.059
		c0,4.867,0.438,7.675,1.62,12.415c0.813,3.433,2.438,6.99,5.99,6.99c1.936,0,3.059-0.745,4.993-0.745
		c2.309,0,2.123,3.057,2.746,5.237c0.875,2.995,1.994,4.552,2.994,7.488c0.687,2.058,1.312,4.49,3.494,4.49
		c3.121,0,4.741-3.243,4.741-6.362c0-4.243-1.248-6.615-2.746-10.61c-0.436-1.183-0.499-2.615-1.746-2.991
		c-1.997-0.623-4.741-0.623-4.741-2.746c0-2.617,1.749-3.864,1.749-6.49c0-4.739-2.248-9.607-6.989-9.977
		c-2.432-0.192-3.804,1.181-6.24,1.242C561.86,477.863,560.924,476.803,559.24,476.803L559.24,476.803z M536.343,560.905
		c0,1.809,0.81,2.748,1.247,4.492c0.438,1.939,0.188,3.934,1.997,4.744c2.056,0.938,3.558,0.248,5.866,0.248
		c2.18,0,3.556-0.188,5.612-0.745c2.684-0.75,5.991-1.189,5.991-3.993c0-2.12-3.12-1.622-4.493-3.245
		c-2.059-2.438-2.745-4.678-5.739-5.738c-1.311-0.439-2.37,0.188-3.743,0.496C540.148,557.849,536.343,557.914,536.343,560.905
		L536.343,560.905z M768.967,686.797c-0.971-2.285-4.969-2.199-6.77-4.6c-1.687-2.25-1.998-4.184-3.245-6.742
		c-2.059,1.125-2.685,3.123-4.99,3.498c-1.498,0.249-2.558,0.375-3.994,0.994c-0.872,0.376-2.247,0.253-2.247,1.252
		c0,3.366,3.246,4.619,3.246,7.984c0,0.75-0.312,1.308-0.5,1.997c-4.742-0.75-6.861-4.117-8.734-8.485
		c-1.122-2.622-1.935-4.184-3.991-6.236c-0.75-0.75-1.688-0.938-1.997-1.998c-1.249-3.994-0.688-7.177-3.745-10.232
		c0.748,4.617,0.5,7.299,1.748,11.729c0.438,1.618,1.498,2.368,1.498,4.056c0,1.744-0.062,2.683,0,4.431h-2.435
		c-1.248,0-1.809-1.124-2.559-1.997c-2.994-3.244-3.743-5.932-5.49-9.982c-1.622-3.741-4.866-5.368-8.982-5.495
		c-4.682-0.122-7.487-0.183-11.979-1.49c-2.684-0.75-2.369-3.686-3.99-5.992c-1.75-2.494-4.807-0.249-7.737-0.999
		c-2.871-0.689-4.306-1.811-7.238-2.495c-5.055-1.251-8.736,0.559-13.227-1.997c-1.622-0.876-1.622-2.556-2.744-3.99
		c-1.997-2.559-5.056-1.753-7.488-3.994c-2.434-2.25-1.869-5.429-4.742-6.991c-1.807-0.932-3.305-0.375-5.242-0.999
		c-1.931-0.622-2.617-2.058-3.74-3.741c-1.497-2.25-2.186-4.368-4.741-5.24c-1.25-0.438-2.435-0.438-3.245-1.501
		c-4.492-5.612-6.614-9.358-8.735-16.222c-3.244-10.291-3.493-16.842-8.734-26.2c-0.999-1.875-1.061-3.498-2.246-5.241
		c-2.685-3.873-5.303-5.303-8.486-8.735c-1.622-1.749-1.809-3.371-2.994-5.489c-1.936-3.493-3.868-5.121-6.736-7.989
		c-6.429-6.423-11.792-9.358-15.224-17.713c-0.623-4.305-1.249-6.433-1.249-10.737c0-3.179,1.249-5.673,3.994-7.233
		c2.244-2.875,2.122-6.549,4.741-8.988c4.491-4.237,8.173-6.112,10.73-11.726c1.499-3.305,3.62-4.619,4.492-8.236
		c0.562-2.436-0.561-4.867,1.498-6.236c3.121-2.063,5.739-1.998,9.483-1.998c0.999,0,1.498,0.497,2.497,0.497
		c0.626,0,0.936-0.31,1.498-0.497l0,0c2.246,2.991,1.122,6.358,2.745,9.733c4.491,9.104,10.854,11.73,17.47,19.467
		c2.369,2.742,4.865,3.741,8.485,4.492c2.993,0.617,5.364-1.875,7.984-0.497c4.743,2.494,3.868,8.729,8.487,11.477
		c9.732,5.861,17.218,5.987,28.573,5.987h3.867c0.871-7.736-0.872-12.229,0-19.963l-1.994-10.479
		c0.998-6.368,4.49-8.988,8.482-13.98c10.356,5.991-0.375,21.96,8.985,29.454c5.241-5.242,9.854-4.867,14.974-9.987
		c0-3.367,0.75-5.241,0.75-8.607V491.03c2.618,1.749,4.117,3.498,7.236,3.498c4.99,0,6.737-5.495,7.487-10.483h2.494
		c4.615,4.613,6.488,9.48,12.979,10.98c4.49,0.999,8.607-0.497,11.979,2.494l0,0c6.613,1.002,9.357,6.99,15.971,6.99
		c2.494,0,3.992-1.748,5.49-3.493c7.237,5.738,14.224,6.113,20.463,12.979l0,0c0.999,1.993,1.998,2.869,1.998,4.99
		c0,1.997-0.873,3.618,0.498,4.986c1.746,1.75,4.493,1.379,5.492,3.498c1.494,2.992,0.123,5.242,0.994,8.486
		c0.748,2.743,3.371,3.366,4.492,5.988c1.502,3.369,1.002,7.111,4.494,8.48c5.365,2.128,8.483,3.244,13.979,4.999
		c-2.373,5.861-5.991,8.861-5.991,15.218c0,7.862,9.981,9.86,9.981,17.724c0,0.872-0.999,1.124-0.999,1.997
		c0,2.869,2.495,4.116,2.495,6.984c0,1.998-0.994,2.992-0.994,4.989c0,2.626,3.366,2.499,5.484,3.995
		c1.748,1.247,0.502,3.372,0.502,5.617v9.234c0,2.87,1.992,4.239,1.992,7.108c0,4.244-7.979,3.245-7.979,7.488
		c0,2.874,2.24,4.244,2.991,6.989c2.625,9.105,0.253,15.099,2.493,24.456c1.125-0.375,1.748-0.999,2.995-0.999
		c4.244,0,8.486,2.742,8.486,6.991c0,5.109-5.986,5.612-10.478,7.983c-4.249,2.246-4.619,8.48-9.485,8.48
		c-3.619,0-5.369-2.989-8.988-2.989c-1.996,0-2.494,2.494-4.489,2.494c-0.644,0-1.237-0.085-1.789-0.234l0,0
		c-5.356-1.458-6.965-9.25-13.186-9.25c-7.987,0-10.979,7.487-18.966,7.487c-2.62,0-4.493-2.372-4.493-4.988
		c0-1.5,0.999-2.499,0.999-3.995c0-1.368-1.622-1.997-2.994-1.997c-4.617,0-6.987,2.374-11.481,2.997
		c-2.993,0.376-6.113-0.75-7.984,1.495c-0.875,1.126,0,2.996-0.998,3.995C774.549,686.312,771.217,686.299,768.967,686.797
		L768.967,686.797z"/>
	<g>
		<g>
			<path fill="#7A1E72" d="M123.967,767.253h-0.506c-0.045,0-0.062-0.043-0.083-0.084l-0.597-1.109h-0.059
				c-0.107,0-0.273-0.012-0.369-0.016v1.125c0,0.047-0.031,0.084-0.078,0.084h-0.416c-0.045,0-0.082-0.037-0.082-0.084v-2.853
				c0-0.084,0.049-0.112,0.133-0.125c0.215-0.034,0.51-0.056,0.812-0.056c0.64,0,1.194,0.229,1.194,0.938v0.038
				c0,0.438-0.221,0.713-0.56,0.846l0.65,1.211c0.01,0.012,0.01,0.024,0.01,0.033C124.018,767.23,123.998,767.253,123.967,767.253
				 M123.346,765.074c0-0.312-0.21-0.443-0.623-0.443c-0.087,0-0.293,0.009-0.369,0.016v0.935c0.066,0.005,0.299,0.013,0.369,0.013
				c0.427,0,0.623-0.117,0.623-0.479V765.074z"/>
			<path fill="#7A1E72" d="M126.264,766.274h-1.354v0.012c0,0.24,0.102,0.526,0.497,0.526c0.304,0,0.589-0.024,0.765-0.041
				c0.004,0,0.007,0,0.012,0c0.042,0,0.076,0.02,0.076,0.061v0.273c0,0.065-0.014,0.097-0.088,0.109
				c-0.27,0.049-0.43,0.069-0.805,0.069c-0.416,0-1.002-0.223-1.002-1.04v-0.309c0-0.646,0.359-1.054,0.992-1.054
				c0.639,0,0.988,0.436,0.988,1.054v0.231C126.346,766.235,126.32,766.274,126.264,766.274 M125.795,765.866
				c0-0.323-0.18-0.51-0.438-0.51c-0.255,0-0.443,0.183-0.443,0.51v0.018h0.881V765.866L125.795,765.866z M126.039,764.084
				l-0.49,0.514c-0.033,0.038-0.049,0.056-0.098,0.056h-0.357c-0.025,0-0.037-0.014-0.037-0.03c0-0.012,0.003-0.027,0.017-0.04
				l0.394-0.498c0.037-0.046,0.054-0.063,0.108-0.063h0.435c0.029,0,0.047,0.015,0.047,0.029
				C126.057,764.058,126.05,764.071,126.039,764.084z"/>
			<path fill="#7A1E72" d="M128.867,765.29l-0.136,0.054c0.064,0.098,0.103,0.188,0.103,0.332v0.029
				c0,0.518-0.357,0.755-0.982,0.755c-0.221,0-0.371-0.038-0.45-0.07c-0.052,0.032-0.071,0.07-0.071,0.108
				c0,0.082,0.044,0.115,0.139,0.135l0.49,0.118c0.563,0.133,0.93,0.22,0.93,0.662v0.028c0,0.425-0.312,0.65-1.018,0.65
				c-0.67,0-1.028-0.254-1.028-0.688v-0.037c0-0.17,0.081-0.334,0.212-0.455c-0.115-0.087-0.187-0.233-0.187-0.382v-0.005
				c0-0.128,0.056-0.258,0.166-0.337c-0.124-0.13-0.171-0.277-0.171-0.483v-0.029c0-0.416,0.271-0.763,0.988-0.763h0.971
				c0.062,0,0.111,0.049,0.111,0.11v0.176C128.934,765.26,128.918,765.27,128.867,765.29 M128.34,767.413
				c0-0.092-0.053-0.146-0.488-0.249l-0.371-0.087c-0.061,0.087-0.101,0.143-0.101,0.29v0.037c0,0.171,0.101,0.273,0.491,0.273
				c0.398,0,0.469-0.087,0.469-0.235V767.413z M128.295,765.683c0-0.197-0.086-0.352-0.443-0.352c-0.352,0-0.447,0.158-0.447,0.352
				v0.035c0,0.153,0.062,0.326,0.447,0.326c0.345,0,0.443-0.119,0.443-0.326V765.683z"/>
			<path fill="#7A1E72" d="M129.891,764.604h-0.4c-0.047,0-0.089-0.039-0.089-0.086v-0.363c0-0.045,0.042-0.082,0.089-0.082h0.4
				c0.049,0,0.084,0.037,0.084,0.082v0.363C129.975,764.562,129.939,764.604,129.891,764.604 M129.879,767.253h-0.381
				c-0.045,0-0.084-0.043-0.084-0.089v-2.169c0-0.046,0.039-0.082,0.084-0.082h0.381c0.045,0,0.084,0.036,0.084,0.082v2.169
				C129.963,767.21,129.924,767.253,129.879,767.253z"/>
			<path fill="#7A1E72" d="M131.518,767.285c-0.651,0-0.992-0.44-0.992-1.032v-0.338c0-0.59,0.341-1.031,0.992-1.031
				c0.65,0,0.99,0.441,0.99,1.031v0.338C132.508,766.845,132.168,767.285,131.518,767.285 M131.959,765.915
				c0-0.34-0.152-0.56-0.441-0.56s-0.443,0.22-0.443,0.56v0.338c0,0.339,0.154,0.56,0.443,0.56s0.441-0.221,0.441-0.56V765.915z"/>
			<path fill="#7A1E72" d="M134.895,767.253h-0.383c-0.046,0-0.084-0.043-0.084-0.089v-1.354c0-0.357-0.033-0.463-0.353-0.463
				c-0.142,0-0.294,0.057-0.467,0.149v1.667c0,0.046-0.04,0.089-0.084,0.089h-0.383c-0.046,0-0.081-0.043-0.081-0.089v-2.169
				c0-0.046,0.035-0.082,0.081-0.082h0.362c0.045,0,0.082,0.036,0.082,0.082v0.087c0.242-0.152,0.398-0.198,0.674-0.198
				c0.595,0,0.717,0.403,0.717,0.928v1.354C134.977,767.21,134.938,767.253,134.895,767.253"/>
			<path fill="#005CA5" d="M137.354,770.189c0.01-0.027,0.02-0.047,0.02-0.073c0-0.077-0.066-0.142-0.162-0.142h-1.035
				c-0.083,0-0.15,0.073-0.178,0.15l-1.13,2.804c-0.065,0.159-0.122,0.188-0.169,0.188c-0.037,0-0.094-0.029-0.159-0.188
				l-1.131-2.804c-0.027-0.077-0.093-0.15-0.179-0.15h-1.043c-0.096,0-0.152,0.064-0.152,0.142c0,0.017,0.01,0.045,0.02,0.073
				l0.958,2.201c0.001,0.001,0.002,0.002,0.002,0.005l1.036,2.381v2.002c0,0.104,0.074,0.187,0.179,0.187h0.939
				c0.104,0,0.179-0.083,0.179-0.187v-2.002l0.607-1.394L137.354,770.189"/>
			<path fill="#005CA5" d="M123.924,774.36c-0.244,0-0.622-0.03-0.838-0.039v2.457c0,0.104-0.078,0.187-0.18,0.187h-0.941
				c-0.104,0-0.188-0.083-0.188-0.187v-6.476c0-0.187,0.111-0.255,0.301-0.283c0.49-0.073,1.158-0.123,1.846-0.123
				c1.449,0,2.711,0.512,2.711,2.176v0.084C126.635,773.825,125.373,774.36,123.924,774.36 M125.336,772.073
				c0-0.792-0.471-1.092-1.412-1.092c-0.198,0-0.668,0.019-0.838,0.036v2.239c0.15,0.011,0.677,0.028,0.838,0.028
				c1.016,0,1.412-0.374,1.412-1.129V772.073z"/>
			<path fill="#005CA5" d="M132.176,776.965h-0.997c-0.083,0-0.159-0.072-0.179-0.157l-0.432-1.788h-2.166l-0.434,1.788
				c-0.018,0.085-0.094,0.157-0.18,0.157h-0.996c-0.095,0-0.172-0.062-0.172-0.157c0-0.01,0.01-0.028,0.01-0.047l1.545-5.901
				c0.227-0.874,0.904-0.96,1.31-0.96c0.403,0,1.083,0.086,1.31,0.96l1.543,5.901c0,0.019,0.01,0.037,0.01,0.047
				C132.348,776.901,132.27,776.965,132.176,776.965 M129.635,771.149c-0.027-0.111-0.056-0.149-0.149-0.149
				c-0.096,0-0.124,0.038-0.151,0.149l-0.678,2.797h1.656L129.635,771.149z"/>
			<path fill="#005CA5" d="M139.945,777.042c-0.703,0-1.211-0.066-1.662-0.168c-0.096-0.019-0.181-0.085-0.181-0.188v-0.679
				c0-0.104,0.085-0.18,0.181-0.18c0.009,0,0.009,0,0.018,0c0.377,0.049,1.318,0.095,1.668,0.095c0.836,0,1.09-0.301,1.09-0.845
				c0-0.37-0.178-0.558-0.799-0.923l-1.244-0.745c-0.875-0.518-1.11-1.064-1.11-1.725c0-1.032,0.603-1.788,2.354-1.788
				c0.621,0,1.486,0.097,1.806,0.171c0.095,0.018,0.171,0.084,0.171,0.18v0.697c0,0.094-0.068,0.169-0.16,0.169
				c-0.011,0-0.011,0-0.02,0c-0.621-0.059-1.243-0.096-1.854-0.096c-0.696,0-0.987,0.244-0.987,0.667
				c0,0.312,0.158,0.501,0.771,0.84l1.132,0.631c1.034,0.573,1.307,1.175,1.307,1.922
				C142.424,776.027,141.83,777.042,139.945,777.042"/>
			<path fill="#005CA5" d="M148.006,777.042c-0.67,0-1.572-0.066-1.855-0.112c-0.159-0.027-0.243-0.103-0.243-0.292v-6.334
				c0-0.187,0.084-0.264,0.243-0.291c0.283-0.048,1.186-0.114,1.855-0.114c1.881,0,2.956,1.017,2.956,2.878v1.387
				C150.962,776.027,149.887,777.042,148.006,777.042 M149.661,772.776c0-1.409-0.714-1.776-1.655-1.776
				c-0.348,0-0.594,0.019-0.79,0.026v4.887c0.196,0.009,0.442,0.028,0.79,0.028c0.941,0,1.655-0.366,1.655-1.778V772.776z"/>
			<path fill="#005CA5" d="M155.996,776.911c-0.301,0.046-0.668,0.131-1.787,0.131c-1.226,0-2.176-0.327-2.176-1.927v-3.289
				c0-1.6,0.95-1.928,2.176-1.928c1.119,0,1.486,0.086,1.787,0.131c0.143,0.02,0.189,0.066,0.189,0.197v0.603
				c0,0.105-0.085,0.188-0.189,0.188h-1.922c-0.544,0-0.742,0.188-0.742,0.809v1.019h2.551c0.104,0,0.189,0.084,0.189,0.189v0.677
				c0,0.105-0.085,0.188-0.189,0.188h-2.551v1.217c0,0.621,0.198,0.808,0.742,0.808h1.922c0.104,0,0.189,0.084,0.189,0.188v0.604
				C156.186,776.845,156.139,776.893,155.996,776.911"/>
			<path fill="#005CA5" d="M163.582,776.911c-0.283,0.063-1.1,0.131-1.598,0.131c-1.229,0-2.176-0.327-2.176-1.927v-4.953
				c0-0.104,0.084-0.188,0.188-0.188h0.933c0.103,0,0.188,0.083,0.188,0.188v4.953c0,0.621,0.188,0.808,0.734,0.808h1.73
				c0.104,0,0.189,0.084,0.189,0.188v0.604C163.771,776.845,163.723,776.882,163.582,776.911"/>
			<path fill="#005CA5" d="M169.693,776.965h-0.998c-0.087,0-0.16-0.072-0.182-0.157l-0.43-1.788h-2.166l-0.435,1.788
				c-0.019,0.085-0.095,0.157-0.178,0.157h-0.997c-0.096,0-0.169-0.062-0.169-0.157c0-0.01,0.009-0.028,0.009-0.047l1.543-5.901
				c0.227-0.874,0.902-0.96,1.309-0.96c0.404,0,1.084,0.086,1.309,0.96l1.543,5.901c0,0.019,0.01,0.037,0.01,0.047
				C169.861,776.901,169.786,776.965,169.693,776.965 M167.15,771.149c-0.029-0.111-0.057-0.149-0.15-0.149
				c-0.095,0-0.122,0.038-0.149,0.149l-0.68,2.797h1.657L167.15,771.149z"/>
			<path fill="#005CA5" d="M176.875,776.911c-0.283,0.063-1.102,0.131-1.6,0.131c-1.226,0-2.176-0.327-2.176-1.927v-4.953
				c0-0.104,0.084-0.188,0.188-0.188h0.931c0.105,0,0.188,0.083,0.188,0.188v4.953c0,0.621,0.19,0.808,0.737,0.808h1.731
				c0.104,0,0.187,0.084,0.187,0.188v0.604C177.062,776.845,177.015,776.882,176.875,776.911"/>
			<path fill="#005CA5" d="M180.12,777.042c-1.555,0-2.685-0.865-2.685-2.936v-1.271c0-2.07,1.13-2.937,2.685-2.937
				c1.554,0,2.683,0.866,2.683,2.937v1.271C182.803,776.177,181.674,777.042,180.12,777.042 M181.485,772.835
				c0-1.242-0.443-1.797-1.365-1.797c-0.923,0-1.364,0.555-1.364,1.797v1.271c0,1.243,0.441,1.797,1.364,1.797
				c0.922,0,1.365-0.555,1.365-1.797V772.835z"/>
			<path fill="#005CA5" d="M185.146,776.965h-0.932c-0.105,0-0.189-0.083-0.189-0.187v-6.626c0-0.104,0.084-0.178,0.189-0.178h0.932
				c0.103,0,0.188,0.073,0.188,0.178v6.626C185.334,776.882,185.249,776.965,185.146,776.965"/>
			<path fill="#005CA5" d="M191.715,776.965h-1.149c-0.101,0-0.14-0.091-0.186-0.187l-1.355-2.512h-0.132
				c-0.247,0-0.621-0.029-0.84-0.04v2.552c0,0.104-0.074,0.187-0.178,0.187h-0.939c-0.104,0-0.189-0.083-0.189-0.187v-6.476
				c0-0.187,0.113-0.255,0.301-0.282c0.49-0.074,1.156-0.123,1.846-0.123c1.45,0,2.711,0.52,2.711,2.127v0.085
				c0,0.998-0.5,1.619-1.271,1.92l1.479,2.748c0.018,0.028,0.018,0.059,0.018,0.076C191.828,776.919,191.79,776.965,191.715,776.965
				 M190.305,772.025c0-0.707-0.471-1.008-1.412-1.008c-0.197,0-0.67,0.021-0.84,0.037v2.119c0.15,0.01,0.68,0.028,0.84,0.028
				c0.969,0,1.412-0.265,1.412-1.093V772.025z"/>
			<path fill="#005CA5" d="M196.619,776.911c-0.303,0.046-0.668,0.131-1.789,0.131c-1.225,0-2.176-0.327-2.176-1.927v-3.289
				c0-1.6,0.951-1.928,2.176-1.928c1.121,0,1.486,0.086,1.789,0.131c0.142,0.02,0.188,0.066,0.188,0.197v0.603
				c0,0.105-0.084,0.188-0.188,0.188h-1.922c-0.545,0-0.744,0.188-0.744,0.809v1.019h2.551c0.105,0,0.189,0.084,0.189,0.189v0.677
				c0,0.105-0.084,0.188-0.189,0.188h-2.551v1.217c0,0.621,0.199,0.808,0.744,0.808h1.922c0.104,0,0.188,0.084,0.188,0.188v0.604
				C196.807,776.845,196.761,776.893,196.619,776.911"/>
			<path fill="#009CB9" d="M110.92,773.468c0-5.243-2.033-10.006-5.356-13.582h-4.521c4.075,3.141,6.702,8.054,6.702,13.582
				c0,5.539-2.627,10.45-6.706,13.586h4.524C108.887,783.482,110.92,778.713,110.92,773.468"/>
			<path fill="#BDD143" d="M113.211,773.536c0-5.076-1.613-9.787-4.36-13.65h6.249c2.292,4.037,3.601,8.694,3.601,13.65
				c0,4.906-1.281,9.518-3.521,13.518h-6.244C111.633,783.22,113.211,778.564,113.211,773.536"/>
			<path fill="#009CB9" d="M37.627,775.475h-0.318c-0.061,0-0.109-0.056-0.109-0.124v-4.34c0-0.06,0.043-0.115,0.109-0.115h0.318
				c0.061,0,0.109,0.05,0.109,0.115v4.34C37.736,775.413,37.693,775.475,37.627,775.475"/>
			<path fill="#009CB9" d="M39.501,771.011l-0.353,1.15c-0.025,0.086-0.056,0.115-0.117,0.115h-0.285
				c-0.042,0-0.055-0.023-0.055-0.062c0-0.017,0-0.036,0.006-0.055l0.279-1.15c0.019-0.084,0.062-0.115,0.123-0.115h0.341
				c0.042,0,0.066,0.025,0.066,0.066C39.507,770.976,39.507,770.993,39.501,771.011"/>
			<path fill="#009CB9" d="M42.868,773.972h-2.04v0.084c0,0.726,0.287,0.992,0.847,0.992c0.353,0,0.803-0.024,1.083-0.065
				c0.013,0,0.018,0,0.031,0c0.049,0,0.098,0.022,0.098,0.086v0.205c0,0.078-0.025,0.123-0.123,0.141
				c-0.347,0.066-0.682,0.104-1.089,0.104c-0.7,0-1.382-0.33-1.382-1.461v-0.549c0-0.87,0.48-1.424,1.351-1.424
				c0.89,0,1.339,0.559,1.339,1.424v0.33C42.982,773.915,42.94,773.972,42.868,773.972 M42.441,773.507
				c0-0.688-0.262-0.955-0.798-0.955c-0.522,0-0.815,0.3-0.815,0.955v0.057h1.613V773.507z"/>
			<path fill="#009CB9" d="M44.998,775.517c-0.225,0-0.663-0.019-0.961-0.09c-0.08-0.02-0.129-0.057-0.129-0.125v-0.211
				c0-0.057,0.049-0.093,0.109-0.093c0.013,0,0.02,0,0.025,0c0.292,0.036,0.736,0.07,0.955,0.07c0.396,0,0.604-0.105,0.604-0.435
				c0-0.183-0.11-0.298-0.457-0.506l-0.615-0.367c-0.371-0.223-0.621-0.485-0.621-0.867c0-0.634,0.476-0.811,1.102-0.811
				c0.342,0,0.664,0.029,0.951,0.078c0.078,0.014,0.115,0.055,0.115,0.122v0.201c0,0.072-0.043,0.104-0.104,0.104
				c-0.006,0-0.012,0-0.018,0c-0.213-0.019-0.604-0.048-0.945-0.048c-0.34,0-0.564,0.042-0.564,0.354
				c0,0.181,0.139,0.297,0.419,0.461l0.603,0.359c0.506,0.298,0.67,0.56,0.67,0.919C46.137,775.255,45.68,775.517,44.998,775.517"/>
			<path fill="#009CB9" d="M48.408,775.517c-0.189,0-0.475-0.023-0.713-0.065v1.102c0,0.062-0.049,0.114-0.115,0.114h-0.31
				c-0.061,0-0.109-0.047-0.109-0.114v-4.188c0-0.079,0.018-0.115,0.127-0.14c0.323-0.08,0.75-0.141,1.121-0.141
				c0.907,0,1.327,0.589,1.327,1.504v0.438C49.735,774.981,49.297,775.517,48.408,775.517 M49.199,773.587
				c0-0.64-0.188-1.053-0.791-1.053c-0.256,0-0.542,0.028-0.713,0.06v2.411c0.2,0.037,0.518,0.063,0.713,0.063
				c0.596,0,0.791-0.393,0.791-1.043V773.587z"/>
			<path fill="#009CB9" d="M52.134,772.546c-0.28,0-0.536,0.073-0.841,0.255v2.55c0,0.062-0.055,0.124-0.121,0.124h-0.299
				c-0.061,0-0.115-0.056-0.115-0.124v-3.104c0-0.068,0.048-0.122,0.115-0.122h0.287c0.066,0,0.115,0.054,0.115,0.122v0.126
				c0.305-0.213,0.584-0.291,0.858-0.291c0.085,0,0.128,0.035,0.128,0.109v0.249C52.262,772.508,52.219,772.546,52.134,772.546"/>
			<path fill="#009CB9" d="M53.638,771.589h-0.312c-0.066,0-0.121-0.054-0.121-0.123v-0.484c0-0.068,0.055-0.123,0.121-0.123h0.312
				c0.067,0,0.122,0.055,0.122,0.123v0.484C53.76,771.535,53.705,771.589,53.638,771.589 M53.625,775.475h-0.291
				c-0.067,0-0.123-0.056-0.123-0.124v-3.104c0-0.068,0.056-0.122,0.123-0.122h0.291c0.067,0,0.123,0.054,0.123,0.122v3.104
				C53.748,775.419,53.692,775.475,53.625,775.475z"/>
			<path fill="#009CB9" d="M56.621,775.485c-0.121,0.02-0.281,0.03-0.396,0.03c-0.56,0-0.826-0.146-0.826-0.814v-2.124l-0.592-0.069
				c-0.067-0.005-0.115-0.042-0.115-0.107v-0.165c0-0.068,0.048-0.11,0.115-0.11h0.592v-0.597c0-0.062,0.041-0.109,0.107-0.122
				l0.317-0.048c0.006,0,0.012,0,0.019,0c0.049,0,0.091,0.043,0.091,0.103v0.665h0.657c0.068,0,0.121,0.054,0.121,0.122v0.208
				c0,0.067-0.053,0.122-0.121,0.122h-0.657v2.124c0,0.333,0.085,0.383,0.329,0.383h0.342c0.084,0,0.126,0.025,0.126,0.085v0.214
				C56.729,775.438,56.701,775.475,56.621,775.485"/>
			<path fill="#009CB9" d="M62.07,772.534l-0.22,0.043c0.109,0.113,0.206,0.297,0.206,0.626v0.049c0,0.669-0.414,1.04-1.35,1.04
				c-0.324,0-0.531-0.047-0.708-0.122c-0.104,0.05-0.151,0.117-0.151,0.208c0,0.104,0.048,0.159,0.188,0.195l0.907,0.231
				c0.596,0.152,1.169,0.32,1.169,0.896v0.047c0,0.586-0.39,0.945-1.388,0.945c-0.963,0-1.4-0.373-1.4-0.97v-0.055
				c0-0.342,0.182-0.622,0.383-0.773l-0.041-0.018c-0.196-0.084-0.281-0.286-0.281-0.476v-0.008c0-0.163,0.079-0.34,0.25-0.438
				c-0.189-0.177-0.281-0.396-0.281-0.706v-0.049c0-0.542,0.305-1.078,1.354-1.078h1.332c0.073,0,0.141,0.061,0.141,0.134v0.158
				C62.18,772.498,62.137,772.521,62.07,772.534 M61.576,775.701c0-0.24-0.193-0.337-0.742-0.477l-0.689-0.177
				c-0.176,0.153-0.297,0.304-0.297,0.622v0.055c0,0.343,0.201,0.556,0.877,0.556c0.694,0,0.852-0.194,0.852-0.531L61.576,775.701
				L61.576,775.701z M61.527,773.203c0-0.364-0.164-0.651-0.82-0.651c-0.684,0-0.822,0.312-0.822,0.651v0.049
				c0,0.268,0.121,0.622,0.822,0.622c0.656,0,0.82-0.255,0.82-0.622V773.203z"/>
			<path fill="#009CB9" d="M64.492,772.546c-0.279,0-0.535,0.073-0.84,0.255v2.55c0,0.062-0.055,0.124-0.121,0.124h-0.299
				c-0.061,0-0.115-0.056-0.115-0.124v-3.104c0-0.068,0.049-0.122,0.115-0.122h0.286c0.067,0,0.115,0.054,0.115,0.122v0.126
				c0.306-0.213,0.585-0.291,0.858-0.291c0.086,0,0.129,0.035,0.129,0.109v0.249C64.621,772.508,64.578,772.546,64.492,772.546"/>
			<path fill="#009CB9" d="M67.55,775.475h-0.281c-0.066,0-0.122-0.056-0.122-0.124v-0.133c-0.291,0.17-0.596,0.299-0.938,0.299
				c-0.518,0-0.992-0.225-0.992-0.984v-0.075c0-0.656,0.384-0.985,1.467-0.985h0.452v-0.243c0-0.511-0.179-0.688-0.653-0.688
				c-0.395,0-0.688,0.024-0.93,0.048c-0.014,0-0.02,0-0.032,0c-0.055,0-0.108-0.019-0.108-0.098v-0.214
				c0-0.064,0.043-0.103,0.127-0.115c0.25-0.043,0.53-0.078,0.943-0.078c0.848,0,1.188,0.425,1.188,1.145v2.125
				C67.67,775.419,67.615,775.475,67.55,775.475 M67.136,773.854h-0.452c-0.736,0-0.932,0.164-0.932,0.598v0.073
				c0,0.438,0.207,0.555,0.56,0.555c0.28,0,0.53-0.086,0.824-0.245V773.854z"/>
			<path fill="#009CB9" d="M71.244,775.475h-0.293c-0.065,0-0.121-0.056-0.121-0.124v-2.002c0-0.613-0.207-0.803-0.67-0.803
				c-0.256,0-0.541,0.096-0.82,0.236v2.568c0,0.062-0.057,0.124-0.123,0.124h-0.298c-0.062,0-0.117-0.056-0.117-0.124v-3.104
				c0-0.068,0.05-0.122,0.117-0.122h0.304c0.066,0,0.117,0.054,0.117,0.122v0.115c0.334-0.188,0.607-0.279,0.967-0.279
				c0.73,0,1.06,0.457,1.06,1.266v2.002C71.366,775.419,71.312,775.475,71.244,775.475"/>
			<path fill="#009CB9" d="M74.836,775.413c-0.377,0.072-0.748,0.104-1.119,0.104c-0.908,0-1.328-0.591-1.328-1.504v-0.438
				c0-0.956,0.439-1.492,1.328-1.492c0.188,0,0.474,0.016,0.711,0.06v-1.132c0-0.06,0.049-0.114,0.115-0.114h0.312
				c0.061,0,0.109,0.049,0.109,0.114v4.263C74.965,775.351,74.945,775.396,74.836,775.413 M74.428,772.594
				c-0.201-0.036-0.518-0.042-0.711-0.042c-0.598,0-0.792,0.371-0.792,1.023v0.438c0,0.663,0.188,1.035,0.792,1.035
				c0.205,0,0.504-0.02,0.711-0.037V772.594z"/>
			<path fill="#009CB9" d="M79.146,775.517c-0.896,0-1.352-0.591-1.352-1.485v-0.462c0-0.896,0.456-1.485,1.352-1.485
				c0.895,0,1.357,0.589,1.357,1.485v0.462C80.504,774.926,80.041,775.517,79.146,775.517 M79.969,773.568
				c0-0.621-0.25-1.017-0.822-1.017c-0.566,0-0.816,0.391-0.816,1.017v0.462c0,0.622,0.245,1.017,0.816,1.017
				c0.566,0,0.822-0.389,0.822-1.017V773.568z"/>
			<path fill="#009CB9" d="M83.975,775.475H83.67c-0.066,0-0.117-0.056-0.117-0.124v-0.114c-0.334,0.189-0.607,0.279-0.967,0.279
				c-0.73,0-1.059-0.456-1.059-1.266v-2.003c0-0.068,0.055-0.122,0.122-0.122h0.292c0.066,0,0.121,0.054,0.121,0.122v2.003
				c0,0.614,0.207,0.803,0.669,0.803c0.257,0,0.543-0.096,0.821-0.236v-2.569c0-0.062,0.057-0.122,0.124-0.122h0.298
				c0.06,0,0.116,0.054,0.116,0.122v3.104C84.091,775.419,84.041,775.475,83.975,775.475"/>
			<path fill="#009CB9" d="M87.791,772.271l-0.822,2.896c-0.078,0.275-0.285,0.348-0.547,0.348c-0.262,0-0.469-0.071-0.547-0.348
				l-0.824-2.896c-0.004-0.02-0.004-0.03-0.004-0.043c0-0.062,0.035-0.104,0.096-0.104h0.336c0.049,0,0.09,0.036,0.115,0.116
				l0.7,2.653c0.036,0.146,0.067,0.178,0.128,0.178c0.055,0,0.091-0.031,0.129-0.178l0.698-2.653
				c0.025-0.08,0.067-0.116,0.116-0.116H87.7c0.061,0,0.098,0.042,0.098,0.104C87.798,772.241,87.798,772.253,87.791,772.271"/>
			<path fill="#009CB9" d="M91.097,773.972h-2.039v0.084c0,0.726,0.286,0.992,0.845,0.992c0.355,0,0.805-0.024,1.085-0.065
				c0.013,0,0.019,0,0.03,0c0.049,0,0.098,0.022,0.098,0.086v0.205c0,0.078-0.023,0.123-0.121,0.141
				c-0.346,0.066-0.682,0.104-1.092,0.104c-0.697,0-1.381-0.33-1.381-1.461v-0.549c0-0.87,0.48-1.424,1.352-1.424
				c0.889,0,1.34,0.559,1.34,1.424v0.33C91.213,773.915,91.17,773.972,91.097,773.972 M90.671,773.507
				c0-0.688-0.263-0.955-0.798-0.955c-0.523,0-0.815,0.3-0.815,0.955v0.057h1.613V773.507z"/>
			<path fill="#009CB9" d="M93.623,772.546c-0.279,0-0.534,0.073-0.84,0.255v2.55c0,0.062-0.054,0.124-0.123,0.124h-0.297
				c-0.061,0-0.115-0.056-0.115-0.124v-3.104c0-0.068,0.05-0.122,0.115-0.122h0.288c0.066,0,0.114,0.054,0.114,0.122v0.126
				c0.305-0.213,0.584-0.291,0.857-0.291c0.086,0,0.129,0.035,0.129,0.109v0.249C93.752,772.508,93.709,772.546,93.623,772.546"/>
			<path fill="#009CB9" d="M96.303,775.485c-0.121,0.02-0.279,0.03-0.395,0.03c-0.561,0-0.829-0.146-0.829-0.814v-2.124
				l-0.591-0.069c-0.067-0.005-0.114-0.042-0.114-0.107v-0.165c0-0.068,0.047-0.11,0.114-0.11h0.591v-0.597
				c0-0.062,0.042-0.109,0.109-0.122l0.316-0.048c0.007,0,0.013,0,0.019,0c0.049,0,0.092,0.043,0.092,0.103v0.665h0.658
				c0.066,0,0.121,0.054,0.121,0.122v0.208c0,0.067-0.055,0.122-0.121,0.122h-0.658v2.124c0,0.333,0.085,0.383,0.328,0.383h0.342
				c0.086,0,0.127,0.025,0.127,0.085v0.214C96.412,775.438,96.381,775.475,96.303,775.485"/>
		</g>
	</g>
</g>
<g id="Calque_3">
</g>
</svg>
