<?xml version="1.0" encoding="utf-8"?>
<!-- Generator: Adobe Illustrator 16.0.0, SVG Export Plug-In . SVG Version: 6.00 Build 0)  -->
<!DOCTYPE svg PUBLIC "-//W3C//DTD SVG 1.1//EN" "http://www.w3.org/Graphics/SVG/1.1/DTD/svg11.dtd">
<svg version="1.1" xmlns="http://www.w3.org/2000/svg" xmlns:xlink="http://www.w3.org/1999/xlink" x="0px" y="0px" width="1280px"
	 height="800px" viewBox="0 0 1280 800" enable-background="new 0 0 1280 800" xml:space="preserve">
<g id="Calque_2">
	
</g>
<g id="Calque_1">
	<g>
		<defs>
			<rect id="SVGID_1_" y="644" width="1280" height="156"/>
		</defs>
		<clipPath id="SVGID_2_">
			<use xlink:href="#SVGID_1_"  overflow="visible"/>
		</clipPath>
		<rect y="584" clip-path="url(#SVGID_2_)" fill="#F9F6F5" width="1280" height="224"/>
		<path clip-path="url(#SVGID_2_)" fill="#DFF1F2" d="M1280,582H770.25c-4.004,0-8.25,2.247-8.25,6.251v0.5
			c0,4.004,4.246,8.249,8.25,8.249h17.375c4.004,0,6.375,2.247,6.375,6.251v0.5c0,4.004-2.996,7.25-7,7.25l-28.125-0.125
			c-4.004,0-7.875,3.371-7.875,7.375v0.5c0,4.004,4.246,8.249,8.25,8.249h12.5c4.004,0,6.25,2.247,6.25,6.251v0.5
			c0,4.004-2.246,8.249-6.25,8.249h-2.375c-4.004,0-8.375,2.247-8.375,6.251v0.5c0,4.004,4.246,8.249,8.25,8.249h57.375
			c4.004,0,6.375,2.247,6.375,6.251v0.5c0,4.004-2.246,8.249-6.25,8.249h-10.375c-4.004,0-8.375,2.247-8.375,6.251v0.5
			c0,4.004,3.496,7.25,7.5,7.25l44.625-0.125c4.004,0,6.875,3.371,6.875,7.375v0.5c0,4.004-2.246,8.249-6.25,8.249h-1.5
			c-4.004,0-8.25,2.247-8.25,6.251v0.5c0,4.875,4.246,8.249,8.25,8.249h25h5.375c4.004,0,7.375,3.247,7.375,7.251v0.5
			c0,4.004-3.246,7.25-7.25,7.25l-30.375-0.125c-4.004,0-7.375,3.371-7.375,7.375v0.5c0,4.004,3.246,7.249,7.25,7.249h15.5
			c4.004,0,7.25,3.247,7.25,7.251v0.5c0,4.004-3.246,7.249-7.25,7.249h-2.375c-4.004,0-7.375,3.247-7.375,7.251v0.5
			c0,4.004,3.246,7.249,7.25,7.249h49.375c4.004,0,7.375,3.247,7.375,7.251v0.5c0,4.004-3.246,7.249-7.25,7.249h-4.375
			c-4.004,0-7.375,3.247-7.375,7.251v0.5c0,4.004,3.184,7.249,7.188,7.249H1280V582z"/>
		<path clip-path="url(#SVGID_2_)" fill="#BED77A" d="M970.964,583H611.917c0,0,51.2-96.926,166.247-39.611
			C778.164,543.389,904.8,524,970.964,583z"/>
		<path clip-path="url(#SVGID_2_)" fill="#CEE19B" d="M659.96,583.133c0,0,14.327-30.341,80.066-16.012
			c0,0,35.083-46.985,116.838,15.381L659.96,583.133z"/>
		<g clip-path="url(#SVGID_2_)">
			<path fill="#183356" d="M650.487,630.312v-31.345h-3.995V276.396c0,0-6.375,2.758-14.592,0.639v322.575h-4.453v31.007
				c0,0-0.943,12.896,11.877,12.896C651.58,643.512,650.487,630.312,650.487,630.312z"/>
			<path fill="#B7DFE2" d="M639.988,240.044l-35.738-64.536l-9.992-3.76l-2.9,11.673l31.223,64.719
				C622.58,248.14,629.578,238.829,639.988,240.044z"/>
			<path fill="#AFDCDF" d="M630.486,241.776c2.652-1.297,5.865-2.156,9.502-1.732l-35.738-64.536l-9.992-3.76L630.486,241.776z"/>
			<path fill="#B7DFE2" d="M620.029,266.927l-40.939,61.369l1.24,10.602l11.703-2.784l43.188-57.441
				C635.221,278.672,623.727,276.728,620.029,266.927z"/>
			<path fill="#AFDCDF" d="M625.934,274.569c-2.369-1.758-4.613-4.219-5.904-7.643l-40.939,61.369l1.24,10.602L625.934,274.569z"/>
			<path fill="#183356" d="M636.711,279.185c-11.012-0.73-19.352-10.251-18.617-21.271c0.734-11.014,10.258-19.335,21.271-18.604
				c11.016,0.737,19.35,10.241,18.615,21.257C657.249,271.583,647.725,279.918,636.711,279.185z"/>
			<path fill="#B7DFE2" d="M654.482,270.517l73.758,2.663l8.377-6.624l-8.506-8.504l-71.599-6.629
				C656.513,251.423,660.891,262.225,654.482,270.517z"/>
			<path fill="#AFDCDF" d="M657.889,261.481c-0.25,2.938-1.17,6.14-3.406,9.035l73.758,2.663l8.377-6.624L657.889,261.481z"/>
			<path fill="#EB6A5B" d="M637.588,266.018c-3.74-0.251-6.57-3.483-6.324-7.227c0.25-3.745,3.484-6.569,7.223-6.32
				c3.742,0.247,6.576,3.479,6.326,7.221C644.562,263.436,641.332,266.267,637.588,266.018z"/>
		</g>
		<g clip-path="url(#SVGID_2_)">
			<path fill="#183356" d="M604.781,643.966h68.512C673.293,643.966,644.678,612.147,604.781,643.966z"/>
		</g>
		<g clip-path="url(#SVGID_2_)">
			<path fill="#183356" d="M390.781,643.966h68.512C459.293,643.966,430.678,612.147,390.781,643.966z"/>
		</g>
		<g clip-path="url(#SVGID_2_)">
			<path fill="#183356" d="M179.448,643.966h68.511C247.959,643.966,219.344,612.147,179.448,643.966z"/>
		</g>
		<path clip-path="url(#SVGID_2_)" fill="#BED77A" d="M446.315,684H697c0,0-59.096-60.12-146.736-20.378
			C550.264,663.622,479.938,652,446.315,684z"/>
		<path clip-path="url(#SVGID_2_)" fill="#BED77A" d="M212.942,601h180.056c0,0-24.553-22.507-69.568-10.231
			C323.43,590.769,274.325,552,212.942,601z"/>
		<path clip-path="url(#SVGID_2_)" fill="#CEE19B" d="M163.837,606H323.43c0,0-34.781-14.323-61.381-8.184
			C262.049,597.816,210.896,578,163.837,606z"/>
		<g clip-path="url(#SVGID_2_)">
			<polygon fill="#BED77A" points="343.015,728.614 320.945,728.614 331.979,697.246 343.015,665.882 354.048,697.246 
				365.083,728.614 			"/>
			<path fill="#183356" d="M334.404,735.981h14.957C349.361,735.981,343.116,729.033,334.404,735.981z"/>
			<g>
				<path fill="#183356" d="M342.36,736.024c-0.351,0-0.634-0.283-0.634-0.634v-48.472c0-0.351,0.283-0.635,0.634-0.635
					c0.349,0,0.63,0.284,0.63,0.635v48.472C342.991,735.741,342.709,736.024,342.36,736.024z"/>
			</g>
			<g>
				<path fill="#183356" d="M342.148,724.431c-0.101,0-0.202-0.022-0.298-0.075l-11.802-6.321c-0.309-0.165-0.423-0.549-0.258-0.855
					c0.165-0.308,0.545-0.425,0.856-0.261l11.802,6.323c0.307,0.166,0.423,0.548,0.258,0.855
					C342.594,724.311,342.375,724.431,342.148,724.431z"/>
			</g>
			<g>
				<path fill="#183356" d="M342.758,718.22c-0.188,0-0.372-0.081-0.496-0.238c-0.219-0.273-0.171-0.672,0.102-0.889l11.172-8.861
					c0.274-0.217,0.672-0.168,0.89,0.104c0.217,0.273,0.172,0.671-0.103,0.888l-11.173,8.859
					C343.033,718.176,342.894,718.22,342.758,718.22z"/>
			</g>
			<g>
				<path fill="#183356" d="M342.335,710.604c-0.1,0-0.203-0.027-0.295-0.075l-8.878-4.765c-0.307-0.165-0.422-0.546-0.259-0.854
					c0.166-0.31,0.551-0.424,0.857-0.259l8.878,4.763c0.306,0.163,0.421,0.549,0.256,0.856
					C342.779,710.482,342.562,710.604,342.335,710.604z"/>
			</g>
			<g>
				<path fill="#183356" d="M342.31,699.594c-0.1,0-0.204-0.025-0.296-0.075l-5.981-3.21c-0.308-0.165-0.424-0.55-0.259-0.856
					c0.166-0.306,0.549-0.422,0.857-0.26l5.981,3.212c0.307,0.164,0.423,0.548,0.257,0.854
					C342.755,699.475,342.537,699.594,342.31,699.594z"/>
			</g>
			<g>
				<path fill="#183356" d="M342.518,704.518c-0.147,0-0.294-0.05-0.417-0.154c-0.262-0.229-0.291-0.63-0.06-0.893l6.604-7.588
					c0.23-0.264,0.627-0.292,0.892-0.062c0.263,0.229,0.29,0.627,0.062,0.893l-6.604,7.588
					C342.869,704.444,342.694,704.518,342.518,704.518z"/>
			</g>
			<g>
				<path fill="#183356" d="M342.553,694.63c-0.148,0-0.294-0.053-0.415-0.155c-0.263-0.23-0.291-0.63-0.063-0.894l4.803-5.517
					c0.231-0.264,0.631-0.29,0.895-0.062c0.263,0.229,0.29,0.628,0.06,0.894l-4.804,5.517
					C342.905,694.556,342.729,694.63,342.553,694.63z"/>
			</g>
		</g>
		<g clip-path="url(#SVGID_2_)">
			<path fill="#D6E6AC" d="M79.673,649.113c0-2.053-0.949-3.881-2.427-5.079c0.521-0.936,0.817-2.012,0.817-3.16
				c0-2.578-1.497-4.801-3.664-5.863c0.16-0.564,0.249-1.157,0.249-1.771c0-3.607-2.925-6.531-6.533-6.531
				c-0.582,0-1.14,0.084-1.681,0.224c-0.672-2.889-3.263-5.051-6.358-5.051c-2.891,0-5.336,1.881-6.196,4.484
				c-0.273-0.036-0.554-0.062-0.837-0.062c-3.609,0-6.532,2.926-6.532,6.529c0,0.922,0.196,1.8,0.537,2.591
				c-3.144,0.472-5.56,3.179-5.56,6.455c0,1.078,0.267,2.095,0.73,2.991c-0.209,0.638-0.326,1.323-0.326,2.035
				c0,1.783,0.718,3.398,1.88,4.58c-0.554,0.955-0.877,2.069-0.877,3.253c0,3.096,2.159,5.684,5.053,6.357
				c0.269,3.362,3.073,6.004,6.503,6.004c1.704,0,3.25-0.658,4.413-1.723c1.182,1.19,2.82,1.923,4.631,1.923
				c2.953,0,5.441-1.959,6.252-4.646c3.41-0.216,6.107-3.042,6.107-6.506c0-0.362-0.036-0.71-0.094-1.057
				C78.062,654.085,79.673,651.786,79.673,649.113z"/>
			<g>
				<path fill="#183356" d="M53.13,672.743h13.338C66.468,672.743,60.895,666.549,53.13,672.743z"/>
			</g>
			<g>
				<path fill="#183356" d="M60.219,672.783c-0.31,0-0.562-0.251-0.562-0.563v-43.225c0-0.312,0.252-0.563,0.562-0.563
					c0.312,0,0.567,0.251,0.567,0.563v43.225C60.786,672.532,60.531,672.783,60.219,672.783z"/>
			</g>
			<g>
				<path fill="#183356" d="M60.142,662.554c-0.089,0-0.182-0.018-0.266-0.065l-8.477-4.544c-0.273-0.147-0.379-0.487-0.232-0.764
					c0.147-0.275,0.488-0.38,0.765-0.229l8.477,4.543c0.275,0.147,0.377,0.488,0.231,0.764
					C60.539,662.448,60.341,662.554,60.142,662.554z"/>
			</g>
			<g>
				<path fill="#183356" d="M60.389,656.905c-0.167,0-0.332-0.073-0.442-0.213c-0.193-0.244-0.153-0.602,0.091-0.793L70,648.001
					c0.246-0.194,0.602-0.153,0.792,0.091c0.191,0.244,0.153,0.602-0.09,0.791l-9.964,7.901
					C60.636,656.865,60.513,656.905,60.389,656.905z"/>
			</g>
			<g>
				<path fill="#183356" d="M60.2,650.115c-0.089,0-0.182-0.022-0.264-0.069l-7.917-4.246c-0.275-0.147-0.377-0.49-0.228-0.762
					c0.145-0.275,0.488-0.379,0.758-0.232l7.917,4.248c0.272,0.148,0.376,0.49,0.231,0.762
					C60.595,650.007,60.402,650.115,60.2,650.115z"/>
			</g>
			<g>
				<path fill="#183356" d="M60.176,640.297c-0.09,0-0.181-0.023-0.265-0.067l-5.334-2.862c-0.273-0.147-0.374-0.489-0.228-0.762
					c0.147-0.275,0.488-0.379,0.762-0.23l5.334,2.862c0.273,0.146,0.377,0.488,0.23,0.762
					C60.574,640.189,60.376,640.297,60.176,640.297z"/>
			</g>
			<g>
				<path fill="#183356" d="M60.506,644.688c-0.132,0-0.265-0.047-0.371-0.136c-0.236-0.206-0.26-0.562-0.058-0.799l5.888-6.765
					c0.204-0.234,0.565-0.258,0.796-0.053c0.237,0.202,0.262,0.557,0.058,0.792l-5.89,6.77
					C60.819,644.621,60.661,644.688,60.506,644.688z"/>
			</g>
			<g>
				<path fill="#183356" d="M60.389,635.87c-0.13,0-0.262-0.046-0.371-0.137c-0.234-0.204-0.26-0.562-0.054-0.796l4.283-4.922
					c0.204-0.236,0.56-0.259,0.794-0.057c0.236,0.205,0.261,0.562,0.055,0.8l-4.28,4.919
					C60.704,635.805,60.545,635.87,60.389,635.87z"/>
			</g>
		</g>
		<g clip-path="url(#SVGID_2_)">
			<ellipse fill="#AECD58" cx="497.777" cy="587.999" rx="14.525" ry="25.911"/>
			<path fill="#183356" d="M491.228,619.072h12.729C503.956,619.072,498.642,613.161,491.228,619.072z"/>
			<g>
				<path fill="#183356" d="M497.995,619.11c-0.298,0-0.536-0.241-0.536-0.54v-41.243c0-0.298,0.238-0.538,0.536-0.538
					c0.299,0,0.539,0.24,0.539,0.538v41.243C498.534,618.869,498.294,619.11,497.995,619.11z"/>
			</g>
			<g>
				<path fill="#183356" d="M497.919,609.352c-0.084,0-0.171-0.021-0.252-0.064l-8.091-4.335c-0.261-0.143-0.36-0.467-0.22-0.729
					c0.139-0.263,0.466-0.361,0.729-0.22l8.09,4.334c0.262,0.143,0.36,0.467,0.221,0.729
					C498.3,609.246,498.112,609.352,497.919,609.352z"/>
			</g>
			<g>
				<path fill="#183356" d="M498.334,603.96c-0.158,0-0.313-0.069-0.421-0.204c-0.186-0.231-0.146-0.572,0.087-0.756l9.507-7.538
					c0.232-0.184,0.57-0.144,0.755,0.089c0.185,0.231,0.146,0.57-0.087,0.755l-9.506,7.54
					C498.571,603.922,498.453,603.96,498.334,603.96z"/>
			</g>
			<g>
				<path fill="#183356" d="M497.976,597.479c-0.087,0-0.174-0.021-0.254-0.064l-7.552-4.053c-0.262-0.142-0.359-0.467-0.219-0.729
					c0.14-0.261,0.468-0.36,0.729-0.219l7.55,4.053c0.264,0.142,0.362,0.469,0.221,0.729
					C498.352,597.377,498.169,597.479,497.976,597.479z"/>
			</g>
			<g>
				<path fill="#183356" d="M497.954,588.111c-0.085,0-0.173-0.021-0.254-0.065l-5.089-2.73c-0.261-0.142-0.359-0.467-0.218-0.728
					c0.139-0.262,0.466-0.359,0.727-0.221l5.089,2.732c0.263,0.14,0.362,0.467,0.22,0.727
					C498.332,588.008,498.146,588.111,497.954,588.111z"/>
			</g>
			<g>
				<path fill="#183356" d="M498.209,592.302c-0.124,0-0.25-0.043-0.353-0.132c-0.225-0.196-0.248-0.536-0.053-0.76l5.618-6.457
					c0.195-0.225,0.534-0.247,0.761-0.051c0.221,0.194,0.246,0.534,0.051,0.757l-5.619,6.458
					C498.51,592.238,498.359,592.302,498.209,592.302z"/>
			</g>
			<g>
				<path fill="#183356" d="M498.224,583.888c-0.123,0-0.25-0.045-0.353-0.133c-0.226-0.194-0.248-0.535-0.054-0.759l4.088-4.695
					c0.195-0.226,0.535-0.247,0.758-0.053c0.225,0.195,0.249,0.536,0.053,0.76l-4.087,4.694
					C498.523,583.824,498.372,583.888,498.224,583.888z"/>
			</g>
		</g>
		<path clip-path="url(#SVGID_2_)" fill="#CEE19B" d="M372.944,698h250.685c0,0-59.094-60.124-146.736-20.381
			C476.893,677.619,406.565,664,372.944,698z"/>
		
			<path clip-path="url(#SVGID_2_)" fill="none" stroke="#183356" stroke-width="2" stroke-linecap="round" stroke-linejoin="round" stroke-miterlimit="10" d="
			M1122.276,513.677c0,0-8.016-5.062-12.656,2.953c0,0-3.797-8.438-13.922-2.531"/>
		
			<path clip-path="url(#SVGID_2_)" fill="none" stroke="#183356" stroke-width="2" stroke-linecap="round" stroke-linejoin="round" stroke-miterlimit="10" d="
			M1155.131,526.675c0,0-8.016-5.062-12.656,2.953c0,0-3.797-8.438-13.922-2.531"/>
		
			<path clip-path="url(#SVGID_2_)" fill="none" stroke="#183356" stroke-width="2" stroke-linecap="round" stroke-linejoin="round" stroke-miterlimit="10" d="
			M1172.656,504.429c0,0-8.016-5.062-12.656,2.953c0,0-3.797-8.438-13.922-2.531"/>
		<g clip-path="url(#SVGID_2_)">
			<path fill="#183356" d="M862.899,647.312v-48.345h-3.995V190.874c0,0-6.375,2.758-14.593,0.639v408.097h-4.452v48.007
				c0,0-0.944,12.896,11.877,12.896C863.992,660.512,862.899,647.312,862.899,647.312z"/>
			<path fill="#B7DFE2" d="M843.354,155.79l-60.78-41.807l-10.62,1.094l2.613,11.74l56.821,43.984
				C831.388,170.802,833.496,159.347,843.354,155.79z"/>
			<path fill="#AFDCDF" d="M835.625,161.579c1.793-2.344,4.286-4.547,7.729-5.789l-60.78-41.807l-10.62,1.094L835.625,161.579z"/>
			<path fill="#B7DFE2" d="M837.489,188.755l-9.254,73.188l5.842,8.935l9.232-7.714l13.016-70.678
				C856.325,192.485,845.172,195.874,837.489,188.755z"/>
			<path fill="#AFDCDF" d="M846.184,192.958c-2.905-0.516-6.012-1.716-8.694-4.203l-9.254,73.188l5.842,8.935L846.184,192.958z"/>
			<path fill="#183356" d="M857.888,192.28c-10.181,4.26-21.893-0.539-26.153-10.729c-4.257-10.184,0.553-21.881,10.736-26.141
				c10.187-4.256,21.886,0.531,26.145,10.717C872.876,176.312,868.071,188.021,857.888,192.28z"/>
			<path fill="#B7DFE2" d="M869.923,176.591l67.161-30.512l4.542-9.666l-11.408-3.814l-66.998,26
				C863.22,158.599,871.957,166.312,869.923,176.591z"/>
			<path fill="#AFDCDF" d="M868.94,166.986c1.087,2.741,1.692,6.017,0.982,9.604l67.161-30.512l4.542-9.666L868.94,166.986z"/>
			<path fill="#EB6A5B" d="M852.797,180.104c-3.459,1.444-7.436-0.186-8.884-3.645c-1.449-3.463,0.187-7.435,3.643-8.879
				c3.46-1.449,7.438,0.18,8.884,3.639C857.886,174.683,856.258,178.657,852.797,180.104z"/>
			<polygon fill="#ED796B" points="927.979,133.469 930.218,132.599 941.626,136.413 937.084,146.079 934.83,147.103 
				936.856,138.419 			"/>
			<polygon fill="#EB6A5B" points="934.763,147.135 937.084,146.079 941.626,136.413 936.856,138.419 			"/>
			<polygon fill="#ED796B" points="916.557,137.913 918.896,137.005 930.822,140.991 926.075,151.098 923.72,152.168 
				925.837,143.09 			"/>
			<polygon fill="#EB6A5B" points="923.648,152.2 926.075,151.098 930.822,140.991 925.837,143.09 			"/>
			<polygon fill="#ED796B" points="843.773,260.772 843.335,263.134 834.095,270.834 828.258,261.889 828.571,259.435 
				834.896,265.722 			"/>
			<polygon fill="#EB6A5B" points="828.586,259.28 828.258,261.889 834.084,270.815 834.929,265.71 			"/>
			<polygon fill="#ED796B" points="845.995,248.719 845.539,251.187 835.879,259.237 829.776,249.886 830.104,247.319 
				836.715,253.893 			"/>
			<polygon fill="#EB6A5B" points="830.104,247.319 829.776,249.886 835.877,259.233 836.715,253.893 			"/>
			<polygon fill="#ED796B" points="776.461,128.273 774.562,126.802 771.951,115.062 782.576,113.971 784.614,115.374 
				776.129,118.114 			"/>
			<polygon fill="#EB6A5B" points="784.745,115.457 782.576,113.971 771.972,115.061 776.124,118.148 			"/>
			<polygon fill="#ED796B" points="786.158,135.771 784.174,134.233 781.443,121.96 792.55,120.819 794.681,122.286 785.812,125.15 
							"/>
			<polygon fill="#EB6A5B" points="794.681,122.286 792.55,120.819 781.446,121.96 785.812,125.15 			"/>
			<path fill="#FCEE21" d="M863.498,598.685v48.345c0,0,1.189,13.199-12.146,13.199c-13.951,0-12.924-12.896-12.924-12.896v-48.856
				L863.498,598.685z"/>
			<polygon fill="#DFF1F2" points="884,664 842.999,664 836,656.251 836,644 884,644 			"/>
		</g>
		<g clip-path="url(#SVGID_2_)">
			<path fill="#183356" d="M1075.483,647.312v-48.345h-3.995V164.657c0,0-6.375,2.758-14.593,0.639v434.313h-4.452v48.007
				c0,0-0.944,12.896,11.877,12.896C1076.576,660.512,1075.483,647.312,1075.483,647.312z"/>
			<path fill="#B7DFE2" d="M1071.533,130.636l-13.374-72.549l-8.279-6.74l-6.46,10.146l9.035,71.286
				C1052.455,132.778,1062.05,126.175,1071.533,130.636z"/>
			<path fill="#AFDCDF" d="M1061.975,129.259c2.926-0.388,6.246-0.182,9.559,1.377l-13.374-72.549l-8.279-6.74L1061.975,129.259z"/>
			<path fill="#B7DFE2" d="M1044.065,149.782l-58.321,45.174l-2.193,10.447l11.982,1.08l59.204-40.738
				C1054.737,165.745,1044.457,160.249,1044.065,149.782z"/>
			<path fill="#AFDCDF" d="M1047.235,158.905c-1.688-2.42-3.034-5.467-3.17-9.123l-58.321,45.174l-2.193,10.447L1047.235,158.905z"
				/>
			<path fill="#183356" d="M1055.986,166.706c-10.209-4.193-15.09-15.871-10.892-26.086c4.196-10.209,15.871-15.071,26.082-10.877
				c10.21,4.199,15.091,15.859,10.894,26.07C1077.876,166.026,1066.196,170.901,1055.986,166.706z"/>
			<path fill="#B7DFE2" d="M1075.592,164.134l69.05,25.955l10.049-3.617l-5.363-10.768l-65.742-29.027
				C1083.585,146.677,1084.302,158.31,1075.592,164.134z"/>
			<path fill="#AFDCDF" d="M1081.693,156.651c-1.171,2.705-3.061,5.449-6.102,7.482l69.05,25.955l10.049-3.617L1081.693,156.651z"/>
			<path fill="#EB6A5B" d="M1061.003,154.5c-3.466-1.427-5.123-5.392-3.699-8.862c1.426-3.471,5.392-5.121,8.856-3.697
				c3.47,1.424,5.129,5.39,3.704,8.857C1068.436,154.269,1064.474,155.925,1061.003,154.5z"/>
			<polygon fill="#ED796B" points="1147.13,174.735 1149.327,175.704 1154.69,186.472 1144.642,190.089 1142.325,189.218 
				1149.9,184.515 			"/>
			<polygon fill="#EB6A5B" points="1142.255,189.192 1144.642,190.089 1154.69,186.472 1149.9,184.515 			"/>
			<polygon fill="#ED796B" points="1135.913,169.795 1138.209,170.808 1143.816,182.063 1133.312,185.847 1130.89,184.937 
				1138.809,180.019 			"/>
			<polygon fill="#EB6A5B" points="1130.816,184.909 1133.312,185.847 1143.816,182.063 1138.809,180.019 			"/>
			<polygon fill="#ED796B" points="997.553,205.123 995.572,206.481 983.594,205.386 985.798,194.935 987.756,193.422 
				987.776,202.339 			"/>
			<polygon fill="#EB6A5B" points="987.875,193.323 985.798,194.935 983.6,205.364 987.808,202.354 			"/>
			<polygon fill="#ED796B" points="1007.65,198.177 1005.582,199.598 993.06,198.452 995.363,187.526 997.41,185.944 
				997.432,195.267 			"/>
			<polygon fill="#EB6A5B" points="997.41,185.944 995.363,187.526 993.062,198.448 997.432,195.267 			"/>
			<polygon fill="#ED796B" points="1043.729,63.862 1043.428,61.479 1049.89,51.334 1058.169,58.081 1058.617,60.515 
				1050.682,56.447 			"/>
			<polygon fill="#EB6A5B" points="1058.65,60.665 1058.169,58.081 1049.904,51.348 1050.654,56.468 			"/>
			<polygon fill="#ED796B" points="1045.277,76.021 1044.962,73.53 1051.717,62.925 1060.372,69.978 1060.841,72.521 
				1052.546,68.271 			"/>
			<polygon fill="#EB6A5B" points="1060.841,72.521 1060.372,69.978 1051.719,62.927 1052.546,68.271 			"/>
			<path fill="#FCEE21" d="M1076.498,598.685v48.345c0,0,1.189,13.199-12.146,13.199c-13.951,0-12.924-12.896-12.924-12.896v-48.856
				L1076.498,598.685z"/>
			<rect x="1023" y="644" fill="#DFF1F2" width="70" height="33"/>
		</g>
		<g clip-path="url(#SVGID_2_)">
			<path fill="#183356" d="M438.076,630.312v-31.345h-3.995V329.96c0,0-6.375,2.758-14.595,0.639v269.011h-4.452v31.007
				c0,0-0.943,12.896,11.88,12.896C439.168,643.512,438.076,630.312,438.076,630.312z"/>
			<path fill="#B7DFE2" d="M414.732,300.18l-70.859-20.51l-9.734,4.386l6.182,10.318l67.801,23.832
				C408.121,318.206,406.505,306.666,414.732,300.18z"/>
			<path fill="#AFDCDF" d="M409.225,308.117c0.965-2.793,2.635-5.673,5.508-7.938l-70.859-20.51l-9.734,4.386L409.225,308.117z"/>
			<path fill="#B7DFE2" d="M419.573,333.331l14.291,72.371l8.362,6.635l6.329-10.225l-9.933-71.179
				C438.623,330.934,429.107,337.669,419.573,333.331z"/>
			<path fill="#AFDCDF" d="M429.15,334.58c-2.921,0.427-6.248,0.266-9.577-1.249l14.291,72.371l8.362,6.635L429.15,334.58z"/>
			<path fill="#183356" d="M440.039,330.244c-8.317,7.251-20.943,6.39-28.197-1.937c-7.254-8.329-6.385-20.955,1.935-28.205
				c8.317-7.24,20.942-6.375,28.195,1.946C449.231,310.364,448.361,322.983,440.039,330.244z"/>
			<path fill="#B7DFE2" d="M446.515,311.556l54.11-50.119l1.267-10.605l-12.03-0.025l-55.384,45.799
				C434.478,296.604,445.2,301.172,446.515,311.556z"/>
			<path fill="#AFDCDF" d="M442.551,302.757c1.897,2.26,3.504,5.176,3.964,8.799l54.11-50.119l1.267-10.605L442.551,302.757z"/>
			<circle fill="#EB6A5B" cx="426.91" cy="315.17" r="6.79"/>
		</g>
		<g clip-path="url(#SVGID_2_)">
			<rect x="75.229" y="94.502" fill="none" width="444.543" height="72.5"/>
			<text transform="matrix(1 0 0 1 75.2285 114.6777)"><tspan x="0" y="0" fill="#183356" font-family="'Ubuntu-Medium'" font-size="26">DES ÉNERGIES RENOUVELABLES </tspan><tspan x="0" y="40" fill="#EB6A5B" font-family="'Ubuntu-Bold'" font-size="32">PROMETTEUSES</tspan></text>
		</g>
		<rect x="836" y="606" clip-path="url(#SVGID_2_)" fill="#FCEE21" width="30" height="6"/>
		<rect x="836" y="621" clip-path="url(#SVGID_2_)" fill="#FCEE21" width="30" height="6"/>
		<rect x="836" y="636" clip-path="url(#SVGID_2_)" fill="#FCEE21" width="30" height="6"/>
		<rect x="1049" y="606" clip-path="url(#SVGID_2_)" fill="#FCEE21" width="30" height="6"/>
		<rect x="1049" y="621" clip-path="url(#SVGID_2_)" fill="#FCEE21" width="30" height="6"/>
		<rect x="1049" y="636" clip-path="url(#SVGID_2_)" fill="#FCEE21" width="30" height="6"/>
		<g clip-path="url(#SVGID_2_)">
			<path fill="#B7DFE2" d="M193.573,409.966l-62.018,39.944l-3.089,10.222l11.838,2.117l62.516-35.455
				C202.819,426.794,193.054,420.431,193.573,409.966z"/>
			<path fill="#AFDCDF" d="M195.938,419.331c-1.472-2.559-2.545-5.711-2.364-9.365l-62.018,39.944l-3.089,10.222L195.938,419.331z"
				/>
			<path fill="#B7DFE2" d="M221.738,428.095l63.951,36.775l10.497-1.943l-3.551-11.492l-60.187-39.277
				C232.448,412.157,231.272,423.756,221.738,428.095z"/>
			<path fill="#AFDCDF" d="M228.972,421.694c-1.596,2.481-3.904,4.885-7.234,6.4l63.951,36.775l10.497-1.943L228.972,421.694z"/>
			<path fill="#183356" d="M232.86,410.635c0,11.038-8.947,19.987-19.986,19.987c-11.042,0-19.988-8.949-19.988-19.987
				c0-11.035,8.945-19.974,19.988-19.974C223.914,390.661,232.86,399.6,232.86,410.635z"/>
			<path fill="#B7DFE2" d="M223.031,393.493l-2.238-73.733l-7.162-7.919l-7.92,9.051l-1.868,71.842
				C203.842,392.733,214.331,387.653,223.031,393.493z"/>
			<path fill="#AFDCDF" d="M213.791,390.689c2.947,0.059,6.202,0.765,9.24,2.804l-2.238-73.733l-7.162-7.919L213.791,390.689z"/>
			<circle fill="#EB6A5B" cx="212.874" cy="410.635" r="6.788"/>
			<path fill="#183356" d="M224.787,630.312v-31.345h-3.994V428.63c0,0-6.376,2.758-14.597,0.639v170.341h-4.452v31.007
				c0,0-0.941,12.896,11.878,12.896C225.877,643.512,224.787,630.312,224.787,630.312z"/>
		</g>
		<polygon opacity="0.5" clip-path="url(#SVGID_2_)" fill="#F9F6F5" points="703.81,724.623 726.712,701.79 732.705,701.743 
			709.812,724.575 		"/>
		<polygon opacity="0.5" clip-path="url(#SVGID_2_)" fill="#F9F6F5" points="758.81,695.623 781.712,672.79 787.705,672.743 
			764.812,695.575 		"/>
	</g>
	<g>
		<g>
			<path fill="#7A1E72" d="M123.967,767.253h-0.506c-0.045,0-0.062-0.043-0.083-0.084l-0.597-1.109h-0.059
				c-0.107,0-0.273-0.013-0.369-0.016v1.125c0,0.047-0.031,0.084-0.078,0.084h-0.416c-0.045,0-0.082-0.037-0.082-0.084v-2.853
				c0-0.084,0.049-0.112,0.133-0.125c0.215-0.033,0.51-0.055,0.812-0.055c0.64,0,1.194,0.229,1.194,0.938v0.038
				c0,0.438-0.221,0.713-0.56,0.846l0.65,1.211c0.01,0.013,0.01,0.024,0.01,0.033C124.018,767.23,123.998,767.253,123.967,767.253
				 M123.346,765.074c0-0.312-0.21-0.443-0.623-0.443c-0.087,0-0.293,0.009-0.369,0.016v0.934c0.066,0.006,0.299,0.013,0.369,0.013
				c0.427,0,0.623-0.117,0.623-0.48V765.074z"/>
			<path fill="#7A1E72" d="M126.264,766.274h-1.354v0.012c0,0.24,0.102,0.526,0.497,0.526c0.304,0,0.589-0.024,0.765-0.041
				c0.004,0,0.007,0,0.012,0c0.042,0,0.076,0.02,0.076,0.061v0.274c0,0.065-0.014,0.096-0.088,0.109
				c-0.27,0.049-0.43,0.069-0.805,0.069c-0.416,0-1.002-0.223-1.002-1.04v-0.308c0-0.647,0.359-1.054,0.992-1.054
				c0.639,0,0.988,0.435,0.988,1.054v0.231C126.346,766.235,126.32,766.274,126.264,766.274 M125.795,765.866
				c0-0.323-0.18-0.51-0.438-0.51c-0.255,0-0.443,0.183-0.443,0.51v0.018h0.881V765.866z M126.039,764.084l-0.49,0.514
				c-0.033,0.038-0.049,0.055-0.098,0.055h-0.357c-0.025,0-0.037-0.013-0.037-0.03c0-0.012,0.003-0.027,0.017-0.04l0.394-0.498
				c0.037-0.046,0.054-0.063,0.108-0.063h0.435c0.029,0,0.047,0.014,0.047,0.029C126.057,764.058,126.05,764.071,126.039,764.084z"
				/>
			<path fill="#7A1E72" d="M128.867,765.29l-0.136,0.054c0.064,0.097,0.103,0.188,0.103,0.332v0.029
				c0,0.518-0.357,0.755-0.982,0.755c-0.221,0-0.371-0.038-0.45-0.07c-0.052,0.032-0.071,0.07-0.071,0.108
				c0,0.081,0.044,0.114,0.139,0.135l0.49,0.118c0.563,0.133,0.93,0.22,0.93,0.662v0.029c0,0.424-0.312,0.65-1.018,0.65
				c-0.67,0-1.028-0.254-1.028-0.688v-0.037c0-0.17,0.081-0.334,0.212-0.455c-0.115-0.087-0.187-0.233-0.187-0.382v-0.004
				c0-0.128,0.056-0.258,0.166-0.337c-0.124-0.13-0.171-0.278-0.171-0.484v-0.029c0-0.416,0.271-0.763,0.988-0.763h0.971
				c0.062,0,0.111,0.049,0.111,0.111v0.175C128.934,765.26,128.918,765.27,128.867,765.29 M128.34,767.413
				c0-0.092-0.053-0.146-0.488-0.249l-0.371-0.087c-0.061,0.087-0.101,0.143-0.101,0.29v0.037c0,0.171,0.101,0.274,0.491,0.274
				c0.398,0,0.469-0.087,0.469-0.236V767.413z M128.295,765.684c0-0.198-0.086-0.353-0.443-0.353c-0.352,0-0.447,0.158-0.447,0.353
				v0.034c0,0.153,0.062,0.326,0.447,0.326c0.345,0,0.443-0.119,0.443-0.326V765.684z"/>
			<path fill="#7A1E72" d="M129.891,764.603h-0.4c-0.047,0-0.089-0.039-0.089-0.085v-0.364c0-0.045,0.042-0.082,0.089-0.082h0.4
				c0.049,0,0.084,0.037,0.084,0.082v0.364C129.975,764.563,129.939,764.603,129.891,764.603 M129.879,767.253h-0.381
				c-0.045,0-0.084-0.043-0.084-0.089v-2.169c0-0.046,0.039-0.082,0.084-0.082h0.381c0.045,0,0.084,0.036,0.084,0.082v2.169
				C129.963,767.21,129.924,767.253,129.879,767.253z"/>
			<path fill="#7A1E72" d="M131.518,767.285c-0.651,0-0.992-0.44-0.992-1.032v-0.338c0-0.591,0.341-1.031,0.992-1.031
				c0.65,0,0.99,0.44,0.99,1.031v0.338C132.508,766.845,132.168,767.285,131.518,767.285 M131.959,765.915
				c0-0.34-0.152-0.559-0.441-0.559s-0.443,0.219-0.443,0.559v0.338c0,0.339,0.154,0.56,0.443,0.56s0.441-0.221,0.441-0.56V765.915z
				"/>
			<path fill="#7A1E72" d="M134.895,767.253h-0.383c-0.046,0-0.084-0.043-0.084-0.089v-1.353c0-0.358-0.033-0.463-0.353-0.463
				c-0.142,0-0.294,0.056-0.467,0.149v1.666c0,0.046-0.04,0.089-0.084,0.089h-0.383c-0.046,0-0.081-0.043-0.081-0.089v-2.169
				c0-0.046,0.035-0.082,0.081-0.082h0.362c0.045,0,0.082,0.036,0.082,0.082v0.087c0.242-0.152,0.398-0.198,0.674-0.198
				c0.595,0,0.717,0.403,0.717,0.928v1.353C134.977,767.21,134.938,767.253,134.895,767.253"/>
			<path fill="#005CA5" d="M137.354,770.189c0.01-0.027,0.02-0.047,0.02-0.072c0-0.078-0.066-0.142-0.162-0.142h-1.035
				c-0.083,0-0.15,0.073-0.178,0.149l-1.13,2.805c-0.065,0.159-0.122,0.188-0.169,0.188c-0.037,0-0.094-0.029-0.159-0.188
				l-1.131-2.805c-0.027-0.076-0.093-0.149-0.179-0.149h-1.043c-0.096,0-0.152,0.063-0.152,0.142c0,0.017,0.01,0.045,0.02,0.072
				l0.958,2.202c0.001,0.001,0.002,0.002,0.002,0.004l1.036,2.381v2.002c0,0.104,0.074,0.187,0.179,0.187h0.939
				c0.104,0,0.179-0.083,0.179-0.187v-2.002l0.607-1.393L137.354,770.189"/>
			<path fill="#005CA5" d="M123.924,774.359c-0.244,0-0.622-0.029-0.838-0.038v2.457c0,0.104-0.078,0.187-0.18,0.187h-0.941
				c-0.104,0-0.188-0.083-0.188-0.187v-6.475c0-0.187,0.111-0.255,0.301-0.283c0.49-0.074,1.158-0.122,1.846-0.122
				c1.449,0,2.711,0.51,2.711,2.175v0.084C126.635,773.824,125.373,774.359,123.924,774.359 M125.336,772.073
				c0-0.792-0.471-1.092-1.412-1.092c-0.198,0-0.668,0.019-0.838,0.037v2.239c0.15,0.011,0.677,0.028,0.838,0.028
				c1.016,0,1.412-0.374,1.412-1.129V772.073z"/>
			<path fill="#005CA5" d="M132.176,776.965h-0.997c-0.083,0-0.159-0.072-0.179-0.157l-0.432-1.789h-2.166l-0.434,1.789
				c-0.018,0.085-0.094,0.157-0.18,0.157h-0.996c-0.095,0-0.172-0.063-0.172-0.157c0-0.011,0.01-0.029,0.01-0.047l1.545-5.902
				c0.227-0.874,0.904-0.96,1.31-0.96c0.403,0,1.083,0.086,1.31,0.96l1.543,5.902c0,0.018,0.01,0.036,0.01,0.047
				C132.348,776.901,132.27,776.965,132.176,776.965 M129.635,771.149c-0.027-0.111-0.056-0.149-0.149-0.149
				c-0.096,0-0.124,0.038-0.151,0.149l-0.678,2.797h1.656L129.635,771.149z"/>
			<path fill="#005CA5" d="M139.945,777.042c-0.703,0-1.211-0.066-1.662-0.169c-0.096-0.019-0.181-0.085-0.181-0.188v-0.679
				c0-0.104,0.085-0.18,0.181-0.18c0.009,0,0.009,0,0.018,0c0.377,0.049,1.318,0.095,1.668,0.095c0.836,0,1.09-0.301,1.09-0.845
				c0-0.37-0.178-0.557-0.799-0.923l-1.244-0.745c-0.875-0.517-1.11-1.064-1.11-1.724c0-1.033,0.603-1.787,2.354-1.787
				c0.621,0,1.486,0.096,1.806,0.17c0.095,0.018,0.171,0.084,0.171,0.18v0.696c0,0.094-0.068,0.169-0.16,0.169
				c-0.011,0-0.011,0-0.02,0c-0.621-0.058-1.243-0.095-1.854-0.095c-0.696,0-0.987,0.244-0.987,0.667
				c0,0.311,0.158,0.501,0.771,0.839l1.132,0.631c1.034,0.574,1.307,1.175,1.307,1.922
				C142.424,776.027,141.83,777.042,139.945,777.042"/>
			<path fill="#005CA5" d="M148.006,777.042c-0.67,0-1.572-0.066-1.855-0.112c-0.159-0.028-0.243-0.103-0.243-0.292v-6.334
				c0-0.187,0.084-0.265,0.243-0.291c0.283-0.048,1.186-0.114,1.855-0.114c1.881,0,2.956,1.017,2.956,2.878v1.387
				C150.962,776.027,149.887,777.042,148.006,777.042 M149.661,772.776c0-1.409-0.714-1.776-1.655-1.776
				c-0.348,0-0.594,0.019-0.79,0.026v4.887c0.196,0.009,0.442,0.028,0.79,0.028c0.941,0,1.655-0.366,1.655-1.778V772.776z"/>
			<path fill="#005CA5" d="M155.996,776.911c-0.301,0.046-0.668,0.131-1.787,0.131c-1.226,0-2.176-0.327-2.176-1.927v-3.289
				c0-1.599,0.95-1.928,2.176-1.928c1.119,0,1.486,0.086,1.787,0.131c0.143,0.02,0.189,0.067,0.189,0.198v0.602
				c0,0.106-0.085,0.189-0.189,0.189h-1.922c-0.544,0-0.742,0.188-0.742,0.808v1.019h2.551c0.104,0,0.189,0.084,0.189,0.189v0.677
				c0,0.105-0.085,0.188-0.189,0.188h-2.551v1.217c0,0.62,0.198,0.807,0.742,0.807h1.922c0.104,0,0.189,0.085,0.189,0.188v0.604
				C156.186,776.845,156.139,776.893,155.996,776.911"/>
			<path fill="#005CA5" d="M163.582,776.911c-0.283,0.064-1.1,0.131-1.598,0.131c-1.229,0-2.176-0.327-2.176-1.927v-4.953
				c0-0.104,0.084-0.187,0.188-0.187h0.933c0.103,0,0.188,0.083,0.188,0.187v4.953c0,0.62,0.188,0.807,0.734,0.807h1.73
				c0.104,0,0.189,0.085,0.189,0.188v0.604C163.771,776.845,163.723,776.882,163.582,776.911"/>
			<path fill="#005CA5" d="M169.693,776.965h-0.998c-0.087,0-0.16-0.072-0.182-0.157l-0.43-1.789h-2.166l-0.435,1.789
				c-0.019,0.085-0.095,0.157-0.178,0.157h-0.997c-0.096,0-0.169-0.063-0.169-0.157c0-0.011,0.009-0.029,0.009-0.047l1.543-5.902
				c0.227-0.874,0.902-0.96,1.309-0.96c0.404,0,1.084,0.086,1.309,0.96l1.543,5.902c0,0.018,0.01,0.036,0.01,0.047
				C169.861,776.901,169.786,776.965,169.693,776.965 M167.15,771.149c-0.029-0.111-0.057-0.149-0.15-0.149
				c-0.095,0-0.122,0.038-0.149,0.149l-0.68,2.797h1.657L167.15,771.149z"/>
			<path fill="#005CA5" d="M176.875,776.911c-0.283,0.064-1.102,0.131-1.6,0.131c-1.226,0-2.176-0.327-2.176-1.927v-4.953
				c0-0.104,0.084-0.187,0.188-0.187h0.931c0.105,0,0.188,0.083,0.188,0.187v4.953c0,0.62,0.19,0.807,0.737,0.807h1.731
				c0.104,0,0.187,0.085,0.187,0.188v0.604C177.062,776.845,177.015,776.882,176.875,776.911"/>
			<path fill="#005CA5" d="M180.12,777.042c-1.555,0-2.685-0.865-2.685-2.937v-1.271c0-2.07,1.13-2.937,2.685-2.937
				c1.554,0,2.683,0.866,2.683,2.937v1.271C182.803,776.177,181.674,777.042,180.12,777.042 M181.485,772.835
				c0-1.242-0.443-1.797-1.365-1.797c-0.923,0-1.364,0.555-1.364,1.797v1.271c0,1.244,0.441,1.798,1.364,1.798
				c0.922,0,1.365-0.554,1.365-1.798V772.835z"/>
			<path fill="#005CA5" d="M185.146,776.965h-0.932c-0.105,0-0.189-0.083-0.189-0.187v-6.626c0-0.104,0.084-0.177,0.189-0.177h0.932
				c0.103,0,0.188,0.073,0.188,0.177v6.626C185.334,776.882,185.249,776.965,185.146,776.965"/>
			<path fill="#005CA5" d="M191.715,776.965h-1.149c-0.101,0-0.14-0.092-0.186-0.187l-1.355-2.511h-0.132
				c-0.247,0-0.621-0.03-0.84-0.04v2.551c0,0.104-0.074,0.187-0.178,0.187h-0.939c-0.104,0-0.189-0.083-0.189-0.187v-6.475
				c0-0.187,0.113-0.255,0.301-0.283c0.49-0.074,1.156-0.122,1.846-0.122c1.45,0,2.711,0.52,2.711,2.127v0.085
				c0,0.997-0.5,1.619-1.271,1.92l1.479,2.748c0.018,0.029,0.018,0.059,0.018,0.076C191.828,776.919,191.79,776.965,191.715,776.965
				 M190.305,772.025c0-0.707-0.471-1.007-1.412-1.007c-0.197,0-0.67,0.02-0.84,0.037v2.119c0.15,0.01,0.68,0.028,0.84,0.028
				c0.969,0,1.412-0.265,1.412-1.093V772.025z"/>
			<path fill="#005CA5" d="M196.619,776.911c-0.303,0.046-0.668,0.131-1.789,0.131c-1.225,0-2.176-0.327-2.176-1.927v-3.289
				c0-1.599,0.951-1.928,2.176-1.928c1.121,0,1.486,0.086,1.789,0.131c0.142,0.02,0.188,0.067,0.188,0.198v0.602
				c0,0.106-0.084,0.189-0.188,0.189h-1.922c-0.545,0-0.744,0.188-0.744,0.808v1.019h2.551c0.105,0,0.189,0.084,0.189,0.189v0.677
				c0,0.105-0.084,0.188-0.189,0.188h-2.551v1.217c0,0.62,0.199,0.807,0.744,0.807h1.922c0.104,0,0.188,0.085,0.188,0.188v0.604
				C196.807,776.845,196.761,776.893,196.619,776.911"/>
			<path fill="#009CB9" d="M110.92,773.468c0-5.243-2.033-10.006-5.356-13.582h-4.521c4.075,3.14,6.702,8.053,6.702,13.582
				c0,5.539-2.627,10.45-6.706,13.586h4.524C108.887,783.482,110.92,778.713,110.92,773.468"/>
			<path fill="#BDD143" d="M113.211,773.536c0-5.076-1.613-9.786-4.36-13.65h6.249c2.292,4.036,3.601,8.694,3.601,13.65
				c0,4.906-1.281,9.518-3.521,13.518h-6.244C111.633,783.22,113.211,778.564,113.211,773.536"/>
			<path fill="#009CB9" d="M37.627,775.475h-0.318c-0.061,0-0.109-0.056-0.109-0.123v-4.341c0-0.06,0.043-0.115,0.109-0.115h0.318
				c0.061,0,0.109,0.049,0.109,0.115v4.341C37.736,775.413,37.693,775.475,37.627,775.475"/>
			<path fill="#009CB9" d="M39.501,771.011l-0.353,1.15c-0.025,0.087-0.056,0.115-0.117,0.115h-0.285
				c-0.042,0-0.055-0.023-0.055-0.061c0-0.017,0-0.036,0.006-0.055l0.279-1.15c0.019-0.084,0.062-0.115,0.123-0.115h0.341
				c0.042,0,0.066,0.025,0.066,0.066C39.507,770.976,39.507,770.993,39.501,771.011"/>
			<path fill="#009CB9" d="M42.868,773.972h-2.04v0.084c0,0.725,0.287,0.991,0.847,0.991c0.353,0,0.803-0.024,1.083-0.065
				c0.013,0,0.018,0,0.031,0c0.049,0,0.098,0.023,0.098,0.087v0.204c0,0.079-0.025,0.123-0.123,0.141
				c-0.347,0.066-0.682,0.104-1.089,0.104c-0.7,0-1.382-0.33-1.382-1.461v-0.549c0-0.87,0.48-1.424,1.351-1.424
				c0.89,0,1.339,0.559,1.339,1.424v0.33C42.982,773.915,42.94,773.972,42.868,773.972 M42.441,773.507
				c0-0.689-0.262-0.955-0.798-0.955c-0.522,0-0.815,0.3-0.815,0.955v0.056h1.613V773.507z"/>
			<path fill="#009CB9" d="M44.998,775.517c-0.225,0-0.663-0.019-0.961-0.09c-0.08-0.02-0.129-0.057-0.129-0.125v-0.211
				c0-0.057,0.049-0.093,0.109-0.093c0.013,0,0.02,0,0.025,0c0.292,0.036,0.736,0.07,0.955,0.07c0.396,0,0.604-0.105,0.604-0.435
				c0-0.183-0.11-0.298-0.457-0.506l-0.615-0.367c-0.371-0.223-0.621-0.486-0.621-0.867c0-0.634,0.476-0.811,1.102-0.811
				c0.342,0,0.664,0.029,0.951,0.078c0.078,0.014,0.115,0.055,0.115,0.122v0.201c0,0.073-0.043,0.104-0.104,0.104
				c-0.006,0-0.012,0-0.018,0c-0.213-0.019-0.604-0.049-0.945-0.049c-0.34,0-0.564,0.043-0.564,0.354
				c0,0.181,0.139,0.297,0.419,0.461l0.603,0.36c0.506,0.298,0.67,0.559,0.67,0.919C46.137,775.255,45.68,775.517,44.998,775.517"/>
			<path fill="#009CB9" d="M48.408,775.517c-0.189,0-0.475-0.024-0.713-0.066v1.102c0,0.061-0.049,0.114-0.115,0.114H47.27
				c-0.061,0-0.109-0.048-0.109-0.114v-4.189c0-0.079,0.018-0.114,0.127-0.139c0.323-0.081,0.75-0.141,1.121-0.141
				c0.907,0,1.327,0.589,1.327,1.504v0.438C49.735,774.981,49.297,775.517,48.408,775.517 M49.199,773.587
				c0-0.64-0.188-1.053-0.791-1.053c-0.256,0-0.542,0.029-0.713,0.06v2.411c0.2,0.037,0.518,0.063,0.713,0.063
				c0.596,0,0.791-0.393,0.791-1.044V773.587z"/>
			<path fill="#009CB9" d="M52.134,772.546c-0.28,0-0.536,0.073-0.841,0.255v2.551c0,0.062-0.055,0.123-0.121,0.123h-0.299
				c-0.061,0-0.115-0.056-0.115-0.123v-3.104c0-0.068,0.048-0.123,0.115-0.123h0.287c0.066,0,0.115,0.055,0.115,0.123v0.126
				c0.305-0.213,0.584-0.291,0.858-0.291c0.085,0,0.128,0.035,0.128,0.108v0.249C52.262,772.508,52.219,772.546,52.134,772.546"/>
			<path fill="#009CB9" d="M53.638,771.59h-0.312c-0.066,0-0.121-0.055-0.121-0.123v-0.485c0-0.068,0.055-0.123,0.121-0.123h0.312
				c0.067,0,0.122,0.055,0.122,0.123v0.485C53.76,771.535,53.705,771.59,53.638,771.59 M53.625,775.475h-0.291
				c-0.067,0-0.123-0.056-0.123-0.123v-3.104c0-0.068,0.056-0.123,0.123-0.123h0.291c0.067,0,0.123,0.055,0.123,0.123v3.104
				C53.748,775.419,53.692,775.475,53.625,775.475z"/>
			<path fill="#009CB9" d="M56.621,775.485c-0.121,0.02-0.281,0.031-0.396,0.031c-0.56,0-0.826-0.146-0.826-0.815v-2.124
				l-0.592-0.069c-0.067-0.005-0.115-0.042-0.115-0.107v-0.165c0-0.068,0.048-0.11,0.115-0.11h0.592v-0.597
				c0-0.062,0.041-0.109,0.107-0.122l0.317-0.048c0.006,0,0.012,0,0.019,0c0.049,0,0.091,0.043,0.091,0.103v0.664h0.657
				c0.068,0,0.121,0.055,0.121,0.123v0.207c0,0.067-0.053,0.122-0.121,0.122h-0.657v2.124c0,0.333,0.085,0.383,0.329,0.383h0.342
				c0.084,0,0.126,0.025,0.126,0.085v0.214C56.729,775.438,56.701,775.475,56.621,775.485"/>
			<path fill="#009CB9" d="M62.07,772.534l-0.22,0.043c0.109,0.113,0.206,0.297,0.206,0.626v0.049c0,0.669-0.414,1.04-1.35,1.04
				c-0.324,0-0.531-0.047-0.708-0.122c-0.104,0.05-0.151,0.117-0.151,0.208c0,0.104,0.048,0.159,0.188,0.195l0.907,0.232
				c0.596,0.151,1.169,0.32,1.169,0.896v0.047c0,0.586-0.39,0.944-1.388,0.944c-0.963,0-1.4-0.373-1.4-0.969v-0.055
				c0-0.342,0.182-0.622,0.383-0.774l-0.041-0.017c-0.196-0.085-0.281-0.286-0.281-0.476v-0.007c0-0.163,0.079-0.34,0.25-0.438
				c-0.189-0.177-0.281-0.396-0.281-0.706v-0.049c0-0.542,0.305-1.078,1.354-1.078h1.332c0.073,0,0.141,0.062,0.141,0.135v0.158
				C62.18,772.498,62.137,772.522,62.07,772.534 M61.576,775.701c0-0.24-0.193-0.338-0.742-0.477l-0.689-0.178
				c-0.176,0.154-0.297,0.305-0.297,0.622v0.055c0,0.342,0.201,0.555,0.877,0.555c0.694,0,0.852-0.194,0.852-0.53V775.701z
				 M61.527,773.203c0-0.364-0.164-0.651-0.82-0.651c-0.684,0-0.822,0.311-0.822,0.651v0.049c0,0.267,0.121,0.621,0.822,0.621
				c0.656,0,0.82-0.255,0.82-0.621V773.203z"/>
			<path fill="#009CB9" d="M64.492,772.546c-0.279,0-0.535,0.073-0.84,0.255v2.551c0,0.062-0.055,0.123-0.121,0.123h-0.299
				c-0.061,0-0.115-0.056-0.115-0.123v-3.104c0-0.068,0.049-0.123,0.115-0.123h0.286c0.067,0,0.115,0.055,0.115,0.123v0.126
				c0.306-0.213,0.585-0.291,0.858-0.291c0.086,0,0.129,0.035,0.129,0.108v0.249C64.621,772.508,64.578,772.546,64.492,772.546"/>
			<path fill="#009CB9" d="M67.55,775.475h-0.281c-0.066,0-0.122-0.056-0.122-0.123v-0.134c-0.291,0.17-0.596,0.299-0.938,0.299
				c-0.518,0-0.992-0.225-0.992-0.985v-0.075c0-0.656,0.384-0.985,1.467-0.985h0.452v-0.244c0-0.51-0.179-0.688-0.653-0.688
				c-0.395,0-0.688,0.024-0.93,0.049c-0.014,0-0.02,0-0.032,0c-0.055,0-0.108-0.019-0.108-0.098v-0.214
				c0-0.064,0.043-0.102,0.127-0.115c0.25-0.043,0.53-0.078,0.943-0.078c0.848,0,1.188,0.425,1.188,1.144v2.125
				C67.67,775.419,67.615,775.475,67.55,775.475 M67.136,773.854h-0.452c-0.736,0-0.932,0.164-0.932,0.597v0.073
				c0,0.438,0.207,0.555,0.56,0.555c0.28,0,0.53-0.087,0.824-0.245V773.854z"/>
			<path fill="#009CB9" d="M71.244,775.475h-0.293c-0.065,0-0.121-0.056-0.121-0.123v-2.003c0-0.614-0.207-0.803-0.67-0.803
				c-0.256,0-0.541,0.096-0.82,0.236v2.569c0,0.062-0.057,0.123-0.123,0.123h-0.298c-0.062,0-0.117-0.056-0.117-0.123v-3.104
				c0-0.068,0.05-0.123,0.117-0.123h0.304c0.066,0,0.117,0.055,0.117,0.123v0.114c0.334-0.188,0.607-0.279,0.967-0.279
				c0.73,0,1.06,0.456,1.06,1.266v2.003C71.366,775.419,71.312,775.475,71.244,775.475"/>
			<path fill="#009CB9" d="M74.836,775.413c-0.377,0.072-0.748,0.104-1.119,0.104c-0.908,0-1.328-0.591-1.328-1.504v-0.438
				c0-0.956,0.439-1.492,1.328-1.492c0.188,0,0.474,0.017,0.711,0.06v-1.132c0-0.06,0.049-0.115,0.115-0.115h0.312
				c0.061,0,0.109,0.049,0.109,0.115v4.262C74.965,775.352,74.945,775.396,74.836,775.413 M74.428,772.594
				c-0.201-0.036-0.518-0.042-0.711-0.042c-0.598,0-0.792,0.37-0.792,1.023v0.438c0,0.663,0.188,1.034,0.792,1.034
				c0.205,0,0.504-0.02,0.711-0.036V772.594z"/>
			<path fill="#009CB9" d="M79.146,775.517c-0.896,0-1.352-0.591-1.352-1.486v-0.462c0-0.896,0.456-1.485,1.352-1.485
				c0.895,0,1.357,0.589,1.357,1.485v0.462C80.504,774.926,80.041,775.517,79.146,775.517 M79.969,773.568
				c0-0.621-0.25-1.017-0.822-1.017c-0.566,0-0.816,0.39-0.816,1.017v0.462c0,0.622,0.245,1.017,0.816,1.017
				c0.566,0,0.822-0.389,0.822-1.017V773.568z"/>
			<path fill="#009CB9" d="M83.975,775.475H83.67c-0.066,0-0.117-0.056-0.117-0.123v-0.115c-0.334,0.19-0.607,0.28-0.967,0.28
				c-0.73,0-1.059-0.456-1.059-1.266v-2.003c0-0.068,0.055-0.123,0.122-0.123h0.292c0.066,0,0.121,0.055,0.121,0.123v2.003
				c0,0.614,0.207,0.803,0.669,0.803c0.257,0,0.543-0.097,0.821-0.237v-2.568c0-0.062,0.057-0.123,0.124-0.123h0.298
				c0.06,0,0.116,0.055,0.116,0.123v3.104C84.091,775.419,84.041,775.475,83.975,775.475"/>
			<path fill="#009CB9" d="M87.791,772.271l-0.822,2.897c-0.078,0.275-0.285,0.348-0.547,0.348s-0.469-0.072-0.547-0.348
				l-0.824-2.897c-0.004-0.019-0.004-0.03-0.004-0.042c0-0.062,0.035-0.104,0.096-0.104h0.336c0.049,0,0.09,0.036,0.115,0.116
				l0.7,2.653c0.036,0.147,0.067,0.178,0.128,0.178c0.055,0,0.091-0.03,0.129-0.178l0.698-2.653c0.025-0.08,0.067-0.116,0.116-0.116
				H87.7c0.061,0,0.098,0.042,0.098,0.104C87.798,772.241,87.798,772.253,87.791,772.271"/>
			<path fill="#009CB9" d="M91.097,773.972h-2.039v0.084c0,0.725,0.286,0.991,0.845,0.991c0.355,0,0.805-0.024,1.085-0.065
				c0.013,0,0.019,0,0.03,0c0.049,0,0.098,0.023,0.098,0.087v0.204c0,0.079-0.023,0.123-0.121,0.141
				c-0.346,0.066-0.682,0.104-1.092,0.104c-0.697,0-1.381-0.33-1.381-1.461v-0.549c0-0.87,0.48-1.424,1.352-1.424
				c0.889,0,1.34,0.559,1.34,1.424v0.33C91.213,773.915,91.17,773.972,91.097,773.972 M90.671,773.507
				c0-0.689-0.263-0.955-0.798-0.955c-0.523,0-0.815,0.3-0.815,0.955v0.056h1.613V773.507z"/>
			<path fill="#009CB9" d="M93.623,772.546c-0.279,0-0.534,0.073-0.84,0.255v2.551c0,0.062-0.054,0.123-0.123,0.123h-0.297
				c-0.061,0-0.115-0.056-0.115-0.123v-3.104c0-0.068,0.05-0.123,0.115-0.123h0.288c0.066,0,0.114,0.055,0.114,0.123v0.126
				c0.305-0.213,0.584-0.291,0.857-0.291c0.086,0,0.129,0.035,0.129,0.108v0.249C93.752,772.508,93.709,772.546,93.623,772.546"/>
			<path fill="#009CB9" d="M96.303,775.485c-0.121,0.02-0.279,0.031-0.395,0.031c-0.561,0-0.829-0.146-0.829-0.815v-2.124
				l-0.591-0.069c-0.067-0.005-0.114-0.042-0.114-0.107v-0.165c0-0.068,0.047-0.11,0.114-0.11h0.591v-0.597
				c0-0.062,0.042-0.109,0.109-0.122l0.316-0.048c0.007,0,0.013,0,0.019,0c0.049,0,0.092,0.043,0.092,0.103v0.664h0.658
				c0.066,0,0.121,0.055,0.121,0.123v0.207c0,0.067-0.055,0.122-0.121,0.122h-0.658v2.124c0,0.333,0.085,0.383,0.328,0.383h0.342
				c0.086,0,0.127,0.025,0.127,0.085v0.214C96.412,775.438,96.381,775.475,96.303,775.485"/>
		</g>
	</g>
</g>
<g id="Calque_3">
</g>
</svg>
