<?xml version="1.0" encoding="utf-8"?>
<!-- Generator: Adobe Illustrator 16.0.0, SVG Export Plug-In . SVG Version: 6.00 Build 0)  -->
<!DOCTYPE svg PUBLIC "-//W3C//DTD SVG 1.1//EN" "http://www.w3.org/Graphics/SVG/1.1/DTD/svg11.dtd">
<svg version="1.1" id="Calque_1" xmlns="http://www.w3.org/2000/svg" xmlns:xlink="http://www.w3.org/1999/xlink" x="0px" y="0px"
	 width="1280px" height="800px" viewBox="0 0 1280 800" enable-background="new 0 0 1280 800" xml:space="preserve">
<g id="Calque_2">
	<rect y="-1" fill="#F7FBFC" width="1280" height="798"/>
</g>
<g id="Calque_1_1_">
	<g>
		<path fill="#183356" d="M604.781,643.966h68.512C673.293,643.966,644.678,612.146,604.781,643.966z"/>
	</g>
	<g>
		<path fill="#183356" d="M390.781,643.966h68.512C459.293,643.966,430.678,612.146,390.781,643.966z"/>
	</g>
	<g>
		<path fill="#183356" d="M179.448,643.966h68.511C247.959,643.966,219.344,612.146,179.448,643.966z"/>
	</g>
	<rect x="836" y="636" fill="#FCEE21" width="30" height="6"/>
	<rect x="1049" y="636" fill="#FCEE21" width="30" height="6"/>
	<polygon opacity="0.5" fill="#F9F6F5" enable-background="new    " points="703.81,724.623 726.712,701.79 732.705,701.743 
		709.812,724.575 	"/>
	<polygon opacity="0.5" fill="#F9F6F5" enable-background="new    " points="758.81,695.623 781.712,672.79 787.705,672.743 
		764.812,695.575 	"/>
	<g>
		<g>
			<path fill="#7A1E72" d="M127.964,767.577h-0.505c-0.045,0-0.062-0.043-0.083-0.083l-0.597-1.109h-0.059
				c-0.107,0-0.273-0.013-0.369-0.016v1.125c0,0.047-0.031,0.083-0.078,0.083h-0.415c-0.046,0-0.082-0.036-0.082-0.083v-2.854
				c0-0.084,0.049-0.111,0.132-0.125c0.216-0.032,0.511-0.055,0.812-0.055c0.64,0,1.195,0.229,1.195,0.938v0.038
				c0,0.438-0.221,0.713-0.56,0.845l0.651,1.212c0.009,0.012,0.009,0.023,0.009,0.033
				C128.015,767.556,127.997,767.577,127.964,767.577 M127.343,765.399c0-0.312-0.209-0.443-0.623-0.443
				c-0.086,0-0.293,0.009-0.369,0.016v0.935c0.067,0.005,0.3,0.013,0.369,0.013c0.427,0,0.623-0.117,0.623-0.479V765.399z"/>
			<path fill="#7A1E72" d="M130.261,766.6h-1.353v0.013c0,0.238,0.101,0.525,0.497,0.525c0.304,0,0.589-0.024,0.765-0.041
				c0.004,0,0.006,0,0.011,0c0.042,0,0.077,0.021,0.077,0.062v0.272c0,0.066-0.014,0.098-0.088,0.11
				c-0.27,0.049-0.431,0.068-0.805,0.068c-0.417,0-1.003-0.223-1.003-1.04v-0.308c0-0.646,0.36-1.054,0.993-1.054
				c0.638,0,0.988,0.435,0.988,1.054v0.231C130.344,766.561,130.319,766.6,130.261,766.6 M129.793,766.191
				c0-0.323-0.18-0.512-0.438-0.512c-0.255,0-0.443,0.185-0.443,0.512v0.017h0.881V766.191z M130.037,764.409l-0.491,0.514
				c-0.032,0.038-0.049,0.054-0.098,0.054h-0.357c-0.024,0-0.037-0.012-0.037-0.028c0-0.013,0.003-0.028,0.017-0.04l0.394-0.498
				c0.037-0.047,0.053-0.063,0.108-0.063h0.435c0.029,0,0.046,0.015,0.046,0.029C130.054,764.383,130.048,764.396,130.037,764.409z"
				/>
			<path fill="#7A1E72" d="M132.866,765.615l-0.136,0.054c0.064,0.097,0.103,0.188,0.103,0.332v0.029
				c0,0.518-0.357,0.755-0.983,0.755c-0.22,0-0.371-0.038-0.45-0.071c-0.051,0.033-0.072,0.071-0.072,0.107
				c0,0.083,0.044,0.114,0.139,0.137l0.49,0.118c0.564,0.133,0.93,0.22,0.93,0.662v0.028c0,0.425-0.312,0.65-1.017,0.65
				c-0.671,0-1.029-0.254-1.029-0.688v-0.036c0-0.17,0.082-0.335,0.212-0.455c-0.115-0.087-0.187-0.233-0.187-0.382v-0.006
				c0-0.129,0.056-0.257,0.166-0.336c-0.124-0.13-0.17-0.277-0.17-0.483v-0.029c0-0.416,0.271-0.763,0.988-0.763h0.971
				c0.062,0,0.111,0.049,0.111,0.11v0.176C132.932,765.585,132.916,765.595,132.866,765.615 M132.338,767.738
				c0-0.092-0.054-0.146-0.489-0.249l-0.371-0.088c-0.06,0.088-0.101,0.143-0.101,0.291v0.036c0,0.17,0.101,0.274,0.492,0.274
				c0.398,0,0.469-0.087,0.469-0.236V767.738z M132.292,766.008c0-0.198-0.086-0.353-0.443-0.353c-0.352,0-0.448,0.159-0.448,0.353
				v0.034c0,0.154,0.063,0.327,0.448,0.327c0.345,0,0.443-0.119,0.443-0.327V766.008z"/>
			<path fill="#7A1E72" d="M133.889,764.927h-0.4c-0.047,0-0.089-0.039-0.089-0.084v-0.364c0-0.046,0.042-0.081,0.089-0.081h0.4
				c0.048,0,0.084,0.035,0.084,0.081v0.364C133.973,764.888,133.937,764.927,133.889,764.927 M133.877,767.577h-0.38
				c-0.045,0-0.084-0.043-0.084-0.088v-2.169c0-0.046,0.039-0.082,0.084-0.082h0.38c0.045,0,0.083,0.036,0.083,0.082v2.169
				C133.96,767.534,133.922,767.577,133.877,767.577z"/>
			<path fill="#7A1E72" d="M135.515,767.609c-0.651,0-0.991-0.439-0.991-1.031v-0.338c0-0.591,0.34-1.031,0.991-1.031
				c0.651,0,0.99,0.44,0.99,1.031v0.338C136.505,767.17,136.167,767.609,135.515,767.609 M135.958,766.24
				c0-0.34-0.152-0.561-0.442-0.561c-0.289,0-0.443,0.221-0.443,0.561v0.338c0,0.339,0.154,0.56,0.443,0.56
				c0.29,0,0.442-0.221,0.442-0.56V766.24z"/>
			<path fill="#7A1E72" d="M138.893,767.577h-0.383c-0.046,0-0.083-0.043-0.083-0.088v-1.354c0-0.357-0.034-0.463-0.353-0.463
				c-0.141,0-0.294,0.056-0.467,0.148v1.667c0,0.045-0.04,0.088-0.084,0.088h-0.383c-0.046,0-0.082-0.043-0.082-0.088v-2.169
				c0-0.046,0.036-0.082,0.082-0.082h0.362c0.045,0,0.083,0.036,0.083,0.082v0.087c0.241-0.152,0.398-0.198,0.673-0.198
				c0.595,0,0.717,0.403,0.717,0.928v1.354C138.974,767.534,138.936,767.577,138.893,767.577"/>
			<path fill="#005CA5" d="M141.351,770.515c0.01-0.026,0.02-0.047,0.02-0.072c0-0.077-0.066-0.142-0.161-0.142h-1.035
				c-0.083,0-0.151,0.073-0.178,0.149l-1.13,2.805c-0.065,0.159-0.123,0.188-0.168,0.188c-0.038,0-0.094-0.029-0.16-0.188
				l-1.131-2.805c-0.027-0.076-0.093-0.149-0.178-0.149h-1.043c-0.096,0-0.152,0.063-0.152,0.142c0,0.018,0.01,0.046,0.019,0.072
				l0.958,2.202c0.001,0.001,0.002,0.002,0.002,0.004l1.036,2.381v2.003c0,0.104,0.075,0.187,0.179,0.187h0.939
				c0.105,0,0.179-0.083,0.179-0.187v-2.003l0.607-1.393L141.351,770.515"/>
			<path fill="#005CA5" d="M127.922,774.685c-0.244,0-0.622-0.028-0.838-0.038v2.457c0,0.104-0.078,0.188-0.18,0.188h-0.941
				c-0.104,0-0.187-0.083-0.187-0.188v-6.475c0-0.188,0.111-0.255,0.301-0.283c0.49-0.074,1.157-0.123,1.845-0.123
				c1.449,0,2.71,0.512,2.71,2.177v0.084C130.632,774.149,129.371,774.685,127.922,774.685 M129.333,772.398
				c0-0.792-0.471-1.093-1.412-1.093c-0.198,0-0.668,0.02-0.838,0.036v2.24c0.15,0.011,0.677,0.028,0.838,0.028
				c1.016,0,1.412-0.374,1.412-1.129V772.398z"/>
			<path fill="#005CA5" d="M136.174,777.29h-0.998c-0.083,0-0.16-0.072-0.179-0.157l-0.432-1.789H132.4l-0.434,1.789
				c-0.018,0.085-0.093,0.157-0.179,0.157h-0.997c-0.095,0-0.171-0.063-0.171-0.157c0-0.01,0.01-0.029,0.01-0.047l1.545-5.902
				c0.226-0.874,0.904-0.961,1.309-0.961c0.404,0,1.083,0.087,1.309,0.961l1.544,5.902c0,0.018,0.009,0.037,0.009,0.047
				C136.346,777.227,136.268,777.29,136.174,777.29 M133.633,771.475c-0.028-0.11-0.056-0.148-0.15-0.148
				c-0.096,0-0.125,0.038-0.152,0.148l-0.678,2.797h1.657L133.633,771.475z"/>
			<path fill="#005CA5" d="M143.944,777.367c-0.703,0-1.212-0.066-1.663-0.169c-0.095-0.02-0.18-0.086-0.18-0.188v-0.68
				c0-0.104,0.085-0.179,0.18-0.179c0.009,0,0.009,0,0.018,0c0.377,0.048,1.319,0.096,1.667,0.096c0.836,0,1.091-0.302,1.091-0.847
				c0-0.369-0.179-0.557-0.799-0.922l-1.245-0.745c-0.875-0.518-1.11-1.064-1.11-1.725c0-1.034,0.602-1.788,2.354-1.788
				c0.621,0,1.486,0.098,1.806,0.169c0.094,0.021,0.17,0.086,0.17,0.182v0.695c0,0.096-0.067,0.171-0.16,0.171
				c-0.011,0-0.011,0-0.02,0c-0.62-0.059-1.243-0.097-1.854-0.097c-0.696,0-0.987,0.245-0.987,0.668
				c0,0.312,0.159,0.501,0.771,0.839l1.132,0.631c1.034,0.574,1.307,1.176,1.307,1.922
				C146.422,776.354,145.829,777.367,143.944,777.367"/>
			<path fill="#005CA5" d="M152.004,777.367c-0.67,0-1.573-0.066-1.856-0.112c-0.159-0.028-0.243-0.104-0.243-0.292v-6.334
				c0-0.188,0.084-0.265,0.243-0.291c0.283-0.048,1.186-0.115,1.856-0.115c1.881,0,2.956,1.019,2.956,2.879v1.388
				C154.96,776.354,153.885,777.367,152.004,777.367 M153.659,773.102c0-1.408-0.714-1.775-1.655-1.775
				c-0.348,0-0.594,0.018-0.79,0.025v4.888c0.196,0.01,0.442,0.027,0.79,0.027c0.941,0,1.655-0.366,1.655-1.777V773.102z"/>
			<path fill="#005CA5" d="M159.994,777.235c-0.301,0.047-0.668,0.132-1.788,0.132c-1.225,0-2.175-0.327-2.175-1.93v-3.286
				c0-1.601,0.95-1.93,2.175-1.93c1.12,0,1.487,0.087,1.788,0.132c0.142,0.021,0.19,0.067,0.19,0.197v0.604
				c0,0.104-0.085,0.188-0.19,0.188h-1.922c-0.544,0-0.742,0.189-0.742,0.81v1.019h2.551c0.104,0,0.188,0.084,0.188,0.189v0.677
				c0,0.104-0.084,0.187-0.188,0.187h-2.551v1.217c0,0.621,0.198,0.81,0.742,0.81h1.922c0.104,0,0.19,0.083,0.19,0.188v0.604
				C160.184,777.169,160.136,777.218,159.994,777.235"/>
			<path fill="#005CA5" d="M167.581,777.235c-0.284,0.064-1.1,0.132-1.598,0.132c-1.229,0-2.177-0.327-2.177-1.93v-4.95
				c0-0.104,0.084-0.188,0.188-0.188h0.933c0.103,0,0.188,0.083,0.188,0.188v4.95c0,0.621,0.188,0.811,0.735,0.811h1.73
				c0.103,0,0.189,0.083,0.189,0.188v0.604C167.77,777.169,167.721,777.207,167.581,777.235"/>
			<path fill="#005CA5" d="M173.691,777.29h-0.998c-0.086,0-0.16-0.072-0.181-0.157l-0.43-1.789h-2.167l-0.434,1.789
				c-0.018,0.085-0.094,0.157-0.178,0.157h-0.997c-0.096,0-0.169-0.063-0.169-0.157c0-0.01,0.008-0.029,0.008-0.047l1.543-5.902
				c0.226-0.874,0.902-0.961,1.309-0.961c0.404,0,1.084,0.087,1.309,0.961l1.542,5.902c0,0.018,0.009,0.037,0.009,0.047
				C173.859,777.227,173.784,777.29,173.691,777.29 M171.148,771.475c-0.029-0.11-0.056-0.148-0.15-0.148
				c-0.095,0-0.122,0.038-0.149,0.148l-0.68,2.797h1.657L171.148,771.475z"/>
			<path fill="#005CA5" d="M180.873,777.235c-0.283,0.064-1.102,0.132-1.6,0.132c-1.225,0-2.176-0.327-2.176-1.93v-4.95
				c0-0.104,0.084-0.188,0.189-0.188h0.93c0.106,0,0.188,0.083,0.188,0.188v4.95c0,0.621,0.19,0.811,0.737,0.811h1.731
				c0.103,0,0.187,0.083,0.187,0.188v0.604C181.06,777.169,181.013,777.207,180.873,777.235"/>
			<path fill="#005CA5" d="M184.118,777.367c-1.555,0-2.685-0.865-2.685-2.938v-1.271c0-2.07,1.13-2.938,2.685-2.938
				c1.553,0,2.682,0.867,2.682,2.938v1.271C186.8,776.502,185.671,777.367,184.118,777.367 M185.483,773.16
				c0-1.242-0.443-1.797-1.365-1.797c-0.923,0-1.365,0.555-1.365,1.797v1.271c0,1.244,0.442,1.798,1.365,1.798
				c0.922,0,1.365-0.554,1.365-1.798V773.16z"/>
			<path fill="#005CA5" d="M189.145,777.29h-0.932c-0.105,0-0.189-0.083-0.189-0.188v-6.626c0-0.104,0.084-0.177,0.189-0.177h0.932
				c0.103,0,0.187,0.073,0.187,0.177v6.626C189.332,777.207,189.247,777.29,189.145,777.29"/>
			<path fill="#005CA5" d="M195.713,777.29h-1.15c-0.101,0-0.14-0.092-0.186-0.188l-1.355-2.512h-0.132
				c-0.247,0-0.622-0.029-0.839-0.039v2.551c0,0.104-0.075,0.188-0.178,0.188h-0.939c-0.105,0-0.19-0.083-0.19-0.188v-6.475
				c0-0.188,0.113-0.255,0.301-0.283c0.491-0.073,1.157-0.123,1.846-0.123c1.45,0,2.711,0.521,2.711,2.128v0.085
				c0,0.997-0.5,1.619-1.271,1.919l1.478,2.75c0.018,0.028,0.018,0.059,0.018,0.075C195.826,777.244,195.788,777.29,195.713,777.29
				 M194.303,772.351c0-0.706-0.471-1.008-1.413-1.008c-0.197,0-0.67,0.021-0.839,0.038v2.118c0.15,0.011,0.68,0.029,0.839,0.029
				c0.969,0,1.413-0.266,1.413-1.094V772.351z"/>
			<path fill="#005CA5" d="M200.617,777.235c-0.303,0.047-0.668,0.132-1.79,0.132c-1.224,0-2.175-0.327-2.175-1.93v-3.286
				c0-1.601,0.951-1.93,2.175-1.93c1.121,0,1.487,0.087,1.79,0.132c0.142,0.021,0.188,0.067,0.188,0.197v0.604
				c0,0.104-0.083,0.188-0.188,0.188h-1.922c-0.544,0-0.744,0.189-0.744,0.81v1.019h2.551c0.105,0,0.189,0.084,0.189,0.189v0.677
				c0,0.104-0.084,0.187-0.189,0.187h-2.551v1.217c0,0.621,0.199,0.81,0.744,0.81h1.922c0.104,0,0.188,0.083,0.188,0.188v0.604
				C200.805,777.169,200.759,777.218,200.617,777.235"/>
			<path fill="#009CB9" d="M114.918,773.793c0-5.243-2.034-10.006-5.357-13.582h-4.521c4.075,3.141,6.702,8.053,6.702,13.582
				c0,5.539-2.627,10.449-6.706,13.586h4.524C112.885,783.808,114.918,779.038,114.918,773.793"/>
			<path fill="#BDD143" d="M117.209,773.861c0-5.076-1.614-9.787-4.361-13.65h6.25c2.292,4.037,3.6,8.694,3.6,13.65
				c0,4.905-1.281,9.517-3.52,13.518h-6.245C115.631,783.545,117.209,778.89,117.209,773.861"/>
			<path fill="#009CB9" d="M41.625,775.8h-0.317c-0.061,0-0.11-0.056-0.11-0.124v-4.34c0-0.06,0.043-0.115,0.11-0.115h0.317
				c0.061,0,0.109,0.049,0.109,0.115v4.34C41.734,775.738,41.691,775.8,41.625,775.8"/>
			<path fill="#009CB9" d="M43.499,771.336l-0.353,1.15c-0.024,0.086-0.055,0.114-0.116,0.114h-0.286
				c-0.042,0-0.054-0.022-0.054-0.061c0-0.017,0-0.036,0.006-0.055l0.279-1.15c0.018-0.084,0.061-0.115,0.123-0.115h0.341
				c0.042,0,0.066,0.024,0.066,0.066C43.505,771.301,43.505,771.317,43.499,771.336"/>
			<path fill="#009CB9" d="M46.866,774.297h-2.04v0.084c0,0.725,0.287,0.992,0.847,0.992c0.353,0,0.803-0.025,1.083-0.067
				c0.013,0,0.018,0,0.031,0c0.049,0,0.098,0.024,0.098,0.087v0.205c0,0.078-0.024,0.123-0.122,0.142
				c-0.347,0.065-0.682,0.104-1.089,0.104c-0.7,0-1.382-0.33-1.382-1.461v-0.549c0-0.87,0.481-1.424,1.351-1.424
				c0.889,0,1.339,0.559,1.339,1.424v0.329C46.981,774.24,46.938,774.297,46.866,774.297 M46.439,773.832
				c0-0.689-0.262-0.955-0.798-0.955c-0.523,0-0.815,0.3-0.815,0.955v0.056h1.613V773.832z"/>
			<path fill="#009CB9" d="M48.997,775.842c-0.225,0-0.664-0.019-0.962-0.09c-0.079-0.021-0.128-0.057-0.128-0.125v-0.211
				c0-0.057,0.049-0.093,0.11-0.093c0.012,0,0.019,0,0.024,0c0.292,0.036,0.736,0.068,0.956,0.068c0.395,0,0.603-0.104,0.603-0.434
				c0-0.183-0.11-0.298-0.458-0.506l-0.615-0.367c-0.371-0.223-0.621-0.486-0.621-0.868c0-0.633,0.476-0.81,1.102-0.81
				c0.341,0,0.664,0.028,0.95,0.078c0.079,0.014,0.116,0.055,0.116,0.122v0.2c0,0.073-0.042,0.104-0.104,0.104
				c-0.005,0-0.012,0-0.018,0c-0.213-0.02-0.604-0.049-0.944-0.049c-0.34,0-0.565,0.043-0.565,0.354c0,0.182,0.14,0.298,0.419,0.462
				l0.603,0.36c0.505,0.298,0.669,0.559,0.669,0.919C50.134,775.58,49.678,775.842,48.997,775.842"/>
			<path fill="#009CB9" d="M52.406,775.842c-0.19,0-0.475-0.023-0.712-0.066v1.103c0,0.062-0.049,0.113-0.116,0.113h-0.311
				c-0.061,0-0.11-0.047-0.11-0.113v-4.188c0-0.079,0.019-0.115,0.128-0.14c0.323-0.081,0.749-0.141,1.121-0.141
				c0.907,0,1.327,0.59,1.327,1.503v0.438C53.733,775.306,53.295,775.842,52.406,775.842 M53.197,773.911
				c0-0.639-0.188-1.053-0.791-1.053c-0.256,0-0.542,0.029-0.712,0.061v2.411c0.2,0.036,0.518,0.062,0.712,0.062
				c0.596,0,0.791-0.392,0.791-1.043V773.911z"/>
			<path fill="#009CB9" d="M56.132,772.87c-0.28,0-0.536,0.074-0.84,0.256v2.55c0,0.062-0.055,0.124-0.122,0.124h-0.298
				c-0.062,0-0.116-0.056-0.116-0.124v-3.104c0-0.067,0.048-0.122,0.116-0.122h0.286c0.066,0,0.115,0.055,0.115,0.122v0.127
				c0.305-0.213,0.585-0.291,0.859-0.291c0.084,0,0.128,0.035,0.128,0.107v0.249C56.26,772.833,56.216,772.87,56.132,772.87"/>
			<path fill="#009CB9" d="M57.636,771.915h-0.311c-0.067,0-0.122-0.055-0.122-0.123v-0.485c0-0.067,0.055-0.123,0.122-0.123h0.311
				c0.067,0,0.122,0.056,0.122,0.123v0.485C57.757,771.86,57.703,771.915,57.636,771.915 M57.624,775.8h-0.292
				c-0.067,0-0.123-0.056-0.123-0.124v-3.104c0-0.067,0.056-0.122,0.123-0.122h0.292c0.067,0,0.122,0.055,0.122,0.122v3.104
				C57.746,775.744,57.69,775.8,57.624,775.8z"/>
			<path fill="#009CB9" d="M60.619,775.811c-0.122,0.021-0.281,0.031-0.396,0.031c-0.56,0-0.827-0.146-0.827-0.814v-2.125
				l-0.592-0.068c-0.067-0.005-0.115-0.042-0.115-0.109v-0.164c0-0.066,0.048-0.108,0.115-0.108h0.592v-0.597
				c0-0.062,0.042-0.11,0.108-0.122l0.317-0.049c0.006,0,0.012,0,0.018,0c0.049,0,0.091,0.044,0.091,0.104v0.664h0.658
				c0.067,0,0.121,0.055,0.121,0.122v0.208c0,0.066-0.054,0.121-0.121,0.121H59.93v2.125c0,0.333,0.085,0.383,0.329,0.383H60.6
				c0.084,0,0.126,0.024,0.126,0.085v0.214C60.728,775.763,60.699,775.8,60.619,775.811"/>
			<path fill="#009CB9" d="M66.068,772.858l-0.219,0.043c0.109,0.113,0.207,0.298,0.207,0.627v0.049c0,0.669-0.414,1.04-1.351,1.04
				c-0.324,0-0.531-0.048-0.708-0.122c-0.104,0.05-0.152,0.117-0.152,0.207c0,0.104,0.048,0.16,0.189,0.194l0.908,0.232
				c0.596,0.152,1.168,0.321,1.168,0.896v0.048c0,0.586-0.39,0.944-1.388,0.944c-0.962,0-1.4-0.373-1.4-0.969v-0.056
				c0-0.341,0.182-0.62,0.383-0.773l-0.042-0.018c-0.196-0.084-0.281-0.285-0.281-0.476v-0.007c0-0.164,0.079-0.34,0.25-0.438
				c-0.188-0.178-0.28-0.396-0.28-0.706v-0.049c0-0.544,0.305-1.078,1.353-1.078h1.333c0.073,0,0.14,0.062,0.14,0.135v0.157
				C66.177,772.822,66.135,772.848,66.068,772.858 M65.574,776.024c0-0.238-0.194-0.337-0.743-0.476l-0.688-0.177
				c-0.176,0.152-0.298,0.303-0.298,0.62v0.056c0,0.341,0.201,0.554,0.877,0.554c0.695,0,0.852-0.192,0.852-0.529V776.024z
				 M65.526,773.528c0-0.364-0.165-0.651-0.821-0.651c-0.683,0-0.822,0.311-0.822,0.651v0.049c0,0.267,0.122,0.621,0.822,0.621
				c0.656,0,0.821-0.256,0.821-0.621V773.528z"/>
			<path fill="#009CB9" d="M68.491,772.87c-0.28,0-0.536,0.074-0.84,0.256v2.55c0,0.062-0.055,0.124-0.121,0.124h-0.3
				c-0.06,0-0.115-0.056-0.115-0.124v-3.104c0-0.067,0.049-0.122,0.115-0.122h0.287c0.067,0,0.115,0.055,0.115,0.122v0.127
				c0.305-0.213,0.584-0.291,0.859-0.291c0.085,0,0.129,0.035,0.129,0.107v0.249C68.62,772.833,68.576,772.87,68.491,772.87"/>
			<path fill="#009CB9" d="M71.548,775.8h-0.281c-0.066,0-0.122-0.056-0.122-0.124v-0.134c-0.292,0.171-0.596,0.3-0.937,0.3
				c-0.518,0-0.993-0.225-0.993-0.984v-0.075c0-0.656,0.384-0.985,1.468-0.985h0.452v-0.244c0-0.51-0.179-0.688-0.653-0.688
				c-0.396,0-0.688,0.023-0.931,0.049c-0.013,0-0.019,0-0.032,0c-0.055,0-0.108-0.02-0.108-0.098v-0.215
				c0-0.063,0.042-0.102,0.127-0.114c0.249-0.043,0.53-0.078,0.943-0.078c0.847,0,1.188,0.425,1.188,1.144v2.124
				C71.668,775.744,71.613,775.8,71.548,775.8 M71.134,774.18h-0.452c-0.737,0-0.932,0.164-0.932,0.598v0.072
				c0,0.438,0.207,0.556,0.559,0.556c0.281,0,0.53-0.087,0.824-0.245L71.134,774.18L71.134,774.18z"/>
			<path fill="#009CB9" d="M75.242,775.8h-0.293c-0.065,0-0.122-0.056-0.122-0.124v-2.002c0-0.614-0.206-0.804-0.669-0.804
				c-0.257,0-0.542,0.097-0.821,0.237v2.567c0,0.062-0.056,0.124-0.123,0.124h-0.298c-0.062,0-0.117-0.056-0.117-0.124v-3.104
				c0-0.067,0.05-0.122,0.117-0.122h0.304c0.067,0,0.117,0.055,0.117,0.122v0.114c0.334-0.188,0.608-0.278,0.967-0.278
				c0.731,0,1.06,0.456,1.06,1.266v2.002C75.364,775.744,75.31,775.8,75.242,775.8"/>
			<path fill="#009CB9" d="M78.834,775.738c-0.377,0.071-0.749,0.104-1.12,0.104c-0.907,0-1.328-0.591-1.328-1.504V773.9
				c0-0.956,0.44-1.492,1.328-1.492c0.188,0,0.474,0.016,0.712,0.06v-1.132c0-0.06,0.048-0.115,0.115-0.115h0.312
				c0.061,0,0.11,0.049,0.11,0.115v4.262C78.963,775.676,78.943,775.721,78.834,775.738 M78.426,772.919
				c-0.201-0.036-0.518-0.042-0.712-0.042c-0.597,0-0.792,0.371-0.792,1.023v0.438c0,0.663,0.188,1.035,0.792,1.035
				c0.206,0,0.505-0.021,0.712-0.037V772.919z"/>
			<path fill="#009CB9" d="M83.144,775.842c-0.895,0-1.352-0.591-1.352-1.486v-0.463c0-0.895,0.457-1.483,1.352-1.483
				c0.896,0,1.358,0.59,1.358,1.483v0.463C84.502,775.251,84.04,775.842,83.144,775.842 M83.967,773.893
				c0-0.619-0.25-1.016-0.823-1.016c-0.566,0-0.815,0.39-0.815,1.016v0.463c0,0.621,0.245,1.019,0.815,1.019
				c0.566,0,0.823-0.39,0.823-1.019V773.893z"/>
			<path fill="#009CB9" d="M87.972,775.8h-0.304c-0.066,0-0.117-0.056-0.117-0.124v-0.114c-0.334,0.19-0.608,0.28-0.967,0.28
				c-0.73,0-1.059-0.456-1.059-1.267v-2.003c0-0.067,0.055-0.122,0.123-0.122h0.292c0.067,0,0.122,0.055,0.122,0.122v2.003
				c0,0.614,0.206,0.804,0.668,0.804c0.257,0,0.543-0.097,0.822-0.237v-2.568c0-0.062,0.056-0.122,0.124-0.122h0.297
				c0.06,0,0.117,0.055,0.117,0.122v3.104C88.089,775.744,88.039,775.8,87.972,775.8"/>
			<path fill="#009CB9" d="M91.789,772.597l-0.822,2.897c-0.079,0.274-0.285,0.348-0.547,0.348c-0.263,0-0.47-0.072-0.547-0.348
				l-0.824-2.897c-0.004-0.019-0.004-0.03-0.004-0.042c0-0.062,0.035-0.104,0.096-0.104h0.335c0.049,0,0.09,0.036,0.116,0.115
				l0.7,2.653c0.037,0.146,0.067,0.179,0.128,0.179c0.054,0,0.09-0.031,0.128-0.179l0.699-2.653
				c0.025-0.079,0.067-0.115,0.116-0.115h0.335c0.061,0,0.098,0.042,0.098,0.104C91.796,772.565,91.796,772.578,91.789,772.597"/>
			<path fill="#009CB9" d="M95.095,774.297h-2.039v0.084c0,0.725,0.286,0.992,0.845,0.992c0.355,0,0.804-0.025,1.084-0.067
				c0.013,0,0.019,0,0.031,0c0.049,0,0.098,0.024,0.098,0.087v0.205c0,0.078-0.024,0.123-0.122,0.142
				c-0.345,0.065-0.682,0.104-1.091,0.104c-0.698,0-1.381-0.33-1.381-1.461v-0.549c0-0.87,0.481-1.424,1.352-1.424
				c0.889,0,1.339,0.559,1.339,1.424v0.329C95.21,774.24,95.168,774.297,95.095,774.297 M94.669,773.832
				c0-0.689-0.262-0.955-0.797-0.955c-0.523,0-0.816,0.3-0.816,0.955v0.056h1.613V773.832z"/>
			<path fill="#009CB9" d="M97.622,772.87c-0.28,0-0.535,0.074-0.84,0.256v2.55c0,0.062-0.054,0.124-0.123,0.124h-0.297
				c-0.061,0-0.116-0.056-0.116-0.124v-3.104c0-0.067,0.05-0.122,0.116-0.122h0.288c0.066,0,0.115,0.055,0.115,0.122v0.127
				c0.304-0.213,0.583-0.291,0.857-0.291c0.085,0,0.128,0.035,0.128,0.107v0.249C97.75,772.833,97.707,772.87,97.622,772.87"/>
			<path fill="#009CB9" d="M100.3,775.811c-0.121,0.021-0.278,0.031-0.395,0.031c-0.56,0-0.829-0.146-0.829-0.814v-2.125
				l-0.59-0.068c-0.068-0.005-0.115-0.042-0.115-0.109v-0.164c0-0.066,0.047-0.108,0.115-0.108h0.59v-0.597
				c0-0.062,0.042-0.11,0.109-0.122l0.316-0.049c0.007,0,0.012,0,0.019,0c0.049,0,0.091,0.044,0.091,0.104v0.664h0.659
				c0.065,0,0.121,0.055,0.121,0.122v0.208c0,0.066-0.055,0.121-0.121,0.121h-0.659v2.125c0,0.333,0.085,0.383,0.329,0.383h0.341
				c0.086,0,0.127,0.024,0.127,0.085v0.214C100.41,775.763,100.379,775.8,100.3,775.811"/>
		</g>
	</g>
	<g>
		<rect y="584" fill="#F9F6F5" width="1280" height="224"/>
		<path fill="#DFF1F2" d="M1280,582H770.25c-4.004,0-8.25,2.247-8.25,6.251v0.5c0,4.004,4.246,8.249,8.25,8.249h17.375
			c4.004,0,6.375,2.247,6.375,6.251v0.5c0,4.004-2.996,7.25-7,7.25l-28.125-0.125c-4.004,0-7.875,3.371-7.875,7.375v0.5
			c0,4.004,4.246,8.249,8.25,8.249h12.5c4.004,0,6.25,2.247,6.25,6.251v0.5c0,4.004-2.246,8.249-6.25,8.249h-2.375
			c-4.004,0-8.375,2.247-8.375,6.251v0.5c0,4.004,4.246,8.249,8.25,8.249h57.375c4.004,0,6.375,2.247,6.375,6.251v0.5
			c0,4.004-2.246,8.249-6.25,8.249h-10.375c-4.004,0-8.375,2.247-8.375,6.251v0.5c0,4.004,3.496,7.25,7.5,7.25l44.625-0.125
			c4.004,0,6.875,3.371,6.875,7.375v0.5c0,4.004-2.246,8.249-6.25,8.249h-1.5c-4.004,0-8.25,2.247-8.25,6.251v0.5
			c0,4.875,4.246,8.249,8.25,8.249h25h5.375c4.004,0,7.375,3.247,7.375,7.251v0.5c0,4.004-3.246,7.25-7.25,7.25l-30.375-0.125
			c-4.004,0-7.375,3.371-7.375,7.375v0.5c0,4.004,3.246,7.249,7.25,7.249h15.5c4.004,0,7.25,3.247,7.25,7.251v0.5
			c0,4.004-3.246,7.249-7.25,7.249h-2.375c-4.004,0-7.375,3.247-7.375,7.251v0.5c0,4.004,3.246,7.249,7.25,7.249h49.375
			c4.004,0,7.375,3.247,7.375,7.251v0.5c0,4.004-3.246,7.249-7.25,7.249h-4.375c-4.004,0-7.375,3.247-7.375,7.251v0.5
			c0,4.004,3.184,7.249,7.188,7.249H1280V582z"/>
		<path fill="#BED77A" d="M970.964,583H611.917c0,0,51.2-96.926,166.247-39.611C778.164,543.389,904.8,524,970.964,583z"/>
		<path fill="#CEE19B" d="M659.96,583.133c0,0,14.327-30.341,80.066-16.012c0,0,35.083-46.985,116.838,15.381L659.96,583.133z"/>
		<path fill="#BED77A" d="M212.942,601h180.056c0,0-24.553-22.507-69.568-10.231C323.43,590.769,274.325,552,212.942,601z"/>
		<path fill="#CEE19B" d="M163.837,606H323.43c0,0-34.781-14.323-61.381-8.184C262.049,597.816,210.896,578,163.837,606z"/>
		<g>
			<path fill="#D6E6AC" d="M79.673,649.113c0-2.054-0.949-3.881-2.427-5.079c0.521-0.937,0.817-2.013,0.817-3.16
				c0-2.578-1.497-4.801-3.664-5.863c0.16-0.563,0.249-1.156,0.249-1.771c0-3.607-2.925-6.531-6.533-6.531
				c-0.582,0-1.14,0.084-1.681,0.224c-0.672-2.889-3.263-5.051-6.358-5.051c-2.891,0-5.336,1.881-6.196,4.484
				c-0.273-0.036-0.554-0.062-0.837-0.062c-3.609,0-6.532,2.927-6.532,6.529c0,0.922,0.196,1.8,0.537,2.591
				c-3.144,0.473-5.56,3.18-5.56,6.455c0,1.078,0.267,2.095,0.73,2.991c-0.209,0.638-0.326,1.323-0.326,2.035
				c0,1.783,0.718,3.397,1.88,4.58c-0.554,0.955-0.877,2.068-0.877,3.253c0,3.096,2.159,5.684,5.053,6.356
				c0.269,3.362,3.073,6.004,6.503,6.004c1.704,0,3.25-0.657,4.413-1.723c1.182,1.19,2.82,1.923,4.631,1.923
				c2.953,0,5.441-1.959,6.252-4.646c3.41-0.216,6.107-3.042,6.107-6.506c0-0.362-0.036-0.71-0.094-1.058
				C78.062,654.085,79.673,651.786,79.673,649.113z"/>
			<g>
				<path fill="#183356" d="M53.13,672.743h13.338C66.468,672.743,60.895,666.549,53.13,672.743z"/>
			</g>
			<g>
				<path fill="#183356" d="M60.219,672.783c-0.31,0-0.562-0.251-0.562-0.563v-43.225c0-0.312,0.252-0.563,0.562-0.563
					c0.312,0,0.567,0.251,0.567,0.563v43.225C60.786,672.532,60.531,672.783,60.219,672.783z"/>
			</g>
			<g>
				<path fill="#183356" d="M60.142,662.554c-0.089,0-0.182-0.018-0.266-0.064l-8.477-4.544c-0.273-0.147-0.379-0.487-0.232-0.765
					c0.147-0.274,0.488-0.38,0.765-0.229l8.477,4.543c0.275,0.146,0.377,0.488,0.231,0.764
					C60.539,662.448,60.341,662.554,60.142,662.554z"/>
			</g>
			<g>
				<path fill="#183356" d="M60.389,656.905c-0.167,0-0.332-0.073-0.442-0.213c-0.193-0.244-0.153-0.603,0.091-0.793L70,648.001
					c0.246-0.194,0.602-0.153,0.792,0.091c0.191,0.244,0.153,0.603-0.09,0.791l-9.964,7.901
					C60.636,656.865,60.513,656.905,60.389,656.905z"/>
			</g>
			<g>
				<path fill="#183356" d="M60.2,650.115c-0.089,0-0.182-0.022-0.264-0.069l-7.917-4.246c-0.275-0.146-0.377-0.489-0.228-0.762
					c0.145-0.275,0.488-0.379,0.758-0.232l7.917,4.248c0.272,0.148,0.376,0.49,0.231,0.763
					C60.595,650.007,60.402,650.115,60.2,650.115z"/>
			</g>
			<g>
				<path fill="#183356" d="M60.176,640.297c-0.09,0-0.181-0.022-0.265-0.066l-5.334-2.862c-0.273-0.147-0.374-0.489-0.228-0.763
					c0.147-0.274,0.488-0.379,0.762-0.229l5.334,2.862c0.273,0.146,0.377,0.487,0.23,0.762
					C60.574,640.189,60.376,640.297,60.176,640.297z"/>
			</g>
			<g>
				<path fill="#183356" d="M60.506,644.688c-0.132,0-0.265-0.047-0.371-0.136c-0.236-0.206-0.26-0.562-0.058-0.799l5.888-6.765
					c0.204-0.234,0.565-0.258,0.796-0.054c0.237,0.202,0.262,0.558,0.058,0.792l-5.89,6.771
					C60.819,644.621,60.661,644.688,60.506,644.688z"/>
			</g>
			<g>
				<path fill="#183356" d="M60.389,635.87c-0.13,0-0.262-0.046-0.371-0.137c-0.234-0.204-0.26-0.562-0.054-0.797l4.283-4.922
					c0.204-0.235,0.56-0.259,0.794-0.057c0.236,0.205,0.261,0.562,0.055,0.8l-4.28,4.919
					C60.704,635.805,60.545,635.87,60.389,635.87z"/>
			</g>
		</g>
		<g>
			<ellipse fill="#AECD58" cx="497.777" cy="587.999" rx="14.524" ry="25.911"/>
			<path fill="#183356" d="M491.228,619.072h12.729C503.956,619.072,498.642,613.161,491.228,619.072z"/>
			<g>
				<path fill="#183356" d="M497.995,619.11c-0.298,0-0.536-0.241-0.536-0.54v-41.243c0-0.298,0.238-0.538,0.536-0.538
					c0.299,0,0.539,0.24,0.539,0.538v41.243C498.534,618.869,498.294,619.11,497.995,619.11z"/>
			</g>
			<g>
				<path fill="#183356" d="M497.919,609.352c-0.084,0-0.171-0.021-0.252-0.063l-8.091-4.335c-0.261-0.144-0.36-0.467-0.22-0.729
					c0.139-0.263,0.466-0.36,0.729-0.22l8.09,4.334c0.262,0.143,0.36,0.467,0.222,0.729
					C498.3,609.246,498.112,609.352,497.919,609.352z"/>
			</g>
			<g>
				<path fill="#183356" d="M498.334,603.96c-0.158,0-0.312-0.069-0.421-0.204c-0.187-0.23-0.146-0.572,0.087-0.756l9.507-7.538
					c0.232-0.184,0.57-0.144,0.755,0.089c0.186,0.231,0.146,0.57-0.087,0.755l-9.506,7.54
					C498.571,603.922,498.453,603.96,498.334,603.96z"/>
			</g>
			<g>
				<path fill="#183356" d="M497.976,597.479c-0.087,0-0.174-0.021-0.254-0.063l-7.552-4.053c-0.262-0.143-0.359-0.468-0.219-0.729
					c0.14-0.261,0.468-0.359,0.729-0.219l7.551,4.053c0.264,0.143,0.361,0.469,0.221,0.729
					C498.352,597.377,498.169,597.479,497.976,597.479z"/>
			</g>
			<g>
				<path fill="#183356" d="M497.954,588.111c-0.085,0-0.173-0.021-0.254-0.065l-5.089-2.729c-0.262-0.143-0.359-0.468-0.219-0.729
					c0.14-0.262,0.467-0.359,0.728-0.221l5.089,2.731c0.263,0.141,0.362,0.468,0.22,0.728
					C498.332,588.008,498.146,588.111,497.954,588.111z"/>
			</g>
			<g>
				<path fill="#183356" d="M498.209,592.302c-0.124,0-0.25-0.043-0.353-0.132c-0.226-0.196-0.248-0.536-0.054-0.76l5.618-6.457
					c0.195-0.225,0.534-0.247,0.761-0.051c0.222,0.193,0.246,0.533,0.052,0.757l-5.619,6.458
					C498.51,592.238,498.359,592.302,498.209,592.302z"/>
			</g>
			<g>
				<path fill="#183356" d="M498.224,583.888c-0.123,0-0.25-0.045-0.353-0.133c-0.227-0.194-0.248-0.535-0.054-0.759l4.088-4.695
					c0.194-0.226,0.535-0.247,0.758-0.053c0.225,0.195,0.249,0.536,0.053,0.76l-4.087,4.694
					C498.523,583.824,498.372,583.888,498.224,583.888z"/>
			</g>
		</g>
		<path fill="none" stroke="#183356" stroke-width="2" stroke-linecap="round" stroke-linejoin="round" stroke-miterlimit="10" d="
			M1122.276,513.677c0,0-8.017-5.062-12.656,2.953c0,0-3.797-8.438-13.922-2.531"/>
		<path fill="none" stroke="#183356" stroke-width="2" stroke-linecap="round" stroke-linejoin="round" stroke-miterlimit="10" d="
			M1155.131,526.675c0,0-8.016-5.062-12.656,2.953c0,0-3.797-8.438-13.922-2.531"/>
		<path fill="none" stroke="#183356" stroke-width="2" stroke-linecap="round" stroke-linejoin="round" stroke-miterlimit="10" d="
			M1172.656,504.429c0,0-8.017-5.062-12.656,2.953c0,0-3.797-8.438-13.922-2.531"/>
		<g>
			<rect x="1023" y="644" fill="#DFF1F2" width="70" height="33"/>
		</g>
		<rect x="75.229" y="94.502" fill="none" width="444.542" height="72.5"/>
	</g>
	<g>
		<g>
			<path fill="#7A1E72" d="M123.967,767.253h-0.506c-0.045,0-0.062-0.043-0.083-0.084l-0.597-1.109h-0.059
				c-0.107,0-0.273-0.013-0.369-0.016v1.125c0,0.047-0.031,0.084-0.078,0.084h-0.416c-0.045,0-0.082-0.037-0.082-0.084v-2.853
				c0-0.084,0.049-0.112,0.133-0.125c0.215-0.033,0.51-0.056,0.812-0.056c0.64,0,1.194,0.229,1.194,0.938v0.038
				c0,0.438-0.221,0.713-0.56,0.846l0.65,1.211c0.01,0.013,0.01,0.024,0.01,0.033C124.018,767.23,123.998,767.253,123.967,767.253
				 M123.346,765.074c0-0.312-0.21-0.443-0.623-0.443c-0.087,0-0.293,0.009-0.369,0.016v0.935c0.066,0.006,0.299,0.013,0.369,0.013
				c0.427,0,0.623-0.117,0.623-0.479V765.074z"/>
			<path fill="#7A1E72" d="M126.264,766.274h-1.354v0.012c0,0.24,0.102,0.526,0.497,0.526c0.304,0,0.589-0.024,0.765-0.041
				c0.004,0,0.007,0,0.012,0c0.042,0,0.076,0.02,0.076,0.061v0.273c0,0.065-0.014,0.097-0.088,0.109
				c-0.27,0.049-0.43,0.069-0.805,0.069c-0.416,0-1.002-0.224-1.002-1.04v-0.309c0-0.646,0.359-1.054,0.992-1.054
				c0.639,0,0.988,0.436,0.988,1.054v0.231C126.346,766.235,126.32,766.274,126.264,766.274 M125.795,765.866
				c0-0.323-0.18-0.51-0.438-0.51c-0.255,0-0.443,0.183-0.443,0.51v0.018h0.881V765.866L125.795,765.866z M126.039,764.084
				l-0.49,0.514c-0.033,0.038-0.049,0.056-0.098,0.056h-0.357c-0.025,0-0.037-0.014-0.037-0.03c0-0.012,0.003-0.027,0.017-0.04
				l0.394-0.498c0.037-0.046,0.054-0.063,0.108-0.063h0.435c0.029,0,0.047,0.015,0.047,0.029
				C126.057,764.058,126.05,764.071,126.039,764.084z"/>
			<path fill="#7A1E72" d="M128.867,765.29l-0.136,0.054c0.064,0.098,0.103,0.188,0.103,0.332v0.029
				c0,0.518-0.357,0.755-0.982,0.755c-0.221,0-0.371-0.038-0.45-0.07c-0.052,0.032-0.071,0.07-0.071,0.108
				c0,0.081,0.044,0.114,0.139,0.135l0.49,0.118c0.563,0.133,0.93,0.22,0.93,0.662v0.028c0,0.425-0.312,0.65-1.018,0.65
				c-0.67,0-1.028-0.254-1.028-0.688v-0.037c0-0.17,0.081-0.334,0.212-0.455c-0.115-0.087-0.187-0.233-0.187-0.382v-0.005
				c0-0.128,0.056-0.258,0.166-0.337c-0.124-0.13-0.171-0.277-0.171-0.483v-0.029c0-0.416,0.271-0.763,0.988-0.763h0.971
				c0.062,0,0.111,0.049,0.111,0.11v0.176C128.934,765.26,128.918,765.27,128.867,765.29 M128.34,767.413
				c0-0.092-0.053-0.146-0.488-0.249l-0.371-0.087c-0.061,0.087-0.101,0.143-0.101,0.29v0.037c0,0.171,0.101,0.273,0.491,0.273
				c0.398,0,0.469-0.087,0.469-0.235V767.413z M128.295,765.684c0-0.197-0.086-0.353-0.443-0.353c-0.352,0-0.447,0.158-0.447,0.353
				v0.034c0,0.153,0.062,0.326,0.447,0.326c0.345,0,0.443-0.119,0.443-0.326V765.684z"/>
			<path fill="#7A1E72" d="M129.891,764.604h-0.4c-0.047,0-0.089-0.039-0.089-0.086v-0.363c0-0.045,0.042-0.082,0.089-0.082h0.4
				c0.049,0,0.084,0.037,0.084,0.082v0.363C129.975,764.562,129.939,764.604,129.891,764.604 M129.879,767.253h-0.381
				c-0.045,0-0.084-0.043-0.084-0.089v-2.169c0-0.046,0.039-0.082,0.084-0.082h0.381c0.045,0,0.084,0.036,0.084,0.082v2.169
				C129.963,767.21,129.924,767.253,129.879,767.253z"/>
			<path fill="#7A1E72" d="M131.518,767.285c-0.651,0-0.992-0.44-0.992-1.032v-0.338c0-0.591,0.341-1.031,0.992-1.031
				c0.65,0,0.99,0.44,0.99,1.031v0.338C132.508,766.845,132.168,767.285,131.518,767.285 M131.959,765.915
				c0-0.34-0.152-0.56-0.441-0.56s-0.443,0.22-0.443,0.56v0.338c0,0.339,0.154,0.56,0.443,0.56s0.441-0.221,0.441-0.56V765.915z"/>
			<path fill="#7A1E72" d="M134.895,767.253h-0.383c-0.046,0-0.084-0.043-0.084-0.089v-1.354c0-0.357-0.033-0.463-0.353-0.463
				c-0.142,0-0.294,0.057-0.467,0.149v1.666c0,0.046-0.04,0.089-0.084,0.089h-0.383c-0.046,0-0.081-0.043-0.081-0.089v-2.169
				c0-0.046,0.035-0.082,0.081-0.082h0.362c0.045,0,0.082,0.036,0.082,0.082v0.087c0.242-0.152,0.398-0.198,0.674-0.198
				c0.595,0,0.717,0.403,0.717,0.928v1.354C134.977,767.21,134.938,767.253,134.895,767.253"/>
			<path fill="#005CA5" d="M137.354,770.189c0.01-0.027,0.02-0.048,0.02-0.072c0-0.078-0.066-0.143-0.162-0.143h-1.035
				c-0.083,0-0.15,0.073-0.178,0.149l-1.13,2.805c-0.065,0.159-0.122,0.188-0.169,0.188c-0.037,0-0.094-0.029-0.159-0.188
				l-1.131-2.805c-0.027-0.076-0.093-0.149-0.179-0.149h-1.043c-0.096,0-0.152,0.063-0.152,0.143c0,0.017,0.01,0.045,0.02,0.072
				l0.958,2.201c0.001,0.001,0.002,0.002,0.002,0.005l1.036,2.381v2.002c0,0.104,0.074,0.187,0.179,0.187h0.939
				c0.104,0,0.179-0.083,0.179-0.187v-2.002l0.607-1.394L137.354,770.189"/>
			<path fill="#005CA5" d="M123.924,774.359c-0.244,0-0.622-0.029-0.838-0.038v2.457c0,0.104-0.078,0.187-0.18,0.187h-0.941
				c-0.104,0-0.188-0.083-0.188-0.187v-6.476c0-0.187,0.111-0.255,0.301-0.283c0.49-0.073,1.158-0.121,1.846-0.121
				c1.449,0,2.711,0.51,2.711,2.175v0.084C126.635,773.824,125.373,774.359,123.924,774.359 M125.336,772.073
				c0-0.792-0.471-1.092-1.412-1.092c-0.198,0-0.668,0.019-0.838,0.036v2.239c0.15,0.011,0.677,0.028,0.838,0.028
				c1.016,0,1.412-0.374,1.412-1.129V772.073z"/>
			<path fill="#005CA5" d="M132.176,776.965h-0.997c-0.083,0-0.159-0.072-0.179-0.157l-0.432-1.788h-2.166l-0.434,1.788
				c-0.018,0.085-0.094,0.157-0.18,0.157h-0.996c-0.095,0-0.172-0.062-0.172-0.157c0-0.011,0.01-0.028,0.01-0.047l1.545-5.901
				c0.227-0.874,0.904-0.96,1.31-0.96c0.403,0,1.083,0.086,1.31,0.96l1.543,5.901c0,0.019,0.01,0.036,0.01,0.047
				C132.348,776.901,132.27,776.965,132.176,776.965 M129.635,771.149c-0.027-0.111-0.056-0.149-0.149-0.149
				c-0.096,0-0.124,0.038-0.151,0.149l-0.678,2.797h1.656L129.635,771.149z"/>
			<path fill="#005CA5" d="M139.945,777.042c-0.703,0-1.211-0.066-1.662-0.169c-0.096-0.02-0.181-0.085-0.181-0.188v-0.679
				c0-0.104,0.085-0.18,0.181-0.18c0.009,0,0.009,0,0.018,0c0.377,0.049,1.318,0.095,1.668,0.095c0.836,0,1.09-0.301,1.09-0.845
				c0-0.37-0.178-0.558-0.799-0.923l-1.244-0.745c-0.875-0.518-1.11-1.064-1.11-1.725c0-1.032,0.603-1.786,2.354-1.786
				c0.621,0,1.486,0.096,1.806,0.17c0.095,0.018,0.171,0.084,0.171,0.18v0.696c0,0.094-0.068,0.169-0.16,0.169
				c-0.011,0-0.011,0-0.02,0c-0.621-0.059-1.243-0.096-1.854-0.096c-0.696,0-0.987,0.244-0.987,0.667
				c0,0.312,0.158,0.501,0.771,0.84l1.132,0.631c1.034,0.573,1.307,1.175,1.307,1.922
				C142.424,776.027,141.83,777.042,139.945,777.042"/>
			<path fill="#005CA5" d="M148.006,777.042c-0.67,0-1.572-0.066-1.855-0.112c-0.159-0.027-0.243-0.103-0.243-0.292v-6.334
				c0-0.187,0.084-0.265,0.243-0.291c0.283-0.048,1.186-0.113,1.855-0.113c1.881,0,2.956,1.017,2.956,2.878v1.387
				C150.962,776.027,149.887,777.042,148.006,777.042 M149.661,772.776c0-1.409-0.714-1.776-1.655-1.776
				c-0.348,0-0.594,0.019-0.79,0.026v4.887c0.196,0.009,0.442,0.028,0.79,0.028c0.941,0,1.655-0.366,1.655-1.778V772.776z"/>
			<path fill="#005CA5" d="M155.996,776.911c-0.301,0.046-0.668,0.131-1.787,0.131c-1.226,0-2.176-0.327-2.176-1.927v-3.289
				c0-1.6,0.95-1.928,2.176-1.928c1.119,0,1.486,0.086,1.787,0.131c0.143,0.02,0.189,0.066,0.189,0.197v0.603
				c0,0.105-0.085,0.188-0.189,0.188h-1.922c-0.544,0-0.742,0.188-0.742,0.809v1.019h2.551c0.104,0,0.189,0.084,0.189,0.189v0.677
				c0,0.105-0.085,0.188-0.189,0.188h-2.551v1.217c0,0.62,0.198,0.807,0.742,0.807h1.922c0.104,0,0.189,0.085,0.189,0.188v0.604
				C156.186,776.845,156.139,776.893,155.996,776.911"/>
			<path fill="#005CA5" d="M163.582,776.911c-0.283,0.063-1.1,0.131-1.598,0.131c-1.229,0-2.176-0.327-2.176-1.927v-4.953
				c0-0.104,0.084-0.188,0.188-0.188h0.933c0.103,0,0.188,0.083,0.188,0.188v4.953c0,0.62,0.188,0.807,0.734,0.807h1.73
				c0.104,0,0.189,0.085,0.189,0.188v0.604C163.771,776.845,163.723,776.882,163.582,776.911"/>
			<path fill="#005CA5" d="M169.693,776.965h-0.998c-0.087,0-0.16-0.072-0.182-0.157l-0.43-1.788h-2.166l-0.435,1.788
				c-0.019,0.085-0.095,0.157-0.178,0.157h-0.997c-0.096,0-0.169-0.062-0.169-0.157c0-0.011,0.009-0.028,0.009-0.047l1.543-5.901
				c0.227-0.874,0.902-0.96,1.309-0.96c0.404,0,1.084,0.086,1.309,0.96l1.543,5.901c0,0.019,0.01,0.036,0.01,0.047
				C169.861,776.901,169.786,776.965,169.693,776.965 M167.15,771.149c-0.029-0.111-0.057-0.149-0.15-0.149
				c-0.095,0-0.122,0.038-0.149,0.149l-0.68,2.797h1.657L167.15,771.149z"/>
			<path fill="#005CA5" d="M176.875,776.911c-0.283,0.063-1.102,0.131-1.6,0.131c-1.226,0-2.176-0.327-2.176-1.927v-4.953
				c0-0.104,0.084-0.188,0.188-0.188h0.931c0.105,0,0.188,0.083,0.188,0.188v4.953c0,0.62,0.19,0.807,0.737,0.807h1.731
				c0.104,0,0.187,0.085,0.187,0.188v0.604C177.062,776.845,177.015,776.882,176.875,776.911"/>
			<path fill="#005CA5" d="M180.12,777.042c-1.555,0-2.685-0.865-2.685-2.937v-1.271c0-2.07,1.13-2.938,2.685-2.938
				c1.554,0,2.683,0.866,2.683,2.938v1.271C182.803,776.177,181.674,777.042,180.12,777.042 M181.485,772.835
				c0-1.242-0.443-1.797-1.365-1.797c-0.923,0-1.364,0.555-1.364,1.797v1.271c0,1.243,0.441,1.798,1.364,1.798
				c0.922,0,1.365-0.555,1.365-1.798V772.835z"/>
			<path fill="#005CA5" d="M185.146,776.965h-0.932c-0.105,0-0.189-0.083-0.189-0.187v-6.626c0-0.104,0.084-0.178,0.189-0.178h0.932
				c0.103,0,0.188,0.073,0.188,0.178v6.626C185.334,776.882,185.249,776.965,185.146,776.965"/>
			<path fill="#005CA5" d="M191.715,776.965h-1.149c-0.101,0-0.14-0.092-0.186-0.187l-1.355-2.512h-0.132
				c-0.247,0-0.621-0.029-0.84-0.04v2.552c0,0.104-0.074,0.187-0.178,0.187h-0.939c-0.104,0-0.189-0.083-0.189-0.187v-6.476
				c0-0.187,0.113-0.255,0.301-0.282c0.49-0.074,1.156-0.122,1.846-0.122c1.45,0,2.711,0.52,2.711,2.127v0.085
				c0,0.997-0.5,1.619-1.271,1.92l1.479,2.748c0.018,0.028,0.018,0.059,0.018,0.076C191.828,776.919,191.79,776.965,191.715,776.965
				 M190.305,772.025c0-0.707-0.471-1.008-1.412-1.008c-0.197,0-0.67,0.021-0.84,0.037v2.119c0.15,0.01,0.68,0.028,0.84,0.028
				c0.969,0,1.412-0.265,1.412-1.093V772.025z"/>
			<path fill="#005CA5" d="M196.619,776.911c-0.303,0.046-0.668,0.131-1.789,0.131c-1.225,0-2.176-0.327-2.176-1.927v-3.289
				c0-1.6,0.951-1.928,2.176-1.928c1.121,0,1.486,0.086,1.789,0.131c0.142,0.02,0.188,0.066,0.188,0.197v0.603
				c0,0.105-0.084,0.188-0.188,0.188h-1.922c-0.545,0-0.744,0.188-0.744,0.809v1.019h2.551c0.105,0,0.189,0.084,0.189,0.189v0.677
				c0,0.105-0.084,0.188-0.189,0.188h-2.551v1.217c0,0.62,0.199,0.807,0.744,0.807h1.922c0.104,0,0.188,0.085,0.188,0.188v0.604
				C196.807,776.845,196.761,776.893,196.619,776.911"/>
			<path fill="#009CB9" d="M110.92,773.468c0-5.243-2.033-10.006-5.356-13.582h-4.521c4.075,3.141,6.702,8.054,6.702,13.582
				c0,5.539-2.627,10.45-6.706,13.586h4.524C108.887,783.482,110.92,778.713,110.92,773.468"/>
			<path fill="#BDD143" d="M113.211,773.536c0-5.076-1.613-9.786-4.36-13.65h6.249c2.292,4.036,3.601,8.694,3.601,13.65
				c0,4.906-1.281,9.518-3.521,13.518h-6.244C111.633,783.22,113.211,778.564,113.211,773.536"/>
			<path fill="#009CB9" d="M37.627,775.475h-0.318c-0.061,0-0.109-0.056-0.109-0.123v-4.341c0-0.06,0.043-0.114,0.109-0.114h0.318
				c0.061,0,0.109,0.049,0.109,0.114v4.341C37.736,775.413,37.693,775.475,37.627,775.475"/>
			<path fill="#009CB9" d="M39.501,771.011l-0.353,1.15c-0.025,0.087-0.056,0.115-0.117,0.115h-0.285
				c-0.042,0-0.055-0.023-0.055-0.062c0-0.017,0-0.036,0.006-0.055l0.279-1.15c0.019-0.084,0.062-0.115,0.123-0.115h0.341
				c0.042,0,0.066,0.025,0.066,0.066C39.507,770.976,39.507,770.993,39.501,771.011"/>
			<path fill="#009CB9" d="M42.868,773.972h-2.04v0.084c0,0.726,0.287,0.991,0.847,0.991c0.353,0,0.803-0.023,1.083-0.064
				c0.013,0,0.018,0,0.031,0c0.049,0,0.098,0.022,0.098,0.087v0.204c0,0.078-0.025,0.122-0.123,0.141
				c-0.347,0.065-0.682,0.104-1.089,0.104c-0.7,0-1.382-0.33-1.382-1.461v-0.549c0-0.87,0.48-1.424,1.351-1.424
				c0.89,0,1.339,0.559,1.339,1.424v0.33C42.982,773.915,42.94,773.972,42.868,773.972 M42.441,773.507
				c0-0.688-0.262-0.955-0.798-0.955c-0.522,0-0.815,0.3-0.815,0.955v0.057h1.613V773.507z"/>
			<path fill="#009CB9" d="M44.998,775.517c-0.225,0-0.663-0.019-0.961-0.09c-0.08-0.02-0.129-0.057-0.129-0.125v-0.211
				c0-0.057,0.049-0.093,0.109-0.093c0.013,0,0.02,0,0.025,0c0.292,0.036,0.736,0.07,0.955,0.07c0.396,0,0.604-0.105,0.604-0.436
				c0-0.183-0.11-0.298-0.457-0.506l-0.615-0.367c-0.371-0.223-0.621-0.485-0.621-0.867c0-0.634,0.476-0.811,1.102-0.811
				c0.342,0,0.664,0.029,0.951,0.078c0.078,0.014,0.115,0.055,0.115,0.122v0.201c0,0.072-0.043,0.104-0.104,0.104
				c-0.006,0-0.012,0-0.018,0c-0.213-0.019-0.604-0.049-0.945-0.049c-0.34,0-0.564,0.043-0.564,0.354
				c0,0.182,0.139,0.298,0.419,0.462l0.603,0.359c0.506,0.298,0.67,0.56,0.67,0.919C46.137,775.255,45.68,775.517,44.998,775.517"/>
			<path fill="#009CB9" d="M48.408,775.517c-0.189,0-0.475-0.023-0.713-0.065v1.102c0,0.062-0.049,0.114-0.115,0.114h-0.31
				c-0.061,0-0.109-0.048-0.109-0.114v-4.188c0-0.079,0.018-0.114,0.127-0.14c0.323-0.08,0.75-0.141,1.121-0.141
				c0.907,0,1.327,0.589,1.327,1.504v0.438C49.735,774.981,49.297,775.517,48.408,775.517 M49.199,773.587
				c0-0.64-0.188-1.053-0.791-1.053c-0.256,0-0.542,0.028-0.713,0.06v2.411c0.2,0.037,0.518,0.063,0.713,0.063
				c0.596,0,0.791-0.394,0.791-1.044V773.587z"/>
			<path fill="#009CB9" d="M52.134,772.546c-0.28,0-0.536,0.073-0.841,0.255v2.551c0,0.062-0.055,0.123-0.121,0.123h-0.299
				c-0.061,0-0.115-0.056-0.115-0.123v-3.104c0-0.068,0.048-0.123,0.115-0.123h0.287c0.066,0,0.115,0.055,0.115,0.123v0.126
				c0.305-0.213,0.584-0.291,0.858-0.291c0.085,0,0.128,0.035,0.128,0.108v0.249C52.262,772.508,52.219,772.546,52.134,772.546"/>
			<path fill="#009CB9" d="M53.638,771.59h-0.312c-0.066,0-0.121-0.055-0.121-0.123v-0.484c0-0.068,0.055-0.123,0.121-0.123h0.312
				c0.067,0,0.122,0.055,0.122,0.123v0.484C53.76,771.535,53.705,771.59,53.638,771.59 M53.625,775.475h-0.291
				c-0.067,0-0.123-0.056-0.123-0.123v-3.104c0-0.068,0.056-0.123,0.123-0.123h0.291c0.067,0,0.123,0.055,0.123,0.123v3.104
				C53.748,775.419,53.692,775.475,53.625,775.475z"/>
			<path fill="#009CB9" d="M56.621,775.485c-0.121,0.02-0.281,0.03-0.396,0.03c-0.56,0-0.826-0.146-0.826-0.814v-2.124l-0.592-0.069
				c-0.067-0.005-0.115-0.042-0.115-0.106v-0.165c0-0.068,0.048-0.11,0.115-0.11h0.592v-0.597c0-0.062,0.041-0.109,0.107-0.122
				l0.317-0.048c0.006,0,0.012,0,0.019,0c0.049,0,0.091,0.043,0.091,0.103v0.664h0.657c0.068,0,0.121,0.055,0.121,0.123v0.207
				c0,0.067-0.053,0.122-0.121,0.122h-0.657v2.124c0,0.333,0.085,0.383,0.329,0.383h0.342c0.084,0,0.126,0.025,0.126,0.085v0.214
				C56.729,775.438,56.701,775.475,56.621,775.485"/>
			<path fill="#009CB9" d="M62.07,772.534l-0.22,0.043c0.109,0.113,0.206,0.297,0.206,0.626v0.049c0,0.669-0.414,1.04-1.35,1.04
				c-0.324,0-0.531-0.047-0.708-0.122c-0.104,0.05-0.151,0.117-0.151,0.208c0,0.104,0.048,0.159,0.188,0.195l0.907,0.231
				c0.596,0.151,1.169,0.32,1.169,0.896v0.047c0,0.586-0.39,0.944-1.388,0.944c-0.963,0-1.4-0.373-1.4-0.97v-0.055
				c0-0.342,0.182-0.622,0.383-0.774l-0.041-0.017c-0.196-0.085-0.281-0.286-0.281-0.476v-0.008c0-0.163,0.079-0.34,0.25-0.438
				c-0.189-0.177-0.281-0.396-0.281-0.706v-0.049c0-0.542,0.305-1.078,1.354-1.078h1.332c0.073,0,0.141,0.062,0.141,0.135v0.158
				C62.18,772.498,62.137,772.521,62.07,772.534 M61.576,775.701c0-0.24-0.193-0.338-0.742-0.478l-0.689-0.178
				c-0.176,0.154-0.297,0.305-0.297,0.622v0.055c0,0.343,0.201,0.556,0.877,0.556c0.694,0,0.852-0.194,0.852-0.53L61.576,775.701
				L61.576,775.701z M61.527,773.203c0-0.364-0.164-0.651-0.82-0.651c-0.684,0-0.822,0.312-0.822,0.651v0.049
				c0,0.268,0.121,0.621,0.822,0.621c0.656,0,0.82-0.255,0.82-0.621V773.203z"/>
			<path fill="#009CB9" d="M64.492,772.546c-0.279,0-0.535,0.073-0.84,0.255v2.551c0,0.062-0.055,0.123-0.121,0.123h-0.299
				c-0.061,0-0.115-0.056-0.115-0.123v-3.104c0-0.068,0.049-0.123,0.115-0.123h0.286c0.067,0,0.115,0.055,0.115,0.123v0.126
				c0.306-0.213,0.585-0.291,0.858-0.291c0.086,0,0.129,0.035,0.129,0.108v0.249C64.621,772.508,64.578,772.546,64.492,772.546"/>
			<path fill="#009CB9" d="M67.55,775.475h-0.281c-0.066,0-0.122-0.056-0.122-0.123v-0.134c-0.291,0.17-0.596,0.299-0.938,0.299
				c-0.518,0-0.992-0.225-0.992-0.984v-0.075c0-0.656,0.384-0.985,1.467-0.985h0.452v-0.243c0-0.511-0.179-0.688-0.653-0.688
				c-0.395,0-0.688,0.024-0.93,0.049c-0.014,0-0.02,0-0.032,0c-0.055,0-0.108-0.019-0.108-0.098v-0.214
				c0-0.064,0.043-0.103,0.127-0.115c0.25-0.043,0.53-0.078,0.943-0.078c0.848,0,1.188,0.425,1.188,1.145v2.125
				C67.67,775.419,67.615,775.475,67.55,775.475 M67.136,773.854h-0.452c-0.736,0-0.932,0.164-0.932,0.598v0.073
				c0,0.438,0.207,0.555,0.56,0.555c0.28,0,0.53-0.087,0.824-0.245V773.854z"/>
			<path fill="#009CB9" d="M71.244,775.475h-0.293c-0.065,0-0.121-0.056-0.121-0.123v-2.003c0-0.613-0.207-0.803-0.67-0.803
				c-0.256,0-0.541,0.096-0.82,0.236v2.568c0,0.062-0.057,0.123-0.123,0.123h-0.298c-0.062,0-0.117-0.056-0.117-0.123v-3.104
				c0-0.068,0.05-0.123,0.117-0.123h0.304c0.066,0,0.117,0.055,0.117,0.123v0.114c0.334-0.188,0.607-0.279,0.967-0.279
				c0.73,0,1.06,0.456,1.06,1.266v2.003C71.366,775.419,71.312,775.475,71.244,775.475"/>
			<path fill="#009CB9" d="M74.836,775.413c-0.377,0.072-0.748,0.104-1.119,0.104c-0.908,0-1.328-0.591-1.328-1.504v-0.438
				c0-0.956,0.439-1.492,1.328-1.492c0.188,0,0.474,0.017,0.711,0.06v-1.132c0-0.06,0.049-0.114,0.115-0.114h0.312
				c0.061,0,0.109,0.049,0.109,0.114v4.263C74.965,775.352,74.945,775.396,74.836,775.413 M74.428,772.594
				c-0.201-0.036-0.518-0.042-0.711-0.042c-0.598,0-0.792,0.37-0.792,1.023v0.438c0,0.663,0.188,1.034,0.792,1.034
				c0.205,0,0.504-0.02,0.711-0.036V772.594z"/>
			<path fill="#009CB9" d="M79.146,775.517c-0.896,0-1.352-0.591-1.352-1.485v-0.462c0-0.896,0.456-1.485,1.352-1.485
				c0.895,0,1.357,0.589,1.357,1.485v0.462C80.504,774.926,80.041,775.517,79.146,775.517 M79.969,773.568
				c0-0.621-0.25-1.018-0.822-1.018c-0.566,0-0.816,0.391-0.816,1.018v0.462c0,0.622,0.245,1.017,0.816,1.017
				c0.566,0,0.822-0.389,0.822-1.017V773.568z"/>
			<path fill="#009CB9" d="M83.975,775.475H83.67c-0.066,0-0.117-0.056-0.117-0.123v-0.114c-0.334,0.189-0.607,0.279-0.967,0.279
				c-0.73,0-1.059-0.456-1.059-1.266v-2.003c0-0.068,0.055-0.123,0.122-0.123h0.292c0.066,0,0.121,0.055,0.121,0.123v2.003
				c0,0.614,0.207,0.803,0.669,0.803c0.257,0,0.543-0.097,0.821-0.236v-2.568c0-0.062,0.057-0.123,0.124-0.123h0.298
				c0.06,0,0.116,0.055,0.116,0.123v3.104C84.091,775.419,84.041,775.475,83.975,775.475"/>
			<path fill="#009CB9" d="M87.791,772.271l-0.822,2.896c-0.078,0.275-0.285,0.348-0.547,0.348c-0.262,0-0.469-0.071-0.547-0.348
				l-0.824-2.896c-0.004-0.02-0.004-0.03-0.004-0.043c0-0.062,0.035-0.104,0.096-0.104h0.336c0.049,0,0.09,0.036,0.115,0.116
				l0.7,2.653c0.036,0.146,0.067,0.178,0.128,0.178c0.055,0,0.091-0.03,0.129-0.178l0.698-2.653c0.025-0.08,0.067-0.116,0.116-0.116
				H87.7c0.061,0,0.098,0.042,0.098,0.104C87.798,772.241,87.798,772.253,87.791,772.271"/>
			<path fill="#009CB9" d="M91.097,773.972h-2.039v0.084c0,0.726,0.286,0.991,0.845,0.991c0.355,0,0.805-0.023,1.085-0.064
				c0.013,0,0.019,0,0.03,0c0.049,0,0.098,0.022,0.098,0.087v0.204c0,0.078-0.023,0.122-0.121,0.141
				c-0.346,0.065-0.682,0.104-1.092,0.104c-0.697,0-1.381-0.33-1.381-1.461v-0.549c0-0.87,0.48-1.424,1.352-1.424
				c0.889,0,1.34,0.559,1.34,1.424v0.33C91.213,773.915,91.17,773.972,91.097,773.972 M90.671,773.507
				c0-0.688-0.263-0.955-0.798-0.955c-0.523,0-0.815,0.3-0.815,0.955v0.057h1.613V773.507z"/>
			<path fill="#009CB9" d="M93.623,772.546c-0.279,0-0.534,0.073-0.84,0.255v2.551c0,0.062-0.054,0.123-0.123,0.123h-0.297
				c-0.061,0-0.115-0.056-0.115-0.123v-3.104c0-0.068,0.05-0.123,0.115-0.123h0.288c0.066,0,0.114,0.055,0.114,0.123v0.126
				c0.305-0.213,0.584-0.291,0.857-0.291c0.086,0,0.129,0.035,0.129,0.108v0.249C93.752,772.508,93.709,772.546,93.623,772.546"/>
			<path fill="#009CB9" d="M96.303,775.485c-0.121,0.02-0.279,0.03-0.395,0.03c-0.561,0-0.829-0.146-0.829-0.814v-2.124
				l-0.591-0.069c-0.067-0.005-0.114-0.042-0.114-0.106v-0.165c0-0.068,0.047-0.11,0.114-0.11h0.591v-0.597
				c0-0.062,0.042-0.109,0.109-0.122l0.316-0.048c0.007,0,0.013,0,0.019,0c0.049,0,0.092,0.043,0.092,0.103v0.664h0.658
				c0.066,0,0.121,0.055,0.121,0.123v0.207c0,0.067-0.055,0.122-0.121,0.122h-0.658v2.124c0,0.333,0.085,0.383,0.328,0.383h0.342
				c0.086,0,0.127,0.025,0.127,0.085v0.214C96.412,775.438,96.381,775.475,96.303,775.485"/>
		</g>
	</g>
</g>
<g id="Calque_3">
</g>
</svg>
