<?xml version="1.0" encoding="utf-8"?>
<!-- Generator: Adobe Illustrator 16.0.0, SVG Export Plug-In . SVG Version: 6.00 Build 0)  -->
<!DOCTYPE svg PUBLIC "-//W3C//DTD SVG 1.1//EN" "http://www.w3.org/Graphics/SVG/1.1/DTD/svg11.dtd">
<svg version="1.1" id="Calque_1" xmlns="http://www.w3.org/2000/svg" xmlns:xlink="http://www.w3.org/1999/xlink" x="0px" y="0px"
	 width="85.04px" height="85.04px" viewBox="0 0 85.04 85.04" enable-background="new 0 0 85.04 85.04" xml:space="preserve">
<path fill="#EB6A5B" d="M41.5,11.75c0,0-15,4.375-14.875,12.25C26.75,31.875,30,39.75,30,39.75L33.875,51c0,0,5.5,4.875,13,3.25
	c0,0,3.75-2.125,3.875-4.625s1.5-5.375,2.75-7.75c1.25-2.375,6.25-10.625,5.125-13.625S58.875,12.5,41.5,11.75z"/>
<g>
	<path fill="#EB6A5B" d="M45.97,55.141h-7.417c-1.941,0-3.426-1.066-4.379-1.881c-0.076-0.056-0.182-0.145-0.236-0.206
		c-1.591-1.755-1.576-3.478-1.567-4.507c0.012-1.305-0.429-2.509-0.75-3.389c-0.064-0.178-0.125-0.342-0.177-0.492
		c-0.308-0.896-2.312-4.405-3.388-6.02c-3.435-5.155-3.188-9.669-3.057-12.096c0.25-4.597,2.116-8.387,5.709-11.585
		c1.461-1.302,3.241-2.333,5.291-3.066c1.835-0.723,3.809-1.121,5.833-1.174c0.047-0.006,0.096-0.01,0.144-0.01
		c0.007,0,0.065,0,0.071,0l0.201,0.001l0.042-0.001c0.019,0,0.058,0,0.074,0.001l0.107-0.001c0.007,0,0.072,0,0.079,0
		c0.042,0,0.084,0.003,0.123,0.008c2.298,0.051,4.52,0.543,6.607,1.467c1.714,0.694,3.252,1.634,4.535,2.775
		c3.609,3.216,5.477,7.007,5.708,11.59l0.013,0.269c0.023,0.393,0.045,0.786,0.045,1.183l-0.002,0.099
		c-0.005,2.754-0.361,6.412-3.113,10.54c-1.075,1.615-3.079,5.124-3.388,6.021c-0.052,0.15-0.112,0.316-0.176,0.495
		c-0.323,0.878-0.763,2.082-0.751,3.353c0.009,1.075,0.025,2.799-1.572,4.546c-0.057,0.062-0.156,0.147-0.23,0.201
		C49.397,54.078,47.92,55.141,45.97,55.141z M35.715,51.303c0.018,0.014,0.035,0.027,0.052,0.042
		c1.054,0.903,1.913,1.306,2.786,1.306h7.417c0.881,0,1.738-0.402,2.78-1.301c0.02-0.018,0.04-0.033,0.061-0.049
		c0.866-0.991,0.857-1.869,0.851-2.719c-0.016-1.768,0.536-3.277,0.901-4.276c0.059-0.162,0.114-0.312,0.16-0.447
		c0.437-1.27,2.703-5.141,3.671-6.593c2.367-3.554,2.69-6.611,2.694-9.135l0.002-0.098c0-0.375-0.02-0.719-0.039-1.063l-0.015-0.284
		c-0.196-3.887-1.792-7.11-4.877-9.859c-1.069-0.952-2.365-1.74-3.85-2.341c-1.855-0.822-3.794-1.245-5.798-1.274
		c-0.034,0-0.066-0.002-0.099-0.004h-0.061c-0.023,0-0.071-0.001-0.095-0.002h-0.126c-0.038,0.004-0.077,0.006-0.117,0.007
		c-1.773,0.033-3.505,0.376-5.141,1.021c-1.784,0.638-3.289,1.505-4.51,2.593c-3.07,2.734-4.666,5.959-4.878,9.859
		c-0.16,2.958-0.103,6.458,2.643,10.58c0.968,1.452,3.234,5.322,3.671,6.591c0.047,0.136,0.101,0.284,0.159,0.445
		c0.364,0.999,0.918,2.508,0.902,4.233C34.854,49.42,34.846,50.301,35.715,51.303z"/>
</g>
<g>
	<path fill="#EB6A5B" d="M36.977,61.314c-0.553,0-1.038-0.403-1.125-0.967c-0.096-0.623,0.33-1.205,0.953-1.299l10.565-1.625
		c0.624-0.097,1.205,0.331,1.3,0.954c0.097,0.622-0.33,1.204-0.953,1.3l-10.565,1.623C37.093,61.31,37.034,61.314,36.977,61.314z"/>
</g>
<g>
	<path fill="#EB6A5B" d="M36.977,64.482c-0.553,0-1.038-0.402-1.125-0.968c-0.096-0.622,0.33-1.204,0.953-1.298l10.565-1.625
		c0.624-0.098,1.205,0.33,1.3,0.953c0.097,0.623-0.33,1.205-0.953,1.301l-10.565,1.623C37.093,64.478,37.034,64.482,36.977,64.482z"
		/>
</g>
<path fill="#EB6A5B" d="M36.847,55.896c-0.013,0.003-0.023,0.008-0.036,0.01c-0.603,0.112-1.012,0.682-0.917,1.292
	c0.085,0.562,0.571,0.967,1.126,0.967c0.025,0,0.054-0.005,0.081-0.008l4.412-0.676l0.867-0.136
	c0.621-0.095,1.049-0.677,0.953-1.298c-0.014-0.082-0.035-0.16-0.063-0.232h-5.887L36.847,55.896z"/>
<g>
	<path fill="#EB6A5B" d="M42.261,69.092c-1.869,0-3.535-1.188-4.147-2.957c-0.225-0.65,0.12-1.359,0.771-1.584
		c0.648-0.224,1.358,0.119,1.584,0.77c0.265,0.766,0.985,1.281,1.793,1.281c0.807,0,1.528-0.515,1.793-1.281
		c0.224-0.649,0.933-0.994,1.584-0.77c0.65,0.225,0.996,0.934,0.771,1.584C45.797,67.904,44.131,69.092,42.261,69.092z"/>
</g>
</svg>
