<?xml version="1.0" encoding="utf-8"?>
<!-- Generator: Adobe Illustrator 16.0.0, SVG Export Plug-In . SVG Version: 6.00 Build 0)  -->
<!DOCTYPE svg PUBLIC "-//W3C//DTD SVG 1.1//EN" "http://www.w3.org/Graphics/SVG/1.1/DTD/svg11.dtd">
<svg version="1.1" id="Calque_1" xmlns="http://www.w3.org/2000/svg" xmlns:xlink="http://www.w3.org/1999/xlink" x="0px" y="0px"
	 width="85.04px" height="85.04px" viewBox="0 0 85.04 85.04" enable-background="new 0 0 85.04 85.04" xml:space="preserve">
<g>
	<path fill="#F7FBFC" d="M40.455,14.702c0,0-14.073,4.109-13.958,11.492c0.116,7.394,3.172,14.788,3.172,14.788l3.634,10.546
		c0,0,5.156,4.573,12.192,3.051c0,0,3.519-1.993,3.64-4.337c0.121-2.345,1.407-5.047,2.578-7.279
		c1.176-2.227,5.871-9.966,4.81-12.781C55.468,27.368,56.76,15.406,40.455,14.702z"/>
	<g>
		<path fill="#F7FBFC" d="M44.648,55.415h-6.962c-1.816,0-3.206-0.997-4.106-1.765c-0.069-0.052-0.167-0.136-0.219-0.196
			c-1.494-1.644-1.477-3.259-1.471-4.225c0.011-1.226-0.398-2.355-0.704-3.178c-0.063-0.167-0.122-0.32-0.167-0.464
			c-0.289-0.84-2.168-4.133-3.178-5.65c-3.224-4.842-2.994-9.075-2.867-11.348c0.231-4.314,1.984-7.867,5.353-10.872
			c1.373-1.22,3.045-2.189,4.965-2.881c1.725-0.678,3.576-1.044,5.474-1.096c0.046-0.009,0.093-0.015,0.139-0.015
			c0.006,0,0.058,0,0.058,0h0.196h0.04c0.018,0,0.052,0,0.069,0h0.098c0,0,0.069,0,0.075,0c0.04,0,0.081,0.006,0.115,0.006
			c2.157,0.052,4.239,0.516,6.2,1.384c1.609,0.649,3.051,1.528,4.257,2.601c3.386,3.017,5.139,6.575,5.352,10.877l0.018,0.248
			c0.018,0.369,0.041,0.738,0.041,1.11v0.089c-0.012,2.584-0.341,6.024-2.925,9.894c-1.009,1.517-2.89,4.81-3.178,5.647
			c-0.046,0.146-0.104,0.3-0.161,0.47c-0.306,0.819-0.722,1.949-0.71,3.138c0.006,1.018,0.029,2.63-1.471,4.271
			c-0.058,0.055-0.149,0.136-0.219,0.188C47.866,54.418,46.482,55.415,44.648,55.415z M35.028,51.811
			c0.017,0.018,0.034,0.032,0.052,0.046c0.986,0.843,1.788,1.226,2.606,1.226h6.962c0.83,0,1.632-0.383,2.612-1.226
			c0.018-0.011,0.035-0.028,0.058-0.046c0.808-0.926,0.802-1.753,0.796-2.549c-0.011-1.661,0.502-3.074,0.843-4.015
			c0.058-0.146,0.109-0.288,0.149-0.421c0.415-1.197,2.538-4.822,3.449-6.188c2.221-3.334,2.526-6.194,2.526-8.565v-0.089
			c0-0.354-0.012-0.678-0.035-1l-0.012-0.266c-0.185-3.648-1.684-6.673-4.579-9.251c-1.004-0.891-2.215-1.635-3.61-2.203
			c-1.742-0.764-3.559-1.165-5.438-1.191c-0.035,0-0.063,0-0.093-0.012h-0.058c-0.023,0-0.069,0-0.087,0h-0.121
			c-0.034,0.012-0.074,0.012-0.109,0.012c-1.661,0.037-3.287,0.354-4.821,0.96c-1.679,0.603-3.092,1.407-4.233,2.434
			c-2.884,2.561-4.377,5.594-4.58,9.251c-0.15,2.777-0.092,6.053,2.48,9.92c0.912,1.367,3.034,4.992,3.449,6.188
			c0.04,0.13,0.092,0.274,0.149,0.421c0.335,0.938,0.859,2.354,0.843,3.968C34.221,50.046,34.215,50.876,35.028,51.811z"/>
	</g>
	<g>
		<path fill="#F7FBFC" d="M36.21,61.212c-0.519,0-0.969-0.381-1.055-0.911c-0.087-0.577,0.312-1.131,0.894-1.223l9.914-1.523
			c0.583-0.092,1.137,0.312,1.218,0.9c0.092,0.588-0.306,1.124-0.889,1.217l-9.92,1.522C36.326,61.2,36.268,61.212,36.21,61.212z"/>
	</g>
	<g>
		<path fill="#F7FBFC" d="M36.21,64.177c-0.519,0-0.969-0.375-1.055-0.9c-0.087-0.588,0.312-1.13,0.894-1.223l9.914-1.522
			c0.583-0.093,1.137,0.312,1.218,0.888c0.092,0.589-0.306,1.137-0.889,1.224l-9.92,1.522C36.326,64.177,36.268,64.177,36.21,64.177
			z"/>
	</g>
	<path fill="#F7FBFC" d="M36.095,56.125c-0.017,0-0.022,0.006-0.034,0.015c-0.571,0.104-0.952,0.631-0.865,1.202
		c0.081,0.53,0.536,0.917,1.056,0.917c0.028,0,0.052-0.012,0.075-0.012l4.141-0.64l0.813-0.127c0.582-0.084,0.986-0.629,0.894-1.217
		c-0.012-0.084-0.028-0.147-0.058-0.22h-5.525L36.095,56.125z"/>
	<g>
		<path fill="#F7FBFC" d="M41.17,68.502c-1.753,0-3.315-1.107-3.887-2.769c-0.214-0.611,0.109-1.28,0.715-1.488
			c0.611-0.213,1.28,0.11,1.488,0.722c0.248,0.721,0.923,1.205,1.684,1.205c0.762,0,1.437-0.484,1.685-1.205
			c0.208-0.605,0.877-0.935,1.482-0.722c0.617,0.208,0.94,0.877,0.727,1.488C44.492,67.395,42.924,68.502,41.17,68.502z"/>
	</g>
</g>
</svg>
