<?xml version="1.0" encoding="utf-8"?>
<!-- Generator: Adobe Illustrator 16.0.0, SVG Export Plug-In . SVG Version: 6.00 Build 0)  -->
<!DOCTYPE svg PUBLIC "-//W3C//DTD SVG 1.1//EN" "http://www.w3.org/Graphics/SVG/1.1/DTD/svg11.dtd">
<svg version="1.1" id="Calque_1" xmlns="http://www.w3.org/2000/svg" xmlns:xlink="http://www.w3.org/1999/xlink" x="0px" y="0px"
	 width="85.04px" height="85.04px" viewBox="0 0 85.04 85.04" enable-background="new 0 0 85.04 85.04" xml:space="preserve">
<g>
	<g>
		<path fill="#183356" d="M47.523,57.686h-8.307c-2.174,0-3.837-1.194-4.904-2.106c-0.085-0.062-0.203-0.162-0.265-0.23
			c-1.781-1.966-1.765-3.895-1.755-5.048c0.013-1.461-0.48-2.81-0.84-3.795c-0.072-0.199-0.14-0.383-0.198-0.551
			c-0.345-1.003-2.589-4.934-3.794-6.742c-3.846-5.773-3.571-10.829-3.423-13.546c0.28-5.148,2.37-9.393,6.394-12.974
			c1.636-1.458,3.63-2.613,5.925-3.434c2.056-0.81,4.266-1.255,6.533-1.315c0.052-0.007,0.106-0.012,0.16-0.012
			c0.008,0,0.073,0,0.08,0l0.226,0.001l0.047-0.001c0.021,0,0.064,0,0.083,0.001l0.12-0.001c0.008,0,0.081,0,0.089,0
			c0.047,0,0.094,0.003,0.138,0.009c2.573,0.057,5.062,0.608,7.399,1.643c1.92,0.778,3.643,1.83,5.079,3.108
			c4.042,3.602,6.134,7.848,6.393,12.979l0.015,0.301c0.025,0.439,0.05,0.88,0.05,1.324l-0.002,0.111
			c-0.006,3.084-0.405,7.18-3.486,11.803c-1.204,1.809-3.449,5.739-3.794,6.743c-0.059,0.168-0.126,0.354-0.197,0.555
			c-0.362,0.982-0.854,2.331-0.841,3.754c0.01,1.204,0.028,3.135-1.761,5.091c-0.063,0.069-0.175,0.165-0.259,0.226
			C51.362,56.495,49.707,57.686,47.523,57.686z M36.038,53.388c0.021,0.015,0.04,0.03,0.059,0.047
			c1.18,1.012,2.143,1.462,3.12,1.462h8.307c0.986,0,1.946-0.45,3.113-1.457c0.021-0.02,0.045-0.037,0.067-0.055
			c0.971-1.109,0.961-2.093,0.953-3.044c-0.018-1.979,0.601-3.671,1.01-4.789c0.065-0.182,0.128-0.35,0.179-0.501
			c0.489-1.423,3.027-5.757,4.111-7.384c2.651-3.98,3.013-7.404,3.018-10.23l0.002-0.109c0-0.419-0.021-0.806-0.044-1.191
			l-0.017-0.318c-0.22-4.353-2.007-7.963-5.461-11.041c-1.198-1.066-2.649-1.948-4.312-2.622c-2.078-0.92-4.249-1.394-6.493-1.427
			c-0.038,0-0.074-0.002-0.11-0.005h-0.068c-0.025,0-0.079-0.001-0.105-0.002h-0.142c-0.042,0.005-0.086,0.007-0.131,0.008
			c-1.986,0.038-3.925,0.421-5.757,1.144c-1.998,0.714-3.684,1.686-5.051,2.904c-3.438,3.062-5.226,6.674-5.463,11.041
			c-0.179,3.312-0.115,7.232,2.959,11.848c1.084,1.626,3.622,5.96,4.111,7.381c0.052,0.152,0.112,0.318,0.178,0.499
			c0.408,1.119,1.028,2.809,1.011,4.741C35.075,51.278,35.065,52.266,36.038,53.388z"/>
	</g>
	<g>
		<path fill="#183356" d="M37.451,64.6c-0.618,0-1.162-0.452-1.26-1.083c-0.106-0.697,0.37-1.35,1.067-1.454l11.833-1.82
			c0.698-0.108,1.35,0.371,1.455,1.068c0.108,0.697-0.369,1.349-1.067,1.456l-11.832,1.817C37.582,64.594,37.516,64.6,37.451,64.6z"
			/>
	</g>
	<g>
		<path fill="#183356" d="M37.451,68.147c-0.618,0-1.162-0.45-1.26-1.084c-0.106-0.696,0.37-1.349,1.067-1.453l11.833-1.82
			c0.698-0.109,1.35,0.37,1.455,1.067c0.108,0.698-0.369,1.35-1.067,1.457l-11.832,1.817C37.582,68.142,37.516,68.147,37.451,68.147
			z"/>
	</g>
	<path fill="#183356" d="M37.306,58.531c-0.014,0.003-0.025,0.009-0.04,0.011c-0.675,0.126-1.133,0.764-1.027,1.446
		c0.096,0.631,0.641,1.083,1.262,1.083c0.028,0,0.06-0.005,0.091-0.009l4.94-0.757l0.972-0.151c0.695-0.106,1.175-0.759,1.067-1.455
		c-0.016-0.091-0.039-0.178-0.071-0.259h-6.593L37.306,58.531z"/>
	<g>
		<path fill="#183356" d="M43.369,73.31c-2.093,0-3.959-1.33-4.645-3.312c-0.252-0.729,0.135-1.522,0.863-1.774
			c0.726-0.25,1.521,0.134,1.773,0.862c0.297,0.857,1.104,1.435,2.008,1.435c0.903,0,1.712-0.576,2.008-1.435
			c0.251-0.728,1.045-1.113,1.774-0.862c0.729,0.252,1.115,1.046,0.862,1.774C47.329,71.979,45.464,73.31,43.369,73.31z"/>
	</g>
</g>
</svg>
