<?xml version="1.0" encoding="utf-8"?>
<!-- Generator: Adobe Illustrator 16.0.0, SVG Export Plug-In . SVG Version: 6.00 Build 0)  -->
<!DOCTYPE svg PUBLIC "-//W3C//DTD SVG 1.1//EN" "http://www.w3.org/Graphics/SVG/1.1/DTD/svg11.dtd">
<svg version="1.1" id="Calque_1" xmlns="http://www.w3.org/2000/svg" xmlns:xlink="http://www.w3.org/1999/xlink" x="0px" y="0px"
	 width="85.04px" height="85.04px" viewBox="0 0 85.04 85.04" enable-background="new 0 0 85.04 85.04" xml:space="preserve">
<g>
	<polygon fill="#BED77A" points="45.007,67.896 24.604,67.896 34.805,38.896 45.007,9.899 55.208,38.896 65.409,67.896 	"/>
	<path fill="#183356" d="M37.047,74.709h13.828C50.875,74.709,45.101,68.282,37.047,74.709z"/>
	<g>
		<path fill="#183356" d="M44.402,74.747c-0.324,0-0.586-0.261-0.586-0.585V29.348c0-0.323,0.262-0.585,0.586-0.585
			c0.323,0,0.583,0.262,0.583,0.585v44.814C44.985,74.486,44.726,74.747,44.402,74.747z"/>
	</g>
	<g>
		<path fill="#183356" d="M44.206,64.028c-0.093,0-0.187-0.019-0.275-0.067l-10.912-5.846c-0.286-0.152-0.391-0.508-0.238-0.792
			c0.152-0.284,0.504-0.391,0.792-0.24l10.911,5.848c0.284,0.152,0.392,0.505,0.239,0.79C44.618,63.918,44.415,64.028,44.206,64.028
			z"/>
	</g>
	<g>
		<path fill="#183356" d="M44.771,58.287c-0.174,0-0.344-0.075-0.46-0.22c-0.201-0.254-0.157-0.622,0.095-0.821l10.329-8.193
			c0.254-0.2,0.622-0.155,0.822,0.096c0.2,0.253,0.159,0.621-0.095,0.821l-10.33,8.19C45.024,58.244,44.896,58.287,44.771,58.287z"
			/>
	</g>
	<g>
		<path fill="#183356" d="M44.379,51.245c-0.092,0-0.188-0.024-0.273-0.07l-8.208-4.405c-0.284-0.151-0.391-0.504-0.239-0.789
			c0.153-0.285,0.509-0.392,0.792-0.238l8.208,4.402c0.283,0.152,0.389,0.508,0.237,0.792
			C44.789,51.134,44.588,51.245,44.379,51.245z"/>
	</g>
	<g>
		<path fill="#183356" d="M44.355,41.066c-0.092,0-0.188-0.023-0.274-0.07l-5.529-2.967c-0.285-0.152-0.393-0.508-0.239-0.792
			c0.153-0.283,0.508-0.39,0.792-0.24l5.529,2.97c0.284,0.152,0.392,0.506,0.238,0.791C44.768,40.956,44.566,41.066,44.355,41.066z"
			/>
	</g>
	<g>
		<path fill="#183356" d="M44.548,45.617c-0.138,0-0.272-0.045-0.385-0.142c-0.243-0.211-0.269-0.583-0.057-0.825l6.105-7.014
			c0.213-0.244,0.581-0.27,0.825-0.056c0.242,0.21,0.269,0.579,0.057,0.825l-6.105,7.015C44.872,45.551,44.711,45.617,44.548,45.617
			z"/>
	</g>
	<g>
		<path fill="#183356" d="M44.581,36.476c-0.137,0-0.272-0.048-0.385-0.143c-0.242-0.212-0.268-0.582-0.058-0.826l4.44-5.101
			c0.214-0.243,0.583-0.267,0.827-0.057c0.243,0.213,0.269,0.582,0.057,0.826l-4.441,5.101
			C44.906,36.409,44.743,36.476,44.581,36.476z"/>
	</g>
</g>
</svg>
