<?xml version="1.0" encoding="utf-8"?>
<!-- Generator: Adobe Illustrator 16.0.0, SVG Export Plug-In . SVG Version: 6.00 Build 0)  -->
<!DOCTYPE svg PUBLIC "-//W3C//DTD SVG 1.1//EN" "http://www.w3.org/Graphics/SVG/1.1/DTD/svg11.dtd">
<svg version="1.1" id="Calque_1" xmlns="http://www.w3.org/2000/svg" xmlns:xlink="http://www.w3.org/1999/xlink" x="0px" y="0px"
	 width="85.04px" height="85.04px" viewBox="0 0 85.04 85.04" enable-background="new 0 0 85.04 85.04" xml:space="preserve">
<g>
	<path fill="#AECD58" d="M71.877,44.858c0-2.869-1.324-5.417-3.389-7.091c0.728-1.306,1.143-2.81,1.143-4.415
		c0-3.598-2.09-6.7-5.117-8.184c0.222-0.789,0.35-1.619,0.35-2.476c0-5.038-4.085-9.117-9.122-9.117
		c-0.811,0-1.593,0.116-2.348,0.313c-0.937-4.035-4.553-7.053-8.875-7.053c-4.037,0-7.451,2.624-8.652,6.261
		c-0.38-0.052-0.773-0.084-1.167-0.084c-5.04,0-9.122,4.083-9.122,9.116c0,1.288,0.274,2.512,0.751,3.618
		c-4.392,0.658-7.764,4.438-7.764,9.011c0,1.504,0.373,2.927,1.018,4.176c-0.291,0.893-0.454,1.847-0.454,2.839
		c0,2.491,1.004,4.745,2.625,6.397c-0.773,1.336-1.226,2.886-1.226,4.543c0,4.323,3.015,7.935,7.055,8.875
		c0.374,4.69,4.291,8.38,9.081,8.38c2.378,0,4.536-0.918,6.161-2.402c1.649,1.66,3.936,2.687,6.462,2.687
		c4.124,0,7.6-2.735,8.734-6.488c4.758-0.304,8.522-4.247,8.522-9.083c0-0.505-0.051-0.991-0.13-1.477
		C69.627,51.798,71.877,48.591,71.877,44.858z"/>
	<g>
		<path fill="#183356" d="M34.814,77.85h18.625C53.439,77.85,45.661,69.2,34.814,77.85z"/>
	</g>
	<g>
		<path fill="#183356" d="M44.716,77.903c-0.434,0-0.784-0.348-0.784-0.785V16.77c0-0.439,0.351-0.787,0.784-0.787
			c0.436,0,0.793,0.348,0.793,0.787v60.348C45.509,77.556,45.151,77.903,44.716,77.903z"/>
	</g>
	<g>
		<path fill="#183356" d="M44.607,63.624c-0.123,0-0.252-0.028-0.369-0.093l-11.836-6.346c-0.383-0.204-0.528-0.682-0.325-1.066
			c0.206-0.382,0.682-0.527,1.068-0.317l11.836,6.341c0.384,0.206,0.527,0.684,0.322,1.065
			C45.162,63.476,44.885,63.624,44.607,63.624z"/>
	</g>
	<g>
		<path fill="#183356" d="M44.954,55.737c-0.234,0-0.462-0.103-0.616-0.296c-0.272-0.342-0.215-0.841,0.127-1.11l13.907-11.025
			c0.342-0.271,0.84-0.216,1.106,0.125c0.269,0.343,0.213,0.839-0.128,1.108L45.442,55.567
			C45.298,55.682,45.127,55.737,44.954,55.737z"/>
	</g>
	<g>
		<path fill="#183356" d="M44.688,46.256c-0.123,0-0.251-0.031-0.369-0.095l-11.051-5.93c-0.382-0.207-0.525-0.685-0.319-1.063
			c0.2-0.383,0.682-0.528,1.061-0.324l11.051,5.931c0.382,0.206,0.526,0.684,0.323,1.064C45.242,46.105,44.97,46.256,44.688,46.256z
			"/>
	</g>
	<g>
		<path fill="#183356" d="M44.657,32.549c-0.125,0-0.253-0.032-0.371-0.095l-7.448-3.995c-0.382-0.206-0.521-0.684-0.317-1.064
			c0.205-0.384,0.68-0.528,1.064-0.323l7.444,3.997c0.385,0.203,0.53,0.684,0.323,1.065C45.21,32.401,44.936,32.549,44.657,32.549z"
			/>
	</g>
	<g>
		<path fill="#183356" d="M45.114,38.678c-0.182,0-0.368-0.065-0.515-0.191c-0.331-0.287-0.366-0.783-0.081-1.113l8.222-9.444
			c0.285-0.331,0.784-0.361,1.11-0.075c0.331,0.285,0.363,0.777,0.079,1.109l-8.221,9.448
			C45.552,38.589,45.331,38.678,45.114,38.678z"/>
	</g>
	<g>
		<path fill="#183356" d="M44.954,26.368c-0.184,0-0.368-0.063-0.518-0.193c-0.326-0.283-0.365-0.782-0.078-1.109l5.981-6.872
			c0.285-0.33,0.778-0.362,1.109-0.077c0.326,0.286,0.361,0.785,0.075,1.112l-5.976,6.868C45.39,26.277,45.173,26.368,44.954,26.368
			z"/>
	</g>
</g>
</svg>
