<?xml version="1.0" encoding="utf-8"?>
<!-- Generator: Adobe Illustrator 16.0.0, SVG Export Plug-In . SVG Version: 6.00 Build 0)  -->
<!DOCTYPE svg PUBLIC "-//W3C//DTD SVG 1.1//EN" "http://www.w3.org/Graphics/SVG/1.1/DTD/svg11.dtd">
<svg version="1.1" id="Calque_1" xmlns="http://www.w3.org/2000/svg" xmlns:xlink="http://www.w3.org/1999/xlink" x="0px" y="0px"
	 width="141.73px" height="141.73px" viewBox="0 0 141.73 141.73" enable-background="new 0 0 141.73 141.73" xml:space="preserve">
<g>
	<g>
		<path fill="#AFDCDF" d="M42.8,119.618h21.071V98.069H76.54v21.549h21.066V23.142H42.8V119.618z M74.051,34.509h12.661v12.667
			H74.051V34.509z M74.051,54.868h12.661v12.667H74.051V54.868z M74.051,75.226h12.661v12.666H74.051V75.226z M53.693,34.509h12.661
			v12.667H53.693V34.509z M53.693,54.868h12.661v12.667H53.693V54.868z M53.693,75.226h12.661v12.666H53.693V75.226z"/>
		<path fill="#AFDCDF" d="M102.532,31.788v68.211h8.135v19.619h19.182v-87.83H102.532z M119.929,90.736H108.4V79.204h11.528V90.736
			L119.929,90.736z M119.929,72.2H108.4V60.668h11.528V72.2L119.929,72.2z M119.929,53.666H108.4V42.133h11.528V53.666
			L119.929,53.666z"/>
		<path fill="#AFDCDF" d="M10.557,119.618h19.181V99.999h8.135V31.788H10.557V119.618z M20.471,42.133h11.534v11.533H20.471V42.133z
			 M20.471,60.668h11.534V72.2H20.471V60.668z M20.471,79.204h11.534v11.532H20.471V79.204z"/>
	</g>
</g>
</svg>
