<?xml version="1.0" encoding="utf-8"?>
<!-- Generator: Adobe Illustrator 16.0.0, SVG Export Plug-In . SVG Version: 6.00 Build 0)  -->
<!DOCTYPE svg PUBLIC "-//W3C//DTD SVG 1.1//EN" "http://www.w3.org/Graphics/SVG/1.1/DTD/svg11.dtd">
<svg version="1.1" id="Calque_1" xmlns="http://www.w3.org/2000/svg" xmlns:xlink="http://www.w3.org/1999/xlink" x="0px" y="0px"
	 width="141.73px" height="141.73px" viewBox="0 0 141.73 141.73" enable-background="new 0 0 141.73 141.73" xml:space="preserve">
<g>
	<path fill="#183356" d="M39.672,80.533c-12.752,0-23.388-3.395-26.151-7.948c-0.452,0.744-0.715,1.527-0.715,2.326
		c-0.008,5.683,12.021,10.274,26.866,10.274c3.628,0,7.09-0.271,10.252-0.782c3.967-4.54,9.725-7.453,16.161-7.655
		c0.287-0.604,0.459-1.205,0.459-1.837c0-0.799-0.264-1.582-0.723-2.326C63.061,77.131,52.424,80.533,39.672,80.533z"/>
	<ellipse fill="#183356" cx="39.672" cy="54.917" rx="26.865" ry="10.275"/>
	<path fill="#183356" d="M101.346,76.77c14.837,0,26.865-4.592,26.865-10.268c0-0.798-0.264-1.574-0.723-2.326
		c-2.747,4.554-13.392,7.949-26.136,7.949s-23.388-3.403-26.158-7.957c-0.459,0.753-0.715,1.528-0.715,2.327
		C74.479,72.17,86.509,76.77,101.346,76.77z"/>
	<path fill="#183356" d="M101.346,65.637c14.837,0,26.865-4.6,26.865-10.276c0-0.798-0.264-1.573-0.723-2.327
		c-2.747,4.555-13.392,7.95-26.136,7.95s-23.388-3.396-26.158-7.95c-0.459,0.754-0.715,1.521-0.715,2.327
		C74.479,61.037,86.509,65.637,101.346,65.637z"/>
	<path fill="#183356" d="M101.346,54.879c14.837,0,26.865-4.599,26.865-10.275c0-0.798-0.264-1.573-0.723-2.326
		c-2.747,4.547-13.392,7.949-26.136,7.949s-23.388-3.402-26.158-7.949c-0.459,0.746-0.715,1.528-0.715,2.326
		C74.479,50.28,86.509,54.879,101.346,54.879z"/>
	<ellipse fill="#183356" cx="101.353" cy="35.361" rx="26.866" ry="10.275"/>
	<path fill="#183356" d="M101.353,93.903c-4.787,0-9.267-0.476-13.15-1.318c0.466,1.543,0.768,3.161,0.889,4.825
		c3.673,0.729,7.836,1.137,12.262,1.137c14.845,0,26.866-4.591,26.866-10.268c0-0.798-0.264-1.581-0.723-2.333
		C124.741,90.508,114.097,93.903,101.353,93.903z"/>
	<path fill="#183356" d="M39.672,74.429c14.836,0,26.865-4.607,26.865-10.275c0-0.798-0.263-1.574-0.722-2.327
		c-2.762,4.555-13.399,7.949-26.15,7.949c-12.752,0-23.389-3.395-26.151-7.949c-0.452,0.752-0.715,1.529-0.715,2.327
		C12.799,69.829,24.828,74.429,39.672,74.429z"/>
	<path fill="#183356" d="M101.353,82.776c-12.744,0-23.388-3.395-26.158-7.957c-0.459,0.753-0.715,1.529-0.715,2.327
		c0,0.346,0.054,0.685,0.136,1.023c3.771,1.416,7.068,3.81,9.567,6.888c4.659,1.476,10.644,2.363,17.17,2.363
		c14.845,0,26.866-4.6,26.866-10.274c0-0.79-0.264-1.574-0.723-2.327C124.741,79.382,114.097,82.776,101.353,82.776z"/>
	<path fill="#183356" d="M66.688,81.316c-9.922,0-17.968,8.047-17.968,17.969c0,9.921,8.046,17.969,17.968,17.969
		c9.921,0,17.968-8.048,17.968-17.969C84.656,89.363,76.609,81.316,66.688,81.316z M69,96v2h-5.843
		c-0.015,0-0.023,0.521-0.023,0.889S63.157,100,63.202,100H69v2h-5.191c0.809,2,2.031,2.322,3.665,2.322
		c0.809,0,1.502-0.162,2.08-0.471c0.577-0.307,1.188-0.794,1.833-1.453l1.596,1.931c-1.394,1.725-3.229,2.585-5.508,2.585
		c-1.559,0-2.942-0.43-4.148-1.322C62.119,104.7,61.253,104,60.729,102H58v-2h2.301c-0.044,0-0.067-0.785-0.067-1.146
		c0-0.359,0.007-0.854,0.022-0.854H58v-2h2.616c0.495-1,1.372-2.775,2.631-3.75s2.69-1.402,4.294-1.402
		c2.383,0,4.271,0.89,5.666,2.614l-1.597,2.037c-0.66-0.704-1.286-1.191-1.877-1.476c-0.592-0.285-1.323-0.425-2.192-0.425
		s-1.652,0.114-2.349,0.571C64.495,94.628,63.974,95,63.629,96H69z"/>
	<path fill="#183356" d="M13.521,83.726c-0.452,0.752-0.715,1.52-0.715,2.326c0,5.675,12.029,10.274,26.866,10.274
		c1.686,0,3.327-0.075,4.93-0.181c0.219-1.648,0.625-3.229,1.182-4.75c-1.965,0.182-4.005,0.278-6.112,0.278
		C26.92,91.667,16.276,88.272,13.521,83.726z"/>
</g>
</svg>
