<?xml version="1.0" encoding="utf-8"?>
<!-- Generator: Adobe Illustrator 16.0.0, SVG Export Plug-In . SVG Version: 6.00 Build 0)  -->
<!DOCTYPE svg PUBLIC "-//W3C//DTD SVG 1.1//EN" "http://www.w3.org/Graphics/SVG/1.1/DTD/svg11.dtd">
<svg version="1.1" id="Calque_1" xmlns="http://www.w3.org/2000/svg" xmlns:xlink="http://www.w3.org/1999/xlink" x="0px" y="0px"
	 width="141.73px" height="141.73px" viewBox="0 0 141.73 141.73" enable-background="new 0 0 141.73 141.73" xml:space="preserve">
<g>
	<path fill="#BFE3E5" d="M33.099,69h59.997c0,0-14.144-14.389-35.119-4.877C57.977,64.123,41.146,61,33.099,69z"/>
	<path fill="#CFEAEC" d="M15.539,71h59.998c0,0-14.144-14.39-35.12-4.878C40.417,66.122,23.585,63,15.539,71z"/>
	<path fill="#AECD58" d="M69.231,99C70.695,99,72,97.813,72,96.349v-0.183c0-1.464-1.246-2.651-2.71-2.651l-0.047,0.046
		c-1.464,0-2.243-1.233-2.243-2.697V90.68c0-1.464-0.148-2.68,1.316-2.68h2.743c1.465,0,1.94-1.158,1.94-2.623v-0.183
		c0-1.465-0.877-2.697-2.342-2.697l-1.669,0.046c-1.464,0-1.989-1.188-1.989-2.652v-0.183c0-1.464,0.749-2.697,2.213-2.697
		l6.245,0.046c1.464,0,2.542-1.188,2.542-2.651v-0.184C78,72.758,76.548,71,75.083,71H14.919C13.455,71,12,72.758,12,74.222v0.184
		C12,75.869,13.455,77,14.919,77h6.355C22.738,77,24,78.244,24,79.708v0.183c0,1.465-1.202,2.652-2.666,2.652l-0.753-0.046
		c-1.464,0-2.581,1.232-2.581,2.697v0.183C18,86.842,18.941,88,20.405,88h14.447C36.316,88,37,89.216,37,90.68v0.184
		C37,92.327,36.316,94,34.852,94h-0.869C32.519,94,32,94.702,32,96.166v0.183C32,97.813,32.473,99,33.938,99H69.231z"/>
	<g>
		<polygon fill="#BED77A" points="37.506,82.408 31.507,82.408 34.506,73.882 37.506,65.355 40.506,73.882 43.505,82.408 		"/>
		<path fill="#183356" d="M35.166,84.412h4.066C39.231,84.412,37.534,82.521,35.166,84.412z"/>
		<g>
			<path fill="#183356" d="M37.328,84.423c-0.096,0-0.172-0.076-0.172-0.173V71.074c0-0.095,0.077-0.172,0.172-0.172
				c0.095,0,0.171,0.077,0.171,0.172V84.25C37.5,84.347,37.423,84.423,37.328,84.423z"/>
		</g>
		<g>
			<path fill="#183356" d="M37.271,81.271c-0.027,0-0.055-0.007-0.081-0.021l-3.209-1.719c-0.083-0.045-0.115-0.149-0.07-0.233
				c0.044-0.083,0.148-0.114,0.233-0.069l3.208,1.718c0.084,0.045,0.115,0.149,0.07,0.233
				C37.392,81.238,37.332,81.271,37.271,81.271z"/>
		</g>
		<g>
			<path fill="#183356" d="M37.437,79.583c-0.051,0-0.101-0.022-0.135-0.064c-0.059-0.075-0.046-0.184,0.028-0.242l3.037-2.408
				c0.074-0.06,0.183-0.047,0.242,0.028c0.059,0.074,0.046,0.183-0.028,0.24l-3.037,2.409C37.511,79.57,37.473,79.583,37.437,79.583
				z"/>
		</g>
		<g>
			<path fill="#183356" d="M37.322,77.512c-0.027,0-0.056-0.006-0.081-0.021l-2.414-1.295c-0.083-0.044-0.115-0.149-0.07-0.232
				c0.044-0.084,0.149-0.114,0.232-0.069l2.414,1.295c0.083,0.045,0.114,0.148,0.069,0.231
				C37.442,77.479,37.383,77.512,37.322,77.512z"/>
		</g>
		<g>
			<path fill="#183356" d="M37.314,74.52c-0.027,0-0.055-0.007-0.081-0.021l-1.626-0.871c-0.083-0.045-0.115-0.15-0.07-0.233
				s0.149-0.115,0.233-0.071l1.626,0.874c0.083,0.045,0.115,0.149,0.07,0.232C37.436,74.486,37.376,74.52,37.314,74.52z"/>
		</g>
		<g>
			<path fill="#183356" d="M37.371,75.857c-0.04,0-0.08-0.014-0.113-0.042c-0.072-0.062-0.08-0.171-0.017-0.242l1.795-2.062
				c0.063-0.072,0.171-0.08,0.243-0.017c0.072,0.062,0.079,0.171,0.017,0.243L37.5,75.799
				C37.466,75.838,37.419,75.857,37.371,75.857z"/>
		</g>
		<g>
			<path fill="#183356" d="M37.381,73.169c-0.04,0-0.08-0.014-0.113-0.041c-0.071-0.062-0.079-0.172-0.017-0.243l1.306-1.5
				c0.063-0.071,0.171-0.079,0.243-0.016c0.072,0.062,0.079,0.169,0.017,0.242l-1.306,1.5
				C37.477,73.149,37.429,73.169,37.381,73.169z"/>
		</g>
	</g>
	<g>
		<path fill="#183356" d="M91.736,79.286v-3.494h-0.445V56.809c0,0-0.711,0.308-1.626,0.071v18.983h-0.497v3.456
			c0,0-0.104,1.437,1.324,1.437C91.858,80.756,91.736,79.286,91.736,79.286z"/>
	</g>
	<g>
		<path fill="#183356" d="M104.941,86.618v-3.956h-0.504v-21.5c0,0-0.806,0.349-1.842,0.081v21.5h-0.562v3.913
			c0,0-0.118,1.628,1.5,1.628C105.079,88.284,104.941,86.618,104.941,86.618z"/>
	</g>
	<g>
		<path fill="#183356" d="M118.946,79.249v-3.428h-0.437v-18.63c0,0-0.698,0.302-1.596,0.07v18.629h-0.487v3.392
			c0,0-0.104,1.409,1.299,1.409C119.066,80.691,118.946,79.249,118.946,79.249z"/>
	</g>
	<g>
		<path fill="#AECD58" d="M129.795,91.418c0-0.746-0.345-1.41-0.882-1.844c0.189-0.341,0.298-0.731,0.298-1.149
			c0-0.936-0.544-1.743-1.331-2.128c0.058-0.206,0.091-0.421,0.091-0.645c0-1.311-1.063-2.371-2.373-2.371
			c-0.211,0-0.414,0.029-0.611,0.081c-0.243-1.05-1.184-1.835-2.308-1.835c-1.051,0-1.938,0.683-2.252,1.628
			c-0.098-0.014-0.2-0.021-0.303-0.021c-1.311,0-2.372,1.061-2.372,2.37c0,0.336,0.071,0.654,0.194,0.941
			c-1.142,0.171-2.02,1.154-2.02,2.345c0,0.39,0.098,0.76,0.265,1.086c-0.075,0.231-0.118,0.48-0.118,0.738
			c0,0.648,0.262,1.233,0.685,1.664c-0.202,0.348-0.32,0.751-0.32,1.181c0,1.126,0.785,2.064,1.836,2.31
			c0.098,1.221,1.115,2.18,2.362,2.18c0.618,0,1.18-0.238,1.602-0.625c0.43,0.433,1.024,0.699,1.682,0.699
			c1.073,0,1.977-0.712,2.271-1.688c1.238-0.079,2.218-1.104,2.218-2.362c0-0.133-0.014-0.26-0.034-0.385
			C129.21,93.223,129.795,92.39,129.795,91.418z"/>
		<g>
			<path fill="#183356" d="M120.155,99.999h4.844C124.999,99.999,122.976,97.75,120.155,99.999z"/>
		</g>
		<g>
			<path fill="#183356" d="M122.729,100.014c-0.112,0-0.204-0.091-0.204-0.205V84.111c0-0.114,0.092-0.205,0.204-0.205
				c0.113,0,0.207,0.091,0.207,0.205v15.697C122.937,99.923,122.843,100.014,122.729,100.014z"/>
		</g>
		<g>
			<path fill="#183356" d="M122.701,96.3c-0.031,0-0.065-0.008-0.096-0.024l-3.08-1.651c-0.099-0.053-0.137-0.176-0.084-0.276
				c0.054-0.1,0.179-0.138,0.278-0.083l3.079,1.649c0.1,0.054,0.138,0.177,0.084,0.276C122.846,96.261,122.773,96.3,122.701,96.3z"
				/>
		</g>
		<g>
			<path fill="#183356" d="M122.792,94.248c-0.062,0-0.12-0.027-0.161-0.077c-0.07-0.089-0.056-0.22,0.033-0.289l3.618-2.868
				c0.089-0.07,0.218-0.056,0.288,0.032c0.069,0.09,0.055,0.219-0.034,0.289l-3.617,2.869
				C122.881,94.233,122.836,94.248,122.792,94.248z"/>
		</g>
		<g>
			<path fill="#183356" d="M122.722,91.781c-0.031,0-0.064-0.009-0.096-0.024l-2.875-1.542c-0.1-0.055-0.136-0.179-0.083-0.278
				c0.053-0.098,0.179-0.137,0.277-0.083l2.874,1.543c0.1,0.054,0.137,0.178,0.084,0.276
				C122.866,91.742,122.795,91.781,122.722,91.781z"/>
		</g>
		<g>
			<path fill="#183356" d="M122.715,88.217c-0.033,0-0.066-0.009-0.097-0.025l-1.938-1.039c-0.099-0.054-0.136-0.179-0.082-0.277
				c0.054-0.1,0.178-0.138,0.277-0.084l1.936,1.039c0.101,0.054,0.139,0.179,0.084,0.278
				C122.858,88.177,122.787,88.217,122.715,88.217z"/>
		</g>
		<g>
			<path fill="#183356" d="M122.834,89.811c-0.049,0-0.097-0.018-0.135-0.051c-0.085-0.074-0.096-0.203-0.021-0.289l2.138-2.456
				c0.075-0.087,0.205-0.095,0.289-0.021c0.087,0.075,0.096,0.203,0.021,0.289l-2.138,2.458
				C122.947,89.787,122.89,89.811,122.834,89.811z"/>
		</g>
		<g>
			<path fill="#183356" d="M122.792,86.608c-0.048,0-0.096-0.017-0.135-0.051c-0.085-0.074-0.095-0.203-0.021-0.288l1.556-1.787
				c0.074-0.086,0.202-0.095,0.289-0.021c0.085,0.073,0.094,0.204,0.02,0.289l-1.555,1.786
				C122.904,86.584,122.849,86.608,122.792,86.608z"/>
		</g>
	</g>
	<g>
		<ellipse fill="#D6E6AC" cx="58.986" cy="70.579" rx="3.798" ry="6.777"/>
		<path fill="#183356" d="M57.273,78.706h3.329C60.602,78.706,59.212,77.16,57.273,78.706z"/>
		<g>
			<path fill="#183356" d="M59.043,78.716c-0.078,0-0.14-0.062-0.14-0.141V67.789c0-0.078,0.062-0.141,0.14-0.141
				c0.078,0,0.141,0.063,0.141,0.141v10.787C59.184,78.653,59.121,78.716,59.043,78.716z"/>
		</g>
		<g>
			<path fill="#183356" d="M59.023,76.163c-0.022,0-0.045-0.004-0.067-0.018l-2.116-1.133c-0.068-0.036-0.094-0.122-0.058-0.19
				c0.037-0.069,0.122-0.094,0.191-0.058l2.116,1.134c0.068,0.037,0.094,0.121,0.057,0.19
				C59.123,76.137,59.074,76.163,59.023,76.163z"/>
		</g>
		<g>
			<path fill="#183356" d="M59.132,74.753c-0.042,0-0.082-0.018-0.11-0.054c-0.049-0.059-0.039-0.148,0.022-0.197l2.487-1.972
				c0.061-0.047,0.149-0.037,0.197,0.023c0.048,0.062,0.038,0.149-0.023,0.198l-2.486,1.971
				C59.194,74.744,59.163,74.753,59.132,74.753z"/>
		</g>
		<g>
			<path fill="#183356" d="M59.038,73.059c-0.022,0-0.045-0.005-0.066-0.018l-1.975-1.059c-0.068-0.037-0.094-0.123-0.058-0.191
				c0.037-0.068,0.123-0.094,0.19-0.057l1.975,1.06c0.068,0.037,0.095,0.123,0.058,0.19C59.136,73.031,59.088,73.059,59.038,73.059z
				"/>
		</g>
		<g>
			<path fill="#183356" d="M59.033,70.609c-0.023,0-0.045-0.006-0.066-0.018l-1.332-0.714c-0.068-0.037-0.094-0.122-0.057-0.19
				c0.037-0.068,0.123-0.094,0.19-0.057l1.332,0.714c0.068,0.036,0.095,0.122,0.058,0.19C59.132,70.582,59.083,70.609,59.033,70.609
				z"/>
		</g>
		<g>
			<path fill="#183356" d="M59.099,71.705c-0.033,0-0.066-0.011-0.093-0.034c-0.059-0.053-0.065-0.141-0.014-0.199l1.469-1.689
				c0.051-0.059,0.14-0.064,0.199-0.013c0.059,0.051,0.065,0.14,0.014,0.198l-1.47,1.689C59.178,71.688,59.138,71.705,59.099,71.705
				z"/>
		</g>
		<g>
			<path fill="#183356" d="M59.103,69.504c-0.033,0-0.066-0.012-0.093-0.034c-0.059-0.052-0.065-0.141-0.014-0.199l1.069-1.228
				c0.051-0.059,0.14-0.064,0.199-0.014c0.058,0.052,0.065,0.14,0.014,0.199l-1.069,1.228
				C59.181,69.487,59.142,69.504,59.103,69.504z"/>
		</g>
	</g>
</g>
</svg>
