<?xml version="1.0" encoding="utf-8"?>
<!-- Generator: Adobe Illustrator 16.0.0, SVG Export Plug-In . SVG Version: 6.00 Build 0)  -->
<!DOCTYPE svg PUBLIC "-//W3C//DTD SVG 1.1//EN" "http://www.w3.org/Graphics/SVG/1.1/DTD/svg11.dtd">
<svg version="1.1" id="Calque_1" xmlns="http://www.w3.org/2000/svg" xmlns:xlink="http://www.w3.org/1999/xlink" x="0px" y="0px"
	 width="1280px" height="800px" viewBox="0 0 1280 800" enable-background="new 0 0 1280 800" xml:space="preserve">
<g id="Calque_2">
	<rect y="-1" fill="#F7FBFC" width="1280" height="798"/>
</g>
<g id="Calque_1_1_">
	<g>
		<path fill="#BFE3E5" d="M440.766,346h315.312c0,0-74.331-75.621-184.565-25.632C571.511,320.368,483.057,305,440.766,346z"/>
		<path fill="#CFEAEC" d="M348.48,363h315.31c0,0-74.328-75.623-184.565-25.635C479.225,337.365,390.77,320,348.48,363z"/>
		<path fill="#AECD58" d="M630.659,507c7.696,0,13.341-6.623,13.341-14.318v-0.961c0-7.693-5.943-13.935-13.639-13.935l-2.414,0.241
			c-7.696,0-13.947-6.48-13.947-14.179v-0.961c0-7.695,4.157-13.889,11.852-13.889h14.417c7.695,0,13.731-6.285,13.731-13.982v-0.96
			c0-7.695-6.377-14.176-14.074-14.176l-12.123,0.24c-7.693,0-13.804-6.239-13.804-13.938v-0.959
			c0-7.694,6.399-14.177,14.095-14.177l33.684,0.24c7.694,0,14.223-6.239,14.223-13.936v-0.962c0-7.693-6.893-13.394-14.587-13.394
			H345.224c-7.696,0-14.224,5.698-14.224,13.394v0.962c0,7.695,6.528,14.646,14.224,14.646h33.396c7.697,0,14.38,5.531,14.38,13.227
			v0.959c0,7.697-6.342,13.938-14.037,13.938l-4.176-0.24c-7.695,0-13.787,6.479-13.787,14.176v0.96
			c0,7.697,5.359,13.982,13.056,13.982h75.923c7.694,0,15.021,6.192,15.021,13.889v0.961c0,7.697-7.324,14.15-15.021,14.15h-4.565
			c-7.696,0-13.415,6.026-13.415,13.721v0.961c0,7.695,5.478,14.318,13.175,14.318H630.659L630.659,507z"/>
		<g>
			<polygon fill="#BED77A" points="463.927,419.416 432.398,419.416 448.163,374.604 463.927,329.794 479.691,374.604 
				495.455,419.416 			"/>
			<path fill="#183356" d="M451.627,429.943h21.367C472.995,429.943,464.072,420.013,451.627,429.943z"/>
			<g>
				<path fill="#183356" d="M462.993,430.003c-0.502,0-0.904-0.405-0.904-0.905v-69.25c0-0.5,0.402-0.902,0.904-0.902
					c0.5,0,0.899,0.402,0.899,0.902v69.25C463.894,429.598,463.493,430.003,462.993,430.003z"/>
			</g>
			<g>
				<path fill="#183356" d="M462.691,413.44c-0.146,0-0.29-0.031-0.429-0.107l-16.859-9.032c-0.441-0.232-0.604-0.785-0.368-1.223
					c0.232-0.439,0.779-0.606,1.224-0.371l16.859,9.034c0.438,0.234,0.604,0.782,0.37,1.221
					C463.327,413.269,463.013,413.44,462.691,413.44z"/>
			</g>
			<g>
				<path fill="#183356" d="M463.561,404.566c-0.268,0-0.529-0.116-0.708-0.342c-0.312-0.393-0.242-0.961,0.146-1.271l15.961-12.658
					c0.392-0.308,0.961-0.24,1.271,0.148c0.31,0.391,0.243,0.96-0.146,1.269l-15.962,12.656
					C463.955,404.502,463.755,404.566,463.561,404.566z"/>
			</g>
			<g>
				<path fill="#183356" d="M462.958,393.685c-0.144,0-0.289-0.034-0.423-0.107l-12.686-6.808c-0.438-0.232-0.604-0.779-0.367-1.22
					c0.234-0.439,0.785-0.604,1.224-0.368l12.684,6.805c0.438,0.234,0.602,0.782,0.365,1.222
					C463.591,393.512,463.281,393.685,462.958,393.685z"/>
			</g>
			<g>
				<path fill="#183356" d="M462.921,377.955c-0.142,0-0.291-0.035-0.424-0.108l-8.543-4.585c-0.442-0.234-0.607-0.784-0.37-1.224
					c0.235-0.438,0.785-0.604,1.223-0.372l8.544,4.589c0.44,0.235,0.605,0.781,0.368,1.222
					C463.559,377.784,463.247,377.955,462.921,377.955z"/>
			</g>
			<g>
				<path fill="#183356" d="M463.219,384.989c-0.212,0-0.421-0.07-0.595-0.222c-0.375-0.323-0.415-0.896-0.086-1.271l9.434-10.841
					c0.329-0.377,0.898-0.417,1.274-0.086c0.376,0.323,0.415,0.895,0.088,1.272l-9.434,10.84
					C463.719,384.886,463.47,384.989,463.219,384.989z"/>
			</g>
			<g>
				<path fill="#183356" d="M463.269,370.863c-0.211,0-0.421-0.074-0.594-0.224c-0.375-0.326-0.414-0.897-0.09-1.274l6.864-7.88
					c0.33-0.375,0.899-0.414,1.275-0.089c0.376,0.327,0.416,0.896,0.089,1.274l-6.862,7.883
					C463.772,370.758,463.521,370.863,463.269,370.863z"/>
			</g>
		</g>
		<g>
			<path fill="#183356" d="M748.933,403.005v-18.356h-2.34v-99.767c0,0-3.731,1.616-8.548,0.373v99.768h-2.607v18.159
				c0,0-0.552,7.555,6.959,7.555C749.572,410.735,748.933,403.005,748.933,403.005z"/>
		</g>
		<g>
			<path fill="#183356" d="M818.334,441.543V420.75h-2.649V307.759c0,0-4.229,1.83-9.683,0.425v112.991h-2.953v20.569
				c0,0-0.624,8.554,7.88,8.554C819.058,450.298,818.334,441.543,818.334,441.543z"/>
		</g>
		<g>
			<path fill="#183356" d="M891.935,402.81v-18.015h-2.296V286.89c0,0-3.664,1.585-8.387,0.367v97.904h-2.559v17.823
				c0,0-0.545,7.409,6.822,7.409C892.562,410.396,891.935,402.81,891.935,402.81z"/>
		</g>
		<g>
			<path fill="#AECD58" d="M948.949,466.766c0-3.922-1.812-7.406-4.633-9.692c0.994-1.786,1.561-3.84,1.561-6.035
				c0-4.918-2.854-9.159-6.994-11.188c0.304-1.077,0.479-2.212,0.479-3.385c0-6.886-5.586-12.463-12.472-12.463
				c-1.106,0-2.18,0.157-3.211,0.427c-1.277-5.516-6.224-9.642-12.133-9.642c-5.52,0-10.186,3.587-11.828,8.557
				c-0.52-0.066-1.057-0.112-1.595-0.112c-6.89,0-12.471,5.58-12.471,12.463c0,1.76,0.375,3.436,1.024,4.943
				c-6.003,0.899-10.61,6.069-10.61,12.319c0,2.055,0.509,4,1.391,5.71c-0.396,1.218-0.621,2.524-0.621,3.881
				c0,3.407,1.372,6.488,3.591,8.744c-1.059,1.828-1.677,3.946-1.677,6.211c0,5.91,4.122,10.848,9.646,12.135
				c0.514,6.412,5.865,11.454,12.418,11.454c3.248,0,6.198-1.252,8.421-3.285c2.255,2.272,5.38,3.677,8.833,3.677
				c5.639,0,10.39-3.739,11.939-8.869c6.504-0.415,11.651-5.808,11.651-12.418c0-0.694-0.07-1.359-0.178-2.021
				C945.875,476.254,948.949,471.87,948.949,466.766z"/>
			<g>
				<path fill="#183356" d="M898.283,511.867h25.462C923.745,511.867,913.11,500.044,898.283,511.867z"/>
			</g>
			<g>
				<path fill="#183356" d="M911.817,511.942c-0.594,0-1.071-0.479-1.071-1.074v-82.502c0-0.601,0.479-1.074,1.071-1.074
					c0.596,0,1.085,0.476,1.085,1.074v82.502C912.902,511.465,912.413,511.942,911.817,511.942z"/>
			</g>
			<g>
				<path fill="#183356" d="M911.669,492.42c-0.167,0-0.344-0.035-0.504-0.126l-16.183-8.676c-0.522-0.28-0.724-0.93-0.443-1.458
					c0.282-0.522,0.934-0.72,1.461-0.437l16.183,8.669c0.522,0.283,0.722,0.935,0.438,1.456
					C912.428,492.215,912.049,492.42,911.669,492.42z"/>
			</g>
			<g>
				<path fill="#183356" d="M912.144,481.638c-0.317,0-0.632-0.14-0.842-0.401c-0.372-0.471-0.296-1.152,0.172-1.521l19.016-15.073
					c0.466-0.366,1.146-0.294,1.513,0.175c0.366,0.467,0.29,1.146-0.174,1.514l-19.016,15.078
					C912.613,481.562,912.378,481.638,912.144,481.638z"/>
			</g>
			<g>
				<path fill="#183356" d="M911.78,468.677c-0.169,0-0.343-0.045-0.506-0.13l-15.108-8.104c-0.521-0.282-0.717-0.938-0.436-1.456
					c0.272-0.522,0.933-0.723,1.449-0.442l15.106,8.108c0.523,0.281,0.719,0.937,0.444,1.455
					C912.537,468.471,912.164,468.677,911.78,468.677z"/>
			</g>
			<g>
				<path fill="#183356" d="M911.737,449.938c-0.172,0-0.348-0.044-0.507-0.13l-10.185-5.462c-0.521-0.279-0.714-0.934-0.434-1.455
					c0.277-0.522,0.93-0.72,1.455-0.438l10.177,5.463c0.525,0.281,0.726,0.934,0.439,1.457
					C912.494,449.732,912.118,449.938,911.737,449.938z"/>
			</g>
			<g>
				<path fill="#183356" d="M912.363,458.316c-0.25,0-0.503-0.093-0.704-0.265c-0.452-0.39-0.501-1.067-0.111-1.521l11.24-12.91
					c0.39-0.452,1.072-0.492,1.519-0.104c0.452,0.392,0.496,1.066,0.106,1.52l-11.237,12.916
					C912.96,458.194,912.659,458.316,912.363,458.316z"/>
			</g>
			<g>
				<path fill="#183356" d="M912.144,441.487c-0.25,0-0.503-0.087-0.706-0.266c-0.444-0.389-0.5-1.067-0.107-1.515l8.179-9.397
					c0.392-0.447,1.062-0.491,1.518-0.104c0.444,0.39,0.493,1.071,0.104,1.52l-8.17,9.391
					C912.74,441.361,912.443,441.487,912.144,441.487z"/>
			</g>
		</g>
		<g>
			<path fill="#D6E6AC" d="M596.78,357.246c0,19.671-8.938,35.616-19.965,35.616c-11.024,0-19.962-15.946-19.962-35.616
				c0-19.667,8.938-35.615,19.962-35.615C587.841,321.631,596.78,337.579,596.78,357.246z"/>
			<path fill="#183356" d="M567.812,399.959h17.493C585.307,399.959,578.004,391.833,567.812,399.959z"/>
			<g>
				<path fill="#183356" d="M577.116,400.011c-0.409,0-0.74-0.331-0.74-0.739v-56.688c0-0.408,0.331-0.741,0.74-0.741
					c0.406,0,0.739,0.333,0.739,0.741v56.688C577.855,399.68,577.521,400.011,577.116,400.011z"/>
			</g>
			<g>
				<path fill="#183356" d="M577.011,386.598c-0.116,0-0.233-0.025-0.349-0.092l-11.12-5.956c-0.357-0.19-0.494-0.641-0.302-1.003
					c0.19-0.359,0.64-0.495,1.006-0.303l11.117,5.961c0.357,0.194,0.494,0.639,0.303,0.999
					C577.533,386.455,577.275,386.598,577.011,386.598z"/>
			</g>
			<g>
				<path fill="#183356" d="M577.581,379.188c-0.217,0-0.431-0.097-0.58-0.279c-0.255-0.315-0.2-0.785,0.118-1.041l13.07-10.359
					c0.316-0.25,0.784-0.197,1.036,0.121c0.252,0.321,0.201,0.785-0.12,1.038l-13.062,10.362
					C577.908,379.138,577.745,379.188,577.581,379.188z"/>
			</g>
			<g>
				<path fill="#183356" d="M577.086,370.279c-0.115,0-0.235-0.027-0.349-0.093l-10.377-5.564c-0.359-0.196-0.494-0.642-0.305-1.004
					c0.194-0.357,0.646-0.494,1.002-0.3l10.377,5.569c0.361,0.194,0.5,0.644,0.305,1
					C577.605,370.139,577.352,370.279,577.086,370.279z"/>
			</g>
			<g>
				<path fill="#183356" d="M577.062,357.405c-0.121,0-0.239-0.031-0.354-0.096l-6.994-3.75c-0.355-0.193-0.495-0.64-0.302-1
					c0.192-0.358,0.643-0.494,1-0.301l6.996,3.754c0.355,0.192,0.498,0.644,0.303,1.001
					C577.581,357.263,577.321,357.405,577.062,357.405z"/>
			</g>
			<g>
				<path fill="#183356" d="M577.41,363.165c-0.173,0-0.346-0.062-0.487-0.181c-0.31-0.272-0.342-0.737-0.071-1.045l7.72-8.874
					c0.271-0.31,0.734-0.344,1.047-0.069c0.307,0.265,0.341,0.731,0.072,1.038l-7.724,8.876
					C577.822,363.076,577.616,363.165,577.41,363.165z"/>
			</g>
			<g>
				<path fill="#183356" d="M577.429,351.598c-0.172,0-0.345-0.06-0.484-0.18c-0.31-0.269-0.341-0.738-0.07-1.044l5.616-6.453
					c0.27-0.31,0.734-0.34,1.042-0.075c0.307,0.273,0.342,0.736,0.072,1.045l-5.618,6.453
					C577.841,351.511,577.635,351.598,577.429,351.598z"/>
			</g>
		</g>
	</g>
	<rect x="18.813" y="89.182" fill="none" width="1277" height="150.496"/>
	<g>
		
	</g>
</g>
<g id="Calque_3">
</g>
<path fill="#183356" d="M750.756,284.249c-2.07,4.561-7.444,6.58-12.007,4.506c-4.562-2.07-6.576-7.447-4.505-12.005
	c2.071-4.554,7.446-6.573,12.006-4.502C750.811,274.317,752.826,279.69,750.756,284.249z"/>
<circle fill="#EB6A5B" cx="742.5" cy="280.501" r="3.081"/>
<path fill="#183356" d="M819.272,305.249c-2.07,4.561-7.444,6.58-12.007,4.506c-4.562-2.07-6.576-7.447-4.505-12.005
	c2.071-4.554,7.446-6.573,12.006-4.502C819.327,295.317,821.343,300.69,819.272,305.249z"/>
<circle fill="#EB6A5B" cx="811.017" cy="301.501" r="3.081"/>
<path fill="#183356" d="M893.423,283.916c-2.07,4.561-7.444,6.58-12.007,4.506c-4.562-2.07-6.576-7.447-4.505-12.005
	c2.071-4.554,7.446-6.573,12.006-4.502C893.478,273.984,895.493,279.357,893.423,283.916z"/>
<circle fill="#EB6A5B" cx="885.167" cy="280.168" r="3.081"/>
</svg>
