<?xml version="1.0" encoding="utf-8"?>
<!-- Generator: Adobe Illustrator 16.0.0, SVG Export Plug-In . SVG Version: 6.00 Build 0)  -->
<!DOCTYPE svg PUBLIC "-//W3C//DTD SVG 1.1//EN" "http://www.w3.org/Graphics/SVG/1.1/DTD/svg11.dtd">
<svg version="1.1" id="Calque_1" xmlns="http://www.w3.org/2000/svg" xmlns:xlink="http://www.w3.org/1999/xlink" x="0px" y="0px"
	 width="141.73px" height="141.73px" viewBox="0 0 141.73 141.73" enable-background="new 0 0 141.73 141.73" xml:space="preserve">
<pattern  width="49" height="49" patternUnits="userSpaceOnUse" id="Nouvelle_nuance_de_motif_1" viewBox="0 -49 49 49" overflow="visible">
	<g>
		<polygon fill="none" points="0,-49 49,-49 49,0 0,0 		"/>
		<polygon fill="#EB6A5B" points="49,0 0,0 0,-49 49,-49 		"/>
	</g>
</pattern>
<g>
	<path fill="#F2EDEC" d="M112.389,69.137c0,0-3.422,0.411-3.422-3.01c0-3.421-0.034-8.519-0.034-8.519s0.069-2.258,3.524-2.189
		s3.523,2.155,3.523,2.155v8.553C115.98,66.127,116.254,69.274,112.389,69.137z"/>
	<circle fill="#2B3D49" cx="111.516" cy="60.648" r="0.319"/>
	<circle fill="#2B3D49" cx="113.921" cy="60.648" r="0.319"/>
	<circle fill="#2B3D49" cx="112.441" cy="66.356" r="3.55"/>
	<polyline fill="#2B3D49" points="108.903,66.663 108.903,58.261 109.959,63.816 	"/>
	<polyline fill="#2B3D49" points="115.985,66.684 115.985,58.282 114.93,63.837 	"/>
	<path fill="#2B3D49" d="M110.351,55.726c0,0-1.519,0.451-1.475,2.113c0.033,1.296,0.033,1.305,0.033,1.305s1.364-0.179,1.637-1.203
		C110.819,56.917,110.623,56.476,110.351,55.726z"/>
	<path fill="#2B3D49" d="M114.463,55.707c0,0,1.598,0.591,1.551,2.182c-0.038,1.325-0.008,1.249-0.008,1.249
		s-1.467-0.192-1.739-1.215C113.993,56.899,114.189,56.457,114.463,55.707z"/>
	<path fill="#AFDCDF" d="M108.34,72.613c0,0,1.523-0.937,4.06-0.937c2.538,0,4.021,0.937,4.021,0.937H108.34z"/>
	<rect x="108.364" y="73.515" fill="#AFDCDF" width="8.02" height="1.121"/>
	<rect x="108.364" y="75.749" fill="#AFDCDF" width="8.02" height="1.121"/>
	<rect x="108.364" y="77.983" fill="#AFDCDF" width="8.02" height="1.121"/>
	<rect x="108.364" y="80.218" fill="#AFDCDF" width="8.02" height="1.121"/>
	
		<pattern  id="SVGID_1_" xlink:href="#Nouvelle_nuance_de_motif_1" patternTransform="matrix(-0.0097 0.0567 -0.0567 -0.0097 -8639.3818 -7543.7666)">
	</pattern>
	<path fill="url(#SVGID_1_)" d="M119.112,84.954c-0.35-0.06-0.586-0.393-0.525-0.742l0.141-0.821
		c0.06-0.351,0.393-0.585,0.743-0.524l0,0c0.351,0.06,0.585,0.392,0.525,0.742l-0.141,0.821
		C119.795,84.779,119.463,85.014,119.112,84.954L119.112,84.954z"/>
	
		<pattern  id="SVGID_2_" xlink:href="#Nouvelle_nuance_de_motif_1" patternTransform="matrix(-0.0016 0.0575 0.0575 0.0016 -7683.9463 -7442.5977)">
	</pattern>
	<path fill="url(#SVGID_2_)" d="M108.105,83.883c0.355,0.01,0.651-0.271,0.661-0.626l0.023-0.832c0.01-0.355-0.271-0.651-0.626-0.66
		l0,0c-0.354-0.01-0.651,0.27-0.66,0.624l-0.023,0.833C107.471,83.577,107.75,83.872,108.105,83.883L108.105,83.883z"/>
	<path fill="#183356" d="M111.793,100.064h-3.997c-0.557,0-1.008-0.38-1.008-0.847l0,0c0-0.468,0.451-0.847,1.008-0.847h3.997"/>
	<path fill="#183356" d="M112.842,97.959l3.527,2.218c0.491,0.309,1.092,0.239,1.34-0.156l0,0c0.249-0.396,0.052-0.968-0.439-1.276
		l-3.527-2.218"/>
	<rect x="111.146" y="97.684" fill="#183356" width="0.643" height="0.749"/>
	
		<rect x="113.799" y="96.208" transform="matrix(-0.846 -0.5331 0.5331 -0.846 159.2003 239.0603)" fill="#183356" width="0.643" height="0.667"/>
</g>
<g>
	<path opacity="0.1" fill="#EB6A5B" d="M95.485,114c1.768,0,3.515-1.646,3.515-3.413v-0.221c0-1.767-1.59-3.2-3.357-3.2
		l-0.497,0.056c-1.767,0-3.146-1.488-3.146-3.255v-0.221c0-1.768,0.615-3.746,2.382-3.746h3.311c1.768,0,3.308-0.887,3.308-2.654
		v-0.222c0-1.767-1.542-3.255-3.31-3.255l-2.651,0.056c-1.768,0-3.039-1.433-3.039-3.2v-0.221c0-1.768,1.301-3.256,3.068-3.256
		l7.7,0.056c1.767,0,3.231-1.433,3.231-3.2v-0.221c0-1.768-1.686-2.883-3.452-2.883h-72.61C28.17,81,27,82.115,27,83.883v0.221
		C27,85.871,28.17,87,29.938,87h7.669C39.374,87,41,88.736,41,90.504v0.221c0,1.768-1.502,3.2-3.27,3.2l-1.261-0.056
		c-1.768,0-3.469,1.488-3.469,3.255v0.222c0,1.768,1.792,2.654,3.559,2.654h17.435c1.768,0,3.006,1.979,3.006,3.746v0.221
		c0,1.767-1.238,3.033-3.006,3.033h-1.048c-1.768,0-2.946,1.6-2.946,3.366v0.221c0,1.768,1.123,3.413,2.891,3.413H95.485z"/>
	<g>
		<g>
			<rect x="31" y="32" fill="#ED796B" width="73" height="22"/>
			<polygon fill="#AFDCDF" points="55.017,52.777 67.609,42.285 79.988,52.777 100,52.737 100,81 35,81 35,52.738 			"/>
			<rect x="52" y="60" fill="#F2EDEC" width="8" height="13"/>
			<rect x="64" y="64" fill="#183356" width="8" height="17"/>
			<rect x="64" y="50" fill="#F2EDEC" width="8" height="8"/>
			<rect x="41" y="60" fill="#F2EDEC" width="9" height="13"/>
			<rect x="87" y="60" fill="#F2EDEC" width="8" height="13"/>
			<rect x="75" y="60" fill="#F2EDEC" width="8" height="13"/>
			<rect x="80" y="29" fill="#AFDCDF" width="4" height="10"/>
		</g>
		<polygon fill="#EB6A5B" points="79.966,49.467 81.788,49.463 67.99,37.071 53.488,49.463 55.311,49.467 67.99,38.932 		"/>
	</g>
</g>
<g>
	<circle fill="#2B3D49" cx="25.783" cy="58.99" r="4.816"/>
	<path fill="#F2EDEC" d="M25.752,66.338c0,0-2.188,0.262-2.188-1.926c0-2.188-0.022-5.448-0.022-5.448s0.044-1.444,2.254-1.401
		c2.21,0.044,2.254,1.378,2.254,1.378v5.471C28.05,64.413,28.225,66.426,25.752,66.338z"/>
	<path fill="#2B3D49" d="M24.06,56.954c0,0,0.626,2.741,3.798,2.741S27.114,55.701,24.06,56.954z"/>
	<circle fill="#2B3D49" cx="25.195" cy="60.909" r="0.204"/>
	<circle fill="#2B3D49" cx="26.733" cy="60.909" r="0.204"/>
	<rect x="25.851" y="66.194" fill="#F2EDEB" width="0.264" height="1.703"/>
	<polygon fill="#2B3D49" points="24.265,67.075 27.554,67.075 28.171,75.914 23.825,75.914 	"/>
	<circle fill="#AECD58" cx="25.127" cy="67.359" r="0.161"/>
	<circle fill="#AECD58" cx="25.269" cy="67.961" r="0.162"/>
	<circle fill="#AECD58" cx="25.646" cy="68.475" r="0.162"/>
	<circle fill="#AECD58" cx="26.321" cy="68.47" r="0.162"/>
	<circle fill="#AECD58" cx="26.654" cy="67.917" r="0.161"/>
	<circle fill="#AECD58" cx="26.879" cy="67.335" r="0.162"/>
	
		<pattern  id="SVGID_3_" xlink:href="#Nouvelle_nuance_de_motif_1" patternTransform="matrix(-0.0165 0.0329 -0.0329 -0.0165 -8510.166 -7829.4463)">
	</pattern>
	<path fill="url(#SVGID_3_)" d="M27.95,77.111c-0.203-0.103-0.285-0.35-0.183-0.553l0.239-0.477
		c0.102-0.202,0.349-0.284,0.552-0.183l0,0c0.203,0.102,0.285,0.349,0.184,0.552l-0.239,0.477
		C28.4,77.131,28.153,77.213,27.95,77.111L27.95,77.111z"/>
	
		<pattern  id="SVGID_4_" xlink:href="#Nouvelle_nuance_de_motif_1" patternTransform="matrix(0.0165 0.0329 0.0329 -0.0165 -7713.6011 -7826.4077)">
	</pattern>
	<path fill="url(#SVGID_4_)" d="M24.241,77.199c0.204-0.103,0.286-0.35,0.184-0.553l-0.239-0.477
		c-0.102-0.202-0.349-0.284-0.552-0.183l0,0c-0.203,0.103-0.286,0.35-0.184,0.553l0.239,0.476
		C23.791,77.219,24.038,77.301,24.241,77.199L24.241,77.199z"/>
	<rect x="24.531" y="90.361" fill="#AFDCDF" width="0.95" height="1.253"/>
	<rect x="25.86" y="90.361" fill="#AFDCDF" width="0.95" height="1.253"/>
	<path fill="#183356" d="M25.489,92.697h-2.146c-0.299,0-0.542-0.242-0.542-0.541l0,0c0-0.3,0.243-0.542,0.542-0.542h2.146"/>
	<path fill="#183356" d="M25.851,92.697h2.146c0.298,0,0.541-0.242,0.541-0.541l0,0c0-0.3-0.243-0.542-0.541-0.542h-2.146"/>
</g>
</svg>
