<?xml version="1.0" encoding="utf-8"?>
<!-- Generator: Adobe Illustrator 16.0.0, SVG Export Plug-In . SVG Version: 6.00 Build 0)  -->
<!DOCTYPE svg PUBLIC "-//W3C//DTD SVG 1.1//EN" "http://www.w3.org/Graphics/SVG/1.1/DTD/svg11.dtd">
<svg version="1.1" id="Calque_1" xmlns="http://www.w3.org/2000/svg" xmlns:xlink="http://www.w3.org/1999/xlink" x="0px" y="0px"
	 width="85.04px" height="85.04px" viewBox="0 0 85.04 85.04" enable-background="new 0 0 85.04 85.04" xml:space="preserve">
<g>
	<g>
		<rect x="4" y="19" fill="#ED796B" width="74" height="22"/>
		<polygon fill="#AFDCDF" points="28.208,39.807 40.902,29.297 53.128,39.807 73,39.767 73,68 8,68 8,39.769 		"/>
		<rect x="25" y="47" fill="#F2EDEC" width="8" height="14"/>
		<rect x="38" y="51" fill="#183356" width="7" height="17"/>
		<rect x="38" y="37" fill="#F2EDEC" width="7" height="7"/>
		<rect x="14" y="47" fill="#F2EDEC" width="10" height="14"/>
		<rect x="60" y="47" fill="#F2EDEC" width="8" height="14"/>
		<rect x="49" y="47" fill="#F2EDEC" width="8" height="14"/>
		<rect x="53" y="16" fill="#AFDCDF" width="5" height="10"/>
	</g>
	<polygon fill="#EB6A5B" points="53.358,39.793 55.183,39.79 41.361,27.375 26.834,39.79 28.661,39.793 41.361,29.239 	"/>
</g>
</svg>
