<?xml version="1.0" encoding="utf-8"?>
<!-- Generator: Adobe Illustrator 16.0.0, SVG Export Plug-In . SVG Version: 6.00 Build 0)  -->
<!DOCTYPE svg PUBLIC "-//W3C//DTD SVG 1.1//EN" "http://www.w3.org/Graphics/SVG/1.1/DTD/svg11.dtd">
<svg version="1.1" id="Calque_1" xmlns="http://www.w3.org/2000/svg" xmlns:xlink="http://www.w3.org/1999/xlink" x="0px" y="0px"
	 width="141.73px" height="141.73px" viewBox="0 0 141.73 141.73" enable-background="new 0 0 141.73 141.73" xml:space="preserve">
<path fill="#EB6A5B" stroke="#EB6A5B" stroke-miterlimit="10" d="M26.481,84.061H26.23v0.495c0,0.789,0.07,1.243,0.261,2.012
	c0.132,0.556,0.395,1.132,0.971,1.132c0.313,0,0.495-0.119,0.809-0.119c0.375,0,0.345,0.494,0.445,0.848
	c0.142,0.486,0.323,0.738,0.484,1.213c0.112,0.334,0.213,0.728,0.567,0.728c0.505,0,0.768-0.524,0.768-1.03
	c0-0.688-0.202-1.071-0.445-1.719c-0.07-0.191-0.08-0.425-0.283-0.484c-0.324-0.102-0.768-0.102-0.768-0.445
	c0-0.424,0.283-0.627,0.283-1.053c0-0.768-0.364-1.555-1.132-1.614c-0.394-0.031-0.615,0.192-1.011,0.2
	C26.907,84.232,26.755,84.061,26.481,84.061L26.481,84.061z M22.773,97.686c0,0.295,0.131,0.445,0.202,0.729
	c0.071,0.313,0.03,0.639,0.323,0.769c0.333,0.151,0.576,0.04,0.951,0.04c0.354,0,0.576-0.03,0.91-0.121
	c0.435-0.121,0.97-0.192,0.97-0.646c0-0.343-0.505-0.263-0.728-0.523c-0.333-0.396-0.445-0.76-0.93-0.932
	c-0.212-0.072-0.384,0.031-0.607,0.08C23.389,97.192,22.773,97.202,22.773,97.686L22.773,97.686z M60.46,118.082
	c-0.157-0.369-0.806-0.355-1.096-0.745c-0.274-0.364-0.324-0.677-0.526-1.092c-0.333,0.183-0.435,0.507-0.809,0.566
	c-0.243,0.04-0.414,0.061-0.646,0.161c-0.141,0.061-0.364,0.041-0.364,0.204c0,0.544,0.525,0.747,0.525,1.292
	c0,0.122-0.05,0.213-0.081,0.322c-0.768-0.119-1.112-0.665-1.414-1.373c-0.183-0.425-0.314-0.678-0.647-1.01
	c-0.121-0.121-0.273-0.152-0.323-0.326c-0.203-0.646-0.112-1.162-0.607-1.655c0.121,0.747,0.081,1.184,0.284,1.9
	c0.07,0.261,0.242,0.383,0.242,0.655c0,0.283-0.009,0.436,0,0.719h-0.395c-0.201,0-0.292-0.183-0.414-0.323
	c-0.485-0.526-0.606-0.962-0.889-1.617c-0.263-0.606-0.789-0.87-1.456-0.892c-0.758-0.018-1.212-0.029-1.941-0.241
	c-0.434-0.122-0.384-0.596-0.647-0.971c-0.283-0.403-0.778-0.04-1.253-0.159c-0.465-0.113-0.697-0.295-1.173-0.405
	c-0.819-0.204-1.416,0.091-2.142-0.325c-0.264-0.141-0.264-0.413-0.445-0.646c-0.323-0.415-0.819-0.284-1.213-0.647
	c-0.395-0.364-0.303-0.88-0.768-1.133c-0.293-0.15-0.536-0.061-0.849-0.162c-0.313-0.1-0.423-0.332-0.606-0.605
	c-0.243-0.364-0.354-0.707-0.768-0.849c-0.204-0.071-0.395-0.071-0.525-0.243c-0.729-0.91-1.071-1.518-1.416-2.63
	c-0.525-1.666-0.565-2.728-1.415-4.242c-0.163-0.305-0.171-0.567-0.364-0.85c-0.434-0.628-0.859-0.86-1.375-1.416
	c-0.264-0.283-0.293-0.546-0.486-0.89c-0.313-0.565-0.625-0.83-1.091-1.294c-1.041-1.04-1.911-1.516-2.467-2.87
	c-0.101-0.697-0.201-1.043-0.201-1.74c0-0.514,0.201-0.918,0.646-1.172c0.363-0.465,0.344-1.061,0.768-1.455
	c0.728-0.688,1.325-0.99,1.739-1.9c0.243-0.534,0.586-0.748,0.728-1.334c0.09-0.395-0.09-0.789,0.243-1.011
	c0.505-0.334,0.93-0.324,1.536-0.324c0.161,0,0.242,0.081,0.403,0.081c0.102,0,0.152-0.049,0.243-0.081
	c-0.131-0.536-0.434-0.849-0.93-1.091c-0.423-0.213-0.465-0.617-0.849-0.889c-0.484-0.346-0.838-0.477-1.333-0.811
	c-0.344-0.232-0.414-0.574-0.809-0.687c-0.496-0.142-0.839-0.04-1.335-0.201c-0.475-0.153-0.646-0.446-1.091-0.688
	c-0.405-0.213-0.759-0.071-1.174-0.284c-0.333-0.172-0.474-0.444-0.848-0.444c0.02-0.192,0.041-0.292,0-0.485
	c0.565,0,0.929-0.02,1.415-0.323c0.021-0.375,0-0.587,0-0.96c0-0.747,0.243-1.143,0.405-1.871c0.131-0.595-0.03-1.009,0.203-1.577
	c0.212-0.525,0.667-0.656,1.213-0.808c0.828-0.222,1.343-0.243,2.203-0.243c0.93,0,1.436,0.253,2.365,0.364
	c0.576,0.07,0.971,0.161,1.375,0.566c1.021,1.021,1.455,1.748,2.667,2.508c1.344,0.838,2.325,0.898,3.882,1.252
	c1.263,0.283,1.941,0.729,3.234,0.729c0.687,0,1.405,0.111,1.698-0.517h-2.941c-0.395,0-0.585-0.231-0.98-0.294
	c-0.768-0.119-1.163-0.341-1.9-0.564c-0.83-0.252-1.405-0.314-2.022-0.93c-0.566-0.566-0.758-1.012-1.253-1.658
	c-0.465-0.606-0.93-0.729-1.578-1.131c-0.564-0.355-0.92-0.486-1.536-0.688c-0.504-0.164-0.768-0.405-1.304-0.405h-0.828
	c-0.688,0-1.072-0.242-1.76-0.242h-0.95c-1.183,0-1.881,0.808-2.356,1.901c-0.162,0.383-0.475,0.453-0.727,0.766
	c-0.303,0.376-0.567,0.689-1.053,0.689c-0.646,0-0.949-0.366-1.576-0.567c-1.083-0.353-1.608-0.849-2.719-0.849h-1.032
	c-0.162,0-0.263-0.081-0.423-0.081h-0.951c-0.697,0-1.233-0.476-1.344-1.173c0.322-0.039,0.505-0.121,0.829-0.121
	c0.395,0,0.596,0.203,0.99,0.203c0.333,0,0.567-0.315,0.567-0.648c0-0.484-0.588-0.575-0.688-1.051
	c-0.162-0.486-0.283-0.809-0.283-1.325c0-0.25,0.021-0.402,0.041-0.655c0.566-0.283,0.597-0.708,0.931-1.214
	c0.28-0.427,0.834-0.528,1.001-0.914l0,0c0.829-0.447,1.162-0.988,2.11-0.988c0.971,0,1.557,0.143,2.427,0.57
	c0.768-1.175,0.546-2.407,1.698-3.237c0.202,0.646,0.324,1.032,0.647,1.617c0.526-0.363,0.728-0.971,1.374-0.971
	c0.324,0,0.243,0.467,0.486,0.648c0.323,0.243,0.607,0.364,0.971,0.566c0.102-0.688-0.042-1.215,0.404-1.699
	c0.283-0.303,0.708-0.182,0.97-0.484c0.303-0.365,0-0.808,0.081-1.294c0.102-0.708,0.567-1.051,0.567-1.779
	c0-0.324-0.102-0.506-0.243-0.808l0.081-0.324c1.476,0,1.839-1.779,3.315-1.779c0.646,0,0.969,0.484,1.617,0.484
	c0.546,0,0.687-0.504,1.212-0.646c1.275-0.364,2.022-0.405,3.336-0.405h1.9c0.688,0,1.193-0.201,1.637-0.727
	c0.465-0.546,0.142-1.233,0.648-1.698c0.484-0.444,1.05-0.02,1.698-0.163c0.403-0.081,0.586-0.342,0.969-0.484
	c0.546-0.222,1.072-0.182,1.455-0.646c0.366-0.445,0.304-1.215,0.891-1.215c0.465,0,0.606,0.507,1.052,0.568
	c0.484,0.08,0.849-0.224,1.294,0c1.334,0.666,1.819,1.596,3.234,2.102c0.728-2.184,1.597-3.234,2.507-5.338
	c0.263-0.627,0.242-1.03,0.404-1.697c0.141-0.586,0.586-0.768,1.051-1.131c0.566-0.446,0.971-0.81,1.699-0.81
	c0.565,0,0.889,0.162,1.456,0.242c0.019-0.12,0.161-0.182,0.161-0.324c0-0.626-0.566-0.909-0.566-1.535
	c0-0.325,0.162-0.485,0.162-0.81c0-1.111-0.972-1.576-0.972-2.688v-2.871c0-1.092-0.564-1.68-0.564-2.769
	c0-0.546,0.444-0.729,0.646-1.216c0.505-1.17,1.134-1.797,1.134-3.071c0-0.465-0.426-0.627-0.567-1.052
	c-0.243-0.707-0.203-1.192-0.203-1.961v-2.871c0-0.303,0.08-0.565,0.282-0.748l0,0l0.89-0.16c0.588,0.322,0.81,0.889,1.497,0.889
	c0.708,0,0.708-1.133,1.416-1.133c0.829,0,0.951,1.215,1.778,1.215c0.283,0,0.424-0.264,0.646-0.405
	c0.425,0.425,0.465,0.849,0.891,1.213c0.304,0.263,0.788,0.202,0.97,0.564c0.223,0.446,0.223,0.831,0.566,1.216
	c0.465-0.345,0.223-0.991,0.647-1.375c0.544-0.507,1.253-0.143,1.938-0.487c0.203,0.608,0.305,1.052,0.811,1.457
	c0.443-0.445,0.768-0.75,1.374-0.89c0.485-0.101,0.891,0.121,1.294-0.16c0.344-0.244,0.242-0.811,0.646-0.973
	c0.588-0.221,1.113,0.183,1.617-0.16c0.264-0.182,0.244-0.649,0.567-0.649c0.364,0,0.403,0.424,0.727,0.567
	c0.83,0.385,1.375,0.525,2.265,0.808c0.021-0.525,0.223-1.05,0.729-1.131c0.385-0.06,0.727,0.224,1.051,0
	c0.729-0.524,0.384-1.94,1.293-1.94c1.295,0,2.508,0.89,2.508,2.184c0,0.322-0.162,0.484-0.162,0.808
	c0,1.214,1.213,2.246,2.428,1.942c0.201,1.293,0.018,2.385,1.05,3.153c0.183-0.162,0.304-0.405,0.564-0.405
	c0.466,0,0.669,0.485,1.134,0.485c1.133,0,0.969-1.698,2.021-2.103c0.465-0.182,0.93,0,1.293-0.325
	c0.508-0.464,0.525-1.352,1.234-1.352c0.99,0,1.555-0.022,2.547-0.022c1.436,0,2.387,1.155,2.607,2.588
	c0.223,1.335-0.08,2.144,0.324,3.396c0.425,1.274,2.042,0.929,2.83,2.022c0.789,1.091,1.273,2.264,2.628,2.264
	c0.89,0,1.253-0.808,2.144-0.808c0.564,0,0.484,0.787,0.727,1.293c0.546,1.111,1.496,1.678,2.75,1.778l0,0
	c0.445,1.072,1.617,1.172,2.749,1.456l0.081,0.324c-0.547,0.384-0.606,0.93-1.133,1.374c-0.302,0.243-0.728,0.325-0.728,0.728
	c0,0.325,0.162,0.484,0.243,0.81l-0.081,0.323h-0.972c-0.019,0.262-0.08,0.404-0.08,0.667c0,0.728,0.971,0.869,0.971,1.597
	c0,0.668-0.324,1.031-0.324,1.697c0,0.426,0.405,0.629,0.405,1.052c0,0.911-0.789,1.354-0.646,2.266
	c-0.385-0.083-0.608-0.183-0.972-0.324c-0.728,1.092-0.201,2.062-0.567,3.315c-0.242,0.888-1.09,1.051-1.535,1.859
	c-0.93,1.657-3.64,1.336-3.64,3.234c0,0.405,0.485,0.486,0.485,0.891c0,1.051-1.415,0.91-2.346,1.375
	c-0.948,0.466-1.354,1.374-2.424,1.374c-0.709,0-0.992-0.727-1.699-0.727c-0.242,0-0.484,0.161-0.484,0.403
	c0,0.424,0.343,0.627,0.646,0.889v1.699h-1.032c-0.868,0-1.011-0.949-1.718-1.456c-0.606-0.425-1.173-0.221-1.939-0.404
	c-0.142,1.031-0.729,1.557-0.729,2.586c0,0.404,0.566,0.486,0.566,0.89c0,0.526-0.425,0.728-0.566,1.214
	c-0.223,0.726-0.202,1.232-0.485,1.94c-0.363,0.911-0.97,1.354-0.97,2.345c0,0.263,0.24,0.385,0.24,0.648
	c0,0.604-0.686,0.666-1.05,1.13c-0.849,1.052-0.931,1.962-1.374,3.235c-0.627,1.819-0.729,2.992-1.455,4.771H95.59
	c-0.93,0.223-1.555,0.121-2.182,0.809c-0.264,0.282-0.485,0.506-0.567,0.889c-0.12,0.486,0.102,1.213-0.403,1.213
	c-0.142,0-0.182-0.162-0.323-0.162l-0.405,0.082c0,0.627-0.262,1.373-0.889,1.373c-0.545,0-1.233,0.062-1.295-0.484
	c-0.08-0.667,0.143-1.172-0.242-1.697c-0.383,0.201-0.607,0.484-1.051,0.484c-0.708,0-1.071-0.484-1.779-0.484
	c-0.93,0-1.335,0.809-2.265,0.809c-0.282,0-0.362-0.324-0.647-0.324c-0.99,0-1.191,1.294-2.182,1.294
	c-0.405,0-0.709-0.04-0.973-0.322c-0.24-0.263-0.201-0.729-0.564-0.729c-0.445,0-0.566,0.467-0.971,0.648
	c-0.222,0.102-0.505,0.039-0.646,0.242c-0.303,0.445-0.08,0.891-0.323,1.375c-0.526,1.011-1.456,1.375-2.588,1.375
	c-1.233,0-1.96,0.12-3.154-0.163c-0.384-0.081-0.565-0.323-0.969-0.323c-1.214,0-1.698,1.031-2.912,1.133
	c0.162,0.323,0.323,0.465,0.323,0.809c0,0.322-0.141,0.586,0.081,0.809c0.284,0.283,0.729,0.223,0.891,0.565
	c0.242,0.485,0.02,0.851,0.162,1.375c0.121,0.444,0.546,0.546,0.727,0.97c0.243,0.547,0.163,1.152,0.729,1.375
	c0.87,0.344,1.375,0.525,2.265,0.811c-0.386,0.949-0.973,1.434-0.973,2.465c0,1.273,1.617,1.597,1.617,2.871
	c0,0.142-0.162,0.184-0.162,0.324c0,0.465,0.406,0.666,0.406,1.131c0,0.324-0.162,0.484-0.162,0.809
	c0,0.425,0.545,0.404,0.889,0.647c0.283,0.202,0.082,0.547,0.082,0.909v1.496c0,0.465,0.322,0.688,0.322,1.152
	c0,0.688-1.293,0.525-1.293,1.213c0,0.465,0.363,0.688,0.485,1.133c0.425,1.475,0.04,2.445,0.403,3.962
	c0.182-0.06,0.283-0.163,0.484-0.163c0.688,0,1.376,0.445,1.376,1.134c0,0.828-0.97,0.909-1.697,1.295
	c-0.688,0.362-0.749,1.372-1.537,1.372c-0.587,0-0.87-0.484-1.456-0.484c-0.324,0-0.404,0.404-0.728,0.404
	c-1.112,0-1.314-1.537-2.426-1.537c-1.293,0-1.779,1.214-3.073,1.214c-0.425,0-0.729-0.384-0.729-0.809
	c0-0.242,0.162-0.405,0.162-0.646c0-0.222-0.263-0.323-0.484-0.323c-0.75,0-1.133,0.385-1.862,0.484
	c-0.484,0.062-0.99-0.121-1.292,0.243c-0.142,0.183,0,0.485-0.163,0.648C61.364,118.004,60.826,118.002,60.46,118.082L60.46,118.082
	z"/>
<path fill="#EB6A5B" d="M13.355,86.195h-0.372v0.733c0,1.17,0.104,1.844,0.387,2.981c0.195,0.825,0.584,1.678,1.438,1.678
	c0.465,0,0.734-0.179,1.199-0.179c0.555,0,0.51,0.734,0.66,1.258c0.21,0.716,0.478,1.091,0.717,1.797
	c0.168,0.494,0.315,1.078,0.84,1.078c0.749,0,1.139-0.778,1.139-1.527c0-1.019-0.299-1.589-0.66-2.548
	c-0.104-0.282-0.117-0.628-0.42-0.717c-0.479-0.149-1.138-0.149-1.138-0.658c0-0.63,0.42-0.929,0.42-1.56
	c0-1.138-0.54-2.305-1.679-2.392c-0.582-0.049-0.91,0.281-1.497,0.296C13.986,86.45,13.761,86.195,13.355,86.195L13.355,86.195z
	 M7.861,106.384c0,0.436,0.194,0.661,0.299,1.08c0.104,0.465,0.044,0.944,0.478,1.137c0.494,0.226,0.854,0.059,1.409,0.059
	c0.525,0,0.854-0.043,1.348-0.178c0.644-0.18,1.437-0.286,1.437-0.958c0-0.507-0.749-0.39-1.079-0.777
	c-0.493-0.587-0.659-1.124-1.377-1.378c-0.315-0.106-0.569,0.044-0.899,0.119C8.773,105.651,7.861,105.667,7.861,106.384
	L7.861,106.384z"/>
</svg>
