<?xml version="1.0" encoding="utf-8"?>
<!-- Generator: Adobe Illustrator 16.0.0, SVG Export Plug-In . SVG Version: 6.00 Build 0)  -->
<!DOCTYPE svg PUBLIC "-//W3C//DTD SVG 1.1//EN" "http://www.w3.org/Graphics/SVG/1.1/DTD/svg11.dtd">
<svg version="1.1" id="Calque_1" xmlns="http://www.w3.org/2000/svg" xmlns:xlink="http://www.w3.org/1999/xlink" x="0px" y="0px"
	 width="85.04px" height="85.04px" viewBox="0 0 85.04 85.04" enable-background="new 0 0 85.04 85.04" xml:space="preserve">
<pattern  width="49" height="49" patternUnits="userSpaceOnUse" id="Nouvelle_nuance_de_motif_1" viewBox="0 -49 49 49" overflow="visible">
	<g>
		<polygon fill="none" points="0,-49 49,-49 49,0 0,0 		"/>
		<polygon fill="#EB6A5B" points="49,0 0,0 0,-49 49,-49 		"/>
	</g>
</pattern>
<path fill="#F2EDEB" d="M44.801,26.724c0,0-6.143,0.737-6.143-5.406c0-6.146-0.062-15.301-0.062-15.301s0.123-4.054,6.329-3.933
	c6.206,0.123,6.328,3.871,6.328,3.871v15.362C51.253,21.318,51.745,26.97,44.801,26.724z"/>
<g>
	<path fill="#2B3D49" d="M41.57,2.717c0,0-2.643,0.784-2.564,3.677c0.058,2.255,0.058,2.27,0.058,2.27s2.374-0.311,2.849-2.092
		C42.386,4.791,42.045,4.021,41.57,2.717z"/>
	<path fill="#2B3D49" d="M48.726,2.684c0,0,2.78,1.029,2.7,3.795c-0.068,2.307-0.015,2.174-0.015,2.174s-2.551-0.334-3.026-2.114
		S48.25,3.989,48.726,2.684z"/>
	<circle fill="#2B3D49" cx="42.177" cy="10.987" r="0.562"/>
	<circle fill="#2B3D49" cx="49.227" cy="10.935" r="0.562"/>
	<path fill="#183356" d="M44.238,81.938h-7.209c-1.002,0-1.818-0.684-1.818-1.526l0,0c0-0.843,0.816-1.526,1.818-1.526h7.209"/>
	<circle fill="#2B3D49" cx="49.235" cy="10.949" r="0.488"/>
	<path fill="#183356" d="M44.98,81.838h7.208c1.003,0,1.818-0.685,1.818-1.526l0,0c0-0.842-0.815-1.526-1.818-1.526H44.98"/>
	<rect x="44.987" y="76.439" fill="#183356" width="2.207" height="2.457"/>
	<rect x="42.022" y="76.485" fill="#183356" width="2.209" height="2.456"/>
	<path fill="#AECD58" d="M37.91,30.165c0,0,2.732-1.64,7.293-1.64c4.56,0,7.207,1.64,7.207,1.64H37.91z"/>
	<rect x="37.908" y="30.15" fill="#AECD58" width="14.498" height="13.938"/>
	<polygon fill="#183356" points="40.578,44.123 40.081,44.123 40.081,29.274 40.56,29.13 	"/>
	<polygon fill="#183356" points="49.819,44.123 50.314,44.123 50.314,29.274 49.836,29.13 	"/>
	
		<pattern  id="SVGID_1_" xlink:href="#Nouvelle_nuance_de_motif_1" patternTransform="matrix(-0.0427 0.0945 0.0945 0.0427 -7705.8252 -6894.8154)">
	</pattern>
	<path fill="url(#SVGID_1_)" d="M39.559,38.067c0.584,0.265,1.271,0.004,1.535-0.579l0.619-1.37c0.265-0.582,0.004-1.27-0.58-1.533
		l0,0c-0.585-0.263-1.271-0.005-1.535,0.579l-0.618,1.369C38.715,37.116,38.974,37.804,39.559,38.067L39.559,38.067z"/>
	
		<pattern  id="SVGID_2_" xlink:href="#Nouvelle_nuance_de_motif_1" patternTransform="matrix(0.0461 0.0929 -0.0929 0.0461 -8511.2314 -6894.9854)">
	</pattern>
	<path fill="url(#SVGID_2_)" d="M51.186,37.734c-0.573,0.284-1.27,0.051-1.555-0.523l-0.669-1.346
		c-0.284-0.573-0.049-1.27,0.524-1.554l0,0c0.574-0.285,1.271-0.051,1.556,0.522l0.668,1.346
		C51.994,36.753,51.76,37.449,51.186,37.734L51.186,37.734z"/>
	<polygon fill="#AFDCDF" points="42.978,28.252 45.416,31.591 47.486,28.244 	"/>
	<polygon fill="#2B3D49" points="43.455,15.971 38.639,18.747 51.494,18.747 46.852,15.992 	"/>
</g>
</svg>
