<?xml version="1.0" encoding="utf-8"?>
<!-- Generator: Adobe Illustrator 16.0.0, SVG Export Plug-In . SVG Version: 6.00 Build 0)  -->
<!DOCTYPE svg PUBLIC "-//W3C//DTD SVG 1.1//EN" "http://www.w3.org/Graphics/SVG/1.1/DTD/svg11.dtd">
<svg version="1.1" id="Calque_1" xmlns="http://www.w3.org/2000/svg" xmlns:xlink="http://www.w3.org/1999/xlink" x="0px" y="0px"
	 width="85.04px" height="85.04px" viewBox="0 0 85.04 85.04" enable-background="new 0 0 85.04 85.04" xml:space="preserve">
<pattern  width="49" height="49" patternUnits="userSpaceOnUse" id="Nouvelle_nuance_de_motif_1" viewBox="0 -49 49 49" overflow="visible">
	<g>
		<polygon fill="none" points="0,-49 49,-49 49,0 0,0 		"/>
		<polygon fill="#EB6A5B" points="49,0 0,0 0,-49 49,-49 		"/>
	</g>
</pattern>
<g>
	<path fill="#2B3D49" d="M50.236,11.233c-0.014-2.241-3.355-4.057-7.479-4.057c-4.122,0-7.466,1.815-7.479,4.057h-0.002v13.216
		h14.962L50.236,11.233L50.236,11.233z"/>
	<path fill="#F2EDEB" d="M42.857,29.26c0,0-4.309,0.516-4.309-3.792c0-4.309-0.043-10.729-0.043-10.729s0.086-2.844,4.438-2.758
		c4.351,0.086,4.438,2.714,4.438,2.714v10.773C47.382,25.468,47.727,29.431,42.857,29.26z"/>
	<circle fill="#2B3D49" cx="42.365" cy="18.568" r="0.36"/>
	<circle fill="#2B3D49" cx="44.021" cy="18.568" r="0.36"/>
	<path fill="#2B3D49" d="M39.613,11.738c0,0,3.092,5.957,8.344,5.171C53.207,16.125,39.615,7.394,39.613,11.738z"/>
	<rect x="42.713" y="28.979" fill="#F2EDEB" width="0.402" height="1.433"/>
	<polygon fill="#EB6A5B" points="39.288,30.502 46.809,30.502 48.22,60.609 38.28,60.609 	"/>
	<rect x="41.211" y="63.863" fill="#183356" width="1.522" height="11.262"/>
	<rect x="43.905" y="63.867" fill="#183356" width="1.522" height="11.318"/>
	<path fill="#183356" d="M42.738,76.787h-3.303c-0.461,0-0.834-0.374-0.834-0.834l0,0c0-0.46,0.373-0.833,0.834-0.833h3.303"/>
	<path fill="#183356" d="M43.903,76.764h3.303c0.46,0,0.833-0.373,0.833-0.834l0,0c0-0.459-0.373-0.832-0.833-0.832h-3.303"/>
	<path fill="#F2EDEB" d="M40.422,30.329c0,0-1.545,4.567,2.648,4.634s2.428-4.634,2.428-4.634H40.422z"/>
	
		<pattern  id="SVGID_1_" xlink:href="#Nouvelle_nuance_de_motif_1" patternTransform="matrix(-0.0367 0.0757 0.0757 0.0367 -7821.2993 -7070.4229)">
	</pattern>
	<path fill="url(#SVGID_1_)" d="M36.238,43.849c0.467,0.228,1.031,0.032,1.258-0.435l0.531-1.097
		c0.229-0.466,0.032-1.029-0.435-1.255l0,0c-0.469-0.226-1.03-0.032-1.259,0.435l-0.531,1.096
		C35.576,43.06,35.771,43.624,36.238,43.849L36.238,43.849z"/>
	
		<pattern  id="SVGID_2_" xlink:href="#Nouvelle_nuance_de_motif_1" patternTransform="matrix(0.0297 0.0787 -0.0787 0.0297 -8541.2432 -7113.6875)">
	</pattern>
	<path fill="url(#SVGID_2_)" d="M50.917,44.383c-0.485,0.182-1.029-0.062-1.213-0.548l-0.431-1.139
		c-0.184-0.487,0.062-1.029,0.547-1.214l0,0c0.488-0.184,1.03,0.061,1.215,0.547l0.431,1.139
		C51.648,43.655,51.404,44.197,50.917,44.383L50.917,44.383z"/>
</g>
</svg>
