<?xml version="1.0" encoding="utf-8"?>
<!-- Generator: Adobe Illustrator 17.0.0, SVG Export Plug-In . SVG Version: 6.00 Build 0)  -->
<!DOCTYPE svg PUBLIC "-//W3C//DTD SVG 1.1//EN" "http://www.w3.org/Graphics/SVG/1.1/DTD/svg11.dtd">
<svg version="1.1" id="Calque_1" xmlns="http://www.w3.org/2000/svg" xmlns:xlink="http://www.w3.org/1999/xlink" x="0px" y="0px"
	 width="100px" height="100px" viewBox="0 0 100 100" enable-background="new 0 0 100 100" xml:space="preserve">
<g>
	<circle opacity="0.4" fill="#FFFFFF" enable-background="new    " cx="53.422" cy="48.599" r="34.874"/>
	<circle fill="none" stroke="#8F421D" stroke-miterlimit="10" cx="53.422" cy="48.599" r="34.874"/>
	<rect x="17.839" y="13.016" fill="none" width="71.165" height="71.166"/>
	<path fill="#8F421D" d="M30.149,51.674c0.126-0.586,0.223-1.184,0.383-1.76c0.714-2.525,2.131-4.595,4.393-5.904
		c2.804-1.623,4.981-3.828,6.768-6.473c0.182-0.266,0.338-0.344,0.66-0.246c0.768,0.236,1.547,0.414,2.319,0.629
		c0.279,0.076,0.49,0.057,0.727-0.166c1.888-1.76,4.133-2.795,6.689-3.064c3.452-0.361,6.54,0.569,9.161,2.871
		c0.41,0.359,0.747,0.443,1.238,0.289c0.675-0.212,1.375-0.352,2.054-0.559c0.298-0.091,0.443-0.031,0.63,0.221
		c0.702,0.947,1.42,1.887,2.172,2.799c1.219,1.486,2.77,2.563,4.405,3.543c1.549,0.928,2.758,2.201,3.661,3.772
		c2.137,3.72,1.634,8.611-1.205,11.82c-1.615,1.828-3.615,2.989-6.006,3.378c-1.928,0.312-3.814-0.02-5.579-0.855
		c-3.143-1.486-5.129-3.945-5.836-7.359c-0.582-2.803-0.009-5.41,1.589-7.784c0.186-0.278,0.226-0.513,0.134-0.829
		c-0.585-2.094-1.154-4.193-1.729-6.291c-0.025-0.1-0.044-0.202-0.072-0.343c1.09-0.29,2.159-0.578,3.261-0.872
		c-3.629-3.127-9.447-3.113-13.056,0.003c1.095,0.29,2.153,0.571,3.265,0.866c-0.073,0.301-0.133,0.59-0.21,0.874
		c-0.531,1.937-1.064,3.874-1.608,5.81c-0.076,0.279-0.048,0.495,0.125,0.745c3.871,5.688,1.303,13.374-5.232,15.591
		c-3.881,1.318-7.696,0.193-10.419-2.769c-1.455-1.582-2.323-3.447-2.599-5.586c-0.011-0.089-0.053-0.172-0.082-0.258v-2.093H30.149
		z M40.108,58.213c0.563-0.107,1.146-0.148,1.681-0.33c2.264-0.768,3.627-2.367,3.889-4.727c0.253-2.295-0.672-4.143-2.632-5.406
		c-0.643-0.416-1.355-0.77-2.162-0.707c-1.123,0.088-2.197,0.383-3.2,0.92c-2.224,1.193-3.335,3.71-2.709,6.211
		C35.514,56.352,37.642,58.232,40.108,58.213 M66.757,58.178c0.45-0.055,0.914-0.056,1.349-0.168c2.793-0.719,4.535-3.7,3.821-6.5
		c-0.595-2.334-2.22-3.594-4.438-4.205c-0.922-0.254-1.841-0.402-2.792-0.01c-2.516,1.035-3.943,3.646-3.438,6.375
		C61.733,56.212,64.094,58.135,66.757,58.178 M42.579,38.943c-0.154,0.203-0.277,0.359-0.393,0.517
		c-1.562,2.117-3.335,3.999-5.648,5.321c-0.682,0.389-1.343,0.838-1.927,1.357c-4.572,4.086-3.67,11.463,1.761,14.303
		c0.765,0.398,1.633,0.619,2.47,0.856c0.579,0.164,0.983-0.129,1.079-0.667c0.084-0.475-0.192-0.835-0.736-0.957
		c-0.103-0.024-0.203-0.053-0.309-0.069c-2.709-0.479-5.284-2.834-5.588-6.232c-0.224-2.488,0.964-5.37,3.832-6.829
		c2.454-1.247,5.022-1.319,7.645-0.646c0.624,0.16,1.236,0.377,1.898,0.582c0.548-2.008,1.095-4.006,1.646-6.029
		C46.353,39.936,44.473,39.441,42.579,38.943 M60.223,46.502c0.354-0.127,0.664-0.248,0.977-0.346
		c2.691-0.861,5.367-0.991,8.029,0.133c2.811,1.186,4.566,3.941,4.386,6.904c-0.184,3.017-2.271,5.533-5.259,6.336
		c-0.292,0.078-0.592,0.116-0.88,0.209c-0.396,0.135-0.59,0.492-0.52,0.891c0.082,0.447,0.368,0.707,0.81,0.695
		c0.192-0.004,0.387-0.053,0.58-0.092c5.699-1.18,8.651-7.84,5.716-12.884c-0.778-1.341-1.813-2.425-3.144-3.212
		c-1.691-1-3.284-2.121-4.564-3.63c-0.709-0.83-1.382-1.687-2.09-2.556c-1.869,0.492-3.762,0.99-5.697,1.5
		C59.126,42.493,59.669,44.481,60.223,46.502 M45.441,47.738c1.77,2.188,2.31,4.568,1.4,7.158c-0.915,2.6-2.856,4.114-5.499,4.709
		c0.054,0.311,0.119,0.562,0.129,0.814c0.007,0.264-0.039,0.532-0.068,0.859c3.129-0.635,5.386-2.326,6.639-5.205
		c1.189-2.727,0.952-5.408-0.529-8.002C46.739,48.424,46.171,47.863,45.441,47.738 M59.351,48.066c-1.649,3.035-1.733,6.039,0,9.006
		c1.36,2.332,3.437,3.684,6.115,4.191v-1.68c-2.596-0.584-4.518-2.098-5.43-4.684c-0.917-2.598-0.362-4.986,1.391-7.159
		C60.712,47.862,60.141,48.42,59.351,48.066"/>
	<path fill="none" stroke="#9ED8F7" stroke-width="0.25" stroke-miterlimit="10" d="M30.149,51.674
		c0.126-0.586,0.223-1.184,0.383-1.76c0.714-2.525,2.131-4.595,4.393-5.904c2.804-1.623,4.981-3.828,6.768-6.473
		c0.182-0.266,0.338-0.344,0.66-0.246c0.768,0.236,1.547,0.414,2.319,0.629c0.279,0.076,0.49,0.057,0.727-0.166
		c1.888-1.76,4.133-2.795,6.689-3.064c3.452-0.361,6.54,0.569,9.161,2.871c0.41,0.359,0.747,0.443,1.238,0.289
		c0.675-0.212,1.375-0.352,2.054-0.559c0.298-0.091,0.443-0.031,0.63,0.221c0.702,0.947,1.42,1.887,2.172,2.799
		c1.219,1.486,2.77,2.563,4.405,3.543c1.549,0.928,2.758,2.201,3.661,3.772c2.137,3.72,1.634,8.611-1.205,11.82
		c-1.615,1.828-3.615,2.989-6.006,3.378c-1.928,0.312-3.814-0.02-5.579-0.855c-3.143-1.486-5.129-3.945-5.836-7.359
		c-0.582-2.803-0.009-5.41,1.589-7.784c0.186-0.278,0.226-0.513,0.134-0.829c-0.585-2.094-1.154-4.193-1.729-6.291
		c-0.025-0.1-0.044-0.202-0.072-0.343c1.09-0.29,2.159-0.578,3.261-0.872c-3.629-3.127-9.447-3.113-13.056,0.003
		c1.095,0.29,2.153,0.571,3.265,0.866c-0.073,0.301-0.133,0.59-0.21,0.874c-0.531,1.937-1.064,3.874-1.608,5.81
		c-0.076,0.279-0.048,0.495,0.125,0.745c3.871,5.688,1.303,13.374-5.232,15.591c-3.881,1.318-7.696,0.193-10.419-2.769
		c-1.455-1.582-2.323-3.447-2.599-5.586c-0.011-0.089-0.053-0.172-0.082-0.258v-2.093H30.149z M40.108,58.213
		c0.563-0.107,1.146-0.148,1.681-0.33c2.264-0.768,3.627-2.367,3.889-4.727c0.253-2.295-0.672-4.143-2.632-5.406
		c-0.643-0.416-1.355-0.77-2.162-0.707c-1.123,0.088-2.197,0.383-3.2,0.92c-2.224,1.193-3.335,3.71-2.709,6.211
		C35.514,56.352,37.642,58.232,40.108,58.213z M66.757,58.178c0.45-0.055,0.914-0.056,1.349-0.168c2.793-0.719,4.535-3.7,3.821-6.5
		c-0.595-2.334-2.22-3.594-4.438-4.205c-0.922-0.254-1.841-0.402-2.792-0.01c-2.516,1.035-3.943,3.646-3.438,6.375
		C61.733,56.212,64.094,58.135,66.757,58.178z M42.579,38.943c-0.154,0.203-0.277,0.359-0.393,0.517
		c-1.562,2.117-3.335,3.999-5.648,5.321c-0.682,0.389-1.343,0.838-1.927,1.357c-4.572,4.086-3.67,11.463,1.761,14.303
		c0.765,0.398,1.633,0.619,2.47,0.856c0.579,0.164,0.983-0.129,1.079-0.667c0.084-0.475-0.192-0.835-0.736-0.957
		c-0.103-0.024-0.203-0.053-0.309-0.069c-2.709-0.479-5.284-2.834-5.588-6.232c-0.224-2.488,0.964-5.37,3.832-6.829
		c2.454-1.247,5.022-1.319,7.645-0.646c0.624,0.16,1.236,0.377,1.898,0.582c0.548-2.008,1.095-4.006,1.646-6.029
		C46.353,39.936,44.473,39.441,42.579,38.943z M60.223,46.502c0.354-0.127,0.664-0.248,0.977-0.346
		c2.691-0.861,5.367-0.991,8.029,0.133c2.811,1.186,4.566,3.941,4.386,6.904c-0.184,3.017-2.271,5.533-5.259,6.336
		c-0.292,0.078-0.592,0.116-0.88,0.209c-0.396,0.135-0.59,0.492-0.52,0.891c0.082,0.447,0.368,0.707,0.81,0.695
		c0.192-0.004,0.387-0.053,0.58-0.092c5.699-1.18,8.651-7.84,5.716-12.884c-0.778-1.341-1.813-2.425-3.144-3.212
		c-1.691-1-3.284-2.121-4.564-3.63c-0.709-0.83-1.382-1.687-2.09-2.556c-1.869,0.492-3.762,0.99-5.697,1.5
		C59.126,42.493,59.669,44.481,60.223,46.502z M45.441,47.738c1.77,2.188,2.31,4.568,1.4,7.158c-0.915,2.6-2.856,4.114-5.499,4.709
		c0.054,0.311,0.119,0.562,0.129,0.814c0.007,0.264-0.039,0.532-0.068,0.859c3.129-0.635,5.386-2.326,6.639-5.205
		c1.189-2.727,0.952-5.408-0.529-8.002C46.739,48.424,46.171,47.863,45.441,47.738z M59.351,48.066
		c-1.649,3.035-1.733,6.039,0,9.006c1.36,2.332,3.437,3.684,6.115,4.191v-1.68c-2.596-0.584-4.518-2.098-5.43-4.684
		c-0.917-2.598-0.362-4.986,1.391-7.159C60.712,47.862,60.141,48.42,59.351,48.066z"/>
	<path fill="#FFFFFF" d="M46.749,40.557c0.365,0.01,0.688,0.354,0.671,0.716c-0.021,0.386-0.333,0.667-0.728,0.647
		c-0.367-0.018-0.662-0.322-0.656-0.68C46.042,40.88,46.386,40.547,46.749,40.557"/>
	<path fill="#8F421D" stroke="#9ED8F7" stroke-width="0.25" stroke-miterlimit="10" d="M46.777,40.527
		c0.366,0.01,0.688,0.354,0.671,0.716c-0.021,0.386-0.332,0.667-0.728,0.647c-0.367-0.018-0.661-0.322-0.656-0.68
		C46.07,40.85,46.415,40.518,46.777,40.527z"/>
	<path fill="#8F421D" d="M43.134,41.154c-0.368-0.002-0.698-0.334-0.687-0.695c0.008-0.338,0.334-0.67,0.672-0.684
		c0.361-0.014,0.695,0.312,0.696,0.688C43.822,40.855,43.526,41.155,43.134,41.154"/>
	<path fill="none" stroke="#9ED8F7" stroke-width="0.25" stroke-miterlimit="10" d="M43.134,41.154
		c-0.368-0.002-0.698-0.334-0.687-0.695c0.008-0.338,0.334-0.67,0.672-0.684c0.361-0.014,0.695,0.312,0.696,0.688
		C43.822,40.855,43.526,41.155,43.134,41.154z"/>
	<path fill="#FFFFFF" d="M44.169,42.471c0.38,0,0.704,0.32,0.697,0.688c-0.011,0.354-0.369,0.691-0.721,0.68
		c-0.343-0.012-0.657-0.334-0.664-0.68C43.473,42.771,43.775,42.471,44.169,42.471"/>
	<path fill="#8F421D" stroke="#9ED8F7" stroke-width="0.25" stroke-miterlimit="10" d="M44.169,42.471
		c0.38,0,0.704,0.32,0.697,0.688c-0.011,0.354-0.369,0.691-0.721,0.68c-0.343-0.012-0.657-0.334-0.664-0.68
		C43.473,42.771,43.775,42.471,44.169,42.471z"/>
	<path fill="#8F421D" d="M60.867,41.376c-0.011,0.382-0.325,0.673-0.717,0.659c-0.371-0.01-0.663-0.303-0.667-0.666
		s0.332-0.699,0.695-0.695C60.543,40.676,60.877,41.016,60.867,41.376"/>
	<path fill="none" stroke="#9ED8F7" stroke-width="0.25" stroke-miterlimit="10" d="M60.867,41.376
		c-0.011,0.382-0.325,0.673-0.717,0.659c-0.371-0.01-0.663-0.303-0.667-0.666s0.332-0.699,0.695-0.695
		C60.543,40.676,60.877,41.016,60.867,41.376z"/>
	<path fill="#8F421D" d="M63.735,39.777c0.356,0,0.701,0.35,0.697,0.703c-0.007,0.367-0.347,0.686-0.716,0.672
		c-0.375-0.011-0.65-0.293-0.656-0.668C63.052,40.105,63.368,39.777,63.735,39.777"/>
	<path fill="none" stroke="#9ED8F7" stroke-width="0.25" stroke-miterlimit="10" d="M63.735,39.777c0.356,0,0.701,0.35,0.697,0.703
		c-0.007,0.367-0.347,0.686-0.716,0.672c-0.375-0.011-0.65-0.293-0.656-0.668C63.052,40.105,63.368,39.777,63.735,39.777z"/>
	<path fill="#8F421D" d="M63.396,43.162c-0.011,0.365-0.361,0.693-0.715,0.676c-0.338-0.016-0.665-0.353-0.669-0.686
		c-0.006-0.369,0.321-0.684,0.699-0.682C63.107,42.473,63.405,42.779,63.396,43.162"/>
	<path fill="none" stroke="#9ED8F7" stroke-width="0.25" stroke-miterlimit="10" d="M63.396,43.162
		c-0.011,0.365-0.361,0.693-0.715,0.676c-0.338-0.016-0.665-0.353-0.669-0.686c-0.006-0.369,0.321-0.684,0.699-0.682
		C63.107,42.473,63.405,42.779,63.396,43.162z"/>
</g>
</svg>
