<?xml version="1.0" encoding="utf-8"?>
<!-- Generator: Adobe Illustrator 17.0.0, SVG Export Plug-In . SVG Version: 6.00 Build 0)  -->
<!DOCTYPE svg PUBLIC "-//W3C//DTD SVG 1.1//EN" "http://www.w3.org/Graphics/SVG/1.1/DTD/svg11.dtd">
<svg version="1.1" id="Calque_1" xmlns="http://www.w3.org/2000/svg" xmlns:xlink="http://www.w3.org/1999/xlink" x="0px" y="0px"
	 width="71px" height="70.917px" viewBox="14.75 13.583 71 70.917" enable-background="new 14.75 13.583 71 70.917"
	 xml:space="preserve">
<ellipse opacity="0.4" fill="#FFFFFF" cx="50.312" cy="49.562" rx="34.438" ry="34.938"/>
<g>
	<circle fill="none" stroke="#8F421D" stroke-miterlimit="10" cx="50.242" cy="49.037" r="34.874"/>
	<path fill="#8F421D" d="M37.245,48.512c0,0.826-0.01,1.572,0.01,2.318c0.004,0.109,0.127,0.25,0.233,0.317
		c1.299,0.837,1.295,2.485,0,3.345c-0.134,0.088-0.233,0.322-0.236,0.492c-0.017,1.395-0.01,2.79-0.01,4.184v0.502
		c-0.015,1.102-1.449,1.16-1.454,0v-0.477c0-1.408-0.004-2.816,0.005-4.227c0-0.244-0.07-0.387-0.29-0.519
		c-1.246-0.764-1.226-2.494,0.009-3.289c0.137-0.088,0.26-0.309,0.264-0.471c0.027-0.777-0.004-1.555,0.02-2.332
		c0.011-0.316-0.097-0.457-0.393-0.569c-2.45-0.929-3.562-1.37-6.004-2.312c-0.566-0.183-0.69-1.042,0.399-1.397
		c0.077-0.009-0.096,0.028,0.698-0.198c6.393-1.834,12.804-3.625,19.205-5.429c0.211-0.059,0.468-0.06,0.678-0.001
		c7.279,2.051,12.998,3.645,20.272,5.705c1.033,0.201,1.015,0.969,0.575,1.133c-1.064,0.413-1.247,0.473-1.694,0.644
		c-2.714,1.048-5.429,2.103-8.152,3.132c-0.35,0.135-0.446,0.309-0.442,0.664c0.021,1.454,0,2.908,0.017,4.359
		c0.002,0.283-0.097,0.449-0.31,0.621c-2.288,1.818-4.84,3.074-7.719,3.615c-3.011,0.562-5.954,0.281-8.818-0.795
		c-1.757-0.66-3.348-1.611-4.824-2.762c-0.258-0.199-0.371-0.398-0.365-0.732c0.018-1.495,0-2.994,0.015-4.492
		c0.004-0.299-0.087-0.445-0.373-0.535C38.141,48.879,37.74,48.701,37.245,48.512 M39.552,47.742
		c-0.008,0.03-0.017,0.06-0.025,0.091c0.118,0.05,0.233,0.101,0.351,0.146c3.247,1.256,6.498,2.51,9.74,3.774
		c0.312,0.121,0.576,0.107,0.884-0.01c5.685-2.203,11.38-4.398,17.073-6.595c0.14-0.054,0.277-0.12,0.491-0.215
		c-5.995-1.698-11.891-3.369-17.787-5.032c-0.17-0.047-0.38-0.017-0.555,0.033c-4.956,1.393-9.91,2.795-14.862,4.194
		c-0.914,0.259-1.827,0.521-2.784,0.794c0.093,0.068,0.123,0.104,0.161,0.119c1.49,0.574,2.976,1.149,4.466,1.713
		c0.117,0.045,0.259,0.06,0.382,0.034c3.567-0.733,7.134-1.478,10.701-2.216c0.698-0.145,1.397-0.282,2.125-0.429
		c1.067-0.192,1.396,1.13,0.281,1.396C46.616,46.279,43.084,47.01,39.552,47.742 M59.488,49.826
		c-0.201,0.068-0.366,0.116-0.525,0.177c-2.839,1.095-5.674,2.196-8.519,3.272c-0.229,0.088-0.551,0.097-0.778,0.01
		c-2.803-1.061-5.599-2.145-8.394-3.223c-0.295-0.111-0.587-0.225-0.919-0.351c0,1.271,0.011,2.472-0.009,3.674
		c-0.004,0.304,0.108,0.474,0.344,0.644c3.283,2.396,6.927,3.473,10.989,3.014c2.836-0.32,5.36-1.411,7.621-3.127
		c0.092-0.067,0.18-0.207,0.183-0.315C59.491,52.355,59.488,51.109,59.488,49.826"/>
	<path fill="none" stroke="#9ED8F7" stroke-width="0.25" stroke-miterlimit="10" d="M37.245,48.512c0,0.826-0.01,1.572,0.01,2.318
		c0.004,0.109,0.127,0.25,0.233,0.317c1.299,0.837,1.295,2.485,0,3.345c-0.134,0.088-0.233,0.322-0.236,0.492
		c-0.017,1.395-0.01,2.79-0.01,4.184v0.502c-0.015,1.102-1.449,1.16-1.454,0v-0.477c0-1.408-0.004-2.816,0.005-4.227
		c0-0.244-0.07-0.387-0.29-0.519c-1.246-0.764-1.226-2.494,0.009-3.289c0.137-0.088,0.26-0.309,0.264-0.471
		c0.027-0.777-0.004-1.555,0.02-2.332c0.011-0.316-0.097-0.457-0.393-0.569c-2.45-0.929-3.562-1.37-6.004-2.312
		c-0.566-0.183-0.69-1.042,0.399-1.397c0.077-0.009-0.096,0.028,0.698-0.198c6.393-1.834,12.804-3.625,19.205-5.429
		c0.211-0.059,0.468-0.06,0.678-0.001c7.279,2.051,12.998,3.645,20.272,5.705c1.033,0.201,1.015,0.969,0.575,1.133
		c-1.064,0.413-1.247,0.473-1.694,0.644c-2.714,1.048-5.429,2.103-8.152,3.132c-0.35,0.135-0.446,0.309-0.442,0.664
		c0.021,1.454,0,2.908,0.017,4.359c0.002,0.283-0.097,0.449-0.31,0.621c-2.288,1.818-4.84,3.074-7.719,3.615
		c-3.011,0.562-5.954,0.281-8.818-0.795c-1.757-0.66-3.348-1.611-4.824-2.762c-0.258-0.199-0.371-0.398-0.365-0.732
		c0.018-1.495,0-2.994,0.015-4.492c0.004-0.299-0.087-0.445-0.373-0.535C38.141,48.879,37.74,48.701,37.245,48.512z M39.552,47.742
		c-0.008,0.03-0.017,0.06-0.025,0.091c0.118,0.05,0.233,0.101,0.351,0.146c3.247,1.256,6.498,2.51,9.74,3.774
		c0.312,0.121,0.576,0.107,0.884-0.01c5.685-2.203,11.38-4.398,17.073-6.595c0.14-0.054,0.277-0.12,0.491-0.215
		c-5.995-1.698-11.891-3.369-17.787-5.032c-0.17-0.047-0.38-0.017-0.555,0.033c-4.956,1.393-9.91,2.795-14.862,4.194
		c-0.914,0.259-1.827,0.521-2.784,0.794c0.093,0.068,0.123,0.104,0.161,0.119c1.49,0.574,2.976,1.149,4.466,1.713
		c0.117,0.045,0.259,0.06,0.382,0.034c3.567-0.733,7.134-1.478,10.701-2.216c0.698-0.145,1.397-0.282,2.125-0.429
		c1.067-0.192,1.396,1.13,0.281,1.396C46.616,46.279,43.084,47.01,39.552,47.742z M59.488,49.826
		c-0.201,0.068-0.366,0.116-0.525,0.177c-2.839,1.095-5.674,2.196-8.519,3.272c-0.229,0.088-0.551,0.097-0.778,0.01
		c-2.803-1.061-5.599-2.145-8.394-3.223c-0.295-0.111-0.587-0.225-0.919-0.351c0,1.271,0.011,2.472-0.009,3.674
		c-0.004,0.304,0.108,0.474,0.344,0.644c3.283,2.396,6.927,3.473,10.989,3.014c2.836-0.32,5.36-1.411,7.621-3.127
		c0.092-0.067,0.18-0.207,0.183-0.315C59.491,52.355,59.488,51.109,59.488,49.826z"/>
	
		<radialGradient id="SVGID_1_" cx="357.445" cy="-219.276" r="0.9765" gradientTransform="matrix(1 0 0 -1 -321 -166.5)" gradientUnits="userSpaceOnUse">
		<stop  offset="0" style="stop-color:#9ED8F7"/>
		<stop  offset="0.131" style="stop-color:#9ED8F7"/>
		<stop  offset="1" style="stop-color:#9ED8F7"/>
	</radialGradient>
	<path fill="url(#SVGID_1_)" d="M37.422,52.777c0,0.539-0.44,0.975-0.977,0.975c-0.538,0-0.977-0.436-0.977-0.975
		c0-0.539,0.438-0.977,0.977-0.977C36.982,51.801,37.422,52.238,37.422,52.777"/>
</g>
</svg>
