<?xml version="1.0" encoding="utf-8"?>
<!-- Generator: Adobe Illustrator 16.0.0, SVG Export Plug-In . SVG Version: 6.00 Build 0)  -->
<!DOCTYPE svg PUBLIC "-//W3C//DTD SVG 1.1//EN" "http://www.w3.org/Graphics/SVG/1.1/DTD/svg11.dtd">
<svg version="1.1" id="Calque_1" xmlns="http://www.w3.org/2000/svg" xmlns:xlink="http://www.w3.org/1999/xlink" x="0px" y="0px"
	 width="72.25px" height="72.209px" viewBox="-1.25 -1.292 72.25 72.209" enable-background="new -1.25 -1.292 72.25 72.209"
	 xml:space="preserve">
<radialGradient id="SVGID_1_" cx="34.9438" cy="35.3989" r="34.6886" gradientUnits="userSpaceOnUse">
	<stop  offset="0" style="stop-color:#8DD8F8"/>
	<stop  offset="0.131" style="stop-color:#8DD8F8"/>
	<stop  offset="1" style="stop-color:#8DD8F8"/>
</radialGradient>
<ellipse opacity="0.4" fill="url(#SVGID_1_)" cx="34.944" cy="35.399" rx="34.438" ry="34.938"/>
<g>
	<circle fill="none" stroke="#8F421D" stroke-miterlimit="10" cx="34.874" cy="34.874" r="34.874"/>
	<path fill="#8F421D" d="M21.877,34.349c0,0.825-0.011,1.571,0.01,2.317c0.004,0.109,0.127,0.25,0.233,0.317
		c1.299,0.837,1.295,2.485,0,3.345c-0.135,0.088-0.233,0.322-0.236,0.492c-0.018,1.395-0.01,2.79-0.01,4.184v0.502
		c-0.016,1.103-1.449,1.16-1.454,0V45.03c0-1.408-0.004-2.816,0.005-4.227c0-0.244-0.07-0.387-0.29-0.52
		c-1.246-0.764-1.226-2.494,0.009-3.289c0.137-0.088,0.26-0.309,0.264-0.471c0.027-0.777-0.004-1.555,0.021-2.332
		c0.011-0.316-0.097-0.457-0.394-0.568c-2.449-0.93-3.562-1.371-6.003-2.312c-0.566-0.184-0.69-1.042,0.399-1.396
		c0.077-0.01-0.096,0.027,0.698-0.199c6.393-1.834,12.804-3.625,19.205-5.428c0.211-0.06,0.468-0.061,0.678-0.002
		c7.279,2.051,12.998,3.645,20.271,5.705c1.033,0.201,1.016,0.969,0.576,1.133c-1.064,0.414-1.248,0.473-1.694,0.645
		c-2.714,1.048-5.429,2.104-8.152,3.132c-0.351,0.136-0.446,0.31-0.442,0.664c0.021,1.454,0,2.907,0.018,4.358
		c0.002,0.283-0.098,0.449-0.311,0.621c-2.287,1.818-4.84,3.074-7.719,3.615c-3.011,0.562-5.953,0.281-8.818-0.795
		c-1.756-0.66-3.348-1.611-4.823-2.762c-0.259-0.199-0.371-0.398-0.365-0.732c0.019-1.494,0-2.994,0.015-4.492
		c0.004-0.299-0.086-0.444-0.373-0.535C22.772,34.715,22.372,34.538,21.877,34.349 M24.184,33.579
		c-0.008,0.03-0.017,0.061-0.024,0.092c0.117,0.049,0.232,0.101,0.351,0.146c3.247,1.256,6.498,2.511,9.74,3.774
		c0.312,0.121,0.575,0.106,0.884-0.01c5.686-2.203,11.38-4.398,17.073-6.596c0.14-0.055,0.276-0.12,0.491-0.215
		c-5.996-1.698-11.892-3.369-17.787-5.032c-0.17-0.047-0.381-0.017-0.555,0.033c-4.957,1.394-9.91,2.795-14.863,4.194
		c-0.914,0.259-1.826,0.521-2.783,0.793c0.093,0.068,0.123,0.104,0.161,0.119c1.49,0.574,2.976,1.149,4.466,1.713
		c0.117,0.045,0.259,0.061,0.382,0.035c3.567-0.733,7.134-1.479,10.701-2.217c0.698-0.145,1.397-0.281,2.125-0.429
		c1.067-0.192,1.396,1.13,0.28,1.396C31.248,32.116,27.716,32.846,24.184,33.579 M44.12,35.663
		c-0.201,0.068-0.366,0.116-0.525,0.178c-2.839,1.095-5.674,2.195-8.52,3.271c-0.229,0.088-0.551,0.098-0.777,0.01
		c-2.803-1.061-5.6-2.145-8.395-3.223c-0.295-0.111-0.586-0.225-0.918-0.352c0,1.271,0.01,2.473-0.01,3.674
		c-0.004,0.305,0.108,0.475,0.344,0.645c3.283,2.396,6.928,3.473,10.989,3.014c2.837-0.319,5.36-1.41,7.621-3.127
		c0.093-0.066,0.181-0.207,0.183-0.314C44.123,38.192,44.12,36.946,44.12,35.663"/>
	<path fill="none" stroke="#9ED8F7" stroke-width="0.25" stroke-miterlimit="10" d="M21.877,34.349c0,0.825-0.011,1.571,0.01,2.317
		c0.004,0.109,0.127,0.25,0.233,0.317c1.299,0.837,1.295,2.485,0,3.345c-0.135,0.088-0.233,0.322-0.236,0.492
		c-0.018,1.395-0.01,2.79-0.01,4.184v0.502c-0.016,1.103-1.449,1.16-1.454,0V45.03c0-1.408-0.004-2.816,0.005-4.227
		c0-0.244-0.07-0.387-0.29-0.52c-1.246-0.764-1.226-2.494,0.009-3.289c0.137-0.088,0.26-0.309,0.264-0.471
		c0.027-0.777-0.004-1.555,0.021-2.332c0.011-0.316-0.097-0.457-0.394-0.568c-2.449-0.93-3.562-1.371-6.003-2.312
		c-0.566-0.184-0.69-1.042,0.399-1.396c0.077-0.01-0.096,0.027,0.698-0.199c6.393-1.834,12.804-3.625,19.205-5.428
		c0.211-0.06,0.468-0.061,0.678-0.002c7.279,2.051,12.998,3.645,20.271,5.705c1.033,0.201,1.016,0.969,0.576,1.133
		c-1.064,0.414-1.248,0.473-1.694,0.645c-2.714,1.048-5.429,2.104-8.152,3.132c-0.351,0.136-0.446,0.31-0.442,0.664
		c0.021,1.454,0,2.907,0.018,4.358c0.002,0.283-0.098,0.449-0.311,0.621c-2.287,1.818-4.84,3.074-7.719,3.615
		c-3.011,0.562-5.953,0.281-8.818-0.795c-1.756-0.66-3.348-1.611-4.823-2.762c-0.259-0.199-0.371-0.398-0.365-0.732
		c0.019-1.494,0-2.994,0.015-4.492c0.004-0.299-0.086-0.444-0.373-0.535C22.772,34.715,22.372,34.538,21.877,34.349z M24.184,33.579
		c-0.008,0.03-0.017,0.061-0.024,0.092c0.117,0.049,0.232,0.101,0.351,0.146c3.247,1.256,6.498,2.511,9.74,3.774
		c0.312,0.121,0.575,0.106,0.884-0.01c5.686-2.203,11.38-4.398,17.073-6.596c0.14-0.055,0.276-0.12,0.491-0.215
		c-5.996-1.698-11.892-3.369-17.787-5.032c-0.17-0.047-0.381-0.017-0.555,0.033c-4.957,1.394-9.91,2.795-14.863,4.194
		c-0.914,0.259-1.826,0.521-2.783,0.793c0.093,0.068,0.123,0.104,0.161,0.119c1.49,0.574,2.976,1.149,4.466,1.713
		c0.117,0.045,0.259,0.061,0.382,0.035c3.567-0.733,7.134-1.479,10.701-2.217c0.698-0.145,1.397-0.281,2.125-0.429
		c1.067-0.192,1.396,1.13,0.28,1.396C31.248,32.116,27.716,32.846,24.184,33.579z M44.12,35.663
		c-0.201,0.068-0.366,0.116-0.525,0.178c-2.839,1.095-5.674,2.195-8.52,3.271c-0.229,0.088-0.551,0.098-0.777,0.01
		c-2.803-1.061-5.6-2.145-8.395-3.223c-0.295-0.111-0.586-0.225-0.918-0.352c0,1.271,0.01,2.473-0.01,3.674
		c-0.004,0.305,0.108,0.475,0.344,0.645c3.283,2.396,6.928,3.473,10.989,3.014c2.837-0.319,5.36-1.41,7.621-3.127
		c0.093-0.066,0.181-0.207,0.183-0.314C44.123,38.192,44.12,36.946,44.12,35.663z"/>
	
		<radialGradient id="SVGID_2_" cx="258.0762" cy="791.1128" r="0.9766" gradientTransform="matrix(1 0 0 1 -237 -752.5)" gradientUnits="userSpaceOnUse">
		<stop  offset="0" style="stop-color:#9ED8F7"/>
		<stop  offset="0.131" style="stop-color:#9ED8F7"/>
		<stop  offset="1" style="stop-color:#9ED8F7"/>
	</radialGradient>
	<path fill="url(#SVGID_2_)" d="M22.054,38.614c0,0.539-0.439,0.975-0.977,0.975c-0.538,0-0.978-0.436-0.978-0.975
		s0.438-0.977,0.978-0.977C21.614,37.637,22.054,38.075,22.054,38.614"/>
</g>
<radialGradient id="SVGID_3_" cx="-204" cy="43.9585" r="66.8319" gradientUnits="userSpaceOnUse">
	<stop  offset="0" style="stop-color:#8DD8F8"/>
	<stop  offset="0.131" style="stop-color:#8DD8F8"/>
	<stop  offset="1" style="stop-color:#8DD8F8"/>
</radialGradient>
<rect x="-251" y="-38.042" fill="url(#SVGID_3_)" width="94" height="164"/>
</svg>
