<?xml version="1.0" encoding="utf-8"?>
<!-- Generator: Adobe Illustrator 16.0.0, SVG Export Plug-In . SVG Version: 6.00 Build 0)  -->
<!DOCTYPE svg PUBLIC "-//W3C//DTD SVG 1.1//EN" "http://www.w3.org/Graphics/SVG/1.1/DTD/svg11.dtd">
<svg version="1.1" id="Calque_1" xmlns="http://www.w3.org/2000/svg" xmlns:xlink="http://www.w3.org/1999/xlink" x="0px" y="0px"
	 width="71.208px" height="72.125px" viewBox="0 -1.208 71.208 72.125" enable-background="new 0 -1.208 71.208 72.125"
	 xml:space="preserve">
<radialGradient id="SVGID_1_" cx="35.644" cy="35.8608" r="34.6889" gradientUnits="userSpaceOnUse">
	<stop  offset="0" style="stop-color:#8DD8F8"/>
	<stop  offset="0.131" style="stop-color:#8DD8F8"/>
	<stop  offset="1" style="stop-color:#8DD8F8"/>
</radialGradient>
<ellipse opacity="0.4" fill="url(#SVGID_1_)" cx="35.644" cy="35.861" rx="34.438" ry="34.938"/>
<g>
	<circle fill="none" stroke="#8F421D" stroke-miterlimit="10" cx="35.625" cy="35.336" r="34.874"/>
	<rect x="0.043" y="-0.246" fill="none" width="71.165" height="71.164"/>
	<path fill="#8F421D" stroke="#8F421D" stroke-width="0.25" stroke-miterlimit="10" d="M36.084,14.895
		c0.438,0.491,0.453,1.268,0.033,1.743c-0.396,0.455-1.123,0.328-1.408-0.231c-0.059-0.111-0.207-0.249-0.316-0.254
		c-2.355-0.114-4.657,1.416-5.247,3.574c-0.224,0.828-0.247,1.714-0.317,2.578c-0.229,2.922-0.396,5.85-0.215,8.789
		c0.074,1.252,0.332,2.5,0.528,3.748c0.038,0.254,0.163,0.502,0.282,0.736c0.193,0.377,0.463,0.678,0.935,0.768
		c0.251,0.047,0.496,0.14,0.804,0.229c-0.734,0.823-0.802,1.862-1.113,2.812c-0.209,0.646,0.08,1.19,0.664,1.361
		c0.589,0.172,1.104-0.141,1.295-0.791c0.183-0.609,0.378-1.217,0.521-1.836c0.081-0.345,0.062-0.715,0.089-1.091
		c-0.004,0.006,0.021-0.021,0.035-0.015c0.926,0.383,1.637,0.009,2.288-0.545c1.415-1.194,2.42-2.695,3.392-4.221
		c1.707-2.677,3.17-5.484,4.426-8.386c0.463-1.065,0.309-2.222-0.137-3.319c-0.496-1.234-1.356-2.183-2.568-2.839
		c-0.188-0.103-0.303-0.142-0.486,0.029c-0.273,0.261-0.629,0.274-0.973,0.069c-0.326-0.197-0.457-0.481-0.379-0.84
		c0.115-0.543,0.228-1.087,0.943-1.183c0.159,0.045,0.316,0.091,0.475,0.137c0.121,0.256,0.232,0.516,0.365,0.765
		c0.049,0.089,0.141,0.178,0.236,0.225c2.396,1.236,3.737,3.542,3.553,6.105c-0.054,0.771-0.363,1.451-0.687,2.133
		c-1.222,2.588-2.526,5.137-4.065,7.566c-0.896,1.414-1.858,2.791-3.111,3.947c-0.658,0.607-1.346,1.188-2.324,1.303
		c-0.092,0.008-0.196,0.151-0.229,0.254c-0.203,0.658-0.393,1.317-0.578,1.981c-0.228,0.808-0.762,1.271-1.637,1.386
		c-0.105,0.016-0.264,0.104-0.285,0.188c-0.502,1.889-1.287,3.713-1.365,5.698c-0.082,2.142,0.379,4.162,1.91,5.855
		c1.752,1.932,4.356,2.408,6.683,1.271c1.922-0.943,3.28-2.414,4.065-4.307c0.629-1.504,1.062-3.086,1.586-4.65
		c-0.934-0.411-1.553-1.004-1.808-1.883c-0.185-0.641-0.116-1.254,0.177-1.854c0.514-1.057,1.871-1.662,3.096-1.355
		c1.336,0.332,2.24,1.492,2.186,2.801c-0.061,1.361-1.061,2.219-2.912,2.468c-0.299,1.024-0.59,2.06-0.896,3.092
		c-0.589,1.974-1.566,3.724-3.171,5.099c-1.635,1.403-3.524,2.205-5.814,1.891c-1.665-0.229-2.997-1.055-4.023-2.328
		c-1.59-1.977-2.063-4.232-1.854-6.626c0.074-0.796,0.268-1.582,0.455-2.362c0.189-0.781,0.428-1.551,0.665-2.32
		c0.153-0.504,0.33-0.93-0.263-1.393c-0.496-0.382-0.522-1.018-0.357-1.605c0.208-0.733,0.426-1.467,0.639-2.215
		c-1.236-0.656-1.469-1.828-1.713-2.963c-0.482-2.227-0.518-4.479-0.414-6.721c0.111-2.461,0.248-4.923,0.506-7.368
		c0.17-1.591,1.17-2.771,2.521-3.651c1.122-0.732,2.386-1.045,3.763-1.007c0.127,0.004,0.262-0.099,0.383-0.165
		c0.236-0.133,0.467-0.275,0.697-0.415C35.768,14.806,35.927,14.851,36.084,14.895 M46.499,43.659
		c0.283-0.989-0.322-2.022-1.356-2.327c-1.041-0.306-2.156,0.273-2.431,1.26c-0.268,0.984,0.353,2.033,1.377,2.332
		C45.142,45.229,46.213,44.669,46.499,43.659"/>
</g>
</svg>
