<?xml version="1.0" encoding="utf-8"?>
<!-- Generator: Adobe Illustrator 17.0.0, SVG Export Plug-In . SVG Version: 6.00 Build 0)  -->
<!DOCTYPE svg PUBLIC "-//W3C//DTD SVG 1.1//EN" "http://www.w3.org/Graphics/SVG/1.1/DTD/svg11.dtd">
<svg version="1.1" id="Calque_1" xmlns="http://www.w3.org/2000/svg" xmlns:xlink="http://www.w3.org/1999/xlink" x="0px" y="0px"
	 width="71.208px" height="70.917px" viewBox="12.125 14.833 71.208 70.917" enable-background="new 12.125 14.833 71.208 70.917"
	 xml:space="preserve">
<g>
	<circle fill="none" stroke="#8F421D" stroke-miterlimit="10" cx="47.752" cy="50.287" r="34.874"/>
	<rect x="12.17" y="14.705" fill="none" width="71.165" height="71.164"/>
	<path fill="#8F421D" stroke="#8F421D" stroke-width="0.25" stroke-miterlimit="10" d="M48.211,29.846
		c0.439,0.491,0.453,1.268,0.034,1.743c-0.396,0.455-1.124,0.328-1.409-0.231c-0.058-0.111-0.206-0.249-0.316-0.254
		c-2.355-0.114-4.657,1.416-5.247,3.574c-0.224,0.828-0.247,1.714-0.317,2.578c-0.229,2.922-0.397,5.849-0.216,8.788
		c0.075,1.253,0.333,2.501,0.529,3.749c0.038,0.253,0.163,0.502,0.283,0.736c0.193,0.377,0.462,0.678,0.934,0.768
		c0.251,0.047,0.496,0.139,0.804,0.228c-0.735,0.823-0.802,1.862-1.113,2.812c-0.21,0.646,0.079,1.191,0.664,1.362
		c0.588,0.171,1.104-0.141,1.295-0.792c0.182-0.609,0.377-1.216,0.52-1.835c0.081-0.345,0.062-0.715,0.088-1.091
		c-0.004,0.006,0.021-0.02,0.036-0.015c0.926,0.383,1.637,0.009,2.288-0.544c1.415-1.195,2.42-2.696,3.392-4.221
		c1.707-2.677,3.169-5.484,4.426-8.386c0.462-1.065,0.308-2.221-0.137-3.319c-0.497-1.234-1.357-2.183-2.569-2.839
		c-0.188-0.103-0.303-0.142-0.486,0.029c-0.273,0.261-0.629,0.274-0.973,0.069c-0.326-0.197-0.457-0.481-0.379-0.84
		c0.115-0.543,0.228-1.087,0.944-1.183c0.159,0.045,0.316,0.091,0.475,0.137c0.12,0.256,0.231,0.516,0.364,0.765
		c0.049,0.089,0.141,0.178,0.237,0.225c2.397,1.236,3.737,3.542,3.553,6.105c-0.054,0.771-0.364,1.451-0.687,2.133
		c-1.221,2.588-2.527,5.137-4.066,7.566c-0.896,1.414-1.858,2.792-3.111,3.948c-0.658,0.607-1.346,1.187-2.324,1.302
		c-0.091,0.009-0.196,0.152-0.229,0.255c-0.203,0.658-0.392,1.317-0.577,1.981c-0.228,0.807-0.762,1.271-1.638,1.385
		c-0.105,0.016-0.263,0.104-0.284,0.189c-0.503,1.889-1.288,3.713-1.365,5.699c-0.083,2.141,0.378,4.162,1.91,5.855
		c1.752,1.932,4.356,2.408,6.682,1.271c1.922-0.943,3.281-2.413,4.066-4.306c0.628-1.504,1.062-3.086,1.585-4.65
		c-0.933-0.412-1.553-1.004-1.807-1.884c-0.185-0.64-0.116-1.254,0.176-1.853c0.514-1.057,1.872-1.662,3.096-1.355
		c1.336,0.332,2.241,1.492,2.186,2.801c-0.06,1.361-1.061,2.218-2.913,2.467c-0.298,1.024-0.589,2.06-0.895,3.092
		c-0.588,1.973-1.566,3.724-3.171,5.098c-1.635,1.404-3.524,2.205-5.814,1.891c-1.665-0.228-2.997-1.055-4.023-2.328
		c-1.59-1.977-2.064-4.233-1.854-6.626c0.074-0.796,0.267-1.582,0.455-2.362c0.189-0.781,0.428-1.551,0.665-2.321
		c0.154-0.503,0.33-0.93-0.263-1.392c-0.496-0.382-0.522-1.018-0.357-1.605c0.208-0.734,0.425-1.468,0.639-2.215
		c-1.237-0.656-1.469-1.829-1.713-2.964c-0.483-2.226-0.518-4.478-0.414-6.72c0.111-2.461,0.247-4.923,0.506-7.368
		c0.169-1.591,1.17-2.771,2.52-3.651c1.122-0.732,2.386-1.045,3.762-1.007c0.128,0.004,0.262-0.099,0.384-0.165
		c0.236-0.133,0.467-0.275,0.697-0.415C47.895,29.757,48.054,29.802,48.211,29.846 M58.626,58.61
		c0.282-0.989-0.323-2.023-1.357-2.327c-1.041-0.306-2.156,0.273-2.43,1.26c-0.268,0.984,0.352,2.033,1.377,2.332
		C57.269,60.18,58.341,59.621,58.626,58.61"/>
</g>
</svg>
