<?xml version="1.0" encoding="utf-8"?>
<!-- Generator: Adobe Illustrator 17.0.0, SVG Export Plug-In . SVG Version: 6.00 Build 0)  -->
<!DOCTYPE svg PUBLIC "-//W3C//DTD SVG 1.1//EN" "http://www.w3.org/Graphics/SVG/1.1/DTD/svg11.dtd">
<svg version="1.1" id="Calque_1" xmlns="http://www.w3.org/2000/svg" xmlns:xlink="http://www.w3.org/1999/xlink" x="0px" y="0px"
	 width="100px" height="100px" viewBox="0 0 100 100" enable-background="new 0 0 100 100" xml:space="preserve">
<g>
	<circle opacity="0.4" fill="#FFFFFF" cx="51.104" cy="48.798" r="34.874"/>
	<circle fill="none" stroke="#8F421D" stroke-miterlimit="10" cx="51.104" cy="48.798" r="34.874"/>
	<g>
		<path fill="#8F421D" d="M33.592,40.482V57.09h-2.144V40.482H33.592z"/>
		<path fill="#8F421D" d="M51.33,49.796c-0.124-2.316-0.271-5.1-0.247-7.17h-0.074c-0.566,1.946-1.256,4.016-2.094,6.308
			l-2.931,8.058h-1.627l-2.686-7.91c-0.788-2.34-1.453-4.483-1.921-6.455H39.7c-0.049,2.07-0.173,4.854-0.32,7.344l-0.443,7.12
			h-2.045l1.158-16.608h2.736l2.834,8.032c0.69,2.046,1.257,3.868,1.675,5.593h0.074c0.419-1.675,1.011-3.497,1.75-5.593
			l2.957-8.032h2.734l1.036,16.608h-2.094L51.33,49.796z"/>
		<path fill="#8F421D" d="M57.133,40.704c1.306-0.196,2.858-0.344,4.559-0.344c3.08,0,5.272,0.715,6.727,2.068
			c1.477,1.355,2.34,3.278,2.34,5.964c0,2.709-0.837,4.927-2.389,6.455c-1.553,1.551-4.116,2.389-7.344,2.389
			c-1.527,0-2.809-0.074-3.893-0.198L57.133,40.704L57.133,40.704z M59.277,55.389c0.543,0.1,1.331,0.124,2.168,0.124
			c4.583,0,7.072-2.563,7.072-7.046c0.024-3.918-2.194-6.407-6.727-6.407c-1.108,0-1.946,0.1-2.513,0.222
			C59.277,42.282,59.277,55.389,59.277,55.389z"/>
	</g>
</g>
</svg>
