<?xml version="1.0" encoding="utf-8"?>
<!-- Generator: Adobe Illustrator 17.0.0, SVG Export Plug-In . SVG Version: 6.00 Build 0)  -->
<!DOCTYPE svg PUBLIC "-//W3C//DTD SVG 1.1//EN" "http://www.w3.org/Graphics/SVG/1.1/DTD/svg11.dtd">
<svg version="1.1" id="Calque_1" xmlns="http://www.w3.org/2000/svg" xmlns:xlink="http://www.w3.org/1999/xlink" x="0px" y="0px"
	 width="71.083px" height="71px" viewBox="13.833 13.667 71.083 71" enable-background="new 13.833 13.667 71.083 71"
	 xml:space="preserve">
<circle opacity="0.4" fill="#FFFFFF" cx="49.349" cy="49.204" r="34.874"/>
<g>
	<circle fill="none" stroke="#8F421D" stroke-miterlimit="10" cx="49.349" cy="49.204" r="34.874"/>
	<path fill="#8F421D" d="M31.964,59.452c0.201-0.545,0.421-1.128,0.974-1.36c0.552-0.235,0.621-0.616,0.652-1.116
		c0.319-5.047,2.352-9.363,5.658-13.119c1.743-1.977,3.777-3.599,6.107-4.842c0.09-0.048,0.176-0.1,0.265-0.149
		c-0.047-0.791-0.026-0.807,1.237-0.91c-0.052-0.123-0.093-0.232-0.142-0.336c-0.913-1.914-1.828-3.828-2.746-5.744
		c-0.3-0.633-0.064-1.002,0.646-1.002c3.156,0,6.314,0,9.47,0c0.71,0,0.945,0.369,0.642,1.001c-0.909,1.905-1.821,3.81-2.731,5.713
		c-0.051,0.108-0.097,0.222-0.154,0.354c0.344,0.034,0.671,0.006,0.953,0.107c0.342,0.125,0.354,0.457,0.254,0.791
		c0.458,0.262,0.914,0.508,1.352,0.779c4.024,2.5,6.997,5.932,8.953,10.234c1.012,2.225,1.621,4.564,1.755,7.018
		c0,0.021,0.007,0.045,0.007,0.068c-0.007,0.506,0.07,0.912,0.647,1.151c0.553,0.229,0.771,0.815,0.972,1.36v0.883
		c-0.068,0.162-0.13,0.328-0.21,0.484c-0.468,0.925-1.256,1.271-2.254,1.271c-8.973-0.004-17.945-0.004-26.923-0.004
		c-1.008,0-2.016,0.005-3.021,0c-0.777-0.004-1.453-0.244-1.918-0.894c-0.186-0.258-0.299-0.57-0.444-0.857v-0.881H31.964z
		 M64.049,57.692c-0.031-0.422-0.056-0.791-0.087-1.16c-0.191-2.345-0.826-4.577-1.854-6.68c-2.188-4.477-5.455-7.92-9.936-10.17
		c-0.783-0.393-1.578-0.695-2.49-0.602c-0.494,0.049-0.992-0.002-1.494,0.014c-0.186,0.006-0.379,0.045-0.553,0.113
		c-1.826,0.714-3.472,1.73-4.99,2.965c-2.195,1.783-3.986,3.906-5.377,6.364c-1.329,2.353-2.174,4.878-2.502,7.566
		c-0.062,0.519-0.075,1.044-0.113,1.589c0.306,0,0.543-0.006,0.777,0c0.424,0.01,0.671,0.212,0.679,0.553
		c0.009,0.357-0.242,0.578-0.681,0.586s-0.885-0.006-1.322,0.004c-0.504,0.012-0.923,0.379-0.996,0.852
		c-0.082,0.547,0.176,1.026,0.674,1.188c0.189,0.062,0.399,0.071,0.6,0.071c8.226,0.003,16.455,0.003,24.683,0.003
		c1.785,0,3.571,0.001,5.362,0c0.716-0.001,1.181-0.424,1.179-1.069c-0.005-0.631-0.463-1.045-1.159-1.047
		c-0.375-0.002-0.748,0.001-1.122-0.001c-0.472-0.004-0.731-0.204-0.736-0.563c-0.004-0.365,0.251-0.571,0.722-0.576
		C63.535,57.689,63.76,57.692,64.049,57.692 M45.335,32.023c0.004,0.058,0,0.083,0.007,0.103c0.905,1.892,1.805,3.787,2.723,5.676
		c0.042,0.088,0.203,0.164,0.311,0.168c0.622,0.016,1.243-0.004,1.866,0.014c0.238,0.007,0.36-0.068,0.458-0.283
		c0.851-1.797,1.714-3.586,2.57-5.377c0.042-0.089,0.073-0.184,0.114-0.292h-5.055c0,0.268,0.002,0.515,0,0.763
		c-0.006,0.415-0.213,0.675-0.544,0.69c-0.339,0.017-0.574-0.255-0.592-0.687c-0.007-0.254,0-0.51,0-0.775
		C47.193,32.023,45.335,32.023,45.335,32.023z"/>
	<path fill="#8F421D" d="M58.721,58.833c-0.699,0-1.399,0.004-2.099-0.002c-0.399-0.002-0.64-0.178-0.685-0.473
		c-0.056-0.391,0.197-0.661,0.657-0.664c1.041-0.006,2.077-0.004,3.119-0.004c0.372,0,0.744-0.005,1.119,0.004
		c0.389,0.01,0.638,0.23,0.644,0.554c0.011,0.334-0.247,0.575-0.655,0.581C60.124,58.839,59.422,58.833,58.721,58.833"/>
	<path fill="#8F421D" stroke="#8F421D" stroke-width="0.75" stroke-miterlimit="10" d="M46.777,53.083
		c-0.143-0.098-0.164-0.207-0.054-0.322c0.379-0.4,0.599-0.887,0.758-1.404c0.192-0.635,0.23-1.282,0.178-1.938
		c0-0.006-0.006-0.01-0.01-0.024h-0.09c-0.678,0-1.353,0-2.026,0c-0.031,0-0.061,0-0.09-0.002c-0.098-0.007-0.168-0.081-0.169-0.176
		c0-0.097,0.068-0.172,0.164-0.181c0.029-0.002,0.057-0.002,0.083-0.002c0.662,0,1.322,0,1.983,0h0.101
		c-0.063-0.413-0.172-0.809-0.311-1.194c-0.122-0.335-0.192-0.679-0.183-1.036c0.012-0.518,0.15-0.996,0.492-1.4
		c0.264-0.314,0.602-0.514,0.996-0.611c0.116-0.027,0.232-0.047,0.349-0.067h0.491c0.129,0.021,0.262,0.034,0.392,0.063
		c0.975,0.201,1.543,0.816,1.795,1.756c0.033,0.134,0.051,0.271,0.071,0.408c0.018,0.121-0.048,0.21-0.15,0.222
		c-0.11,0.015-0.19-0.061-0.213-0.185c-0.033-0.19-0.057-0.384-0.118-0.564c-0.251-0.732-0.769-1.163-1.532-1.295
		c-0.361-0.064-0.727-0.07-1.081,0.037c-0.439,0.131-0.758,0.406-0.945,0.824c-0.251,0.551-0.221,1.111-0.039,1.676
		c0.114,0.365,0.208,0.74,0.311,1.111c0.022,0.079,0.03,0.164,0.047,0.256h0.095c0.566,0,1.131,0,1.696,0
		c0.11,0,0.186,0.045,0.209,0.123c0.036,0.118-0.041,0.227-0.164,0.235c-0.027,0.002-0.055,0.002-0.083,0.002
		c-0.539,0-1.076,0-1.617,0h-0.094c0.09,1.083-0.076,2.106-0.604,3.065c0.146-0.033,0.287-0.068,0.431-0.096
		c0.571-0.103,1.128-0.053,1.678,0.143c0.32,0.113,0.65,0.189,0.994,0.193c0.448,0.006,0.852-0.1,1.153-0.459
		c0.083-0.1,0.189-0.11,0.271-0.04c0.083,0.071,0.08,0.181,0,0.282c-0.295,0.35-0.682,0.519-1.125,0.566
		c-0.491,0.057-0.959-0.045-1.418-0.201c-0.451-0.154-0.906-0.213-1.378-0.143c-0.398,0.062-0.777,0.177-1.129,0.377L46.777,53.083
		L46.777,53.083z"/>
</g>
</svg>
