<?xml version="1.0" encoding="utf-8"?>
<!-- Generator: Adobe Illustrator 19.2.0, SVG Export Plug-In . SVG Version: 6.00 Build 0)  -->
<svg version="1.1" xmlns="http://www.w3.org/2000/svg" xmlns:xlink="http://www.w3.org/1999/xlink" x="0px" y="0px" width="256px"
	 height="94px" viewBox="0 0 256 94" style="enable-background:new 0 0 256 94;" xml:space="preserve">
<style type="text/css">
	.st0{fill:#282528;}
	.st1{fill:#353535;}
	.st2{fill:#343434;}
	.st3{fill:none;stroke:#000000;stroke-width:3.8453;stroke-linecap:square;stroke-miterlimit:10;}
	.st4{fill:#FFFFFF;}
	.st5{enable-background:new    ;}
	.st6{fill:none;stroke:#343434;stroke-miterlimit:10;}
	.st7{fill:#010101;}
</style>
<g id="Calque_1">
	<g id="caddy">
	</g>
	<g id="payesecure">
	</g>
	<g id="card">
	</g>
	<g id="smiley">
	</g>
	<g id="delivery">
	</g>
	<g id="Appli">
	</g>
	<g id="Obsèques">
	</g>
	<g id="transport">
	</g>
	<g id="heart">
	</g>
	<g id="multidevice">
	</g>
	<g id="present">
	</g>
</g>
<g id="TEXTES">
</g>
<g id="illustration">
	<g id="loupe_xA0_Image_1_">
	</g>
	<g>
		<path d="M225,16.8v22.5h-26.3v-3.5h22.8V15.6c-2.9-0.9-6.1-1.2-9.2-1.2c-19.3,0-34.9,15.6-34.9,34.9c0,14.4,8.9,27.1,21.6,32.3
			V59.4h26.3v3.2h-22.8v20.2c3.2,0.9,6.3,1.4,9.8,1.4c19.3,0,34.9-15.6,34.9-34.9C247.2,34.4,238,21.7,225,16.8z"/>
		<path d="M47.8,47.7c10.4,0,15.6-7.5,15.6-16.4c0-9-4.9-16.2-15.6-16.2c-10,0-15.8,6-15.9,16.2C31.9,39.6,36,47.7,47.8,47.7z
			 M47.8,20.5c7.2,0,8.9,7.8,8.9,11c0,3.8-2.3,11.3-8.9,11.3c-7.7,0-9.5-7.2-9.5-11.3C38.3,26,41.2,20.5,47.8,20.5z"/>
		<path d="M86.8,43.1v4.3h6V16h-6.6v17c0,3.2,0,10.1-7.5,10.1c-3.1,0-6.3-1.4-6.3-6.6V16h-6.9v20.5c0,8,5.2,11.5,11.8,11.5
			C81.3,48,84.5,46.6,86.8,43.1z"/>
		<path d="M111.1,47.7c9.5,0,13.5-5.8,14.4-12.1l-5.7-0.3c0,0.6-0.9,6.9-8.1,6.9c-6.7,0-8.7-5.2-8.7-9.5h23.1
			c0-10.7-5.5-17.6-15-17.6c-10.4,0-15,8-15,17S101.9,47.7,111.1,47.7z M111,20.2c4.9,0,7.5,4.1,7.8,8.4h-16.2
			C102.6,25.1,104.9,20.2,111,20.2z"/>
		<path d="M155.5,52c-10.4,0-15,8-15,17s5.8,15.6,15,15.6c9.5,0,13.5-5.8,14.4-12.1l-5.7-0.3c0,0.6-0.9,6.9-8.1,6.9
			c-6.7,0-8.7-5.2-8.7-9.5h23.1C170.5,58.9,165,52,155.5,52z M147.3,65.6c0-3.5,2.3-8.4,8.4-8.4c4.9,0,7.5,4.1,7.8,8.4H147.3z"/>
		<path d="M153.5,37.6c0-6.9-5.2-8.3-11.5-9.5c-5.4-0.8-8.9-1.1-8.9-4.6s4.6-3.5,6.3-3.5c4.9,0,6.3,2.6,6.3,4c0,0,6.9,0,6.6,0
			c0-0.5-0.6-9.2-12.4-9.2c-6.7,0-13.3,1.8-13.3,8.7c0,6,4,8.6,11.8,9.8c5.5,0.9,8.4,1.4,8.4,4.9c0,3.4-2.9,4.3-6.9,4.3
			c-8.1,0-7.2-4.6-7.5-6.9h-6.3c0.2,3.4-0.6,11.8,13.8,11.8C147.4,47.4,153.5,43.9,153.5,37.6z"/>
		<path d="M157.8,41c0,3.8,2.9,5.8,4.6,5.8s7.8,0,7.8,0v-4.9H167c-1.2,0-2.9,0-2.9-2.3v-19l6.1,0.2v-4.6h-6.1V6.1h-6.3v9.8h-5.2v4.6
			h5.2V41z"/>
		<path d="M16.4,48.2v5.2h-5.2v5.2h5.2v25.7H23V58.6h-0.1v-0.2H29v-5.2h-6.3v-2.9c0-2.3,1.2-3.2,3.2-3.2c0.9,0,3.5,0,3.5,0v-5.5
			c0,0-5.2,0-6.1,0C20.4,41.6,16.4,43.6,16.4,48.2z"/>
		<path d="M51,52.8c0,0-2.3,0-2.9,0c-4,0-7.5,2.6-9.2,6.1v-5.5h-6.1v30.9h5.8l0.3-17c0-2.6,2.3-8.7,9.5-8.7H51V52.8z"/>
		<path d="M64.5,52c-8.3,0-13.8,3.2-14.1,10.7c0,0,7,0,6.9-0.4c0-3.2,2-4.9,6.9-4.9c4.6,0,6.3,0.9,6.3,3.8c0,2.1-1.2,3.5-2.9,3.5
			l-8.7,1.4c-9.2,1.1-9.5,6.9-9.5,9.5c0,4.6,2.9,9.2,10.7,9.2c4.4,0,8.7-1.7,10.7-4c0,2.6,0,3.2,0,3.2h6.1V61.2
			C76.9,53.2,68.8,52,64.5,52z M70.6,73.8c0,3.5-4.9,5.8-8.9,5.8c-3.2,0-5.5-1.1-5.5-4.3c0-3.7,2.9-4.3,5.5-4.6
			c7.2-0.8,8.3-1.4,9.2-2L70.6,73.8z"/>
		<path d="M96.1,51.8c-4.3,0-7.8,2.9-9.5,5.5v-4H80v30.9h6.6V66.6c0-6.9,4.3-9.2,7.5-9.2c4.6,0,6.6,2.3,6.6,8.1v18.8h6.6h0.1v-21
			C107.4,53.5,99,51.8,96.1,51.8z"/>
		<path d="M125.5,79.5c-7.5,0-8.9-6.4-8.9-11c0-5.5,2-11,8.9-11c3.4,0,6.3,2.3,6.9,5.8l7-0.1c-0.6-6.4-6.1-11.3-13.6-11.3
			c-8.1,0-15.3,5.2-15.3,16.7c0,9.8,5.2,16.4,15.3,16.4c9.8,0,13.2-7.5,13.8-12.4h-6.9C131.8,76.3,129.5,79.5,125.5,79.5z"/>
	</g>
</g>
</svg>
