<?xml version="1.0" encoding="utf-8"?>
<!-- Generator: Adobe Illustrator 14.0.0, SVG Export Plug-In . SVG Version: 6.00 Build 43363)  -->
<!DOCTYPE svg PUBLIC "-//W3C//DTD SVG 1.1//EN" "http://www.w3.org/Graphics/SVG/1.1/DTD/svg11.dtd">
<svg version="1.1" id="Calque_1" xmlns="http://www.w3.org/2000/svg" xmlns:xlink="http://www.w3.org/1999/xlink" x="0px" y="0px"
	 width="50px" height="17.3px" viewBox="0 0 50 17.3" enable-background="new 0 0 50 17.3" xml:space="preserve">
<g>
	<path fill="#FFFFFF" d="M45.146,2.336l-0.486-0.191c0,0,0,0.011,0,0.014l-0.261-0.072c-0.666-0.185-1.356-0.279-2.052-0.279
		c-4.221,0-7.654,3.434-7.654,7.654c0,3.109,1.856,5.887,4.73,7.076l0.492,0.203c0,0,0-0.014,0-0.016l0.254,0.076
		c0.705,0.209,1.438,0.314,2.178,0.314c4.22,0,7.653-3.434,7.653-7.654C50,6.293,48.095,3.496,45.146,2.336z"/>
	<path fill="#FFFFFF" d="M7.97,9.575c1.676,0,2.919-0.936,3.388-2.43c0.128,1.532,1.137,2.443,2.773,2.443
		c0.651,0,1.195-0.19,1.645-0.534c0,0.006,0,0.408,0,0.408h2.055V6.903c0.375,1.568,1.628,2.565,3.354,2.565
		c1.442,0,2.493-0.588,3.021-1.648c0.247,0.798,0.961,1.648,3.09,1.648c1.897,0,3.173-0.977,3.173-2.431
		c0-1.816-1.574-2.113-2.724-2.33l-0.311-0.057c-1.059-0.192-1.243-0.277-1.243-0.569c0-0.117,0.037-0.169,0.068-0.201
		c0.179-0.179,0.667-0.178,0.876-0.178c0.793,0,0.963,0.397,0.967,0.504l0.01,0.344h2.131V4.195c0-0.091-0.016-0.211-0.047-0.344
		c0.152,0,0.299,0,0.4,0c0,0.598,0,3.9,0,3.9c0,0.976,0.754,1.576,1.294,1.576h2.007V7.603h-1.006c0,0-0.205-0.02-0.212-0.021
		c-0.002-0.007-0.021-0.129-0.021-0.129s0-3.012,0-3.602c0.361,0,1.238,0,1.238,0V2.179c0,0-0.877,0-1.238,0
		c0-0.491,0-2.098,0-2.098h-0.355h-1.707c0,0,0,1.607,0,2.098c-0.316,0-1.064,0-1.064,0v0.528c-0.45-0.429-1.158-0.773-2.252-0.773
		c-1.83,0-2.925,0.687-3.081,1.885c-0.553-1.168-1.6-1.826-3.026-1.826c-1.744,0-2.973,1.05-3.344,2.753V2.179h-0.356h-1.766v3.909
		c0,0.899-0.146,1.731-1.207,1.731c-0.694,0-0.99-0.3-0.99-1.003V2.179h-2.181v2.069C10.854,2.829,9.656,1.994,7.97,1.994
		c-2.288,0-3.653,1.406-3.653,3.761C4.317,8.147,5.683,9.575,7.97,9.575z M26.919,6.492c1.242,0.178,1.43,0.308,1.43,0.659
		c0,0.219,0,0.55-1.064,0.55c-1.151,0-1.171-0.437-1.19-0.941c0,0-0.021-0.35-0.025-0.437C26.345,6.396,26.632,6.452,26.919,6.492z
		 M19.855,4.775c0.13-0.494,0.523-1.035,1.338-1.035c0.676,0,1.066,0.478,1.216,1.035C21.843,4.775,20.404,4.775,19.855,4.775z
		 M22.552,6.579c-0.009,0.115-0.126,1.122-1.325,1.122c-1.031,0-1.324-0.699-1.398-1.292c0.404,0,1.483,0,2.738,0
		C22.56,6.494,22.552,6.579,22.552,6.579z M25.845,6.259c-0.053,0.001-0.116,0.003-0.116,0.003h-1.081V6.054
		c0-0.188-0.009-0.368-0.023-0.544C24.929,5.875,25.36,6.106,25.845,6.259z M7.97,3.821c1.427,0,1.491,1.915,1.491,1.934
		c0,0.65-0.364,1.993-1.491,1.993c-1.565,0-1.61-1.789-1.61-1.993C6.36,4.863,6.782,3.821,7.97,3.821z"/>
	<path fill="#FFFFFF" d="M30.487,9.734c-1.5,0-2.617,0.778-3.139,2.081c-0.367-1.252-1.61-2.14-3.1-2.14
		c-1.842,0-3.128,1.08-3.481,2.82v-0.041c0-2.197-1.789-2.779-2.734-2.779c-0.685,0-1.218,0.298-1.626,0.638
		c0-0.014,0-0.349,0-0.349H14.32v1.419c-0.285-1.041-1.299-1.649-2.847-1.649c-1.08,0-1.908,0.253-2.467,0.724V9.842H8.649H8.046
		c-0.604,0-1.15,0.237-1.598,0.625c0-0.033,0-0.503,0-0.503H4.491c0,0-0.009,0-0.01,0c-0.056,0-0.966,0-1.34,0
		c0-0.123,0-0.253,0-0.253c0-0.325,0.032-0.325,0.277-0.325h1.073V7.521H4.135H2.89c-0.878,0-1.812,0.618-1.812,1.763
		c0,0,0,0.374,0,0.68c-0.319,0-1.078,0-1.078,0v1.806c0,0,0.759,0,1.078,0c0,0.619,0,5.361,0,5.361h2.063c0,0,0-4.742,0-5.361
		c0.374,0,1.284,0,1.34,0v5.361h1.968v-3.916c0-0.383,0.39-1.432,1.643-1.432h0.151c-0.032,0.16-0.057,0.324-0.063,0.5l-0.013,0.369
		h2.16v-0.357c0-0.242,0-0.652,1.064-0.652c0.99,0,0.99,0.232,0.99,0.457c0,0.215-0.098,0.332-0.292,0.35
		c-0.023,0.004-1.837,0.285-1.837,0.285c-1.522,0.174-2.301,0.953-2.301,2.314c0,1.102,0.683,2.279,2.601,2.279
		c0.685,0,1.356-0.195,1.888-0.508c0,0.068,0,0.311,0,0.311h1.879h0.091h1.996v-4.037c0-1.48,1.018-1.555,1.222-1.555
		c0.645,0,1.018,0.219,1.018,1.334v4.258h2.121v-2.625c0.334,1.742,1.558,2.762,3.433,2.762c1.666,0,2.686-1,3.083-2.164
		c0.494,1.301,1.664,2.105,3.217,2.105c1.906,0,3.133-1.025,3.365-2.814c0,0,0.018-0.129,0.031-0.246c0.02,0,0.064,0,0.064,0v-0.355
		C33.96,11.253,32.661,9.734,30.487,9.734z M10.905,15.479c-0.792,0-0.792-0.357-0.792-0.529c0-0.465,0.176-0.553,0.827-0.637
		c0.756-0.09,1.206-0.162,1.5-0.234c0,0.268,0,0.535,0,0.535C12.44,15.108,11.629,15.479,10.905,15.479z M31.866,14.319
		c-0.011,0.115-0.129,1.123-1.326,1.123c-1.031,0-1.325-0.699-1.398-1.293c0.404,0,1.482,0,2.738,0
		C31.872,14.235,31.866,14.319,31.866,14.319z M29.167,12.517c0.131-0.494,0.523-1.035,1.338-1.035c0.678,0,1.066,0.477,1.217,1.035
		C31.155,12.517,29.716,12.517,29.167,12.517z M27.04,13.972h-1.664l-0.058,0.285c-0.109,0.541-0.396,1.186-1.139,1.186
		c-0.369,0-1.49,0-1.49-1.945c0-1.299,0.506-1.957,1.503-1.957c0.607,0,1.027,0.34,1.124,0.908l0.05,0.295h1.727
		c-0.044,0.279-0.069,0.57-0.069,0.879C27.024,13.741,27.03,13.856,27.04,13.972z"/>
</g>
<g>
	<path fill="#E1001A" d="M45.015,2.668v4.718h-5.456V6.674h4.745V2.43c-0.623-0.173-1.279-0.266-1.957-0.266
		c-4.031,0-7.299,3.268-7.299,7.298c0,3.043,1.863,5.65,4.511,6.746v-4.67h5.456v0.713h-4.744v4.209
		c0.658,0.195,1.355,0.301,2.076,0.301c4.029,0,7.297-3.268,7.297-7.299C49.644,6.374,47.726,3.733,45.015,2.668z"/>
	<path fill="#E1001A" d="M7.97,2.35c2.215,0,3.237,1.532,3.237,3.405c0,1.883-1.091,3.465-3.237,3.465
		c-2.443,0-3.297-1.7-3.297-3.465C4.673,3.615,5.893,2.35,7.97,2.35z M7.97,8.104c1.392,0,1.847-1.544,1.847-2.349
		c0-0.666-0.386-2.289-1.847-2.289c-1.383,0-1.966,1.159-1.966,2.289C6.004,6.579,6.37,8.104,7.97,8.104z"/>
	<path fill="#E1001A" d="M16.132,9.106V8.228l-0.026-0.024c-0.468,0.713-1.148,1.029-1.975,1.029c-1.373,0-2.443-0.713-2.443-2.414
		V2.535h1.469v4.281c0,1.081,0.646,1.359,1.346,1.359c1.538,0,1.563-1.446,1.563-2.087V2.535h1.409v6.571H16.132z"/>
	<path fill="#E1001A" d="M24.199,6.608c-0.176,1.355-1.044,2.505-3.013,2.505c-1.959,0-3.118-1.369-3.118-3.232
		c0-1.89,0.96-3.531,3.107-3.531c2.012,0,3.117,1.421,3.117,3.704h-4.853c0,0.93,0.393,2.003,1.788,2.003
		c1.493,0,1.669-1.313,1.68-1.448H24.199z M22.842,5.131c-0.059-0.881-0.617-1.747-1.649-1.747c-1.237,0-1.754,1.024-1.754,1.747
		H22.842z"/>
	<path fill="#E1001A" d="M33.511,14.349c-0.176,1.355-1.045,2.506-3.012,2.506c-1.959,0-3.119-1.369-3.119-3.232
		c0-1.891,0.961-3.531,3.107-3.531c2.012,0,3.117,1.422,3.117,3.703h-4.854c0,0.93,0.395,2.004,1.789,2.004
		c1.492,0,1.669-1.312,1.68-1.449H33.511z M32.155,12.872c-0.059-0.881-0.617-1.746-1.65-1.746c-1.236,0-1.754,1.023-1.754,1.746
		H32.155z"/>
	<path fill="#E1001A" d="M28.46,4.195c-0.01-0.288-0.326-0.848-1.297-0.848c-0.379,0-1.326-0.018-1.326,0.735
		c0,0.707,0.722,0.765,1.844,0.976c1.35,0.254,2.434,0.549,2.434,1.98c0,1.333-1.244,2.075-2.816,2.075
		c-3.024,0-2.84-1.737-2.879-2.495h1.311c0.04,0.506-0.097,1.438,1.555,1.438c0.84,0,1.422-0.189,1.422-0.905
		c0-0.714-0.605-0.85-1.737-1.011c-1.656-0.237-2.443-0.769-2.443-2.027c0-1.419,1.385-1.823,2.756-1.823
		c2.443,0,2.606,1.802,2.606,1.905H28.46z"/>
	<path fill="#E1001A" d="M32.306,3.495v3.958c0,0.505,0.348,0.505,0.588,0.505h0.65v1.013c0,0-1.295,0-1.651,0
		s-0.938-0.442-0.938-1.22V3.495H29.89v-0.96h1.064V0.438h1.352v2.098h1.238v0.96H32.306z"/>
	<path fill="#E1001A" d="M2.785,11.413v5.363H1.434v-5.363H0.356v-1.092h1.078V9.284c0-0.975,0.824-1.406,1.456-1.406
		c0.173,0,1.245,0,1.245,0V9.03c0,0-0.571,0-0.717,0c-0.447,0-0.633,0.163-0.633,0.681v0.61h1.351v1.092H2.785z"/>
	<path fill="#E1001A" d="M6.093,16.776H4.836v-6.455h1.257v1.146l0,0c0.367-0.73,1.074-1.27,1.953-1.27c0.146,0,0.603,0,0.603,0
		v1.23H8.091c-1.498,0-1.998,1.254-1.998,1.787V16.776z"/>
	<path fill="#E1001A" d="M8.536,12.296c0.053-1.541,1.218-2.205,2.937-2.205c0.876,0,2.583,0.236,2.583,1.92v4.766h-1.259
		c0,0,0-0.107,0-0.674c-0.432,0.488-1.298,0.871-2.244,0.871c-1.635,0-2.245-0.941-2.245-1.924c0-0.543,0.055-1.74,2-1.963
		l1.813-0.281c0.35-0.031,0.616-0.275,0.616-0.705c0-0.6-0.388-0.812-1.346-0.812c-1.018,0-1.42,0.354-1.42,1.008H8.536z
		 M12.796,13.554c-0.187,0.135-0.45,0.234-1.902,0.406c-0.573,0.074-1.137,0.176-1.137,0.99c0,0.654,0.485,0.885,1.147,0.885
		c0.865,0,1.892-0.457,1.892-1.221V13.554z"/>
	<path fill="#E1001A" d="M20.412,16.776h-1.41v-3.902c0-1.182-0.425-1.689-1.373-1.689c-0.676,0-1.577,0.463-1.577,1.91v3.682
		h-1.375v-6.455h1.375v0.867l0,0c0.376-0.514,1.055-1.157,1.981-1.157c0.604,0,2.379,0.339,2.379,2.423V16.776z"/>
	<path fill="#E1001A" d="M25.667,12.388c-0.126-0.744-0.706-1.203-1.474-1.203c-1.453,0-1.859,1.164-1.859,2.312
		c0,0.99,0.273,2.301,1.846,2.301c0.843,0,1.319-0.641,1.487-1.471h1.429c-0.119,1.023-0.858,2.586-2.897,2.586
		c-2.107,0-3.178-1.359-3.178-3.41c0-2.385,1.494-3.472,3.227-3.472c1.564,0,2.739,1.036,2.848,2.356H25.667z"/>
</g>
</svg>
