<?xml version="1.0" encoding="utf-8"?>
<!-- Generator: Adobe Illustrator 17.0.0, SVG Export Plug-In . SVG Version: 6.00 Build 0)  -->
<!DOCTYPE svg PUBLIC "-//W3C//DTD SVG 1.1//EN" "http://www.w3.org/Graphics/SVG/1.1/DTD/svg11.dtd">
<svg version="1.1" id="Calque_1" xmlns="http://www.w3.org/2000/svg" xmlns:xlink="http://www.w3.org/1999/xlink" x="0px" y="0px"
	 width="400px" height="300px" viewBox="0 0 400 300" enable-background="new 0 0 400 300" xml:space="preserve">
<g>
	
		<line fill="none" stroke="#884328" stroke-width="4" stroke-linecap="round" stroke-miterlimit="10" x1="248.461" y1="259.878" x2="348.824" y2="259.878"/>
	
		<line fill="none" stroke="#884328" stroke-width="4" stroke-linecap="round" stroke-miterlimit="10" x1="53.31" y1="259.878" x2="153.461" y2="259.878"/>
	<g>
		<rect x="172.91" y="252.29" fill="none" width="60.314" height="20.432"/>
		<path fill="#884328" d="M181.48,265.29h-8.018v-2.078c1.324-0.907,2.491-1.912,3.503-3.016c1.012-1.103,1.517-2.078,1.517-2.924
			c0-0.515-0.153-0.922-0.459-1.223c-0.307-0.3-0.772-0.451-1.397-0.451c-1.043,0-2.029,0.386-2.961,1.159v-2.593
			c0.404-0.294,0.932-0.545,1.581-0.754c0.65-0.208,1.287-0.312,1.913-0.312c1.25,0,2.246,0.328,2.988,0.984
			c0.741,0.656,1.112,1.572,1.112,2.749c0,2.121-1.349,4.18-4.046,6.178h4.267V265.29z"/>
		<path fill="#884328" d="M188.128,257.53c0.986,0,1.802,0.349,2.445,1.048s0.966,1.646,0.966,2.841s-0.384,2.2-1.149,3.016
			c-0.767,0.815-1.852,1.223-3.255,1.223s-2.482-0.53-3.236-1.59s-1.131-2.485-1.131-4.275c0-2.047,0.561-3.684,1.683-4.91
			s2.54-1.839,4.257-1.839c0.649,0,1.281,0.098,1.895,0.294v2.482c-0.479-0.257-1.036-0.386-1.674-0.386
			c-0.87,0-1.585,0.267-2.143,0.8s-0.935,1.248-1.131,2.142C186.316,257.812,187.141,257.53,188.128,257.53z M187.272,263.267
			c0.479,0,0.853-0.165,1.122-0.496s0.404-0.76,0.404-1.288c0-0.527-0.132-0.94-0.396-1.241c-0.264-0.3-0.634-0.45-1.112-0.45
			c-0.662,0-1.244,0.264-1.747,0.791C185.679,262.373,186.255,263.267,187.272,263.267z"/>
		<path fill="#884328" d="M199.335,267.184h-2.777l6.602-14.895h2.795L199.335,267.184z"/>
		<path fill="#884328" d="M217.962,261.98c0,1.03-0.39,1.854-1.168,2.473c-0.778,0.62-1.845,0.929-3.199,0.929
			c-1.355,0-2.462-0.208-3.319-0.625v-2.574c0.98,0.54,1.992,0.809,3.034,0.809c0.601,0,1.069-0.129,1.406-0.386
			c0.337-0.258,0.506-0.582,0.506-0.975c0-0.895-0.827-1.342-2.482-1.342h-0.644v-2.207h0.644c0.649,0,1.183-0.11,1.6-0.331
			s0.625-0.552,0.625-0.993c0-0.846-0.551-1.269-1.654-1.269c-0.846,0-1.698,0.264-2.557,0.791v-2.501
			c0.907-0.453,1.821-0.68,2.74-0.68c1.3,0,2.329,0.31,3.09,0.929c0.76,0.619,1.14,1.425,1.14,2.418
			c0,1.361-0.619,2.298-1.857,2.813C217.263,259.59,217.962,260.497,217.962,261.98z"/>
		<path fill="#884328" d="M226.2,258.505c0.698,0.674,1.048,1.615,1.048,2.822c0,1.208-0.414,2.188-1.241,2.942
			s-1.955,1.131-3.384,1.131c-1.428,0-2.553-0.214-3.374-0.644v-2.538c0.834,0.515,1.766,0.772,2.795,0.772
			c1.643,0,2.464-0.589,2.464-1.766c0-0.441-0.168-0.791-0.505-1.048c-0.338-0.258-0.911-0.386-1.72-0.386
			c-0.81,0-1.649,0.202-2.52,0.607v-7.172h6.749v2.28h-4.138v2.041c0.27-0.037,0.539-0.055,0.81-0.055
			C224.496,257.493,225.501,257.831,226.2,258.505z"/>
	</g>
</g>
<g>
	<g>
		<path fill="none" stroke="#884328" stroke-width="4" stroke-miterlimit="10" d="M133.593,141.21c0,3.338,2.695,6.029,6.016,6.029
			c3.338,0,6.032-2.691,6.032-6.029c0-3.325-2.694-6.016-6.032-6.016C136.287,135.194,133.593,137.885,133.593,141.21z"/>
		<path fill="none" stroke="#884328" stroke-width="4" stroke-miterlimit="10" d="M84.127,141.21c0,3.338,2.688,6.029,6.029,6.029
			c3.325,0,6.013-2.691,6.013-6.029c0-3.325-2.688-6.016-6.013-6.016C86.815,135.194,84.127,137.885,84.127,141.21z"/>
		<path fill="none" stroke="#884328" stroke-width="4" stroke-miterlimit="10" d="M49.427,120.457v-1.463
			c0,0-16.797-3.322-16.381,10.804c0.413,14.122,16.381,24.091,16.381,24.091V120.457z"/>
		<path fill="none" stroke="#884328" stroke-width="4" stroke-miterlimit="10" d="M178.459,128.131v-10.215
			c0,0,16.8-3.325,16.388,10.801c-0.419,14.122-16.388,24.094-16.388,24.094V128.131z"/>
		<path fill="none" stroke="#884328" stroke-width="4" stroke-miterlimit="10" d="M178.459,152.811c0,0,6.481,37.7-20.09,57.78
			c-1.511,1.144-3.124,2.223-4.85,3.234c-9.325,5.486-21.949,9.023-39.036,9.023c-3.64,0-7.099-0.162-10.355-0.445
			c-2.792-0.27-5.428-0.63-7.96-1.115c-13.154-2.376-22.71-7.394-29.626-13.658c-22.433-20.308-17.116-53.74-17.116-53.74"/>
		<polyline fill="none" stroke="#884328" stroke-width="4" stroke-linecap="round" stroke-miterlimit="10" points="114.072,119.761 
			114.072,129.799 128.61,161.781 114.072,161.781 114.306,196.497 114.484,222.847 		"/>
		<path fill="none" stroke="#884328" stroke-width="4" stroke-linecap="round" stroke-miterlimit="10" d="M127.454,197.822
			c0,0-3.608,6.405-13.088,6.084c-11.53-0.39-13.939-5.083-13.939-5.083"/>
		<path fill="none" stroke="#884328" stroke-width="4" stroke-linecap="round" stroke-miterlimit="10" d="M49.251,117.09
			c0,0,127.494,14.999,130.493-23.999"/>
		<path fill="none" stroke="#884328" stroke-width="4" stroke-linecap="round" stroke-miterlimit="10" d="M178.482,174.5l-1.5,52
			c18-5,38.682-26.416,38.682-26.416l-8.652-5v-70.298c0-47.879-38.814-86.693-86.693-86.693h-14.145
			c-47.879,0-86.693,38.814-86.693,86.693V195l-8.001,5.084c0,0,21.682,21.416,39.682,26.416l-1.5-52"/>
		<path fill="none" stroke="#884328" stroke-width="3" stroke-linecap="round" stroke-miterlimit="10" d="M165.339,99.911
			c3.712-2.66,6.029-6.02,6.354-10.245"/>
		<path fill="none" stroke="#884328" stroke-width="3" stroke-linecap="round" stroke-miterlimit="10" d="M75.969,107.271
			c0,0,21.77,2.561,44.551,1.999c12.484-0.308,25.271-1.554,34.945-4.673"/>
		
			<line fill="none" stroke="#884328" stroke-width="3" stroke-linecap="round" stroke-miterlimit="10" x1="42.736" y1="216.251" x2="41.424" y2="170.751"/>
		
			<line fill="none" stroke="#884328" stroke-width="3" stroke-linecap="round" stroke-miterlimit="10" x1="185.65" y1="213.259" x2="185.177" y2="167.742"/>
		
			<line fill="none" stroke="#884328" stroke-width="3" stroke-linecap="round" stroke-miterlimit="10" x1="191.87" y1="187.687" x2="191.624" y2="163.981"/>
		
			<line fill="none" stroke="#884328" stroke-width="3" stroke-linecap="round" stroke-miterlimit="10" x1="35.278" y1="190.179" x2="34.406" y2="166.487"/>
		<path fill="none" stroke="#884328" stroke-width="3" stroke-linecap="round" stroke-miterlimit="10" d="M71.721,53.132
			c-18.53,7.959-33.192,23.201-40.383,42.124"/>
		<circle fill="#884328" cx="42.163" cy="159.5" r="4"/>
		<circle fill="#884328" cx="185.664" cy="157.5" r="4"/>
	</g>
	<g>
		<path fill="none" stroke="#884328" stroke-width="3.5026" stroke-linecap="round" stroke-miterlimit="10" d="M309.62,113.343"/>
		<path fill="none" stroke="#884328" stroke-width="4" stroke-miterlimit="10" d="M290.099,141.792c0,3.338-2.695,6.029-6.016,6.029
			c-3.338,0-6.032-2.691-6.032-6.029c0-3.325,2.694-6.016,6.032-6.016C287.404,135.776,290.099,138.467,290.099,141.792z"/>
		<path fill="none" stroke="#884328" stroke-width="4" stroke-miterlimit="10" d="M339.564,141.792c0,3.338-2.688,6.029-6.029,6.029
			c-3.325,0-6.013-2.691-6.013-6.029c0-3.325,2.688-6.016,6.013-6.016C336.877,135.776,339.564,138.467,339.564,141.792z"/>
		<path fill="none" stroke="#884328" stroke-width="4" stroke-linejoin="round" stroke-miterlimit="10" d="M374.348,121.623
			l-0.084-2.047c0,0,16.797-3.322,16.381,10.804c-0.413,14.123-16.381,24.091-16.381,24.091L374.348,121.623z"/>
		<path fill="none" stroke="#884328" stroke-width="4" stroke-miterlimit="10" d="M245.232,128.713v-10.215
			c0,0-16.8-3.325-16.388,10.801c0.419,14.123,16.388,24.094,16.388,24.094V128.713z"/>
		<path fill="none" stroke="#884328" stroke-width="4" stroke-linecap="round" stroke-miterlimit="10" d="M245.232,153.393
			c0,0-6.481,37.7,20.09,57.78c1.511,1.144,3.124,2.223,4.85,3.234c9.325,5.486,21.949,9.023,39.036,9.023
			c3.64,0,7.099-0.162,10.355-0.445c2.792-0.27,5.428-0.63,7.96-1.115c13.154-2.376,22.71-7.394,29.626-13.658
			c22.433-20.308,17.116-53.74,17.116-53.74"/>
		<polyline fill="none" stroke="#884328" stroke-width="4" stroke-linecap="round" stroke-miterlimit="10" points="309.62,113.343 
			309.62,130.381 295.081,162.363 309.62,162.363 309.386,197.079 309.207,223.429 		"/>
		<path fill="none" stroke="#884328" stroke-width="4" stroke-linecap="round" stroke-miterlimit="10" d="M296.238,196.653
			c0,0,3.608,6.405,13.088,6.084c11.53-0.39,13.939-5.083,13.939-5.083"/>
		<path fill="none" stroke="#884328" stroke-width="4" stroke-linecap="round" stroke-miterlimit="10" d="M349.181,95.333
			c0,0-55.333,34.667-91.333-6"/>
		<path fill="none" stroke="#884328" stroke-width="4" stroke-linecap="round" stroke-miterlimit="10" d="M289.181,108.666
			c0,0-47.333,32-61.333-32"/>
		
			<line fill="none" stroke="#884328" stroke-width="4" stroke-linecap="round" stroke-linejoin="round" stroke-miterlimit="10" x1="237.848" y1="117.333" x2="237.925" y2="102"/>
		<path fill="none" stroke="#884328" stroke-width="4.0632" stroke-linecap="round" stroke-miterlimit="10" d="M374.593,119.593
			c0,0,0.258-2.938,0.258-7.674c0-19.232-4.152-67.931-46.124-67.931c-52.294,0-67.239,2.024-78.387-19.99
			c0,0-28.891,24-8.943,54.667"/>
		<path fill="none" stroke="#884328" stroke-width="3" stroke-linecap="round" stroke-miterlimit="10" d="M279.985,95.126
			c-2.827-1.873-5.567-4.23-8.16-7.159"/>
		<path fill="none" stroke="#884328" stroke-width="3" stroke-linecap="round" stroke-miterlimit="10" d="M342.848,88.833
			c0,0-21.5,15.5-44.5,11"/>
		<path fill="none" stroke="#884328" stroke-width="3" stroke-linecap="round" stroke-miterlimit="10" d="M274.732,56.451
			c-12.504-2.301-17.492-5.411-19.318-12.132"/>
		<path fill="none" stroke="#884328" stroke-width="3" stroke-linecap="round" stroke-miterlimit="10" d="M269.925,109.25
			c-6.156,1.839-14,0.25-19.75-5"/>
	</g>
</g>
</svg>
