<?xml version="1.0" encoding="utf-8"?>
<!-- Generator: Adobe Illustrator 16.0.0, SVG Export Plug-In . SVG Version: 6.00 Build 0)  -->
<!DOCTYPE svg PUBLIC "-//W3C//DTD SVG 1.1//EN" "http://www.w3.org/Graphics/SVG/1.1/DTD/svg11.dtd">
<svg version="1.1" id="Calque_1" xmlns="http://www.w3.org/2000/svg" xmlns:xlink="http://www.w3.org/1999/xlink" x="0px" y="0px"
	 width="85.04px" height="85.04px" viewBox="0 0 85.04 85.04" enable-background="new 0 0 85.04 85.04" xml:space="preserve">
<g>
	<path fill="#AFDCDF" d="M68.186,8.779c-0.559-0.226-1.451-0.695-2.512-0.979c-1.059-0.3-2.496-0.799-3.956-0.923
		c-1.479-0.155-3.148-0.2-4.976-0.112c-1.78,0.144-3.592,0.523-5.529,1.023c-1.939,0.501-3.713,1.334-5.604,2.245
		c-1.85,0.944-3.533,2.115-5.221,3.399c-1.595,1.322-3.105,2.785-4.489,4.342c-1.29,1.597-2.573,3.242-3.56,4.996
		c-1.018,1.745-1.895,3.539-2.531,5.373c-1.358,3.632-1.9,7.374-1.957,10.706c0.005,1.688,0.104,3.255,0.313,4.698
		c0.183,1.429,0.542,2.753,0.818,3.819c0.113,0.504,0.269,0.981,0.424,1.405c0.271-0.569,0.568-1.176,0.897-1.833
		c1.641-3.254,4.032-7.49,6.827-11.456c1.394-1.988,2.919-3.875,4.41-5.582c0.787-0.82,1.551-1.611,2.271-2.357
		c0.771-0.697,1.502-1.354,2.173-1.959c0.724-0.547,1.39-1.043,1.977-1.487c0.565-0.468,1.158-0.741,1.601-1.021
		c0.904-0.537,1.42-0.842,1.42-0.842s-0.492,0.346-1.35,0.948c-0.419,0.319-0.977,0.628-1.502,1.137
		c-0.545,0.481-1.158,1.022-1.829,1.613c-0.614,0.65-1.28,1.351-1.986,2.095c-0.646,0.785-1.328,1.619-2.036,2.482
		c-1.332,1.792-2.673,3.753-3.877,5.801c-2.427,4.084-4.427,8.398-5.773,11.688c-0.208,0.51-0.396,0.98-0.571,1.432
		c-5.228,12.104-2.745,25.571-2.6,26.306l2.445-0.477c-0.034-0.173-2.583-13.981,2.881-25.72c0.797-0.256,1.651-0.527,2.522-0.883
		c1.281-0.489,2.651-1.069,4.031-1.729c1.4-0.652,2.767-1.417,4.168-2.22c1.396-0.798,2.72-1.713,4.033-2.654
		c1.278-0.981,2.548-1.969,3.696-3.066c1.14-1.125,2.288-2.179,3.281-3.4c2.041-2.34,3.783-4.842,5.2-7.484
		c0.739-1.244,1.353-2.691,1.953-4c0.608-1.301,1.124-2.74,1.636-4.062c0.517-1.299,0.998-2.612,1.422-3.894
		c0.463-1.319,0.861-2.467,1.199-3.412c0.378-0.94,0.623-1.923,0.841-2.501c0.198-0.653,0.303-0.997,0.303-0.997
		S68.761,9.04,68.186,8.779z"/>
</g>
</svg>
