<?xml version="1.0" encoding="utf-8"?>
<!-- Generator: Adobe Illustrator 16.0.0, SVG Export Plug-In . SVG Version: 6.00 Build 0)  -->
<!DOCTYPE svg PUBLIC "-//W3C//DTD SVG 1.1//EN" "http://www.w3.org/Graphics/SVG/1.1/DTD/svg11.dtd">
<svg version="1.1" id="Calque_1" xmlns="http://www.w3.org/2000/svg" xmlns:xlink="http://www.w3.org/1999/xlink" x="0px" y="0px"
	 width="85.04px" height="85.04px" viewBox="0 0 85.04 85.04" enable-background="new 0 0 85.04 85.04" xml:space="preserve">
<g>
	<g id="Layer_8_4_">
		<path fill="#EB6A5B" d="M28.358,33.129v2.196h31.58v-2.196h8.175v2.196h5.391c3.565,0,6.536-2.582,7.151-5.972V16.384H57.064
			v-5.704c0-0.742-0.603-1.345-1.344-1.345H34.966c-0.742,0-1.344,0.603-1.344,1.345v5.704H9.881V30.51
			c1.011,2.805,3.69,4.817,6.838,4.817h3.464v-2.196L28.358,33.129L28.358,33.129z M36.31,12.023h18.067v4.358H36.31V12.023z
			 M68.113,42.761v-5.644h5.391c2.906,0,5.492-1.381,7.151-3.514v32.056H9.881V33.984c1.664,1.913,4.11,3.132,6.838,3.132h3.464
			v5.644h8.175v-5.644h31.58v5.644H68.113z"/>
	</g>
</g>
</svg>
