<?xml version="1.0" encoding="utf-8"?>
<!-- Generator: Adobe Illustrator 16.0.0, SVG Export Plug-In . SVG Version: 6.00 Build 0)  -->
<!DOCTYPE svg PUBLIC "-//W3C//DTD SVG 1.1//EN" "http://www.w3.org/Graphics/SVG/1.1/DTD/svg11.dtd">
<svg version="1.1" id="Calque_1" xmlns="http://www.w3.org/2000/svg" xmlns:xlink="http://www.w3.org/1999/xlink" x="0px" y="0px"
	 width="85.04px" height="85.04px" viewBox="0 0 85.04 85.04" enable-background="new 0 0 85.04 85.04" xml:space="preserve">
<g>
	<path fill="#AFDCDF" d="M11.438,25.178c0-3.31,7.013-5.991,15.664-5.991c8.651,0,15.665,2.682,15.665,5.991
		c0,3.309-7.014,5.991-15.665,5.991C18.451,31.169,11.438,28.487,11.438,25.178z M63.067,19.767c8.651,0,15.665-2.682,15.665-5.992
		c0-3.31-7.014-5.992-15.665-5.992c-8.65,0-15.665,2.686-15.665,5.997C47.402,17.088,54.417,19.767,63.067,19.767z M63.062,25.156
		c8.652,0,15.664-2.682,15.664-5.992c0-0.465-0.152-0.917-0.42-1.355c-1.602,2.65-7.809,4.635-15.239,4.635
		s-13.638-1.984-15.253-4.635c-0.267,0.434-0.417,0.891-0.417,1.355C47.397,22.474,54.412,25.156,63.062,25.156z M63.062,31.429
		c8.652,0,15.664-2.683,15.664-5.992c0-0.466-0.152-0.918-0.42-1.356c-1.602,2.655-7.809,4.635-15.239,4.635
		s-13.638-1.98-15.253-4.635c-0.267,0.438-0.417,0.887-0.417,1.356C47.397,28.746,54.412,31.429,63.062,31.429z M27.102,36.555
		c8.651,0,15.665-2.686,15.665-5.991c0-0.466-0.153-0.917-0.421-1.357c-1.611,2.657-7.812,4.636-15.248,4.636
		s-13.638-1.979-15.249-4.636c-0.262,0.439-0.416,0.891-0.416,1.357C11.433,33.873,18.447,36.555,27.102,36.555z M27.102,40.114
		c-7.436,0-13.637-1.979-15.248-4.635c-0.263,0.435-0.416,0.892-0.416,1.356c-0.005,3.314,7.009,5.992,15.664,5.992
		c2.116,0,4.134-0.158,5.978-0.457c2.312-2.647,5.671-4.345,9.424-4.463c0.166-0.351,0.268-0.702,0.268-1.072
		c0-0.464-0.154-0.921-0.422-1.356C40.739,38.13,34.537,40.114,27.102,40.114z M11.854,41.975c-0.263,0.439-0.416,0.888-0.416,1.355
		c0,3.311,7.013,5.993,15.664,5.993c0.984,0,1.94-0.044,2.875-0.106c0.128-0.96,0.364-1.882,0.689-2.769
		c-1.146,0.105-2.334,0.162-3.564,0.162C19.667,46.606,13.46,44.626,11.854,41.975z M63.062,37.919
		c8.652,0,15.664-2.677,15.664-5.987c0-0.464-0.152-0.917-0.42-1.355c-1.602,2.654-7.809,4.635-15.239,4.635
		s-13.638-1.985-15.253-4.64c-0.267,0.439-0.417,0.891-0.417,1.356C47.397,35.238,54.412,37.919,63.062,37.919z M63.067,41.423
		c-7.431,0-13.638-1.979-15.253-4.641c-0.267,0.44-0.417,0.892-0.417,1.358c0,0.202,0.03,0.399,0.079,0.597
		c2.199,0.825,4.122,2.221,5.579,4.016c2.717,0.86,6.206,1.378,10.012,1.378c8.655,0,15.665-2.682,15.665-5.991
		c0-0.462-0.153-0.917-0.422-1.358C76.705,39.443,70.498,41.423,63.067,41.423z M63.067,47.91c-2.792,0-5.403-0.277-7.667-0.769
		c0.271,0.899,0.447,1.843,0.518,2.813c2.141,0.426,4.568,0.662,7.149,0.662c8.655,0,15.665-2.677,15.665-5.986
		c0-0.466-0.153-0.922-0.422-1.36C76.705,45.931,70.498,47.91,63.067,47.91z M42.854,40.57c-5.785,0-10.476,4.692-10.476,10.479
		c0,5.784,4.691,10.476,10.476,10.476c5.785,0,10.478-4.691,10.478-10.476C53.332,45.263,48.64,40.57,42.854,40.57z"/>
</g>
<g>
	<path fill="#FFFFFF" d="M47.634,55.158c-1.035,1.033-2.528,1.699-4.006,1.699c-2.41,0-4.392-1.448-5.101-3.547h-1.611v-0.947h1.39
		c-0.044-0.251-0.059-0.503-0.059-0.77c0-0.266,0.015-0.532,0.059-0.783h-1.39v-0.946h1.626c0.724-2.055,2.72-3.474,5.16-3.474
		c1.463,0,2.927,0.605,3.918,1.596l-1.006,1.272c-0.769-0.813-1.833-1.316-2.897-1.316c-1.419,0-2.646,0.769-3.268,1.922h3.712
		v0.946h-4.067c-0.043,0.251-0.074,0.503-0.074,0.77c0,0.266,0.03,0.532,0.088,0.783h4.052v0.947h-3.712
		c0.622,1.151,1.849,1.92,3.268,1.92c1.034,0,2.1-0.473,2.897-1.227L47.634,55.158z"/>
</g>
</svg>
