<?xml version="1.0" encoding="utf-8"?>
<!-- Generator: Adobe Illustrator 16.0.0, SVG Export Plug-In . SVG Version: 6.00 Build 0)  -->
<!DOCTYPE svg PUBLIC "-//W3C//DTD SVG 1.1//EN" "http://www.w3.org/Graphics/SVG/1.1/DTD/svg11.dtd">
<svg version="1.1" id="Calque_1" xmlns="http://www.w3.org/2000/svg" xmlns:xlink="http://www.w3.org/1999/xlink" x="0px" y="0px"
	 width="85.04px" height="85.04px" viewBox="0 0 85.04 85.04" enable-background="new 0 0 85.04 85.04" xml:space="preserve">
<path fill="#ED796B" d="M33.826,50.051l-28.411,18.3L4,73.034l5.423,0.969l28.639-16.242C38.062,57.761,33.588,54.846,33.826,50.051
	z"/>
<path fill="#EB6A5B" d="M34.909,54.342c-0.674-1.172-1.166-2.615-1.083-4.291l-28.411,18.3L4,73.034L34.909,54.342z"/>
<path fill="#ED796B" d="M46.729,58.356l29.296,16.847l4.809-0.891l-1.626-5.264L51.635,51.056
	C51.635,51.056,51.096,56.369,46.729,58.356z"/>
<path fill="#EB6A5B" d="M50.042,55.425c-0.73,1.137-1.788,2.237-3.313,2.932l29.296,16.847l4.809-0.891L50.042,55.425z"/>
<circle fill="#183356" cx="42.667" cy="50.358" r="9.156"/>
<path fill="#ED796B" d="M47.32,42.506L46.296,8.728L43.015,5.1l-3.628,4.146L38.53,42.157C38.53,42.157,43.335,39.83,47.32,42.506z"
	/>
<path fill="#EB6A5B" d="M43.087,41.221c1.35,0.027,2.841,0.35,4.233,1.285L46.296,8.728L43.015,5.1L43.087,41.221z"/>
<circle fill="#EB6A5B" cx="42.668" cy="50.358" r="3.11"/>
</svg>
