<?xml version="1.0" encoding="utf-8"?>
<!-- Generator: Adobe Illustrator 18.0.0, SVG Export Plug-In . SVG Version: 6.00 Build 0)  -->
<!DOCTYPE svg PUBLIC "-//W3C//DTD SVG 1.1//EN" "http://www.w3.org/Graphics/SVG/1.1/DTD/svg11.dtd">
<svg version="1.1" id="Calque_1" xmlns="http://www.w3.org/2000/svg" xmlns:xlink="http://www.w3.org/1999/xlink" x="0px" y="0px"
	 viewBox="0 0 54.3 66.3" enable-background="new 0 0 54.3 66.3" xml:space="preserve">
<polygon fill="#879AA8" stroke="#D0AA6D" stroke-width="3" stroke-miterlimit="10" points="30.6,8.8 37,20.5 43.4,32.1 30.6,32.1 
	17.6,32.1 24.1,20.5 "/>
<path fill="#F2F2F2" stroke="#D0AA6D" stroke-miterlimit="10" d="M14.3,27.1"/>
<rect x="11.9" y="23" fill="#F2F2F2" stroke="#D0AA6D" stroke-width="3" stroke-miterlimit="10" width="37.4" height="32.2"/>
<path fill="#002846" stroke="#002846" stroke-width="2.4668" stroke-miterlimit="10" d="M27.9,46.4c-0.7,0.3-2.1,0.7-3.9,0.7
	c-4.1,0-7.2-2.6-7.2-7.4c0-4.6,3.1-7.7,7.7-7.7c1.8,0,3,0.4,3.5,0.7l-0.5,1.5c-0.7-0.3-1.7-0.6-3-0.6c-3.5,0-5.7,2.2-5.7,6
	c0,3.6,2.1,5.9,5.6,5.9c1.2,0,2.4-0.2,3.1-0.6L27.9,46.4z"/>
<path fill="#002846" stroke="#002846" stroke-width="2.4668" stroke-miterlimit="10" d="M32.2,32.2v14.7h-1.9V32.2H32.2z"/>
<path fill="#002846" stroke="#002846" stroke-width="2.4668" stroke-miterlimit="10" d="M35.5,32.4c0.9-0.1,2.1-0.3,3.6-0.3
	c1.9,0,3.3,0.4,4.1,1.2c0.8,0.7,1.3,1.8,1.3,3.1c0,1.3-0.4,2.4-1.2,3.1c-1,1.1-2.6,1.6-4.5,1.6c-0.6,0-1.1,0-1.5-0.1v5.9h-1.9
	L35.5,32.4L35.5,32.4z M37.4,39.4c0.4,0.1,1,0.1,1.6,0.1c2.3,0,3.7-1.1,3.7-3.1c0-1.9-1.4-2.9-3.5-2.9c-0.8,0-1.4,0-1.8,0.1
	L37.4,39.4L37.4,39.4z"/>
<circle fill="#002846" stroke="#002846" stroke-width="2.4668" stroke-miterlimit="10" cx="30.5" cy="8.8" r="4.2"/>
<circle fill="#002846" stroke="#002846" stroke-width="3.884" stroke-miterlimit="10" cx="11.8" cy="54.9" r="6.6"/>
<g>
	<rect x="11.2" y="52" fill="#F2F2F2" width="1.4" height="6.2"/>
	<rect x="8.8" y="54.4" fill="#F2F2F2" width="6.2" height="1.4"/>
</g>
</svg>
