<?xml version="1.0" encoding="utf-8"?>
<!-- Generator: Adobe Illustrator 18.0.0, SVG Export Plug-In . SVG Version: 6.00 Build 0)  -->
<!DOCTYPE svg PUBLIC "-//W3C//DTD SVG 1.1//EN" "http://www.w3.org/Graphics/SVG/1.1/DTD/svg11.dtd">
<svg version="1.1" id="Calque_1" xmlns="http://www.w3.org/2000/svg" xmlns:xlink="http://www.w3.org/1999/xlink" x="0px" y="0px"
	 viewBox="-101.6 -48 1887.6 780" enable-background="new -101.6 -48 1887.6 780" xml:space="preserve">
<rect x="-101.6" y="-102.8" fill="#879AA8" width="1887.6" height="1177.9"/>
<rect x="-101.6" y="486.2" fill="#617C8E" width="1887.6" height="591.9"/>
<rect x="1414.9" y="709.3" display="none" fill="#526E7A" width="5.9" height="325.4"/>
<rect x="1432.6" y="709.3" display="none" fill="#526E7A" width="5.9" height="325.4"/>
<path display="none" fill="#526E7A" d="M1459.1,712c0,0.8-0.8,1.7-1.7,1.7h-282.3c-0.8,0-1.7-0.8-1.7-1.7v-16c0-0.8,0.6-1.7,1.7-1.7
	h282.5c0.8,0,1.7,0.6,1.7,1.7v16H1459.1z"/>
<rect x="1297.1" y="712.2" display="none" fill="#526E7A" width="39.8" height="343.1"/>
<rect x="1297.1" y="722.6" display="none" fill="#526E7A" width="39.8" height="26.5"/>
<path display="none" fill="#002033" d="M1241.2,667.7c0-0.6,0.2-1.1-0.4-1.1h-8c-0.6,0-1.9,0.2-1.9,1.1v12.8c0,0.8,1.3,0.8,1.9,0.8
	h8c0.6,0,0.4-0.2,0.4-0.8V667.7z"/>
<path display="none" fill="#D8AE73" d="M1428.2,623.5c0-20.6-18.9-39.3-40.4-39.3h-156.7c-21.5,0-38.5,18.5-38.5,39.3v9.5
	c0,20.6,17,36.6,38.5,36.6h156.7c21.5,0,40.4-16,40.4-36.6V623.5z"/>
<path display="none" fill="#002033" d="M1507.7,698.8c0,0.8-0.6,1.7-1.7,1.7h-282.3c-0.8,0-1.7-0.8-1.7-1.7v-16
	c0-0.8,0.6-1.7,1.7-1.7h282.5c0.8,0,1.7,0.8,1.7,1.7v16H1507.7z"/>
<path display="none" fill="#002033" d="M1329.5,668.3c0-0.8-0.6-1.7-1.7-1.7h-7.2c-0.8,0-1.7,0.8-1.7,1.7v13c0,0.8,0.8,1.7,1.7,1.7
	h7.2c0.8,0,1.7-0.8,1.7-1.7V668.3z"/>
<path display="none" fill="#002033" d="M1409.1,667.4c0-0.8-1.1-0.8-1.9-0.8h-7.6c-0.8,0-2.3-0.2-2.3,0.8v12.4
	c0,0.8,1.3,1.7,2.3,1.7h7.6c0.8,0,1.9-0.8,1.9-1.7V667.4z"/>
<path display="none" fill="#002033" d="M1498.9,668.3c0-0.8-0.6-1.7-1.7-1.7h-7.2c-0.8,0-1.7,0.8-1.7,1.7v13c0,0.8,0.6,1.7,1.7,1.7
	h7.2c0.8,0,1.7-0.8,1.7-1.7V668.3z"/>
<rect x="1308.9" y="584.1" display="none" fill="#CE9F51" width="197.3" height="85.4"/>
<path display="none" fill="#00131E" d="M1479.7,660.5c0,0.8-0.8,1.7-1.7,1.7h-35.1c-0.8,0-1.7-0.8-1.7-1.7v-23.3
	c0-0.8,0.6-1.7,1.7-1.7h35.1c0.8,0,1.7,0.6,1.7,1.7V660.5z"/>
<path display="none" fill="#002846" d="M1487.1,1024.6c-1.3,0-2.9-1.3-2.9-2.5V716.5c0-29.2-6.7-45-13-53.2
	c-6.5-8.8-13-10.9-13-10.9c-1.3-0.4-1.9-1.7-1.7-3.2c0.4-1.3,1.9-2.1,3.2-1.7c0.2,0.2,8,2.3,15.6,12.4c4.2,5.7,7.6,12.6,10.1,20.8
	c3.2,10.1,4.4,22.3,4.4,35.8v305.6C1490,1023.3,1488.3,1024.6,1487.1,1024.6z"/>
<path display="none" fill="#002846" d="M1473.8,658.4c0,0.8-0.8,0.8-1.7,0.8h-24.4c-0.8,0-1.9,0-1.9-0.8v-16c0-0.8,1.1-2.3,1.9-2.3
	h24.4c0.8,0,1.7,1.5,1.7,2.3V658.4z"/>
<rect x="1435.6" y="609.2" display="none" fill="#AD8140" width="42.7" height="17.7"/>
<rect x="1441.4" y="615.1" display="none" fill="#FFFFFF" width="11.8" height="5.9"/>
<rect x="1453.2" y="615.1" display="none" fill="#B2B2B2" width="26.5" height="5.9"/>
<path display="none" fill="#FFFFFF" d="M1508.3,1023.8c-0.8,0-2.1-0.6-2.1-1.5v-301c0-44-11.1-69.2-20.4-82.7
	c-10.1-14.5-20.4-18.7-20.4-18.7c-0.6-0.2-1.3-1.3-0.6-1.9c0.2-0.8,1.3-1.3,1.9-0.8c0.4,0.2,11.1,4.4,21.9,19.6
	c6.1,8.8,11.8,19.4,15.4,31.8c4.4,15.4,7.2,33,7.2,52.8v300.8C1510.6,1023.1,1509.4,1023.8,1508.3,1023.8z"/>
<polygon display="none" fill="#BFACA1" points="1423.8,652.1 1423.8,641.6 1414.9,641.6 1414.9,662.2 1423.4,662.2 1429.5,662.2 "/>
<polygon display="none" fill="#AB9486" points="1417.9,652.1 1417.9,641.6 1414.9,641.6 1414.9,662.2 1417.9,662.2 1424,662.2 "/>
<path display="none" fill="#1C1C1C" d="M1420.4,648.9c-1.1,0-1.7-0.8-1.7-1.7c0-1.1,0.8-1.7,1.7-1.7c1.1,0,1.7,0.8,1.7,1.7
	C1422.1,648.1,1421.5,648.9,1420.4,648.9z M1420.4,645.8c-0.8,0-1.3,0.6-1.3,1.3c0,0.8,0.6,1.3,1.3,1.3c0.6,0,1.3-0.6,1.3-1.3
	C1421.5,646.4,1421,645.8,1420.4,645.8z"/>
<path display="none" fill="#1C1C1C" d="M1424.6,659.5c-0.2,0-0.2,0-0.2-0.2l-2.1-3.8c-0.2-0.2,0-0.2,0.2-0.4c0.2-0.2,0.2,0,0.4,0.2
	l2.1,3.8C1425,659,1425,659.2,1424.6,659.5C1424.8,659.5,1424.6,659.5,1424.6,659.5z"/>
<rect x="1345.7" y="699" display="none" fill="#002D44" width="39.8" height="343.1"/>
<rect x="1345.7" y="699" display="none" fill="#002033" width="39.8" height="26.5"/>
<path display="none" fill="#002033" d="M1123.4,699.8c0-2.7-2.3-5.3-5-5.3H152.3c-2.7,0-5,2.3-5,5.3l0,0c0,2.7,2.3,5,5,5h966.1
	C1121.1,704.9,1123.4,702.6,1123.4,699.8L1123.4,699.8z"/>
<rect x="1314.8" y="588.6" display="none" fill="#002846" width="1.5" height="78"/>
<rect x="1319.2" y="588.6" display="none" fill="#002846" width="2.9" height="78"/>
<rect x="1325.1" y="588.6" display="none" fill="#002846" width="1.5" height="78"/>
<rect x="1329.5" y="588.6" display="none" fill="#002846" width="2.9" height="78"/>
<rect x="1335.4" y="588.6" display="none" fill="#002846" width="1.5" height="78"/>
<rect x="1339.8" y="588.6" display="none" fill="#002846" width="2.9" height="78"/>
<rect x="1345.7" y="588.6" display="none" fill="#002846" width="1.5" height="78"/>
<rect x="1350.2" y="588.6" display="none" fill="#002846" width="2.9" height="78"/>
<rect x="1356" y="588.6" display="none" fill="#002846" width="1.5" height="78"/>
<rect x="1360.5" y="588.6" display="none" fill="#002846" width="2.9" height="78"/>
<rect x="1366.4" y="588.6" display="none" fill="#002846" width="1.5" height="78"/>
<rect x="1370.8" y="588.6" display="none" fill="#002846" width="2.9" height="78"/>
<rect x="1376.7" y="588.6" display="none" fill="#002846" width="1.5" height="78"/>
<rect x="1381.1" y="588.6" display="none" fill="#002846" width="2.9" height="78"/>
<rect x="1387" y="588.6" display="none" fill="#002846" width="1.5" height="78"/>
<rect x="1391.4" y="588.6" display="none" fill="#002846" width="2.9" height="78"/>
<rect x="1397.3" y="588.6" display="none" fill="#002846" width="1.5" height="78"/>
<rect x="1401.7" y="588.6" display="none" fill="#002846" width="2.9" height="78"/>
<rect x="1407.6" y="588.6" display="none" fill="#002846" width="1.5" height="78"/>
<polyline display="none" fill="none" stroke="#1B1464" stroke-width="4.3759" stroke-linecap="round" stroke-linejoin="round" stroke-miterlimit="10" points="
	851.2,945.1 873.9,967.8 897.3,944.7 "/>
<g display="none">
	<path display="inline" fill="#002846" d="M-60.6,998.7c-0.8,0-1.7-0.2-2.7-0.2v-1.3c0.8,0.2,1.7,0.6,2.7,0.6c1.3,0,2.3-0.6,2.3-1.9
		c0-1.3-0.8-1.7-1.9-2.1l-1.1-0.6c-1.3-0.6-2.3-1.3-2.3-2.9c0-2.1,1.7-2.7,3.6-2.7c0.6,0,1.7,0.2,2.3,0.2v1.3
		c-0.8-0.2-1.7-0.4-2.5-0.4c-1.1,0-2.1,0.4-2.1,1.7c0,1.1,1.1,1.7,1.9,2.1l1.1,0.6c1.3,0.6,2.3,1.5,2.3,3.2
		C-56.6,997.9-58.5,998.7-60.6,998.7z"/>
	<path display="inline" fill="#002846" d="M-52.2,998.7c-2.3,0-3.2-1.9-3.2-4c0-2.1,0.6-4.2,3.2-4.2c2.3,0,3.2,1.9,3.2,4.2
		C-48.8,996.6-49.9,998.7-52.2,998.7z M-52.2,991.6c-1.7,0-1.9,1.9-1.9,3.2c0,1.3,0.2,3.2,1.9,3.2c1.7,0,1.9-1.9,1.9-3.2
		C-50.3,993.5-50.5,991.6-52.2,991.6z"/>
	<path display="inline" fill="#002846" d="M-42.5,998.5v-1.7l0,0c-0.2,1.3-1.1,1.9-2.3,1.9s-1.9-1.3-1.9-2.3v-5.5h1.1v4.2
		c0,0.8-0.2,2.5,1.3,2.5c1.5,0,2.1-2.3,2.1-3.8v-3.2h1.1v7.6L-42.5,998.5L-42.5,998.5z"/>
	<path display="inline" fill="#002846" d="M-37.7,995.4v3.2h-1.1v-7.6h1.1v1.5l0,0c0.4-1.3,1.3-1.7,2.5-1.7v1.3
		C-37,991.8-37.7,993.7-37.7,995.4z"/>
	<path display="inline" fill="#002846" d="M-29.7,993.3c0-0.8-0.4-1.7-1.3-1.7c-1.5,0-1.7,1.5-1.7,2.7c0,2.1,0.8,3.6,3.2,3.6
		c0.4,0,0.8,0,1.3-0.2v0.8c-0.6,0.2-1.1,0.2-1.7,0.2c-2.7,0-4-1.7-4-4.2c0-2.1,0.6-3.8,3.2-3.8c1.7,0,2.7,0.8,2.7,2.5L-29.7,993.3
		L-29.7,993.3z"/>
	<path display="inline" fill="#002846" d="M-26.1,993.9v0.4c0,1.7,0.8,3.4,2.7,3.4c0.6,0,1.1-0.2,1.5-0.2v0.8
		c-0.6,0.2-1.3,0.2-1.7,0.2c-2.7,0-3.8-1.7-3.8-4.2c0-2.1,0.6-3.8,2.9-3.8c1.7,0,2.7,1.3,2.7,2.9v0.4L-26.1,993.9L-26.1,993.9z
		 M-24.4,991.6c-0.8,0-1.5,0.6-1.7,1.5h3.2C-23,992.2-23.6,991.6-24.4,991.6z"/>
	<path display="inline" fill="#002846" d="M-15,992.4v-1.7h1.7v1.7H-15z M-15,998.5v-1.7h1.7v1.7H-15z"/>
	<path display="inline" fill="#002846" d="M-5.1,998.7c-0.8,0-1.7-0.2-2.7-0.2v-1.3c0.8,0.2,1.7,0.6,2.7,0.6c1.3,0,2.3-0.6,2.3-1.9
		c0-1.3-0.8-1.7-1.9-2.1l-1.1-0.6C-7,992.6-8,992-8,990.3c0-2.1,1.7-2.7,3.6-2.7c0.8,0,1.7,0.2,2.3,0.2v1.3
		c-0.6-0.2-1.7-0.4-2.5-0.4c-1.1,0-2.1,0.4-2.1,1.7c0,1.1,1.1,1.7,1.9,2.1l1.1,0.6c1.3,0.6,2.3,1.5,2.3,3.2
		C-1.1,997.9-3,998.7-5.1,998.7z"/>
	<path display="inline" fill="#002846" d="M0.6,988.8v-1.5h1.5v1.5H0.6z M0.8,998.5v-7.6h1.1v7.6H0.8z"/>
	<path display="inline" fill="#002846" d="M6.3,991.8v4.6c0,0.8,0.4,1.3,1.3,1.3c0.2,0,0.4,0,0.6-0.2v1.1c-0.2,0-0.6,0.2-1.1,0.2
		c-1.5,0-2.1-0.4-2.1-2.1v-5H3.8v-0.8H5v-1.7l1.1-0.6v2.5h2.1v0.8H6.3z"/>
	<path display="inline" fill="#002846" d="M10.7,993.9v0.4c0,1.7,0.8,3.4,2.7,3.4c0.6,0,1.1-0.2,1.5-0.2v0.8
		c-0.6,0.2-1.3,0.2-1.7,0.2c-2.7,0-3.8-1.7-3.8-4.2c0-2.1,0.6-3.8,2.9-3.8c1.7,0,2.7,1.3,2.7,2.9v0.4L10.7,993.9L10.7,993.9z
		 M12.4,991.6c-0.8,0-1.5,0.6-1.7,1.5h3.2C13.9,992.2,13.2,991.6,12.4,991.6z"/>
	<path display="inline" fill="#002846" d="M18.7,998.7c-0.6,0-1.5-0.2-2.1-0.2v-1.1c0.6,0.2,1.3,0.4,2.1,0.4c0.8,0,1.9-0.2,1.9-1.3
		c0-0.6-0.8-1.1-1.3-1.3l-0.8-0.4c-0.8-0.4-1.7-0.8-1.7-2.1c0-1.5,1.3-2.1,2.7-2.1c0.6,0,1.3,0.2,1.7,0.2v1.1
		c-0.6-0.2-1.3-0.2-1.7-0.2c-0.4,0-1.7,0.2-1.7,1.1c0,0.6,0.8,0.8,1.3,1.3l0.6,0.4c0.8,0.6,1.7,0.8,1.7,2.3
		C21.4,998.1,20.2,998.7,18.7,998.7z"/>
	<path display="inline" fill="#002846" d="M34.7,998.5h-1.3l-1.7-5.9l0,0l-1.7,5.9h-1.3l-1.9-7.6h1.1l1.5,6.1l0,0l1.9-6.1h0.8
		L34,997l0,0l1.3-6.1h1.1L34.7,998.5z"/>
	<path display="inline" fill="#002846" d="M39.3,993.9v0.4c0,1.7,0.8,3.4,2.7,3.4c0.6,0,1.1-0.2,1.5-0.2v0.8
		c-0.6,0.2-1.3,0.2-1.7,0.2c-2.7,0-3.8-1.7-3.8-4.2c0-2.1,0.6-3.8,2.9-3.8c1.7,0,2.7,1.3,2.7,2.9v0.4L39.3,993.9L39.3,993.9z
		 M41,991.6c-0.8,0-1.5,0.6-1.7,1.5h3.2C42.5,992.2,41.8,991.6,41,991.6z"/>
	<path display="inline" fill="#002846" d="M48.3,998.7c-2.3,0-2.9-1.5-2.9-3.4v-8h1.1v4.6l0,0c0.2-0.8,1.3-1.5,2.1-1.5
		c2.1,0,2.7,2.3,2.7,4.2C51.5,996.6,50.7,998.7,48.3,998.7z M48.3,991.6c-1.5,0-1.9,2.1-1.9,3.4s0.2,2.7,1.7,2.7
		c1.5,0,1.9-1.9,1.9-3.2C50.2,993.7,49.8,991.6,48.3,991.6z"/>
	<path display="inline" fill="#002846" d="M61.8,998.5v-1.3l0,0c-0.2,0.8-1.1,1.5-2.1,1.5c-2.3,0-2.7-2.1-2.7-4
		c0-1.7,0.6-4.2,2.7-4.2c1.1,0,1.7,0.4,2.1,1.5l0,0v-4.6h1.1v11.1H61.8L61.8,998.5z M60.1,991.6c-1.5,0-1.7,2.3-1.7,3.4
		s0.2,2.7,1.7,2.7c1.3,0,1.7-2.1,1.7-3.2C61.8,993.7,61.6,991.6,60.1,991.6z"/>
	<path display="inline" fill="#002846" d="M66.2,993.9v0.4c0,1.7,0.8,3.4,2.7,3.4c0.6,0,1.1-0.2,1.5-0.2v0.8
		c-0.6,0.2-1.3,0.2-1.7,0.2c-2.7,0-3.8-1.7-3.8-4.2c0-2.1,0.6-3.8,2.9-3.8c1.7,0,2.7,1.3,2.7,2.9v0.4L66.2,993.9L66.2,993.9z
		 M67.9,991.6c-0.8,0-1.5,0.6-1.7,1.5h3.2C69.4,992.2,68.8,991.6,67.9,991.6z"/>
	<path display="inline" fill="#002846" d="M74,998.7c-0.6,0-1.5-0.2-2.1-0.2v-1.1c0.6,0.2,1.3,0.4,2.1,0.4s1.9-0.2,1.9-1.3
		c0-0.6-0.8-1.1-1.3-1.3l-0.6-0.4c-0.8-0.4-1.7-0.8-1.7-2.1c0-1.5,1.3-2.1,2.7-2.1c0.6,0,1.3,0.2,1.7,0.2v1.1
		c-0.6-0.2-1.3-0.2-1.7-0.2c-0.6,0-1.7,0.2-1.7,1.1c0,0.6,0.8,0.8,1.3,1.3l0.6,0.4c0.8,0.6,1.7,0.8,1.7,2.3
		C77,998.1,75.7,998.7,74,998.7z"/>
	<path display="inline" fill="#002846" d="M86,998.7c-1.1,0-1.7-0.4-2.1-1.5l0,0v4.6h-1.1v-11.1h1.1v1.3l0,0
		c0.2-0.8,1.1-1.5,2.1-1.5c2.1,0,2.7,2.1,2.7,4C88.5,996.2,88.1,998.7,86,998.7z M85.8,991.6c-1.3,0-1.7,2.1-1.7,3.2
		c0,1.1,0.2,3.2,1.7,3.2s1.7-2.3,1.7-3.4C87.3,993.3,87.1,991.6,85.8,991.6z"/>
	<path display="inline" fill="#002846" d="M90.6,998.5v-11.1h1.1v11.1H90.6z"/>
	<path display="inline" fill="#002846" d="M98.4,998.5v-1.1l0,0c-0.4,0.8-1.5,1.3-2.3,1.3c-1.3,0-2.1-0.8-2.1-2.1
		c0-1.7,2.3-2.3,3.8-2.3c0.2,0,0.4,0,0.6,0v-0.2c0-1.3,0.2-2.3-1.5-2.3c-0.8,0-1.5,0.2-1.7,1.3H94c0-1.7,1.3-2.1,2.7-2.1
		c1.7,0,2.7,0.6,2.7,2.5v5.5h-1.1V998.5z M97.8,995.2c-1.1,0-2.5,0.4-2.5,1.7c0,0.6,0.4,1.3,1.1,1.3c0.6,0,1.5-0.4,1.7-1.3
		c0.2-0.6,0.2-0.8,0.2-1.7H97.8z"/>
	<path display="inline" fill="#002846" d="M103.7,991.8v4.6c0,0.8,0.4,1.3,1.3,1.3c0.2,0,0.4,0,0.8-0.2v1.1c-0.2,0-0.6,0.2-1.1,0.2
		c-1.5,0-2.3-0.4-2.3-2.1v-5h-1.3v-0.8h1.3v-1.7l1.1-0.6v2.5h2.1v0.8H103.7z"/>
	<path display="inline" fill="#002846" d="M108.1,993.9v0.4c0,1.7,0.8,3.4,2.7,3.4c0.6,0,1.1-0.2,1.5-0.2v0.8
		c-0.6,0.2-1.3,0.2-1.7,0.2c-2.7,0-3.8-1.7-3.8-4.2c0-2.1,0.8-3.8,2.9-3.8c1.7,0,2.7,1.3,2.7,2.9v0.4L108.1,993.9L108.1,993.9z
		 M109.8,991.6c-0.8,0-1.5,0.6-1.7,1.5h3.2C111.2,992.2,110.6,991.6,109.8,991.6z"/>
	<path display="inline" fill="#002846" d="M117.8,988.2c-1.7,0-1.7,1.3-1.7,2.7h2.3v0.8h-2.3v6.7H115v-6.7h-1.3v-0.8h1.3v-1.1
		c0-1.7,0.8-2.5,2.5-2.5c0.4,0,0.8,0,1.3,0.2v1.1C118.4,988.4,118.2,988.2,117.8,988.2z"/>
	<path display="inline" fill="#002846" d="M122.4,998.7c-2.3,0-3.2-1.9-3.2-4c0-2.1,0.8-4.2,3.2-4.2s3.2,1.9,3.2,4.2
		C125.3,996.6,124.7,998.7,122.4,998.7z M122.4,991.6c-1.7,0-1.9,1.9-1.9,3.2c0,1.3,0.2,3.2,1.9,3.2s1.9-1.9,1.9-3.2
		C124.3,993.5,123.9,991.6,122.4,991.6z"/>
	<path display="inline" fill="#002846" d="M128.7,995.4v3.2h-1.1v-7.6h1.1v1.5l0,0c0.4-1.3,1.3-1.7,2.5-1.7v1.3
		C129.3,991.8,128.7,993.7,128.7,995.4z"/>
	<path display="inline" fill="#002846" d="M140.9,998.5v-4.2c0-0.8,0.2-2.5-1.3-2.5c-1.5,0-1.9,2.5-1.9,3.8v3.2h-1.1v-4.2
		c0-0.8,0.2-2.5-1.3-2.5c-1.5,0-1.9,2.5-1.9,3.8v3.2h-1.1v-7.6h1.1v1.7l0,0c0.2-1.1,0.8-1.9,2.3-1.9c1.3,0,1.9,0.6,1.9,1.7l0,0
		c0.2-1.1,1.1-1.7,2.1-1.7c1.3,0,1.9,1.3,1.9,2.3v5.5h-1.1v-0.4H140.9z"/>
	<path display="inline" fill="#002846" d="M145.3,993.9v0.4c0,1.7,0.8,3.4,2.7,3.4c0.6,0,1.1-0.2,1.5-0.2v0.8
		c-0.6,0.2-1.3,0.2-1.7,0.2c-2.7,0-3.8-1.7-3.8-4.2c0-2.1,0.8-3.8,2.9-3.8c1.7,0,2.7,1.3,2.7,2.9v0.4L145.3,993.9L145.3,993.9z
		 M147,991.6c-0.8,0-1.5,0.6-1.7,1.5h3.2C148.5,992.2,147.8,991.6,147,991.6z"/>
	<path display="inline" fill="#002846" d="M153.3,998.7c-0.8,0-1.5-0.2-2.1-0.2v-1.1c0.6,0.2,1.3,0.4,2.1,0.4s1.9-0.2,1.9-1.3
		c0-0.6-0.8-1.1-1.3-1.3l-0.6-0.4c-0.8-0.4-1.7-0.8-1.7-2.1c0-1.5,1.3-2.1,2.7-2.1c0.6,0,1.3,0.2,1.7,0.2v1.1
		c-0.6-0.2-1.3-0.2-1.7-0.2c-0.4,0-1.7,0.2-1.7,1.1c0,0.6,0.8,0.8,1.3,1.3l0.6,0.4c0.8,0.6,1.7,0.8,1.7,2.3
		C156,998.1,154.8,998.7,153.3,998.7z"/>
	<path display="inline" fill="#002846" d="M161.7,993.5c0-2.3-0.2-6.7,2.9-7.4v0.8c-1.7,0.8-1.7,5-1.7,6.5c0,1.7-0.2,5.7,1.7,6.7
		v0.6C161.7,1000,161.7,996,161.7,993.5z"/>
	<path display="inline" fill="#002846" d="M167.8,998.7c-0.8,0-1.5-0.2-2.1-0.2v-1.1c0.6,0.2,1.3,0.4,2.1,0.4s1.9-0.2,1.9-1.3
		c0-0.6-0.8-1.1-1.3-1.3l-0.6-0.4c-0.8-0.4-1.7-0.8-1.7-2.1c0-1.5,1.3-2.1,2.7-2.1c0.6,0,1.3,0.2,1.7,0.2v1.1
		c-0.6-0.2-1.3-0.2-1.7-0.2c-0.4,0-1.7,0.2-1.7,1.1c0,0.6,0.8,0.8,1.3,1.3l0.6,0.4c0.8,0.6,1.7,0.8,1.7,2.3
		C170.8,998.1,169.5,998.7,167.8,998.7z"/>
	<path display="inline" fill="#002846" d="M176.4,998.5v-1.1l0,0c-0.4,0.8-1.5,1.3-2.3,1.3c-1.3,0-2.1-0.8-2.1-2.1
		c0-1.7,2.1-2.3,3.8-2.3c0.2,0,0.4,0,0.6,0v-0.2c0-1.3,0.2-2.3-1.5-2.3c-0.8,0-1.5,0.2-1.7,1.3H172c0-1.7,1.3-2.1,2.7-2.1
		c1.7,0,2.7,0.6,2.7,2.5v5.5h-1.1V998.5z M175.6,995.2c-1.1,0-2.5,0.4-2.5,1.7c0,0.6,0.4,1.3,1.1,1.3c0.8,0,1.5-0.4,1.7-1.3
		c0.2-0.6,0.2-0.8,0.2-1.7H175.6z"/>
	<path display="inline" fill="#002846" d="M184.2,998.5v-1.7l0,0c-0.2,1.3-1.1,1.9-2.3,1.9c-1.3,0-1.9-1.3-1.9-2.3v-5.5h1.1v4.2
		c0,0.8-0.2,2.5,1.3,2.5c1.5,0,2.3-2.3,2.3-3.8v-3.2h1.1v7.6L184.2,998.5L184.2,998.5z"/>
	<path display="inline" fill="#002846" d="M191.2,988.2c-1.7,0-1.7,1.3-1.7,2.7h2.3v0.8h-2.3v6.7h-0.8v-6.7h-1.3v-0.8h1.3v-1.1
		c0-1.7,0.8-2.5,2.5-2.5c0.4,0,0.8,0,1.3,0.2v1.1C192,988.4,191.6,988.2,191.2,988.2z"/>
	<path display="inline" fill="#002846" d="M206.9,998.5h-1.7l-2.7-9.5l0,0l-2.7,9.5h-1.5l-2.1-11.1h1.3l1.7,9.5l0,0l2.7-9.5h1.3
		l2.7,9.5l0,0l1.7-9.5h1.3L206.9,998.5z"/>
	<path display="inline" fill="#002846" d="M210.7,988.8v-1.5h1.5v1.5H210.7z M210.9,998.5v-7.6h1.1v7.6H210.9z"/>
	<path display="inline" fill="#002846" d="M216.2,998.7c-0.8,0-1.5-0.2-2.1-0.2v-1.1c0.6,0.2,1.3,0.4,2.1,0.4s1.9-0.2,1.9-1.3
		c0-0.6-0.8-1.1-1.3-1.3l-0.6-0.4c-0.8-0.4-1.7-0.8-1.7-2.1c0-1.5,1.3-2.1,2.7-2.1c0.6,0,1.3,0.2,1.7,0.2v1.1
		c-0.6-0.2-1.3-0.2-1.7-0.2c-0.4,0-1.7,0.2-1.7,1.1c0,0.6,0.8,0.8,1.3,1.3l0.6,0.4c0.8,0.6,1.7,0.8,1.7,2.3
		C219.1,998.1,217.7,998.7,216.2,998.7z"/>
	<path display="inline" fill="#002846" d="M221.5,993.9v0.4c0,1.7,0.8,3.4,2.7,3.4c0.6,0,1.1-0.2,1.5-0.2v0.8
		c-0.6,0.2-1.3,0.2-1.7,0.2c-2.7,0-3.8-1.7-3.8-4.2c0-2.1,0.6-3.8,2.9-3.8c1.7,0,2.7,1.3,2.7,2.9v0.4L221.5,993.9L221.5,993.9z
		 M223.1,991.6c-0.8,0-1.5,0.6-1.7,1.5h3.2C224.6,992.2,224,991.6,223.1,991.6z"/>
	<path display="inline" fill="#002846" d="M228.6,993.9v0.4c0,1.7,0.8,3.4,2.7,3.4c0.6,0,1.1-0.2,1.5-0.2v0.8
		c-0.6,0.2-1.3,0.2-1.7,0.2c-2.7,0-3.8-1.7-3.8-4.2c0-2.1,0.6-3.8,2.9-3.8c1.7,0,2.7,1.3,2.7,2.9v0.4L228.6,993.9L228.6,993.9z
		 M230.3,991.6c-0.8,0-1.5,0.6-1.7,1.5h3.2C231.8,992.2,231.3,991.6,230.3,991.6z"/>
	<path display="inline" fill="#002846" d="M239.1,998.5v-1.3l0,0c-0.2,0.8-1.1,1.5-2.1,1.5c-2.3,0-2.7-2.1-2.7-4
		c0-1.7,0.6-4.2,2.7-4.2c1.1,0,1.7,0.4,2.1,1.5l0,0v-4.6h1.1v11.1H239.1L239.1,998.5z M237.4,991.6c-1.5,0-1.7,2.3-1.7,3.4
		s0.2,2.7,1.7,2.7c1.3,0,1.7-2.1,1.7-3.2C239.1,993.7,238.9,991.6,237.4,991.6z"/>
	<path display="inline" fill="#002846" d="M242.1,1000.8v-0.8c1.7-0.8,1.7-5,1.7-6.7c0-1.7,0.2-5.7-1.7-6.5v-0.8
		c3.2,0.8,2.9,5,2.9,7.4C245,995.8,245,1000.2,242.1,1000.8z"/>
</g>
<g>
	<path fill="#002033" d="M678.3,49.3L676,47c-2.1,1.5-4.8,2.3-7.2,2.3c-7.4,0-13.5-5.7-13.5-13.3c0-7.4,6.1-13.3,13.5-13.3
		s13.5,6.1,13.5,13.3c0,3.8-1.5,7.2-4,9.5l4,3.8H678.3z M676,43.2c1.9-1.7,2.9-4.6,2.9-7.2c0-5.7-4.2-10.3-10.1-10.3
		c-6.1,0-10.1,4.6-10.1,10.3c0,5.9,4.6,10.3,10.1,10.3c1.7,0,3.6-0.4,5-1.5l-5.9-5.7h4L676,43.2z"/>
	<path fill="#002033" d="M688,23.2v14.9c0,4.2,1.3,8,6.1,8s6.1-3.8,6.1-8V23.2h3.2v16.2c0,5.7-3.6,9.9-9.3,9.9
		c-5.9,0-9.3-4.2-9.3-9.9V23.2C684.8,23.2,688,23.2,688,23.2z"/>
	<path fill="#002033" d="M708,23.2h13.7v2.9h-10.5v7.2h10.1v2.9h-10.1v9.5h10.5v2.9H708V23.2L708,23.2z"/>
	<path fill="#002033" d="M728.8,46h7.8v2.9h-10.9V23.2h3.2V46L728.8,46z"/>
	<path fill="#002033" d="M750.1,28.1c-0.8-1.7-2.1-2.3-4.2-2.3s-4.2,1.3-4.2,3.8c0,2.1,1.9,3.2,3.6,3.8l1.7,0.8
		c3.8,1.5,6.3,3.4,6.3,7.6c0,4.6-3.6,8-8.2,8c-4.2,0-7.4-3.2-8-7.2l3.2-0.6c0,2.7,2.1,4.8,5,4.8s4.6-2.3,4.6-5c0-2.7-2.3-4-4.4-4.8
		l-1.7-0.6c-2.9-1.3-5.7-2.9-5.7-6.5c0-4.2,3.8-6.5,7.6-6.5c2.7,0,5.3,1.3,6.5,3.8L750.1,28.1z"/>
	<path fill="#002033" d="M774.2,48.7h-5V27.4h-5.3v-4.2h15.4v4.2H774v21.2H774.2z"/>
	<path fill="#002033" d="M778.9,23.2h5.7l4.4,8.8l4.8-8.8h5.9l-8.2,13.9v11.8h-5V37.1L778.9,23.2z"/>
	<path fill="#002033" d="M806,48.7h-5V23.2h6.7c5.3,0,8.8,2.1,8.8,8c0,5.5-2.9,8.2-8.2,8.2h-2.5L806,48.7L806,48.7z M806,35h1.1
		c2.9,0,4.6-0.6,4.6-4c0-3.2-1.9-3.8-4.6-3.8h-0.8V35H806z"/>
	<path fill="#002033" d="M823.9,27.4v5.7h8v4.2h-8v7.2h8.2v4.2h-13.3V23.2h13.3v4.2H823.9z"/>
	<path fill="#002033" d="M847.4,28.9c-0.8-1.3-2.1-2.1-3.8-2.1c-1.7,0-3.2,1.3-3.2,2.9c0,4.2,10.1,2.5,10.1,11.1
		c0,5-3.2,8.6-8.4,8.6c-3.6,0-6.1-2.1-7.8-5l3.2-3.2c0.8,1.9,2.5,3.8,4.6,3.8c2.1,0,3.2-1.7,3.2-3.8c0-2.7-2.5-3.4-4.4-4.2
		c-3.2-1.3-5.7-2.9-5.7-6.9c0-4.2,3.2-7.6,7.6-7.6c2.1,0,5.5,1.3,6.9,2.7L847.4,28.9z"/>
	<path fill="#002033" d="M863.4,23.2h5.3c7.8,0,14.3,4.2,14.3,12.6c0,8.6-6.3,13-14.5,13h-5.3V23.2H863.4z M866.6,46h1.3
		c6.5,0,12-2.5,12-9.9c0-7.6-5.7-9.9-12-9.9h-1.3V46z"/>
	<path fill="#002033" d="M886.1,23.2h13.7v2.9h-10.5v7.2h10.1v2.9h-10.1v9.5h10.5v2.9h-13.7V23.2z"/>
	<path fill="#002033" d="M916.9,48.7h-3.2V23.2h3.8c7.8,0,10.3,2.7,10.3,7.4c0,5.5-4.2,7.6-9,7.6h-1.7v10.5H916.9z M916.9,35.2h1.1
		c3.2,0,6.7-0.6,6.7-4.6s-3.8-4.4-6.9-4.4h-0.8V35.2z"/>
	<path fill="#002033" d="M946.3,48.7h-3.8L934.9,38h-1.3v10.7h-3.2V23.2h3.8c2.1,0,4.6,0,6.7,1.3c2.1,1.3,3.4,3.8,3.4,6.1
		c0,3.8-2.5,6.7-6.1,7.2L946.3,48.7z M933.7,35.4h1.1c3.2,0,6.7-0.6,6.7-4.6c0-4-3.8-4.6-6.9-4.6h-0.8V35.4z"/>
	<path fill="#002033" d="M973.9,36.1c0,7.6-6.1,13.3-13.5,13.3s-13.5-5.7-13.5-13.3c0-7.4,6.1-13.3,13.5-13.3S973.9,28.7,973.9,36.1
		z M970.5,36.1c0-5.7-4.2-10.3-10.1-10.3s-10.1,4.6-10.1,10.3c0,5.9,4.6,10.3,10.1,10.3C965.9,46.4,970.5,41.7,970.5,36.1z"/>
	<path fill="#002033" d="M984.8,23.2v16.2c0,4.8-0.8,9.9-6.9,9.9c-1.5,0-2.7-0.4-4-1.3l1.7-2.7c0.8,0.6,1.7,0.8,2.5,0.8
		c3.8,0,3.6-4.2,3.6-6.9V23C981.4,23.2,984.8,23.2,984.8,23.2z"/>
	<path fill="#002033" d="M989.2,23.2h13.7v2.9h-10.5v7.2h10.1v2.9h-10.1v9.5h10.5v2.9h-13.7V23.2L989.2,23.2z"/>
	<path fill="#002033" d="M1013.8,48.7h-3.2V26.2h-6.1v-2.9h15.4v2.9h-6.1L1013.8,48.7L1013.8,48.7z"/>
	<path fill="#002033" d="M1033.6,28.1c-0.8-1.7-2.3-2.3-4.2-2.3c-2.1,0-4.2,1.3-4.2,3.8c0,2.1,1.9,3.2,3.6,3.8l1.7,0.8
		c3.8,1.5,6.3,3.4,6.3,7.6c0,4.6-3.6,8-8,8c-4.2,0-7.4-3.2-8-7.2l3.2-0.6c0,2.7,2.3,4.8,5,4.8c2.7,0,4.6-2.3,4.6-5
		c0-2.7-2.1-4-4.4-4.8l-1.7-0.6c-2.9-1.3-5.7-2.9-5.7-6.5c0-4.2,3.8-6.5,7.6-6.5c2.7,0,5.3,1.3,6.7,3.8L1033.6,28.1z"/>
	<path fill="#002033" d="M608.3,64.5v7.2h8.8v2.9h-8.8v12.6h-3.2V61.7h12.4v2.9L608.3,64.5L608.3,64.5z"/>
	<path fill="#002033" d="M624.1,87h-3.2V61.5h3.2V87z"/>
	<path fill="#002033" d="M628.5,60.5l19.1,20V61.5h3.2v26.7l-19.1-20v18.9h-3.2V60.5z"/>
	<path fill="#002033" d="M659.2,80.7l-2.9,6.3h-3.4l12.2-26.7L677.3,87h-3.4l-2.9-6.3H659.2z M664.9,67.4l-4.6,10.3h9L664.9,67.4z"
		/>
	<path fill="#002033" d="M679,60.5l19.1,20V61.5h3.2v26.7l-19.1-20v18.9H679V60.5z"/>
	<path fill="#002033" d="M724.6,66.4c-1.7-1.7-4.2-2.5-6.7-2.5c-5.7,0-10.1,4.6-10.1,10.5c0,5.7,4.2,10.3,10.1,10.3
		c2.5,0,4.8-0.8,6.7-2.7v3.8c-1.9,1.3-4.4,1.7-6.7,1.7c-7.2,0-13.3-5.7-13.3-13c0-7.6,6.1-13.5,13.5-13.5c2.3,0,4.6,0.6,6.5,1.7
		V66.4L724.6,66.4z"/>
	<path fill="#002033" d="M728.2,61.5h13.7v2.9h-10.5v7.2h10.1v2.9h-10.1v9.7h10.5v3.2h-13.7V61.5z"/>
	<path fill="#002033" d="M745.6,60.5l19.1,20V61.5h3.2v26.7l-19.1-20v18.9h-3.2V60.5z"/>
	<path fill="#002033" d="M779.3,87h-3.2V64.3H770v-2.9h15.4v2.9h-6.1V87L779.3,87z"/>
	<path fill="#002033" d="M801,84.2h7.8v2.9h-10.9V61.7h3.2V84.2L801,84.2z"/>
	<path fill="#002033" d="M810.8,61.5h13.7v2.9H814v7.2h10.1v2.9H814v9.7h10.5v3.2h-13.7V61.5z"/>
	<path fill="#002033" d="M839.7,66.4c-0.8-1.7-2.1-2.3-4.2-2.3c-2.1,0-4.2,1.3-4.2,3.8c0,2.1,1.9,3.2,3.6,3.8l1.7,0.6
		c3.8,1.5,6.3,3.4,6.3,7.6c0,4.6-3.6,8-8.2,8c-4.2,0-7.4-3.2-8-7.2l3.2-0.6c0,2.7,2.1,4.8,5,4.8s4.6-2.3,4.6-5s-2.3-4-4.4-4.8
		l-1.7-0.6c-2.9-1.3-5.7-2.9-5.7-6.5c0-4.2,3.8-6.7,7.6-6.7c2.7,0,5.3,1.3,6.5,3.8L839.7,66.4z"/>
	<path fill="#002033" d="M859.6,87h-3.2V61.5h3.8c7.8,0,10.3,2.7,10.3,7.4c0,5.5-4.2,7.6-9,7.6h-1.9V87z M859.6,73.5h1.1
		c3.2,0,6.7-0.6,6.7-4.6c0-4-3.8-4.4-6.9-4.4h-0.8V73.5z"/>
	<path fill="#002033" d="M876.3,84.2h7.8v2.9h-11.1V61.7h3.2v22.5H876.3z"/>
	<path fill="#002033" d="M889.7,80.7l-2.9,6.3h-3.4l12.2-26.7L907.8,87h-3.4l-2.9-6.3H889.7z M895.6,67.4L891,77.7h9L895.6,67.4z"/>
	<path fill="#002033" d="M914.1,87H911V64.3h-6.1v-2.9h15.4v2.9h-6.1V87z"/>
	<path fill="#002033" d="M922.7,61.5h13.7v2.9h-10.5v7.2H936v2.9h-10.1v9.7h10.5v3.2h-13.7V61.5z"/>
	<path fill="#002033" d="M943.6,64.5v7.2h8.8v2.9h-8.8v12.6h-3.2V61.7h12.4v2.9L943.6,64.5L943.6,64.5z"/>
	<path fill="#002033" d="M981.2,74.3c0,7.6-6.1,13.3-13.5,13.3c-7.4,0-13.5-5.7-13.5-13.3c0-7.4,6.1-13.3,13.5-13.3
		C975.3,60.9,981.2,67,981.2,74.3z M978.3,74.3c0-5.7-4.2-10.3-10.1-10.3c-6.1,0-10.1,4.6-10.1,10.3c0,5.9,4.6,10.3,10.1,10.3
		C973.6,84.7,978.3,80,978.3,74.3z"/>
	<path fill="#002033" d="M1000.4,87h-3.8L989,76.2h-1.3V87h-3.2V61.5h3.8c2.1,0,4.6,0,6.7,1.3c2.1,1.3,3.4,3.8,3.4,6.1
		c0,3.8-2.5,6.7-6.1,7.2L1000.4,87z M987.7,73.7h1.1c3.2,0,6.7-0.6,6.7-4.6c0-4-3.8-4.6-6.9-4.6h-0.8V73.7z"/>
	<path fill="#002033" d="M1007.3,70.1L1007.3,70.1l-3.2,17h-3.2l5.3-26.7l8.8,20.2l8.8-20.2l5.3,26.7h-3.2l-2.9-17l0,0l-7.6,17.5
		L1007.3,70.1z"/>
	<path fill="#002033" d="M1031.7,61.5h13.7v2.9h-10.5v7.2h10.1v2.9h-10.1v9.7h10.5v3.2h-13.7V61.5z"/>
	<path fill="#002033" d="M1060.7,66.4c-0.8-1.7-2.1-2.3-4.2-2.3c-2.1,0-4.2,1.3-4.2,3.8c0,2.1,1.9,3.2,3.6,3.8l1.7,0.6
		c3.8,1.5,6.3,3.4,6.3,7.6c0,4.6-3.6,8-8,8c-4.2,0-7.4-3.2-8-7.2l3.2-0.6c0,2.7,2.1,4.8,5,4.8s4.6-2.3,4.6-5s-2.1-4-4.4-4.8
		l-1.7-0.6c-2.9-1.3-5.7-2.9-5.7-6.5c0-4.2,3.8-6.7,7.6-6.7c2.7,0,5.3,1.3,6.7,3.8L1060.7,66.4z"/>
	<path fill="#002033" d="M1088.1,75.4c0.2,2.9-2.7,5.5-5.5,5.5c-2.9,0-5.5-2.3-5.5-5.5s2.1-4.2,4.2-5c2.1-0.6,4.2-1.3,4.2-3.6
		c0-1.9-1.3-2.9-3.2-2.9c-1.7,0-2.9,1.3-2.9,2.9c0,0.4,0.2,0.6,0.2,1.1h-3.2v-1.3c-0.2-3.4,2.9-5.7,6.1-5.7c3.4,0,6.1,2.5,6.1,6.1
		c0,1.7-0.6,3.2-1.7,4.2c-1.3,1.1-2.7,1.5-4.2,1.9c-1.3,0.4-2.5,1.1-2.5,2.5c0,1.3,1.1,2.5,2.3,2.5c1.5,0,2.5-1.3,2.3-2.7H1088.1
		L1088.1,75.4z M1084.5,85.7c0,1.1-0.8,1.9-1.9,1.9s-1.9-0.8-1.9-1.9c0-1.1,0.8-1.9,1.9-1.9C1083.7,83.6,1084.5,84.7,1084.5,85.7z"
		/>
</g>
</svg>
