<?xml version="1.0" encoding="utf-8"?>
<!-- Generator: Adobe Illustrator 18.0.0, SVG Export Plug-In . SVG Version: 6.00 Build 0)  -->
<!DOCTYPE svg PUBLIC "-//W3C//DTD SVG 1.1//EN" "http://www.w3.org/Graphics/SVG/1.1/DTD/svg11.dtd">
<svg version="1.1" id="Calque_1" xmlns="http://www.w3.org/2000/svg" xmlns:xlink="http://www.w3.org/1999/xlink" x="0px" y="0px"
	 viewBox="153.1 154.7 456.4 247.1" enable-background="new 153.1 154.7 456.4 247.1" xml:space="preserve">
<rect x="32" y="-1.4" fill="#879AA8" width="897.4" height="560"/>
<rect x="32" y="278.6" fill="#617C8E" width="897.4" height="281.4"/>
<rect x="753" y="408.8" display="none" fill="#526E7A" width="2.8" height="154.7"/>
<rect x="761.4" y="408.8" display="none" fill="#526E7A" width="2.8" height="154.7"/>
<path display="none" fill="#526E7A" d="M774,410.1c0,0.4-0.4,0.8-0.8,0.8H639c-0.4,0-0.8-0.4-0.8-0.8v-7.6c0-0.4,0.3-0.8,0.8-0.8
	h134.3c0.4,0,0.8,0.3,0.8,0.8V410.1z"/>
<rect x="697" y="410.2" display="none" fill="#526E7A" width="18.9" height="163.1"/>
<rect x="697" y="415.1" display="none" fill="#526E7A" width="18.9" height="12.6"/>
<path display="none" fill="#002033" d="M670.4,389c0-0.3,0.1-0.5-0.2-0.5h-3.8c-0.3,0-0.9,0.1-0.9,0.5v6.1c0,0.4,0.6,0.4,0.9,0.4
	h3.8c0.3,0,0.2-0.1,0.2-0.4V389z"/>
<path display="none" fill="#D8AE73" d="M759.3,368c0-9.8-9-18.7-19.2-18.7h-74.5c-10.2,0-18.3,8.8-18.3,18.7v4.5
	c0,9.8,8.1,17.4,18.3,17.4h74.5c10.2,0,19.2-7.6,19.2-17.4V368z"/>
<path display="none" fill="#002033" d="M797.1,403.8c0,0.4-0.3,0.8-0.8,0.8H662.1c-0.4,0-0.8-0.4-0.8-0.8v-7.6
	c0-0.4,0.3-0.8,0.8-0.8h134.3c0.4,0,0.8,0.4,0.8,0.8V403.8z"/>
<path display="none" fill="#002033" d="M712.4,389.3c0-0.4-0.3-0.8-0.8-0.8h-3.4c-0.4,0-0.8,0.4-0.8,0.8v6.2c0,0.4,0.4,0.8,0.8,0.8
	h3.4c0.4,0,0.8-0.4,0.8-0.8V389.3z"/>
<path display="none" fill="#002033" d="M750.2,388.9c0-0.4-0.5-0.4-0.9-0.4h-3.6c-0.4,0-1.1-0.1-1.1,0.4v5.9c0,0.4,0.6,0.8,1.1,0.8
	h3.6c0.4,0,0.9-0.4,0.9-0.8V388.9z"/>
<path display="none" fill="#002033" d="M792.9,389.3c0-0.4-0.3-0.8-0.8-0.8h-3.4c-0.4,0-0.8,0.4-0.8,0.8v6.2c0,0.4,0.3,0.8,0.8,0.8
	h3.4c0.4,0,0.8-0.4,0.8-0.8V389.3z"/>
<rect x="702.6" y="349.3" display="none" fill="#CE9F51" width="93.8" height="40.6"/>
<path display="none" fill="#00131E" d="M783.8,385.6c0,0.4-0.4,0.8-0.8,0.8h-16.7c-0.4,0-0.8-0.4-0.8-0.8v-11.1
	c0-0.4,0.3-0.8,0.8-0.8H783c0.4,0,0.8,0.3,0.8,0.8V385.6z"/>
<path display="none" fill="#002846" d="M787.3,558.7c-0.6,0-1.4-0.6-1.4-1.2V412.2c0-13.9-3.2-21.4-6.2-25.3
	c-3.1-4.2-6.2-5.2-6.2-5.2c-0.6-0.2-0.9-0.8-0.8-1.5c0.2-0.6,0.9-1,1.5-0.8c0.1,0.1,3.8,1.1,7.4,5.9c2,2.7,3.6,6,4.8,9.9
	c1.5,4.8,2.1,10.6,2.1,17v145.3C788.7,558.1,787.9,558.7,787.3,558.7z"/>
<path display="none" fill="#002846" d="M781,384.6c0,0.4-0.4,0.4-0.8,0.4h-11.6c-0.4,0-0.9,0-0.9-0.4V377c0-0.4,0.5-1.1,0.9-1.1
	h11.6c0.4,0,0.8,0.7,0.8,1.1V384.6z"/>
<rect x="762.8" y="361.2" display="none" fill="#AD8140" width="20.3" height="8.4"/>
<rect x="765.6" y="364" display="none" fill="#FFFFFF" width="5.6" height="2.8"/>
<rect x="771.2" y="364" display="none" fill="#B2B2B2" width="12.6" height="2.8"/>
<path display="none" fill="#FFFFFF" d="M797.4,558.3c-0.4,0-1-0.3-1-0.7V414.5c0-20.9-5.3-32.9-9.7-39.3c-4.8-6.9-9.7-8.9-9.7-8.9
	c-0.3-0.1-0.6-0.6-0.3-0.9c0.1-0.4,0.6-0.6,0.9-0.4c0.2,0.1,5.3,2.1,10.4,9.3c2.9,4.2,5.6,9.2,7.3,15.1c2.1,7.3,3.4,15.7,3.4,25.1
	v143C798.5,558,797.9,558.3,797.4,558.3z"/>
<polygon display="none" fill="#BFACA1" points="757.2,381.6 757.2,376.6 753,376.6 753,386.4 757,386.4 759.9,386.4 "/>
<polygon display="none" fill="#AB9486" points="754.4,381.6 754.4,376.6 753,376.6 753,386.4 754.4,386.4 757.3,386.4 "/>
<path display="none" fill="#1C1C1C" d="M755.6,380.1c-0.5,0-0.8-0.4-0.8-0.8c0-0.5,0.4-0.8,0.8-0.8c0.5,0,0.8,0.4,0.8,0.8
	C756.4,379.7,756.1,380.1,755.6,380.1z M755.6,378.6c-0.4,0-0.6,0.3-0.6,0.6c0,0.4,0.3,0.6,0.6,0.6c0.3,0,0.6-0.3,0.6-0.6
	C756.1,378.9,755.9,378.6,755.6,378.6z"/>
<path display="none" fill="#1C1C1C" d="M757.6,385.1c-0.1,0-0.1,0-0.1-0.1l-1-1.8c-0.1-0.1,0-0.1,0.1-0.2c0.1-0.1,0.1,0,0.2,0.1
	l1,1.8C757.8,384.9,757.8,385,757.6,385.1C757.7,385.1,757.6,385.1,757.6,385.1z"/>
<rect x="720.1" y="403.9" display="none" fill="#002D44" width="18.9" height="163.1"/>
<rect x="720.1" y="403.9" display="none" fill="#002033" width="18.9" height="12.6"/>
<path display="none" fill="#002033" d="M614.4,404.3c0-1.3-1.1-2.5-2.4-2.5H152.7c-1.3,0-2.4,1.1-2.4,2.5l0,0c0,1.3,1.1,2.4,2.4,2.4
	H612C613.3,406.7,614.4,405.6,614.4,404.3L614.4,404.3z"/>
<rect x="705.4" y="351.4" display="none" fill="#002846" width="0.7" height="37.1"/>
<rect x="707.5" y="351.4" display="none" fill="#002846" width="1.4" height="37.1"/>
<rect x="710.3" y="351.4" display="none" fill="#002846" width="0.7" height="37.1"/>
<rect x="712.4" y="351.4" display="none" fill="#002846" width="1.4" height="37.1"/>
<rect x="715.2" y="351.4" display="none" fill="#002846" width="0.7" height="37.1"/>
<rect x="717.3" y="351.4" display="none" fill="#002846" width="1.4" height="37.1"/>
<rect x="720.1" y="351.4" display="none" fill="#002846" width="0.7" height="37.1"/>
<rect x="722.2" y="351.4" display="none" fill="#002846" width="1.4" height="37.1"/>
<rect x="725" y="351.4" display="none" fill="#002846" width="0.7" height="37.1"/>
<rect x="727.1" y="351.4" display="none" fill="#002846" width="1.4" height="37.1"/>
<rect x="729.9" y="351.4" display="none" fill="#002846" width="0.7" height="37.1"/>
<rect x="732" y="351.4" display="none" fill="#002846" width="1.4" height="37.1"/>
<rect x="734.8" y="351.4" display="none" fill="#002846" width="0.7" height="37.1"/>
<rect x="736.9" y="351.4" display="none" fill="#002846" width="1.4" height="37.1"/>
<rect x="739.7" y="351.4" display="none" fill="#002846" width="0.7" height="37.1"/>
<rect x="741.8" y="351.4" display="none" fill="#002846" width="1.4" height="37.1"/>
<rect x="744.6" y="351.4" display="none" fill="#002846" width="0.7" height="37.1"/>
<rect x="746.7" y="351.4" display="none" fill="#002846" width="1.4" height="37.1"/>
<rect x="749.5" y="351.4" display="none" fill="#002846" width="0.7" height="37.1"/>
<polyline display="none" fill="none" stroke="#1B1464" stroke-width="4.3759" stroke-linecap="round" stroke-linejoin="round" stroke-miterlimit="10" points="
	485,520.9 495.8,531.7 506.9,520.7 "/>
<g display="none">
	<path display="inline" fill="#002846" d="M51.5,546.4c-0.4,0-0.8-0.1-1.3-0.1v-0.6c0.4,0.1,0.8,0.3,1.3,0.3c0.6,0,1.1-0.3,1.1-0.9
		c0-0.6-0.4-0.8-0.9-1l-0.5-0.3c-0.6-0.3-1.1-0.6-1.1-1.4c0-1,0.8-1.3,1.7-1.3c0.3,0,0.8,0.1,1.1,0.1v0.6c-0.4-0.1-0.8-0.2-1.2-0.2
		c-0.5,0-1,0.2-1,0.8c0,0.5,0.5,0.8,0.9,1l0.5,0.3c0.6,0.3,1.1,0.7,1.1,1.5C53.4,546,52.5,546.4,51.5,546.4z"/>
	<path display="inline" fill="#002846" d="M55.5,546.4c-1.1,0-1.5-0.9-1.5-1.9s0.3-2,1.5-2c1.1,0,1.5,0.9,1.5,2
		C57.1,545.4,56.6,546.4,55.5,546.4z M55.5,543c-0.8,0-0.9,0.9-0.9,1.5s0.1,1.5,0.9,1.5c0.8,0,0.9-0.9,0.9-1.5S56.3,543,55.5,543z"
		/>
	<path display="inline" fill="#002846" d="M60.1,546.3v-0.8l0,0c-0.1,0.6-0.5,0.9-1.1,0.9c-0.6,0-0.9-0.6-0.9-1.1v-2.6h0.5v2
		c0,0.4-0.1,1.2,0.6,1.2c0.7,0,1-1.1,1-1.8v-1.5h0.5v3.6L60.1,546.3L60.1,546.3z"/>
	<path display="inline" fill="#002846" d="M62.4,544.8v1.5h-0.5v-3.6h0.5v0.7l0,0c0.2-0.6,0.6-0.8,1.2-0.8v0.6
		C62.7,543.1,62.4,544,62.4,544.8z"/>
	<path display="inline" fill="#002846" d="M66.2,543.8c0-0.4-0.2-0.8-0.6-0.8c-0.7,0-0.8,0.7-0.8,1.3c0,1,0.4,1.7,1.5,1.7
		c0.2,0,0.4,0,0.6-0.1v0.4c-0.3,0.1-0.5,0.1-0.8,0.1c-1.3,0-1.9-0.8-1.9-2c0-1,0.3-1.8,1.5-1.8c0.8,0,1.3,0.4,1.3,1.2L66.2,543.8
		L66.2,543.8z"/>
	<path display="inline" fill="#002846" d="M67.9,544.1v0.2c0,0.8,0.4,1.6,1.3,1.6c0.3,0,0.5-0.1,0.7-0.1v0.4
		c-0.3,0.1-0.6,0.1-0.8,0.1c-1.3,0-1.8-0.8-1.8-2c0-1,0.3-1.8,1.4-1.8c0.8,0,1.3,0.6,1.3,1.4v0.2L67.9,544.1L67.9,544.1z M68.7,543
		c-0.4,0-0.7,0.3-0.8,0.7h1.5C69.4,543.3,69.1,543,68.7,543z"/>
	<path display="inline" fill="#002846" d="M73.2,543.4v-0.8H74v0.8H73.2z M73.2,546.3v-0.8H74v0.8H73.2z"/>
	<path display="inline" fill="#002846" d="M77.9,546.4c-0.4,0-0.8-0.1-1.3-0.1v-0.6c0.4,0.1,0.8,0.3,1.3,0.3c0.6,0,1.1-0.3,1.1-0.9
		c0-0.6-0.4-0.8-0.9-1l-0.5-0.3c-0.6-0.3-1.1-0.6-1.1-1.4c0-1,0.8-1.3,1.7-1.3c0.4,0,0.8,0.1,1.1,0.1v0.6c-0.3-0.1-0.8-0.2-1.2-0.2
		c-0.5,0-1,0.2-1,0.8c0,0.5,0.5,0.8,0.9,1l0.5,0.3c0.6,0.3,1.1,0.7,1.1,1.5C79.8,546,78.9,546.4,77.9,546.4z"/>
	<path display="inline" fill="#002846" d="M80.6,541.7V541h0.7v0.7H80.6z M80.7,546.3v-3.6h0.5v3.6H80.7z"/>
	<path display="inline" fill="#002846" d="M83.3,543.1v2.2c0,0.4,0.2,0.6,0.6,0.6c0.1,0,0.2,0,0.3-0.1v0.5c-0.1,0-0.3,0.1-0.5,0.1
		c-0.7,0-1-0.2-1-1v-2.4h-0.6v-0.4h0.6v-0.8l0.5-0.3v1.2h1v0.4H83.3z"/>
	<path display="inline" fill="#002846" d="M85.4,544.1v0.2c0,0.8,0.4,1.6,1.3,1.6c0.3,0,0.5-0.1,0.7-0.1v0.4
		c-0.3,0.1-0.6,0.1-0.8,0.1c-1.3,0-1.8-0.8-1.8-2c0-1,0.3-1.8,1.4-1.8c0.8,0,1.3,0.6,1.3,1.4v0.2L85.4,544.1L85.4,544.1z M86.2,543
		c-0.4,0-0.7,0.3-0.8,0.7h1.5C86.9,543.3,86.6,543,86.2,543z"/>
	<path display="inline" fill="#002846" d="M89.2,546.4c-0.3,0-0.7-0.1-1-0.1v-0.5c0.3,0.1,0.6,0.2,1,0.2c0.4,0,0.9-0.1,0.9-0.6
		c0-0.3-0.4-0.5-0.6-0.6l-0.4-0.2c-0.4-0.2-0.8-0.4-0.8-1c0-0.7,0.6-1,1.3-1c0.3,0,0.6,0.1,0.8,0.1v0.5c-0.3-0.1-0.6-0.1-0.8-0.1
		s-0.8,0.1-0.8,0.5c0,0.3,0.4,0.4,0.6,0.6l0.3,0.2c0.4,0.3,0.8,0.4,0.8,1.1C90.5,546.1,89.9,546.4,89.2,546.4z"/>
	<path display="inline" fill="#002846" d="M96.8,546.3h-0.6l-0.8-2.8l0,0l-0.8,2.8H94l-0.9-3.6h0.5l0.7,2.9l0,0l0.9-2.9h0.4l0.9,2.9
		l0,0l0.6-2.9h0.5L96.8,546.3z"/>
	<path display="inline" fill="#002846" d="M99,544.1v0.2c0,0.8,0.4,1.6,1.3,1.6c0.3,0,0.5-0.1,0.7-0.1v0.4c-0.3,0.1-0.6,0.1-0.8,0.1
		c-1.3,0-1.8-0.8-1.8-2c0-1,0.3-1.8,1.4-1.8c0.8,0,1.3,0.6,1.3,1.4v0.2L99,544.1L99,544.1z M99.8,543c-0.4,0-0.7,0.3-0.8,0.7h1.5
		C100.5,543.3,100.2,543,99.8,543z"/>
	<path display="inline" fill="#002846" d="M103.3,546.4c-1.1,0-1.4-0.7-1.4-1.6V541h0.5v2.2l0,0c0.1-0.4,0.6-0.7,1-0.7
		c1,0,1.3,1.1,1.3,2C104.8,545.4,104.4,546.4,103.3,546.4z M103.3,543c-0.7,0-0.9,1-0.9,1.6s0.1,1.3,0.8,1.3c0.7,0,0.9-0.9,0.9-1.5
		C104.2,544,104,543,103.3,543z"/>
	<path display="inline" fill="#002846" d="M109.7,546.3v-0.6l0,0c-0.1,0.4-0.5,0.7-1,0.7c-1.1,0-1.3-1-1.3-1.9c0-0.8,0.3-2,1.3-2
		c0.5,0,0.8,0.2,1,0.7l0,0V541h0.5v5.3L109.7,546.3L109.7,546.3z M108.9,543c-0.7,0-0.8,1.1-0.8,1.6c0,0.5,0.1,1.3,0.8,1.3
		c0.6,0,0.8-1,0.8-1.5C109.7,544,109.6,543,108.9,543z"/>
	<path display="inline" fill="#002846" d="M111.8,544.1v0.2c0,0.8,0.4,1.6,1.3,1.6c0.3,0,0.5-0.1,0.7-0.1v0.4
		c-0.3,0.1-0.6,0.1-0.8,0.1c-1.3,0-1.8-0.8-1.8-2c0-1,0.3-1.8,1.4-1.8c0.8,0,1.3,0.6,1.3,1.4v0.2L111.8,544.1L111.8,544.1z
		 M112.6,543c-0.4,0-0.7,0.3-0.8,0.7h1.5C113.3,543.3,113,543,112.6,543z"/>
	<path display="inline" fill="#002846" d="M115.5,546.4c-0.3,0-0.7-0.1-1-0.1v-0.5c0.3,0.1,0.6,0.2,1,0.2c0.4,0,0.9-0.1,0.9-0.6
		c0-0.3-0.4-0.5-0.6-0.6l-0.3-0.2c-0.4-0.2-0.8-0.4-0.8-1c0-0.7,0.6-1,1.3-1c0.3,0,0.6,0.1,0.8,0.1v0.5c-0.3-0.1-0.6-0.1-0.8-0.1
		c-0.3,0-0.8,0.1-0.8,0.5c0,0.3,0.4,0.4,0.6,0.6l0.3,0.2c0.4,0.3,0.8,0.4,0.8,1.1C116.9,546.1,116.3,546.4,115.5,546.4z"/>
	<path display="inline" fill="#002846" d="M121.2,546.4c-0.5,0-0.8-0.2-1-0.7l0,0v2.2h-0.5v-5.3h0.5v0.6l0,0c0.1-0.4,0.5-0.7,1-0.7
		c1,0,1.3,1,1.3,1.9C122.4,545.2,122.2,546.4,121.2,546.4z M121.1,543c-0.6,0-0.8,1-0.8,1.5c0,0.5,0.1,1.5,0.8,1.5s0.8-1.1,0.8-1.6
		C121.8,543.8,121.7,543,121.1,543z"/>
	<path display="inline" fill="#002846" d="M123.4,546.3V541h0.5v5.3H123.4z"/>
	<path display="inline" fill="#002846" d="M127.1,546.3v-0.5l0,0c-0.2,0.4-0.7,0.6-1.1,0.6c-0.6,0-1-0.4-1-1c0-0.8,1.1-1.1,1.8-1.1
		c0.1,0,0.2,0,0.3,0v-0.1c0-0.6,0.1-1.1-0.7-1.1c-0.4,0-0.7,0.1-0.8,0.6H125c0-0.8,0.6-1,1.3-1c0.8,0,1.3,0.3,1.3,1.2v2.6H127.1
		L127.1,546.3z M126.8,544.7c-0.5,0-1.2,0.2-1.2,0.8c0,0.3,0.2,0.6,0.5,0.6c0.3,0,0.7-0.2,0.8-0.6c0.1-0.3,0.1-0.4,0.1-0.8H126.8z"
		/>
	<path display="inline" fill="#002846" d="M129.6,543.1v2.2c0,0.4,0.2,0.6,0.6,0.6c0.1,0,0.2,0,0.4-0.1v0.5c-0.1,0-0.3,0.1-0.5,0.1
		c-0.7,0-1.1-0.2-1.1-1v-2.4h-0.6v-0.4h0.6v-0.8l0.5-0.3v1.2h1v0.4H129.6z"/>
	<path display="inline" fill="#002846" d="M131.7,544.1v0.2c0,0.8,0.4,1.6,1.3,1.6c0.3,0,0.5-0.1,0.7-0.1v0.4
		c-0.3,0.1-0.6,0.1-0.8,0.1c-1.3,0-1.8-0.8-1.8-2c0-1,0.4-1.8,1.4-1.8c0.8,0,1.3,0.6,1.3,1.4v0.2L131.7,544.1L131.7,544.1z
		 M132.5,543c-0.4,0-0.7,0.3-0.8,0.7h1.5C133.2,543.3,132.9,543,132.5,543z"/>
	<path display="inline" fill="#002846" d="M136.3,541.4c-0.8,0-0.8,0.6-0.8,1.3h1.1v0.4h-1.1v3.2H135v-3.2h-0.6v-0.4h0.6v-0.5
		c0-0.8,0.4-1.2,1.2-1.2c0.2,0,0.4,0,0.6,0.1v0.5C136.6,541.5,136.5,541.4,136.3,541.4z"/>
	<path display="inline" fill="#002846" d="M138.5,546.4c-1.1,0-1.5-0.9-1.5-1.9s0.4-2,1.5-2c1.1,0,1.5,0.9,1.5,2
		C139.9,545.4,139.6,546.4,138.5,546.4z M138.5,543c-0.8,0-0.9,0.9-0.9,1.5s0.1,1.5,0.9,1.5s0.9-0.9,0.9-1.5
		C139.4,543.9,139.2,543,138.5,543z"/>
	<path display="inline" fill="#002846" d="M141.5,544.8v1.5H141v-3.6h0.5v0.7l0,0c0.2-0.6,0.6-0.8,1.2-0.8v0.6
		C141.8,543.1,141.5,544,141.5,544.8z"/>
	<path display="inline" fill="#002846" d="M147.3,546.3v-2c0-0.4,0.1-1.2-0.6-1.2c-0.7,0-0.9,1.2-0.9,1.8v1.5h-0.5v-2
		c0-0.4,0.1-1.2-0.6-1.2c-0.7,0-0.9,1.2-0.9,1.8v1.5h-0.5v-3.6h0.5v0.8l0,0c0.1-0.5,0.4-0.9,1.1-0.9c0.6,0,0.9,0.3,0.9,0.8l0,0
		c0.1-0.5,0.5-0.8,1-0.8c0.6,0,0.9,0.6,0.9,1.1v2.6h-0.5V546.3z"/>
	<path display="inline" fill="#002846" d="M149.4,544.1v0.2c0,0.8,0.4,1.6,1.3,1.6c0.3,0,0.5-0.1,0.7-0.1v0.4
		c-0.3,0.1-0.6,0.1-0.8,0.1c-1.3,0-1.8-0.8-1.8-2c0-1,0.4-1.8,1.4-1.8c0.8,0,1.3,0.6,1.3,1.4v0.2L149.4,544.1L149.4,544.1z
		 M150.2,543c-0.4,0-0.7,0.3-0.8,0.7h1.5C150.9,543.3,150.6,543,150.2,543z"/>
	<path display="inline" fill="#002846" d="M153.2,546.4c-0.4,0-0.7-0.1-1-0.1v-0.5c0.3,0.1,0.6,0.2,1,0.2c0.4,0,0.9-0.1,0.9-0.6
		c0-0.3-0.4-0.5-0.6-0.6l-0.3-0.2c-0.4-0.2-0.8-0.4-0.8-1c0-0.7,0.6-1,1.3-1c0.3,0,0.6,0.1,0.8,0.1v0.5c-0.3-0.1-0.6-0.1-0.8-0.1
		s-0.8,0.1-0.8,0.5c0,0.3,0.4,0.4,0.6,0.6l0.3,0.2c0.4,0.3,0.8,0.4,0.8,1.1C154.5,546.1,153.9,546.4,153.2,546.4z"/>
	<path display="inline" fill="#002846" d="M157.2,543.9c0-1.1-0.1-3.2,1.4-3.5v0.4c-0.8,0.4-0.8,2.4-0.8,3.1c0,0.8-0.1,2.7,0.8,3.2
		v0.3C157.2,547,157.2,545.1,157.2,543.9z"/>
	<path display="inline" fill="#002846" d="M160.1,546.4c-0.4,0-0.7-0.1-1-0.1v-0.5c0.3,0.1,0.6,0.2,1,0.2c0.4,0,0.9-0.1,0.9-0.6
		c0-0.3-0.4-0.5-0.6-0.6l-0.3-0.2c-0.4-0.2-0.8-0.4-0.8-1c0-0.7,0.6-1,1.3-1c0.3,0,0.6,0.1,0.8,0.1v0.5c-0.3-0.1-0.6-0.1-0.8-0.1
		s-0.8,0.1-0.8,0.5c0,0.3,0.4,0.4,0.6,0.6l0.3,0.2c0.4,0.3,0.8,0.4,0.8,1.1C161.5,546.1,160.9,546.4,160.1,546.4z"/>
	<path display="inline" fill="#002846" d="M164.2,546.3v-0.5l0,0c-0.2,0.4-0.7,0.6-1.1,0.6c-0.6,0-1-0.4-1-1c0-0.8,1-1.1,1.8-1.1
		c0.1,0,0.2,0,0.3,0v-0.1c0-0.6,0.1-1.1-0.7-1.1c-0.4,0-0.7,0.1-0.8,0.6h-0.6c0-0.8,0.6-1,1.3-1c0.8,0,1.3,0.3,1.3,1.2v2.6H164.2
		L164.2,546.3z M163.8,544.7c-0.5,0-1.2,0.2-1.2,0.8c0,0.3,0.2,0.6,0.5,0.6c0.4,0,0.7-0.2,0.8-0.6c0.1-0.3,0.1-0.4,0.1-0.8H163.8z"
		/>
	<path display="inline" fill="#002846" d="M167.9,546.3v-0.8l0,0c-0.1,0.6-0.5,0.9-1.1,0.9c-0.6,0-0.9-0.6-0.9-1.1v-2.6h0.5v2
		c0,0.4-0.1,1.2,0.6,1.2c0.7,0,1.1-1.1,1.1-1.8v-1.5h0.5v3.6L167.9,546.3L167.9,546.3z"/>
	<path display="inline" fill="#002846" d="M171.2,541.4c-0.8,0-0.8,0.6-0.8,1.3h1.1v0.4h-1.1v3.2H170v-3.2h-0.6v-0.4h0.6v-0.5
		c0-0.8,0.4-1.2,1.2-1.2c0.2,0,0.4,0,0.6,0.1v0.5C171.6,541.5,171.4,541.4,171.2,541.4z"/>
	<path display="inline" fill="#002846" d="M178.7,546.3h-0.8l-1.3-4.5l0,0l-1.3,4.5h-0.7l-1-5.3h0.6l0.8,4.5l0,0l1.3-4.5h0.6
		l1.3,4.5l0,0l0.8-4.5h0.6L178.7,546.3z"/>
	<path display="inline" fill="#002846" d="M180.5,541.7V541h0.7v0.7H180.5z M180.6,546.3v-3.6h0.5v3.6H180.6z"/>
	<path display="inline" fill="#002846" d="M183.1,546.4c-0.4,0-0.7-0.1-1-0.1v-0.5c0.3,0.1,0.6,0.2,1,0.2c0.4,0,0.9-0.1,0.9-0.6
		c0-0.3-0.4-0.5-0.6-0.6l-0.3-0.2c-0.4-0.2-0.8-0.4-0.8-1c0-0.7,0.6-1,1.3-1c0.3,0,0.6,0.1,0.8,0.1v0.5c-0.3-0.1-0.6-0.1-0.8-0.1
		s-0.8,0.1-0.8,0.5c0,0.3,0.4,0.4,0.6,0.6l0.3,0.2c0.4,0.3,0.8,0.4,0.8,1.1C184.5,546.1,183.8,546.4,183.1,546.4z"/>
	<path display="inline" fill="#002846" d="M185.6,544.1v0.2c0,0.8,0.4,1.6,1.3,1.6c0.3,0,0.5-0.1,0.7-0.1v0.4
		c-0.3,0.1-0.6,0.1-0.8,0.1c-1.3,0-1.8-0.8-1.8-2c0-1,0.3-1.8,1.4-1.8c0.8,0,1.3,0.6,1.3,1.4v0.2L185.6,544.1L185.6,544.1z
		 M186.4,543c-0.4,0-0.7,0.3-0.8,0.7h1.5C187.1,543.3,186.8,543,186.4,543z"/>
	<path display="inline" fill="#002846" d="M189,544.1v0.2c0,0.8,0.4,1.6,1.3,1.6c0.3,0,0.5-0.1,0.7-0.1v0.4
		c-0.3,0.1-0.6,0.1-0.8,0.1c-1.3,0-1.8-0.8-1.8-2c0-1,0.3-1.8,1.4-1.8c0.8,0,1.3,0.6,1.3,1.4v0.2L189,544.1L189,544.1z M189.8,543
		c-0.4,0-0.7,0.3-0.8,0.7h1.5C190.5,543.3,190.3,543,189.8,543z"/>
	<path display="inline" fill="#002846" d="M194,546.3v-0.6l0,0c-0.1,0.4-0.5,0.7-1,0.7c-1.1,0-1.3-1-1.3-1.9c0-0.8,0.3-2,1.3-2
		c0.5,0,0.8,0.2,1,0.7l0,0V541h0.5v5.3L194,546.3L194,546.3z M193.2,543c-0.7,0-0.8,1.1-0.8,1.6c0,0.5,0.1,1.3,0.8,1.3
		c0.6,0,0.8-1,0.8-1.5C194,544,193.9,543,193.2,543z"/>
	<path display="inline" fill="#002846" d="M195.4,547.4V547c0.8-0.4,0.8-2.4,0.8-3.2c0-0.8,0.1-2.7-0.8-3.1v-0.4
		c1.5,0.4,1.4,2.4,1.4,3.5C196.8,545,196.8,547.1,195.4,547.4z"/>
</g>
<g display="none">
	<path display="inline" fill="#002033" d="M402.8,70.9l-1.1-1.1c-1,0.7-2.3,1.1-3.4,1.1c-3.5,0-6.4-2.7-6.4-6.3
		c0-3.5,2.9-6.3,6.4-6.3s6.4,2.9,6.4,6.3c0,1.8-0.7,3.4-1.9,4.5l1.9,1.8H402.8z M401.7,68c0.9-0.8,1.4-2.2,1.4-3.4
		c0-2.7-2-4.9-4.8-4.9c-2.9,0-4.8,2.2-4.8,4.9c0,2.8,2.2,4.9,4.8,4.9c0.8,0,1.7-0.2,2.4-0.7l-2.8-2.7h1.9L401.7,68z"/>
	<path display="inline" fill="#002033" d="M407.4,58.5v7.1c0,2,0.6,3.8,2.9,3.8c2.3,0,2.9-1.8,2.9-3.8v-7.1h1.5v7.7
		c0,2.7-1.7,4.7-4.4,4.7c-2.8,0-4.4-2-4.4-4.7v-7.7H407.4z"/>
	<path display="inline" fill="#002033" d="M416.9,58.5h6.5v1.4h-5v3.4h4.8v1.4h-4.8v4.5h5v1.4h-6.5L416.9,58.5L416.9,58.5z"/>
	<path display="inline" fill="#002033" d="M426.8,69.3h3.7v1.4h-5.2V58.5h1.5L426.8,69.3L426.8,69.3z"/>
	<path display="inline" fill="#002033" d="M436.9,60.8c-0.4-0.8-1-1.1-2-1.1c-1,0-2,0.6-2,1.8c0,1,0.9,1.5,1.7,1.8l0.8,0.4
		c1.8,0.7,3,1.6,3,3.6c0,2.2-1.7,3.8-3.9,3.8c-2,0-3.5-1.5-3.8-3.4l1.5-0.3c0,1.3,1,2.3,2.4,2.3s2.2-1.1,2.2-2.4
		c0-1.3-1.1-1.9-2.1-2.3l-0.8-0.3c-1.4-0.6-2.7-1.4-2.7-3.1c0-2,1.8-3.1,3.6-3.1c1.3,0,2.5,0.6,3.1,1.8L436.9,60.8z"/>
	<path display="inline" fill="#002033" d="M448.4,70.6H446V60.5h-2.5v-2h7.3v2h-2.5V70.6z"/>
	<path display="inline" fill="#002033" d="M450.6,58.5h2.7l2.1,4.2l2.3-4.2h2.8l-3.9,6.6v5.6h-2.4v-5.6L450.6,58.5z"/>
	<path display="inline" fill="#002033" d="M463.5,70.6h-2.4V58.5h3.2c2.5,0,4.2,1,4.2,3.8c0,2.6-1.4,3.9-3.9,3.9h-1.2L463.5,70.6
		L463.5,70.6z M463.5,64.1h0.5c1.4,0,2.2-0.3,2.2-1.9c0-1.5-0.9-1.8-2.2-1.8h-0.4V64.1z"/>
	<path display="inline" fill="#002033" d="M472,60.5v2.7h3.8v2H472v3.4h3.9v2h-6.3V58.5h6.3v2H472z"/>
	<path display="inline" fill="#002033" d="M483.2,61.2c-0.4-0.6-1-1-1.8-1s-1.5,0.6-1.5,1.4c0,2,4.8,1.2,4.8,5.3
		c0,2.4-1.5,4.1-4,4.1c-1.7,0-2.9-1-3.7-2.4l1.5-1.5c0.4,0.9,1.2,1.8,2.2,1.8c1,0,1.5-0.8,1.5-1.8c0-1.3-1.2-1.6-2.1-2
		c-1.5-0.6-2.7-1.4-2.7-3.3c0-2,1.5-3.6,3.6-3.6c1,0,2.6,0.6,3.3,1.3L483.2,61.2z"/>
	<path display="inline" fill="#002033" d="M490.8,58.5h2.5c3.7,0,6.8,2,6.8,6c0,4.1-3,6.2-6.9,6.2h-2.5V58.5z M492.3,69.3h0.6
		c3.1,0,5.7-1.2,5.7-4.7c0-3.6-2.7-4.7-5.7-4.7h-0.6V69.3z"/>
	<path display="inline" fill="#002033" d="M501.6,58.5h6.5v1.4h-5v3.4h4.8v1.4h-4.8v4.5h5v1.4h-6.5V58.5z"/>
	<path display="inline" fill="#002033" d="M516.2,70.6h-1.5V58.5h1.8c3.7,0,4.9,1.3,4.9,3.5c0,2.6-2,3.6-4.3,3.6h-0.8V70.6z
		 M516.2,64.2h0.5c1.5,0,3.2-0.3,3.2-2.2c0-1.9-1.8-2.1-3.3-2.1h-0.4V64.2z"/>
	<path display="inline" fill="#002033" d="M530.2,70.6h-1.8l-3.6-5.1h-0.6v5.1h-1.5V58.5h1.8c1,0,2.2,0,3.2,0.6
		c1,0.6,1.6,1.8,1.6,2.9c0,1.8-1.2,3.2-2.9,3.4L530.2,70.6z M524.2,64.3h0.5c1.5,0,3.2-0.3,3.2-2.2c0-1.9-1.8-2.2-3.3-2.2h-0.4V64.3
		z"/>
	<path display="inline" fill="#002033" d="M543.3,64.6c0,3.6-2.9,6.3-6.4,6.3s-6.4-2.7-6.4-6.3c0-3.5,2.9-6.3,6.4-6.3
		S543.3,61.1,543.3,64.6z M541.7,64.6c0-2.7-2-4.9-4.8-4.9s-4.8,2.2-4.8,4.9c0,2.8,2.2,4.9,4.8,4.9S541.7,67.3,541.7,64.6z"/>
	<path display="inline" fill="#002033" d="M548.5,58.5v7.7c0,2.3-0.4,4.7-3.3,4.7c-0.7,0-1.3-0.2-1.9-0.6l0.8-1.3
		c0.4,0.3,0.8,0.4,1.2,0.4c1.8,0,1.7-2,1.7-3.3v-7.7C546.9,58.5,548.5,58.5,548.5,58.5z"/>
	<path display="inline" fill="#002033" d="M550.6,58.5h6.5v1.4h-5v3.4h4.8v1.4h-4.8v4.5h5v1.4h-6.5L550.6,58.5L550.6,58.5z"/>
	<path display="inline" fill="#002033" d="M562.3,70.6h-1.5V59.9h-2.9v-1.4h7.3v1.4h-2.9V70.6L562.3,70.6z"/>
	<path display="inline" fill="#002033" d="M571.7,60.8c-0.4-0.8-1.1-1.1-2-1.1c-1,0-2,0.6-2,1.8c0,1,0.9,1.5,1.7,1.8l0.8,0.4
		c1.8,0.7,3,1.6,3,3.6c0,2.2-1.7,3.8-3.8,3.8c-2,0-3.5-1.5-3.8-3.4l1.5-0.3c0,1.3,1.1,2.3,2.4,2.3s2.2-1.1,2.2-2.4
		c0-1.3-1-1.9-2.1-2.3l-0.8-0.3c-1.4-0.6-2.7-1.4-2.7-3.1c0-2,1.8-3.1,3.6-3.1c1.3,0,2.5,0.6,3.2,1.8L571.7,60.8z"/>
	<path display="inline" fill="#002033" d="M369.5,78.1v3.4h4.2v1.4h-4.2v6h-1.5V76.8h5.9v1.4L369.5,78.1L369.5,78.1z"/>
	<path display="inline" fill="#002033" d="M377,88.8h-1.5V76.7h1.5V88.8z"/>
	<path display="inline" fill="#002033" d="M379.1,76.2l9.1,9.5v-9h1.5v12.7l-9.1-9.5v9h-1.5V76.2z"/>
	<path display="inline" fill="#002033" d="M393.7,85.8l-1.4,3h-1.6l5.8-12.7l5.8,12.7h-1.6l-1.4-3H393.7z M396.4,79.5l-2.2,4.9h4.3
		L396.4,79.5z"/>
	<path display="inline" fill="#002033" d="M403.1,76.2l9.1,9.5v-9h1.5v12.7l-9.1-9.5v9h-1.5V76.2z"/>
	<path display="inline" fill="#002033" d="M424.8,79c-0.8-0.8-2-1.2-3.2-1.2c-2.7,0-4.8,2.2-4.8,5c0,2.7,2,4.9,4.8,4.9
		c1.2,0,2.3-0.4,3.2-1.3v1.8c-0.9,0.6-2.1,0.8-3.2,0.8c-3.4,0-6.3-2.7-6.3-6.2c0-3.6,2.9-6.4,6.4-6.4c1.1,0,2.2,0.3,3.1,0.8
		L424.8,79L424.8,79z"/>
	<path display="inline" fill="#002033" d="M426.5,76.7h6.5v1.4h-5v3.4h4.8v1.4H428v4.6h5V89h-6.5V76.7z"/>
	<path display="inline" fill="#002033" d="M434.8,76.2l9.1,9.5v-9h1.5v12.7l-9.1-9.5v9h-1.5V76.2z"/>
	<path display="inline" fill="#002033" d="M450.8,88.8h-1.5V78h-2.9v-1.4h7.3V78h-2.9L450.8,88.8L450.8,88.8z"/>
	<path display="inline" fill="#002033" d="M461.1,87.5h3.7v1.4h-5.2V76.8h1.5L461.1,87.5L461.1,87.5z"/>
	<path display="inline" fill="#002033" d="M465.8,76.7h6.5v1.4h-5v3.4h4.8v1.4h-4.8v4.6h5V89h-6.5V76.7z"/>
	<path display="inline" fill="#002033" d="M479.5,79c-0.4-0.8-1-1.1-2-1.1c-1,0-2,0.6-2,1.8c0,1,0.9,1.5,1.7,1.8l0.8,0.3
		c1.8,0.7,3,1.6,3,3.6c0,2.2-1.7,3.8-3.9,3.8c-2,0-3.5-1.5-3.8-3.4l1.5-0.3c0,1.3,1,2.3,2.4,2.3s2.2-1.1,2.2-2.4
		c0-1.3-1.1-1.9-2.1-2.3l-0.8-0.3c-1.4-0.6-2.7-1.4-2.7-3.1c0-2,1.8-3.2,3.6-3.2c1.3,0,2.5,0.6,3.1,1.8L479.5,79z"/>
	<path display="inline" fill="#002033" d="M489,88.8h-1.5V76.7h1.8c3.7,0,4.9,1.3,4.9,3.5c0,2.6-2,3.6-4.3,3.6H489V88.8z M489,82.4
		h0.5c1.5,0,3.2-0.3,3.2-2.2c0-1.9-1.8-2.1-3.3-2.1H489V82.4z"/>
	<path display="inline" fill="#002033" d="M496.9,87.5h3.7v1.4h-5.3V76.8h1.5V87.5z"/>
	<path display="inline" fill="#002033" d="M503.3,85.8l-1.4,3h-1.6l5.8-12.7l5.8,12.7h-1.6l-1.4-3H503.3z M506.1,79.5l-2.2,4.9h4.3
		L506.1,79.5z"/>
	<path display="inline" fill="#002033" d="M514.9,88.8h-1.5V78h-2.9v-1.4h7.3V78h-2.9V88.8z"/>
	<path display="inline" fill="#002033" d="M519,76.7h6.5v1.4h-5v3.4h4.8v1.4h-4.8v4.6h5V89H519V76.7z"/>
	<path display="inline" fill="#002033" d="M528.9,78.1v3.4h4.2v1.4h-4.2v6h-1.5V76.8h5.9v1.4L528.9,78.1L528.9,78.1z"/>
	<path display="inline" fill="#002033" d="M546.8,82.8c0,3.6-2.9,6.3-6.4,6.3s-6.4-2.7-6.4-6.3c0-3.5,2.9-6.3,6.4-6.3
		C544,76.4,546.8,79.3,546.8,82.8z M545.4,82.8c0-2.7-2-4.9-4.8-4.9c-2.9,0-4.8,2.2-4.8,4.9c0,2.8,2.2,4.9,4.8,4.9
		S545.4,85.5,545.4,82.8z"/>
	<path display="inline" fill="#002033" d="M555.9,88.8h-1.8l-3.6-5.1h-0.6v5.1h-1.5V76.7h1.8c1,0,2.2,0,3.2,0.6
		c1,0.6,1.6,1.8,1.6,2.9c0,1.8-1.2,3.2-2.9,3.4L555.9,88.8z M549.9,82.5h0.5c1.5,0,3.2-0.3,3.2-2.2c0-1.9-1.8-2.2-3.3-2.2h-0.4V82.5
		z"/>
	<path display="inline" fill="#002033" d="M559.2,80.8L559.2,80.8l-1.5,8.1h-1.5l2.5-12.7l4.2,9.6l4.2-9.6l2.5,12.7h-1.5l-1.4-8.1
		l0,0l-3.6,8.3L559.2,80.8z"/>
	<path display="inline" fill="#002033" d="M570.8,76.7h6.5v1.4h-5v3.4h4.8v1.4h-4.8v4.6h5V89h-6.5V76.7z"/>
	<path display="inline" fill="#002033" d="M584.6,79c-0.4-0.8-1-1.1-2-1.1c-1,0-2,0.6-2,1.8c0,1,0.9,1.5,1.7,1.8l0.8,0.3
		c1.8,0.7,3,1.6,3,3.6c0,2.2-1.7,3.8-3.8,3.8c-2,0-3.5-1.5-3.8-3.4l1.5-0.3c0,1.3,1,2.3,2.4,2.3s2.2-1.1,2.2-2.4
		c0-1.3-1-1.9-2.1-2.3l-0.8-0.3c-1.4-0.6-2.7-1.4-2.7-3.1c0-2,1.8-3.2,3.6-3.2c1.3,0,2.5,0.6,3.2,1.8L584.6,79z"/>
	<path display="inline" fill="#002033" d="M597.6,83.3c0.1,1.4-1.3,2.6-2.6,2.6c-1.4,0-2.6-1.1-2.6-2.6c0-1.5,1-2,2-2.4
		c1-0.3,2-0.6,2-1.7c0-0.9-0.6-1.4-1.5-1.4c-0.8,0-1.4,0.6-1.4,1.4c0,0.2,0.1,0.3,0.1,0.5h-1.5v-0.6c-0.1-1.6,1.4-2.7,2.9-2.7
		c1.6,0,2.9,1.2,2.9,2.9c0,0.8-0.3,1.5-0.8,2c-0.6,0.5-1.3,0.7-2,0.9c-0.6,0.2-1.2,0.5-1.2,1.2c0,0.6,0.5,1.2,1.1,1.2
		c0.7,0,1.2-0.6,1.1-1.3L597.6,83.3L597.6,83.3z M595.9,88.2c0,0.5-0.4,0.9-0.9,0.9c-0.5,0-0.9-0.4-0.9-0.9c0-0.5,0.4-0.9,0.9-0.9
		C595.5,87.2,595.9,87.7,595.9,88.2z"/>
</g>
</svg>
