<?xml version="1.0" encoding="utf-8"?>
<!-- Generator: Adobe Illustrator 18.0.0, SVG Export Plug-In . SVG Version: 6.00 Build 0)  -->
<!DOCTYPE svg PUBLIC "-//W3C//DTD SVG 1.1//EN" "http://www.w3.org/Graphics/SVG/1.1/DTD/svg11.dtd">
<svg version="1.1" id="Calque_1" xmlns="http://www.w3.org/2000/svg" xmlns:xlink="http://www.w3.org/1999/xlink" x="0px" y="0px"
	 viewBox="0 0 244.9 535" enable-background="new 0 0 244.9 535" xml:space="preserve">
<ellipse fill="#B7B4AE" cx="86.2" cy="519.9" rx="85.7" ry="15.1"/>
<g>
	<path fill="#AB9486" d="M74.3,292c0.9,1.9,0.4,4-1,4.6l0,0c-1.4,0.7-3.3-0.3-4.2-2.2l-2.8-5.9c-0.9-1.9-0.4-4,1-4.6l0,0
		c1.4-0.7,3.3,0.3,4.2,2.2L74.3,292z"/>
	<path fill="#AB9486" d="M52.3,316.9c2,6.1,8.8,9.3,15.3,7.1l0,0c6.5-2.2,10-8.8,7.9-14.9l-7.2-21.5c-2-6.1-8.8-9.3-15.3-7.1l0,0
		c-6.5,2.2-10,8.8-7.9,14.9L52.3,316.9z"/>
	<path opacity="0.5" fill="#897567" d="M53.5,280.2c-6.5,2.2-10,8.8-7.9,14.9l2.9,8.5l22.5-10l-2.1-6.3
		C66.8,281.2,60,278,53.5,280.2z"/>
	<g>
		<path fill="#897567" d="M65.7,297.5c-0.3,0.1-0.5,0.5-0.4,0.8l7.5,22.5c0.3-0.4,0.7-0.7,0.9-1.1l-7.3-21.7
			C66.4,297.6,66.1,297.4,65.7,297.5z"/>
		<path fill="#897567" d="M59.2,299.7c-0.3,0.1-0.5,0.5-0.4,0.8l8,23.8c0.3-0.1,0.6-0.2,0.9-0.3c0.1,0,0.2-0.1,0.3-0.1l-8-23.8
			C59.9,299.7,59.5,299.6,59.2,299.7z"/>
		<path fill="#897567" d="M52.6,301.9c-0.3,0.1-0.5,0.5-0.4,0.8l7.1,21.3c0.5,0.2,1,0.3,1.5,0.4l-7.4-22.1
			C53.3,301.9,53,301.8,52.6,301.9z"/>
	</g>
	<path fill="#2B2B2B" d="M152.9,232.7"/>
	<path fill="#2B2B2B" d="M145.9,232.7"/>
	<rect x="77" y="492" fill="#FFFFFF" width="12" height="11"/>
	<rect x="150" y="493" fill="#FFFFFF" width="11" height="10"/>
	<rect x="76" y="282" fill="#002846" width="88" height="19"/>
	<rect x="147" y="282" fill="#002033" width="18" height="215"/>
	<rect x="74" y="282" fill="#002846" width="17" height="215"/>
	<polygon fill="#AB9486" points="47.3,286 44.6,279.5 55.2,274.5 58,280.6 	"/>
	<rect x="103" y="115" fill="#AB9486" width="31" height="17"/>
	<circle fill="#AB9486" cx="63" cy="85" r="9.7"/>
	<path fill="#AB9486" d="M152.5,23.7l-34.1-7.6l-34.1,7.6L66,52.2v33.6c0,0,2.8,32.3,52.5,32.3c49.7,0,52.5-32.3,52.5-32.3V52.2
		L152.5,23.7z"/>
	<g>
		<path fill="#897567" d="M152.2,23.7L118,16.2v58.4v19.6V118c53,0,53-32.8,53-32.8V52L152.2,23.7z"/>
	</g>
	<circle fill="#897567" cx="173" cy="85" r="9.7"/>
	<g>
		<path fill="#99A9B5" d="M177,184.8c0-29.9-24.5-53.8-54.5-53.8h-9.1C83.5,131,58,154.8,58,184.8V287h119V184.8z"/>
	</g>
	<path fill="none" stroke="#828282" stroke-width="0.6551" stroke-miterlimit="10" d="M118.3,145.9"/>
	<g>
		<g>
			<path fill="#AFAFAF" d="M46.6,144.6c1.3,0,1.3-2,0-2C45.3,142.6,45.3,144.6,46.6,144.6L46.6,144.6z"/>
		</g>
	</g>
	<path fill="#99A9B5" d="M43.9,281.5c-7.9-19-11.6-37.3-11-54.4c0.5-13.9,3.8-27.1,9.8-39.2c10.3-20.6,25.1-30.7,25.7-31.2l8.4,12.5
		l0,0c-0.1,0.1-12.5,8.8-21,26.1c-11.3,23.1-10.7,50.2,1.9,80.4L43.9,281.5z"/>
	<path d="M147.3,499.7c0,0,5.5,8.1,14.9-0.1l37.3,13.5c0,0,4.9,0.4,4.9,8h-58.9L147.3,499.7z"/>
	<path d="M90.9,499.7c0,0-5.5,8.1-14.8-0.1L51.9,513c0,0-4.9,0.4-4.9,8h45.7L90.9,499.7z"/>
	<rect x="73.2" y="287" width="91.7" height="0"/>
	<polygon fill="#002033" points="147,299.6 135,287 147,287 	"/>
	<path fill="#002033" d="M135.5,2.3c-40.9-8.5-45,14.8-45,14.8S64,10.1,64,48.2V78h0.2l-0.1,1.4c0,0-2.9,39,55,39
		c0,0,53.8,1.9,53.8-39.1c0-0.3,0-1.3,0-1.3h1.1V40C174,40,176.3,10.8,135.5,2.3z"/>
	
		<rect x="141.7" y="71.2" transform="matrix(0.692 -0.7219 0.7219 0.692 -11.6523 130.8204)" fill="#AB9486" width="11.6" height="15.7"/>
	<path fill="#99A9B5" d="M232.6,194.2c-1.3,0-2.8-0.1-4.3-0.4c-3.2-0.6-5.9-1.6-6.2-1.7l-0.2-0.1l-69.1-28.4l5.7-13.9l68.9,28.3
		c-9.5-15.1-64.1-72.4-84.8-93.7l10.8-10.5c7.9,8.1,77.7,80.1,87.7,97.8c2,3.5,3.1,6.4,3.5,9.1c0.8,4.7-0.9,7.8-2.4,9.6
		C240,192.9,236.8,194.2,232.6,194.2z"/>
	<rect x="100" y="126" fill="#7A8E99" width="36" height="9"/>
	<rect x="100" y="132" fill="#BCBCBC" width="36" height="2"/>
	<path fill="#001621" d="M112.1,40.7c-0.4,0-0.7-0.2-0.8-0.6c-0.1-0.5,0.1-1,0.6-1.1c4.8-1.4,17.2-6.5,16.8-12.5
		c0-0.5,0.3-0.9,0.8-0.9c0.5,0,0.9,0.3,1,0.8l1.5,11.1c0.1,0.5-0.3,0.9-0.8,1c-0.5,0.1-0.9-0.3-1-0.8l-1-7.1
		c-4,6.2-16.3,9.9-16.9,10.1C112.3,40.7,112.2,40.7,112.1,40.7z"/>
	<g>
		<path fill="#AB9486" d="M132.2,43.8c-4.2-4.9-11.7-5.3-16.9-0.9l0,0c-5.2,4.4-5.9,11.9-1.7,16.8l14.7,17.2
			c4.2,4.9,11.7,5.3,16.9,0.9l0,0c5.2-4.4,5.9-11.9,1.7-16.8L132.2,43.8z"/>
		<path fill="#AB9486" d="M118.4,71.2c-2.5-0.2-4.7,1.3-4.9,3.5l0,0c-0.2,2.1,1.7,4.1,4.1,4.3l17.2,1.6c2.5,0.2,4.7-1.3,4.9-3.5l0,0
			c0.2-2.1-1.7-4.1-4.1-4.3L118.4,71.2z"/>
		<g>
			<path fill="#897567" d="M127.1,66.8c0.3-0.2,0.3-0.6,0.1-0.9l-15.4-18c-0.2,0.5-0.3,0.9-0.5,1.4l14.9,17.4
				C126.5,67,126.9,67,127.1,66.8z"/>
			<path fill="#897567" d="M132.4,62.3c0.3-0.2,0.3-0.6,0.1-0.9l-16.3-19.1c-0.3,0.2-0.5,0.4-0.7,0.6c-0.1,0.1-0.2,0.1-0.2,0.2
				l16.4,19.1C131.7,62.5,132.1,62.5,132.4,62.3z"/>
			<path fill="#897567" d="M137.6,57.8c0.3-0.2,0.3-0.6,0.1-0.9l-14.6-17.1c-0.5,0-1,0.1-1.5,0.2l15.2,17.7
				C137,58,137.4,58,137.6,57.8z"/>
		</g>
		<path opacity="0.5" fill="#897567" d="M115.1,43.3c-5,4.7-5.4,12.2-1,16.9l6.2,6.6l16.2-18.6l-4.5-4.8
			C127.6,38.6,120,38.6,115.1,43.3z"/>
	</g>
</g>
</svg>
