<?xml version="1.0" encoding="utf-8"?>
<!-- Generator: Adobe Illustrator 18.0.0, SVG Export Plug-In . SVG Version: 6.00 Build 0)  -->
<!DOCTYPE svg PUBLIC "-//W3C//DTD SVG 1.1//EN" "http://www.w3.org/Graphics/SVG/1.1/DTD/svg11.dtd">
<svg version="1.1" id="Calque_1" xmlns="http://www.w3.org/2000/svg" xmlns:xlink="http://www.w3.org/1999/xlink" x="0px" y="0px"
	 viewBox="0 0 480 214" enable-background="new 0 0 480 214" xml:space="preserve">
<path opacity="0.3" fill="#CD9E50" d="M220.6,38.3c-31.1,0-56.4,25.3-56.4,56.4c0,31.1,25.3,56.4,56.4,56.4
	c31.1,0,56.4-25.2,56.4-56.4C277,63.6,251.8,38.3,220.6,38.3z M220.6,132.9c-21.1,0-38.2-17.1-38.2-38.2c0-21.1,17.1-38.2,38.2-38.2
	c21.1,0,38.2,17.1,38.2,38.2C258.8,115.8,241.7,132.9,220.6,132.9z"/>
<path fill="#CD9E50" d="M220.6,38.3v18.2c21.1,0,38.2,17.1,38.2,38.2c0,21.1-17.1,38.2-38.2,38.2c-21.1,0-38.2-17.1-38.2-38.2
	c0-0.1,0-0.2,0-0.4h-18.2c0,0.1,0,0.2,0,0.4c0,31.1,25.3,56.4,56.4,56.4c31.1,0,56.4-25.2,56.4-56.4C277,63.6,251.8,38.3,220.6,38.3
	z"/>
<circle fill="#CD9E50" cx="173.4" cy="94.7" r="9.1"/>
<g>
	<path fill="#002846" d="M217.8,81.1c-0.6,0-1.3,0-2,0.1c-4.3,0.7-6.5,3.8-7,7.1h0.1c1-1.3,2.6-2.3,4.8-2.3c3.5,0,6,2.6,6,6.5
		c0,3.7-2.5,7.1-6.7,7.1c-4.3,0-7.1-3.3-7.1-8.5c0-3.9,1.4-7.1,3.4-9c1.7-1.6,3.9-2.7,6.4-3c0.8-0.1,1.5-0.2,2-0.2V81.1z M217,92.7
		c0-2.9-1.6-4.6-4.1-4.6c-1.6,0-3.1,1-3.9,2.5c-0.2,0.3-0.3,0.7-0.3,1.2c0.1,3.3,1.6,5.7,4.4,5.7C215.5,97.5,217,95.6,217,92.7z"/>
	<path fill="#002846" d="M233.6,81.1c-0.6,0-1.3,0-2,0.1c-4.3,0.7-6.5,3.8-7,7.1h0.1c1-1.3,2.6-2.3,4.8-2.3c3.5,0,6,2.6,6,6.5
		c0,3.7-2.5,7.1-6.7,7.1c-4.3,0-7.1-3.3-7.1-8.5c0-3.9,1.4-7.1,3.4-9c1.7-1.6,3.9-2.7,6.4-3c0.8-0.1,1.5-0.2,2-0.2V81.1z
		 M232.9,92.7c0-2.9-1.6-4.6-4.1-4.6c-1.6,0-3.1,1-3.9,2.5c-0.2,0.3-0.3,0.7-0.3,1.2c0.1,3.3,1.6,5.7,4.4,5.7
		C231.3,97.5,232.9,95.6,232.9,92.7z"/>
	<path fill="#002846" d="M205.6,106.2h1.1v5.9c0,2.4-1.2,3.1-2.7,3.1c-0.4,0-0.9-0.1-1.2-0.2l0.2-0.9c0.2,0.1,0.6,0.2,1,0.2
		c1,0,1.6-0.5,1.6-2.2V106.2z"/>
	<path fill="#002846" d="M216.2,110.5c0,3.1-1.9,4.7-4.1,4.7c-2.3,0-4-1.8-4-4.5c0-2.8,1.7-4.7,4.1-4.7
		C214.7,106.1,216.2,107.9,216.2,110.5z M209.4,110.7c0,1.9,1,3.6,2.8,3.6c1.8,0,2.8-1.7,2.8-3.7c0-1.8-0.9-3.6-2.8-3.6
		C210.3,107,209.4,108.7,209.4,110.7z"/>
	<path fill="#002846" d="M218.9,106.2v5.2c0,2,0.9,2.8,2.1,2.8c1.3,0,2.2-0.9,2.2-2.8v-5.2h1.2v5.2c0,2.7-1.4,3.8-3.4,3.8
		c-1.8,0-3.2-1-3.2-3.8v-5.2H218.9z"/>
	<path fill="#002846" d="M226.2,106.3c0.6-0.1,1.4-0.2,2.2-0.2c1.2,0,2,0.2,2.6,0.7c0.4,0.4,0.7,1,0.7,1.7c0,1.2-0.7,1.9-1.7,2.3v0
		c0.7,0.2,1.1,0.9,1.3,1.8c0.3,1.2,0.5,2.1,0.7,2.4h-1.2c-0.1-0.3-0.3-1-0.6-2.1c-0.3-1.2-0.7-1.7-1.8-1.7h-1.1v3.8h-1.1V106.3z
		 M227.4,110.4h1.2c1.2,0,2-0.7,2-1.7c0-1.1-0.8-1.6-2-1.7c-0.6,0-0.9,0.1-1.1,0.1V110.4z"/>
	<path fill="#002846" d="M233.2,113.7c0.5,0.3,1.3,0.6,2.1,0.6c1.2,0,1.9-0.6,1.9-1.5c0-0.8-0.5-1.3-1.7-1.8
		c-1.4-0.5-2.3-1.3-2.3-2.5c0-1.4,1.1-2.4,2.9-2.4c0.9,0,1.6,0.2,2,0.4l-0.3,0.9c-0.3-0.2-0.9-0.4-1.7-0.4c-1.2,0-1.7,0.7-1.7,1.3
		c0,0.8,0.5,1.2,1.8,1.7c1.5,0.6,2.3,1.3,2.3,2.6c0,1.4-1,2.6-3.1,2.6c-0.9,0-1.8-0.2-2.3-0.6L233.2,113.7z"/>
</g>
<g>
	<path fill="#002846" d="M356.6,95.8c0.4,0.3,1.5,0.7,2.5,0.7c2,0,2.6-1.3,2.6-2.2c0-1.6-1.5-2.3-2.9-2.3h-0.9v-1.2h0.9
		c1.1,0,2.5-0.6,2.5-1.9c0-0.9-0.6-1.7-2-1.7c-0.9,0-1.8,0.4-2.3,0.8l-0.4-1.1c0.6-0.4,1.8-0.9,3-0.9c2.2,0,3.3,1.3,3.3,2.7
		c0,1.2-0.7,2.2-2.1,2.7v0c1.4,0.3,2.5,1.3,2.5,2.9c0,1.8-1.4,3.4-4.2,3.4c-1.3,0-2.4-0.4-3-0.8L356.6,95.8z"/>
	<path fill="#002846" d="M372.6,86.1v1l-5,10.4h-1.6l4.9-10.1v0h-5.6v-1.3H372.6z"/>
	<path fill="#002846" d="M374.1,94.6c0-1.4,0.9-2.5,2.3-3.1l0-0.1c-1.3-0.6-1.8-1.6-1.8-2.6c0-1.8,1.5-3,3.5-3
		c2.2,0,3.3,1.4,3.3,2.8c0,1-0.5,2-1.9,2.7v0.1c1.4,0.6,2.3,1.6,2.3,2.9c0,2-1.7,3.3-3.9,3.3C375.5,97.7,374.1,96.3,374.1,94.6z
		 M380.2,94.6c0-1.4-1-2.1-2.5-2.5c-1.3,0.4-2.1,1.3-2.1,2.4c-0.1,1.2,0.8,2.2,2.3,2.2C379.3,96.6,380.2,95.7,380.2,94.6z M376,88.9
		c0,1.1,0.9,1.8,2.2,2.1c1-0.3,1.7-1,1.7-2.1c0-0.9-0.5-1.9-1.9-1.9C376.7,87,376,87.9,376,88.9z"/>
	<path fill="#002846" d="M394.5,91.7c0,3.9-1.4,6-4,6c-2.2,0-3.7-2.1-3.8-5.9c0-3.8,1.6-5.9,4-5.9C393.2,85.9,394.5,88.1,394.5,91.7
		z M388.3,91.9c0,3,0.9,4.7,2.3,4.7c1.6,0,2.3-1.8,2.3-4.8c0-2.8-0.7-4.6-2.3-4.6C389.3,87.1,388.3,88.8,388.3,91.9z"/>
	<path fill="#002846" d="M403.5,91.7c0,3.9-1.4,6-4,6c-2.2,0-3.7-2.1-3.8-5.9c0-3.8,1.6-5.9,4-5.9C402.2,85.9,403.5,88.1,403.5,91.7
		z M397.3,91.9c0,3,0.9,4.7,2.3,4.7c1.6,0,2.3-1.8,2.3-4.8c0-2.8-0.7-4.6-2.3-4.6C398.3,87.1,397.3,88.8,397.3,91.9z"/>
	<path fill="#002846" d="M412.5,91.7c0,3.9-1.4,6-4,6c-2.2,0-3.7-2.1-3.8-5.9c0-3.8,1.6-5.9,4-5.9C411.2,85.9,412.5,88.1,412.5,91.7
		z M406.3,91.9c0,3,0.9,4.7,2.3,4.7c1.6,0,2.3-1.8,2.3-4.8c0-2.8-0.7-4.6-2.3-4.6C407.3,87.1,406.3,88.8,406.3,91.9z"/>
	<path fill="#002846" d="M425.6,97c-0.5,0.4-1.5,0.7-2.6,0.7c-1.4,0-2.7-0.5-3.6-1.6c-0.7-0.7-1.1-1.8-1.3-3h-1.1v-0.9h1
		c0-0.1,0-0.2,0-0.3c0-0.3,0-0.5,0-0.8h-1v-0.9h1.2c0.2-1.2,0.7-2.2,1.4-3c0.9-0.9,2-1.5,3.5-1.5c1,0,1.8,0.3,2.3,0.6l-0.4,1.2
		c-0.4-0.3-1.2-0.5-2-0.5c-0.9,0-1.7,0.3-2.3,1c-0.5,0.5-0.9,1.3-1.1,2.2h4.9v0.9h-5.1c0,0.2,0,0.5,0,0.7c0,0.1,0,0.2,0,0.3h5.1v0.9
		h-5c0.1,1,0.5,1.8,1,2.3c0.6,0.7,1.5,1,2.5,1c0.9,0,1.7-0.4,2.1-0.6L425.6,97z"/>
</g>
<path opacity="0.3" fill="#CD9E50" d="M58.4,38.5C27.2,38.5,2,63.7,2,94.9c0,31.1,25.2,56.4,56.4,56.4c31.1,0,56.4-25.3,56.4-56.4
	C114.8,63.7,89.5,38.5,58.4,38.5z M58.4,133c-21.1,0-38.2-17.1-38.2-38.2c0-21.1,17.1-38.2,38.2-38.2s38.2,17.1,38.2,38.2
	C96.5,115.9,79.5,133,58.4,133z"/>
<circle fill="#CD9E50" cx="57.2" cy="142.3" r="9.1"/>
<g>
	<path fill="#002846" d="M46.7,84.6v1.8l-8.7,18.3h-2.8l8.7-17.7v-0.1H34v-2.3H46.7z"/>
	<path fill="#002846" d="M57.9,104.7v-5.5h-9.3v-1.8l8.9-12.8h2.9v12.5h2.8v2.1h-2.8v5.5H57.9z M57.9,97.1v-6.7c0-1,0-2.1,0.1-3.1
		h-0.1c-0.6,1.2-1.1,2-1.7,3L51.3,97v0.1H57.9z"/>
	<path fill="#002846" d="M74.3,90.3c0,4.2-2.2,6.3-4.8,6.3c-2.5,0-4.7-2-4.7-6c0-4,2.2-6.3,4.8-6.3C72.5,84.3,74.3,86.4,74.3,90.3z
		 M67,90.5C66.9,93,67.9,95,69.6,95c1.8,0,2.6-1.9,2.6-4.6c0-2.4-0.7-4.5-2.6-4.5C67.9,85.9,67,87.9,67,90.5z M69.3,105l11.8-20.7
		h1.7L71.1,105H69.3z M87.4,98.6c0,4.2-2.2,6.3-4.8,6.3c-2.5,0-4.7-2-4.7-6c0-4,2.2-6.3,4.8-6.3C85.6,92.6,87.4,94.7,87.4,98.6z
		 M80,98.8c0,2.6,1,4.5,2.6,4.5c1.8,0,2.6-1.9,2.6-4.6c0-2.4-0.7-4.5-2.6-4.5C81,94.2,80,96.2,80,98.8z"/>
</g>
<path fill="#CD9E50" d="M58.4,38.5v18.2c21.1,0,38.2,17.1,38.2,38.2c0,21.1-17.1,38.2-38.2,38.2c-0.6,0-1.1,0-1.7,0v18.2
	c0.6,0,1.1,0,1.7,0c31.1,0,56.4-25.3,56.4-56.4C114.8,63.7,89.5,38.5,58.4,38.5z"/>
<circle opacity="0.5" fill="none" stroke="#CD9E50" stroke-width="1.6548" stroke-miterlimit="10" cx="390.8" cy="91.4" r="44.4"/>
<circle fill="none" stroke="#CD9E50" stroke-width="1.6548" stroke-miterlimit="10" cx="390.8" cy="91.4" r="58.1"/>
<circle fill="#CD9E50" cx="448.4" cy="91.5" r="8.8"/>
<circle fill="#CD9E50" cx="333" cy="91.5" r="8.8"/>
<circle fill="#CD9E50" cx="390.7" cy="149.2" r="8.8"/>
<g>
	<g>
		<path fill="#808082" d="M18.7,185.1c-0.4,0.2-1.3,0.4-2.5,0.4c-2.7,0-4.7-1.7-4.7-4.8c0-3,2-5,4.9-5c1.2,0,1.9,0.3,2.2,0.4l-0.3,1
			c-0.5-0.2-1.1-0.4-1.9-0.4c-2.2,0-3.7,1.4-3.7,3.9c0,2.3,1.3,3.8,3.6,3.8c0.7,0,1.5-0.2,2-0.4L18.7,185.1z"/>
		<path fill="#808082" d="M20.1,175.5h1.2v4.2h0c0.2-0.4,0.5-0.7,0.9-0.9c0.4-0.2,0.8-0.4,1.3-0.4c0.9,0,2.4,0.6,2.4,2.9v4h-1.2
			v-3.9c0-1.1-0.4-2-1.6-2c-0.8,0-1.4,0.6-1.7,1.2c-0.1,0.2-0.1,0.4-0.1,0.6v4.1h-1.2V175.5z"/>
		<path fill="#808082" d="M31.7,185.4l-0.1-0.9h0c-0.4,0.5-1.1,1-2.1,1c-1.4,0-2.1-1-2.1-2c0-1.6,1.5-2.5,4.1-2.5V181
			c0-0.6-0.2-1.6-1.5-1.6c-0.6,0-1.3,0.2-1.8,0.5l-0.3-0.8c0.6-0.4,1.4-0.6,2.2-0.6c2.1,0,2.6,1.4,2.6,2.8v2.5c0,0.6,0,1.2,0.1,1.6
			H31.7z M31.5,182c-1.3,0-2.9,0.2-2.9,1.5c0,0.8,0.5,1.2,1.2,1.2c0.9,0,1.4-0.6,1.6-1.1c0-0.1,0.1-0.3,0.1-0.4V182z"/>
		<path fill="#808082" d="M34.7,180.5c0-0.7,0-1.3-0.1-1.8h1.1l0.1,1.1h0c0.3-0.6,1.1-1.3,2.2-1.3c0.9,0,2.4,0.6,2.4,2.9v4.1h-1.2
			v-3.9c0-1.1-0.4-2-1.6-2c-0.8,0-1.4,0.6-1.7,1.3c-0.1,0.2-0.1,0.4-0.1,0.6v4.1h-1.2V180.5z"/>
		<path fill="#808082" d="M47.3,185.2c-0.3,0.2-1,0.4-2,0.4c-2,0-3.4-1.4-3.4-3.5c0-2.1,1.4-3.6,3.7-3.6c0.7,0,1.4,0.2,1.7,0.4
			l-0.3,1c-0.3-0.2-0.8-0.3-1.4-0.3c-1.6,0-2.4,1.2-2.4,2.6c0,1.6,1,2.5,2.4,2.5c0.7,0,1.2-0.2,1.5-0.3L47.3,185.2z"/>
		<path fill="#808082" d="M49.4,182.3c0,1.7,1.1,2.4,2.3,2.4c0.9,0,1.4-0.2,1.9-0.4l0.2,0.9c-0.4,0.2-1.2,0.4-2.3,0.4
			c-2.1,0-3.3-1.4-3.3-3.4c0-2,1.2-3.7,3.2-3.7c2.2,0,2.8,2,2.8,3.2c0,0.3,0,0.4,0,0.6H49.4z M53,181.4c0-0.8-0.3-2-1.7-2
			c-1.3,0-1.8,1.2-1.9,2H53z"/>
		<path fill="#808082" d="M64.6,175.5v8.2c0,0.6,0,1.3,0.1,1.8h-1.1l-0.1-1.2h0c-0.4,0.8-1.2,1.3-2.3,1.3c-1.6,0-2.9-1.4-2.9-3.5
			c0-2.3,1.4-3.6,3-3.6c1,0,1.7,0.5,2,1h0v-4.1H64.6z M63.3,181.4c0-0.2,0-0.4-0.1-0.5c-0.2-0.8-0.9-1.4-1.8-1.4c-1.3,0-2,1.1-2,2.6
			c0,1.4,0.7,2.5,2,2.5c0.8,0,1.6-0.5,1.8-1.5c0-0.2,0.1-0.3,0.1-0.5V181.4z"/>
		<path fill="#808082" d="M67.3,182.3c0,1.7,1.1,2.4,2.3,2.4c0.9,0,1.4-0.2,1.9-0.4l0.2,0.9c-0.4,0.2-1.2,0.4-2.3,0.4
			c-2.1,0-3.3-1.4-3.3-3.4c0-2,1.2-3.7,3.2-3.7c2.2,0,2.8,2,2.8,3.2c0,0.3,0,0.4,0,0.6H67.3z M70.9,181.4c0-0.8-0.3-2-1.7-2
			c-1.3,0-1.8,1.2-1.9,2H70.9z"/>
		<path fill="#808082" d="M76.4,184.2c0.4,0.2,1,0.5,1.6,0.5c0.9,0,1.3-0.4,1.3-1c0-0.6-0.4-0.9-1.3-1.2c-1.2-0.4-1.8-1.1-1.8-1.9
			c0-1.1,0.9-2,2.3-2c0.7,0,1.3,0.2,1.7,0.4l-0.3,0.9c-0.3-0.2-0.8-0.4-1.4-0.4c-0.7,0-1.1,0.4-1.1,0.9c0,0.6,0.4,0.8,1.3,1.2
			c1.2,0.4,1.8,1,1.8,2c0,1.2-0.9,2-2.5,2c-0.7,0-1.4-0.2-1.9-0.5L76.4,184.2z"/>
		<path fill="#808082" d="M87.9,183.6c0,0.7,0,1.3,0.1,1.9h-1.1l-0.1-1.1h0c-0.3,0.5-1,1.3-2.2,1.3c-1.1,0-2.3-0.6-2.3-3v-4h1.2v3.8
			c0,1.3,0.4,2.2,1.5,2.2c0.8,0,1.4-0.6,1.6-1.1c0.1-0.2,0.1-0.4,0.1-0.6v-4.2h1.2V183.6z"/>
		<path fill="#808082" d="M94.7,185.2c-0.3,0.2-1,0.4-2,0.4c-2,0-3.4-1.4-3.4-3.5c0-2.1,1.4-3.6,3.7-3.6c0.7,0,1.4,0.2,1.7,0.4
			l-0.3,1c-0.3-0.2-0.8-0.3-1.4-0.3c-1.6,0-2.4,1.2-2.4,2.6c0,1.6,1,2.5,2.4,2.5c0.7,0,1.2-0.2,1.5-0.3L94.7,185.2z"/>
		<path fill="#808082" d="M101,185.2c-0.3,0.2-1,0.4-2,0.4c-2,0-3.4-1.4-3.4-3.5c0-2.1,1.4-3.6,3.7-3.6c0.7,0,1.4,0.2,1.7,0.4
			l-0.3,1c-0.3-0.2-0.8-0.3-1.4-0.3c-1.6,0-2.4,1.2-2.4,2.6c0,1.6,1,2.5,2.4,2.5c0.7,0,1.2-0.2,1.5-0.3L101,185.2z"/>
		<path fill="#808082" d="M103,182.3c0,1.7,1.1,2.4,2.3,2.4c0.9,0,1.4-0.2,1.9-0.4l0.2,0.9c-0.4,0.2-1.2,0.4-2.3,0.4
			c-2.1,0-3.3-1.4-3.3-3.4c0-2,1.2-3.7,3.2-3.7c2.2,0,2.8,2,2.8,3.2c0,0.3,0,0.4,0,0.6H103z M106.6,181.4c0-0.8-0.3-2-1.7-2
			c-1.3,0-1.8,1.2-1.9,2H106.6z M104.5,175.7l1.2,2h-0.9l-1.7-2H104.5z"/>
		<path fill="#808082" d="M109.2,184.2c0.4,0.2,1,0.5,1.6,0.5c0.9,0,1.3-0.4,1.3-1c0-0.6-0.4-0.9-1.3-1.2c-1.2-0.4-1.8-1.1-1.8-1.9
			c0-1.1,0.9-2,2.3-2c0.7,0,1.3,0.2,1.7,0.4l-0.3,0.9c-0.3-0.2-0.8-0.4-1.4-0.4c-0.7,0-1.1,0.4-1.1,0.9c0,0.6,0.4,0.8,1.3,1.2
			c1.2,0.4,1.8,1,1.8,2c0,1.2-0.9,2-2.5,2c-0.7,0-1.4-0.2-1.9-0.5L109.2,184.2z"/>
		<path fill="#808082" d="M17.9,192.3v8.2c0,0.6,0,1.3,0.1,1.8h-1.1l-0.1-1.2h0c-0.4,0.8-1.2,1.3-2.3,1.3c-1.6,0-2.9-1.4-2.9-3.5
			c0-2.3,1.4-3.6,3-3.6c1,0,1.7,0.5,2,1h0v-4.1H17.9z M16.6,198.2c0-0.2,0-0.4-0.1-0.5c-0.2-0.8-0.9-1.4-1.8-1.4c-1.3,0-2,1.1-2,2.6
			c0,1.4,0.7,2.5,2,2.5c0.8,0,1.6-0.5,1.8-1.5c0-0.2,0.1-0.3,0.1-0.5V198.2z"/>
		<path fill="#808082" d="M20.6,199.1c0,1.7,1.1,2.4,2.3,2.4c0.9,0,1.4-0.2,1.9-0.4L25,202c-0.4,0.2-1.2,0.4-2.3,0.4
			c-2.1,0-3.3-1.4-3.3-3.4c0-2,1.2-3.7,3.2-3.7c2.2,0,2.8,2,2.8,3.2c0,0.3,0,0.4,0,0.6H20.6z M24.2,198.2c0-0.8-0.3-2-1.7-2
			c-1.3,0-1.8,1.2-1.9,2H24.2z"/>
		<path fill="#808082" d="M26.8,201c0.4,0.2,1,0.5,1.6,0.5c0.9,0,1.3-0.4,1.3-1c0-0.6-0.4-0.9-1.3-1.2c-1.2-0.4-1.8-1.1-1.8-1.9
			c0-1.1,0.9-2,2.3-2c0.7,0,1.3,0.2,1.7,0.4l-0.3,0.9c-0.3-0.2-0.8-0.4-1.4-0.4c-0.7,0-1.1,0.4-1.1,0.9c0,0.6,0.4,0.8,1.3,1.2
			c1.2,0.4,1.8,1,1.8,2c0,1.2-0.9,2-2.5,2c-0.7,0-1.4-0.2-1.9-0.5L26.8,201z"/>
		<path fill="#808082" d="M41.6,198.8c0,2.5-1.7,3.6-3.4,3.6c-1.8,0-3.3-1.3-3.3-3.5c0-2.3,1.5-3.6,3.4-3.6
			C40.3,195.3,41.6,196.7,41.6,198.8z M36.2,198.9c0,1.5,0.9,2.6,2.1,2.6c1.2,0,2.1-1.1,2.1-2.6c0-1.2-0.6-2.6-2-2.6
			C36.9,196.3,36.2,197.6,36.2,198.9z"/>
		<path fill="#808082" d="M43.2,197.7c0-0.9,0-1.6-0.1-2.2h1.1l0.1,1.2h0c0.5-0.8,1.3-1.3,2.4-1.3c1.6,0,2.9,1.4,2.9,3.5
			c0,2.4-1.5,3.6-3.1,3.6c-0.9,0-1.7-0.4-2.1-1.1h0v3.7h-1.2V197.7z M44.4,199.5c0,0.2,0,0.4,0.1,0.5c0.2,0.9,1,1.4,1.9,1.4
			c1.3,0,2.1-1.1,2.1-2.6c0-1.4-0.7-2.5-2-2.5c-0.8,0-1.6,0.6-1.9,1.5c0,0.2-0.1,0.3-0.1,0.5V199.5z"/>
		<path fill="#808082" d="M51.9,199.1c0,1.7,1.1,2.4,2.3,2.4c0.9,0,1.4-0.2,1.9-0.4l0.2,0.9c-0.4,0.2-1.2,0.4-2.3,0.4
			c-2.1,0-3.3-1.4-3.3-3.4c0-2,1.2-3.7,3.2-3.7c2.2,0,2.8,2,2.8,3.2c0,0.3,0,0.4,0,0.6H51.9z M55.5,198.2c0-0.8-0.3-2-1.7-2
			c-1.3,0-1.8,1.2-1.9,2H55.5z M55.8,192.5l-1.7,2h-0.9l1.2-2H55.8z"/>
		<path fill="#808082" d="M58.2,197.6c0-0.8,0-1.5-0.1-2.1h1.1l0,1.3h0.1c0.3-0.9,1.1-1.5,1.9-1.5c0.1,0,0.2,0,0.4,0v1.2
			c-0.1,0-0.3,0-0.4,0c-0.9,0-1.5,0.7-1.7,1.6c0,0.2-0.1,0.4-0.1,0.6v3.6h-1.2V197.6z"/>
		<path fill="#808082" d="M66.5,202.3l-0.1-0.9h0c-0.4,0.5-1.1,1-2.1,1c-1.4,0-2.1-1-2.1-2c0-1.6,1.5-2.5,4.1-2.5v-0.1
			c0-0.6-0.2-1.6-1.5-1.6c-0.6,0-1.3,0.2-1.8,0.5l-0.3-0.8c0.6-0.4,1.4-0.6,2.2-0.6c2.1,0,2.6,1.4,2.6,2.8v2.5c0,0.6,0,1.2,0.1,1.6
			H66.5z M66.3,198.8c-1.3,0-2.9,0.2-2.9,1.5c0,0.8,0.5,1.2,1.2,1.2c0.9,0,1.4-0.6,1.6-1.1c0-0.1,0.1-0.3,0.1-0.4V198.8z"/>
		<path fill="#808082" d="M70.9,193.5v2h1.8v0.9h-1.8v3.7c0,0.8,0.2,1.3,0.9,1.3c0.3,0,0.6,0,0.7-0.1l0.1,0.9
			c-0.2,0.1-0.6,0.2-1.1,0.2c-0.6,0-1-0.2-1.3-0.5c-0.4-0.4-0.5-1-0.5-1.8v-3.7h-1.1v-0.9h1.1v-1.6L70.9,193.5z"/>
		<path fill="#808082" d="M75.5,193.6c0,0.4-0.3,0.8-0.8,0.8c-0.4,0-0.7-0.3-0.7-0.8c0-0.4,0.3-0.8,0.8-0.8
			C75.2,192.8,75.5,193.1,75.5,193.6z M74.1,202.3v-6.8h1.2v6.8H74.1z"/>
		<path fill="#808082" d="M83.5,198.8c0,2.5-1.7,3.6-3.4,3.6c-1.8,0-3.3-1.3-3.3-3.5c0-2.3,1.5-3.6,3.4-3.6
			C82.2,195.3,83.5,196.7,83.5,198.8z M78.1,198.9c0,1.5,0.9,2.6,2.1,2.6c1.2,0,2.1-1.1,2.1-2.6c0-1.2-0.6-2.6-2-2.6
			C78.8,196.3,78.1,197.6,78.1,198.9z"/>
		<path fill="#808082" d="M85.1,197.3c0-0.7,0-1.3-0.1-1.8h1.1l0.1,1.1h0c0.3-0.6,1.1-1.3,2.2-1.3c0.9,0,2.4,0.6,2.4,2.9v4.1h-1.2
			v-3.9c0-1.1-0.4-2-1.6-2c-0.8,0-1.4,0.6-1.7,1.3c-0.1,0.2-0.1,0.4-0.1,0.6v4.1h-1.2V197.3z"/>
		<path fill="#808082" d="M92.7,201c0.4,0.2,1,0.5,1.6,0.5c0.9,0,1.3-0.4,1.3-1c0-0.6-0.4-0.9-1.3-1.2c-1.2-0.4-1.8-1.1-1.8-1.9
			c0-1.1,0.9-2,2.3-2c0.7,0,1.3,0.2,1.7,0.4l-0.3,0.9c-0.3-0.2-0.8-0.4-1.4-0.4c-0.7,0-1.1,0.4-1.1,0.9c0,0.6,0.4,0.8,1.3,1.2
			c1.2,0.4,1.8,1,1.8,2c0,1.2-0.9,2-2.5,2c-0.7,0-1.4-0.2-1.9-0.5L92.7,201z"/>
	</g>
</g>
<g>
	<g>
		<path fill="#808082" d="M178.6,175.1c0.7-0.1,1.6-0.2,2.6-0.2c1.8,0,3,0.4,3.8,1.2c0.8,0.8,1.3,1.9,1.3,3.4c0,1.5-0.5,2.8-1.4,3.7
			c-0.9,0.9-2.3,1.4-4.2,1.4c-0.9,0-1.6,0-2.2-0.1V175.1z M179.8,183.5c0.3,0.1,0.8,0.1,1.2,0.1c2.6,0,4-1.5,4-4
			c0-2.2-1.3-3.6-3.8-3.6c-0.6,0-1.1,0.1-1.4,0.1V183.5z"/>
		<path fill="#808082" d="M188.7,181.3c0,1.7,1.1,2.4,2.3,2.4c0.9,0,1.4-0.2,1.9-0.4l0.2,0.9c-0.4,0.2-1.2,0.4-2.3,0.4
			c-2.1,0-3.3-1.4-3.3-3.4c0-2,1.2-3.7,3.2-3.7c2.2,0,2.8,2,2.8,3.2c0,0.3,0,0.4,0,0.6H188.7z M192.3,180.4c0-0.8-0.3-2-1.7-2
			c-1.3,0-1.8,1.2-1.9,2H192.3z M192.6,174.7l-1.7,2H190l1.2-2H192.6z"/>
		<path fill="#808082" d="M195,174.5h1.2v10H195V174.5z"/>
		<path fill="#808082" d="M202.1,184.4l-0.1-0.9h0c-0.4,0.5-1.1,1-2.1,1c-1.4,0-2.1-1-2.1-2c0-1.6,1.5-2.5,4.1-2.5V180
			c0-0.6-0.2-1.6-1.5-1.6c-0.6,0-1.3,0.2-1.8,0.5l-0.3-0.8c0.6-0.4,1.4-0.6,2.2-0.6c2.1,0,2.6,1.4,2.6,2.8v2.5c0,0.6,0,1.2,0.1,1.6
			H202.1z M201.9,181c-1.3,0-2.9,0.2-2.9,1.5c0,0.8,0.5,1.2,1.2,1.2c0.9,0,1.4-0.6,1.6-1.1c0-0.1,0.1-0.3,0.1-0.4V181z"/>
		<path fill="#808082" d="M206.5,175.7c0,0.4-0.3,0.8-0.8,0.8c-0.4,0-0.7-0.3-0.7-0.8c0-0.4,0.3-0.8,0.8-0.8
			C206.2,175,206.5,175.3,206.5,175.7z M205.1,184.4v-6.8h1.2v6.8H205.1z"/>
		<path fill="#808082" d="M211.3,179.5c0-0.7,0-1.3-0.1-1.8h1.1l0.1,1.1h0c0.4-0.6,1-1.2,2.1-1.2c0.9,0,1.6,0.6,1.9,1.4h0
			c0.2-0.4,0.5-0.7,0.8-0.9c0.4-0.3,0.9-0.5,1.5-0.5c0.9,0,2.2,0.6,2.2,2.9v4h-1.2v-3.8c0-1.3-0.5-2.1-1.5-2.1
			c-0.7,0-1.2,0.5-1.5,1.1c-0.1,0.2-0.1,0.4-0.1,0.6v4.2h-1.2v-4.1c0-1.1-0.5-1.9-1.4-1.9c-0.8,0-1.3,0.6-1.5,1.2
			c-0.1,0.2-0.1,0.4-0.1,0.6v4.1h-1.2V179.5z"/>
		<path fill="#808082" d="M229.2,181c0,2.5-1.7,3.6-3.4,3.6c-1.8,0-3.3-1.3-3.3-3.5c0-2.3,1.5-3.6,3.4-3.6
			C227.9,177.5,229.2,178.9,229.2,181z M223.8,181.1c0,1.5,0.9,2.6,2.1,2.6c1.2,0,2.1-1.1,2.1-2.6c0-1.2-0.6-2.6-2-2.6
			C224.4,178.4,223.8,179.8,223.8,181.1z"/>
		<path fill="#808082" d="M231.1,177.6l1.5,4c0.2,0.4,0.3,1,0.4,1.4h0c0.1-0.4,0.3-0.9,0.4-1.4l1.3-4h1.3l-1.9,4.8
			c-0.9,2.3-1.5,3.5-2.3,4.3c-0.6,0.5-1.2,0.7-1.5,0.8l-0.3-1c0.3-0.1,0.7-0.3,1.1-0.6c0.3-0.3,0.8-0.7,1-1.4
			c0.1-0.1,0.1-0.2,0.1-0.3c0-0.1,0-0.2-0.1-0.3l-2.5-6.3H231.1z"/>
		<path fill="#808082" d="M237.8,181.3c0,1.7,1.1,2.4,2.3,2.4c0.9,0,1.4-0.2,1.9-0.4l0.2,0.9c-0.4,0.2-1.2,0.4-2.3,0.4
			c-2.1,0-3.3-1.4-3.3-3.4c0-2,1.2-3.7,3.2-3.7c2.2,0,2.8,2,2.8,3.2c0,0.3,0,0.4,0,0.6H237.8z M241.4,180.4c0-0.8-0.3-2-1.7-2
			c-1.3,0-1.8,1.2-1.9,2H241.4z"/>
		<path fill="#808082" d="M244.2,179.5c0-0.7,0-1.3-0.1-1.8h1.1l0.1,1.1h0c0.3-0.6,1.1-1.3,2.2-1.3c0.9,0,2.4,0.6,2.4,2.9v4.1h-1.2
			v-3.9c0-1.1-0.4-2-1.6-2c-0.8,0-1.4,0.6-1.7,1.3c-0.1,0.2-0.1,0.4-0.1,0.6v4.1h-1.2V179.5z"/>
		<path fill="#808082" d="M184.4,191.3v8.2c0,0.6,0,1.3,0.1,1.8h-1.1l-0.1-1.2h0c-0.4,0.8-1.2,1.3-2.3,1.3c-1.6,0-2.9-1.4-2.9-3.5
			c0-2.3,1.4-3.6,3-3.6c1,0,1.7,0.5,2,1h0v-4.1H184.4z M183.2,197.2c0-0.2,0-0.4-0.1-0.5c-0.2-0.8-0.9-1.4-1.8-1.4
			c-1.3,0-2,1.1-2,2.6c0,1.4,0.7,2.5,2,2.5c0.8,0,1.6-0.5,1.8-1.5c0-0.2,0.1-0.3,0.1-0.5V197.2z"/>
		<path fill="#808082" d="M187.2,198.1c0,1.7,1.1,2.4,2.3,2.4c0.9,0,1.4-0.2,1.9-0.4l0.2,0.9c-0.4,0.2-1.2,0.4-2.3,0.4
			c-2.1,0-3.3-1.4-3.3-3.4c0-2,1.2-3.7,3.2-3.7c2.2,0,2.8,2,2.8,3.2c0,0.3,0,0.4,0,0.6H187.2z M190.8,197.2c0-0.8-0.3-2-1.7-2
			c-1.3,0-1.8,1.2-1.9,2H190.8z"/>
		<path fill="#808082" d="M196.5,196.6c0-0.8,0-1.5-0.1-2.1h1.1l0,1.3h0.1c0.3-0.9,1.1-1.5,1.9-1.5c0.1,0,0.2,0,0.4,0v1.2
			c-0.1,0-0.3,0-0.4,0c-0.9,0-1.5,0.7-1.7,1.6c0,0.2-0.1,0.4-0.1,0.6v3.6h-1.2V196.6z"/>
		<path fill="#808082" d="M201.6,198.1c0,1.7,1.1,2.4,2.3,2.4c0.9,0,1.4-0.2,1.9-0.4l0.2,0.9c-0.4,0.2-1.2,0.4-2.3,0.4
			c-2.1,0-3.3-1.4-3.3-3.4c0-2,1.2-3.7,3.2-3.7c2.2,0,2.8,2,2.8,3.2c0,0.3,0,0.4,0,0.6H201.6z M205.3,197.2c0-0.8-0.3-2-1.7-2
			c-1.3,0-1.8,1.2-1.9,2H205.3z M205.6,191.5l-1.7,2H203l1.2-2H205.6z"/>
		<path fill="#808082" d="M211.7,201.3l-0.1-0.9h0c-0.4,0.5-1.1,1-2.1,1c-1.4,0-2.1-1-2.1-2c0-1.6,1.5-2.5,4.1-2.5v-0.1
			c0-0.6-0.2-1.6-1.5-1.6c-0.6,0-1.3,0.2-1.8,0.5l-0.3-0.8c0.6-0.4,1.4-0.6,2.2-0.6c2.1,0,2.6,1.4,2.6,2.8v2.5c0,0.6,0,1.2,0.1,1.6
			H211.7z M211.6,197.8c-1.3,0-2.9,0.2-2.9,1.5c0,0.8,0.5,1.2,1.2,1.2c0.9,0,1.4-0.6,1.6-1.1c0-0.1,0.1-0.3,0.1-0.4V197.8z"/>
		<path fill="#808082" d="M214.7,191.3h1.2v10h-1.2V191.3z"/>
		<path fill="#808082" d="M219.4,192.6c0,0.4-0.3,0.8-0.8,0.8c-0.4,0-0.7-0.3-0.7-0.8c0-0.4,0.3-0.8,0.8-0.8
			C219.1,191.8,219.4,192.1,219.4,192.6z M218.1,201.3v-6.8h1.2v6.8H218.1z"/>
		<path fill="#808082" d="M221.2,200c0.4,0.2,1,0.5,1.6,0.5c0.9,0,1.3-0.4,1.3-1c0-0.6-0.4-0.9-1.3-1.2c-1.2-0.4-1.8-1.1-1.8-1.9
			c0-1.1,0.9-2,2.3-2c0.7,0,1.3,0.2,1.7,0.4l-0.3,0.9c-0.3-0.2-0.8-0.4-1.4-0.4c-0.7,0-1.1,0.4-1.1,0.9c0,0.6,0.4,0.8,1.3,1.2
			c1.2,0.4,1.8,1,1.8,2c0,1.2-0.9,2-2.5,2c-0.7,0-1.4-0.2-1.9-0.5L221.2,200z"/>
		<path fill="#808082" d="M230.7,201.3l-0.1-0.9h0c-0.4,0.5-1.1,1-2.1,1c-1.4,0-2.1-1-2.1-2c0-1.6,1.5-2.5,4.1-2.5v-0.1
			c0-0.6-0.2-1.6-1.5-1.6c-0.6,0-1.3,0.2-1.8,0.5l-0.3-0.8c0.6-0.4,1.4-0.6,2.2-0.6c2.1,0,2.6,1.4,2.6,2.8v2.5c0,0.6,0,1.2,0.1,1.6
			H230.7z M230.5,197.8c-1.3,0-2.9,0.2-2.9,1.5c0,0.8,0.5,1.2,1.2,1.2c0.9,0,1.4-0.6,1.6-1.1c0-0.1,0.1-0.3,0.1-0.4V197.8z"/>
		<path fill="#808082" d="M235.1,192.5v2h1.8v0.9h-1.8v3.7c0,0.8,0.2,1.3,0.9,1.3c0.3,0,0.6,0,0.7-0.1l0.1,0.9
			c-0.2,0.1-0.6,0.2-1.1,0.2c-0.6,0-1-0.2-1.3-0.5c-0.4-0.4-0.5-1-0.5-1.8v-3.7h-1.1v-0.9h1.1v-1.6L235.1,192.5z"/>
		<path fill="#808082" d="M239.6,192.6c0,0.4-0.3,0.8-0.8,0.8c-0.4,0-0.7-0.3-0.7-0.8c0-0.4,0.3-0.8,0.8-0.8
			C239.3,191.8,239.6,192.1,239.6,192.6z M238.2,201.3v-6.8h1.2v6.8H238.2z"/>
		<path fill="#808082" d="M247.7,197.8c0,2.5-1.7,3.6-3.4,3.6c-1.8,0-3.3-1.3-3.3-3.5c0-2.3,1.5-3.6,3.4-3.6
			C246.4,194.3,247.7,195.7,247.7,197.8z M242.3,197.9c0,1.5,0.9,2.6,2.1,2.6c1.2,0,2.1-1.1,2.1-2.6c0-1.2-0.6-2.6-2-2.6
			C242.9,195.3,242.3,196.6,242.3,197.9z"/>
		<path fill="#808082" d="M249.2,196.3c0-0.7,0-1.3-0.1-1.8h1.1l0.1,1.1h0c0.3-0.6,1.1-1.3,2.2-1.3c0.9,0,2.4,0.6,2.4,2.9v4.1h-1.2
			v-3.9c0-1.1-0.4-2-1.6-2c-0.8,0-1.4,0.6-1.7,1.3c-0.1,0.2-0.1,0.4-0.1,0.6v4.1h-1.2V196.3z"/>
	</g>
</g>
<g>
	<g>
		<path fill="#808082" d="M338.2,182.3c-0.1-1.3-0.2-2.9-0.1-4.1h0c-0.3,1.1-0.7,2.3-1.2,3.6l-1.7,4.6h-0.9l-1.5-4.5
			c-0.4-1.3-0.8-2.6-1.1-3.7h0c0,1.2-0.1,2.8-0.2,4.2l-0.3,4.1H330l0.7-9.5h1.6l1.6,4.6c0.4,1.2,0.7,2.2,1,3.2h0c0.2-1,0.6-2,1-3.2
			l1.7-4.6h1.6l0.6,9.5h-1.2L338.2,182.3z"/>
		<path fill="#808082" d="M347.7,183c0,2.5-1.7,3.6-3.4,3.6c-1.8,0-3.3-1.3-3.3-3.5c0-2.3,1.5-3.6,3.4-3.6
			C346.4,179.5,347.7,180.9,347.7,183z M342.3,183.1c0,1.5,0.9,2.6,2.1,2.6c1.2,0,2.1-1.1,2.1-2.6c0-1.2-0.6-2.6-2-2.6
			C343,180.4,342.3,181.8,342.3,183.1z"/>
		<path fill="#808082" d="M349.3,181.5c0-0.7,0-1.3-0.1-1.8h1.1l0.1,1.1h0c0.3-0.6,1.1-1.3,2.2-1.3c0.9,0,2.4,0.6,2.4,2.9v4.1h-1.2
			v-3.9c0-1.1-0.4-2-1.6-2c-0.8,0-1.4,0.6-1.7,1.3c-0.1,0.2-0.1,0.4-0.1,0.6v4.1h-1.2V181.5z"/>
		<path fill="#808082" d="M358.5,177.7v2h1.8v0.9h-1.8v3.7c0,0.8,0.2,1.3,0.9,1.3c0.3,0,0.6,0,0.7-0.1l0.1,0.9
			c-0.2,0.1-0.6,0.2-1.1,0.2c-0.6,0-1-0.2-1.3-0.5c-0.4-0.4-0.5-1-0.5-1.8v-3.7h-1.1v-0.9h1.1V178L358.5,177.7z"/>
		<path fill="#808082" d="M365.4,186.4l-0.1-0.9h0c-0.4,0.5-1.1,1-2.1,1c-1.4,0-2.1-1-2.1-2c0-1.6,1.5-2.5,4.1-2.5V182
			c0-0.6-0.2-1.6-1.5-1.6c-0.6,0-1.3,0.2-1.8,0.5l-0.3-0.8c0.6-0.4,1.4-0.6,2.2-0.6c2.1,0,2.6,1.4,2.6,2.8v2.5c0,0.6,0,1.2,0.1,1.6
			H365.4z M365.2,183c-1.3,0-2.9,0.2-2.9,1.5c0,0.8,0.5,1.2,1.2,1.2c0.9,0,1.4-0.6,1.6-1.1c0-0.1,0.1-0.3,0.1-0.4V183z"/>
		<path fill="#808082" d="M368.4,181.5c0-0.7,0-1.3-0.1-1.8h1.1l0.1,1.1h0c0.3-0.6,1.1-1.3,2.2-1.3c0.9,0,2.4,0.6,2.4,2.9v4.1H373
			v-3.9c0-1.1-0.4-2-1.6-2c-0.8,0-1.4,0.6-1.7,1.3c-0.1,0.2-0.1,0.4-0.1,0.6v4.1h-1.2V181.5z"/>
		<path fill="#808082" d="M377.6,177.7v2h1.8v0.9h-1.8v3.7c0,0.8,0.2,1.3,0.9,1.3c0.3,0,0.6,0,0.7-0.1l0.1,0.9
			c-0.2,0.1-0.6,0.2-1.1,0.2c-0.6,0-1-0.2-1.3-0.5c-0.4-0.4-0.5-1-0.5-1.8v-3.7h-1.1v-0.9h1.1V178L377.6,177.7z"/>
		<path fill="#808082" d="M383.8,181.5c0-0.7,0-1.3-0.1-1.8h1.1l0.1,1.1h0c0.4-0.6,1-1.2,2.1-1.2c0.9,0,1.6,0.6,1.9,1.4h0
			c0.2-0.4,0.5-0.7,0.8-0.9c0.4-0.3,0.9-0.5,1.5-0.5c0.9,0,2.2,0.6,2.2,2.9v4h-1.2v-3.8c0-1.3-0.5-2.1-1.5-2.1
			c-0.7,0-1.2,0.5-1.5,1.1c-0.1,0.2-0.1,0.4-0.1,0.6v4.2H388v-4.1c0-1.1-0.5-1.9-1.4-1.9c-0.8,0-1.3,0.6-1.5,1.2
			c-0.1,0.2-0.1,0.4-0.1,0.6v4.1h-1.2V181.5z"/>
		<path fill="#808082" d="M401.6,183c0,2.5-1.7,3.6-3.4,3.6c-1.8,0-3.3-1.3-3.3-3.5c0-2.3,1.5-3.6,3.4-3.6
			C400.3,179.5,401.6,180.9,401.6,183z M396.2,183.1c0,1.5,0.9,2.6,2.1,2.6c1.2,0,2.1-1.1,2.1-2.6c0-1.2-0.6-2.6-2-2.6
			C396.9,180.4,396.2,181.8,396.2,183.1z"/>
		<path fill="#808082" d="M403.5,179.6l1.5,4c0.2,0.4,0.3,1,0.4,1.4h0c0.1-0.4,0.3-0.9,0.4-1.4l1.3-4h1.3l-1.9,4.8
			c-0.9,2.3-1.5,3.5-2.3,4.3c-0.6,0.5-1.2,0.7-1.5,0.8l-0.3-1c0.3-0.1,0.7-0.3,1.1-0.6c0.3-0.3,0.8-0.7,1-1.4
			c0.1-0.1,0.1-0.2,0.1-0.3c0-0.1,0-0.2-0.1-0.3l-2.5-6.3H403.5z"/>
		<path fill="#808082" d="M410.2,183.3c0,1.7,1.1,2.4,2.3,2.4c0.9,0,1.4-0.2,1.9-0.4l0.2,0.9c-0.4,0.2-1.2,0.4-2.3,0.4
			c-2.1,0-3.3-1.4-3.3-3.4c0-2,1.2-3.7,3.2-3.7c2.2,0,2.8,2,2.8,3.2c0,0.3,0,0.4,0,0.6H410.2z M413.9,182.4c0-0.8-0.3-2-1.7-2
			c-1.3,0-1.8,1.2-1.9,2H413.9z"/>
		<path fill="#808082" d="M416.6,181.5c0-0.7,0-1.3-0.1-1.8h1.1l0.1,1.1h0c0.3-0.6,1.1-1.3,2.2-1.3c0.9,0,2.4,0.6,2.4,2.9v4.1h-1.2
			v-3.9c0-1.1-0.4-2-1.6-2c-0.8,0-1.4,0.6-1.7,1.3c-0.1,0.2-0.1,0.4-0.1,0.6v4.1h-1.2V181.5z"/>
		<path fill="#808082" d="M427.3,176.5h1.2v10h-1.2V176.5z"/>
		<path fill="#808082" d="M431.3,183.3c0,1.7,1.1,2.4,2.3,2.4c0.9,0,1.4-0.2,1.9-0.4l0.2,0.9c-0.4,0.2-1.2,0.4-2.3,0.4
			c-2.1,0-3.3-1.4-3.3-3.4c0-2,1.2-3.7,3.2-3.7c2.2,0,2.8,2,2.8,3.2c0,0.3,0,0.4,0,0.6H431.3z M435,182.4c0-0.8-0.3-2-1.7-2
			c-1.3,0-1.8,1.2-1.9,2H435z"/>
		<path fill="#808082" d="M438.2,179.6l1.3,3.8c0.2,0.6,0.4,1.2,0.5,1.7h0c0.2-0.6,0.4-1.1,0.6-1.7l1.3-3.8h1.3l-2.7,6.8h-1.2
			l-2.6-6.8H438.2z"/>
		<path fill="#808082" d="M445,183.3c0,1.7,1.1,2.4,2.3,2.4c0.9,0,1.4-0.2,1.9-0.4l0.2,0.9c-0.4,0.2-1.2,0.4-2.3,0.4
			c-2.1,0-3.3-1.4-3.3-3.4c0-2,1.2-3.7,3.2-3.7c2.2,0,2.8,2,2.8,3.2c0,0.3,0,0.4,0,0.6H445z M448.6,182.4c0-0.8-0.3-2-1.7-2
			c-1.3,0-1.8,1.2-1.9,2H448.6z M448.9,176.7l-1.7,2h-0.9l1.2-2H448.9z"/>
	</g>
</g>
<g>
	<path fill="#002846" d="M122.7,12.9c-1.5-0.4-2.9-0.8-4.1-1.2c-0.2-0.1-0.4-0.2-0.7-0.2c-2.6-0.1-4.8-2-4.8-5.5
		c0-3.5,2.1-5.7,5-5.7c2.9,0,4.8,2.3,4.8,5.5c0,2.8-1.3,4.5-3.1,5.2v0.1c1.1,0.3,2.2,0.5,3.2,0.7L122.7,12.9z M121.6,5.9
		c0-2.2-1.1-4.4-3.4-4.4c-2.4,0-3.5,2.2-3.5,4.5c0,2.3,1.2,4.4,3.4,4.4C120.3,10.4,121.6,8.4,121.6,5.9z"/>
	<path fill="#002846" d="M131.3,9.3c0,0.8,0,1.5,0.1,2.1h-1.2l-0.1-1.3h0c-0.4,0.6-1.2,1.4-2.6,1.4c-1.2,0-2.7-0.7-2.7-3.4V3.6h1.4
		v4.3c0,1.5,0.4,2.5,1.7,2.5c0.9,0,1.6-0.7,1.9-1.3c0.1-0.2,0.1-0.5,0.1-0.7V3.6h1.4V9.3z"/>
	<path fill="#002846" d="M134.5,7.7c0,1.9,1.2,2.7,2.7,2.7c1,0,1.6-0.2,2.1-0.4l0.2,1c-0.5,0.2-1.3,0.5-2.6,0.5
		c-2.4,0-3.8-1.6-3.8-3.9s1.4-4.2,3.6-4.2c2.5,0,3.2,2.2,3.2,3.6c0,0.3,0,0.5,0,0.7H134.5z M138.6,6.7c0-0.9-0.4-2.3-2-2.3
		c-1.4,0-2,1.3-2.2,2.3H138.6z"/>
	<path fill="#002846" d="M141.7,0h1.4v11.4h-1.4V0z"/>
	<path fill="#002846" d="M148.9,6.1c0-1,0-1.8-0.1-2.5h1.3l0.1,1.3h0c0.6-0.9,1.5-1.5,2.8-1.5c1.9,0,3.3,1.6,3.3,3.9
		c0,2.8-1.7,4.2-3.5,4.2c-1,0-1.9-0.4-2.4-1.2h0v4.2h-1.4V6.1z M150.2,8.2c0,0.2,0,0.4,0.1,0.6c0.3,1,1.1,1.6,2.1,1.6
		c1.5,0,2.4-1.2,2.4-3c0-1.6-0.8-2.9-2.3-2.9c-1,0-1.9,0.7-2.1,1.7c0,0.2-0.1,0.4-0.1,0.6V8.2z"/>
	<path fill="#002846" d="M165,7.4c0,2.9-2,4.1-3.9,4.1c-2.1,0-3.7-1.5-3.7-4c0-2.6,1.7-4.1,3.8-4.1C163.5,3.4,165,5.1,165,7.4z
		 M158.8,7.5c0,1.7,1,3,2.4,3c1.3,0,2.4-1.3,2.4-3c0-1.3-0.7-3-2.3-3C159.5,4.5,158.8,6,158.8,7.5z"/>
	<path fill="#002846" d="M168.4,1.4v2.2h2v1.1h-2v4.2c0,1,0.3,1.5,1.1,1.5c0.4,0,0.6,0,0.8-0.1l0.1,1.1c-0.3,0.1-0.7,0.2-1.2,0.2
		c-0.7,0-1.2-0.2-1.5-0.6c-0.4-0.4-0.5-1.1-0.5-2V4.7h-1.2V3.6h1.2V1.8L168.4,1.4z"/>
	<path fill="#002846" d="M172.7,7.7c0,1.9,1.2,2.7,2.7,2.7c1,0,1.6-0.2,2.1-0.4l0.2,1c-0.5,0.2-1.3,0.5-2.6,0.5
		c-2.4,0-3.8-1.6-3.8-3.9s1.4-4.2,3.6-4.2c2.5,0,3.2,2.2,3.2,3.6c0,0.3,0,0.5,0,0.7H172.7z M176.9,6.7c0-0.9-0.4-2.3-2-2.3
		c-1.4,0-2,1.3-2.2,2.3H176.9z"/>
	<path fill="#002846" d="M180,5.7c0-0.8,0-1.5-0.1-2.1h1.2l0.1,1.3h0c0.4-0.7,1.3-1.5,2.6-1.5c1.1,0,2.7,0.6,2.7,3.3v4.6h-1.4V6.9
		c0-1.2-0.5-2.3-1.8-2.3c-0.9,0-1.6,0.7-1.9,1.4c-0.1,0.2-0.1,0.4-0.1,0.7v4.7H180V5.7z"/>
	<path fill="#002846" d="M190.5,1.4v2.2h2v1.1h-2v4.2c0,1,0.3,1.5,1.1,1.5c0.4,0,0.6,0,0.8-0.1l0.1,1.1c-0.3,0.1-0.7,0.2-1.2,0.2
		c-0.7,0-1.2-0.2-1.5-0.6c-0.4-0.4-0.5-1.1-0.5-2V4.7h-1.2V3.6h1.2V1.8L190.5,1.4z"/>
	<path fill="#002846" d="M195.6,1.4c0,0.5-0.3,0.9-0.9,0.9c-0.5,0-0.8-0.4-0.8-0.9c0-0.5,0.4-0.9,0.9-0.9
		C195.3,0.6,195.6,0.9,195.6,1.4z M194.1,11.4V3.6h1.4v7.7H194.1z"/>
	<path fill="#002846" d="M198.6,7.7c0,1.9,1.2,2.7,2.7,2.7c1,0,1.6-0.2,2.1-0.4l0.2,1c-0.5,0.2-1.3,0.5-2.6,0.5
		c-2.4,0-3.8-1.6-3.8-3.9s1.4-4.2,3.6-4.2c2.5,0,3.2,2.2,3.2,3.6c0,0.3,0,0.5,0,0.7H198.6z M202.7,6.7c0-0.9-0.4-2.3-2-2.3
		c-1.4,0-2,1.3-2.2,2.3H202.7z"/>
	<path fill="#002846" d="M205.8,0h1.4v11.4h-1.4V0z"/>
	<path fill="#002846" d="M213,6.1c0-1,0-1.8-0.1-2.5h1.3l0.1,1.3h0c0.6-0.9,1.5-1.5,2.8-1.5c1.9,0,3.3,1.6,3.3,3.9
		c0,2.8-1.7,4.2-3.5,4.2c-1,0-1.9-0.4-2.4-1.2h0v4.2H213V6.1z M214.4,8.2c0,0.2,0,0.4,0.1,0.6c0.3,1,1.1,1.6,2.1,1.6
		c1.5,0,2.4-1.2,2.4-3c0-1.6-0.8-2.9-2.3-2.9c-1,0-1.9,0.7-2.1,1.7c0,0.2-0.1,0.4-0.1,0.6V8.2z"/>
	<path fill="#002846" d="M229.1,7.4c0,2.9-2,4.1-3.9,4.1c-2.1,0-3.7-1.5-3.7-4c0-2.6,1.7-4.1,3.8-4.1C227.6,3.4,229.1,5.1,229.1,7.4
		z M223,7.5c0,1.7,1,3,2.4,3c1.3,0,2.4-1.3,2.4-3c0-1.3-0.7-3-2.3-3C223.7,4.5,223,6,223,7.5z"/>
	<path fill="#002846" d="M237.4,9.3c0,0.8,0,1.5,0.1,2.1h-1.2l-0.1-1.3h0c-0.4,0.6-1.2,1.4-2.6,1.4c-1.2,0-2.7-0.7-2.7-3.4V3.6h1.4
		v4.3c0,1.5,0.4,2.5,1.7,2.5c0.9,0,1.6-0.7,1.9-1.3c0.1-0.2,0.1-0.5,0.1-0.7V3.6h1.4V9.3z"/>
	<path fill="#002846" d="M239.7,6c0-0.9,0-1.7-0.1-2.4h1.2l0,1.5h0.1c0.4-1,1.2-1.7,2.1-1.7c0.2,0,0.3,0,0.4,0v1.3
		c-0.1,0-0.3,0-0.5,0c-1,0-1.7,0.8-1.9,1.8c0,0.2-0.1,0.4-0.1,0.7v4.1h-1.4V6z"/>
	<path fill="#002846" d="M248.9,3.6l1.5,4.4c0.3,0.7,0.5,1.3,0.6,2h0c0.2-0.6,0.4-1.3,0.7-2l1.5-4.4h1.5l-3,7.7h-1.3l-2.9-7.7H248.9
		z"/>
	<path fill="#002846" d="M262.9,7.4c0,2.9-2,4.1-3.9,4.1c-2.1,0-3.7-1.5-3.7-4c0-2.6,1.7-4.1,3.8-4.1C261.4,3.4,262.9,5.1,262.9,7.4
		z M256.7,7.5c0,1.7,1,3,2.4,3c1.3,0,2.4-1.3,2.4-3c0-1.3-0.7-3-2.3-3C257.4,4.5,256.7,6,256.7,7.5z"/>
	<path fill="#002846" d="M266.3,1.4v2.2h2v1.1h-2v4.2c0,1,0.3,1.5,1.1,1.5c0.4,0,0.6,0,0.8-0.1l0.1,1.1c-0.3,0.1-0.7,0.2-1.2,0.2
		c-0.7,0-1.2-0.2-1.5-0.6c-0.4-0.4-0.5-1.1-0.5-2V4.7h-1.2V3.6h1.2V1.8L266.3,1.4z"/>
	<path fill="#002846" d="M269.9,6c0-0.9,0-1.7-0.1-2.4h1.2l0,1.5h0.1c0.4-1,1.2-1.7,2.1-1.7c0.2,0,0.3,0,0.4,0v1.3
		c-0.1,0-0.3,0-0.5,0c-1,0-1.7,0.8-1.9,1.8c0,0.2-0.1,0.4-0.1,0.7v4.1h-1.4V6z"/>
	<path fill="#002846" d="M275.8,7.7c0,1.9,1.2,2.7,2.7,2.7c1,0,1.6-0.2,2.1-0.4l0.2,1c-0.5,0.2-1.3,0.5-2.6,0.5
		c-2.4,0-3.8-1.6-3.8-3.9s1.4-4.2,3.6-4.2c2.5,0,3.2,2.2,3.2,3.6c0,0.3,0,0.5,0,0.7H275.8z M279.9,6.7c0-0.9-0.4-2.3-2-2.3
		c-1.4,0-2,1.3-2.2,2.3H279.9z"/>
	<path fill="#002846" d="M286.4,6.1c0-1,0-1.8-0.1-2.5h1.3l0.1,1.3h0c0.6-0.9,1.5-1.5,2.8-1.5c1.9,0,3.3,1.6,3.3,3.9
		c0,2.8-1.7,4.2-3.5,4.2c-1,0-1.9-0.4-2.4-1.2h0v4.2h-1.4V6.1z M287.8,8.2c0,0.2,0,0.4,0.1,0.6c0.3,1,1.1,1.6,2.1,1.6
		c1.5,0,2.4-1.2,2.4-3c0-1.6-0.8-2.9-2.3-2.9c-1,0-1.9,0.7-2.1,1.7c0,0.2-0.1,0.4-0.1,0.6V8.2z"/>
	<path fill="#002846" d="M295.5,6c0-0.9,0-1.7-0.1-2.4h1.2l0,1.5h0.1c0.4-1,1.2-1.7,2.1-1.7c0.2,0,0.3,0,0.4,0v1.3
		c-0.1,0-0.3,0-0.5,0c-1,0-1.7,0.8-1.9,1.8c0,0.2-0.1,0.4-0.1,0.7v4.1h-1.4V6z"/>
	<path fill="#002846" d="M307.6,7.4c0,2.9-2,4.1-3.9,4.1c-2.1,0-3.7-1.5-3.7-4c0-2.6,1.7-4.1,3.8-4.1C306.1,3.4,307.6,5.1,307.6,7.4
		z M301.5,7.5c0,1.7,1,3,2.4,3c1.3,0,2.4-1.3,2.4-3c0-1.3-0.7-3-2.3-3C302.2,4.5,301.5,6,301.5,7.5z"/>
	<path fill="#002846" d="M307.5,13.6c0.6,0,1.2-0.2,1.5-0.6c0.4-0.4,0.5-1.1,0.5-2.9V3.6h1.4v7c0,1.5-0.2,2.5-0.9,3.2
		c-0.6,0.6-1.6,0.9-2.4,0.9L307.5,13.6z M311.1,1.4c0,0.5-0.3,0.9-0.9,0.9c-0.5,0-0.9-0.4-0.9-0.9c0-0.5,0.4-0.9,0.9-0.9
		C310.8,0.6,311.1,0.9,311.1,1.4z"/>
	<path fill="#002846" d="M314.1,7.7c0,1.9,1.2,2.7,2.7,2.7c1,0,1.6-0.2,2.1-0.4l0.2,1c-0.5,0.2-1.3,0.5-2.6,0.5
		c-2.4,0-3.8-1.6-3.8-3.9s1.4-4.2,3.6-4.2c2.5,0,3.2,2.2,3.2,3.6c0,0.3,0,0.5,0,0.7H314.1z M318.2,6.7c0-0.9-0.4-2.3-2-2.3
		c-1.4,0-2,1.3-2.2,2.3H318.2z"/>
	<path fill="#002846" d="M323,1.4v2.2h2v1.1h-2v4.2c0,1,0.3,1.5,1.1,1.5c0.4,0,0.6,0,0.8-0.1l0.1,1.1c-0.3,0.1-0.7,0.2-1.2,0.2
		c-0.7,0-1.2-0.2-1.5-0.6c-0.4-0.4-0.5-1.1-0.5-2V4.7h-1.2V3.6h1.2V1.8L323,1.4z"/>
	<path fill="#002846" d="M331.1,8.3l0-0.4c-0.1-0.9,0.2-1.8,1-2.8c0.7-0.8,1.1-1.5,1.1-2.2c0-0.8-0.5-1.4-1.5-1.4
		c-0.6,0-1.2,0.2-1.6,0.5l-0.4-1c0.5-0.4,1.4-0.6,2.3-0.6c1.8,0,2.7,1.1,2.7,2.4c0,1.1-0.6,1.9-1.4,2.8c-0.7,0.8-1,1.5-0.9,2.4
		l0,0.4H331.1z M330.7,10.5c0-0.6,0.4-1,1-1c0.6,0,0.9,0.4,0.9,1c0,0.6-0.4,1-1,1C331.1,11.5,330.7,11.1,330.7,10.5z"/>
</g>
</svg>
