<?xml version="1.0" encoding="utf-8"?>
<!-- Generator: Adobe Illustrator 18.0.0, SVG Export Plug-In . SVG Version: 6.00 Build 0)  -->
<!DOCTYPE svg PUBLIC "-//W3C//DTD SVG 1.1//EN" "http://www.w3.org/Graphics/SVG/1.1/DTD/svg11.dtd">
<svg version="1.1" id="Calque_1" xmlns="http://www.w3.org/2000/svg" xmlns:xlink="http://www.w3.org/1999/xlink" x="0px" y="0px"
	 viewBox="0 0 147.5 47.2" enable-background="new 0 0 147.5 47.2" xml:space="preserve">
<g>
	<path fill="#F2F2F2" d="M0,44.2c0.1,0,0.2,0,0.3,0c25,0,49.9,0,74.9,0c0.6,0,0.6,0,0.6,0.6c0,0.8,0,1.6,0,2.3c0,0.2,0,0.2-0.2,0.2
		c-0.2,0-0.3,0-0.5,0c-25.1,0-50.1,0-75.2,0C0,46.3,0,45.2,0,44.2z"/>
	<path fill="#F2F2F2" d="M13.3,0c0,0.2,0,0.4-0.3,0.4c-0.1,0-0.1,0-0.2,0c-0.6-0.1-0.8,0.2-0.9,0.7c-0.2,0.7-0.3,1.4-0.5,2.1
		c-0.2,1.1-0.5,2.2-0.7,3.3c-0.1,0.5-0.2,1-0.3,1.5c-0.1,0.7,0.1,0.8,0.6,0.8c0.7,0.1,1.4,0.1,2,0C13.6,8.7,14,8.4,14.3,8
		c0.2-0.3,0.3-0.5,0.4-0.8C14.7,7,14.9,7,15,7c0.1,0,0,0.1,0,0.1c-0.1,0.5-0.3,1-0.4,1.5c0,0.2-0.1,0.3-0.1,0.5
		c0,0.2-0.1,0.2-0.3,0.2c-2.1,0-4.1,0-6.2,0c-0.1,0-0.2,0.1-0.2-0.1C7.8,9.1,7.9,9,8,9c0.2,0,0.4,0,0.6-0.1c0.3,0,0.4-0.2,0.5-0.4
		c0.1-0.4,0.2-0.8,0.3-1.3c0.2-0.7,0.3-1.4,0.5-2.1c0.2-1.1,0.5-2.2,0.7-3.3c0.1-0.3,0.2-0.6,0.2-1c0-0.2-0.1-0.3-0.3-0.4
		c-0.2,0-0.4-0.1-0.5-0.1c-0.3,0-0.2-0.1-0.2-0.3c0,0,0-0.1,0-0.1C10.9,0,12.1,0,13.3,0z"/>
	<path fill="#F2F2F2" d="M119.2,47.3c-9.4,0-18.7,0-28.1,0c-0.2,0-0.3,0-0.3-0.3c0-0.9,0-1.8,0-2.7c0-0.2,0-0.3,0.2-0.2
		c0.1,0,0.1,0,0.2,0c18.7,0,37.3,0,56,0c0.1,0,0.2,0,0.2,0c0.1,0,0.1,0,0.1,0.1c0,1,0,2,0,2.9c0,0.1,0,0.1-0.1,0.1
		c-0.1,0-0.1,0-0.2,0C137.9,47.3,128.5,47.3,119.2,47.3z"/>
	<path fill="#F2F2F2" d="M83.4,47.3c-1,0-2,0-3,0c-0.2,0-0.2,0-0.2-0.2c0-0.2-0.1-0.4,0-0.5c0.1-0.1,0.3,0,0.5-0.1
		c0.3,0,0.6-0.1,0.8-0.1c0.3-0.1,0.5-0.3,0.5-0.6c0-0.3,0-0.6,0-1c0-4.6,0-9.2,0-13.8c0-0.3,0-0.6,0-0.8c0-0.3-0.2-0.5-0.5-0.5
		c-0.4-0.1-0.7-0.1-1.1-0.2c-0.1,0-0.2,0-0.2-0.2c0-0.5,0-0.5,0.5-0.6c1-0.2,2-0.3,3-0.5c0.3-0.1,0.3,0,0.4,0.3
		c0.1,0.5,0.2,0.9,0.2,1.4c0,0.2,0.1,0.1,0.2,0.1c0.6-0.4,1.1-0.8,1.7-1.2c0.8-0.4,1.6-0.7,2.5-0.7c1.4,0,2.6,0.5,3.5,1.6
		c0.5,0.6,0.8,1.3,1,2c0.4,1.3,0.4,2.7,0.3,4c-0.1,0.9-0.3,1.8-0.6,2.6C92.2,40,90.8,41,89,41.4c-1.3,0.3-2.7,0.2-4-0.2
		c-0.2,0-0.3-0.1-0.4-0.2c-0.2-0.1-0.2,0-0.2,0.1c0,0.9,0,1.7,0,2.6c0,0.6,0,1.1,0,1.7c0,0.8,0.4,0.9,1,1c0.4,0,0.8,0.1,1.1,0.1
		c0.1,0,0.1,0,0.1,0.1c0,0.6,0,0.6-0.6,0.6C85.2,47.3,84.3,47.3,83.4,47.3z M84.4,35.1c0,1,0,1.9,0,2.8c0.1,0.6,0.3,1.2,0.7,1.7
		c0.9,1,2.4,1.2,3.6,0.7c1-0.4,1.6-1.2,1.9-2.2c0.6-1.8,0.6-3.6,0.3-5.4c-0.1-0.8-0.4-1.6-1-2.3c-0.8-0.8-1.7-1-2.8-0.9
		c-1.3,0.2-2.5,1.5-2.6,2.8C84.3,33.3,84.4,34.2,84.4,35.1z"/>
	<path fill="#F2F2F2" d="M51.3,13.3c0.6-0.4,1.1-0.7,1.7-1.1c1-0.7,2.2-1,3.4-0.9c1.5,0.1,2.5,0.9,3,2.4c0.2,0.6,0.2,1.2,0.2,1.8
		c0,2.3,0,4.6,0,6.9c0,0.1,0,0.2,0,0.4c0.1,0.6,0.3,0.8,1.1,0.9c0.2,0,0.4,0,0.7,0.1c0.1,0,0.2,0.1,0.2,0.2c0,0.6,0,0.6-0.6,0.6
		c-1.8,0-3.6,0-5.3,0c-0.2,0-0.2-0.1-0.2-0.3c0-0.5,0-0.5,0.5-0.5c0.3,0,0.6,0,0.8-0.1c0.4-0.1,0.5-0.3,0.6-0.7c0-0.1,0-0.2,0-0.3
		c0-2.3,0-4.5,0-6.8c0-0.6-0.1-1.1-0.3-1.6c-0.3-0.8-1-1.3-1.9-1.3c-1.5-0.2-2.6,0.5-3.4,1.7c-0.2,0.4-0.3,0.8-0.3,1.3
		c0,2.3,0,4.7,0,7c0,0.5,0.2,0.7,0.7,0.8c0.3,0.1,0.6,0.1,0.9,0.1c0.2,0,0.2,0.1,0.2,0.2c0,0.5,0,0.5-0.5,0.5c-1.8,0-3.6,0-5.4,0
		c-0.2,0-0.2,0-0.2-0.2c0-0.5,0-0.5,0.5-0.6c0.3,0,0.6,0,0.9-0.1c0.3-0.1,0.5-0.3,0.5-0.6c0-0.2,0-0.4,0-0.6c0-2.8,0-5.6,0-8.5
		c0-0.1,0-0.3,0-0.4c-0.1-0.6-0.3-0.6-0.7-0.7c-0.3-0.1-0.6-0.1-0.8-0.1c-0.1,0-0.2-0.1-0.2-0.2c0-0.5,0-0.5,0.4-0.5
		c1-0.2,2.1-0.4,3.1-0.6c0.1,0,0.2,0,0.2,0.2c0.1,0.5,0.2,1.1,0.3,1.6C51.3,13.2,51.3,13.2,51.3,13.3z"/>
	<path fill="#F2F2F2" d="M47.8,35.6c0,1.2,0,2.5,0,3.7c0,0.2,0,0.3,0,0.5c0.1,0.4,0.3,0.6,0.8,0.6c0.3,0,0.6,0.1,0.9,0.1
		c0,0,0.1,0,0.1,0c0.1,0.2,0,0.4,0.1,0.7c0,0.1-0.1,0.1-0.2,0.1c-0.5,0-1,0-1.5,0c-1.4,0-2.8,0-4.2,0c-0.2,0-0.3-0.1-0.3-0.3
		c0-0.5,0-0.5,0.5-0.5c0.3,0,0.5-0.1,0.8-0.1c0.4-0.1,0.6-0.3,0.6-0.7c0-0.3,0-0.6,0-0.9c0-2,0-3.9,0-5.9c0-0.6-0.1-1.3-0.3-1.9
		c-0.3-0.9-1-1.4-2-1.5c-1.5-0.1-2.6,0.5-3.3,1.7c-0.3,0.5-0.3,1.1-0.3,1.7c0,2,0,4,0,6c0,0.2,0,0.3,0,0.5c0,0.6,0.2,0.9,0.9,1
		c0.3,0,0.6,0.1,0.8,0.1c0.1,0,0.2,0,0.2,0.2c0,0.6,0,0.6-0.6,0.6c-1.8,0-3.5,0-5.3,0c-0.2,0-0.3,0-0.2-0.2c0,0,0,0,0,0
		c0-0.5,0-0.5,0.5-0.5c0.2,0,0.5,0,0.7-0.1c0.5-0.1,0.7-0.3,0.7-0.8c0-0.3,0-0.5,0-0.8c0-2.7,0-5.3,0-8c0-0.1,0-0.2,0-0.3
		c0-0.6-0.2-0.9-0.9-0.9c-0.3,0-0.5-0.1-0.8-0.1c-0.1,0-0.1,0-0.1-0.1c0-0.2,0-0.3,0-0.5c0-0.1,0.1-0.1,0.2-0.1
		c0.8-0.1,1.5-0.3,2.3-0.4c0.4-0.1,0.8-0.1,1.2-0.2c0.2,0,0.2,0,0.2,0.1c0.1,0.5,0.2,1,0.3,1.5c0.1,0.3,0,0.3,0.3,0.1
		c0.8-0.5,1.6-1.1,2.5-1.5c1.3-0.5,2.6-0.6,3.8,0.1c0.8,0.4,1.3,1.1,1.5,2c0.2,0.5,0.2,1,0.2,1.6C47.8,33.3,47.8,34.4,47.8,35.6
		C47.8,35.6,47.8,35.6,47.8,35.6z"/>
	<path fill="#F2F2F2" d="M34.8,17.2c0,1.8,0,3.6,0,5.3c0,0.1,0,0.3,0,0.4c0.1,0.3,0.2,0.5,0.5,0.6c0.4,0.1,0.7,0.1,1.1,0.1
		c0.1,0,0.2,0,0.2,0.2c0,0.6,0,0.6-0.6,0.6c-1.1,0-2.2,0-3.3,0c-0.2,0-0.2-0.1-0.2-0.2c-0.1-0.4-0.1-0.8-0.2-1.2
		c0-0.2-0.1-0.2-0.2-0.1c-0.6,0.4-1.2,0.8-1.8,1.1c-0.9,0.4-1.8,0.7-2.7,0.7c-0.9,0-1.8-0.2-2.4-0.9c-0.5-0.5-0.8-1.2-0.9-1.9
		c-0.1-0.5-0.1-0.9-0.1-1.4c0-2.2,0-4.5,0-6.7c0-0.2,0-0.3,0-0.5c-0.1-0.5-0.2-0.6-0.7-0.7c-0.3,0-0.6-0.1-0.9-0.1
		c-0.1,0-0.1-0.1-0.1-0.2c0-0.5,0-0.5,0.5-0.6c1.1-0.2,2.2-0.4,3.3-0.6c0.3,0,0.4,0.1,0.4,0.3c0,2.9,0,5.8,0,8.7
		c0,0.7,0.1,1.3,0.5,1.9c0.4,0.6,1,1,1.7,1c1.5,0.1,2.8-0.6,3.5-2c0.2-0.3,0.2-0.7,0.2-1.1c0-2.2,0-4.5,0-6.7c0-0.6-0.2-0.8-1-0.9
		c-0.1,0-0.3,0-0.4,0c-0.4-0.1-0.4-0.1-0.4-0.5c0-0.2,0-0.2,0.2-0.3c0.9-0.1,1.9-0.3,2.8-0.5c0.3,0,0.5-0.1,0.8-0.1
		c0.3,0,0.4,0,0.4,0.3C34.8,13.5,34.8,15.4,34.8,17.2z"/>
	<path fill="#F2F2F2" d="M14.8,11.3c1.2,0,2.2,0.2,3.2,0.7c1.3,0.7,2.1,1.8,2.5,3.2c0.4,1.3,0.4,2.7,0.3,4c-0.1,0.9-0.3,1.8-0.7,2.7
		c-0.6,1.3-1.6,2.1-2.9,2.5c-1.5,0.5-3,0.5-4.4,0.1c-1.8-0.5-3-1.8-3.5-3.6c-0.4-1.3-0.4-2.7-0.3-4c0.1-1,0.3-1.9,0.7-2.7
		c0.8-1.5,2-2.4,3.6-2.7C13.8,11.4,14.3,11.3,14.8,11.3z M18.3,18.1c0-1.3-0.1-2.3-0.4-3.2c-0.2-0.8-0.6-1.6-1.3-2.1
		c-1.1-0.9-3.1-0.9-4.2,0.7c-0.6,0.9-0.8,1.9-0.9,3c-0.1,1-0.1,2.1,0,3.1c0.1,0.9,0.3,1.7,0.7,2.5c0.8,1.5,2.2,2,3.6,1.6
		c1-0.3,1.6-1.1,1.9-2C18.2,20.5,18.3,19.1,18.3,18.1z"/>
	<path fill="#F2F2F2" d="M72.4,17.9c0,1.2,0,2.3,0,3.5c0,0.5,0,1,0.2,1.4c0.2,0.5,0.5,0.7,1,0.7c0.2,0,0.5,0,0.7,0
		c0.1,0,0.2,0,0.2,0.2c0.1,0.4,0.1,0.4-0.3,0.6c-0.8,0.4-1.6,0.5-2.4,0.6c-0.7,0-1.3-0.3-1.6-1.2c-0.2-0.4-0.2-0.4-0.5-0.2
		c-0.8,0.5-1.6,1-2.5,1.2c-2,0.5-4.1-0.6-4.4-3c-0.1-0.9,0-1.8,0.5-2.5c0.4-0.6,0.9-0.9,1.6-1.1c1.3-0.5,2.7-0.8,4-1.3
		c0.4-0.2,0.8-0.3,1.1-0.6c0.1-0.1,0.2-0.2,0.2-0.3c0-0.7,0-1.3-0.1-2c-0.4-1.7-2.3-1.8-3.3-1.1c-0.7,0.5-1.1,1.3-1.3,2.1
		c0,0.1-0.1,0.2-0.1,0.3c-0.2,0.4-0.5,0.6-1,0.5c-0.5-0.1-1-0.4-1.1-0.9c-0.1-0.5,0-0.9,0.3-1.3c0.6-0.8,1.5-1.3,2.5-1.6
		c1-0.3,2.1-0.4,3.2-0.3c0.7,0.1,1.3,0.2,1.8,0.5c0.8,0.4,1.1,1.1,1.3,2c0.1,0.4,0.1,0.7,0.1,1.1C72.4,15.9,72.4,16.9,72.4,17.9z
		 M70.1,19.1L70.1,19.1c0-0.6,0-1.2,0-1.9c0-0.1,0-0.2-0.2-0.1c-0.4,0.3-0.9,0.4-1.3,0.6c-0.7,0.3-1.4,0.5-2,0.8
		c-0.7,0.3-1.2,0.8-1.3,1.6c0,0.3,0,0.6,0,0.9c0,0.5,0.2,1,0.5,1.5c0.8,1,2.4,1.1,3.4,0.3c0.7-0.5,0.9-1.2,0.9-2
		C70.2,20.3,70.1,19.7,70.1,19.1z"/>
	<path fill="#F2F2F2" d="M74.6,34.3c-1.2,0-2.4,0-3.6,0c-0.1,0-0.2,0-0.2,0.2c0,1.1,0.1,2.3,0.5,3.4c0.4,1.1,1,1.9,2.2,2.2
		c1.6,0.4,3.2,0,4.1-1.5c0.2-0.3,0.4-0.6,0.5-0.9c0.1-0.1,0.1-0.1,0.2-0.1c0.6,0.3,0.6,0.3,0.4,1c-0.6,1.3-1.4,2.2-2.7,2.7
		c-0.8,0.3-1.6,0.3-2.4,0.3c-1.1,0-2.1-0.3-3-0.8c-1-0.6-1.6-1.6-2-2.7c-0.3-0.8-0.4-1.7-0.4-2.6c0-1.1,0-2.2,0.4-3.3
		c0.5-1.7,1.4-3,3.1-3.6c0.9-0.4,1.9-0.5,2.9-0.4c0.7,0.1,1.4,0.2,2.1,0.5c1.3,0.7,2,1.8,2.3,3.1c0.1,0.6,0.2,1.1,0.2,1.7
		c0,0.6-0.3,0.9-0.9,0.9C77,34.3,75.8,34.3,74.6,34.3z M73.3,33.4c0.8,0,1.5,0,2.3,0c0.6,0,0.9-0.3,0.8-0.9c0-0.5-0.1-0.9-0.2-1.4
		c-0.3-1.1-1-2-2.2-2.1c-1-0.1-1.8,0.3-2.3,1c-0.7,0.9-0.9,2-0.9,3.1c0,0.2,0,0.2,0.2,0.2C71.8,33.4,72.5,33.4,73.3,33.4z"/>
	<path fill="#F2F2F2" d="M29.6,34.3c-1.2,0-2.4,0-3.6,0c-0.1,0-0.2,0-0.2,0.2c0,1.2,0.1,2.4,0.6,3.6c0.6,1.4,1.8,2.2,3.4,2.1
		c1.3-0.1,2.2-0.7,2.8-1.7c0.2-0.3,0.4-0.6,0.5-0.9c0-0.1,0.1-0.1,0.2-0.1c0.2,0.1,0.3,0.2,0.5,0.3c0.1,0.1,0.1,0.1,0.1,0.2
		c-0.6,1.7-1.7,3-3.6,3.4c-0.8,0.2-1.6,0.2-2.4,0.1c-0.8-0.1-1.5-0.3-2.2-0.7c-0.9-0.5-1.5-1.4-1.9-2.3c-0.6-1.4-0.6-2.8-0.6-4.3
		c0.1-1.5,0.4-2.8,1.3-4c0.8-1,1.8-1.7,3.1-1.9c1.1-0.2,2.3-0.2,3.4,0.2c1.5,0.5,2.4,1.6,2.8,3.1c0.2,0.6,0.3,1.3,0.2,1.9
		c0,0.6-0.3,0.9-0.9,0.9C32,34.3,30.8,34.3,29.6,34.3z M28.3,33.4c0.7,0,1.4,0,2.2,0c0.1,0,0.2,0,0.3,0c0.4-0.1,0.6-0.3,0.6-0.7
		c0-0.6,0-1.1-0.2-1.6c-0.2-0.7-0.5-1.3-1.2-1.7c-1.2-0.6-2.6-0.2-3.4,0.9c-0.6,0.9-0.8,1.9-0.8,3c0,0.2,0.1,0.2,0.2,0.2
		C26.8,33.4,27.5,33.4,28.3,33.4z"/>
	<path fill="#F2F2F2" d="M129.3,34.3c-1.2,0-2.4,0-3.6,0c-0.2,0-0.2,0-0.2,0.2c0,1.2,0.1,2.4,0.6,3.6c0.5,1.1,1.2,1.8,2.4,2
		c1.5,0.2,2.8-0.2,3.7-1.5c0.2-0.3,0.4-0.6,0.6-1c0.1-0.2,0.2-0.2,0.3-0.1c0,0,0.1,0,0.1,0.1c0.5,0.3,0.5,0.3,0.3,0.8
		c-0.6,1.5-1.6,2.6-3.2,3c-1.6,0.4-3.2,0.3-4.7-0.5c-1-0.5-1.6-1.4-2-2.5c-0.5-1.4-0.6-2.9-0.5-4.4c0.1-1.2,0.4-2.3,1-3.3
		c0.8-1.3,1.9-2.1,3.4-2.4c1.1-0.2,2.2-0.2,3.3,0.1c1.7,0.5,2.6,1.7,3,3.3c0.1,0.5,0.2,1.1,0.2,1.7c0,0.6-0.3,1-1,1
		C131.7,34.3,130.5,34.3,129.3,34.3z M128,33.4L128,33.4c0.8,0,1.5,0,2.3,0c0.5,0,0.8-0.2,0.8-0.7c0-0.7-0.1-1.4-0.3-2
		c-0.4-1-1-1.6-2.1-1.7c-0.9-0.1-1.7,0.2-2.3,1c-0.7,1-0.9,2.1-1,3.2c0,0.2,0.1,0.1,0.2,0.1C126.5,33.4,127.3,33.4,128,33.4z"/>
	<path fill="#F2F2F2" d="M120.3,30.5c0,0.5,0,0.9,0,1.4c0,0.1,0,0.2-0.2,0.2c-0.2,0-0.4,0-0.5,0c-0.1-0.1-0.1-0.3-0.1-0.5
		c-0.2-0.8-0.5-1.5-1.2-2.1c-0.8-0.6-2.2-0.7-3.1-0.1c-0.9,0.7-1.3,2.4,0.2,3.3c0.7,0.4,1.4,0.6,2.2,0.9c0.8,0.3,1.5,0.6,2.1,1.1
		c0.9,0.7,1.3,1.7,1.3,2.8c0,1-0.3,1.9-1,2.6c-0.6,0.7-1.4,1.1-2.4,1.2c-1.6,0.3-3.1,0.2-4.5-0.5c0,0-0.1,0-0.1,0
		c-0.7-0.4-0.8-0.5-0.8-1.3c0-0.8-0.1-1.6-0.2-2.4c0-0.2,0-0.3,0.2-0.3c0.5,0,0.5,0,0.6,0.5c0.2,0.9,0.6,1.7,1.3,2.4
		c0.8,0.9,2.2,1.1,3.3,0.7c0.9-0.4,1.4-1.3,1.3-2.2c-0.1-1-0.7-1.6-1.6-2c-0.7-0.3-1.4-0.5-2.1-0.8c-0.7-0.3-1.4-0.6-1.9-1.2
		c-0.5-0.5-0.8-1.2-0.9-1.9c-0.1-1.1,0.2-2.1,0.9-2.9c0.6-0.6,1.3-1,2.1-1.1c1.3-0.3,2.5-0.2,3.8,0.2c0,0,0,0,0,0
		c0.9,0.3,0.9,0.4,0.9,1.3C120.3,30.1,120.3,30.3,120.3,30.5z"/>
	<path fill="#F2F2F2" d="M143.5,30.5c0,0.5,0,0.9,0,1.4c0,0.1,0,0.2-0.2,0.2c-0.2,0-0.4,0.1-0.5,0c-0.1-0.1-0.1-0.3-0.1-0.5
		c-0.2-0.7-0.4-1.4-1-2c-0.9-0.8-2.5-0.8-3.4,0c-0.7,0.7-1,2.2,0.3,3.1c0.6,0.4,1.3,0.6,2,0.9c0.9,0.3,1.7,0.6,2.5,1.2
		c0.7,0.6,1.1,1.4,1.2,2.3c0.1,1-0.1,2-0.8,2.8c-0.6,0.8-1.4,1.2-2.3,1.4c-1.6,0.3-3.1,0.2-4.6-0.5c-0.1-0.1-0.3-0.2-0.4-0.2
		c-0.4-0.2-0.5-0.5-0.5-0.9c0-0.9-0.1-1.8-0.2-2.8c0-0.1,0-0.2,0.1-0.2c0,0,0,0,0,0c0.5,0,0.5,0,0.7,0.5c0.3,1,0.7,1.9,1.5,2.6
		c1,0.8,2.7,0.9,3.6,0.2c0.7-0.6,0.9-1.4,0.7-2.3c-0.2-0.8-0.8-1.3-1.5-1.7c-0.5-0.3-1.1-0.4-1.7-0.6c-0.8-0.3-1.6-0.7-2.3-1.3
		c-0.8-0.8-1.1-1.7-0.9-2.8c0.1-0.7,0.3-1.4,0.8-2c0.6-0.7,1.4-1.1,2.3-1.2c1.3-0.3,2.5-0.2,3.7,0.2c0.3,0.1,0.6,0.2,0.8,0.4
		c0.1,0.1,0.1,0.1,0.1,0.3C143.5,29.6,143.5,30.1,143.5,30.5z"/>
	<path fill="#F2F2F2" d="M79,14.1c0,2.7,0,5.5,0,8.2c0,0.2,0,0.5,0,0.7c0.1,0.3,0.2,0.5,0.5,0.5c0.4,0.1,0.7,0.1,1.1,0.1
		c0.2,0,0.2,0,0.2,0.2c0,0.6,0,0.6-0.5,0.6c-1.8,0-3.6,0-5.4,0c-0.2,0-0.3,0-0.2-0.2c0-0.2,0-0.4,0-0.5c0.1-0.1,0.3,0,0.5-0.1
		c0.3-0.1,0.6-0.1,0.8-0.1c0.3-0.1,0.5-0.3,0.5-0.6c0-0.2,0-0.4,0-0.7c0-4.9,0-9.7,0-14.6c0-0.2,0-0.5,0-0.7
		c-0.1-0.3-0.2-0.5-0.6-0.5c-0.3,0-0.6-0.1-0.9-0.1c-0.2,0-0.2-0.1-0.2-0.3c0-0.4,0-0.4,0.4-0.5c1.1-0.2,2.3-0.4,3.4-0.6
		C78.9,5,79,5.1,79,5.3c0,0.1,0,0.2,0,0.3C79,8.4,79,11.3,79,14.1z"/>
	<path fill="#F2F2F2" d="M6,18.6c0,2,0,4,0,6c0,0.9-0.1,1.8-0.3,2.6c-0.5,1.7-1.5,2.8-3.2,3.3c-0.7,0.2-1.4,0.3-2.1,0.3
		c-0.2,0-0.2-0.1-0.2-0.2c0-0.1,0-0.1,0-0.2c0-0.1,0-0.2,0.2-0.2C0.9,30,1.5,29.8,2,29.4c0.8-0.5,1.2-1.3,1.3-2.2
		c0.2-1.1,0.3-2.2,0.3-3.3c0-3.4,0-6.7,0-10.1c0-1-0.3-1-1-1.1c-0.2,0-0.4-0.1-0.6-0.1c-0.1,0-0.1-0.1-0.1-0.2c0-0.5,0-0.5,0.5-0.6
		c1.1-0.2,2.2-0.4,3.3-0.6c0.2,0,0.4,0.1,0.4,0.3C6,14,6,16.3,6,18.6C6,18.6,6,18.6,6,18.6z"/>
	<path fill="#F2F2F2" d="M52.3,34.2c0-1.5,0-3,0-4.5c0-0.2-0.1-0.2-0.2-0.2c-0.5,0-0.9,0-1.4,0c-0.1,0-0.2,0-0.2-0.2
		c0-0.2,0-0.4,0-0.6c0-0.2,0-0.2,0.2-0.2c0.5,0,1,0,1.5,0c0.2,0,0.2,0,0.3-0.2c0.4-1,0.9-1.9,1.4-2.9c0.1-0.2,0.2-0.2,0.3-0.2
		c0.5,0,0.5,0,0.5,0.5c0,0.9,0,1.7,0,2.6c0,0.2,0,0.2,0.2,0.2c0.9,0,1.9,0,2.8,0c0.2,0,0.3,0.1,0.2,0.3c0,0.2,0,0.4,0,0.6
		c0,0.2,0,0.2-0.2,0.2c-1,0-1.9,0-2.9,0c-0.1,0-0.2,0-0.2,0.2c0,2.8,0,5.5,0,8.3c0,0.5,0.1,1,0.4,1.5c0.4,0.7,1,0.9,1.8,0.8
		c0.4-0.1,0.8-0.1,1.2-0.3c0.1,0,0.1,0,0.2,0.1c0.2,0.5,0.2,0.4-0.2,0.6c-0.7,0.4-1.5,0.8-2.3,0.9c-1.1,0.1-2.1,0-2.8-1
		c-0.4-0.5-0.5-1.2-0.5-1.8C52.3,37.2,52.3,35.7,52.3,34.2L52.3,34.2z"/>
	<path fill="#F2F2F2" d="M99.5,35.9c0,1.2,0,2.4,0,3.6c0,0.6,0.2,0.8,0.8,0.9c0.5,0.1,0.9,0.1,1.4,0.1c0.1,0,0.2,0,0.2,0.2
		c0,0.6,0,0.6-0.6,0.6c-1.9,0-3.9,0-5.8,0c-0.2,0-0.3-0.1-0.3-0.3c0-0.5,0-0.5,0.6-0.6c0.3,0,0.5-0.1,0.8-0.1
		c0.3-0.1,0.4-0.3,0.5-0.6c0-0.2,0.1-0.4,0.1-0.5c0-2.9,0-5.7,0-8.6c0,0,0-0.1,0-0.1c0-0.7-0.2-0.9-0.8-1c-0.3,0-0.5-0.1-0.8-0.1
		c-0.1,0-0.1,0-0.1-0.2c0-0.5,0-0.5,0.5-0.6c1-0.2,1.9-0.3,2.9-0.5c0,0,0,0,0.1,0c0.3-0.1,0.3-0.1,0.4,0.3c0.1,0.5,0.2,1,0.2,1.6
		c0,0.1,0,0.1,0,0.1c0.1,0,0.1,0,0.1-0.1c0.5-0.4,0.9-0.8,1.4-1.2c0.4-0.3,0.9-0.6,1.4-0.7c0.6-0.1,1.1,0,1.4,0.5
		c0.3,0.5,0.3,1.1,0,1.6c-0.3,0.5-0.9,0.8-1.5,0.4c-0.4-0.3-0.9-0.5-1.4-0.5c-0.4,0-0.7,0.2-1,0.5c-0.4,0.5-0.5,1.1-0.5,1.7
		C99.5,33.5,99.5,34.7,99.5,35.9z"/>
	<path fill="#F2F2F2" d="M41.7,13.4c0.2-0.2,0.4-0.4,0.6-0.6c0.5-0.5,1.1-1,1.8-1.3c0.4-0.2,0.9-0.3,1.3-0.2
		c0.8,0.2,1.1,0.9,0.9,1.6c0,0.2-0.2,0.5-0.3,0.7c-0.4,0.4-0.9,0.5-1.3,0.3c-0.4-0.2-0.8-0.4-1.3-0.5c-0.5-0.1-0.8,0.1-1.1,0.4
		c-0.4,0.5-0.6,1.1-0.6,1.7c-0.1,2.3,0,4.6,0,6.9c0,0.1,0,0.1,0,0.2c0,0.8,0.4,0.9,1,1c0.4,0.1,0.8,0.1,1.2,0.1
		c0.2,0,0.2,0.1,0.2,0.2c0,0.5,0,0.5-0.5,0.5c-2,0-3.9,0-5.9,0c-0.2,0-0.2,0-0.2-0.2c0-0.5,0-0.5,0.5-0.6c0.3,0,0.6-0.1,0.8-0.1
		c0.3-0.1,0.5-0.3,0.5-0.6c0-0.2,0-0.4,0-0.6c0-2.9,0-5.7,0-8.6c0-0.1,0-0.1,0-0.2c0-0.6-0.2-0.8-0.8-0.9c-0.3,0-0.5-0.1-0.8-0.1
		c-0.1,0-0.1-0.1-0.1-0.2c0-0.5,0-0.5,0.5-0.6c1.1-0.2,2.1-0.4,3.2-0.6c0.2,0,0.2,0,0.2,0.2C41.5,12.2,41.6,12.8,41.7,13.4z"/>
	<path fill="#F2F2F2" d="M63.1,30.2c0.4-0.3,0.7-0.6,1.1-0.9c0.5-0.4,0.9-0.8,1.5-1c0.4-0.2,0.8-0.2,1.3-0.1c0.6,0.2,1,0.8,0.9,1.5
		c-0.1,0.3-0.2,0.6-0.5,0.9c-0.3,0.3-0.8,0.4-1.2,0.2c-0.4-0.2-0.7-0.4-1.1-0.5c-0.6-0.1-1,0-1.3,0.5c-0.3,0.5-0.5,1-0.5,1.5
		c-0.1,1.2,0,2.4,0,3.5c0,1.1,0,2.2,0,3.3c0,0.2,0,0.4,0,0.6c0.1,0.3,0.3,0.5,0.6,0.6c0.5,0.1,1,0.1,1.6,0.2c0.1,0,0.2,0,0.2,0.2
		c0,0.6,0,0.6-0.6,0.6c-2,0-3.9,0-5.9,0c-0.2,0-0.3,0-0.3-0.2c0-0.6,0-0.6,0.6-0.6c0.3,0,0.5-0.1,0.8-0.1c0.3-0.1,0.5-0.3,0.5-0.6
		c0-0.2,0-0.4,0-0.6c0-2.8,0-5.6,0-8.4c0-0.2,0-0.4,0-0.5c0-0.3-0.2-0.5-0.5-0.5c-0.3-0.1-0.7-0.1-1.1-0.2c-0.2,0-0.2-0.1-0.2-0.2
		c0-0.5,0-0.5,0.4-0.5c1-0.2,2.1-0.3,3.1-0.5c0.3,0,0.3,0.1,0.3,0.3C62.9,29,63,29.6,63.1,30.2z"/>
	<path fill="#F2F2F2" d="M109.1,34c0,1.7,0,3.3,0,5c0,0.2,0,0.3,0,0.5c0,0.6,0.2,0.8,0.9,0.9c0.3,0,0.6,0.1,0.9,0.1
		c0.1,0,0.1,0,0.1,0.1c0,0.6,0,0.6-0.6,0.6c-1.8,0-3.5,0-5.3,0c-0.2,0-0.3,0-0.3-0.3c0-0.5,0-0.5,0.6-0.6c0.3,0,0.6-0.1,0.8-0.1
		c0.3-0.1,0.4-0.3,0.5-0.5c0-0.2,0.1-0.4,0.1-0.6c0-2.9,0-5.7,0-8.6c0-0.2,0-0.3,0-0.5c0-0.2-0.2-0.4-0.4-0.5
		c-0.4-0.1-0.7-0.1-1.1-0.2c-0.1,0-0.2,0-0.2-0.2c0-0.5,0-0.5,0.5-0.6c1.1-0.2,2.3-0.4,3.4-0.6c0.2,0,0.3,0.1,0.3,0.3
		c0,0.2,0,0.4,0,0.6C109.1,30.7,109.1,32.3,109.1,34z"/>
	<path fill="#F2F2F2" d="M89.7,22c-0.2,0.3-0.4,0.5-0.5,0.8c-0.4,0.6-0.9,1.2-1.5,1.7c-0.5,0.4-1.1,0.6-1.7,0.5
		c-0.4-0.1-0.7-0.4-0.8-0.8c-0.2-0.7-0.2-1.4,0-2c0.3-1,0.7-2,1.4-2.8c0.6-0.7,1.3-1.1,2.2-1.3c0.5-0.1,1-0.1,1.5,0.1
		c0.2,0.1,0.3,0.1,0.3-0.2c0.1-0.7,0.3-1.4,0.5-2.2c0.1-0.3,0-0.4-0.3-0.4c-0.2,0-0.4,0-0.6-0.1c-0.1,0-0.1,0-0.1-0.1
		c0-0.1,0-0.2,0.1-0.2c0.7-0.1,1.3-0.2,2-0.3c0.2,0,0.3,0,0.2,0.2c-0.3,1.2-0.6,2.3-0.8,3.5c-0.3,1.1-0.5,2.1-0.8,3.2
		c-0.1,0.6-0.3,1.2-0.4,1.8c0,0.2,0,0.3,0,0.5c0,0.2,0.2,0.2,0.3,0.1c0.2-0.1,0.4-0.3,0.5-0.5c0.2-0.2,0.3-0.5,0.4-0.7
		c0-0.1,0.1-0.1,0.2-0.1c0.1,0.1,0.2,0.1,0.1,0.2c-0.1,0.3-0.3,0.6-0.5,0.8c-0.3,0.4-0.6,0.7-1,0.9C90.2,25,89.9,25,89.7,25
		c-0.3-0.1-0.4-0.3-0.5-0.6c0-0.5,0.1-0.9,0.2-1.4C89.5,22.7,89.7,22.4,89.7,22z M86.3,23.3c0,0.2,0,0.3,0,0.5
		c0.2,0.6,0.7,0.7,1.2,0.3c0.6-0.4,1-0.9,1.3-1.4c0.7-1.1,1.2-2.4,1.5-3.7c0-0.2,0-0.3-0.2-0.3c-0.6-0.3-1.5-0.1-2,0.3
		c-0.6,0.5-1,1.1-1.3,1.8C86.5,21.6,86.3,22.4,86.3,23.3z"/>
	<path fill="#F2F2F2" d="M92.6,22.8c0-1.2,0.4-2.3,1-3.2c0.6-0.8,1.4-1.4,2.4-1.5c0.6-0.1,1.1-0.1,1.6,0.3c0.4,0.3,0.6,0.9,0.4,1.5
		c-0.2,0.6-0.6,0.9-1,1.2c-0.6,0.4-1.3,0.6-2,0.8c-0.4,0.1-0.7,0.2-1.1,0.3c-0.1,0-0.1,0-0.1,0.1c0,0.4,0,0.8,0.1,1.1
		c0.2,0.9,1,1.1,1.8,0.8c0.5-0.2,0.8-0.6,1.1-0.9c0.1-0.1,0.2-0.2,0.2-0.3c0-0.1,0.1-0.2,0.2-0.1c0.1,0.1,0.2,0.2,0.1,0.3
		c-0.4,0.6-1,1.2-1.7,1.5c-0.6,0.2-1.2,0.3-1.8,0.2c-0.7-0.2-1.1-0.7-1.2-1.4C92.6,23.3,92.5,23,92.6,22.8z M96.9,19.5
		c0-0.8-0.4-1.1-1-1c-0.4,0.1-0.7,0.4-1,0.7c-0.5,0.7-0.8,1.5-1,2.3c-0.1,0.3,0.1,0.2,0.2,0.1c0.6-0.2,1.2-0.4,1.8-0.8
		C96.4,20.6,96.8,20.1,96.9,19.5z"/>
	<path fill="#F2F2F2" d="M15.5,7.3c0-1.3,0.4-2.4,1.2-3.3c0.5-0.5,1-1,1.7-1.2c0.4-0.1,0.9-0.2,1.3-0.1c0.8,0.1,1.3,0.7,1.2,1.6
		c-0.1,0.7-0.5,1.1-1,1.4c-0.9,0.6-2,0.9-3,1.1c-0.1,0-0.2,0-0.2,0.1c0,0.5,0,1,0.2,1.4c0.2,0.6,0.8,0.7,1.3,0.6
		C19,8.7,19.5,8.1,20,7.5c0-0.1,0.1-0.2,0.2-0.1c0.1,0.1,0.2,0.1,0.1,0.3C19.7,8.6,19,9.3,18,9.5c-0.8,0.2-1.5,0.1-2.1-0.6
		c-0.3-0.4-0.4-0.9-0.4-1.3C15.5,7.5,15.5,7.4,15.5,7.3z M19.8,4c0-0.7-0.4-1.1-1-0.9c-0.2,0-0.4,0.1-0.5,0.2
		c-0.9,0.7-1.3,1.8-1.5,2.9c0,0.1,0,0.1,0.1,0.1c0.6-0.2,1.3-0.4,1.8-0.8C19.4,5.1,19.8,4.6,19.8,4z"/>
	<path fill="#F2F2F2" d="M99.7,25c-0.5,0-1.1-0.2-1.5-0.6c-0.3-0.3-0.4-0.8-0.1-1.1c0.2-0.2,0.3-0.2,0.6-0.2c0.2,0,0.2,0.2,0.3,0.4
		c0.1,0.4,0.3,0.7,0.7,1c0.4,0.3,1.3,0.2,1.4-0.5c0.2-0.7-0.1-1.1-0.5-1.6c-0.1-0.2-0.3-0.3-0.5-0.5c-0.4-0.3-0.7-0.7-0.9-1.1
		c-0.4-0.9,0-2,0.9-2.4c0.8-0.4,1.6-0.3,2.3,0.2c0.3,0.2,0.4,0.6,0.3,0.8c-0.1,0.2-0.3,0.4-0.5,0.4c-0.3,0-0.4-0.2-0.5-0.4
		c-0.2-0.5-0.6-0.8-1-0.8c-0.5,0-0.8,0.5-0.8,0.9c0,0.6,0.3,1,0.7,1.4c0.4,0.4,0.8,0.7,1.1,1.1c0.4,0.5,0.4,1.6-0.1,2.3
		C101.2,24.7,100.6,25,99.7,25z"/>
	<path fill="#F2F2F2" d="M3.3,7.4c0-1,0.6-1.6,1.5-1.6c0.9,0,1.5,0.6,1.5,1.6c0,1-0.6,1.6-1.5,1.6C3.8,9,3.2,8.2,3.3,7.4z"/>
	<path fill="#F2F2F2" d="M109.5,24.1c0,1-0.6,1.6-1.6,1.6c-0.9,0-1.5-0.7-1.5-1.6c0-0.9,0.7-1.6,1.5-1.6
		C108.8,22.5,109.5,23.2,109.5,24.1z"/>
</g>
</svg>
