<?xml version="1.0" encoding="utf-8"?>
<!-- Generator: Adobe Illustrator 18.0.0, SVG Export Plug-In . SVG Version: 6.00 Build 0)  -->
<!DOCTYPE svg PUBLIC "-//W3C//DTD SVG 1.1//EN" "http://www.w3.org/Graphics/SVG/1.1/DTD/svg11.dtd">
<svg version="1.1" id="Calque_1" xmlns="http://www.w3.org/2000/svg" xmlns:xlink="http://www.w3.org/1999/xlink" x="0px" y="0px"
	 viewBox="0 0 863 754" enable-background="new 0 0 863 754" xml:space="preserve">
<polygon fill="#B7B4AE" points="508.4,612.9 527.5,741.3 479.7,749 454.5,598.2 "/>
<path fill="#B7B4AE" d="M862,600.2c0,12.7-10.8,22.8-23.6,22.8H589.3c-12.8,0-22.3-10.1-22.3-22.8V23c0-12.7,9.6-23,22.3-23h249.1
	C851.2,0,862,10.3,862,23V600.2z"/>
<g>
	<path fill="#D8AE73" d="M830,468.5c0-16.3-12.5-26.5-29.2-26.5H28.9C12.2,442,1,452.2,1,468.5v123.4C1,608.2,12.2,623,28.9,623
		h771.9c16.7,0,29.2-14.8,29.2-31.1V468.5z"/>
	<path fill="#002033" d="M830,31.6C830,14,815,0,795.3,0H34.4C14.7,0,1,14,1,31.6v457.3c0,0.1-2.3,0.1-2.3,0.1H1v31h33.4h760.9H830
		v-31h1c0,0-1,0.1-1-0.1V31.6z"/>
	<path fill="#D8C6BA" d="M434.1,573c0-10.9-8.8-19.7-19.7-19.7c-10.9,0-19.7,8.8-19.7,19.7c0,10.9,8.8,19.7,19.7,19.7
		C425.2,592.8,434.1,583.9,434.1,573z"/>
	<polygon fill="#CE9F51" points="503.2,740 326.4,740 343.3,623 485.3,623 	"/>
	<rect x="272" y="740" fill="#D8AE73" width="287" height="14"/>
	<g>
		<rect x="34" y="30" fill="#FFFFFF" width="766" height="462"/>
		<rect x="34" y="30" fill="#BABABA" width="766" height="35"/>
		<path fill="#FFFFFF" d="M567,48.1c0,4.9-4,8.9-8.9,8.9H275.9c-4.9,0-8.9-4-8.9-8.9v-0.2c0-4.9,4-8.9,8.9-8.9h282.2
			c4.9,0,8.9,4,8.9,8.9V48.1z"/>
		<circle fill="#C10000" cx="55.2" cy="47.2" r="6"/>
		<circle fill="#FF8A29" cx="75.2" cy="47.2" r="6.1"/>
		<circle fill="#399100" cx="95.2" cy="47.2" r="6"/>
		<path fill="#FFFFFF" d="M188,52.7c0,2.2-3,2.3-5.4,2.3h-48.3c-2.4,0-5.3-0.2-5.3-2.3V41.5c0-2.2,2.9-2.5,5.3-2.5h48.3
			c2.4,0,5.4,0.3,5.4,2.5V52.7z"/>
		<rect x="156" y="35" fill="#BABABA" width="3" height="28"/>
		<path fill="#BABABA" d="M138.1,48.1l7,5c0.3,0.2,0.8,0.2,1-0.2c0.2-0.3,0.2-0.8-0.2-1l-6.3-4.5L146,43c0.3-0.2,0.4-0.7,0.2-1
			c-0.1-0.2-0.4-0.3-0.6-0.3c-0.2,0-0.3,0-0.4,0.1l-7,5c-0.2,0.2-0.3,0.4-0.3,0.7C137.8,47.7,137.9,48,138.1,48.1z"/>
		<path fill="#BABABA" d="M177.6,46.8l-7.1-5c-0.3-0.2-0.8-0.2-1,0.2c-0.2,0.3-0.2,0.8,0.2,1l6.3,4.5l-6.3,4.5
			c-0.3,0.2-0.4,0.7-0.2,1c0.1,0.2,0.4,0.3,0.6,0.3c0.1,0,0.3,0,0.4-0.1l7.1-5c0.2-0.2,0.3-0.4,0.3-0.7
			C177.9,47.2,177.8,47,177.6,46.8z"/>
		<path fill="#FFFFFF" d="M725,52.4c0,2.3-4.6,2.6-7,2.6h-10.6c-2.3,0-3.4-0.3-3.4-2.6V41.8c0-2.3,1.1-2.8,3.4-2.8H718
			c2.3,0,7,0.4,7,2.8V52.4z"/>
		<path fill="#FFFFFF" d="M753,52c0,1.8-3.2,3-5.4,3h-9.6c-2.2,0-3.9-1.1-3.9-3V40.9c0-1.8,1.7-1.9,3.9-1.9h9.6
			c2.2,0,5.4,0.1,5.4,1.9V52z"/>
	</g>
	<g opacity="0.1">
		<path fill="#FFFFFF" d="M34.4,0C14.7,0,1,14,1,31.6v457.3c0,0.1-2.3,0.1-2.3,0.1H1v31h33.4h278.1L402.9,0H34.4z"/>
	</g>
</g>
<g>
	<path fill="#566F83" d="M320,348.1"/>
	<g>
		<path fill="#343434" d="M320,348.3c0.2,0,0.2-0.3,0-0.3C319.8,347.9,319.8,348.3,320,348.3L320,348.3z"/>
	</g>
</g>
<g>
	<path fill="#9E9E9E" d="M34,65.8C34,76.4,38.2,85,43.9,85H98c5.7,0,11-8.6,11-19.2V63H34V65.8z"/>
</g>
<g>
	<path d="M67.5,70.2h1.9c2,0,3.4,1.5,3.4,3.5c0,2-1.4,3.5-3.4,3.5h-1.9V70.2z M68.8,76h0.2c1.7,0,2.3-0.9,2.3-2.3
		c0-1.5-0.8-2.3-2.3-2.3h-0.2V76z"/>
	<path d="M74.9,75.7l-0.6,1.5h-1.4l2.7-7.1h1.1l2.6,7.1h-1.4l-0.5-1.5H74.9z M76,72L76,72l-0.8,2.5h1.7L76,72z"/>
	<path d="M81.2,77.2h-1.4v-5.8h-1.4v-1.2h4.2v1.2h-1.4V77.2z"/>
	<path d="M83.8,75.7l-0.6,1.5h-1.4l2.7-7.1h1.1l2.6,7.1h-1.4l-0.5-1.5H83.8z M85,72L85,72l-0.8,2.5h1.7L85,72z"/>
</g>
<polygon fill="#CE9F51" points="48.2,80 44.8,74 48.2,68 55.2,68 58.7,74 55.2,80 "/>
<g>
	<path fill="#BABABA" d="M109,65.8c0,10.6,4.5,19.2,10.2,19.2h54.1c5.7,0,10.6-8.6,10.6-19.2V63h-75V65.8z"/>
</g>
<g>
	<path d="M142.9,70.2h1.9c2,0,3.4,1.5,3.4,3.5c0,2-1.4,3.5-3.4,3.5h-1.9V70.2z M144.2,76h0.2c1.7,0,2.3-0.9,2.3-2.3
		c0-1.5-0.8-2.3-2.3-2.3h-0.2V76z"/>
	<path d="M151,73.7v1.1h-2.3v-1.1H151z"/>
	<path d="M154.4,74.9L154.4,74.9l1.6-4.7h1.5l-2.7,7.1h-0.8l-2.7-7.1h1.5L154.4,74.9z"/>
	<path d="M159.1,77.2h-1.4v-7h1.4V77.2z"/>
	<path d="M160.1,70h1l3.7,4.9h0v-4.7h1.4v7.1h-1l-3.7-4.9h0v4.7h-1.4V70z"/>
</g>
<path fill="#BF0202" d="M137.4,74c0-4-3.3-7-7.3-7h-6.2c-4,0-7.3,3-7.3,7l0,0c0,4,3.3,7,7.3,7h6.2C134.1,81,137.4,78,137.4,74
	L137.4,74z"/>
<polygon fill="#FFFFFF" points="131.2,74 128.1,76.1 125,78.1 125,74 125,70 128.1,72 "/>
<g>
	<g>
		<rect x="34" y="30" fill="#FFFFFF" width="766" height="462"/>
		<rect x="34" y="30" fill="#BABABA" width="766" height="35"/>
		<path fill="#FFFFFF" d="M566,49.1c0,4.9-4.3,8.9-9.2,8.9H275.2c-4.9,0-9.2-4-9.2-8.9v-0.3c0-4.9,4.3-8.9,9.2-8.9h281.6
			c4.9,0,9.2,4,9.2,8.9V49.1z"/>
		<path fill="#C10000" d="M62.1,47.5c0-3.3-2.7-6-6-6c-3.3,0-6,2.7-6,6c0,3.3,2.7,6,6,6C59.4,53.6,62.1,50.9,62.1,47.5z"/>
		<path fill="#FF8A29" d="M82.1,47.5c0-3.3-2.7-6-6-6s-6,2.7-6,6c0,3.3,2.7,6,6,6S82.1,50.9,82.1,47.5z"/>
		<path fill="#399100" d="M102.1,47.5c0-3.3-2.7-6-6-6c-3.3,0-6,2.7-6,6c0,3.3,2.7,6,6,6C99.4,53.6,102.1,50.9,102.1,47.5z"/>
		<path fill="#FFFFFF" d="M188,53c0,2.2-2.2,3-4.7,3h-48.2c-2.4,0-5.1-0.8-5.1-3V41.8c0-2.1,2.7-1.8,5.1-1.8h48.2
			c2.4,0,4.7-0.3,4.7,1.8V53z"/>
		<rect x="156" y="35" fill="#BABABA" width="3" height="28"/>
		<path fill="#BABABA" d="M138.9,48.5l7,5c0.3,0.2,0.8,0.2,1-0.2c0.2-0.3,0.2-0.8-0.2-1l-6.3-4.5l6.3-4.5c0.3-0.2,0.4-0.7,0.2-1
			c-0.1-0.2-0.4-0.3-0.6-0.3c-0.2,0-0.3,0-0.4,0.1l-7,5c-0.2,0.2-0.3,0.4-0.3,0.7C138.6,48.1,138.7,48.3,138.9,48.5z"/>
		<path fill="#BABABA" d="M178.4,47.2l-7-5c-0.3-0.2-0.8-0.2-1,0.2c-0.2,0.3-0.2,0.8,0.2,1l6.3,4.5l-6.3,4.5c-0.3,0.2-0.4,0.7-0.2,1
			c0.1,0.2,0.4,0.3,0.6,0.3c0.1,0,0.3,0,0.4-0.1l7-5c0.2-0.2,0.3-0.4,0.3-0.7C178.7,47.6,178.6,47.3,178.4,47.2z"/>
		<path fill="#FFFFFF" d="M726,52.7c0,2.3-5.2,3.3-7.5,3.3h-10.6c-2.3,0-3.9-1-3.9-3.3V42.1c0-2.3,1.6-2.1,3.9-2.1h10.6
			c2.3,0,7.5-0.2,7.5,2.1V52.7z"/>
		<path fill="#FFFFFF" d="M753,52.4c0,1.8-2.7,3.6-5,3.6h-9.6c-2.2,0-4.4-1.8-4.4-3.6V41.3c0-1.8,2.2-1.3,4.4-1.3h9.6
			c2.2,0,5-0.6,5,1.3V52.4z"/>
	</g>
	<rect x="34" y="145" fill="#545454" width="766" height="248"/>
	<rect x="196.5" y="145.5" fill="#FFFFFF" stroke="#000000" stroke-miterlimit="10" width="441" height="248"/>
	<path fill="#BF0202" d="M106.7,114c0-9.7-7.9-17-17.7-17H74.1c-9.8,0-17.7,7.2-17.7,17l0,0c0,9.8,7.9,17,17.7,17H89
		C98.8,131,106.7,123.8,106.7,114L106.7,114z"/>
	<polygon fill="#FFFFFF" points="91.7,114.3 83.3,119.2 75,124 75,114.3 75,104.5 83.3,109.4 	"/>
	<rect x="196.5" y="107.5" fill="none" stroke="#002033" stroke-miterlimit="10" width="441" height="18"/>
	<g>
		<path d="M345.5,278.2l2.2-6.1h3.4l-5,11.1h-1.6l-5-11.1h3.4L345.5,278.2z"/>
		<path d="M355.4,267.5c0,1-0.8,1.8-1.8,1.8c-1,0-1.8-0.8-1.8-1.8c0-1,0.8-1.8,1.8-1.8C354.6,265.6,355.4,266.5,355.4,267.5z
			 M355.1,282.9H352V272h3.1V282.9z"/>
		<path d="M364.6,281.9L364.6,281.9c-0.7,0.9-1.8,1.4-3,1.4c-3.2,0-5-2.9-5-5.8c0-2.9,1.8-5.7,5-5.7c1.1,0,2.3,0.5,3,1.3h0v-8.9h3.1
			v18.8h-3.1V281.9z M365,277.5c0-1.5-1-3-2.6-3c-1.6,0-2.6,1.6-2.6,3c0,1.5,1,3.1,2.6,3.1C364,280.5,365,278.9,365,277.5z"/>
		<path d="M372.5,278c0,1.4,0.5,2.9,2.2,2.9c1,0,1.7-0.6,2.1-1.5l2.9,0.5c-0.8,2.2-2.7,3.4-4.9,3.4c-3.4,0-5.4-2.4-5.4-5.7
			c0-3.3,1.8-5.9,5.3-5.9c3.6,0,5.2,2.6,5.2,5.9v0.4H372.5z M376.7,276.1c-0.2-1.1-0.9-2.2-2.1-2.2c-1.2,0-1.9,1.1-2.1,2.2H376.7z"
			/>
		<path d="M391.8,277.5c0,3.4-2.3,5.8-5.7,5.8c-3.4,0-5.7-2.4-5.7-5.8c0-3.4,2.3-5.8,5.7-5.8C389.4,271.7,391.8,274.1,391.8,277.5z
			 M383.5,277.5c0,1.5,1,3,2.6,3c1.6,0,2.6-1.6,2.6-3c0-1.5-1-3.1-2.6-3.1C384.4,274.4,383.5,276,383.5,277.5z"/>
		<path d="M406.8,281.9L406.8,281.9c-0.7,0.9-1.8,1.4-3,1.4c-3.2,0-5-2.9-5-5.8c0-2.9,1.8-5.7,5-5.7c1.1,0,2.3,0.5,3,1.3h0v-8.9h3.1
			v18.8h-3.1V281.9z M407.1,277.5c0-1.5-1-3-2.6-3c-1.6,0-2.6,1.6-2.6,3c0,1.5,1,3.1,2.6,3.1C406.2,280.5,407.1,278.9,407.1,277.5z"
			/>
		<path d="M417.4,274.6v2.5H412v-2.5H417.4z"/>
		<path d="M423.9,278.2l2.2-6.1h3.4l-5,11.1H423l-5-11.1h3.4L423.9,278.2z"/>
		<path d="M433.8,267.5c0,1-0.8,1.8-1.8,1.8c-1,0-1.8-0.8-1.8-1.8c0-1,0.8-1.8,1.8-1.8C433,265.6,433.8,266.5,433.8,267.5z
			 M433.5,282.9h-3.1V272h3.1V282.9z"/>
		<path d="M439,273L439,273c0.7-1,1.8-1.3,2.9-1.3c2.9,0,3.8,2.1,3.8,4.6v6.6h-3.1v-5.8c0-1.3,0.1-3-1.7-3c-1.8,0-1.9,2.1-1.9,3.4
			v5.4h-3.1V272h3.1V273z"/>
		<path d="M450.4,278c0,1.4,0.5,2.9,2.2,2.9c1,0,1.7-0.6,2.1-1.5l2.9,0.5c-0.8,2.2-2.7,3.4-4.9,3.4c-3.4,0-5.4-2.4-5.4-5.7
			c0-3.3,1.8-5.9,5.3-5.9c3.6,0,5.2,2.6,5.2,5.9v0.4H450.4z M454.6,276.1c-0.2-1.1-0.9-2.2-2.1-2.2c-1.2,0-1.9,1.1-2.1,2.2H454.6z"
			/>
		<path d="M468.9,267.5c0,1-0.8,1.8-1.8,1.8c-1,0-1.8-0.8-1.8-1.8c0-1,0.8-1.8,1.8-1.8C468.1,265.6,468.9,266.5,468.9,267.5z
			 M468.6,282.9h-3.1V272h3.1V282.9z"/>
		<path d="M478.4,275.4c-0.7-0.7-1.3-1.1-2.3-1.1c-1.8,0-2.7,1.6-2.7,3.2c0,1.7,1.1,3.1,2.9,3.1c0.8,0,1.6-0.4,2.2-1v3
			c-0.8,0.5-1.7,0.7-2.7,0.7c-3.2,0-5.5-2.6-5.5-5.8c0-3.2,2.4-5.8,5.7-5.8c0.9,0,1.8,0.2,2.5,0.7V275.4z"/>
		<path d="M483.9,267.5c0,1-0.8,1.8-1.8,1.8c-1,0-1.8-0.8-1.8-1.8c0-1,0.8-1.8,1.8-1.8C483.1,265.6,483.9,266.5,483.9,267.5z
			 M483.6,282.9h-3.1V272h3.1V282.9z"/>
		<path d="M496.8,281.4c0,1.1-0.9,2-2,2c-1.1,0-2-0.9-2-2c0-1.1,0.9-2,2-2C495.9,279.4,496.8,280.3,496.8,281.4z M493.3,266.2h3.1
			v11.9h-3.1V266.2z"/>
	</g>
	<rect x="197" y="442" fill="#C9C9C9" width="152" height="10"/>
	<rect x="197" y="456" fill="#C9C9C9" width="124" height="9"/>
	<rect x="197" y="469" fill="#C9C9C9" width="168" height="10"/>
	<g>
		<path fill="#9E9E9E" d="M34,68.1C34,78.7,39,87,44.7,87h54.1c5.7,0,10.2-8.3,10.2-18.9V65H34V68.1z"/>
	</g>
	<g>
		<path d="M68.3,72.5h1.9c2,0,3.4,1.5,3.4,3.5c0,2-1.4,3.5-3.4,3.5h-1.9V72.5z M69.7,78.3h0.2c1.7,0,2.3-0.9,2.3-2.3
			c0-1.5-0.8-2.3-2.3-2.3h-0.2V78.3z"/>
		<path d="M75.7,78l-0.6,1.5h-1.4l2.7-7.1h1.1l2.6,7.1h-1.4L78.1,78H75.7z M76.9,74.4L76.9,74.4l-0.8,2.5h1.7L76.9,74.4z"/>
		<path d="M82.1,79.5h-1.4v-5.8h-1.4v-1.2h4.2v1.2h-1.4V79.5z"/>
		<path d="M84.6,78l-0.6,1.5h-1.4l2.7-7.1h1.1l2.6,7.1h-1.4L87.1,78H84.6z M85.8,74.4L85.8,74.4L85,76.9h1.7L85.8,74.4z"/>
	</g>
	<polygon fill="#CE9F51" points="49.1,82 45.6,76 49.1,70 56.1,70 59.6,76 56.1,82 	"/>
	<g>
		<path fill="#BABABA" d="M109,68.1c0,10.6,5.4,18.9,11.1,18.9h54.1c5.7,0,9.8-8.3,9.8-18.9V65h-75V68.1z"/>
	</g>
	<g>
		<path d="M143.7,72.5h1.9c2,0,3.4,1.5,3.4,3.5c0,2-1.4,3.5-3.4,3.5h-1.9V72.5z M145,78.3h0.2c1.7,0,2.3-0.9,2.3-2.3
			c0-1.5-0.8-2.3-2.3-2.3H145V78.3z"/>
		<path d="M151.8,76V77h-2.3V76H151.8z"/>
		<path d="M155.2,77.2L155.2,77.2l1.6-4.7h1.5l-2.7,7.1h-0.8l-2.7-7.1h1.5L155.2,77.2z"/>
		<path d="M159.9,79.5h-1.4v-6.9h1.4V79.5z"/>
		<path d="M160.9,72.3h1l3.7,4.9h0v-4.7h1.4v7.1h-1l-3.7-4.9h0v4.7h-1.4V72.3z"/>
	</g>
	<path fill="#BF0202" d="M138.2,76c0-4-3.3-7-7.3-7h-6.1c-4,0-7.3,3-7.3,7l0,0c0,4,3.3,7,7.3,7h6.1C134.9,83,138.2,80,138.2,76
		L138.2,76z"/>
	<polygon fill="#FFFFFF" points="132,76.3 129,78.4 126,80.4 126,76.3 126,72.3 129,74.3 	"/>
	<text transform="matrix(1.0013 0 0 1 196.5415 423.8994)"><tspan x="0" y="0" font-family="'FuturaStd-Book'" font-size="23.9245">Interview</tspan><tspan x="93.4" y="0" font-family="'FuturaStd-Book'" font-size="23.9245" letter-spacing="1"> 10-vins</tspan></text>
</g>
</svg>
