<?xml version="1.0" encoding="utf-8"?>
<!-- Generator: Adobe Illustrator 18.0.0, SVG Export Plug-In . SVG Version: 6.00 Build 0)  -->
<!DOCTYPE svg PUBLIC "-//W3C//DTD SVG 1.1//EN" "http://www.w3.org/Graphics/SVG/1.1/DTD/svg11.dtd">
<svg version="1.1" id="Calque_1" xmlns="http://www.w3.org/2000/svg" xmlns:xlink="http://www.w3.org/1999/xlink" x="0px" y="0px"
	 viewBox="0 0 2000 800" enable-background="new 0 0 2000 800" xml:space="preserve">
<rect x="3" y="1" fill="#E0DCD4" width="1997" height="800"/>
<rect y="401" fill="#D7D3CB" width="2000" height="400"/>
<polyline fill-rule="evenodd" clip-rule="evenodd" fill="#B7B4AE" points="1241.3,414.8 1210.1,467.9 1210.1,419.9 "/>
<polyline fill-rule="evenodd" clip-rule="evenodd" fill="#B7B4AE" points="1407.3,414.8 1376.1,467.9 1376.1,419.9 "/>
<rect x="1147" y="403" fill="#B7B4AE" width="312" height="19"/>
<g>
	<g>
		<path fill-rule="evenodd" clip-rule="evenodd" fill="#002846" d="M1206.6,235.7c-1.1,4.4-3.3,8.6-5,12.9c-0.6-0.3-1.2-0.5-1.8-0.8
			c0.4-13.1,3.2-25.6,13.7-34.3c7-5.8,10.6-13.1,13.8-21.4c-6.6,2.3-13,4.8-19,8.3c-6.4,3.7-7.8,9.3-6.4,16.6
			c0.7,3.9-0.2,8.1-0.5,12.2c-0.7,0-1.4-0.1-2-0.1c-0.5-3.9-1.4-7.7-1.5-11.6c-0.3-11,1.3-20.8,13.6-25.8c4.5-1.8,8.7-6.3,11.2-10.7
			c4.4-7.6,7.3-16,10.8-24c-0.5-0.3-0.9-0.6-1.4-0.9c-12.6,6.8-26.9,11.3-33,25.9c0-8.6,1.2-17.1-0.3-25.2
			c-1.7-9-7.4-15.7-17.8-17.4c-0.2,13.3,0.8,26,10.1,35.9c3.4,3.6,4.1,7.1,3.7,11.6c-0.4,4.4-0.2,8.9-0.2,13.3c0,2.6,0,5.1,0,7.7
			c-0.5,0.1-1,0.1-1.5,0.2c-2.4-10.2-3.7-20.8-7.6-30.4c-4.1-10-12-17.5-23.5-21.1c0.4,15.6,1.3,29.9,18,36.8
			c3.4,1.4,6.7,5.1,8.2,8.6c3.1,7.3,5.3,15.1,7.3,22.8c0.9,3.3,0.5,7,0.6,10.5c-0.6,0.1-1.2,0.1-1.8,0.2c-1-5.6-2.1-11.3-3.1-16.9
			c-2.5-13.3-13.2-21.4-26.8-20.3c1.2,10.1,4.7,16.5,13,21.5c11.2,6.8,17.4,16.7,18.8,30.1c-6.6-15.4-14.9-28.5-34-27.5
			c4.1,17.9,8.5,22.3,26.1,25.2c6.1,1,8.1,3.9,7.6,10.2c-0.1,1-0.2,1.7-0.5,2.4c0,0,0.1,0,0.1,0c2.5,0.1,5,0,7.5-0.1
			c-0.4-0.6-0.7-1.4-0.9-2.4c-1.1-5.5,1.7-11.9,6.9-14.1c12.8-5.4,16.1-16.8,19.4-28.8C1216.5,216.7,1209.5,223.7,1206.6,235.7z"/>
		<path fill-rule="evenodd" clip-rule="evenodd" fill="#002033" d="M1230.9,158.2c0,0-24.5,25.2-29.3,35.3
			C1201.5,193.6,1219.9,193.5,1230.9,158.2z"/>
		<path fill-rule="evenodd" clip-rule="evenodd" fill="#002033" d="M1183.8,142.4l12.4,34.8C1196.2,177.2,1203.2,141.7,1183.8,142.4
			z"/>
		<path fill-rule="evenodd" clip-rule="evenodd" fill="#002033" d="M1204.9,224.3c0,0,2.3-25,19.8-30.5
			C1224.7,193.8,1208.8,212.5,1204.9,224.3z"/>
		<path fill-rule="evenodd" clip-rule="evenodd" fill="#002033" d="M1165.7,160.7l21.4,35.6C1187.2,196.3,1192.5,173.8,1165.7,160.7
			z"/>
		<path fill-rule="evenodd" clip-rule="evenodd" fill="#002033" d="M1226.9,216.7l-20.9,27.1
			C1206.1,243.8,1221.6,239.8,1226.9,216.7z"/>
		<path fill-rule="evenodd" clip-rule="evenodd" fill="#002033" d="M1166.8,199.5l24.8,30.7C1191.7,230.2,1191.7,207.1,1166.8,199.5
			z"/>
		<path fill-rule="evenodd" clip-rule="evenodd" fill="#002033" d="M1165.7,224.3l26,20.6C1191.7,244.9,1192.5,231.6,1165.7,224.3z"
			/>
		<rect x="1177" y="259" fill-rule="evenodd" clip-rule="evenodd" fill="#CE9F51" width="45" height="8"/>
		<polygon fill-rule="evenodd" clip-rule="evenodd" fill="#D8AE73" points="1211.3,291 1188.8,291 1181.1,267 1219,267 		"/>
		<polygon opacity="0.6" fill-rule="evenodd" clip-rule="evenodd" fill="#CE9F51" points="1200,259 1200,291 1211.3,291 1219,267 
			1222,267 1222,259 		"/>
	</g>
	<g>
		<path fill-rule="evenodd" clip-rule="evenodd" fill="#002846" d="M1419.9,221.8c0.6-11.4,1.1-22.8,1.7-34.3c0.8,0,1.6,0,2.4,0.1
			c0,8.1,0,16.2,0,24.3c0.8,0.1,1.5,0.1,2.3,0.2c2.6-20.3,5.2-40.5,7.7-60.8c0.4-0.1,0.8-0.3,1.3-0.4c0.5,2.7,1.4,5.5,1.4,8.2
			c0.1,14.2-0.1,28.4-0.2,42.6c0,0.8,0.2,1.5,1.6,2.5c2.9-10.7,5.8-21.4,9.1-33.8c0.5,4.1,1,6.9,1.1,9.8c0.2,2.9,0,5.8,0,10.7
			c9.4-13.6,17.6-25.7,25.9-37.8c0.5,0.3,1,0.6,1.5,0.9c-12,26.2-24.1,52.4-36.1,78.7c0.6,0.3,1.3,0.7,1.9,1
			c5.2-8.1,10.5-16.2,15.7-24.3c0.5,0.3,0.9,0.5,1.4,0.8c-4.2,8.6-7.4,17.9-12.8,25.7c-7.7,10.9-7.8,23.5-10.3,35.6
			c-0.3,1.4-0.2,3-0.2,4.4c-0.6,11.8-8.8,16.9-19.8,11.8c-2.1-1-3.6-4.4-4.2-7c-1.8-6.9-3.3-13.9-4.4-21
			c-2.4-15.5-13.6-27.1-17.7-41.9c-0.4-1.5-1.1-3-1.6-4.5c0.5-0.3,1.1-0.6,1.6-0.9c5.2,9.6,10.3,19.2,15.5,28.7
			c0.6-0.3,1.2-0.6,1.8-0.9c-7.1-16.1-14.2-32.2-21.2-48.3c0.1-0.3,0.3-0.5,0.4-0.8c2.5,3.3,5.1,6.5,7.6,9.8
			c0.4-0.4,0.9-0.8,1.3-1.2c-4.3-18.7-15.1-33.8-27.3-48.1c21.8,12.8,31,34.7,41.2,56c-2.2-18.8-4.3-37.7-6.5-56.5
			c0.5-0.1,0.9-0.2,1.4-0.2c4.7,23.7,9.3,47.5,14,71.2C1418.4,222.1,1419.2,221.9,1419.9,221.8z"/>
		<polygon fill-rule="evenodd" clip-rule="evenodd" fill="#002033" points="1474.6,156.7 1438.2,216.1 1443,219.4 		"/>
		<polygon fill-rule="evenodd" clip-rule="evenodd" fill="#002033" points="1435.1,154.4 1431.3,207.1 1435.8,203 		"/>
		<polygon fill-rule="evenodd" clip-rule="evenodd" fill="#002033" points="1432.3,220 1437.8,220 1429.5,266 		"/>
		<polygon fill-rule="evenodd" clip-rule="evenodd" fill="#002033" points="1448.4,191 1444.6,197 1447.3,170.5 		"/>
		<polygon fill-rule="evenodd" clip-rule="evenodd" fill="#002033" points="1458.8,210.2 1434.4,250 1437,250 		"/>
		<polygon fill-rule="evenodd" clip-rule="evenodd" fill="#002033" points="1423,188.1 1421.7,240 1423,240 1424,188.4 		"/>
		<polygon fill-rule="evenodd" clip-rule="evenodd" fill="#002033" points="1389.1,213.1 1409.3,257.4 1412.2,257.2 		"/>
		<polygon fill-rule="evenodd" clip-rule="evenodd" fill="#002033" points="1385.9,191.3 1405.4,226.4 1408.3,220.9 		"/>
		<polygon fill-rule="evenodd" clip-rule="evenodd" fill="#002033" points="1378.9,163.1 1397.9,198.8 1401.3,197 		"/>
		<polygon fill-rule="evenodd" clip-rule="evenodd" fill="#002033" points="1402.4,153.3 1412,205 1414.1,205 		"/>
		<polygon fill-rule="evenodd" clip-rule="evenodd" fill="#002033" points="1425.6,242.5 1421.8,259.9 1426.3,255.8 		"/>
		<polygon fill-rule="evenodd" clip-rule="evenodd" fill="#002033" points="1416.7,239.3 1416.5,259.8 1411.6,234.2 		"/>
		<rect x="1398" y="256" fill-rule="evenodd" clip-rule="evenodd" fill="#CE9F51" width="48" height="9"/>
		<polygon fill-rule="evenodd" clip-rule="evenodd" fill="#D8AE73" points="1434.5,291 1409.6,291 1401,265 1443.1,265 		"/>
		<polygon opacity="0.6" fill-rule="evenodd" clip-rule="evenodd" fill="#CE9F51" points="1422,256 1422,291 1434.5,291 1443.1,265 
			1446,265 1446,256 		"/>
	</g>
	<rect x="1164.7" y="290.5" fill-rule="evenodd" clip-rule="evenodd" fill="#CE9F51" width="33.1" height="99.3"/>
	<rect x="1169.8" y="296.5" fill-rule="evenodd" clip-rule="evenodd" fill="#FFFFFF" width="24" height="47.7"/>
	<ellipse fill-rule="evenodd" clip-rule="evenodd" fill="#002033" cx="1181.9" cy="357" rx="6.6" ry="6.9"/>
	<path fill="#F7F4F0" d="M1181.9,350.7c-3.3,0-6,2.8-6,6.3c0,3.5,2.7,6.3,6,6.3c3.3,0,6-2.8,6-6.3
		C1187.9,353.5,1185.2,350.7,1181.9,350.7z M1181.9,364.6c-4,0-7.2-3.4-7.2-7.6c0-4.2,3.2-7.6,7.2-7.6c4,0,7.2,3.4,7.2,7.6
		C1189.1,361.2,1185.9,364.6,1181.9,364.6z"/>
	<rect x="1199.8" y="290.5" fill-rule="evenodd" clip-rule="evenodd" fill="#CE9F51" width="33.1" height="99.3"/>
	<rect x="1204.9" y="296.5" fill-rule="evenodd" clip-rule="evenodd" fill="#FFFFFF" width="24" height="47.7"/>
	<ellipse fill-rule="evenodd" clip-rule="evenodd" fill="#002033" cx="1217" cy="357" rx="6.6" ry="6.9"/>
	<path fill="#F7F4F0" d="M1217,350.7c-3.3,0-6,2.8-6,6.3c0,3.5,2.7,6.3,6,6.3c3.3,0,6-2.8,6-6.3C1223,353.5,1220.4,350.7,1217,350.7
		z M1217,364.6c-4,0-7.2-3.4-7.2-7.6c0-4.2,3.2-7.6,7.2-7.6c4,0,7.2,3.4,7.2,7.6C1224.3,361.2,1221,364.6,1217,364.6z"/>
	<rect x="1234.8" y="290.5" fill-rule="evenodd" clip-rule="evenodd" fill="#CE9F51" width="33.1" height="99.3"/>
	<rect x="1240" y="296.5" fill-rule="evenodd" clip-rule="evenodd" fill="#FFFFFF" width="24" height="47.7"/>
	<ellipse fill-rule="evenodd" clip-rule="evenodd" fill="#002033" cx="1252.2" cy="357" rx="6.6" ry="6.9"/>
	<path fill="#F7F4F0" d="M1252.2,350.7c-3.3,0-6,2.8-6,6.3c0,3.5,2.7,6.3,6,6.3c3.3,0,6-2.8,6-6.3
		C1258.2,353.5,1255.5,350.7,1252.2,350.7z M1252.2,364.6c-4,0-7.2-3.4-7.2-7.6c0-4.2,3.2-7.6,7.2-7.6c4,0,7.2,3.4,7.2,7.6
		C1259.4,361.2,1256.2,364.6,1252.2,364.6z"/>
	<rect x="1270.3" y="290.5" fill-rule="evenodd" clip-rule="evenodd" fill="#CE9F51" width="33.1" height="99.3"/>
	<rect x="1275.4" y="296.5" fill-rule="evenodd" clip-rule="evenodd" fill="#FFFFFF" width="24" height="47.7"/>
	<ellipse fill-rule="evenodd" clip-rule="evenodd" fill="#002033" cx="1287.3" cy="357" rx="6.6" ry="6.9"/>
	<path fill="#F7F4F0" d="M1287.3,350.7c-3.3,0-6,2.8-6,6.3s2.7,6.3,6,6.3c3.3,0,6-2.8,6-6.3S1290.7,350.7,1287.3,350.7z
		 M1287.3,364.6c-4,0-7.2-3.4-7.2-7.6c0-4.2,3.2-7.6,7.2-7.6c4,0,7.2,3.4,7.2,7.6C1294.6,361.2,1291.3,364.6,1287.3,364.6z"/>
	<rect x="1305.3" y="290.5" fill-rule="evenodd" clip-rule="evenodd" fill="#CE9F51" width="33.1" height="99.3"/>
	<rect x="1310.5" y="296.5" fill-rule="evenodd" clip-rule="evenodd" fill="#FFFFFF" width="24" height="47.7"/>
	<ellipse fill-rule="evenodd" clip-rule="evenodd" fill="#002033" cx="1322.5" cy="357" rx="6.6" ry="6.9"/>
	<path fill="#F7F4F0" d="M1322.5,350.7c-3.3,0-6,2.8-6,6.3s2.7,6.3,6,6.3c3.3,0,6-2.8,6-6.3S1325.8,350.7,1322.5,350.7z
		 M1322.5,364.6c-4,0-7.2-3.4-7.2-7.6c0-4.2,3.2-7.6,7.2-7.6s7.2,3.4,7.2,7.6C1329.7,361.2,1326.5,364.6,1322.5,364.6z"/>
	<rect x="1340.4" y="290.5" fill-rule="evenodd" clip-rule="evenodd" fill="#CE9F51" width="33.1" height="99.3"/>
	<rect x="1345.5" y="296.5" fill-rule="evenodd" clip-rule="evenodd" fill="#FFFFFF" width="24" height="47.7"/>
	<ellipse fill-rule="evenodd" clip-rule="evenodd" fill="#002033" cx="1357.6" cy="357" rx="6.6" ry="6.9"/>
	<path fill="#F7F4F0" d="M1357.6,350.7c-3.3,0-6,2.8-6,6.3s2.7,6.3,6,6.3c3.3,0,6-2.8,6-6.3S1361,350.7,1357.6,350.7z M1357.6,364.6
		c-4,0-7.2-3.4-7.2-7.6c0-4.2,3.2-7.6,7.2-7.6c4,0,7.2,3.4,7.2,7.6C1364.9,361.2,1361.6,364.6,1357.6,364.6z"/>
	<rect x="1375.5" y="290.5" fill-rule="evenodd" clip-rule="evenodd" fill="#CE9F51" width="33.1" height="99.3"/>
	<rect x="1380.6" y="296.5" fill-rule="evenodd" clip-rule="evenodd" fill="#FFFFFF" width="24" height="47.7"/>
	<ellipse fill-rule="evenodd" clip-rule="evenodd" fill="#002033" cx="1392.8" cy="357" rx="6.6" ry="6.9"/>
	<path fill="#F7F4F0" d="M1392.8,350.7c-3.3,0-6,2.8-6,6.3c0,3.5,2.7,6.3,6,6.3c3.3,0,6-2.8,6-6.3
		C1398.8,353.5,1396.1,350.7,1392.8,350.7z M1392.8,364.6c-4,0-7.2-3.4-7.2-7.6c0-4.2,3.2-7.6,7.2-7.6s7.2,3.4,7.2,7.6
		C1400,361.2,1396.8,364.6,1392.8,364.6z"/>
	<rect x="1410.9" y="290.5" fill-rule="evenodd" clip-rule="evenodd" fill="#CE9F51" width="33.1" height="99.3"/>
	<rect x="1416" y="296.5" fill-rule="evenodd" clip-rule="evenodd" fill="#FFFFFF" width="24" height="47.7"/>
	<ellipse fill-rule="evenodd" clip-rule="evenodd" fill="#002033" cx="1428" cy="357" rx="6.6" ry="6.9"/>
	<path fill="#F7F4F0" d="M1428,350.7c-3.3,0-6,2.8-6,6.3c0,3.5,2.7,6.3,6,6.3s6-2.8,6-6.3C1434,353.5,1431.3,350.7,1428,350.7z
		 M1428,364.6c-4,0-7.2-3.4-7.2-7.6c0-4.2,3.2-7.6,7.2-7.6c4,0,7.2,3.4,7.2,7.6C1435.2,361.2,1431.9,364.6,1428,364.6z"/>
	<g>
		<path fill="#002846" d="M1179.8,317.2l0.6-1.1h2.4v11h-1.2v-9.9H1179.8z"/>
	</g>
	<g>
		<path fill="#002846" d="M1219.9,325.9v1.1h-7.1l5.1-6.1c0.4-0.5,0.7-1.1,0.7-1.8c0-1.2-1-2.1-2.2-2.1c-1.3,0-2.2,1-2.2,2.3h-1.2
			c0-1.9,1.5-3.4,3.4-3.4c1.8,0,3.5,1.3,3.5,3.2c0,0.9-0.3,1.7-0.8,2.3l-3.8,4.5H1219.9z"/>
	</g>
	<g>
		<path fill="#002846" d="M1251.1,320.7c1.2,0,2.2-0.4,2.2-1.8c0-1.2-0.8-1.9-1.9-1.9c-1.1,0-1.7,0.7-1.8,1.8h-1.2
			c0.2-1.7,1.2-2.9,3-2.9c1.8,0,3.1,1.2,3.1,3c0,1-0.5,2-1.4,2.4c1.1,0.5,1.6,1.6,1.6,2.7c0,1.9-1.5,3.3-3.4,3.3
			c-1.8,0-3.2-1.2-3.3-3h1.2c0.1,1.1,1,1.9,2.1,1.9c1.2,0,2.1-1,2.1-2.2c0-1.4-1-2.1-2.3-2.1V320.7z"/>
	</g>
	<g>
		<path fill="#002846" d="M1291.4,324.1v1.1h-1.4v1.8h-1.2v-1.8h-5.6l6.8-9.8h0v8.7H1291.4z M1288.8,319.2L1288.8,319.2l-3.5,5h3.5
			V319.2z"/>
	</g>
	<g>
		<path fill="#002846" d="M1322.3,317.2l-0.7,2.3l0.7-0.1c2.2,0,3.7,1.7,3.7,3.8c0,2.3-1.8,3.9-4,3.9c-1.4,0-2.6-0.7-3.4-2l1-0.7
			c0.5,0.9,1.4,1.5,2.4,1.5c1.6,0,2.8-1.2,2.8-2.8c0-1.6-1.2-2.7-2.7-2.7c-0.8,0-1.5,0.3-2.1,0.7l1.6-5.3h4.4v1.1H1322.3z"/>
	</g>
	<g>
		<path fill="#002846" d="M1358.7,316.5l-2.5,3.4l0,0c0.1-0.1,0.3-0.1,0.5-0.1c0.2,0,0.3,0,0.5,0c2,0,3.6,1.6,3.6,3.6
			c0,2.1-1.7,3.8-3.8,3.8c-2.1,0-3.8-1.7-3.8-3.8c0-1,0.5-1.9,1-2.6l3.6-5L1358.7,316.5z M1359.5,323.5c0-1.4-1.2-2.5-2.6-2.5
			c-1.4,0-2.6,1.1-2.6,2.5s1.1,2.6,2.6,2.6C1358.4,326.1,1359.5,324.9,1359.5,323.5z"/>
	</g>
	<g>
		<path fill="#002846" d="M1389,317.2V316h8.1l-7.4,11.2l-1-0.6l6.2-9.5H1389z"/>
	</g>
	<g>
		<path fill="#002846" d="M1430.8,318.9c0,1-0.5,1.9-1.3,2.4c1,0.5,1.6,1.5,1.6,2.6c0,1.9-1.5,3.3-3.4,3.3s-3.4-1.4-3.4-3.3
			c0-1.1,0.6-2.2,1.6-2.6c-0.8-0.5-1.3-1.4-1.3-2.4c0-1.8,1.4-3.1,3.1-3.1S1430.8,317.2,1430.8,318.9z M1425.6,324
			c0,1.2,0.9,2.1,2.1,2.1s2.1-0.9,2.1-2.1c0-1.2-0.9-2.1-2.1-2.1S1425.6,322.8,1425.6,324z M1425.9,318.9c0,1.1,0.9,1.9,1.9,1.9
			s1.9-0.9,1.9-1.9c0-1-0.9-1.9-1.9-1.9S1425.9,317.8,1425.9,318.9z"/>
	</g>
	<g>
		<g>
			<path fill="#002846" d="M1355,289.7v0.3c0-6.4-5.6-10-12.1-10h-68.7c-6.4,0-11.2,3.8-11.2,10.2v-0.4c0,0.1-0.4,1.2-0.4,1.2h91.9
				C1354.6,291,1355,289.8,1355,289.7z"/>
		</g>
		
			<polyline fill="none" stroke="#002846" stroke-width="6" stroke-linecap="round" stroke-linejoin="round" stroke-miterlimit="10" points="
			1348,245 1357,245 1357,272 		"/>
		<path fill="#D8AE73" d="M1351,250c0-9.9-8.1-18-18-18h-15c-9.9,0-18,8.1-18,18v11c0,9.9,8.1,18,18,18h15c9.9,0,18-8.1,18-18V250z"
			/>
		<path fill="#002846" d="M1356,210c0,9.4-7.6,17-17,17H1299c-9.4,0-17-7.6-17-17V190c0-9.4,7.6-17,17-17h39.9c9.4,0,17,7.6,17,17
			V210z"/>
		<g>
			<path fill="#002033" d="M1343,289.7v0.3c0-6.4-4.8-10-11.2-10h-57.3c-6.4,0-11.5,3.8-11.5,10.2v-0.4c0,0.1-0.1,1.2-0.1,1.2h80.5
				C1343.4,291,1343,289.8,1343,289.7z"/>
		</g>
		<g>
			<path fill="#5B370D" d="M1301,259.6c0,9.5,7.7,16.4,17.2,16.4h14.5c9.5,0,16.3-6.9,16.3-16.4V259h-48V259.6z"/>
		</g>
		<path fill="#002846" d="M1334,231c0-0.6-0.4-1-1-1h-23c-0.6,0-1,0.4-1,1l0,0c0,0.6,0.4,1,1,1h23C1333.6,232,1334,231.6,1334,231
			L1334,231z"/>
		<rect x="1305" y="225" fill="#002033" width="28" height="4"/>
		<path fill="#002033" d="M1315,189.2c0-9.4-8.3-16.2-17.7-16.2h-19.8c-9.4,0-17.5,6.8-17.5,16.2V291h55V189.2z"/>
		<path fill="#D8AE73" d="M1267,266.3c0,1.2-0.7,2.2-1.5,2.2l0,0c-0.8,0-1.5-1-1.5-2.2v-74c0-1.2,0.7-2.2,1.5-2.2l0,0
			c0.8,0,1.5,1,1.5,2.2V266.3z"/>
	</g>
	<rect x="1316" y="232" fill="#5B370D" width="2" height="27"/>
	<rect x="1147" y="387" fill-rule="evenodd" clip-rule="evenodd" fill="#002846" width="313" height="16"/>
	<polyline fill-rule="evenodd" clip-rule="evenodd" fill="#002846" points="1407.2,395.8 1376,448.2 1376.1,400.9 	"/>
	<polyline fill-rule="evenodd" clip-rule="evenodd" fill="#002846" points="1241.3,395.8 1210.1,448.9 1210.1,400.9 	"/>
</g>
<g>
	<path fill="#6B6862" d="M1070.1,582.7l-1.3-1.3c-1.2,0.9-2.9,1.3-4.3,1.3c-4.4,0-7.9-3.4-7.9-7.9c0-4.3,3.6-7.9,7.9-7.9
		c4.3,0,7.9,3.5,7.9,7.9c0,2.1-0.9,4.2-2.4,5.6l2.3,2.3H1070.1z M1068.7,579.1c1.2-1,1.8-2.8,1.8-4.2c0-3.3-2.5-6.1-6-6.1
		s-6,2.8-6,6.1c0,3.4,2.8,6.1,6,6.1c0.9,0,2.1-0.3,3-0.9l-3.5-3.4h2.3L1068.7,579.1z"/>
	<path fill="#6B6862" d="M1075.8,567.3v8.9c0,2.5,0.7,4.7,3.6,4.7s3.6-2.3,3.6-4.7v-8.9h1.9v9.5c0,3.3-2.1,5.9-5.5,5.9
		s-5.5-2.5-5.5-5.9v-9.5H1075.8z"/>
	<path fill="#6B6862" d="M1087.6,567.3h8.1v1.7h-6.2v4.2h6v1.7h-6v5.7h6.2v1.7h-8.1V567.3z"/>
	<path fill="#6B6862" d="M1099.9,580.7h4.6v1.7h-6.5v-15.1h1.9V580.7z"/>
	<path fill="#6B6862" d="M1107.6,580.7h4.6v1.7h-6.5v-15.1h1.9V580.7z"/>
	<path fill="#6B6862" d="M1113.4,567.3h8.1v1.7h-6.2v4.2h6v1.7h-6v5.7h6.2v1.7h-8.1V567.3z"/>
	<path fill="#6B6862" d="M1130.5,570.2c-0.6-0.9-1.3-1.4-2.4-1.4c-1.2,0-2.5,0.8-2.5,2.1c0,1.2,1.2,1.8,2.1,2.2l1.1,0.4
		c2.1,0.8,3.7,2,3.7,4.5c0,2.7-2.1,4.7-4.8,4.7c-2.4,0-4.3-1.8-4.7-4.2l1.9-0.4c0,1.7,1.3,2.9,2.9,2.9c1.6,0,2.8-1.4,2.8-2.9
		c0-1.6-1.3-2.3-2.6-2.9l-1-0.4c-1.7-0.7-3.3-1.7-3.3-3.8c0-2.4,2.2-3.9,4.4-3.9c1.7,0,3.1,0.8,3.9,2.3L1130.5,570.2z"/>
	<path fill="#6B6862" d="M1147,570.2c-0.6-0.9-1.3-1.4-2.4-1.4c-1.2,0-2.5,0.8-2.5,2.1c0,1.2,1.2,1.8,2.1,2.2l1.1,0.4
		c2.1,0.8,3.7,2,3.7,4.5c0,2.7-2.1,4.7-4.8,4.7c-2.4,0-4.3-1.8-4.7-4.2l1.9-0.4c0,1.7,1.3,2.9,2.9,2.9c1.6,0,2.8-1.4,2.8-2.9
		c0-1.6-1.3-2.3-2.6-2.9l-1-0.4c-1.7-0.7-3.3-1.7-3.3-3.8c0-2.4,2.2-3.9,4.4-3.9c1.7,0,3.1,0.8,3.9,2.3L1147,570.2z"/>
	<path fill="#6B6862" d="M1165.8,574.8c0,4.5-3.5,7.9-7.9,7.9c-4.4,0-7.9-3.4-7.9-7.9c0-4.3,3.6-7.9,7.9-7.9
		C1162.2,567,1165.8,570.5,1165.8,574.8z M1163.9,574.8c0-3.3-2.5-6.1-6-6.1c-3.5,0-6,2.8-6,6.1c0,3.4,2.8,6.1,6,6.1
		C1161.2,580.9,1163.9,578.3,1163.9,574.8z"/>
	<path fill="#6B6862" d="M1167.4,566.6l11.3,11.9v-11.1h1.9V583l-11.3-11.9v11.2h-1.9V566.6z"/>
	<path fill="#6B6862" d="M1187.4,582.4h-1.9V569h-3.6v-1.7h9v1.7h-3.6V582.4z"/>
	<path fill="#6B6862" d="M1200.1,580.7h4.6v1.7h-6.5v-15.1h1.9V580.7z"/>
	<path fill="#6B6862" d="M1205.9,567.3h8.1v1.7h-6.2v4.2h6v1.7h-6v5.7h6.2v1.7h-8.1V567.3z"/>
	<path fill="#6B6862" d="M1223,570.2c-0.6-0.9-1.3-1.4-2.4-1.4c-1.2,0-2.5,0.8-2.5,2.1c0,1.2,1.2,1.8,2.1,2.2l1.1,0.4
		c2.1,0.8,3.7,2,3.7,4.5c0,2.7-2.1,4.7-4.8,4.7c-2.4,0-4.3-1.8-4.7-4.2l1.9-0.4c0,1.7,1.3,2.9,2.9,2.9c1.6,0,2.8-1.4,2.8-2.9
		c0-1.6-1.3-2.3-2.6-2.9l-1-0.4c-1.7-0.7-3.3-1.7-3.3-3.8c0-2.4,2.2-3.9,4.4-3.9c1.7,0,3.1,0.8,3.9,2.3L1223,570.2z"/>
	<path fill="#6B6862" d="M1234.7,582.4h-1.9v-15.1h2.2c4.6,0,6.1,1.6,6.1,4.4c0,3.2-2.4,4.4-5.3,4.4h-1.1V582.4z M1234.7,574.4h0.6
		c1.9,0,4-0.4,4-2.8c0-2.4-2.2-2.6-4.1-2.6h-0.5V574.4z"/>
	<path fill="#6B6862" d="M1252.1,582.4h-2.3l-4.4-6.4h-0.8v6.4h-1.9v-15.1h2.3c1.3,0,2.8,0,4,0.7c1.3,0.7,2,2.2,2,3.6
		c0,2.2-1.4,4-3.6,4.2L1252.1,582.4z M1244.6,574.4h0.6c1.9,0,4-0.4,4-2.8c0-2.4-2.2-2.7-4.1-2.7h-0.5V574.4z"/>
	<path fill="#6B6862" d="M1255.4,582.4h-1.9v-15.1h1.9V582.4z"/>
	<path fill="#6B6862" d="M1258.1,566.6l11.3,11.9v-11.1h1.9V583l-11.3-11.9v11.2h-1.9V566.6z"/>
	<path fill="#6B6862" d="M1284.9,570.2c-1.1-1-2.6-1.5-4-1.5c-3.4,0-6,2.8-6,6.2c0,3.3,2.6,6.1,5.9,6.1c1.5,0,2.9-0.6,4-1.6v2.2
		c-1.2,0.7-2.6,1.1-4,1.1c-4.3,0-7.9-3.4-7.9-7.8c0-4.5,3.6-7.9,8-7.9c1.3,0,2.7,0.3,3.8,1V570.2z"/>
	<path fill="#6B6862" d="M1289,582.4h-1.9v-15.1h1.9V582.4z"/>
	<path fill="#6B6862" d="M1293.7,582.4h-1.9v-15.1h2.2c4.6,0,6.1,1.6,6.1,4.4c0,3.2-2.4,4.4-5.3,4.4h-1.1V582.4z M1293.7,574.4h0.6
		c1.9,0,4-0.4,4-2.8c0-2.4-2.2-2.6-4.1-2.6h-0.5V574.4z"/>
	<path fill="#6B6862" d="M1302.3,578.6l-1.7,3.8h-2l7.2-15.7l7.2,15.7h-2l-1.7-3.8H1302.3z M1305.7,570.8l-2.7,6.1h5.4L1305.7,570.8
		z"/>
	<path fill="#6B6862" d="M1316,580.7h4.6v1.7h-6.5v-15.1h1.9V580.7z"/>
	<path fill="#6B6862" d="M1321.9,567.3h8.1v1.7h-6.2v4.2h6v1.7h-6v5.7h6.2v1.7h-8.1V567.3z"/>
	<path fill="#6B6862" d="M1339,570.2c-0.6-0.9-1.3-1.4-2.4-1.4c-1.2,0-2.5,0.8-2.5,2.1c0,1.2,1.2,1.8,2.1,2.2l1.1,0.4
		c2.1,0.8,3.7,2,3.7,4.5c0,2.7-2.1,4.7-4.8,4.7c-2.4,0-4.3-1.8-4.7-4.2l1.9-0.4c0,1.7,1.3,2.9,2.9,2.9s2.8-1.4,2.8-2.9
		c0-1.6-1.3-2.3-2.6-2.9l-1-0.4c-1.7-0.7-3.3-1.7-3.3-3.8c0-2.4,2.2-3.9,4.4-3.9c1.7,0,3.1,0.8,3.9,2.3L1339,570.2z"/>
	<path fill="#6B6862" d="M1350.7,582.4h-1.9v-15.1h2.2c4.6,0,6.1,1.6,6.1,4.4c0,3.2-2.4,4.4-5.3,4.4h-1.1V582.4z M1350.7,574.4h0.6
		c1.9,0,4-0.4,4-2.8c0-2.4-2.2-2.6-4.1-2.6h-0.5V574.4z"/>
	<path fill="#6B6862" d="M1360.6,580.7h4.6v1.7h-6.5v-15.1h1.9V580.7z"/>
	<path fill="#6B6862" d="M1368.5,578.6l-1.7,3.8h-2l7.2-15.7l7.2,15.7h-2l-1.7-3.8H1368.5z M1372,570.8l-2.7,6.1h5.4L1372,570.8z"/>
	<path fill="#6B6862" d="M1382.9,582.4h-1.9V569h-3.6v-1.7h9v1.7h-3.6V582.4z"/>
	<path fill="#6B6862" d="M1388,567.3h8.1v1.7h-6.2v4.2h6v1.7h-6v5.7h6.2v1.7h-8.1V567.3z"/>
	<path fill="#6B6862" d="M1400.3,569v4.2h5.2v1.7h-5.2v7.4h-1.9v-15.1h7.3v1.7H1400.3z"/>
	<path fill="#6B6862" d="M1422.6,574.8c0,4.5-3.5,7.9-7.9,7.9c-4.4,0-7.9-3.4-7.9-7.9c0-4.3,3.6-7.9,7.9-7.9
		C1419.1,567,1422.6,570.5,1422.6,574.8z M1420.8,574.8c0-3.3-2.5-6.1-6-6.1c-3.5,0-6,2.8-6,6.1c0,3.4,2.8,6.1,6,6.1
		C1418,580.9,1420.8,578.3,1420.8,574.8z"/>
	<path fill="#6B6862" d="M1433.8,582.4h-2.3l-4.4-6.4h-0.8v6.4h-1.9v-15.1h2.3c1.3,0,2.8,0,4,0.7c1.3,0.7,2,2.2,2,3.6
		c0,2.2-1.4,4-3.6,4.2L1433.8,582.4z M1426.3,574.4h0.6c1.9,0,4-0.4,4-2.8c0-2.4-2.2-2.7-4.1-2.7h-0.5V574.4z"/>
	<path fill="#6B6862" d="M1437.9,572.4L1437.9,572.4l-1.8,10h-1.9l3.1-15.7l5.2,11.9l5.2-11.9l3.1,15.7h-1.9l-1.8-10h0l-4.5,10.3
		L1437.9,572.4z"/>
	<path fill="#6B6862" d="M1452.3,567.3h8.1v1.7h-6.2v4.2h6v1.7h-6v5.7h6.2v1.7h-8.1V567.3z"/>
	<path fill="#6B6862" d="M1469.4,570.2c-0.6-0.9-1.3-1.4-2.4-1.4c-1.2,0-2.5,0.8-2.5,2.1c0,1.2,1.2,1.8,2.1,2.2l1.1,0.4
		c2.1,0.8,3.7,2,3.7,4.5c0,2.7-2.1,4.7-4.8,4.7c-2.4,0-4.3-1.8-4.7-4.2l1.9-0.4c0,1.7,1.3,2.9,2.9,2.9s2.8-1.4,2.8-2.9
		c0-1.6-1.3-2.3-2.6-2.9l-1-0.4c-1.7-0.7-3.3-1.7-3.3-3.8c0-2.4,2.2-3.9,4.4-3.9c1.7,0,3.1,0.8,3.9,2.3L1469.4,570.2z"/>
	<path fill="#6B6862" d="M1122.4,593.3h3.1c4.6,0,8.5,2.4,8.5,7.5c0,5.1-3.8,7.6-8.5,7.6h-3.1V593.3z M1124.3,606.7h0.7
		c3.8,0,7.2-1.4,7.2-5.8c0-4.4-3.3-5.8-7.2-5.8h-0.7V606.7z"/>
	<path fill="#6B6862" d="M1135.8,593.3h8.1v1.7h-6.2v4.2h6v1.7h-6v5.7h6.2v1.7h-8.1V593.3z"/>
	<path fill="#6B6862" d="M1163,596.2c-1.1-1-2.6-1.5-4-1.5c-3.4,0-6,2.8-6,6.2c0,3.3,2.6,6.1,5.9,6.1c1.5,0,2.9-0.6,4-1.6v2.2
		c-1.2,0.7-2.6,1.1-4,1.1c-4.3,0-7.9-3.4-7.9-7.8c0-4.5,3.6-7.9,8-7.9c1.3,0,2.7,0.3,3.8,1V596.2z"/>
	<path fill="#6B6862" d="M1174.6,608.4h-2.3l-4.4-6.4h-0.8v6.4h-1.9v-15.1h2.3c1.3,0,2.8,0,4,0.7c1.3,0.7,2,2.2,2,3.6
		c0,2.2-1.4,4-3.6,4.2L1174.6,608.4z M1167.1,600.4h0.6c1.9,0,4-0.4,4-2.8c0-2.4-2.2-2.7-4.1-2.7h-0.5V600.4z"/>
	<path fill="#6B6862" d="M1190.9,600.8c0,4.5-3.5,7.9-7.9,7.9c-4.4,0-7.9-3.4-7.9-7.9c0-4.3,3.6-7.9,7.9-7.9
		C1187.3,593,1190.9,596.5,1190.9,600.8z M1189,600.8c0-3.3-2.5-6.1-6-6.1c-3.5,0-6,2.8-6,6.1c0,3.4,2.8,6.1,6,6.1
		C1186.2,606.9,1189,604.3,1189,600.8z"/>
	<path fill="#6B6862" d="M1197.3,604.1l4.3-11.1l4.3,11.1l4.2-10.8h2l-6.3,15.7l-4.3-11.1l-4.3,11.1l-6.3-15.7h2L1197.3,604.1z"/>
	<path fill="#6B6862" d="M1213.1,593.3h3.1c4.6,0,8.5,2.4,8.5,7.5c0,5.1-3.8,7.6-8.5,7.6h-3.1V593.3z M1214.9,606.7h0.7
		c3.8,0,7.2-1.4,7.2-5.8c0-4.4-3.3-5.8-7.2-5.8h-0.7V606.7z"/>
	<path fill="#6B6862" d="M1226.5,593.3h8.1v1.7h-6.2v4.2h6v1.7h-6v5.7h6.2v1.7h-8.1V593.3z"/>
	<path fill="#6B6862" d="M1249.4,608.7l-1.3-1.3c-1.2,0.9-2.9,1.3-4.3,1.3c-4.4,0-7.9-3.4-7.9-7.9c0-4.3,3.6-7.9,7.9-7.9
		c4.3,0,7.9,3.5,7.9,7.9c0,2.1-0.9,4.2-2.4,5.6l2.3,2.3H1249.4z M1248,605.1c1.2-1,1.8-2.8,1.8-4.2c0-3.3-2.5-6.1-6-6.1
		c-3.5,0-6,2.8-6,6.1c0,3.4,2.8,6.1,6,6.1c0.9,0,2.1-0.3,3-0.9l-3.5-3.4h2.3L1248,605.1z"/>
	<path fill="#6B6862" d="M1255.1,593.3v8.9c0,2.5,0.7,4.7,3.6,4.7s3.6-2.3,3.6-4.7v-8.9h1.9v9.5c0,3.3-2.1,5.9-5.5,5.9
		s-5.5-2.5-5.5-5.9v-9.5H1255.1z"/>
	<path fill="#6B6862" d="M1268.7,608.4h-1.9v-15.1h1.9V608.4z"/>
	<path fill="#6B6862" d="M1275.6,608.4h-1.9V595h-3.6v-1.7h9v1.7h-3.6V608.4z"/>
	<path fill="#6B6862" d="M1279.1,593.3h2.2l3.7,6.4l3.7-6.4h2.2l-4.9,8.5v6.6h-1.9v-6.6L1279.1,593.3z"/>
	<path fill="#6B6862" d="M1300.5,595.9v3.3h4.7v2.6h-4.7v4.1h4.9v2.6h-7.8v-15.1h7.8v2.6H1300.5z"/>
	<path fill="#6B6862" d="M1307.3,592.9h2.1l7.9,10.5h0v-10.1h2.9v15.4h-2.1l-7.9-10.5h0v10.2h-2.9V592.9z"/>
	<path fill="#6B6862" d="M1331.2,595.9v3.3h4.3v2.6h-4.3v6.6h-2.9v-15.1h7.5v2.6H1331.2z"/>
	<path fill="#6B6862" d="M1347.7,608.4h-3.6l-3.7-6.1h0v6.1h-2.9v-15.1h4c3,0,5,1.3,5,4.5c0,1.9-1.1,3.8-3.1,4.2L1347.7,608.4z
		 M1340.4,600.2h0.4c1.6,0,2.8-0.5,2.8-2.3c0-1.9-1.2-2.2-2.7-2.2h-0.4V600.2z"/>
	<path fill="#6B6862" d="M1351.7,605.2l-1.2,3.2h-3.1l5.9-15.5h2.3l5.7,15.5h-3.1l-1.2-3.2H1351.7z M1354.3,597.3L1354.3,597.3
		l-1.7,5.5h3.6L1354.3,597.3z"/>
	<path fill="#6B6862" d="M1362.2,592.9h2.1l7.9,10.5h0v-10.1h2.9v15.4h-2.1l-7.9-10.5h0v10.2h-2.9V592.9z"/>
	<path fill="#6B6862" d="M1387.4,597.3c-0.8-1-2.1-1.6-3.3-1.6c-2.8,0-4.4,2.6-4.4,5.2c0,2.5,1.7,5.1,4.4,5.1c1.3,0,2.5-0.7,3.3-1.6
		v3.5c-1.1,0.5-2.2,0.9-3.4,0.9c-4.2,0-7.4-3.7-7.4-7.8c0-4.3,3-8.1,7.4-8.1c1.2,0,2.3,0.3,3.4,0.9V597.3z"/>
	<path fill="#6B6862" d="M1392.3,595.9v3.3h4.7v2.6h-4.7v4.1h4.9v2.6h-7.8v-15.1h7.8v2.6H1392.3z"/>
	<path fill="#6B6862" d="M1411.7,601.5c0.1,1.7-1.5,3.2-3.2,3.2c-1.8,0-3.2-1.4-3.2-3.2c0-1.9,1.3-2.5,2.5-2.9
		c1.2-0.5,2.5-0.8,2.5-2.1c0-1.1-0.8-1.8-1.8-1.8c-0.9,0-1.7,0.8-1.7,1.7c0,0.2,0.1,0.4,0.1,0.6h-1.9l0-0.7c-0.1-2,1.7-3.4,3.6-3.4
		c2,0,3.6,1.5,3.6,3.5c0,0.9-0.4,1.9-1.1,2.5c-0.7,0.6-1.6,0.9-2.5,1.1c-0.7,0.2-1.5,0.6-1.5,1.5c0,0.8,0.6,1.4,1.4,1.4
		c0.9,0,1.4-0.7,1.4-1.5H1411.7z M1409.6,607.5c0,0.6-0.5,1.2-1.2,1.2c-0.6,0-1.2-0.5-1.2-1.2c0-0.6,0.5-1.2,1.2-1.2
		C1409.1,606.4,1409.6,606.9,1409.6,607.5z"/>
</g>
<g>
	<path fill="#002846" d="M1405,781.2c-0.6,0-1.2-0.1-1.8-0.2v-0.9c0.6,0.2,1.2,0.4,1.8,0.4c0.8,0,1.6-0.4,1.6-1.3
		c0-0.8-0.6-1.2-1.3-1.5l-0.7-0.4c-0.8-0.5-1.6-0.9-1.6-2c0-1.4,1.2-1.9,2.4-1.9c0.5,0,1.1,0.1,1.6,0.2v0.8
		c-0.5-0.2-1.1-0.3-1.7-0.3c-0.7,0-1.4,0.3-1.4,1.2c0,0.7,0.7,1.1,1.3,1.4l0.7,0.4c0.9,0.5,1.6,1,1.6,2.1
		C1407.7,780.7,1406.4,781.2,1405,781.2z"/>
	<path fill="#002846" d="M1410.7,781.2c-1.6,0-2.1-1.3-2.1-2.7c0-1.4,0.5-2.8,2.1-2.8c1.6,0,2.2,1.3,2.2,2.8
		C1412.8,779.9,1412.3,781.2,1410.7,781.2z M1410.7,776.4c-1.1,0-1.3,1.3-1.3,2.1c0,0.8,0.2,2.1,1.3,2.1c1.1,0,1.3-1.3,1.3-2.1
		C1412,777.6,1411.7,776.4,1410.7,776.4z"/>
	<path fill="#002846" d="M1417.1,781.1v-1.2h0c-0.2,0.8-0.7,1.3-1.6,1.3c-0.9,0-1.3-0.8-1.3-1.6v-3.7h0.7v2.9c0,0.6-0.1,1.7,0.8,1.7
		c1,0,1.5-1.6,1.5-2.5v-2.2h0.7v5.2H1417.1z"/>
	<path fill="#002846" d="M1420.4,778.9v2.2h-0.7v-5.2h0.7v1h0c0.3-0.8,0.9-1.1,1.7-1.1v0.8C1420.9,776.5,1420.4,777.8,1420.4,778.9z
		"/>
	<path fill="#002846" d="M1425.8,777.4c0-0.6-0.3-1.1-0.9-1.1c-1,0-1.2,1-1.2,1.8c0,1.4,0.6,2.4,2.1,2.4c0.3,0,0.6,0,0.8-0.1v0.6
		c-0.4,0.1-0.7,0.1-1.1,0.1c-1.8,0-2.7-1.1-2.7-2.9c0-1.4,0.5-2.6,2.1-2.6c1.1,0,1.8,0.6,1.8,1.7H1425.8z"/>
	<path fill="#002846" d="M1428.3,778v0.3c0,1.1,0.6,2.3,1.9,2.3c0.4,0,0.7-0.1,1-0.1v0.6c-0.4,0.1-0.8,0.2-1.2,0.2
		c-1.8,0-2.6-1.2-2.6-2.9c0-1.4,0.5-2.6,2-2.6c1.2,0,1.8,0.8,1.8,2v0.3H1428.3z M1429.5,776.4c-0.6,0-1,0.4-1.1,1h2.1
		C1430.5,776.8,1430.1,776.4,1429.5,776.4z"/>
	<path fill="#002846" d="M1436,777v-1.1h1.1v1.1H1436z M1436,781.1V780h1.1v1.1H1436z"/>
	<path fill="#002846" d="M1442.7,781.2c-0.6,0-1.2-0.1-1.8-0.2v-0.9c0.6,0.2,1.2,0.4,1.8,0.4c0.8,0,1.6-0.4,1.6-1.3
		c0-0.8-0.6-1.2-1.3-1.5l-0.7-0.4c-0.8-0.5-1.6-0.9-1.6-2c0-1.4,1.2-1.9,2.4-1.9c0.5,0,1.1,0.1,1.6,0.2v0.8
		c-0.5-0.2-1.1-0.3-1.7-0.3c-0.7,0-1.4,0.3-1.4,1.2c0,0.7,0.7,1.1,1.3,1.4l0.7,0.4c0.9,0.5,1.6,1,1.6,2.1
		C1445.3,780.7,1444,781.2,1442.7,781.2z"/>
	<path fill="#002846" d="M1446.5,774.5v-1h1v1H1446.5z M1446.6,781.1v-5.2h0.7v5.2H1446.6z"/>
	<path fill="#002846" d="M1450.3,776.5v3.2c0,0.6,0.3,0.9,0.9,0.9c0.2,0,0.3,0,0.5-0.1v0.7c-0.2,0-0.4,0.1-0.7,0.1
		c-1,0-1.5-0.3-1.5-1.4v-3.4h-0.9v-0.6h0.9v-1.2l0.7-0.5v1.7h1.4v0.6H1450.3z"/>
	<path fill="#002846" d="M1453.4,778v0.3c0,1.1,0.6,2.3,1.9,2.3c0.4,0,0.7-0.1,1-0.1v0.6c-0.4,0.1-0.8,0.2-1.2,0.2
		c-1.8,0-2.6-1.2-2.6-2.9c0-1.4,0.5-2.6,2-2.6c1.2,0,1.8,0.8,1.8,2v0.3H1453.4z M1454.5,776.4c-0.6,0-1,0.4-1.1,1h2.1
		C1455.5,776.8,1455.1,776.4,1454.5,776.4z"/>
	<path fill="#002846" d="M1458.7,781.2c-0.5,0-1-0.1-1.4-0.2v-0.7c0.4,0.2,0.9,0.3,1.4,0.3c0.6,0,1.3-0.2,1.3-0.8
		c0-0.5-0.6-0.7-0.9-0.9l-0.5-0.3c-0.6-0.3-1.2-0.6-1.2-1.4c0-1,0.9-1.4,1.8-1.4c0.4,0,0.8,0.1,1.2,0.2v0.7
		c-0.4-0.1-0.8-0.2-1.2-0.2c-0.4,0-1.1,0.2-1.1,0.7c0,0.4,0.6,0.6,0.9,0.8l0.4,0.3c0.6,0.4,1.2,0.6,1.2,1.5
		C1460.7,780.8,1459.8,781.2,1458.7,781.2z"/>
	<path fill="#002846" d="M1469.6,781.1h-0.8l-1.2-4h0l-1.2,4h-0.8l-1.3-5.2h0.7l1,4.1h0l1.3-4.1h0.6l1.3,4.1h0l0.9-4.1h0.7
		L1469.6,781.1z"/>
	<path fill="#002846" d="M1472.7,778v0.3c0,1.1,0.6,2.3,1.9,2.3c0.4,0,0.7-0.1,1-0.1v0.6c-0.4,0.1-0.8,0.2-1.2,0.2
		c-1.8,0-2.6-1.2-2.6-2.9c0-1.4,0.5-2.6,2-2.6c1.2,0,1.8,0.8,1.8,2v0.3H1472.7z M1473.9,776.4c-0.6,0-1,0.4-1.1,1h2.1
		C1474.9,776.8,1474.4,776.4,1473.9,776.4z"/>
	<path fill="#002846" d="M1478.9,781.2c-1.5,0-2-1-2-2.3v-5.4h0.7v3.2h0c0.2-0.6,0.8-1,1.4-1c1.5,0,1.9,1.6,1.9,2.8
		C1481,779.9,1480.5,781.2,1478.9,781.2z M1479,776.4c-1,0-1.3,1.5-1.3,2.3c0,0.8,0.2,1.9,1.2,1.9c1,0,1.3-1.3,1.3-2.1
		C1480.2,777.8,1480,776.4,1479,776.4z"/>
	<path fill="#002846" d="M1488,781.1v-0.9h0c-0.2,0.6-0.7,1-1.4,1c-1.5,0-1.8-1.5-1.8-2.7c0-1.1,0.4-2.8,1.8-2.8
		c0.7,0,1.2,0.3,1.4,1h0v-3.2h0.7v7.6H1488z M1486.8,776.4c-1,0-1.1,1.6-1.1,2.3c0,0.7,0.1,1.9,1.1,1.9c0.9,0,1.2-1.4,1.2-2.1
		C1488,777.8,1487.8,776.4,1486.8,776.4z"/>
	<path fill="#002846" d="M1491,778v0.3c0,1.1,0.6,2.3,1.9,2.3c0.4,0,0.7-0.1,1-0.1v0.6c-0.4,0.1-0.8,0.2-1.2,0.2
		c-1.8,0-2.6-1.2-2.6-2.9c0-1.4,0.5-2.6,2-2.6c1.2,0,1.8,0.8,1.8,2v0.3H1491z M1492.2,776.4c-0.6,0-1,0.4-1.1,1h2.1
		C1493.2,776.8,1492.8,776.4,1492.2,776.4z"/>
	<path fill="#002846" d="M1496.4,781.2c-0.5,0-1-0.1-1.4-0.2v-0.7c0.4,0.2,0.9,0.3,1.4,0.3c0.6,0,1.3-0.2,1.3-0.8
		c0-0.5-0.6-0.7-0.9-0.9l-0.5-0.3c-0.6-0.3-1.2-0.6-1.2-1.4c0-1,0.9-1.4,1.8-1.4c0.4,0,0.8,0.1,1.2,0.2v0.7
		c-0.4-0.1-0.8-0.2-1.2-0.2c-0.4,0-1.1,0.2-1.1,0.7c0,0.4,0.6,0.6,0.9,0.8l0.4,0.3c0.6,0.4,1.2,0.6,1.2,1.5
		C1498.3,780.8,1497.4,781.2,1496.4,781.2z"/>
	<path fill="#002846" d="M1504.5,781.2c-0.7,0-1.2-0.3-1.4-1h0v3.2h-0.7v-7.6h0.7v0.9h0c0.2-0.6,0.7-1,1.4-1c1.5,0,1.8,1.5,1.8,2.7
		C1506.3,779.6,1505.9,781.2,1504.5,781.2z M1504.3,776.4c-0.9,0-1.2,1.4-1.2,2.1c0,0.7,0.2,2.1,1.2,2.1c1,0,1.1-1.6,1.1-2.3
		C1505.4,777.6,1505.3,776.4,1504.3,776.4z"/>
	<path fill="#002846" d="M1507.7,781.1v-7.6h0.7v7.6H1507.7z"/>
	<path fill="#002846" d="M1512.9,781.1v-0.7h0c-0.3,0.6-1,0.8-1.6,0.8c-0.9,0-1.4-0.6-1.4-1.5c0-1.2,1.5-1.6,2.5-1.6
		c0.2,0,0.3,0,0.5,0V778c0-0.8,0.1-1.6-1-1.6c-0.6,0-1,0.2-1.1,0.8h-0.8c0-1.1,0.9-1.5,1.9-1.5c1.2,0,1.8,0.5,1.8,1.7v3.7H1512.9z
		 M1512.4,778.7c-0.7,0-1.7,0.3-1.7,1.1c0,0.4,0.3,0.8,0.7,0.8c0.5,0,1-0.3,1.2-0.8c0.2-0.4,0.2-0.6,0.2-1.1H1512.4z"/>
	<path fill="#002846" d="M1516.5,776.5v3.2c0,0.6,0.3,0.9,0.9,0.9c0.2,0,0.3,0,0.5-0.1v0.7c-0.2,0-0.4,0.1-0.7,0.1
		c-1,0-1.5-0.3-1.5-1.4v-3.4h-0.9v-0.6h0.9v-1.2l0.7-0.5v1.7h1.4v0.6H1516.5z"/>
	<path fill="#002846" d="M1519.5,778v0.3c0,1.1,0.6,2.3,1.9,2.3c0.4,0,0.7-0.1,1-0.1v0.6c-0.4,0.1-0.8,0.2-1.2,0.2
		c-1.8,0-2.6-1.2-2.6-2.9c0-1.4,0.5-2.6,2-2.6c1.2,0,1.8,0.8,1.8,2v0.3H1519.5z M1520.7,776.4c-0.6,0-1,0.4-1.1,1h2.1
		C1521.7,776.8,1521.3,776.4,1520.7,776.4z"/>
	<path fill="#002846" d="M1526.1,774.1c-1.2,0-1.1,0.9-1.1,1.8h1.5v0.6h-1.5v4.6h-0.7v-4.6h-0.9v-0.6h0.9v-0.7
		c0-1.1,0.6-1.7,1.7-1.7c0.3,0,0.6,0,0.9,0.1v0.7C1526.6,774.1,1526.3,774.1,1526.1,774.1z"/>
	<path fill="#002846" d="M1529.1,781.2c-1.6,0-2.1-1.3-2.1-2.7c0-1.4,0.5-2.8,2.1-2.8c1.6,0,2.2,1.3,2.2,2.8
		C1531.3,779.9,1530.8,781.2,1529.1,781.2z M1529.1,776.4c-1.1,0-1.3,1.3-1.3,2.1c0,0.8,0.2,2.1,1.3,2.1c1.1,0,1.3-1.3,1.3-2.1
		C1530.4,777.6,1530.2,776.4,1529.1,776.4z"/>
	<path fill="#002846" d="M1533.4,778.9v2.2h-0.7v-5.2h0.7v1h0c0.3-0.8,0.9-1.1,1.7-1.1v0.8C1533.8,776.5,1533.4,777.8,1533.4,778.9z
		"/>
	<path fill="#002846" d="M1541.8,781.1v-2.9c0-0.6,0.1-1.7-0.8-1.7c-1,0-1.3,1.7-1.3,2.5v2.2h-0.7v-2.9c0-0.6,0.1-1.7-0.8-1.7
		c-1,0-1.3,1.7-1.3,2.5v2.2h-0.7v-5.2h0.7v1.2h0c0.2-0.7,0.6-1.3,1.5-1.3c0.8,0,1.3,0.4,1.3,1.2h0c0.2-0.7,0.7-1.2,1.5-1.2
		c0.9,0,1.3,0.8,1.3,1.6v3.7H1541.8z"/>
	<path fill="#002846" d="M1544.8,778v0.3c0,1.1,0.6,2.3,1.9,2.3c0.4,0,0.7-0.1,1-0.1v0.6c-0.4,0.1-0.8,0.2-1.2,0.2
		c-1.8,0-2.6-1.2-2.6-2.9c0-1.4,0.5-2.6,2-2.6c1.2,0,1.8,0.8,1.8,2v0.3H1544.8z M1545.9,776.4c-0.6,0-1,0.4-1.1,1h2.1
		C1546.9,776.8,1546.5,776.4,1545.9,776.4z"/>
	<path fill="#002846" d="M1550.1,781.2c-0.5,0-1-0.1-1.4-0.2v-0.7c0.4,0.2,0.9,0.3,1.4,0.3c0.6,0,1.3-0.2,1.3-0.8
		c0-0.5-0.6-0.7-0.9-0.9l-0.5-0.3c-0.6-0.3-1.2-0.6-1.2-1.4c0-1,0.9-1.4,1.8-1.4c0.4,0,0.8,0.1,1.2,0.2v0.7
		c-0.4-0.1-0.8-0.2-1.2-0.2c-0.4,0-1.1,0.2-1.1,0.7c0,0.4,0.6,0.6,0.9,0.8l0.4,0.3c0.6,0.4,1.2,0.6,1.2,1.5
		C1552.1,780.8,1551.2,781.2,1550.1,781.2z"/>
	<path fill="#002846" d="M1556,777.7c0-1.6-0.1-4.6,2-5v0.5c-1.2,0.6-1.1,3.4-1.1,4.5c0,1.2-0.1,3.9,1.1,4.5v0.5
		C1555.9,782.2,1556,779.3,1556,777.7z"/>
	<path fill="#002846" d="M1560.1,781.2c-0.5,0-1-0.1-1.4-0.2v-0.7c0.4,0.2,0.9,0.3,1.4,0.3c0.6,0,1.3-0.2,1.3-0.8
		c0-0.5-0.6-0.7-0.9-0.9l-0.5-0.3c-0.6-0.3-1.2-0.6-1.2-1.4c0-1,0.9-1.4,1.8-1.4c0.4,0,0.8,0.1,1.2,0.2v0.7
		c-0.4-0.1-0.8-0.2-1.2-0.2c-0.4,0-1.1,0.2-1.1,0.7c0,0.4,0.6,0.6,0.9,0.8l0.4,0.3c0.6,0.4,1.2,0.6,1.2,1.5
		C1562,780.8,1561.1,781.2,1560.1,781.2z"/>
	<path fill="#002846" d="M1565.8,781.1v-0.7h0c-0.3,0.6-1,0.8-1.6,0.8c-0.9,0-1.4-0.6-1.4-1.5c0-1.2,1.5-1.6,2.5-1.6
		c0.2,0,0.3,0,0.5,0V778c0-0.8,0.1-1.6-1-1.6c-0.6,0-1,0.2-1.1,0.8h-0.8c0-1.1,0.9-1.5,1.9-1.5c1.2,0,1.8,0.5,1.8,1.7v3.7H1565.8z
		 M1565.4,778.7c-0.7,0-1.7,0.3-1.7,1.1c0,0.4,0.3,0.8,0.7,0.8c0.5,0,1-0.3,1.2-0.8c0.2-0.4,0.2-0.6,0.2-1.1H1565.4z"/>
	<path fill="#002846" d="M1571.3,781.1v-1.2h0c-0.2,0.8-0.7,1.3-1.6,1.3c-0.9,0-1.3-0.8-1.3-1.6v-3.7h0.7v2.9c0,0.6-0.1,1.7,0.8,1.7
		c1,0,1.5-1.6,1.5-2.5v-2.2h0.7v5.2H1571.3z"/>
	<path fill="#002846" d="M1576,774.1c-1.2,0-1.1,0.9-1.1,1.8h1.5v0.6h-1.5v4.6h-0.7v-4.6h-0.9v-0.6h0.9v-0.7c0-1.1,0.6-1.7,1.7-1.7
		c0.3,0,0.6,0,0.9,0.1v0.7C1576.5,774.1,1576.2,774.1,1576,774.1z"/>
	<path fill="#002846" d="M1586.7,781.1h-1.1l-1.8-6.4h0l-1.8,6.4h-1l-1.4-7.6h0.8l1.2,6.5h0l1.8-6.5h0.9l1.8,6.5h0l1.2-6.5h0.8
		L1586.7,781.1z"/>
	<path fill="#002846" d="M1589.2,774.5v-1h1v1H1589.2z M1589.3,781.1v-5.2h0.7v5.2H1589.3z"/>
	<path fill="#002846" d="M1592.9,781.2c-0.5,0-1-0.1-1.4-0.2v-0.7c0.4,0.2,0.9,0.3,1.4,0.3c0.6,0,1.3-0.2,1.3-0.8
		c0-0.5-0.6-0.7-0.9-0.9l-0.5-0.3c-0.6-0.3-1.2-0.6-1.2-1.4c0-1,0.9-1.4,1.8-1.4c0.4,0,0.8,0.1,1.2,0.2v0.7
		c-0.4-0.1-0.8-0.2-1.2-0.2c-0.4,0-1.1,0.2-1.1,0.7c0,0.4,0.6,0.6,0.9,0.8l0.4,0.3c0.6,0.4,1.2,0.6,1.2,1.5
		C1594.8,780.8,1593.9,781.2,1592.9,781.2z"/>
	<path fill="#002846" d="M1596.5,778v0.3c0,1.1,0.6,2.3,1.9,2.3c0.4,0,0.7-0.1,1-0.1v0.6c-0.4,0.1-0.8,0.2-1.2,0.2
		c-1.8,0-2.6-1.2-2.6-2.9c0-1.4,0.5-2.6,2-2.6c1.2,0,1.8,0.8,1.8,2v0.3H1596.5z M1597.7,776.4c-0.6,0-1,0.4-1.1,1h2.1
		C1598.7,776.8,1598.2,776.4,1597.7,776.4z"/>
	<path fill="#002846" d="M1601.4,778v0.3c0,1.1,0.6,2.3,1.9,2.3c0.4,0,0.7-0.1,1-0.1v0.6c-0.4,0.1-0.8,0.2-1.2,0.2
		c-1.8,0-2.6-1.2-2.6-2.9c0-1.4,0.5-2.6,2-2.6c1.2,0,1.8,0.8,1.8,2v0.3H1601.4z M1602.5,776.4c-0.6,0-1,0.4-1.1,1h2.1
		C1603.5,776.8,1603.1,776.4,1602.5,776.4z"/>
	<path fill="#002846" d="M1608.6,781.1v-0.9h0c-0.2,0.6-0.7,1-1.4,1c-1.5,0-1.8-1.5-1.8-2.7c0-1.1,0.4-2.8,1.8-2.8
		c0.7,0,1.2,0.3,1.4,1h0v-3.2h0.7v7.6H1608.6z M1607.4,776.4c-1,0-1.1,1.6-1.1,2.3c0,0.7,0.1,1.9,1.1,1.9c0.9,0,1.2-1.4,1.2-2.1
		C1608.6,777.8,1608.3,776.4,1607.4,776.4z"/>
	<path fill="#002846" d="M1610.5,782.7v-0.5c1.2-0.6,1.1-3.4,1.1-4.5c0-1.2,0.1-3.9-1.1-4.5v-0.5c2.1,0.5,2,3.4,2,5
		C1612.5,779.3,1612.6,782.3,1610.5,782.7z"/>
</g>
</svg>
