<?xml version="1.0" encoding="utf-8"?>
<!-- Generator: Adobe Illustrator 18.0.0, SVG Export Plug-In . SVG Version: 6.00 Build 0)  -->
<!DOCTYPE svg PUBLIC "-//W3C//DTD SVG 1.1//EN" "http://www.w3.org/Graphics/SVG/1.1/DTD/svg11.dtd">
<svg version="1.1" id="Calque_1" xmlns="http://www.w3.org/2000/svg" xmlns:xlink="http://www.w3.org/1999/xlink" x="0px" y="0px"
	 viewBox="0 0 1280 800" enable-background="new 0 0 1280 800" xml:space="preserve">
<rect y="-2" fill="#879AA8" width="1282" height="800"/>
<rect y="398" fill="#617C8E" width="1282" height="402"/>
<rect x="1030" y="584" fill="#526E7A" width="4" height="221"/>
<rect x="1042" y="584" fill="#526E7A" width="4" height="221"/>
<path fill="#526E7A" d="M1060,585.9c0,0.6-0.5,1.1-1.1,1.1H867.1c-0.6,0-1.1-0.5-1.1-1.1v-10.8c0-0.6,0.5-1.1,1.1-1.1h191.8
	c0.6,0,1.1,0.5,1.1,1.1V585.9z"/>
<rect x="950" y="586" fill="#526E7A" width="27" height="233"/>
<rect x="950" y="593" fill="#526E7A" width="27" height="18"/>
<polygon opacity="0.2" fill="#FFFFFF" points="919,514.3 825,233.9 825,574.5 919,543.8 "/>
<g>
	<rect x="173" y="221" fill="#EFEFEF" width="652" height="353"/>
</g>
<path fill="#002033" d="M912,555.7c0-0.5,0.1-0.7-0.3-0.7h-5.4c-0.4,0-1.3,0.2-1.3,0.7v8.7c0,0.5,0.9,0.6,1.3,0.6h5.4
	c0.4,0,0.3-0.1,0.3-0.6V555.7z"/>
<path fill="#D8AE73" d="M1039,525.7c0-14-12.8-26.7-27.4-26.7H905.2c-14.6,0-26.2,12.6-26.2,26.7v6.4c0,14,11.6,24.9,26.2,24.9
	h106.4c14.6,0,27.4-10.9,27.4-24.9V525.7z"/>
<path fill="#002033" d="M1093,576.9c0,0.6-0.5,1.1-1.1,1.1H900.1c-0.6,0-1.1-0.5-1.1-1.1v-10.8c0-0.6,0.5-1.1,1.1-1.1h191.8
	c0.6,0,1.1,0.5,1.1,1.1V576.9z"/>
<path fill="#002033" d="M972,556.1c0-0.6-0.5-1.1-1.1-1.1h-4.8c-0.6,0-1.1,0.5-1.1,1.1v8.8c0,0.6,0.5,1.1,1.1,1.1h4.8
	c0.6,0,1.1-0.5,1.1-1.1V556.1z"/>
<path fill="#002033" d="M1026,555.5c0-0.6-0.7-0.5-1.3-0.5h-5.2c-0.6,0-1.5-0.1-1.5,0.5v8.4c0,0.6,0.9,1.2,1.5,1.2h5.2
	c0.6,0,1.3-0.6,1.3-1.2V555.5z"/>
<path fill="#002033" d="M1087,556.1c0-0.6-0.5-1.1-1.1-1.1h-4.8c-0.6,0-1.1,0.5-1.1,1.1v8.8c0,0.6,0.5,1.1,1.1,1.1h4.8
	c0.6,0,1.1-0.5,1.1-1.1V556.1z"/>
<rect x="958" y="499" fill="#CE9F51" width="134" height="58"/>
<path fill="#00131E" d="M1074,550.9c0,0.6-0.5,1.1-1.1,1.1h-23.8c-0.6,0-1.1-0.5-1.1-1.1v-15.8c0-0.6,0.5-1.1,1.1-1.1h23.8
	c0.6,0,1.1,0.5,1.1,1.1V550.9z"/>
<path fill="#002846" d="M1079,798.1c-0.9,0-2-0.8-2-1.7V588.8c0-19.8-4.6-30.6-8.8-36.2c-4.4-6-8.8-7.4-8.8-7.4
	c-0.9-0.3-1.3-1.2-1.1-2.1c0.3-0.9,1.3-1.4,2.2-1.2c0.2,0.1,5.5,1.6,10.6,8.4c2.9,3.9,5.2,8.6,6.8,14.2c2.1,6.9,3,15.1,3,24.3v207.6
	C1081,797.3,1079.9,798.1,1079,798.1z"/>
<path fill="#002846" d="M1070,549.4c0,0.6-0.6,0.6-1.2,0.6h-16.5c-0.6,0-1.3,0-1.3-0.6v-10.8c0-0.6,0.7-1.6,1.3-1.6h16.5
	c0.6,0,1.2,1,1.2,1.6V549.4z"/>
<rect x="1044" y="516" fill="#AD8140" width="29" height="12"/>
<rect x="1048" y="520" fill="#FFFFFF" width="8" height="4"/>
<rect x="1056" y="520" fill="#B2B2B2" width="18" height="4"/>
<path fill="#FFFFFF" d="M1093.5,797.6c-0.6,0-1.5-0.5-1.5-1V592.2c0-29.8-7.5-47-13.9-56.1c-6.9-9.8-13.9-12.7-13.9-12.7
	c-0.5-0.2-0.8-0.8-0.5-1.3c0.2-0.5,0.8-0.8,1.3-0.6c0.3,0.1,7.6,3,14.8,13.3c4.2,6,8,13.2,10.4,21.5c3,10.4,4.9,22.4,4.9,35.9v204.3
	C1095,797.1,1094.1,797.6,1093.5,797.6z"/>
<polygon fill="#BFACA1" points="1036,545.1 1036,538 1030,538 1030,552 1035.7,552 1039.9,552 "/>
<polygon fill="#AB9486" points="1032,545.1 1032,538 1030,538 1030,552 1032,552 1036.2,552 "/>
<path fill="#1C1C1C" d="M1033.7,543c-0.7,0-1.2-0.6-1.2-1.2c0-0.7,0.6-1.2,1.2-1.2c0.7,0,1.2,0.6,1.2,1.2
	C1034.9,542.4,1034.4,543,1033.7,543z M1033.7,540.9c-0.5,0-0.8,0.4-0.8,0.8c0,0.5,0.4,0.8,0.8,0.8c0.5,0,0.8-0.4,0.8-0.8
	C1034.5,541.3,1034.1,540.9,1033.7,540.9z"/>
<path fill="#1C1C1C" d="M1036.6,550.1c-0.1,0-0.1,0-0.2-0.1l-1.4-2.5c-0.1-0.1,0-0.2,0.1-0.3c0.1-0.1,0.2,0,0.3,0.1l1.4,2.5
	c0.1,0.1,0,0.2-0.1,0.3C1036.7,550.1,1036.6,550.1,1036.6,550.1z"/>
<rect x="983" y="577" fill="#002D44" width="27" height="233"/>
<rect x="983" y="577" fill="#002033" width="27" height="18"/>
<path fill="#002033" d="M836,205c0-3-2.5-5-5.5-5H167.9c-3,0-5.9,1.9-5.9,5v24.1c0,3,2.9,5.9,5.9,5.9h662.6c3,0,5.5-2.9,5.5-5.9V205
	z"/>
<path fill="#002033" d="M832,577.5c0-1.9-1.6-3.5-3.5-3.5h-656c-1.9,0-3.5,1.6-3.5,3.5l0,0c0,1.9,1.6,3.5,3.5,3.5h656
	C830.4,581,832,579.4,832,577.5L832,577.5z"/>
<rect x="962" y="502" fill="#002846" width="1" height="53"/>
<rect x="965" y="502" fill="#002846" width="2" height="53"/>
<rect x="969" y="502" fill="#002846" width="1" height="53"/>
<rect x="972" y="502" fill="#002846" width="2" height="53"/>
<rect x="976" y="502" fill="#002846" width="1" height="53"/>
<rect x="979" y="502" fill="#002846" width="2" height="53"/>
<rect x="983" y="502" fill="#002846" width="1" height="53"/>
<rect x="986" y="502" fill="#002846" width="2" height="53"/>
<rect x="990" y="502" fill="#002846" width="1" height="53"/>
<rect x="993" y="502" fill="#002846" width="2" height="53"/>
<rect x="997" y="502" fill="#002846" width="1" height="53"/>
<rect x="1000" y="502" fill="#002846" width="2" height="53"/>
<rect x="1004" y="502" fill="#002846" width="1" height="53"/>
<rect x="1007" y="502" fill="#002846" width="2" height="53"/>
<rect x="1011" y="502" fill="#002846" width="1" height="53"/>
<rect x="1014" y="502" fill="#002846" width="2" height="53"/>
<rect x="1018" y="502" fill="#002846" width="1" height="53"/>
<rect x="1021" y="502" fill="#002846" width="2" height="53"/>
<rect x="1025" y="502" fill="#002846" width="1" height="53"/>
<polyline fill="none" stroke="#1B1464" stroke-width="4.3759" stroke-linecap="round" stroke-linejoin="round" stroke-miterlimit="10" points="
	647.2,744.2 662.6,759.6 678.4,743.8 "/>
<g>
	<path fill="#002846" d="M27.9,780.6c-0.6,0-1.2-0.1-1.8-0.2v-0.9c0.6,0.2,1.2,0.4,1.8,0.4c0.8,0,1.6-0.4,1.6-1.3
		c0-0.8-0.6-1.2-1.3-1.5l-0.7-0.4c-0.8-0.5-1.6-0.9-1.6-2c0-1.4,1.2-1.9,2.4-1.9c0.5,0,1.1,0.1,1.6,0.2v0.8
		c-0.5-0.2-1.1-0.3-1.7-0.3c-0.7,0-1.4,0.3-1.4,1.2c0,0.7,0.7,1.1,1.3,1.4l0.7,0.4c0.9,0.5,1.6,1,1.6,2.1
		C30.6,780,29.3,780.6,27.9,780.6z"/>
	<path fill="#002846" d="M33.6,780.6c-1.6,0-2.1-1.3-2.1-2.7c0-1.4,0.5-2.8,2.1-2.8c1.6,0,2.2,1.3,2.2,2.8
		C35.8,779.2,35.2,780.6,33.6,780.6z M33.6,775.7c-1.1,0-1.3,1.3-1.3,2.1c0,0.8,0.2,2.1,1.3,2.1c1.1,0,1.3-1.3,1.3-2.1
		C34.9,777,34.7,775.7,33.6,775.7z"/>
	<path fill="#002846" d="M40.1,780.4v-1.2h0c-0.2,0.8-0.7,1.3-1.6,1.3c-0.9,0-1.3-0.8-1.3-1.6v-3.7h0.7v2.9c0,0.6-0.1,1.7,0.8,1.7
		c1,0,1.5-1.6,1.5-2.5v-2.2h0.7v5.2H40.1z"/>
	<path fill="#002846" d="M43.4,778.3v2.2h-0.7v-5.2h0.7v1h0c0.3-0.8,0.9-1.1,1.7-1.1v0.8C43.8,775.9,43.4,777.1,43.4,778.3z"/>
	<path fill="#002846" d="M48.8,776.8c0-0.6-0.3-1.1-0.9-1.1c-1,0-1.2,1-1.2,1.8c0,1.4,0.6,2.4,2.1,2.4c0.3,0,0.6,0,0.8-0.1v0.6
		c-0.4,0.1-0.7,0.1-1.1,0.1c-1.8,0-2.7-1.1-2.7-2.9c0-1.4,0.5-2.6,2.1-2.6c1.1,0,1.8,0.6,1.8,1.7H48.8z"/>
	<path fill="#002846" d="M51.3,777.3v0.3c0,1.1,0.6,2.3,1.9,2.3c0.4,0,0.7-0.1,1-0.1v0.6c-0.4,0.1-0.8,0.2-1.2,0.2
		c-1.8,0-2.6-1.2-2.6-2.9c0-1.4,0.5-2.6,2-2.6c1.2,0,1.8,0.8,1.8,2v0.3H51.3z M52.4,775.7c-0.6,0-1,0.4-1.1,1h2.1
		C53.4,776.1,53,775.7,52.4,775.7z"/>
	<path fill="#002846" d="M58.9,776.3v-1.1H60v1.1H58.9z M58.9,780.4v-1.1H60v1.1H58.9z"/>
	<path fill="#002846" d="M65.6,780.6c-0.6,0-1.2-0.1-1.8-0.2v-0.9c0.6,0.2,1.2,0.4,1.8,0.4c0.8,0,1.6-0.4,1.6-1.3
		c0-0.8-0.6-1.2-1.3-1.5l-0.7-0.4c-0.8-0.5-1.6-0.9-1.6-2c0-1.4,1.2-1.9,2.4-1.9c0.5,0,1.1,0.1,1.6,0.2v0.8
		c-0.5-0.2-1.1-0.3-1.7-0.3c-0.7,0-1.4,0.3-1.4,1.2c0,0.7,0.7,1.1,1.3,1.4l0.7,0.4c0.9,0.5,1.6,1,1.6,2.1
		C68.3,780,67,780.6,65.6,780.6z"/>
	<path fill="#002846" d="M69.4,773.8v-1h1v1H69.4z M69.6,780.4v-5.2h0.7v5.2H69.6z"/>
	<path fill="#002846" d="M73.3,775.8v3.2c0,0.6,0.3,0.9,0.9,0.9c0.2,0,0.3,0,0.5-0.1v0.7c-0.2,0-0.4,0.1-0.7,0.1
		c-1,0-1.5-0.3-1.5-1.4v-3.4h-0.9v-0.6h0.9V774l0.7-0.5v1.7h1.4v0.6H73.3z"/>
	<path fill="#002846" d="M76.3,777.3v0.3c0,1.1,0.6,2.3,1.9,2.3c0.4,0,0.7-0.1,1-0.1v0.6c-0.4,0.1-0.8,0.2-1.2,0.2
		c-1.8,0-2.6-1.2-2.6-2.9c0-1.4,0.5-2.6,2-2.6c1.2,0,1.8,0.8,1.8,2v0.3H76.3z M77.5,775.7c-0.6,0-1,0.4-1.1,1h2.1
		C78.5,776.1,78,775.7,77.5,775.7z"/>
	<path fill="#002846" d="M81.7,780.6c-0.5,0-1-0.1-1.4-0.2v-0.7c0.4,0.2,0.9,0.3,1.4,0.3c0.6,0,1.3-0.2,1.3-0.8
		c0-0.5-0.6-0.7-0.9-0.9l-0.5-0.3c-0.6-0.3-1.2-0.6-1.2-1.4c0-1,0.9-1.4,1.8-1.4c0.4,0,0.8,0.1,1.2,0.2v0.7
		c-0.4-0.1-0.8-0.2-1.2-0.2c-0.4,0-1.1,0.2-1.1,0.7c0,0.4,0.6,0.6,0.9,0.8l0.4,0.3c0.6,0.4,1.2,0.6,1.2,1.5
		C83.6,780.1,82.7,780.6,81.7,780.6z"/>
	<path fill="#002846" d="M92.6,780.4h-0.8l-1.2-4h0l-1.2,4h-0.8l-1.3-5.2h0.7l1,4.1h0l1.3-4.1h0.6l1.3,4.1h0l0.9-4.1h0.7L92.6,780.4
		z"/>
	<path fill="#002846" d="M95.7,777.3v0.3c0,1.1,0.6,2.3,1.9,2.3c0.4,0,0.7-0.1,1-0.1v0.6c-0.4,0.1-0.8,0.2-1.2,0.2
		c-1.8,0-2.6-1.2-2.6-2.9c0-1.4,0.5-2.6,2-2.6c1.2,0,1.8,0.8,1.8,2v0.3H95.7z M96.8,775.7c-0.6,0-1,0.4-1.1,1h2.1
		C97.8,776.1,97.4,775.7,96.8,775.7z"/>
	<path fill="#002846" d="M101.9,780.6c-1.5,0-2-1-2-2.3v-5.4h0.7v3.2h0c0.2-0.6,0.8-1,1.4-1c1.5,0,1.9,1.6,1.9,2.8
		C104,779.2,103.4,780.6,101.9,780.6z M101.9,775.7c-1,0-1.3,1.5-1.3,2.3c0,0.8,0.2,1.9,1.2,1.9c1,0,1.3-1.3,1.3-2.1
		C103.1,777.1,102.9,775.7,101.9,775.7z"/>
	<path fill="#002846" d="M111,780.4v-0.9h0c-0.2,0.6-0.7,1-1.4,1c-1.5,0-1.8-1.5-1.8-2.7c0-1.1,0.4-2.8,1.8-2.8c0.7,0,1.2,0.3,1.4,1
		h0v-3.2h0.7v7.6H111z M109.8,775.7c-1,0-1.1,1.6-1.1,2.3c0,0.7,0.1,1.9,1.1,1.9c0.9,0,1.2-1.4,1.2-2.1
		C111,777.1,110.8,775.7,109.8,775.7z"/>
	<path fill="#002846" d="M114,777.3v0.3c0,1.1,0.6,2.3,1.9,2.3c0.4,0,0.7-0.1,1-0.1v0.6c-0.4,0.1-0.8,0.2-1.2,0.2
		c-1.8,0-2.6-1.2-2.6-2.9c0-1.4,0.5-2.6,2-2.6c1.2,0,1.8,0.8,1.8,2v0.3H114z M115.1,775.7c-0.6,0-1,0.4-1.1,1h2.1
		C116.1,776.1,115.7,775.7,115.1,775.7z"/>
	<path fill="#002846" d="M119.3,780.6c-0.5,0-1-0.1-1.4-0.2v-0.7c0.4,0.2,0.9,0.3,1.4,0.3c0.6,0,1.3-0.2,1.3-0.8
		c0-0.5-0.6-0.7-0.9-0.9l-0.5-0.3c-0.6-0.3-1.2-0.6-1.2-1.4c0-1,0.9-1.4,1.8-1.4c0.4,0,0.8,0.1,1.2,0.2v0.7
		c-0.4-0.1-0.8-0.2-1.2-0.2c-0.4,0-1.1,0.2-1.1,0.7c0,0.4,0.6,0.6,0.9,0.8l0.4,0.3c0.6,0.4,1.2,0.6,1.2,1.5
		C121.3,780.1,120.4,780.6,119.3,780.6z"/>
	<path fill="#002846" d="M127.4,780.6c-0.7,0-1.2-0.3-1.4-1h0v3.2h-0.7v-7.6h0.7v0.9h0c0.2-0.6,0.7-1,1.4-1c1.5,0,1.8,1.5,1.8,2.7
		C129.2,778.9,128.8,780.6,127.4,780.6z M127.3,775.7c-0.9,0-1.2,1.4-1.2,2.1c0,0.7,0.2,2.1,1.2,2.1c1,0,1.1-1.6,1.1-2.3
		C128.3,776.9,128.2,775.7,127.3,775.7z"/>
	<path fill="#002846" d="M130.6,780.4v-7.6h0.7v7.6H130.6z"/>
	<path fill="#002846" d="M135.8,780.4v-0.7h0c-0.3,0.6-1,0.8-1.6,0.8c-0.9,0-1.4-0.6-1.4-1.5c0-1.2,1.5-1.6,2.5-1.6
		c0.2,0,0.3,0,0.5,0v-0.1c0-0.8,0.1-1.6-1-1.6c-0.6,0-1,0.2-1.1,0.8h-0.8c0-1.1,0.9-1.5,1.9-1.5c1.2,0,1.8,0.5,1.8,1.7v3.7H135.8z
		 M135.4,778.1c-0.7,0-1.7,0.3-1.7,1.1c0,0.4,0.3,0.8,0.7,0.8c0.5,0,1-0.3,1.2-0.8c0.2-0.4,0.2-0.6,0.2-1.1H135.4z"/>
	<path fill="#002846" d="M139.4,775.8v3.2c0,0.6,0.3,0.9,0.9,0.9c0.2,0,0.3,0,0.5-0.1v0.7c-0.2,0-0.4,0.1-0.7,0.1
		c-1,0-1.5-0.3-1.5-1.4v-3.4h-0.9v-0.6h0.9V774l0.7-0.5v1.7h1.4v0.6H139.4z"/>
	<path fill="#002846" d="M142.5,777.3v0.3c0,1.1,0.6,2.3,1.9,2.3c0.4,0,0.7-0.1,1-0.1v0.6c-0.4,0.1-0.8,0.2-1.2,0.2
		c-1.8,0-2.6-1.2-2.6-2.9c0-1.4,0.5-2.6,2-2.6c1.2,0,1.8,0.8,1.8,2v0.3H142.5z M143.6,775.7c-0.6,0-1,0.4-1.1,1h2.1
		C144.6,776.1,144.2,775.7,143.6,775.7z"/>
	<path fill="#002846" d="M149,773.4c-1.2,0-1.1,0.9-1.1,1.8h1.5v0.6h-1.5v4.6h-0.7v-4.6h-0.9v-0.6h0.9v-0.7c0-1.1,0.6-1.7,1.7-1.7
		c0.3,0,0.6,0,0.9,0.1v0.7C149.5,773.5,149.3,773.4,149,773.4z"/>
	<path fill="#002846" d="M152.1,780.6c-1.6,0-2.1-1.3-2.1-2.7c0-1.4,0.5-2.8,2.1-2.8c1.6,0,2.2,1.3,2.2,2.8
		C154.2,779.2,153.7,780.6,152.1,780.6z M152.1,775.7c-1.1,0-1.3,1.3-1.3,2.1c0,0.8,0.2,2.1,1.3,2.1c1.1,0,1.3-1.3,1.3-2.1
		C153.4,777,153.2,775.7,152.1,775.7z"/>
	<path fill="#002846" d="M156.4,778.3v2.2h-0.7v-5.2h0.7v1h0c0.3-0.8,0.9-1.1,1.7-1.1v0.8C156.8,775.9,156.4,777.1,156.4,778.3z"/>
	<path fill="#002846" d="M164.7,780.4v-2.9c0-0.6,0.1-1.7-0.8-1.7c-1,0-1.3,1.7-1.3,2.5v2.2h-0.7v-2.9c0-0.6,0.1-1.7-0.8-1.7
		c-1,0-1.3,1.7-1.3,2.5v2.2h-0.7v-5.2h0.7v1.2h0c0.2-0.7,0.6-1.3,1.5-1.3c0.8,0,1.3,0.4,1.3,1.2h0c0.2-0.7,0.7-1.2,1.5-1.2
		c0.9,0,1.3,0.8,1.3,1.6v3.7H164.7z"/>
	<path fill="#002846" d="M167.7,777.3v0.3c0,1.1,0.6,2.3,1.9,2.3c0.4,0,0.7-0.1,1-0.1v0.6c-0.4,0.1-0.8,0.2-1.2,0.2
		c-1.8,0-2.6-1.2-2.6-2.9c0-1.4,0.5-2.6,2-2.6c1.2,0,1.8,0.8,1.8,2v0.3H167.7z M168.9,775.7c-0.6,0-1,0.4-1.1,1h2.1
		C169.9,776.1,169.5,775.7,168.9,775.7z"/>
	<path fill="#002846" d="M173.1,780.6c-0.5,0-1-0.1-1.4-0.2v-0.7c0.4,0.2,0.9,0.3,1.4,0.3c0.6,0,1.3-0.2,1.3-0.8
		c0-0.5-0.6-0.7-0.9-0.9l-0.5-0.3c-0.6-0.3-1.2-0.6-1.2-1.4c0-1,0.9-1.4,1.8-1.4c0.4,0,0.8,0.1,1.2,0.2v0.7
		c-0.4-0.1-0.8-0.2-1.2-0.2c-0.4,0-1.1,0.2-1.1,0.7c0,0.4,0.6,0.6,0.9,0.8l0.4,0.3c0.6,0.4,1.2,0.6,1.2,1.5
		C175,780.1,174.1,780.6,173.1,780.6z"/>
	<path fill="#002846" d="M178.9,777c0-1.6-0.1-4.6,2-5v0.5c-1.2,0.6-1.1,3.4-1.1,4.5c0,1.2-0.1,3.9,1.1,4.5v0.5
		C178.8,781.5,178.9,778.7,178.9,777z"/>
	<path fill="#002846" d="M183,780.6c-0.5,0-1-0.1-1.4-0.2v-0.7c0.4,0.2,0.9,0.3,1.4,0.3c0.6,0,1.3-0.2,1.3-0.8
		c0-0.5-0.6-0.7-0.9-0.9l-0.5-0.3c-0.6-0.3-1.2-0.6-1.2-1.4c0-1,0.9-1.4,1.8-1.4c0.4,0,0.8,0.1,1.2,0.2v0.7
		c-0.4-0.1-0.8-0.2-1.2-0.2c-0.4,0-1.1,0.2-1.1,0.7c0,0.4,0.6,0.6,0.9,0.8l0.4,0.3c0.6,0.4,1.2,0.6,1.2,1.5
		C185,780.1,184.1,780.6,183,780.6z"/>
	<path fill="#002846" d="M188.8,780.4v-0.7h0c-0.3,0.6-1,0.8-1.6,0.8c-0.9,0-1.4-0.6-1.4-1.5c0-1.2,1.5-1.6,2.5-1.6
		c0.2,0,0.3,0,0.5,0v-0.1c0-0.8,0.1-1.6-1-1.6c-0.6,0-1,0.2-1.1,0.8h-0.8c0-1.1,0.9-1.5,1.9-1.5c1.2,0,1.8,0.5,1.8,1.7v3.7H188.8z
		 M188.3,778.1c-0.7,0-1.7,0.3-1.7,1.1c0,0.4,0.3,0.8,0.7,0.8c0.5,0,1-0.3,1.2-0.8c0.2-0.4,0.2-0.6,0.2-1.1H188.3z"/>
	<path fill="#002846" d="M194.2,780.4v-1.2h0c-0.2,0.8-0.7,1.3-1.6,1.3c-0.9,0-1.3-0.8-1.3-1.6v-3.7h0.7v2.9c0,0.6-0.1,1.7,0.8,1.7
		c1,0,1.5-1.6,1.5-2.5v-2.2h0.7v5.2H194.2z"/>
	<path fill="#002846" d="M198.9,773.4c-1.2,0-1.1,0.9-1.1,1.8h1.5v0.6h-1.5v4.6h-0.7v-4.6h-0.9v-0.6h0.9v-0.7c0-1.1,0.6-1.7,1.7-1.7
		c0.3,0,0.6,0,0.9,0.1v0.7C199.4,773.5,199.2,773.4,198.9,773.4z"/>
	<path fill="#002846" d="M209.6,780.4h-1.1l-1.8-6.4h0l-1.8,6.4h-1l-1.4-7.6h0.8l1.2,6.5h0l1.8-6.5h0.9l1.8,6.5h0l1.2-6.5h0.8
		L209.6,780.4z"/>
	<path fill="#002846" d="M212.2,773.8v-1h1v1H212.2z M212.3,780.4v-5.2h0.7v5.2H212.3z"/>
	<path fill="#002846" d="M215.8,780.6c-0.5,0-1-0.1-1.4-0.2v-0.7c0.4,0.2,0.9,0.3,1.4,0.3c0.6,0,1.3-0.2,1.3-0.8
		c0-0.5-0.6-0.7-0.9-0.9l-0.5-0.3c-0.6-0.3-1.2-0.6-1.2-1.4c0-1,0.9-1.4,1.8-1.4c0.4,0,0.8,0.1,1.2,0.2v0.7
		c-0.4-0.1-0.8-0.2-1.2-0.2c-0.4,0-1.1,0.2-1.1,0.7c0,0.4,0.6,0.6,0.9,0.8l0.4,0.3c0.6,0.4,1.2,0.6,1.2,1.5
		C217.8,780.1,216.9,780.6,215.8,780.6z"/>
	<path fill="#002846" d="M219.5,777.3v0.3c0,1.1,0.6,2.3,1.9,2.3c0.4,0,0.7-0.1,1-0.1v0.6c-0.4,0.1-0.8,0.2-1.2,0.2
		c-1.8,0-2.6-1.2-2.6-2.9c0-1.4,0.5-2.6,2-2.6c1.2,0,1.8,0.8,1.8,2v0.3H219.5z M220.6,775.7c-0.6,0-1,0.4-1.1,1h2.1
		C221.6,776.1,221.2,775.7,220.6,775.7z"/>
	<path fill="#002846" d="M224.3,777.3v0.3c0,1.1,0.6,2.3,1.9,2.3c0.4,0,0.7-0.1,1-0.1v0.6c-0.4,0.1-0.8,0.2-1.2,0.2
		c-1.8,0-2.6-1.2-2.6-2.9c0-1.4,0.5-2.6,2-2.6c1.2,0,1.8,0.8,1.8,2v0.3H224.3z M225.5,775.7c-0.6,0-1,0.4-1.1,1h2.1
		C226.5,776.1,226.1,775.7,225.5,775.7z"/>
	<path fill="#002846" d="M231.5,780.4v-0.9h0c-0.2,0.6-0.7,1-1.4,1c-1.5,0-1.8-1.5-1.8-2.7c0-1.1,0.4-2.8,1.8-2.8
		c0.7,0,1.2,0.3,1.4,1h0v-3.2h0.7v7.6H231.5z M230.3,775.7c-1,0-1.1,1.6-1.1,2.3c0,0.7,0.1,1.9,1.1,1.9c0.9,0,1.2-1.4,1.2-2.1
		C231.5,777.1,231.3,775.7,230.3,775.7z"/>
	<path fill="#002846" d="M233.4,782v-0.5c1.2-0.6,1.1-3.4,1.1-4.5c0-1.2,0.1-3.9-1.1-4.5V772c2.1,0.5,2,3.4,2,5
		C235.4,778.6,235.5,781.6,233.4,782z"/>
</g>
<g>
	<path fill="#002033" d="M529.7,101.3l-1.5-1.5c-1.4,1-3.3,1.5-4.9,1.5c-5,0-9.1-3.9-9.1-9c0-5,4.1-9,9.1-9s9.1,4.1,9.1,9
		c0,2.5-1,4.8-2.7,6.4l2.7,2.6H529.7z M528.1,97.1c1.3-1.2,2-3.2,2-4.9c0-3.8-2.9-7-6.9-7c-4.1,0-6.9,3.2-6.9,7c0,4,3.2,7,6.9,7
		c1.1,0,2.4-0.3,3.4-1l-4-3.9h2.7L528.1,97.1z"/>
	<path fill="#002033" d="M536.3,83.6v10.2c0,2.8,0.9,5.5,4.2,5.5c3.3,0,4.2-2.6,4.2-5.5V83.6h2.2v11c0,3.8-2.4,6.7-6.3,6.7
		c-4,0-6.3-2.9-6.3-6.7v-11H536.3z"/>
	<path fill="#002033" d="M549.8,83.6h9.3v2H552v4.9h6.9v2H552V99h7.2v2h-9.3V83.6z"/>
	<path fill="#002033" d="M564,99h5.3v2h-7.4V83.6h2.2V99z"/>
	<path fill="#002033" d="M578.4,86.9c-0.6-1.1-1.5-1.6-2.8-1.6c-1.4,0-2.9,0.9-2.9,2.5c0,1.4,1.3,2.1,2.4,2.5l1.2,0.5
		c2.5,1,4.3,2.3,4.3,5.2c0,3.2-2.4,5.4-5.5,5.4c-2.8,0-5-2.1-5.4-4.9l2.2-0.5c0,1.9,1.5,3.3,3.4,3.3c1.9,0,3.2-1.6,3.2-3.4
		c0-1.9-1.5-2.7-3-3.3l-1.2-0.5c-2-0.9-3.8-2-3.8-4.4c0-2.8,2.5-4.5,5.1-4.5c1.9,0,3.5,0.9,4.5,2.6L578.4,86.9z"/>
	<path fill="#002033" d="M594.9,100.9h-3.4V86.5H588v-2.9h10.4v2.9h-3.5V100.9z"/>
	<path fill="#002033" d="M598,83.6h3.9l3,6l3.3-6h4l-5.5,9.4v8h-3.4v-8L598,83.6z"/>
	<path fill="#002033" d="M616.5,100.9h-3.4V83.6h4.6c3.6,0,6,1.4,6,5.4c0,3.7-2,5.5-5.5,5.5h-1.7V100.9z M616.5,91.6h0.7
		c2,0,3.1-0.4,3.1-2.7c0-2.2-1.3-2.6-3.2-2.6h-0.6V91.6z"/>
	<path fill="#002033" d="M628.6,86.5v3.8h5.4v2.9h-5.4V98h5.6v2.9h-9V83.6h9v2.9H628.6z"/>
	<path fill="#002033" d="M644.6,87.4c-0.6-0.9-1.5-1.4-2.6-1.4c-1.1,0-2.1,0.8-2.1,2c0,2.9,6.9,1.7,6.9,7.5c0,3.5-2.2,5.9-5.7,5.9
		c-2.4,0-4.1-1.4-5.3-3.4l2.2-2.1c0.5,1.3,1.7,2.5,3.1,2.5c1.4,0,2.2-1.2,2.2-2.5c0-1.8-1.7-2.3-3-2.8c-2.2-0.9-3.9-2-3.9-4.7
		c0-2.9,2.1-5.2,5.1-5.2c1.5,0,3.7,0.8,4.7,1.9L644.6,87.4z"/>
	<path fill="#002033" d="M655.5,83.6h3.6c5.3,0,9.7,2.8,9.7,8.6c0,5.9-4.3,8.8-9.8,8.8h-3.5V83.6z M657.6,99h0.8
		c4.4,0,8.2-1.7,8.2-6.7c0-5.1-3.8-6.7-8.2-6.7h-0.8V99z"/>
	<path fill="#002033" d="M670.9,83.6h9.3v2h-7.2v4.9h6.9v2h-6.9V99h7.2v2h-9.3V83.6z"/>
	<path fill="#002033" d="M691.7,100.9h-2.2V83.6h2.5c5.3,0,7,1.8,7,5c0,3.7-2.8,5.1-6.1,5.1h-1.2V100.9z M691.7,91.7h0.7
		c2.2,0,4.6-0.4,4.6-3.2c0-2.7-2.6-3-4.7-3h-0.6V91.7z"/>
	<path fill="#002033" d="M711.7,100.9h-2.6l-5.1-7.3h-0.9v7.3h-2.2V83.6h2.6c1.5,0,3.2,0,4.6,0.8c1.4,0.9,2.3,2.5,2.3,4.1
		c0,2.5-1.7,4.6-4.2,4.9L711.7,100.9z M703.1,91.8h0.7c2.2,0,4.6-0.4,4.6-3.2c0-2.7-2.6-3.1-4.7-3.1h-0.6V91.8z"/>
	<path fill="#002033" d="M730.4,92.3c0,5.2-4.1,9-9.1,9c-5,0-9.1-3.9-9.1-9c0-5,4.1-9,9.1-9S730.4,87.3,730.4,92.3z M728.2,92.3
		c0-3.8-2.9-7-6.9-7s-6.9,3.2-6.9,7c0,4,3.2,7,6.9,7C725,99.3,728.2,96.2,728.2,92.3z"/>
	<path fill="#002033" d="M737.8,83.6v11c0,3.3-0.6,6.7-4.7,6.7c-1,0-1.9-0.3-2.7-0.8l1.1-1.8c0.5,0.4,1.1,0.6,1.7,0.6
		c2.5,0,2.4-2.9,2.4-4.7v-11H737.8z"/>
	<path fill="#002033" d="M740.8,83.6h9.3v2H743v4.9h6.9v2H743V99h7.2v2h-9.3V83.6z"/>
	<path fill="#002033" d="M757.5,100.9h-2.2V85.6h-4.1v-2h10.4v2h-4.1V100.9z"/>
	<path fill="#002033" d="M771,86.9c-0.6-1.1-1.5-1.6-2.8-1.6c-1.4,0-2.9,0.9-2.9,2.5c0,1.4,1.3,2.1,2.4,2.5l1.2,0.5
		c2.5,1,4.3,2.3,4.3,5.2c0,3.2-2.4,5.4-5.5,5.4c-2.8,0-5-2.1-5.4-4.9l2.2-0.5c0,1.9,1.5,3.3,3.4,3.3c1.9,0,3.2-1.6,3.2-3.4
		c0-1.9-1.5-2.7-3-3.3l-1.2-0.5c-2-0.9-3.8-2-3.8-4.4c0-2.8,2.5-4.5,5.1-4.5c1.9,0,3.5,0.9,4.5,2.6L771,86.9z"/>
	<path fill="#002033" d="M482.1,111.6v4.9h6v2h-6v8.5h-2.2v-17.3h8.4v2H482.1z"/>
	<path fill="#002033" d="M492.9,126.9h-2.2v-17.3h2.2V126.9z"/>
	<path fill="#002033" d="M495.9,108.8l13,13.6v-12.8h2.2v18.1l-13-13.6v12.9h-2.2V108.8z"/>
	<path fill="#002033" d="M516.7,122.6l-2,4.3h-2.3l8.3-18.1l8.3,18.1h-2.3l-2-4.3H516.7z M520.6,113.6l-3.1,7h6.2L520.6,113.6z"/>
	<path fill="#002033" d="M530.2,108.8l13,13.6v-12.8h2.2v18.1l-13-13.6v12.9h-2.2V108.8z"/>
	<path fill="#002033" d="M561.1,112.9c-1.2-1.1-2.9-1.7-4.6-1.7c-3.9,0-6.9,3.2-6.9,7.1c0,3.8,2.9,7,6.8,7c1.7,0,3.3-0.6,4.6-1.8
		v2.6c-1.3,0.8-3,1.2-4.6,1.2c-4.9,0-9-3.9-9-8.9c0-5.1,4.1-9.1,9.2-9.1c1.5,0,3.1,0.4,4.4,1.2V112.9z"/>
	<path fill="#002033" d="M563.6,109.6h9.3v2h-7.2v4.9h6.9v2h-6.9v6.6h7.2v2h-9.3V109.6z"/>
	<path fill="#002033" d="M575.4,108.8l13,13.6v-12.8h2.2v18.1l-13-13.6v12.9h-2.2V108.8z"/>
	<path fill="#002033" d="M598.3,126.9h-2.2v-15.4h-4.1v-2h10.4v2h-4.1V126.9z"/>
	<path fill="#002033" d="M613,125h5.3v2h-7.4v-17.3h2.2V125z"/>
	<path fill="#002033" d="M619.7,109.6h9.3v2h-7.2v4.9h6.9v2h-6.9v6.6h7.2v2h-9.3V109.6z"/>
	<path fill="#002033" d="M639.3,112.9c-0.6-1.1-1.5-1.6-2.8-1.6c-1.4,0-2.9,0.9-2.9,2.5c0,1.4,1.3,2.1,2.4,2.5l1.2,0.5
		c2.5,1,4.3,2.3,4.3,5.2c0,3.2-2.4,5.4-5.5,5.4c-2.8,0-5-2.1-5.4-4.9l2.2-0.5c0,1.9,1.5,3.3,3.4,3.3c1.9,0,3.2-1.6,3.2-3.4
		c0-1.9-1.5-2.7-3-3.3l-1.2-0.5c-2-0.9-3.8-2-3.8-4.4c0-2.8,2.5-4.5,5.1-4.5c1.9,0,3.5,0.9,4.5,2.6L639.3,112.9z"/>
	<path fill="#002033" d="M652.8,126.9h-2.2v-17.3h2.5c5.3,0,7,1.8,7,5c0,3.7-2.8,5.1-6.1,5.1h-1.2V126.9z M652.8,117.7h0.7
		c2.2,0,4.6-0.4,4.6-3.2c0-2.7-2.6-3-4.7-3h-0.6V117.7z"/>
	<path fill="#002033" d="M664.2,125h5.3v2H662v-17.3h2.2V125z"/>
	<path fill="#002033" d="M673.3,122.6l-2,4.3H669l8.3-18.1l8.3,18.1h-2.3l-2-4.3H673.3z M677.3,113.6l-3.1,7h6.2L677.3,113.6z"/>
	<path fill="#002033" d="M689.9,126.9h-2.2v-15.4h-4.1v-2H694v2h-4.1V126.9z"/>
	<path fill="#002033" d="M695.7,109.6h9.3v2h-7.2v4.9h6.9v2h-6.9v6.6h7.2v2h-9.3V109.6z"/>
	<path fill="#002033" d="M709.8,111.6v4.9h6v2h-6v8.5h-2.2v-17.3h8.4v2H709.8z"/>
	<path fill="#002033" d="M735.5,118.3c0,5.2-4.1,9-9.1,9c-5,0-9.1-3.9-9.1-9c0-5,4.1-9,9.1-9C731.4,109.2,735.5,113.3,735.5,118.3z
		 M733.4,118.3c0-3.8-2.9-7-6.9-7c-4.1,0-6.9,3.2-6.9,7c0,4,3.2,7,6.9,7C730.2,125.3,733.4,122.2,733.4,118.3z"/>
	<path fill="#002033" d="M748.4,126.9h-2.6l-5.1-7.3h-0.9v7.3h-2.2v-17.3h2.6c1.5,0,3.2,0,4.6,0.8c1.4,0.9,2.3,2.5,2.3,4.1
		c0,2.5-1.7,4.6-4.2,4.9L748.4,126.9z M739.8,117.8h0.7c2.2,0,4.6-0.4,4.6-3.2c0-2.7-2.6-3.1-4.7-3.1h-0.6V117.8z"/>
	<path fill="#002033" d="M753.1,115.5L753.1,115.5l-2.1,11.5h-2.2l3.5-18.1l6,13.7l6-13.7l3.5,18.1h-2.2l-2-11.5h0l-5.2,11.8
		L753.1,115.5z"/>
	<path fill="#002033" d="M769.7,109.6h9.3v2h-7.2v4.9h6.9v2h-6.9v6.6h7.2v2h-9.3V109.6z"/>
	<path fill="#002033" d="M789.4,112.9c-0.6-1.1-1.5-1.6-2.8-1.6c-1.4,0-2.9,0.9-2.9,2.5c0,1.4,1.3,2.1,2.4,2.5l1.2,0.5
		c2.5,1,4.3,2.3,4.3,5.2c0,3.2-2.4,5.4-5.5,5.4c-2.8,0-5-2.1-5.4-4.9l2.2-0.5c0,1.9,1.5,3.3,3.4,3.3c1.9,0,3.2-1.6,3.2-3.4
		c0-1.9-1.5-2.7-3-3.3l-1.2-0.5c-2-0.9-3.8-2-3.8-4.4c0-2.8,2.5-4.5,5.1-4.5c1.9,0,3.5,0.9,4.5,2.6L789.4,112.9z"/>
	<path fill="#002033" d="M808,119c0.1,2-1.8,3.7-3.7,3.7c-2,0-3.7-1.6-3.7-3.7c0-2.2,1.4-2.9,2.9-3.4c1.4-0.5,2.9-0.9,2.9-2.4
		c0-1.3-0.9-2-2.1-2c-1.1,0-2,0.9-2,2c0,0.3,0.1,0.5,0.1,0.7h-2.2l0-0.8c-0.1-2.3,2-3.9,4.1-3.9c2.3,0,4.1,1.7,4.1,4.1
		c0,1.1-0.4,2.2-1.2,2.9c-0.8,0.7-1.9,1-2.9,1.3c-0.8,0.3-1.7,0.7-1.7,1.7c0,0.9,0.7,1.7,1.6,1.7c1,0,1.7-0.8,1.6-1.8H808z
		 M805.6,126c0,0.7-0.6,1.3-1.3,1.3c-0.7,0-1.3-0.6-1.3-1.3c0-0.7,0.6-1.3,1.3-1.3C805,124.6,805.6,125.3,805.6,126z"/>
</g>
</svg>
