<?xml version="1.0" encoding="utf-8"?>
<!-- Generator: Adobe Illustrator 18.0.0, SVG Export Plug-In . SVG Version: 6.00 Build 0)  -->
<!DOCTYPE svg PUBLIC "-//W3C//DTD SVG 1.1//EN" "http://www.w3.org/Graphics/SVG/1.1/DTD/svg11.dtd">
<svg version="1.1" id="Calque_1" xmlns="http://www.w3.org/2000/svg" xmlns:xlink="http://www.w3.org/1999/xlink" x="0px" y="0px"
	 viewBox="0 0 1280 800" enable-background="new 0 0 1280 800" xml:space="preserve">
<rect x="2" fill="#E0DCD4" width="1280" height="800"/>
<rect x="-3" y="401" fill="#D7D3CB" width="1282" height="400"/>
<path fill="#FFFFFF" d="M320.5,259l41.4-41.8c0,0,61.6,51.8,64.2-4.4c0,0-22.2,76-65.9,59.3L320.5,259z"/>
<ellipse fill="#B7B4AE" cx="445.5" cy="679.4" rx="106" ry="18.6"/>
<polyline fill="none" stroke="#1B1464" stroke-width="5" stroke-linecap="round" stroke-linejoin="round" stroke-miterlimit="10" points="
	618.9,749.4 636.5,767 654.5,748.9 "/>
<g>
	<rect x="389" y="646" fill="#FFFFFF" width="14" height="12"/>
	<rect x="477" y="646" fill="#FFFFFF" width="13" height="15"/>
	<rect x="387" y="397" fill="#002846" width="106" height="19"/>
	<rect x="471" y="397" fill="#002033" width="24" height="256"/>
	<rect x="386" y="397" fill="#002846" width="22" height="256"/>
	<polygon fill="#AB9486" points="354.6,400.6 351.4,392.9 364,386.9 367.3,394.2 	"/>
	
		<rect x="563.2" y="195.7" transform="matrix(0.9919 -0.1273 0.1273 0.9919 -21.466 74.2625)" fill="#AB9486" width="13.8" height="18.7"/>
	<rect x="419" y="195" fill="#AB9486" width="40" height="22"/>
	<circle fill="#AB9486" cx="373.3" cy="161.4" r="11.6"/>
	<path fill="#AB9486" d="M479.4,88.5l-40.4-9l-39.9,9L378,122.4v39.9c0,0,2.4,38.4,61.5,38.4s61.5-38.4,61.5-38.4v-39.9L479.4,88.5z
		"/>
	<g>
		<path fill="#897567" d="M479.2,88.4L439,79.5V149l15.3,22.4l-15.3,0.8v28.4c61,0,62-39,62-39v-39.7L479.2,88.4z"/>
	</g>
	<circle cx="404.5" cy="149.2" r="5.4"/>
	<circle cx="474.8" cy="149.2" r="5.4"/>
	<path d="M439.1,190.9c-4.9,0-8.8-3-8.9-3.1c-0.5-0.4-0.6-1.1-0.2-1.6c0.4-0.5,1.1-0.6,1.6-0.2c0.1,0,3.4,2.7,7.5,2.7
		c4.2,0,8.3-2.7,8.4-2.7c0.5-0.3,1.2-0.2,1.6,0.3c0.3,0.5,0.2,1.2-0.3,1.6C448.5,188,444,190.9,439.1,190.9z"/>
	<circle fill="#897567" cx="504.2" cy="161.4" r="11.6"/>
	<path fill="#897567" d="M397.8,170.6c-0.2,0-0.4-0.1-0.6-0.3c-0.3-0.3-0.2-0.8,0.1-1.1l13.7-11.7c0.3-0.3,0.8-0.2,1.1,0.1
		c0.3,0.3,0.2,0.8-0.1,1.1l-13.7,11.7C398.1,170.6,397.9,170.6,397.8,170.6z"/>
	<path fill="#AB9486" d="M482.5,170.6c-0.2,0-0.3-0.1-0.5-0.2l-13.7-11.7c-0.3-0.3-0.4-0.7-0.1-1.1c0.3-0.3,0.7-0.4,1.1-0.1
		l13.7,11.7c0.3,0.3,0.4,0.7,0.1,1.1C482.9,170.5,482.7,170.6,482.5,170.6z"/>
	<g>
		<path fill="#99A9B5" d="M509,280.1c0-35.6-29.2-64.1-64.9-64.1h-10.9c-35.6,0-64.3,28.5-64.3,64.1V399h140V280.1z"/>
	</g>
	<path fill="#99A9B5" d="M574.3,323.2c-4.3,0-9.2-1.8-14.8-5.3c-4.4-2.8-8-6-8.6-6.5l-81.3-70.3l11.7-13.6l81.4,70.4
		c2.4,2.2,5.5,4.3,7.9,5.7c-1.3-22.7-9.3-96.4-9.4-97.2l17.8-1.9c0.3,3.2,8.5,78.2,9.5,99.7c0.5,11-4.2,15.6-8.3,17.6
		C578.5,322.7,576.5,323.2,574.3,323.2z"/>
	<path fill="#AB9486" d="M578.7,161.2c-0.9-7.6-8-13-16.1-12l0,0c-8.1,1-13.8,7.9-12.9,15.5l3.2,26.7c0.9,7.6,8,13,16.1,12l0,0
		c8.1-1,13.8-7.9,12.9-15.5L578.7,161.2z"/>
	<path fill="#AB9486" d="M546.8,179.1c-2.3-1.9-5.5-1.8-7.1,0.2l0,0c-1.6,2-1.1,5.1,1.2,7l15.9,13c2.3,1.9,5.5,1.8,7.1-0.2l0,0
		c1.6-2,1.1-5.1-1.2-7L546.8,179.1z"/>
	<g>
		<path fill="#897567" d="M558.4,180.5c0.4,0,0.7-0.4,0.7-0.8l-3.3-28c-0.5,0.3-0.9,0.7-1.4,1.1l3.2,27.1
			C557.6,180.3,558,180.6,558.4,180.5z"/>
		<path fill="#897567" d="M566.6,179.6c0.4,0,0.7-0.4,0.7-0.8l-3.5-29.7c-0.4,0-0.7,0-1.1,0.1c-0.1,0-0.2,0-0.4,0.1l3.5,29.7
			C565.8,179.3,566.2,179.6,566.6,179.6z"/>
		<path fill="#897567" d="M574.8,178.6c0.4,0,0.7-0.4,0.7-0.8l-3.1-26.5c-0.5-0.3-1.1-0.6-1.6-0.8l3.3,27.6
			C574,178.4,574.4,178.6,574.8,178.6z"/>
	</g>
	<circle fill="#828282" cx="564.6" cy="208.6" r="1.3"/>
	<circle fill="#828282" cx="443.2" cy="238.4" r="2.4"/>
	<circle fill="#7A8E99" cx="443.2" cy="269.1" r="2.4"/>
	<circle fill="#7A8E99" cx="443.2" cy="299.8" r="2.4"/>
	<circle fill="#7A8E99" cx="443.2" cy="330.4" r="2.4"/>
	<circle fill="#7A8E99" cx="443.2" cy="361.1" r="2.4"/>
	<circle fill="#7A8E99" cx="443.2" cy="391.8" r="2.4"/>
	
		<rect x="571.8" y="214.1" transform="matrix(0.1539 0.9881 -0.9881 0.1539 704.4827 -376.697)" fill="#828282" width="0.7" height="17.7"/>
	<path fill="none" stroke="#828282" stroke-width="0.882" stroke-miterlimit="10" d="M439.1,233.9"/>
	<g>
		<g>
			<path fill="#AFAFAF" d="M353.8,232.4c1.7,0,1.7-2.6,0-2.6C352.1,229.8,352.1,232.4,353.8,232.4L353.8,232.4z"/>
		</g>
	</g>
	<rect x="438" y="233" fill="#AFAFAF" width="1" height="166"/>
	<polygon fill="#AB9486" points="419.7,217 438.8,232.8 457.9,217 436.4,209.1 	"/>
	<path fill="#99A9B5" d="M350.6,395.2c-9.4-22.6-13.8-44.4-13-64.8c0.6-16.6,4.5-32.3,11.7-46.6c12.3-24.5,29.8-36.6,30.6-37.1
		l10,14.8l0,0c-0.1,0.1-14.9,10.4-25,31.1c-13.5,27.5-12.7,59.7,2.3,95.7L350.6,395.2z"/>
	<path fill="#AB9486" d="M386.7,407.7c1.1,2.2,0.5,4.7-1.2,5.5l0,0c-1.7,0.8-4-0.4-5-2.6l-3.3-7.1c-1.1-2.2-0.5-4.7,1.2-5.5l0,0
		c1.7-0.8,4,0.4,5,2.6L386.7,407.7z"/>
	<path fill="#AB9486" d="M360.6,437.3c2.4,7.2,10.5,11.1,18.2,8.5l0,0c7.7-2.6,11.9-10.5,9.4-17.8l-8.5-25.5
		c-2.4-7.2-10.5-11.1-18.2-8.5l0,0c-7.7,2.6-11.9,10.5-9.4,17.8L360.6,437.3z"/>
	<path opacity="0.5" fill="#897567" d="M378.8,445.8c7.7-2.6,11.9-10.5,9.4-17.8l-3.4-10.2l-26.8,12l2.5,7.4
		C363,444.6,371.1,448.4,378.8,445.8z"/>
	<g>
		<path fill="#897567" d="M376.6,414.2c-0.4,0.1-0.6,0.6-0.5,0.9l8.9,26.7c0.4-0.4,0.8-0.9,1.1-1.3l-8.6-25.9
			C377.4,414.3,377,414.1,376.6,414.2z"/>
		<path fill="#897567" d="M368.8,416.9c-0.4,0.1-0.6,0.6-0.5,0.9l9.5,28.3c0.4-0.1,0.7-0.2,1.1-0.3c0.1,0,0.2-0.1,0.3-0.1l-9.5-28.4
			C369.6,416.9,369.2,416.7,368.8,416.9z"/>
		<path fill="#897567" d="M361,419.5c-0.4,0.1-0.6,0.6-0.5,0.9l8.5,25.3c0.6,0.2,1.2,0.4,1.7,0.5l-8.8-26.3
			C361.8,419.5,361.4,419.3,361,419.5z"/>
	</g>
	<path d="M473.6,654.7c0,0,6.5,9.7,17.7-0.1l44.4,16c0,0,5.8,0.9,5.8,9.4h-70.1L473.6,654.7z"/>
	<path d="M406.5,654.7c0,0-6.5,9.7-17.6-0.1l-28.8,16c0,0-5.8,0.9-5.8,9.4h54.4L406.5,654.7z"/>
	<rect x="438" y="399" fill="#191919" width="1" height="16"/>
	<rect x="439" y="414" fill="#191919" width="6" height="1"/>
	<g>
		<rect x="484" y="547" fill="#0F0F0F" width="11" height="1"/>
		<rect x="486" y="542" fill="#0F0F0F" width="9" height="2"/>
		<rect x="487.2" y="550" fill="#0F0F0F" width="7.9" height="0"/>
	</g>
	<g>
		<rect x="389" y="547" fill="#212121" width="10" height="1"/>
		<rect x="390" y="542" fill="#212121" width="9" height="2"/>
		<rect x="391.9" y="550" fill="#212121" width="6.2" height="0"/>
	</g>
	<rect x="386" y="399" width="109" height="1"/>
	<rect x="431" y="399" fill="#828282" width="3" height="4"/>
	<rect x="431" y="400" fill="#828282" width="16" height="3"/>
	<rect x="445" y="399" fill="#828282" width="2" height="4"/>
	<polygon fill="#002033" points="471,416.8 459,400 471,400 	"/>
	<g>
		<polygon fill="#D8AE73" points="427.1,331.4 439.6,344.8 451.9,331.9 444,251 434.9,251 		"/>
	</g>
	<polygon fill="#D8AE73" points="435.2,252 430.7,242.5 435.2,233 444.3,233 448.8,242.5 444.3,252 	"/>
	<polygon fill="#7A8E99" points="438.8,232.7 459.3,213.2 463.4,229.5 442.9,249 	"/>
	<circle fill="#99A9B5" cx="444.4" cy="243.4" r="1.8"/>
	<polygon fill="#7A8E99" points="438.9,232.7 418.4,213.2 414.4,229.5 434.9,249 	"/>
	<circle fill="#99A9B5" cx="433.4" cy="243.4" r="1.8"/>
	<path fill="#002033" d="M420.8,150.3l-1.6-2.5c0.4-0.3,10.2-6.6,20.5-6.6c10.5,0,18.7,6.4,19,6.7l-1.9,2.3
		c-0.1-0.1-7.8-6.1-17.2-6.1C430.2,144.2,420.9,150.3,420.8,150.3z"/>
	<path fill="#D8AE73" d="M501.6,151h-10.4c-0.8,0-1.5-1.7-1.5-2.5s0.7-2.5,1.5-2.5h10.4c0.8,0,1.5,1.7,1.5,2.5S502.4,151,501.6,151z
		"/>
	<path fill="#D8AE73" d="M387.4,151H377c-0.8,0-1.5-1.7-1.5-2.5s0.7-2.5,1.5-2.5h10.4c0.8,0,1.5,1.7,1.5,2.5S388.2,151,387.4,151z"
		/>
	<path fill="#002033" d="M404.3,166.2c-9.7,0-17.7-7.9-17.7-17.7c0-9.7,7.9-17.7,17.7-17.7c9.7,0,17.7,7.9,17.7,17.7
		C422,158.3,414.1,166.2,404.3,166.2z M404.3,133.9c-8.1,0-14.7,6.6-14.7,14.7c0,8.1,6.6,14.7,14.7,14.7c8.1,0,14.7-6.6,14.7-14.7
		C419,140.4,412.4,133.9,404.3,133.9z"/>
	<path fill="#002033" d="M474.5,166.2c-9.7,0-17.7-7.9-17.7-17.7c0-9.7,7.9-17.7,17.7-17.7c9.7,0,17.7,7.9,17.7,17.7
		C492.1,158.3,484.2,166.2,474.5,166.2z M474.5,133.9c-8.1,0-14.7,6.6-14.7,14.7c0,8.1,6.6,14.7,14.7,14.7c8.1,0,14.7-6.6,14.7-14.7
		C489.2,140.4,482.6,133.9,474.5,133.9z"/>
	<path fill="#002033" d="M375,154h9v-23.7c0,0,23.9-4.5,23.9-22.4c0,0,4.1,13.5,87.1,13.5V154h8v-46.1c0,0,4-34.8-44.7-44.9
		c-48.6-10.1-52.7,17.6-52.7,17.6s-30.6-8.2-30.6,37V154z"/>
</g>
<circle cx="1074" cy="79" r="10"/>
<polyline fill="none" stroke="#000000" stroke-width="0.8788" stroke-miterlimit="10" points="1082.4,80 1074,123.5 1065.2,80 "/>
<g>
	<circle fill="#CE9F51" cx="1074.1" cy="163.8" r="63.1"/>
	<circle fill="#FFFFFF" cx="1074.5" cy="163.7" r="48.3"/>
	<g>
		<path fill="#002033" d="M1070.1,129.9v-7.1h-1v-1c0.7-0.2,1.1-0.6,1.3-1h1v9.1H1070.1z"/>
		<path fill="#002033" d="M1072.4,129.9v-1.3l2.3-3.2c0,0,0.1-0.1,0.2-0.2c0.1-0.1,0.2-0.2,0.2-0.3c0,0,0.1-0.1,0.2-0.2
			s0.1-0.2,0.2-0.3c0-0.1,0.1-0.2,0.1-0.3c0-0.1,0.1-0.2,0.1-0.3c0-0.1,0-0.2,0.1-0.3c0-0.1,0-0.2,0-0.4c0-0.4-0.1-0.7-0.3-0.9
			c-0.2-0.3-0.4-0.4-0.7-0.4c-0.2,0-0.3,0-0.5,0.1c-0.1,0.1-0.2,0.2-0.3,0.4c-0.1,0.2-0.1,0.3-0.1,0.5c0,0.2,0,0.4,0,0.6v0.3h-1.3
			v-0.3c0-0.9,0.2-1.5,0.5-2c0.4-0.5,0.9-0.7,1.7-0.7c0.7,0,1.3,0.2,1.7,0.6c0.4,0.4,0.6,1,0.6,1.7c0,0.3,0,0.5-0.1,0.8
			c0,0.2-0.1,0.5-0.2,0.7c-0.1,0.2-0.2,0.4-0.3,0.6c-0.1,0.1-0.2,0.3-0.4,0.6l-2.3,2.9h3.2v1.3H1072.4z"/>
	</g>
	<g>
		<path fill="#002033" d="M1074.6,208.5c-0.3,0-0.6-0.1-0.8-0.2c-0.3-0.1-0.5-0.2-0.6-0.4s-0.3-0.4-0.4-0.7
			c-0.1-0.3-0.2-0.5-0.3-0.8c-0.1-0.3-0.1-0.6-0.1-0.9v-2.9c0-0.4,0-0.7,0.1-1c0-0.3,0.1-0.6,0.2-0.9c0.1-0.3,0.2-0.5,0.4-0.7
			c0.2-0.2,0.4-0.4,0.7-0.5c0.3-0.1,0.6-0.2,0.9-0.2c0.7,0,1.3,0.2,1.7,0.6c0.4,0.4,0.6,1,0.6,1.7h-1.3c0-0.4-0.1-0.8-0.2-1
			c-0.1-0.2-0.4-0.3-0.8-0.3c-0.6,0-1,0.6-1,1.9v1.3c0.3-0.4,0.7-0.6,1.3-0.6c0.4,0,0.7,0.1,0.9,0.2c0.3,0.1,0.5,0.3,0.6,0.6
			s0.2,0.5,0.3,0.8s0.1,0.6,0.1,1c0,0.4,0,0.8-0.1,1.2c-0.1,0.4-0.2,0.7-0.4,1c-0.2,0.3-0.4,0.5-0.7,0.7
			C1075.4,208.5,1075,208.5,1074.6,208.5z M1074.1,207.3c0.1,0.1,0.3,0.1,0.5,0.1c0.2,0,0.3,0,0.5-0.1c0.1-0.1,0.2-0.2,0.3-0.4
			c0.1-0.2,0.1-0.3,0.1-0.5c0-0.2,0-0.4,0-0.6c0-0.1,0-0.2,0-0.3c0-0.1,0-0.2,0-0.3c0-0.1,0-0.2,0-0.3c0-0.1,0-0.1,0-0.3
			c0-0.1,0-0.2-0.1-0.2c0-0.1-0.1-0.1-0.1-0.2c0-0.1-0.1-0.1-0.1-0.2c0,0-0.1-0.1-0.2-0.1c-0.1,0-0.1-0.1-0.2-0.1
			c-0.1,0-0.2,0-0.3,0c-0.4,0-0.7,0.2-1,0.6v1.3c0,0.2,0,0.4,0,0.6c0,0.2,0.1,0.3,0.1,0.5C1073.9,207.1,1074,207.2,1074.1,207.3z"/>
	</g>
	<g>
		<path fill="#002033" d="M1116.5,168.4c-0.7,0-1.3-0.2-1.7-0.6c-0.4-0.4-0.6-1-0.6-1.7v-0.3h1.3c0,0.2,0,0.4,0,0.5
			c0,0.1,0,0.3,0.1,0.4c0,0.1,0.1,0.3,0.2,0.4c0.1,0.1,0.2,0.2,0.3,0.2c0.1,0.1,0.3,0.1,0.4,0.1s0.3,0,0.4-0.1
			c0.1-0.1,0.2-0.1,0.3-0.2c0.1-0.1,0.1-0.2,0.2-0.4c0-0.1,0.1-0.3,0.1-0.4c0-0.1,0-0.3,0-0.5c0-0.5-0.1-0.9-0.3-1.2
			c-0.2-0.3-0.5-0.4-1-0.4v-1.3c0.5,0,0.8-0.1,1-0.3c0.2-0.2,0.3-0.5,0.3-1c0-0.4-0.1-0.8-0.2-1c-0.1-0.2-0.4-0.3-0.8-0.3
			c-0.2,0-0.3,0-0.4,0.1c-0.1,0.1-0.2,0.1-0.3,0.2c-0.1,0.1-0.1,0.2-0.2,0.4c0,0.1-0.1,0.3-0.1,0.4c0,0.1,0,0.3,0,0.5h-1.3v-0.3
			c0-0.7,0.2-1.3,0.6-1.7c0.4-0.4,1-0.6,1.7-0.6c0.7,0,1.3,0.2,1.7,0.6c0.4,0.4,0.6,1,0.6,1.7c0,0.5-0.1,0.9-0.3,1.3
			c-0.2,0.3-0.5,0.6-1,0.7c0.4,0.1,0.7,0.4,1,0.8c0.2,0.4,0.3,0.9,0.3,1.5c0,0.9-0.2,1.5-0.5,2
			C1117.9,168.2,1117.3,168.4,1116.5,168.4z"/>
	</g>
	<g>
		<path fill="#002033" d="M1032.6,168.5c-0.7,0-1.3-0.2-1.7-0.6c-0.4-0.4-0.6-1-0.6-1.7h1.3c0,0.4,0.1,0.8,0.2,1
			c0.1,0.2,0.4,0.3,0.8,0.3c0.6,0,1-0.6,1-1.9v-1.3c-0.3,0.4-0.7,0.6-1.3,0.6c-0.4,0-0.7-0.1-0.9-0.2c-0.3-0.1-0.5-0.3-0.6-0.6
			c-0.1-0.2-0.2-0.5-0.3-0.8s-0.1-0.6-0.1-1c0-0.4,0-0.8,0.1-1.2c0.1-0.4,0.2-0.7,0.4-1c0.2-0.3,0.4-0.5,0.7-0.7
			c0.3-0.2,0.6-0.2,1-0.2c0.3,0,0.6,0.1,0.8,0.2c0.3,0.1,0.5,0.2,0.6,0.4c0.2,0.2,0.3,0.4,0.4,0.7c0.1,0.3,0.2,0.5,0.3,0.8
			c0.1,0.3,0.1,0.6,0.1,0.9v2.9c0,0.4,0,0.7-0.1,1c0,0.3-0.1,0.6-0.2,0.9c-0.1,0.3-0.2,0.5-0.4,0.7c-0.2,0.2-0.4,0.4-0.7,0.5
			C1033.2,168.4,1032.9,168.5,1032.6,168.5z M1032.6,163.8c0.4,0,0.7-0.2,1-0.6v-1.3c0-0.2,0-0.4,0-0.6c0-0.2-0.1-0.4-0.1-0.5
			c-0.1-0.2-0.2-0.3-0.3-0.4c-0.1-0.1-0.3-0.1-0.5-0.1s-0.3,0-0.5,0.1c-0.1,0.1-0.2,0.2-0.3,0.4c-0.1,0.2-0.1,0.3-0.1,0.5
			c0,0.2,0,0.4,0,0.6c0,0.1,0,0.2,0,0.3c0,0.1,0,0.2,0,0.3c0,0.1,0,0.2,0,0.3c0,0.1,0,0.1,0,0.3c0,0.1,0,0.2,0.1,0.2
			c0,0.1,0.1,0.1,0.1,0.2c0,0.1,0.1,0.1,0.1,0.2c0,0,0.1,0.1,0.2,0.1c0.1,0,0.1,0.1,0.2,0.1S1032.5,163.8,1032.6,163.8z"/>
	</g>
	<g>
		<circle fill="#002033" cx="1091.2" cy="128.1" r="0.8"/>
		<circle fill="#002033" cx="1055.5" cy="198.9" r="0.8"/>
		<circle fill="#002033" cx="1112" cy="182.5" r="0.8"/>
		<circle fill="#002033" cx="1036.3" cy="144.6" r="0.8"/>
	</g>
	<g>
		<circle fill="#002033" cx="1107.9" cy="144.7" r="0.8"/>
		<circle fill="#002033" cx="1039" cy="184.2" r="0.8"/>
		<circle fill="#002033" cx="1095.2" cy="201.6" r="0.8"/>
		<circle fill="#002033" cx="1052.9" cy="128.3" r="0.8"/>
	</g>
	<circle fill="#002033" cx="1074.5" cy="163.7" r="3.1"/>
	<polygon fill="#002033" points="1102.6,149.6 1074.3,165.8 1073.1,163.6 1101.4,147.5 	"/>
	<polygon fill="#002033" points="1054.2,153.9 1073.5,165 1074.6,163.2 1055.3,152.1 	"/>
</g>
<rect x="56" y="200" fill-rule="evenodd" clip-rule="evenodd" fill="#002846" width="258" height="9"/>
<g>
	<ellipse fill="#D8AE73" cx="265.5" cy="165.4" rx="36.7" ry="31.6"/>
	<path fill="#CE9F51" d="M267.8,133.8c0,0,41.6,22.7,8.5,61.6c0,0,27.8-4.8,26.3-33.7C302.6,161.8,298.7,134.5,267.8,133.8z"/>
	<circle fill="#CE9F51" cx="287.4" cy="172.5" r="6.1"/>
	<circle fill="#D8AE73" cx="289" cy="172.5" r="6.1"/>
	<circle cx="286.4" cy="172.5" r="1.2"/>
	<circle cx="292.4" cy="172.5" r="1.1"/>
	<circle cx="278.6" cy="165.4" r="1.1"/>
	<circle cx="296.2" cy="165.4" r="1.1"/>
	<path d="M286.4,183.1c-1.8,0-3.4-1.2-3.4-1.2c-0.3-0.2-0.3-0.6-0.1-0.8c0.2-0.3,0.6-0.3,0.8-0.1c0,0,1.4,1,2.8,1
		c1.3,0,2.8-0.8,2.8-0.8c0.3-0.1,0.7,0,0.8,0.3c0.1,0.3,0,0.7-0.3,0.8C289.7,182.3,288,183.1,286.4,183.1z"/>
	<path fill="#2B2B2B" d="M277.8,139.5c-0.1,0-0.2,0-0.3,0c-4.2-1.3-8.7-2-13.3-1.9c-3.7,0.1-6.1,0.6-6.6,0.7
		c-0.6,0.1-1.1-0.2-1.2-0.8c-0.1-0.6,0.2-1.1,0.8-1.2c1-0.2,10.2-2.1,20.9,1.2c0.5,0.2,0.8,0.7,0.7,1.3
		C278.6,139.2,278.2,139.5,277.8,139.5z"/>
	<polygon fill="#D8AE73" points="302.7,152.4 302.6,157.2 302.6,161.9 298.5,159.5 294.3,157.1 298.5,154.8 	"/>
	<polygon fill="#CE9F51" points="269,152.9 269,157.7 269.1,162.5 273.2,160.1 277.3,157.6 273.1,155.3 	"/>
	<polygon fill="#D8AE73" points="238.9,187 243.7,200 252,200 252,195 248.8,187 	"/>
	<polygon fill="#D8AE73" points="265.6,187 260.8,200 253,200 253,195 255.7,187 	"/>
	<polygon fill="#D8AE73" points="262.9,187 267.7,200 275,200 275,195.5 272.8,187 	"/>
	<polygon fill="#CE9F51" points="289.6,187.5 284.8,200 277,200 277,195.5 285.3,189.1 	"/>
	<path fill="#D8AE73" d="M234.6,161.6c-0.1,0.4-0.2,0.7-0.4,1.1c-0.2,0.4-0.5,0.8-0.7,1.1c-0.6,0.7-1.3,1.4-2,1.9
		c-0.8,0.5-1.5,0.9-2.4,1.1c-0.1,0-0.2,0-0.3,0.1c0,0-0.2,0-0.1,0c0,0-0.1,0-0.2,0c-0.2,0-0.4,0-0.6,0c0,0-0.1,0-0.1,0
		c0,0-0.2,0-0.1,0c-0.1,0-0.2,0-0.2-0.1c-0.1,0-0.1,0-0.2-0.1c0.1,0,0,0,0,0c0,0-0.1,0-0.1-0.1c-0.1,0-0.1-0.1-0.2-0.1
		c0,0-0.2-0.2-0.1-0.1c-0.1-0.1-0.2-0.2-0.3-0.3c0,0-0.1-0.1-0.1-0.2c0,0-0.1-0.1-0.1-0.1c0,0-0.1-0.1,0,0c-0.1-0.1-0.2-0.3-0.3-0.4
		c-0.1-0.1-0.2-0.3-0.2-0.4c0-0.1-0.1-0.1-0.1-0.2c-0.1-0.1,0,0.1,0,0c0,0,0-0.1,0-0.1c-0.1-0.3-0.2-0.7-0.3-1c0-0.1,0-0.1,0-0.2
		c0-0.1,0,0.1,0,0c0,0,0-0.1,0-0.1c0-0.2,0-0.3,0-0.5c0-0.2,0-0.3,0-0.5c0-0.1,0,0.1,0,0c0,0,0-0.1,0-0.1c0-0.1,0-0.2,0.1-0.2
		c0-0.1,0-0.1,0.1-0.2c0,0,0-0.1,0-0.1c0-0.1,0,0.1,0,0c0.1-0.1,0.1-0.2,0.2-0.4c0,0,0,0,0-0.1c0.1-0.1-0.1,0.1,0,0
		c0-0.1,0.1-0.1,0.2-0.2c0,0,0.2-0.2,0.1-0.1c0.1,0,0.1-0.1,0.2-0.1c-0.2,0-0.4-0.1-0.6-0.1c0.1,0.1,0.2,0.3,0.3,0.4
		c0,0,0.1,0.1,0,0c0,0,0,0.1,0.1,0.1c0.1,0.1,0.1,0.2,0.2,0.2c0.1,0.1,0.1,0.3,0.2,0.4c0,0,0,0.1,0,0.1c-0.1-0.1,0,0,0,0
		c0,0.1,0.1,0.2,0.1,0.2c0,0.1,0.1,0.3,0.1,0.4c0,0,0,0.1,0,0c0,0,0,0.1,0,0.1c0,0.1,0,0.2,0,0.2c0,0.1,0,0.3,0,0.4c0,0,0,0.1,0,0.1
		c0-0.1,0,0,0,0c0,0.1,0,0.1,0,0.2c0,0.1-0.1,0.2-0.1,0.4c0,0.1,0,0.1-0.1,0.2c0,0.1,0-0.1,0,0c0,0,0,0.1-0.1,0.1
		c-0.1,0.2-0.2,0.5-0.4,0.7c0.1-0.1,0,0-0.1,0.1c0,0-0.1,0.1-0.1,0.1c-0.1,0.1-0.2,0.2-0.3,0.3c0,0-0.1,0.1-0.1,0.1c0,0-0.1,0.1,0,0
		c0,0,0,0-0.1,0.1c-0.1,0.1-0.2,0.1-0.3,0.2c-0.1,0.1-0.2,0.1-0.3,0.2c0,0-0.1,0-0.1,0c0.1-0.1,0,0,0,0c-0.1,0-0.1,0-0.2,0.1
		c-0.1,0-0.2,0.1-0.3,0.1c-0.1,0-0.1,0-0.2,0c0.2,0,0,0-0.1,0c-0.1,0-0.2,0-0.3,0c0,0-0.1,0-0.1,0c-0.1,0,0.1,0,0,0
		c-0.1,0-0.1,0-0.2,0c-0.1,0-0.2-0.1-0.3-0.1c0.2,0.1,0,0-0.1,0c-0.1,0-0.1-0.1-0.2-0.1c0,0-0.1-0.1-0.1-0.1c0.1,0.1,0,0-0.1-0.1
		c-0.1-0.1-0.2-0.2-0.3-0.3c-0.1-0.1,0.1,0.1,0,0c0,0,0-0.1-0.1-0.1c0-0.1-0.1-0.1-0.1-0.2c-0.1-0.1-0.2-0.3-0.2-0.4
		c0,0.1,0-0.1-0.1-0.1c0-0.1-0.1-0.2-0.1-0.2c-0.1-0.2-0.1-0.4-0.1-0.6c0-0.1,0-0.2-0.1-0.3c0-0.1,0-0.1,0-0.2c0-0.2,0-0.4,0-0.6
		c0,0.1,0,0,0,0c0,0,0-0.1,0-0.1c0-0.1,0-0.2,0.1-0.2c0,0,0.1-0.3,0-0.1c0-0.1,0.1-0.2,0.1-0.2c0-0.1,0.1-0.1,0.1-0.2
		c0,0,0.1-0.1,0,0c0,0,0,0,0.1-0.1c0,0,0.1-0.1,0.1-0.1c0,0,0.1-0.1,0,0c0,0,0.1,0,0.1-0.1c0,0,0.2-0.1,0,0c0,0,0.1,0,0.1,0
		c0.1,0-0.1,0,0,0c0,0,0,0,0.1,0c0,0,0.1,0,0,0c0,0,0.1,0,0.1,0c0,0,0.1,0.1,0,0c0,0,0,0,0.1,0c0,0,0.1,0.1,0,0c0,0,0,0,0.1,0.1
		c0,0,0,0,0.1,0.1c-0.1-0.1,0,0,0,0c0,0,0,0.1,0,0.1c0,0,0.1,0.2,0,0c0.1,0.2,0.1,0.3,0.1,0.5c0,0.2,0-0.1,0,0.1c0,0.1,0,0.1,0,0.2
		c0,0.1,0,0.3,0,0.4c0,0.1,0,0.1,0,0.2c0,0,0,0.2,0,0.1c0,0.1,0,0.2-0.1,0.3c0,0.1-0.1,0.2-0.1,0.3c0,0,0,0.1-0.1,0.1
		c0-0.1,0,0.1-0.1,0.1c-0.2,0.4-0.4,0.6-0.7,0.9c-0.2,0.2-0.2,0.2-0.4,0.3c-0.1,0.1-0.2,0.1-0.3,0.1c0,0-0.1,0-0.1,0.1
		c0,0-0.1,0-0.1,0c0,0,0,0,0,0c-0.1,0-0.2,0.1-0.3,0.1c-0.1,0-0.1,0-0.2,0c0,0-0.2,0-0.1,0c-0.1,0-0.2,0-0.3,0c-0.1,0-0.1,0-0.2,0
		c-0.1,0-0.1,0,0,0c0,0-0.1,0-0.1,0c-0.5-0.1-0.8-0.3-1.2-0.7c-0.2-0.2-0.5-0.2-0.7,0c-0.2,0.2-0.2,0.5,0,0.7
		c0.6,0.7,1.5,1.1,2.4,1.1c0.9-0.1,1.7-0.5,2.4-1.1c0.7-0.6,1.1-1.5,1.2-2.4c0.1-0.7,0-1.7-0.6-2.2c-0.5-0.4-1.1-0.4-1.6,0
		c-0.6,0.4-0.9,1.1-1,1.8c-0.1,0.8,0,1.7,0.3,2.5c0.2,0.6,0.5,1.2,1,1.6c1.8,1.5,4.5,0.1,5.4-1.8c0.3-0.7,0.5-1.5,0.3-2.3
		c-0.1-0.9-0.7-1.7-1.3-2.4c-0.2-0.2-0.4-0.2-0.6-0.1c-1.4,0.8-1.5,2.5-1.3,3.9c0.3,1.4,1.1,3,2.4,3.6c0.8,0.4,1.7,0.3,2.5,0.2
		c0.9-0.2,1.8-0.6,2.6-1.1c1.6-1,3-2.5,3.6-4.3c0.1-0.1,0.1-0.3,0.1-0.4C235.7,161.3,234.8,161,234.6,161.6L234.6,161.6z"/>
</g>
<g>
	<polygon fill-rule="evenodd" clip-rule="evenodd" fill="#002846" points="89.5,115 141.5,115 165.2,151 154.8,151 108.2,151 	"/>
	<polygon fill-rule="evenodd" clip-rule="evenodd" fill="#FFFFFF" points="141.2,117 87.7,117 114.6,171 168.1,171 	"/>
	<polygon fill-rule="evenodd" clip-rule="evenodd" fill="#002846" points="99.9,151 86,115 89.5,115 112.3,151 	"/>
	<rect x="112" y="146" fill-rule="evenodd" clip-rule="evenodd" fill="#CE9F51" width="99" height="54"/>
	<path fill-rule="evenodd" clip-rule="evenodd" fill="#D8AE73" d="M127,196.7c0,1.3-1,2.3-2.3,2.3H76.3c-1.3,0-2.3-1-2.3-2.3v-48.4
		c0-1.3,1-2.3,2.3-2.3h48.4c1.3,0,2.3,1,2.3,2.3V196.7z"/>
	<circle fill-rule="evenodd" clip-rule="evenodd" fill="#002846" cx="204.5" cy="153.7" r="2.6"/>
	<circle fill-rule="evenodd" clip-rule="evenodd" fill="#002846" cx="204.5" cy="162.6" r="2.6"/>
	<rect x="140" y="146" fill-rule="evenodd" clip-rule="evenodd" fill="#A0773A" width="56" height="54"/>
	<rect x="142" y="189" fill-rule="evenodd" clip-rule="evenodd" fill="#011621" width="54" height="5"/>
	<polygon fill-rule="evenodd" clip-rule="evenodd" fill="#FFFFFF" points="228.7,200 174.1,200 140.9,194 195.5,194 	"/>
</g>
<rect x="56" y="209" fill="#B7B4AE" width="258" height="19"/>
<path fill="#FFFFFF" d="M592.5,293.1c0,0,58.8-5.4,73.1-68.1l84.2-15.5c0,0-31.4,59-57,71.4L592.5,293.1z"/>
<path fill="#FFFFFF" d="M724.6,349.1c0,0,48.2,3.1,56.3-28.9l58.6,64.7c0,0-33.3,50-51.7,39.8C787.8,424.8,761.4,370.9,724.6,349.1z
	"/>
<g>
	<path fill="#6B6862" d="M600.1,70.5h1.8c2.8,0,5.5,0.7,5.5,4.1c0,1.1-0.6,2.4-1.6,2.9v0c1.8,0.3,3,2.1,3,3.8c0,3-2.6,4.2-5.2,4.2
		h-3.5V70.5z M602,77.2h0.5c1.8,0,3.2-0.4,3.2-2.5c0-2.1-1.4-2.5-3.2-2.5H602V77.2z M602,83.9h1.4c1.7,0,3.6-0.5,3.6-2.7
		c0-2.1-2.2-2.6-3.8-2.6H602V83.9z"/>
	<path fill="#6B6862" d="M625.7,78c0,4.5-3.5,7.9-7.9,7.9c-4.4,0-7.9-3.4-7.9-7.9c0-4.3,3.6-7.9,7.9-7.9
		C622.1,70.2,625.7,73.7,625.7,78z M623.8,78c0-3.3-2.5-6.1-6-6.1c-3.5,0-6,2.8-6,6.1c0,3.4,2.8,6.1,6,6.1
		C621.1,84.2,623.8,81.5,623.8,78z"/>
	<path fill="#6B6862" d="M627.3,69.8l11.3,11.9V70.5h1.9v15.7l-11.3-11.9v11.2h-1.9V69.8z"/>
	<path fill="#6B6862" d="M647.8,70.5v9.6c0,2.9-0.6,5.8-4.1,5.8c-0.9,0-1.6-0.2-2.4-0.7l0.9-1.6c0.4,0.3,1,0.5,1.5,0.5
		c2.2,0,2.1-2.5,2.1-4.1v-9.6H647.8z"/>
	<path fill="#6B6862" d="M665.2,78c0,4.5-3.5,7.9-7.9,7.9c-4.4,0-7.9-3.4-7.9-7.9c0-4.3,3.6-7.9,7.9-7.9
		C661.6,70.2,665.2,73.7,665.2,78z M663.3,78c0-3.3-2.5-6.1-6-6.1c-3.5,0-6,2.8-6,6.1c0,3.4,2.8,6.1,6,6.1
		C660.6,84.2,663.3,81.5,663.3,78z"/>
	<path fill="#6B6862" d="M668.6,70.5v8.9c0,2.5,0.7,4.7,3.6,4.7c2.9,0,3.6-2.3,3.6-4.7v-8.9h1.9V80c0,3.3-2.1,5.9-5.5,5.9
		c-3.5,0-5.5-2.5-5.5-5.9v-9.5H668.6z"/>
	<path fill="#6B6862" d="M689.8,85.6h-2.3l-4.4-6.4h-0.8v6.4h-1.9V70.5h2.3c1.3,0,2.8,0,4,0.7c1.3,0.7,2,2.2,2,3.6
		c0,2.2-1.4,4-3.6,4.2L689.8,85.6z M682.3,77.6h0.6c1.9,0,4-0.4,4-2.8c0-2.4-2.2-2.7-4.1-2.7h-0.5V77.6z"/>
	<path fill="#6B6862" d="M694.7,83.8l-2.7,5.3l-1.1-0.5l2.2-5.5L694.7,83.8z"/>
	<path fill="#6B6862" d="M707.7,75.6L707.7,75.6l-1.8,10h-1.9l3.1-15.7l5.2,11.9l5.2-11.9l3.1,15.7h-1.9l-1.8-10h0l-4.5,10.3
		L707.7,75.6z"/>
	<path fill="#6B6862" d="M736.9,78c0,4.5-3.5,7.9-7.9,7.9c-4.4,0-7.9-3.4-7.9-7.9c0-4.3,3.6-7.9,7.9-7.9
		C733.3,70.2,736.9,73.7,736.9,78z M735,78c0-3.3-2.5-6.1-6-6.1c-3.5,0-6,2.8-6,6.1c0,3.4,2.8,6.1,6,6.1C732.2,84.2,735,81.5,735,78
		z"/>
	<path fill="#6B6862" d="M738.5,69.8l11.3,11.9V70.5h1.9v15.7l-11.3-11.9v11.2h-1.9V69.8z"/>
	<path fill="#6B6862" d="M762.5,70.5h8.1v1.7h-6.2v4.2h6v1.7h-6v5.7h6.2v1.7h-8.1V70.5z"/>
	<path fill="#6B6862" d="M772.7,69.8l11.3,11.9V70.5h1.9v15.7l-11.3-11.9v11.2h-1.9V69.8z"/>
	<path fill="#6B6862" d="M792.7,85.6h-1.9V72.2h-3.6v-1.7h9v1.7h-3.6V85.6z"/>
	<path fill="#6B6862" d="M807.1,85.6h-2.3l-4.4-6.4h-0.8v6.4h-1.9V70.5h2.3c1.3,0,2.8,0,4,0.7c1.3,0.7,2,2.2,2,3.6
		c0,2.2-1.4,4-3.6,4.2L807.1,85.6z M799.6,77.6h0.6c1.9,0,4-0.4,4-2.8c0-2.4-2.2-2.7-4.1-2.7h-0.5V77.6z"/>
	<path fill="#6B6862" d="M808.6,70.5h8.1v1.7h-6.2v4.2h6v1.7h-6v5.7h6.2v1.7h-8.1V70.5z"/>
	<path fill="#6B6862" d="M820.9,85.6H819V70.5h2.2c4.6,0,6.1,1.6,6.1,4.4c0,3.2-2.4,4.4-5.3,4.4h-1.1V85.6z M820.9,77.6h0.6
		c1.9,0,4-0.4,4-2.8c0-2.4-2.2-2.6-4.1-2.6h-0.5V77.6z"/>
	<path fill="#6B6862" d="M838.3,85.6H836l-4.4-6.4h-0.8v6.4h-1.9V70.5h2.3c1.3,0,2.8,0,4,0.7c1.3,0.7,2,2.2,2,3.6
		c0,2.2-1.4,4-3.6,4.2L838.3,85.6z M830.8,77.6h0.6c1.9,0,4-0.4,4-2.8c0-2.4-2.2-2.7-4.1-2.7h-0.5V77.6z"/>
	<path fill="#6B6862" d="M841.6,85.6h-1.9V70.5h1.9V85.6z"/>
	<path fill="#6B6862" d="M851.1,73.4c-0.6-0.9-1.3-1.4-2.4-1.4c-1.2,0-2.5,0.8-2.5,2.1c0,1.2,1.2,1.8,2.1,2.2l1.1,0.4
		c2.1,0.8,3.7,2,3.7,4.5c0,2.7-2.1,4.7-4.8,4.7c-2.4,0-4.3-1.8-4.7-4.2l1.9-0.4c0,1.7,1.3,2.9,2.9,2.9c1.6,0,2.8-1.4,2.8-2.9
		c0-1.6-1.3-2.3-2.6-2.9l-1-0.4c-1.7-0.7-3.3-1.7-3.3-3.8c0-2.4,2.2-3.9,4.4-3.9c1.7,0,3.1,0.8,3.9,2.3L851.1,73.4z"/>
	<path fill="#6B6862" d="M855.2,70.5h8.1v1.7H857v4.2h6v1.7h-6v5.7h6.2v1.7h-8.1V70.5z"/>
	<path fill="#6B6862" d="M875.8,81.8l-1.7,3.8h-2l7.2-15.7l7.2,15.7h-2l-1.7-3.8H875.8z M879.3,74l-2.7,6.1h5.4L879.3,74z"/>
	<path fill="#6B6862" d="M900.2,72.2l-0.9,3.1l1.1-0.1c2.9,0,4.8,2.5,4.8,5.3c0,3.2-2.5,5.4-5.6,5.4c-1.9,0-3.7-1-4.6-2.6l1.4-1.3
		c0.5,1.3,2,2.2,3.3,2.2c2,0,3.6-1.7,3.6-3.7c0-1.9-1.7-3.6-3.6-3.6c-1.1,0-2.2,0.5-2.8,1.3h-0.4l2.3-7.7h6v1.7H900.2z"/>
	<path fill="#6B6862" d="M917.6,81.8l-1.7,3.8h-2l7.2-15.7l7.2,15.7h-2l-1.7-3.8H917.6z M921.1,74l-2.7,6.1h5.4L921.1,74z"/>
	<path fill="#6B6862" d="M929.4,69.8l11.3,11.9V70.5h1.9v15.7l-11.3-11.9v11.2h-1.9V69.8z"/>
	<path fill="#6B6862" d="M951.9,73.4c-0.6-0.9-1.3-1.4-2.4-1.4c-1.2,0-2.5,0.8-2.5,2.1c0,1.2,1.2,1.8,2.1,2.2l1.1,0.4
		c2.1,0.8,3.7,2,3.7,4.5c0,2.7-2.1,4.7-4.8,4.7c-2.4,0-4.3-1.8-4.7-4.2l1.9-0.4c0,1.7,1.3,2.9,2.9,2.9c1.6,0,2.8-1.4,2.8-2.9
		c0-1.6-1.3-2.3-2.6-2.9l-1-0.4c-1.7-0.7-3.3-1.7-3.3-3.8c0-2.4,2.2-3.9,4.4-3.9c1.7,0,3.1,0.8,3.9,2.3L951.9,73.4z"/>
	<path fill="#6B6862" d="M958.6,84.8c0,0.6-0.5,1.2-1.2,1.2c-0.6,0-1.2-0.5-1.2-1.2c0-0.6,0.5-1.2,1.2-1.2
		C958.1,83.6,958.6,84.1,958.6,84.8z"/>
	<path fill="#6B6862" d="M604.9,96.5v9.6c0,2.9-0.6,5.8-4.1,5.8c-0.9,0-1.6-0.2-2.4-0.7l0.9-1.6c0.4,0.3,1,0.5,1.5,0.5
		c2.2,0,2.1-2.5,2.1-4.1v-9.6H604.9z"/>
	<path fill="#6B6862" d="M607.5,96.5h8.1v1.7h-6.2v4.2h6v1.7h-6v5.7h6.2v1.7h-8.1V96.5z"/>
	<path fill="#6B6862" d="M632,107.7l4.5-11.2h2.1l-6.5,15.9l-6.6-15.9h2.1L632,107.7z"/>
	<path fill="#6B6862" d="M639.8,96.5h8.1v1.7h-6.2v4.2h6v1.7h-6v5.7h6.2v1.7h-8.1V96.5z"/>
	<path fill="#6B6862" d="M651.9,96.5v8.9c0,2.5,0.7,4.7,3.6,4.7c2.9,0,3.6-2.3,3.6-4.7v-8.9h1.9v9.5c0,3.3-2.1,5.9-5.5,5.9
		c-3.5,0-5.5-2.5-5.5-5.9v-9.5H651.9z"/>
	<path fill="#6B6862" d="M662.8,96.5h2.1l3.1,5.5l3.3-5.5h2.1l-4.3,7.2l4.6,7.9h-2.1l-3.6-6.2l-3.7,6.2h-2.1l4.7-7.9L662.8,96.5z"/>
	<path fill="#6B6862" d="M686.1,109.9h4.6v1.7h-6.5V96.5h1.9V109.9z"/>
	<path fill="#6B6862" d="M691.9,96.5h8.1v1.7h-6.2v4.2h6v1.7h-6v5.7h6.2v1.7h-8.1V96.5z"/>
	<path fill="#6B6862" d="M707.3,107.7l4.5-11.2h2.1l-6.5,15.9l-6.6-15.9h2.1L707.3,107.7z"/>
	<path fill="#6B6862" d="M715.1,96.5h8.1v1.7H717v4.2h6v1.7h-6v5.7h6.2v1.7h-8.1V96.5z"/>
	<path fill="#6B6862" d="M734.9,111.6h-2.3l-4.4-6.4h-0.8v6.4h-1.9V96.5h2.3c1.3,0,2.8,0,4,0.7c1.3,0.7,2,2.2,2,3.6
		c0,2.2-1.4,4-3.6,4.2L734.9,111.6z M727.4,103.6h0.6c1.9,0,4-0.4,4-2.8c0-2.4-2.2-2.7-4.1-2.7h-0.5V103.6z"/>
	<path fill="#6B6862" d="M745.4,96.5h3.1c4.6,0,8.5,2.4,8.5,7.5c0,5.1-3.8,7.6-8.5,7.6h-3.1V96.5z M747.3,109.9h0.7
		c3.8,0,7.2-1.4,7.2-5.8c0-4.4-3.3-5.8-7.2-5.8h-0.7V109.9z"/>
	<path fill="#6B6862" d="M758.8,96.5h8.1v1.7h-6.2v4.2h6v1.7h-6v5.7h6.2v1.7h-8.1V96.5z"/>
	<path fill="#6B6862" d="M776,99.4c-0.6-0.9-1.3-1.4-2.4-1.4c-1.2,0-2.5,0.8-2.5,2.1c0,1.2,1.2,1.8,2.1,2.2l1.1,0.4
		c2.1,0.8,3.7,2,3.7,4.5c0,2.7-2.1,4.7-4.8,4.7c-2.4,0-4.3-1.8-4.7-4.2l1.9-0.4c0,1.7,1.3,2.9,2.9,2.9c1.6,0,2.8-1.4,2.8-2.9
		c0-1.6-1.3-2.3-2.6-2.9l-1-0.4c-1.7-0.7-3.3-1.7-3.3-3.8c0-2.4,2.2-3.9,4.4-3.9c1.7,0,3.1,0.8,3.9,2.3L776,99.4z"/>
	<path fill="#6B6862" d="M791,98.2v4.2h5.2v1.7H791v7.4h-1.9V96.5h7.3v1.7H791z"/>
	<path fill="#6B6862" d="M813.3,104c0,4.5-3.5,7.9-7.9,7.9c-4.4,0-7.9-3.4-7.9-7.9c0-4.3,3.6-7.9,7.9-7.9
		C809.7,96.2,813.3,99.7,813.3,104z M811.4,104c0-3.3-2.5-6.1-6-6.1c-3.5,0-6,2.8-6,6.1c0,3.4,2.8,6.1,6,6.1
		C808.7,110.2,811.4,107.5,811.4,104z"/>
	<path fill="#6B6862" d="M815,95.8l11.3,11.9V96.5h1.9v15.7l-11.3-11.9v11.2H815V95.8z"/>
	<path fill="#6B6862" d="M830.7,96.5h3.1c4.6,0,8.5,2.4,8.5,7.5c0,5.1-3.8,7.6-8.5,7.6h-3.1V96.5z M832.6,109.9h0.7
		c3.8,0,7.2-1.4,7.2-5.8c0-4.4-3.3-5.8-7.2-5.8h-0.7V109.9z"/>
	<path fill="#6B6862" d="M850.8,99.4c-0.6-0.9-1.3-1.4-2.4-1.4c-1.2,0-2.5,0.8-2.5,2.1c0,1.2,1.2,1.8,2.1,2.2l1.1,0.4
		c2.1,0.8,3.7,2,3.7,4.5c0,2.7-2.1,4.7-4.8,4.7c-2.4,0-4.3-1.8-4.7-4.2l1.9-0.4c0,1.7,1.3,2.9,2.9,2.9s2.8-1.4,2.8-2.9
		c0-1.6-1.3-2.3-2.6-2.9l-1-0.4c-1.7-0.7-3.3-1.7-3.3-3.8c0-2.4,2.2-3.9,4.4-3.9c1.7,0,3.1,0.8,3.9,2.3L850.8,99.4z"/>
	<path fill="#6B6862" d="M864,96.5h8.1v1.7h-6.2v4.2h6v1.7h-6v5.7h6.2v1.7H864V96.5z"/>
	<path fill="#6B6862" d="M878.5,111.6h-1.9V98.2H873v-1.7h9v1.7h-3.6V111.6z"/>
	<path fill="#6B6862" d="M907.4,104c0,4.5-3.5,7.9-7.9,7.9c-4.4,0-7.9-3.4-7.9-7.9c0-4.3,3.6-7.9,7.9-7.9
		C903.8,96.2,907.4,99.7,907.4,104z M905.5,104c0-3.3-2.5-6.1-6-6.1c-3.5,0-6,2.8-6,6.1c0,3.4,2.8,6.1,6,6.1
		C902.8,110.2,905.5,107.5,905.5,104z"/>
	<path fill="#6B6862" d="M910.8,96.5v8.9c0,2.5,0.7,4.7,3.6,4.7c2.9,0,3.6-2.3,3.6-4.7v-8.9h1.9v9.5c0,3.3-2.1,5.9-5.5,5.9
		c-3.5,0-5.5-2.5-5.5-5.9v-9.5H910.8z"/>
	<path fill="#6B6862" d="M927.6,107.7l4.5-11.2h2.1l-6.5,15.9L921,96.5h2.1L927.6,107.7z"/>
	<path fill="#6B6862" d="M944.8,111.6h-2.3l-4.4-6.4h-0.8v6.4h-1.9V96.5h2.3c1.3,0,2.8,0,4,0.7c1.3,0.7,2,2.2,2,3.6
		c0,2.2-1.4,4-3.6,4.2L944.8,111.6z M937.3,103.6h0.6c1.9,0,4-0.4,4-2.8c0-2.4-2.2-2.7-4.1-2.7h-0.5V103.6z"/>
	<path fill="#6B6862" d="M948.1,111.6h-1.9V96.5h1.9V111.6z"/>
	<path fill="#6B6862" d="M960.3,111.6H958l-4.4-6.4h-0.8v6.4h-1.9V96.5h2.3c1.3,0,2.8,0,4,0.7c1.3,0.7,2,2.2,2,3.6
		c0,2.2-1.4,4-3.6,4.2L960.3,111.6z M952.8,103.6h0.6c1.9,0,4-0.4,4-2.8c0-2.4-2.2-2.7-4.1-2.7h-0.5V103.6z"/>
	<path fill="#6B6862" d="M602.8,127.6L602.8,127.6l-1.8,10h-1.9l3.1-15.7l5.2,11.9l5.2-11.9l3.1,15.7h-1.9l-1.8-10h0l-4.5,10.3
		L602.8,127.6z"/>
	<path fill="#6B6862" d="M632,130c0,4.5-3.5,7.9-7.9,7.9c-4.4,0-7.9-3.4-7.9-7.9c0-4.3,3.6-7.9,7.9-7.9
		C628.4,122.2,632,125.7,632,130z M630.1,130c0-3.3-2.5-6.1-6-6.1c-3.5,0-6,2.8-6,6.1c0,3.4,2.8,6.1,6,6.1
		C627.4,136.2,630.1,133.5,630.1,130z"/>
	<path fill="#6B6862" d="M633.7,121.8l11.3,11.9v-11.1h1.9v15.7l-11.3-11.9v11.2h-1.9V121.8z"/>
	<path fill="#6B6862" d="M666.3,125.4c-1.1-1-2.6-1.5-4-1.5c-3.4,0-6,2.8-6,6.2c0,3.3,2.6,6.1,5.9,6.1c1.5,0,2.9-0.6,4-1.6v2.2
		c-1.2,0.7-2.6,1.1-4,1.1c-4.3,0-7.9-3.4-7.9-7.8c0-4.5,3.6-7.9,8-7.9c1.3,0,2.7,0.3,3.8,1V125.4z"/>
	<path fill="#6B6862" d="M670.7,133.8l-1.7,3.8h-2l7.2-15.7l7.2,15.7h-2l-1.7-3.8H670.7z M674.1,126l-2.7,6.1h5.4L674.1,126z"/>
	<path fill="#6B6862" d="M684.5,137.6h-1.9v-15.1h2.2c4.6,0,6.1,1.6,6.1,4.4c0,3.2-2.4,4.4-5.3,4.4h-1.1V137.6z M684.5,129.6h0.6
		c1.9,0,4-0.4,4-2.8c0-2.4-2.2-2.6-4.1-2.6h-0.5V129.6z"/>
	<path fill="#6B6862" d="M694.3,137.6h-1.9v-15.1h1.9V137.6z"/>
	<path fill="#6B6862" d="M701.2,137.6h-1.9v-13.4h-3.6v-1.7h9v1.7h-3.6V137.6z"/>
	<path fill="#6B6862" d="M706.8,133.8l-1.7,3.8h-2l7.2-15.7l7.2,15.7h-2l-1.7-3.8H706.8z M710.2,126l-2.7,6.1h5.4L710.2,126z"/>
	<path fill="#6B6862" d="M720.6,135.9h4.6v1.7h-6.5v-15.1h1.9V135.9z"/>
	<path fill="#6B6862" d="M738.9,125.4c-0.6-0.9-1.3-1.4-2.4-1.4c-1.2,0-2.5,0.8-2.5,2.1c0,1.2,1.2,1.8,2.1,2.2l1.1,0.4
		c2.1,0.8,3.7,2,3.7,4.5c0,2.7-2.1,4.7-4.8,4.7c-2.4,0-4.3-1.8-4.7-4.2l1.9-0.4c0,1.7,1.3,2.9,2.9,2.9s2.8-1.4,2.8-2.9
		c0-1.6-1.3-2.3-2.6-2.9l-1-0.4c-1.7-0.7-3.3-1.7-3.3-3.8c0-2.4,2.2-3.9,4.4-3.9c1.7,0,3.1,0.8,3.9,2.3L738.9,125.4z"/>
	<path fill="#6B6862" d="M744.5,122.5v8.9c0,2.5,0.7,4.7,3.6,4.7c2.9,0,3.6-2.3,3.6-4.7v-8.9h1.9v9.5c0,3.3-2.1,5.9-5.5,5.9
		c-3.5,0-5.5-2.5-5.5-5.9v-9.5H744.5z"/>
	<path fill="#6B6862" d="M765.7,137.6h-2.3l-4.4-6.4h-0.8v6.4h-1.9v-15.1h2.3c1.3,0,2.8,0,4,0.7c1.3,0.7,2,2.2,2,3.6
		c0,2.2-1.4,4-3.6,4.2L765.7,137.6z M758.2,129.6h0.6c1.9,0,4-0.4,4-2.8c0-2.4-2.2-2.7-4.1-2.7h-0.5V129.6z"/>
	<path fill="#6B6862" d="M774.6,122.5v8.9c0,2.5,0.7,4.7,3.6,4.7s3.6-2.3,3.6-4.7v-8.9h1.9v9.5c0,3.3-2.1,5.9-5.5,5.9
		c-3.5,0-5.5-2.5-5.5-5.9v-9.5H774.6z"/>
	<path fill="#6B6862" d="M786.1,121.8l11.3,11.9v-11.1h1.9v15.7L788,126.3v11.2h-1.9V121.8z"/>
	<path fill="#6B6862" d="M802,122.5h8.1v1.7h-6.2v4.2h6v1.7h-6v5.7h6.2v1.7H802V122.5z"/>
	<path fill="#6B6862" d="M820.1,137.6h-1.9v-15.1h2.2c4.6,0,6.1,1.6,6.1,4.4c0,3.2-2.4,4.4-5.3,4.4h-1.1V137.6z M820.1,129.6h0.6
		c1.9,0,4-0.4,4-2.8c0-2.4-2.2-2.6-4.1-2.6h-0.5V129.6z"/>
	<path fill="#6B6862" d="M830,135.9h4.6v1.7h-6.5v-15.1h1.9V135.9z"/>
	<path fill="#6B6862" d="M838,133.8l-1.7,3.8h-2l7.2-15.7l7.2,15.7h-2l-1.7-3.8H838z M841.4,126l-2.7,6.1h5.4L841.4,126z"/>
	<path fill="#6B6862" d="M852.3,137.6h-1.9v-13.4h-3.6v-1.7h9v1.7h-3.6V137.6z"/>
	<path fill="#6B6862" d="M857.4,122.5h8.1v1.7h-6.2v4.2h6v1.7h-6v5.7h6.2v1.7h-8.1V122.5z"/>
	<path fill="#6B6862" d="M869.7,124.2v4.2h5.2v1.7h-5.2v7.4h-1.9v-15.1h7.3v1.7H869.7z"/>
	<path fill="#6B6862" d="M892,130c0,4.5-3.5,7.9-7.9,7.9c-4.4,0-7.9-3.4-7.9-7.9c0-4.3,3.6-7.9,7.9-7.9
		C888.5,122.2,892,125.7,892,130z M890.2,130c0-3.3-2.5-6.1-6-6.1c-3.5,0-6,2.8-6,6.1c0,3.4,2.8,6.1,6,6.1
		C887.4,136.2,890.2,133.5,890.2,130z"/>
	<path fill="#6B6862" d="M903.2,137.6H901l-4.4-6.4h-0.8v6.4h-1.9v-15.1h2.3c1.3,0,2.8,0,4,0.7c1.3,0.7,2,2.2,2,3.6
		c0,2.2-1.4,4-3.6,4.2L903.2,137.6z M895.7,129.6h0.6c1.9,0,4-0.4,4-2.8c0-2.4-2.2-2.7-4.1-2.7h-0.5V129.6z"/>
	<path fill="#6B6862" d="M907.3,127.6L907.3,127.6l-1.8,10h-1.9l3.1-15.7l5.2,11.9l5.2-11.9l3.1,15.7h-1.9l-1.8-10h0l-4.5,10.3
		L907.3,127.6z"/>
	<path fill="#6B6862" d="M921.7,122.5h8.1v1.7h-6.2v4.2h6v1.7h-6v5.7h6.2v1.7h-8.1V122.5z"/>
	<path fill="#6B6862" d="M937.8,122.5h3.1c4.6,0,8.5,2.4,8.5,7.5c0,5.1-3.8,7.6-8.5,7.6h-3.1V122.5z M939.7,135.9h0.7
		c3.8,0,7.2-1.4,7.2-5.8c0-4.4-3.3-5.8-7.2-5.8h-0.7V135.9z"/>
	<path fill="#6B6862" d="M951.2,122.5h8.1v1.7h-6.2v4.2h6v1.7h-6v5.7h6.2v1.7h-8.1V122.5z"/>
	<path fill="#6B6862" d="M611.2,151.4c-1.1-1-2.6-1.5-4-1.5c-3.4,0-6,2.8-6,6.2c0,3.3,2.6,6.1,5.9,6.1c1.5,0,2.9-0.6,4-1.6v2.2
		c-1.2,0.7-2.6,1.1-4,1.1c-4.3,0-7.9-3.4-7.9-7.8c0-4.5,3.6-7.9,8-7.9c1.3,0,2.7,0.3,3.8,1V151.4z"/>
	<path fill="#6B6862" d="M622.9,163.6h-2.3l-4.4-6.4h-0.8v6.4h-1.9v-15.1h2.3c1.3,0,2.8,0,4,0.7c1.3,0.7,2,2.2,2,3.6
		c0,2.2-1.4,4-3.6,4.2L622.9,163.6z M615.4,155.6h0.6c1.9,0,4-0.4,4-2.8c0-2.4-2.2-2.7-4.1-2.7h-0.5V155.6z"/>
	<path fill="#6B6862" d="M639.1,156c0,4.5-3.5,7.9-7.9,7.9c-4.4,0-7.9-3.4-7.9-7.9c0-4.3,3.6-7.9,7.9-7.9
		C635.5,148.2,639.1,151.7,639.1,156z M637.2,156c0-3.3-2.5-6.1-6-6.1c-3.5,0-6,2.8-6,6.1c0,3.4,2.8,6.1,6,6.1
		C634.4,162.2,637.2,159.5,637.2,156z"/>
	<path fill="#6B6862" d="M645.5,159.3l4.3-11.1l4.3,11.1l4.2-10.8h2l-6.3,15.7l-4.3-11.1l-4.3,11.1l-6.3-15.7h2L645.5,159.3z"/>
	<path fill="#6B6862" d="M661.3,148.5h3.1c4.6,0,8.5,2.4,8.5,7.5c0,5.1-3.8,7.6-8.5,7.6h-3.1V148.5z M663.2,161.9h0.7
		c3.8,0,7.2-1.4,7.2-5.8c0-4.4-3.3-5.8-7.2-5.8h-0.7V161.9z"/>
	<path fill="#6B6862" d="M676.6,150.2v4.2h5.2v1.7h-5.2v7.4h-1.9v-15.1h7.3v1.7H676.6z"/>
	<path fill="#6B6862" d="M685.8,148.5v8.9c0,2.5,0.7,4.7,3.6,4.7c2.9,0,3.6-2.3,3.6-4.7v-8.9h1.9v9.5c0,3.3-2.1,5.9-5.5,5.9
		c-3.5,0-5.5-2.5-5.5-5.9v-9.5H685.8z"/>
	<path fill="#6B6862" d="M697.4,147.8l11.3,11.9v-11.1h1.9v15.7l-11.3-11.9v11.2h-1.9V147.8z"/>
	<path fill="#6B6862" d="M713.1,148.5h3.1c4.6,0,8.5,2.4,8.5,7.5c0,5.1-3.8,7.6-8.5,7.6h-3.1V148.5z M715,161.9h0.7
		c3.8,0,7.2-1.4,7.2-5.8c0-4.4-3.3-5.8-7.2-5.8H715V161.9z"/>
	<path fill="#6B6862" d="M728.4,163.6h-1.9v-15.1h1.9V163.6z"/>
	<path fill="#6B6862" d="M731.1,147.8l11.3,11.9v-11.1h1.9v15.7l-11.3-11.9v11.2h-1.9V147.8z"/>
	<path fill="#6B6862" d="M760.7,156v0.6c0,4.1-2.9,7.3-7.1,7.3s-7.6-3.6-7.6-7.8c0-4.3,3.5-7.9,7.8-7.9c2.3,0,4.7,1.1,6.1,2.9
		l-1.3,1.3c-1.1-1.5-2.9-2.5-4.7-2.5c-3.4,0-6,2.7-6,6.1c0,3.2,2.6,6.2,5.9,6.2c2.3,0,4.9-2,4.9-4.5h-3.9V156H760.7z"/>
	<path fill="#6B6862" d="M765.2,162.8c0,0.6-0.5,1.2-1.2,1.2c-0.6,0-1.2-0.5-1.2-1.2c0-0.6,0.5-1.2,1.2-1.2
		C764.6,161.6,765.2,162.1,765.2,162.8z"/>
	<path fill="#6B6862" d="M783.8,152.5c-0.8-1-2.1-1.6-3.3-1.6c-2.8,0-4.4,2.6-4.4,5.2c0,2.5,1.7,5.1,4.4,5.1c1.3,0,2.5-0.7,3.3-1.6
		v3.5c-1.1,0.5-2.2,0.9-3.4,0.9c-4.2,0-7.4-3.7-7.4-7.8c0-4.3,3-8.1,7.4-8.1c1.2,0,2.3,0.3,3.4,0.9V152.5z"/>
	<path fill="#6B6862" d="M792.5,164c-4.6,0-7.5-3.5-7.5-8c0-4.5,3-7.9,7.5-7.9c4.5,0,7.5,3.4,7.5,7.9C800,160.5,797.1,164,792.5,164
		z M792.5,151c-2.8,0-4.4,2.5-4.4,4.9c0,2.3,1.2,5.2,4.4,5.2c3.3,0,4.4-2.9,4.4-5.2C796.9,153.5,795.3,151,792.5,151z"/>
	<path fill="#6B6862" d="M812.7,154.2L812.7,154.2l-3.5,9.6h-1l-3.3-9.6h0l-1.3,9.4h-3l2.5-15.5h2.1l3.7,9.9l3.6-9.9h2.1l2.3,15.5
		h-3L812.7,154.2z"/>
	<path fill="#6B6862" d="M829.4,154.2L829.4,154.2l-3.5,9.6h-1l-3.3-9.6h0l-1.3,9.4h-3l2.5-15.5h2.1l3.7,9.9l3.6-9.9h2.1l2.3,15.5
		h-3L829.4,154.2z"/>
	<path fill="#6B6862" d="M837.8,151.1v3.3h4.7v2.6h-4.7v4.1h4.9v2.6h-7.8v-15.1h7.8v2.6H837.8z"/>
	<path fill="#6B6862" d="M844.6,148.1h2.1l7.9,10.5h0v-10.1h2.9v15.4h-2.1l-7.9-10.5h0v10.2h-2.9V148.1z"/>
	<path fill="#6B6862" d="M864.7,163.6h-2.9v-12.5h-3v-2.6h9v2.6h-3V163.6z"/>
	<path fill="#6B6862" d="M877.5,151.1v3.3h4.3v2.6h-4.3v6.6h-2.9v-15.1h7.5v2.6H877.5z"/>
	<path fill="#6B6862" d="M885.7,160.4l-1.2,3.2h-3.1l5.9-15.5h2.3l5.7,15.5h-3.1l-1.2-3.2H885.7z M888.2,152.5L888.2,152.5l-1.7,5.5
		h3.6L888.2,152.5z"/>
	<path fill="#6B6862" d="M899.1,163.6h-2.9v-15.1h2.9V163.6z"/>
	<path fill="#6B6862" d="M911.4,163.6h-3.6l-3.7-6.1h0v6.1h-2.9v-15.1h4c3,0,5,1.3,5,4.5c0,1.9-1.1,3.8-3.1,4.2L911.4,163.6z
		 M904.2,155.5h0.4c1.6,0,2.8-0.5,2.8-2.3c0-1.9-1.2-2.2-2.7-2.2h-0.4V155.5z"/>
	<path fill="#6B6862" d="M915.3,151.1v3.3h4.7v2.6h-4.7v4.1h4.9v2.6h-7.8v-15.1h7.8v2.6H915.3z"/>
	<path fill="#6B6862" d="M929.8,154.5c0.2,0.1,0.5,0.1,0.7,0.1c1.3,0,2.6-0.8,2.6-2.2c0-0.8-0.5-1.8-1.4-1.8c-0.9,0-1.3,0.8-1.3,1.6
		v0.2h-2.9c-0.1-2.4,1.8-4.3,4.2-4.3c2.5,0,4.3,1.8,4.3,4.3c0,2-1.3,3.7-3.2,4.1l-0.2,1.9h-2.8V154.5z M933,162.2
		c0,1-0.8,1.8-1.8,1.8c-1,0-1.8-0.8-1.8-1.8c0-1,0.8-1.8,1.8-1.8C932.2,160.4,933,161.2,933,162.2z"/>
</g>
</svg>
