<?xml version="1.0" encoding="utf-8"?>
<!-- Generator: Adobe Illustrator 18.0.0, SVG Export Plug-In . SVG Version: 6.00 Build 0)  -->
<!DOCTYPE svg PUBLIC "-//W3C//DTD SVG 1.1//EN" "http://www.w3.org/Graphics/SVG/1.1/DTD/svg11.dtd">
<svg version="1.1" id="Calque_1" xmlns="http://www.w3.org/2000/svg" xmlns:xlink="http://www.w3.org/1999/xlink" x="0px" y="0px"
	 viewBox="0 0 1280 800" enable-background="new 0 0 1280 800" xml:space="preserve">
<rect x="1" y="1" fill="#E0DCD4" width="1280" height="800"/>
<rect x="-1" y="401" fill="#D7D3CB" width="1282" height="400"/>
<ellipse fill="#B7B4AE" cx="480.2" cy="733.9" rx="85.7" ry="15.1"/>
<polyline fill-rule="evenodd" clip-rule="evenodd" fill="#B7B4AE" points="881.3,414.8 850.1,467.9 850.1,419.9 "/>
<polyline fill-rule="evenodd" clip-rule="evenodd" fill="#B7B4AE" points="1047.3,414.8 1016.1,467.9 1016.1,419.9 "/>
<rect x="787" y="403" fill="#B7B4AE" width="312" height="19"/>
<polyline fill="none" stroke="#1B1464" stroke-width="5" stroke-linecap="round" stroke-linejoin="round" stroke-miterlimit="10" points="
	622.9,746.4 640.5,764 658.5,745.9 "/>
<g>
	<path fill="#AB9486" d="M468.3,506c0.9,1.9,0.4,4-1,4.6l0,0c-1.4,0.7-3.3-0.3-4.2-2.2l-2.8-5.9c-0.9-1.9-0.4-4,1-4.6l0,0
		c1.4-0.7,3.3,0.3,4.2,2.2L468.3,506z"/>
	<path fill="#AB9486" d="M446.3,530.9c2,6.1,8.8,9.3,15.3,7.1l0,0c6.5-2.2,10-8.8,7.9-14.9l-7.2-21.5c-2-6.1-8.8-9.3-15.3-7.1l0,0
		c-6.5,2.2-10,8.8-7.9,14.9L446.3,530.9z"/>
	<path opacity="0.5" fill="#897567" d="M447.5,494.2c-6.5,2.2-10,8.8-7.9,14.9l2.9,8.5l22.5-10l-2.1-6.3
		C460.8,495.2,454,492,447.5,494.2z"/>
	<g>
		<path fill="#897567" d="M459.7,511.5c-0.3,0.1-0.5,0.5-0.4,0.8l7.5,22.5c0.3-0.4,0.7-0.7,0.9-1.1l-7.3-21.7
			C460.4,511.6,460.1,511.4,459.7,511.5z"/>
		<path fill="#897567" d="M453.2,513.7c-0.3,0.1-0.5,0.5-0.4,0.8l8,23.8c0.3-0.1,0.6-0.2,0.9-0.3c0.1,0,0.2-0.1,0.3-0.1l-8-23.8
			C453.9,513.7,453.5,513.6,453.2,513.7z"/>
		<path fill="#897567" d="M446.6,515.9c-0.3,0.1-0.5,0.5-0.4,0.8l7.1,21.3c0.5,0.2,1,0.3,1.5,0.4l-7.4-22.1
			C447.3,515.9,447,515.8,446.6,515.9z"/>
	</g>
	<path fill="#2B2B2B" d="M546.9,446.7"/>
	<path fill="#2B2B2B" d="M539.9,446.7"/>
	<rect x="471" y="706" fill="#FFFFFF" width="12" height="11"/>
	<rect x="544" y="707" fill="#FFFFFF" width="11" height="10"/>
	<rect x="470" y="496" fill="#002846" width="88" height="19"/>
	<rect x="541" y="496" fill="#002033" width="18" height="215"/>
	<rect x="468" y="496" fill="#002846" width="17" height="215"/>
	<polygon fill="#AB9486" points="441.3,500 438.6,493.5 449.2,488.5 452,494.6 	"/>
	<rect x="497" y="329" fill="#AB9486" width="31" height="17"/>
	<circle fill="#AB9486" cx="457" cy="299" r="9.7"/>
	<path fill="#AB9486" d="M546.5,237.7l-34.1-7.6l-34.1,7.6L460,266.2v33.6c0,0,2.8,32.3,52.5,32.3c49.7,0,52.5-32.3,52.5-32.3v-33.6
		L546.5,237.7z"/>
	<g>
		<path fill="#897567" d="M546.2,237.7l-34.2-7.5v58.4v19.6V332c53,0,53-32.8,53-32.8V266L546.2,237.7z"/>
	</g>
	<circle fill="#897567" cx="567" cy="299" r="9.7"/>
	<g>
		<path fill="#99A9B5" d="M571,398.8c0-29.9-24.5-53.8-54.5-53.8h-9.1c-29.9,0-55.4,23.8-55.4,53.8V501h119V398.8z"/>
	</g>
	<path fill="none" stroke="#828282" stroke-width="0.6551" stroke-miterlimit="10" d="M512.3,359.9"/>
	<g>
		<g>
			<path fill="#AFAFAF" d="M440.6,358.6c1.3,0,1.3-2,0-2S439.3,358.6,440.6,358.6L440.6,358.6z"/>
		</g>
	</g>
	<path fill="#99A9B5" d="M437.9,495.5c-7.9-19-11.6-37.3-11-54.4c0.5-13.9,3.8-27.1,9.8-39.2c10.3-20.6,25.1-30.7,25.7-31.2
		l8.4,12.5l0,0c-0.1,0.1-12.5,8.8-21,26.1c-11.3,23.1-10.7,50.2,1.9,80.4L437.9,495.5z"/>
	<path d="M541.3,713.7c0,0,5.5,8.1,14.9-0.1l37.3,13.5c0,0,4.9,0.4,4.9,8h-58.9L541.3,713.7z"/>
	<path d="M484.9,713.7c0,0-5.5,8.1-14.8-0.1L445.9,727c0,0-4.9,0.4-4.9,8h45.7L484.9,713.7z"/>
	<rect x="467.2" y="501" width="91.7" height="0"/>
	<polygon fill="#002033" points="541,513.6 529,501 541,501 	"/>
	<path fill="#002033" d="M529.5,216.3c-40.9-8.5-45,14.8-45,14.8s-26.5-6.9-26.5,31.1V292h0.2l-0.1,1.4c0,0-2.9,39,55,39
		c0,0,53.8,1.9,53.8-39.1c0-0.3,0-1.3,0-1.3h1.1v-38C568,254,570.3,224.8,529.5,216.3z"/>
	
		<rect x="535.7" y="285.2" transform="matrix(0.692 -0.7219 0.7219 0.692 -44.7778 481.1869)" fill="#AB9486" width="11.6" height="15.7"/>
	<path fill="#99A9B5" d="M626.6,408.2c-1.3,0-2.8-0.1-4.3-0.4c-3.2-0.6-5.9-1.6-6.2-1.7l-0.2-0.1l-69.1-28.4l5.7-13.9l68.9,28.3
		c-9.5-15.1-64.1-72.4-84.8-93.7l10.8-10.5c7.9,8.1,77.7,80.1,87.7,97.8c2,3.5,3.1,6.4,3.5,9.1c0.8,4.7-0.9,7.8-2.4,9.6
		C634,406.9,630.8,408.2,626.6,408.2z"/>
	<rect x="494" y="340" fill="#7A8E99" width="36" height="9"/>
	<rect x="494" y="346" fill="#BCBCBC" width="36" height="2"/>
	<path fill="#001621" d="M506.1,254.7c-0.4,0-0.7-0.2-0.8-0.6c-0.1-0.5,0.1-1,0.6-1.1c4.8-1.4,17.2-6.5,16.8-12.5
		c0-0.5,0.3-0.9,0.8-0.9c0.5,0,0.9,0.3,1,0.8l1.5,11.1c0.1,0.5-0.3,0.9-0.8,1c-0.5,0.1-0.9-0.3-1-0.8l-1-7.1
		c-4,6.2-16.3,9.9-16.9,10.1C506.3,254.7,506.2,254.7,506.1,254.7z"/>
	<g>
		<path fill="#AB9486" d="M526.2,257.8c-4.2-4.9-11.7-5.3-16.9-0.9l0,0c-5.2,4.4-5.9,11.9-1.7,16.8l14.7,17.2
			c4.2,4.9,11.7,5.3,16.9,0.9l0,0c5.2-4.4,5.9-11.9,1.7-16.8L526.2,257.8z"/>
		<path fill="#AB9486" d="M512.4,285.2c-2.5-0.2-4.7,1.3-4.9,3.5l0,0c-0.2,2.1,1.7,4.1,4.1,4.3l17.2,1.6c2.5,0.2,4.7-1.3,4.9-3.5
			l0,0c0.2-2.1-1.7-4.1-4.1-4.3L512.4,285.2z"/>
		<g>
			<path fill="#897567" d="M521.1,280.8c0.3-0.2,0.3-0.6,0.1-0.9l-15.4-18c-0.2,0.5-0.3,0.9-0.5,1.4l14.9,17.4
				C520.5,281,520.9,281,521.1,280.8z"/>
			<path fill="#897567" d="M526.4,276.3c0.3-0.2,0.3-0.6,0.1-0.9l-16.3-19.1c-0.3,0.2-0.5,0.4-0.7,0.6c-0.1,0.1-0.2,0.1-0.2,0.2
				l16.4,19.1C525.7,276.5,526.1,276.5,526.4,276.3z"/>
			<path fill="#897567" d="M531.6,271.8c0.3-0.2,0.3-0.6,0.1-0.9l-14.6-17.1c-0.5,0-1,0.1-1.5,0.2l15.2,17.7
				C531,272,531.4,272,531.6,271.8z"/>
		</g>
		<path opacity="0.5" fill="#897567" d="M509.1,257.3c-5,4.7-5.4,12.2-1,16.9l6.2,6.6l16.2-18.6l-4.5-4.8
			C521.6,252.6,514,252.6,509.1,257.3z"/>
	</g>
</g>
<g>
	<g>
		<path fill-rule="evenodd" clip-rule="evenodd" fill="#002846" d="M846.6,235.7c-1.1,4.4-3.3,8.6-5,12.9c-0.6-0.3-1.2-0.5-1.8-0.8
			c0.4-13.1,3.2-25.6,13.7-34.3c7-5.8,10.6-13.1,13.8-21.4c-6.6,2.3-13,4.8-19,8.3c-6.4,3.7-7.8,9.3-6.4,16.6
			c0.7,3.9-0.2,8.1-0.5,12.2c-0.7,0-1.4-0.1-2-0.1c-0.5-3.9-1.4-7.7-1.5-11.6c-0.3-11,1.3-20.8,13.6-25.8c4.5-1.8,8.7-6.3,11.2-10.7
			c4.4-7.6,7.3-16,10.8-24c-0.5-0.3-0.9-0.6-1.4-0.9c-12.6,6.8-26.9,11.3-33,25.9c0-8.6,1.2-17.1-0.3-25.2
			c-1.7-9-7.4-15.7-17.8-17.4c-0.2,13.3,0.8,26,10.1,35.9c3.4,3.6,4.1,7.1,3.7,11.6c-0.4,4.4-0.2,8.9-0.2,13.3c0,2.6,0,5.1,0,7.7
			c-0.5,0.1-1,0.1-1.5,0.2c-2.4-10.2-3.7-20.8-7.6-30.4c-4.1-10-12-17.5-23.5-21.1c0.4,15.6,1.3,29.9,18,36.8
			c3.4,1.4,6.7,5.1,8.2,8.6c3.1,7.3,5.3,15.1,7.3,22.8c0.9,3.3,0.5,7,0.6,10.5c-0.6,0.1-1.2,0.1-1.8,0.2c-1-5.6-2.1-11.3-3.1-16.9
			c-2.5-13.3-13.2-21.4-26.8-20.3c1.2,10.1,4.7,16.5,13,21.5c11.2,6.8,17.4,16.7,18.8,30.1c-6.6-15.4-14.9-28.5-34-27.5
			c4.1,17.9,8.5,22.3,26.1,25.2c6.1,1,8.1,3.9,7.6,10.2c-0.1,1-0.2,1.7-0.5,2.4c0,0,0.1,0,0.1,0c2.5,0.1,5,0,7.5-0.1
			c-0.4-0.6-0.7-1.4-0.9-2.4c-1.1-5.5,1.7-11.9,6.9-14.1c12.8-5.4,16.1-16.8,19.4-28.8C856.5,216.7,849.5,223.7,846.6,235.7z"/>
		<path fill-rule="evenodd" clip-rule="evenodd" fill="#002033" d="M870.9,158.2c0,0-24.5,25.2-29.3,35.3
			C841.5,193.6,859.9,193.5,870.9,158.2z"/>
		<path fill-rule="evenodd" clip-rule="evenodd" fill="#002033" d="M823.8,142.4l12.4,34.8C836.2,177.2,843.2,141.7,823.8,142.4z"/>
		<path fill-rule="evenodd" clip-rule="evenodd" fill="#002033" d="M844.9,224.3c0,0,2.3-25,19.8-30.5
			C864.7,193.8,848.8,212.5,844.9,224.3z"/>
		<path fill-rule="evenodd" clip-rule="evenodd" fill="#002033" d="M805.7,160.7l21.4,35.6C827.2,196.3,832.5,173.8,805.7,160.7z"/>
		<path fill-rule="evenodd" clip-rule="evenodd" fill="#002033" d="M866.9,216.7l-20.9,27.1C846.1,243.8,861.6,239.8,866.9,216.7z"
			/>
		<path fill-rule="evenodd" clip-rule="evenodd" fill="#002033" d="M806.8,199.5l24.8,30.7C831.7,230.2,831.7,207.1,806.8,199.5z"/>
		<path fill-rule="evenodd" clip-rule="evenodd" fill="#002033" d="M805.7,224.3l26,20.6C831.7,244.9,832.5,231.6,805.7,224.3z"/>
		<rect x="817" y="259" fill-rule="evenodd" clip-rule="evenodd" fill="#CE9F51" width="45" height="8"/>
		<polygon fill-rule="evenodd" clip-rule="evenodd" fill="#D8AE73" points="851.3,291 828.8,291 821.1,267 859,267 		"/>
		<polygon opacity="0.6" fill-rule="evenodd" clip-rule="evenodd" fill="#CE9F51" points="840,259 840,291 851.3,291 859,267 
			862,267 862,259 		"/>
	</g>
	<g>
		<path fill-rule="evenodd" clip-rule="evenodd" fill="#002846" d="M1059.9,221.8c0.6-11.4,1.1-22.8,1.7-34.3c0.8,0,1.6,0,2.4,0.1
			c0,8.1,0,16.2,0,24.3c0.8,0.1,1.5,0.1,2.3,0.2c2.6-20.3,5.2-40.5,7.7-60.8c0.4-0.1,0.8-0.3,1.3-0.4c0.5,2.7,1.4,5.5,1.4,8.2
			c0.1,14.2-0.1,28.4-0.2,42.6c0,0.8,0.2,1.5,1.6,2.5c2.9-10.7,5.8-21.4,9.1-33.8c0.5,4.1,1,6.9,1.1,9.8c0.2,2.9,0,5.8,0,10.7
			c9.4-13.6,17.6-25.7,25.9-37.8c0.5,0.3,1,0.6,1.5,0.9c-12,26.2-24.1,52.4-36.1,78.7c0.6,0.3,1.3,0.7,1.9,1
			c5.2-8.1,10.5-16.2,15.7-24.3c0.5,0.3,0.9,0.5,1.4,0.8c-4.2,8.6-7.4,17.9-12.8,25.7c-7.7,10.9-7.8,23.5-10.3,35.6
			c-0.3,1.4-0.2,3-0.2,4.4c-0.6,11.8-8.8,16.9-19.8,11.8c-2.1-1-3.6-4.4-4.2-7c-1.8-6.9-3.3-13.9-4.4-21
			c-2.4-15.5-13.6-27.1-17.7-41.9c-0.4-1.5-1.1-3-1.6-4.5c0.5-0.3,1.1-0.6,1.6-0.9c5.2,9.6,10.3,19.2,15.5,28.7
			c0.6-0.3,1.2-0.6,1.8-0.9c-7.1-16.1-14.2-32.2-21.2-48.3c0.1-0.3,0.3-0.5,0.4-0.8c2.5,3.3,5.1,6.5,7.6,9.8
			c0.4-0.4,0.9-0.8,1.3-1.2c-4.3-18.7-15.1-33.8-27.3-48.1c21.8,12.8,31,34.7,41.2,56c-2.2-18.8-4.3-37.7-6.5-56.5
			c0.5-0.1,0.9-0.2,1.4-0.2c4.7,23.7,9.3,47.5,14,71.2C1058.4,222.1,1059.2,221.9,1059.9,221.8z"/>
		<polygon fill-rule="evenodd" clip-rule="evenodd" fill="#002033" points="1114.6,156.7 1078.2,216.1 1083,219.4 		"/>
		<polygon fill-rule="evenodd" clip-rule="evenodd" fill="#002033" points="1075.1,154.4 1071.3,207.1 1075.8,203 		"/>
		<polygon fill-rule="evenodd" clip-rule="evenodd" fill="#002033" points="1072.3,220 1077.8,220 1069.5,266 		"/>
		<polygon fill-rule="evenodd" clip-rule="evenodd" fill="#002033" points="1088.4,191 1084.6,197 1087.3,170.5 		"/>
		<polygon fill-rule="evenodd" clip-rule="evenodd" fill="#002033" points="1098.8,210.2 1074.4,250 1077,250 		"/>
		<polygon fill-rule="evenodd" clip-rule="evenodd" fill="#002033" points="1063,188.1 1061.7,240 1063,240 1064,188.4 		"/>
		<polygon fill-rule="evenodd" clip-rule="evenodd" fill="#002033" points="1029.1,213.1 1049.3,257.4 1052.2,257.2 		"/>
		<polygon fill-rule="evenodd" clip-rule="evenodd" fill="#002033" points="1025.9,191.3 1045.4,226.4 1048.3,220.9 		"/>
		<polygon fill-rule="evenodd" clip-rule="evenodd" fill="#002033" points="1018.9,163.1 1037.9,198.8 1041.3,197 		"/>
		<polygon fill-rule="evenodd" clip-rule="evenodd" fill="#002033" points="1042.4,153.3 1052,205 1054.1,205 		"/>
		<polygon fill-rule="evenodd" clip-rule="evenodd" fill="#002033" points="1065.6,242.5 1061.8,259.9 1066.3,255.8 		"/>
		<polygon fill-rule="evenodd" clip-rule="evenodd" fill="#002033" points="1056.7,239.3 1056.5,259.8 1051.6,234.2 		"/>
		<rect x="1038" y="256" fill-rule="evenodd" clip-rule="evenodd" fill="#CE9F51" width="48" height="9"/>
		<polygon fill-rule="evenodd" clip-rule="evenodd" fill="#D8AE73" points="1074.5,291 1049.6,291 1041,265 1083.1,265 		"/>
		<polygon opacity="0.6" fill-rule="evenodd" clip-rule="evenodd" fill="#CE9F51" points="1062,256 1062,291 1074.5,291 1083.1,265 
			1086,265 1086,256 		"/>
	</g>
	<rect x="804.7" y="290.5" fill-rule="evenodd" clip-rule="evenodd" fill="#CE9F51" width="33.1" height="99.3"/>
	<rect x="809.8" y="296.5" fill-rule="evenodd" clip-rule="evenodd" fill="#FFFFFF" width="24" height="47.7"/>
	<ellipse fill-rule="evenodd" clip-rule="evenodd" fill="#002033" cx="821.9" cy="357" rx="6.6" ry="6.9"/>
	<path fill="#F7F4F0" d="M821.9,350.7c-3.3,0-6,2.8-6,6.3c0,3.5,2.7,6.3,6,6.3c3.3,0,6-2.8,6-6.3
		C827.9,353.5,825.2,350.7,821.9,350.7z M821.9,364.6c-4,0-7.2-3.4-7.2-7.6c0-4.2,3.2-7.6,7.2-7.6c4,0,7.2,3.4,7.2,7.6
		C829.1,361.2,825.9,364.6,821.9,364.6z"/>
	<rect x="839.8" y="290.5" fill-rule="evenodd" clip-rule="evenodd" fill="#CE9F51" width="33.1" height="99.3"/>
	<rect x="844.9" y="296.5" fill-rule="evenodd" clip-rule="evenodd" fill="#FFFFFF" width="24" height="47.7"/>
	<ellipse fill-rule="evenodd" clip-rule="evenodd" fill="#002033" cx="857" cy="357" rx="6.6" ry="6.9"/>
	<path fill="#F7F4F0" d="M857,350.7c-3.3,0-6,2.8-6,6.3c0,3.5,2.7,6.3,6,6.3c3.3,0,6-2.8,6-6.3C863,353.5,860.4,350.7,857,350.7z
		 M857,364.6c-4,0-7.2-3.4-7.2-7.6c0-4.2,3.2-7.6,7.2-7.6c4,0,7.2,3.4,7.2,7.6C864.3,361.2,861,364.6,857,364.6z"/>
	<rect x="874.8" y="290.5" fill-rule="evenodd" clip-rule="evenodd" fill="#CE9F51" width="33.1" height="99.3"/>
	<rect x="880" y="296.5" fill-rule="evenodd" clip-rule="evenodd" fill="#FFFFFF" width="24" height="47.7"/>
	<ellipse fill-rule="evenodd" clip-rule="evenodd" fill="#002033" cx="892.2" cy="357" rx="6.6" ry="6.9"/>
	<path fill="#F7F4F0" d="M892.2,350.7c-3.3,0-6,2.8-6,6.3c0,3.5,2.7,6.3,6,6.3c3.3,0,6-2.8,6-6.3
		C898.2,353.5,895.5,350.7,892.2,350.7z M892.2,364.6c-4,0-7.2-3.4-7.2-7.6c0-4.2,3.2-7.6,7.2-7.6c4,0,7.2,3.4,7.2,7.6
		C899.4,361.2,896.2,364.6,892.2,364.6z"/>
	<rect x="910.3" y="290.5" fill-rule="evenodd" clip-rule="evenodd" fill="#CE9F51" width="33.1" height="99.3"/>
	<rect x="915.4" y="296.5" fill-rule="evenodd" clip-rule="evenodd" fill="#FFFFFF" width="24" height="47.7"/>
	<ellipse fill-rule="evenodd" clip-rule="evenodd" fill="#002033" cx="927.3" cy="357" rx="6.6" ry="6.9"/>
	<path fill="#F7F4F0" d="M927.3,350.7c-3.3,0-6,2.8-6,6.3s2.7,6.3,6,6.3c3.3,0,6-2.8,6-6.3S930.7,350.7,927.3,350.7z M927.3,364.6
		c-4,0-7.2-3.4-7.2-7.6c0-4.2,3.2-7.6,7.2-7.6c4,0,7.2,3.4,7.2,7.6C934.6,361.2,931.3,364.6,927.3,364.6z"/>
	<rect x="945.3" y="290.5" fill-rule="evenodd" clip-rule="evenodd" fill="#CE9F51" width="33.1" height="99.3"/>
	<rect x="950.5" y="296.5" fill-rule="evenodd" clip-rule="evenodd" fill="#FFFFFF" width="24" height="47.7"/>
	<ellipse fill-rule="evenodd" clip-rule="evenodd" fill="#002033" cx="962.5" cy="357" rx="6.6" ry="6.9"/>
	<path fill="#F7F4F0" d="M962.5,350.7c-3.3,0-6,2.8-6,6.3s2.7,6.3,6,6.3c3.3,0,6-2.8,6-6.3S965.8,350.7,962.5,350.7z M962.5,364.6
		c-4,0-7.2-3.4-7.2-7.6c0-4.2,3.2-7.6,7.2-7.6c4,0,7.2,3.4,7.2,7.6C969.7,361.2,966.5,364.6,962.5,364.6z"/>
	<rect x="980.4" y="290.5" fill-rule="evenodd" clip-rule="evenodd" fill="#CE9F51" width="33.1" height="99.3"/>
	<rect x="985.5" y="296.5" fill-rule="evenodd" clip-rule="evenodd" fill="#FFFFFF" width="24" height="47.7"/>
	<ellipse fill-rule="evenodd" clip-rule="evenodd" fill="#002033" cx="997.6" cy="357" rx="6.6" ry="6.9"/>
	<path fill="#F7F4F0" d="M997.6,350.7c-3.3,0-6,2.8-6,6.3s2.7,6.3,6,6.3c3.3,0,6-2.8,6-6.3S1001,350.7,997.6,350.7z M997.6,364.6
		c-4,0-7.2-3.4-7.2-7.6c0-4.2,3.2-7.6,7.2-7.6c4,0,7.2,3.4,7.2,7.6C1004.9,361.2,1001.6,364.6,997.6,364.6z"/>
	<rect x="1015.5" y="290.5" fill-rule="evenodd" clip-rule="evenodd" fill="#CE9F51" width="33.1" height="99.3"/>
	<rect x="1020.6" y="296.5" fill-rule="evenodd" clip-rule="evenodd" fill="#FFFFFF" width="24" height="47.7"/>
	<ellipse fill-rule="evenodd" clip-rule="evenodd" fill="#002033" cx="1032.8" cy="357" rx="6.6" ry="6.9"/>
	<path fill="#F7F4F0" d="M1032.8,350.7c-3.3,0-6,2.8-6,6.3c0,3.5,2.7,6.3,6,6.3c3.3,0,6-2.8,6-6.3
		C1038.8,353.5,1036.1,350.7,1032.8,350.7z M1032.8,364.6c-4,0-7.2-3.4-7.2-7.6c0-4.2,3.2-7.6,7.2-7.6s7.2,3.4,7.2,7.6
		C1040,361.2,1036.8,364.6,1032.8,364.6z"/>
	<rect x="1050.9" y="290.5" fill-rule="evenodd" clip-rule="evenodd" fill="#CE9F51" width="33.1" height="99.3"/>
	<rect x="1056" y="296.5" fill-rule="evenodd" clip-rule="evenodd" fill="#FFFFFF" width="24" height="47.7"/>
	<ellipse fill-rule="evenodd" clip-rule="evenodd" fill="#002033" cx="1068" cy="357" rx="6.6" ry="6.9"/>
	<path fill="#F7F4F0" d="M1068,350.7c-3.3,0-6,2.8-6,6.3c0,3.5,2.7,6.3,6,6.3s6-2.8,6-6.3C1074,353.5,1071.3,350.7,1068,350.7z
		 M1068,364.6c-4,0-7.2-3.4-7.2-7.6c0-4.2,3.2-7.6,7.2-7.6c4,0,7.2,3.4,7.2,7.6C1075.2,361.2,1071.9,364.6,1068,364.6z"/>
	<g>
		<path fill="#002846" d="M819.8,317.2l0.6-1.1h2.4v11h-1.2v-9.9H819.8z"/>
	</g>
	<g>
		<path fill="#002846" d="M859.9,325.9v1.1h-7.1l5.1-6.1c0.4-0.5,0.7-1.1,0.7-1.8c0-1.2-1-2.1-2.2-2.1c-1.3,0-2.2,1-2.2,2.3H853
			c0-1.9,1.5-3.4,3.4-3.4c1.8,0,3.5,1.3,3.5,3.2c0,0.9-0.3,1.7-0.8,2.3l-3.8,4.5H859.9z"/>
	</g>
	<g>
		<path fill="#002846" d="M891.1,320.7c1.2,0,2.2-0.4,2.2-1.8c0-1.2-0.8-1.9-1.9-1.9c-1.1,0-1.7,0.7-1.8,1.8h-1.2
			c0.2-1.7,1.2-2.9,3-2.9c1.8,0,3.1,1.2,3.1,3c0,1-0.5,2-1.4,2.4c1.1,0.5,1.6,1.6,1.6,2.7c0,1.9-1.5,3.3-3.4,3.3
			c-1.8,0-3.2-1.2-3.3-3h1.2c0.1,1.1,1,1.9,2.1,1.9c1.2,0,2.1-1,2.1-2.2c0-1.4-1-2.1-2.3-2.1V320.7z"/>
	</g>
	<g>
		<path fill="#002846" d="M931.4,324.1v1.1H930v1.8h-1.2v-1.8h-5.6l6.8-9.8h0v8.7H931.4z M928.8,319.2L928.8,319.2l-3.5,5h3.5V319.2
			z"/>
	</g>
	<g>
		<path fill="#002846" d="M962.3,317.2l-0.7,2.3l0.7-0.1c2.2,0,3.7,1.7,3.7,3.8c0,2.3-1.8,3.9-4,3.9c-1.4,0-2.6-0.7-3.4-2l1-0.7
			c0.5,0.9,1.4,1.5,2.4,1.5c1.6,0,2.8-1.2,2.8-2.8c0-1.6-1.2-2.7-2.7-2.7c-0.8,0-1.5,0.3-2.1,0.7l1.6-5.3h4.4v1.1H962.3z"/>
	</g>
	<g>
		<path fill="#002846" d="M998.7,316.5l-2.5,3.4l0,0c0.1-0.1,0.3-0.1,0.5-0.1c0.2,0,0.3,0,0.5,0c2,0,3.6,1.6,3.6,3.6
			c0,2.1-1.7,3.8-3.8,3.8c-2.1,0-3.8-1.7-3.8-3.8c0-1,0.5-1.9,1-2.6l3.6-5L998.7,316.5z M999.5,323.5c0-1.4-1.2-2.5-2.6-2.5
			c-1.4,0-2.6,1.1-2.6,2.5s1.1,2.6,2.6,2.6C998.4,326.1,999.5,324.9,999.5,323.5z"/>
	</g>
	<g>
		<path fill="#002846" d="M1029,317.2V316h8.1l-7.4,11.2l-1-0.6l6.2-9.5H1029z"/>
	</g>
	<g>
		<path fill="#002846" d="M1070.8,318.9c0,1-0.5,1.9-1.3,2.4c1,0.5,1.6,1.5,1.6,2.6c0,1.9-1.5,3.3-3.4,3.3s-3.4-1.4-3.4-3.3
			c0-1.1,0.6-2.2,1.6-2.6c-0.8-0.5-1.3-1.4-1.3-2.4c0-1.8,1.4-3.1,3.1-3.1S1070.8,317.2,1070.8,318.9z M1065.6,324
			c0,1.2,0.9,2.1,2.1,2.1s2.1-0.9,2.1-2.1c0-1.2-0.9-2.1-2.1-2.1S1065.6,322.8,1065.6,324z M1065.9,318.9c0,1.1,0.9,1.9,1.9,1.9
			s1.9-0.9,1.9-1.9c0-1-0.9-1.9-1.9-1.9S1065.9,317.8,1065.9,318.9z"/>
	</g>
	<g>
		<g>
			<path fill="#002846" d="M995,289.7v0.3c0-6.4-5.6-10-12.1-10h-68.7c-6.4,0-11.2,3.8-11.2,10.2v-0.4c0,0.1-0.4,1.2-0.4,1.2h91.9
				C994.6,291,995,289.8,995,289.7z"/>
		</g>
		
			<polyline fill="none" stroke="#002846" stroke-width="6" stroke-linecap="round" stroke-linejoin="round" stroke-miterlimit="10" points="
			988,245 997,245 997,272 		"/>
		<path fill="#D8AE73" d="M991,250c0-9.9-8.1-18-18-18h-15c-9.9,0-18,8.1-18,18v11c0,9.9,8.1,18,18,18h15c9.9,0,18-8.1,18-18V250z"
			/>
		<path fill="#002846" d="M996,210c0,9.4-7.6,17-17,17H939c-9.4,0-17-7.6-17-17V190c0-9.4,7.6-17,17-17H979c9.4,0,17,7.6,17,17V210z
			"/>
		<g>
			<path fill="#002033" d="M983,289.7v0.3c0-6.4-4.8-10-11.2-10h-57.3c-6.4,0-11.5,3.8-11.5,10.2v-0.4c0,0.1-0.1,1.2-0.1,1.2h80.5
				C983.4,291,983,289.8,983,289.7z"/>
		</g>
		<g>
			<path fill="#5B370D" d="M941,259.6c0,9.5,7.7,16.4,17.2,16.4h14.5c9.5,0,16.3-6.9,16.3-16.4V259h-48V259.6z"/>
		</g>
		<path fill="#002846" d="M974,231c0-0.6-0.4-1-1-1h-23c-0.6,0-1,0.4-1,1l0,0c0,0.6,0.4,1,1,1h23C973.6,232,974,231.6,974,231
			L974,231z"/>
		<rect x="945" y="225" fill="#002033" width="28" height="4"/>
		<path fill="#002033" d="M955,189.2c0-9.4-8.3-16.2-17.7-16.2h-19.8c-9.4,0-17.5,6.8-17.5,16.2V291h55V189.2z"/>
		<path fill="#D8AE73" d="M907,266.3c0,1.2-0.7,2.2-1.5,2.2l0,0c-0.8,0-1.5-1-1.5-2.2v-74c0-1.2,0.7-2.2,1.5-2.2l0,0
			c0.8,0,1.5,1,1.5,2.2V266.3z"/>
	</g>
	<rect x="956" y="232" fill="#5B370D" width="2" height="27"/>
	<rect x="787" y="387" fill-rule="evenodd" clip-rule="evenodd" fill="#002846" width="313" height="16"/>
	<polyline fill-rule="evenodd" clip-rule="evenodd" fill="#002846" points="1047.2,395.8 1016,448.2 1016.1,400.9 	"/>
	<polyline fill-rule="evenodd" clip-rule="evenodd" fill="#002846" points="881.3,395.8 850.1,448.9 850.1,400.9 	"/>
</g>
<g>
	<path fill="#6B6862" d="M586,76.2l-1.3-1.3c-1.2,0.9-2.9,1.3-4.3,1.3c-4.4,0-7.9-3.4-7.9-7.9c0-4.3,3.6-7.9,7.9-7.9
		c4.3,0,7.9,3.5,7.9,7.9c0,2.1-0.9,4.2-2.4,5.6l2.3,2.3H586z M584.6,72.6c1.2-1,1.8-2.8,1.8-4.2c0-3.3-2.5-6.1-6-6.1
		c-3.5,0-6,2.8-6,6.1c0,3.4,2.8,6.1,6,6.1c0.9,0,2.1-0.3,3-0.9l-3.5-3.4h2.3L584.6,72.6z"/>
	<path fill="#6B6862" d="M591.7,60.8v8.9c0,2.5,0.7,4.7,3.6,4.7c2.9,0,3.6-2.3,3.6-4.7v-8.9h1.9v9.5c0,3.3-2.1,5.9-5.5,5.9
		c-3.5,0-5.5-2.5-5.5-5.9v-9.5H591.7z"/>
	<path fill="#6B6862" d="M603.5,60.8h8.1v1.7h-6.2v4.2h6v1.7h-6v5.7h6.2v1.7h-8.1V60.8z"/>
	<path fill="#6B6862" d="M615.8,74.2h4.6v1.7h-6.5V60.8h1.9V74.2z"/>
	<path fill="#6B6862" d="M623.5,74.2h4.6v1.7h-6.5V60.8h1.9V74.2z"/>
	<path fill="#6B6862" d="M629.3,60.8h8.1v1.7h-6.2v4.2h6v1.7h-6v5.7h6.2v1.7h-8.1V60.8z"/>
	<path fill="#6B6862" d="M646.4,63.7c-0.6-0.9-1.3-1.4-2.4-1.4c-1.2,0-2.5,0.8-2.5,2.1c0,1.2,1.2,1.8,2.1,2.2l1.1,0.4
		c2.1,0.8,3.7,2,3.7,4.5c0,2.7-2.1,4.7-4.8,4.7c-2.4,0-4.3-1.8-4.7-4.2l1.9-0.4c0,1.7,1.3,2.9,2.9,2.9c1.6,0,2.8-1.4,2.8-2.9
		c0-1.6-1.3-2.3-2.6-2.9l-1-0.4c-1.7-0.7-3.3-1.7-3.3-3.8c0-2.4,2.2-3.9,4.4-3.9c1.7,0,3.1,0.8,3.9,2.3L646.4,63.7z"/>
	<path fill="#6B6862" d="M662.9,63.7c-0.6-0.9-1.3-1.4-2.4-1.4c-1.2,0-2.5,0.8-2.5,2.1c0,1.2,1.2,1.8,2.1,2.2l1.1,0.4
		c2.1,0.8,3.7,2,3.7,4.5c0,2.7-2.1,4.7-4.8,4.7c-2.4,0-4.3-1.8-4.7-4.2l1.9-0.4c0,1.7,1.3,2.9,2.9,2.9c1.6,0,2.8-1.4,2.8-2.9
		c0-1.6-1.3-2.3-2.6-2.9l-1-0.4c-1.7-0.7-3.3-1.7-3.3-3.8c0-2.4,2.2-3.9,4.4-3.9c1.7,0,3.1,0.8,3.9,2.3L662.9,63.7z"/>
	<path fill="#6B6862" d="M681.7,68.4c0,4.5-3.5,7.9-7.9,7.9c-4.4,0-7.9-3.4-7.9-7.9c0-4.3,3.6-7.9,7.9-7.9
		C678.1,60.5,681.7,64.1,681.7,68.4z M679.8,68.4c0-3.3-2.5-6.1-6-6.1c-3.5,0-6,2.8-6,6.1c0,3.4,2.8,6.1,6,6.1
		C677.1,74.5,679.8,71.8,679.8,68.4z"/>
	<path fill="#6B6862" d="M683.3,60.1L694.7,72V60.8h1.9v15.7l-11.3-11.9v11.2h-1.9V60.1z"/>
	<path fill="#6B6862" d="M703.3,75.9h-1.9V62.6h-3.6v-1.7h9v1.7h-3.6V75.9z"/>
	<path fill="#6B6862" d="M716,74.2h4.6v1.7h-6.5V60.8h1.9V74.2z"/>
	<path fill="#6B6862" d="M721.8,60.8h8.1v1.7h-6.2v4.2h6v1.7h-6v5.7h6.2v1.7h-8.1V60.8z"/>
	<path fill="#6B6862" d="M738.9,63.7c-0.6-0.9-1.3-1.4-2.4-1.4c-1.2,0-2.5,0.8-2.5,2.1c0,1.2,1.2,1.8,2.1,2.2l1.1,0.4
		c2.1,0.8,3.7,2,3.7,4.5c0,2.7-2.1,4.7-4.8,4.7c-2.4,0-4.3-1.8-4.7-4.2l1.9-0.4c0,1.7,1.3,2.9,2.9,2.9c1.6,0,2.8-1.4,2.8-2.9
		c0-1.6-1.3-2.3-2.6-2.9l-1-0.4c-1.7-0.7-3.3-1.7-3.3-3.8c0-2.4,2.2-3.9,4.4-3.9c1.7,0,3.1,0.8,3.9,2.3L738.9,63.7z"/>
	<path fill="#6B6862" d="M750.6,75.9h-1.9V60.8h2.2c4.6,0,6.1,1.6,6.1,4.4c0,3.2-2.4,4.4-5.3,4.4h-1.1V75.9z M750.6,67.9h0.6
		c1.9,0,4-0.4,4-2.8c0-2.4-2.2-2.6-4.1-2.6h-0.5V67.9z"/>
	<path fill="#6B6862" d="M768,75.9h-2.3l-4.4-6.4h-0.8v6.4h-1.9V60.8h2.3c1.3,0,2.8,0,4,0.7c1.3,0.7,2,2.2,2,3.6
		c0,2.2-1.4,4-3.6,4.2L768,75.9z M760.5,68h0.6c1.9,0,4-0.4,4-2.8c0-2.4-2.2-2.7-4.1-2.7h-0.5V68z"/>
	<path fill="#6B6862" d="M771.3,75.9h-1.9V60.8h1.9V75.9z"/>
	<path fill="#6B6862" d="M774,60.1L785.3,72V60.8h1.9v15.7l-11.3-11.9v11.2H774V60.1z"/>
	<path fill="#6B6862" d="M800.8,63.7c-1.1-1-2.6-1.5-4-1.5c-3.4,0-6,2.8-6,6.2c0,3.3,2.6,6.1,5.9,6.1c1.5,0,2.9-0.6,4-1.6v2.2
		c-1.2,0.7-2.6,1.1-4,1.1c-4.3,0-7.9-3.4-7.9-7.8c0-4.5,3.6-7.9,8-7.9c1.3,0,2.7,0.3,3.8,1V63.7z"/>
	<path fill="#6B6862" d="M804.9,75.9H803V60.8h1.9V75.9z"/>
	<path fill="#6B6862" d="M809.6,75.9h-1.9V60.8h2.2c4.6,0,6.1,1.6,6.1,4.4c0,3.2-2.4,4.4-5.3,4.4h-1.1V75.9z M809.6,67.9h0.6
		c1.9,0,4-0.4,4-2.8c0-2.4-2.2-2.6-4.1-2.6h-0.5V67.9z"/>
	<path fill="#6B6862" d="M818.2,72.1l-1.7,3.8h-2l7.2-15.7l7.2,15.7h-2l-1.7-3.8H818.2z M821.6,64.3l-2.7,6.1h5.4L821.6,64.3z"/>
	<path fill="#6B6862" d="M832,74.2h4.6v1.7h-6.5V60.8h1.9V74.2z"/>
	<path fill="#6B6862" d="M837.8,60.8h8.1v1.7h-6.2v4.2h6v1.7h-6v5.7h6.2v1.7h-8.1V60.8z"/>
	<path fill="#6B6862" d="M854.9,63.7c-0.6-0.9-1.3-1.4-2.4-1.4c-1.2,0-2.5,0.8-2.5,2.1c0,1.2,1.2,1.8,2.1,2.2l1.1,0.4
		c2.1,0.8,3.7,2,3.7,4.5c0,2.7-2.1,4.7-4.8,4.7c-2.4,0-4.3-1.8-4.7-4.2l1.9-0.4c0,1.7,1.3,2.9,2.9,2.9c1.6,0,2.8-1.4,2.8-2.9
		c0-1.6-1.3-2.3-2.6-2.9l-1-0.4c-1.7-0.7-3.3-1.7-3.3-3.8c0-2.4,2.2-3.9,4.4-3.9c1.7,0,3.1,0.8,3.9,2.3L854.9,63.7z"/>
	<path fill="#6B6862" d="M866.6,75.9h-1.9V60.8h2.2c4.6,0,6.1,1.6,6.1,4.4c0,3.2-2.4,4.4-5.3,4.4h-1.1V75.9z M866.6,67.9h0.6
		c1.9,0,4-0.4,4-2.8c0-2.4-2.2-2.6-4.1-2.6h-0.5V67.9z"/>
	<path fill="#6B6862" d="M876.5,74.2h4.6v1.7h-6.5V60.8h1.9V74.2z"/>
	<path fill="#6B6862" d="M884.5,72.1l-1.7,3.8h-2l7.2-15.7l7.2,15.7h-2l-1.7-3.8H884.5z M887.9,64.3l-2.7,6.1h5.4L887.9,64.3z"/>
	<path fill="#6B6862" d="M898.8,75.9H897V62.6h-3.6v-1.7h9v1.7h-3.6V75.9z"/>
	<path fill="#6B6862" d="M903.9,60.8h8.1v1.7h-6.2v4.2h6v1.7h-6v5.7h6.2v1.7h-8.1V60.8z"/>
	<path fill="#6B6862" d="M916.2,62.6v4.2h5.2v1.7h-5.2v7.4h-1.9V60.8h7.3v1.7H916.2z"/>
	<path fill="#6B6862" d="M938.5,68.4c0,4.5-3.5,7.9-7.9,7.9c-4.4,0-7.9-3.4-7.9-7.9c0-4.3,3.6-7.9,7.9-7.9
		C935,60.5,938.5,64.1,938.5,68.4z M936.7,68.4c0-3.3-2.5-6.1-6-6.1c-3.5,0-6,2.8-6,6.1c0,3.4,2.8,6.1,6,6.1
		C933.9,74.5,936.7,71.8,936.7,68.4z"/>
	<path fill="#6B6862" d="M949.7,75.9h-2.3l-4.4-6.4h-0.8v6.4h-1.9V60.8h2.3c1.3,0,2.8,0,4,0.7c1.3,0.7,2,2.2,2,3.6
		c0,2.2-1.4,4-3.6,4.2L949.7,75.9z M942.2,68h0.6c1.9,0,4-0.4,4-2.8c0-2.4-2.2-2.7-4.1-2.7h-0.5V68z"/>
	<path fill="#6B6862" d="M953.8,66L953.8,66l-1.8,10H950l3.1-15.7l5.2,11.9l5.2-11.9l3.1,15.7h-1.9l-1.8-10h0l-4.5,10.3L953.8,66z"
		/>
	<path fill="#6B6862" d="M968.2,60.8h8.1v1.7h-6.2v4.2h6v1.7h-6v5.7h6.2v1.7h-8.1V60.8z"/>
	<path fill="#6B6862" d="M985.4,63.7c-0.6-0.9-1.3-1.4-2.4-1.4c-1.2,0-2.5,0.8-2.5,2.1c0,1.2,1.2,1.8,2.1,2.2l1.1,0.4
		c2.1,0.8,3.7,2,3.7,4.5c0,2.7-2.1,4.7-4.8,4.7c-2.4,0-4.3-1.8-4.7-4.2l1.9-0.4c0,1.7,1.3,2.9,2.9,2.9c1.6,0,2.8-1.4,2.8-2.9
		c0-1.6-1.3-2.3-2.6-2.9l-1-0.4c-1.7-0.7-3.3-1.7-3.3-3.8c0-2.4,2.2-3.9,4.4-3.9c1.7,0,3.1,0.8,3.9,2.3L985.4,63.7z"/>
	<path fill="#6B6862" d="M638.3,86.8h3.1c4.6,0,8.5,2.4,8.5,7.5c0,5.1-3.8,7.6-8.5,7.6h-3.1V86.8z M640.2,100.2h0.7
		c3.8,0,7.2-1.4,7.2-5.8c0-4.4-3.3-5.8-7.2-5.8h-0.7V100.2z"/>
	<path fill="#6B6862" d="M651.7,86.8h8.1v1.7h-6.2v4.2h6v1.7h-6v5.7h6.2v1.7h-8.1V86.8z"/>
	<path fill="#6B6862" d="M678.9,89.7c-1.1-1-2.6-1.5-4-1.5c-3.4,0-6,2.8-6,6.2c0,3.3,2.6,6.1,5.9,6.1c1.5,0,2.9-0.6,4-1.6v2.2
		c-1.2,0.7-2.6,1.1-4,1.1c-4.3,0-7.9-3.4-7.9-7.8c0-4.5,3.6-7.9,8-7.9c1.3,0,2.7,0.3,3.8,1V89.7z"/>
	<path fill="#6B6862" d="M690.5,101.9h-2.3l-4.4-6.4H683v6.4h-1.9V86.8h2.3c1.3,0,2.8,0,4,0.7c1.3,0.7,2,2.2,2,3.6
		c0,2.2-1.4,4-3.6,4.2L690.5,101.9z M683,94h0.6c1.9,0,4-0.4,4-2.8c0-2.4-2.2-2.7-4.1-2.7H683V94z"/>
	<path fill="#6B6862" d="M706.8,94.4c0,4.5-3.5,7.9-7.9,7.9c-4.4,0-7.9-3.4-7.9-7.9c0-4.3,3.6-7.9,7.9-7.9
		C703.2,86.5,706.8,90.1,706.8,94.4z M704.9,94.4c0-3.3-2.5-6.1-6-6.1c-3.5,0-6,2.8-6,6.1c0,3.4,2.8,6.1,6,6.1
		C702.1,100.5,704.9,97.8,704.9,94.4z"/>
	<path fill="#6B6862" d="M713.2,97.6l4.3-11.1l4.3,11.1l4.2-10.8h2l-6.3,15.7l-4.3-11.1l-4.3,11.1l-6.3-15.7h2L713.2,97.6z"/>
	<path fill="#6B6862" d="M729,86.8h3.1c4.6,0,8.5,2.4,8.5,7.5c0,5.1-3.8,7.6-8.5,7.6H729V86.8z M730.8,100.2h0.7
		c3.8,0,7.2-1.4,7.2-5.8c0-4.4-3.3-5.8-7.2-5.8h-0.7V100.2z"/>
	<path fill="#6B6862" d="M742.4,86.8h8.1v1.7h-6.2v4.2h6v1.7h-6v5.7h6.2v1.7h-8.1V86.8z"/>
	<path fill="#6B6862" d="M765.3,102.2l-1.3-1.3c-1.2,0.9-2.9,1.3-4.3,1.3c-4.4,0-7.9-3.4-7.9-7.9c0-4.3,3.6-7.9,7.9-7.9
		c4.3,0,7.9,3.5,7.9,7.9c0,2.1-0.9,4.2-2.4,5.6l2.3,2.3H765.3z M763.9,98.6c1.2-1,1.8-2.8,1.8-4.2c0-3.3-2.5-6.1-6-6.1
		c-3.5,0-6,2.8-6,6.1c0,3.4,2.8,6.1,6,6.1c0.9,0,2.1-0.3,3-0.9l-3.5-3.4h2.3L763.9,98.6z"/>
	<path fill="#6B6862" d="M771,86.8v8.9c0,2.5,0.7,4.7,3.6,4.7s3.6-2.3,3.6-4.7v-8.9h1.9v9.5c0,3.3-2.1,5.9-5.5,5.9
		c-3.5,0-5.5-2.5-5.5-5.9v-9.5H771z"/>
	<path fill="#6B6862" d="M784.6,101.9h-1.9V86.8h1.9V101.9z"/>
	<path fill="#6B6862" d="M791.5,101.9h-1.9V88.6H786v-1.7h9v1.7h-3.6V101.9z"/>
	<path fill="#6B6862" d="M795,86.8h2.2l3.7,6.4l3.7-6.4h2.2l-4.9,8.5v6.6h-1.9v-6.6L795,86.8z"/>
	<path fill="#6B6862" d="M816.4,89.4v3.3h4.7v2.6h-4.7v4.1h4.9v2.6h-7.8V86.8h7.8v2.6H816.4z"/>
	<path fill="#6B6862" d="M823.2,86.4h2.1l7.9,10.5h0V86.8h2.9v15.4h-2.1l-7.9-10.5h0v10.2h-2.9V86.4z"/>
	<path fill="#6B6862" d="M847.1,89.4v3.3h4.3v2.6h-4.3v6.6h-2.9V86.8h7.5v2.6H847.1z"/>
	<path fill="#6B6862" d="M863.6,101.9H860l-3.7-6.1h0v6.1h-2.9V86.8h4c3,0,5,1.3,5,4.5c0,1.9-1.1,3.8-3.1,4.2L863.6,101.9z
		 M856.3,93.8h0.4c1.6,0,2.8-0.5,2.8-2.3c0-1.9-1.2-2.2-2.7-2.2h-0.4V93.8z"/>
	<path fill="#6B6862" d="M867.6,98.7l-1.2,3.2h-3.1l5.9-15.5h2.3l5.7,15.5H874l-1.2-3.2H867.6z M870.2,90.9L870.2,90.9l-1.7,5.5h3.6
		L870.2,90.9z"/>
	<path fill="#6B6862" d="M878.1,86.4h2.1l7.9,10.5h0V86.8h2.9v15.4H889l-7.9-10.5h0v10.2h-2.9V86.4z"/>
	<path fill="#6B6862" d="M903.3,90.8c-0.8-1-2.1-1.6-3.3-1.6c-2.8,0-4.4,2.6-4.4,5.2c0,2.5,1.7,5.1,4.4,5.1c1.3,0,2.5-0.7,3.3-1.6
		v3.5c-1.1,0.5-2.2,0.9-3.4,0.9c-4.2,0-7.4-3.7-7.4-7.8c0-4.3,3-8.1,7.4-8.1c1.2,0,2.3,0.3,3.4,0.9V90.8z"/>
	<path fill="#6B6862" d="M908.2,89.4v3.3h4.7v2.6h-4.7v4.1h4.9v2.6h-7.8V86.8h7.8v2.6H908.2z"/>
	<path fill="#6B6862" d="M927.6,95c0.1,1.7-1.5,3.2-3.2,3.2c-1.8,0-3.2-1.4-3.2-3.2c0-1.9,1.3-2.5,2.5-2.9c1.2-0.5,2.5-0.8,2.5-2.1
		c0-1.1-0.8-1.8-1.8-1.8c-0.9,0-1.7,0.8-1.7,1.7c0,0.2,0.1,0.4,0.1,0.6h-1.9l0-0.7c-0.1-2,1.7-3.4,3.6-3.4c2,0,3.6,1.5,3.6,3.5
		c0,0.9-0.4,1.9-1.1,2.5c-0.7,0.6-1.6,0.9-2.5,1.1c-0.7,0.2-1.5,0.6-1.5,1.5c0,0.8,0.6,1.4,1.4,1.4c0.9,0,1.4-0.7,1.4-1.5H927.6z
		 M925.5,101.1c0,0.6-0.5,1.2-1.2,1.2c-0.6,0-1.2-0.5-1.2-1.2c0-0.6,0.5-1.2,1.2-1.2C925,99.9,925.5,100.5,925.5,101.1z"/>
</g>
<g>
	<path fill="#002846" d="M1045,781.2c-0.6,0-1.2-0.1-1.8-0.2v-0.9c0.6,0.2,1.2,0.4,1.8,0.4c0.8,0,1.6-0.4,1.6-1.3
		c0-0.8-0.6-1.2-1.3-1.5l-0.7-0.4c-0.8-0.5-1.6-0.9-1.6-2c0-1.4,1.2-1.9,2.4-1.9c0.5,0,1.1,0.1,1.6,0.2v0.8
		c-0.5-0.2-1.1-0.3-1.7-0.3c-0.7,0-1.4,0.3-1.4,1.2c0,0.7,0.7,1.1,1.3,1.4l0.7,0.4c0.9,0.5,1.6,1,1.6,2.1
		C1047.7,780.7,1046.4,781.2,1045,781.2z"/>
	<path fill="#002846" d="M1050.7,781.2c-1.6,0-2.1-1.3-2.1-2.7c0-1.4,0.5-2.8,2.1-2.8c1.6,0,2.2,1.3,2.2,2.8
		C1052.8,779.9,1052.3,781.2,1050.7,781.2z M1050.7,776.4c-1.1,0-1.3,1.3-1.3,2.1c0,0.8,0.2,2.1,1.3,2.1c1.1,0,1.3-1.3,1.3-2.1
		C1052,777.6,1051.7,776.4,1050.7,776.4z"/>
	<path fill="#002846" d="M1057.1,781.1v-1.2h0c-0.2,0.8-0.7,1.3-1.6,1.3c-0.9,0-1.3-0.8-1.3-1.6v-3.7h0.7v2.9c0,0.6-0.1,1.7,0.8,1.7
		c1,0,1.5-1.6,1.5-2.5v-2.2h0.7v5.2H1057.1z"/>
	<path fill="#002846" d="M1060.4,778.9v2.2h-0.7v-5.2h0.7v1h0c0.3-0.8,0.9-1.1,1.7-1.1v0.8C1060.9,776.5,1060.4,777.8,1060.4,778.9z
		"/>
	<path fill="#002846" d="M1065.8,777.4c0-0.6-0.3-1.1-0.9-1.1c-1,0-1.2,1-1.2,1.8c0,1.4,0.6,2.4,2.1,2.4c0.3,0,0.6,0,0.8-0.1v0.6
		c-0.4,0.1-0.7,0.1-1.1,0.1c-1.8,0-2.7-1.1-2.7-2.9c0-1.4,0.5-2.6,2.1-2.6c1.1,0,1.8,0.6,1.8,1.7H1065.8z"/>
	<path fill="#002846" d="M1068.3,778v0.3c0,1.1,0.6,2.3,1.9,2.3c0.4,0,0.7-0.1,1-0.1v0.6c-0.4,0.1-0.8,0.2-1.2,0.2
		c-1.8,0-2.6-1.2-2.6-2.9c0-1.4,0.5-2.6,2-2.6c1.2,0,1.8,0.8,1.8,2v0.3H1068.3z M1069.5,776.4c-0.6,0-1,0.4-1.1,1h2.1
		C1070.5,776.8,1070.1,776.4,1069.5,776.4z"/>
	<path fill="#002846" d="M1076,777v-1.1h1.1v1.1H1076z M1076,781.1V780h1.1v1.1H1076z"/>
	<path fill="#002846" d="M1082.7,781.2c-0.6,0-1.2-0.1-1.8-0.2v-0.9c0.6,0.2,1.2,0.4,1.8,0.4c0.8,0,1.6-0.4,1.6-1.3
		c0-0.8-0.6-1.2-1.3-1.5l-0.7-0.4c-0.8-0.5-1.6-0.9-1.6-2c0-1.4,1.2-1.9,2.4-1.9c0.5,0,1.1,0.1,1.6,0.2v0.8
		c-0.5-0.2-1.1-0.3-1.7-0.3c-0.7,0-1.4,0.3-1.4,1.2c0,0.7,0.7,1.1,1.3,1.4l0.7,0.4c0.9,0.5,1.6,1,1.6,2.1
		C1085.3,780.7,1084,781.2,1082.7,781.2z"/>
	<path fill="#002846" d="M1086.5,774.5v-1h1v1H1086.5z M1086.6,781.1v-5.2h0.7v5.2H1086.6z"/>
	<path fill="#002846" d="M1090.3,776.5v3.2c0,0.6,0.3,0.9,0.9,0.9c0.2,0,0.3,0,0.5-0.1v0.7c-0.2,0-0.4,0.1-0.7,0.1
		c-1,0-1.5-0.3-1.5-1.4v-3.4h-0.9v-0.6h0.9v-1.2l0.7-0.5v1.7h1.4v0.6H1090.3z"/>
	<path fill="#002846" d="M1093.4,778v0.3c0,1.1,0.6,2.3,1.9,2.3c0.4,0,0.7-0.1,1-0.1v0.6c-0.4,0.1-0.8,0.2-1.2,0.2
		c-1.8,0-2.6-1.2-2.6-2.9c0-1.4,0.5-2.6,2-2.6c1.2,0,1.8,0.8,1.8,2v0.3H1093.4z M1094.5,776.4c-0.6,0-1,0.4-1.1,1h2.1
		C1095.5,776.8,1095.1,776.4,1094.5,776.4z"/>
	<path fill="#002846" d="M1098.7,781.2c-0.5,0-1-0.1-1.4-0.2v-0.7c0.4,0.2,0.9,0.3,1.4,0.3c0.6,0,1.3-0.2,1.3-0.8
		c0-0.5-0.6-0.7-0.9-0.9l-0.5-0.3c-0.6-0.3-1.2-0.6-1.2-1.4c0-1,0.9-1.4,1.8-1.4c0.4,0,0.8,0.1,1.2,0.2v0.7
		c-0.4-0.1-0.8-0.2-1.2-0.2c-0.4,0-1.1,0.2-1.1,0.7c0,0.4,0.6,0.6,0.9,0.8l0.4,0.3c0.6,0.4,1.2,0.6,1.2,1.5
		C1100.7,780.8,1099.8,781.2,1098.7,781.2z"/>
	<path fill="#002846" d="M1109.6,781.1h-0.8l-1.2-4h0l-1.2,4h-0.8l-1.3-5.2h0.7l1,4.1h0l1.3-4.1h0.6l1.3,4.1h0l0.9-4.1h0.7
		L1109.6,781.1z"/>
	<path fill="#002846" d="M1112.7,778v0.3c0,1.1,0.6,2.3,1.9,2.3c0.4,0,0.7-0.1,1-0.1v0.6c-0.4,0.1-0.8,0.2-1.2,0.2
		c-1.8,0-2.6-1.2-2.6-2.9c0-1.4,0.5-2.6,2-2.6c1.2,0,1.8,0.8,1.8,2v0.3H1112.7z M1113.9,776.4c-0.6,0-1,0.4-1.1,1h2.1
		C1114.9,776.8,1114.4,776.4,1113.9,776.4z"/>
	<path fill="#002846" d="M1118.9,781.2c-1.5,0-2-1-2-2.3v-5.4h0.7v3.2h0c0.2-0.6,0.8-1,1.4-1c1.5,0,1.9,1.6,1.9,2.8
		C1121,779.9,1120.5,781.2,1118.9,781.2z M1119,776.4c-1,0-1.3,1.5-1.3,2.3c0,0.8,0.2,1.9,1.2,1.9c1,0,1.3-1.3,1.3-2.1
		C1120.2,777.8,1120,776.4,1119,776.4z"/>
	<path fill="#002846" d="M1128,781.1v-0.9h0c-0.2,0.6-0.7,1-1.4,1c-1.5,0-1.8-1.5-1.8-2.7c0-1.1,0.4-2.8,1.8-2.8
		c0.7,0,1.2,0.3,1.4,1h0v-3.2h0.7v7.6H1128z M1126.8,776.4c-1,0-1.1,1.6-1.1,2.3c0,0.7,0.1,1.9,1.1,1.9c0.9,0,1.2-1.4,1.2-2.1
		C1128,777.8,1127.8,776.4,1126.8,776.4z"/>
	<path fill="#002846" d="M1131,778v0.3c0,1.1,0.6,2.3,1.9,2.3c0.4,0,0.7-0.1,1-0.1v0.6c-0.4,0.1-0.8,0.2-1.2,0.2
		c-1.8,0-2.6-1.2-2.6-2.9c0-1.4,0.5-2.6,2-2.6c1.2,0,1.8,0.8,1.8,2v0.3H1131z M1132.2,776.4c-0.6,0-1,0.4-1.1,1h2.1
		C1133.2,776.8,1132.8,776.4,1132.2,776.4z"/>
	<path fill="#002846" d="M1136.4,781.2c-0.5,0-1-0.1-1.4-0.2v-0.7c0.4,0.2,0.9,0.3,1.4,0.3c0.6,0,1.3-0.2,1.3-0.8
		c0-0.5-0.6-0.7-0.9-0.9l-0.5-0.3c-0.6-0.3-1.2-0.6-1.2-1.4c0-1,0.9-1.4,1.8-1.4c0.4,0,0.8,0.1,1.2,0.2v0.7
		c-0.4-0.1-0.8-0.2-1.2-0.2c-0.4,0-1.1,0.2-1.1,0.7c0,0.4,0.6,0.6,0.9,0.8l0.4,0.3c0.6,0.4,1.2,0.6,1.2,1.5
		C1138.3,780.8,1137.4,781.2,1136.4,781.2z"/>
	<path fill="#002846" d="M1144.5,781.2c-0.7,0-1.2-0.3-1.4-1h0v3.2h-0.7v-7.6h0.7v0.9h0c0.2-0.6,0.7-1,1.4-1c1.5,0,1.8,1.5,1.8,2.7
		C1146.3,779.6,1145.9,781.2,1144.5,781.2z M1144.3,776.4c-0.9,0-1.2,1.4-1.2,2.1c0,0.7,0.2,2.1,1.2,2.1c1,0,1.1-1.6,1.1-2.3
		C1145.4,777.6,1145.3,776.4,1144.3,776.4z"/>
	<path fill="#002846" d="M1147.7,781.1v-7.6h0.7v7.6H1147.7z"/>
	<path fill="#002846" d="M1152.9,781.1v-0.7h0c-0.3,0.6-1,0.8-1.6,0.8c-0.9,0-1.4-0.6-1.4-1.5c0-1.2,1.5-1.6,2.5-1.6
		c0.2,0,0.3,0,0.5,0V778c0-0.8,0.1-1.6-1-1.6c-0.6,0-1,0.2-1.1,0.8h-0.8c0-1.1,0.9-1.5,1.9-1.5c1.2,0,1.8,0.5,1.8,1.7v3.7H1152.9z
		 M1152.4,778.7c-0.7,0-1.7,0.3-1.7,1.1c0,0.4,0.3,0.8,0.7,0.8c0.5,0,1-0.3,1.2-0.8c0.2-0.4,0.2-0.6,0.2-1.1H1152.4z"/>
	<path fill="#002846" d="M1156.5,776.5v3.2c0,0.6,0.3,0.9,0.9,0.9c0.2,0,0.3,0,0.5-0.1v0.7c-0.2,0-0.4,0.1-0.7,0.1
		c-1,0-1.5-0.3-1.5-1.4v-3.4h-0.9v-0.6h0.9v-1.2l0.7-0.5v1.7h1.4v0.6H1156.5z"/>
	<path fill="#002846" d="M1159.5,778v0.3c0,1.1,0.6,2.3,1.9,2.3c0.4,0,0.7-0.1,1-0.1v0.6c-0.4,0.1-0.8,0.2-1.2,0.2
		c-1.8,0-2.6-1.2-2.6-2.9c0-1.4,0.5-2.6,2-2.6c1.2,0,1.8,0.8,1.8,2v0.3H1159.5z M1160.7,776.4c-0.6,0-1,0.4-1.1,1h2.1
		C1161.7,776.8,1161.3,776.4,1160.7,776.4z"/>
	<path fill="#002846" d="M1166.1,774.1c-1.2,0-1.1,0.9-1.1,1.8h1.5v0.6h-1.5v4.6h-0.7v-4.6h-0.9v-0.6h0.9v-0.7
		c0-1.1,0.6-1.7,1.7-1.7c0.3,0,0.6,0,0.9,0.1v0.7C1166.6,774.1,1166.3,774.1,1166.1,774.1z"/>
	<path fill="#002846" d="M1169.1,781.2c-1.6,0-2.1-1.3-2.1-2.7c0-1.4,0.5-2.8,2.1-2.8c1.6,0,2.2,1.3,2.2,2.8
		C1171.3,779.9,1170.8,781.2,1169.1,781.2z M1169.1,776.4c-1.1,0-1.3,1.3-1.3,2.1c0,0.8,0.2,2.1,1.3,2.1c1.1,0,1.3-1.3,1.3-2.1
		C1170.4,777.6,1170.2,776.4,1169.1,776.4z"/>
	<path fill="#002846" d="M1173.4,778.9v2.2h-0.7v-5.2h0.7v1h0c0.3-0.8,0.9-1.1,1.7-1.1v0.8C1173.8,776.5,1173.4,777.8,1173.4,778.9z
		"/>
	<path fill="#002846" d="M1181.8,781.1v-2.9c0-0.6,0.1-1.7-0.8-1.7c-1,0-1.3,1.7-1.3,2.5v2.2h-0.7v-2.9c0-0.6,0.1-1.7-0.8-1.7
		c-1,0-1.3,1.7-1.3,2.5v2.2h-0.7v-5.2h0.7v1.2h0c0.2-0.7,0.6-1.3,1.5-1.3c0.8,0,1.3,0.4,1.3,1.2h0c0.2-0.7,0.7-1.2,1.5-1.2
		c0.9,0,1.3,0.8,1.3,1.6v3.7H1181.8z"/>
	<path fill="#002846" d="M1184.8,778v0.3c0,1.1,0.6,2.3,1.9,2.3c0.4,0,0.7-0.1,1-0.1v0.6c-0.4,0.1-0.8,0.2-1.2,0.2
		c-1.8,0-2.6-1.2-2.6-2.9c0-1.4,0.5-2.6,2-2.6c1.2,0,1.8,0.8,1.8,2v0.3H1184.8z M1185.9,776.4c-0.6,0-1,0.4-1.1,1h2.1
		C1186.9,776.8,1186.5,776.4,1185.9,776.4z"/>
	<path fill="#002846" d="M1190.1,781.2c-0.5,0-1-0.1-1.4-0.2v-0.7c0.4,0.2,0.9,0.3,1.4,0.3c0.6,0,1.3-0.2,1.3-0.8
		c0-0.5-0.6-0.7-0.9-0.9l-0.5-0.3c-0.6-0.3-1.2-0.6-1.2-1.4c0-1,0.9-1.4,1.8-1.4c0.4,0,0.8,0.1,1.2,0.2v0.7
		c-0.4-0.1-0.8-0.2-1.2-0.2c-0.4,0-1.1,0.2-1.1,0.7c0,0.4,0.6,0.6,0.9,0.8l0.4,0.3c0.6,0.4,1.2,0.6,1.2,1.5
		C1192.1,780.8,1191.2,781.2,1190.1,781.2z"/>
	<path fill="#002846" d="M1196,777.7c0-1.6-0.1-4.6,2-5v0.5c-1.2,0.6-1.1,3.4-1.1,4.5c0,1.2-0.1,3.9,1.1,4.5v0.5
		C1195.9,782.2,1196,779.3,1196,777.7z"/>
	<path fill="#002846" d="M1200.1,781.2c-0.5,0-1-0.1-1.4-0.2v-0.7c0.4,0.2,0.9,0.3,1.4,0.3c0.6,0,1.3-0.2,1.3-0.8
		c0-0.5-0.6-0.7-0.9-0.9l-0.5-0.3c-0.6-0.3-1.2-0.6-1.2-1.4c0-1,0.9-1.4,1.8-1.4c0.4,0,0.8,0.1,1.2,0.2v0.7
		c-0.4-0.1-0.8-0.2-1.2-0.2c-0.4,0-1.1,0.2-1.1,0.7c0,0.4,0.6,0.6,0.9,0.8l0.4,0.3c0.6,0.4,1.2,0.6,1.2,1.5
		C1202,780.8,1201.1,781.2,1200.1,781.2z"/>
	<path fill="#002846" d="M1205.8,781.1v-0.7h0c-0.3,0.6-1,0.8-1.6,0.8c-0.9,0-1.4-0.6-1.4-1.5c0-1.2,1.5-1.6,2.5-1.6
		c0.2,0,0.3,0,0.5,0V778c0-0.8,0.1-1.6-1-1.6c-0.6,0-1,0.2-1.1,0.8h-0.8c0-1.1,0.9-1.5,1.9-1.5c1.2,0,1.8,0.5,1.8,1.7v3.7H1205.8z
		 M1205.4,778.7c-0.7,0-1.7,0.3-1.7,1.1c0,0.4,0.3,0.8,0.7,0.8c0.5,0,1-0.3,1.2-0.8c0.2-0.4,0.2-0.6,0.2-1.1H1205.4z"/>
	<path fill="#002846" d="M1211.3,781.1v-1.2h0c-0.2,0.8-0.7,1.3-1.6,1.3c-0.9,0-1.3-0.8-1.3-1.6v-3.7h0.7v2.9c0,0.6-0.1,1.7,0.8,1.7
		c1,0,1.5-1.6,1.5-2.5v-2.2h0.7v5.2H1211.3z"/>
	<path fill="#002846" d="M1216,774.1c-1.2,0-1.1,0.9-1.1,1.8h1.5v0.6h-1.5v4.6h-0.7v-4.6h-0.9v-0.6h0.9v-0.7c0-1.1,0.6-1.7,1.7-1.7
		c0.3,0,0.6,0,0.9,0.1v0.7C1216.5,774.1,1216.2,774.1,1216,774.1z"/>
	<path fill="#002846" d="M1226.7,781.1h-1.1l-1.8-6.4h0l-1.8,6.4h-1l-1.4-7.6h0.8l1.2,6.5h0l1.8-6.5h0.9l1.8,6.5h0l1.2-6.5h0.8
		L1226.7,781.1z"/>
	<path fill="#002846" d="M1229.2,774.5v-1h1v1H1229.2z M1229.3,781.1v-5.2h0.7v5.2H1229.3z"/>
	<path fill="#002846" d="M1232.9,781.2c-0.5,0-1-0.1-1.4-0.2v-0.7c0.4,0.2,0.9,0.3,1.4,0.3c0.6,0,1.3-0.2,1.3-0.8
		c0-0.5-0.6-0.7-0.9-0.9l-0.5-0.3c-0.6-0.3-1.2-0.6-1.2-1.4c0-1,0.9-1.4,1.8-1.4c0.4,0,0.8,0.1,1.2,0.2v0.7
		c-0.4-0.1-0.8-0.2-1.2-0.2c-0.4,0-1.1,0.2-1.1,0.7c0,0.4,0.6,0.6,0.9,0.8l0.4,0.3c0.6,0.4,1.2,0.6,1.2,1.5
		C1234.8,780.8,1233.9,781.2,1232.9,781.2z"/>
	<path fill="#002846" d="M1236.5,778v0.3c0,1.1,0.6,2.3,1.9,2.3c0.4,0,0.7-0.1,1-0.1v0.6c-0.4,0.1-0.8,0.2-1.2,0.2
		c-1.8,0-2.6-1.2-2.6-2.9c0-1.4,0.5-2.6,2-2.6c1.2,0,1.8,0.8,1.8,2v0.3H1236.5z M1237.7,776.4c-0.6,0-1,0.4-1.1,1h2.1
		C1238.7,776.8,1238.2,776.4,1237.7,776.4z"/>
	<path fill="#002846" d="M1241.4,778v0.3c0,1.1,0.6,2.3,1.9,2.3c0.4,0,0.7-0.1,1-0.1v0.6c-0.4,0.1-0.8,0.2-1.2,0.2
		c-1.8,0-2.6-1.2-2.6-2.9c0-1.4,0.5-2.6,2-2.6c1.2,0,1.8,0.8,1.8,2v0.3H1241.4z M1242.5,776.4c-0.6,0-1,0.4-1.1,1h2.1
		C1243.5,776.8,1243.1,776.4,1242.5,776.4z"/>
	<path fill="#002846" d="M1248.6,781.1v-0.9h0c-0.2,0.6-0.7,1-1.4,1c-1.5,0-1.8-1.5-1.8-2.7c0-1.1,0.4-2.8,1.8-2.8
		c0.7,0,1.2,0.3,1.4,1h0v-3.2h0.7v7.6H1248.6z M1247.4,776.4c-1,0-1.1,1.6-1.1,2.3c0,0.7,0.1,1.9,1.1,1.9c0.9,0,1.2-1.4,1.2-2.1
		C1248.6,777.8,1248.3,776.4,1247.4,776.4z"/>
	<path fill="#002846" d="M1250.5,782.7v-0.5c1.2-0.6,1.1-3.4,1.1-4.5c0-1.2,0.1-3.9-1.1-4.5v-0.5c2.1,0.5,2,3.4,2,5
		C1252.5,779.3,1252.6,782.3,1250.5,782.7z"/>
</g>
</svg>
