<?xml version="1.0" encoding="utf-8"?>
<!-- Generator: Adobe Illustrator 18.0.0, SVG Export Plug-In . SVG Version: 6.00 Build 0)  -->
<!DOCTYPE svg PUBLIC "-//W3C//DTD SVG 1.1//EN" "http://www.w3.org/Graphics/SVG/1.1/DTD/svg11.dtd">
<svg version="1.1" id="Calque_1" xmlns="http://www.w3.org/2000/svg" xmlns:xlink="http://www.w3.org/1999/xlink" x="0px" y="0px"
	 viewBox="0 0 1280 800" enable-background="new 0 0 1280 800" xml:space="preserve">
<pattern  x="334" y="796" width="317" height="317" patternUnits="userSpaceOnUse" id="SVGID_1_" viewBox="0 -317 317 317" overflow="visible">
	<g>
		<polygon fill="none" points="0,0 317,0 317,-317 0,-317 		"/>
		<g>
			<polygon fill="none" points="0,-317 317,-317 317,0 0,0 			"/>
			<polygon fill="#002033" points="0,-159 0,-317 158,-159 			"/>
			<polygon fill="#002033" points="317,0 158,0 158,-159 			"/>
			<polygon fill="#012F4C" points="158,-159 317,-159 317,0 			"/>
			<polygon fill="#012F4C" points="0,-317 158,-317 158,-159 			"/>
			<polygon fill="#002846" points="158,0 0,0 0,-159 158,-159 			"/>
			<polygon fill="#002846" points="158,-317 317,-317 317,-159 158,-159 			"/>
		</g>
	</g>
</pattern>
<pattern  x="334" y="796" width="317" height="317" patternUnits="userSpaceOnUse" id="SVGID_2_" viewBox="0 -317 317 317" overflow="visible">
	<g>
		<polygon fill="none" points="0,0 317,0 317,-317 0,-317 		"/>
		<g>
			<polygon fill="none" points="0,-317 317,-317 317,0 0,0 			"/>
			<polygon fill="#002033" points="0,-159 0,-317 158,-159 			"/>
			<polygon fill="#002033" points="317,0 158,0 158,-159 			"/>
			<polygon fill="#012F4C" points="158,-159 317,-159 317,0 			"/>
			<polygon fill="#012F4C" points="0,-317 158,-317 158,-159 			"/>
			<polygon fill="#002846" points="158,0 0,0 0,-159 158,-159 			"/>
			<polygon fill="#002846" points="158,-317 317,-317 317,-159 158,-159 			"/>
		</g>
	</g>
</pattern>
<g id="FOND" display="none">
	<g display="inline">
		<path fill="#F2F2F2" d="M37.1,79.6c0.1,0,0.2,0,0.3,0c23.6,0,47.3,0,70.9,0c0.6,0,0.6,0,0.6,0.6c0,0.7,0,1.5,0,2.2
			c0,0.2,0,0.2-0.2,0.2c-0.1,0-0.3,0-0.5,0c-23.7,0-47.4,0-71.2,0C37.1,81.6,37.1,80.6,37.1,79.6z"/>
		<path fill="#F2F2F2" d="M49.7,37.8c0,0.2,0,0.4-0.3,0.4c-0.1,0-0.1,0-0.2,0c-0.5-0.1-0.7,0.2-0.8,0.7c-0.1,0.7-0.3,1.3-0.4,2
			c-0.2,1-0.4,2.1-0.7,3.1c-0.1,0.5-0.2,1-0.3,1.5c-0.1,0.6,0.1,0.7,0.6,0.8c0.6,0.1,1.3,0.1,1.9,0c0.5-0.1,0.9-0.4,1.2-0.8
			c0.1-0.2,0.3-0.5,0.4-0.8c0.1-0.2,0.2-0.1,0.3-0.1c0.1,0,0,0.1,0,0.1c-0.1,0.5-0.3,1-0.4,1.4c0,0.2-0.1,0.3-0.1,0.4
			c0,0.2-0.1,0.2-0.3,0.2c-1.9,0-3.9,0-5.8,0c-0.1,0-0.2,0-0.2-0.1c0-0.1,0-0.2,0.2-0.2c0.2,0,0.4,0,0.6-0.1c0.3,0,0.4-0.2,0.5-0.4
			c0.1-0.4,0.2-0.8,0.3-1.2c0.1-0.7,0.3-1.3,0.4-2c0.2-1.1,0.4-2.1,0.7-3.1c0.1-0.3,0.2-0.6,0.2-0.9c0-0.2-0.1-0.3-0.3-0.3
			c-0.2,0-0.3-0.1-0.5-0.1c-0.2,0-0.2-0.1-0.2-0.2c0,0,0-0.1,0-0.1C47.4,37.8,48.5,37.8,49.7,37.8z"/>
		<path fill="#F2F2F2" d="M149.9,82.6c-8.9,0-17.7,0-26.6,0c-0.2,0-0.3,0-0.3-0.3c0-0.8,0-1.7,0-2.5c0-0.2,0-0.2,0.2-0.2
			c0.1,0,0.1,0,0.2,0c17.7,0,35.3,0,53,0c0.1,0,0.1,0,0.2,0c0.1,0,0.1,0,0.1,0.1c0,0.9,0,1.9,0,2.8c0,0.1,0,0.1-0.1,0.1
			c-0.1,0-0.1,0-0.2,0C167.6,82.6,158.7,82.6,149.9,82.6z"/>
		<path fill="#F2F2F2" d="M116,82.5c-1,0-1.9,0-2.9,0c-0.2,0-0.2,0-0.2-0.2c0-0.2,0-0.4,0-0.5c0.1-0.1,0.3,0,0.4-0.1
			c0.3,0,0.5-0.1,0.8-0.1c0.3-0.1,0.5-0.3,0.5-0.6c0-0.3,0-0.6,0-0.9c0-4.3,0-8.7,0-13c0-0.3,0-0.5,0-0.8c0-0.3-0.2-0.4-0.4-0.5
			c-0.3-0.1-0.7-0.1-1-0.2c-0.1,0-0.1,0-0.2-0.2c0-0.5,0-0.5,0.5-0.6c0.9-0.2,1.9-0.3,2.8-0.5c0.3-0.1,0.3,0,0.4,0.3
			c0.1,0.4,0.2,0.9,0.2,1.3c0,0.2,0.1,0.1,0.2,0.1c0.5-0.4,1.1-0.8,1.6-1.1c0.7-0.4,1.5-0.7,2.4-0.6c1.3,0,2.4,0.4,3.3,1.5
			c0.4,0.6,0.7,1.2,0.9,1.9c0.3,1.2,0.4,2.5,0.3,3.8c-0.1,0.8-0.2,1.7-0.6,2.5c-0.7,1.6-2,2.6-3.7,2.9c-1.3,0.3-2.5,0.2-3.8-0.2
			c-0.1,0-0.3-0.1-0.4-0.2c-0.2-0.1-0.2,0-0.2,0.1c0,0.8,0,1.6,0,2.4c0,0.5,0,1.1,0,1.6c0,0.7,0.4,0.8,0.9,0.9
			c0.4,0,0.7,0.1,1.1,0.1c0.1,0,0.1,0,0.1,0.1c0,0.6,0,0.6-0.6,0.6C117.7,82.5,116.8,82.5,116,82.5z M116.9,71c0,0.9,0,1.8,0,2.7
			c0,0.6,0.2,1.2,0.6,1.6c0.8,1,2.3,1.1,3.4,0.7c1-0.4,1.5-1.2,1.8-2.1c0.5-1.7,0.6-3.4,0.3-5.1c-0.1-0.8-0.4-1.6-1-2.2
			c-0.7-0.8-1.6-1-2.6-0.8c-1.2,0.2-2.3,1.4-2.4,2.6C116.9,69.3,116.9,70.2,116.9,71z"/>
		<path fill="#F2F2F2" d="M85.7,50.4c0.5-0.3,1-0.7,1.6-1c1-0.6,2-0.9,3.2-0.8c1.4,0.1,2.4,0.9,2.8,2.3c0.2,0.5,0.2,1.1,0.2,1.7
			c0,2.2,0,4.3,0,6.5c0,0.1,0,0.2,0,0.3c0.1,0.6,0.3,0.7,1,0.8c0.2,0,0.4,0,0.6,0c0.1,0,0.2,0.1,0.2,0.2c0,0.6,0,0.6-0.5,0.6
			c-1.7,0-3.4,0-5.1,0c-0.2,0-0.2-0.1-0.2-0.2c0-0.5,0-0.4,0.5-0.5c0.3,0,0.5,0,0.8-0.1c0.4-0.1,0.5-0.3,0.5-0.7c0-0.1,0-0.2,0-0.3
			c0-2.1,0-4.3,0-6.4c0-0.5-0.1-1-0.3-1.5c-0.3-0.8-0.9-1.2-1.8-1.3c-1.4-0.2-2.5,0.4-3.2,1.6c-0.2,0.4-0.3,0.8-0.3,1.2
			c0,2.2,0,4.4,0,6.6c0,0.5,0.2,0.7,0.7,0.8c0.3,0,0.6,0.1,0.9,0.1c0.2,0,0.2,0.1,0.2,0.2c0,0.5,0,0.5-0.5,0.5c-1.7,0-3.4,0-5.1,0
			c-0.2,0-0.2,0-0.2-0.2c0-0.5,0-0.5,0.5-0.5c0.3,0,0.6,0,0.8-0.1c0.3-0.1,0.4-0.3,0.5-0.6c0-0.2,0-0.4,0-0.6c0-2.7,0-5.3,0-8
			c0-0.1,0-0.3,0-0.4c-0.1-0.6-0.3-0.6-0.7-0.7c-0.3-0.1-0.5-0.1-0.8-0.1c-0.1,0-0.2-0.1-0.2-0.2c0-0.4,0-0.4,0.4-0.5
			c1-0.2,2-0.4,3-0.5c0.1,0,0.2,0,0.2,0.1c0.1,0.5,0.2,1,0.3,1.5C85.6,50.3,85.6,50.3,85.7,50.4z"/>
		<path fill="#F2F2F2" d="M82.4,71.5c0,1.2,0,2.3,0,3.5c0,0.2,0,0.3,0,0.5c0.1,0.4,0.3,0.5,0.8,0.6c0.3,0,0.6,0.1,0.8,0.1
			c0,0,0.1,0,0.1,0c0.1,0.2,0,0.4,0.1,0.6c0,0.1-0.1,0.1-0.2,0.1c-0.5,0-0.9,0-1.4,0c-1.3,0-2.7,0-4,0c-0.2,0-0.3-0.1-0.3-0.3
			c0-0.5,0-0.5,0.5-0.5c0.2,0,0.5,0,0.7-0.1c0.4-0.1,0.5-0.3,0.5-0.6c0-0.3,0-0.6,0-0.8c0-1.9,0-3.7,0-5.6c0-0.6-0.1-1.2-0.3-1.8
			c-0.3-0.9-1-1.3-1.9-1.4c-1.4-0.1-2.4,0.5-3.2,1.6c-0.3,0.5-0.3,1.1-0.3,1.6c0,1.9,0,3.8,0,5.6c0,0.2,0,0.3,0,0.5
			c0,0.6,0.2,0.9,0.8,0.9c0.3,0,0.5,0.1,0.8,0.1c0.1,0,0.2,0,0.2,0.2c0,0.6,0,0.6-0.6,0.6c-1.7,0-3.4,0-5,0c-0.2,0-0.3,0-0.2-0.2
			c0,0,0,0,0,0c0-0.5,0-0.5,0.5-0.5c0.2,0,0.4,0,0.6-0.1c0.5-0.1,0.6-0.3,0.7-0.8c0-0.2,0-0.5,0-0.7c0-2.5,0-5.1,0-7.6
			c0-0.1,0-0.2,0-0.3c0-0.6-0.2-0.8-0.8-0.9c-0.2,0-0.5-0.1-0.7-0.1c-0.1,0-0.1,0-0.1-0.1c0-0.1,0-0.3,0-0.4c0-0.1,0.1-0.1,0.2-0.1
			c0.7-0.1,1.4-0.2,2.1-0.4c0.4-0.1,0.7-0.1,1.1-0.2c0.1,0,0.2,0,0.2,0.1c0.1,0.5,0.2,1,0.3,1.4c0.1,0.3,0,0.3,0.3,0.1
			c0.7-0.5,1.5-1.1,2.3-1.4c1.2-0.5,2.4-0.5,3.6,0.1c0.8,0.4,1.2,1.1,1.4,1.9c0.1,0.5,0.2,1,0.2,1.5C82.3,69.3,82.3,70.4,82.4,71.5
			C82.3,71.5,82.4,71.5,82.4,71.5z"/>
		<path fill="#F2F2F2" d="M70,54.1c0,1.7,0,3.4,0,5.1c0,0.1,0,0.3,0,0.4c0.1,0.3,0.2,0.5,0.5,0.5c0.3,0.1,0.7,0.1,1,0.1
			c0.1,0,0.2,0,0.2,0.2c0,0.5,0,0.5-0.5,0.5c-1,0-2.1,0-3.1,0c-0.2,0-0.2-0.1-0.2-0.2c-0.1-0.4-0.1-0.7-0.2-1.1
			c0-0.2-0.1-0.2-0.2-0.1c-0.6,0.4-1.1,0.7-1.7,1c-0.8,0.4-1.7,0.7-2.6,0.7c-0.9,0-1.7-0.2-2.3-0.8c-0.5-0.5-0.8-1.1-0.9-1.8
			C60,58.2,60,57.8,60,57.4c0-2.1,0-4.2,0-6.4c0-0.1,0-0.3,0-0.4c-0.1-0.5-0.2-0.6-0.7-0.7c-0.3,0-0.5-0.1-0.8-0.1
			c-0.1,0-0.1-0.1-0.1-0.2c0-0.5,0-0.5,0.4-0.5c1-0.2,2.1-0.4,3.1-0.5c0.2,0,0.3,0.1,0.3,0.3c0,2.7,0,5.5,0,8.2
			c0,0.6,0.1,1.3,0.4,1.8c0.4,0.6,0.9,0.9,1.6,1c1.4,0.1,2.7-0.6,3.3-1.8c0.2-0.3,0.2-0.7,0.2-1c0-2.1,0-4.2,0-6.3
			c0-0.6-0.2-0.8-0.9-0.9c-0.1,0-0.2,0-0.4,0c-0.4-0.1-0.4-0.1-0.4-0.4c0-0.2,0-0.2,0.2-0.3c0.9-0.1,1.8-0.3,2.6-0.4
			c0.2,0,0.5-0.1,0.7-0.1c0.3,0,0.4,0,0.4,0.3C70,50.6,70,52.3,70,54.1z"/>
		<path fill="#F2F2F2" d="M51.1,48.5c1.1,0,2.1,0.1,3,0.6c1.3,0.7,2,1.7,2.4,3.1c0.4,1.2,0.4,2.5,0.3,3.8c-0.1,0.9-0.3,1.7-0.7,2.5
			c-0.6,1.2-1.5,2-2.8,2.4c-1.4,0.4-2.8,0.5-4.2,0.1c-1.7-0.5-2.8-1.7-3.3-3.4c-0.4-1.2-0.4-2.5-0.3-3.8c0.1-0.9,0.3-1.8,0.7-2.6
			c0.7-1.4,1.9-2.2,3.4-2.6C50.1,48.6,50.6,48.5,51.1,48.5z M54.4,55c0-1.2-0.1-2.1-0.4-3c-0.2-0.8-0.6-1.5-1.2-2
			c-1-0.8-3-0.8-3.9,0.6c-0.6,0.9-0.8,1.8-0.9,2.8c-0.1,1-0.1,2,0,3c0.1,0.8,0.3,1.6,0.6,2.4c0.7,1.5,2.1,1.9,3.4,1.5
			c0.9-0.3,1.5-1,1.8-1.9C54.3,57.2,54.4,55.9,54.4,55z"/>
		<path fill="#F2F2F2" d="M105.6,54.7c0,1.1,0,2.2,0,3.3c0,0.5,0,0.9,0.2,1.4c0.2,0.5,0.5,0.7,1,0.7c0.2,0,0.5,0,0.7,0
			c0.1,0,0.2,0,0.2,0.1c0.1,0.4,0.1,0.4-0.3,0.6c-0.7,0.3-1.5,0.5-2.3,0.6c-0.7,0-1.2-0.3-1.5-1.1c-0.2-0.4-0.2-0.4-0.5-0.2
			c-0.7,0.5-1.5,0.9-2.4,1.1c-1.9,0.4-3.9-0.6-4.2-2.8c-0.1-0.8,0-1.7,0.5-2.4c0.4-0.5,0.9-0.9,1.5-1.1c1.2-0.4,2.5-0.8,3.8-1.3
			c0.4-0.2,0.7-0.3,1.1-0.6c0.1-0.1,0.2-0.2,0.2-0.3c0-0.6,0-1.3-0.1-1.9c-0.4-1.6-2.2-1.7-3.1-1.1c-0.7,0.5-1,1.2-1.2,2
			c0,0.1-0.1,0.2-0.1,0.3c-0.2,0.4-0.5,0.6-0.9,0.5c-0.5-0.1-0.9-0.3-1.1-0.9c-0.1-0.5,0-0.9,0.3-1.2c0.6-0.8,1.4-1.2,2.3-1.5
			c1-0.3,2-0.4,3-0.3c0.6,0.1,1.2,0.2,1.7,0.5c0.7,0.4,1.1,1.1,1.2,1.8c0.1,0.3,0.1,0.7,0.1,1C105.6,52.9,105.6,53.8,105.6,54.7z
			 M103.5,55.9L103.5,55.9c0-0.6,0-1.2,0-1.8c0-0.1,0-0.2-0.2-0.1c-0.4,0.2-0.8,0.4-1.3,0.6c-0.6,0.3-1.3,0.5-1.9,0.8
			c-0.6,0.3-1.1,0.8-1.2,1.6c0,0.3,0,0.6,0,0.8c0,0.5,0.2,1,0.5,1.4c0.7,1,2.3,1,3.2,0.3c0.6-0.5,0.9-1.2,0.9-1.9
			C103.5,57,103.5,56.4,103.5,55.9z"/>
		<path fill="#F2F2F2" d="M107.7,70.3c-1.1,0-2.3,0-3.4,0c-0.1,0-0.2,0-0.2,0.1c0,1.1,0.1,2.2,0.5,3.2c0.4,1,1,1.8,2.1,2.1
			c1.5,0.4,3,0,3.9-1.5c0.2-0.3,0.4-0.6,0.5-0.9c0.1-0.1,0.1-0.1,0.2-0.1c0.6,0.3,0.6,0.3,0.3,0.9c-0.5,1.2-1.3,2.1-2.6,2.6
			c-0.7,0.3-1.5,0.3-2.3,0.3c-1,0-1.9-0.2-2.8-0.8c-1-0.6-1.5-1.5-1.9-2.6c-0.3-0.8-0.4-1.6-0.4-2.5c0-1,0-2.1,0.3-3.1
			c0.5-1.6,1.4-2.8,2.9-3.4c0.9-0.3,1.8-0.4,2.7-0.4c0.7,0.1,1.3,0.2,1.9,0.5c1.2,0.6,1.9,1.7,2.2,3c0.1,0.5,0.2,1.1,0.2,1.6
			c0,0.6-0.3,0.8-0.8,0.8C109.9,70.3,108.8,70.3,107.7,70.3z M106.4,69.4c0.7,0,1.4,0,2.2,0c0.6,0,0.8-0.2,0.8-0.8
			c0-0.5,0-0.9-0.2-1.3c-0.3-1-0.9-1.9-2.1-2c-0.9-0.1-1.7,0.2-2.2,1c-0.6,0.9-0.8,1.9-0.9,2.9c0,0.2,0,0.2,0.2,0.2
			C105,69.4,105.7,69.4,106.4,69.4z"/>
		<path fill="#F2F2F2" d="M65.1,70.3c-1.1,0-2.3,0-3.4,0c-0.1,0-0.2,0-0.2,0.2c0,1.2,0.1,2.3,0.5,3.4c0.6,1.4,1.7,2.1,3.2,2
			c1.2-0.1,2.1-0.7,2.7-1.6c0.2-0.3,0.3-0.6,0.5-0.9c0-0.1,0.1-0.1,0.2-0.1c0.2,0.1,0.3,0.2,0.5,0.3c0.1,0.1,0.1,0.1,0.1,0.2
			c-0.6,1.6-1.6,2.8-3.4,3.2c-0.7,0.2-1.5,0.2-2.2,0.1c-0.7-0.1-1.5-0.3-2.1-0.7c-0.9-0.5-1.5-1.3-1.8-2.2c-0.5-1.3-0.6-2.7-0.5-4
			c0.1-1.4,0.4-2.7,1.3-3.8c0.7-1,1.7-1.6,2.9-1.8c1.1-0.2,2.1-0.2,3.2,0.2c1.4,0.5,2.3,1.5,2.7,2.9c0.2,0.6,0.2,1.2,0.2,1.8
			c0,0.6-0.3,0.9-0.9,0.9C67.3,70.3,66.2,70.3,65.1,70.3z M63.9,69.4c0.7,0,1.4,0,2.1,0c0.1,0,0.2,0,0.3,0c0.4-0.1,0.6-0.3,0.6-0.7
			c0-0.5,0-1.1-0.2-1.6c-0.2-0.7-0.5-1.3-1.2-1.6c-1.1-0.6-2.5-0.2-3.2,0.9c-0.6,0.9-0.7,1.8-0.8,2.8c0,0.2,0.1,0.2,0.2,0.2
			C62.4,69.4,63.1,69.4,63.9,69.4z"/>
		<path fill="#F2F2F2" d="M159.5,70.3c-1.1,0-2.3,0-3.4,0c-0.2,0-0.2,0-0.2,0.2c0,1.2,0.1,2.3,0.6,3.4c0.4,1,1.2,1.7,2.3,1.9
			c1.5,0.2,2.6-0.2,3.5-1.5c0.2-0.3,0.4-0.6,0.5-0.9c0.1-0.2,0.1-0.2,0.3-0.1c0,0,0.1,0,0.1,0.1c0.4,0.3,0.5,0.3,0.3,0.7
			c-0.6,1.4-1.5,2.5-3.1,2.8c-1.5,0.4-3.1,0.3-4.5-0.5c-0.9-0.5-1.5-1.3-1.9-2.3c-0.5-1.3-0.6-2.7-0.5-4.1c0.1-1.1,0.3-2.2,0.9-3.1
			c0.7-1.3,1.8-2,3.2-2.3c1-0.2,2.1-0.2,3.1,0.1c1.6,0.5,2.5,1.6,2.9,3.2c0.1,0.5,0.2,1,0.2,1.6c0,0.6-0.3,0.9-0.9,0.9
			C161.7,70.3,160.6,70.3,159.5,70.3z M158.2,69.4L158.2,69.4c0.7,0,1.5,0,2.2,0c0.5,0,0.7-0.2,0.8-0.6c0-0.7,0-1.3-0.3-1.9
			c-0.3-0.9-0.9-1.5-2-1.6c-0.9-0.1-1.6,0.2-2.2,0.9c-0.7,0.9-0.9,2-0.9,3.1c0,0.2,0.1,0.1,0.2,0.1
			C156.8,69.4,157.5,69.4,158.2,69.4z"/>
		<path fill="#F2F2F2" d="M150.9,66.7c0,0.4,0,0.9,0,1.3c0,0.1,0,0.2-0.2,0.2c-0.2,0-0.4,0-0.5,0c-0.1-0.1-0.1-0.3-0.1-0.4
			c-0.2-0.8-0.5-1.5-1.1-1.9c-0.8-0.6-2.1-0.6-2.9-0.1c-0.9,0.6-1.2,2.3,0.2,3.2c0.7,0.4,1.4,0.6,2.1,0.8c0.7,0.3,1.4,0.6,2,1
			c0.9,0.7,1.2,1.6,1.2,2.6c0,0.9-0.2,1.8-0.9,2.5c-0.6,0.6-1.4,1-2.2,1.2c-1.5,0.3-2.9,0.1-4.3-0.5c0,0-0.1,0-0.1,0
			c-0.7-0.4-0.7-0.5-0.8-1.2c0-0.8-0.1-1.5-0.2-2.3c0-0.2,0-0.3,0.2-0.2c0.5,0,0.5,0,0.6,0.5c0.2,0.8,0.6,1.6,1.2,2.2
			c0.8,0.8,2.1,1.1,3.2,0.7c0.9-0.4,1.3-1.2,1.2-2.1c-0.1-1-0.7-1.5-1.5-1.9c-0.6-0.3-1.3-0.5-2-0.7c-0.7-0.3-1.3-0.6-1.8-1.1
			c-0.5-0.5-0.8-1.1-0.8-1.8c-0.1-1,0.1-2,0.9-2.8c0.6-0.6,1.3-0.9,2-1.1c1.2-0.3,2.4-0.2,3.6,0.2c0,0,0,0,0,0
			c0.9,0.3,0.9,0.3,0.9,1.3C150.9,66.2,150.9,66.5,150.9,66.7z"/>
		<path fill="#F2F2F2" d="M172.8,66.7c0,0.4,0,0.9,0,1.3c0,0.1,0,0.2-0.2,0.2c-0.2,0-0.3,0-0.5,0c-0.1-0.1-0.1-0.3-0.1-0.4
			c-0.2-0.7-0.4-1.4-1-1.9c-0.9-0.8-2.4-0.8-3.2,0c-0.7,0.7-0.9,2.1,0.3,2.9c0.6,0.4,1.3,0.6,1.9,0.8c0.8,0.3,1.6,0.6,2.3,1.2
			c0.7,0.6,1.1,1.3,1.2,2.2c0.1,1-0.1,1.9-0.7,2.7c-0.6,0.7-1.3,1.1-2.2,1.3c-1.5,0.3-3,0.2-4.4-0.5c-0.1-0.1-0.2-0.1-0.4-0.2
			c-0.4-0.2-0.5-0.4-0.5-0.9c0-0.9-0.1-1.7-0.2-2.6c0-0.1,0-0.2,0.1-0.1c0,0,0,0,0,0c0.5,0,0.5,0,0.6,0.5c0.3,0.9,0.7,1.8,1.4,2.5
			c0.9,0.8,2.6,0.9,3.4,0.2c0.7-0.6,0.8-1.3,0.6-2.1c-0.2-0.8-0.8-1.3-1.4-1.6c-0.5-0.3-1.1-0.4-1.6-0.6c-0.8-0.3-1.5-0.6-2.1-1.2
			c-0.7-0.7-1-1.6-0.9-2.6c0.1-0.7,0.3-1.3,0.8-1.9c0.6-0.7,1.3-1,2.2-1.2c1.2-0.2,2.4-0.2,3.5,0.2c0.3,0.1,0.5,0.2,0.8,0.4
			c0.1,0.1,0.1,0.1,0.1,0.3C172.8,65.8,172.8,66.2,172.8,66.7z"/>
		<path fill="#F2F2F2" d="M111.9,51.1c0,2.6,0,5.2,0,7.8c0,0.2,0,0.4,0,0.7c0.1,0.3,0.2,0.4,0.5,0.5c0.3,0.1,0.7,0.1,1,0.1
			c0.1,0,0.2,0,0.2,0.2c0,0.5,0,0.5-0.5,0.5c-1.7,0-3.4,0-5.1,0c-0.2,0-0.2,0-0.2-0.2c0-0.2,0-0.4,0-0.5c0.1-0.1,0.3,0,0.4-0.1
			c0.3,0,0.5,0,0.8-0.1c0.3-0.1,0.4-0.3,0.5-0.5c0-0.2,0-0.4,0-0.6c0-4.6,0-9.2,0-13.8c0-0.2,0-0.4,0-0.7c-0.1-0.3-0.2-0.5-0.5-0.5
			c-0.3,0-0.6-0.1-0.9-0.1c-0.2,0-0.2-0.1-0.2-0.2c0-0.4,0-0.4,0.4-0.5c1.1-0.2,2.1-0.4,3.2-0.5c0.2,0,0.3,0.1,0.3,0.2
			c0,0.1,0,0.2,0,0.3C111.9,45.8,111.9,48.5,111.9,51.1z"/>
		<path fill="#F2F2F2" d="M42.8,55.4c0,1.9,0,3.8,0,5.7c0,0.8-0.1,1.7-0.3,2.5c-0.4,1.6-1.5,2.6-3.1,3.1c-0.6,0.2-1.3,0.3-1.9,0.3
			c-0.2,0-0.2-0.1-0.2-0.2c0-0.1,0-0.1,0-0.2c0-0.1,0-0.2,0.2-0.2c0.6-0.2,1.1-0.3,1.6-0.7c0.8-0.5,1.1-1.3,1.3-2.1
			c0.2-1,0.3-2.1,0.3-3.1c0-3.2,0-6.4,0-9.5c0-0.9-0.3-0.9-1-1c-0.2,0-0.4-0.1-0.6-0.1c-0.1,0-0.1-0.1-0.1-0.2c0-0.5,0-0.5,0.4-0.5
			c1-0.2,2.1-0.4,3.1-0.5c0.2,0,0.3,0.1,0.3,0.3C42.8,51,42.8,53.2,42.8,55.4C42.8,55.4,42.8,55.4,42.8,55.4z"/>
		<path fill="#F2F2F2" d="M86.6,70.2c0-1.4,0-2.9,0-4.3c0-0.2-0.1-0.2-0.2-0.2c-0.4,0-0.9,0-1.3,0c-0.1,0-0.2,0-0.2-0.2
			c0-0.2,0-0.4,0-0.6c0-0.2,0-0.2,0.2-0.2c0.5,0,1,0,1.4,0c0.1,0,0.2,0,0.3-0.2c0.4-0.9,0.9-1.8,1.3-2.8c0.1-0.2,0.1-0.2,0.3-0.2
			c0.5,0,0.5,0,0.5,0.5c0,0.8,0,1.7,0,2.5c0,0.2,0,0.2,0.2,0.2c0.9,0,1.8,0,2.7,0c0.2,0,0.2,0.1,0.2,0.2c0,0.2,0,0.4,0,0.5
			c0,0.2,0,0.2-0.2,0.2c-0.9,0-1.8,0-2.7,0c-0.1,0-0.2,0-0.2,0.2c0,2.6,0,5.2,0,7.8c0,0.5,0.1,1,0.3,1.4c0.3,0.6,0.9,0.9,1.7,0.7
			c0.4-0.1,0.8-0.1,1.1-0.3c0.1,0,0.1,0,0.2,0.1c0.2,0.5,0.2,0.3-0.2,0.6c-0.7,0.4-1.4,0.7-2.2,0.8c-1,0.1-2,0-2.7-0.9
			c-0.4-0.5-0.5-1.1-0.5-1.7C86.6,73,86.6,71.6,86.6,70.2C86.6,70.2,86.6,70.2,86.6,70.2z"/>
		<path fill="#F2F2F2" d="M131.3,71.8c0,1.1,0,2.2,0,3.4c0,0.5,0.2,0.8,0.8,0.9c0.4,0.1,0.9,0.1,1.3,0.1c0.1,0,0.2,0,0.2,0.2
			c0,0.6,0,0.6-0.6,0.6c-1.8,0-3.7,0-5.5,0c-0.2,0-0.3-0.1-0.2-0.2c0-0.5,0-0.5,0.5-0.5c0.3,0,0.5-0.1,0.8-0.1
			c0.3-0.1,0.4-0.3,0.5-0.5c0-0.2,0-0.3,0-0.5c0-2.7,0-5.4,0-8.1c0,0,0-0.1,0-0.1c0-0.6-0.2-0.8-0.8-0.9c-0.2,0-0.5-0.1-0.7-0.1
			c-0.1,0-0.1,0-0.1-0.1c0-0.5,0-0.5,0.5-0.6c0.9-0.1,1.8-0.3,2.8-0.5c0,0,0,0,0.1,0c0.3-0.1,0.3-0.1,0.4,0.3c0.1,0.5,0.1,1,0.2,1.5
			c0,0,0,0.1,0,0.1c0.1,0,0.1,0,0.1-0.1c0.4-0.4,0.9-0.8,1.3-1.1c0.4-0.3,0.8-0.6,1.4-0.7c0.5-0.1,1,0,1.4,0.5c0.3,0.5,0.3,1,0,1.5
			c-0.3,0.5-0.8,0.7-1.4,0.4c-0.4-0.2-0.8-0.5-1.3-0.5c-0.4,0-0.7,0.2-0.9,0.5c-0.3,0.5-0.5,1-0.5,1.6
			C131.2,69.5,131.3,70.6,131.3,71.8z"/>
		<path fill="#F2F2F2" d="M76.6,50.5c0.2-0.2,0.4-0.4,0.6-0.5c0.5-0.5,1-0.9,1.7-1.2c0.4-0.2,0.8-0.3,1.2-0.2c0.8,0.2,1,0.8,0.9,1.5
			c0,0.2-0.2,0.5-0.3,0.6c-0.3,0.4-0.8,0.5-1.3,0.2c-0.4-0.2-0.8-0.4-1.2-0.5c-0.4-0.1-0.8,0.1-1,0.4c-0.4,0.5-0.5,1-0.5,1.6
			c-0.1,2.2,0,4.3,0,6.5c0,0.1,0,0.1,0,0.2c0,0.7,0.4,0.9,0.9,0.9c0.4,0.1,0.8,0.1,1.1,0.1c0.1,0,0.2,0.1,0.2,0.2
			c0,0.5,0,0.5-0.5,0.5c-1.9,0-3.7,0-5.6,0c-0.2,0-0.2,0-0.2-0.2c0-0.5,0-0.5,0.5-0.5c0.3,0,0.5,0,0.8-0.1c0.3-0.1,0.4-0.3,0.5-0.6
			c0-0.2,0-0.4,0-0.6c0-2.7,0-5.4,0-8.1c0-0.1,0-0.1,0-0.2c0-0.6-0.2-0.7-0.8-0.8c-0.3,0-0.5-0.1-0.8-0.1c-0.1,0-0.1-0.1-0.1-0.2
			c0-0.5,0-0.5,0.4-0.5c1-0.2,2-0.3,3-0.5c0.2,0,0.2,0,0.2,0.2C76.4,49.3,76.5,49.9,76.6,50.5z"/>
		<path fill="#F2F2F2" d="M96.8,66.4c0.4-0.3,0.7-0.6,1-0.9c0.4-0.4,0.9-0.7,1.4-1c0.4-0.2,0.8-0.2,1.2-0.1c0.6,0.2,0.9,0.8,0.8,1.4
			c-0.1,0.3-0.2,0.6-0.4,0.8c-0.3,0.3-0.7,0.4-1.1,0.1c-0.3-0.2-0.7-0.4-1.1-0.5c-0.5-0.1-0.9,0-1.2,0.4c-0.3,0.4-0.4,0.9-0.5,1.4
			c-0.1,1.1,0,2.2,0,3.4c0,1.1,0,2.1,0,3.2c0,0.2,0,0.4,0,0.6c0.1,0.3,0.2,0.5,0.6,0.6c0.5,0.1,1,0.1,1.5,0.2c0.1,0,0.2,0,0.2,0.2
			c0,0.5,0,0.5-0.5,0.5c-1.8,0-3.7,0-5.5,0c-0.2,0-0.2,0-0.2-0.2c0-0.5,0-0.5,0.5-0.5c0.3,0,0.5-0.1,0.7-0.1
			c0.3-0.1,0.4-0.3,0.5-0.6c0-0.2,0-0.4,0-0.6c0-2.7,0-5.3,0-8c0-0.2,0-0.3,0-0.5c0-0.3-0.2-0.4-0.4-0.5c-0.3-0.1-0.7-0.1-1-0.2
			c-0.2,0-0.2-0.1-0.2-0.2c0-0.4,0-0.4,0.4-0.5c1-0.2,2-0.3,3-0.5c0.2,0,0.3,0.1,0.3,0.3C96.6,65.2,96.7,65.8,96.8,66.4z"/>
		<path fill="#F2F2F2" d="M140.4,70c0,1.6,0,3.2,0,4.7c0,0.1,0,0.3,0,0.4c0,0.6,0.2,0.8,0.8,0.9c0.3,0,0.6,0.1,0.8,0.1
			c0.1,0,0.1,0,0.1,0.1c0,0.6,0,0.6-0.6,0.6c-1.7,0-3.3,0-5,0c-0.2,0-0.3,0-0.3-0.3c0-0.5,0-0.5,0.5-0.5c0.3,0,0.5-0.1,0.8-0.1
			c0.3-0.1,0.4-0.2,0.4-0.5c0-0.2,0-0.4,0-0.6c0-2.7,0-5.4,0-8.1c0-0.2,0-0.3,0-0.5c0-0.2-0.2-0.4-0.4-0.5c-0.3-0.1-0.7-0.1-1-0.2
			c-0.1,0-0.2,0-0.2-0.2c0-0.5,0-0.5,0.4-0.5c1.1-0.2,2.1-0.4,3.2-0.5c0.2,0,0.3,0.1,0.3,0.2c0,0.2,0,0.4,0,0.6
			C140.4,66.8,140.4,68.4,140.4,70z"/>
		<path fill="#F2F2F2" d="M121.9,58.6c-0.2,0.3-0.3,0.5-0.5,0.8c-0.4,0.6-0.8,1.2-1.4,1.6c-0.5,0.3-1,0.6-1.6,0.4
			c-0.4-0.1-0.6-0.4-0.8-0.7c-0.2-0.6-0.2-1.3,0-1.9c0.2-1,0.7-1.9,1.4-2.6c0.6-0.6,1.3-1.1,2.1-1.2c0.5-0.1,0.9-0.1,1.4,0.1
			c0.2,0.1,0.3,0.1,0.3-0.2c0.1-0.7,0.3-1.4,0.5-2c0.1-0.3,0-0.3-0.3-0.4c-0.2,0-0.4,0-0.6-0.1c-0.1,0-0.1,0-0.1-0.1
			c0-0.1,0-0.2,0.1-0.2c0.6-0.1,1.3-0.2,1.9-0.3c0.2,0,0.2,0,0.2,0.2c-0.3,1.1-0.5,2.2-0.8,3.3c-0.2,1-0.5,2-0.7,3
			c-0.1,0.6-0.3,1.2-0.4,1.7c0,0.1,0,0.3,0,0.5c0,0.2,0.2,0.2,0.3,0.1c0.2-0.1,0.4-0.3,0.5-0.5c0.1-0.2,0.3-0.4,0.4-0.7
			c0-0.1,0.1-0.1,0.2-0.1c0.1,0,0.2,0.1,0.1,0.2c-0.1,0.3-0.3,0.5-0.4,0.8c-0.3,0.3-0.5,0.7-1,0.8c-0.2,0.1-0.5,0.1-0.7,0.1
			c-0.3-0.1-0.4-0.3-0.4-0.6c0-0.5,0.1-0.9,0.2-1.3C121.8,59.3,121.9,59,121.9,58.6z M118.7,59.9c0,0.2,0,0.3,0,0.5
			c0.2,0.6,0.6,0.6,1.1,0.3c0.5-0.3,0.9-0.8,1.3-1.4c0.7-1.1,1.2-2.2,1.4-3.5c0-0.2,0-0.2-0.1-0.3c-0.5-0.3-1.4-0.1-1.9,0.3
			c-0.5,0.5-0.9,1.1-1.2,1.7C119,58.3,118.7,59,118.7,59.9z"/>
		<path fill="#F2F2F2" d="M124.7,59.4c0-1.2,0.3-2.1,1-3c0.6-0.8,1.3-1.3,2.3-1.5c0.5-0.1,1.1-0.1,1.5,0.3c0.4,0.3,0.5,0.8,0.4,1.4
			c-0.1,0.5-0.5,0.9-1,1.1c-0.6,0.4-1.2,0.6-1.8,0.8c-0.3,0.1-0.7,0.2-1,0.2c-0.1,0-0.1,0-0.1,0.1c0,0.4,0,0.7,0.1,1.1
			c0.2,0.8,0.9,1.1,1.7,0.8c0.5-0.2,0.8-0.5,1.1-0.9c0.1-0.1,0.2-0.2,0.2-0.3c0-0.1,0.1-0.2,0.2-0.1c0.1,0.1,0.2,0.2,0.1,0.3
			c-0.4,0.6-0.9,1.1-1.6,1.4c-0.5,0.2-1.1,0.3-1.7,0.1c-0.7-0.2-1.1-0.7-1.2-1.3C124.7,59.8,124.6,59.6,124.7,59.4z M128.7,56.3
			c0-0.7-0.4-1-1-0.9c-0.4,0.1-0.7,0.4-0.9,0.7c-0.5,0.6-0.8,1.4-0.9,2.2c-0.1,0.2,0.1,0.2,0.2,0.1c0.6-0.2,1.2-0.4,1.7-0.7
			C128.3,57.3,128.7,56.8,128.7,56.3z"/>
		<path fill="#F2F2F2" d="M51.7,44.7c0-1.2,0.4-2.2,1.2-3.1c0.4-0.5,1-0.9,1.6-1.1c0.4-0.1,0.8-0.2,1.2-0.1c0.7,0.1,1.3,0.6,1.1,1.5
			c-0.1,0.6-0.5,1-1,1.4c-0.9,0.6-1.9,0.8-2.9,1c-0.1,0-0.1,0-0.1,0.1c0,0.5,0,0.9,0.2,1.3c0.2,0.6,0.8,0.7,1.2,0.6
			c0.7-0.2,1.2-0.7,1.6-1.3c0-0.1,0.1-0.2,0.2-0.1c0.1,0.1,0.2,0.1,0.1,0.3c-0.5,0.8-1.2,1.4-2.1,1.6c-0.7,0.2-1.5,0.1-2-0.5
			c-0.3-0.4-0.4-0.8-0.4-1.3C51.7,44.9,51.7,44.8,51.7,44.7z M55.8,41.6c0-0.7-0.4-1-1-0.9c-0.2,0-0.3,0.1-0.5,0.2
			c-0.9,0.7-1.2,1.7-1.4,2.7c0,0.1,0,0.1,0.1,0.1c0.6-0.2,1.2-0.4,1.7-0.7C55.4,42.7,55.8,42.2,55.8,41.6z"/>
		<path fill="#F2F2F2" d="M131.4,61.5c-0.5,0-1-0.2-1.4-0.6c-0.3-0.3-0.3-0.7-0.1-1.1c0.1-0.2,0.3-0.2,0.5-0.2
			c0.2,0,0.2,0.2,0.3,0.3c0.1,0.4,0.3,0.7,0.6,0.9c0.4,0.3,1.2,0.1,1.4-0.5c0.2-0.6-0.1-1.1-0.5-1.5c-0.1-0.2-0.3-0.3-0.5-0.4
			c-0.3-0.3-0.6-0.6-0.8-1.1c-0.4-0.9,0-1.9,0.9-2.3c0.7-0.3,1.5-0.3,2.2,0.2c0.3,0.2,0.4,0.5,0.3,0.8c-0.1,0.2-0.3,0.4-0.5,0.4
			c-0.2,0-0.4-0.2-0.4-0.4c-0.2-0.5-0.5-0.8-0.9-0.8c-0.5,0-0.8,0.4-0.8,0.8c0,0.6,0.3,0.9,0.7,1.3c0.4,0.3,0.7,0.7,1,1.1
			c0.4,0.5,0.4,1.6-0.1,2.2C132.9,61.2,132.3,61.4,131.4,61.5z"/>
		<path fill="#F2F2F2" d="M40.2,44.8c0-0.9,0.6-1.5,1.4-1.5c0.8,0,1.5,0.6,1.5,1.5c0,0.9-0.6,1.5-1.5,1.5
			C40.7,46.3,40.1,45.6,40.2,44.8z"/>
		<path fill="#F2F2F2" d="M140.7,60.6c0,0.9-0.6,1.5-1.5,1.5c-0.8,0-1.4-0.6-1.4-1.6c0-0.8,0.7-1.5,1.5-1.5
			C140.1,59.1,140.7,59.8,140.7,60.6z"/>
	</g>
	<pattern  id="SVGID_3_" xlink:href="#SVGID_1_" patternTransform="matrix(0.2004 0 0 -0.2004 -12654.2227 -6408.5889)">
	</pattern>
	<rect display="inline" fill="url(#SVGID_3_)" width="1280" height="800"/>
	<pattern  id="SVGID_4_" xlink:href="#SVGID_2_" patternTransform="matrix(0.2004 0 0 -0.2004 -12654.2227 -6408.5889)">
	</pattern>
	<rect display="inline" fill="url(#SVGID_4_)" width="1280" height="800"/>
	<rect display="inline" opacity="0.87" fill="#001723" enable-background="new    " width="1280" height="800"/>
</g>
<g id="Illustration">
	<g display="none">
		<path display="inline" fill="#D8AE73" d="M523.2,388.6h5.8v2.2h-8.1v-21h2.3L523.2,388.6L523.2,388.6z"/>
		<path display="inline" fill="#D8AE73" d="M531.6,369.8h10.9v2.2h-8.6v6.2h8.3v2.2h-8.3v8.2h8.6v2.2h-10.9V369.8z"/>
		<path display="inline" fill="#D8AE73" d="M569,375.3c-1.1-1.4-2.9-2.2-4.6-2.2c-3.9,0-6.2,3.6-6.2,7.2c0,3.5,2.3,7.1,6.2,7.1
			c1.8,0,3.5-0.9,4.7-2.2v4.9c-1.5,0.7-3.1,1.3-4.8,1.3c-5.9,0-10.3-5.1-10.3-10.9c0-6,4.2-11.2,10.4-11.2c1.6,0,3.3,0.4,4.7,1.2
			L569,375.3L569,375.3z"/>
		<path display="inline" fill="#D8AE73" d="M586.2,390.8h-5l-5.1-8.5h-0.1v8.5H572v-21h5.5c4.2,0,7,1.8,7,6.3c0,2.7-1.5,5.3-4.3,5.8
			L586.2,390.8z M576.1,379.4h0.5c2.3,0,3.8-0.7,3.8-3.2c0-2.6-1.6-3.1-3.8-3.1h-0.6V379.4z"/>
		<path display="inline" fill="#D8AE73" d="M597.2,391.3c-6.4,0-10.4-4.9-10.4-11.1c0-6.2,4.1-11,10.4-11s10.4,4.8,10.4,11
			C607.6,386.4,603.6,391.3,597.2,391.3z M597.2,373.2c-3.9,0-6.2,3.4-6.2,6.8c0,3.2,1.6,7.2,6.2,7.2c4.5,0,6.2-4,6.2-7.2
			C603.3,376.7,601.1,373.2,597.2,373.2z"/>
		<path display="inline" fill="#D8AE73" d="M616.5,384.1L616.5,384.1l4.2-14.6h2.4l4.3,14.6h0.1l4.1-14.3h4.3l-7.1,21.4h-3
			l-4.2-13.7h-0.1l-4,13.7h-3l-6.7-21.4h4.3L616.5,384.1z"/>
		<path display="inline" fill="#D8AE73" d="M637.3,369.8h5.9c6.1,0,10.1,4.5,10.1,10.5c0,5.9-4.2,10.5-10.2,10.5h-5.8L637.3,369.8
			L637.3,369.8z M641.4,387.2h0.7c5,0,7-2.8,7-6.9c0-4.6-2.3-6.9-7-6.9h-0.7V387.2z"/>
		<path display="inline" fill="#D8AE73" d="M659.7,373.3v4.6h5.9v3.6h-5.9v9.2h-4.1v-21H666v3.6L659.7,373.3L659.7,373.3z"/>
		<path display="inline" fill="#D8AE73" d="M668.7,369.8h4.1v11.8c0,2.6,0.2,6.2,3.7,6.2c3.5,0,3.7-3.6,3.7-6.2v-11.8h4.1v12.6
			c0,5.1-2.2,9-7.8,9c-5.6,0-7.8-3.9-7.8-9L668.7,369.8L668.7,369.8z"/>
		<path display="inline" fill="#D8AE73" d="M687.5,369.2h3l11.1,14.7h0.1v-14.1h4.1v21.4h-3l-11.1-14.7h-0.1v14.3h-4.1V369.2z"/>
		<path display="inline" fill="#D8AE73" d="M708.9,369.8h5.8c6.1,0,10.1,4.5,10.1,10.5c0,5.9-4.2,10.5-10.2,10.5h-5.8L708.9,369.8
			L708.9,369.8z M713,387.2h0.7c5,0,7-2.8,7-6.9c0-4.6-2.3-6.9-7-6.9H713V387.2z"/>
		<path display="inline" fill="#D8AE73" d="M731.2,390.8h-4.1v-21h4.1V390.8z"/>
		<path display="inline" fill="#D8AE73" d="M734.5,369.2h3l11.1,14.7h0.1v-14.1h4.1v21.4h-3l-11.1-14.7h-0.1v14.3h-4.1L734.5,369.2
			L734.5,369.2z"/>
		<path display="inline" fill="#D8AE73" d="M774.5,379.6v0.5c0,5.9-3,11.2-9.6,11.2c-6.1,0-10-5.2-10-11c0-6,4-11.1,10.3-11.1
			c3.6,0,6.7,1.8,8.3,5l-3.6,2c-0.8-1.9-2.6-3.3-4.8-3.3c-4,0-5.9,4-5.9,7.5s2,7.4,5.9,7.4c2.6,0,4.7-2.2,4.8-4.8h-4.5v-3.3
			L774.5,379.6L774.5,379.6z"/>
		<path display="inline" fill="#D8AE73" d="M520.8,403.2h10.9v2.2h-8.6v6.2h8.3v2.2h-8.3v8.2h8.6v2.2h-10.9V403.2z"/>
		<path display="inline" fill="#D8AE73" d="M551.9,422.5c-1.7,1.3-4.2,2.1-6.3,2.1c-6,0-10.9-4.8-10.9-10.8c0-6,5-10.9,10.9-10.9
			c6.1,0,10.9,4.9,10.9,10.9c0,2.9-1.1,5.3-3,7.4l3.1,3.2h-3L551.9,422.5z M551.9,419.5c1.6-1.6,2.3-3.6,2.3-5.8
			c0-4.8-3.8-8.7-8.6-8.7c-4.8,0-8.6,3.9-8.6,8.7c0,4.7,3.8,8.7,8.6,8.7c1.6,0,3.4-0.6,4.7-1.6l-5.1-5.1h3.1L551.9,419.5z"/>
		<path display="inline" fill="#D8AE73" d="M562,415.7c0,1.6-0.1,3.3,0.9,4.7c0.9,1.3,2.7,2,4.2,2c1.5,0,3.1-0.7,4.1-1.9
			c1.1-1.3,1-3.2,1-4.8v-12.5h2.3v13.1c0,2.3-0.2,4.1-1.8,5.8c-1.4,1.6-3.5,2.4-5.7,2.4c-2,0-4-0.8-5.4-2.1
			c-1.8-1.8-2.1-3.7-2.1-6.1v-13.1h2.3L562,415.7L562,415.7z"/>
		<path display="inline" fill="#D8AE73" d="M581.2,424.2h-2.3v-21h2.3V424.2z"/>
		<path display="inline" fill="#D8AE73" d="M591,424.2h-2.3v-18.8h-5.1v-2.2h12.5v2.2H591V424.2z"/>
		<path display="inline" fill="#D8AE73" d="M596.7,403.2h2.7l5.3,9.4l5.3-9.4h2.7l-6.9,12v9h-2.3v-9L596.7,403.2z"/>
		<path display="inline" fill="#D8AE73" d="M623.6,403.2h10.9v2.2H626v6.2h8.3v2.2H626v8.2h8.6v2.2h-10.9V403.2z"/>
		<path display="inline" fill="#D8AE73" d="M638.7,402.3l16.4,17.2v-16.3h2.3v22L641,408v16.2h-2.3L638.7,402.3L638.7,402.3z"/>
		<path display="inline" fill="#D8AE73" d="M672.7,405.4v6.2h7v2.2h-7v10.4h-2.3v-21h9.6v2.2H672.7z"/>
		<path display="inline" fill="#D8AE73" d="M686,424.2h-2.3v-21h3c4,0,7.7,1.1,7.7,5.8c0,3.2-2,5.5-5.3,5.8l6.7,9.4h-2.9l-6.4-9.2
			H686L686,424.2L686,424.2z M686,412.9h0.7c2.6,0,5.3-0.5,5.3-3.8c0-3.5-2.5-3.8-5.3-3.8H686V412.9z"/>
		<path display="inline" fill="#D8AE73" d="M701.9,418.2l-2.5,6h-2.6l9.7-22l9.4,22h-2.6l-2.5-6H701.9z M706.4,407.6l-3.6,8.4h7.1
			L706.4,407.6z"/>
		<path display="inline" fill="#D8AE73" d="M718.3,402.3l16.4,17.2v-16.3h2.3v22L720.7,408v16.2h-2.3V402.3z"/>
		<path display="inline" fill="#D8AE73" d="M757.4,407.8c-1.7-1.7-4-2.8-6.4-2.8c-4.7,0-8.5,4.1-8.5,8.7c0,4.6,3.8,8.7,8.5,8.7
			c2.4,0,4.7-1.1,6.4-2.8v2.9c-1.8,1.3-4,2.1-6.3,2.1c-5.9,0-10.9-4.8-10.9-10.8c0-6,4.9-10.9,10.9-10.9c2.3,0,4.4,0.7,6.3,2.1
			V407.8z"/>
		<path display="inline" fill="#D8AE73" d="M761.4,403.2h10.9v2.2h-8.6v6.2h8.3v2.2h-8.3v8.2h8.6v2.2h-10.9V403.2z"/>
	</g>
	<g id="rotatingCircle2">
		<g>
			<path fill="#D0AA6D" d="M452,231.8c0,0-0.2-1.4-0.2-4c0-1.3-0.1-2.9-0.2-4.9c0-1-0.1-2-0.1-3.1c-0.1-1.1-0.2-2.3-0.3-3.6
				c-0.7-10.1-2.4-25-7.7-43.1c-2.5-9.1-6.2-18.9-10.9-29.3c-1.2-2.6-2.4-5.2-3.8-7.8c-1.4-2.6-2.8-5.3-4.3-8
				c-1.5-2.7-3.2-5.3-4.8-8c-0.4-0.7-0.8-1.4-1.2-2c-0.4-0.7-0.9-1.3-1.3-2c-0.9-1.3-1.8-2.7-2.7-4c-7.4-10.8-16.3-21.6-26.7-31.9
				c-10.4-10.3-22.3-20.1-35.7-28.8c-13.4-8.7-28.3-16.3-44.4-22.3c-16.1-6.1-33.5-10.3-51.7-12.5c-2.3-0.4-4.6-0.5-6.8-0.7
				c-2.3-0.2-4.6-0.4-6.9-0.6c-2.3-0.1-4.6-0.2-7-0.2c-1.2,0-2.3-0.1-3.5-0.1c-0.2,0-0.2,0-0.3,0l-0.4,0l-0.9,0l-1.8,0
				c-2.4,0-4.8,0.1-7.2,0.1c-2.4,0.1-4.7,0.3-7.1,0.4c-4.7,0.2-9.5,0.9-14.3,1.4c-9.5,1.4-19.1,3-28.6,5.7
				c-4.8,1.2-9.5,2.8-14.2,4.3c-2.3,0.8-4.7,1.7-7,2.6l-3.5,1.3l-3.5,1.5c-18.5,7.8-36.2,18.5-52.3,31.7
				c-8.1,6.5-15.5,13.9-22.6,21.6c-1.7,2-3.5,4-5.2,5.9c-1.7,2-3.3,4.1-4.9,6.2c-0.8,1-1.6,2.1-2.4,3.1l-2.3,3.2l-2.3,3.2
				c-0.8,1.1-1.5,2.2-2.2,3.3c-1.4,2.2-2.9,4.5-4.3,6.7c-1.4,2.3-2.7,4.6-4,6.9c-0.7,1.2-1.3,2.3-2,3.5l-1.8,3.6l-1.8,3.6l-0.9,1.8
				c-0.3,0.6-0.5,1.2-0.8,1.8c-1.1,2.4-2.2,4.9-3.2,7.3c-1,2.5-1.9,5-2.9,7.5c-0.5,1.2-1,2.5-1.4,3.7l-1.3,3.8l-1.3,3.8
				c-0.4,1.3-0.8,2.5-1.2,3.8l-2.1,7.8c-0.7,2.6-1.2,5.2-1.8,7.8l-0.9,3.9l-0.7,4l-0.7,4c-0.2,1.3-0.5,2.6-0.6,4l-0.9,8
				c-0.1,0.7-0.2,1.3-0.2,2l-0.1,2l-0.3,4l-0.3,4c-0.1,1.3-0.1,2.7-0.1,4l-0.1,8l0.3,8.1c0.1,1.3,0.1,2.7,0.2,4l0.4,4l0.4,4l0.2,2
				c0.1,0.7,0.2,1.3,0.3,2l1.1,7.9c0.2,1.3,0.5,2.6,0.7,3.9l0.8,3.9l0.8,3.9l1,3.9c0.7,2.6,1.2,5.2,2,7.7l2.3,7.6
				c0.4,1.3,0.8,2.5,1.2,3.8l1.3,3.8l1.3,3.8c0.5,1.2,1,2.5,1.5,3.7c1,2.4,2,4.9,3,7.3c1.1,2.4,2.2,4.8,3.3,7.2
				c0.5,1.2,1.1,2.4,1.8,3.5l1.8,3.5l1.8,3.5c0.6,1.2,1.3,2.3,2,3.4c1.3,2.3,2.6,4.6,4,6.8c1.4,2.2,2.9,4.4,4.3,6.6
				c0.7,1.1,1.5,2.2,2.2,3.2l2.3,3.2l2.3,3.2c0.8,1,1.6,2,2.4,3.1c1.6,2,3.2,4.1,4.9,6.1c1.7,2,3.4,3.9,5.1,5.9
				c0.8,1,1.7,1.9,2.6,2.8l2.7,2.8l2.7,2.8c0.9,0.9,1.9,1.8,2.8,2.7c1.9,1.8,3.7,3.6,5.6,5.3c2,1.7,3.9,3.3,5.8,5
				c15.8,13.1,33.2,23.8,51.4,31.7l3.4,1.5l3.5,1.3c2.3,0.9,4.6,1.8,6.9,2.7c2.3,0.8,4.7,1.6,7,2.3c2.3,0.8,4.7,1.5,7,2.1
				c9.4,2.8,18.9,4.6,28.3,6.1c4.7,0.6,9.5,1.3,14.2,1.5c2.4,0.2,4.7,0.4,7.1,0.5c2.4,0.1,4.7,0.1,7,0.2l1.8,0.1l0.9,0l0.4,0
				c0.2,0,0.1,0,0.3,0c1.2,0,2.4,0,3.6-0.1c2.4,0,4.7-0.1,7.1-0.1c2.3-0.1,4.6-0.3,6.8-0.5c2.3-0.2,4.5-0.3,6.8-0.6
				c18.1-2,35.5-6.1,51.6-12.1c4-1.6,8-3,11.9-4.8c1.9-0.8,3.9-1.7,5.8-2.5c1.9-0.9,3.7-1.9,5.6-2.8c7.4-3.7,14.5-7.8,21.2-12.1
				c13.4-8.7,25.4-18.4,35.8-28.7c10.4-10.3,19.3-21.1,26.7-31.9c0.9-1.4,1.8-2.7,2.7-4c0.4-0.7,0.9-1.3,1.3-2
				c0.4-0.7,0.8-1.4,1.2-2c1.6-2.7,3.3-5.4,4.8-8c1.4-2.7,2.9-5.4,4.3-8c1.3-2.6,2.5-5.3,3.8-7.8c4.7-10.4,8.4-20.2,10.9-29.3
				c0.3-1.1,0.7-2.3,1-3.4c0.3-1.1,0.5-2.2,0.8-3.3c0.5-2.2,1-4.3,1.5-6.3c0.9-4.1,1.6-8,2.2-11.6c0.5-3.6,0.9-7,1.4-10.1
				c0.2-1.5,0.3-3,0.4-4.4c0.1-1.4,0.2-2.7,0.3-4c0.1-1.3,0.2-2.5,0.3-3.6c0.1-1.1,0.1-2.2,0.1-3.1c0.1-1.9,0.2-3.6,0.3-4.9
				C451.9,233.2,452,231.8,452,231.8L452,231.8L452,231.8z M453,231.8c0,0-0.2,1.4-0.3,4c0,1.3-0.1,2.9-0.2,4.9c0,1-0.1,2-0.1,3.1
				c-0.1,1.1-0.2,2.3-0.3,3.6c-0.6,10.1-2.2,25.1-7.1,43.5c-0.6,2.3-1.3,4.7-1.9,7.1c-0.8,2.4-1.6,4.8-2.4,7.3
				c-0.7,2.5-1.7,5-2.7,7.6c-1,2.6-1.9,5.2-3.1,7.9c-4.4,10.6-10,21.8-17.1,33.1c-7.1,11.3-15.7,22.7-25.9,33.7
				c-5.1,5.5-10.7,10.9-16.6,16.1c-1.4,1.4-3,2.6-4.6,3.8c-1.5,1.3-3.1,2.5-4.7,3.8c-1.6,1.2-3.3,2.4-4.9,3.6
				c-1.7,1.2-3.3,2.5-5,3.6c-6.9,4.6-14,9.2-21.6,13.2c-1.9,1-3.8,2-5.8,3c-2,0.9-4,1.8-5.9,2.8c-3.9,1.9-8.1,3.5-12.2,5.2
				c-2.1,0.9-4.2,1.5-6.3,2.3c-2.1,0.7-4.3,1.5-6.4,2.2c-2.2,0.6-4.4,1.3-6.6,1.9c-1.1,0.3-2.2,0.6-3.3,1c-1.1,0.3-2.2,0.5-3.4,0.8
				c-2.2,0.5-4.5,1.1-6.8,1.6c-2.3,0.5-4.6,0.9-6.9,1.3c-1.2,0.2-2.3,0.4-3.5,0.6l-1.7,0.3l-1.8,0.2c-2.3,0.3-4.7,0.6-7,0.9
				c-2.3,0.4-4.8,0.5-7.2,0.7c-2.4,0.2-4.8,0.4-7.2,0.6c-2.4,0.1-4.7,0.1-7.1,0.2c-1.2,0-2.4,0.1-3.6,0.1c0,0-0.4,0-0.6,0l-0.5,0
				l-0.9,0l-1.8,0c-2.4-0.1-4.9-0.1-7.3-0.2c-2.5-0.1-4.9-0.3-7.4-0.5c-4.9-0.3-9.9-1-14.8-1.6c-9.9-1.6-19.8-3.5-29.6-6.4
				c-4.9-1.3-9.7-3.1-14.6-4.7c-2.4-0.9-4.8-1.9-7.2-2.8l-3.6-1.4l-3.5-1.6c-18.9-8.5-36.9-19.8-53.2-33.6c-2-1.8-4-3.5-6-5.3
				c-2-1.8-3.9-3.7-5.8-5.5c-1-0.9-1.9-1.8-2.9-2.8l-2.8-2.9l-2.8-2.9c-0.9-1-1.9-1.9-2.7-3c-1.8-2-3.5-4.1-5.3-6.1
				c-1.7-2.1-3.3-4.2-5-6.4c-0.8-1.1-1.7-2.1-2.5-3.2l-2.3-3.3l-2.3-3.3c-0.8-1.1-1.6-2.2-2.3-3.4c-1.4-2.3-2.9-4.6-4.3-6.9
				c-1.4-2.3-2.7-4.7-4.1-7.1c-0.7-1.2-1.4-2.4-2-3.6l-1.8-3.7l-1.8-3.7l-0.9-1.8c-0.3-0.6-0.6-1.2-0.8-1.9c-1.1-2.5-2.2-5-3.3-7.5
				c-1.1-2.5-2-5.1-3-7.6c-0.5-1.3-1-2.5-1.4-3.8l-1.3-3.9l-1.3-3.9c-0.4-1.3-0.9-2.6-1.2-3.9l-2.1-7.9c-0.7-2.7-1.2-5.4-1.8-8
				l-0.9-4l-0.7-4.1l-0.7-4.1c-0.2-1.4-0.5-2.7-0.6-4.1l-0.9-8.2c-0.1-0.7-0.2-1.4-0.2-2L9,252.3l-0.3-4.1l-0.3-4.1
				c-0.1-1.4-0.1-2.7-0.1-4.1l-0.1-8.2c0.5-43.9,14.3-87.1,38.2-122.8c23.8-35.8,57.3-64,94.6-81.2l3.5-1.6l3.5-1.5
				c2.4-1,4.7-2,7.1-2.9c4.8-1.7,9.5-3.5,14.4-4.9c9.6-3.1,19.5-5.2,29.3-6.8c4.9-0.7,9.8-1.5,14.7-1.8c2.5-0.2,4.9-0.5,7.4-0.6
				c2.4-0.1,4.8-0.2,7.2-0.3l1.8-0.1l0.9,0l0.4,0c0.1,0,0.5,0,0.5,0c1.2,0,2.4,0,3.6,0.1c2.4,0,4.8,0.1,7.2,0.1
				c2.4,0.1,4.8,0.3,7.2,0.5c2.4,0.2,4.8,0.3,7.1,0.6c2.4,0.3,4.7,0.6,7,0.9l1.8,0.2l1.7,0.3c1.2,0.2,2.3,0.4,3.5,0.6
				c2.3,0.4,4.6,0.8,6.9,1.3c2.3,0.5,4.5,1,6.8,1.5c1.1,0.3,2.2,0.5,3.4,0.8c1.1,0.3,2.2,0.6,3.3,0.9c2.2,0.6,4.4,1.2,6.6,1.9
				c2.2,0.7,4.3,1.4,6.4,2.1c2.1,0.8,4.3,1.4,6.3,2.3c16.7,6.4,32,14.6,45.6,23.9c1.7,1.1,3.3,2.4,5,3.6c1.6,1.2,3.3,2.4,4.9,3.6
				c1.6,1.3,3.1,2.5,4.7,3.8c1.5,1.3,3.1,2.5,4.6,3.8c5.9,5.2,11.5,10.5,16.6,16c10.2,11,18.8,22.4,25.9,33.7
				c7.1,11.3,12.8,22.4,17.1,33c1.2,2.6,2.1,5.3,3.1,7.9c1,2.6,2,5.1,2.7,7.6c0.8,2.5,1.6,4.9,2.4,7.3c0.7,2.4,1.3,4.8,1.9,7.1
				c4.9,18.4,6.5,33.3,7.1,43.5c0.1,1.3,0.2,2.5,0.3,3.6c0.1,1.1,0.1,2.2,0.1,3.1c0,1.9,0.3,3.6,0.3,4.9
				C452.8,230.5,453,231.8,453,231.8L453,231.8L453,231.8z"/>
		</g>
	</g>
	<g id="rotatingCircle1" display="none">
		<path display="inline" fill="#D0AA6D" d="M650.5,617.8c0,0,1.4,0,4-0.1c1.3,0,2.9-0.1,4.9-0.1c1,0,2,0,3.1-0.1
			c1.1-0.1,2.3-0.2,3.6-0.3c10.1-0.7,25-2.4,43.2-7.5c2.3-0.7,4.6-1.3,7-2c2.4-0.8,4.8-1.6,7.3-2.5c2.5-0.8,5-1.8,7.5-2.9
			c2.5-1,5.2-2,7.7-3.2c10.5-4.6,21.3-10.5,32.3-17.8c11-7.3,22-16.1,32.5-26.4c10.5-10.3,20.6-22.3,29.5-35.7
			c8.9-13.5,16.7-28.5,22.9-44.8c6.1-16.3,10.4-33.9,12.6-52.3c0.3-2.3,0.5-4.6,0.7-6.9c0.2-2.3,0.4-4.7,0.5-7
			c0.1-2.3,0.1-4.7,0.2-7.1c0-1.2,0.1-2.4,0.1-3.5c0-1.1,0-2.4-0.1-3.5c-0.1-2.4-0.1-4.8-0.2-7.2c-0.1-2.4-0.3-4.8-0.5-7.2
			c-0.2-4.8-0.9-9.6-1.5-14.4c-1.5-9.6-3.3-19.3-6.1-28.8c-1.2-4.8-3-9.5-4.5-14.3c-0.9-2.4-1.8-4.7-2.7-7l-1.4-3.5l-1.5-3.5
			c-8.1-18.6-19-36.3-32.3-52.3c-1.7-2-3.4-4-5.1-5.9c-1.7-2-3.6-3.8-5.4-5.7c-0.9-0.9-1.8-1.9-2.7-2.8l-2.8-2.7l-2.9-2.7
			c-0.9-0.9-1.9-1.8-2.9-2.7c-2-1.7-4-3.5-6-5.2c-2-1.7-4.1-3.3-6.2-5c-1-0.8-2.1-1.7-3.1-2.5l-3.2-2.3l-3.3-2.3
			c-1.1-0.8-2.2-1.5-3.3-2.2c-2.2-1.4-4.5-2.9-6.7-4.3c-2.3-1.4-4.6-2.7-6.9-4c-1.2-0.7-2.3-1.3-3.5-2l-3.6-1.8l-3.6-1.8
			c-1.2-0.6-2.4-1.2-3.6-1.8c-2.4-1.1-4.9-2.2-7.3-3.3c-2.5-1.1-5-2-7.5-3c-1.3-0.5-2.5-1-3.8-1.5l-3.8-1.3l-3.8-1.3
			c-1.3-0.4-2.5-0.9-3.8-1.2l-7.8-2.2c-2.6-0.7-5.2-1.2-7.9-1.8l-3.9-0.9l-4-0.7l-4-0.7c-1.3-0.2-2.7-0.5-4-0.6l-8-1
			c-0.7-0.1-1.3-0.2-2-0.2l-2-0.1l-4-0.3l-4-0.3c-1.3-0.1-2.7-0.1-4-0.1l-8.1-0.2l-8.1,0.2c-1.4,0.1-2.7,0-4.1,0.2l-4,0.3l-4,0.3
			l-2,0.2c-0.7,0.1-1.3,0.2-2,0.2l-8,1.1c-1.3,0.1-2.7,0.4-4,0.7l-4,0.7l-4,0.7l-3.9,0.9c-2.6,0.6-5.3,1.2-7.8,1.9l-7.7,2.2
			c-1.3,0.3-2.6,0.8-3.8,1.2l-3.8,1.3l-3.8,1.3c-1.3,0.5-2.5,1-3.7,1.5c-2.5,1-5,1.9-7.4,3c-2.4,1.1-4.9,2.2-7.3,3.3
			c-1.2,0.5-2.4,1.1-3.6,1.8l-3.6,1.8l-3.6,1.8c-1.2,0.6-2.3,1.3-3.5,2c-2.3,1.4-4.6,2.6-6.9,4c-2.2,1.4-4.5,2.9-6.7,4.3
			c-1.1,0.7-2.2,1.5-3.3,2.3l-3.2,2.3l-3.2,2.3c-1.1,0.8-2.1,1.6-3.1,2.4c-2.1,1.7-4.2,3.2-6.2,4.9c-2,1.7-4,3.5-6,5.2
			c-1,0.8-2,1.8-2.9,2.7l-2.8,2.7l-2.8,2.7c-0.9,0.9-1.8,1.9-2.7,2.8c-1.8,1.9-3.6,3.8-5.4,5.7c-1.7,2-3.4,3.9-5.1,5.9
			c-13.3,16-24.2,33.6-32.3,52l-1.6,3.4l-1.4,3.5c-0.9,2.3-1.9,4.7-2.7,7c-1.6,4.8-3.3,9.4-4.6,14.2c-2.9,9.5-4.7,19.1-6.2,28.7
			c-0.6,4.8-1.3,9.6-1.6,14.4c-0.2,2.4-0.4,4.8-0.5,7.2c-0.1,2.4-0.1,4.8-0.2,7.1c0,1.2-0.1,2.4-0.1,3.5c0,1.2,0.1,2.4,0.1,3.6
			c0.1,2.4,0.1,4.7,0.2,7.1c0.1,2.3,0.3,4.7,0.5,7c0.2,2.3,0.3,4.6,0.6,6.9c2.1,18.4,6.3,36,12.5,52.3c6.1,16.3,13.9,31.3,22.8,44.8
			c8.9,13.5,19,25.4,29.5,35.7c10.5,10.3,21.5,19.1,32.5,26.4c11,7.3,21.8,13.2,32.3,17.8c2.6,1.2,5.2,2.2,7.7,3.2
			c2.5,1,5,2.1,7.5,2.9c2.5,0.8,4.9,1.7,7.3,2.5c2.4,0.7,4.7,1.4,7,2c18.2,5.1,33.1,6.8,43.2,7.5c1.3,0.1,2.5,0.2,3.6,0.3
			c1.1,0.1,2.2,0.1,3.1,0.1c1.9,0.1,3.6,0.1,4.9,0.1C649.1,617.7,650.5,617.8,650.5,617.8z M650.5,618.1c0,0-1.4,0-4-0.1
			c-1.3,0-2.9-0.1-4.9-0.1c-1,0-2,0-3.1-0.1c-1.1-0.1-2.3-0.2-3.6-0.3c-10.1-0.6-25.1-2.2-43.4-7.3c-2.3-0.6-4.6-1.3-7-2
			c-2.4-0.8-4.8-1.6-7.3-2.4c-2.5-0.8-5-1.8-7.6-2.8c-2.6-1-5.2-1.9-7.8-3.2c-10.6-4.5-21.6-10.3-32.7-17.5
			c-11.1-7.2-22.3-15.9-33.1-26.2c-5.4-5.1-10.6-10.7-15.7-16.6c-1.3-1.4-2.5-3-3.7-4.6c-1.2-1.5-2.5-3.1-3.7-4.7
			c-1.2-1.6-2.3-3.3-3.5-4.9c-1.2-1.7-2.4-3.3-3.5-5c-9.1-13.6-17.1-28.7-23.4-45.2c-0.9-2-1.5-4.2-2.2-6.3
			c-0.7-2.1-1.5-4.2-2.1-6.3c-0.6-2.2-1.2-4.3-1.9-6.5c-0.3-1.1-0.6-2.2-0.9-3.3c-0.3-1.1-0.5-2.2-0.8-3.3c-0.5-2.2-1-4.4-1.5-6.7
			c-0.5-2.2-0.8-4.5-1.3-6.8c-0.2-1.1-0.4-2.3-0.6-3.4l-0.3-1.7l-0.2-1.7c-0.3-2.3-0.6-4.6-0.9-7c-0.3-2.3-0.5-4.7-0.7-7
			c-0.2-2.4-0.4-4.7-0.5-7.1c-0.1-2.4-0.1-4.7-0.2-7.1c0-1.2-0.1-2.4-0.1-3.6c0-1.3,0-2.4,0.1-3.6c0.1-2.4,0.1-4.8,0.2-7.2
			c0.1-2.4,0.3-4.8,0.5-7.3c0.3-4.9,1-9.7,1.6-14.6c1.5-9.7,3.4-19.5,6.3-29.2c1.3-4.9,3-9.6,4.6-14.4c0.9-2.4,1.9-4.7,2.8-7.1
			l1.4-3.6l1.6-3.5c8.3-18.7,19.4-36.5,33-52.6c1.7-2,3.5-4,5.2-6c1.8-2,3.6-3.8,5.4-5.8c0.9-1,1.8-1.9,2.8-2.9l2.9-2.7l2.9-2.7
			c1-0.9,1.9-1.8,2.9-2.7c2-1.7,4-3.5,6-5.2c2-1.7,4.2-3.3,6.3-5c1.1-0.8,2.1-1.7,3.2-2.5l3.3-2.3l3.3-2.3c1.1-0.8,2.2-1.6,3.3-2.3
			c2.3-1.4,4.5-2.9,6.8-4.3c2.3-1.4,4.7-2.7,7-4c1.2-0.7,2.3-1.3,3.5-2l3.6-1.8l3.6-1.8c1.2-0.6,2.4-1.2,3.6-1.8
			c2.5-1.1,4.9-2.2,7.4-3.3c2.5-1.1,5-2,7.5-3c1.3-0.5,2.5-1,3.8-1.5l3.9-1.3l3.9-1.3c1.3-0.4,2.6-0.9,3.9-1.2l7.8-2.2
			c2.6-0.7,5.3-1.2,7.9-1.9l4-0.9l4-0.7l4-0.7c1.3-0.2,2.7-0.5,4-0.6l8.1-1c0.7-0.1,1.3-0.2,2-0.2l2-0.1l4.1-0.3l4.1-0.3
			c1.4-0.1,2.7-0.1,4.1-0.1l8.1-0.2c43.5,0.1,86.8,13.4,122.3,37.3c1.1,0.7,2.2,1.5,3.3,2.3l3.3,2.3l3.3,2.3
			c1.1,0.8,2.1,1.6,3.2,2.5c2.1,1.7,4.2,3.2,6.2,5c2,1.7,4,3.5,6,5.2c1,0.8,2,1.8,2.9,2.7l2.9,2.7l2.9,2.7c0.9,0.9,1.8,1.9,2.7,2.8
			c1.8,1.9,3.7,3.8,5.4,5.7c1.7,2,3.4,4,5.2,5.9c13.4,16.1,24.6,33.7,33,52.4l1.6,3.5l1.4,3.5c0.9,2.4,1.9,4.7,2.8,7.1
			c1.6,4.8,3.4,9.5,4.7,14.4c2.9,9.6,4.9,19.4,6.4,29c0.6,4.9,1.4,9.7,1.7,14.6c0.2,2.4,0.4,4.9,0.5,7.3c0.1,2.4,0.1,4.8,0.2,7.2
			c0,1.2,0.1,2.4,0.1,3.6c0,1.2-0.1,2.4-0.1,3.6c-0.1,2.4-0.1,4.8-0.2,7.1c-0.1,2.4-0.3,4.7-0.5,7.1c-0.2,2.4-0.3,4.7-0.6,7
			c-0.3,2.3-0.6,4.6-0.9,6.9l-0.2,1.7l-0.3,1.7c-0.2,1.1-0.4,2.3-0.6,3.4c-0.4,2.3-0.8,4.5-1.3,6.8c-0.5,2.2-1,4.5-1.5,6.7
			c-0.3,1.1-0.5,2.2-0.8,3.3c-0.3,1.1-0.6,2.2-0.9,3.3c-0.6,2.2-1.2,4.3-1.8,6.5c-0.7,2.1-1.4,4.2-2.1,6.3c-0.7,2.1-1.4,4.2-2.2,6.3
			c-6.3,16.5-14.3,31.6-23.4,45.2c-1.1,1.7-2.3,3.3-3.5,5c-1.2,1.6-2.3,3.3-3.5,4.9c-1.2,1.6-2.5,3.1-3.7,4.7
			c-1.2,1.5-2.4,3.1-3.7,4.6c-5.1,5.9-10.3,11.5-15.7,16.6c-10.7,10.3-21.9,19-33.1,26.2c-11.1,7.2-22.1,13-32.7,17.5
			c-2.6,1.2-5.2,2.2-7.8,3.2c-2.6,1-5,2-7.6,2.8c-2.5,0.8-4.9,1.7-7.3,2.4c-2.4,0.7-4.7,1.3-7,2c-18.3,5.1-33.2,6.7-43.4,7.3
			c-1.3,0.1-2.5,0.2-3.6,0.3c-1.1,0.1-2.2,0.1-3.1,0.1c-1.9,0-3.6,0.1-4.9,0.1C651.8,618,650.5,618.1,650.5,618.1z"/>
	</g>
	
		<polyline display="none" fill="none" stroke="#D0AA6D" stroke-width="5" stroke-linecap="round" stroke-linejoin="round" stroke-miterlimit="10" points="
		623.9,750.4 641.5,768 659.5,749.9 	"/>
	<rect display="none" fill="none" stroke="#F5F5F5" stroke-width="28" stroke-miterlimit="10" width="1280" height="800"/>
</g>
<g id="Navigation" display="none">
	<circle fill="#33435D" cx="1205.5" cy="321.8" r="5.3"/>
	<circle fill="#D0AA6D" cx="1205.5" cy="284.7" r="5.3"/>
	<circle fill="#33435D" cx="1205.5" cy="358.8" r="5.3"/>
	<circle fill="#33435D" cx="1205.5" cy="507" r="5.3"/>
	<circle fill="#33435D" cx="1205.5" cy="395.9" r="5.3"/>
	<circle fill="#33435D" cx="1205.5" cy="470" r="5.3"/>
	<circle fill="#33435D" cx="1205.5" cy="432.9" r="5.3"/>
	<circle fill="none" stroke="#D0AA6D" stroke-width="1.2489" stroke-miterlimit="10" cx="1205.5" cy="284.7" r="7.7"/>
	<g display="inline">
		<path fill="#F2F2F2" d="M33,75.4c0.1,0,0.2,0,0.3,0c25,0,49.9,0,74.9,0c0.6,0,0.6,0,0.6,0.6c0,0.8,0,1.6,0,2.3
			c0,0.2,0,0.2-0.2,0.2c-0.2,0-0.3,0-0.5,0c-25.1,0-50.1,0-75.2,0C33,77.5,33,76.5,33,75.4z"/>
		<path fill="#F2F2F2" d="M46.3,31.3c0,0.2,0,0.4-0.3,0.4c-0.1,0-0.1,0-0.2,0c-0.6-0.1-0.8,0.2-0.9,0.7c-0.2,0.7-0.3,1.4-0.5,2.1
			c-0.2,1.1-0.5,2.2-0.7,3.3c-0.1,0.5-0.2,1-0.3,1.5c-0.1,0.7,0.1,0.8,0.6,0.8c0.7,0.1,1.4,0.1,2,0c0.5-0.1,0.9-0.4,1.2-0.9
			c0.2-0.3,0.3-0.5,0.4-0.8c0.1-0.2,0.2-0.1,0.3-0.1c0.1,0,0,0.1,0,0.1c-0.1,0.5-0.3,1-0.4,1.5c0,0.2-0.1,0.3-0.1,0.5
			c0,0.2-0.1,0.2-0.3,0.2c-2.1,0-4.1,0-6.2,0c-0.1,0-0.2,0-0.2-0.1c0-0.1,0-0.2,0.2-0.2c0.2,0,0.4,0,0.6-0.1c0.3,0,0.4-0.2,0.5-0.4
			c0.1-0.4,0.2-0.8,0.3-1.3c0.2-0.7,0.3-1.4,0.5-2.1c0.2-1.1,0.5-2.2,0.7-3.3c0.1-0.3,0.2-0.6,0.2-1c0-0.2-0.1-0.3-0.3-0.4
			c-0.2,0-0.4-0.1-0.5-0.1c-0.3,0-0.2-0.1-0.2-0.3c0,0,0-0.1,0-0.1C43.9,31.3,45.1,31.3,46.3,31.3z"/>
		<path fill="#F2F2F2" d="M152.1,78.6c-9.4,0-18.7,0-28.1,0c-0.2,0-0.3,0-0.3-0.3c0-0.9,0-1.8,0-2.7c0-0.2,0-0.3,0.2-0.2
			c0.1,0,0.1,0,0.2,0c18.7,0,37.3,0,56,0c0.1,0,0.2,0,0.2,0c0.1,0,0.1,0,0.1,0.1c0,1,0,2,0,2.9c0,0.1,0,0.1-0.1,0.1
			c-0.1,0-0.1,0-0.2,0C170.8,78.6,161.5,78.6,152.1,78.6z"/>
		<path fill="#F2F2F2" d="M116.3,78.5c-1,0-2,0-3,0c-0.2,0-0.2,0-0.2-0.2c0-0.2-0.1-0.4,0-0.5c0.1-0.1,0.3,0,0.5-0.1
			c0.3,0,0.6-0.1,0.8-0.1c0.3-0.1,0.5-0.3,0.5-0.6c0-0.3,0-0.6,0-1c0-4.6,0-9.2,0-13.8c0-0.3,0-0.6,0-0.8c0-0.3-0.2-0.5-0.5-0.5
			c-0.4-0.1-0.7-0.1-1.1-0.2c-0.1,0-0.2,0-0.2-0.2c0-0.5,0-0.5,0.5-0.6c1-0.2,2-0.3,3-0.5c0.3-0.1,0.3,0,0.4,0.3
			c0.1,0.5,0.2,0.9,0.2,1.4c0,0.2,0.1,0.1,0.2,0.1c0.6-0.4,1.1-0.8,1.7-1.2c0.8-0.4,1.6-0.7,2.5-0.7c1.4,0,2.6,0.5,3.5,1.6
			c0.5,0.6,0.8,1.3,1,2c0.4,1.3,0.4,2.7,0.3,4c-0.1,0.9-0.3,1.8-0.6,2.6c-0.8,1.7-2.1,2.7-3.9,3.1c-1.3,0.3-2.7,0.2-4-0.2
			c-0.2,0-0.3-0.1-0.4-0.2c-0.2-0.1-0.2,0-0.2,0.1c0,0.8,0,1.7,0,2.6c0,0.6,0,1.1,0,1.7c0,0.8,0.4,0.9,1,1c0.4,0,0.8,0.1,1.1,0.1
			c0.1,0,0.1,0,0.1,0.1c0,0.6,0,0.6-0.6,0.6C118.1,78.5,117.2,78.5,116.3,78.5z M117.3,66.4c0,1,0,1.9,0,2.8
			c0.1,0.6,0.3,1.2,0.7,1.7c0.9,1,2.4,1.2,3.6,0.7c1-0.4,1.6-1.2,1.9-2.2c0.6-1.8,0.6-3.6,0.3-5.4c-0.1-0.8-0.4-1.6-1-2.3
			c-0.8-0.8-1.7-1-2.8-0.9c-1.3,0.2-2.5,1.5-2.6,2.8C117.3,64.5,117.3,65.5,117.3,66.4z"/>
		<path fill="#F2F2F2" d="M84.3,44.6c0.6-0.4,1.1-0.7,1.7-1.1c1-0.7,2.2-1,3.4-0.9c1.5,0.1,2.5,0.9,3,2.4c0.2,0.6,0.2,1.2,0.2,1.8
			c0,2.3,0,4.6,0,6.9c0,0.1,0,0.2,0,0.4c0.1,0.6,0.3,0.8,1.1,0.9c0.2,0,0.4,0,0.7,0.1c0.1,0,0.2,0.1,0.2,0.2c0,0.6,0,0.6-0.6,0.6
			c-1.8,0-3.6,0-5.3,0c-0.2,0-0.2-0.1-0.2-0.3c0-0.5,0-0.5,0.5-0.5c0.3,0,0.6,0,0.8-0.1c0.4-0.1,0.5-0.3,0.6-0.7c0-0.1,0-0.2,0-0.3
			c0-2.3,0-4.5,0-6.8c0-0.6-0.1-1.1-0.3-1.6c-0.3-0.8-1-1.3-1.9-1.3c-1.5-0.2-2.6,0.5-3.4,1.7c-0.2,0.4-0.3,0.8-0.3,1.3
			c0,2.3,0,4.7,0,7c0,0.5,0.2,0.7,0.7,0.8c0.3,0.1,0.6,0.1,0.9,0.1c0.2,0,0.2,0.1,0.2,0.2c0,0.5,0,0.5-0.5,0.5c-1.8,0-3.6,0-5.4,0
			c-0.2,0-0.2,0-0.2-0.2c0-0.5,0-0.5,0.5-0.6c0.3,0,0.6,0,0.9-0.1c0.3-0.1,0.5-0.3,0.5-0.6c0-0.2,0-0.4,0-0.6c0-2.8,0-5.6,0-8.5
			c0-0.1,0-0.3,0-0.4c-0.1-0.6-0.3-0.6-0.7-0.7c-0.3-0.1-0.6-0.1-0.8-0.1c-0.1,0-0.2-0.1-0.2-0.2c0-0.5,0-0.5,0.4-0.5
			c1-0.2,2.1-0.4,3.1-0.6c0.1,0,0.2,0,0.2,0.2c0.1,0.5,0.2,1.1,0.3,1.6C84.2,44.4,84.3,44.5,84.3,44.6z"/>
		<path fill="#F2F2F2" d="M80.8,66.8c0,1.2,0,2.5,0,3.7c0,0.2,0,0.3,0,0.5c0.1,0.4,0.3,0.6,0.8,0.6c0.3,0,0.6,0.1,0.9,0.1
			c0,0,0.1,0,0.1,0c0.1,0.2,0,0.4,0.1,0.7c0,0.1-0.1,0.1-0.2,0.1c-0.5,0-1,0-1.5,0c-1.4,0-2.8,0-4.2,0c-0.2,0-0.3-0.1-0.3-0.3
			c0-0.5,0-0.5,0.5-0.5c0.3,0,0.5-0.1,0.8-0.1c0.4-0.1,0.6-0.3,0.6-0.7c0-0.3,0-0.6,0-0.9c0-2,0-3.9,0-5.9c0-0.6-0.1-1.3-0.3-1.9
			c-0.3-0.9-1-1.4-2-1.5c-1.5-0.1-2.6,0.5-3.3,1.7c-0.3,0.5-0.3,1.1-0.3,1.7c0,2,0,4,0,6c0,0.2,0,0.3,0,0.5c0,0.6,0.2,0.9,0.9,1
			c0.3,0,0.6,0.1,0.8,0.1c0.1,0,0.2,0,0.2,0.2c0,0.6,0,0.6-0.6,0.6c-1.8,0-3.5,0-5.3,0c-0.2,0-0.3,0-0.2-0.2c0,0,0,0,0,0
			c0-0.5,0-0.5,0.5-0.5c0.2,0,0.5,0,0.7-0.1c0.5-0.1,0.7-0.3,0.7-0.8c0-0.3,0-0.5,0-0.8c0-2.7,0-5.3,0-8c0-0.1,0-0.2,0-0.3
			c0-0.6-0.2-0.9-0.9-0.9c-0.3,0-0.5-0.1-0.8-0.1c-0.1,0-0.1,0-0.1-0.1c0-0.2,0-0.3,0-0.5c0-0.1,0.1-0.1,0.2-0.1
			c0.8-0.1,1.5-0.3,2.3-0.4c0.4-0.1,0.8-0.1,1.2-0.2c0.2,0,0.2,0,0.2,0.1c0.1,0.5,0.2,1,0.3,1.5c0.1,0.3,0,0.3,0.3,0.1
			c0.8-0.5,1.6-1.1,2.5-1.5c1.3-0.5,2.6-0.6,3.8,0.1c0.8,0.4,1.3,1.1,1.5,2c0.2,0.5,0.2,1,0.2,1.6C80.8,64.6,80.8,65.7,80.8,66.8
			C80.8,66.8,80.8,66.8,80.8,66.8z"/>
		<path fill="#F2F2F2" d="M67.7,48.5c0,1.8,0,3.6,0,5.3c0,0.1,0,0.3,0,0.4c0.1,0.3,0.2,0.5,0.5,0.6c0.4,0.1,0.7,0.1,1.1,0.1
			c0.1,0,0.2,0,0.2,0.2c0,0.6,0,0.6-0.6,0.6c-1.1,0-2.2,0-3.3,0c-0.2,0-0.2-0.1-0.2-0.2c-0.1-0.4-0.1-0.8-0.2-1.2
			c0-0.2-0.1-0.2-0.2-0.1c-0.6,0.4-1.2,0.8-1.8,1.1c-0.9,0.4-1.8,0.7-2.7,0.7c-0.9,0-1.8-0.2-2.4-0.9c-0.5-0.5-0.8-1.2-0.9-1.9
			c-0.1-0.5-0.1-0.9-0.1-1.4c0-2.2,0-4.5,0-6.7c0-0.2,0-0.3,0-0.5c-0.1-0.5-0.2-0.6-0.7-0.7c-0.3,0-0.6-0.1-0.9-0.1
			c-0.1,0-0.1-0.1-0.2-0.2c0-0.5,0-0.5,0.5-0.6c1.1-0.2,2.2-0.4,3.3-0.6c0.3,0,0.4,0.1,0.4,0.3c0,2.9,0,5.8,0,8.7
			c0,0.7,0.1,1.3,0.5,1.9c0.4,0.6,1,1,1.7,1c1.5,0.1,2.8-0.6,3.5-2c0.2-0.3,0.2-0.7,0.2-1.1c0-2.2,0-4.5,0-6.7c0-0.6-0.2-0.8-1-0.9
			c-0.1,0-0.3,0-0.4,0c-0.4-0.1-0.4-0.1-0.4-0.5c0-0.2,0-0.2,0.2-0.3c0.9-0.1,1.9-0.3,2.8-0.5c0.3,0,0.5-0.1,0.8-0.1
			c0.3,0,0.4,0,0.4,0.3C67.7,44.8,67.7,46.6,67.7,48.5z"/>
		<path fill="#F2F2F2" d="M47.8,42.6c1.2,0,2.2,0.2,3.2,0.7c1.3,0.7,2.1,1.8,2.5,3.2c0.4,1.3,0.4,2.7,0.3,4
			c-0.1,0.9-0.3,1.8-0.7,2.7c-0.6,1.3-1.6,2.1-2.9,2.5c-1.5,0.5-3,0.5-4.4,0.1c-1.8-0.5-3-1.8-3.5-3.6c-0.4-1.3-0.4-2.7-0.3-4
			c0.1-1,0.3-1.9,0.7-2.7c0.8-1.5,2-2.4,3.6-2.7C46.7,42.6,47.3,42.6,47.8,42.6z M51.3,49.4c0-1.3-0.1-2.3-0.4-3.2
			c-0.2-0.8-0.6-1.6-1.3-2.1c-1.1-0.9-3.1-0.9-4.2,0.7c-0.6,0.9-0.8,1.9-0.9,3c-0.1,1-0.1,2.1,0,3.1c0.1,0.9,0.3,1.7,0.7,2.5
			c0.8,1.5,2.2,2,3.6,1.6c1-0.3,1.6-1.1,1.9-2C51.2,51.7,51.2,50.4,51.3,49.4z"/>
		<path fill="#F2F2F2" d="M105.3,49.1c0,1.2,0,2.3,0,3.5c0,0.5,0,1,0.2,1.4c0.2,0.5,0.5,0.7,1,0.7c0.2,0,0.5,0,0.7,0
			c0.1,0,0.2,0,0.2,0.2c0.1,0.4,0.1,0.4-0.3,0.6c-0.8,0.4-1.6,0.5-2.4,0.6c-0.7,0-1.3-0.3-1.6-1.2c-0.2-0.4-0.2-0.4-0.5-0.2
			c-0.8,0.5-1.6,1-2.5,1.2c-2,0.5-4.1-0.6-4.4-3c-0.1-0.9,0-1.8,0.5-2.5c0.4-0.5,0.9-0.9,1.6-1.1c1.3-0.5,2.7-0.8,4-1.3
			c0.4-0.2,0.8-0.3,1.1-0.6c0.1-0.1,0.2-0.2,0.2-0.3c0-0.7,0-1.3-0.1-2c-0.4-1.7-2.3-1.8-3.3-1.1c-0.7,0.5-1.1,1.3-1.3,2.1
			c0,0.1-0.1,0.2-0.1,0.3c-0.2,0.4-0.5,0.6-1,0.5c-0.5-0.1-1-0.4-1.1-0.9c-0.1-0.5,0-0.9,0.3-1.3c0.6-0.8,1.5-1.3,2.5-1.6
			c1-0.3,2.1-0.4,3.2-0.3c0.7,0.1,1.3,0.2,1.8,0.5c0.8,0.4,1.1,1.1,1.3,2c0.1,0.4,0.1,0.7,0.1,1.1C105.3,47.2,105.3,48.1,105.3,49.1
			z M103.1,50.4L103.1,50.4c0-0.6,0-1.2,0-1.9c0-0.1,0-0.2-0.2-0.1c-0.4,0.3-0.9,0.4-1.3,0.6c-0.7,0.3-1.4,0.5-2,0.8
			c-0.7,0.3-1.2,0.8-1.3,1.6c0,0.3,0,0.6,0,0.9c0,0.5,0.2,1,0.5,1.5c0.8,1,2.4,1,3.4,0.3c0.7-0.5,0.9-1.2,0.9-2
			C103.1,51.5,103.1,50.9,103.1,50.4z"/>
		<path fill="#F2F2F2" d="M107.6,65.6c-1.2,0-2.4,0-3.6,0c-0.1,0-0.2,0-0.2,0.2c0,1.1,0.1,2.3,0.5,3.4c0.4,1.1,1,1.9,2.2,2.2
			c1.6,0.4,3.2,0,4.1-1.5c0.2-0.3,0.4-0.6,0.5-0.9c0.1-0.1,0.1-0.1,0.2-0.1c0.6,0.3,0.6,0.3,0.4,1c-0.6,1.3-1.4,2.2-2.7,2.7
			c-0.8,0.3-1.6,0.3-2.4,0.3c-1.1,0-2.1-0.3-3-0.8c-1-0.6-1.6-1.6-2-2.7c-0.3-0.8-0.4-1.7-0.4-2.6c0-1.1,0-2.2,0.4-3.3
			c0.5-1.7,1.4-3,3.1-3.6c0.9-0.4,1.9-0.5,2.9-0.4c0.7,0.1,1.4,0.2,2.1,0.5c1.3,0.7,2,1.8,2.3,3.1c0.1,0.6,0.2,1.1,0.2,1.7
			c0,0.6-0.3,0.9-0.9,0.9C109.9,65.6,108.7,65.6,107.6,65.6z M106.2,64.6c0.8,0,1.5,0,2.3,0c0.6,0,0.9-0.3,0.8-0.9
			c0-0.5-0.1-0.9-0.2-1.4c-0.3-1.1-1-2-2.2-2.1c-1-0.1-1.8,0.3-2.3,1c-0.7,0.9-0.9,2-0.9,3.1c0,0.2,0,0.2,0.2,0.2
			C104.7,64.6,105.5,64.6,106.2,64.6z"/>
		<path fill="#F2F2F2" d="M62.6,65.6c-1.2,0-2.4,0-3.6,0c-0.1,0-0.2,0-0.2,0.2c0,1.2,0.1,2.4,0.6,3.6c0.6,1.4,1.8,2.2,3.4,2.1
			c1.3-0.1,2.2-0.7,2.8-1.7c0.2-0.3,0.4-0.6,0.5-0.9c0-0.1,0.1-0.1,0.2-0.1c0.2,0.1,0.3,0.2,0.5,0.3c0.1,0.1,0.1,0.1,0.1,0.2
			c-0.6,1.7-1.7,3-3.6,3.4c-0.8,0.2-1.6,0.2-2.4,0.1c-0.8-0.1-1.5-0.3-2.2-0.7c-0.9-0.5-1.5-1.4-1.9-2.3c-0.6-1.4-0.6-2.8-0.6-4.3
			c0.1-1.5,0.4-2.8,1.3-4c0.8-1,1.8-1.7,3.1-1.9c1.1-0.2,2.3-0.2,3.4,0.2c1.5,0.5,2.4,1.6,2.8,3.1c0.2,0.6,0.3,1.3,0.2,1.9
			c0,0.6-0.3,0.9-0.9,0.9C64.9,65.6,63.7,65.6,62.6,65.6z M61.2,64.6c0.7,0,1.4,0,2.2,0c0.1,0,0.2,0,0.3,0c0.4-0.1,0.6-0.3,0.6-0.7
			c0-0.6,0-1.1-0.2-1.6c-0.2-0.7-0.5-1.3-1.2-1.7c-1.2-0.6-2.6-0.2-3.4,0.9c-0.6,0.9-0.8,1.9-0.8,3c0,0.2,0.1,0.2,0.2,0.2
			C59.7,64.6,60.5,64.6,61.2,64.6z"/>
		<path fill="#F2F2F2" d="M162.3,65.6c-1.2,0-2.4,0-3.6,0c-0.2,0-0.2,0-0.2,0.2c0,1.2,0.1,2.4,0.6,3.6c0.5,1.1,1.2,1.8,2.4,2
			c1.5,0.2,2.8-0.2,3.7-1.5c0.2-0.3,0.4-0.6,0.6-1c0.1-0.2,0.2-0.2,0.3-0.1c0,0,0.1,0,0.1,0.1c0.5,0.3,0.5,0.3,0.3,0.8
			c-0.6,1.5-1.6,2.6-3.2,3c-1.6,0.4-3.2,0.3-4.7-0.5c-1-0.5-1.6-1.4-2-2.5c-0.5-1.4-0.6-2.9-0.5-4.4c0.1-1.2,0.4-2.3,1-3.3
			c0.8-1.3,1.9-2.1,3.4-2.4c1.1-0.2,2.2-0.2,3.3,0.1c1.7,0.5,2.6,1.7,3,3.3c0.1,0.5,0.2,1.1,0.2,1.7c0,0.6-0.3,1-1,1
			C164.6,65.6,163.5,65.6,162.3,65.6z M161,64.6L161,64.6c0.8,0,1.5,0,2.3,0c0.5,0,0.8-0.2,0.8-0.7c0-0.7-0.1-1.4-0.3-2
			c-0.4-1-1-1.6-2.1-1.7c-0.9-0.1-1.7,0.2-2.3,1c-0.7,1-0.9,2.1-1,3.2c0,0.2,0.1,0.1,0.2,0.1C159.4,64.6,160.2,64.6,161,64.6z"/>
		<path fill="#F2F2F2" d="M153.2,61.8c0,0.5,0,0.9,0,1.4c0,0.1,0,0.2-0.2,0.2c-0.2,0-0.4,0-0.5,0c-0.1-0.1-0.1-0.3-0.1-0.5
			c-0.2-0.8-0.5-1.5-1.2-2.1c-0.8-0.6-2.2-0.7-3.1-0.1c-0.9,0.7-1.3,2.4,0.2,3.3c0.7,0.4,1.4,0.6,2.2,0.9c0.8,0.3,1.5,0.6,2.1,1.1
			c0.9,0.7,1.3,1.7,1.3,2.8c0,1-0.3,1.9-1,2.6c-0.6,0.7-1.4,1.1-2.4,1.2c-1.6,0.3-3.1,0.2-4.5-0.5c0,0-0.1,0-0.1,0
			c-0.7-0.4-0.8-0.5-0.8-1.3c0-0.8-0.1-1.6-0.2-2.4c0-0.2,0-0.3,0.2-0.3c0.5,0,0.5,0,0.6,0.5c0.2,0.9,0.6,1.7,1.3,2.4
			c0.8,0.9,2.2,1.1,3.3,0.7c0.9-0.4,1.4-1.3,1.3-2.2c-0.1-1-0.7-1.6-1.6-2c-0.7-0.3-1.4-0.5-2.1-0.8c-0.7-0.3-1.4-0.6-1.9-1.2
			c-0.5-0.5-0.8-1.2-0.9-1.9c-0.1-1.1,0.2-2.1,0.9-2.9c0.6-0.6,1.3-1,2.1-1.1c1.3-0.3,2.5-0.2,3.8,0.2c0,0,0,0,0,0
			c0.9,0.3,0.9,0.4,0.9,1.3C153.2,61.3,153.2,61.5,153.2,61.8z"/>
		<path fill="#F2F2F2" d="M176.4,61.8c0,0.5,0,0.9,0,1.4c0,0.1,0,0.2-0.2,0.2c-0.2,0-0.4,0.1-0.5,0c-0.1-0.1-0.1-0.3-0.1-0.5
			c-0.2-0.7-0.4-1.4-1-2c-0.9-0.8-2.5-0.8-3.4,0c-0.7,0.7-1,2.2,0.3,3.1c0.6,0.4,1.3,0.6,2,0.9c0.9,0.3,1.7,0.6,2.5,1.2
			c0.7,0.6,1.1,1.4,1.2,2.3c0.1,1-0.1,2-0.8,2.8c-0.6,0.8-1.4,1.2-2.3,1.4c-1.6,0.3-3.1,0.2-4.6-0.5c-0.1-0.1-0.3-0.2-0.4-0.2
			c-0.4-0.2-0.5-0.5-0.5-0.9c0-0.9-0.1-1.8-0.2-2.8c0-0.1,0-0.2,0.1-0.2c0,0,0,0,0,0c0.5,0,0.5,0,0.7,0.5c0.3,1,0.7,1.9,1.5,2.6
			c1,0.8,2.7,0.9,3.6,0.2c0.7-0.6,0.9-1.4,0.7-2.3c-0.2-0.8-0.8-1.3-1.5-1.7c-0.5-0.3-1.1-0.4-1.7-0.6c-0.8-0.3-1.6-0.7-2.3-1.3
			c-0.8-0.8-1.1-1.7-0.9-2.8c0.1-0.7,0.3-1.4,0.8-2c0.6-0.7,1.4-1.1,2.3-1.2c1.3-0.3,2.5-0.2,3.7,0.2c0.3,0.1,0.6,0.2,0.8,0.4
			c0.1,0.1,0.1,0.1,0.1,0.3C176.4,60.9,176.4,61.3,176.4,61.8z"/>
		<path fill="#F2F2F2" d="M112,45.3c0,2.7,0,5.5,0,8.2c0,0.2,0,0.5,0,0.7c0.1,0.3,0.2,0.5,0.5,0.5c0.4,0.1,0.7,0.1,1.1,0.1
			c0.2,0,0.2,0,0.2,0.2c0,0.6,0,0.6-0.5,0.6c-1.8,0-3.6,0-5.4,0c-0.2,0-0.3,0-0.2-0.2c0-0.2,0-0.4,0-0.5s0.3,0,0.5-0.1
			c0.3-0.1,0.6-0.1,0.8-0.1c0.3-0.1,0.5-0.3,0.5-0.6c0-0.2,0-0.4,0-0.7c0-4.9,0-9.7,0-14.6c0-0.2,0-0.5,0-0.7
			c-0.1-0.3-0.2-0.5-0.6-0.5c-0.3,0-0.6-0.1-0.9-0.1c-0.2,0-0.2-0.1-0.2-0.3c0-0.4,0-0.4,0.4-0.5c1.1-0.2,2.3-0.4,3.4-0.6
			c0.2,0,0.3,0.1,0.3,0.2c0,0.1,0,0.2,0,0.3C112,39.7,112,42.5,112,45.3z"/>
		<path fill="#F2F2F2" d="M38.9,49.8c0,2,0,4,0,6c0,0.9-0.1,1.8-0.3,2.6c-0.5,1.7-1.5,2.8-3.2,3.3c-0.7,0.2-1.4,0.3-2.1,0.3
			c-0.2,0-0.2-0.1-0.2-0.2c0-0.1,0-0.1,0-0.2c0-0.1,0-0.2,0.2-0.2c0.6-0.2,1.2-0.4,1.7-0.7c0.8-0.5,1.2-1.3,1.3-2.2
			c0.2-1.1,0.3-2.2,0.3-3.3c0-3.4,0-6.7,0-10.1c0-1-0.3-1-1-1.1c-0.2,0-0.4-0.1-0.6-0.1c-0.1,0-0.1-0.1-0.1-0.2c0-0.5,0-0.5,0.5-0.6
			c1.1-0.2,2.2-0.4,3.3-0.6c0.2,0,0.4,0.1,0.4,0.3C38.9,45.2,38.9,47.5,38.9,49.8C38.9,49.8,38.9,49.8,38.9,49.8z"/>
		<path fill="#F2F2F2" d="M85.3,65.5c0-1.5,0-3,0-4.5c0-0.2-0.1-0.2-0.2-0.2c-0.5,0-0.9,0-1.4,0c-0.1,0-0.2,0-0.2-0.2
			c0-0.2,0-0.4,0-0.6c0-0.2,0-0.2,0.2-0.2c0.5,0,1,0,1.5,0c0.2,0,0.2,0,0.3-0.2c0.4-1,0.9-1.9,1.4-2.9c0.1-0.2,0.2-0.2,0.3-0.2
			c0.5,0,0.5,0,0.5,0.5c0,0.9,0,1.7,0,2.6c0,0.2,0,0.2,0.2,0.2c0.9,0,1.9,0,2.8,0c0.2,0,0.3,0.1,0.2,0.3c0,0.2,0,0.4,0,0.6
			c0,0.2,0,0.2-0.2,0.2c-1,0-1.9,0-2.9,0c-0.1,0-0.2,0-0.2,0.2c0,2.8,0,5.5,0,8.3c0,0.5,0.1,1,0.4,1.5c0.4,0.7,1,0.9,1.8,0.8
			c0.4-0.1,0.8-0.1,1.2-0.3c0.1,0,0.1,0,0.2,0.1c0.2,0.5,0.2,0.4-0.2,0.6c-0.7,0.4-1.5,0.8-2.3,0.9c-1.1,0.1-2.1,0-2.8-1
			c-0.4-0.5-0.5-1.2-0.5-1.8C85.3,68.4,85.3,67,85.3,65.5L85.3,65.5L85.3,65.5z"/>
		<path fill="#F2F2F2" d="M132.5,67.1c0,1.2,0,2.4,0,3.6c0,0.6,0.2,0.8,0.8,0.9c0.5,0.1,0.9,0.1,1.4,0.1c0.1,0,0.2,0,0.2,0.2
			c0,0.6,0,0.6-0.6,0.6c-1.9,0-3.9,0-5.8,0c-0.2,0-0.3-0.1-0.3-0.3c0-0.5,0-0.5,0.6-0.6c0.3,0,0.6-0.1,0.8-0.1
			c0.3-0.1,0.4-0.3,0.5-0.6c0-0.2,0.1-0.4,0.1-0.5c0-2.9,0-5.7,0-8.6c0,0,0-0.1,0-0.1c0-0.7-0.2-0.9-0.8-1c-0.3,0-0.5-0.1-0.8-0.1
			c-0.1,0-0.1,0-0.1-0.2c0-0.5,0-0.5,0.5-0.6c1-0.2,1.9-0.3,2.9-0.5c0,0,0,0,0.1,0c0.3-0.1,0.3-0.1,0.4,0.3c0.1,0.5,0.2,1,0.2,1.6
			c0,0,0,0.1,0,0.1c0.1,0,0.1,0,0.1-0.1c0.5-0.4,0.9-0.8,1.4-1.2c0.4-0.3,0.9-0.6,1.4-0.7c0.6-0.1,1.1,0,1.4,0.5
			c0.3,0.5,0.3,1.1,0,1.6c-0.3,0.5-0.9,0.8-1.5,0.4c-0.4-0.3-0.9-0.5-1.4-0.5c-0.4,0-0.7,0.2-1,0.5c-0.4,0.5-0.5,1.1-0.5,1.7
			C132.5,64.8,132.5,66,132.5,67.1z"/>
		<path fill="#F2F2F2" d="M74.7,44.7c0.2-0.2,0.4-0.4,0.6-0.6c0.5-0.5,1.1-1,1.8-1.3c0.4-0.2,0.9-0.3,1.3-0.2
			c0.8,0.2,1.1,0.9,0.9,1.6c0,0.2-0.2,0.5-0.3,0.7c-0.4,0.4-0.9,0.5-1.3,0.3c-0.4-0.2-0.8-0.4-1.3-0.5c-0.5-0.1-0.8,0.1-1.1,0.4
			c-0.4,0.5-0.6,1.1-0.6,1.7c-0.1,2.3,0,4.6,0,6.9c0,0.1,0,0.1,0,0.2c0,0.8,0.4,0.9,1,1c0.4,0.1,0.8,0.1,1.2,0.1
			c0.2,0,0.2,0.1,0.2,0.2c0,0.5,0,0.5-0.5,0.5c-2,0-3.9,0-5.9,0c-0.2,0-0.2,0-0.2-0.2c0-0.5,0-0.5,0.5-0.6c0.3,0,0.6,0,0.8-0.1
			c0.3-0.1,0.5-0.3,0.5-0.6c0-0.2,0-0.4,0-0.6c0-2.9,0-5.7,0-8.6c0-0.1,0-0.1,0-0.2c0-0.6-0.2-0.8-0.8-0.9c-0.3,0-0.5-0.1-0.8-0.1
			c-0.1,0-0.1-0.1-0.1-0.2c0-0.5,0-0.5,0.5-0.6c1.1-0.2,2.1-0.4,3.2-0.6c0.2,0,0.2,0,0.2,0.2C74.5,43.4,74.6,44,74.7,44.7z"/>
		<path fill="#F2F2F2" d="M96,61.4c0.4-0.3,0.7-0.6,1.1-0.9c0.5-0.4,0.9-0.8,1.5-1c0.4-0.2,0.8-0.2,1.3-0.1c0.6,0.2,1,0.8,0.8,1.5
			c-0.1,0.3-0.2,0.6-0.5,0.9c-0.3,0.3-0.8,0.4-1.2,0.2c-0.4-0.2-0.7-0.4-1.1-0.5c-0.6-0.1-1,0-1.3,0.5c-0.3,0.5-0.5,1-0.5,1.5
			c-0.1,1.2,0,2.4,0,3.5c0,1.1,0,2.2,0,3.3c0,0.2,0,0.4,0,0.6c0.1,0.3,0.3,0.5,0.6,0.6c0.5,0.1,1,0.1,1.6,0.2c0.1,0,0.2,0,0.2,0.2
			c0,0.6,0,0.6-0.6,0.6c-2,0-3.9,0-5.9,0c-0.2,0-0.3,0-0.3-0.2c0-0.6,0-0.6,0.6-0.6c0.3,0,0.5-0.1,0.8-0.1c0.3-0.1,0.5-0.3,0.5-0.6
			c0-0.2,0-0.4,0-0.6c0-2.8,0-5.6,0-8.4c0-0.2,0-0.4,0-0.5c0-0.3-0.2-0.5-0.5-0.5c-0.3-0.1-0.7-0.1-1.1-0.2c-0.2,0-0.2-0.1-0.2-0.2
			c0-0.5,0-0.5,0.4-0.5c1-0.2,2.1-0.3,3.1-0.5c0.3,0,0.3,0.1,0.3,0.3C95.8,60.2,95.9,60.8,96,61.4z"/>
		<path fill="#F2F2F2" d="M142.1,65.3c0,1.7,0,3.3,0,5c0,0.2,0,0.3,0,0.5c0,0.6,0.2,0.8,0.9,0.9c0.3,0,0.6,0.1,0.9,0.1
			c0.1,0,0.1,0,0.1,0.1c0,0.6,0,0.6-0.6,0.6c-1.8,0-3.5,0-5.3,0c-0.2,0-0.3,0-0.3-0.3c0-0.5,0-0.5,0.6-0.6c0.3,0,0.6-0.1,0.8-0.1
			c0.3-0.1,0.4-0.3,0.5-0.5c0-0.2,0.1-0.4,0.1-0.6c0-2.9,0-5.7,0-8.6c0-0.2,0-0.3,0-0.5c0-0.2-0.2-0.4-0.4-0.5
			c-0.4-0.1-0.7-0.1-1.1-0.2c-0.1,0-0.2,0-0.2-0.2c0-0.5,0-0.5,0.5-0.6c1.1-0.2,2.3-0.4,3.4-0.6c0.2,0,0.3,0.1,0.3,0.3
			c0,0.2,0,0.4,0,0.6C142.1,61.9,142.1,63.6,142.1,65.3z"/>
		<path fill="#F2F2F2" d="M122.6,53.3c-0.2,0.3-0.4,0.5-0.5,0.8c-0.4,0.6-0.9,1.2-1.5,1.7c-0.5,0.4-1.1,0.6-1.7,0.5
			c-0.4-0.1-0.7-0.4-0.8-0.8c-0.2-0.7-0.2-1.4,0-2c0.3-1,0.7-2,1.4-2.8c0.6-0.7,1.3-1.1,2.2-1.3c0.5-0.1,1-0.1,1.5,0.1
			c0.2,0.1,0.3,0.1,0.3-0.2c0.1-0.7,0.3-1.4,0.5-2.2c0.1-0.3,0-0.4-0.3-0.4c-0.2,0-0.4,0-0.6-0.1c-0.1,0-0.1,0-0.1-0.1
			c0-0.1,0-0.2,0.1-0.2c0.7-0.1,1.3-0.2,2-0.3c0.2,0,0.3,0,0.2,0.2c-0.3,1.2-0.6,2.3-0.8,3.5c-0.3,1.1-0.5,2.1-0.8,3.2
			c-0.1,0.6-0.3,1.2-0.4,1.8c0,0.2,0,0.3,0,0.5c0,0.2,0.2,0.2,0.3,0.2c0.2-0.1,0.4-0.3,0.5-0.5c0.2-0.2,0.3-0.5,0.4-0.7
			c0-0.1,0.1-0.1,0.2-0.1c0.1,0.1,0.2,0.1,0.1,0.2c-0.1,0.3-0.3,0.6-0.5,0.8c-0.3,0.4-0.6,0.7-1,0.9c-0.2,0.1-0.5,0.1-0.8,0.1
			c-0.3-0.1-0.4-0.3-0.5-0.6c0-0.5,0.1-0.9,0.2-1.4C122.5,53.9,122.6,53.7,122.6,53.3z M119.2,54.6c0,0.2,0,0.3,0,0.5
			c0.2,0.6,0.7,0.7,1.2,0.3c0.6-0.4,1-0.9,1.3-1.4c0.7-1.1,1.2-2.4,1.5-3.7c0-0.2,0-0.3-0.2-0.3c-0.6-0.3-1.5-0.1-2,0.3
			c-0.6,0.5-1,1.1-1.3,1.8C119.5,52.9,119.2,53.7,119.2,54.6z"/>
		<path fill="#F2F2F2" d="M125.5,54c0-1.2,0.4-2.3,1-3.2c0.6-0.8,1.4-1.4,2.4-1.5c0.6-0.1,1.1-0.1,1.6,0.3c0.4,0.3,0.6,0.9,0.4,1.5
			c-0.2,0.6-0.6,0.9-1,1.2c-0.6,0.4-1.3,0.6-2,0.8c-0.4,0.1-0.7,0.2-1.1,0.3c-0.1,0-0.1,0-0.1,0.1c0,0.4,0,0.8,0.1,1.1
			c0.2,0.9,1,1.1,1.8,0.8c0.5-0.2,0.8-0.6,1.1-0.9c0.1-0.1,0.2-0.2,0.2-0.3c0-0.1,0.1-0.2,0.2-0.1c0.1,0.1,0.2,0.2,0.1,0.3
			c-0.4,0.6-1,1.2-1.7,1.5c-0.6,0.2-1.2,0.3-1.8,0.2c-0.7-0.2-1.1-0.7-1.2-1.4C125.5,54.5,125.5,54.2,125.5,54z M129.8,50.7
			c0-0.8-0.4-1.1-1-1c-0.4,0.1-0.7,0.4-1,0.7c-0.5,0.7-0.8,1.5-1,2.3c-0.1,0.3,0.1,0.2,0.2,0.2c0.6-0.2,1.2-0.4,1.8-0.8
			C129.4,51.8,129.8,51.3,129.8,50.7z"/>
		<path fill="#F2F2F2" d="M48.4,38.5c0-1.3,0.4-2.4,1.2-3.3c0.5-0.5,1-1,1.7-1.2c0.4-0.1,0.9-0.2,1.3-0.1c0.8,0.1,1.3,0.7,1.2,1.6
			c-0.1,0.7-0.5,1.1-1,1.4c-0.9,0.6-2,0.9-3,1.1c-0.1,0-0.2,0-0.2,0.1c0,0.5,0,1,0.2,1.4c0.2,0.6,0.8,0.7,1.3,0.6
			c0.8-0.2,1.3-0.7,1.7-1.3c0-0.1,0.1-0.2,0.2-0.1c0.1,0.1,0.2,0.1,0.1,0.3c-0.5,0.8-1.2,1.5-2.2,1.7c-0.8,0.2-1.5,0.1-2.1-0.6
			c-0.3-0.4-0.4-0.9-0.4-1.3C48.4,38.7,48.4,38.6,48.4,38.5z M52.7,35.3c0-0.7-0.4-1.1-1-0.9c-0.2,0-0.4,0.1-0.5,0.2
			c-0.9,0.7-1.3,1.8-1.5,2.9c0,0.1,0,0.2,0.1,0.1c0.6-0.2,1.3-0.4,1.8-0.8C52.3,36.4,52.7,35.9,52.7,35.3z"/>
		<path fill="#F2F2F2" d="M132.7,56.2c-0.5,0-1.1-0.2-1.5-0.6c-0.3-0.3-0.4-0.8-0.1-1.1c0.2-0.2,0.3-0.2,0.6-0.2
			c0.2,0,0.2,0.2,0.3,0.4c0.1,0.4,0.3,0.7,0.7,1c0.4,0.3,1.3,0.2,1.4-0.5c0.2-0.7-0.1-1.1-0.5-1.6c-0.1-0.2-0.3-0.3-0.5-0.5
			c-0.4-0.3-0.7-0.7-0.9-1.1c-0.4-0.9,0-2,0.9-2.4c0.8-0.4,1.6-0.3,2.3,0.2c0.3,0.2,0.4,0.6,0.3,0.8c-0.1,0.2-0.3,0.4-0.5,0.4
			c-0.3,0-0.4-0.2-0.5-0.4c-0.2-0.5-0.6-0.8-1-0.8c-0.5,0-0.8,0.5-0.8,0.9c0,0.6,0.3,1,0.7,1.4c0.4,0.4,0.8,0.7,1.1,1.1
			c0.4,0.5,0.4,1.6-0.1,2.3C134.2,56,133.5,56.2,132.7,56.2z"/>
		<path fill="#F2F2F2" d="M36.2,38.6c0-1,0.6-1.6,1.5-1.6c0.9,0,1.5,0.6,1.5,1.6c0,1-0.6,1.6-1.5,1.6C36.8,40.2,36.2,39.5,36.2,38.6
			z"/>
		<path fill="#F2F2F2" d="M142.4,55.4c0,1-0.6,1.6-1.6,1.6c-0.9,0-1.5-0.7-1.5-1.6c0-0.9,0.7-1.6,1.5-1.6
			C141.8,53.8,142.4,54.4,142.4,55.4z"/>
	</g>
</g>
<g id="Repres" display="none">
</g>
</svg>
