<?xml version="1.0" encoding="utf-8"?>
<!-- Generator: Adobe Illustrator 18.0.0, SVG Export Plug-In . SVG Version: 6.00 Build 0)  -->
<!DOCTYPE svg PUBLIC "-//W3C//DTD SVG 1.1//EN" "http://www.w3.org/Graphics/SVG/1.1/DTD/svg11.dtd">
<svg version="1.1" id="Calque_1" xmlns="http://www.w3.org/2000/svg" xmlns:xlink="http://www.w3.org/1999/xlink" x="0px" y="0px"
	 viewBox="0 0 2000 800" enable-background="new 0 0 2000 800" xml:space="preserve">
<rect x="4" fill="#E0DCD4" width="1999" height="800"/>
<rect x="-4" y="401" fill="#D7D3CB" width="2002" height="400"/>
<path fill="#FFFFFF" d="M680.5,259l41.4-41.8c0,0,61.6,51.8,64.2-4.4c0,0-22.2,76-65.9,59.3L680.5,259z"/>
<ellipse fill="#B7B4AE" cx="805.5" cy="679.4" rx="106" ry="18.6"/>
<polyline display="none" fill="none" stroke="#1B1464" stroke-width="5" stroke-linecap="round" stroke-linejoin="round" stroke-miterlimit="10" points="
	978.9,749.4 996.5,767 1014.5,748.9 "/>
<g>
	<rect x="749" y="646" fill="#FFFFFF" width="14" height="12"/>
	<rect x="837" y="646" fill="#FFFFFF" width="13" height="15"/>
	<rect x="747" y="397" fill="#002846" width="106" height="19"/>
	<rect x="831" y="397" fill="#002033" width="24" height="256"/>
	<rect x="746" y="397" fill="#002846" width="22" height="256"/>
	<polygon fill="#AB9486" points="714.6,400.6 711.4,392.9 724,386.9 727.3,394.2 	"/>
	
		<rect x="923.2" y="195.7" transform="matrix(0.9919 -0.1273 0.1273 0.9919 -18.536 120.0994)" fill="#AB9486" width="13.8" height="18.7"/>
	<rect x="779" y="195" fill="#AB9486" width="40" height="22"/>
	<circle fill="#AB9486" cx="733.3" cy="161.4" r="11.6"/>
	<path fill="#AB9486" d="M839.4,88.5l-40.4-9l-39.9,9L738,122.4v39.9c0,0,2.4,38.4,61.5,38.4s61.5-38.4,61.5-38.4v-39.9L839.4,88.5z
		"/>
	<g>
		<path fill="#897567" d="M839.2,88.4L799,79.5V149l15.3,22.4l-15.3,0.8v28.4c61,0,62-39,62-39v-39.7L839.2,88.4z"/>
	</g>
	<circle cx="764.5" cy="149.2" r="5.4"/>
	<circle cx="834.8" cy="149.2" r="5.4"/>
	<path d="M799.1,190.9c-4.9,0-8.8-3-8.9-3.1c-0.5-0.4-0.6-1.1-0.2-1.6c0.4-0.5,1.1-0.6,1.6-0.2c0.1,0,3.4,2.7,7.5,2.7
		c4.2,0,8.3-2.7,8.4-2.7c0.5-0.3,1.2-0.2,1.6,0.3c0.3,0.5,0.2,1.2-0.3,1.6C808.5,188,804,190.9,799.1,190.9z"/>
	<circle fill="#897567" cx="864.2" cy="161.4" r="11.6"/>
	<path fill="#897567" d="M757.8,170.6c-0.2,0-0.4-0.1-0.6-0.3c-0.3-0.3-0.2-0.8,0.1-1.1l13.7-11.7c0.3-0.3,0.8-0.2,1.1,0.1
		c0.3,0.3,0.2,0.8-0.1,1.1l-13.7,11.7C758.1,170.6,757.9,170.6,757.8,170.6z"/>
	<path fill="#AB9486" d="M842.5,170.6c-0.2,0-0.3-0.1-0.5-0.2l-13.7-11.7c-0.3-0.3-0.4-0.7-0.1-1.1c0.3-0.3,0.7-0.4,1.1-0.1
		l13.7,11.7c0.3,0.3,0.4,0.7,0.1,1.1C842.9,170.5,842.7,170.6,842.5,170.6z"/>
	<g>
		<path fill="#99A9B5" d="M869,280.1c0-35.6-29.2-64.1-64.9-64.1h-10.9c-35.6,0-64.3,28.5-64.3,64.1V399h140V280.1z"/>
	</g>
	<path fill="#99A9B5" d="M934.3,323.2c-4.3,0-9.2-1.8-14.8-5.3c-4.4-2.8-8-6-8.6-6.5l-81.3-70.3l11.7-13.6l81.4,70.4
		c2.4,2.2,5.5,4.3,7.9,5.7c-1.3-22.7-9.3-96.4-9.4-97.2l17.8-1.9c0.3,3.2,8.5,78.2,9.5,99.7c0.5,11-4.2,15.6-8.3,17.6
		C938.5,322.7,936.5,323.2,934.3,323.2z"/>
	<path fill="#AB9486" d="M938.7,161.2c-0.9-7.6-8-13-16.1-12l0,0c-8.1,1-13.8,7.9-12.9,15.5l3.2,26.7c0.9,7.6,8,13,16.1,12l0,0
		c8.1-1,13.8-7.9,12.9-15.5L938.7,161.2z"/>
	<path fill="#AB9486" d="M906.8,179.1c-2.3-1.9-5.5-1.8-7.1,0.2l0,0c-1.6,2-1.1,5.1,1.2,7l15.9,13c2.3,1.9,5.5,1.8,7.1-0.2l0,0
		c1.6-2,1.1-5.1-1.2-7L906.8,179.1z"/>
	<g>
		<path fill="#897567" d="M918.4,180.5c0.4,0,0.7-0.4,0.7-0.8l-3.3-28c-0.5,0.3-0.9,0.7-1.4,1.1l3.2,27.1
			C917.6,180.3,918,180.6,918.4,180.5z"/>
		<path fill="#897567" d="M926.6,179.6c0.4,0,0.7-0.4,0.7-0.8l-3.5-29.7c-0.4,0-0.7,0-1.1,0.1c-0.1,0-0.2,0-0.4,0.1l3.5,29.7
			C925.8,179.3,926.2,179.6,926.6,179.6z"/>
		<path fill="#897567" d="M934.8,178.6c0.4,0,0.7-0.4,0.7-0.8l-3.1-26.5c-0.5-0.3-1.1-0.6-1.6-0.8l3.3,27.6
			C934,178.4,934.4,178.6,934.8,178.6z"/>
	</g>
	<circle fill="#828282" cx="924.6" cy="208.6" r="1.3"/>
	<circle fill="#828282" cx="803.2" cy="238.4" r="2.4"/>
	<circle fill="#7A8E99" cx="803.2" cy="269.1" r="2.4"/>
	<circle fill="#7A8E99" cx="803.2" cy="299.8" r="2.4"/>
	<circle fill="#7A8E99" cx="803.2" cy="330.4" r="2.4"/>
	<circle fill="#7A8E99" cx="803.2" cy="361.1" r="2.4"/>
	<circle fill="#7A8E99" cx="803.2" cy="391.8" r="2.4"/>
	
		<rect x="931.8" y="214.1" transform="matrix(0.1539 0.9881 -0.9881 0.1539 1009.0809 -732.4084)" fill="#828282" width="0.7" height="17.7"/>
	<path fill="none" stroke="#828282" stroke-width="0.882" stroke-miterlimit="10" d="M799.1,233.9"/>
	<g>
		<g>
			<path fill="#AFAFAF" d="M713.8,232.4c1.7,0,1.7-2.6,0-2.6C712.1,229.8,712.1,232.4,713.8,232.4L713.8,232.4z"/>
		</g>
	</g>
	<rect x="798" y="233" fill="#AFAFAF" width="1" height="166"/>
	<polygon fill="#AB9486" points="779.7,217 798.8,232.8 817.9,217 796.4,209.1 	"/>
	<path fill="#99A9B5" d="M710.6,395.2c-9.4-22.6-13.8-44.4-13-64.8c0.6-16.6,4.5-32.3,11.7-46.6c12.3-24.5,29.8-36.6,30.6-37.1
		l10,14.8l0,0c-0.1,0.1-14.9,10.4-25,31.1c-13.5,27.5-12.7,59.7,2.3,95.7L710.6,395.2z"/>
	<path fill="#AB9486" d="M746.7,407.7c1.1,2.2,0.5,4.7-1.2,5.5l0,0c-1.7,0.8-4-0.4-5-2.6l-3.3-7.1c-1.1-2.2-0.5-4.7,1.2-5.5l0,0
		c1.7-0.8,4,0.4,5,2.6L746.7,407.7z"/>
	<path fill="#AB9486" d="M720.6,437.3c2.4,7.2,10.5,11.1,18.2,8.5l0,0c7.7-2.6,11.9-10.5,9.4-17.8l-8.5-25.5
		c-2.4-7.2-10.5-11.1-18.2-8.5l0,0c-7.7,2.6-11.9,10.5-9.4,17.8L720.6,437.3z"/>
	<path opacity="0.5" fill="#897567" d="M738.8,445.8c7.7-2.6,11.9-10.5,9.4-17.8l-3.4-10.2l-26.8,12l2.5,7.4
		C723,444.6,731.1,448.4,738.8,445.8z"/>
	<g>
		<path fill="#897567" d="M736.6,414.2c-0.4,0.1-0.6,0.6-0.5,0.9l8.9,26.7c0.4-0.4,0.8-0.9,1.1-1.3l-8.6-25.9
			C737.4,414.3,737,414.1,736.6,414.2z"/>
		<path fill="#897567" d="M728.8,416.9c-0.4,0.1-0.6,0.6-0.5,0.9l9.5,28.3c0.4-0.1,0.7-0.2,1.1-0.3c0.1,0,0.2-0.1,0.3-0.1l-9.5-28.4
			C729.6,416.9,729.2,416.7,728.8,416.9z"/>
		<path fill="#897567" d="M721,419.5c-0.4,0.1-0.6,0.6-0.5,0.9l8.5,25.3c0.6,0.2,1.2,0.4,1.7,0.5l-8.8-26.3
			C721.8,419.5,721.4,419.3,721,419.5z"/>
	</g>
	<path d="M833.6,654.7c0,0,6.5,9.7,17.7-0.1l44.4,16c0,0,5.8,0.9,5.8,9.4h-70.1L833.6,654.7z"/>
	<path d="M766.5,654.7c0,0-6.5,9.7-17.6-0.1l-28.8,16c0,0-5.8,0.9-5.8,9.4h54.4L766.5,654.7z"/>
	<rect x="798" y="399" fill="#191919" width="1" height="16"/>
	<rect x="799" y="414" fill="#191919" width="6" height="1"/>
	<g>
		<rect x="844" y="547" fill="#0F0F0F" width="11" height="1"/>
		<rect x="846" y="542" fill="#0F0F0F" width="9" height="2"/>
		<rect x="847.2" y="550" fill="#0F0F0F" width="7.9" height="0"/>
	</g>
	<g>
		<rect x="749" y="547" fill="#212121" width="10" height="1"/>
		<rect x="750" y="542" fill="#212121" width="9" height="2"/>
		<rect x="751.9" y="550" fill="#212121" width="6.2" height="0"/>
	</g>
	<rect x="746" y="399" width="109" height="1"/>
	<rect x="791" y="399" fill="#828282" width="3" height="4"/>
	<rect x="791" y="400" fill="#828282" width="16" height="3"/>
	<rect x="805" y="399" fill="#828282" width="2" height="4"/>
	<polygon fill="#002033" points="831,416.8 819,400 831,400 	"/>
	<g>
		<polygon fill="#D8AE73" points="787.1,331.4 799.6,344.8 811.9,331.9 804,251 794.9,251 		"/>
	</g>
	<polygon fill="#D8AE73" points="795.2,252 790.7,242.5 795.2,233 804.3,233 808.8,242.5 804.3,252 	"/>
	<polygon fill="#7A8E99" points="798.8,232.7 819.3,213.2 823.4,229.5 802.9,249 	"/>
	<circle fill="#99A9B5" cx="804.4" cy="243.4" r="1.8"/>
	<polygon fill="#7A8E99" points="798.9,232.7 778.4,213.2 774.4,229.5 794.9,249 	"/>
	<circle fill="#99A9B5" cx="793.4" cy="243.4" r="1.8"/>
	<path fill="#002033" d="M780.8,150.3l-1.6-2.5c0.4-0.3,10.2-6.6,20.5-6.6c10.5,0,18.7,6.4,19,6.7l-1.9,2.3
		c-0.1-0.1-7.8-6.1-17.2-6.1C790.2,144.2,780.9,150.3,780.8,150.3z"/>
	<path fill="#D8AE73" d="M861.6,151h-10.4c-0.8,0-1.5-1.7-1.5-2.5s0.7-2.5,1.5-2.5h10.4c0.8,0,1.5,1.7,1.5,2.5S862.4,151,861.6,151z
		"/>
	<path fill="#D8AE73" d="M747.4,151H737c-0.8,0-1.5-1.7-1.5-2.5s0.7-2.5,1.5-2.5h10.4c0.8,0,1.5,1.7,1.5,2.5S748.2,151,747.4,151z"
		/>
	<path fill="#002033" d="M764.3,166.2c-9.7,0-17.7-7.9-17.7-17.7c0-9.7,7.9-17.7,17.7-17.7c9.7,0,17.7,7.9,17.7,17.7
		C782,158.3,774.1,166.2,764.3,166.2z M764.3,133.9c-8.1,0-14.7,6.6-14.7,14.7c0,8.1,6.6,14.7,14.7,14.7c8.1,0,14.7-6.6,14.7-14.7
		C779,140.4,772.4,133.9,764.3,133.9z"/>
	<path fill="#002033" d="M834.5,166.2c-9.7,0-17.7-7.9-17.7-17.7c0-9.7,7.9-17.7,17.7-17.7c9.7,0,17.7,7.9,17.7,17.7
		C852.1,158.3,844.2,166.2,834.5,166.2z M834.5,133.9c-8.1,0-14.7,6.6-14.7,14.7c0,8.1,6.6,14.7,14.7,14.7s14.7-6.6,14.7-14.7
		C849.2,140.4,842.6,133.9,834.5,133.9z"/>
	<path fill="#002033" d="M735,154h9v-23.7c0,0,23.9-4.5,23.9-22.4c0,0,4.1,13.5,87.1,13.5V154h8v-46.1c0,0,4-34.8-44.7-44.9
		c-48.6-10.1-52.7,17.6-52.7,17.6s-30.6-8.2-30.6,37V154z"/>
</g>
<circle cx="1434" cy="79" r="10"/>
<polyline fill="none" stroke="#000000" stroke-width="0.8788" stroke-miterlimit="10" points="1442.4,80 1434,123.5 1425.2,80 "/>
<g>
	<circle fill="#CE9F51" cx="1434.1" cy="163.8" r="63.1"/>
	<circle fill="#FFFFFF" cx="1434.5" cy="163.7" r="48.3"/>
	<g>
		<path fill="#002033" d="M1430.1,129.9v-7.1h-1v-1c0.7-0.2,1.1-0.6,1.3-1h1v9.1H1430.1z"/>
		<path fill="#002033" d="M1432.4,129.9v-1.3l2.3-3.2c0,0,0.1-0.1,0.2-0.2c0.1-0.1,0.2-0.2,0.2-0.3c0,0,0.1-0.1,0.2-0.2
			s0.1-0.2,0.2-0.3c0-0.1,0.1-0.2,0.1-0.3c0-0.1,0.1-0.2,0.1-0.3c0-0.1,0-0.2,0.1-0.3c0-0.1,0-0.2,0-0.4c0-0.4-0.1-0.7-0.3-0.9
			c-0.2-0.3-0.4-0.4-0.7-0.4c-0.2,0-0.3,0-0.5,0.1c-0.1,0.1-0.2,0.2-0.3,0.4c-0.1,0.2-0.1,0.3-0.1,0.5c0,0.2,0,0.4,0,0.6v0.3h-1.3
			v-0.3c0-0.9,0.2-1.5,0.5-2c0.4-0.5,0.9-0.7,1.7-0.7c0.7,0,1.3,0.2,1.7,0.6c0.4,0.4,0.6,1,0.6,1.7c0,0.3,0,0.5-0.1,0.8
			c0,0.2-0.1,0.5-0.2,0.7c-0.1,0.2-0.2,0.4-0.3,0.6c-0.1,0.1-0.2,0.3-0.4,0.6l-2.3,2.9h3.2v1.3H1432.4z"/>
	</g>
	<g>
		<path fill="#002033" d="M1434.6,208.5c-0.3,0-0.6-0.1-0.8-0.2c-0.3-0.1-0.5-0.2-0.6-0.4s-0.3-0.4-0.4-0.7
			c-0.1-0.3-0.2-0.5-0.3-0.8c-0.1-0.3-0.1-0.6-0.1-0.9v-2.9c0-0.4,0-0.7,0.1-1c0-0.3,0.1-0.6,0.2-0.9c0.1-0.3,0.2-0.5,0.4-0.7
			c0.2-0.2,0.4-0.4,0.7-0.5c0.3-0.1,0.6-0.2,0.9-0.2c0.7,0,1.3,0.2,1.7,0.6c0.4,0.4,0.6,1,0.6,1.7h-1.3c0-0.4-0.1-0.8-0.2-1
			c-0.1-0.2-0.4-0.3-0.8-0.3c-0.6,0-1,0.6-1,1.9v1.3c0.3-0.4,0.7-0.6,1.3-0.6c0.4,0,0.7,0.1,0.9,0.2c0.3,0.1,0.5,0.3,0.6,0.6
			s0.2,0.5,0.3,0.8s0.1,0.6,0.1,1c0,0.4,0,0.8-0.1,1.2c-0.1,0.4-0.2,0.7-0.4,1c-0.2,0.3-0.4,0.5-0.7,0.7
			C1435.4,208.5,1435,208.5,1434.6,208.5z M1434.1,207.3c0.1,0.1,0.3,0.1,0.5,0.1c0.2,0,0.3,0,0.5-0.1c0.1-0.1,0.2-0.2,0.3-0.4
			c0.1-0.2,0.1-0.3,0.1-0.5c0-0.2,0-0.4,0-0.6c0-0.1,0-0.2,0-0.3c0-0.1,0-0.2,0-0.3c0-0.1,0-0.2,0-0.3c0-0.1,0-0.1,0-0.3
			c0-0.1,0-0.2-0.1-0.2c0-0.1-0.1-0.1-0.1-0.2c0-0.1-0.1-0.1-0.1-0.2c0,0-0.1-0.1-0.2-0.1c-0.1,0-0.1-0.1-0.2-0.1
			c-0.1,0-0.2,0-0.3,0c-0.4,0-0.7,0.2-1,0.6v1.3c0,0.2,0,0.4,0,0.6c0,0.2,0.1,0.3,0.1,0.5C1433.9,207.1,1434,207.2,1434.1,207.3z"/>
	</g>
	<g>
		<path fill="#002033" d="M1476.5,168.4c-0.7,0-1.3-0.2-1.7-0.6c-0.4-0.4-0.6-1-0.6-1.7v-0.3h1.3c0,0.2,0,0.4,0,0.5
			c0,0.1,0,0.3,0.1,0.4c0,0.1,0.1,0.3,0.2,0.4c0.1,0.1,0.2,0.2,0.3,0.2c0.1,0.1,0.3,0.1,0.4,0.1s0.3,0,0.4-0.1
			c0.1-0.1,0.2-0.1,0.3-0.2c0.1-0.1,0.1-0.2,0.2-0.4c0-0.1,0.1-0.3,0.1-0.4c0-0.1,0-0.3,0-0.5c0-0.5-0.1-0.9-0.3-1.2
			c-0.2-0.3-0.5-0.4-1-0.4v-1.3c0.5,0,0.8-0.1,1-0.3c0.2-0.2,0.3-0.5,0.3-1c0-0.4-0.1-0.8-0.2-1c-0.1-0.2-0.4-0.3-0.8-0.3
			c-0.2,0-0.3,0-0.4,0.1c-0.1,0.1-0.2,0.1-0.3,0.2c-0.1,0.1-0.1,0.2-0.2,0.4c0,0.1-0.1,0.3-0.1,0.4c0,0.1,0,0.3,0,0.5h-1.3v-0.3
			c0-0.7,0.2-1.3,0.6-1.7c0.4-0.4,1-0.6,1.7-0.6c0.7,0,1.3,0.2,1.7,0.6c0.4,0.4,0.6,1,0.6,1.7c0,0.5-0.1,0.9-0.3,1.3
			c-0.2,0.3-0.5,0.6-1,0.7c0.4,0.1,0.7,0.4,1,0.8c0.2,0.4,0.3,0.9,0.3,1.5c0,0.9-0.2,1.5-0.5,2
			C1477.9,168.2,1477.3,168.4,1476.5,168.4z"/>
	</g>
	<g>
		<path fill="#002033" d="M1392.6,168.5c-0.7,0-1.3-0.2-1.7-0.6c-0.4-0.4-0.6-1-0.6-1.7h1.3c0,0.4,0.1,0.8,0.2,1
			c0.1,0.2,0.4,0.3,0.8,0.3c0.6,0,1-0.6,1-1.9v-1.3c-0.3,0.4-0.7,0.6-1.3,0.6c-0.4,0-0.7-0.1-0.9-0.2c-0.3-0.1-0.5-0.3-0.6-0.6
			c-0.1-0.2-0.2-0.5-0.3-0.8s-0.1-0.6-0.1-1c0-0.4,0-0.8,0.1-1.2c0.1-0.4,0.2-0.7,0.4-1c0.2-0.3,0.4-0.5,0.7-0.7
			c0.3-0.2,0.6-0.2,1-0.2c0.3,0,0.6,0.1,0.8,0.2c0.3,0.1,0.5,0.2,0.6,0.4c0.2,0.2,0.3,0.4,0.4,0.7c0.1,0.3,0.2,0.5,0.3,0.8
			c0.1,0.3,0.1,0.6,0.1,0.9v2.9c0,0.4,0,0.7-0.1,1c0,0.3-0.1,0.6-0.2,0.9c-0.1,0.3-0.2,0.5-0.4,0.7c-0.2,0.2-0.4,0.4-0.7,0.5
			C1393.2,168.4,1392.9,168.5,1392.6,168.5z M1392.6,163.8c0.4,0,0.7-0.2,1-0.6v-1.3c0-0.2,0-0.4,0-0.6c0-0.2-0.1-0.4-0.1-0.5
			c-0.1-0.2-0.2-0.3-0.3-0.4c-0.1-0.1-0.3-0.1-0.5-0.1s-0.3,0-0.5,0.1c-0.1,0.1-0.2,0.2-0.3,0.4c-0.1,0.2-0.1,0.3-0.1,0.5
			c0,0.2,0,0.4,0,0.6c0,0.1,0,0.2,0,0.3c0,0.1,0,0.2,0,0.3c0,0.1,0,0.2,0,0.3c0,0.1,0,0.1,0,0.3c0,0.1,0,0.2,0.1,0.2
			c0,0.1,0.1,0.1,0.1,0.2c0,0.1,0.1,0.1,0.1,0.2c0,0,0.1,0.1,0.2,0.1c0.1,0,0.1,0.1,0.2,0.1S1392.5,163.8,1392.6,163.8z"/>
	</g>
	<g>
		<circle fill="#002033" cx="1451.2" cy="128.1" r="0.8"/>
		<circle fill="#002033" cx="1415.5" cy="198.9" r="0.8"/>
		<circle fill="#002033" cx="1472" cy="182.5" r="0.8"/>
		<circle fill="#002033" cx="1396.3" cy="144.6" r="0.8"/>
	</g>
	<g>
		<circle fill="#002033" cx="1467.9" cy="144.7" r="0.8"/>
		<circle fill="#002033" cx="1399" cy="184.2" r="0.8"/>
		<circle fill="#002033" cx="1455.2" cy="201.6" r="0.8"/>
		<circle fill="#002033" cx="1412.9" cy="128.3" r="0.8"/>
	</g>
	<circle fill="#002033" cx="1434.5" cy="163.7" r="3.1"/>
	<polygon fill="#002033" points="1462.6,149.6 1434.3,165.8 1433.1,163.6 1461.4,147.5 	"/>
	<polygon fill="#002033" points="1414.2,153.9 1433.5,165 1434.6,163.2 1415.3,152.1 	"/>
</g>
<rect x="416" y="200" fill-rule="evenodd" clip-rule="evenodd" fill="#002846" width="258" height="9"/>
<g>
	<ellipse fill="#D8AE73" cx="625.5" cy="165.4" rx="36.7" ry="31.6"/>
	<path fill="#CE9F51" d="M627.8,133.8c0,0,41.6,22.7,8.5,61.6c0,0,27.8-4.8,26.3-33.7C662.6,161.8,658.7,134.5,627.8,133.8z"/>
	<circle fill="#CE9F51" cx="647.4" cy="172.5" r="6.1"/>
	<circle fill="#D8AE73" cx="649" cy="172.5" r="6.1"/>
	<circle cx="646.4" cy="172.5" r="1.2"/>
	<circle cx="652.4" cy="172.5" r="1.1"/>
	<circle cx="638.6" cy="165.4" r="1.1"/>
	<circle cx="656.2" cy="165.4" r="1.1"/>
	<path d="M646.4,183.1c-1.8,0-3.4-1.2-3.4-1.2c-0.3-0.2-0.3-0.6-0.1-0.8c0.2-0.3,0.6-0.3,0.8-0.1c0,0,1.4,1,2.8,1
		c1.3,0,2.8-0.8,2.8-0.8c0.3-0.1,0.7,0,0.8,0.3c0.1,0.3,0,0.7-0.3,0.8C649.7,182.3,648,183.1,646.4,183.1z"/>
	<path fill="#2B2B2B" d="M637.8,139.5c-0.1,0-0.2,0-0.3,0c-4.2-1.3-8.7-2-13.3-1.9c-3.7,0.1-6.1,0.6-6.6,0.7
		c-0.6,0.1-1.1-0.2-1.2-0.8c-0.1-0.6,0.2-1.1,0.8-1.2c1-0.2,10.2-2.1,20.9,1.2c0.5,0.2,0.8,0.7,0.7,1.3
		C638.6,139.2,638.2,139.5,637.8,139.5z"/>
	<polygon fill="#D8AE73" points="662.7,152.4 662.6,157.2 662.6,161.9 658.5,159.5 654.3,157.1 658.5,154.8 	"/>
	<polygon fill="#CE9F51" points="629,152.9 629,157.7 629.1,162.5 633.2,160.1 637.3,157.6 633.1,155.3 	"/>
	<polygon fill="#D8AE73" points="598.9,187 603.7,200 612,200 612,195 608.8,187 	"/>
	<polygon fill="#D8AE73" points="625.6,187 620.8,200 613,200 613,195 615.7,187 	"/>
	<polygon fill="#D8AE73" points="622.9,187 627.7,200 635,200 635,195.5 632.8,187 	"/>
	<polygon fill="#CE9F51" points="649.6,187.5 644.8,200 637,200 637,195.5 645.3,189.1 	"/>
	<path fill="#D8AE73" d="M594.6,161.6c-0.1,0.4-0.2,0.7-0.4,1.1c-0.2,0.4-0.5,0.8-0.7,1.1c-0.6,0.7-1.3,1.4-2,1.9
		c-0.8,0.5-1.5,0.9-2.4,1.1c-0.1,0-0.2,0-0.3,0.1c0,0-0.2,0-0.1,0c0,0-0.1,0-0.2,0c-0.2,0-0.4,0-0.6,0c0,0-0.1,0-0.1,0
		c0,0-0.2,0-0.1,0c-0.1,0-0.2,0-0.2-0.1c-0.1,0-0.1,0-0.2-0.1c0.1,0,0,0,0,0c0,0-0.1,0-0.1-0.1c-0.1,0-0.1-0.1-0.2-0.1
		c0,0-0.2-0.2-0.1-0.1c-0.1-0.1-0.2-0.2-0.3-0.3c0,0-0.1-0.1-0.1-0.2c0,0-0.1-0.1-0.1-0.1c0,0-0.1-0.1,0,0c-0.1-0.1-0.2-0.3-0.3-0.4
		c-0.1-0.1-0.2-0.3-0.2-0.4c0-0.1-0.1-0.1-0.1-0.2c-0.1-0.1,0,0.1,0,0c0,0,0-0.1,0-0.1c-0.1-0.3-0.2-0.7-0.3-1c0-0.1,0-0.1,0-0.2
		c0-0.1,0,0.1,0,0c0,0,0-0.1,0-0.1c0-0.2,0-0.3,0-0.5c0-0.2,0-0.3,0-0.5c0-0.1,0,0.1,0,0c0,0,0-0.1,0-0.1c0-0.1,0-0.2,0.1-0.2
		c0-0.1,0-0.1,0.1-0.2c0,0,0-0.1,0-0.1c0-0.1,0,0.1,0,0c0.1-0.1,0.1-0.2,0.2-0.4c0,0,0,0,0-0.1c0.1-0.1-0.1,0.1,0,0
		c0-0.1,0.1-0.1,0.2-0.2c0,0,0.2-0.2,0.1-0.1c0.1,0,0.1-0.1,0.2-0.1c-0.2,0-0.4-0.1-0.6-0.1c0.1,0.1,0.2,0.3,0.3,0.4
		c0,0,0.1,0.1,0,0c0,0,0,0.1,0.1,0.1c0.1,0.1,0.1,0.2,0.2,0.2c0.1,0.1,0.1,0.3,0.2,0.4c0,0,0,0.1,0,0.1c-0.1-0.1,0,0,0,0
		c0,0.1,0.1,0.2,0.1,0.2c0,0.1,0.1,0.3,0.1,0.4c0,0,0,0.1,0,0c0,0,0,0.1,0,0.1c0,0.1,0,0.2,0,0.2c0,0.1,0,0.3,0,0.4c0,0,0,0.1,0,0.1
		c0-0.1,0,0,0,0c0,0.1,0,0.1,0,0.2c0,0.1-0.1,0.2-0.1,0.4c0,0.1,0,0.1-0.1,0.2c0,0.1,0-0.1,0,0c0,0,0,0.1-0.1,0.1
		c-0.1,0.2-0.2,0.5-0.4,0.7c0.1-0.1,0,0-0.1,0.1c0,0-0.1,0.1-0.1,0.1c-0.1,0.1-0.2,0.2-0.3,0.3c0,0-0.1,0.1-0.1,0.1c0,0-0.1,0.1,0,0
		c0,0,0,0-0.1,0.1c-0.1,0.1-0.2,0.1-0.3,0.2c-0.1,0.1-0.2,0.1-0.3,0.2c0,0-0.1,0-0.1,0c0.1-0.1,0,0,0,0c-0.1,0-0.1,0-0.2,0.1
		c-0.1,0-0.2,0.1-0.3,0.1c-0.1,0-0.1,0-0.2,0c0.2,0,0,0-0.1,0c-0.1,0-0.2,0-0.3,0c0,0-0.1,0-0.1,0c-0.1,0,0.1,0,0,0
		c-0.1,0-0.1,0-0.2,0c-0.1,0-0.2-0.1-0.3-0.1c0.2,0.1,0,0-0.1,0c-0.1,0-0.1-0.1-0.2-0.1c0,0-0.1-0.1-0.1-0.1c0.1,0.1,0,0-0.1-0.1
		c-0.1-0.1-0.2-0.2-0.3-0.3c-0.1-0.1,0.1,0.1,0,0c0,0,0-0.1-0.1-0.1c0-0.1-0.1-0.1-0.1-0.2c-0.1-0.1-0.2-0.3-0.2-0.4
		c0,0.1,0-0.1-0.1-0.1c0-0.1-0.1-0.2-0.1-0.2c-0.1-0.2-0.1-0.4-0.1-0.6c0-0.1,0-0.2-0.1-0.3c0-0.1,0-0.1,0-0.2c0-0.2,0-0.4,0-0.6
		c0,0.1,0,0,0,0c0,0,0-0.1,0-0.1c0-0.1,0-0.2,0.1-0.2c0,0,0.1-0.3,0-0.1c0-0.1,0.1-0.2,0.1-0.2c0-0.1,0.1-0.1,0.1-0.2
		c0,0,0.1-0.1,0,0c0,0,0,0,0.1-0.1c0,0,0.1-0.1,0.1-0.1c0,0,0.1-0.1,0,0c0,0,0.1,0,0.1-0.1c0,0,0.2-0.1,0,0c0,0,0.1,0,0.1,0
		c0.1,0-0.1,0,0,0c0,0,0,0,0.1,0c0,0,0.1,0,0,0c0,0,0.1,0,0.1,0c0,0,0.1,0.1,0,0c0,0,0,0,0.1,0c0,0,0.1,0.1,0,0c0,0,0,0,0.1,0.1
		c0,0,0,0,0.1,0.1c-0.1-0.1,0,0,0,0c0,0,0,0.1,0,0.1c0,0,0.1,0.2,0,0c0.1,0.2,0.1,0.3,0.1,0.5c0,0.2,0-0.1,0,0.1c0,0.1,0,0.1,0,0.2
		c0,0.1,0,0.3,0,0.4c0,0.1,0,0.1,0,0.2c0,0,0,0.2,0,0.1c0,0.1,0,0.2-0.1,0.3c0,0.1-0.1,0.2-0.1,0.3c0,0,0,0.1-0.1,0.1
		c0-0.1,0,0.1-0.1,0.1c-0.2,0.4-0.4,0.6-0.7,0.9c-0.2,0.2-0.2,0.2-0.4,0.3c-0.1,0.1-0.2,0.1-0.3,0.1c0,0-0.1,0-0.1,0.1
		c0,0-0.1,0-0.1,0c0,0,0,0,0,0c-0.1,0-0.2,0.1-0.3,0.1c-0.1,0-0.1,0-0.2,0c0,0-0.2,0-0.1,0c-0.1,0-0.2,0-0.3,0c-0.1,0-0.1,0-0.2,0
		c-0.1,0-0.1,0,0,0c0,0-0.1,0-0.1,0c-0.5-0.1-0.8-0.3-1.2-0.7c-0.2-0.2-0.5-0.2-0.7,0c-0.2,0.2-0.2,0.5,0,0.7
		c0.6,0.7,1.5,1.1,2.4,1.1c0.9-0.1,1.7-0.5,2.4-1.1c0.7-0.6,1.1-1.5,1.2-2.4c0.1-0.7,0-1.7-0.6-2.2c-0.5-0.4-1.1-0.4-1.6,0
		c-0.6,0.4-0.9,1.1-1,1.8c-0.1,0.8,0,1.7,0.3,2.5c0.2,0.6,0.5,1.2,1,1.6c1.8,1.5,4.5,0.1,5.4-1.8c0.3-0.7,0.5-1.5,0.3-2.3
		c-0.1-0.9-0.7-1.7-1.3-2.4c-0.2-0.2-0.4-0.2-0.6-0.1c-1.4,0.8-1.5,2.5-1.3,3.9c0.3,1.4,1.1,3,2.4,3.6c0.8,0.4,1.7,0.3,2.5,0.2
		c0.9-0.2,1.8-0.6,2.6-1.1c1.6-1,3-2.5,3.6-4.3c0.1-0.1,0.1-0.3,0.1-0.4C595.7,161.3,594.8,161,594.6,161.6L594.6,161.6z"/>
</g>
<g>
	<polygon fill-rule="evenodd" clip-rule="evenodd" fill="#002846" points="449.5,115 501.5,115 525.2,151 514.8,151 468.2,151 	"/>
	<polygon fill-rule="evenodd" clip-rule="evenodd" fill="#FFFFFF" points="501.2,117 447.7,117 474.6,171 528.1,171 	"/>
	<polygon fill-rule="evenodd" clip-rule="evenodd" fill="#002846" points="459.9,151 446,115 449.5,115 472.3,151 	"/>
	<rect x="472" y="146" fill-rule="evenodd" clip-rule="evenodd" fill="#CE9F51" width="99" height="54"/>
	<path fill-rule="evenodd" clip-rule="evenodd" fill="#D8AE73" d="M487,196.7c0,1.3-1,2.3-2.3,2.3h-48.4c-1.3,0-2.3-1-2.3-2.3v-48.4
		c0-1.3,1-2.3,2.3-2.3h48.4c1.3,0,2.3,1,2.3,2.3V196.7z"/>
	<circle fill-rule="evenodd" clip-rule="evenodd" fill="#002846" cx="564.5" cy="153.7" r="2.6"/>
	<circle fill-rule="evenodd" clip-rule="evenodd" fill="#002846" cx="564.5" cy="162.6" r="2.6"/>
	<rect x="500" y="146" fill-rule="evenodd" clip-rule="evenodd" fill="#A0773A" width="56" height="54"/>
	<rect x="502" y="189" fill-rule="evenodd" clip-rule="evenodd" fill="#011621" width="54" height="5"/>
	<polygon fill-rule="evenodd" clip-rule="evenodd" fill="#FFFFFF" points="588.7,200 534.1,200 500.9,194 555.5,194 	"/>
</g>
<rect x="416" y="209" fill="#B7B4AE" width="258" height="19"/>
<path fill="#FFFFFF" d="M952.5,293.1c0,0,58.8-5.4,73.1-68.1l84.2-15.5c0,0-31.4,59-57,71.4L952.5,293.1z"/>
<path fill="#FFFFFF" d="M1084.6,349.1c0,0,48.2,3.1,56.3-28.9l58.6,64.7c0,0-33.3,50-51.7,39.8
	C1147.8,424.8,1121.4,370.9,1084.6,349.1z"/>
<g>
	<path fill="#6B6862" d="M1022.1,492.9h1.8c2.8,0,5.5,0.7,5.5,4.1c0,1.1-0.6,2.4-1.6,2.9v0c1.8,0.3,3,2.1,3,3.8c0,3-2.6,4.2-5.2,4.2
		h-3.5V492.9z M1023.9,499.6h0.5c1.8,0,3.2-0.4,3.2-2.5c0-2.1-1.4-2.5-3.2-2.5h-0.5V499.6z M1023.9,506.3h1.4c1.7,0,3.6-0.5,3.6-2.7
		c0-2.1-2.2-2.6-3.8-2.6h-1.2V506.3z"/>
	<path fill="#6B6862" d="M1047.7,500.5c0,4.5-3.5,7.9-7.9,7.9c-4.4,0-7.9-3.4-7.9-7.9c0-4.3,3.6-7.9,7.9-7.9
		C1044.1,492.6,1047.7,496.2,1047.7,500.5z M1045.8,500.5c0-3.3-2.5-6.1-6-6.1c-3.5,0-6,2.8-6,6.1c0,3.4,2.8,6.1,6,6.1
		C1043,506.6,1045.8,503.9,1045.8,500.5z"/>
	<path fill="#6B6862" d="M1049.3,492.2l11.3,11.9v-11.1h1.9v15.7l-11.3-11.9V508h-1.9V492.2z"/>
	<path fill="#6B6862" d="M1069.8,492.9v9.6c0,2.9-0.6,5.8-4.1,5.8c-0.9,0-1.6-0.2-2.4-0.7l0.9-1.6c0.4,0.3,1,0.5,1.5,0.5
		c2.2,0,2.1-2.5,2.1-4.1v-9.6H1069.8z"/>
	<path fill="#6B6862" d="M1087.2,500.5c0,4.5-3.5,7.9-7.9,7.9c-4.4,0-7.9-3.4-7.9-7.9c0-4.3,3.6-7.9,7.9-7.9
		C1083.6,492.6,1087.2,496.2,1087.2,500.5z M1085.3,500.5c0-3.3-2.5-6.1-6-6.1c-3.5,0-6,2.8-6,6.1c0,3.4,2.8,6.1,6,6.1
		C1082.5,506.6,1085.3,503.9,1085.3,500.5z"/>
	<path fill="#6B6862" d="M1090.6,492.9v8.9c0,2.5,0.7,4.7,3.6,4.7c2.9,0,3.6-2.3,3.6-4.7v-8.9h1.9v9.5c0,3.3-2.1,5.9-5.5,5.9
		s-5.5-2.5-5.5-5.9v-9.5H1090.6z"/>
	<path fill="#6B6862" d="M1111.7,508h-2.3l-4.4-6.4h-0.8v6.4h-1.9v-15.1h2.3c1.3,0,2.8,0,4,0.7c1.3,0.7,2,2.2,2,3.6
		c0,2.2-1.4,4-3.6,4.2L1111.7,508z M1104.2,500.1h0.6c1.9,0,4-0.4,4-2.8c0-2.4-2.2-2.7-4.1-2.7h-0.5V500.1z"/>
	<path fill="#6B6862" d="M1116.6,506.3l-2.7,5.3l-1.1-0.5l2.2-5.5L1116.6,506.3z"/>
	<path fill="#6B6862" d="M1129.6,498.1L1129.6,498.1l-1.8,10h-1.9l3.1-15.7l5.2,11.9l5.2-11.9l3.1,15.7h-1.9l-1.8-10h0l-4.5,10.3
		L1129.6,498.1z"/>
	<path fill="#6B6862" d="M1158.8,500.5c0,4.5-3.5,7.9-7.9,7.9c-4.4,0-7.9-3.4-7.9-7.9c0-4.3,3.6-7.9,7.9-7.9
		C1155.3,492.6,1158.8,496.2,1158.8,500.5z M1157,500.5c0-3.3-2.5-6.1-6-6.1c-3.5,0-6,2.8-6,6.1c0,3.4,2.8,6.1,6,6.1
		C1154.2,506.6,1157,503.9,1157,500.5z"/>
	<path fill="#6B6862" d="M1160.5,492.2l11.3,11.9v-11.1h1.9v15.7l-11.3-11.9V508h-1.9V492.2z"/>
	<path fill="#6B6862" d="M1184.5,492.9h8.1v1.7h-6.2v4.2h6v1.7h-6v5.7h6.2v1.7h-8.1V492.9z"/>
	<path fill="#6B6862" d="M1194.7,492.2l11.3,11.9v-11.1h1.9v15.7l-11.3-11.9V508h-1.9V492.2z"/>
	<path fill="#6B6862" d="M1214.6,508h-1.9v-13.4h-3.6v-1.7h9v1.7h-3.6V508z"/>
	<path fill="#6B6862" d="M1229.1,508h-2.3l-4.4-6.4h-0.8v6.4h-1.9v-15.1h2.3c1.3,0,2.8,0,4,0.7c1.3,0.7,2,2.2,2,3.6
		c0,2.2-1.4,4-3.6,4.2L1229.1,508z M1221.6,500.1h0.6c1.9,0,4-0.4,4-2.8c0-2.4-2.2-2.7-4.1-2.7h-0.5V500.1z"/>
	<path fill="#6B6862" d="M1230.6,492.9h8.1v1.7h-6.2v4.2h6v1.7h-6v5.7h6.2v1.7h-8.1V492.9z"/>
	<path fill="#6B6862" d="M1242.9,508h-1.9v-15.1h2.2c4.6,0,6.1,1.6,6.1,4.4c0,3.2-2.4,4.4-5.3,4.4h-1.1V508z M1242.9,500h0.6
		c1.9,0,4-0.4,4-2.8c0-2.4-2.2-2.6-4.1-2.6h-0.5V500z"/>
	<path fill="#6B6862" d="M1260.3,508h-2.3l-4.4-6.4h-0.8v6.4h-1.9v-15.1h2.3c1.3,0,2.8,0,4,0.7c1.3,0.7,2,2.2,2,3.6
		c0,2.2-1.4,4-3.6,4.2L1260.3,508z M1252.8,500.1h0.6c1.9,0,4-0.4,4-2.8c0-2.4-2.2-2.7-4.1-2.7h-0.5V500.1z"/>
	<path fill="#6B6862" d="M1263.6,508h-1.9v-15.1h1.9V508z"/>
	<path fill="#6B6862" d="M1273.1,495.8c-0.6-0.9-1.3-1.4-2.4-1.4c-1.2,0-2.5,0.8-2.5,2.1c0,1.2,1.2,1.8,2.1,2.2l1.1,0.4
		c2.1,0.8,3.7,2,3.7,4.5c0,2.7-2.1,4.7-4.8,4.7c-2.4,0-4.3-1.8-4.7-4.2l1.9-0.4c0,1.7,1.3,2.9,2.9,2.9s2.8-1.4,2.8-2.9
		c0-1.6-1.3-2.3-2.6-2.9l-1-0.4c-1.7-0.7-3.3-1.7-3.3-3.8c0-2.4,2.2-3.9,4.4-3.9c1.7,0,3.1,0.8,3.9,2.3L1273.1,495.8z"/>
	<path fill="#6B6862" d="M1277.1,492.9h8.1v1.7h-6.2v4.2h6v1.7h-6v5.7h6.2v1.7h-8.1V492.9z"/>
	<path fill="#6B6862" d="M1297.8,504.2l-1.7,3.8h-2l7.2-15.7l7.2,15.7h-2l-1.7-3.8H1297.8z M1301.2,496.4l-2.7,6.1h5.4L1301.2,496.4
		z"/>
	<path fill="#6B6862" d="M1322.2,494.7l-0.9,3.1l1.1-0.1c2.9,0,4.8,2.5,4.8,5.3c0,3.2-2.5,5.4-5.6,5.4c-1.9,0-3.7-1-4.6-2.6l1.4-1.3
		c0.5,1.3,2,2.2,3.3,2.2c2,0,3.6-1.7,3.6-3.7c0-1.9-1.7-3.6-3.6-3.6c-1.1,0-2.2,0.5-2.8,1.3h-0.4l2.3-7.7h6v1.7H1322.2z"/>
	<path fill="#6B6862" d="M1339.6,504.2l-1.7,3.8h-2l7.2-15.7l7.2,15.7h-2l-1.7-3.8H1339.6z M1343,496.4l-2.7,6.1h5.4L1343,496.4z"/>
	<path fill="#6B6862" d="M1351.3,492.2l11.3,11.9v-11.1h1.9v15.7l-11.3-11.9V508h-1.9V492.2z"/>
	<path fill="#6B6862" d="M1373.9,495.8c-0.6-0.9-1.3-1.4-2.4-1.4c-1.2,0-2.5,0.8-2.5,2.1c0,1.2,1.2,1.8,2.1,2.2l1.1,0.4
		c2.1,0.8,3.7,2,3.7,4.5c0,2.7-2.1,4.7-4.8,4.7c-2.4,0-4.3-1.8-4.7-4.2l1.9-0.4c0,1.7,1.3,2.9,2.9,2.9s2.8-1.4,2.8-2.9
		c0-1.6-1.3-2.3-2.6-2.9l-1-0.4c-1.7-0.7-3.3-1.7-3.3-3.8c0-2.4,2.2-3.9,4.4-3.9c1.7,0,3.1,0.8,3.9,2.3L1373.9,495.8z"/>
	<path fill="#6B6862" d="M1380.6,507.2c0,0.6-0.5,1.2-1.2,1.2c-0.6,0-1.2-0.5-1.2-1.2c0-0.6,0.5-1.2,1.2-1.2
		C1380,506,1380.6,506.6,1380.6,507.2z"/>
	<path fill="#6B6862" d="M1026.8,518.9v9.6c0,2.9-0.6,5.8-4.1,5.8c-0.9,0-1.6-0.2-2.4-0.7l0.9-1.6c0.4,0.3,1,0.5,1.5,0.5
		c2.2,0,2.1-2.5,2.1-4.1v-9.6H1026.8z"/>
	<path fill="#6B6862" d="M1029.5,518.9h8.1v1.7h-6.2v4.2h6v1.7h-6v5.7h6.2v1.7h-8.1V518.9z"/>
	<path fill="#6B6862" d="M1054,530.1l4.5-11.2h2.1l-6.5,15.9l-6.6-15.9h2.1L1054,530.1z"/>
	<path fill="#6B6862" d="M1061.8,518.9h8.1v1.7h-6.2v4.2h6v1.7h-6v5.7h6.2v1.7h-8.1V518.9z"/>
	<path fill="#6B6862" d="M1073.8,518.9v8.9c0,2.5,0.7,4.7,3.6,4.7c2.9,0,3.6-2.3,3.6-4.7v-8.9h1.9v9.5c0,3.3-2.1,5.9-5.5,5.9
		s-5.5-2.5-5.5-5.9v-9.5H1073.8z"/>
	<path fill="#6B6862" d="M1084.7,518.9h2.1l3.1,5.5l3.3-5.5h2.1l-4.3,7.2l4.6,7.9h-2.1l-3.6-6.2l-3.7,6.2h-2.1l4.7-7.9L1084.7,518.9
		z"/>
	<path fill="#6B6862" d="M1108.1,532.3h4.6v1.7h-6.5v-15.1h1.9V532.3z"/>
	<path fill="#6B6862" d="M1113.9,518.9h8.1v1.7h-6.2v4.2h6v1.7h-6v5.7h6.2v1.7h-8.1V518.9z"/>
	<path fill="#6B6862" d="M1129.3,530.1l4.5-11.2h2.1l-6.5,15.9l-6.6-15.9h2.1L1129.3,530.1z"/>
	<path fill="#6B6862" d="M1137.1,518.9h8.1v1.7h-6.2v4.2h6v1.7h-6v5.7h6.2v1.7h-8.1V518.9z"/>
	<path fill="#6B6862" d="M1156.9,534h-2.3l-4.4-6.4h-0.8v6.4h-1.9v-15.1h2.3c1.3,0,2.8,0,4,0.7c1.3,0.7,2,2.2,2,3.6
		c0,2.2-1.4,4-3.6,4.2L1156.9,534z M1149.4,526.1h0.6c1.9,0,4-0.4,4-2.8c0-2.4-2.2-2.7-4.1-2.7h-0.5V526.1z"/>
	<path fill="#6B6862" d="M1167.3,518.9h3.1c4.6,0,8.5,2.4,8.5,7.5c0,5.1-3.8,7.6-8.5,7.6h-3.1V518.9z M1169.2,532.3h0.7
		c3.8,0,7.2-1.4,7.2-5.8c0-4.4-3.3-5.8-7.2-5.8h-0.7V532.3z"/>
	<path fill="#6B6862" d="M1180.8,518.9h8.1v1.7h-6.2v4.2h6v1.7h-6v5.7h6.2v1.7h-8.1V518.9z"/>
	<path fill="#6B6862" d="M1197.9,521.8c-0.6-0.9-1.3-1.4-2.4-1.4c-1.2,0-2.5,0.8-2.5,2.1c0,1.2,1.2,1.8,2.1,2.2l1.1,0.4
		c2.1,0.8,3.7,2,3.7,4.5c0,2.7-2.1,4.7-4.8,4.7c-2.4,0-4.3-1.8-4.7-4.2l1.9-0.4c0,1.7,1.3,2.9,2.9,2.9c1.6,0,2.8-1.4,2.8-2.9
		c0-1.6-1.3-2.3-2.6-2.9l-1-0.4c-1.7-0.7-3.3-1.7-3.3-3.8c0-2.4,2.2-3.9,4.4-3.9c1.7,0,3.1,0.8,3.9,2.3L1197.9,521.8z"/>
	<path fill="#6B6862" d="M1212.9,520.7v4.2h5.2v1.7h-5.2v7.4h-1.9v-15.1h7.3v1.7H1212.9z"/>
	<path fill="#6B6862" d="M1235.3,526.5c0,4.5-3.5,7.9-7.9,7.9c-4.4,0-7.9-3.4-7.9-7.9c0-4.3,3.6-7.9,7.9-7.9
		C1231.7,518.6,1235.3,522.2,1235.3,526.5z M1233.4,526.5c0-3.3-2.5-6.1-6-6.1c-3.5,0-6,2.8-6,6.1c0,3.4,2.8,6.1,6,6.1
		C1230.7,532.6,1233.4,529.9,1233.4,526.5z"/>
	<path fill="#6B6862" d="M1236.9,518.2l11.3,11.9v-11.1h1.9v15.7l-11.3-11.9V534h-1.9V518.2z"/>
	<path fill="#6B6862" d="M1252.6,518.9h3.1c4.6,0,8.5,2.4,8.5,7.5c0,5.1-3.8,7.6-8.5,7.6h-3.1V518.9z M1254.5,532.3h0.7
		c3.8,0,7.2-1.4,7.2-5.8c0-4.4-3.3-5.8-7.2-5.8h-0.7V532.3z"/>
	<path fill="#6B6862" d="M1272.8,521.8c-0.6-0.9-1.3-1.4-2.4-1.4c-1.2,0-2.5,0.8-2.5,2.1c0,1.2,1.2,1.8,2.1,2.2l1.1,0.4
		c2.1,0.8,3.7,2,3.7,4.5c0,2.7-2.1,4.7-4.8,4.7c-2.4,0-4.3-1.8-4.7-4.2l1.9-0.4c0,1.7,1.3,2.9,2.9,2.9s2.8-1.4,2.8-2.9
		c0-1.6-1.3-2.3-2.6-2.9l-1-0.4c-1.7-0.7-3.3-1.7-3.3-3.8c0-2.4,2.2-3.9,4.4-3.9c1.7,0,3.1,0.8,3.9,2.3L1272.8,521.8z"/>
	<path fill="#6B6862" d="M1286,518.9h8.1v1.7h-6.2v4.2h6v1.7h-6v5.7h6.2v1.7h-8.1V518.9z"/>
	<path fill="#6B6862" d="M1300.4,534h-1.9v-13.4h-3.6v-1.7h9v1.7h-3.6V534z"/>
	<path fill="#6B6862" d="M1329.4,526.5c0,4.5-3.5,7.9-7.9,7.9c-4.4,0-7.9-3.4-7.9-7.9c0-4.3,3.6-7.9,7.9-7.9
		C1325.8,518.6,1329.4,522.2,1329.4,526.5z M1327.5,526.5c0-3.3-2.5-6.1-6-6.1c-3.5,0-6,2.8-6,6.1c0,3.4,2.8,6.1,6,6.1
		C1324.7,532.6,1327.5,529.9,1327.5,526.5z"/>
	<path fill="#6B6862" d="M1332.8,518.9v8.9c0,2.5,0.7,4.7,3.6,4.7c2.9,0,3.6-2.3,3.6-4.7v-8.9h1.9v9.5c0,3.3-2.1,5.9-5.5,5.9
		s-5.5-2.5-5.5-5.9v-9.5H1332.8z"/>
	<path fill="#6B6862" d="M1349.5,530.1l4.5-11.2h2.1l-6.5,15.9l-6.6-15.9h2.1L1349.5,530.1z"/>
	<path fill="#6B6862" d="M1366.7,534h-2.3l-4.4-6.4h-0.8v6.4h-1.9v-15.1h2.3c1.3,0,2.8,0,4,0.7c1.3,0.7,2,2.2,2,3.6
		c0,2.2-1.4,4-3.6,4.2L1366.7,534z M1359.2,526.1h0.6c1.9,0,4-0.4,4-2.8c0-2.4-2.2-2.7-4.1-2.7h-0.5V526.1z"/>
	<path fill="#6B6862" d="M1370,534h-1.9v-15.1h1.9V534z"/>
	<path fill="#6B6862" d="M1382.2,534h-2.3l-4.4-6.4h-0.8v6.4h-1.9v-15.1h2.3c1.3,0,2.8,0,4,0.7c1.3,0.7,2,2.2,2,3.6
		c0,2.2-1.4,4-3.6,4.2L1382.2,534z M1374.7,526.1h0.6c1.9,0,4-0.4,4-2.8c0-2.4-2.2-2.7-4.1-2.7h-0.5V526.1z"/>
	<path fill="#6B6862" d="M1024.8,550.1L1024.8,550.1l-1.8,10h-1.9l3.1-15.7l5.2,11.9l5.2-11.9l3.1,15.7h-1.9l-1.8-10h0l-4.5,10.3
		L1024.8,550.1z"/>
	<path fill="#6B6862" d="M1054,552.5c0,4.5-3.5,7.9-7.9,7.9c-4.4,0-7.9-3.4-7.9-7.9c0-4.3,3.6-7.9,7.9-7.9
		C1050.4,544.6,1054,548.2,1054,552.5z M1052.1,552.5c0-3.3-2.5-6.1-6-6.1c-3.5,0-6,2.8-6,6.1c0,3.4,2.8,6.1,6,6.1
		C1049.3,558.6,1052.1,555.9,1052.1,552.5z"/>
	<path fill="#6B6862" d="M1055.6,544.2l11.3,11.9v-11.1h1.9v15.7l-11.3-11.9V560h-1.9V544.2z"/>
	<path fill="#6B6862" d="M1088.3,547.8c-1.1-1-2.6-1.5-4-1.5c-3.4,0-6,2.8-6,6.2c0,3.3,2.6,6.1,5.9,6.1c1.5,0,2.9-0.6,4-1.6v2.2
		c-1.2,0.7-2.6,1.1-4,1.1c-4.3,0-7.9-3.4-7.9-7.8c0-4.5,3.6-7.9,8-7.9c1.3,0,2.7,0.3,3.8,1V547.8z"/>
	<path fill="#6B6862" d="M1092.6,556.2l-1.7,3.8h-2l7.2-15.7l7.2,15.7h-2l-1.7-3.8H1092.6z M1096.1,548.4l-2.7,6.1h5.4L1096.1,548.4
		z"/>
	<path fill="#6B6862" d="M1106.4,560h-1.9v-15.1h2.2c4.6,0,6.1,1.6,6.1,4.4c0,3.2-2.4,4.4-5.3,4.4h-1.1V560z M1106.4,552h0.6
		c1.9,0,4-0.4,4-2.8c0-2.4-2.2-2.6-4.1-2.6h-0.5V552z"/>
	<path fill="#6B6862" d="M1116.3,560h-1.9v-15.1h1.9V560z"/>
	<path fill="#6B6862" d="M1123.2,560h-1.9v-13.4h-3.6v-1.7h9v1.7h-3.6V560z"/>
	<path fill="#6B6862" d="M1128.8,556.2l-1.7,3.8h-2l7.2-15.7l7.2,15.7h-2l-1.7-3.8H1128.8z M1132.2,548.4l-2.7,6.1h5.4L1132.2,548.4
		z"/>
	<path fill="#6B6862" d="M1142.6,558.3h4.6v1.7h-6.5v-15.1h1.9V558.3z"/>
	<path fill="#6B6862" d="M1160.9,547.8c-0.6-0.9-1.3-1.4-2.4-1.4c-1.2,0-2.5,0.8-2.5,2.1c0,1.2,1.2,1.8,2.1,2.2l1.1,0.4
		c2.1,0.8,3.7,2,3.7,4.5c0,2.7-2.1,4.7-4.8,4.7c-2.4,0-4.3-1.8-4.7-4.2l1.9-0.4c0,1.7,1.3,2.9,2.9,2.9s2.8-1.4,2.8-2.9
		c0-1.6-1.3-2.3-2.6-2.9l-1-0.4c-1.7-0.7-3.3-1.7-3.3-3.8c0-2.4,2.2-3.9,4.4-3.9c1.7,0,3.1,0.8,3.9,2.3L1160.9,547.8z"/>
	<path fill="#6B6862" d="M1166.5,544.9v8.9c0,2.5,0.7,4.7,3.6,4.7c2.9,0,3.6-2.3,3.6-4.7v-8.9h1.9v9.5c0,3.3-2.1,5.9-5.5,5.9
		c-3.5,0-5.5-2.5-5.5-5.9v-9.5H1166.5z"/>
	<path fill="#6B6862" d="M1187.7,560h-2.3l-4.4-6.4h-0.8v6.4h-1.9v-15.1h2.3c1.3,0,2.8,0,4,0.7c1.3,0.7,2,2.2,2,3.6
		c0,2.2-1.4,4-3.6,4.2L1187.7,560z M1180.2,552.1h0.6c1.9,0,4-0.4,4-2.8c0-2.4-2.2-2.7-4.1-2.7h-0.5V552.1z"/>
	<path fill="#6B6862" d="M1196.5,544.9v8.9c0,2.5,0.7,4.7,3.6,4.7s3.6-2.3,3.6-4.7v-8.9h1.9v9.5c0,3.3-2.1,5.9-5.5,5.9
		s-5.5-2.5-5.5-5.9v-9.5H1196.5z"/>
	<path fill="#6B6862" d="M1208.1,544.2l11.3,11.9v-11.1h1.9v15.7l-11.3-11.9V560h-1.9V544.2z"/>
	<path fill="#6B6862" d="M1224,544.9h8.1v1.7h-6.2v4.2h6v1.7h-6v5.7h6.2v1.7h-8.1V544.9z"/>
	<path fill="#6B6862" d="M1242.1,560h-1.9v-15.1h2.2c4.6,0,6.1,1.6,6.1,4.4c0,3.2-2.4,4.4-5.3,4.4h-1.1V560z M1242.1,552h0.6
		c1.9,0,4-0.4,4-2.8c0-2.4-2.2-2.6-4.1-2.6h-0.5V552z"/>
	<path fill="#6B6862" d="M1252,558.3h4.6v1.7h-6.5v-15.1h1.9V558.3z"/>
	<path fill="#6B6862" d="M1259.9,556.2l-1.7,3.8h-2l7.2-15.7l7.2,15.7h-2l-1.7-3.8H1259.9z M1263.4,548.4l-2.7,6.1h5.4L1263.4,548.4
		z"/>
	<path fill="#6B6862" d="M1274.3,560h-1.9v-13.4h-3.6v-1.7h9v1.7h-3.6V560z"/>
	<path fill="#6B6862" d="M1279.4,544.9h8.1v1.7h-6.2v4.2h6v1.7h-6v5.7h6.2v1.7h-8.1V544.9z"/>
	<path fill="#6B6862" d="M1291.7,546.7v4.2h5.2v1.7h-5.2v7.4h-1.9v-15.1h7.3v1.7H1291.7z"/>
	<path fill="#6B6862" d="M1314,552.5c0,4.5-3.5,7.9-7.9,7.9c-4.4,0-7.9-3.4-7.9-7.9c0-4.3,3.6-7.9,7.9-7.9
		C1310.4,544.6,1314,548.2,1314,552.5z M1312.1,552.5c0-3.3-2.5-6.1-6-6.1c-3.5,0-6,2.8-6,6.1c0,3.4,2.8,6.1,6,6.1
		C1309.4,558.6,1312.1,555.9,1312.1,552.5z"/>
	<path fill="#6B6862" d="M1325.2,560h-2.3l-4.4-6.4h-0.8v6.4h-1.9v-15.1h2.3c1.3,0,2.8,0,4,0.7c1.3,0.7,2,2.2,2,3.6
		c0,2.2-1.4,4-3.6,4.2L1325.2,560z M1317.7,552.1h0.6c1.9,0,4-0.4,4-2.8c0-2.4-2.2-2.7-4.1-2.7h-0.5V552.1z"/>
	<path fill="#6B6862" d="M1329.3,550.1L1329.3,550.1l-1.8,10h-1.9l3.1-15.7l5.2,11.9l5.2-11.9l3.1,15.7h-1.9l-1.8-10h0l-4.5,10.3
		L1329.3,550.1z"/>
	<path fill="#6B6862" d="M1343.7,544.9h8.1v1.7h-6.2v4.2h6v1.7h-6v5.7h6.2v1.7h-8.1V544.9z"/>
	<path fill="#6B6862" d="M1359.7,544.9h3.1c4.6,0,8.5,2.4,8.5,7.5c0,5.1-3.8,7.6-8.5,7.6h-3.1V544.9z M1361.6,558.3h0.7
		c3.8,0,7.2-1.4,7.2-5.8c0-4.4-3.3-5.8-7.2-5.8h-0.7V558.3z"/>
	<path fill="#6B6862" d="M1373.2,544.9h8.1v1.7h-6.2v4.2h6v1.7h-6v5.7h6.2v1.7h-8.1V544.9z"/>
	<path fill="#6B6862" d="M1033.2,573.8c-1.1-1-2.6-1.5-4-1.5c-3.4,0-6,2.8-6,6.2c0,3.3,2.6,6.1,5.9,6.1c1.5,0,2.9-0.6,4-1.6v2.2
		c-1.2,0.7-2.6,1.1-4,1.1c-4.3,0-7.9-3.4-7.9-7.8c0-4.5,3.6-7.9,8-7.9c1.3,0,2.7,0.3,3.8,1V573.8z"/>
	<path fill="#6B6862" d="M1044.8,586h-2.3l-4.4-6.4h-0.8v6.4h-1.9v-15.1h2.3c1.3,0,2.8,0,4,0.7c1.3,0.7,2,2.2,2,3.6
		c0,2.2-1.4,4-3.6,4.2L1044.8,586z M1037.3,578.1h0.6c1.9,0,4-0.4,4-2.8c0-2.4-2.2-2.7-4.1-2.7h-0.5V578.1z"/>
	<path fill="#6B6862" d="M1061,578.5c0,4.5-3.5,7.9-7.9,7.9c-4.4,0-7.9-3.4-7.9-7.9c0-4.3,3.6-7.9,7.9-7.9
		C1057.5,570.6,1061,574.2,1061,578.5z M1059.2,578.5c0-3.3-2.5-6.1-6-6.1c-3.5,0-6,2.8-6,6.1c0,3.4,2.8,6.1,6,6.1
		C1056.4,584.6,1059.2,581.9,1059.2,578.5z"/>
	<path fill="#6B6862" d="M1067.4,581.7l4.3-11.1l4.3,11.1l4.2-10.8h2l-6.3,15.7l-4.3-11.1l-4.3,11.1l-6.3-15.7h2L1067.4,581.7z"/>
	<path fill="#6B6862" d="M1083.2,570.9h3.1c4.6,0,8.5,2.4,8.5,7.5c0,5.1-3.8,7.6-8.5,7.6h-3.1V570.9z M1085.1,584.3h0.7
		c3.8,0,7.2-1.4,7.2-5.8c0-4.4-3.3-5.8-7.2-5.8h-0.7V584.3z"/>
	<path fill="#6B6862" d="M1098.6,572.7v4.2h5.2v1.7h-5.2v7.4h-1.9v-15.1h7.3v1.7H1098.6z"/>
	<path fill="#6B6862" d="M1107.8,570.9v8.9c0,2.5,0.7,4.7,3.6,4.7c2.9,0,3.6-2.3,3.6-4.7v-8.9h1.9v9.5c0,3.3-2.1,5.9-5.5,5.9
		c-3.5,0-5.5-2.5-5.5-5.9v-9.5H1107.8z"/>
	<path fill="#6B6862" d="M1119.4,570.2l11.3,11.9v-11.1h1.9v15.7l-11.3-11.9V586h-1.9V570.2z"/>
	<path fill="#6B6862" d="M1135.1,570.9h3.1c4.6,0,8.5,2.4,8.5,7.5c0,5.1-3.8,7.6-8.5,7.6h-3.1V570.9z M1137,584.3h0.7
		c3.8,0,7.2-1.4,7.2-5.8c0-4.4-3.3-5.8-7.2-5.8h-0.7V584.3z"/>
	<path fill="#6B6862" d="M1150.4,586h-1.9v-15.1h1.9V586z"/>
	<path fill="#6B6862" d="M1153,570.2l11.3,11.9v-11.1h1.9v15.7l-11.3-11.9V586h-1.9V570.2z"/>
	<path fill="#6B6862" d="M1182.6,578.4v0.6c0,4.1-2.9,7.3-7.1,7.3s-7.6-3.6-7.6-7.8c0-4.3,3.5-7.9,7.8-7.9c2.3,0,4.7,1.1,6.1,2.9
		l-1.3,1.3c-1.1-1.5-2.9-2.5-4.7-2.5c-3.4,0-6,2.7-6,6.1c0,3.2,2.6,6.2,5.9,6.2c2.3,0,4.9-2,4.9-4.5h-3.9v-1.7H1182.6z"/>
	<path fill="#6B6862" d="M1187.1,585.2c0,0.6-0.5,1.2-1.2,1.2c-0.6,0-1.2-0.5-1.2-1.2c0-0.6,0.5-1.2,1.2-1.2
		C1186.6,584,1187.1,584.6,1187.1,585.2z"/>
	<path fill="#6B6862" d="M1205.8,574.9c-0.8-1-2.1-1.6-3.3-1.6c-2.8,0-4.4,2.6-4.4,5.2c0,2.5,1.7,5.1,4.4,5.1c1.3,0,2.5-0.7,3.3-1.6
		v3.5c-1.1,0.5-2.2,0.9-3.4,0.9c-4.2,0-7.4-3.7-7.4-7.8c0-4.3,3-8.1,7.4-8.1c1.2,0,2.3,0.3,3.4,0.9V574.9z"/>
	<path fill="#6B6862" d="M1214.5,586.4c-4.6,0-7.5-3.5-7.5-8c0-4.5,3-7.9,7.5-7.9c4.5,0,7.5,3.4,7.5,7.9
		C1221.9,582.9,1219.1,586.4,1214.5,586.4z M1214.5,573.4c-2.8,0-4.4,2.5-4.4,4.9c0,2.3,1.2,5.2,4.4,5.2s4.4-2.9,4.4-5.2
		C1218.9,575.9,1217.2,573.4,1214.5,573.4z"/>
	<path fill="#6B6862" d="M1234.6,576.7L1234.6,576.7l-3.5,9.6h-1l-3.3-9.6h0l-1.3,9.4h-3l2.5-15.5h2.1l3.7,9.9l3.6-9.9h2.1l2.3,15.5
		h-3L1234.6,576.7z"/>
	<path fill="#6B6862" d="M1251.3,576.7L1251.3,576.7l-3.5,9.6h-1l-3.3-9.6h0l-1.3,9.4h-3l2.5-15.5h2.1l3.7,9.9l3.6-9.9h2.1l2.3,15.5
		h-3L1251.3,576.7z"/>
	<path fill="#6B6862" d="M1259.7,573.5v3.3h4.7v2.6h-4.7v4.1h4.9v2.6h-7.8v-15.1h7.8v2.6H1259.7z"/>
	<path fill="#6B6862" d="M1266.6,570.5h2.1l7.9,10.5h0v-10.1h2.9v15.4h-2.1l-7.9-10.5h0V586h-2.9V570.5z"/>
	<path fill="#6B6862" d="M1286.6,586h-2.9v-12.5h-3v-2.6h9v2.6h-3V586z"/>
	<path fill="#6B6862" d="M1299.5,573.5v3.3h4.3v2.6h-4.3v6.6h-2.9v-15.1h7.5v2.6H1299.5z"/>
	<path fill="#6B6862" d="M1307.7,582.8l-1.2,3.2h-3.1l5.9-15.5h2.3l5.7,15.5h-3.1l-1.2-3.2H1307.7z M1310.2,575L1310.2,575l-1.7,5.5
		h3.6L1310.2,575z"/>
	<path fill="#6B6862" d="M1321,586h-2.9v-15.1h2.9V586z"/>
	<path fill="#6B6862" d="M1333.4,586h-3.6l-3.7-6.1h0v6.1h-2.9v-15.1h4c3,0,5,1.3,5,4.5c0,1.9-1.1,3.8-3.1,4.2L1333.4,586z
		 M1326.1,577.9h0.4c1.6,0,2.8-0.5,2.8-2.3c0-1.9-1.2-2.2-2.7-2.2h-0.4V577.9z"/>
	<path fill="#6B6862" d="M1337.3,573.5v3.3h4.7v2.6h-4.7v4.1h4.9v2.6h-7.8v-15.1h7.8v2.6H1337.3z"/>
	<path fill="#6B6862" d="M1351.8,576.9c0.2,0.1,0.5,0.1,0.7,0.1c1.3,0,2.6-0.8,2.6-2.2c0-0.8-0.5-1.8-1.4-1.8
		c-0.9,0-1.3,0.8-1.3,1.6v0.2h-2.9c-0.1-2.4,1.8-4.3,4.2-4.3c2.5,0,4.3,1.8,4.3,4.3c0,2-1.3,3.7-3.2,4.1l-0.2,1.9h-2.8V576.9z
		 M1355,584.6c0,1-0.8,1.8-1.8,1.8c-1,0-1.8-0.8-1.8-1.8c0-1,0.8-1.8,1.8-1.8C1354.2,582.9,1355,583.6,1355,584.6z"/>
</g>
</svg>
