<svg id="plateformes" xmlns="http://www.w3.org/2000/svg" viewBox="0 0 1280 800"><defs><style>.cls-1,.cls-18,.cls-26,.cls-27{fill:#e88a5e;}.cls-2{fill:#bdd57d;}.cls-3{fill:#eaeaea;}.cls-4{fill:#afafaf;}.cls-12,.cls-5,.cls-6{fill:none;stroke:#fff;stroke-width:3px;}.cls-12,.cls-27,.cls-5{stroke-miterlimit:10;}.cls-12,.cls-6{stroke-linecap:round;}.cls-6{stroke-linejoin:round;}.cls-7{opacity:0.53;}.cls-10,.cls-8{fill:#80bb4e;}.cls-9{fill:#24a34b;}.cls-10,.cls-26{opacity:0.2;}.cls-11{fill:#72a746;}.cls-13{fill:#80bc4e;opacity:0.45;}.cls-14{fill:#a35c46;}.cls-15{fill:#c07152;}.cls-16,.cls-17{fill:#eed6a9;}.cls-17{opacity:0.75;}.cls-18{opacity:0.6;}.cls-19{fill:#85b2cc;}.cls-20{fill:#fff6e3;}.cls-21,.cls-24{fill:#bbdaef;}.cls-22,.cls-23{fill:#fff5e3;}.cls-23,.cls-24{opacity:0.3;}.cls-25{fill:#e5e5e5;opacity:0.5;}.cls-27{stroke:#e88a5e;}</style></defs><title>accueil</title><path class="cls-1" d="M432.85,554.63c0,40,87,72.37,194.24,72.37s194.24-32.4,194.24-72.37V541.07L435.25,533l-2.4,11.49v10.13Z"/><path class="cls-2" d="M681.32,471.6c-14.67-1.32-38.47-2.88-54.22-2.88-107.28,0-194.24,35.81-194.24,75.78,0,6.35,2.2,12.51,6.32,18.38l288.1-84.75A433.31,433.31,0,0,0,681.32,471.6Z"/><path class="cls-2" d="M803.73,514.35L507.28,601.47c33,9.65,74.6,15.4,119.81,15.4,91.35,0,168-23.5,188.71-55.16a31.2,31.2,0,0,0,5.53-17.22C821.34,533.74,815,523.53,803.73,514.35Z"/><path class="cls-3" d="M718.78,480.68l-279.61,82.2q1,1.38,2.08,2.73c11.73,14.35,35.11,26.81,66,35.86l296.45-87.12C786,500,756,488.13,718.78,480.68Z"/><polygon class="cls-4" points="438.11 561.09 441.2 565.23 728 482.52 728 478.06 438.11 561.09"/><circle class="cls-5" cx="646.19" cy="707.55" r="22.46"/><polyline class="cls-6" points="652.52 703.67 649.34 709.2 646.15 714.73 642.96 709.2 639.78 703.67"/><g class="cls-7"><path class="cls-8" d="M488.93,492.14c-0.73.28-1.45,0.58-2.15,0.91-5.24,2.49-9.39,4.72-14.78,6.85,1.69,0.66,5.15,1.67,7.16,2.46,16.86,6.67,28.94,14.27,40.63,17.4,0,0,14.54,1.94,22.41-6C542.21,513.73,552.43,502.78,488.93,492.14Z"/><path class="cls-8" d="M516.09,492.91c-4.72-1.26-11.78-4-17.31-4.78a124.6,124.6,0,0,0-12,4.93c-2.36,1.12-1.84,2.69-4.27,3.66,41.57,12.31,26.63,22,42.81,23.56,22.1,2.15,23.09-5.63,23.09-5.63C550.22,507.89,535.74,498.16,516.09,492.91Z"/></g><path class="cls-9" d="M534.82,485s-4.81-.08-8.77,11.63c-2.29,6.75-5.64,7.49-5.64,12a13.78,13.78,0,0,0,11.42,11.91s6.1-24.79,4.6-30.21S534.82,485,534.82,485Z"/><path class="cls-8" d="M547.93,506.95a13.81,13.81,0,0,1-26.26,6c-3.31-6.87,16-.05,12.44-26.08C533.09,479.3,547.93,496.48,547.93,506.95Z"/><path class="cls-10" d="M775,571.71c9.14,3.64,10.57,6.59,3.19,6.59s-20.77-3-29.91-6.59-10.57-6.59-3.19-6.59S765.86,568.07,775,571.71Z"/><circle class="cls-8" cx="776.12" cy="568.32" r="10.42"/><path class="cls-11" d="M776.12,578.71a10.51,10.51,0,0,1-10.42-10.38c0-6.09,5.57-9.27,5.58-9.28-1.41.8-2.35,3-2.67,4.5-1.09,5,2.81,8.94,5.4,12.66C774.44,576.81,775.25,578.72,776.12,578.71Z"/><path class="cls-10" d="M567,592.1c9.14,3.64,10.57,6.59,3.19,6.59s-20.77-3-29.91-6.59-10.57-6.59-3.19-6.59S557.9,588.45,567,592.1Z"/><circle class="cls-8" cx="568.16" cy="588.71" r="10.42"/><path class="cls-11" d="M568.16,599.1a10.51,10.51,0,0,1-10.42-10.38c0-6.09,5.57-9.27,5.58-9.28-1.41.8-2.35,3-2.67,4.5-1.09,5,2.81,8.94,5.4,12.66C566.48,597.2,567.29,599.1,568.16,599.1Z"/><path class="cls-10" d="M686.66,584.88c5,2,5.76,3.59,1.74,3.59s-11.32-1.61-16.31-3.59-5.76-3.59-1.74-3.59S681.68,582.89,686.66,584.88Z"/><circle class="cls-8" cx="687.28" cy="583.03" r="5.68"/><path class="cls-11" d="M687.28,588.7A5.73,5.73,0,0,1,681.6,583a6.31,6.31,0,0,1,3-5.06,4.05,4.05,0,0,0-1.46,2.45c-0.6,2.71,1.53,4.87,2.95,6.9C686.36,587.66,686.8,588.7,687.28,588.7Z"/><path class="cls-10" d="M642,483.25c7.09,2.82,8.2,5.11,2.48,5.11s-16.11-2.29-23.19-5.11-8.2-5.11-2.48-5.11S634.94,480.42,642,483.25Z"/><circle class="cls-8" cx="642.9" cy="480.62" r="8.08"/><path class="cls-11" d="M642.9,488.68a8.15,8.15,0,0,1-8.08-8.05c0-4.72,4.32-7.19,4.33-7.19a5.76,5.76,0,0,0-2.07,3.49c-0.85,3.86,2.18,6.93,4.19,9.82C641.6,487.2,642.23,488.68,642.9,488.68Z"/><g class="cls-7"><path class="cls-8" d="M723,546s-2.49-1.25,8.67,3.17c6.44,2.55,11,5.45,15.51,6.64,0,0,5.55.74,8.55-2.3,0,0,6.3-5-29.3-9.49C720.91,543.33,723,546,723,546Z"/><path class="cls-8" d="M745.73,545.57c7.5,2,13,5.72,12.34,8.3,0,0-.38,3-8.81,2.15-7.06-.69,1.39-5.41-24.52-11.05C717.21,543.32,735.44,542.82,745.73,545.57Z"/></g><path class="cls-9" d="M753.45,532.46s-3.15-.05-5.75,7.63c-1.5,4.43-3.7,4.91-3.7,7.89a9,9,0,0,0,7.49,7.81s4-16.26,3-19.81A27,27,0,0,0,753.45,532.46Z"/><path class="cls-8" d="M762,546.86a9.06,9.06,0,0,1-17.22,3.93c-2.17-4.51,10.48,0,8.16-17.1C752.31,528.73,762,540,762,546.86Z"/><path class="cls-10" d="M739.87,588.38C749,592,750.45,595,743.07,595s-20.77-3-29.91-6.59-10.57-6.59-3.19-6.59S730.73,584.74,739.87,588.38Z"/><circle class="cls-8" cx="741" cy="585" r="10.42"/><path class="cls-11" d="M741,595.38A10.51,10.51,0,0,1,730.58,585c0-6.09,5.57-9.27,5.58-9.28-1.41.8-2.35,3-2.67,4.5-1.09,5,2.81,8.94,5.4,12.66C739.32,593.48,740.13,595.39,741,595.38Z"/><path class="cls-10" d="M651.54,601.55c5,2,5.76,3.59,1.74,3.59S642,603.54,637,601.55s-5.76-3.59-1.74-3.59S646.55,599.57,651.54,601.55Z"/><circle class="cls-8" cx="652.15" cy="599.71" r="5.68"/><path class="cls-11" d="M652.15,605.37a5.73,5.73,0,0,1-5.68-5.66,6.31,6.31,0,0,1,3-5.06,4.05,4.05,0,0,0-1.46,2.45c-0.6,2.71,1.53,4.87,2.95,6.9C651.23,604.34,651.68,605.37,652.15,605.37Z"/><circle class="cls-8" cx="460" cy="535" r="8.08"/><path class="cls-11" d="M460,543.05a8.15,8.15,0,0,1-8.08-8.05c0-4.72,4.32-7.19,4.33-7.19a5.76,5.76,0,0,0-2.07,3.49c-0.85,3.86,2.18,6.93,4.19,9.82C458.69,541.58,459.32,543.06,460,543.05Z"/><g class="cls-7"><path class="cls-8" d="M687.85,562.68s-2.49-1.25,8.67,3.17c6.44,2.55,11,5.45,15.51,6.64,0,0,5.55.74,8.55-2.3,0,0,6.3-5-29.3-9.49C685.78,560,687.85,562.68,687.85,562.68Z"/><path class="cls-8" d="M710.61,562.24c7.5,2,13,5.72,12.34,8.3,0,0-.38,3-8.81,2.15-7.06-.69,1.39-5.41-24.52-11.05C682.09,560,700.31,559.49,710.61,562.24Z"/></g><path class="cls-9" d="M718.32,549.14s-3.15-.05-5.75,7.63c-1.5,4.43-3.7,4.91-3.7,7.89a9,9,0,0,0,7.49,7.81s4-16.26,3-19.81A27,27,0,0,0,718.32,549.14Z"/><path class="cls-8" d="M726.92,563.53a9.06,9.06,0,0,1-17.22,3.93c-2.17-4.51,10.48,0,8.16-17.1C717.18,545.4,726.92,556.67,726.92,563.53Z"/><line class="cls-12" x1="471.4" y1="583.16" x2="487.36" y2="578.23"/><line class="cls-12" x1="504.37" y1="572.6" x2="520.33" y2="567.67"/><line class="cls-12" x1="535.7" y1="563.27" x2="551.67" y2="558.33"/><line class="cls-12" x1="567.04" y1="553.94" x2="583" y2="549"/><line class="cls-12" x1="598.37" y1="544.6" x2="614.33" y2="539.67"/><line class="cls-12" x1="629.7" y1="535.27" x2="645.67" y2="530.33"/><line class="cls-12" x1="661.04" y1="525.94" x2="677" y2="521"/><line class="cls-12" x1="692.37" y1="516.6" x2="708.33" y2="511.67"/><line class="cls-12" x1="723.7" y1="507.27" x2="739.67" y2="502.33"/><line class="cls-12" x1="755.04" y1="497.94" x2="771" y2="493"/><path class="cls-12" d="M786.37,488.6l8.65-2.67"/><path class="cls-13" d="M674.67,532.22l-0.11-.09,1.08,0.11,0.63,0.53,0.16,0.15,7.6-2.29-21.76-19.05-35.59-6.89h0l-7-3.34h0l-0.33-.22-0.33.1L564.33,485l-42.74,10.74-2,16.36-0.19,0h0L488.25,520l40.88,15,0,4.88,60.25,18.58L567.19,539h0l22.24,19.47,12-3.46h0l10.46,1.91c0.91,0.23-1.06-1-.34-1,3.46,0,5.84-1.4,1.89-4.95l1.33,0.12,0,0,31.56-9.32h0.3l-0.08-.07,17.72-5.24,9.77,1.76,0.47,0.08"/><path class="cls-14" d="M622.47,541.79l-5.35,10.66a38.71,38.71,0,0,1-19.54-8.4,76.52,76.52,0,0,1,3.15-10Z"/><path class="cls-15" d="M610.17,557.91l-6-1.79a20.19,20.19,0,0,1,2.56-10.79,39.91,39.91,0,0,1,5.43.72Z"/><path class="cls-14" d="M682.1,524.34L676.76,535a38.71,38.71,0,0,1-19.54-8.4,76.52,76.52,0,0,1,3.15-10Z"/><path class="cls-15" d="M670.71,540.69l-6.86-2a18.25,18.25,0,0,1,2.47-10.29,39.91,39.91,0,0,1,5.43.72Z"/><ellipse class="cls-16" cx="611.64" cy="552.11" rx="6.13" ry="4.55" transform="translate(55.8 1160.37) rotate(-89.65)"/><ellipse class="cls-16" cx="671.2" cy="534.89" rx="5.81" ry="4.31" transform="translate(132.22 1202.81) rotate(-89.65)"/><polygon class="cls-17" points="683.65 515.72 663.82 509.32 645.23 515.48 664.42 518.05 671.19 519.4 683.65 515.72"/><polygon class="cls-16" points="592.75 559.33 555.38 548.05 555.49 529.86 592.86 541.23 592.75 559.33"/><polygon class="cls-18" points="586.01 554.01 562.15 546.8 562.23 535.19 586.08 542.45 586.01 554.01"/><polygon class="cls-16" points="611.74 536.16 574.05 524.74 555.49 529.86 592.86 541.23 611.74 536.16"/><polygon class="cls-19" points="618.82 518.3 589.15 509.36 574.05 524.74 611.74 536.16 618.82 518.3"/><polygon class="cls-20" points="661.54 506.21 631.53 497.17 589.15 509.36 618.82 518.3 661.54 506.21"/><polygon class="cls-21" points="671.19 519.4 661.54 506.21 640.09 512.28 647.47 526.09 671.19 519.4"/><polygon class="cls-22" points="612.07 535.28 611.74 536.16 618.82 518.3 612.07 535.28"/><path class="cls-20" d="M683.65,515.72l-12.46,3.68L671.14,528c2.83,0,5.1,3.36,5.07,7.46,0,0,0,.09,0,0.14l7.34-2.13Z"/><polygon class="cls-22" points="647.36 543.81 647.36 543.81 617.04 552.48 647.36 543.81"/><polygon class="cls-21" points="640.09 512.28 618.82 518.3 611.74 536.16 647.47 526.09 640.09 512.28"/><path class="cls-20" d="M671.14,528l0.05-8.57-23.73,6.69h0l-0.11,17.73,19-5.44a10.3,10.3,0,0,1-.42-3C666,531.26,668.31,528,671.14,528Z"/><path class="cls-20" d="M647.47,526.09l-35.72,10.07-0.05,8.67c3,0,5.39,3.3,5.36,7.32,0,0.11,0,.22,0,0.34l30.32-8.67,0.11-17.73h0Z"/><path class="cls-20" d="M611.69,544.83l0.05-8.67-18.89,5.07-0.11,18.1,14.06-3.95a9.34,9.34,0,0,1-.57-3.3C606.26,548.06,608.7,544.81,611.69,544.83Z"/><ellipse class="cls-14" cx="611.64" cy="552.11" rx="2.76" ry="2.05" transform="translate(55.8 1160.37) rotate(-89.65)"/><ellipse class="cls-14" cx="671.2" cy="535.02" rx="2.76" ry="2.05" transform="translate(132.08 1202.94) rotate(-89.65)"/><path class="cls-23" d="M579.79,546.28h0l-12.33-3.56a0.06,0.06,0,1,1,0-.12l12.33,3.56A0.06,0.06,0,0,1,579.79,546.28Z"/><path class="cls-23" d="M579.78,548.28h0l-12.33-3.56a0.06,0.06,0,1,1,0-.12l12.33,3.56A0.06,0.06,0,0,1,579.78,548.28Z"/><path class="cls-23" d="M579.77,550.29h0l-12.33-3.56a0.06,0.06,0,1,1,0-.12l12.33,3.56A0.06,0.06,0,0,1,579.77,550.29Z"/><path class="cls-23" d="M579.81,544.19h0l-12.33-3.56a0.06,0.06,0,1,1,0-.12l12.33,3.56A0.06,0.06,0,0,1,579.81,544.19Z"/><path class="cls-23" d="M579.82,542.11h0l-12.33-3.56a0.06,0.06,0,0,1,0-.12L579.84,542A0.06,0.06,0,0,1,579.82,542.11Z"/><path class="cls-1" d="M642.34,530.89a0.25,0.25,0,0,1-.06-0.5l3.44-.9a0.25,0.25,0,1,1,.13.49l-3.44.9h-0.07Z"/><path class="cls-1" d="M665.85,523.84a0.25,0.25,0,0,1-.06-0.5l3.44-.9a0.25,0.25,0,1,1,.13.49l-3.44.9h-0.07Z"/><polygon class="cls-20" points="592.86 541.23 574.24 524.8 611.74 536.16 592.86 541.23"/><polygon class="cls-24" points="618.82 519.08 574.24 524.8 611.74 536.16 618.82 519.08"/><rect class="cls-1" x="592.69" y="510.76" width="0.42" height="39.38" transform="translate(-86.69 944.05) rotate(-73.14)"/><path class="cls-16" d="M611.74,536.37h-0.06L574,524.94l0.12-.4,37.5,11.36,7-17.68,0.39,0.16-7.08,17.86A0.21,0.21,0,0,1,611.74,536.37Z"/><path class="cls-16" d="M647.46,526.3a0.21,0.21,0,0,1-.18-0.11l-7.38-13.8a0.21,0.21,0,0,1,.13-0.3L661.49,506l0.11,0.41-21.2,6,7.17,13.42,23.56-6.64,0.11,0.41-23.73,6.69h-0.06Z"/><polygon class="cls-1" points="618.82 518.3 612.07 535.28 611.74 536.16 618.82 518.3 618.82 518.3"/><rect class="cls-1" x="666.88" y="523.47" width="8.57" height="0.42" transform="translate(143.38 1191.63) rotate(-89.65)"/><path class="cls-16" d="M639.88,512.78l7,13-34.4,9.7,6.69-16.88,20.74-5.87m0.21-.5-21.27,6-7.08,17.86,35.72-10.07-7.38-13.8h0Z"/><path class="cls-16" d="M647.57,543.81h-0.42l0.11-17.73a0.21,0.21,0,0,1,.15-0.2l23.73-6.69a0.21,0.21,0,0,1,.27.2L671.35,528h-0.42l0.05-8.29-23.3,6.57Z"/><path class="cls-16" d="M611.9,544.83h-0.42l0.05-8.66a0.21,0.21,0,0,1,.15-0.2l35.72-10.07a0.21,0.21,0,0,1,.27.2l-0.11,17.73h-0.42l0.11-17.45-35.3,10Z"/><rect class="cls-16" x="607.38" y="540.28" width="8.67" height="0.42" transform="translate(67.49 1148.89) rotate(-89.65)"/><path class="cls-25" d="M636.37,448.71a14.67,14.67,0,0,0-3.49,1.65c-1.57-8.23-9.19-12.44-18.36-9.54-10.3,3.26-18.66,14.25-18.66,24.55a17,17,0,0,0,.38,3.65,7.19,7.19,0,0,0-1.89.14,11.35,11.35,0,0,0-7.43,8.32l11.66-3.68,3.21-1,23.55-7.44,5.12-1.62,16.93-5.35a11.24,11.24,0,0,0,.24-2.17C647.63,450,642.59,446.74,636.37,448.71Z"/><path class="cls-25" d="M808.46,522.7a15.67,15.67,0,0,0-3.72,1.77c-1.67-8.78-9.81-13.28-19.6-10.19-11,3.48-19.92,15.21-19.92,26.22a18.17,18.17,0,0,0,.41,3.9,7.68,7.68,0,0,0-2,.15,12.12,12.12,0,0,0-7.94,8.88l12.45-3.93,3.43-1.08,25.15-7.94,5.47-1.73L820.24,533a12,12,0,0,0,.25-2.32C820.49,524.07,815.11,520.6,808.46,522.7Z"/><path class="cls-25" d="M562.71,392.07a20.38,20.38,0,0,0-4.84,2.3c-2.17-11.42-12.76-17.27-25.49-13.25-14.31,4.52-25.91,19.79-25.91,34.1a23.63,23.63,0,0,0,.53,5.07,10,10,0,0,0-2.62.2A15.76,15.76,0,0,0,494,432l16.19-5.11,4.46-1.41,32.7-10.33,7.11-2.25L578,405.51a15.61,15.61,0,0,0,.33-3C578.36,393.85,571.35,389.34,562.71,392.07Z"/><path class="cls-25" d="M773.45,407.13a11.75,11.75,0,0,0-2.79,1.32c-1.25-6.58-7.35-10-14.7-7.64-8.25,2.61-14.94,11.41-14.94,19.65a13.62,13.62,0,0,0,.31,2.92,5.76,5.76,0,0,0-1.51.11,9.08,9.08,0,0,0-6,6.66l9.33-2.95,2.57-.81,18.85-6,4.1-1.3,13.55-4.28a9,9,0,0,0,.19-1.74C782.46,408.15,778.43,405.56,773.45,407.13Z"/><path class="cls-25" d="M816.3,449.94a20.38,20.38,0,0,0-4.84,2.3C809.28,440.82,798.7,435,786,439c-14.31,4.52-25.91,19.79-25.91,34.1a23.63,23.63,0,0,0,.53,5.07,10,10,0,0,0-2.62.2,15.76,15.76,0,0,0-10.32,11.55l16.19-5.11,4.46-1.41L801,473.05l7.11-2.25,23.51-7.43a15.61,15.61,0,0,0,.33-3C831.94,451.72,824.94,447.21,816.3,449.94Z"/><path class="cls-25" d="M458.58,460.52a11.75,11.75,0,0,0-2.79,1.32c-1.25-6.58-7.35-10-14.7-7.64-8.25,2.61-14.94,11.41-14.94,19.65a13.62,13.62,0,0,0,.31,2.92,5.76,5.76,0,0,0-1.51.11,9.08,9.08,0,0,0-6,6.66l9.33-2.95,2.57-.81,18.85-6,4.1-1.3,13.55-4.28a9,9,0,0,0,.19-1.74C467.59,461.54,463.56,458.94,458.58,460.52Z"/><g id="medium_ombres" data-name="medium ombres"><path class="cls-1" d="M628.49,207.49c-20.54-6.32-35.78-25.14-35.78-46,0-21.09,15.24-29.69,35.78-23.36s35.87,24.33,35.87,45.42C664.36,204.41,649.12,213.85,628.49,207.49Zm0-55c-11.15-3.43-18.77,2.77-18.77,14.29,0,11.89,7.71,22.82,18.77,26.22s18.86-2.74,18.86-14.63C647.35,166.84,639.64,155.92,628.49,152.49Z"/><path class="cls-26" d="M893.72,284.58L879.5,254.1l-5.39-1.66v26.11l-15.61-4.81V208l25.09,7.73c12.64,3.89,25.18,12.59,25.18,27.64,0,8.83-5.2,13.54-13.66,13.54l17.19,33.45Zm-11.24-56.43-8.46-2.6v15.33l7.53,2.32c5.11,1.57,11.52,2.25,11.52-4.44C893.07,232.63,887.21,229.62,882.47,228.16Z"/><path class="cls-1" d="M449.72,212.7A23.64,23.64,0,0,0,438,203.42c-4.09-1.26-9.2-1.44-9.2,3.76,0,4.37,3.9,7,10.13,10.83,8.92,5.63,20.44,13,20.44,26.09,0,15.15-12.17,18.18-25.18,14.17-9.39-2.89-18.86-9.25-24.62-17.06L420,233.83c3.16,5,9,9.74,14.22,11.35,4.83,1.49,9.11.95,9.11-4.35,0-5-5-8.14-13.66-13.59-8.36-5.27-16.82-12.15-16.82-24,0-14.59,13.2-16.56,25.46-12.79a47.29,47.29,0,0,1,21.56,14.72Z"/><path class="cls-1" d="M631.34,256.22c20.63,6.35,35.87,24.33,35.87,45.42,0,20.81-15.24,30.24-35.87,23.89s-35.77-25.14-35.77-46m35.77-9.05c-11.15-3.43-18.77,2.77-18.77,14.29,0,11.89,7.71,22.82,18.77,26.22s18.86-2.74,18.86-14.63C650.21,284.89,642.49,274,631.34,270.53Z"/><path class="cls-1" d="M641.81,323.57c-20.54-6.32-35.78-25.14-35.78-46,0-21.09,15.24-29.69,35.78-23.36s35.87,24.33,35.87,45.42C677.68,320.49,662.44,329.92,641.81,323.57Zm0-55c-11.15-3.43-18.77,2.77-18.77,14.29,0,11.89,7.71,22.82,18.77,26.22s18.86-2.74,18.86-14.63C660.67,282.92,653,272,641.81,268.56Z"/><polygon class="cls-1" points="409.4 107.78 416.34 105.74 439.8 113.04 432.53 114.94 409.4 107.78"/><polygon class="cls-1" points="465.59 125.05 472.82 123.14 480.45 125.55 473.72 127.49 465.59 125.05"/><polygon class="cls-1" points="442.46 118 449.69 116.09 458.83 118.89 451.89 120.79 442.46 118"/><polygon class="cls-1" points="417.47 123.64 417.44 119.6 438.86 126.26 431.65 128.04 417.47 123.64"/><polygon class="cls-1" points="417.5 137.38 417.59 133.25 439.71 140.43 433.41 142.36 417.5 137.38"/><polyline class="cls-1" points="458.73 118.89 451.89 120.79 458.66 133.85"/><polygon class="cls-1" points="508.34 108.58 521.02 104.63 538.57 109.92 525.96 114 508.34 108.58"/><polygon class="cls-1" points="556.86 123.5 570.08 119.59 587.1 124.87 574.3 128.94 556.86 123.5"/><polygon class="cls-1" points="671.67 158.92 685.1 155.06 700.96 159.92 687.69 163.88 671.67 158.92"/><polygon class="cls-1" points="701.91 168.17 715.12 164.25 768.3 180.53 755.08 184.45 701.91 168.17"/><polygon class="cls-1" points="768.51 188.78 781.67 184.76 797.16 189.52 784.32 193.59 768.51 188.78"/><polygon class="cls-1" points="809.05 201.15 822.22 197.24 838.45 202.31 824.97 206.22 809.05 201.15"/><polygon class="cls-1" points="913.31 233.32 926.91 229.45 970.61 242.84 957.5 247 913.31 233.32"/><polygon class="cls-1" points="928.46 290.27 943.26 285.97 974.13 295.49 958.88 299.68 928.46 290.27"/><polygon class="cls-1" points="955.9 272.25 971.03 268 943.48 259.67 928.78 263.79 955.9 272.25"/><polygon class="cls-1" points="466.47 207.18 479.65 203.23 495.16 208.02 482.33 212.11 466.47 207.18"/><polygon class="cls-1" points="502.91 218.59 516.16 214.51 539.07 221.55 525.67 225.57 502.91 218.59"/><polygon class="cls-1" points="555.06 234.5 568.6 230.59 591.11 237.52 578.06 241.53 555.06 234.5"/><polygon class="cls-1" points="684.75 274.41 698.07 270.4 716.04 275.96 702.93 280.05 684.75 274.41"/><polygon class="cls-1" points="729.08 288.09 742.54 284.07 757.9 288.79 744.51 292.88 729.08 288.09"/><polygon class="cls-1" points="765.02 299.26 778.77 295.24 822.85 308.88 809.11 312.79 765.02 299.26"/><polygon class="cls-1" points="780.25 329.7 793.99 325.69 820.95 334.09 807.57 338.06 780.25 329.7"/><polygon class="cls-1" points="780.03 356.08 793.57 352.01 825.65 361.38 811.04 365.54 780.03 356.08"/><polygon class="cls-1" points="844.6 212.18 858.13 208.23 887.59 217.4 874.2 221.34 844.6 212.18"/><path class="cls-1" d="M898.49,294.54l13.81-4.23-17.19-33.45s15.32,1.8,13.41-17.33c0,0-1.8-15.29-20.93-22.13l-13.39,3.95s16.14,5.39,19.73,19.35c0,0,6.55,19.87-12.64,20.4Z"/><path class="cls-1" d="M874,240.89l-13.81,4.23s20.27,8.72,18.93-2.63Z"/></g><g id="ombres"><polygon class="cls-27" points="432.54 114.94 432.51 121.84 439.84 119.73 439.8 113.04 432.54 114.94"/><polygon class="cls-27" points="431.5 128.04 431.5 134.67 439.5 132.8 439.5 126.28 431.5 128.04"/><polygon class="cls-27" points="416.5 117.03 416.5 123.65 424.5 121.79 424.5 119.41 416.5 117.03"/><polygon class="cls-27" points="433.41 142.36 433.38 149.31 439.71 147.46 439.73 140.43 433.41 142.36"/><polygon class="cls-27" points="417.43 130.3 417.46 137.4 424.6 135.55 424.62 132.5 417.43 130.3"/><polygon class="cls-27" points="473.64 127.53 473.65 161.74 480.36 159.76 480.44 125.56 473.64 127.53"/><polygon class="cls-27" points="451.47 154.64 460.5 152.27 460.5 148.09 451.66 132.06 451.47 154.64"/><polygon class="cls-27" points="451.85 120.79 465.74 147.46 465.64 131.93 458.67 118.89 451.85 120.79"/><polygon class="cls-27" points="549.14 144.66 538.57 109.92 525.96 114 541.39 165.31 541.57 165.45 549.14 144.66"/><polygon class="cls-27" points="549.04 186.93 561.99 183.13 587.1 124.87 574.3 128.94 549.04 186.93"/><polyline class="cls-27" points="687.69 229.69 701.22 225.89 700.96 159.92 687.69 163.88"/><polyline class="cls-27" points="736.32 244.5 749.85 240.69 750.01 196.66 736.37 192.53"/><polyline class="cls-27" points="754.93 198.09 768.4 193.75 768.3 180.53 755.08 184.45"/><polygon class="cls-27" points="956.52 260.42 968.5 256.65 968.5 242.91 955.81 247 956.52 260.42"/><polygon class="cls-27" points="955.9 272.25 971.03 268 970.96 280.69 955.85 284.93 955.9 272.25"/><polygon class="cls-27" points="928.67 251.65 943.34 256.02 943.48 259.67 928.78 263.79 928.67 251.65"/><polygon class="cls-27" points="926.5 276.6 944.5 281.07 944.5 285.97 926.5 290.27 926.5 276.6"/><polygon class="cls-27" points="958.56 299.68 973.5 295.49 973.5 308.81 958.59 313.21 958.56 299.68"/><polygon class="cls-27" points="495.16 208.02 495.23 273.92 482.4 277.8 482.33 212.11 495.16 208.02"/><polyline class="cls-27" points="548.72 251.44 539.07 221.55 525.67 225.57 540.54 272.16 540.83 272.25"/><polygon class="cls-27" points="517.85 288.86 531.31 284.7 525.67 266.52 517.57 242.28 517.85 288.86"/><polyline class="cls-27" points="578.18 307.33 591.15 303.66 591.11 237.52 578.06 241.53"/><polyline class="cls-27" points="744.62 358.57 757.83 354.65 757.9 288.79 744.51 292.88"/><polygon class="cls-27" points="702.93 280.05 729.29 330.97 729.18 300.95 716.04 275.96 702.93 280.05"/><polygon class="cls-27" points="809.5 312.78 823.5 308.88 823.5 322.09 809.5 326.26 809.5 312.78"/><polygon class="cls-27" points="794.5 325.79 794.5 321.56 780.25 317.22 780.22 329.71 794.5 325.79"/><polygon class="cls-27" points="807.57 338.06 820.7 334.11 820.77 347.08 807.66 350.88 807.57 338.06"/><polygon class="cls-27" points="810.01 365.54 824.5 361.46 824.5 375.34 810.09 379.08 810.01 365.54"/><polygon class="cls-27" points="793.51 344.65 793.34 352.01 779.5 356.08 779.5 342.29 793.51 344.65"/><polygon class="cls-27" points="700.11 344.82 718.93 339.11 699.69 301.9 700.11 344.82"/><polygon class="cls-27" points="860.25 282.8 874.76 278.43 865.46 258.56 860.39 256.72 860.25 282.8"/><path class="cls-27" d="M797.16,189.52l0.09,46.94s-1,8.67,5.92,14.64c0,0-6.71,1.59-13.64-4.55a18.84,18.84,0,0,1-5.07-11l-0.15-42Z"/><path class="cls-27" d="M873.17,240.84l-0.46-6.13s0.79-1.35-14.21-4.93V245Z"/><path class="cls-27" d="M838.5,202.31v41.86s-1.63,21-27.22,21.56c0,0,13.58-7.74,13.58-19.44L825,206.22Z"/><path class="cls-27" d="M409.55,237.07L423.2,233l5.29,3.88s8.32,7,1.69,11.84C430.18,248.69,422.18,252.52,409.55,237.07Z"/><polygon class="cls-27" points="439.28 215.94 449.71 212.7 459.84 205.13 449.41 208.37 439.28 215.94"/></g><g id="face"><path class="cls-16" d="M409.45,142V107.74l23,7.09v7l-15.05-4.64v6.44L431.66,128v6.63l-14.23-4.38v7.11l15.92,4.9v7.07Z"/><path class="cls-16" d="M464.24,158.88l-13.79-26.66-0.14,0,0.19,22.47-8-2.47V117.9l9.44,2.91,13.75,26.59,0.15,0L465.59,125l8,2.47v34.27Z"/><path class="cls-16" d="M549,186.92L533.13,182l-24.9-73.45,17.84,5.49,15.24,51.34,0.37,0.11,15.15-42,17.56,5.41Z"/><path class="cls-16" d="M671.67,224.69V158.9l16,4.92v65.79Z"/><path class="cls-16" d="M736.34,192.39V244.6l-15.89-4.89V187.49l-18.58-5.72V168.2l53.06,16.34v13.57Z"/><path class="cls-16" d="M796.56,264.91c-17.28-5.32-28.06-19.42-28.06-35.22v-41l15.8,4.86v39.68c0,7.06,3.44,14.62,12.36,17.37s12.36-2.7,12.36-9.76V201.2l15.89,4.89v41C824.9,262.86,813.75,270.21,796.56,264.91Z"/><path class="cls-16" d="M879.9,288.81l-14.22-30.49-5.39-1.66v26.11L844.69,278V212.18l25.09,7.73C882.41,223.8,895,232.5,895,247.55c0,8.83-5.2,13.54-13.66,13.54l17.19,33.45Zm-11.24-56.43-8.46-2.6v15.33l7.53,2.32c5.11,1.57,11.52,2.25,11.52-4.44C879.25,236.86,873.4,233.85,868.66,232.39Z"/><path class="cls-16" d="M913.26,299.09V233.3l44.23,13.62v13.47l-28.9-8.9v12.36l27.32,8.41V285l-27.32-8.41v13.66l30.57,9.41v13.57Z"/><path class="cls-16" d="M562.59,302.6L563,256.16l-0.28-.09-17.1,41.29-11.15-3.43L517.8,242.25l-0.28-.09,0.37,46.67-15-4.61V218.44l22.58,7,15,46.79,0.37,0.11,14.31-37.78,23,7.07v65.79Z"/><path class="cls-16" d="M726.49,353.07L700,301.9l-0.28-.09,0.37,43.14-15.43-4.75V274.41L702.8,280,729.19,331l0.28,0.09-0.37-43,15.43,4.75v65.79Z"/><path class="cls-16" d="M765.05,364.95V299.16l44.23,13.62v13.47l-28.9-8.9v12.36l27.32,8.41v12.73l-27.32-8.41V356.1L811,365.52v13.57Z"/><path class="cls-16" d="M466.41,273V207.2l16,4.92V277.9Z"/><path class="cls-16" d="M439.28,215.94a23.64,23.64,0,0,0-11.71-9.27c-4.09-1.26-9.2-1.44-9.2,3.76,0,4.37,3.9,7,10.13,10.83,8.92,5.63,20.44,13,20.44,26.09,0,15.15-12.17,18.18-25.18,14.17-9.39-2.89-18.86-9.25-24.62-17.06l10.41-7.39c3.16,5,9,9.74,14.22,11.35,4.83,1.49,9.11.95,9.11-4.35,0-5-5-8.14-13.66-13.59-8.36-5.27-16.82-12.15-16.82-24,0-14.59,13.2-16.56,25.46-12.79a47.29,47.29,0,0,1,21.56,14.72Z"/><path class="cls-16" d="M618.34,210c-20.54-6.32-35.78-25.14-35.78-46,0-21.09,15.24-29.69,35.78-23.36s35.87,24.33,35.87,45.42C654.21,207,639,216.38,618.34,210Zm0-55c-11.15-3.43-18.77,2.77-18.77,14.29,0,11.89,7.71,22.82,18.77,26.22s18.86-2.74,18.86-14.63C637.2,169.38,629.49,158.46,618.34,155Z"/><path class="cls-16" d="M631.66,326.1c-20.54-6.32-35.78-25.14-35.78-46,0-21.09,15.24-29.69,35.78-23.36s35.87,24.33,35.87,45.42C667.53,323,652.29,332.46,631.66,326.1Zm0-55c-11.15-3.43-18.77,2.77-18.77,14.29,0,11.89,7.71,22.82,18.77,26.22s18.86-2.74,18.86-14.63C650.52,285.45,642.81,274.53,631.66,271.1Z"/><polygon class="cls-1" points="545.76 297.25 562.25 292.6 562.68 256.44 545.76 297.25"/></g></svg>