<?xml version="1.0" encoding="utf-8"?>
<!-- Generator: Adobe Illustrator 17.0.0, SVG Export Plug-In . SVG Version: 6.00 Build 0)  -->
<!DOCTYPE svg PUBLIC "-//W3C//DTD SVG 1.1//EN" "http://www.w3.org/Graphics/SVG/1.1/DTD/svg11.dtd">
<svg version="1.1" id="Calque_1" xmlns="http://www.w3.org/2000/svg" xmlns:xlink="http://www.w3.org/1999/xlink" x="0px" y="0px"
	 width="1280px" height="800px" viewBox="0 0 1280 800" enable-background="new 0 0 1280 800" xml:space="preserve">
<rect x="-14" y="-18" fill="#D3E6FF" width="1300" height="823"/>
<ellipse fill="#E8A484" cx="626.68" cy="544.186" rx="228.793" ry="85.247"/>
<g>
	<path fill="#BDD57D" d="M680.547,449.388c-17.275-1.553-35.312-2.377-53.867-2.377c-126.359,0-228.793,38.167-228.793,85.247
		c0,7.481,2.59,14.737,7.448,21.651l329.341-96.82C717.789,453.713,699.635,451.104,680.547,449.388z"/>
	<path fill="#BDD57D" d="M834.737,496.749L485.56,599.362c38.875,11.366,87.873,18.143,141.12,18.143
		c107.602,0,197.855-27.677,222.278-64.966c4.257-6.5,6.514-13.292,6.514-20.281C855.472,519.585,848.049,507.559,834.737,496.749z"
		/>
	<path fill="#EAEAEA" d="M734.675,457.088l-329.341,96.82c12.831,18.261,41.505,34.133,80.225,45.453l349.177-102.612
		C813.88,479.811,778.564,465.86,734.675,457.088z"/>
</g>
<polygon fill="#EED6A9" points="689.638,492.541 665.055,484.774 642.11,492.541 665.874,495.571 674.253,497.185 "/>
<polygon fill="#EED6A9" points="577.537,547.171 531.241,533.501 531.241,511.003 577.537,524.779 "/>
<polygon fill="#EED6A9" points="600.855,518.37 554.161,504.532 531.241,511.003 577.537,524.779 "/>
<polygon fill="#85B2CC" points="609.478,496.223 572.71,485.391 554.161,504.532 600.855,518.37 "/>
<path fill="none" d="M572.71,485.391"/>
<polygon fill="#FFF5E3" points="662.224,480.954 625.031,469.991 572.71,485.391 609.478,496.223 "/>
<g>
	<polygon fill="#BBDAEF" points="674.253,497.185 662.224,480.954 635.734,488.622 644.961,505.639 	"/>
	<polygon fill="#FFF5E3" points="601.251,517.272 600.855,518.37 609.478,496.223 	"/>
	<path fill="#FFF5E3" d="M689.638,492.541l-15.385,4.644v10.602c3.496,0,6.33,4.112,6.33,9.185c0,0.058-0.005,0.113-0.006,0.171
		l9.061-2.691V492.541z"/>
	<polygon fill="#FFF5E3" points="644.961,527.563 644.961,527.563 607.53,538.516 	"/>
	<polygon fill="#BBDAEF" points="635.734,488.622 609.478,496.223 600.855,518.37 644.961,505.639 	"/>
	<path fill="#FFF5E3" d="M674.253,507.787v-10.602l-29.292,8.455v0v21.924l23.506-6.878c-0.347-1.136-0.544-2.391-0.544-3.714
		C667.923,511.899,670.757,507.787,674.253,507.787z"/>
	<path fill="#FFF5E3" d="M644.961,505.639l-44.106,12.73v10.717c3.695,0,6.69,4.035,6.69,9.013c0,0.141-0.011,0.277-0.016,0.416
		l37.432-10.953V505.639L644.961,505.639z"/>
</g>
<g>
	<path fill="#FFF5E3" d="M600.855,529.087V518.37l-23.318,6.41v22.391l17.359-4.989c-0.464-1.227-0.731-2.611-0.731-4.082
		C594.165,533.122,597.16,529.087,600.855,529.087z"/>
</g>
<ellipse fill="#EED6A9" cx="600.855" cy="538.099" rx="5.336" ry="7.188"/>
<ellipse fill="#EED6A9" cx="674.385" cy="516.346" rx="5.336" ry="7.188"/>
<polygon opacity="0.3" fill="#FFF5E3" points="577.537,524.779 554.389,504.599 600.855,518.37 "/>
<polygon opacity="0.3" fill="#BBDAEF" points="609.478,497.185 554.389,504.599 600.855,518.37 "/>
<path fill="none" stroke="#E88A5E" stroke-width="0.5" stroke-linejoin="round" stroke-miterlimit="10" d="M674.253,497.185"/>
<path fill="none" stroke="#E88A5E" stroke-width="0.5" stroke-linejoin="round" stroke-miterlimit="10" d="M577.537,524.779"/>
<line fill="none" stroke="#E88A5E" stroke-width="0.5" stroke-linejoin="round" stroke-miterlimit="10" x1="600.855" y1="518.37" x2="554.161" y2="504.532"/>
<polyline fill="none" stroke="#E88A5E" stroke-width="0.5" stroke-linejoin="round" stroke-miterlimit="10" points="
	554.161,504.532 600.855,518.37 609.478,496.223 "/>
<g>
	<polyline fill="none" stroke="#E88A5E" stroke-width="0.5" stroke-linejoin="round" stroke-miterlimit="10" points="
		662.224,480.954 635.734,488.622 644.961,505.639 674.253,497.185 	"/>
	<g>
		<polygon fill="#E88A5E" points="609.478,496.223 601.251,517.272 600.855,518.37 609.478,496.223 		"/>
	</g>
	
		<line fill="none" stroke="#E88A5E" stroke-width="0.5" stroke-linejoin="round" stroke-miterlimit="10" x1="674.253" y1="497.185" x2="674.253" y2="507.787"/>
	<g>
		<path fill="#E88A5E" d="M635.486,489.215l8.739,16.117l-42.538,12.278l8.167-20.975L635.486,489.215 M635.734,488.622l-26.256,7.6
			l-8.623,22.147l44.106-12.73L635.734,488.622L635.734,488.622z"/>
	</g>
	<polyline fill="none" stroke="#E88A5E" stroke-width="0.5" stroke-linejoin="round" stroke-miterlimit="10" points="
		674.253,507.787 674.253,497.185 644.961,505.639 644.961,505.639 644.961,527.563 	"/>
	<polyline fill="none" stroke="#E88A5E" stroke-width="0.5" stroke-linejoin="round" stroke-miterlimit="10" points="
		644.961,527.563 644.961,505.639 644.961,505.639 600.855,518.37 600.855,529.087 	"/>
</g>
<g>
	
		<line fill="none" stroke="#E88A5E" stroke-width="0.5" stroke-linejoin="round" stroke-miterlimit="10" x1="600.855" y1="529.087" x2="600.855" y2="518.37"/>
</g>
<g>
	<path fill="#FFFFFF" d="M349.882,141.511V77.398l43.106,13.274v13.13l-28.164-8.673v12.044l26.624,8.199v12.406l-26.624-8.199
		v13.311l29.794,9.175v13.221L349.882,141.511z"/>
	<path fill="#FFFFFF" d="M452.392,173.078l-25.809-49.874l-0.271-0.084l0.362,42.038l-15.033-4.629V96.417l17.658,5.438
		l25.719,49.756l0.272,0.084l-0.363-41.948l15.033,4.629v64.112L452.392,173.078z"/>
	<path fill="#FFFFFF" d="M549.558,203l-15.485-4.769l-24.27-71.586L527.191,132l14.852,50.032l0.362,0.111l14.761-40.913
		l17.116,5.271L549.558,203z"/>
	<linearGradient id="SVGID_1_" gradientUnits="userSpaceOnUse" x1="598.0685" y1="160.1755" x2="655.926" y2="218.0331">
		<stop  offset="0" style="stop-color:#A6CFEA"/>
		<stop  offset="1" style="stop-color:#467FC0"/>
	</linearGradient>
	<path fill="url(#SVGID_1_)" d="M627.004,223.052c-20.014-6.163-34.865-24.501-34.865-44.785c0-20.556,14.852-28.932,34.865-22.768
		c20.104,6.191,34.956,23.714,34.956,44.269C661.96,220.052,647.108,229.242,627.004,223.052z M627.004,169.443
		c-10.867-3.346-18.293,2.698-18.293,13.926c0,11.591,7.516,22.237,18.293,25.555c10.776,3.319,18.383-2.67,18.383-14.261
		C645.388,183.435,637.871,172.79,627.004,169.443z"/>
	<path fill="#FFFFFF" d="M669.091,239.81v-64.112l15.576,4.797v64.112L669.091,239.81z"/>
	<path fill="#FFFFFF" d="M732.119,208.328v50.892l-15.486-4.769v-50.892l-18.112-5.578v-13.221l51.709,15.924v13.221
		L732.119,208.328z"/>
	<path fill="#FFFFFF" d="M790.798,279.01c-16.844-5.187-27.348-18.926-27.348-34.32v-39.934l15.395,4.741v38.667
		c0,6.882,3.351,14.253,12.044,16.93c8.785,2.705,12.044-2.63,12.044-9.512v-38.667l15.485,4.769v39.934
		C818.418,277.011,807.552,284.169,790.798,279.01z"/>
	<path opacity="0.2" fill="#FFFFFF" d="M803.162,275.095c-16.844-5.187-27.348-18.926-27.348-34.32V200.84l15.395,4.741v38.667
		c0,6.882,3.351,14.253,12.044,16.93c8.785,2.705,12.045-2.63,12.045-9.512v-38.667l15.485,4.769v39.934
		C830.782,273.096,819.915,280.254,803.162,275.095z"/>
	<path fill="#FFFFFF" d="M872.027,302.303l-13.855-29.712l-5.253-1.617v25.446l-15.214-4.685v-64.112l24.451,7.529
		c12.316,3.793,24.541,12.266,24.541,26.936c0,8.603-5.071,13.199-13.312,13.196l16.753,32.597L872.027,302.303z M861.069,247.313
		l-8.241-2.538v14.941l7.335,2.259c4.981,1.534,11.23,2.19,11.23-4.33C871.393,251.669,865.687,248.736,861.069,247.313z"/>
	<path opacity="0.2" fill="#FFFFFF" d="M885.489,298.182l-13.855-29.712l-5.253-1.618v25.446l-15.214-4.685v-64.112l24.451,7.529
		c12.316,3.793,24.541,12.266,24.541,26.936c0,8.603-5.071,13.199-13.312,13.196l16.753,32.597L885.489,298.182z M874.532,243.192
		l-8.241-2.538v14.941l7.335,2.259c4.981,1.534,11.23,2.19,11.23-4.33C884.855,247.548,879.15,244.614,874.532,243.192z"/>
	<path fill="#FFFFFF" d="M904.535,312.314v-64.112l43.106,13.274v13.13l-28.164-8.673v12.044l26.624,8.199v12.406l-26.624-8.199
		v13.311l29.794,9.175v13.221L904.535,312.314z"/>
	<linearGradient id="SVGID_2_" gradientUnits="userSpaceOnUse" x1="414.3789" y1="214.7164" x2="464.0396" y2="264.3771">
		<stop  offset="0" style="stop-color:#A6CFEA"/>
		<stop  offset="1" style="stop-color:#467FC0"/>
	</linearGradient>
	<path fill="url(#SVGID_2_)" d="M452.778,228.123c-2.626-4.159-7.426-7.811-11.411-9.038c-3.984-1.227-8.965-1.403-8.965,3.668
		c0,4.256,3.804,6.786,9.871,10.556c8.694,5.484,19.923,12.655,19.923,25.423c0,14.76-11.863,17.718-24.541,13.813
		c-9.146-2.817-18.383-9.012-23.998-16.627l10.142-7.2c3.079,4.842,8.784,9.497,13.855,11.058c4.709,1.45,8.875,0.922,8.875-4.24
		c0-4.89-4.89-7.935-13.312-13.245c-8.15-5.136-16.391-11.839-16.391-23.43c0-14.217,12.86-16.143,24.813-12.462
		c7.245,2.231,15.395,7.457,21.009,14.348L452.778,228.123z"/>
	<path fill="#FFFFFF" d="M562.779,315.738l0.362-45.256l-0.272-0.084l-16.662,40.237l-10.867-3.346l-16.21-50.359l-0.272-0.084
		l0.362,45.479l-14.58-4.49v-64.112l22.005,6.777l14.58,45.602l0.362,0.111l13.946-36.817l22.368,6.888v64.112L562.779,315.738z"/>
	<path fill="#FFFFFF" d="M629.789,270.541c20.104,6.191,34.956,23.714,34.956,44.269c0,20.284-14.852,29.475-34.956,23.284
		c-20.014-6.163-34.865-24.501-34.865-44.785 M629.789,284.486c-10.867-3.347-18.293,2.698-18.293,13.926
		c0,11.591,7.516,22.237,18.293,25.555c10.776,3.318,18.383-2.67,18.383-14.261C648.172,298.478,640.656,287.833,629.789,284.486z"
		/>
	<path fill="#FFFFFF" d="M722.518,364.93l-25.81-49.875l-0.271-0.084l0.362,42.038l-15.033-4.629v-64.112l17.659,5.438
		l25.719,49.756l0.272,0.083l-0.362-41.948l15.033,4.63v64.112L722.518,364.93z"/>
	<path fill="#FFFFFF" d="M760.097,376.502V312.39l43.105,13.274v13.13l-28.164-8.673v12.044l26.624,8.199v12.406l-26.624-8.199
		v13.311l29.794,9.175v13.221L760.097,376.502z"/>
	<path fill="#FFFFFF" d="M469.053,286.876v-64.112l15.576,4.797v64.112L469.053,286.876z"/>
	<path fill="#FFFFFF" d="M442.612,231.283c-2.626-4.159-7.426-7.811-11.411-9.038c-3.984-1.227-8.965-1.403-8.965,3.668
		c0,4.256,3.804,6.786,9.871,10.556c8.694,5.484,19.923,12.655,19.923,25.423c0,14.76-11.863,17.718-24.541,13.813
		c-9.146-2.817-18.383-9.012-23.998-16.627l10.142-7.2c3.079,4.842,8.784,9.497,13.855,11.058c4.709,1.45,8.875,0.922,8.875-4.24
		c0-4.89-4.89-7.935-13.312-13.245c-8.15-5.136-16.391-11.839-16.391-23.43c0-14.217,12.86-16.143,24.813-12.462
		c7.245,2.231,15.395,7.457,21.009,14.348L442.612,231.283z"/>
	<path fill="#FFFFFF" d="M617.113,225.524c-20.014-6.163-34.865-24.501-34.865-44.785c0-20.556,14.852-28.932,34.865-22.768
		c20.104,6.191,34.956,23.714,34.956,44.269C652.069,222.524,637.217,231.715,617.113,225.524z M617.113,171.916
		c-10.867-3.346-18.293,2.698-18.293,13.926c0,11.591,7.516,22.237,18.293,25.555c10.776,3.319,18.383-2.67,18.383-14.261
		C635.497,185.908,627.98,175.262,617.113,171.916z"/>
	<linearGradient id="SVGID_3_" gradientUnits="userSpaceOnUse" x1="611.0497" y1="273.2975" x2="668.9073" y2="331.1551">
		<stop  offset="0" style="stop-color:#A6CFEA"/>
		<stop  offset="1" style="stop-color:#467FC0"/>
	</linearGradient>
	<path fill="url(#SVGID_3_)" d="M639.986,336.174c-20.014-6.163-34.865-24.501-34.865-44.785c0-20.556,14.852-28.932,34.865-22.768
		c20.104,6.191,34.956,23.714,34.956,44.269C674.941,333.174,660.089,342.364,639.986,336.174z M639.986,282.565
		c-10.867-3.346-18.293,2.698-18.293,13.926c0,11.591,7.516,22.237,18.293,25.555c10.776,3.319,18.383-2.67,18.383-14.261
		C658.369,296.557,650.852,285.912,639.986,282.565z"/>
	<path fill="#FFFFFF" d="M630.095,338.646c-20.014-6.163-34.865-24.501-34.865-44.785c0-20.556,14.852-28.932,34.865-22.768
		c20.104,6.191,34.956,23.714,34.956,44.269C665.05,335.646,650.198,344.837,630.095,338.646z M630.095,285.038
		c-10.867-3.346-18.293,2.698-18.293,13.926c0,11.591,7.516,22.237,18.293,25.555c10.776,3.319,18.383-2.67,18.383-14.261
		C648.478,299.03,640.961,288.384,630.095,285.038z"/>
</g>
<polygon fill="#A6CFEA" points="349.799,77.47 362.781,73.657 406.672,87.322 393.072,90.864 "/>
<polygon fill="#A6CFEA" points="454.924,109.787 468.456,106.215 482.734,110.723 470.139,114.355 "/>
<polygon fill="#A6CFEA" points="411.652,96.599 425.183,93.027 442.269,98.256 429.287,101.811 "/>
<polygon fill="#A6CFEA" points="364.893,107.16 364.841,99.587 404.92,112.049 391.423,115.385 "/>
<polygon fill="#467FC0" points="393.078,90.864 393.037,103.777 406.74,99.827 406.672,87.326 "/>
<polygon fill="#467FC0" points="391,115.385 391,127.783 405,124.297 405,112.088 "/>
<polygon fill="#467FC0" points="365,94.779 365,107.177 379,103.691 379,99.243 "/>
<polygon fill="#A6CFEA" points="364.944,132.866 365.116,125.138 406.5,138.567 394.72,142.173 "/>
<polygon fill="#467FC0" points="394.72,142.173 394.652,155.189 406.5,151.72 406.534,138.567 "/>
<polygon fill="#467FC0" points="364.807,119.609 364.876,132.9 378.235,129.431 378.27,123.73 "/>
<polygon fill="#467FC0" points="469.984,114.432 470.001,178.44 482.554,174.731 482.708,110.748 "/>
<polygon fill="#467FC0" points="426.809,165.149 442,160.718 442,152.888 426.316,122.906 "/>
<polyline fill="#2E00BC" points="442.089,98.256 429.287,101.811 441.96,126.255 "/>
<polygon fill="#467FC0" points="429.218,101.811 455.199,151.72 455.027,122.666 441.986,98.256 "/>
<polygon fill="#A6CFEA" points="509.908,126.65 522.272,122.803 539.375,127.955 527.08,131.938 "/>
<polygon fill="#A6CFEA" points="557.2,141.194 570.078,137.382 586.666,142.533 574.2,146.5 "/>
<polygon fill="#467FC0" points="549.678,161.817 539.375,127.955 527.08,131.938 542.123,181.943 542.294,182.08 "/>
<polygon fill="#467FC0" points="549.575,203.012 562.197,199.303 586.666,142.533 574.2,146.5 "/>
<polygon fill="#A6CFEA" points="669.091,175.709 682.176,171.949 697.63,176.688 684.7,180.552 "/>
<polyline fill="#467FC0" points="684.7,244.688 697.888,240.979 697.63,176.688 684.7,180.552 "/>
<polyline fill="#467FC0" points="732.094,259.113 745.282,255.404 745.437,212.491 732.146,208.473 "/>
<polygon fill="#A6CFEA" points="698.558,184.725 711.436,180.912 763.261,196.779 750.382,200.591 "/>
<polyline fill="#467FC0" points="750.227,213.882 763.364,209.658 763.261,196.779 750.382,200.591 "/>
<polygon fill="#A6CFEA" points="763.467,204.815 776.294,200.9 791.388,205.537 778.87,209.503 "/>
<polygon fill="#A6CFEA" points="802.979,216.87 815.806,213.058 831.416,217.9 818.485,221.816 "/>
<polygon fill="#A6CFEA" points="904.585,248.226 917.841,244.448 960.427,257.499 947.651,261.551 "/>
<polygon fill="#467FC0" points="947.506,274.636 960,270.961 960,257.567 947.228,261.551 "/>
<polygon fill="#467FC0" points="946.089,286.158 960.839,282.02 960.771,294.383 946.037,298.522 "/>
<polygon fill="#467FC0" points="919.558,266.084 933.845,270.343 933.983,273.898 919.661,277.916 "/>
<polygon fill="#467FC0" points="919,290.4 934,294.761 934,299.535 919,303.725 "/>
<polygon fill="#467FC0" points="949.06,312.895 964,308.808 964,321.79 949.284,326.083 "/>
<polygon fill="#A6CFEA" points="919.352,303.725 933.777,299.535 963.862,308.808 948.991,312.895 "/>
<polygon fill="#A6CFEA" points="946.089,286.158 960.839,282.02 933.983,273.898 919.661,277.916 "/>
<polygon fill="#A6CFEA" points="469.108,222.743 481.953,218.896 497.064,223.567 484.563,227.551 "/>
<polygon fill="#467FC0" points="497.064,223.567 497.133,287.79 484.632,291.567 484.563,227.551 "/>
<polygon fill="#A6CFEA" points="504.62,233.87 517.533,229.886 539.856,236.755 526.805,240.67 "/>
<polyline fill="#467FC0" points="549.266,265.878 539.856,236.755 526.805,240.67 541.298,286.072 541.573,286.158 "/>
<polygon fill="#467FC0" points="519.181,302.351 532.3,298.299 526.805,280.577 518.906,256.949 "/>
<polygon fill="#A6CFEA" points="555.448,249.376 568.636,245.564 590.581,252.313 577.857,256.228 "/>
<polyline fill="#467FC0" points="577.977,320.347 590.616,316.775 590.581,252.313 577.857,256.228 "/>
<polygon fill="#A6CFEA" points="681.832,288.27 694.814,284.355 712.329,289.781 699.554,293.765 "/>
<polygon fill="#A6CFEA" points="725.036,301.596 738.156,297.68 753.13,302.283 740.079,306.266 "/>
<polyline fill="#467FC0" points="740.182,370.283 753.061,366.471 753.13,302.283 740.079,306.266 "/>
<polygon fill="#467FC0" points="699.554,293.765 725.243,343.392 725.14,314.131 712.329,289.781 "/>
<polygon fill="#A6CFEA" points="760.067,312.483 773.461,308.567 816.425,321.858 803.031,325.67 "/>
<polygon fill="#A6CFEA" points="774.903,342.155 788.297,338.24 814.57,346.431 801.537,350.295 "/>
<polyline fill="#467FC0" points="802.87,338.858 816,334.737 816,321.858 802.789,325.67 "/>
<polygon fill="#467FC0" points="789,338.343 789,334.222 775,330.135 775,342.052 "/>
<polygon fill="#467FC0" points="801.537,350.295 814.33,346.448 814.398,359.087 801.623,362.796 "/>
<polygon fill="#467FC0" points="804.935,377.083 818,373.099 818,386.63 804.873,390.408 "/>
<polygon fill="#467FC0" points="788,358.537 788,363.895 775,367.862 775,354.416 "/>
<polygon fill="#A6CFEA" points="774.697,367.862 787.885,363.895 818.314,373.03 804.92,377.083 "/>
<polygon fill="#467FC0" points="546.381,310.525 562.454,305.992 562.866,270.755 "/>
<polygon fill="#467FC0" points="696.806,356.889 715.146,351.325 696.394,315.058 "/>
<path fill="#FFFFFF" d="M611.502,171.021"/>
<polygon fill="#A6CFEA" points="837.62,227.62 850.808,223.773 879.519,232.702 866.469,236.549 "/>
<polygon fill="#467FC0" points="852.869,296.444 867.018,292.185 857.951,272.816 853.006,271.03 "/>
<path fill="#467FC0" d="M791.388,205.537l0.091,45.746c0,0-0.927,8.449,5.77,14.27c0,0-6.542,1.545-13.291-4.43
	c0,0-4.224-3.967-4.945-10.715l-0.143-40.903L791.388,205.537z"/>
<linearGradient id="SVGID_4_" gradientUnits="userSpaceOnUse" x1="860.0375" y1="242.9802" x2="912.2089" y2="295.1516">
	<stop  offset="0" style="stop-color:#A6CFEA"/>
	<stop  offset="1" style="stop-color:#467FC0"/>
</linearGradient>
<path fill="url(#SVGID_4_)" d="M890.138,307.881l13.463-4.121l-16.753-32.597c0,0,14.926,1.756,13.072-16.892
	c0,0-1.752-14.905-20.4-21.568l-13.051,3.846c0,0,15.729,5.255,19.232,18.855c0,0,6.38,19.361-12.316,19.88L890.138,307.881z"/>
<path fill="#A6CFEA" d="M866.291,255.596l-13.463,4.121c0,0,19.754,8.497,18.449-2.562L866.291,255.596z"/>
<path fill="#467FC0" d="M866.377,255.551l0.015-5.974c0,0-1.391-1.315-13.391-4.802v14.852L866.377,255.551z"/>
<path fill="#467FC0" d="M830,218.003v40.8c0,0-0.196,18.408-18.055,17.859c0,0,6.055-4.396,6.055-15.798v-39.152L830,218.003z"/>
<path fill="#467FC0" d="M413.634,251.88l13.306-3.997l5.152,3.778c0,0,8.105,6.869,1.648,11.539
	C433.74,263.2,425.947,266.936,413.634,251.88z"/>
<polygon fill="#467FC0" points="442.612,231.283 452.778,228.123 462.649,220.749 452.483,223.909 "/>
<g>
	<circle fill="none" stroke="#FFFFFF" stroke-width="3" stroke-miterlimit="10" cx="646.186" cy="707.552" r="22.46"/>
	
		<polyline fill="none" stroke="#FFFFFF" stroke-width="3" stroke-linecap="round" stroke-linejoin="round" stroke-miterlimit="10" points="
		652.523,703.673 649.336,709.201 646.149,714.728 642.963,709.201 639.776,703.673 	"/>
</g>
<path opacity="0.5" fill="#FFFFFF" d="M477.55,344.624c-2.575,0.813-5.053,2.01-7.376,3.499
	c-3.312-17.399-19.431-26.309-38.83-20.181c-21.796,6.885-39.465,30.136-39.465,51.932c0,2.732,0.278,5.311,0.807,7.72
	c-1.279,0.075-2.612-0.135-3.993,0.301c-7.834,2.475-14.342,9.935-15.725,17.594l24.659-7.79l6.791-2.145l49.808-15.734
	l10.836-3.423l35.813-11.313c0.328-1.909,0.502-2.926,0.502-4.598C501.376,347.327,490.709,340.467,477.55,344.624z"/>
<path opacity="0.5" fill="#FFFFFF" d="M640.003,415.651c-1.854,0.586-3.638,1.447-5.311,2.52
	c-2.385-12.529-13.991-18.944-27.96-14.531c-15.694,4.958-28.417,21.699-28.417,37.394c0,1.967,0.2,3.824,0.581,5.558
	c-0.921,0.054-1.881-0.097-2.875,0.217c-5.641,1.782-10.327,7.154-11.323,12.669l17.756-5.609l4.89-1.545l35.865-11.33l7.802-2.465
	l25.787-8.146c0.236-1.375,0.361-2.107,0.361-3.311C657.159,417.597,649.478,412.658,640.003,415.651z"/>
<path opacity="0.5" fill="#FFFFFF" d="M302.187,340.732c-1.484,0.469-2.913,1.159-4.252,2.017
	c-1.909-10.03-11.201-15.165-22.383-11.633c-12.564,3.969-22.749,17.371-22.749,29.935c0,1.575,0.16,3.061,0.465,4.45
	c-0.737,0.043-1.506-0.078-2.302,0.174c-4.516,1.426-8.267,5.727-9.064,10.142l14.214-4.49l3.914-1.237l28.711-9.07l6.246-1.973
	l20.644-6.521c0.189-1.101,0.289-1.687,0.289-2.651C315.921,342.289,309.772,338.335,302.187,340.732z"/>
<path opacity="0.5" fill="#FFFFFF" d="M920.371,362.986c-1.484,0.469-2.913,1.159-4.252,2.017
	c-1.909-10.03-11.201-15.166-22.383-11.633c-12.564,3.969-22.749,17.371-22.749,29.935c0,1.575,0.16,3.061,0.465,4.45
	c-0.737,0.043-1.506-0.078-2.302,0.174c-4.516,1.427-8.267,5.727-9.064,10.142l14.214-4.49l3.914-1.237l28.711-9.07l6.246-1.973
	l20.644-6.521c0.189-1.101,0.289-1.687,0.289-2.651C934.105,364.544,927.956,360.59,920.371,362.986z"/>
<path opacity="0.5" fill="#FFFFFF" d="M1045.043,387.072c-2.575,0.813-5.053,2.01-7.376,3.499
	c-3.312-17.399-19.431-26.309-38.83-20.181c-21.796,6.885-39.465,30.136-39.465,51.932c0,2.732,0.278,5.311,0.807,7.72
	c-1.279,0.075-2.612-0.135-3.993,0.301c-7.834,2.475-14.342,9.935-15.725,17.594l24.659-7.79l6.791-2.145l49.808-15.734
	l10.836-3.423l35.813-11.313c0.328-1.909,0.502-2.926,0.502-4.598C1068.869,389.775,1058.202,382.916,1045.043,387.072z"/>
<path opacity="0.5" fill="#FFFFFF" d="M876.226,491.802c-1.98,0.626-3.885,1.546-5.672,2.691
	c-2.547-13.38-14.942-20.231-29.859-15.518c-16.76,5.295-30.347,23.173-30.347,39.934c0,2.101,0.214,4.084,0.62,5.936
	c-0.983,0.058-2.008-0.104-3.071,0.232c-6.024,1.903-11.028,7.639-12.092,13.529l18.962-5.99l5.222-1.65l38.301-12.099l8.333-2.632
	l27.539-8.699c0.252-1.468,0.386-2.25,0.386-3.536C894.547,493.88,886.344,488.605,876.226,491.802z"/>
<path opacity="0.5" fill="#FFFFFF" d="M270.406,481.911c-1.98,0.626-3.885,1.546-5.672,2.691
	c-2.547-13.38-14.942-20.231-29.859-15.518c-16.76,5.295-30.347,23.173-30.347,39.934c0,2.101,0.214,4.084,0.62,5.936
	c-0.983,0.058-2.008-0.104-3.071,0.232c-6.024,1.903-11.028,7.639-12.092,13.529l18.962-5.99l5.222-1.65l38.301-12.099l8.333-2.632
	l27.539-8.699c0.252-1.468,0.386-2.25,0.386-3.536C288.727,483.989,280.524,478.714,270.406,481.911z"/>
</svg>
