<svg id="voitures" xmlns="http://www.w3.org/2000/svg" viewBox="0 0 1280 800" preserveAspectRatio="none">
	<defs>
		<style>
			.cls-1,.cls-16,.cls-23,.cls-24{fill:#e88a5e;}.cls-2{fill:#bdd57d;}.cls-3{fill:#eaeaea;}.cls-4{fill:#afafaf;}.cls-5{opacity:0.53;}.cls-6,.cls-8{fill:#80bb4e;}.cls-7{fill:#24a34b;}.cls-23,.cls-8{opacity:0.2;}.cls-9{fill:#72a746;}.cls-10{fill:none;stroke:#fff;stroke-linecap:round;stroke-width:3px;}.cls-10,.cls-24{stroke-miterlimit:10;}.cls-11{fill:#80bc4e;opacity:0.45;}.cls-12{fill:#a35c46;}.cls-13{fill:#c07152;}.cls-14,.cls-15{fill:#eed6a9;}.cls-15{opacity:0.75;}.cls-16{opacity:0.6;}.cls-17{fill:#85b2cc;}.cls-18{fill:#fff6e3;}.cls-19,.cls-22{fill:#bbdaef;}.cls-20,.cls-21{fill:#fff5e3;}.cls-21,.cls-22{opacity:0.3;}.cls-24{stroke:#e88a5e;}
		</style>
	</defs>
	<title>accueil</title>
	<g>
	<!--<animateMotion path="M0,0 -40,-10  0,-20  -40,-30 0,-40  -40,-30   0,-20 -40,-10 0,0" begin="0s" dur="40s" repeatCount="indefinite"/>-->
	<path class="cls-1" d="M398.46,554.84c0,48.7,105.95,88.17,236.64,88.17s236.64-39.48,236.64-88.17V538.33l-470.35-9.82-2.92,14v12.34Z"/><path class="cls-2" d="M701.16,453.68c-17.87-1.61-46.87-3.5-66.06-3.5-130.69,0-236.64,43.62-236.64,92.32,0,7.74,2.68,15.24,7.7,22.39l351-103.24A527.88,527.88,0,0,0,701.16,453.68Z"/>
	<path class="cls-2" d="M850.29,505.77L489.14,611.9c40.21,11.76,90.89,18.77,146,18.77,111.29,0,204.64-28.63,229.9-67.19,4.4-6.72,6.74-13.75,6.74-21C871.74,529.39,864.06,517,850.29,505.77Z"/><path class="cls-3" d="M746.8,464.75L406.16,564.89q1.18,1.68,2.53,3.33c14.29,17.49,42.77,32.67,80.45,43.68L850.29,505.77C828.72,488.25,792.19,473.82,746.8,464.75Z"/>
	<polygon class="cls-4" points="404.86 562.71 408.62 567.75 758 466.99 758 461.56 404.86 562.71"/><g class="cls-5"><path class="cls-6" d="M466.78,478.71c-0.89.34-1.76,0.71-2.61,1.11-6.38,3-11.45,5.75-18,8.35,2.06,0.81,6.27,2,8.73,3,20.54,8.13,35.25,17.39,49.5,21.19,0,0,17.72,2.36,27.3-7.35C531.69,505,544.14,491.67,466.78,478.71Z"/>
	<path class="cls-6" d="M499.86,479.65c-5.76-1.54-14.35-4.89-21.09-5.83a151.79,151.79,0,0,0-14.61,6c-2.87,1.37-2.24,3.28-5.2,4.46,50.64,15,32.44,26.79,52.16,28.7,26.92,2.62,28.12-6.86,28.12-6.86C541.44,497.9,523.81,486,499.86,479.65Z"/>
</g>
<path class="cls-7" d="M522.68,470s-5.86-.09-10.69,14.17c-2.79,8.23-6.87,9.13-6.87,14.66A16.79,16.79,0,0,0,519,513.35s7.44-30.2,5.6-36.81S522.68,470,522.68,470Z"/><path class="cls-6" d="M538.65,496.75a16.83,16.83,0,0,1-32,7.31c-4-8.37,19.46-.06,15.16-31.77C520.57,463.07,538.65,484,538.65,496.75Z"/>
<path class="cls-8" d="M815.28,575.64c11.14,4.44,12.88,8,3.89,8s-25.3-3.6-36.44-8-12.88-8-3.89-8S804.15,571.21,815.28,575.64Z"/>
<circle class="cls-6" cx="816.66" cy="571.52" r="12.69"/>
<path class="cls-9" d="M816.66,584.17A12.8,12.8,0,0,1,804,571.52c0-7.41,6.79-11.3,6.8-11.3-1.71,1-2.86,3.7-3.25,5.49-1.33,6.06,3.42,10.89,6.58,15.43C814.6,581.86,815.59,584.18,816.66,584.17Z"/>
<path class="cls-8" d="M561.93,600.48c11.14,4.44,12.88,8,3.89,8s-25.3-3.6-36.44-8-12.88-8-3.89-8S550.8,596,561.93,600.48Z"/><circle class="cls-6" cx="563.31" cy="596.36" r="12.69"/>
<path class="cls-9" d="M563.31,609a12.8,12.8,0,0,1-12.69-12.65c0-7.41,6.79-11.3,6.8-11.3-1.71,1-2.86,3.7-3.25,5.49-1.33,6.06,3.42,10.89,6.58,15.43C561.25,606.7,562.25,609,563.31,609Z"/>
<path class="cls-8" d="M707.67,591.69c6.07,2.42,7,4.38,2.12,4.38s-13.8-2-19.87-4.38-7-4.38-2.12-4.38S701.6,589.27,707.67,591.69Z"/>
<circle class="cls-6" cx="708.42" cy="589.44" r="6.92"/><path class="cls-9" d="M708.42,596.34a7,7,0,0,1-6.92-6.9c0-4,3.7-6.16,3.71-6.16a4.94,4.94,0,0,0-1.77,3c-0.73,3.31,1.87,5.94,3.59,8.41C707.3,595.08,707.84,596.35,708.42,596.34Z"/>
<path class="cls-8" d="M653.29,467.88c8.64,3.44,10,6.23,3,6.23s-19.62-2.79-28.26-6.23-10-6.23-3-6.23S644.66,464.44,653.29,467.88Z"/>
<circle class="cls-6" cx="654.36" cy="464.68" r="9.84"/><path class="cls-9" d="M654.36,474.49a9.92,9.92,0,0,1-9.84-9.81c0-5.75,5.26-8.76,5.27-8.76-1.33.76-2.22,2.87-2.52,4.25-1,4.7,2.65,8.44,5.11,12C652.77,472.7,653.53,474.5,654.36,474.49Z"/>
<g class="cls-5"><path class="cls-6" d="M751.91,544.34s-3-1.52,10.56,3.86c7.84,3.1,13.46,6.64,18.89,8.09,0,0,6.76.9,10.42-2.81,0,0,7.68-6.06-35.69-11.56C749.39,541.07,751.91,544.34,751.91,544.34Z"/>
<path class="cls-6" d="M779.63,543.8c9.14,2.44,15.87,7,15,10.11,0,0-.46,3.62-10.74,2.62-8.6-.84,1.69-6.59-29.88-13.47C744.88,541.06,767.09,540.45,779.63,543.8Z"/></g><path class="cls-7" d="M789,527.84s-3.84-.06-7,9.29c-1.83,5.4-4.51,6-4.51,9.61a11,11,0,0,0,9.12,9.51s4.88-19.81,3.67-24.14A32.87,32.87,0,0,0,789,527.84Z"/>
<path class="cls-6" d="M799.5,545.37a11,11,0,0,1-21,4.79c-2.65-5.49,12.76,0,9.94-20.83C787.64,523.29,799.5,537,799.5,545.37Z"/><path class="cls-8" d="M772.49,596c11.14,4.44,12.88,8,3.89,8s-25.3-3.6-36.44-8-12.88-8-3.89-8S761.36,591.52,772.49,596Z"/>
<circle class="cls-6" cx="773.86" cy="591.84" r="12.69"/><path class="cls-9" d="M773.86,604.49a12.8,12.8,0,0,1-12.69-12.65c0-7.41,6.79-11.3,6.8-11.3-1.71,1-2.86,3.7-3.25,5.49-1.33,6.06,3.42,10.89,6.58,15.43C771.81,602.17,772.8,604.5,773.86,604.49Z"/>
<path class="cls-8" d="M664.88,612c6.07,2.42,7,4.38,2.12,4.38s-13.8-2-19.87-4.38-7-4.38-2.12-4.38S658.8,609.59,664.88,612Z"/><circle class="cls-6" cx="665.63" cy="609.76" r="6.92"/>
<path class="cls-9" d="M665.63,616.66a7,7,0,0,1-6.92-6.9c0-4,3.7-6.16,3.71-6.16a4.94,4.94,0,0,0-1.77,3c-0.73,3.31,1.87,5.94,3.59,8.41C664.51,615.39,665,616.66,665.63,616.66Z"/>
<circle class="cls-6" cx="431.53" cy="530.93" r="9.84"/>
<path class="cls-9" d="M431.53,540.73a9.92,9.92,0,0,1-9.84-9.81c0-5.75,5.26-8.76,5.27-8.76-1.33.76-2.22,2.87-2.52,4.25-1,4.7,2.65,8.44,5.11,12C429.94,538.94,430.71,540.74,431.53,540.73Z"/><g class="cls-5">
<path class="cls-6" d="M709.12,564.65s-3-1.52,10.56,3.86c7.84,3.1,13.46,6.64,18.89,8.09,0,0,6.76.9,10.42-2.81,0,0,7.68-6.06-35.69-11.56C706.6,561.39,709.12,564.65,709.12,564.65Z"/>
<path class="cls-6" d="M736.84,564.12c9.14,2.44,15.87,7,15,10.11,0,0-.46,3.62-10.74,2.62-8.6-.84,1.69-6.59-29.88-13.47C702.09,561.38,724.3,560.77,736.84,564.12Z"/>
</g>
<path class="cls-7" d="M746.24,548.15s-3.84-.06-7,9.29c-1.83,5.4-4.51,6-4.51,9.61a11,11,0,0,0,9.12,9.51s4.88-19.81,3.67-24.14A32.87,32.87,0,0,0,746.24,548.15Z"/>
<path class="cls-6" d="M756.71,565.69a11,11,0,0,1-21,4.79c-2.65-5.49,12.76,0,9.94-20.83C744.85,543.6,756.71,557.32,756.71,565.69Z"/><line class="cls-10" x1="445.42" y1="589.6" x2="464.87" y2="583.59"/><line class="cls-10" x1="485.59" y1="576.74" x2="505.04" y2="570.72"/><line class="cls-10" x1="523.76" y1="565.36" x2="543.21" y2="559.35"/><line class="cls-10" x1="561.93" y1="553.99" x2="581.38" y2="547.98"/><line class="cls-10" x1="600.11" y1="542.62" x2="619.55" y2="536.61"/><line class="cls-10" x1="638.28" y1="531.25" x2="657.72" y2="525.24"/><line class="cls-10" x1="676.45" y1="519.88" x2="695.9" y2="513.87"/><line class="cls-10" x1="714.62" y1="508.51" x2="734.07" y2="502.5"/><line class="cls-10" x1="752.79" y1="497.14" x2="772.24" y2="491.13"/><line class="cls-10" x1="790.97" y1="485.77" x2="803.88" y2="481.87"/><path class="cls-11" d="M693.05,527.54l-0.13-.11,1.31,0.13,0.77,0.65,0.2,0.18,9.26-2.79-26.51-23.21L634.59,494h0l-8.53-4.06h0l-0.4-.27-0.41.12L558.64,470l-52.07,13.08L504.14,503l-0.23,0h0l-38,9.67,49.8,18.3,0.06,5.95,73.4,22.63-27.09-23.72h0l27.09,23.72,14.63-4.22h0l12.74,2.33c1.11,0.28-1.29-1.27-.41-1.26,4.21,0,7.11-1.71,2.31-6l1.62,0.15,0.06,0.05,38.45-11.36H659l-0.09-.08,21.59-6.38,11.9,2.15,0.57,0.1"/><path class="cls-12" d="M629.46,539.2l-6.51,13S609.78,551,599.14,542A93.22,93.22,0,0,1,603,529.74Z"/><path class="cls-13" d="M614.48,558.83l-7.26-2.18a24.59,24.59,0,0,1,3.12-13.15,48.62,48.62,0,0,1,6.62.88Z"/><path class="cls-12" d="M702.11,517.94l-6.51,13s-13.17-1.17-23.81-10.24a93.22,93.22,0,0,1,3.84-12.21Z"/><path class="cls-13" d="M688.23,537.86l-8.36-2.47a22.24,22.24,0,0,1,3-12.53,48.62,48.62,0,0,1,6.62.88Z"/><ellipse class="cls-14" cx="616.28" cy="551.77" rx="7.47" ry="5.54" transform="translate(60.74 1164.66) rotate(-89.65)"/><ellipse class="cls-14" cx="688.83" cy="530.79" rx="7.08" ry="5.26" transform="translate(153.84 1216.36) rotate(-89.65)"/><polygon class="cls-15" points="704 507.44 679.83 499.64 657.19 507.15 680.58 510.28 688.82 511.92 704 507.44"/><polygon class="cls-14" points="593.25 560.57 547.73 546.83 547.87 524.66 593.39 538.51 593.25 560.57"/><polygon class="cls-16" points="585.05 554.08 555.99 545.3 556.07 531.15 585.14 540 585.05 554.08"/><polygon class="cls-14" points="616.39 532.34 570.48 518.43 547.87 524.66 593.39 538.51 616.39 532.34"/><polygon class="cls-17" points="625.02 510.58 588.87 499.69 570.48 518.43 616.39 532.34 625.02 510.58"/><polygon class="cls-18" points="677.07 495.86 640.5 484.83 588.87 499.69 625.02 510.58 677.07 495.86"/><polygon class="cls-19" points="688.82 511.92 677.07 495.86 650.93 503.25 659.92 520.07 688.82 511.92"/><polygon class="cls-20" points="616.79 531.26 616.39 532.34 625.02 510.58 616.79 531.26"/><path class="cls-18" d="M704,507.43l-15.18,4.48-0.06,10.44c3.44,0,6.21,4.09,6.18,9.09,0,0.06,0,.11,0,0.17l8.94-2.6Z"/><polygon class="cls-20" points="659.78 541.66 659.78 541.66 622.85 552.23 659.78 541.66"/><polygon class="cls-19" points="650.93 503.25 625.02 510.58 616.39 532.34 659.92 520.07 650.93 503.25"/><path class="cls-18" d="M688.76,522.36l0.06-10.44-28.9,8.15h0l-0.13,21.6L683,535a12.55,12.55,0,0,1-.51-3.66C682.5,526.37,685.31,522.34,688.76,522.36Z"/><path class="cls-18" d="M659.92,520.07l-43.52,12.27-0.06,10.56c3.64,0,6.57,4,6.54,8.92,0,0.14,0,.27,0,0.41l36.94-10.56,0.13-21.6h0Z"/><path class="cls-18" d="M616.33,542.9l0.06-10.56-23,6.17-0.14,22.06,17.13-4.81a11.38,11.38,0,0,1-.7-4C609.72,546.83,612.69,542.87,616.33,542.9Z"/><ellipse class="cls-12" cx="616.28" cy="551.77" rx="3.36" ry="2.49" transform="translate(60.74 1164.66) rotate(-89.65)"/><ellipse class="cls-12" cx="688.83" cy="530.95" rx="3.36" ry="2.49" transform="translate(153.67 1216.52) rotate(-89.65)"/><path class="cls-21" d="M577.47,544.67h0l-15-4.34a0.08,0.08,0,0,1,0-.15l15,4.34A0.08,0.08,0,0,1,577.47,544.67Z"/><path class="cls-21" d="M577.46,547.11h0l-15-4.34a0.08,0.08,0,1,1,0-.15l15,4.34A0.08,0.08,0,0,1,577.46,547.11Z"/><path class="cls-21" d="M577.44,549.55h0l-15-4.34a0.08,0.08,0,1,1,0-.15l15,4.34A0.08,0.08,0,0,1,577.44,549.55Z"/><path class="cls-21" d="M577.49,542.12h0l-15-4.34a0.08,0.08,0,1,1,0-.15l15,4.34A0.08,0.08,0,0,1,577.49,542.12Z"/><path class="cls-21" d="M577.5,539.58h0l-15-4.34a0.08,0.08,0,1,1,0-.15l15,4.34A0.08,0.08,0,0,1,577.5,539.58Z"/><path class="cls-1" d="M653.67,525.91a0.31,0.31,0,0,1-.08-0.61l4.19-1.1a0.31,0.31,0,1,1,.16.6l-4.19,1.1h-0.08Z"/><path class="cls-1" d="M682.31,517.33a0.31,0.31,0,0,1-.08-0.61l4.19-1.1a0.31,0.31,0,1,1,.16.6l-4.19,1.1h-0.08Z"/><polygon class="cls-18" points="593.39 538.51 570.71 518.5 616.39 532.34 593.39 538.51"/><polygon class="cls-22" points="625.02 511.52 570.71 518.5 616.39 532.34 625.02 511.52"/><rect class="cls-1" x="593.18" y="501.4" width="0.51" height="47.97" transform="translate(-81.46 940.97) rotate(-73.14)"/><path class="cls-14" d="M616.39,532.6h-0.07l-45.91-13.91,0.15-.49L616.24,532l8.54-21.54,0.48,0.19-8.63,21.76A0.26,0.26,0,0,1,616.39,532.6Z"/><path class="cls-14" d="M659.91,520.32a0.26,0.26,0,0,1-.23-0.14l-9-16.82a0.26,0.26,0,0,1,.16-0.37L677,495.61l0.14,0.5-25.83,7.31L660,519.76l28.7-8.09,0.14,0.5L660,520.31h-0.07Z"/><polygon class="cls-1" points="625.02 510.58 616.79 531.26 616.39 532.34 625.02 510.58 625.02 510.58"/><rect class="cls-1" x="683.57" y="516.88" width="10.44" height="0.51" transform="translate(167.44 1202.75) rotate(-89.65)"/><path class="cls-14" d="M650.67,503.86l8.49,15.89-41.91,11.82L625.41,511l25.26-7.15m0.26-.61L625,510.58l-8.63,21.76,43.52-12.27-9-16.82h0Z"/><path class="cls-14" d="M660,541.66h-0.51l0.13-21.6a0.26,0.26,0,0,1,.19-0.25l28.9-8.15a0.26,0.26,0,0,1,.33.25L689,522.36H688.5l0.06-10.1-28.39,8Z"/><path class="cls-14" d="M616.59,542.9h-0.51l0.06-10.56a0.26,0.26,0,0,1,.19-0.25l43.52-12.27a0.26,0.26,0,0,1,.33.25L660,541.66h-0.51l0.13-21.25-43,12.13Z"/><rect class="cls-14" x="611.08" y="537.36" width="10.56" height="0.51" transform="translate(74.98 1150.68) rotate(-89.65)"/><g id="face"><path class="cls-1" d="M630.92,266.15c-22.5-6.93-39.2-27.55-39.2-50.36,0-23.11,16.7-32.53,39.2-25.6s39.3,26.66,39.3,49.78C670.22,262.77,653.52,273.11,630.92,266.15Zm0-60.28c-12.22-3.76-20.57,3-20.57,15.66,0,13,8.45,25,20.57,28.73s20.67-3,20.67-16C651.59,221.6,643.13,209.63,630.92,205.87Z"/><path class="cls-23" d="M921.56,350.62L906,317.21l-5.91-1.82V344L883,338.74V266.65l27.49,8.47c13.85,4.26,27.59,13.79,27.59,30.29,0,9.67-5.7,14.84-15,14.84l18.84,36.65Zm-12.32-61.83L900,285.94v16.8l8.25,2.54c5.6,1.72,12.63,2.46,12.63-4.87C920.84,293.69,914.43,290.39,909.23,288.79Z"/><path class="cls-1" d="M435,271.85a25.9,25.9,0,0,0-12.83-10.16c-4.48-1.38-10.08-1.58-10.08,4.12,0,4.79,4.28,7.63,11.1,11.87,9.78,6.17,22.4,14.23,22.4,28.59,0,16.6-13.34,19.92-27.59,15.53-10.28-3.17-20.67-10.13-27-18.69l11.4-8.1c3.46,5.44,9.88,10.68,15.58,12.43,5.3,1.63,10,1,10-4.77,0-5.5-5.5-8.92-15-14.89-9.16-5.77-18.43-13.31-18.43-26.34,0-16,14.46-18.15,27.9-14a51.82,51.82,0,0,1,23.62,16.13Z"/><path class="cls-1" d="M634,319.54c22.6,7,39.3,26.66,39.3,49.78,0,22.81-16.7,33.14-39.3,26.18s-39.2-27.55-39.2-50.36m39.2-9.92c-12.22-3.76-20.57,3-20.57,15.66,0,13,8.45,25,20.57,28.73s20.67-3,20.67-16C654.72,351,646.27,339,634,335.22Z"/><path class="cls-1" d="M645.51,393.34c-22.5-6.93-39.2-27.55-39.2-50.36,0-23.11,16.7-32.53,39.2-25.6s39.3,26.66,39.3,49.78C684.82,390,668.12,400.3,645.51,393.34Zm0-60.28c-12.22-3.76-20.57,3-20.57,15.66,0,13,8.45,25,20.57,28.73s20.67-3,20.67-16C666.18,348.8,657.73,336.83,645.51,333.06Z"/><polygon class="cls-1" points="390.85 156.88 398.45 154.64 424.15 162.65 416.19 164.72 390.85 156.88"/><polygon class="cls-1" points="452.41 175.8 460.34 173.71 468.7 176.35 461.32 178.48 452.41 175.8"/><polygon class="cls-1" points="427.07 168.08 434.99 165.99 445 169.05 437.4 171.13 427.07 168.08"/><polygon class="cls-1" points="399.69 174.26 399.65 169.83 423.13 177.13 415.22 179.08 399.69 174.26"/><polygon class="cls-1" points="399.71 189.32 399.81 184.79 424.05 192.66 417.15 194.77 399.71 189.32"/><polyline class="cls-1" points="444.89 169.05 437.4 171.13 444.82 185.45"/><polygon class="cls-1" points="499.25 157.75 513.16 153.43 532.39 159.22 518.56 163.7 499.25 157.75"/><polygon class="cls-1" points="552.43 174.11 566.91 169.82 585.56 175.61 571.54 180.07 552.43 174.11"/><polygon class="cls-1" points="678.24 212.91 692.95 208.69 710.33 214.02 695.79 218.36 678.24 212.91"/><polygon class="cls-1" points="711.37 223.05 725.85 218.76 784.12 236.61 769.64 240.89 711.37 223.05"/><polygon class="cls-1" points="784.35 245.64 798.78 241.24 815.75 246.45 801.67 250.91 784.35 245.64"/><polygon class="cls-1" points="828.78 259.2 843.21 254.91 860.99 260.47 846.22 264.76 828.78 259.2"/><polygon class="cls-1" points="943.03 294.45 957.93 290.2 1005.82 304.88 991.45 309.44 943.03 294.45"/><polygon class="cls-1" points="959.63 356.86 975.85 352.14 1009.68 362.57 992.96 367.17 959.63 356.86"/><polygon class="cls-1" points="989.69 337.1 1006.28 332.45 976.08 323.32 959.98 327.83 989.69 337.1"/><polygon class="cls-1" points="453.38 265.8 467.82 261.47 484.81 266.73 470.76 271.2 453.38 265.8"/><polygon class="cls-1" points="493.31 278.31 507.83 273.83 532.93 281.55 518.25 285.96 493.31 278.31"/><polygon class="cls-1" points="550.46 295.75 565.29 291.46 589.96 299.05 575.66 303.45 550.46 295.75"/><polygon class="cls-1" points="692.57 339.48 707.16 335.08 726.86 341.18 712.49 345.66 692.57 339.48"/><polygon class="cls-1" points="741.14 354.46 755.89 350.06 772.73 355.23 758.06 359.71 741.14 354.46"/><polygon class="cls-1" points="780.53 366.7 795.59 362.3 843.9 377.24 828.84 381.53 780.53 366.7"/><polygon class="cls-1" points="797.21 400.07 812.27 395.66 841.81 404.87 827.16 409.22 797.21 400.07"/><polygon class="cls-1" points="796.98 428.97 811.81 424.51 846.97 434.78 830.96 439.34 796.98 428.97"/><polygon class="cls-1" points="867.73 271.28 882.56 266.96 914.84 277 900.17 281.32 867.73 271.28"/><path class="cls-1" d="M926.78,361.53l15.14-4.63-18.84-36.65s16.78,2,14.7-19c0,0-2-16.76-22.94-24.25l-14.67,4.32s17.69,5.91,21.62,21.2c0,0,7.17,21.77-13.85,22.35Z"/><path class="cls-1" d="M900,302.74l-15.14,4.63s22.21,9.55,20.74-2.88Z"/><polygon class="cls-24" points="416.19 164.72 416.17 172.28 424.19 169.97 424.15 162.65 416.19 164.72"/><polygon class="cls-24" points="414.5 179.08 414.5 186.34 423.5 184.3 423.5 177.15 414.5 179.08"/><polygon class="cls-24" points="398.5 167.01 398.5 174.28 407.5 172.23 407.5 169.63 398.5 167.01"/><polygon class="cls-24" points="417.15 194.77 417.11 202.39 424.05 200.36 424.07 192.66 417.15 194.77"/><polygon class="cls-24" points="399.63 181.56 399.68 189.34 407.5 187.31 407.52 183.97 399.63 181.56"/><polygon class="cls-24" points="461.23 178.52 461.24 216.01 468.59 213.84 468.69 176.37 461.23 178.52"/><polygon class="cls-24" points="437.27 208.23 447.5 205.63 447.5 201.05 437.65 183.49 437.27 208.23"/><polygon class="cls-24" points="437.36 171.13 452.57 200.36 452.47 183.35 444.83 169.05 437.36 171.13"/><polygon class="cls-24" points="543.97 197.29 532.39 159.22 518.56 163.7 535.48 219.92 535.67 220.08 543.97 197.29"/><polygon class="cls-24" points="543.86 243.62 558.05 239.44 585.56 175.61 571.54 180.07 543.86 243.62"/><polyline class="cls-24" points="695.79 290.48 710.62 286.3 710.33 214.02 695.79 218.36"/><polyline class="cls-24" points="749.08 306.69 763.91 302.52 764.08 254.27 749.14 249.75"/><polyline class="cls-24" points="769.47 255.84 784.24 251.09 784.12 236.61 769.64 240.89"/><polygon class="cls-24" points="990.37 324.15 1003.5 320.02 1003.5 304.96 989.6 309.44 990.37 324.15"/><polygon class="cls-24" points="989.69 337.1 1006.28 332.45 1006.2 346.35 989.63 351 989.69 337.1"/><polygon class="cls-24" points="959.86 314.53 975.93 319.32 976.08 323.32 959.98 327.83 959.86 314.53"/><polygon class="cls-24" points="957.5 341.87 976.5 346.78 976.5 352.14 957.5 356.86 957.5 341.87"/><polygon class="cls-24" points="992.87 367.17 1009.5 362.57 1009.5 377.17 993.04 381.99 992.87 367.17"/><polygon class="cls-24" points="484.81 266.73 484.89 338.94 470.83 343.19 470.76 271.2 484.81 266.73"/><polyline class="cls-24" points="543.51 314.3 532.93 281.55 518.25 285.96 534.55 337.01 534.86 337.1"/><polygon class="cls-24" points="509.68 355.31 524.43 350.75 518.25 330.83 509.37 304.26 509.68 355.31"/><polyline class="cls-24" points="575.79 375.55 590 371.53 589.96 299.05 575.66 303.45"/><polyline class="cls-24" points="758.17 431.69 772.65 427.41 772.73 355.23 758.06 359.71"/><polygon class="cls-24" points="712.49 345.66 741.38 401.46 741.26 368.56 726.86 341.18 712.49 345.66"/><polygon class="cls-24" points="829.5 381.52 844.5 377.24 844.5 391.73 829.5 396.29 829.5 381.52"/><polygon class="cls-24" points="813.5 395.78 813.5 391.15 797.55 386.39 797.68 400.08 813.5 395.78"/><polygon class="cls-24" points="827.16 409.22 841.54 404.89 841.62 419.1 827.26 423.27 827.16 409.22"/><polygon class="cls-24" points="829.73 439.34 845.5 434.86 845.5 450.07 829.76 454.18 829.73 439.34"/><polygon class="cls-24" points="811.8 416.44 811.64 424.51 796.5 428.97 796.5 413.85 811.8 416.44"/><polygon class="cls-24" points="709.4 416.63 730.02 410.38 708.94 369.6 709.4 416.63"/><polygon class="cls-24" points="884.88 348.67 900.79 343.88 890.59 322.1 885.03 320.09 884.88 348.67"/><path class="cls-24" d="M815.75,246.45l0.1,51.44s-1,9.5,6.49,16c0,0-7.36,1.74-14.94-5a20.65,20.65,0,0,1-5.56-12l-0.16-46Z"/><path class="cls-24" d="M899.3,302.69L898.94,296s0.56-1.48-15.44-5.4v16.7Z"/><path class="cls-24" d="M860.5,260.47v45.88s-1.51,23-29.55,23.62c0,0,15-8.49,15-21.31l-0.06-43.91Z"/><path class="cls-24" d="M391,298.56l15-4.49,5.79,4.25s9.11,7.72,1.85,13C413.61,311.29,404.85,315.49,391,298.56Z"/><polygon class="cls-24" points="423.59 275.4 435.02 271.85 446.12 263.56 434.69 267.11 423.59 275.4"/><path class="cls-14" d="M390.89,194.38V156.83l25.25,7.77v7.69l-16.49-5.08v7.05l15.59,4.8v7.27l-15.59-4.8v7.8l17.45,5.37v7.74Z"/><path class="cls-14" d="M450.93,212.87l-15.12-29.21-0.16,0,0.21,24.62-8.8-2.71V168l10.34,3.18,15.06,29.14,0.16,0-0.21-24.57,8.8,2.71V216Z"/><path class="cls-14" d="M543.84,243.6l-17.41-5.36-27.29-80.49,19.55,6L535.39,220l0.41,0.13,16.6-46,19.24,5.93Z"/><path class="cls-14" d="M678.24,285V212.9l17.51,5.39v72.09Z"/><path class="cls-14" d="M749.11,249.59v57.22l-17.41-5.36V244.23L711.33,238V223.09L769.47,241v14.87Z"/><path class="cls-14" d="M815.09,329.07c-18.94-5.83-30.75-21.28-30.75-38.59v-44.9l17.31,5.33v43.48c0,7.74,3.77,16,13.54,19s13.54-3,13.54-10.7V259.25l17.41,5.36v44.9C846.14,326.82,833.92,334.87,815.09,329.07Z"/><path class="cls-14" d="M906.42,355.26l-15.58-33.41L884.93,320v28.61l-17.11-5.27V271.29l27.49,8.47c13.85,4.26,27.59,13.79,27.59,30.29,0,9.67-5.7,14.84-15,14.84l18.84,36.65ZM894.1,293.43l-9.27-2.85v16.8l8.25,2.54c5.6,1.72,12.63,2.46,12.63-4.87C905.71,298.32,899.29,295,894.1,293.43Z"/><path class="cls-14" d="M943,366.51V294.43l48.47,14.93v14.76l-31.67-9.75V327.9l29.94,9.22v13.95l-29.94-9.22v15l33.5,10.32V382Z"/><path class="cls-14" d="M558.7,370.36l0.41-50.89-0.31-.09-18.74,45.24-12.22-3.76-18.23-56.62-0.31-.09,0.41,51.14-16.39-5V278.14l24.74,7.62L534.47,337l0.41,0.13,15.68-41.4,25.15,7.75V375.6Z"/><path class="cls-14" d="M738.31,425.67l-29-56.08L709,369.5l0.41,47.27-16.9-5.21V339.48l19.86,6.11,28.92,55.95,0.31,0.09-0.41-47.17,16.9,5.21v72.09Z"/><path class="cls-14" d="M780.57,438.69V366.6L829,381.52v14.76l-31.67-9.75v13.54l29.94,9.22v13.95L797.37,414v15l33.5,10.32v14.87Z"/>
<path class="cls-14" d="M453.32,337.91V265.82l17.51,5.39V343.3Z"/><path class="cls-14" d="M423.59,275.4a25.9,25.9,0,0,0-12.83-10.16c-4.48-1.38-10.08-1.58-10.08,4.12,0,4.79,4.28,7.63,11.1,11.87,9.78,6.17,22.4,14.23,22.4,28.59,0,16.6-13.34,19.92-27.59,15.53-10.28-3.17-20.67-10.13-27-18.69l11.4-8.1c3.46,5.44,9.88,10.68,15.58,12.43,5.3,1.63,10,1,10-4.77,0-5.5-5.5-8.92-15-14.89-9.16-5.77-18.43-13.31-18.43-26.34,0-16,14.46-18.15,27.9-14a51.82,51.82,0,0,1,23.62,16.13Z"/><path class="cls-14" d="M619.8,268.93c-22.5-6.93-39.2-27.55-39.2-50.36,0-23.11,16.7-32.53,39.2-25.6s39.3,26.66,39.3,49.78C659.1,265.55,642.4,275.89,619.8,268.93Zm0-60.28c-12.22-3.76-20.57,3-20.57,15.66,0,13,8.45,25,20.57,28.73s20.67-3,20.67-16C640.47,224.38,632,212.41,619.8,208.65Z"/><path class="cls-14" d="M634.39,396.12c-22.5-6.93-39.2-27.55-39.2-50.36,0-23.11,16.7-32.53,39.2-25.6s39.3,26.66,39.3,49.78C673.7,392.75,657,403.08,634.39,396.12Zm0-60.28c-12.22-3.76-20.57,3-20.57,15.66,0,13,8.45,25,20.57,28.73s20.67-3,20.67-16C655.06,351.58,646.61,339.61,634.39,335.84Z"/>
<polygon class="cls-1" points="540.26 364.5 558.34 359.4 558.8 319.78 540.26 364.5"/>
</g></g></svg>