<svg id="Calque_1" data-name="Calque 1" xmlns="http://www.w3.org/2000/svg" viewBox="0 0 154 118"><defs><style>.cls-1{fill:#e7a383;}.cls-2{fill:#bcd47c;}.cls-3{fill:#26a34b;opacity:0.88;}.cls-4{fill:#edd5a8;}.cls-5{fill:#dbc296;}.cls-6{fill:#fff5e3;}.cls-7{fill:#e88a5e;}</style></defs><title>cliquez sur les années</title><ellipse class="cls-1" cx="83.52" cy="97.64" rx="26.62" ry="9.92"/><path class="cls-2" d="M89.79,86.61c-2-.18-4.11-0.28-6.27-0.28-14.7,0-26.62,4.44-26.62,9.92s11.92,9.92,26.62,9.92c12.52,0,23-3.22,25.87-7.56a4.28,4.28,0,0,0,.76-2.36C110.15,91.58,101.47,87.66,89.79,86.61Z"/><path class="cls-3" d="M85.46,93.26c-0.62-.06-1.27-0.09-1.94-0.09-4.55,0-8.24,1.38-8.24,3.07s3.69,3.07,8.24,3.07c3.88,0,7.13-1,8-2.34a1.32,1.32,0,0,0,.23-0.73C91.77,94.8,89.08,93.59,85.46,93.26Z"/><polygon class="cls-4" points="139.21 10.44 146.9 12.84 24.1 56.07 16.26 55.75 7.29 53.35 139.21 10.44"/><polygon class="cls-5" points="16 82.17 16 55.75 7.16 53.35 7.26 79.61 16 82.17"/><polygon class="cls-5" points="84 98.39 84 56.07 78.5 54.66 78.71 96.89 84 98.39"/><polygon class="cls-4" points="88.61 96.65 88.55 54.63 83.23 53.23 83.55 98.36 88.61 96.65"/><polygon class="cls-6" points="147 12.84 147 39.42 16 82.01 16 55.75 147 12.84"/><path class="cls-7" d="M25.79,65.48a0.93,0.93,0,0,0-.53-0.23,1.7,1.7,0,0,0-.72.1,2.5,2.5,0,0,0-.76.41,3,3,0,0,0-.61.64,3.15,3.15,0,0,0-.4.81,2.85,2.85,0,0,0-.14.89,2.06,2.06,0,0,0,.14.8,1.35,1.35,0,0,0,.4.54,1.17,1.17,0,0,0,.59.25,1.61,1.61,0,0,0,.73-0.08,2.29,2.29,0,0,0,.79-0.45,2.58,2.58,0,0,0,.57-0.71L27.06,69A4.11,4.11,0,0,1,26,70.18a4.51,4.51,0,0,1-1.32.72,4,4,0,0,1-1.42.23,2.27,2.27,0,0,1-1.13-.32A2,2,0,0,1,21.39,70a3.1,3.1,0,0,1-.27-1.35,4.43,4.43,0,0,1,.27-1.52,4.83,4.83,0,0,1,.74-1.34,5.21,5.21,0,0,1,1.13-1.07A5.44,5.44,0,0,1,24.68,64a3.75,3.75,0,0,1,.58-0.14,2.86,2.86,0,0,1,.6,0,2,2,0,0,1,.56.11,1.4,1.4,0,0,1,.48.3Z"/><path class="cls-7" d="M27.91,63.06l1.45-.48v5.25l2.69-.89v1.34l-4.14,1.37V63.06Z"/><path class="cls-7" d="M32.84,61.44L34.29,61v6.59L32.84,68V61.44Z"/><path class="cls-7" d="M42.83,64.73l-4,1.32a4.32,4.32,0,0,1-1.43.24A2.26,2.26,0,0,1,36.27,66a1.93,1.93,0,0,1-.75-0.82,2.94,2.94,0,0,1-.27-1.34,4,4,0,0,1,.28-1.46,5,5,0,0,1,.75-1.32A5.43,5.43,0,0,1,37.4,60a5.18,5.18,0,0,1,1.38-.7,3.69,3.69,0,0,1,1.38-.21,2.41,2.41,0,0,1,1.12.33,2,2,0,0,1,.75.82,2.72,2.72,0,0,1,.28,1.27,3.34,3.34,0,0,1-.08.71,3.63,3.63,0,0,1-.24.71,3.3,3.3,0,0,1-.41.67,3.4,3.4,0,0,1-.59.58v0l1.84-.61v1.12Zm-6.06-1.38a1.67,1.67,0,0,0,.16.75,1.27,1.27,0,0,0,.43.5,1.38,1.38,0,0,0,.64.22,1.86,1.86,0,0,0,.78-0.1,2.66,2.66,0,0,0,.78-0.42,3.35,3.35,0,0,0,.64-0.64,3.11,3.11,0,0,0,.43-0.79A2.43,2.43,0,0,0,40.79,62a1.67,1.67,0,0,0-.16-0.75,1.29,1.29,0,0,0-.43-0.5,1.4,1.4,0,0,0-.64-0.22,1.86,1.86,0,0,0-.78.1,2.64,2.64,0,0,0-.78.42,3.32,3.32,0,0,0-.64.64,3.12,3.12,0,0,0-.43.79A2.43,2.43,0,0,0,36.76,63.35Z"/><path class="cls-7" d="M49.1,60.11a3.7,3.7,0,0,1-.18,1.14,3.61,3.61,0,0,1-.53,1,3.88,3.88,0,0,1-.87.86,4.39,4.39,0,0,1-1.2.6,3.27,3.27,0,0,1-1.21.2,1.65,1.65,0,0,1-.87-0.28A1.51,1.51,0,0,1,43.72,63a2.7,2.7,0,0,1-.18-1V57.9L45,57.42v4a1.35,1.35,0,0,0,.1.54,0.85,0.85,0,0,0,.27.36,0.83,0.83,0,0,0,.42.16,1.3,1.3,0,0,0,.54-0.07,1.77,1.77,0,0,0,.53-0.28,2,2,0,0,0,.42-0.44,2.09,2.09,0,0,0,.27-0.54,1.88,1.88,0,0,0,.1-0.6v-4l1.45-.48v4.05Z"/><path class="cls-7" d="M50.5,55.6L55,54.12v1.34l-3,1v1.23l2.86-.95v1.34L52,59v1.34l3.19-1.06v1.34L50.5,62.19V55.6Z"/><path class="cls-7" d="M56,59L59.31,54,56.09,55V53.75l5-1.65v1.29l-3.28,5.05,3.39-1.12v1.34L56,60.38V59Z"/><path class="cls-7" d="M68.19,51.36a0.7,0.7,0,0,0-.48-0.17,1.68,1.68,0,0,0-.57.08,2,2,0,0,0-.64.37,1.16,1.16,0,0,0-.24.29,0.69,0.69,0,0,0-.09.35,0.36,0.36,0,0,0,.22.38,1.59,1.59,0,0,0,.56.08l0.73,0a2.43,2.43,0,0,1,.73.08,1.08,1.08,0,0,1,.56.36,1.32,1.32,0,0,1,.22.85A2.58,2.58,0,0,1,69,55a3.1,3.1,0,0,1-.55.86,3.7,3.7,0,0,1-.81.67,4.71,4.71,0,0,1-1,.45,3.52,3.52,0,0,1-1.19.2,2.08,2.08,0,0,1-1-.29l1-1.48a1,1,0,0,0,.56.27,1.5,1.5,0,0,0,.7-0.07,2.14,2.14,0,0,0,.36-0.16,1.83,1.83,0,0,0,.33-0.23A1.13,1.13,0,0,0,67.66,55a0.68,0.68,0,0,0,.09-0.34,0.39,0.39,0,0,0-.23-0.4,1.6,1.6,0,0,0-.57-0.1H66.2a2.59,2.59,0,0,1-.75-0.08,1.13,1.13,0,0,1-.57-0.35,1.2,1.2,0,0,1-.23-0.81,2.42,2.42,0,0,1,.21-1A3.19,3.19,0,0,1,65.42,51a3.78,3.78,0,0,1,.81-0.67,4.34,4.34,0,0,1,.94-0.45,3.78,3.78,0,0,1,1.08-.2,1.79,1.79,0,0,1,.94.22Z"/><path class="cls-7" d="M75.84,51.27a3.7,3.7,0,0,1-.18,1.14,3.62,3.62,0,0,1-.53,1,3.9,3.9,0,0,1-.87.86,4.36,4.36,0,0,1-1.2.6,3.27,3.27,0,0,1-1.21.2A1.65,1.65,0,0,1,71,54.81a1.51,1.51,0,0,1-.53-0.68,2.7,2.7,0,0,1-.18-1V49.06l1.45-.48v4a1.35,1.35,0,0,0,.1.54,0.81,0.81,0,0,0,.7.52,1.28,1.28,0,0,0,.54-0.07,1.77,1.77,0,0,0,.53-0.28A2.07,2.07,0,0,0,74,52.84a2,2,0,0,0,.27-0.54,1.88,1.88,0,0,0,.1-0.6v-4l1.45-.48v4.05Z"/><path class="cls-7" d="M77.18,46.78l2.55-.84a4.86,4.86,0,0,1,1-.22,1.8,1.8,0,0,1,.79.06,1,1,0,0,1,.54.44,1.69,1.69,0,0,1,.2.9,2.51,2.51,0,0,1-.36,1.31,2.57,2.57,0,0,1-1.06,1l1.67,2.23-1.74.58L79.35,50l-0.72.24v2.63l-1.45.48V46.78ZM78.63,49l0.86-.28,0.41-.15a1.74,1.74,0,0,0,.4-0.21,1.08,1.08,0,0,0,.29-0.32,0.85,0.85,0,0,0,.12-0.46,0.55,0.55,0,0,0-.1-0.37,0.43,0.43,0,0,0-.26-0.14,1,1,0,0,0-.36,0l-0.4.11-0.95.31V49Z"/><path class="cls-7" d="M86,43.85l1.45-.48v5.25l2.69-.89v1.34L86,50.45V43.85Z"/><path class="cls-7" d="M91,42.2l4.48-1.48v1.34l-3,1v1.23l2.86-.95v1.34l-2.86.95V47l3.19-1.06v1.34L91,48.79V42.2Z"/><path class="cls-7" d="M100.09,40.81a0.71,0.71,0,0,0-.48-0.17,1.68,1.68,0,0,0-.57.08,2,2,0,0,0-.64.37,1.15,1.15,0,0,0-.24.29,0.68,0.68,0,0,0-.09.35,0.36,0.36,0,0,0,.22.38,1.58,1.58,0,0,0,.56.08l0.73,0a2.44,2.44,0,0,1,.73.08,1.09,1.09,0,0,1,.56.36,1.33,1.33,0,0,1,.22.85,2.59,2.59,0,0,1-.21,1,3.11,3.11,0,0,1-.55.86,3.67,3.67,0,0,1-.81.67,4.59,4.59,0,0,1-1,.45,3.51,3.51,0,0,1-1.19.2,2.07,2.07,0,0,1-1-.29l1-1.48a1,1,0,0,0,.56.28,1.52,1.52,0,0,0,.7-0.07A2.05,2.05,0,0,0,99,44.94a1.71,1.71,0,0,0,.33-0.23,1.15,1.15,0,0,0,.23-0.29,0.69,0.69,0,0,0,.09-0.34,0.39,0.39,0,0,0-.23-0.39,1.56,1.56,0,0,0-.57-0.1H98.1a2.61,2.61,0,0,1-.75-0.08,1.13,1.13,0,0,1-.57-0.35,1.2,1.2,0,0,1-.23-0.81,2.43,2.43,0,0,1,.21-1,3.19,3.19,0,0,1,.56-0.85,3.76,3.76,0,0,1,.81-0.67,4.31,4.31,0,0,1,.94-0.45,3.75,3.75,0,0,1,1.08-.2,1.79,1.79,0,0,1,.94.22Z"/><path class="cls-7" d="M107.1,36.88l1.2-.4,2.87,5.64-1.64.54L109,41.47l-2.56.85-0.55,1.58-1.6.53Zm0.56,1.73-0.8,2.31,1.61-.53Z"/><path class="cls-7" d="M111.83,35.32l2-.65,2.8,3.66h0V33.74l1.45-.48v6.59l-1.9.63-2.88-3.74h0v4.69l-1.45.48V35.32Z"/><path class="cls-7" d="M119.42,32.81l2-.65,2.8,3.65h0V31.23l1.45-.48v6.59l-1.9.63-2.88-3.74h0v4.69l-1.45.48V32.81Z"/><path class="cls-7" d="M127.07,30.29l4.48-1.48v1.34l-3,1v1.23l2.86-.94v1.34l-2.86.95v1.34L131.71,34v1.34l-4.65,1.54V30.29Zm2.22-2.56,1.9-.63L129.57,29l-1.23.41Z"/><path class="cls-7" d="M132.93,28.35l4.48-1.48v1.34l-3,1v1.23l2.86-.95v1.34l-2.86.95v1.34l3.19-1.06V33.4l-4.65,1.54V28.35Z"/><path class="cls-7" d="M142,27a0.7,0.7,0,0,0-.48-0.17,1.68,1.68,0,0,0-.57.08,1.77,1.77,0,0,0-.33.14,1.85,1.85,0,0,0-.32.22,1.15,1.15,0,0,0-.24.29,0.68,0.68,0,0,0-.09.35,0.36,0.36,0,0,0,.22.38,1.58,1.58,0,0,0,.56.08l0.73,0a2.41,2.41,0,0,1,.73.07,1.1,1.1,0,0,1,.56.36,1.33,1.33,0,0,1,.22.85,2.59,2.59,0,0,1-.21,1,3.11,3.11,0,0,1-.55.86,3.65,3.65,0,0,1-.81.67,4.64,4.64,0,0,1-1,.45,3.54,3.54,0,0,1-1.19.2,2.07,2.07,0,0,1-1-.29l1-1.48a1,1,0,0,0,.56.27,1.5,1.5,0,0,0,.7-0.07,2.12,2.12,0,0,0,.36-0.16,1.76,1.76,0,0,0,.33-0.23,1.13,1.13,0,0,0,.23-0.29,0.69,0.69,0,0,0,.09-0.34,0.39,0.39,0,0,0-.23-0.4,1.58,1.58,0,0,0-.57-0.1H140a2.55,2.55,0,0,1-.75-0.08,1.12,1.12,0,0,1-.57-0.35,1.2,1.2,0,0,1-.23-0.81,2.42,2.42,0,0,1,.21-1,3.21,3.21,0,0,1,.56-0.85A3.82,3.82,0,0,1,140,26a4.4,4.4,0,0,1,.94-0.45,3.75,3.75,0,0,1,1.08-.2,1.79,1.79,0,0,1,.94.22Z"/></svg>