<?xml version="1.0" encoding="utf-8"?>
<!-- Generator: Adobe Illustrator 17.0.0, SVG Export Plug-In . SVG Version: 6.00 Build 0)  -->
<!DOCTYPE svg PUBLIC "-//W3C//DTD SVG 1.1//EN" "http://www.w3.org/Graphics/SVG/1.1/DTD/svg11.dtd">
<svg version="1.1" id="Calque_1" xmlns="http://www.w3.org/2000/svg" xmlns:xlink="http://www.w3.org/1999/xlink" x="0px" y="0px"
	 width="1280px" height="800px" viewBox="0 0 1280 800" enable-background="new 0 0 1280 800" xml:space="preserve">
<g>
	<path fill="#FFFFFF" d="M567.645,377.101c0.216,0,0.408,0.155,0.449,0.374c0.046,0.246-0.115,0.484-0.361,0.533
		c-0.052,0.011-5.287,1.083-6.365,3.461c-1.052,2.316-1.799,9.317,7.25,13.844c2.444,1.223,5.298,1.819,8.321,2.451
		c7.62,1.592,16.2,3.383,19.079,16.498c2.883-13.116,11.469-14.906,19.094-16.498c3.024-0.632,5.882-1.229,8.327-2.451
		c3.774-1.886,10.084-7.206,6.95-13.845c-1.066-2.262-5.087-3.233-5.883-3.406c-0.083-0.015-0.18-0.035-0.277-0.056
		c-0.243-0.054-0.399-0.29-0.351-0.536c0.047-0.243,0.281-0.406,0.528-0.362c0,0,0.107,0.019,0.296,0.06
		c0.528,0.099,1.066,0.15,1.585,0.15c2.091,0,3.986-0.832,5.475-2.408c2.241-2.367,3.393-6.16,3.161-10.404
		c-0.24-4.367-1.523-6.58-3.813-6.58c-2.928,0-6.509,3.406-6.545,3.44c-0.181,0.174-0.469,0.169-0.645-0.011
		c-0.176-0.18-0.173-0.468,0.006-0.645c9.597-9.473,7.73-20.763,4.598-24.702c-2.323-2.923-6.178-3.537-9.003-3.537
		c-1.959,0-4.06,0.283-6.245,0.838c-3.617,0.922-6.649,1.37-9.267,1.37c-3.5,0-6.187-0.836-7.993-2.486
		c-1.805,1.651-4.488,2.486-7.986,2.486c-2.615,0-5.646-0.448-9.266-1.37c-2.264-0.577-4.427-0.87-6.429-0.87
		c-2.83,0-6.652,0.617-8.795,3.554c-1.355,1.862-1.792,3.923-1.299,6.124c0.671,2.991,3.422,7.624,12.721,12.709l0.594,0.321
		c0.219,0.117,0.306,0.386,0.194,0.608c-0.111,0.222-0.379,0.316-0.603,0.209c-0.067-0.031-0.19-0.098-0.363-0.193l-0.259-0.142
		c-0.001-0.001-0.002-0.001-0.002-0.001c-3.221-1.75-6.107-2.637-8.577-2.637c-4.246,0-6.943,2.712-8.014,8.062
		c-0.676,3.372-0.639,10.076,2.339,13.71c1.708,2.085,4.172,2.875,7.294,2.346C567.594,377.103,567.619,377.101,567.645,377.101z"/>
	<g>
		<path fill="#967C49" d="M566.361,388.411h0.472v-2.865h-0.472v-0.634h1.728v0.634h-0.546v2.871h1.137v-0.584h0.685v1.213h-3.004
			V388.411z"/>
		<path fill="#967C49" d="M569.31,386.545c0.396-0.314,0.591-0.615,0.603-0.792c-0.22-0.062-0.364-0.233-0.364-0.465
			c0-0.239,0.213-0.452,0.484-0.452c0.27,0,0.509,0.194,0.509,0.584c0,0.364-0.257,0.917-1.043,1.37L569.31,386.545z"/>
		<path fill="#967C49" d="M570.989,388.411h0.472v-2.865h-0.472v-0.634h3.085v1.181h-0.678v-0.554h-1.225v1.106h1.25v0.604h-1.25
			v1.168h1.231v-0.553h0.679v1.182h-3.092V388.411z M572.309,384.34l0.691-0.942c0.094-0.119,0.22-0.195,0.346-0.195
			c0.169,0,0.307,0.138,0.307,0.321c0,0.119-0.063,0.245-0.194,0.345l-0.936,0.68L572.309,384.34z"/>
		<path fill="#967C49" d="M574.548,386.979c0-1.244,0.967-2.142,2.174-2.142c0.961,0,1.602,0.502,1.602,0.999
			c0,0.301-0.195,0.509-0.452,0.509c-0.283,0-0.478-0.175-0.478-0.446c0-0.082,0.019-0.163,0.044-0.214
			c-0.119-0.094-0.359-0.188-0.735-0.188c-0.804,0-1.42,0.616-1.42,1.477c0,0.83,0.578,1.488,1.451,1.488
			c0.484,0,0.88-0.213,1.188-0.545l0.471,0.49c-0.402,0.446-0.999,0.716-1.659,0.716
			C575.459,389.121,574.548,388.266,574.548,386.979z"/>
		<path fill="#967C49" d="M578.836,386.979c0-1.213,0.88-2.142,2.136-2.142c1.251,0,2.105,0.936,2.105,2.142
			c0,1.213-0.88,2.142-2.136,2.142C579.69,389.121,578.836,388.184,578.836,386.979z M582.342,386.979
			c0-0.862-0.584-1.483-1.382-1.483c-0.804,0-1.389,0.616-1.389,1.483c0,0.86,0.585,1.482,1.389,1.482
			C581.757,388.46,582.342,387.846,582.342,386.979z"/>
		<path fill="#967C49" d="M583.601,388.411h0.472v-2.865h-0.472v-0.634h1.728v0.634h-0.546v2.871h1.137v-0.584h0.685v1.213h-3.004
			V388.411z"/>
		<path fill="#967C49" d="M587.047,388.411h0.472v-2.865h-0.472v-0.634h3.085v1.181h-0.678v-0.554h-1.225v1.106h1.25v0.604h-1.25
			v1.168h1.231v-0.553h0.679v1.182h-3.092V388.411z"/>
		<path fill="#967C49" d="M592.058,388.411h0.471v-2.865h-0.471v-0.634h1.564c1.495,0,2.382,0.78,2.382,2.029
			c0,1.263-0.836,2.105-2.457,2.105h-1.489V388.411z M593.647,388.411c1.069,0,1.621-0.578,1.621-1.465c0-0.904-0.641-1.4-1.672-1.4
			h-0.358v2.865H593.647z"/>
		<path fill="#967C49" d="M596.528,388.411H597v-2.865h-0.472v-0.634h3.086v1.181h-0.68v-0.554h-1.225v1.106h1.25v0.604h-1.25v1.168
			h1.231v-0.553h0.679v1.182h-3.092V388.411z"/>
		<path fill="#967C49" d="M601.54,388.411h0.471v-2.865h-0.471v-0.634h1.727v0.634h-0.545v2.871h1.136v-0.584h0.685v1.213h-3.003
			V388.411z"/>
		<path fill="#967C49" d="M604.488,386.545c0.396-0.314,0.591-0.615,0.602-0.792c-0.218-0.062-0.363-0.233-0.363-0.465
			c0-0.239,0.213-0.452,0.484-0.452c0.269,0,0.509,0.194,0.509,0.584c0,0.364-0.258,0.917-1.043,1.37L604.488,386.545z"/>
		<path fill="#967C49" d="M606.166,388.411h0.503v-2.865h-0.503v-0.634h1.716v0.634h-0.503v2.865h0.503v0.635h-1.716V388.411z"/>
		<path fill="#967C49" d="M608.317,388.411h0.49l0.132-2.865h-0.515v-0.634h1.131l1.269,2.299l1.269-2.299h1.125v0.634h-0.515
			l0.131,2.865h0.491v0.635h-1.697v-0.635h0.497l-0.082-2.13l-1.181,2.074h-0.095l-1.182-2.074l-0.081,2.13h0.496v0.635h-1.684
			V388.411z"/>
		<path fill="#967C49" d="M613.554,388.411h0.359l1.029-2.872h-0.451v-0.628h2.337v0.628h-0.452l1.031,2.872h0.357v0.635h-1.589
			v-0.629h0.478l-0.232-0.678h-1.547l-0.232,0.678h0.503v0.629h-1.59V388.411z M616.224,387.148l-0.578-1.628l-0.578,1.628H616.224z
			"/>
		<path fill="#967C49" d="M618.011,386.991c0-1.275,0.967-2.155,2.175-2.155c0.961,0,1.602,0.502,1.602,0.999
			c0,0.301-0.195,0.509-0.453,0.509c-0.282,0-0.478-0.175-0.478-0.446c0-0.082,0.019-0.163,0.044-0.214
			c-0.119-0.094-0.358-0.188-0.735-0.188c-0.805,0-1.421,0.597-1.421,1.488c0,0.912,0.66,1.496,1.357,1.496
			c0.434,0,0.735-0.094,1-0.264v-0.71h-1.031v-0.602h1.728v2.142h-0.678v-0.309c-0.29,0.227-0.66,0.384-1.125,0.384
			C618.979,389.121,618.011,388.317,618.011,386.991z"/>
		<path fill="#967C49" d="M622.52,388.411h0.471v-2.865h-0.471v-0.634h3.085v1.181h-0.678v-0.554h-1.225v1.106h1.25v0.604h-1.25
			v1.168h1.231v-0.553h0.679v1.182h-3.091V388.411z"/>
	</g>
	<g>
		<g>
			<path fill="#967C49" d="M585.115,344.039v2.218h0.515v0.634h-1.677v-0.634h0.471v-2.865h-0.471v-0.635h1.075l2.036,2.595v-1.96
				h-0.515v-0.635h1.659v0.635h-0.453v3.506l-0.384,0.013L585.115,344.039z"/>
			<path fill="#967C49" d="M588.474,346.257h0.359l1.03-2.871h-0.452v-0.629h2.337v0.629h-0.452l1.031,2.871h0.358v0.634h-1.589
				v-0.628h0.478l-0.232-0.678h-1.546l-0.233,0.678h0.503v0.628h-1.589V346.257z M591.144,344.994l-0.578-1.628l-0.578,1.628
				H591.144z"/>
			<path fill="#967C49" d="M594.163,344.039v2.218h0.516v0.634h-1.678v-0.634h0.471v-2.865h-0.471v-0.635h1.075l2.036,2.595v-1.96
				h-0.515v-0.635h1.659v0.635h-0.453v3.506l-0.384,0.013L594.163,344.039z"/>
			<path fill="#967C49" d="M598.508,346.257h0.514v-2.884h-0.766v0.653h-0.672v-1.269h3.587v1.269H600.5v-0.653h-0.767v2.884h0.516
				v0.634h-1.741V346.257z"/>
			<path fill="#967C49" d="M601.551,346.257h0.471v-2.865h-0.471v-0.635h3.086v1.182h-0.68v-0.553h-1.225v1.105h1.25v0.603h-1.25
				v1.169h1.231v-0.553h0.679v1.181h-3.091V346.257z"/>
			<path fill="#967C49" d="M605.104,346.006c0-0.295,0.176-0.491,0.433-0.491c0.276,0,0.453,0.208,0.453,0.409
				c0,0.101-0.019,0.176-0.057,0.251c0.151,0.107,0.384,0.176,0.654,0.176c0.453,0,0.741-0.202,0.741-0.559
				c0-0.339-0.345-0.503-0.76-0.648c-0.766-0.276-1.307-0.521-1.307-1.288c0-0.659,0.533-1.175,1.37-1.175
				c0.772,0,1.369,0.396,1.369,0.892c0,0.295-0.182,0.464-0.421,0.464c-0.29,0-0.452-0.213-0.452-0.421
				c0-0.1,0.019-0.145,0.044-0.195c-0.113-0.069-0.288-0.125-0.547-0.125c-0.407,0-0.647,0.207-0.647,0.508
				c0,0.34,0.345,0.49,0.76,0.641c0.742,0.263,1.301,0.521,1.301,1.288c0,0.785-0.611,1.231-1.457,1.231
				C605.763,346.967,605.104,346.508,605.104,346.006z"/>
		</g>
	</g>
	<path fill="#967C49" d="M596.019,418.981L596.019,418.981c-1.092-0.001-2.001-0.784-2.162-1.862
		c-2.034-13.546-9.526-15.111-17.457-16.768c-3.056-0.638-6.214-1.298-8.964-2.674c-9.764-4.883-10.418-13.023-8.474-17.302
		c0.316-0.697,0.815-1.351,1.486-1.948c-0.826-0.531-1.571-1.197-2.218-1.988c-3.582-4.37-3.689-11.907-2.887-15.906
		c1.477-7.376,5.529-9.614,9.024-10.083c-2.533-2.528-4.113-5.133-4.7-7.755c-0.658-2.934-0.056-5.79,1.741-8.259
		c2.215-3.036,5.996-4.641,10.933-4.641c2.222,0,4.605,0.32,7.082,0.951c3.403,0.867,6.22,1.288,8.613,1.288
		c2.972,0,5.131-0.673,6.413-2c0.409-0.423,0.982-0.666,1.571-0.667c0.59,0,1.163,0.243,1.573,0.666
		c1.284,1.327,3.445,2.001,6.421,2.001c2.395,0,5.212-0.421,8.614-1.288c2.399-0.611,4.719-0.92,6.898-0.92
		c4.887,0,8.715,1.568,11.072,4.535c3.395,4.271,4.604,12.741,0.535,20.919c2.712,0.008,6.021,1.594,6.432,9.08
		c0.272,4.967-1.142,9.475-3.88,12.367c-0.676,0.714-1.421,1.317-2.219,1.803c0.568,0.554,1.009,1.159,1.315,1.807
		c1.753,3.712,2.302,12.113-8.157,17.339c-2.753,1.376-5.913,2.037-8.971,2.674c-7.937,1.657-15.433,3.221-17.471,16.768
		C598.022,418.181,597.093,418.981,596.019,418.981z M572.339,330.71c-4.633,0-8.157,1.474-10.193,4.264
		c-1.638,2.25-2.187,4.85-1.588,7.52c0.602,2.68,2.338,5.368,5.16,7.986c0.135,0.126,0.181,0.32,0.118,0.493
		c-0.063,0.173-0.225,0.291-0.409,0.3c-3.36,0.152-7.681,1.913-9.188,9.44c-0.767,3.829-0.683,11.021,2.697,15.146
		c0.721,0.879,1.57,1.587,2.525,2.105c0.137,0.074,0.226,0.213,0.238,0.368c0.012,0.155-0.057,0.306-0.18,0.399
		c-0.814,0.615-1.394,1.295-1.724,2.023c-1.797,3.956-1.136,11.511,8.049,16.105c2.644,1.323,5.744,1.971,8.741,2.596
		c8.253,1.724,16.047,3.351,18.175,17.528c0.095,0.627,0.623,1.081,1.258,1.083c0.624,0,1.165-0.465,1.257-1.083
		c2.132-14.177,9.931-15.804,18.19-17.528c3-0.625,6.101-1.273,8.747-2.596c9.826-4.911,9.359-12.698,7.739-16.131
		c-0.33-0.701-0.856-1.35-1.56-1.93c-0.117-0.098-0.179-0.248-0.164-0.4c0.017-0.153,0.109-0.288,0.244-0.358
		c0.926-0.482,1.783-1.134,2.547-1.942c2.566-2.711,3.89-6.97,3.631-11.688c-0.296-5.374-2.21-8.215-5.539-8.215
		c-0.227,0-0.463,0.015-0.701,0.044c-0.167,0.022-0.337-0.055-0.433-0.195c-0.096-0.141-0.106-0.325-0.025-0.475
		c4.324-8.05,3.237-16.476-0.071-20.639c-2.178-2.741-5.76-4.189-10.357-4.189c-2.103,0-4.349,0.299-6.673,0.891
		c-3.475,0.886-6.367,1.316-8.839,1.316c-3.233,0-5.615-0.767-7.079-2.279c-0.477-0.492-1.352-0.492-1.828,0.001
		c-1.462,1.512-3.84,2.278-7.071,2.278c-2.47,0-5.361-0.431-8.839-1.316C576.792,331.02,574.485,330.71,572.339,330.71z"/>
	<path fill="#967C49" d="M596.019,417.251L596.019,417.251c-0.227,0-0.419-0.165-0.453-0.39
		c-2.212-14.735-10.651-16.498-18.813-18.202c-3.083-0.645-5.995-1.252-8.544-2.528c-4.104-2.053-6.832-4.906-7.889-8.251
		c-0.867-2.746-0.458-5.308,0.216-6.79c0.629-1.387,2.296-2.364,3.848-3.003c-1.942-0.286-3.559-1.206-4.819-2.743
		c-3.201-3.906-3.266-10.794-2.529-14.47c0.804-4.013,3.002-8.797,8.911-8.797c1.159,0,2.397,0.18,3.708,0.539
		c-4.683-3.314-7.524-6.82-8.304-10.298c-0.546-2.434-0.044-4.808,1.452-6.864c1.876-2.57,5.172-3.929,9.534-3.929
		c2.078,0,4.317,0.302,6.655,0.898c3.544,0.903,6.502,1.342,9.039,1.342c3.46,0,6.036-0.85,7.657-2.527
		c0.172-0.177,0.485-0.178,0.658,0c1.623,1.677,4.202,2.527,7.664,2.527c2.541,0,5.498-0.439,9.041-1.342
		c2.259-0.575,4.437-0.867,6.471-0.867c4.34,0,7.701,1.343,9.719,3.882c3.534,4.445,4.396,14.24-1.924,22.767
		c1.174-0.661,2.516-1.194,3.792-1.194c2.866,0,4.454,2.505,4.726,7.445c0.246,4.495-0.997,8.535-3.41,11.083
		c-1.334,1.409-2.959,2.288-4.758,2.583c1.418,0.622,2.894,1.57,3.547,2.955c1.503,3.182,1.897,10.424-7.366,15.055
		c-2.552,1.276-5.465,1.884-8.549,2.528c-8.168,1.703-16.613,3.467-18.828,18.202C596.438,417.086,596.246,417.251,596.019,417.251z
		 M567.645,377.101c0.216,0,0.408,0.155,0.449,0.374c0.046,0.246-0.115,0.484-0.361,0.533c-0.052,0.011-5.287,1.083-6.365,3.461
		c-1.052,2.316-1.799,9.317,7.25,13.844c2.444,1.223,5.298,1.819,8.321,2.451c7.62,1.592,16.2,3.383,19.079,16.498
		c2.883-13.116,11.469-14.906,19.094-16.498c3.024-0.632,5.882-1.229,8.327-2.451c3.774-1.886,10.084-7.206,6.95-13.845
		c-1.066-2.262-5.087-3.233-5.883-3.406c-0.083-0.015-0.18-0.035-0.277-0.056c-0.243-0.054-0.399-0.29-0.351-0.536
		c0.047-0.243,0.281-0.406,0.528-0.362c0,0,0.107,0.019,0.296,0.06c0.528,0.099,1.066,0.15,1.585,0.15
		c2.091,0,3.986-0.832,5.475-2.408c2.241-2.367,3.393-6.16,3.161-10.404c-0.24-4.367-1.523-6.58-3.813-6.58
		c-2.928,0-6.509,3.406-6.545,3.44c-0.181,0.174-0.469,0.169-0.645-0.011c-0.176-0.18-0.173-0.468,0.006-0.645
		c9.597-9.473,7.73-20.763,4.598-24.702c-2.323-2.923-6.178-3.537-9.003-3.537c-1.959,0-4.06,0.283-6.245,0.838
		c-3.617,0.922-6.649,1.37-9.267,1.37c-3.5,0-6.187-0.836-7.993-2.486c-1.805,1.651-4.488,2.486-7.986,2.486
		c-2.615,0-5.646-0.448-9.266-1.37c-2.264-0.577-4.427-0.87-6.429-0.87c-2.83,0-6.652,0.617-8.795,3.554
		c-1.355,1.862-1.792,3.923-1.299,6.124c0.671,2.991,3.422,7.624,12.721,12.709l0.594,0.321c0.219,0.117,0.306,0.386,0.194,0.608
		c-0.111,0.222-0.379,0.316-0.603,0.209c-0.067-0.031-0.19-0.098-0.363-0.193l-0.259-0.142c-0.001-0.001-0.002-0.001-0.002-0.001
		c-3.221-1.75-6.107-2.637-8.577-2.637c-4.246,0-6.943,2.712-8.014,8.062c-0.676,3.372-0.639,10.076,2.339,13.71
		c1.708,2.085,4.172,2.875,7.294,2.346C567.594,377.103,567.619,377.101,567.645,377.101z"/>
	<path fill="#967C49" d="M578.856,366.097c1.148-3.677-1.194-8.195-3.5-9.988c-2.309,1.793-4.655,6.311-3.506,9.988H578.856z
		 M575.355,357.343c1.714,1.709,3.294,5.005,2.779,7.828h-5.564C572.056,362.348,573.639,359.05,575.355,357.343z"/>
	<path fill="#967C49" d="M580.815,365.909c0.948-4.501-1.901-9.586-4.66-11.497c-0.462-0.321-1.134-0.32-1.597-0.001
		c-2.763,1.911-5.616,6.995-4.668,11.496c-3.515,2.367-4.822,6.683-3.589,12.032c0.148,0.64,0.717,1.073,1.347,1.073
		c0.103,0,0.207-0.012,0.311-0.035c0.745-0.172,1.209-0.915,1.038-1.659c-0.595-2.582-0.979-7.174,2.89-9.382h6.932
		c3.854,2.209,3.476,6.801,2.885,9.384c-0.17,0.745,0.295,1.487,1.04,1.657c0.748,0.172,1.487-0.295,1.657-1.04
		C585.623,372.59,584.318,368.276,580.815,365.909z M583.498,377.731l-0.891-0.204c0.659-2.884,1.065-8.063-3.536-10.516h-7.437
		c-4.616,2.452-4.203,7.632-3.54,10.516l-0.891,0.205c-1.201-5.214,0.166-9.341,3.752-11.396c-1.308-4.255,1.46-9.316,4.13-11.163
		l0.117-0.081h0.286l0.14,0.082c2.667,1.847,5.429,6.909,4.122,11.163C583.325,368.391,584.69,372.518,583.498,377.731z"/>
	<path fill="#967C49" d="M604.981,365.989c-0.223-0.498-0.717-0.818-1.263-0.818h-7.715c-0.764,0-1.383,0.62-1.383,1.383
		c0,0.764,0.62,1.383,1.383,1.383h6.764c0.735,2.308,0.365,4.851-1.007,6.549c-1.279,1.582-3.218,2.195-5.457,1.718
		c-0.189-0.039-0.385-0.039-0.574,0c-2.24,0.477-4.176-0.136-5.455-1.718c-1.536-1.902-1.816-4.863-0.695-7.367
		c0.161-0.36,0.161-0.771,0-1.131c-1.121-2.504-0.842-5.465,0.695-7.367c1.265-1.567,3.174-2.181,5.383-1.734
		c0.204,0.054,0.418,0.063,0.628,0.021c2.659-0.528,4.651,0.191,5.473,1.97c0.037,0.08,0.073,0.192,0.085,0.237
		c0.187,0.74,0.938,1.184,1.681,1.001c0.74-0.188,1.188-0.941,1.001-1.681c-0.016-0.061-0.101-0.385-0.255-0.716
		c-1.328-2.876-4.468-4.235-8.24-3.577c-3.158-0.585-6.026,0.409-7.909,2.74c-2.09,2.587-2.578,6.324-1.302,9.671
		c-1.275,3.347-0.788,7.084,1.302,9.671c1.881,2.328,4.746,3.32,7.895,2.744c0.587,0.107,1.164,0.159,1.726,0.159
		c2.457,0,4.638-1.009,6.169-2.904C606.122,373.492,606.541,369.474,604.981,365.989z M603.191,375.644
		c-1.347,1.669-3.28,2.558-5.462,2.558c-0.556,0-1.129-0.058-1.713-0.176c-2.872,0.581-5.482-0.287-7.175-2.381
		c-1.953-2.418-2.347-5.965-1.025-9.09c-1.322-3.125-0.928-6.673,1.025-9.089c1.694-2.097,4.308-2.964,7.184-2.38
		c3.462-0.657,6.226,0.47,7.405,3.023c0.121,0.264,0.19,0.527,0.197,0.556l-0.886,0.226c0-0.002-0.054-0.209-0.142-0.398
		c-1.001-2.168-3.427-3.099-6.493-2.49l-0.547,0.108v-0.18c-2.446-0.414-4.568,0.331-6.005,2.111c-1.777,2.2-2.099,5.469-0.82,8.327
		l0.084,0.187l-0.084,0.187c-1.279,2.858-0.957,6.127,0.82,8.327c1.509,1.868,3.769,2.592,6.367,2.043l0.095-0.02l0.095,0.02
		c2.598,0.549,4.859-0.175,6.368-2.043c1.722-2.132,2.079-5.265,0.937-8.057h-7.413v-0.915h8.011l0.122,0.27
		C605.554,369.537,605.184,373.178,603.191,375.644z"/>
	<path fill="#967C49" d="M622.158,364.7c1.208-0.99,1.773-2.241,1.632-3.615l-0.024-0.238l0.043-0.036
		c0.075-1.305-0.493-2.489-1.647-3.438c-2.549-2.09-7.413-2.701-11.682-1.491v10.313C614.748,367.401,619.612,366.79,622.158,364.7z
		 M611.406,356.597c3.821-0.895,7.969-0.314,10.169,1.491c0.945,0.775,1.383,1.691,1.306,2.723c-0.02,0.12-0.024,0.243-0.012,0.366
		c0.109,1.066-0.327,2.011-1.298,2.807c-2.198,1.805-6.343,2.386-10.164,1.492V356.597z"/>
	<path fill="#967C49" d="M618.436,368.301c1.908-0.399,3.615-1.132,4.889-2.178c1.637-1.342,2.453-3.134,2.311-5.06
		c0.161-1.947-0.655-3.759-2.307-5.114c-3.104-2.547-8.743-3.26-13.713-1.733c-0.58,0.179-0.977,0.715-0.977,1.323v10.878
		c-0.005,0.051-0.001,0.102,0,0.153c0,0.003,0,0.006,0,0.01c0.001,0.024-0.003,0.05,0,0.074v10.902c0,0.764,0.62,1.383,1.383,1.383
		c0.764,0,1.383-0.619,1.383-1.383v-9.013c0.178,0.063,0.356,0.126,0.543,0.192c4.492,1.584,12.008,4.236,11.046,8.563
		c-0.166,0.746,0.305,1.485,1.051,1.651c0.101,0.022,0.201,0.033,0.302,0.033c0.634,0,1.206-0.438,1.349-1.083
		C626.73,373.247,622.757,370.302,618.436,368.301z M624.793,377.697l-0.892-0.199c1.139-5.127-6.553-7.84-11.644-9.636
		c-0.658-0.233-1.25-0.442-1.776-0.64v10.334h-0.916v-22.355l0.323-0.099c4.617-1.418,10.021-0.761,12.854,1.564
		c1.45,1.19,2.127,2.709,1.965,4.394c0.148,1.668-0.533,3.17-1.969,4.349c-1.907,1.566-4.984,2.371-8.201,2.299
		C619.544,369.556,625.949,372.496,624.793,377.697z"/>
	<g>
		<path fill="#E3000B" d="M576.785,355.549c0,0.801-0.652,1.444-1.441,1.444c-0.792,0-1.444-0.643-1.444-1.444
			c0-0.792,0.652-1.436,1.444-1.436C576.133,354.113,576.785,354.757,576.785,355.549z"/>
	</g>
	<g>
		<path fill="#E3000B" d="M579.915,366.555c0,0.4-0.326,0.722-0.722,0.722c-0.391,0-0.723-0.322-0.723-0.722
			c0-0.392,0.331-0.722,0.723-0.722C579.589,365.832,579.915,366.162,579.915,366.555z"/>
	</g>
	<g>
		<path fill="#E3000B" d="M572.232,366.555c0,0.4-0.321,0.722-0.721,0.722c-0.397,0-0.718-0.322-0.718-0.722
			c0-0.392,0.321-0.722,0.718-0.722C571.911,365.832,572.232,366.162,572.232,366.555z"/>
	</g>
	<g>
		<path fill="#E3000B" d="M584.512,377.554c0,0.798-0.64,1.444-1.44,1.444c-0.793,0-1.44-0.647-1.44-1.444
			c0-0.792,0.647-1.435,1.44-1.435C583.871,376.119,584.512,376.762,584.512,377.554z"/>
	</g>
	<g>
		<path fill="#E3000B" d="M569.085,377.554c0,0.798-0.648,1.444-1.437,1.444c-0.796,0-1.444-0.647-1.444-1.444
			c0-0.792,0.648-1.435,1.444-1.435C568.437,376.119,569.085,376.762,569.085,377.554z"/>
	</g>
	<g>
		<path fill="#E3000B" d="M597.443,355.549c0,0.801-0.642,1.444-1.437,1.444c-0.793,0-1.441-0.643-1.441-1.444
			c0-0.792,0.648-1.436,1.441-1.436C596.802,354.113,597.443,354.757,597.443,355.549z"/>
	</g>
	<g>
		<path fill="#E3000B" d="M589.753,366.553c0,0.797-0.639,1.44-1.436,1.44c-0.796,0-1.437-0.643-1.437-1.44
			c0-0.789,0.64-1.437,1.437-1.437C589.114,365.116,589.753,365.764,589.753,366.553z"/>
	</g>
	<g>
		<path fill="#E3000B" d="M596.725,366.555c0,0.4-0.322,0.722-0.723,0.722c-0.396,0-0.718-0.322-0.718-0.722
			c0-0.392,0.323-0.722,0.718-0.722C596.402,365.832,596.725,366.162,596.725,366.555z"/>
	</g>
	<g>
		<path fill="#E3000B" d="M603.907,358.772c0,0.4-0.326,0.722-0.723,0.722c-0.393,0-0.722-0.322-0.722-0.722
			c0-0.393,0.328-0.715,0.722-0.715C603.582,358.058,603.907,358.38,603.907,358.772z"/>
	</g>
	<g>
		<path fill="#E3000B" d="M605.162,366.553c0,0.797-0.645,1.44-1.441,1.44c-0.796,0-1.441-0.643-1.441-1.44
			c0-0.789,0.645-1.437,1.441-1.437C604.518,365.116,605.162,365.764,605.162,366.553z"/>
	</g>
	<g>
		<path fill="#E3000B" d="M625.768,377.554c0,0.798-0.641,1.444-1.442,1.444c-0.792,0-1.44-0.647-1.44-1.444
			c0-0.792,0.647-1.435,1.44-1.435C625.126,376.119,625.768,376.762,625.768,377.554z"/>
	</g>
	<g>
		<path fill="#E3000B" d="M611.466,377.554c0,0.798-0.649,1.444-1.437,1.444c-0.796,0-1.444-0.647-1.444-1.444
			c0-0.792,0.647-1.435,1.444-1.435C610.817,376.119,611.466,376.762,611.466,377.554z"/>
	</g>
	<g>
		<path fill="#E3000B" d="M610.741,366.555c0,0.4-0.32,0.722-0.72,0.722c-0.397,0-0.716-0.322-0.716-0.722
			c0-0.392,0.32-0.722,0.716-0.722C610.421,365.832,610.741,366.162,610.741,366.555z"/>
	</g>
	<g>
		<circle fill="#E3000B" cx="610.023" cy="355.553" r="1.438"/>
	</g>
	<g>
		<path fill="#E3000B" d="M625.688,361.035c0,0.8-0.649,1.444-1.441,1.444c-0.797,0-1.444-0.643-1.444-1.444
			c0-0.793,0.647-1.436,1.444-1.436C625.04,359.599,625.688,360.242,625.688,361.035z"/>
	</g>
	<g>
		<path fill="#E3000B" d="M597.444,377.562c0,0.794-0.647,1.438-1.444,1.438c-0.793,0-1.437-0.644-1.437-1.438
			c0-0.791,0.644-1.444,1.437-1.444C596.797,376.117,597.444,376.771,597.444,377.562z"/>
	</g>
</g>
</svg>
