<?xml version="1.0" encoding="utf-8"?>
<!-- Generator: Adobe Illustrator 19.2.0, SVG Export Plug-In . SVG Version: 6.00 Build 0)  -->
<svg version="1.1" id="Calque_1" xmlns="http://www.w3.org/2000/svg" xmlns:xlink="http://www.w3.org/1999/xlink" x="0px" y="0px"
	 viewBox="0 0 13.3 9.1" style="enable-background:new 0 0 13.3 9.1;" xml:space="preserve">
<style type="text/css">
	.st0{opacity:0.4;fill:#FFFFFF;enable-background:new    ;}
</style>
<title>nuages</title>
<path class="st0" d="M9.9,2.6C9.7,2.7,9.5,2.8,9.3,2.9C9,1.4,7.6,0.7,6,1.2C4.1,1.8,2.6,3.7,2.6,5.6c0,0.2,0,0.4,0.1,0.7
	c-0.1,0-0.2,0-0.3,0C1.7,6.5,1.1,7.1,1,7.8l2.1-0.7l0.6-0.2l4.2-1.3l0.9-0.3l3-1c0-0.1,0-0.3,0-0.4C11.9,2.8,11,2.2,9.9,2.6z"/>
</svg>
