<svg id="Calque_1" data-name="Calque 1" xmlns="http://www.w3.org/2000/svg" viewBox="0 0 51.59 31.93"><defs><style>.cls-1{fill:#fff;opacity:0.4;}</style></defs><title>nuages</title><path class="cls-1" d="M127.83,65a12.47,12.47,0,0,0-3,1.41c-1.33-7-7.81-10.57-15.6-8.11-8.76,2.77-15.86,12.11-15.86,20.86a14.46,14.46,0,0,0,.32,3.1,6.11,6.11,0,0,0-1.6.12,9.64,9.64,0,0,0-6.32,7.07l9.91-3.13,2.73-.86,20-6.32,4.35-1.38,14.39-4.55a9.55,9.55,0,0,0,.2-1.85C137.41,66.11,133.12,63.35,127.83,65Z" transform="translate(-85.82 -57.54)"/></svg>