<?xml version="1.0" encoding="utf-8"?>
<!-- Generator: Adobe Illustrator 17.0.0, SVG Export Plug-In . SVG Version: 6.00 Build 0)  -->
<!DOCTYPE svg PUBLIC "-//W3C//DTD SVG 1.1//EN" "http://www.w3.org/Graphics/SVG/1.1/DTD/svg11.dtd">
<svg version="1.1" id="Calque_1" xmlns="http://www.w3.org/2000/svg" xmlns:xlink="http://www.w3.org/1999/xlink" x="0px" y="0px"
	 width="416px" height="298px" viewBox="0 0 416 298" enable-background="new 0 0 416 298" xml:space="preserve">
<ellipse fill="#E8A484" cx="216.899" cy="198.426" rx="179.997" ry="67.066"/>
<path fill="#BDD57D" d="M380.583,161.106c-16.409-13.325-44.193-24.301-78.721-31.202c-13.285-2.655-27.567-4.708-42.585-6.058
	c-13.59-1.222-27.781-1.87-42.379-1.87c-99.41,0-179.997,30.027-179.997,67.066c0,5.886,2.038,11.594,5.86,17.033
	c10.094,14.366,32.653,26.853,63.115,35.759c30.584,8.942,69.132,14.274,111.023,14.274c84.653,0,155.657-21.774,174.872-51.111
	c3.349-5.114,5.125-10.458,5.125-15.956C396.896,179.072,391.056,169.61,380.583,161.106z"/>
<path fill="none" stroke="#9C7B40" stroke-width="9" stroke-miterlimit="10" d="M153.797,85.856
	c-7.572,3.896-7.769,19.054-7.77,26.453c-0.002,8.41,5.219,15.307,3.974,22.723c-0.563,3.351-13.291,28.384,3.361,33.866"/>
<ellipse opacity="0.4" fill="#80BB4E" cx="215.966" cy="190.796" rx="90.326" ry="32.277"/>
<polygon fill="#DBC397" points="218.459,70.951 278.674,55.57 278.347,194.169 218.296,211.349 "/>
<polygon fill="#FFF5E3" points="218.564,71.015 153.745,49.86 153.745,190.334 218.728,211.414 "/>
<polygon fill="#EED6A9" points="153.745,49.86 209.543,33.683 278.674,55.57 218.564,71.015 "/>
<polygon fill="#BBDAEF" points="160,66.511 211.029,83.454 210.881,188.189 160,171.807 "/>
<polygon opacity="0.2" fill="#BDD57D" points="160,66.511 211.029,83.454 210.881,188.189 160,171.807 "/>
<path opacity="0.5" fill="none" stroke="#49ACCC" stroke-miterlimit="10" d="M210.81,188.469"/>
<path opacity="0.5" fill="none" stroke="#49ACCC" stroke-miterlimit="10" d="M159.843,171.667"/>
<polygon fill="#BBDAEF" points="274,70.105 223.432,83.454 223.349,188.189 274,175.12 "/>
<polygon opacity="0.2" fill="#BDD57D" stroke="#DBC397" stroke-miterlimit="10" points="273.5,70.105 223.182,83.454 
	222.974,188.189 273.5,175.12 "/>
<path opacity="0.5" fill="none" stroke="#49ACCC" stroke-miterlimit="10" d="M224.112,83.174"/>
<path opacity="0.5" fill="none" stroke="#49ACCC" stroke-miterlimit="10" d="M275.08,66.371"/>
<path opacity="0.5" fill="none" stroke="#49ACCC" stroke-miterlimit="10" d="M224.112,188.469"/>
<path opacity="0.5" fill="none" stroke="#49ACCC" stroke-miterlimit="10" d="M275.08,171.667"/>
<polygon fill="#E88A5E" points="159.856,111.652 210.461,128.213 210.711,188.545 159.668,171.807 "/>
<polygon fill="#E88A5E" points="224.41,93.637 275.015,110.198 274.796,170.436 224.223,153.792 "/>
<polygon fill="#E88A5E" points="275.078,111.652 224.223,125.21 224.298,188.189 275.265,175.12 "/>
<polygon fill="#E88A5E" points="210.689,95.138 160,108.696 160,172.031 210.835,159.02 "/>
<polygon fill="#E8A98B" points="159.668,108.696 210.524,95.138 210.461,128.213 159.856,111.652 "/>
<polygon fill="#E8A98B" points="275.015,110.198 224.41,93.637 224.223,125.21 275.078,111.652 "/>
<g>
</g>
<g>
</g>
<g>
</g>
<g>
</g>
<g>
</g>
<g>
</g>
<g>
</g>
<g>
</g>
<g>
</g>
<g>
</g>
<g>
</g>
<g>
</g>
<g>
</g>
<g>
</g>
<g>
</g>
</svg>
