<?xml version="1.0" encoding="utf-8"?>
<!-- Generator: Adobe Illustrator 17.0.0, SVG Export Plug-In . SVG Version: 6.00 Build 0)  -->
<!DOCTYPE svg PUBLIC "-//W3C//DTD SVG 1.1//EN" "http://www.w3.org/Graphics/SVG/1.1/DTD/svg11.dtd">
<svg version="1.1" id="Calque_1" xmlns="http://www.w3.org/2000/svg" xmlns:xlink="http://www.w3.org/1999/xlink" x="0px" y="0px"
	 width="1280px" height="800px" viewBox="0 0 1280 800" enable-background="new 0 0 1280 800" xml:space="preserve">
<ellipse fill="#467FC0" cx="639.042" cy="331.44" rx="220.566" ry="82.182"/>
<path fill="#85B2CC" d="M839.618,285.708c-20.107-16.329-54.153-29.778-96.463-38.235c-16.279-3.254-33.78-5.769-52.182-7.424
	c-16.653-1.498-34.042-2.292-51.93-2.292c-121.815,0-220.566,36.794-220.566,82.182c0,7.212,2.497,14.207,7.18,20.872
	c12.37,17.604,40.013,32.906,77.34,43.819c37.477,10.957,84.713,17.491,136.045,17.491c103.733,0,190.74-26.681,214.285-62.63
	c4.104-6.266,6.28-12.815,6.28-19.552C859.608,307.723,852.451,296.13,839.618,285.708z"/>
<path fill="none" stroke="#9C7B40" stroke-width="10" stroke-miterlimit="10" d="M573.857,205.189
	c-9.279,4.774-9.52,23.349-9.522,32.415c-0.002,10.306,6.395,18.757,4.869,27.845c-0.689,4.107-16.287,34.781,4.118,41.499"/>
<polygon fill="#DBC397" points="638.967,207.253 701.477,191.286 701.137,335.166 638.797,353.001 "/>
<polygon fill="#FFF5E3" points="639.076,207.32 571.787,185.358 571.787,331.185 639.246,353.068 "/>
<polygon fill="#EED6A9" points="571.787,185.358 629.711,168.565 701.477,191.286 639.076,207.32 "/>
<polygon fill="#EED6A9" points="583,203.319 583,228.959 625,242.38 625,216.54 "/>
<g>
	<path fill="#E34636" d="M588.932,242.328c-0.278-1.488,0.538-2.444,1.839-2.499c-0.183-0.038-0.374-0.057-0.571-0.05
		c-1.307,0.05-2.128,1.007-1.85,2.5c0.254,1.362,1.289,2.479,2.309,2.666c0.168,0.031,0.331,0.038,0.489,0.027
		C590.159,244.736,589.179,243.649,588.932,242.328z"/>
	<path fill="#E88A5E" d="M592.916,242.44c-0.196-1.321-1.02-2.374-2.144-2.61c-1.301,0.055-2.117,1.011-1.839,2.499
		c0.246,1.32,1.227,2.408,2.216,2.644C592.292,244.888,593.109,243.745,592.916,242.44z"/>
</g>
<g>
	<path fill="#24A34B" d="M596.988,245.006c-0.278-1.488,0.538-2.444,1.839-2.499c-0.183-0.038-0.374-0.057-0.571-0.05
		c-1.307,0.05-2.128,1.007-1.85,2.5c0.254,1.362,1.289,2.479,2.309,2.666c0.168,0.031,0.331,0.038,0.489,0.027
		C598.215,247.414,597.234,246.326,596.988,245.006z"/>
	<path fill="#80BB4E" d="M600.971,245.117c-0.196-1.321-1.02-2.374-2.144-2.61c-1.301,0.055-2.117,1.011-1.839,2.499
		c0.246,1.32,1.227,2.408,2.216,2.644C600.348,247.565,601.165,246.422,600.971,245.117z"/>
</g>
<g>
	<path fill="#467FC0" d="M605.444,247.677c-0.278-1.488,0.538-2.444,1.839-2.499c-0.183-0.038-0.374-0.057-0.571-0.05
		c-1.307,0.05-2.128,1.007-1.85,2.5c0.254,1.362,1.289,2.479,2.309,2.666c0.168,0.031,0.331,0.038,0.489,0.027
		C606.671,250.085,605.691,248.997,605.444,247.677z"/>
	<path fill="#85B2CC" d="M609.428,247.788c-0.196-1.321-1.02-2.374-2.144-2.61c-1.301,0.055-2.117,1.011-1.839,2.499
		c0.246,1.32,1.227,2.408,2.216,2.644C608.804,250.236,609.621,249.093,609.428,247.788z"/>
</g>
<polygon fill="#EED6A9" points="639,353.153 639,345.14 568,322.004 568,329.917 "/>
<polyline fill="#CFB88E" points="639.07,353.017 704,334.023 704,325.91 639,345.14 639,353 "/>
<polygon fill="#DBC397" points="566.994,322.071 571,320.635 571,323.507 "/>
<polygon fill="#CFB88E" points="701.122,324.308 701.189,326.645 703.927,325.91 "/>
</svg>
