<?xml version="1.0" encoding="utf-8"?>
<!-- Generator: Adobe Illustrator 19.2.0, SVG Export Plug-In . SVG Version: 6.00 Build 0)  -->
<svg version="1.1" id="Calque_1" xmlns="http://www.w3.org/2000/svg" xmlns:xlink="http://www.w3.org/1999/xlink" x="0px" y="0px"
	 viewBox="0 0 123 114" style="enable-background:new 0 0 123 114;" xml:space="preserve">
<style type="text/css">
	.st0{fill:#FFFFFF;}
</style>
<title>scroll_bas</title>
<path class="st0" d="M58.4,102.8c-24.8,0-45-20.2-45-45s20.2-45,45-45s45,20.2,45,45S83.2,102.8,58.4,102.8z M58.4,15.7
	c-23.2,0-42,18.8-42,42s18.8,42,42,42s42-18.8,42-42C100.4,34.6,81.6,15.7,58.4,15.7z"/>
<path class="st0" d="M58.3,73.2c-0.5,0-1-0.3-1.3-0.8L44.7,51c-0.4-0.7-0.2-1.6,0.6-2c0.7-0.4,1.6-0.2,2,0.6l11,19.2l11-19.2
	c0.4-0.7,1.3-1,2-0.6s1,1.3,0.6,2L59.6,72.4C59.3,72.9,58.9,73.2,58.3,73.2z"/>
</svg>
