<?xml version="1.0" encoding="utf-8"?>
<!-- Generator: Adobe Illustrator 19.2.0, SVG Export Plug-In . SVG Version: 6.00 Build 0)  -->
<svg version="1.1" id="Calque_1" xmlns="http://www.w3.org/2000/svg" xmlns:xlink="http://www.w3.org/1999/xlink" x="0px" y="0px"
	 viewBox="0 0 33.7 17.9" style="enable-background:new 0 0 33.7 17.9;" xml:space="preserve">
<style type="text/css">
	.st0{fill:#A35C46;}
	.st1{fill:#C07152;}
	.st2{fill:#EED6A9;}
	.st3{opacity:0.75;fill:#EED6A9;enable-background:new    ;}
	.st4{opacity:0.6;fill:#E88A5E;enable-background:new    ;}
	.st5{fill:#85B2CC;}
	.st6{fill:#FFF6E3;}
	.st7{fill:#BBDAEF;}
	.st8{fill:#FFF5E3;}
	.st9{opacity:0.3;fill:#FFF5E3;enable-background:new    ;}
	.st10{fill:#E88A5E;}
	.st11{opacity:0.3;fill:#BBDAEF;enable-background:new    ;}
</style>
<title>voitures</title>
<path class="st0" d="M17.6,12.4l-1.4,2.8c-1.9-0.2-3.6-1-5.1-2.2c0.2-0.9,0.5-1.8,0.8-2.6L17.6,12.4z"/>
<path class="st1" d="M14.4,16.6l-1.6-0.5c0-1,0.2-1.9,0.7-2.8c0.5,0,0.9,0.1,1.4,0.2L14.4,16.6z"/>
<path class="st0" d="M33,8l-1.4,2.8c-1.9-0.2-3.6-1-5.1-2.2C26.7,7.7,27,6.9,27.3,6L33,8z"/>
<path class="st1" d="M30.1,12.1l-1.8-0.5c-0.1-0.9,0.2-1.9,0.6-2.7c0.5,0,0.9,0.1,1.4,0.2L30.1,12.1z"/>
<ellipse transform="matrix(6.108588e-03 -1 1 6.108588e-03 -0.3789 29.8015)" class="st2" cx="14.8" cy="15.1" rx="1.6" ry="1.2"/>
<ellipse transform="matrix(6.108588e-03 -1 1 6.108588e-03 19.4481 40.8159)" class="st2" cx="30.3" cy="10.6" rx="1.5" ry="1.1"/>
<polygon class="st3" points="33.5,5.6 28.3,4 23.5,5.6 28.5,6.3 30.3,6.6 "/>
<polygon class="st2" points="9.9,17 0.2,14 0.2,9.3 9.9,12.3 "/>
<polygon class="st4" points="8.1,15.6 2,13.7 2,10.7 8.2,12.6 "/>
<polygon class="st2" points="14.8,11 5,8 0.2,9.3 9.9,12.3 "/>
<polygon class="st5" points="16.7,6.3 9,4 5,8 14.8,11 "/>
<polygon class="st6" points="27.8,3.2 20,0.8 9,4 16.7,6.3 "/>
<polygon class="st7" points="30.3,6.6 27.8,3.2 22.2,4.8 24.1,8.3 "/>
<polygon class="st8" points="14.9,10.7 14.8,11 16.7,6.3 "/>
<path class="st6" d="M33.5,5.6l-3.2,1v2.2c0.9,0.2,1.5,1,1.3,1.9l0,0l1.9-0.6L33.5,5.6z"/>
<polygon class="st8" points="24.1,12.9 24.1,12.9 16.2,15.2 "/>
<polygon class="st7" points="22.2,4.8 16.7,6.3 14.8,11 24.1,8.3 "/>
<path class="st6" d="M30.3,8.9V6.6l-6.2,1.7l0,0V13l4.9-1.4c-0.1-0.3-0.1-0.5-0.1-0.8C28.8,9.9,29.4,9.1,30.3,8.9z"/>
<path class="st6" d="M24.1,8.3l-9.3,2.6v2.2c0.9,0.2,1.5,1,1.4,1.9c0,0,0,0.1,0,0.1l7.9-2.2L24.1,8.3L24.1,8.3L24.1,8.3z"/>
<path class="st6" d="M14.8,13.2V11l-4.9,1.3V17l3.7-1c-0.1-0.3-0.2-0.6-0.2-0.9C13.3,14.2,13.9,13.4,14.8,13.2z"/>
<ellipse transform="matrix(6.108588e-03 -1 1 6.108588e-03 -0.3789 29.8015)" class="st0" cx="14.8" cy="15.1" rx="0.7" ry="0.5"/>
<ellipse transform="matrix(6.108588e-03 -1 1 6.108588e-03 19.4179 40.8459)" class="st0" cx="30.3" cy="10.7" rx="0.7" ry="0.5"/>
<path class="st9" d="M6.5,13.6L6.5,13.6l-3.2-0.9l0,0l0,0L6.5,13.6L6.5,13.6L6.5,13.6z"/>
<path class="st9" d="M6.5,14.1L6.5,14.1l-3.2-0.9l0,0l0,0L6.5,14.1L6.5,14.1L6.5,14.1z"/>
<path class="st9" d="M6.5,14.6L6.5,14.6l-3.2-0.9l0,0l0,0L6.5,14.6L6.5,14.6L6.5,14.6L6.5,14.6z"/>
<path class="st9" d="M6.5,13L6.5,13l-3.2-0.9l0,0l0,0L6.5,13L6.5,13L6.5,13z"/>
<path class="st9" d="M6.5,12.5L6.5,12.5l-3.2-0.9l0,0l0,0L6.5,12.5L6.5,12.5L6.5,12.5L6.5,12.5z"/>
<path class="st10" d="M22.8,9.6C22.7,9.6,22.7,9.5,22.8,9.6c0-0.1,0-0.1,0-0.1l0.9-0.2c0,0,0.1,0,0.1,0s0,0.1,0,0.1c0,0,0,0-0.1,0
	L22.8,9.6L22.8,9.6z"/>
<path class="st10" d="M28.9,7.8C28.8,7.7,28.8,7.7,28.9,7.8c0-0.1,0-0.1,0-0.1l0.9-0.2c0,0,0.1,0,0.1,0s0,0.1,0,0.1c0,0,0,0-0.1,0
	L28.9,7.8L28.9,7.8z"/>
<polygon class="st6" points="9.9,12.3 5.1,8 14.8,11 "/>
<polygon class="st11" points="16.7,6.5 5.1,8 14.8,11 "/>
<rect x="9.9" y="4.4" transform="matrix(0.29 -0.957 0.957 0.29 -2.0097 16.2388)" class="st10" width="0.1" height="10.2"/>
<path class="st2" d="M14.8,11L14.8,11L5,8l0-0.1l9.7,2.9l1.8-4.6h0.1l-1.8,4.6C14.9,10.9,14.9,10.9,14.8,11C14.9,11,14.9,11,14.8,11
	L14.8,11z"/>
<path class="st2" d="M24.1,8.4L24.1,8.4l-1.9-3.6l0,0l0,0l5.6-1.6l0.1,0.1l-5.6,1.6L24.1,8.4l6.1-1.8v0.1L24.1,8.4L24.1,8.4
	L24.1,8.4z"/>
<polygon class="st10" points="16.7,6.3 14.9,10.7 14.8,11 16.7,6.3 "/>
<path class="st2" d="M22.1,4.9l1.8,3.4L15,10.8l1.7-4.4L22.1,4.9 M22.2,4.8l-5.5,1.6L14.8,11l9.3-2.6L22.2,4.8L22.2,4.8L22.2,4.8z"
	/>
<path class="st2" d="M24.1,12.9H24V8.3c0,0,0,0,0-0.1l6.2-1.7l0,0l0,0v2.3l-0.1,0V6.7l-6,1.7V12.9z"/>
<path class="st2" d="M14.9,13.2h-0.1V11c0,0,0,0,0-0.1L24,8.3l0,0l0,0v4.6h-0.1V8.4l-9.2,2.6v2.2L14.9,13.2z"/>
<rect x="13.7" y="12" transform="matrix(6.108588e-03 -1 1 6.108588e-03 2.6495 26.8216)" class="st2" width="2.2" height="0.1"/>
</svg>
