<?xml version="1.0" encoding="utf-8"?>
<!-- Generator: Adobe Illustrator 17.0.0, SVG Export Plug-In . SVG Version: 6.00 Build 0)  -->
<!DOCTYPE svg PUBLIC "-//W3C//DTD SVG 1.1//EN" "http://www.w3.org/Graphics/SVG/1.1/DTD/svg11.dtd">
<svg version="1.1" id="Calque_1" xmlns="http://www.w3.org/2000/svg" xmlns:xlink="http://www.w3.org/1999/xlink" x="0px" y="0px"
	 width="400px" height="300px" viewBox="0 0 400 300" enable-background="new 0 0 400 300" xml:space="preserve">
<g>
	<g>
		<path fill="none" stroke="#884328" stroke-width="4" stroke-linecap="round" stroke-linejoin="round" stroke-miterlimit="10" d="
			M135.282,141.476c0,3.338,2.695,6.029,6.016,6.029c3.338,0,6.032-2.691,6.032-6.029c0-3.325-2.694-6.016-6.032-6.016
			C137.977,135.46,135.282,138.151,135.282,141.476z"/>
		<path fill="none" stroke="#884328" stroke-width="4" stroke-linecap="round" stroke-linejoin="round" stroke-miterlimit="10" d="
			M85.816,141.476c0,3.338,2.688,6.029,6.029,6.029c3.325,0,6.013-2.691,6.013-6.029c0-3.325-2.688-6.016-6.013-6.016
			C88.504,135.46,85.816,138.151,85.816,141.476z"/>
		<path fill="none" stroke="#884328" stroke-width="4" stroke-linecap="round" stroke-linejoin="round" stroke-miterlimit="10" d="
			M51.116,120.723v-1.463c0,0-16.797-3.322-16.381,10.804c0.413,14.122,16.381,24.091,16.381,24.091V120.723z"/>
		<path fill="none" stroke="#884328" stroke-width="4" stroke-linecap="round" stroke-linejoin="round" stroke-miterlimit="10" d="
			M180.149,128.397v-10.215c0,0,16.8-3.325,16.388,10.801c-0.419,14.122-16.388,24.094-16.388,24.094V128.397z"/>
		<path fill="none" stroke="#884328" stroke-width="4" stroke-linecap="round" stroke-linejoin="round" stroke-miterlimit="10" d="
			M180.149,153.076c0,0,6.481,37.7-20.09,57.78c-1.511,1.144-3.124,2.223-4.85,3.234c-9.325,5.486-21.949,9.023-39.036,9.023
			c-3.64,0-7.099-0.162-10.355-0.445c-2.792-0.27-5.428-0.63-7.96-1.115c-13.154-2.376-22.71-7.394-29.626-13.658
			c-22.433-20.308-17.116-53.74-17.116-53.74"/>
		
			<polyline fill="none" stroke="#884328" stroke-width="4" stroke-linecap="round" stroke-linejoin="round" stroke-miterlimit="10" points="
			115.761,113.026 115.761,130.064 130.3,162.047 115.761,162.047 115.995,196.763 116.174,223.112 		"/>
		<path fill="none" stroke="#884328" stroke-width="4" stroke-linecap="round" stroke-linejoin="round" stroke-miterlimit="10" d="
			M129.143,196.336c0,0-3.608,6.405-13.088,6.084c-11.53-0.39-13.939-5.083-13.939-5.083"/>
		<path fill="none" stroke="#884328" stroke-width="4" stroke-linecap="round" stroke-linejoin="round" stroke-miterlimit="10" d="
			M187.795,118.018c0,0,7.309-42.514-22.655-65.158c-1.704-1.29-3.522-2.507-5.469-3.647c-10.516-6.187-24.752-10.175-44.021-10.175
			c-4.105,0-8.005,0.183-11.678,0.502c-3.149,0.304-6.121,0.711-8.976,1.257c-14.834,2.679-25.61,8.339-33.41,15.402
			C36.288,79.1,42.284,116.801,42.284,116.801"/>
		<path fill="none" stroke="#884328" stroke-width="4" stroke-linecap="round" stroke-linejoin="round" stroke-miterlimit="10" d="
			M68.424,50.445c0-26.904,21.81-47.727,48.715-47.727s48.715,21.81,48.715,48.715"/>
		<path fill="none" stroke="#884328" stroke-width="4" stroke-linecap="round" stroke-linejoin="round" stroke-miterlimit="10" d="
			M171.643,90.333c0,0-8,22-66.667,13.333s-51.052,10.521-53.86,15.594"/>
		<path fill="none" stroke="#884328" stroke-width="3" stroke-linecap="round" stroke-miterlimit="10" d="M138.078,16.216
			c2.352,1.589,4.686,3.429,6.883,5.482c7.255,6.781,13.015,15.887,13.015,25.968"/>
		<path fill="none" stroke="#884328" stroke-width="3" stroke-linecap="round" stroke-miterlimit="10" d="M116.805,9.718
			c5.175,0,10.108,1.033,14.605,2.904"/>
		<path fill="none" stroke="#884328" stroke-width="3" stroke-linecap="round" stroke-miterlimit="10" d="M73.18,57.856
			c-2.082,1.394-3.984,2.888-5.72,4.46C54.136,74.378,50.563,91.053,49.867,102.66"/>
		<path fill="none" stroke="#884328" stroke-width="3" stroke-linecap="round" stroke-miterlimit="10" d="M105.196,47.485
			c-2.803,0.271-5.45,0.633-7.991,1.119c-1.917,0.346-3.758,0.748-5.525,1.202"/>
		<path fill="none" stroke="#884328" stroke-width="3.5164" stroke-miterlimit="10" d="M179.82,117.352"/>
		<path fill="none" stroke="#884328" stroke-width="3" stroke-linecap="round" stroke-miterlimit="10" d="M164.976,85.228
			c0,0-6.72,18.48-56,11.2"/>
	</g>
	<g>
		<path fill="none" stroke="#884328" stroke-width="3.5026" stroke-linecap="round" stroke-miterlimit="10" d="M300.975,112.857"/>
		<path fill="none" stroke="#884328" stroke-width="4" stroke-miterlimit="10" d="M281.454,141.306c0,3.338-2.695,6.029-6.016,6.029
			c-3.338,0-6.032-2.691-6.032-6.029c0-3.325,2.694-6.016,6.032-6.016C278.76,135.29,281.454,137.981,281.454,141.306z"/>
		<path fill="none" stroke="#884328" stroke-width="4" stroke-miterlimit="10" d="M330.92,141.306c0,3.338-2.688,6.029-6.029,6.029
			c-3.325,0-6.013-2.691-6.013-6.029c0-3.325,2.688-6.016,6.013-6.016C328.232,135.29,330.92,137.981,330.92,141.306z"/>
		<path fill="none" stroke="#884328" stroke-width="4" stroke-linecap="round" stroke-miterlimit="10" d="M365.704,121.137
			l-0.084-2.047c0,0,16.797-3.322,16.381,10.804c-0.413,14.123-16.381,24.091-16.381,24.091L365.704,121.137z"/>
		<path fill="none" stroke="#884328" stroke-width="4" stroke-linecap="round" stroke-miterlimit="10" d="M236.588,128.227v-10.215
			c0,0-16.8-3.325-16.388,10.801c0.419,14.123,16.388,24.094,16.388,24.094V128.227z"/>
		<path fill="none" stroke="#884328" stroke-width="4" stroke-linecap="round" stroke-miterlimit="10" d="M236.588,152.907
			c0,0-6.481,37.7,20.09,57.78c1.511,1.144,3.124,2.223,4.85,3.234c9.325,5.486,21.949,9.023,39.036,9.023
			c3.64,0,7.099-0.162,10.355-0.445c2.792-0.27,5.428-0.63,7.96-1.115c13.154-2.376,22.71-7.394,29.626-13.658
			c22.433-20.308,17.116-53.74,17.116-53.74"/>
		<polyline fill="none" stroke="#884328" stroke-width="4" stroke-linecap="round" stroke-miterlimit="10" points="300.975,112.857 
			300.975,129.895 286.437,161.877 300.975,161.877 300.741,196.593 300.562,222.943 		"/>
		<path fill="none" stroke="#884328" stroke-width="4" stroke-linecap="round" stroke-miterlimit="10" d="M287.593,196.167
			c0,0,3.608,6.405,13.088,6.084c11.53-0.39,13.939-5.083,13.939-5.083"/>
		<path fill="none" stroke="#884328" stroke-width="3.8792" stroke-linecap="round" stroke-miterlimit="10" d="M230.095,116.816"/>
		
			<line fill="none" stroke="#884328" stroke-width="4" stroke-linecap="round" stroke-miterlimit="10" x1="369.086" y1="76.333" x2="369.086" y2="117.573"/>
		
			<line fill="none" stroke="#884328" stroke-width="4" stroke-linecap="round" stroke-miterlimit="10" x1="233.556" y1="116.81" x2="233.556" y2="86.188"/>
		<path fill="none" stroke="#884328" stroke-width="3" stroke-linecap="round" stroke-miterlimit="10" d="M236.488,65.901
			c0,0-2.667,12.068,4,17.498"/>
		<path fill="none" stroke="#884328" stroke-width="3" stroke-linecap="round" stroke-miterlimit="10" d="M243.569,62.762
			c0,0-1.458,6.198,6.327,10.23"/>
		<path fill="none" stroke="#884328" stroke-width="4" stroke-linecap="round" stroke-miterlimit="10" d="M252.754,58.808
			c7.194-6.621,19.376-13.974,33.194-13.974h30.568c33.758,0.474,49.971,12.498,52.471,30.998"/>
		<path fill="none" stroke="#884328" stroke-width="4" stroke-linecap="round" stroke-linejoin="round" stroke-miterlimit="10" d="
			M262.738,96.833h-3h76.25h7c8.698,0,17.75,7.052,17.75,15.75"/>
		<path fill="none" stroke="#884328" stroke-width="3" stroke-linecap="round" stroke-miterlimit="10" d="M328.718,55.092
			c21.299,2.384,31.793,11.678,33.604,25.074"/>
		
			<line fill="none" stroke="#884328" stroke-width="3" stroke-linecap="round" stroke-miterlimit="10" x1="307.988" y1="54.501" x2="318.878" y2="54.501"/>
	</g>
</g>
<g>
	
		<line fill="none" stroke="#884328" stroke-width="4" stroke-linecap="round" stroke-miterlimit="10" x1="255.762" y1="259.878" x2="356.125" y2="259.878"/>
	
		<line fill="none" stroke="#884328" stroke-width="4" stroke-linecap="round" stroke-miterlimit="10" x1="60.611" y1="259.878" x2="160.762" y2="259.878"/>
	<g>
		<rect x="180.212" y="252.29" fill="none" width="60.314" height="20.432"/>
		<path fill="#884328" d="M188.45,261.98c0,1.03-0.39,1.854-1.168,2.473c-0.778,0.62-1.845,0.929-3.199,0.929
			c-1.355,0-2.462-0.208-3.319-0.625v-2.574c0.98,0.54,1.992,0.809,3.034,0.809c0.601,0,1.069-0.129,1.406-0.386
			c0.337-0.258,0.506-0.582,0.506-0.975c0-0.895-0.827-1.342-2.482-1.342h-0.644v-2.207h0.644c0.649,0,1.183-0.11,1.6-0.331
			s0.625-0.552,0.625-0.993c0-0.846-0.551-1.269-1.654-1.269c-0.846,0-1.698,0.264-2.557,0.791v-2.501
			c0.907-0.453,1.821-0.68,2.74-0.68c1.3,0,2.329,0.31,3.09,0.929c0.76,0.619,1.14,1.425,1.14,2.418
			c0,1.361-0.619,2.298-1.857,2.813C187.751,259.59,188.45,260.497,188.45,261.98z"/>
		<path fill="#884328" d="M195.098,257.53c0.986,0,1.802,0.349,2.445,1.048s0.966,1.646,0.966,2.841s-0.384,2.2-1.149,3.016
			c-0.767,0.815-1.852,1.223-3.255,1.223s-2.482-0.53-3.236-1.59s-1.131-2.485-1.131-4.275c0-2.047,0.561-3.684,1.683-4.91
			s2.54-1.839,4.257-1.839c0.649,0,1.281,0.098,1.895,0.294v2.482c-0.479-0.257-1.036-0.386-1.674-0.386
			c-0.87,0-1.585,0.267-2.143,0.8s-0.935,1.248-1.131,2.142C193.286,257.812,194.11,257.53,195.098,257.53z M194.242,263.267
			c0.479,0,0.853-0.165,1.122-0.496s0.404-0.76,0.404-1.288c0-0.527-0.132-0.94-0.396-1.241c-0.264-0.3-0.634-0.45-1.112-0.45
			c-0.662,0-1.244,0.264-1.747,0.791C192.648,262.373,193.225,263.267,194.242,263.267z"/>
		<path fill="#884328" d="M206.305,267.184h-2.777l6.602-14.895h2.795L206.305,267.184z"/>
		<path fill="#884328" d="M224.288,258.505c0.698,0.674,1.048,1.615,1.048,2.822c0,1.208-0.414,2.188-1.241,2.942
			s-1.955,1.131-3.384,1.131c-1.428,0-2.553-0.214-3.374-0.644v-2.538c0.834,0.515,1.766,0.772,2.795,0.772
			c1.643,0,2.464-0.589,2.464-1.766c0-0.441-0.168-0.791-0.505-1.048c-0.338-0.258-0.911-0.386-1.72-0.386
			c-0.81,0-1.649,0.202-2.52,0.607v-7.172h6.749v2.28h-4.138v2.041c0.27-0.037,0.539-0.055,0.81-0.055
			C222.584,257.493,223.589,257.831,224.288,258.505z"/>
		<path fill="#884328" d="M233.482,258.505c0.698,0.674,1.048,1.615,1.048,2.822c0,1.208-0.414,2.188-1.241,2.942
			s-1.955,1.131-3.384,1.131c-1.428,0-2.553-0.214-3.374-0.644v-2.538c0.834,0.515,1.766,0.772,2.795,0.772
			c1.643,0,2.464-0.589,2.464-1.766c0-0.441-0.168-0.791-0.505-1.048c-0.338-0.258-0.911-0.386-1.72-0.386
			c-0.81,0-1.649,0.202-2.52,0.607v-7.172h6.749v2.28h-4.138v2.041c0.27-0.037,0.539-0.055,0.81-0.055
			C231.778,257.493,232.783,257.831,233.482,258.505z"/>
	</g>
</g>
</svg>
