<?xml version="1.0" encoding="utf-8"?>
<!-- Generator: Adobe Illustrator 17.0.0, SVG Export Plug-In . SVG Version: 6.00 Build 0)  -->
<!DOCTYPE svg PUBLIC "-//W3C//DTD SVG 1.1//EN" "http://www.w3.org/Graphics/SVG/1.1/DTD/svg11.dtd">
<svg version="1.1" id="Calque_1" xmlns="http://www.w3.org/2000/svg" xmlns:xlink="http://www.w3.org/1999/xlink" x="0px" y="0px"
	 width="400px" height="300px" viewBox="0 0 400 300" enable-background="new 0 0 400 300" xml:space="preserve">
<g>
	
		<line fill="none" stroke="#884328" stroke-width="4" stroke-linecap="round" stroke-miterlimit="10" x1="245.121" y1="259.878" x2="345.484" y2="259.878"/>
	
		<line fill="none" stroke="#884328" stroke-width="4" stroke-linecap="round" stroke-miterlimit="10" x1="49.971" y1="259.878" x2="150.121" y2="259.878"/>
	<g>
		<rect x="161.57" y="252.289" fill="none" width="72.314" height="20.432"/>
		<path fill="#884328" d="M169.166,258.505c0.698,0.674,1.048,1.615,1.048,2.822c0,1.208-0.414,2.188-1.241,2.942
			s-1.955,1.131-3.384,1.131c-1.428,0-2.553-0.214-3.374-0.644v-2.538c0.834,0.515,1.766,0.772,2.795,0.772
			c1.643,0,2.464-0.589,2.464-1.766c0-0.441-0.168-0.791-0.505-1.048c-0.338-0.258-0.911-0.386-1.72-0.386
			c-0.81,0-1.649,0.202-2.52,0.607v-7.172h6.749v2.28h-4.138v2.041c0.27-0.037,0.539-0.055,0.81-0.055
			C167.461,257.493,168.466,257.831,169.166,258.505z"/>
		<path fill="#884328" d="M176.769,257.53c0.986,0,1.802,0.349,2.445,1.048s0.966,1.646,0.966,2.841s-0.384,2.2-1.149,3.016
			c-0.767,0.815-1.852,1.223-3.255,1.223s-2.482-0.53-3.236-1.59s-1.131-2.485-1.131-4.275c0-2.047,0.561-3.684,1.683-4.91
			s2.54-1.839,4.257-1.839c0.649,0,1.281,0.098,1.895,0.294v2.482c-0.479-0.257-1.036-0.386-1.674-0.386
			c-0.87,0-1.585,0.267-2.143,0.8s-0.935,1.248-1.131,2.142C174.958,257.812,175.782,257.53,176.769,257.53z M175.914,263.267
			c0.479,0,0.853-0.165,1.122-0.496s0.404-0.76,0.404-1.288c0-0.527-0.132-0.94-0.396-1.241c-0.264-0.3-0.634-0.45-1.112-0.45
			c-0.662,0-1.244,0.264-1.747,0.791C174.32,262.373,174.896,263.267,175.914,263.267z"/>
		<path fill="#884328" d="M187.976,267.184h-2.777l6.602-14.895h2.795L187.976,267.184z"/>
		<path fill="#884328" d="M208.368,260.251h-3.364v3.31h-2.465v-3.31h-3.347v-2.39h3.347v-3.329h2.465v3.329h3.364V260.251z"/>
		<path fill="#884328" d="M214.161,255.526v-2.28h8.091v2.28l-4.671,9.764h-2.832l4.689-9.764H214.161z"/>
		<path fill="#884328" d="M228.623,257.53c0.986,0,1.802,0.349,2.445,1.048s0.966,1.646,0.966,2.841s-0.384,2.2-1.149,3.016
			c-0.767,0.815-1.852,1.223-3.255,1.223s-2.482-0.53-3.236-1.59s-1.131-2.485-1.131-4.275c0-2.047,0.561-3.684,1.683-4.91
			s2.54-1.839,4.257-1.839c0.649,0,1.281,0.098,1.895,0.294v2.482c-0.479-0.257-1.036-0.386-1.674-0.386
			c-0.87,0-1.585,0.267-2.143,0.8s-0.935,1.248-1.131,2.142C226.811,257.812,227.635,257.53,228.623,257.53z M227.767,263.267
			c0.479,0,0.853-0.165,1.122-0.496s0.404-0.76,0.404-1.288c0-0.527-0.132-0.94-0.396-1.241c-0.264-0.3-0.634-0.45-1.112-0.45
			c-0.662,0-1.244,0.264-1.747,0.791C226.173,262.373,226.75,263.267,227.767,263.267z"/>
	</g>
</g>
<g>
	<g>
		<path fill="none" stroke="#884328" stroke-width="4" stroke-linecap="round" stroke-miterlimit="10" d="M42.888,43.976
			c-10.857,0.82-19.413,9.882-19.413,20.948c0,3.038,0.65,5.923,1.81,8.53c-9.64,4.076-16.404,13.62-16.404,24.744
			c0,10.366,5.874,19.36,14.475,23.836"/>
		<path fill="none" stroke="#884328" stroke-width="4" stroke-linecap="round" stroke-miterlimit="10" d="M117.976,38.212
			c-3.319-4.008-8.332-6.562-13.943-6.562c-3.886,0-7.477,1.236-10.426,3.321C88.6,27.347,79.978,22.31,70.176,22.31
			c-13.289,0-24.408,9.253-27.288,21.666c0.53-0.04,1.063-0.067,1.602-0.067c11.607,0,21.015,9.409,21.015,21.015"/>
		<path fill="none" stroke="#884328" stroke-width="4" stroke-linecap="round" stroke-miterlimit="10" d="M116.141,63.169"/>
		<path fill="none" stroke="#884328" stroke-width="4" stroke-linecap="round" stroke-miterlimit="10" d="M151.369,78.198
			c3.639-9.654,14.415-14.53,24.069-10.891c0.306,0.115,0.607,0.238,0.904,0.368c0.525-1.041,1.004-2.118,1.424-3.233
			c6.368-16.894-2.165-35.752-19.059-42.12c-15.802-5.956-33.319,1.125-40.73,15.89c2.594,3.132,4.154,7.151,4.154,11.535
			c0,5.332-2.32,10.11-5.989,13.422"/>
		<path fill="none" stroke="#884328" stroke-width="4" stroke-linecap="round" stroke-miterlimit="10" d="M116.141,63.169
			c3.669-3.312,5.989-8.09,5.989-13.422c0-4.384-1.56-8.403-4.154-11.535"/>
		<path fill="none" stroke="#884328" stroke-width="4" stroke-linecap="round" stroke-miterlimit="10" d="M185.522,125.213
			c2.311-2.063,4.171-4.699,5.34-7.798c3.126-8.292,0.336-17.362-6.266-22.576c0.682-1.071,1.267-2.227,1.732-3.463
			c3.523-9.348-0.937-19.747-9.987-23.701"/>
	</g>
	<path fill="none" stroke="#884328" stroke-width="4" stroke-miterlimit="10" d="M168.893,120.233c0,0,16.797-3.322,16.381,10.804
		c-0.413,14.123-16.381,24.091-16.381,24.091v-33.432V120.233z"/>
	<path fill="none" stroke="#884328" stroke-width="4" stroke-miterlimit="10" d="M73.153,144.801
		c-0.305-0.722-0.474-1.517-0.474-2.352c0-3.325,2.694-6.016,6.032-6.016c3.322,0,6.016,2.691,6.016,6.016
		c0,2.086-1.053,3.92-2.653,5.002"/>
	<path fill="none" stroke="#884328" stroke-width="4" stroke-miterlimit="10" d="M122.517,144.529
		c-0.237-0.648-0.366-1.349-0.366-2.081c0-3.325,2.688-6.016,6.013-6.016c3.341,0,6.029,2.691,6.029,6.016
		c0,3.057-2.254,5.571-5.2,5.973c-0.271,0.037-0.548,0.056-0.829,0.056"/>
	<path fill="none" stroke="#884328" stroke-width="3.5026" stroke-miterlimit="10" d="M168.893,121.695v-1.463
		c0,0,16.797-3.322,16.381,10.804c-0.413,14.123-16.381,24.091-16.381,24.091V121.695z"/>
	<path fill="none" stroke="#884328" stroke-width="4" stroke-miterlimit="10" d="M39.861,129.369v-10.215
		c0,0-16.8-3.325-16.388,10.801c0.419,14.122,16.388,24.094,16.388,24.094V129.369z"/>
	<path fill="none" stroke="#884328" stroke-width="4" stroke-miterlimit="10" d="M39.861,154.049c0,0-6.481,37.7,20.09,57.78
		c1.511,1.144,3.124,2.223,4.85,3.234c9.325,5.486,21.949,9.023,39.036,9.023c3.64,0,7.099-0.162,10.355-0.445
		c2.792-0.27,5.428-0.63,7.96-1.115c13.154-2.376,22.71-7.394,29.626-13.658c22.433-20.308,17.116-53.74,17.116-53.74"/>
	<path fill="none" stroke="#884328" stroke-width="4" stroke-linecap="round" stroke-miterlimit="10" d="M117.639,197.017
		c0,0-3.608,6.405-13.088,6.084c-11.53-0.39-13.939-5.083-13.939-5.083"/>
	<polyline fill="none" stroke="#884328" stroke-width="4" stroke-linecap="round" stroke-miterlimit="10" points="104.248,113.999 
		104.248,131.037 89.71,163.019 104.248,163.019 104.014,197.735 103.836,224.085 	"/>
	<path fill="none" stroke="#884328" stroke-width="3" stroke-linecap="round" stroke-miterlimit="10" d="M157.272,30.226
		c-3.521-1.327-4.583-1.429-7.178-1.694"/>
	<path fill="none" stroke="#884328" stroke-width="3" stroke-linecap="round" stroke-miterlimit="10" d="M174.042,57.293
		c1.168-7.589-1.248-15.039-6.475-20.368"/>
	<g>
		<path fill="none" stroke="#884328" stroke-width="3" stroke-miterlimit="10" d="M46.914,106.163
			c2.948,2.775,6.907,4.462,11.251,4.407c5.821-0.073,10.872-3.246,13.678-7.937"/>
		<path fill="none" stroke="#884328" stroke-width="3" stroke-linecap="round" stroke-miterlimit="10" d="M41.758,93.576"/>
		<path fill="none" stroke="#884328" stroke-width="3" stroke-linecap="round" stroke-miterlimit="10" d="M97.091,85.686"/>
		<path fill="none" stroke="#884328" stroke-width="3" stroke-linecap="round" stroke-miterlimit="10" d="M79.59,99.879
			c0.001,0.071-0.016,0.138-0.018,0.209c2.021,1.706,4.616,2.722,7.439,2.687c6.286-0.079,11.833-5.525,11.842-11.945"/>
		<path fill="none" stroke="#884328" stroke-width="3" stroke-linecap="round" stroke-miterlimit="10" d="M98.346,90.863"/>
		<path fill="none" stroke="#884328" stroke-width="3" stroke-linecap="round" stroke-miterlimit="10" d="M98.561,93.164
			c0.657,5.181,8.756,7.005,13.208,6.421c3.489-0.458,7.107-2.204,9.21-4.726"/>
		<path fill="none" stroke="#884328" stroke-width="3" stroke-linecap="round" stroke-miterlimit="10" d="M123.72,87.137
			c0.037,2.941-1.004,5.637-2.742,7.722c1.91,2.189,4.711,3.56,7.824,3.521c1.429-0.018,2.785-0.332,4.014-0.88
			c-0.047-0.25-0.083-0.503-0.086-0.766"/>
		<path fill="none" stroke="#884328" stroke-width="3" stroke-linecap="round" stroke-miterlimit="10" d="M120.978,94.859
			c1.738-2.085,2.779-4.781,2.742-7.722"/>
		<path fill="none" stroke="#884328" stroke-width="3" stroke-linecap="round" stroke-miterlimit="10" d="M132.816,97.5
			c0.361,1.921,1.953,3.374,3.907,3.535c0.058-0.674,0.217-1.351,0.496-2.007c0.77-1.813,2.26-3.085,3.987-3.633"/>
		<path fill="none" stroke="#884328" stroke-width="3" stroke-linecap="round" stroke-miterlimit="10" d="M132.73,96.734
			c0.003,0.263,0.039,0.517,0.086,0.766"/>
		<path fill="none" stroke="#884328" stroke-width="3" stroke-linecap="round" stroke-miterlimit="10" d="M136.724,101.035
			c-0.233,2.718,1.251,5.4,3.866,6.537c1.814,0.789,3.787,0.665,5.424-0.164"/>
		<path fill="none" stroke="#884328" stroke-width="3" stroke-linecap="round" stroke-miterlimit="10" d="M152.551,110.67
			c-0.35,0.404-0.646,0.868-0.867,1.388c-1.135,2.671,0.086,5.768,2.728,6.916c2.017,0.877,4.275,0.362,5.737-1.118"/>
		<path fill="none" stroke="#884328" stroke-width="3" stroke-linecap="round" stroke-miterlimit="10" d="M149.037,104.166
			c-0.623,1.466-1.716,2.578-3.024,3.241c1.035,0.982,2.243,1.812,3.622,2.412c0.955,0.415,1.934,0.686,2.915,0.851"/>
		<path fill="none" stroke="#884328" stroke-width="3" stroke-linecap="round" stroke-miterlimit="10" d="M146.013,107.408
			c1.308-0.663,2.401-1.776,3.024-3.241"/>
		<path fill="none" stroke="#884328" stroke-width="3" stroke-linecap="round" stroke-miterlimit="10" d="M152.551,110.67"/>
		<path fill="none" stroke="#884328" stroke-width="3" stroke-linecap="round" stroke-miterlimit="10" d="M161.251,116.218
			c-0.269,0.632-0.648,1.181-1.101,1.639c0.508,0.374,1.06,0.702,1.662,0.964c4.351,1.892,9.394-0.141,11.264-4.541"/>
		<path fill="none" stroke="#884328" stroke-width="3" stroke-linecap="round" stroke-miterlimit="10" d="M160.149,117.857
			c0.453-0.459,0.833-1.007,1.101-1.639"/>
		<path fill="none" stroke="#884328" stroke-width="3" stroke-linecap="round" stroke-miterlimit="10" d="M38.283,105.024
			c2.484,1.08,3.947,3.554,3.888,6.128c2.133-1.009,3.833-2.79,4.743-4.99c-3.134-2.95-5.126-7.13-5.185-11.801
			c-0.003-0.265,0.02-0.523,0.029-0.785"/>
		<path fill="none" stroke="#884328" stroke-width="3" stroke-miterlimit="10" d="M41.758,93.576
			c-0.009,0.262-0.033,0.52-0.029,0.785c0.059,4.671,2.05,8.851,5.185,11.801"/>
		<path fill="none" stroke="#884328" stroke-width="3" stroke-linecap="round" stroke-miterlimit="10" d="M71.843,102.633
			c0.807,1.038,2.053,1.71,3.459,1.692c2.328-0.029,4.189-1.91,4.27-4.238"/>
		<path fill="none" stroke="#884328" stroke-width="3" stroke-linecap="round" stroke-miterlimit="10" d="M71.843,102.633"/>
		<path fill="none" stroke="#884328" stroke-width="3" stroke-linecap="round" stroke-miterlimit="10" d="M36.962,119
			c2.302-0.185,3.716-3.138,4.691-5.432c0.335-0.788,0.499-1.607,0.518-2.415"/>
	</g>
	<path fill="none" stroke="#884328" stroke-width="3" stroke-linecap="round" stroke-miterlimit="10" d="M63.308,30.876
		c-4.653,1.593-8.647,4.607-11.465,8.525"/>
	<path fill="none" stroke="#884328" stroke-width="3" stroke-linecap="round" stroke-miterlimit="10" d="M73.449,29.178
		c-1.581,0-3.125,0.156-4.618,0.454"/>
	<path fill="none" stroke="#884328" stroke-width="3" stroke-linecap="round" stroke-miterlimit="10" d="M113.562,41.167
		c-1.922-2.321-4.825-3.8-8.074-3.8"/>
	<path fill="none" stroke="#884328" stroke-width="3" stroke-linecap="round" stroke-miterlimit="10" d="M31.882,57.137
		c-0.916,1.315-1.648,2.768-2.156,4.323c-0.533,1.628-0.82,3.367-0.82,5.174"/>
	<path fill="none" stroke="#884328" stroke-width="3" stroke-linecap="round" stroke-miterlimit="10" d="M55.577,56.293
		c2.255,2.839,3.603,6.432,3.603,10.34"/>
	<path fill="none" stroke="#884328" stroke-width="3" stroke-linecap="round" stroke-miterlimit="10" d="M17.416,108.951
		C20.903,115.263,27.908,119,35.629,119"/>
	<path fill="none" stroke="#884328" stroke-width="3" stroke-linecap="round" stroke-miterlimit="10" d="M17.546,88.944
		c-1.7,2.985-2.672,6.439-2.672,10.12"/>
	<path fill="none" stroke="#884328" stroke-width="1.3909" stroke-linecap="round" stroke-miterlimit="10" d="M170.986,70.849"/>
	<path fill="none" stroke="#884328" stroke-width="2.6031" stroke-linecap="round" stroke-miterlimit="10" d="M175.616,74.488
		c-0.945-0.809-2.021-1.493-3.214-2.013"/>
	<path fill="none" stroke="#884328" stroke-width="2.6031" stroke-linecap="round" stroke-miterlimit="10" d="M180.731,89.964
		c1.078-2.861,1.072-5.865,0.185-8.559c-0.487-1.478-1.238-2.863-2.221-4.08"/>
	<path fill="none" stroke="#884328" stroke-width="3" stroke-linecap="round" stroke-miterlimit="10" d="M179.938,121.695
		c2.394-1.63,4.328-3.988,5.427-6.904c0.957-2.538,1.159-5.174,0.719-7.664"/>
	<path fill="none" stroke="#884328" stroke-width="2" stroke-linecap="round" stroke-miterlimit="10" d="M113.688,94.613
		c1.775-0.939,3.346-2.34,4.225-3.939"/>
	<path fill="none" stroke="#884328" stroke-width="2" stroke-linecap="round" stroke-miterlimit="10" d="M89.766,98.295
		c2.712-1.201,4.723-3.949,4.727-7.05"/>
	<path fill="none" stroke="#884328" stroke-width="2" stroke-linecap="round" stroke-miterlimit="10" d="M50.715,103.11
		c2.322,1.788,5.443,2.871,8.871,2.828"/>
	<path fill="none" stroke="#884328" stroke-width="1.778" stroke-linecap="round" stroke-miterlimit="10" d="M141.3,103.826
		c0.908,0.502,1.894,0.427,2.711-0.095"/>
	<path fill="none" stroke="#884328" stroke-width="2" stroke-linecap="round" stroke-miterlimit="10" d="M155.265,115.986
		c1.241-0.155,2.276-0.858,2.899-1.837"/>
	<path fill="none" stroke="#884328" stroke-width="3" stroke-linecap="round" stroke-miterlimit="10" d="M117.366,71.777
		c3.941-1.746,7.18-5.036,8.821-9.052"/>
	<path fill="none" d="M74.472,144.571c5.969,0,10.812,4.837,10.812,10.812c0,5.999-4.843,10.835-10.812,10.835
		c-5.999,0-10.841-4.837-10.841-10.835C63.63,149.408,68.472,144.571,74.472,144.571z"/>
	<g>
		<path fill="none" stroke="#884328" stroke-width="2.6269" stroke-miterlimit="10" d="M84.379,151.059
			c-1.669-3.819-5.475-6.488-9.907-6.488c-0.551,0-1.092,0.041-1.62,0.119c-5.227,0.778-9.221,5.266-9.221,10.693
			c0,5.999,4.842,10.835,10.841,10.835c1.654,0,3.214-0.382,4.616-1.046c-0.005-0.19-0.014-0.379-0.014-0.571"/>
		<path fill="none" stroke="#884328" stroke-width="2.6269" stroke-miterlimit="10" d="M116.443,164.601
			c0,0.317-0.009,0.631-0.023,0.944c1.163,0.428,2.415,0.673,3.727,0.673c6.005,0,10.835-4.837,10.835-10.835
			c0-5.975-4.83-10.812-10.835-10.812c-4.195,0-7.818,2.389-9.61,5.877"/>
		<path fill="none" stroke="#884328" stroke-width="2.6269" stroke-miterlimit="10" d="M116.42,165.545
			c-4.132-1.52-7.079-5.481-7.079-10.162c0-1.78,0.437-3.455,1.197-4.935c-3.342-3.258-7.835-5.257-12.779-5.257
			c-5.247,0-9.986,2.25-13.379,5.868c0.579,1.325,0.905,2.785,0.905,4.324c0,4.337-2.538,8.056-6.196,9.789"/>
	</g>
	<path fill="none" stroke="#884328" stroke-width="2.6269" stroke-miterlimit="10" d="M79.071,164.6
		c0,0.191,0.008,0.381,0.014,0.571c3.659-1.732,6.199-5.449,6.201-9.786c0.001-1.539-0.325-3-0.903-4.325"/>
	<path fill="none" stroke="#884328" stroke-width="2.6269" stroke-miterlimit="10" d="M110.537,150.448
		c-0.76,1.48-1.197,3.155-1.197,4.935c0,4.681,2.947,8.643,7.079,10.162c0.014-0.313,0.023-0.627,0.023-0.944"/>
	<g>
		<path fill="none" stroke="#884328" stroke-width="3" stroke-linecap="round" stroke-miterlimit="10" d="M369.094,94.965
			c3.673-2.013,1.687-4.908-4.178-8.692"/>
		<path fill="none" stroke="#884328" stroke-width="4" stroke-miterlimit="10" d="M233.012,120.233c0,0-16.797-3.322-16.381,10.804
			c0.413,14.123,16.381,24.091,16.381,24.091v-33.432V120.233z"/>
		<path fill="none" stroke="#884328" stroke-width="4" stroke-miterlimit="10" d="M328.935,144.308
			c0.189-0.585,0.291-1.21,0.291-1.86c0-3.325-2.694-6.016-6.032-6.016c-3.322,0-6.016,2.691-6.016,6.016
			c0,2.047,1.013,3.851,2.563,4.94"/>
		<path fill="none" stroke="#884328" stroke-width="4" stroke-miterlimit="10" d="M279.448,144.357
			c0.199-0.599,0.306-1.241,0.306-1.908c0-3.325-2.688-6.016-6.013-6.016c-3.341,0-6.029,2.691-6.029,6.016
			c0,2.921,2.058,5.346,4.811,5.907"/>
		<path fill="none" stroke="#884328" stroke-width="4" stroke-miterlimit="10" d="M362.044,120.029c0,0,16.8-4.201,16.388,9.925
			c-0.419,14.122-16.388,24.094-16.388,24.094v-53.577"/>
		<path fill="none" stroke="#884328" stroke-width="4" stroke-miterlimit="10" d="M362.044,154.049c0,0,6.481,37.7-20.09,57.78
			c-1.511,1.144-3.124,2.223-4.85,3.234c-9.325,5.486-21.949,9.023-39.036,9.023c-3.64,0-7.099-0.162-10.355-0.445
			c-2.792-0.27-5.428-0.63-7.96-1.115c-13.154-2.376-22.71-7.394-29.626-13.658c-22.433-20.308-17.116-53.74-17.116-53.74"/>
		<path fill="none" stroke="#884328" stroke-width="4" stroke-linecap="round" stroke-miterlimit="10" d="M284.266,197.017
			c0,0,3.608,6.405,13.088,6.084c11.53-0.39,13.939-5.083,13.939-5.083"/>
		<polyline fill="none" stroke="#884328" stroke-width="4" stroke-linecap="round" stroke-miterlimit="10" points="297.656,113.999 
			297.656,131.037 312.195,163.019 297.656,163.019 297.89,197.735 298.069,224.085 		"/>
		<path fill="none" d="M327.433,144.571c-5.969,0-10.812,4.837-10.812,10.812c0,5.999,4.842,10.835,10.812,10.835
			c5.999,0,10.841-4.837,10.841-10.835C338.274,149.408,333.432,144.571,327.433,144.571z"/>
		<g>
			<path fill="none" stroke="#884328" stroke-width="3" stroke-miterlimit="10" d="M317.526,151.059
				c1.669-3.819,5.475-6.488,9.907-6.488c0.593,0,1.175,0.047,1.742,0.138c5.167,0.829,9.099,5.289,9.099,10.674
				c0,5.999-4.842,10.835-10.841,10.835c-1.654,0-3.214-0.382-4.616-1.046c0.005-0.19,0.014-0.379,0.014-0.571"/>
			<path fill="none" stroke="#884328" stroke-width="3" stroke-miterlimit="10" d="M285.462,164.601
				c0,0.317,0.009,0.631,0.023,0.944c-1.163,0.428-2.415,0.673-3.727,0.673c-6.005,0-10.835-4.837-10.835-10.835
				c0-5.975,4.83-10.812,10.835-10.812c4.195,0,7.819,2.389,9.61,5.877"/>
			<path fill="none" stroke="#884328" stroke-width="3" stroke-linecap="round" stroke-miterlimit="10" d="M285.485,165.545
				c4.132-1.52,7.079-5.481,7.079-10.162c0-1.78-0.437-3.455-1.197-4.935c3.342-3.258,7.835-5.257,12.779-5.257
				c5.247,0,9.986,2.25,13.379,5.868c-0.579,1.325-0.905,2.785-0.905,4.324c0,4.337,2.538,8.056,6.196,9.789"/>
		</g>
		<path fill="none" stroke="#884328" stroke-width="2.6269" stroke-miterlimit="10" d="M322.831,164.601
			c0,0.191-0.009,0.381-0.014,0.571c-3.658-1.733-6.196-5.452-6.196-9.789c0-1.539,0.326-2.999,0.905-4.324"/>
		<path fill="none" stroke="#884328" stroke-width="2.6269" stroke-miterlimit="10" d="M291.367,150.448
			c0.76,1.48,1.197,3.155,1.197,4.935c0,4.681-2.947,8.643-7.079,10.162c-0.014-0.313-0.023-0.627-0.023-0.944"/>
		<path fill="none" stroke="#884328" stroke-width="4" stroke-miterlimit="10" d="M264.18,198.606c0,0,2.627-22.767,31.523-20.578
			l1.313,14.01C297.017,192.039,274.25,189.85,264.18,198.606z"/>
		<path fill="none" stroke="#884328" stroke-width="4" stroke-miterlimit="10" d="M330.54,198.606c0,0-2.627-22.767-31.523-20.578
			l-1.313,14.01C297.703,192.039,320.47,189.85,330.54,198.606z"/>
		<path fill="none" stroke="#884328" stroke-width="4" stroke-miterlimit="10" d="M360.113,100.841
			c29.701-1.476,31.892-6.375,18.901-14.757c-13.572-8.756-68.98-45.378-101.695-45.893c-47.678-0.751-48.204,39.176-48.204,58.298
			l-0.048,1.52l68.195,0.416L360.113,100.841L360.113,100.841z"/>
		<path fill="none" stroke="#884328" stroke-width="3" stroke-linecap="round" stroke-miterlimit="10" d="M253.983,53.61
			c-16.344,9.1-16.58,29.782-16.58,41.118"/>
		<path fill="none" stroke="#884328" stroke-width="3" stroke-linecap="round" stroke-miterlimit="10" d="M276.116,48.118
			c-6.804-0.107-12.381,0.844-16.951,2.563"/>
		<path fill="none" stroke="#884328" stroke-width="3" stroke-linecap="round" stroke-miterlimit="10" d="M359.009,81.602
			c-4.06-2.621-10.163-6.518-17.376-10.766"/>
		<path fill="none" stroke="#884328" stroke-width="3" stroke-linecap="round" stroke-miterlimit="10" d="M319.763,188.471
			c-3.186-3.099-8.177-5.693-15.967-5.774"/>
		<path fill="none" stroke="#884328" stroke-width="1.7513" stroke-linecap="round" stroke-miterlimit="10" d="M313.365,187.751
			c-1.842-0.75-4.097-1.231-6.856-1.259"/>
		<path fill="none" stroke="#884328" stroke-width="3" stroke-linecap="round" stroke-miterlimit="10" d="M275.483,188.471
			c3.186-3.099,8.177-5.693,15.967-5.774"/>
		<path fill="none" stroke="#884328" stroke-width="1.7513" stroke-linecap="round" stroke-miterlimit="10" d="M281.882,187.751
			c1.842-0.75,4.097-1.231,6.856-1.259"/>
		
			<line fill="none" stroke="#884328" stroke-width="4" stroke-miterlimit="10" x1="233.012" y1="120.233" x2="233.296" y2="100.667"/>
	</g>
</g>
</svg>
