<?xml version="1.0" encoding="utf-8"?>
<!-- Generator: Adobe Illustrator 17.0.0, SVG Export Plug-In . SVG Version: 6.00 Build 0)  -->
<!DOCTYPE svg PUBLIC "-//W3C//DTD SVG 1.1//EN" "http://www.w3.org/Graphics/SVG/1.1/DTD/svg11.dtd">
<svg version="1.1" id="Calque_1" xmlns="http://www.w3.org/2000/svg" xmlns:xlink="http://www.w3.org/1999/xlink" x="0px" y="0px"
	 width="100px" height="100px" viewBox="0 0 100 100" enable-background="new 0 0 100 100" xml:space="preserve">
<g id="XMLID_1_">
	<g>
		<path fill="#6BC0ED" d="M59.339,60.602c-2-0.04-3.78-1.48-4.14-3.39c-0.38-2.06,0.7-4.02,2.59-4.8c0.71-0.29,1.4-0.18,2.1,0.01
			c1.67,0.46,2.89,1.41,3.33,3.16c0.54,2.11-0.77,4.35-2.87,4.89C60.019,60.552,59.679,60.562,59.339,60.602z"/>
		<path fill="#8F421D" d="M56.559,47.292c-0.01-0.28,0.23-0.53,0.51-0.53c0.26,0,0.52,0.26,0.52,0.53c-0.01,0.28-0.26,0.52-0.54,0.5
			C56.769,47.792,56.559,47.572,56.559,47.292z"/>
		<path fill="#8F421D" d="M56.269,49.812c-0.25-0.01-0.5-0.26-0.5-0.51c0-0.28,0.24-0.52,0.53-0.51c0.29,0,0.52,0.23,0.51,0.52
			C56.799,49.582,56.539,49.832,56.269,49.812z"/>
		<path fill="#8F421D" d="M54.369,48.462c-0.28-0.01-0.5-0.23-0.5-0.5s0.25-0.53,0.52-0.53c0.28,0.01,0.53,0.26,0.52,0.53
			C54.899,48.252,54.659,48.472,54.369,48.462z"/>
		<path fill="#6BC0ED" d="M53.769,59.772c-1.3-2.24-1.24-4.5,0-6.78c0.59,0.27,1.02-0.15,1.56-0.24c-1.32,1.63-1.73,3.43-1.04,5.38
			c0.68,1.95,2.12,3.08,4.08,3.52v1.27C56.349,62.532,54.789,61.522,53.769,59.772z"/>
		<path fill="#6BC0ED" d="M57.049,47.792c0.28,0.02,0.53-0.22,0.54-0.5c0-0.27-0.26-0.53-0.52-0.53c-0.28,0-0.52,0.25-0.51,0.53
			C56.559,47.572,56.769,47.792,57.049,47.792z M56.299,48.792c-0.29-0.01-0.53,0.23-0.53,0.51c0,0.25,0.25,0.5,0.5,0.51
			c0.27,0.02,0.53-0.23,0.54-0.5C56.819,49.022,56.589,48.792,56.299,48.792z M53.869,47.962c0,0.27,0.22,0.49,0.5,0.5
			c0.29,0.01,0.53-0.21,0.54-0.5c0.01-0.27-0.24-0.52-0.52-0.53C54.119,47.432,53.869,47.692,53.869,47.962z M54.429,51.822
			c-0.42-1.52-0.83-3.02-1.25-4.55c1.46-0.39,2.88-0.76,4.28-1.13c0.54,0.65,1.04,1.3,1.57,1.92c0.97,1.14,2.16,1.98,3.44,2.73
			c1,0.59,1.77,1.41,2.36,2.42c2.21,3.79-0.01,8.8-4.3,9.68c-0.14,0.03-0.29,0.07-0.43,0.07c-0.34,0.01-0.55-0.18-0.61-0.52
			c-0.06-0.3,0.09-0.57,0.39-0.67c0.22-0.07,0.44-0.1,0.66-0.16c2.25-0.6,3.82-2.49,3.95-4.76c0.14-2.23-1.18-4.3-3.29-5.19
			c-2.01-0.85-4.02-0.75-6.04-0.1C54.919,51.632,54.689,51.722,54.429,51.822z"/>
		<path fill="#8F421D" d="M44.289,47.352c0.28,0,0.52,0.26,0.51,0.54c0,0.07-0.02,0.13-0.05,0.19c-0.02,0.05-0.05,0.09-0.09,0.13
			c-0.1,0.1-0.23,0.15-0.39,0.14c-0.27-0.01-0.49-0.24-0.49-0.51c0-0.1,0.04-0.2,0.09-0.28c0.04-0.04,0.08-0.09,0.12-0.12
			C44.079,47.382,44.189,47.352,44.289,47.352z"/>
		<path fill="#00567D" d="M44.249,48.372c-0.27-0.01-0.5-0.24-0.49-0.51c0-0.11,0.04-0.21,0.11-0.3c-0.05,0.08-0.09,0.18-0.09,0.28
			c0,0.27,0.22,0.5,0.49,0.51c0.16,0.01,0.29-0.04,0.39-0.14C44.569,48.322,44.419,48.382,44.249,48.372z"/>
		<path fill="#6BC0ED" d="M33.829,61.672c2.05,2.23,4.91,3.08,7.83,2.09c4.92-1.67,6.85-7.45,3.94-11.73
			c-0.13-0.19-0.16-0.35-0.1-0.56c0.41-1.45,0.81-2.91,1.21-4.37c0.06-0.21,0.1-0.43,0.16-0.65c-0.84-0.22-1.63-0.44-2.46-0.65
			c2.72-2.35,7.09-2.36,9.82-0.01c-0.83,0.22-1.63,0.44-2.45,0.66c0.02,0.1,0.04,0.18,0.05,0.26c0.44,1.57,0.86,3.15,1.3,4.73
			c0.07,0.23,0.04,0.41-0.1,0.62c-1.2,1.78-1.63,3.75-1.19,5.85c0.53,2.57,2.02,4.42,4.39,5.54c1.32,0.62,2.74,0.87,4.19,0.64
			c1.8-0.29,3.3-1.17,4.52-2.54c2.13-2.41,2.51-6.09,0.9-8.89c-0.68-1.18-1.59-2.14-2.75-2.83c-1.23-0.74-2.4-1.55-3.31-2.67
			c-0.57-0.68-1.11-1.39-1.64-2.1c-0.14-0.19-0.24-0.24-0.47-0.17c-0.51,0.16-1.04,0.26-1.54,0.42c-0.37,0.12-0.63,0.06-0.93-0.22
			c-1.97-1.73-4.3-2.43-6.89-2.15c-1.92,0.2-3.61,0.98-5.03,2.3c-0.18,0.17-0.34,0.18-0.55,0.13c-0.58-0.17-1.16-0.3-1.74-0.48
			c-0.24-0.07-0.36-0.01-0.5,0.19c-1.34,1.99-2.98,3.64-5.09,4.86c-1.7,0.99-2.76,2.54-3.3,4.44c-0.12,0.44-0.19,0.89-0.29,1.33
			v1.57c0.03,0.06,0.06,0.13,0.06,0.19C32.079,59.082,32.729,60.482,33.829,61.672z M49.319,27.312c14.49,0,26.22,11.74,26.22,26.22
			s-11.73,26.22-26.22,26.22c-14.48,0-26.22-11.74-26.22-26.22S34.839,27.312,49.319,27.312z"/>
		<path fill="#8F421D" d="M41.839,49.302c-0.01-0.29,0.22-0.51,0.51-0.51s0.53,0.24,0.53,0.51c-0.01,0.27-0.28,0.52-0.54,0.51
			C42.079,49.812,41.839,49.562,41.839,49.302z"/>
		<path fill="#6BC0ED" d="M40.229,61.672c1.99-0.45,3.45-1.59,4.13-3.54c0.69-1.95,0.28-3.74-1.05-5.38
			c0.55,0.09,0.98,0.51,1.56,0.25c1.11,1.95,1.29,3.96,0.4,6.01c-0.95,2.17-2.64,3.44-5,3.92c0.03-0.25,0.06-0.45,0.06-0.65
			C40.319,62.092,40.269,61.902,40.229,61.672z"/>
		<path fill="#8F421D" d="M42.089,47.282c0,0.29-0.22,0.52-0.51,0.52c-0.28,0-0.53-0.26-0.52-0.53c0.01-0.25,0.25-0.5,0.51-0.51
			C41.839,46.752,42.089,46.992,42.089,47.282z"/>
		<path fill="#6BC0ED" d="M37.479,52.922c0.75-0.41,1.56-0.63,2.4-0.7c0.61-0.04,1.15,0.22,1.63,0.54c1.47,0.95,2.17,2.33,1.98,4.06
			c-0.2,1.77-1.22,2.98-2.93,3.55c-0.4,0.14-0.83,0.17-1.26,0.25c-1.85,0.02-3.45-1.4-3.86-3.03
			C34.969,55.712,35.809,53.812,37.479,52.922z"/>
		<path fill="#6BC0ED" d="M41.579,47.802c0.29,0,0.51-0.23,0.51-0.52c0-0.29-0.25-0.53-0.52-0.52c-0.26,0.01-0.5,0.26-0.51,0.51
			C41.049,47.542,41.299,47.802,41.579,47.802z M42.339,49.812c0.26,0.01,0.53-0.24,0.54-0.51c0-0.27-0.24-0.51-0.53-0.51
			s-0.52,0.22-0.51,0.51C41.839,49.562,42.079,49.812,42.339,49.812z M43.759,47.862c-0.01,0.27,0.22,0.5,0.49,0.51
			c0.17,0.01,0.32-0.05,0.41-0.16c0.04-0.04,0.07-0.08,0.09-0.13c0.04-0.07,0.06-0.14,0.07-0.22c0.01-0.27-0.23-0.53-0.51-0.53
			c-0.11,0-0.23,0.04-0.32,0.11c-0.04,0.03-0.08,0.08-0.12,0.12C43.799,47.652,43.759,47.752,43.759,47.862z M38.609,61.722
			c0.41,0.09,0.61,0.36,0.55,0.72c-0.07,0.4-0.38,0.62-0.81,0.5c-0.63-0.18-1.28-0.34-1.86-0.64c-4.08-2.14-4.76-7.68-1.32-10.76
			c0.44-0.39,0.93-0.72,1.45-1.02c1.74-0.99,3.07-2.41,4.24-4c0.09-0.12,0.18-0.23,0.3-0.39c1.42,0.38,2.84,0.75,4.31,1.14
			c-0.42,1.52-0.83,3.02-1.24,4.53c-0.5-0.15-0.96-0.32-1.43-0.44c-1.97-0.5-3.9-0.45-5.75,0.49c-2.15,1.09-3.05,3.26-2.88,5.13
			c0.23,2.56,2.17,4.33,4.2,4.69C38.449,61.682,38.529,61.702,38.609,61.722z"/>
		<path fill="#8F421D" d="M55.199,57.212c0.36,1.91,2.14,3.35,4.14,3.39c0.34-0.04,0.68-0.05,1.01-0.13
			c2.1-0.54,3.41-2.78,2.87-4.89c-0.44-1.75-1.66-2.7-3.33-3.16c-0.7-0.19-1.39-0.3-2.1-0.01
			C55.899,53.192,54.819,55.152,55.199,57.212z M53.179,47.272c0.42,1.53,0.83,3.03,1.25,4.55c0.26-0.1,0.49-0.19,0.73-0.26
			c2.02-0.65,4.03-0.75,6.04,0.1c2.11,0.89,3.43,2.96,3.29,5.19c-0.13,2.27-1.7,4.16-3.95,4.76c-0.22,0.06-0.44,0.09-0.66,0.16
			c-0.3,0.1-0.45,0.37-0.39,0.67c0.06,0.34,0.27,0.53,0.61,0.52c0.14,0,0.29-0.04,0.43-0.07c4.29-0.88,6.51-5.89,4.3-9.68
			c-0.59-1.01-1.36-1.83-2.36-2.42c-1.28-0.75-2.47-1.59-3.44-2.73c-0.53-0.62-1.03-1.27-1.57-1.92
			C56.059,46.512,54.639,46.882,53.179,47.272z M53.769,52.992c-1.24,2.28-1.3,4.54,0,6.78c1.02,1.75,2.58,2.76,4.6,3.15v-1.27
			c-1.96-0.44-3.4-1.57-4.08-3.52c-0.69-1.95-0.28-3.75,1.04-5.38C54.789,52.842,54.359,53.262,53.769,52.992z M43.309,52.752
			c1.33,1.64,1.74,3.43,1.05,5.38c-0.68,1.95-2.14,3.09-4.13,3.54c0.04,0.23,0.09,0.42,0.1,0.61c0,0.2-0.03,0.4-0.06,0.65
			c2.36-0.48,4.05-1.75,5-3.92c0.89-2.05,0.71-4.06-0.4-6.01C44.289,53.262,43.859,52.842,43.309,52.752z M39.299,60.622
			c0.43-0.08,0.86-0.11,1.26-0.25c1.71-0.57,2.73-1.78,2.93-3.55c0.19-1.73-0.51-3.11-1.98-4.06c-0.48-0.32-1.02-0.58-1.63-0.54
			c-0.84,0.07-1.65,0.29-2.4,0.7c-1.67,0.89-2.51,2.79-2.04,4.67C35.849,59.222,37.449,60.642,39.299,60.622z M35.399,49.942
			c2.11-1.22,3.75-2.87,5.09-4.86c0.14-0.2,0.26-0.26,0.5-0.19c0.58,0.18,1.16,0.31,1.74,0.48c0.21,0.05,0.37,0.04,0.55-0.13
			c1.42-1.32,3.11-2.1,5.03-2.3c2.59-0.28,4.92,0.42,6.89,2.15c0.3,0.28,0.56,0.34,0.93,0.22c0.5-0.16,1.03-0.26,1.54-0.42
			c0.23-0.07,0.33-0.02,0.47,0.17c0.53,0.71,1.07,1.42,1.64,2.1c0.91,1.12,2.08,1.93,3.31,2.67c1.16,0.69,2.07,1.65,2.75,2.83
			c1.61,2.8,1.23,6.48-0.9,8.89c-1.22,1.37-2.72,2.25-4.52,2.54c-1.45,0.23-2.87-0.02-4.19-0.64c-2.37-1.12-3.86-2.97-4.39-5.54
			c-0.44-2.1-0.01-4.07,1.19-5.85c0.14-0.21,0.17-0.39,0.1-0.62c-0.44-1.58-0.86-3.16-1.3-4.73c-0.01-0.08-0.03-0.16-0.05-0.26
			c0.82-0.22,1.62-0.44,2.45-0.66c-2.73-2.35-7.1-2.34-9.82,0.01c0.83,0.21,1.62,0.43,2.46,0.65c-0.06,0.22-0.1,0.44-0.16,0.65
			c-0.4,1.46-0.8,2.92-1.21,4.37c-0.06,0.21-0.03,0.37,0.1,0.56c2.91,4.28,0.98,10.06-3.94,11.73c-2.92,0.99-5.78,0.14-7.83-2.09
			c-1.1-1.19-1.75-2.59-1.96-4.2c0-0.06-0.03-0.13-0.06-0.19v-1.57c0.1-0.44,0.17-0.89,0.29-1.33
			C32.639,52.482,33.699,50.932,35.399,49.942z M37.049,51.852c1.85-0.94,3.78-0.99,5.75-0.49c0.47,0.12,0.93,0.29,1.43,0.44
			c0.41-1.51,0.82-3.01,1.24-4.53c-1.47-0.39-2.89-0.76-4.31-1.14c-0.12,0.16-0.21,0.27-0.3,0.39c-1.17,1.59-2.5,3.01-4.24,4
			c-0.52,0.3-1.01,0.63-1.45,1.02c-3.44,3.08-2.76,8.62,1.32,10.76c0.58,0.3,1.23,0.46,1.86,0.64c0.43,0.12,0.74-0.1,0.81-0.5
			c0.06-0.36-0.14-0.63-0.55-0.72c-0.08-0.02-0.16-0.04-0.24-0.05c-2.03-0.36-3.97-2.13-4.2-4.69
			C33.999,55.112,34.899,52.942,37.049,51.852z"/>
	</g>
	<g>
		<path fill="none" stroke="#8F421D" stroke-width="1.13" stroke-miterlimit="10" d="M75.539,53.532
			c0,14.48-11.73,26.22-26.22,26.22c-14.48,0-26.22-11.74-26.22-26.22s11.74-26.22,26.22-26.22
			C63.809,27.312,75.539,39.052,75.539,53.532z"/>
		<path fill="none" stroke="#56C3F1" stroke-width="0.25" stroke-miterlimit="10" d="M31.809,55.712c0.1-0.44,0.17-0.89,0.29-1.33
			c0.54-1.9,1.6-3.45,3.3-4.44c2.11-1.22,3.75-2.87,5.09-4.86c0.14-0.2,0.26-0.26,0.5-0.19c0.58,0.18,1.16,0.31,1.74,0.48
			c0.21,0.05,0.37,0.04,0.55-0.13c1.42-1.32,3.11-2.1,5.03-2.3c2.59-0.28,4.92,0.42,6.89,2.15c0.3,0.28,0.56,0.34,0.93,0.22
			c0.5-0.16,1.03-0.26,1.54-0.42c0.23-0.07,0.33-0.02,0.47,0.17c0.53,0.71,1.07,1.42,1.64,2.1c0.91,1.12,2.08,1.93,3.31,2.67
			c1.16,0.69,2.07,1.65,2.75,2.83c1.61,2.8,1.23,6.48-0.9,8.89c-1.22,1.37-2.72,2.25-4.52,2.54c-1.45,0.23-2.87-0.02-4.19-0.64
			c-2.37-1.12-3.86-2.97-4.39-5.54c-0.44-2.1-0.01-4.07,1.19-5.85c0.14-0.21,0.17-0.39,0.1-0.62c-0.44-1.58-0.86-3.16-1.3-4.73
			c-0.01-0.08-0.03-0.16-0.05-0.26c0.82-0.22,1.62-0.44,2.45-0.66c-2.73-2.35-7.1-2.34-9.82,0.01c0.83,0.21,1.62,0.43,2.46,0.65
			c-0.06,0.22-0.1,0.44-0.16,0.65c-0.4,1.46-0.8,2.92-1.21,4.37c-0.06,0.21-0.03,0.37,0.1,0.56c2.91,4.28,0.98,10.06-3.94,11.73
			c-2.92,0.99-5.78,0.14-7.83-2.09c-1.1-1.19-1.75-2.59-1.96-4.2c0-0.06-0.03-0.13-0.06-0.19V55.712z"/>
		<path fill="none" stroke="#56C3F1" stroke-width="0.25" stroke-miterlimit="10" d="M39.299,60.622c0.43-0.08,0.86-0.11,1.26-0.25
			c1.71-0.57,2.73-1.78,2.93-3.55c0.19-1.73-0.51-3.11-1.98-4.06c-0.48-0.32-1.02-0.58-1.63-0.54c-0.84,0.07-1.65,0.29-2.4,0.7
			c-1.67,0.89-2.51,2.79-2.04,4.67C35.849,59.222,37.449,60.642,39.299,60.622z"/>
		<path fill="none" stroke="#56C3F1" stroke-width="0.25" stroke-miterlimit="10" d="M59.339,60.602c0.34-0.04,0.68-0.05,1.01-0.13
			c2.1-0.54,3.41-2.78,2.87-4.89c-0.44-1.75-1.66-2.7-3.33-3.16c-0.7-0.19-1.39-0.3-2.1-0.01c-1.89,0.78-2.97,2.74-2.59,4.8
			C55.559,59.122,57.339,60.562,59.339,60.602z"/>
		<path fill="none" stroke="#56C3F1" stroke-width="0.25" stroke-miterlimit="10" d="M41.159,46.132c-0.12,0.16-0.21,0.27-0.3,0.39
			c-1.17,1.59-2.5,3.01-4.24,4c-0.52,0.3-1.01,0.63-1.45,1.02c-3.44,3.08-2.76,8.62,1.32,10.76c0.58,0.3,1.23,0.46,1.86,0.64
			c0.43,0.12,0.74-0.1,0.81-0.5c0.06-0.36-0.14-0.63-0.55-0.72c-0.08-0.02-0.16-0.04-0.24-0.05c-2.03-0.36-3.97-2.13-4.2-4.69
			c-0.17-1.87,0.73-4.04,2.88-5.13c1.85-0.94,3.78-0.99,5.75-0.49c0.47,0.12,0.93,0.29,1.43,0.44c0.41-1.51,0.82-3.01,1.24-4.53
			C43.999,46.882,42.579,46.512,41.159,46.132z"/>
		<path fill="none" stroke="#56C3F1" stroke-width="0.25" stroke-miterlimit="10" d="M54.429,51.822c0.26-0.1,0.49-0.19,0.73-0.26
			c2.02-0.65,4.03-0.75,6.04,0.1c2.11,0.89,3.43,2.96,3.29,5.19c-0.13,2.27-1.7,4.16-3.95,4.76c-0.22,0.06-0.44,0.09-0.66,0.16
			c-0.3,0.1-0.45,0.37-0.39,0.67c0.06,0.34,0.27,0.53,0.61,0.52c0.14,0,0.29-0.04,0.43-0.07c4.29-0.88,6.51-5.89,4.3-9.68
			c-0.59-1.01-1.36-1.83-2.36-2.42c-1.28-0.75-2.47-1.59-3.44-2.73c-0.53-0.62-1.03-1.27-1.57-1.92c-1.4,0.37-2.82,0.74-4.28,1.13
			C53.599,48.802,54.009,50.302,54.429,51.822z"/>
		<path fill="none" stroke="#56C3F1" stroke-width="0.25" stroke-miterlimit="10" d="M43.309,52.752c1.33,1.64,1.74,3.43,1.05,5.38
			c-0.68,1.95-2.14,3.09-4.13,3.54c0.04,0.23,0.09,0.42,0.1,0.61c0,0.2-0.03,0.4-0.06,0.65c2.36-0.48,4.05-1.75,5-3.92
			c0.89-2.05,0.71-4.06-0.4-6.01C44.289,53.262,43.859,52.842,43.309,52.752z"/>
		<path fill="none" stroke="#56C3F1" stroke-width="0.25" stroke-miterlimit="10" d="M53.769,52.992c-1.24,2.28-1.3,4.54,0,6.78
			c1.02,1.75,2.58,2.76,4.6,3.15v-1.27c-1.96-0.44-3.4-1.57-4.08-3.52c-0.69-1.95-0.28-3.75,1.04-5.38
			C54.789,52.842,54.359,53.262,53.769,52.992z"/>
		<path fill="none" stroke="#56C3F1" stroke-width="0.25" stroke-miterlimit="10" d="M43.989,47.442c0.09-0.07,0.21-0.11,0.32-0.11
			c0.28,0,0.52,0.26,0.51,0.53c-0.01,0.08-0.03,0.15-0.07,0.22c-0.02,0.05-0.05,0.09-0.09,0.13c-0.1,0.1-0.23,0.15-0.39,0.14
			c-0.27-0.01-0.49-0.24-0.49-0.51c0-0.1,0.04-0.2,0.09-0.28C43.909,47.522,43.949,47.472,43.989,47.442z"/>
		<path fill="none" stroke="#56C3F1" stroke-width="0.25" stroke-miterlimit="10" d="M41.579,47.802c-0.28,0-0.53-0.26-0.52-0.53
			c0.01-0.25,0.25-0.5,0.51-0.51c0.27-0.01,0.52,0.23,0.52,0.52C42.089,47.572,41.869,47.802,41.579,47.802z"/>
		<path fill="none" stroke="#56C3F1" stroke-width="0.25" stroke-miterlimit="10" d="M42.349,48.792c0.29,0,0.53,0.24,0.53,0.51
			c-0.01,0.27-0.28,0.52-0.54,0.51c-0.26,0-0.5-0.25-0.5-0.51C41.829,49.012,42.059,48.792,42.349,48.792z"/>
		<path fill="none" stroke="#56C3F1" stroke-width="0.25" stroke-miterlimit="10" d="M54.909,47.962c-0.01,0.29-0.25,0.51-0.54,0.5
			c-0.28-0.01-0.5-0.23-0.5-0.5s0.25-0.53,0.52-0.53C54.669,47.442,54.919,47.692,54.909,47.962z"/>
		<path fill="none" stroke="#56C3F1" stroke-width="0.25" stroke-miterlimit="10" d="M57.069,46.762c0.26,0,0.52,0.26,0.52,0.53
			c-0.01,0.28-0.26,0.52-0.54,0.5c-0.28,0-0.49-0.22-0.49-0.5C56.549,47.012,56.789,46.762,57.069,46.762z"/>
		<path fill="none" stroke="#56C3F1" stroke-width="0.25" stroke-miterlimit="10" d="M56.809,49.312c-0.01,0.27-0.27,0.52-0.54,0.5
			c-0.25-0.01-0.5-0.26-0.5-0.51c0-0.28,0.24-0.52,0.53-0.51C56.589,48.792,56.819,49.022,56.809,49.312z"/>
	</g>
</g>
</svg>
