<?xml version="1.0" encoding="utf-8"?>
<!-- Generator: Adobe Illustrator 17.0.0, SVG Export Plug-In . SVG Version: 6.00 Build 0)  -->
<!DOCTYPE svg PUBLIC "-//W3C//DTD SVG 1.1//EN" "http://www.w3.org/Graphics/SVG/1.1/DTD/svg11.dtd">
<svg version="1.1" id="Calque_1" xmlns="http://www.w3.org/2000/svg" xmlns:xlink="http://www.w3.org/1999/xlink" x="0px" y="0px"
	 width="100px" height="100px" viewBox="0 0 100 100" enable-background="new 0 0 100 100" xml:space="preserve">
<g id="XMLID_1_">
	<g>
		<path fill="#8F421D" d="M52.403,39.935c-0.01-0.275,0.216-0.491,0.481-0.491c0.255-0.01,0.471,0.206,0.481,0.461
			c0.01,0.255-0.206,0.491-0.481,0.491C52.629,40.396,52.413,40.19,52.403,39.935z"/>
		<path fill="#8F421D" d="M51.765,37.658c0.265,0,0.481,0.236,0.471,0.5c0,0.255-0.226,0.471-0.471,0.471
			c-0.275,0-0.481-0.226-0.471-0.5C51.294,37.874,51.52,37.658,51.765,37.658z"/>
		<path fill="#6BC0ED" d="M47.604,56.863c0.196,0.059,0.393-0.02,0.461-0.216c0.02-0.059,0.029-0.137,0.029-0.216h0.932
			c0,1.6,0,3.199,0,4.799c0,0.275,0.039,0.5,0.285,0.658h0.334c0.236-0.147,0.285-0.373,0.285-0.628c0-1.619,0-3.238,0-4.848h0.903
			c0,0.049,0.01,0.088,0.02,0.137c0.079,0.285,0.314,0.373,0.697,0.285c1.874-0.451,3.454-1.394,4.711-2.866
			c1.816-2.13,2.493-4.593,2.061-7.35c-0.226-1.452-0.815-2.777-1.717-3.945c-0.128-0.157-0.147-0.314-0.118-0.5
			c0.236-1.148,0.196-2.287-0.167-3.395c-0.844-2.62-2.63-4.259-5.29-4.936c-0.275-0.069-0.559-0.108-0.834-0.167h-1.433
			c-0.226,0.049-0.461,0.088-0.687,0.128c-3.798,0.805-6.251,4.347-5.633,8.175c0.059,0.363-0.02,0.608-0.226,0.903
			c-1.619,2.296-2.12,4.828-1.384,7.547c0.765,2.836,2.561,4.818,5.25,5.976C46.564,56.608,47.094,56.726,47.604,56.863z
			 M49.479,20.425c14.534,0,26.31,11.786,26.31,26.32s-11.776,26.32-26.31,26.32c-14.544,0-26.32-11.786-26.32-26.32
			S34.935,20.425,49.479,20.425z"/>
		<path fill="#8F421D" d="M53.208,49.042c0.137,0.137,0.177,0.324,0.079,0.5c-0.059,0.098-0.147,0.186-0.226,0.275
			c-0.981,0.981-1.963,1.963-2.944,2.934c-0.137,0.137-0.186,0.275-0.186,0.461c0,1.07,0,2.13,0,3.199c0,1.609,0,3.229,0,4.848
			c0,0.255-0.049,0.481-0.285,0.628h-0.334c-0.245-0.157-0.285-0.383-0.285-0.658c0-1.6,0-3.199,0-4.799
			c0.01-2.316,0-4.622,0.01-6.938c0-0.186-0.049-0.324-0.186-0.451c-0.991-0.981-1.963-1.963-2.944-2.944
			c-0.069-0.059-0.128-0.128-0.186-0.206c-0.137-0.196-0.128-0.432,0.049-0.589c0.186-0.157,0.383-0.167,0.579-0.029
			c0.079,0.059,0.157,0.128,0.226,0.206c0.736,0.726,1.472,1.462,2.198,2.198c0.069,0.059,0.137,0.118,0.265,0.236v-0.334v-5.564
			c0-0.088,0-0.186,0-0.275c0-0.55,0.118-0.756,0.451-0.746c0.324,0,0.442,0.206,0.442,0.736c0,3.18,0,6.369,0,9.558v0.343
			c0.108-0.098,0.177-0.157,0.245-0.216c0.746-0.746,1.501-1.501,2.257-2.257c0.079-0.079,0.167-0.167,0.275-0.216
			C52.894,48.836,53.07,48.894,53.208,49.042z"/>
		<path fill="#8F421D" d="M45.622,50.641c0.265,0,0.471,0.216,0.471,0.471c0,0.275-0.226,0.481-0.5,0.471
			c-0.255,0-0.461-0.216-0.461-0.471C45.131,50.838,45.347,50.631,45.622,50.641z"/>
		<path fill="#6BC0ED" d="M45.592,51.583c0.275,0.01,0.5-0.196,0.5-0.471c0-0.255-0.206-0.471-0.471-0.471
			c-0.275-0.01-0.491,0.196-0.491,0.471C45.131,51.368,45.337,51.583,45.592,51.583z M52.236,38.158c0.01-0.265-0.206-0.5-0.471-0.5
			c-0.245,0-0.471,0.216-0.471,0.471c-0.01,0.275,0.196,0.5,0.471,0.5C52.01,38.629,52.236,38.414,52.236,38.158z M53.365,39.905
			c-0.01-0.255-0.226-0.471-0.481-0.461c-0.265,0-0.491,0.216-0.481,0.491c0.01,0.255,0.226,0.461,0.481,0.461
			C53.159,40.396,53.375,40.16,53.365,39.905z M52.707,48.944c-0.108,0.049-0.196,0.137-0.275,0.216
			c-0.756,0.756-1.511,1.511-2.257,2.257c-0.069,0.059-0.137,0.118-0.245,0.216v-0.343c0-3.189,0-6.379,0-9.558
			c0-0.53-0.118-0.736-0.442-0.736c-0.334-0.01-0.451,0.196-0.451,0.746c0,0.088,0,0.186,0,0.275v5.564v0.334
			c-0.128-0.118-0.196-0.177-0.265-0.236c-0.726-0.736-1.462-1.472-2.198-2.198c-0.069-0.079-0.147-0.147-0.226-0.206
			c-0.196-0.137-0.393-0.128-0.579,0.029c-0.177,0.157-0.186,0.393-0.049,0.589c0.059,0.079,0.118,0.147,0.186,0.206
			c0.981,0.981,1.953,1.963,2.944,2.944c0.137,0.128,0.186,0.265,0.186,0.451c-0.01,2.316,0,4.622-0.01,6.938h-0.932
			c0-0.088-0.02-0.177-0.059-0.236c-0.069-0.128-0.255-0.206-0.402-0.245c-2.228-0.559-3.925-1.816-5.093-3.788
			c-1.011-1.708-1.335-3.572-0.972-5.535c0.245-1.344,0.815-2.561,1.688-3.621c0.177-0.206,0.245-0.422,0.177-0.707
			c-0.226-0.913-0.255-1.835-0.059-2.758c0.697-3.199,3.7-5.378,6.997-4.877c2.139,0.314,3.7,1.472,4.681,3.386
			c0.687,1.335,0.824,2.748,0.481,4.2c-0.069,0.324,0.01,0.559,0.206,0.805c1.374,1.737,1.982,3.719,1.737,5.937
			c-0.206,1.884-1.011,3.503-2.355,4.848c-1.06,1.06-2.326,1.757-3.788,2.11c-0.334,0.079-0.5,0.236-0.5,0.461H49.93
			c0-1.07,0-2.13,0-3.199c0-0.186,0.049-0.324,0.186-0.461c0.981-0.972,1.963-1.953,2.944-2.934
			c0.079-0.088,0.167-0.177,0.226-0.275c0.098-0.177,0.059-0.363-0.079-0.5C53.07,48.894,52.894,48.836,52.707,48.944z"/>
		<path fill="#8F421D" d="M55.74,43.055c-0.196-0.245-0.275-0.481-0.206-0.805c0.343-1.452,0.206-2.866-0.481-4.2
			c-0.981-1.914-2.542-3.072-4.681-3.386c-3.297-0.5-6.3,1.678-6.997,4.877c-0.196,0.922-0.167,1.845,0.059,2.758
			c0.069,0.285,0,0.5-0.177,0.707c-0.873,1.06-1.443,2.277-1.688,3.621c-0.363,1.963-0.039,3.827,0.972,5.535
			c1.168,1.973,2.866,3.229,5.093,3.788c0.147,0.039,0.334,0.118,0.402,0.245c0.039,0.059,0.059,0.147,0.059,0.236
			c0,0.079-0.01,0.157-0.029,0.216c-0.069,0.196-0.265,0.275-0.461,0.216c-0.51-0.137-1.04-0.255-1.521-0.461
			c-2.689-1.158-4.485-3.14-5.25-5.976c-0.736-2.718-0.236-5.25,1.384-7.547c0.206-0.294,0.285-0.54,0.226-0.903
			c-0.618-3.827,1.835-7.37,5.633-8.175c0.226-0.039,0.461-0.079,0.687-0.128h1.433c0.275,0.059,0.559,0.098,0.834,0.167
			c2.659,0.677,4.446,2.316,5.29,4.936c0.363,1.109,0.402,2.247,0.167,3.395c-0.029,0.186-0.01,0.343,0.118,0.5
			c0.903,1.168,1.492,2.493,1.717,3.945c0.432,2.758-0.245,5.221-2.061,7.35c-1.256,1.472-2.836,2.414-4.711,2.866
			c-0.383,0.088-0.618,0-0.697-0.285c-0.01-0.049-0.02-0.088-0.02-0.137c0-0.226,0.167-0.383,0.5-0.461
			c1.462-0.353,2.728-1.05,3.788-2.11c1.344-1.344,2.149-2.964,2.355-4.848C57.722,46.775,57.114,44.792,55.74,43.055z"/>
	</g>
	<g>
		<path fill="none" stroke="#8F421D" stroke-miterlimit="10" d="M75.789,46.745c0,14.534-11.776,26.32-26.31,26.32
			c-14.544,0-26.32-11.786-26.32-26.32s11.776-26.32,26.32-26.32C64.012,20.425,75.789,32.211,75.789,46.745z"/>
	</g>
</g>
</svg>
