<?xml version="1.0" encoding="utf-8"?>
<!-- Generator: Adobe Illustrator 17.0.0, SVG Export Plug-In . SVG Version: 6.00 Build 0)  -->
<!DOCTYPE svg PUBLIC "-//W3C//DTD SVG 1.1//EN" "http://www.w3.org/Graphics/SVG/1.1/DTD/svg11.dtd">
<svg version="1.1" id="Calque_1" xmlns="http://www.w3.org/2000/svg" xmlns:xlink="http://www.w3.org/1999/xlink" x="0px" y="0px"
	 width="100px" height="100px" viewBox="0 0 100 100" enable-background="new 0 0 100 100" xml:space="preserve">
<g id="XMLID_1_">
	<g>
		<path fill="#6BC0ED" d="M48.965,22.976c14.65,0,26.524,11.874,26.524,26.524S63.615,76.024,48.965,76.024
			c-14.64,0-26.524-11.874-26.524-26.524S34.325,22.976,48.965,22.976z M62.188,57.965v-0.664c-0.149-0.416-0.317-0.862-0.733-1.041
			c-0.446-0.178-0.496-0.486-0.496-0.872c0-0.02,0-0.04,0-0.05c-0.109-1.873-0.565-3.648-1.338-5.343
			c-1.487-3.271-3.747-5.878-6.809-7.781c-0.337-0.208-0.684-0.396-1.031-0.595c0.079-0.258,0.069-0.506-0.188-0.605
			c-0.218-0.069-0.466-0.05-0.724-0.079c0.04-0.099,0.079-0.188,0.109-0.268c0.694-1.447,1.388-2.894,2.081-4.351
			c0.228-0.476,0.05-0.753-0.486-0.753c-2.399,0-4.807,0-7.206,0c-0.535,0-0.714,0.278-0.486,0.763
			c0.694,1.457,1.388,2.904,2.081,4.361c0.04,0.079,0.069,0.169,0.109,0.258c-0.961,0.079-0.971,0.089-0.942,0.694
			c-0.069,0.04-0.129,0.079-0.198,0.109c-1.774,0.952-3.32,2.181-4.649,3.687c-2.518,2.855-4.054,6.135-4.302,9.981
			c-0.02,0.377-0.079,0.664-0.496,0.843c-0.416,0.178-0.585,0.624-0.743,1.041v0.664c0.109,0.218,0.198,0.456,0.337,0.654
			c0.357,0.496,0.872,0.684,1.457,0.684c0.773,0,1.536,0,2.3,0c6.829,0,13.659,0,20.478,0c0.763,0,1.358-0.258,1.715-0.961
			C62.089,58.223,62.138,58.094,62.188,57.965z"/>
		<path fill="#8F421D" d="M57.698,55.963c0.297,0.01,0.486,0.169,0.496,0.416c0.01,0.258-0.188,0.436-0.496,0.446
			c-0.535,0.01-1.07,0-1.606,0c-0.525,0-1.061,0-1.596,0c-0.297,0-0.486-0.139-0.515-0.357c-0.04-0.297,0.149-0.506,0.496-0.506
			c0.793-0.01,1.586-0.01,2.379-0.01C57.133,55.953,57.42,55.953,57.698,55.963z"/>
		<path fill="#6BC0ED" d="M47.994,40.827c-0.704-1.437-1.388-2.874-2.072-4.312c-0.01-0.02,0-0.04-0.01-0.079h1.417
			c0,0.198-0.01,0.396,0,0.585c0.01,0.327,0.188,0.535,0.446,0.525s0.416-0.208,0.416-0.525c0-0.188,0-0.377,0-0.585h3.846
			c-0.03,0.089-0.059,0.159-0.089,0.228c-0.654,1.358-1.308,2.726-1.953,4.084c-0.079,0.169-0.169,0.228-0.347,0.218
			c-0.476-0.01-0.952,0-1.427-0.01C48.143,40.956,48.024,40.897,47.994,40.827z"/>
		<path fill="#6BC0ED" d="M58.193,56.379c-0.01-0.248-0.198-0.406-0.496-0.416c-0.278-0.01-0.565-0.01-0.843-0.01
			c-0.793,0-1.586,0-2.379,0.01c-0.347,0-0.535,0.208-0.496,0.506c0.03,0.218,0.218,0.357,0.515,0.357c0.535,0,1.07,0,1.596,0
			c0.535,0,1.07,0.01,1.606,0C58.005,56.815,58.203,56.637,58.193,56.379z M47.498,51.978c0.396-0.733,0.525-1.507,0.456-2.329
			h0.069c0.416,0,0.823,0,1.229,0c0.03,0,0.05,0,0.069,0c0.089-0.01,0.149-0.089,0.119-0.178c-0.02-0.059-0.069-0.099-0.159-0.099
			c-0.426,0-0.852,0-1.289,0h-0.069c-0.01-0.069-0.02-0.129-0.04-0.188c-0.079-0.287-0.149-0.575-0.238-0.852
			c-0.129-0.426-0.159-0.852,0.03-1.269c0.149-0.317,0.387-0.525,0.724-0.634c0.268-0.079,0.545-0.069,0.823-0.02
			c0.575,0.099,0.971,0.426,1.17,0.981c0.04,0.139,0.059,0.287,0.089,0.426c0.01,0.099,0.069,0.159,0.159,0.139
			c0.079,0,0.129-0.069,0.109-0.169c-0.01-0.099-0.02-0.208-0.05-0.307c-0.188-0.714-0.624-1.18-1.368-1.338
			c-0.099-0.02-0.198-0.03-0.297-0.05h-0.377c-0.079,0.02-0.169,0.04-0.258,0.059c-0.307,0.069-0.555,0.218-0.763,0.466
			c-0.258,0.307-0.367,0.664-0.377,1.061c0,0.268,0.05,0.535,0.149,0.793c0.099,0.287,0.188,0.595,0.228,0.902h-0.069
			c-0.506,0-1.011,0-1.507,0c-0.02,0-0.05,0-0.069,0c-0.069,0.01-0.119,0.069-0.119,0.139c0,0.069,0.05,0.129,0.129,0.139
			c0.02,0,0.04,0,0.059,0c0.515,0,1.031,0,1.546,0h0.069c0,0.01,0.01,0.01,0.01,0.02c0.04,0.496,0.01,0.991-0.139,1.467
			c-0.119,0.396-0.287,0.763-0.575,1.07c-0.089,0.089-0.069,0.168,0.04,0.248h0.089c0.268-0.159,0.555-0.238,0.852-0.287
			c0.357-0.05,0.704-0.01,1.051,0.109s0.704,0.198,1.08,0.149c0.337-0.03,0.634-0.159,0.852-0.426c0.059-0.079,0.059-0.159,0-0.218
			c-0.059-0.05-0.139-0.04-0.208,0.03c-0.228,0.278-0.535,0.357-0.872,0.347c-0.268,0-0.515-0.059-0.753-0.139
			c-0.426-0.149-0.843-0.188-1.279-0.109C47.716,51.929,47.607,51.958,47.498,51.978z M37.378,56.825c0.327-0.01,0.664,0.01,1.001,0
			c0.337-0.01,0.525-0.178,0.515-0.446c0-0.258-0.188-0.416-0.515-0.416c-0.178-0.01-0.357,0-0.585,0
			c0.03-0.416,0.04-0.813,0.079-1.209c0.258-2.052,0.892-3.965,1.903-5.759c1.061-1.873,2.419-3.489,4.094-4.837
			c1.15-0.942,2.409-1.715,3.796-2.26c0.129-0.05,0.278-0.079,0.416-0.089c0.387-0.01,0.763,0.03,1.14-0.01
			c0.694-0.069,1.298,0.159,1.893,0.466c3.41,1.705,5.898,4.322,7.553,7.731c0.783,1.596,1.269,3.301,1.417,5.085
			c0.02,0.278,0.04,0.555,0.059,0.882c-0.218,0-0.387-0.01-0.555,0c-0.357,0-0.555,0.159-0.555,0.436
			c0.01,0.268,0.208,0.426,0.565,0.426c0.287,0,0.565,0,0.852,0c0.525,0,0.882,0.317,0.882,0.793c0,0.496-0.357,0.813-0.902,0.813
			c-1.358,0.01-2.716,0-4.074,0c-6.254,0-12.519,0-18.773,0c-0.149,0-0.317,0-0.456-0.05c-0.377-0.129-0.575-0.486-0.515-0.902
			C36.674,57.113,36.992,56.835,37.378,56.825z"/>
		<path fill="#8F421D" d="M45.922,36.516c0.684,1.437,1.368,2.874,2.072,4.312c0.03,0.069,0.149,0.129,0.228,0.129
			c0.476,0.01,0.952,0,1.427,0.01c0.178,0.01,0.268-0.05,0.347-0.218c0.644-1.358,1.298-2.726,1.953-4.084
			c0.03-0.069,0.059-0.139,0.089-0.228h-3.846c0,0.208,0,0.396,0,0.585c0,0.317-0.159,0.515-0.416,0.525s-0.436-0.198-0.446-0.525
			c-0.01-0.188,0-0.387,0-0.585h-1.417C45.922,36.476,45.912,36.496,45.922,36.516z M39.836,59.303c-0.763,0-1.526,0-2.3,0
			c-0.585,0-1.1-0.188-1.457-0.684c-0.139-0.198-0.228-0.436-0.337-0.654v-0.664c0.159-0.416,0.327-0.862,0.743-1.041
			c0.416-0.178,0.476-0.466,0.496-0.843c0.248-3.846,1.784-7.127,4.302-9.981c1.328-1.507,2.874-2.736,4.649-3.687
			c0.069-0.03,0.129-0.069,0.198-0.109c-0.03-0.605-0.02-0.615,0.942-0.694c-0.04-0.089-0.069-0.178-0.109-0.258
			c-0.694-1.457-1.388-2.904-2.081-4.361c-0.228-0.486-0.05-0.763,0.486-0.763c2.399,0,4.807,0,7.206,0
			c0.535,0,0.714,0.278,0.486,0.753c-0.694,1.457-1.388,2.904-2.081,4.351c-0.03,0.079-0.069,0.168-0.109,0.268
			c0.258,0.03,0.506,0.01,0.724,0.079c0.258,0.099,0.268,0.347,0.188,0.605c0.347,0.198,0.694,0.387,1.031,0.595
			c3.063,1.903,5.323,4.51,6.809,7.781c0.773,1.695,1.229,3.469,1.338,5.343c0,0.01,0,0.03,0,0.05c0,0.387,0.05,0.694,0.496,0.872
			c0.416,0.178,0.585,0.624,0.733,1.041v0.664c-0.05,0.129-0.099,0.258-0.159,0.377c-0.357,0.704-0.952,0.961-1.715,0.961
			C53.495,59.303,46.666,59.303,39.836,59.303z M38.379,56.825c-0.337,0.01-0.674-0.01-1.001,0c-0.387,0.01-0.704,0.287-0.763,0.654
			c-0.059,0.416,0.139,0.773,0.515,0.902c0.139,0.05,0.307,0.05,0.456,0.05c6.254,0,12.519,0,18.773,0c1.358,0,2.716,0.01,4.074,0
			c0.545,0,0.902-0.317,0.902-0.813c0-0.476-0.357-0.793-0.882-0.793c-0.287,0-0.565,0-0.852,0c-0.357,0-0.555-0.159-0.565-0.426
			c0-0.278,0.198-0.436,0.555-0.436c0.169-0.01,0.337,0,0.555,0c-0.02-0.327-0.04-0.605-0.059-0.882
			c-0.149-1.784-0.634-3.489-1.417-5.085c-1.655-3.41-4.143-6.026-7.553-7.731c-0.595-0.307-1.199-0.535-1.893-0.466
			c-0.377,0.04-0.753,0-1.14,0.01c-0.139,0.01-0.287,0.04-0.416,0.089c-1.388,0.545-2.646,1.318-3.796,2.26
			c-1.675,1.348-3.033,2.964-4.094,4.837c-1.011,1.794-1.645,3.707-1.903,5.759c-0.04,0.396-0.05,0.793-0.079,1.209
			c0.228,0,0.406-0.01,0.585,0c0.327,0,0.515,0.159,0.515,0.416C38.905,56.647,38.716,56.815,38.379,56.825z"/>
	</g>
	<g>
		<path fill="none" stroke="#8F421D" stroke-width="1.13" stroke-miterlimit="10" d="M75.489,49.5
			c0,14.65-11.874,26.524-26.524,26.524c-14.64,0-26.524-11.874-26.524-26.524s11.884-26.524,26.524-26.524
			C63.615,22.976,75.489,34.85,75.489,49.5z"/>
		<path fill="none" stroke="#8F421D" stroke-width="0.75" stroke-miterlimit="10" d="M47.013,52.454
			c-0.109-0.079-0.129-0.159-0.04-0.248c0.287-0.307,0.456-0.674,0.575-1.07c0.149-0.476,0.178-0.971,0.139-1.467
			c0-0.01-0.01-0.01-0.01-0.02h-0.069c-0.515,0-1.031,0-1.546,0c-0.02,0-0.04,0-0.059,0c-0.079-0.01-0.129-0.069-0.129-0.139
			c0-0.069,0.05-0.129,0.119-0.139c0.02,0,0.05,0,0.069,0c0.496,0,1.001,0,1.507,0h0.069c-0.04-0.307-0.129-0.615-0.228-0.902
			c-0.099-0.258-0.149-0.525-0.149-0.793c0.01-0.396,0.119-0.753,0.377-1.061c0.208-0.248,0.456-0.396,0.763-0.466
			c0.089-0.02,0.178-0.04,0.258-0.059h0.377c0.099,0.02,0.198,0.03,0.297,0.05c0.743,0.159,1.18,0.624,1.368,1.338
			c0.03,0.099,0.04,0.208,0.05,0.307c0.02,0.099-0.03,0.169-0.109,0.169c-0.089,0.02-0.149-0.04-0.159-0.139
			c-0.03-0.139-0.05-0.287-0.089-0.426c-0.198-0.555-0.595-0.882-1.17-0.981c-0.278-0.05-0.555-0.059-0.823,0.02
			c-0.337,0.109-0.575,0.317-0.724,0.634c-0.188,0.416-0.159,0.843-0.03,1.269c0.089,0.278,0.159,0.565,0.238,0.852
			c0.02,0.059,0.03,0.119,0.04,0.188h0.069c0.436,0,0.862,0,1.289,0c0.089,0,0.139,0.04,0.159,0.099
			c0.03,0.089-0.03,0.168-0.119,0.178c-0.02,0-0.04,0-0.069,0c-0.406,0-0.813,0-1.229,0h-0.069c0.069,0.823-0.059,1.596-0.456,2.329
			c0.109-0.02,0.218-0.05,0.327-0.069c0.436-0.079,0.852-0.04,1.279,0.109c0.238,0.079,0.486,0.139,0.753,0.139
			c0.337,0.01,0.644-0.069,0.872-0.347c0.069-0.069,0.149-0.079,0.208-0.03c0.059,0.059,0.059,0.139,0,0.218
			c-0.218,0.268-0.515,0.396-0.852,0.426c-0.377,0.05-0.733-0.03-1.08-0.149s-0.694-0.159-1.051-0.109
			c-0.297,0.05-0.585,0.129-0.852,0.287H47.013z"/>
	</g>
</g>
</svg>
