<?xml version="1.0" encoding="utf-8"?>
<!-- Generator: Adobe Illustrator 17.0.0, SVG Export Plug-In . SVG Version: 6.00 Build 0)  -->
<!DOCTYPE svg PUBLIC "-//W3C//DTD SVG 1.1//EN" "http://www.w3.org/Graphics/SVG/1.1/DTD/svg11.dtd">
<svg version="1.1" id="Calque_1" xmlns="http://www.w3.org/2000/svg" xmlns:xlink="http://www.w3.org/1999/xlink" x="0px" y="0px"
	 width="100px" height="100px" viewBox="0 0 100 100" enable-background="new 0 0 100 100" xml:space="preserve">
<g id="XMLID_1_">
	<g>
		<path fill="#6BC0ED" d="M58.884,55.89c0.79,0.229,1.247,1.018,1.039,1.766c-0.218,0.769-1.039,1.195-1.839,0.966
			c-0.779-0.229-1.247-1.029-1.05-1.777C57.242,56.098,58.094,55.651,58.884,55.89z"/>
		<path fill="#6BC0ED" d="M46.3,48.086c-0.145-2.234-0.01-4.468,0.166-6.692c0.052-0.655,0.062-1.33,0.239-1.964
			c0.447-1.642,2.203-2.806,4.001-2.722c0.083,0.01,0.187,0.114,0.239,0.197c0.218,0.426,0.769,0.52,1.07,0.177
			c0.042-0.042,0.073-0.094,0.104-0.145l1.569,0.094c-0.031,0.094-0.052,0.197-0.073,0.301c-0.062,0.27,0.031,0.488,0.281,0.634
			c0.26,0.156,0.53,0.145,0.748-0.052c0.135-0.125,0.218-0.094,0.364-0.021c0.925,0.499,1.579,1.226,1.954,2.161
			c0.343,0.842,0.457,1.715,0.104,2.525c-0.956,2.213-2.068,4.354-3.367,6.391c-0.738,1.164-1.507,2.307-2.577,3.211
			c-0.499,0.426-1.039,0.707-1.746,0.416c-0.01,0-0.021,0.01-0.031,0.01c-0.021,0.291,0,0.572-0.062,0.831
			c-0.114,0.478-0.26,0.935-0.395,1.403c-0.145,0.499-0.54,0.727-0.987,0.603c-0.447-0.135-0.665-0.54-0.509-1.039
			c0.239-0.717,0.291-1.517,0.852-2.141c-0.239-0.062-0.426-0.135-0.613-0.177c-0.364-0.062-0.572-0.291-0.717-0.582
			c-0.094-0.177-0.187-0.364-0.208-0.561C46.55,49.998,46.352,49.042,46.3,48.086z"/>
		<path fill="#8F421D" d="M59.923,57.656c0.208-0.748-0.249-1.538-1.039-1.766c-0.79-0.239-1.642,0.208-1.85,0.956
			c-0.197,0.748,0.27,1.548,1.05,1.777C58.884,58.851,59.705,58.425,59.923,57.656z M58.936,55.298
			c1.018,0.249,1.715,1.133,1.673,2.13c-0.052,1.039-0.811,1.683-2.224,1.881c-0.229,0.779-0.447,1.569-0.675,2.348
			c-0.447,1.507-1.195,2.837-2.421,3.886c-1.247,1.07-2.681,1.683-4.427,1.444c-1.268-0.177-2.286-0.811-3.065-1.777
			c-1.205-1.507-1.569-3.221-1.413-5.05c0.062-0.603,0.208-1.205,0.353-1.798c0.135-0.592,0.322-1.185,0.499-1.766
			c0.125-0.384,0.26-0.707-0.197-1.06c-0.374-0.291-0.395-0.779-0.27-1.226c0.156-0.561,0.322-1.112,0.488-1.683
			c-0.946-0.499-1.122-1.392-1.309-2.255c-0.364-1.704-0.395-3.419-0.312-5.123c0.083-1.87,0.187-3.751,0.384-5.611
			c0.125-1.216,0.894-2.109,1.922-2.785c0.852-0.551,1.818-0.79,2.868-0.759c0.094,0,0.197-0.083,0.291-0.125
			c0.177-0.104,0.353-0.218,0.53-0.322c0.114,0.042,0.239,0.073,0.353,0.104c0.301,0.333,0.343,0.831,0.135,1.185
			c-0.031,0.052-0.062,0.104-0.104,0.145c-0.301,0.343-0.852,0.249-1.07-0.177c-0.052-0.083-0.156-0.187-0.239-0.197
			c-1.798-0.083-3.554,1.081-4.001,2.722c-0.177,0.634-0.187,1.309-0.239,1.964c-0.177,2.224-0.312,4.458-0.166,6.692
			c0.052,0.956,0.249,1.912,0.405,2.858c0.021,0.197,0.114,0.384,0.208,0.561c0.145,0.291,0.353,0.52,0.717,0.582
			c0.187,0.042,0.374,0.114,0.613,0.177c-0.561,0.623-0.613,1.424-0.852,2.141c-0.156,0.499,0.062,0.904,0.509,1.039
			c0.447,0.125,0.842-0.104,0.987-0.603c0.135-0.468,0.281-0.925,0.395-1.403c0.062-0.26,0.042-0.54,0.062-0.831
			c0.01,0,0.021-0.01,0.031-0.01c0.707,0.291,1.247,0.01,1.746-0.416c1.07-0.904,1.839-2.047,2.577-3.211
			c1.299-2.037,2.411-4.177,3.367-6.391c0.353-0.811,0.239-1.683-0.104-2.525c-0.374-0.935-1.029-1.663-1.954-2.161
			c-0.145-0.073-0.229-0.104-0.364,0.021c-0.218,0.197-0.488,0.208-0.748,0.052c-0.249-0.145-0.343-0.364-0.281-0.634
			c0.021-0.104,0.042-0.208,0.073-0.301c0.083-0.301,0.229-0.551,0.644-0.603c0.114,0.031,0.239,0.073,0.353,0.104
			c0.094,0.197,0.177,0.395,0.281,0.582c0.042,0.073,0.104,0.135,0.187,0.177c1.818,0.935,2.837,2.691,2.702,4.645
			c-0.042,0.592-0.281,1.101-0.52,1.631c-0.935,1.964-1.933,3.907-3.097,5.757c-0.686,1.081-1.424,2.13-2.38,3.003
			c-0.499,0.468-1.018,0.904-1.766,0.998c-0.062,0.01-0.145,0.114-0.177,0.197c-0.145,0.499-0.291,0.998-0.436,1.507
			c-0.177,0.613-0.582,0.966-1.247,1.05c-0.083,0.01-0.197,0.083-0.218,0.145c-0.384,1.444-0.977,2.826-1.039,4.344
			c-0.062,1.631,0.291,3.169,1.455,4.458c1.34,1.476,3.315,1.839,5.092,0.966c1.465-0.717,2.494-1.839,3.097-3.273
			c0.478-1.153,0.811-2.359,1.205-3.543c-0.707-0.322-1.185-0.769-1.372-1.434c-0.145-0.488-0.094-0.956,0.135-1.413
			C56.972,55.516,58.011,55.059,58.936,55.298z"/>
		<path fill="#6BC0ED" d="M25.082,51.318c0-14.662,11.887-26.56,26.56-26.56s26.56,11.898,26.56,26.56
			c0,14.672-11.887,26.57-26.56,26.57S25.082,65.99,25.082,51.318z M46.737,58.363c-0.145,0.592-0.291,1.195-0.353,1.798
			c-0.156,1.829,0.208,3.543,1.413,5.05c0.779,0.966,1.798,1.6,3.065,1.777c1.746,0.239,3.18-0.374,4.427-1.444
			c1.226-1.05,1.974-2.38,2.421-3.886c0.229-0.779,0.447-1.569,0.675-2.348c1.413-0.197,2.172-0.842,2.224-1.881
			c0.042-0.998-0.655-1.881-1.673-2.13c-0.925-0.239-1.964,0.218-2.348,1.029c-0.229,0.457-0.281,0.925-0.135,1.413
			c0.187,0.665,0.665,1.112,1.372,1.434c-0.395,1.185-0.727,2.39-1.205,3.543c-0.603,1.434-1.631,2.556-3.097,3.273
			c-1.777,0.873-3.751,0.509-5.092-0.966c-1.164-1.289-1.517-2.826-1.455-4.458c0.062-1.517,0.655-2.899,1.039-4.344
			c0.021-0.062,0.135-0.135,0.218-0.145c0.665-0.083,1.07-0.436,1.247-1.05c0.145-0.509,0.291-1.008,0.436-1.507
			c0.031-0.083,0.114-0.187,0.177-0.197c0.748-0.094,1.268-0.53,1.766-0.998c0.956-0.873,1.694-1.922,2.38-3.003
			c1.164-1.85,2.161-3.793,3.097-5.757c0.239-0.53,0.478-1.039,0.52-1.631c0.135-1.954-0.883-3.71-2.702-4.645
			c-0.083-0.042-0.145-0.104-0.187-0.177c-0.104-0.187-0.187-0.384-0.281-0.582c-0.114-0.031-0.239-0.073-0.353-0.104
			c-0.416,0.052-0.561,0.301-0.644,0.603l-1.569-0.094c0.208-0.353,0.166-0.852-0.135-1.185c-0.114-0.031-0.239-0.062-0.353-0.104
			c-0.177,0.104-0.353,0.218-0.53,0.322c-0.094,0.042-0.197,0.125-0.291,0.125c-1.05-0.031-2.016,0.208-2.868,0.759
			c-1.029,0.675-1.798,1.569-1.922,2.785c-0.197,1.86-0.301,3.741-0.384,5.611c-0.083,1.704-0.052,3.419,0.312,5.123
			c0.187,0.862,0.364,1.756,1.309,2.255c-0.166,0.572-0.333,1.122-0.488,1.683c-0.125,0.447-0.104,0.935,0.27,1.226
			c0.457,0.353,0.322,0.675,0.197,1.06C47.059,57.178,46.872,57.771,46.737,58.363z"/>
	</g>
	<g>
		<path fill="none" stroke="#8F421D" stroke-width="1.13" stroke-miterlimit="10" d="M78.201,51.318
			c0,14.672-11.887,26.57-26.56,26.57s-26.56-11.898-26.56-26.57c0-14.662,11.887-26.56,26.56-26.56S78.201,36.656,78.201,51.318z"
			/>
		<path fill="none" stroke="#8F421D" stroke-width="0.25" stroke-miterlimit="10" d="M51.984,35.752
			c0.301,0.333,0.343,0.831,0.135,1.185c-0.031,0.052-0.062,0.104-0.104,0.145c-0.301,0.343-0.852,0.249-1.07-0.177
			c-0.052-0.083-0.156-0.187-0.239-0.197c-1.798-0.083-3.554,1.081-4.001,2.722c-0.177,0.634-0.187,1.309-0.239,1.964
			c-0.177,2.224-0.312,4.458-0.166,6.692c0.052,0.956,0.249,1.912,0.405,2.858c0.021,0.197,0.114,0.384,0.208,0.561
			c0.145,0.291,0.353,0.52,0.717,0.582c0.187,0.042,0.374,0.114,0.613,0.177c-0.561,0.623-0.613,1.424-0.852,2.141
			c-0.156,0.499,0.062,0.904,0.509,1.039c0.447,0.125,0.842-0.104,0.987-0.603c0.135-0.468,0.281-0.925,0.395-1.403
			c0.062-0.26,0.042-0.54,0.062-0.831c0.01,0,0.021-0.01,0.031-0.01c0.707,0.291,1.247,0.01,1.746-0.416
			c1.07-0.904,1.839-2.047,2.577-3.211c1.299-2.037,2.411-4.177,3.367-6.391c0.353-0.811,0.239-1.683-0.104-2.525
			c-0.374-0.935-1.029-1.663-1.954-2.161c-0.145-0.073-0.229-0.104-0.364,0.021c-0.218,0.197-0.488,0.208-0.748,0.052
			c-0.249-0.145-0.343-0.364-0.281-0.634c0.021-0.104,0.042-0.208,0.073-0.301c0.083-0.301,0.229-0.551,0.644-0.603
			c0.114,0.031,0.239,0.073,0.353,0.104c0.094,0.197,0.177,0.395,0.281,0.582c0.042,0.073,0.104,0.135,0.187,0.177
			c1.818,0.935,2.837,2.691,2.702,4.645c-0.042,0.592-0.281,1.101-0.52,1.631c-0.935,1.964-1.933,3.907-3.097,5.757
			c-0.686,1.081-1.424,2.13-2.38,3.003c-0.499,0.468-1.018,0.904-1.766,0.998c-0.062,0.01-0.145,0.114-0.177,0.197
			c-0.145,0.499-0.291,0.998-0.436,1.507c-0.177,0.613-0.582,0.966-1.247,1.05c-0.083,0.01-0.197,0.083-0.218,0.145
			c-0.384,1.444-0.977,2.826-1.039,4.344c-0.062,1.631,0.291,3.169,1.455,4.458c1.34,1.476,3.315,1.839,5.092,0.966
			c1.465-0.717,2.494-1.839,3.097-3.273c0.478-1.153,0.811-2.359,1.205-3.543c-0.707-0.322-1.185-0.769-1.372-1.434
			c-0.145-0.488-0.094-0.956,0.135-1.413c0.384-0.811,1.424-1.268,2.348-1.029c1.018,0.249,1.715,1.133,1.673,2.13
			c-0.052,1.039-0.811,1.683-2.224,1.881c-0.229,0.779-0.447,1.569-0.675,2.348c-0.447,1.507-1.195,2.837-2.421,3.886
			c-1.247,1.07-2.681,1.683-4.427,1.444c-1.268-0.177-2.286-0.811-3.065-1.777c-1.205-1.507-1.569-3.221-1.413-5.05
			c0.062-0.603,0.208-1.205,0.353-1.798c0.135-0.592,0.322-1.185,0.499-1.766c0.125-0.384,0.26-0.707-0.197-1.06
			c-0.374-0.291-0.395-0.779-0.27-1.226c0.156-0.561,0.322-1.112,0.488-1.683c-0.946-0.499-1.122-1.392-1.309-2.255
			c-0.364-1.704-0.395-3.419-0.312-5.123c0.083-1.87,0.187-3.751,0.384-5.611c0.125-1.216,0.894-2.109,1.922-2.785
			c0.852-0.551,1.818-0.79,2.868-0.759c0.094,0,0.197-0.083,0.291-0.125c0.177-0.104,0.353-0.218,0.53-0.322
			C51.745,35.689,51.87,35.721,51.984,35.752"/>
		<path fill="none" stroke="#8F421D" stroke-width="0.25" stroke-miterlimit="10" d="M59.923,57.656
			c0.208-0.748-0.249-1.538-1.039-1.766c-0.79-0.239-1.642,0.208-1.85,0.956c-0.197,0.748,0.27,1.548,1.05,1.777
			C58.884,58.851,59.705,58.425,59.923,57.656z"/>
	</g>
</g>
</svg>
