<?xml version="1.0" encoding="utf-8"?>
<!-- Generator: Adobe Illustrator 17.0.0, SVG Export Plug-In . SVG Version: 6.00 Build 0)  -->
<!DOCTYPE svg PUBLIC "-//W3C//DTD SVG 1.1//EN" "http://www.w3.org/Graphics/SVG/1.1/DTD/svg11.dtd">
<svg version="1.1" id="Calque_1" xmlns="http://www.w3.org/2000/svg" xmlns:xlink="http://www.w3.org/1999/xlink" x="0px" y="0px"
	 width="100px" height="100px" viewBox="0 0 100 100" enable-background="new 0 0 100 100" xml:space="preserve">
<g id="XMLID_4_">
	<g>
		<path fill="#6BC0ED" d="M53.117,46.717c0.092,0.603,0.184,1.164,0.266,1.716c0.306,2.033,0.603,4.065,0.909,6.088
			c0.112,0.766,0.225,1.522,0.337,2.288c0.01,0.092-0.031,0.245-0.102,0.317c-1.399,1.45-2.809,2.88-4.229,4.341
			c-0.082-0.072-0.163-0.123-0.225-0.194c-1.328-1.359-2.635-2.707-3.963-4.055c-0.163-0.163-0.194-0.306-0.163-0.531
			c0.163-0.96,0.296-1.92,0.429-2.891c0.041-0.276,0.123-0.49,0.327-0.695c2.053-2.033,4.096-4.086,6.139-6.129
			C52.913,46.901,52.995,46.829,53.117,46.717z"/>
		<path fill="#6BC0ED" d="M49.185,36.42c-0.204-0.01-0.449-0.123-0.592-0.266c-0.194-0.184-0.337-0.439-0.429-0.695
			c-0.368-0.899-0.715-1.818-1.062-2.727c-0.163-0.439-0.01-0.715,0.47-0.756c0.449-0.041,0.899-0.031,1.348-0.031
			c0.429,0,0.858,0,1.287,0c0.776,0,1.542,0,2.319,0c0.143,0,0.306,0,0.46,0.041c0.368,0.082,0.511,0.347,0.368,0.705
			c-0.337,0.889-0.684,1.777-1.021,2.666c-0.072,0.174-0.153,0.347-0.245,0.501c-0.235,0.409-0.552,0.613-1.052,0.582
			C50.421,36.4,49.798,36.451,49.185,36.42z"/>
		<path fill="#6BC0ED" d="M52.556,39.229c-0.756,0-1.502,0-2.247,0c-0.766,0-1.522,0-2.278,0c-0.49,0.01-0.644,0.143-0.725,0.623
			c-0.02,0.082-0.041,0.163-0.051,0.255c-0.429,2.891-0.848,5.771-1.277,8.662c-0.409,2.737-0.817,5.475-1.226,8.202
			c-0.051,0.286,0.031,0.511,0.225,0.715c1.604,1.645,3.197,3.279,4.801,4.923c0.358,0.368,0.644,0.358,1.011-0.01
			c1.604-1.634,3.197-3.279,4.791-4.913c0.194-0.194,0.276-0.419,0.235-0.695c-0.133-0.909-0.266-1.818-0.409-2.737
			c-0.358-2.431-0.735-4.883-1.093-7.314c-0.358-2.37-0.705-4.74-1.052-7.099C53.189,39.383,53.015,39.24,52.556,39.229z
			 M51.544,37.554c0.306-0.02,0.674-0.184,0.899-0.409c0.347-0.347,0.674-0.766,0.868-1.216c0.439-1.001,0.807-2.033,1.185-3.064
			c0.061-0.163,0.092-0.337,0.082-0.511c-0.072-0.889-0.838-1.542-1.818-1.553c-0.848-0.02-1.696-0.01-2.543-0.01
			c-0.807,0-1.604-0.01-2.411,0.01c-0.266,0.01-0.552,0.041-0.807,0.133c-0.817,0.276-1.348,1.154-1.093,1.839
			c0.409,1.103,0.807,2.217,1.267,3.289c0.327,0.746,0.827,1.43,1.736,1.502C49.777,37.626,50.666,37.605,51.544,37.554z
			 M50.278,20.057c14.791,0,26.783,11.992,26.783,26.783S65.068,73.622,50.278,73.622S23.495,61.63,23.495,46.839
			S35.487,20.057,50.278,20.057z"/>
		<path fill="#6BC0ED" d="M46.733,51.466c0.552-3.749,1.093-7.406,1.645-11.083h3.81c0.174,1.205,0.358,2.411,0.541,3.606
			c0.051,0.378,0.112,0.746,0.143,1.113c0.01,0.102-0.02,0.245-0.092,0.306C50.799,47.401,48.797,49.393,46.733,51.466z"/>
		<path fill="#8F421D" d="M54.496,32.866c-0.378,1.032-0.746,2.063-1.185,3.064c-0.194,0.449-0.521,0.868-0.868,1.216
			c-0.225,0.225-0.592,0.388-0.899,0.409c-0.878,0.051-1.767,0.072-2.635,0.01c-0.909-0.072-1.41-0.756-1.736-1.502
			c-0.46-1.073-0.858-2.186-1.267-3.289c-0.255-0.684,0.276-1.563,1.093-1.839c0.255-0.092,0.541-0.123,0.807-0.133
			c0.807-0.02,1.604-0.01,2.411-0.01c0.848,0,1.696-0.01,2.543,0.01c0.981,0.01,1.747,0.664,1.818,1.553
			C54.588,32.529,54.558,32.702,54.496,32.866z M53.352,32.692c0.143-0.358,0-0.623-0.368-0.705
			c-0.153-0.041-0.317-0.041-0.46-0.041c-0.776,0-1.542,0-2.319,0c-0.429,0-0.858,0-1.287,0c-0.449,0-0.899-0.01-1.348,0.031
			c-0.48,0.041-0.633,0.317-0.47,0.756c0.347,0.909,0.695,1.828,1.062,2.727c0.092,0.255,0.235,0.511,0.429,0.695
			c0.143,0.143,0.388,0.255,0.592,0.266c0.613,0.031,1.236-0.02,1.849,0.02c0.501,0.031,0.817-0.174,1.052-0.582
			c0.092-0.153,0.174-0.327,0.245-0.501C52.668,34.469,53.015,33.581,53.352,32.692z"/>
		<path fill="#8F421D" d="M52.872,45.103c-0.031-0.368-0.092-0.735-0.143-1.113c-0.184-1.195-0.368-2.4-0.541-3.606h-3.81
			c-0.552,3.677-1.093,7.334-1.645,11.083c2.063-2.074,4.065-4.065,6.047-6.057C52.852,45.348,52.882,45.205,52.872,45.103z
			 M54.292,54.521c-0.306-2.022-0.603-4.055-0.909-6.088c-0.082-0.552-0.174-1.113-0.266-1.716
			c-0.123,0.112-0.204,0.184-0.276,0.255c-2.043,2.043-4.086,4.096-6.139,6.129c-0.204,0.204-0.286,0.419-0.327,0.695
			c-0.133,0.97-0.266,1.931-0.429,2.891c-0.031,0.225,0,0.368,0.163,0.531c1.328,1.348,2.635,2.697,3.963,4.055
			c0.061,0.072,0.143,0.123,0.225,0.194c1.42-1.461,2.829-2.891,4.229-4.341c0.071-0.072,0.112-0.225,0.102-0.317
			C54.517,56.043,54.404,55.287,54.292,54.521z M53.26,39.842c0.347,2.36,0.695,4.729,1.052,7.099
			c0.358,2.431,0.735,4.883,1.093,7.314c0.143,0.919,0.276,1.828,0.409,2.737c0.041,0.276-0.041,0.501-0.235,0.695
			c-1.593,1.634-3.187,3.279-4.791,4.913c-0.368,0.368-0.654,0.378-1.011,0.01c-1.604-1.645-3.197-3.279-4.801-4.923
			c-0.194-0.204-0.276-0.429-0.225-0.715c0.409-2.727,0.817-5.465,1.226-8.202c0.429-2.891,0.848-5.771,1.277-8.662
			c0.01-0.092,0.031-0.174,0.051-0.255c0.082-0.48,0.235-0.613,0.725-0.623c0.756,0,1.512,0,2.278,0c0.746,0,1.491,0,2.247,0
			C53.015,39.24,53.189,39.383,53.26,39.842z"/>
	</g>
	<g>
		<circle fill="none" stroke="#8F421D" stroke-linecap="round" stroke-linejoin="round" cx="50.278" cy="46.839" r="26.783"/>
	</g>
</g>
</svg>
