<?xml version="1.0" encoding="utf-8"?>
<!-- Generator: Adobe Illustrator 16.0.0, SVG Export Plug-In . SVG Version: 6.00 Build 0)  -->
<!DOCTYPE svg PUBLIC "-//W3C//DTD SVG 1.1//EN" "http://www.w3.org/Graphics/SVG/1.1/DTD/svg11.dtd">
<svg version="1.1" id="Calque_1" xmlns="http://www.w3.org/2000/svg" xmlns:xlink="http://www.w3.org/1999/xlink" x="0px" y="0px"
	 width="72.792px" height="71.958px" viewBox="0 0 72.792 71.958" enable-background="new 0 0 72.792 71.958" xml:space="preserve">
<radialGradient id="SVGID_1_" cx="35.8945" cy="35.4233" r="34.6886" gradientUnits="userSpaceOnUse">
	<stop  offset="0" style="stop-color:#8DD8F8"/>
	<stop  offset="0.131" style="stop-color:#8DD8F8"/>
	<stop  offset="1" style="stop-color:#8DD8F8"/>
</radialGradient>
<ellipse opacity="0.4" fill="url(#SVGID_1_)" cx="35.895" cy="35.423" rx="34.438" ry="34.938"/>
<g>
	<circle fill="none" stroke="#8F421D" stroke-miterlimit="10" cx="36.061" cy="35.929" r="34.874"/>
	<rect x="0.479" y="0.345" fill="none" width="71.165" height="71.166"/>
	<path fill="#8F421D" d="M12.772,38.826c0.126-0.586,0.223-1.184,0.383-1.76c0.714-2.524,2.131-4.595,4.393-5.904
		c2.804-1.622,4.981-3.827,6.768-6.473c0.182-0.266,0.338-0.344,0.66-0.246c0.768,0.236,1.547,0.414,2.318,0.629
		c0.279,0.076,0.49,0.058,0.728-0.166c1.888-1.76,4.134-2.795,6.688-3.063c3.454-0.361,6.542,0.569,9.163,2.871
		c0.41,0.358,0.746,0.442,1.236,0.289c0.676-0.212,1.375-0.353,2.055-0.56c0.299-0.09,0.443-0.031,0.631,0.222
		c0.701,0.946,1.42,1.887,2.172,2.799c1.219,1.485,2.77,2.563,4.404,3.543c1.549,0.929,2.758,2.201,3.662,3.772
		c2.137,3.72,1.633,8.61-1.205,11.819c-1.615,1.828-3.615,2.989-6.006,3.378c-1.93,0.312-3.814-0.02-5.58-0.855
		c-3.143-1.485-5.129-3.944-5.836-7.358c-0.582-2.803-0.01-5.409,1.59-7.784c0.186-0.277,0.225-0.513,0.133-0.828
		c-0.584-2.095-1.154-4.193-1.729-6.291c-0.025-0.101-0.045-0.203-0.072-0.344c1.09-0.289,2.16-0.578,3.262-0.871
		c-3.629-3.127-9.448-3.113-13.057,0.002c1.096,0.291,2.153,0.571,3.266,0.866c-0.073,0.302-0.133,0.591-0.211,0.874
		c-0.53,1.938-1.063,3.874-1.607,5.811c-0.076,0.279-0.048,0.494,0.125,0.744c3.871,5.688,1.303,13.375-5.232,15.592
		c-3.88,1.318-7.695,0.193-10.418-2.77c-1.455-1.582-2.323-3.447-2.599-5.586c-0.011-0.089-0.053-0.172-0.082-0.258L12.772,38.826
		L12.772,38.826z M22.731,45.365c0.563-0.106,1.146-0.147,1.681-0.33c2.265-0.768,3.627-2.366,3.89-4.727
		c0.253-2.295-0.673-4.143-2.632-5.406c-0.644-0.416-1.355-0.77-2.162-0.707c-1.123,0.088-2.197,0.383-3.2,0.92
		c-2.224,1.193-3.335,3.711-2.709,6.211C18.138,43.504,20.266,45.384,22.731,45.365 M49.381,45.33
		c0.449-0.055,0.914-0.055,1.348-0.168c2.793-0.719,4.535-3.699,3.822-6.5c-0.596-2.334-2.221-3.594-4.438-4.204
		c-0.924-0.255-1.842-0.402-2.793-0.011c-2.516,1.035-3.943,3.646-3.438,6.375C44.356,43.365,46.717,45.287,49.381,45.33
		 M25.203,26.095c-0.154,0.203-0.277,0.359-0.394,0.518c-1.562,2.117-3.335,3.998-5.648,5.32c-0.682,0.389-1.343,0.838-1.927,1.357
		c-4.572,4.086-3.67,11.463,1.761,14.303c0.765,0.398,1.633,0.619,2.47,0.855c0.579,0.164,0.983-0.129,1.079-0.666
		c0.084-0.475-0.192-0.836-0.736-0.957c-0.103-0.024-0.203-0.053-0.309-0.069c-2.709-0.479-5.284-2.834-5.588-6.231
		c-0.224-2.488,0.964-5.371,3.832-6.83c2.454-1.246,5.022-1.318,7.645-0.646c0.624,0.16,1.236,0.377,1.898,0.582
		c0.547-2.008,1.094-4.006,1.646-6.028C28.977,27.088,27.097,26.593,25.203,26.095 M42.846,33.654
		c0.355-0.127,0.664-0.248,0.979-0.346c2.689-0.861,5.365-0.99,8.027,0.133c2.812,1.187,4.566,3.941,4.387,6.904
		c-0.184,3.018-2.271,5.533-5.26,6.336c-0.291,0.078-0.592,0.116-0.879,0.209c-0.396,0.135-0.59,0.492-0.52,0.891
		c0.082,0.447,0.367,0.707,0.809,0.695c0.193-0.004,0.387-0.053,0.58-0.092c5.699-1.18,8.652-7.84,5.717-12.884
		c-0.777-1.341-1.812-2.425-3.145-3.212c-1.691-1-3.283-2.121-4.564-3.631c-0.709-0.83-1.381-1.687-2.09-2.555
		c-1.869,0.491-3.762,0.989-5.697,1.5C41.75,29.646,42.293,31.633,42.846,33.654 M28.064,34.89c1.77,2.188,2.311,4.568,1.4,7.158
		c-0.916,2.6-2.856,4.113-5.5,4.709c0.055,0.311,0.119,0.562,0.13,0.814c0.007,0.264-0.039,0.531-0.068,0.858
		c3.13-0.635,5.386-2.325,6.64-5.204c1.188-2.728,0.951-5.408-0.529-8.003C29.362,35.576,28.795,35.015,28.064,34.89 M41.975,35.218
		c-1.648,3.035-1.732,6.039,0,9.006c1.359,2.332,3.438,3.684,6.115,4.191v-1.68c-2.596-0.584-4.518-2.099-5.43-4.685
		c-0.918-2.599-0.363-4.985,1.391-7.159C43.336,35.014,42.764,35.572,41.975,35.218"/>
	<path fill="none" stroke="#9ED8F7" stroke-width="0.25" stroke-miterlimit="10" d="M12.772,38.826
		c0.126-0.586,0.223-1.184,0.383-1.76c0.714-2.524,2.131-4.595,4.393-5.904c2.804-1.622,4.981-3.827,6.768-6.473
		c0.182-0.266,0.338-0.344,0.66-0.246c0.768,0.236,1.547,0.414,2.318,0.629c0.279,0.076,0.49,0.058,0.728-0.166
		c1.888-1.76,4.134-2.795,6.688-3.063c3.454-0.361,6.542,0.569,9.163,2.871c0.41,0.358,0.746,0.442,1.236,0.289
		c0.676-0.212,1.375-0.353,2.055-0.56c0.299-0.09,0.443-0.031,0.631,0.222c0.701,0.946,1.42,1.887,2.172,2.799
		c1.219,1.485,2.77,2.563,4.404,3.543c1.549,0.929,2.758,2.201,3.662,3.772c2.137,3.72,1.633,8.61-1.205,11.819
		c-1.615,1.828-3.615,2.989-6.006,3.378c-1.93,0.312-3.814-0.02-5.58-0.855c-3.143-1.485-5.129-3.944-5.836-7.358
		c-0.582-2.803-0.01-5.409,1.59-7.784c0.186-0.277,0.225-0.513,0.133-0.828c-0.584-2.095-1.154-4.193-1.729-6.291
		c-0.025-0.101-0.045-0.203-0.072-0.344c1.09-0.289,2.16-0.578,3.262-0.871c-3.629-3.127-9.448-3.113-13.057,0.002
		c1.096,0.291,2.153,0.571,3.266,0.866c-0.073,0.302-0.133,0.591-0.211,0.874c-0.53,1.938-1.063,3.874-1.607,5.811
		c-0.076,0.279-0.048,0.494,0.125,0.744c3.871,5.688,1.303,13.375-5.232,15.592c-3.88,1.318-7.695,0.193-10.418-2.77
		c-1.455-1.582-2.323-3.447-2.599-5.586c-0.011-0.089-0.053-0.172-0.082-0.258L12.772,38.826L12.772,38.826z M22.731,45.365
		c0.563-0.106,1.146-0.147,1.681-0.33c2.265-0.768,3.627-2.366,3.89-4.727c0.253-2.295-0.673-4.143-2.632-5.406
		c-0.644-0.416-1.355-0.77-2.162-0.707c-1.123,0.088-2.197,0.383-3.2,0.92c-2.224,1.193-3.335,3.711-2.709,6.211
		C18.138,43.504,20.266,45.384,22.731,45.365z M49.381,45.33c0.449-0.055,0.914-0.055,1.348-0.168
		c2.793-0.719,4.535-3.699,3.822-6.5c-0.596-2.334-2.221-3.594-4.438-4.204c-0.924-0.255-1.842-0.402-2.793-0.011
		c-2.516,1.035-3.943,3.646-3.438,6.375C44.356,43.365,46.717,45.287,49.381,45.33z M25.203,26.095
		c-0.154,0.203-0.277,0.359-0.394,0.518c-1.562,2.117-3.335,3.998-5.648,5.32c-0.682,0.389-1.343,0.838-1.927,1.357
		c-4.572,4.086-3.67,11.463,1.761,14.303c0.765,0.398,1.633,0.619,2.47,0.855c0.579,0.164,0.983-0.129,1.079-0.666
		c0.084-0.475-0.192-0.836-0.736-0.957c-0.103-0.024-0.203-0.053-0.309-0.069c-2.709-0.479-5.284-2.834-5.588-6.231
		c-0.224-2.488,0.964-5.371,3.832-6.83c2.454-1.246,5.022-1.318,7.645-0.646c0.624,0.16,1.236,0.377,1.898,0.582
		c0.547-2.008,1.094-4.006,1.646-6.028C28.977,27.088,27.097,26.593,25.203,26.095z M42.846,33.654
		c0.355-0.127,0.664-0.248,0.979-0.346c2.689-0.861,5.365-0.99,8.027,0.133c2.812,1.187,4.566,3.941,4.387,6.904
		c-0.184,3.018-2.271,5.533-5.26,6.336c-0.291,0.078-0.592,0.116-0.879,0.209c-0.396,0.135-0.59,0.492-0.52,0.891
		c0.082,0.447,0.367,0.707,0.809,0.695c0.193-0.004,0.387-0.053,0.58-0.092c5.699-1.18,8.652-7.84,5.717-12.884
		c-0.777-1.341-1.812-2.425-3.145-3.212c-1.691-1-3.283-2.121-4.564-3.631c-0.709-0.83-1.381-1.687-2.09-2.555
		c-1.869,0.491-3.762,0.989-5.697,1.5C41.75,29.646,42.293,31.633,42.846,33.654z M28.064,34.89c1.77,2.188,2.311,4.568,1.4,7.158
		c-0.916,2.6-2.856,4.113-5.5,4.709c0.055,0.311,0.119,0.562,0.13,0.814c0.007,0.264-0.039,0.531-0.068,0.858
		c3.13-0.635,5.386-2.325,6.64-5.204c1.188-2.728,0.951-5.408-0.529-8.003C29.362,35.576,28.795,35.015,28.064,34.89z
		 M41.975,35.218c-1.648,3.035-1.732,6.039,0,9.006c1.359,2.332,3.438,3.684,6.115,4.191v-1.68c-2.596-0.584-4.518-2.099-5.43-4.685
		c-0.918-2.599-0.363-4.985,1.391-7.159C43.336,35.014,42.764,35.572,41.975,35.218z"/>
	<path fill="#FFFFFF" d="M29.373,27.709c0.365,0.01,0.688,0.354,0.67,0.716c-0.021,0.387-0.332,0.667-0.728,0.646
		c-0.366-0.018-0.662-0.321-0.655-0.68C28.666,28.033,29.01,27.699,29.373,27.709"/>
	<path fill="#8F421D" stroke="#9ED8F7" stroke-width="0.25" stroke-miterlimit="10" d="M29.4,27.679
		c0.366,0.01,0.688,0.354,0.672,0.717c-0.021,0.385-0.332,0.666-0.729,0.646c-0.367-0.018-0.661-0.322-0.656-0.68
		C28.693,28.002,29.039,27.67,29.4,27.679z"/>
	<path fill="#8F421D" d="M25.758,28.306c-0.368-0.002-0.698-0.334-0.688-0.695c0.008-0.338,0.334-0.67,0.672-0.684
		c0.361-0.014,0.695,0.312,0.696,0.688C26.445,28.007,26.149,28.308,25.758,28.306"/>
	<path fill="none" stroke="#9ED8F7" stroke-width="0.25" stroke-miterlimit="10" d="M25.758,28.306
		c-0.368-0.002-0.698-0.334-0.688-0.695c0.008-0.338,0.334-0.67,0.672-0.684c0.361-0.014,0.695,0.312,0.696,0.688
		C26.445,28.007,26.149,28.308,25.758,28.306z"/>
	<path fill="#FFFFFF" d="M26.793,29.624c0.379,0,0.703,0.319,0.697,0.688c-0.012,0.354-0.369,0.69-0.722,0.68
		c-0.343-0.012-0.657-0.334-0.664-0.68C26.097,29.923,26.398,29.624,26.793,29.624"/>
	<path fill="#8F421D" stroke="#9ED8F7" stroke-width="0.25" stroke-miterlimit="10" d="M26.793,29.624
		c0.379,0,0.703,0.319,0.697,0.688c-0.012,0.354-0.369,0.69-0.722,0.68c-0.343-0.012-0.657-0.334-0.664-0.68
		C26.097,29.923,26.398,29.624,26.793,29.624z"/>
	<path fill="#8F421D" d="M43.491,28.529c-0.012,0.381-0.324,0.672-0.717,0.658c-0.371-0.01-0.664-0.303-0.668-0.666
		s0.332-0.699,0.695-0.695C43.167,27.828,43.5,28.168,43.491,28.529"/>
	<path fill="none" stroke="#9ED8F7" stroke-width="0.25" stroke-miterlimit="10" d="M43.491,28.529
		c-0.012,0.381-0.324,0.672-0.717,0.658c-0.371-0.01-0.664-0.303-0.668-0.666s0.332-0.699,0.695-0.695
		C43.167,27.828,43.5,28.168,43.491,28.529z"/>
	<path fill="#8F421D" d="M46.358,26.929c0.357,0,0.701,0.35,0.697,0.703c-0.006,0.367-0.346,0.686-0.715,0.672
		c-0.375-0.011-0.65-0.293-0.656-0.668C45.676,27.257,45.993,26.929,46.358,26.929"/>
	<path fill="none" stroke="#9ED8F7" stroke-width="0.25" stroke-miterlimit="10" d="M46.358,26.929c0.357,0,0.701,0.35,0.697,0.703
		c-0.006,0.367-0.346,0.686-0.715,0.672c-0.375-0.011-0.65-0.293-0.656-0.668C45.676,27.257,45.993,26.929,46.358,26.929z"/>
	<path fill="#8F421D" d="M46.02,30.314c-0.012,0.365-0.361,0.693-0.715,0.676c-0.338-0.016-0.666-0.353-0.67-0.686
		c-0.006-0.369,0.322-0.684,0.699-0.682C45.731,29.625,46.028,29.931,46.02,30.314"/>
	<path fill="none" stroke="#9ED8F7" stroke-width="0.25" stroke-miterlimit="10" d="M46.02,30.314
		c-0.012,0.365-0.361,0.693-0.715,0.676c-0.338-0.016-0.666-0.353-0.67-0.686c-0.006-0.369,0.322-0.684,0.699-0.682
		C45.731,29.625,46.028,29.931,46.02,30.314z"/>
</g>
</svg>
