<?xml version="1.0" encoding="utf-8"?>
<!-- Generator: Adobe Illustrator 16.0.0, SVG Export Plug-In . SVG Version: 6.00 Build 0)  -->
<!DOCTYPE svg PUBLIC "-//W3C//DTD SVG 1.1//EN" "http://www.w3.org/Graphics/SVG/1.1/DTD/svg11.dtd">
<svg version="1.1" id="Calque_1" xmlns="http://www.w3.org/2000/svg" xmlns:xlink="http://www.w3.org/1999/xlink" x="0px" y="0px"
	 width="72.5px" height="73.802px" viewBox="-1.5 -1.698 72.5 73.802" enable-background="new -1.5 -1.698 72.5 73.802"
	 xml:space="preserve">
<radialGradient id="SVGID_1_" cx="34.9624" cy="34.9382" r="34.6889" gradientUnits="userSpaceOnUse">
	<stop  offset="0" style="stop-color:#8DD8F8"/>
	<stop  offset="0.131" style="stop-color:#8DD8F8"/>
	<stop  offset="1" style="stop-color:#8DD8F8"/>
</radialGradient>
<ellipse opacity="0.4" fill="url(#SVGID_1_)" cx="34.963" cy="34.938" rx="34.438" ry="34.938"/>
<g>
	<circle fill="none" stroke="#8F421D" stroke-miterlimit="10" cx="34.873" cy="35.002" r="34.874"/>
	<path fill="#8F421D" d="M35.834,17.686c0.365,0.074,0.736,0.133,1.099,0.225c3.534,0.892,5.891,3.064,7.015,6.531
		c0.479,1.471,0.532,2.98,0.225,4.5c-0.051,0.25-0.016,0.457,0.15,0.672c1.2,1.548,1.975,3.294,2.273,5.222
		c0.572,3.651-0.329,6.924-2.731,9.742c-1.655,1.944-3.756,3.2-6.241,3.797c-0.506,0.121-0.822-0.001-0.921-0.373
		c-0.104-0.392,0.112-0.678,0.634-0.801c1.939-0.462,3.621-1.392,5.027-2.798c1.783-1.776,2.846-3.915,3.115-6.425
		c0.318-2.934-0.475-5.554-2.301-7.86c-0.262-0.331-0.368-0.643-0.269-1.069c0.454-1.926,0.271-3.795-0.64-5.561
		c-1.307-2.537-3.373-4.066-6.205-4.491c-4.375-0.654-8.348,2.228-9.271,6.472c-0.265,1.219-0.217,2.443,0.075,3.651
		c0.093,0.376-0.003,0.656-0.233,0.938c-1.156,1.406-1.912,3.011-2.24,4.8c-0.473,2.598-0.053,5.062,1.294,7.334
		c1.544,2.604,3.796,4.279,6.741,5.015c0.201,0.049,0.443,0.162,0.541,0.319c0.097,0.152,0.092,0.422,0.031,0.606
		c-0.086,0.253-0.35,0.359-0.604,0.288c-0.681-0.185-1.373-0.34-2.013-0.615c-3.569-1.532-5.952-4.16-6.963-7.916
		c-0.971-3.6-0.312-6.959,1.834-10.01c0.269-0.38,0.381-0.705,0.305-1.188c-0.818-5.071,2.425-9.767,7.453-10.83
		c0.306-0.062,0.613-0.114,0.919-0.174H35.834z"/>
	<path fill="#8F421D" d="M34.666,55.072c-0.326-0.204-0.381-0.514-0.381-0.875c0.008-5.184,0.002-10.364,0.008-15.547
		c0-0.251-0.067-0.43-0.246-0.604c-1.308-1.293-2.603-2.594-3.898-3.896c-0.087-0.084-0.176-0.172-0.247-0.27
		c-0.19-0.271-0.165-0.584,0.067-0.79c0.24-0.21,0.507-0.218,0.766-0.034c0.107,0.075,0.203,0.174,0.298,0.269
		c0.974,0.971,1.945,1.942,2.918,2.912c0.085,0.087,0.175,0.167,0.341,0.323v-0.447V28.74c0-0.121,0-0.242,0-0.365
		c0-0.729,0.161-0.998,0.604-0.992c0.425,0.006,0.586,0.271,0.586,0.977c0,4.221,0,8.441,0,12.663v0.464
		c0.144-0.133,0.233-0.205,0.315-0.288c0.996-0.996,1.992-1.994,2.996-2.99c0.108-0.109,0.23-0.217,0.364-0.293
		c0.248-0.138,0.481-0.058,0.665,0.131c0.186,0.189,0.24,0.428,0.104,0.669c-0.08,0.134-0.188,0.252-0.301,0.362
		c-1.299,1.301-2.595,2.602-3.9,3.893c-0.18,0.178-0.25,0.357-0.25,0.607c0.01,3.551,0.001,7.104,0.011,10.655
		c0,0.353-0.071,0.644-0.38,0.841L34.666,55.072L34.666,55.072z"/>
	<path fill="#8F421D" d="M37.912,22.967c0.35,0.002,0.633,0.308,0.625,0.667c-0.008,0.334-0.3,0.62-0.633,0.618
		c-0.352,0-0.634-0.301-0.623-0.66C37.291,23.25,37.58,22.965,37.912,22.967"/>
	<path fill="#8F421D" d="M39.398,26.592c-0.341,0.002-0.63-0.275-0.639-0.613c-0.014-0.354,0.275-0.651,0.634-0.651
		c0.341-0.002,0.63,0.274,0.642,0.612C40.045,26.287,39.754,26.591,39.398,26.592"/>
	<path fill="#8F421D" d="M30.392,40.795c-0.003,0.356-0.292,0.637-0.656,0.629c-0.347-0.008-0.617-0.287-0.617-0.629
		c0-0.361,0.286-0.637,0.653-0.627C30.121,40.176,30.392,40.453,30.392,40.795"/>
</g>
</svg>
