<?xml version="1.0" encoding="utf-8"?>
<!-- Generator: Adobe Illustrator 17.0.0, SVG Export Plug-In . SVG Version: 6.00 Build 0)  -->
<!DOCTYPE svg PUBLIC "-//W3C//DTD SVG 1.1//EN" "http://www.w3.org/Graphics/SVG/1.1/DTD/svg11.dtd">
<svg version="1.1" id="Calque_1" xmlns="http://www.w3.org/2000/svg" xmlns:xlink="http://www.w3.org/1999/xlink" x="0px" y="0px"
	 width="100px" height="100px" viewBox="0 0 100 100" enable-background="new 0 0 100 100" xml:space="preserve">
<g>
	<circle fill="none" stroke="#8F421D" stroke-miterlimit="10" cx="51.473" cy="51.078" r="34.874"/>
	<path fill="#8F421D" d="M52.434,33.762c0.365,0.074,0.736,0.133,1.098,0.224c3.534,0.892,5.891,3.065,7.015,6.532
		c0.478,1.47,0.532,2.98,0.224,4.5c-0.05,0.25-0.015,0.457,0.151,0.672c1.2,1.547,1.975,3.293,2.274,5.221
		c0.571,3.652-0.33,6.924-2.732,9.742c-1.655,1.945-3.756,3.201-6.242,3.797c-0.505,0.121-0.822-0.001-0.92-0.373
		c-0.104-0.391,0.112-0.678,0.634-0.801c1.939-0.461,3.62-1.391,5.027-2.797c1.783-1.777,2.846-3.915,3.115-6.425
		c0.319-2.934-0.475-5.554-2.301-7.861c-0.261-0.331-0.368-0.642-0.268-1.069c0.454-1.926,0.271-3.795-0.64-5.56
		c-1.306-2.538-3.373-4.067-6.205-4.492c-4.375-0.654-8.347,2.228-9.271,6.472c-0.265,1.219-0.217,2.443,0.075,3.651
		c0.092,0.376-0.003,0.657-0.233,0.938c-1.157,1.406-1.913,3.011-2.241,4.8c-0.472,2.597-0.052,5.061,1.294,7.334
		c1.544,2.604,3.796,4.279,6.742,5.014c0.2,0.049,0.442,0.162,0.54,0.32c0.097,0.152,0.092,0.422,0.031,0.606
		c-0.086,0.253-0.349,0.359-0.604,0.288c-0.68-0.184-1.373-0.34-2.013-0.615c-3.569-1.532-5.952-4.16-6.962-7.916
		c-0.971-3.6-0.313-6.959,1.833-10.01c0.269-0.38,0.381-0.705,0.305-1.188c-0.818-5.072,2.425-9.767,7.453-10.83
		c0.306-0.062,0.613-0.115,0.919-0.174H52.434z"/>
	<path fill="#8F421D" d="M51.265,71.148c-0.325-0.205-0.38-0.514-0.38-0.875c0.007-5.184,0.001-10.365,0.008-15.547
		c0-0.251-0.068-0.43-0.246-0.605c-1.308-1.293-2.603-2.594-3.899-3.895c-0.087-0.084-0.176-0.172-0.247-0.27
		c-0.19-0.27-0.165-0.584,0.067-0.79c0.241-0.21,0.507-0.218,0.766-0.034c0.108,0.075,0.203,0.174,0.298,0.268
		c0.973,0.971,1.945,1.943,2.918,2.913c0.085,0.086,0.174,0.167,0.34,0.323v-0.447v-7.373c0-0.121,0-0.242,0-0.365
		c0-0.729,0.162-0.998,0.605-0.992c0.425,0.006,0.586,0.272,0.586,0.977c0,4.22,0,8.441,0,12.663v0.464
		c0.144-0.133,0.233-0.206,0.316-0.289c0.996-0.996,1.992-1.994,2.995-2.99c0.109-0.109,0.231-0.217,0.365-0.293
		c0.248-0.137,0.482-0.057,0.665,0.131c0.186,0.19,0.24,0.428,0.103,0.669c-0.079,0.134-0.188,0.252-0.301,0.362
		c-1.298,1.301-2.594,2.602-3.9,3.893c-0.179,0.178-0.25,0.357-0.25,0.607c0.01,3.551,0.001,7.104,0.011,10.656
		c0,0.352-0.072,0.643-0.38,0.84H51.265z"/>
	<path fill="#8F421D" d="M54.511,39.043c0.35,0.002,0.634,0.308,0.626,0.667c-0.008,0.334-0.3,0.62-0.633,0.618
		c-0.352,0-0.634-0.301-0.623-0.66C53.891,39.326,54.179,39.041,54.511,39.043"/>
	<path fill="#8F421D" d="M55.998,42.668c-0.341,0.002-0.63-0.275-0.639-0.613c-0.013-0.354,0.276-0.652,0.634-0.652
		c0.341-0.002,0.63,0.275,0.642,0.613C56.645,42.363,56.354,42.667,55.998,42.668"/>
	<path fill="#8F421D" d="M46.991,56.871c-0.003,0.357-0.292,0.637-0.656,0.629c-0.346-0.008-0.617-0.287-0.617-0.629
		c0-0.361,0.286-0.637,0.653-0.627C46.72,56.252,46.991,56.529,46.991,56.871"/>
</g>
</svg>
