<?xml version="1.0" encoding="utf-8"?>
<!-- Generator: Adobe Illustrator 16.0.0, SVG Export Plug-In . SVG Version: 6.00 Build 0)  -->
<!DOCTYPE svg PUBLIC "-//W3C//DTD SVG 1.1//EN" "http://www.w3.org/Graphics/SVG/1.1/DTD/svg11.dtd">
<svg version="1.1" id="Calque_1" xmlns="http://www.w3.org/2000/svg" xmlns:xlink="http://www.w3.org/1999/xlink" x="0px" y="0px"
	 width="72.188px" height="70.875px" viewBox="-1.312 0 72.188 70.875" enable-background="new -1.312 0 72.188 70.875"
	 xml:space="preserve">
<radialGradient id="SVGID_1_" cx="34.9219" cy="35.4976" r="34.6886" gradientUnits="userSpaceOnUse">
	<stop  offset="0" style="stop-color:#8DD8F8"/>
	<stop  offset="0.131" style="stop-color:#8DD8F8"/>
	<stop  offset="1" style="stop-color:#8DD8F8"/>
</radialGradient>
<ellipse opacity="0.4" fill="url(#SVGID_1_)" cx="34.921" cy="35.498" rx="34.438" ry="34.938"/>
<circle fill="none" stroke="#8F421D" stroke-miterlimit="10" cx="34.875" cy="36.001" r="34.874"/>
<path fill="#8F421D" d="M13.128,40.305c0.254-0.262,0.554-0.611,0.845-0.812c3.668-2.533,7.345-5.051,11.02-7.57
	c0.931-0.637,1.081-0.635,1.983,0.011c0.051,0.037,0.107,0.067,0.211,0.131c0.011-0.18,0.023-0.317,0.023-0.455
	c0-1.894,0-3.784,0-5.674c0-0.726,0.336-1.079,1.073-1.084c1.413-0.011,2.822-0.008,4.236-0.002
	c0.491,0.004,0.672,0.139,0.696,0.627c0.045,0.877,0.029,1.758,0.041,2.635c0,0.154,0,0.31,0,0.548
	c0.172-0.162,0.277-0.254,0.375-0.354c2.403-2.453,4.807-4.908,7.211-7.365c0.773-0.793,1.426-0.793,2.158,0.02
	c3.578,3.947,7.148,7.897,10.717,11.853c0.164,0.183,0.314,0.407,0.383,0.64c0.133,0.442-0.096,0.881-0.506,1.104
	c-0.438,0.234-0.873,0.156-1.256-0.262c-1.211-1.328-2.416-2.664-3.621-3.996c-2.135-2.361-4.27-4.723-6.404-7.082
	c-0.096-0.109-0.191-0.217-0.322-0.362c-3.764,3.927-7.502,7.825-11.274,11.765c0.092,0.071,0.205,0.162,0.326,0.252
	c1,0.729,1.998,1.459,3.002,2.185c0.383,0.274,0.494,0.659,0.416,1.09c-0.08,0.403-0.371,0.635-0.764,0.731
	c-0.369,0.095-0.668-0.06-0.96-0.271c-2.185-1.59-4.368-3.175-6.556-4.76c-0.053-0.04-0.111-0.076-0.188-0.132
	c-0.117,0.074-0.236,0.148-0.354,0.229c-3.207,2.194-6.408,4.396-9.619,6.578c-0.202,0.138-0.601,0.406-0.843,0.521
	c-0.915,0.645-1.604,0.574-1.966-0.287C13.174,40.58,13.044,40.498,13.128,40.305 M29.158,33.4c0.762-0.887,1.527-1.775,2.215-2.576
	c-0.062-0.419-0.139-0.748-0.152-1.076c-0.025-0.56-0.008-1.117-0.008-1.677c0-0.393,0-0.788,0-1.194h-1.949
	C29.173,29.096,29.353,31.297,29.158,33.4"/>
<path fill="none" stroke="#9ED8F7" stroke-width="0.5" stroke-miterlimit="10" d="M13.128,40.305
	c0.254-0.262,0.554-0.611,0.845-0.812c3.668-2.533,7.345-5.051,11.02-7.57c0.931-0.637,1.081-0.635,1.983,0.011
	c0.051,0.037,0.107,0.067,0.211,0.131c0.011-0.18,0.023-0.317,0.023-0.455c0-1.894,0-3.784,0-5.674c0-0.726,0.336-1.079,1.073-1.084
	c1.413-0.011,2.822-0.008,4.236-0.002c0.491,0.004,0.672,0.139,0.696,0.627c0.045,0.877,0.029,1.758,0.041,2.635
	c0,0.154,0,0.31,0,0.548c0.172-0.162,0.277-0.254,0.375-0.354c2.403-2.453,4.807-4.908,7.211-7.365
	c0.773-0.793,1.426-0.793,2.158,0.02c3.578,3.947,7.148,7.897,10.717,11.853c0.164,0.183,0.314,0.407,0.383,0.64
	c0.133,0.442-0.096,0.881-0.506,1.104c-0.438,0.234-0.873,0.156-1.256-0.262c-1.211-1.328-2.416-2.664-3.621-3.996
	c-2.135-2.361-4.27-4.723-6.404-7.082c-0.096-0.109-0.191-0.217-0.322-0.362c-3.764,3.927-7.502,7.825-11.274,11.765
	c0.092,0.071,0.205,0.162,0.326,0.252c1,0.729,1.998,1.459,3.002,2.185c0.383,0.274,0.494,0.659,0.416,1.09
	c-0.08,0.403-0.371,0.635-0.764,0.731c-0.369,0.095-0.668-0.06-0.96-0.271c-2.185-1.59-4.368-3.175-6.556-4.76
	c-0.053-0.04-0.111-0.076-0.188-0.132c-0.117,0.074-0.236,0.148-0.354,0.229c-3.207,2.194-6.408,4.396-9.619,6.578
	c-0.202,0.138-0.601,0.406-0.843,0.521c-0.915,0.645-1.604,0.574-1.966-0.287C13.174,40.58,13.044,40.498,13.128,40.305z
	 M29.158,33.4c0.762-0.887,1.527-1.775,2.215-2.576c-0.062-0.419-0.139-0.748-0.152-1.076c-0.025-0.56-0.008-1.117-0.008-1.677
	c0-0.393,0-0.788,0-1.194h-1.949C29.173,29.096,29.353,31.297,29.158,33.4z"/>
<path fill="#8F421D" d="M20.558,48.881H37.23c0-2.229-0.01-4.438,0.01-6.648c0.008-0.793,0.402-1.418,1.424-1.37
	c1.143,0.054,2.289,0.013,3.436,0.015c0.789,0,1.129,0.318,1.158,1.133c0.021,0.613,0.008,1.226,0.008,1.838
	c0.002,1.493,0,2.982,0.002,4.477c0,0.551,0.033,0.579,0.588,0.579c0.893,0,1.781,0,2.734,0v-0.522
	c0-5.62-0.002-11.238,0.006-16.859c0-0.295,0.051-0.615,0.174-0.879c0.18-0.389,0.627-0.564,1.004-0.484
	c0.434,0.092,0.789,0.473,0.836,0.903c0.018,0.132,0.008,0.267,0.008,0.401c0,6.059,0,12.117,0,18.176c0,0.066,0,0.133,0,0.201
	c-0.008,0.914-0.162,1.068-1.062,1.068c-9.27,0.002-18.537-0.01-27.805,0.012c-1.066,0.004-1.227-0.504-1.227-1.246
	c-0.007-2.893-0.004-5.781-0.002-8.67c0-0.709,0.338-1.158,0.89-1.221c0.638-0.072,1.144,0.391,1.146,1.075
	c0.011,1.013,0.003,2.025,0.003,3.036C20.561,45.543,20.558,47.193,20.558,48.881 M41.328,48.891
	c-0.027-0.221-0.072-0.426-0.072-0.629c-0.004-1.639-0.002-3.275-0.002-4.914v-0.42h-1.986v5.963H41.328z"/>
<path fill="none" stroke="#9ED8F7" stroke-width="0.5" stroke-miterlimit="10" d="M20.558,48.881H37.23
	c0-2.229-0.01-4.438,0.01-6.648c0.008-0.793,0.402-1.418,1.424-1.37c1.143,0.054,2.289,0.013,3.436,0.015
	c0.789,0,1.129,0.318,1.158,1.133c0.021,0.613,0.008,1.226,0.008,1.838c0.002,1.493,0,2.982,0.002,4.477
	c0,0.551,0.033,0.579,0.588,0.579c0.893,0,1.781,0,2.734,0v-0.522c0-5.62-0.002-11.238,0.006-16.859
	c0-0.295,0.051-0.615,0.174-0.879c0.18-0.389,0.627-0.564,1.004-0.484c0.434,0.092,0.789,0.473,0.836,0.903
	c0.018,0.132,0.008,0.267,0.008,0.401c0,6.059,0,12.117,0,18.176c0,0.066,0,0.133,0,0.201c-0.008,0.914-0.162,1.068-1.062,1.068
	c-9.27,0.002-18.537-0.01-27.805,0.012c-1.066,0.004-1.227-0.504-1.227-1.246c-0.007-2.893-0.004-5.781-0.002-8.67
	c0-0.709,0.338-1.158,0.89-1.221c0.638-0.072,1.144,0.391,1.146,1.075c0.011,1.013,0.003,2.025,0.003,3.036
	C20.561,45.543,20.558,47.193,20.558,48.881z M41.328,48.891c-0.027-0.221-0.072-0.426-0.072-0.629
	c-0.004-1.639-0.002-3.275-0.002-4.914v-0.42h-1.986v5.963H41.328z"/>
</svg>
