<?xml version="1.0" encoding="utf-8"?>
<!-- Generator: Adobe Illustrator 17.0.0, SVG Export Plug-In . SVG Version: 6.00 Build 0)  -->
<!DOCTYPE svg PUBLIC "-//W3C//DTD SVG 1.1//EN" "http://www.w3.org/Graphics/SVG/1.1/DTD/svg11.dtd">
<svg version="1.1" id="Calque_1" xmlns="http://www.w3.org/2000/svg" xmlns:xlink="http://www.w3.org/1999/xlink" x="0px" y="0px"
	 width="400px" height="300px" viewBox="0 0 400 300" enable-background="new 0 0 400 300" xml:space="preserve">
<g>
	
		<line fill="none" stroke="#884328" stroke-width="4" stroke-linecap="round" stroke-miterlimit="10" x1="236.372" y1="251.378" x2="336.735" y2="251.378"/>
	
		<line fill="none" stroke="#884328" stroke-width="4" stroke-linecap="round" stroke-miterlimit="10" x1="41.221" y1="251.378" x2="141.371" y2="251.378"/>
	<g>
		<rect x="167.822" y="243.79" fill="none" width="60.314" height="20.432"/>
		<path fill="#884328" d="M173.707,256.79h-2.667v-9.14l-3.034,1.821v-2.74l3.384-1.968h2.317V256.79z"/>
		<path fill="#884328" d="M182.404,250.005c0.698,0.674,1.048,1.615,1.048,2.822c0,1.208-0.414,2.188-1.241,2.942
			s-1.955,1.131-3.384,1.131c-1.428,0-2.553-0.215-3.374-0.644v-2.538c0.834,0.515,1.766,0.772,2.795,0.772
			c1.643,0,2.464-0.589,2.464-1.766c0-0.441-0.168-0.79-0.505-1.048c-0.338-0.258-0.911-0.386-1.72-0.386
			c-0.81,0-1.649,0.202-2.52,0.606v-7.172h6.749v2.28h-4.138v2.041c0.27-0.036,0.539-0.055,0.81-0.055
			C180.7,248.993,181.705,249.33,182.404,250.005z"/>
		<path fill="#884328" d="M191.34,258.684h-2.777l6.602-14.895h2.795L191.34,258.684z"/>
		<path fill="#884328" d="M206.75,244.506c1.446,0,2.54,0.559,3.282,1.674c0.741,1.115,1.112,2.623,1.112,4.523
			s-0.371,3.414-1.112,4.542c-0.742,1.128-1.836,1.691-3.282,1.691c-1.447,0-2.538-0.561-3.273-1.683
			c-0.735-1.121-1.104-2.635-1.104-4.541s0.368-3.418,1.104-4.533S205.302,244.506,206.75,244.506z M206.758,246.896
			c-1.098,0-1.646,1.275-1.646,3.825s0.548,3.825,1.646,3.825c1.097,0,1.646-1.275,1.646-3.825S207.855,246.896,206.758,246.896z"/>
	</g>
</g>
<g>
	<g>
		<path fill="none" stroke="#884328" stroke-width="4" stroke-linecap="round" stroke-linejoin="round" stroke-miterlimit="10" d="
			M282.137,137.152c-2.322,0-4.191,1.871-4.191,4.182c0,2.32,1.868,4.191,4.191,4.191c2.311,0,4.18-1.871,4.18-4.191
			C286.317,139.022,284.448,137.152,282.137,137.152z"/>
		<path fill="none" stroke="#884328" stroke-width="4" stroke-linecap="round" stroke-linejoin="round" stroke-miterlimit="10" d="
			M260.113,129.384c0,0-9.036-1.787-8.812,5.812c0.222,7.597,8.812,12.959,8.812,12.959v-17.984V129.384z"/>
		<path fill="none" stroke="#884328" stroke-width="4" stroke-linecap="round" stroke-linejoin="round" stroke-miterlimit="10" d="
			M305.328,141.333c0,2.32,1.873,4.191,4.182,4.191c2.32,0,4.193-1.871,4.193-4.191c0-2.311-1.873-4.182-4.193-4.182
			C307.201,137.152,305.328,139.022,305.328,141.333z"/>
		<path fill="none" stroke="#884328" stroke-width="4" stroke-linecap="round" stroke-linejoin="round" stroke-miterlimit="10" d="
			M277.946,141.333c0,2.32,1.868,4.191,4.191,4.191c2.311,0,4.18-1.871,4.18-4.191c0-2.311-1.868-4.182-4.18-4.182
			C279.815,137.152,277.946,139.022,277.946,141.333z"/>
		<path fill="none" stroke="#884328" stroke-width="4" stroke-linecap="round" stroke-linejoin="round" stroke-miterlimit="10" d="
			M260.113,131.866v-2.482c0,0-9.036-1.787-8.812,5.812c0.222,7.597,8.812,12.959,8.812,12.959V131.866z"/>
		<path fill="none" stroke="#884328" stroke-width="4" stroke-linecap="round" stroke-linejoin="round" stroke-miterlimit="10" d="
			M329.272,130.503c0,0,9.037-2.26,8.815,5.339c-0.226,7.597-8.815,12.961-8.815,12.961v-18.82"/>
		<path fill="none" stroke="#884328" stroke-width="4" stroke-linecap="round" stroke-linejoin="round" stroke-miterlimit="10" d="
			M329.524,147.575c0,0,3.486,20.28-10.807,31.082c-0.813,0.616-1.68,1.196-2.609,1.74c-5.016,2.951-11.807,4.854-20.999,4.854
			c-1.958,0-3.819-0.087-5.57-0.24c-1.502-0.145-2.92-0.339-4.282-0.6c-7.076-1.278-12.216-3.978-15.937-7.347
			c-12.068-10.924-9.207-28.909-9.207-28.909"/>
		<path fill="none" stroke="#884328" stroke-width="4" stroke-linecap="round" stroke-linejoin="round" stroke-miterlimit="10" d="
			M329.272,129.983c0,0,2.791-22.497-11.004-32.402c-0.813-0.616-1.68-1.196-2.609-1.74c-5.016-2.951-11.807-4.854-20.999-4.854
			c-1.958,0-3.819,0.087-5.57,0.24c-1.502,0.145-2.92,0.339-4.282,0.6c-7.076,1.278-12.216,3.978-15.937,7.347
			c-12.068,10.924-9.808,29.979-9.808,29.979"/>
		<path fill="none" stroke="#884328" stroke-width="4" stroke-linecap="round" stroke-linejoin="round" stroke-miterlimit="10" d="
			M300.759,174.486c0.785,0.337,1.65,0.489,2.544,0.489c4.078,0,7.384-3.576,7.384-7.988c0-4.412-3.306-7.988-7.384-7.988
			c-1.051,0-2.024,0.301-2.953,0.668c-3.282,1.297-5.552,1.138-9.139-0.042c-0.916-0.301-1.847-0.626-2.863-0.626
			c-4.078,0-7.384,3.576-7.384,7.988c0,4.412,3.306,7.988,7.384,7.988c1.12,0,2.189-0.253,3.131-0.755
			C294.132,172.806,296.687,172.74,300.759,174.486z"/>
		<path fill="none" stroke="#884328" stroke-width="3.5026" stroke-miterlimit="10" d="M295.826,172.589"/>
		<circle fill="none" stroke="#884328" stroke-width="3" stroke-miterlimit="10" cx="295.826" cy="166.986" r="4.667"/>
		<path fill="none" stroke="#884328" stroke-width="3" stroke-linecap="round" stroke-miterlimit="10" d="M294.634,95.486
			c-0.698-0.465-6.047-18.608,3.954-11.862"/>
	</g>
	<g>
		<path fill="none" stroke="#884328" stroke-width="4" stroke-miterlimit="10" d="M101.143,132.393c0,3.487-2.612,6.299-5.831,6.299
			c-3.235,0-5.847-2.812-5.847-6.299c0-3.474,2.611-6.285,5.847-6.285C98.532,126.107,101.143,128.919,101.143,132.393z"/>
		<path fill="none" stroke="#884328" stroke-width="4" stroke-miterlimit="10" d="M150.592,132.124c0,3.338-2.688,6.029-6.029,6.029
			c-3.325,0-6.013-2.691-6.013-6.029c0-3.325,2.688-6.016,6.013-6.016C147.904,126.107,150.592,128.799,150.592,132.124z"/>
		<path fill="none" stroke="#884328" stroke-width="4" stroke-miterlimit="10" d="M185.292,111.371v-1.463
			c0,0,16.797-3.322,16.381,10.804c-0.413,14.123-16.381,24.091-16.381,24.091V111.371z"/>
		<path fill="none" stroke="#884328" stroke-width="3.5026" stroke-miterlimit="10" d="M56.26,119.045v-10.215
			c0,0-16.8-3.325-16.388,10.801c0.419,14.123,16.388,24.094,16.388,24.094V119.045z"/>
		<path fill="none" stroke="#884328" stroke-width="4" stroke-miterlimit="10" d="M56.26,143.724c0,0-6.481,37.7,20.09,57.78
			c1.511,1.144,3.124,2.223,4.85,3.234c9.325,5.486,21.949,9.023,39.036,9.023c3.64,0,7.099-0.162,10.355-0.445
			c2.792-0.27,5.428-0.63,7.96-1.115c13.154-2.376,22.71-7.394,29.626-13.658c22.433-20.308,17.116-53.74,17.116-53.74"/>
		<path fill="none" stroke="#884328" stroke-width="4" stroke-linecap="round" stroke-miterlimit="10" d="M134.038,186.692
			c0,0-3.608,6.405-13.088,6.084c-11.53-0.39-13.939-5.083-13.939-5.083"/>
		<polyline fill="none" stroke="#884328" stroke-width="4" stroke-linecap="round" stroke-miterlimit="10" points="120.647,103.674 
			120.647,120.712 106.109,152.695 120.647,152.695 120.413,187.41 120.235,213.76 		"/>
		<path fill="none" stroke="#884328" stroke-width="4" stroke-linecap="round" stroke-miterlimit="10" d="M133.896,67.486
			c0,0-9.414,46.686-77.637,41.343"/>
		<path fill="none" stroke="#884328" stroke-width="4" stroke-linecap="round" stroke-miterlimit="10" d="M163.23,70.153
			c0,0,5.895,38.844,22.062,39.755"/>
		<path fill="none" stroke="#884328" stroke-width="4" stroke-miterlimit="10" d="M43.721,110.878c0,0-7.675-44.645,23.791-68.424
			c1.79-1.355,3.699-2.633,5.743-3.83c11.043-6.497,25.992-10.685,46.227-10.685c4.311,0,8.406,0.192,12.263,0.527
			c3.306,0.319,6.428,0.747,9.426,1.32c15.577,2.814,26.893,8.757,35.084,16.174c26.566,24.049,20.269,63.64,20.269,63.64"/>
		<path fill="none" stroke="#884328" stroke-width="4" stroke-linecap="round" stroke-miterlimit="10" d="M164.563,63.819
			c0,0-9.414,46.686-77.637,41.343"/>
		<path fill="none" stroke="#884328" stroke-width="3" stroke-linecap="round" stroke-miterlimit="10" d="M77.905,44.065
			c4.382-2.578,9.502-4.721,15.483-6.258"/>
		<path fill="none" stroke="#884328" stroke-width="3" stroke-linecap="round" stroke-miterlimit="10" d="M51.548,82.928
			c1.199-7.44,3.736-15.742,8.786-23.263c2.772-4.128,6.3-8.021,10.78-11.406"/>
		<path fill="none" stroke="#884328" stroke-width="3" stroke-linecap="round" stroke-miterlimit="10" d="M116.187,81.504
			c-7.071,8.439-20.305,16.913-44.624,14.871"/>
		<path fill="none" stroke="#884328" stroke-width="3" stroke-linecap="round" stroke-miterlimit="10" d="M123.896,66.494
			c0,0-0.826,4.394-4.044,9.83"/>
		<path fill="none" stroke="#884328" stroke-width="3" stroke-linecap="round" stroke-miterlimit="10" d="M160.229,55.161
			c0,0-0.826,4.394-4.044,9.83"/>
	</g>
</g>
</svg>
