<?xml version="1.0" encoding="utf-8"?>
<!-- Generator: Adobe Illustrator 17.0.0, SVG Export Plug-In . SVG Version: 6.00 Build 0)  -->
<!DOCTYPE svg PUBLIC "-//W3C//DTD SVG 1.1//EN" "http://www.w3.org/Graphics/SVG/1.1/DTD/svg11.dtd">
<svg version="1.1" id="Calque_1" xmlns="http://www.w3.org/2000/svg" xmlns:xlink="http://www.w3.org/1999/xlink" x="0px" y="0px"
	 width="952.452px" height="352.482px" viewBox="0 0 952.452 352.482" enable-background="new 0 0 952.452 352.482"
	 xml:space="preserve">
<g>
	<path fill-rule="evenodd" clip-rule="evenodd" fill="none" stroke="#8A4428" stroke-miterlimit="10" d="M156.291,220.381
		c0,0-2.873,2.649-6.201-0.026c-3.171-2.554-10.697-8.74-10.697-8.74s3.099-2.494,6.199,0.002
		C148.695,214.115,156.291,220.381,156.291,220.381z"/>
	<path fill-rule="evenodd" clip-rule="evenodd" fill="none" stroke="#8A4428" stroke-miterlimit="10" d="M162.534,220.386
		c0,0-2.877,2.649-6.203-0.031c-3.169-2.549-10.697-8.738-10.697-8.738s3.101-2.493,6.201,0.002
		C154.934,214.115,162.534,220.386,162.534,220.386z"/>
	<path fill-rule="evenodd" clip-rule="evenodd" fill="none" stroke="#8A4428" stroke-miterlimit="10" d="M168.655,220.386
		c0,0-2.873,2.649-6.199-0.027c-3.173-2.553-10.699-8.74-10.699-8.74s3.101-2.495,6.201,0
		C161.058,214.12,168.655,220.386,168.655,220.386z"/>
	<path fill-rule="evenodd" clip-rule="evenodd" fill="none" stroke="#8A4428" stroke-miterlimit="10" d="M150.228,220.495
		c0,0-2.875,2.647-6.201-0.03c-3.171-2.553-10.697-8.736-10.697-8.736s3.097-2.495,6.197,0
		C142.629,214.228,150.228,220.495,150.228,220.495z"/>
	<path fill-rule="evenodd" clip-rule="evenodd" fill="none" stroke="#8A4428" stroke-miterlimit="10" d="M180.983,220.355
		c0,0-2.873,2.647-6.203-0.031c-3.169-2.551-10.695-8.736-10.695-8.736s3.101-2.495,6.199,0
		C173.382,214.087,180.983,220.355,180.983,220.355z"/>
	<path fill-rule="evenodd" clip-rule="evenodd" fill="none" stroke="#8A4428" stroke-miterlimit="10" d="M187.223,220.355
		c0,0-2.877,2.647-6.201-0.028c-3.169-2.554-10.697-8.74-10.697-8.74s3.105-2.492,6.201,0
		C179.627,214.089,187.223,220.355,187.223,220.355z"/>
	<path fill-rule="evenodd" clip-rule="evenodd" fill="none" stroke="#8A4428" stroke-miterlimit="10" d="M193.346,220.355
		c0,0-2.877,2.649-6.201-0.026c-3.171-2.552-10.697-8.742-10.697-8.742s3.101-2.492,6.201,0.006
		C185.746,214.089,193.346,220.355,193.346,220.355z"/>
	<path fill-rule="evenodd" clip-rule="evenodd" fill="none" stroke="#8A4428" stroke-miterlimit="10" d="M174.915,220.463
		c0,0-2.871,2.647-6.197-0.027c-3.171-2.553-10.697-8.738-10.697-8.738s3.101-2.497,6.199,0.004
		C167.321,214.197,174.915,220.463,174.915,220.463z"/>
	<path fill-rule="evenodd" clip-rule="evenodd" fill="none" stroke="#8A4428" stroke-miterlimit="10" d="M131.694,220.544
		c0,0-2.873,2.649-6.197-0.028c-3.171-2.549-10.697-8.738-10.697-8.738s3.101-2.493,6.201,0.006
		C124.098,214.28,131.694,220.544,131.694,220.544z"/>
	<path fill-rule="evenodd" clip-rule="evenodd" fill="none" stroke="#8A4428" stroke-miterlimit="10" d="M137.935,220.548
		c0,0-2.871,2.647-6.197-0.031c-3.171-2.549-10.697-8.732-10.697-8.732s3.101-2.496,6.199,0
		C130.342,214.28,137.935,220.548,137.935,220.548z"/>
	<path fill-rule="evenodd" clip-rule="evenodd" fill="none" stroke="#8A4428" stroke-miterlimit="10" d="M144.062,220.55
		c0,0-2.873,2.647-6.201-0.03c-3.167-2.55-10.699-8.736-10.699-8.736s3.103-2.496,6.203,0
		C136.461,214.282,144.062,220.55,144.062,220.55z"/>
	<path fill-rule="evenodd" clip-rule="evenodd" fill="none" stroke="#8A4428" stroke-miterlimit="10" d="M125.633,220.658
		c0,0-2.877,2.645-6.203-0.031c-3.169-2.551-10.695-8.734-10.695-8.734s3.099-2.496,6.199,0
		C118.034,214.386,125.633,220.658,125.633,220.658z"/>
	<path fill-rule="evenodd" clip-rule="evenodd" fill="none" stroke="#8A4428" stroke-miterlimit="10" d="M82.107,220.52
		c0,0-2.876,2.645-6.201-0.031c-3.171-2.549-10.701-8.738-10.701-8.738s3.101-2.493,6.201,0.006
		C74.507,214.252,82.107,220.52,82.107,220.52z"/>
	<path fill-rule="evenodd" clip-rule="evenodd" fill="none" stroke="#8A4428" stroke-miterlimit="10" d="M88.348,220.52
		c0,0-2.877,2.649-6.201-0.027c-3.173-2.553-10.699-8.736-10.699-8.736s3.101-2.496,6.203,0
		C80.751,214.252,88.348,220.52,88.348,220.52z"/>
	<path fill-rule="evenodd" clip-rule="evenodd" fill="none" stroke="#8A4428" stroke-miterlimit="10" d="M94.471,220.522
		c0,0-2.875,2.647-6.201-0.027c-3.171-2.549-10.701-8.738-10.701-8.738s3.105-2.496,6.203,0.002
		C86.872,214.254,94.471,220.522,94.471,220.522z"/>
	<path fill-rule="evenodd" clip-rule="evenodd" fill="none" stroke="#8A4428" stroke-miterlimit="10" d="M76.04,220.63
		c0,0-2.873,2.649-6.197-0.027c-3.171-2.551-10.701-8.738-10.701-8.738s3.104-2.495,6.201,0
		C68.443,214.362,76.04,220.63,76.04,220.63z"/>
	<path fill-rule="evenodd" clip-rule="evenodd" fill="none" stroke="#8A4428" stroke-miterlimit="10" d="M106.795,220.489
		c0,0-2.873,2.649-6.197-0.029c-3.171-2.549-10.701-8.738-10.701-8.738s3.101-2.494,6.201,0.004
		C99.2,214.221,106.795,220.489,106.795,220.489z"/>
	<path fill-rule="evenodd" clip-rule="evenodd" fill="none" stroke="#8A4428" stroke-miterlimit="10" d="M113.039,220.489
		c0,0-2.877,2.651-6.201-0.026c-3.171-2.551-10.699-8.738-10.699-8.738s3.103-2.498,6.203,0.004
		C105.439,214.221,113.039,220.489,113.039,220.489z"/>
	<path fill-rule="evenodd" clip-rule="evenodd" fill="none" stroke="#8A4428" stroke-miterlimit="10" d="M119.162,220.495
		c0,0-2.877,2.645-6.201-0.032c-3.171-2.551-10.697-8.734-10.697-8.734s3.101-2.499,6.197,0
		C111.564,214.224,119.162,220.495,119.162,220.495z"/>
	<path fill-rule="evenodd" clip-rule="evenodd" fill="none" stroke="#8A4428" stroke-miterlimit="10" d="M100.733,220.601
		c0,0-2.877,2.645-6.201-0.03c-3.171-2.552-10.697-8.74-10.697-8.74s3.099-2.492,6.199,0.004
		C93.134,214.333,100.733,220.601,100.733,220.601z"/>
	<path fill-rule="evenodd" clip-rule="evenodd" fill="none" stroke="#8A4428" stroke-miterlimit="10" d="M57.514,220.679
		c0,0-2.877,2.651-6.205-0.025c-3.169-2.551-10.693-8.738-10.693-8.738s3.097-2.497,6.197,0
		C49.914,214.413,57.514,220.679,57.514,220.679z"/>
	<path fill-rule="evenodd" clip-rule="evenodd" fill="none" stroke="#8A4428" stroke-miterlimit="10" d="M63.753,220.681
		c0,0-2.875,2.649-6.199-0.027c-3.169-2.551-10.699-8.738-10.699-8.738s3.103-2.494,6.199,0.002
		C56.156,214.413,63.753,220.681,63.753,220.681z"/>
	<path fill-rule="evenodd" clip-rule="evenodd" fill="none" stroke="#8A4428" stroke-miterlimit="10" d="M69.876,220.685
		c0,0-2.875,2.647-6.201-0.028c-3.169-2.552-10.695-8.74-10.695-8.74s3.099-2.496,6.199,0
		C62.277,214.419,69.876,220.685,69.876,220.685z"/>
	<path fill-rule="evenodd" clip-rule="evenodd" fill="none" stroke="#8A4428" stroke-miterlimit="10" d="M51.447,220.793
		c0,0-2.875,2.647-6.199-0.028c-3.175-2.554-10.699-8.742-10.699-8.742s3.101-2.492,6.201,0.004
		C43.848,214.525,51.447,220.793,51.447,220.793z"/>
	<path fill-rule="evenodd" clip-rule="evenodd" fill="none" stroke="#8A4428" stroke-miterlimit="10" d="M20.664,220.821
		c0,0-2.873,2.647-6.197-0.028c-3.171-2.553-10.701-8.738-10.701-8.738s3.103-2.495,6.201,0.004
		C13.064,214.553,20.664,220.821,20.664,220.821z"/>
	<path fill-rule="evenodd" clip-rule="evenodd" fill="none" stroke="#8A4428" stroke-miterlimit="10" d="M2.237,220.927"/>
	<path fill-rule="evenodd" clip-rule="evenodd" fill="none" stroke="#8A4428" stroke-miterlimit="10" d="M32.992,220.788
		c0,0-2.875,2.645-6.201-0.032c-3.171-2.55-10.697-8.736-10.697-8.736s3.101-2.493,6.199,0.002
		C25.391,214.517,32.992,220.788,32.992,220.788z"/>
	<path fill-rule="evenodd" clip-rule="evenodd" fill="none" stroke="#8A4428" stroke-miterlimit="10" d="M39.232,220.788
		c0,0-2.876,2.649-6.201-0.028c-3.167-2.549-10.697-8.738-10.697-8.738s3.105-2.495,6.201,0.002
		C31.638,214.519,39.232,220.788,39.232,220.788z"/>
	<path fill-rule="evenodd" clip-rule="evenodd" fill="none" stroke="#8A4428" stroke-miterlimit="10" d="M45.355,220.791
		c0,0-2.873,2.647-6.201-0.031c-3.167-2.549-10.697-8.738-10.697-8.738s3.103-2.493,6.201,0.002
		C37.759,214.523,45.355,220.791,45.355,220.791z"/>
	<path fill-rule="evenodd" clip-rule="evenodd" fill="none" stroke="#8A4428" stroke-miterlimit="10" d="M26.926,220.897
		c0,0-2.873,2.647-6.199-0.031c-3.171-2.547-10.699-8.736-10.699-8.736s3.103-2.495,6.203,0.006
		C19.33,214.629,26.926,220.897,26.926,220.897z"/>
</g>
<g>
	<g>
		<path fill-rule="evenodd" clip-rule="evenodd" fill="none" stroke="#8A4428" stroke-miterlimit="10" d="M948.707,211.358"/>
		<path fill-rule="evenodd" clip-rule="evenodd" fill="none" stroke="#8A4428" stroke-miterlimit="10" d="M948.842,211.468"/>
		<path fill-rule="evenodd" clip-rule="evenodd" fill="none" stroke="#8A4428" stroke-miterlimit="10" d="M942.641,211.446"/>
		<path fill-rule="evenodd" clip-rule="evenodd" fill="none" stroke="#8A4428" stroke-miterlimit="10" d="M940.978,220.257
			c0,0-2.886,2.637-6.207-0.051c-3.156-2.564-10.66-8.779-10.66-8.779s3.109-2.48,6.201,0.026
			C933.402,213.961,940.978,220.257,940.978,220.257z"/>
		<path fill-rule="evenodd" clip-rule="evenodd" fill="none" stroke="#8A4428" stroke-miterlimit="10" d="M947.217,220.284
			c0,0-2.885,2.637-6.201-0.055c-3.16-2.562-10.662-8.777-10.662-8.777s3.109-2.482,6.197,0.022
			C939.644,213.985,947.217,220.284,947.217,220.284z"/>
		<path fill-rule="evenodd" clip-rule="evenodd" fill="none" stroke="#8A4428" stroke-miterlimit="10" d="M934.913,220.347
			c0,0-2.887,2.633-6.203-0.053c-3.162-2.566-10.666-8.779-10.666-8.779s3.108-2.482,6.201,0.024
			C927.338,214.052,934.913,220.347,934.913,220.347z"/>
		<path fill-rule="evenodd" clip-rule="evenodd" fill="none" stroke="#8A4428" stroke-miterlimit="10" d="M891.767,220.214
			c0,0-2.885,2.633-6.201-0.055c-3.162-2.56-10.666-8.777-10.666-8.777s3.109-2.484,6.199,0.026
			C884.19,213.914,891.767,220.214,891.767,220.214z"/>
		<path fill-rule="evenodd" clip-rule="evenodd" fill="none" stroke="#8A4428" stroke-miterlimit="10" d="M898.007,220.235
			c0,0-2.883,2.639-6.199-0.053c-3.163-2.558-10.665-8.775-10.665-8.775s3.111-2.484,6.199,0.024
			C890.432,213.942,898.007,220.235,898.007,220.235z"/>
		<path fill-rule="evenodd" clip-rule="evenodd" fill="none" stroke="#8A4428" stroke-miterlimit="10" d="M904.13,220.259
			c0,0-2.887,2.639-6.201-0.049c-3.16-2.562-10.666-8.779-10.666-8.779s3.109-2.48,6.203,0.027
			C896.553,213.963,904.13,220.259,904.13,220.259z"/>
		<path fill-rule="evenodd" clip-rule="evenodd" fill="none" stroke="#8A4428" stroke-miterlimit="10" d="M885.699,220.3
			c0,0-2.885,2.637-6.197-0.055c-3.163-2.56-10.669-8.777-10.669-8.777s3.114-2.478,6.205,0.028
			C878.126,214.001,885.699,220.3,885.699,220.3z"/>
		<path fill-rule="evenodd" clip-rule="evenodd" fill="none" stroke="#8A4428" stroke-miterlimit="10" d="M916.454,220.271
			c0,0-2.883,2.639-6.197-0.053c-3.162-2.558-10.668-8.774-10.668-8.774s3.11-2.486,6.201,0.024
			C908.881,213.975,916.454,220.271,916.454,220.271z"/>
		<path fill-rule="evenodd" clip-rule="evenodd" fill="none" stroke="#8A4428" stroke-miterlimit="10" d="M922.697,220.294
			c0,0-2.88,2.639-6.201-0.049c-3.16-2.562-10.666-8.777-10.666-8.777s3.114-2.484,6.203,0.028
			C915.124,213.999,922.697,220.294,922.697,220.294z"/>
		<path fill-rule="evenodd" clip-rule="evenodd" fill="none" stroke="#8A4428" stroke-miterlimit="10" d="M928.821,220.32
			c0,0-2.886,2.639-6.201-0.049c-3.16-2.564-10.666-8.781-10.666-8.781s3.112-2.482,6.199,0.027
			C921.245,214.024,928.821,220.32,928.821,220.32z"/>
		<path fill-rule="evenodd" clip-rule="evenodd" fill="none" stroke="#8A4428" stroke-miterlimit="10" d="M910.392,220.359
			c0,0-2.887,2.637-6.203-0.053c-3.16-2.558-10.662-8.775-10.662-8.775s3.109-2.482,6.197,0.026
			C902.814,214.063,910.392,220.359,910.392,220.359z"/>
		<path fill-rule="evenodd" clip-rule="evenodd" fill="none" stroke="#8A4428" stroke-miterlimit="10" d="M867.174,220.284
			c0,0-2.887,2.637-6.203-0.055c-3.164-2.56-10.664-8.777-10.664-8.777s3.108-2.482,6.197,0.028
			C859.597,213.985,867.174,220.284,867.174,220.284z"/>
		<path fill-rule="evenodd" clip-rule="evenodd" fill="none" stroke="#8A4428" stroke-miterlimit="10" d="M873.412,220.306
			c0,0-2.881,2.635-6.201-0.053c-3.16-2.56-10.666-8.773-10.666-8.773s3.11-2.486,6.201,0.024
			C865.837,214.012,873.412,220.306,873.412,220.306z"/>
		<path fill-rule="evenodd" clip-rule="evenodd" fill="none" stroke="#8A4428" stroke-miterlimit="10" d="M879.537,220.33
			c0,0-2.887,2.639-6.203-0.049c-3.158-2.562-10.664-8.777-10.664-8.777s3.108-2.484,6.201,0.026
			C871.964,214.034,879.537,220.33,879.537,220.33z"/>
		<path fill-rule="evenodd" clip-rule="evenodd" fill="none" stroke="#8A4428" stroke-miterlimit="10" d="M861.106,220.371
			c0,0-2.884,2.637-6.199-0.051c-3.162-2.564-10.664-8.781-10.664-8.781s3.108-2.478,6.197,0.028
			C853.533,214.071,861.106,220.371,861.106,220.371z"/>
		<path fill-rule="evenodd" clip-rule="evenodd" fill="none" stroke="#8A4428" stroke-miterlimit="10" d="M842.831,215.449
			c2.886,2.386,5.68,4.71,5.68,4.71s-3.622,3.577-7.789-0.923"/>
		<path fill-rule="evenodd" clip-rule="evenodd" fill="none" stroke="#8A4428" stroke-miterlimit="10" d="M843.972,211.381
			c3.089,2.505,10.664,8.801,10.664,8.801s-2.883,2.641-6.199-0.051c-1.508-1.221-4.001-3.272-6.197-5.084"/>
	</g>
</g>
<g>
	<path fill-rule="evenodd" clip-rule="evenodd" fill="none" stroke="#8A4428" stroke-miterlimit="10" d="M742.934,215.521
		c2.768,2.271,5.35,4.402,5.35,4.402s-4.561,4.312-9.728-1.021"/>
	<path fill-rule="evenodd" clip-rule="evenodd" fill="none" stroke="#8A4428" stroke-miterlimit="10" d="M747.846,214.433
		c3.208,2.628,4.71,4.469,4.71,4.469s-0.904,3.672-4.227,0.993c-1.271-1.02-3.239-2.624-5.143-4.181"/>
	<path fill-rule="evenodd" clip-rule="evenodd" fill="none" stroke="#8A4428" stroke-miterlimit="10" d="M723.688,220.084
		c0,0-2.873,2.647-6.195-0.028c-3.173-2.551-10.701-8.74-10.701-8.74s3.101-2.492,6.201,0.006
		C716.09,213.818,723.688,220.084,723.688,220.084z"/>
	<path fill-rule="evenodd" clip-rule="evenodd" fill="none" stroke="#8A4428" stroke-miterlimit="10" d="M727.677,221.172
		c-1.086,0.211-2.472,0.071-3.945-1.115c-3.171-2.551-10.695-8.734-10.695-8.734s3.097-2.496,6.201,0
		c1.334,1.075,3.502,2.849,5.539,4.521"/>
	<path fill-rule="evenodd" clip-rule="evenodd" fill="none" stroke="#8A4428" stroke-miterlimit="10" d="M725.061,216.163
		c-2.975-2.431-5.906-4.841-5.906-4.841s1.4-2.087,4.234-1.254"/>
	<path fill-rule="evenodd" clip-rule="evenodd" fill="none" stroke="#8A4428" stroke-miterlimit="10" d="M717.627,220.198
		c0,0-2.877,2.647-6.203-0.033c-3.169-2.547-10.695-8.738-10.695-8.738s3.101-2.492,6.199,0.004
		C710.028,213.926,717.627,220.198,717.627,220.198z"/>
	<path fill-rule="evenodd" clip-rule="evenodd" fill="none" stroke="#8A4428" stroke-miterlimit="10" d="M674.099,220.057
		c0,0-2.875,2.647-6.197-0.028c-3.173-2.551-10.703-8.736-10.703-8.736"/>
	<path fill-rule="evenodd" clip-rule="evenodd" fill="none" stroke="#8A4428" stroke-miterlimit="10" d="M671.548,212.841
		c3.554,2.895,8.792,7.218,8.792,7.218s-2.875,2.651-6.199-0.028c-1.299-1.046-2.307-2.373-4.252-3.962"/>
	<path fill-rule="evenodd" clip-rule="evenodd" fill="none" stroke="#8A4428" stroke-miterlimit="10" d="M672.356,210.208
		c1.018-0.092,2.214,0.127,3.409,1.089c3.103,2.499,10.701,8.767,10.701,8.767s-2.878,2.645-6.205-0.033
		c-1.962-1.577-5.595-4.55-8.078-6.586"/>
	<path fill-rule="evenodd" clip-rule="evenodd" fill="none" stroke="#8A4428" stroke-miterlimit="10" d="M668.036,220.17
		c0,0-2.873,2.647-6.202-0.031c-3.167-2.549-10.701-8.736-10.701-8.736s3.106-2.495,6.205,0.004
		C660.437,213.902,668.036,220.17,668.036,220.17z"/>
	<path fill-rule="evenodd" clip-rule="evenodd" fill="none" stroke="#8A4428" stroke-miterlimit="10" d="M698.791,220.029
		c0,0-2.875,2.647-6.201-0.029c-3.169-2.551-10.699-8.738-10.699-8.738s3.103-2.495,6.203,0
		C691.194,213.761,698.791,220.029,698.791,220.029z"/>
	<path fill-rule="evenodd" clip-rule="evenodd" fill="none" stroke="#8A4428" stroke-miterlimit="10" d="M705.031,220.029
		c0,0-2.873,2.647-6.197-0.028c-3.175-2.55-10.701-8.74-10.701-8.74s3.101-2.49,6.201,0.006
		C697.435,213.761,705.031,220.029,705.031,220.029z"/>
	<path fill-rule="evenodd" clip-rule="evenodd" fill="none" stroke="#8A4428" stroke-miterlimit="10" d="M711.154,220.031
		c0,0-2.873,2.647-6.201-0.03c-3.169-2.55-10.697-8.734-10.697-8.734s3.103-2.495,6.201,0
		C703.558,213.763,711.154,220.031,711.154,220.031z"/>
	<path fill-rule="evenodd" clip-rule="evenodd" fill="none" stroke="#8A4428" stroke-miterlimit="10" d="M692.727,220.139
		c0,0-2.877,2.649-6.201-0.03c-3.171-2.549-10.697-8.738-10.697-8.738s3.103-2.494,6.199,0.004
		C685.129,213.871,692.727,220.139,692.727,220.139z"/>
	<path fill-rule="evenodd" clip-rule="evenodd" fill="none" stroke="#8A4428" stroke-miterlimit="10" d="M649.506,220.224
		c0,0-2.875,2.643-6.203-0.031c-3.169-2.551-10.695-8.738-10.695-8.738s3.101-2.495,6.201,0.004
		C641.908,213.949,649.506,220.224,649.506,220.224z"/>
	<path fill-rule="evenodd" clip-rule="evenodd" fill="none" stroke="#8A4428" stroke-miterlimit="10" d="M655.747,220.224
		c0,0-2.875,2.645-6.199-0.03c-3.169-2.552-10.699-8.74-10.699-8.74s3.101-2.492,6.201,0.004
		C648.151,213.955,655.747,220.224,655.747,220.224z"/>
	<path fill-rule="evenodd" clip-rule="evenodd" fill="none" stroke="#8A4428" stroke-miterlimit="10" d="M661.866,220.224
		c0,0-2.871,2.647-6.199-0.026c-3.169-2.551-10.693-8.74-10.693-8.74s3.101-2.495,6.199,0
		C654.271,213.957,661.866,220.224,661.866,220.224z"/>
	<path fill-rule="evenodd" clip-rule="evenodd" fill="none" stroke="#8A4428" stroke-miterlimit="10" d="M643.44,220.33
		c0,0-2.873,2.651-6.199-0.024c-3.175-2.553-10.701-8.74-10.701-8.74s3.103-2.496,6.205,0
		C635.844,214.063,643.44,220.33,643.44,220.33z"/>
	<path fill-rule="evenodd" clip-rule="evenodd" fill="none" stroke="#8A4428" stroke-miterlimit="10" d="M600.295,220.355
		c0,0-2.873,2.649-6.202-0.028c-3.167-2.55-10.695-8.74-10.695-8.74s3.101-2.492,6.199,0.006
		C592.7,214.089,600.295,220.355,600.295,220.355z"/>
	<path fill-rule="evenodd" clip-rule="evenodd" fill="none" stroke="#8A4428" stroke-miterlimit="10" d="M606.535,220.359
		c0,0-2.873,2.649-6.199-0.03c-3.171-2.552-10.695-8.736-10.695-8.736s3.097-2.495,6.199,0
		C598.939,214.089,606.535,220.359,606.535,220.359z"/>
	<path fill-rule="evenodd" clip-rule="evenodd" fill="none" stroke="#8A4428" stroke-miterlimit="10" d="M612.658,220.359
		c0,0-2.873,2.651-6.197-0.028c-3.173-2.549-10.701-8.738-10.701-8.738s3.103-2.495,6.199,0.002
		C605.058,214.091,612.658,220.359,612.658,220.359z"/>
	<path fill-rule="evenodd" clip-rule="evenodd" fill="none" stroke="#8A4428" stroke-miterlimit="10" d="M594.229,220.469
		c0,0-2.875,2.647-6.199-0.033c-3.171-2.551-10.699-8.734-10.699-8.734s3.101-2.495,6.201,0
		C586.634,214.203,594.229,220.469,594.229,220.469z"/>
	<path fill-rule="evenodd" clip-rule="evenodd" fill="none" stroke="#8A4428" stroke-miterlimit="10" d="M624.988,220.328
		c0,0-2.877,2.647-6.205-0.027c-3.168-2.553-10.693-8.74-10.693-8.74s3.099-2.495,6.197,0
		C617.387,214.059,624.988,220.328,624.988,220.328z"/>
	<path fill-rule="evenodd" clip-rule="evenodd" fill="none" stroke="#8A4428" stroke-miterlimit="10" d="M631.226,220.328
		c0,0-2.875,2.647-6.199-0.027c-3.175-2.551-10.699-8.74-10.699-8.74s3.103-2.495,6.201,0.006
		C623.632,214.061,631.226,220.328,631.226,220.328z"/>
	<path fill-rule="evenodd" clip-rule="evenodd" fill="none" stroke="#8A4428" stroke-miterlimit="10" d="M637.349,220.33
		c0,0-2.873,2.647-6.201-0.029c-3.169-2.551-10.699-8.74-10.699-8.74s3.104-2.492,6.205,0.006
		C629.751,214.061,637.349,220.33,637.349,220.33z"/>
	<path fill-rule="evenodd" clip-rule="evenodd" fill="none" stroke="#8A4428" stroke-miterlimit="10" d="M618.924,220.436
		c0,0-2.877,2.651-6.201-0.028c-3.173-2.549-10.703-8.736-10.703-8.736s3.107-2.495,6.205,0.002
		C611.324,214.17,618.924,220.436,618.924,220.436z"/>
	<path fill-rule="evenodd" clip-rule="evenodd" fill="none" stroke="#8A4428" stroke-miterlimit="10" d="M575.703,220.516
		c0,0-2.877,2.649-6.203-0.028c-3.171-2.549-10.701-8.738-10.701-8.738s3.103-2.493,6.207,0.006
		C568.103,214.252,575.703,220.516,575.703,220.516z"/>
	<path fill-rule="evenodd" clip-rule="evenodd" fill="none" stroke="#8A4428" stroke-miterlimit="10" d="M581.944,220.52
		c0,0-2.877,2.649-6.203-0.031c-3.169-2.549-10.697-8.732-10.697-8.732s3.103-2.499,6.201,0
		C574.344,214.252,581.944,220.52,581.944,220.52z"/>
	<path fill-rule="evenodd" clip-rule="evenodd" fill="none" stroke="#8A4428" stroke-miterlimit="10" d="M588.067,220.52
		c0,0-2.875,2.649-6.201-0.027c-3.167-2.551-10.699-8.736-10.699-8.736s3.099-2.496,6.203,0.002
		C580.47,214.254,588.067,220.52,588.067,220.52z"/>
	<path fill-rule="evenodd" clip-rule="evenodd" fill="none" stroke="#8A4428" stroke-miterlimit="10" d="M569.64,220.626
		c0,0-2.878,2.653-6.207-0.026c-3.168-2.549-10.691-8.736-10.691-8.736s3.097-2.497,6.199,0
		C562.041,214.362,569.64,220.626,569.64,220.626z"/>
	<path fill-rule="evenodd" clip-rule="evenodd" fill="none" stroke="#8A4428" stroke-miterlimit="10" d="M526.109,220.489
		c0,0-2.871,2.651-6.199-0.026c-3.171-2.551-10.699-8.738-10.699-8.738s3.105-2.496,6.201,0.004
		C518.514,214.224,526.109,220.489,526.109,220.489z"/>
	<path fill-rule="evenodd" clip-rule="evenodd" fill="none" stroke="#8A4428" stroke-miterlimit="10" d="M532.351,220.495
		c0,0-2.873,2.647-6.201-0.032c-3.169-2.551-10.695-8.734-10.695-8.734s3.099-2.495,6.201,0
		C524.753,214.228,532.351,220.495,532.351,220.495z"/>
	<path fill-rule="evenodd" clip-rule="evenodd" fill="none" stroke="#8A4428" stroke-miterlimit="10" d="M538.472,220.495
		c0,0-2.875,2.647-6.199-0.026c-3.171-2.551-10.699-8.74-10.699-8.74s3.101-2.494,6.201,0.002
		C530.877,214.228,538.472,220.495,538.472,220.495z"/>
	<path fill-rule="evenodd" clip-rule="evenodd" fill="none" stroke="#8A4428" stroke-miterlimit="10" d="M520.045,220.603
		c0,0-2.875,2.649-6.201-0.03c-3.171-2.549-10.697-8.736-10.697-8.736s3.101-2.495,6.201,0
		C512.444,214.335,520.045,220.603,520.045,220.603z"/>
	<path fill-rule="evenodd" clip-rule="evenodd" fill="none" stroke="#8A4428" stroke-miterlimit="10" d="M550.8,220.463
		c0,0-2.871,2.647-6.197-0.029c-3.173-2.551-10.697-8.738-10.697-8.738s3.097-2.495,6.197,0
		C543.203,214.191,550.8,220.463,550.8,220.463z"/>
	<path fill-rule="evenodd" clip-rule="evenodd" fill="none" stroke="#8A4428" stroke-miterlimit="10" d="M557.042,220.463
		c0,0-2.875,2.647-6.201-0.027c-3.168-2.553-10.697-8.738-10.697-8.738s3.103-2.492,6.199,0.004
		C549.444,214.197,557.042,220.463,557.042,220.463z"/>
	<path fill-rule="evenodd" clip-rule="evenodd" fill="none" stroke="#8A4428" stroke-miterlimit="10" d="M563.167,220.465
		c0,0-2.878,2.651-6.203-0.029c-3.172-2.551-10.695-8.738-10.695-8.738s3.097-2.492,6.197,0.004
		C555.567,214.197,563.167,220.465,563.167,220.465z"/>
	<path fill-rule="evenodd" clip-rule="evenodd" fill="none" stroke="#8A4428" stroke-miterlimit="10" d="M544.738,220.573
		c0,0-2.876,2.651-6.199-0.029c-3.177-2.551-10.705-8.736-10.705-8.736s3.106-2.494,6.205,0
		C537.138,214.305,544.738,220.573,544.738,220.573z"/>
	<path fill-rule="evenodd" clip-rule="evenodd" fill="none" stroke="#8A4428" stroke-miterlimit="10" d="M501.519,220.654
		c0,0-2.877,2.647-6.203-0.028c-3.171-2.554-10.695-8.74-10.695-8.74s3.101-2.495,6.199,0.006
		C493.919,214.386,501.519,220.654,501.519,220.654z"/>
	<path fill-rule="evenodd" clip-rule="evenodd" fill="none" stroke="#8A4428" stroke-miterlimit="10" d="M507.758,220.658
		c0,0-2.876,2.649-6.201-0.031c-3.167-2.551-10.697-8.734-10.697-8.734s3.103-2.496,6.199,0
		C500.16,214.386,507.758,220.658,507.758,220.658z"/>
	<path fill-rule="evenodd" clip-rule="evenodd" fill="none" stroke="#8A4428" stroke-miterlimit="10" d="M513.883,220.658
		c0,0-2.877,2.649-6.203-0.028c-3.166-2.554-10.699-8.738-10.699-8.738s3.101-2.494,6.203,0.002
		C506.284,214.393,513.883,220.658,513.883,220.658z"/>
	<path fill-rule="evenodd" clip-rule="evenodd" fill="none" stroke="#8A4428" stroke-miterlimit="10" d="M495.453,220.766
		c0,0-2.879,2.649-6.201-0.026c-3.173-2.554-10.697-8.74-10.697-8.74s3.099-2.496,6.197,0
		C487.853,214.498,495.453,220.766,495.453,220.766z"/>
	<g>
		<path fill-rule="evenodd" clip-rule="evenodd" fill="none" stroke="#8A4428" stroke-miterlimit="10" d="M452.571,220.835
			c0,0-2.885,2.639-6.201-0.051c-3.164-2.562-10.664-8.779-10.664-8.779s3.106-2.484,6.199,0.028
			C444.996,214.539,452.571,220.835,452.571,220.835z"/>
		<path fill-rule="evenodd" clip-rule="evenodd" fill="none" stroke="#8A4428" stroke-miterlimit="10" d="M458.811,220.858
			c0,0-2.883,2.641-6.203-0.047c-3.16-2.564-10.666-8.779-10.666-8.779s3.113-2.484,6.201,0.024
			C451.237,214.562,458.811,220.858,458.811,220.858z"/>
		<path fill-rule="evenodd" clip-rule="evenodd" fill="none" stroke="#8A4428" stroke-miterlimit="10" d="M464.934,220.884
			c0,0-2.886,2.641-6.201-0.049c-3.164-2.564-10.668-8.779-10.668-8.779s3.112-2.484,6.203,0.026
			C457.355,214.588,464.934,220.884,464.934,220.884z"/>
		<path fill-rule="evenodd" clip-rule="evenodd" fill="none" stroke="#8A4428" stroke-miterlimit="10" d="M446.503,220.925
			c0,0-2.885,2.635-6.199-0.051c-3.16-2.564-10.666-8.781-10.666-8.781s3.109-2.48,6.201,0.026
			C438.928,214.625,446.503,220.925,446.503,220.925z"/>
		<path fill-rule="evenodd" clip-rule="evenodd" fill="none" stroke="#8A4428" stroke-miterlimit="10" d="M477.258,220.894
			c0,0-2.883,2.641-6.199-0.051c-3.164-2.56-10.666-8.777-10.666-8.777s3.113-2.482,6.199,0.028
			C469.685,214.598,477.258,220.894,477.258,220.894z"/>
		<path fill-rule="evenodd" clip-rule="evenodd" fill="none" stroke="#8A4428" stroke-miterlimit="10" d="M483.503,220.921
			c0,0-2.887,2.639-6.201-0.055c-3.162-2.556-10.668-8.773-10.668-8.773s3.111-2.486,6.203,0.026
			C475.926,214.625,483.503,220.921,483.503,220.921z"/>
		<path fill-rule="evenodd" clip-rule="evenodd" fill="none" stroke="#8A4428" stroke-miterlimit="10" d="M489.623,220.945
			c0,0-2.883,2.637-6.199-0.051c-3.16-2.562-10.666-8.775-10.666-8.775s3.108-2.484,6.197,0.024
			C482.049,214.647,489.623,220.945,489.623,220.945z"/>
		<path fill-rule="evenodd" clip-rule="evenodd" fill="none" stroke="#8A4428" stroke-miterlimit="10" d="M471.194,220.984
			c0,0-2.887,2.639-6.201-0.049c-3.163-2.564-10.665-8.777-10.665-8.777s3.111-2.484,6.203,0.024
			C463.62,214.688,471.194,220.984,471.194,220.984z"/>
		<path fill-rule="evenodd" clip-rule="evenodd" fill="none" stroke="#8A4428" stroke-miterlimit="10" d="M427.976,220.907
			c0,0-2.885,2.637-6.201-0.053c-3.163-2.562-10.664-8.776-10.664-8.776s3.109-2.482,6.199,0.024
			C420.399,214.61,427.976,220.907,427.976,220.907z"/>
		<path fill-rule="evenodd" clip-rule="evenodd" fill="none" stroke="#8A4428" stroke-miterlimit="10" d="M434.216,220.929
			c0,0-2.885,2.639-6.201-0.049c-3.164-2.562-10.662-8.777-10.662-8.777s3.104-2.484,6.197,0.027
			C426.642,214.637,434.216,220.929,434.216,220.929z"/>
		<path fill-rule="evenodd" clip-rule="evenodd" fill="none" stroke="#8A4428" stroke-miterlimit="10" d="M440.339,220.956
			c0,0-2.885,2.633-6.201-0.051c-3.16-2.564-10.666-8.776-10.666-8.776s3.113-2.488,6.201,0.022
			C432.762,214.659,440.339,220.956,440.339,220.956z"/>
		<path fill-rule="evenodd" clip-rule="evenodd" fill="none" stroke="#8A4428" stroke-miterlimit="10" d="M421.91,220.994
			c0,0-2.885,2.637-6.203-0.051c-3.158-2.564-10.662-8.773-10.662-8.773s3.106-2.486,6.201,0.024
			C414.335,214.698,421.91,220.994,421.91,220.994z"/>
		<path fill-rule="evenodd" clip-rule="evenodd" fill="none" stroke="#8A4428" stroke-miterlimit="10" d="M378.385,220.697
			c0,0-2.885,2.635-6.201-0.053c-3.164-2.56-10.666-8.774-10.666-8.774s3.109-2.486,6.199,0.024
			C370.808,214.403,378.385,220.697,378.385,220.697z"/>
		<path fill-rule="evenodd" clip-rule="evenodd" fill="none" stroke="#8A4428" stroke-miterlimit="10" d="M384.623,220.721
			c0,0-2.883,2.639-6.197-0.051c-3.162-2.562-10.668-8.776-10.668-8.776s3.113-2.484,6.201,0.024
			C377.051,214.425,384.623,220.721,384.623,220.721z"/>
		<path fill-rule="evenodd" clip-rule="evenodd" fill="none" stroke="#8A4428" stroke-miterlimit="10" d="M390.748,220.748
			c0,0-2.883,2.637-6.201-0.055c-3.16-2.56-10.666-8.775-10.666-8.775s3.108-2.484,6.201,0.026
			C383.175,214.452,390.748,220.748,390.748,220.748z"/>
		<path fill-rule="evenodd" clip-rule="evenodd" fill="none" stroke="#8A4428" stroke-miterlimit="10" d="M372.317,220.788
			c0,0-2.881,2.637-6.199-0.053c-3.162-2.56-10.666-8.777-10.666-8.777s3.111-2.486,6.203,0.024
			C364.744,214.49,372.317,220.788,372.317,220.788z"/>
		<path fill-rule="evenodd" clip-rule="evenodd" fill="none" stroke="#8A4428" stroke-miterlimit="10" d="M403.072,220.76
			c0,0-2.88,2.637-6.199-0.053c-3.162-2.564-10.664-8.777-10.664-8.777s3.108-2.484,6.201,0.028
			C395.499,214.462,403.072,220.76,403.072,220.76z"/>
		<path fill-rule="evenodd" clip-rule="evenodd" fill="none" stroke="#8A4428" stroke-miterlimit="10" d="M409.317,220.783
			c0,0-2.885,2.637-6.201-0.051c-3.16-2.564-10.664-8.781-10.664-8.781s3.109-2.48,6.199,0.027
			C401.742,214.484,409.317,220.783,409.317,220.783z"/>
		<path fill-rule="evenodd" clip-rule="evenodd" fill="none" stroke="#8A4428" stroke-miterlimit="10" d="M415.439,220.807
			c0,0-2.885,2.637-6.201-0.051c-3.16-2.564-10.666-8.777-10.666-8.777s3.113-2.482,6.203,0.026
			C407.863,214.511,415.439,220.807,415.439,220.807z"/>
		<path fill-rule="evenodd" clip-rule="evenodd" fill="none" stroke="#8A4428" stroke-miterlimit="10" d="M397.01,220.848
			c0,0-2.885,2.635-6.201-0.053c-3.162-2.562-10.664-8.776-10.664-8.776s3.108-2.486,6.197,0.024
			C389.436,214.553,397.01,220.848,397.01,220.848z"/>
		<path fill-rule="evenodd" clip-rule="evenodd" fill="none" stroke="#8A4428" stroke-miterlimit="10" d="M353.79,220.766
			c0,0-2.885,2.643-6.203-0.049c-3.156-2.564-10.662-8.775-10.662-8.775s3.108-2.486,6.199,0.02
			C346.215,214.474,353.79,220.766,353.79,220.766z"/>
		<path fill-rule="evenodd" clip-rule="evenodd" fill="none" stroke="#8A4428" stroke-miterlimit="10" d="M360.03,220.793
			c0,0-2.885,2.637-6.199-0.053c-3.162-2.562-10.666-8.775-10.666-8.775s3.112-2.482,6.201,0.024
			C352.456,214.496,360.03,220.793,360.03,220.793z"/>
		<path fill-rule="evenodd" clip-rule="evenodd" fill="none" stroke="#8A4428" stroke-miterlimit="10" d="M366.153,220.819
			c0,0-2.883,2.635-6.201-0.053c-3.162-2.562-10.664-8.777-10.664-8.777s3.108-2.484,6.201,0.022
			C358.58,214.523,366.153,220.819,366.153,220.819z"/>
		<path fill-rule="evenodd" clip-rule="evenodd" fill="none" stroke="#8A4428" stroke-miterlimit="10" d="M347.724,220.858
			c0,0-2.885,2.637-6.201-0.051c-3.16-2.562-10.666-8.779-10.666-8.779s3.113-2.484,6.201,0.028
			C340.147,214.562,347.724,220.858,347.724,220.858z"/>
		<path fill-rule="evenodd" clip-rule="evenodd" fill="none" stroke="#8A4428" stroke-miterlimit="10" d="M300.021,216.943
			c2.447,2.025,4.557,3.779,4.557,3.779s-2.881,2.637-6.201-0.053c-0.409-0.331-1.959-1.669-2.488-2.101"/>
		<path fill-rule="evenodd" clip-rule="evenodd" fill="none" stroke="#8A4428" stroke-miterlimit="10" d="M302.596,213.943
			c3.509,2.885,8.226,6.805,8.226,6.805s-2.885,2.639-6.201-0.051c-1.208-0.979-3.049-2.49-4.863-3.985"/>
		<path fill-rule="evenodd" clip-rule="evenodd" fill="none" stroke="#8A4428" stroke-miterlimit="10" d="M306.278,211.967
			c3.091,2.509,10.664,8.805,10.664,8.805s-2.885,2.637-6.201-0.051"/>
		<path fill-rule="evenodd" clip-rule="evenodd" fill="none" stroke="#8A4428" stroke-miterlimit="10" d="M298.514,220.811
			c0,0-2.885,2.635-6.201-0.051c-3.16-2.562-10.664-8.779-10.664-8.779s3.135-1.828,5.573-1.079"/>
		<path fill-rule="evenodd" clip-rule="evenodd" fill="none" stroke="#8A4428" stroke-miterlimit="10" d="M329.269,220.783
			c0,0-2.885,2.637-6.201-0.051c-3.16-2.562-10.664-8.775-10.664-8.775s3.11-2.486,6.199,0.022
			C321.697,214.484,329.269,220.783,329.269,220.783z"/>
		<path fill-rule="evenodd" clip-rule="evenodd" fill="none" stroke="#8A4428" stroke-miterlimit="10" d="M335.51,220.807
			c0,0-2.885,2.637-6.197-0.051c-3.162-2.564-10.668-8.775-10.668-8.775s3.111-2.484,6.201,0.024
			C327.935,214.511,335.51,220.807,335.51,220.807z"/>
		<path fill-rule="evenodd" clip-rule="evenodd" fill="none" stroke="#8A4428" stroke-miterlimit="10" d="M341.637,220.835
			c0,0-2.885,2.637-6.205-0.051c-3.16-2.564-10.662-8.779-10.662-8.779s3.108-2.484,6.199,0.026
			C334.06,214.535,341.637,220.835,341.637,220.835z"/>
		<path fill-rule="evenodd" clip-rule="evenodd" fill="none" stroke="#8A4428" stroke-miterlimit="10" d="M323.204,220.87
			c0,0-2.885,2.637-6.199-0.049c-3.162-2.56-10.666-8.777-10.666-8.777s3.112-2.484,6.201,0.024
			C315.631,214.576,323.204,220.87,323.204,220.87z"/>
		<path fill-rule="evenodd" clip-rule="evenodd" fill="none" stroke="#8A4428" stroke-miterlimit="10" d="M279.985,220.793
			c0,0-2.885,2.637-6.201-0.053c-3.16-2.562-10.666-8.775-10.666-8.775s3.113-2.482,6.203,0.024
			C272.412,214.496,279.985,220.793,279.985,220.793z"/>
		<path fill-rule="evenodd" clip-rule="evenodd" fill="none" stroke="#8A4428" stroke-miterlimit="10" d="M286.226,220.819
			c0,0-2.883,2.635-6.201-0.053c-3.162-2.56-10.662-8.777-10.662-8.777s3.108-2.484,6.197,0.028
			C278.653,214.523,286.226,220.819,286.226,220.819z"/>
		<path fill-rule="evenodd" clip-rule="evenodd" fill="none" stroke="#8A4428" stroke-miterlimit="10" d="M292.348,220.842
			c0,0-2.885,2.637-6.201-0.049c-3.16-2.566-10.666-8.777-10.666-8.777s3.111-2.484,6.203,0.022
			C284.771,214.545,292.348,220.842,292.348,220.842z"/>
		<path fill-rule="evenodd" clip-rule="evenodd" fill="none" stroke="#8A4428" stroke-miterlimit="10" d="M273.921,220.88
			c0,0-2.885,2.639-6.205-0.049c-3.158-2.566-10.662-8.775-10.662-8.775s3.108-2.484,6.199,0.024
			C266.344,214.586,273.921,220.88,273.921,220.88z"/>
		<path fill-rule="evenodd" clip-rule="evenodd" fill="none" stroke="#8A4428" stroke-miterlimit="10" d="M235.416,219.597
			c0.751,0.623,1.219,1.011,1.219,1.011s-1.127,1.03-2.782,1.146c-0.373,0.026-0.772,0.006-1.192-0.083"/>
		<path fill-rule="evenodd" clip-rule="evenodd" fill="none" stroke="#8A4428" stroke-miterlimit="10" d="M236.631,215.558
			c3.039,2.51,6.128,5.078,6.128,5.078s-2.887,2.635-6.203-0.053c-0.505-0.41-1.122-0.913-1.801-1.47"/>
		<path fill-rule="evenodd" clip-rule="evenodd" fill="none" stroke="#8A4428" stroke-miterlimit="10" d="M255.085,220.646
			c0,0-2.885,2.637-6.201-0.053c-3.16-2.56-10.664-8.777-10.664-8.777s3.111-2.48,6.199,0.027
			C247.51,214.348,255.085,220.646,255.085,220.646z"/>
		<path fill-rule="evenodd" clip-rule="evenodd" fill="none" stroke="#8A4428" stroke-miterlimit="10" d="M261.326,220.67
			c0,0-2.885,2.639-6.201-0.051c-3.162-2.562-10.666-8.776-10.666-8.776s3.113-2.486,6.201,0.022
			C253.753,214.376,261.326,220.67,261.326,220.67z"/>
		<path fill-rule="evenodd" clip-rule="evenodd" fill="none" stroke="#8A4428" stroke-miterlimit="10" d="M267.448,220.693
			c0,0-2.885,2.639-6.199-0.049c-3.162-2.562-10.668-8.779-10.668-8.779s3.11-2.482,6.201,0.028
			C259.874,214.398,267.448,220.693,267.448,220.693z"/>
		<path fill-rule="evenodd" clip-rule="evenodd" fill="none" stroke="#8A4428" stroke-miterlimit="10" d="M233.518,211.163
			c1.194-0.457,3.018-0.708,4.833,0.766c3.093,2.509,10.666,8.805,10.666,8.805s-2.883,2.635-6.197-0.053
			c-1.633-1.322-4.422-3.617-6.739-5.529"/>
		<path fill-rule="evenodd" clip-rule="evenodd" fill="none" stroke="#8A4428" stroke-miterlimit="10" d="M205.801,220.658
			c0,0-2.885,2.637-6.205-0.055c-3.158-2.558-10.662-8.776-10.662-8.776s3.109-2.486,6.199,0.024
			C198.226,214.36,205.801,220.658,205.801,220.658z"/>
		<path fill-rule="evenodd" clip-rule="evenodd" fill="none" stroke="#8A4428" stroke-miterlimit="10" d="M208.303,217.579
			c2.081,1.723,3.739,3.101,3.739,3.101s-2.276,1.448-4.486,1.056"/>
		<path fill-rule="evenodd" clip-rule="evenodd" fill="none" stroke="#8A4428" stroke-miterlimit="10" d="M214.451,217.589
			c1.321,1.096,4.938,3.479,4.938,3.479s-4.109,2.273-7.426-0.415c-0.806-0.654-4.713-4.037-5.887-5.002"/>
		<path fill-rule="evenodd" clip-rule="evenodd" fill="none" stroke="#8A4428" stroke-miterlimit="10" d="M199.733,220.744
			c0,0-2.885,2.637-6.197-0.051c-3.164-2.562-10.668-8.777-10.668-8.777s3.11-2.486,6.199,0.026
			C192.158,214.449,199.733,220.744,199.733,220.744z"/>
	</g>
</g>
<path fill="none" stroke="#8A4428" stroke-width="2" stroke-linecap="round" stroke-linejoin="round" stroke-miterlimit="10" d="
	M194.783,130.524c-2.629-10.993-1.791-8.582-3.644-16.372v-0.188c-0.914,0.693-2.062,1.119-3.107,1.732l3.616,15.008h-31.142
	l-2.618-9.49l0,0c-1.688-0.161-3.536-0.396-5.062-0.688l0,0c0,0,3.16,20.224,0.899,26c-1.135,2.883-2.25,5.947-4.44,8.298
	c3.195,13.542,6.419,23.105,13.19,30.66c1.838,2.049,3.757,3.908,5.726,5.575l40.555,0.452c-0.512-3.727-1.256-7.755-2.29-12.085
	c-3.255-13.652-6.53-27.355-9.282-38.837C196.33,136.994,195.526,133.608,194.783,130.524z"/>
<path fill="none" stroke="#8A4428" stroke-width="2" stroke-linecap="round" stroke-linejoin="round" stroke-miterlimit="10" d="
	M116.376,190.487l38.636,0.432c-1.145-1.055-2.24-2.15-3.275-3.285c-3.677-4.038-8.609-15.37-12.015-28.841
	c-0.422,0.03-0.864,0.04-1.316,0.04c-10.799,0-16.043,0-16.043,0c-2.451,10.166-4.39,18.856-4.802,22.352
	C117.3,183.455,116.798,186.7,116.376,190.487z"/>
<path fill="none" stroke="#8A4428" stroke-width="2" stroke-linecap="round" stroke-linejoin="round" stroke-miterlimit="10" d="
	M122.363,158.833c0,0,5.244,0,16.043,0c0.452,0,0.894-0.01,1.316-0.04c-2.321-9.202-3.928-19.408-3.928-28.962
	c0-5.545,7.102-3.697,7.554-1.718c2.381,10.367,4.149,19.157,5.937,26.712c2.19-2.351,3.305-5.415,4.44-8.298
	c2.26-5.776-0.899-26-0.899-26l0,0c-7.956-1.437-14.071-5.275-18.25-9.062C134.385,112.198,127.416,137.878,122.363,158.833z"/>
<path fill="none" stroke="#8A4428" stroke-width="2" stroke-linecap="round" stroke-linejoin="round" stroke-miterlimit="10" d="
	M191.146,196.766v0.241c0.432,2.351,0.733,4.591,0.914,6.731c5.585,1.838,11.432,3.305,17.52,4.772
	c0.181-3.375,0.141-7.203-0.221-11.502L191.146,196.766z"/>
<path fill="none" stroke="#8A4428" stroke-width="2" stroke-linecap="round" stroke-linejoin="round" stroke-miterlimit="10" d="
	M207.471,328.858c0,0-2.26,18.595,3.265,18.092s29.886-0.01,32.649-0.01s0-3.767,0-3.767l-18.836-14.315h-1.758h-2.009
	c0,0-1.005,4.521-5.847,4.521s-5.957-4.521-5.957-4.521H207.471z"/>
<path fill="none" stroke="#8A4428" stroke-width="2" stroke-linecap="round" stroke-linejoin="round" stroke-miterlimit="10" d="
	M178.961,66.161c-2.009,0-3.637,1.627-3.637,3.637c0,2.019,1.627,3.647,3.637,3.647c2.019,0,3.647-1.627,3.647-3.647
	C182.607,67.788,180.98,66.161,178.961,66.161z"/>
<path fill="none" stroke="#8A4428" stroke-width="2" stroke-linecap="round" stroke-linejoin="round" stroke-miterlimit="10" d="
	M191.146,196.766l-15.249-0.211c5.063,3.054,10.468,5.314,16.164,7.183c-0.181-2.14-0.482-4.38-0.914-6.731V196.766z"/>
<path fill="none" stroke="#8A4428" stroke-width="2" stroke-linecap="round" stroke-linejoin="round" stroke-miterlimit="10" d="
	M118.545,221.059c2.204,5.442,5.887,10.01,11.825,12.615l0.251,20.845c0,0-1.416,7.806,7.223,10.146
	c1.648,0.442,3.647,0.693,6.088,0.653c3.978-0.07,7.052-0.402,9.433-0.974c6.771-1.597,7.946-5.053,8.569-9.322
	c0.834-5.776,0-7.283,0-7.283s1.622-1.836,1.622-3.003c0,0,2.275,0.401,5.018,0.602v-0.01"/>
<path fill="none" stroke="#8A4428" stroke-width="2" stroke-linecap="round" stroke-linejoin="round" stroke-miterlimit="10" d="
	M192.231,211.252c-10.086-3.466-21.207-8.318-30.449-14.878l-45.909-0.623c-0.35,4.685-0.447,9.818,0.133,14.804"/>
<path fill="none" stroke="#8A4428" stroke-width="2" stroke-linecap="round" stroke-linejoin="round" stroke-miterlimit="10" d="
	M145.418,69.797c0-2.009,1.627-3.637,3.647-3.637c2.009,0,3.637,1.627,3.637,3.637c0,2.019-1.627,3.647-3.637,3.647
	C147.045,73.444,145.418,71.817,145.418,69.797z"/>
<path fill="none" stroke="#8A4428" stroke-width="2" stroke-linecap="round" stroke-linejoin="round" stroke-miterlimit="10" d="
	M124.442,56.366c0,0-10.156-2.009-9.905,6.53s9.905,14.566,9.905,14.566V57.25V56.366z"/>
<path fill="none" stroke="#8A4428" stroke-width="2" stroke-linecap="round" stroke-linejoin="round" stroke-miterlimit="10" d="
	M149.065,66.161c-2.019,0-3.647,1.627-3.647,3.637c0,2.019,1.627,3.647,3.647,3.647c2.009,0,3.637-1.627,3.637-3.647
	C152.701,67.788,151.074,66.161,149.065,66.161z"/>
<path fill="none" stroke="#8A4428" stroke-width="2" stroke-linecap="round" stroke-linejoin="round" stroke-miterlimit="10" d="
	M157.694,333.378c-4.842,0-5.957-4.521-5.957-4.521h-1.507c0,0-2.26,18.595,3.265,18.092c5.525-0.502,29.886-0.01,32.649-0.01
	s0-3.767,0-3.767l-18.836-14.315h-2.049h-1.718C163.541,328.858,162.536,333.378,157.694,333.378z"/>
<path fill="none" stroke="#8A4428" stroke-width="2" stroke-linecap="round" stroke-linejoin="round" stroke-miterlimit="10" d="
	M225.389,212.069c-5.656-1.547-10.464-2.273-15.809-3.559"/>
<path fill="none" stroke="#8A4428" stroke-width="2" stroke-linecap="round" stroke-linejoin="round" stroke-miterlimit="10" d="
	M208.767,216.124c7.283,1.798,12.125,2.572,12.125,2.572"/>
<path fill="none" stroke="#8A4428" stroke-width="2" stroke-linecap="round" stroke-linejoin="round" stroke-miterlimit="10" d="
	M209.58,208.509c-6.088-1.467-11.934-2.933-17.52-4.772"/>
<path fill="none" stroke="#8A4428" stroke-width="2" stroke-linecap="round" stroke-linejoin="round" stroke-miterlimit="10" d="
	M192.231,211.252c6.108,2.11,11.834,3.707,16.535,4.872"/>
<path fill="none" stroke="#8A4428" stroke-width="2" stroke-linecap="round" stroke-linejoin="round" stroke-miterlimit="10" d="
	M192.06,203.738c-5.696-1.868-11.101-4.129-16.164-7.183"/>
<path fill="none" stroke="#8A4428" stroke-width="2" stroke-linecap="round" stroke-linejoin="round" stroke-miterlimit="10" d="
	M161.783,196.374c9.242,6.56,20.363,11.412,30.449,14.878"/>
<path fill="none" stroke="#8A4428" stroke-width="2" stroke-linecap="round" stroke-linejoin="round" stroke-miterlimit="10" d="
	M208.757,191.512l-40.555-0.452c2.471,2.09,5.033,3.908,7.695,5.495l15.249,0.211l18.213,0.241
	C209.209,195.249,209.018,193.421,208.757,191.512z"/>
<path fill="none" stroke="#8A4428" stroke-width="2" stroke-linecap="round" stroke-linejoin="round" stroke-miterlimit="10" d="
	M149.286,154.825c-1.788-7.554-3.556-16.344-5.937-26.712c-0.452-1.979-7.554-3.827-7.554,1.718c0,9.554,1.607,19.76,3.928,28.962"
	/>
<path fill="none" stroke="#8A4428" stroke-width="2" stroke-linecap="round" stroke-linejoin="round" stroke-miterlimit="10" d="
	M115.873,195.751l45.909,0.623c-2.401-1.698-4.671-3.516-6.771-5.455l-38.636-0.432
	C116.185,192.145,116.004,193.913,115.873,195.751z"/>
<path fill="none" stroke="#8A4428" stroke-width="2" stroke-linecap="round" stroke-linejoin="round" stroke-miterlimit="10" d="
	M157.306,120.735L157.306,120.735l3.201,9.97h31.142l-3.616-15.008c-5.636,3.315-14.316,5.455-24.643,5.455
	C161.189,121.152,159.274,120.906,157.306,120.735z"/>
<path fill="none" stroke="#8A4428" stroke-width="2" stroke-linecap="round" stroke-linejoin="round" stroke-miterlimit="10" d="
	M175.897,196.555c-2.662-1.587-5.224-3.406-7.695-5.495"/>
<path fill="none" stroke="#8A4428" stroke-width="2" stroke-linecap="round" stroke-linejoin="round" stroke-miterlimit="10" d="
	M155.012,190.919c2.1,1.939,4.37,3.757,6.771,5.455"/>
<path fill="none" stroke="#8A4428" stroke-width="2" stroke-linecap="round" stroke-linejoin="round" stroke-miterlimit="10" d="
	M190.389,221.902c-5.364,19.037-21.815,23.425-21.815,23.425v0.01c2.933,0.211,6.66,0.171,9.513-0.864c0,0,0.251,4.269,4.269,4.772
	c0,0,8.971,15.501,20.292,10.749c1.808-0.763,3.677-2.029,5.575-3.968c1.858-1.889,3.265-3.667,4.31-5.344
	c6.68-10.839-2.14-17.53-7.575-22.533c0,0,0.861-2.281,2.096-6.58"/>
<polygon fill="none" stroke="#8A4428" stroke-width="2" stroke-linecap="round" stroke-linejoin="round" stroke-miterlimit="10" points="
	295.261,205.365 288.319,211.403 295.261,205.375 "/>
<path fill="none" stroke="#8A4428" stroke-width="2" stroke-linecap="round" stroke-linejoin="round" stroke-miterlimit="10" d="
	M137.843,264.665l-0.191,0.653c1.256,3.777,14.084,63.539,14.084,63.539s1.115,4.521,5.957,4.521s5.847-4.521,5.847-4.521h1.718
	c-3.285-12.557-11.894-64.504-11.894-64.504v-0.01c-2.381,0.573-5.455,0.904-9.433,0.974
	C141.49,265.358,139.491,265.107,137.843,264.665z"/>
<path fill="none" stroke="#8A4428" stroke-width="2" stroke-linecap="round" stroke-linejoin="round" stroke-miterlimit="10" d="
	M202.448,61.891v14.918c0,0,9.654-6.027,9.905-14.566s-9.905-6.53-9.905-6.53V61.891z"/>
<path fill="none" stroke="#8A4428" stroke-width="2" stroke-linecap="round" stroke-linejoin="round" stroke-miterlimit="10" d="
	M151.466,16.183c-24.592,0-27.023,29.444-27.023,41.067c0,2.863,0.151,4.641,0.151,4.641h8.288v-9.543l30.64,0.251l31.644,0.251
	l-0.502,9.041h7.534v-9.292c17.58-2.511,14.566-16.576,13.562-25.868s-8.79-20.594-8.79-20.594
	C200.439,19.448,182.105,16.183,151.466,16.183z"/>
<path fill="none" stroke="#8A4428" stroke-width="2" stroke-linecap="round" stroke-linejoin="round" stroke-miterlimit="10" d="
	M175.324,69.797c0-2.009,1.627-3.637,3.637-3.637c2.019,0,3.647,1.627,3.647,3.637c0,2.019-1.627,3.647-3.647,3.647
	C176.952,73.444,175.324,71.817,175.324,69.797z"/>
<path fill="none" stroke="#8A4428" stroke-width="2" stroke-linecap="round" stroke-linejoin="round" stroke-miterlimit="10" d="
	M194.783,130.524c0.743,3.084,2.502,9.031,3.356,12.628c56.849,23.316,91.705,66.804,91.705,66.804l5.417-4.591
	C257.971,153.047,197.596,131.499,194.783,130.524z"/>
<path fill="none" stroke="#8A4428" stroke-width="2" stroke-linecap="round" stroke-linejoin="round" stroke-miterlimit="10" d="
	M202.649,259.994c0,0,8.338,4.822,8.338,16.375c0,11.553-2.009,52.489-2.009,52.489s1.115,4.521,5.957,4.521
	s5.847-4.521,5.847-4.521h2.009c0,0,1.758-33.904,1.758-49.727c0-15.561-11.623-28.038-12.015-28.45
	c-1.045,1.678-2.451,3.456-4.31,5.344C206.325,257.965,204.457,259.23,202.649,259.994z"/>
<path fill="none" stroke="#8A4428" stroke-width="2" stroke-linecap="round" stroke-linejoin="round" stroke-miterlimit="10" d="
	M168.202,191.06c-1.969-1.668-3.888-3.526-5.726-5.575c-6.771-7.554-9.996-17.118-13.19-30.66"/>
<path fill="none" stroke="#8A4428" stroke-width="2" stroke-linecap="round" stroke-linejoin="round" stroke-miterlimit="10" d="
	M139.722,158.793c3.406,13.471,8.338,24.803,12.015,28.841c1.035,1.135,2.13,2.23,3.275,3.285"/>
<path fill="none" stroke="#8A4428" stroke-width="2" stroke-linecap="round" stroke-linejoin="round" stroke-miterlimit="10" d="
	M175.324,69.797c0,2.019,1.627,3.647,3.637,3.647c2.019,0,3.647-1.627,3.647-3.647c0-2.009-1.627-3.637-3.647-3.637
	C176.952,66.161,175.324,67.788,175.324,69.797z"/>
<path fill="none" stroke="#8A4428" stroke-width="2" stroke-linecap="round" stroke-linejoin="round" stroke-miterlimit="10" d="
	M145.418,69.797c0,2.019,1.627,3.647,3.647,3.647c2.009,0,3.637-1.627,3.637-3.647c0-2.009-1.627-3.637-3.637-3.637
	C147.045,66.161,145.418,67.788,145.418,69.797z"/>
<path fill="none" stroke="#8A4428" stroke-width="2" stroke-linecap="round" stroke-linejoin="round" stroke-miterlimit="10" d="
	M124.442,57.25v-0.884c0,0-10.156-2.009-9.905,6.53s9.905,14.566,9.905,14.566V57.25z"/>
<path fill="none" stroke="#8A4428" stroke-width="2" stroke-linecap="round" stroke-linejoin="round" stroke-miterlimit="10" d="
	M202.448,61.891v-6.178c0,0,10.156-2.009,9.905,6.53s-9.905,14.566-9.905,14.566V61.891z"/>
<path fill="none" stroke="#8A4428" stroke-width="2" stroke-linecap="round" stroke-linejoin="round" stroke-miterlimit="10" d="
	M203.111,76.808c0,0,3.918,24.794-12.145,36.929c-0.914,0.693-1.889,1.346-2.933,1.959c-5.636,3.315-13.27,5.455-23.598,5.455
	c-2.2,0-4.29-0.1-6.259-0.271c-1.688-0.161-3.285-0.382-4.812-0.673c-7.956-1.437-13.733-4.47-17.912-8.258
	c-13.562-12.276-10.73-33.881-10.73-33.881"/>
<path fill="none" stroke="#8A4428" stroke-width="2" stroke-linecap="round" stroke-linejoin="round" stroke-miterlimit="10" d="
	M169.468,105.209c0,0,0.442-3.345-2.893-3.687c-1.869-0.181-2.612,0.794-2.913,1.698c-0.241,0.713-0.191,1.386-0.191,1.386"/>
<path fill="none" stroke="#8A4428" stroke-width="2" stroke-linecap="round" stroke-linejoin="round" stroke-miterlimit="10" d="
	M157.513,102.788c0,0-0.442,3.345,2.903,3.677c3.335,0.342,3.094-3.074,3.094-3.074"/>
<polyline fill="none" stroke="#8A4428" stroke-width="2" stroke-linecap="round" stroke-linejoin="round" stroke-miterlimit="10" points="
	163.52,52.599 163.52,62.896 172.31,82.234 163.52,82.234 163.661,103.22 163.772,121.152 "/>
<polyline fill="none" stroke="#8A4428" stroke-width="2" stroke-linecap="round" stroke-linejoin="round" stroke-miterlimit="10" points="
	155.012,190.919 116.376,190.487 116.366,190.487 "/>
<line fill="none" stroke="#8A4428" stroke-width="2" stroke-linecap="round" stroke-linejoin="round" stroke-miterlimit="10" x1="208.757" y1="191.512" x2="168.202" y2="191.06"/>
<polyline fill="none" stroke="#8A4428" stroke-width="2" stroke-linecap="round" stroke-linejoin="round" stroke-miterlimit="10" points="
	175.897,196.555 191.146,196.766 209.359,197.007 "/>
<line fill="none" stroke="#8A4428" stroke-width="2" stroke-linecap="round" stroke-linejoin="round" stroke-miterlimit="10" x1="115.873" y1="195.751" x2="161.783" y2="196.374"/>
<path fill="none" stroke="#8A4428" stroke-width="2" stroke-linecap="round" stroke-linejoin="round" stroke-miterlimit="10" d="
	M169.389,244.902c0,0,15.429-4.276,21.024-22.66"/>
<path fill="none" stroke="#8A4428" stroke-width="2" stroke-linecap="round" stroke-linejoin="round" stroke-miterlimit="10" d="
	M222.79,328.858h1.758l18.836,14.315c0,0,2.763,3.767,0,3.767s-27.124-0.492-32.649,0.01s-3.265-18.092-3.265-18.092h1.507
	c0,0,1.115,4.521,5.957,4.521s5.847-4.521,5.847-4.521H222.79z"/>
<path fill="none" stroke="#8A4428" stroke-width="2" stroke-linecap="round" stroke-linejoin="round" stroke-miterlimit="10" d="
	M202.649,259.994c0,0,8.338,4.822,8.338,16.375c0,11.553-2.009,52.489-2.009,52.489"/>
<path fill="none" stroke="#8A4428" stroke-width="2" stroke-linecap="round" stroke-linejoin="round" stroke-miterlimit="10" d="
	M212.524,250.671c0,0,0,0,0.01,0.01c0.392,0.412,12.015,12.889,12.015,28.45c0,15.822-1.758,49.727-1.758,49.727"/>
<path fill="none" stroke="#8A4428" stroke-width="2" stroke-linecap="round" stroke-linejoin="round" stroke-miterlimit="10" d="
	M165.258,328.858h2.049l18.836,14.315c0,0,2.763,3.767,0,3.767s-27.124-0.492-32.649,0.01c-5.525,0.502-3.265-18.092-3.265-18.092
	h1.507c0,0,1.115,4.521,5.957,4.521s5.847-4.521,5.847-4.521H165.258z"/>
<path fill="none" stroke="#8A4428" stroke-width="2" stroke-linecap="round" stroke-linejoin="round" stroke-miterlimit="10" d="
	M153.364,264.354c0,0,8.609,51.947,11.894,64.504"/>
<path fill="none" stroke="#8A4428" stroke-width="2" stroke-linecap="round" stroke-linejoin="round" stroke-miterlimit="10" d="
	M151.737,328.858c0,0-12.828-59.762-14.084-63.539"/>
<path fill="none" stroke="#8A4428" stroke-width="2" stroke-linecap="round" stroke-linejoin="round" stroke-miterlimit="10" d="
	M234.407,211.64c2.03,1.34,2.144,4.746,0.254,7.609l-3.001,4.547c-1.889,2.863-5.066,4.097-7.096,2.757l-1.934-1.277
	c-2.03-1.34-2.144-4.746-0.254-7.609l3.001-4.547c1.889-2.863,5.066-4.097,7.096-2.757L234.407,211.64z"/>
<path fill="none" stroke="#8A4428" stroke-width="1.9098" stroke-linecap="round" stroke-linejoin="round" stroke-miterlimit="10" d="
	M302.526,208.017c1.46,1.815,0.581,4.946-1.963,6.992l-4.041,3.25c-2.544,2.046-5.79,2.234-7.25,0.419l-1.391-1.73
	c-1.46-1.815-0.581-4.946,1.963-6.992l4.041-3.25c2.544-2.046,5.79-2.234,7.25-0.419L302.526,208.017z"/>
<path fill="none" stroke="#8A4428" stroke-width="2" stroke-linecap="round" stroke-linejoin="round" stroke-miterlimit="10" d="
	M799.258,127.705l2.618-9.49l0,0c1.688-0.161,3.536-0.396,5.062-0.688l0,0c0,0-3.16,20.224-0.899,26
	c1.135,2.883,2.25,5.947,4.44,8.298c-3.195,13.542-6.419,23.105-13.19,30.66c-1.838,2.049-3.757,3.908-5.726,5.575l-40.555,0.452
	c0.512-3.727,1.256-7.755,2.29-12.085c3.255-13.652,6.53-27.355,9.282-38.837c0.854-3.596,1.658-6.982,2.401-10.066
	c2.629-10.993,1.791-8.582,3.644-16.372v-0.188c0.914,0.693,2.062,1.119,3.107,1.732"/>
<path fill="none" stroke="#8A4428" stroke-width="2" stroke-linecap="round" stroke-linejoin="round" stroke-miterlimit="10" d="
	M843.389,187.487l-38.636,0.432c1.145-1.055,2.24-2.15,3.275-3.285c3.677-4.038,8.609-15.37,12.015-28.841
	c0.422,0.03,0.864,0.04,1.316,0.04c10.799,0,16.043,0,16.043,0c2.451,10.166,4.39,18.856,4.802,22.352
	C842.465,180.455,842.967,183.7,843.389,187.487z"/>
<path fill="none" stroke="#8A4428" stroke-width="2" stroke-linecap="round" stroke-linejoin="round" stroke-miterlimit="10" d="
	M837.402,155.833c0,0-5.244,0-16.043,0c-0.452,0-0.894-0.01-1.316-0.04c2.321-9.202,3.928-19.408,3.928-28.962
	c0-5.545-7.102-3.697-7.554-1.718c-2.381,10.367-4.149,19.157-5.937,26.712c-2.19-2.351-3.305-5.415-4.44-8.298
	c-2.26-5.776,0.899-26,0.899-26l0,0c7.956-1.437,14.071-5.275,18.25-9.062C825.379,109.198,832.349,134.878,837.402,155.833z"/>
<path fill="none" stroke="#8A4428" stroke-width="2" stroke-linecap="round" stroke-linejoin="round" stroke-miterlimit="10" d="
	M768.618,193.766v0.241c-0.432,2.351-0.733,4.591-0.914,6.731c-5.585,1.838-11.432,3.305-17.52,4.772
	c-0.181-3.375-0.141-7.203,0.221-11.502L768.618,193.766z"/>
<path fill="none" stroke="#8A4428" stroke-width="2" stroke-linecap="round" stroke-linejoin="round" stroke-miterlimit="10" d="
	M752.294,325.858c0,0,2.26,18.595-3.265,18.092c-5.525-0.502-29.886-0.01-32.649-0.01c-2.763,0,0-3.767,0-3.767l18.836-14.315h1.758
	h2.009c0,0,1.005,4.521,5.847,4.521s5.957-4.521,5.957-4.521H752.294z"/>
<path fill="none" stroke="#8A4428" stroke-width="2" stroke-linecap="round" stroke-linejoin="round" stroke-miterlimit="10" d="
	M780.804,63.161c2.009,0,3.637,1.627,3.637,3.637c0,2.019-1.627,3.647-3.637,3.647c-2.019,0-3.647-1.627-3.647-3.647
	C777.157,64.788,778.785,63.161,780.804,63.161z"/>
<path fill="none" stroke="#8A4428" stroke-width="2" stroke-linecap="round" stroke-linejoin="round" stroke-miterlimit="10" d="
	M768.618,193.766l15.249-0.211c-5.063,3.054-10.468,5.314-16.164,7.183c0.181-2.14,0.482-4.38,0.914-6.731V193.766z"/>
<path fill="none" stroke="#8A4428" stroke-width="2" stroke-linecap="round" stroke-linejoin="round" stroke-miterlimit="10" d="
	M791.191,242.327v0.01c2.742-0.201,5.018-0.602,5.018-0.602c0,1.167,1.622,3.003,1.622,3.003s-0.834,1.507,0,7.283
	c0.623,4.269,1.798,7.725,8.569,9.322c2.381,0.573,5.455,0.904,9.433,0.974c2.441,0.04,4.44-0.211,6.088-0.653
	c8.639-2.341,7.223-10.146,7.223-10.146l0.251-20.845c5.938-2.605,9.621-7.173,11.825-12.615c0,0,2.002-4.324,2.538-10.503
	c0.434-5.001,0.483-10.119,0.133-14.804l-45.909,0.623c-9.242,6.56-20.363,11.412-30.449,14.878"/>
<path fill="none" stroke="#8A4428" stroke-width="2" stroke-linecap="round" stroke-linejoin="round" stroke-miterlimit="10" d="
	M814.347,66.797c0-2.009-1.627-3.637-3.647-3.637c-2.009,0-3.637,1.627-3.637,3.637c0,2.019,1.627,3.647,3.637,3.647
	C812.719,70.444,814.347,68.817,814.347,66.797z"/>
<path fill="none" stroke="#8A4428" stroke-width="2" stroke-linecap="round" stroke-linejoin="round" stroke-miterlimit="10" d="
	M835.322,53.366c0,0,10.156-2.009,9.905,6.53s-9.905,14.566-9.905,14.566V54.25V53.366z"/>
<path fill="none" stroke="#8A4428" stroke-width="2" stroke-linecap="round" stroke-linejoin="round" stroke-miterlimit="10" d="
	M810.7,63.161c2.019,0,3.647,1.627,3.647,3.637c0,2.019-1.627,3.647-3.647,3.647c-2.009,0-3.637-1.627-3.637-3.647
	C807.063,64.788,808.691,63.161,810.7,63.161z"/>
<path fill="none" stroke="#8A4428" stroke-width="2" stroke-linecap="round" stroke-linejoin="round" stroke-miterlimit="10" d="
	M802.071,330.378c4.842,0,5.957-4.521,5.957-4.521h1.507c0,0,2.26,18.595-3.265,18.092c-5.525-0.502-29.886-0.01-32.649-0.01
	c-2.763,0,0-3.767,0-3.767l18.836-14.315h2.049h1.718C796.224,325.858,797.229,330.378,802.071,330.378z"/>
<path fill="none" stroke="#8A4428" stroke-width="2" stroke-linecap="round" stroke-linejoin="round" stroke-miterlimit="10" d="
	M734.376,209.069c5.656-1.547,10.464-2.273,15.809-3.559"/>
<path fill="none" stroke="#8A4428" stroke-width="2" stroke-linecap="round" stroke-linejoin="round" stroke-miterlimit="10" d="
	M750.998,213.124c-7.283,1.798-12.125,2.572-12.125,2.572"/>
<path fill="none" stroke="#8A4428" stroke-width="2" stroke-linecap="round" stroke-linejoin="round" stroke-miterlimit="10" d="
	M750.184,205.509c6.088-1.467,11.934-2.933,17.52-4.772"/>
<path fill="none" stroke="#8A4428" stroke-width="2" stroke-linecap="round" stroke-linejoin="round" stroke-miterlimit="10" d="
	M767.533,208.252c-6.108,2.11-11.834,3.707-16.535,4.872"/>
<path fill="none" stroke="#8A4428" stroke-width="2" stroke-linecap="round" stroke-linejoin="round" stroke-miterlimit="10" d="
	M767.704,200.738c5.696-1.868,11.101-4.129,16.164-7.183"/>
<path fill="none" stroke="#8A4428" stroke-width="2" stroke-linecap="round" stroke-linejoin="round" stroke-miterlimit="10" d="
	M797.982,193.374c-9.242,6.56-20.363,11.412-30.449,14.878"/>
<path fill="none" stroke="#8A4428" stroke-width="2" stroke-linecap="round" stroke-linejoin="round" stroke-miterlimit="10" d="
	M751.008,188.512l40.555-0.452c-2.471,2.09-5.033,3.908-7.695,5.495l-15.249,0.211l-18.213,0.241
	C750.556,192.249,750.747,190.421,751.008,188.512z"/>
<path fill="none" stroke="#8A4428" stroke-width="2" stroke-linecap="round" stroke-linejoin="round" stroke-miterlimit="10" d="
	M810.479,151.825c1.788-7.554,3.556-16.344,5.937-26.712c0.452-1.979,7.554-3.827,7.554,1.718c0,9.554-1.607,19.76-3.928,28.962"/>
<path fill="none" stroke="#8A4428" stroke-width="2" stroke-linecap="round" stroke-linejoin="round" stroke-miterlimit="10" d="
	M843.891,192.751l-45.909,0.623c2.401-1.698,4.671-3.516,6.771-5.455l38.636-0.432C843.58,189.145,843.761,190.913,843.891,192.751z
	"/>
<path fill="none" stroke="#8A4428" stroke-width="2" stroke-linecap="round" stroke-linejoin="round" stroke-miterlimit="10" d="
	M802.459,117.735L802.459,117.735l-3.034,10.636l-30.036-0.136l2.344-15.539c5.636,3.315,14.316,5.455,24.643,5.455
	C798.576,118.152,800.49,117.906,802.459,117.735z"/>
<path fill="none" stroke="#8A4428" stroke-width="2" stroke-linecap="round" stroke-linejoin="round" stroke-miterlimit="10" d="
	M783.868,193.555c2.662-1.587,5.224-3.406,7.695-5.495"/>
<path fill="none" stroke="#8A4428" stroke-width="2" stroke-linecap="round" stroke-linejoin="round" stroke-miterlimit="10" d="
	M804.753,187.919c-2.1,1.939-4.37,3.757-6.771,5.455"/>
<path fill="none" stroke="#8A4428" stroke-width="2" stroke-linecap="round" stroke-linejoin="round" stroke-miterlimit="10" d="
	M769.376,218.902c5.364,19.037,21.815,23.425,21.815,23.425v0.01c-2.933,0.211-6.66,0.171-9.513-0.864c0,0-0.251,4.269-4.269,4.772
	c0,0-8.971,15.501-20.292,10.749c-1.808-0.763-3.677-2.029-5.575-3.968c-1.858-1.889-3.265-3.667-4.31-5.344
	c-6.68-10.839,2.557-18.443,7.991-23.446c0,0-3-4.667-4-10.5"/>
<polygon fill="none" stroke="#8A4428" stroke-width="2" stroke-linecap="round" stroke-linejoin="round" stroke-miterlimit="10" points="
	664.504,202.365 671.446,208.403 664.504,202.375 "/>
<path fill="none" stroke="#8A4428" stroke-width="2" stroke-linecap="round" stroke-linejoin="round" stroke-miterlimit="10" d="
	M821.921,261.665l0.191,0.653c-1.256,3.777-14.084,63.539-14.084,63.539s-1.115,4.521-5.957,4.521s-5.847-4.521-5.847-4.521h-1.718
	c3.285-12.557,11.894-64.504,11.894-64.504v-0.01c2.381,0.573,5.455,0.904,9.433,0.974
	C818.275,262.358,820.274,262.107,821.921,261.665z"/>
<path fill="none" stroke="#8A4428" stroke-width="2" stroke-linecap="round" stroke-linejoin="round" stroke-miterlimit="10" d="
	M757.317,58.891v14.918c0,0-9.654-6.027-9.905-14.566c-0.251-8.539,9.905-6.53,9.905-6.53V58.891z"/>
<path fill="none" stroke="#8A4428" stroke-width="2" stroke-linecap="round" stroke-linejoin="round" stroke-miterlimit="10" d="
	M808.299,13.183c24.592,0,27.023,29.444,27.023,41.067c0,2.863-0.151,4.641-0.151,4.641h-8.288v-9.543l-30.64,0.251L764.6,49.85
	l0.502,9.041h-7.534v-9.292c-17.58-2.511-14.566-16.576-13.562-25.868s8.79-20.594,8.79-20.594
	C759.326,16.448,777.66,13.183,808.299,13.183z"/>
<path fill="none" stroke="#8A4428" stroke-width="2" stroke-linecap="round" stroke-linejoin="round" stroke-miterlimit="10" d="
	M784.44,66.797c0-2.009-1.627-3.637-3.637-3.637c-2.019,0-3.647,1.627-3.647,3.637c0,2.019,1.627,3.647,3.647,3.647
	C782.813,70.444,784.44,68.817,784.44,66.797z"/>
<path fill="none" stroke="#8A4428" stroke-width="2" stroke-linecap="round" stroke-linejoin="round" stroke-miterlimit="10" d="
	M764.982,127.524c-0.743,3.084-2.739,7.781-3.593,11.378c-56.849,23.316-91.468,68.054-91.468,68.054l-5.417-4.591
	C701.794,150.047,762.169,128.499,764.982,127.524z"/>
<path fill="none" stroke="#8A4428" stroke-width="2" stroke-linecap="round" stroke-linejoin="round" stroke-miterlimit="10" d="
	M757.116,256.994c0,0-8.338,4.822-8.338,16.375c0,11.553,2.009,52.489,2.009,52.489s-1.115,4.521-5.957,4.521
	s-5.847-4.521-5.847-4.521h-2.009c0,0-1.758-33.904-1.758-49.727c0-15.561,11.623-28.038,12.015-28.45
	c1.045,1.678,2.451,3.456,4.31,5.344C753.439,254.965,755.308,256.23,757.116,256.994z"/>
<path fill="none" stroke="#8A4428" stroke-width="2" stroke-linecap="round" stroke-linejoin="round" stroke-miterlimit="10" d="
	M791.563,188.06c1.969-1.668,3.888-3.526,5.726-5.575c6.771-7.554,9.996-17.118,13.19-30.66"/>
<path fill="none" stroke="#8A4428" stroke-width="2" stroke-linecap="round" stroke-linejoin="round" stroke-miterlimit="10" d="
	M820.043,155.793c-3.406,13.471-8.338,24.803-12.015,28.841c-1.035,1.135-2.13,2.23-3.275,3.285"/>
<path fill="none" stroke="#8A4428" stroke-width="2" stroke-linecap="round" stroke-linejoin="round" stroke-miterlimit="10" d="
	M784.44,66.797c0,2.019-1.627,3.647-3.637,3.647c-2.019,0-3.647-1.627-3.647-3.647c0-2.009,1.627-3.637,3.647-3.637
	C782.813,63.161,784.44,64.788,784.44,66.797z"/>
<path fill="none" stroke="#8A4428" stroke-width="2" stroke-linecap="round" stroke-linejoin="round" stroke-miterlimit="10" d="
	M814.347,66.797c0,2.019-1.627,3.647-3.647,3.647c-2.009,0-3.637-1.627-3.637-3.647c0-2.009,1.627-3.637,3.637-3.637
	C812.719,63.161,814.347,64.788,814.347,66.797z"/>
<path fill="none" stroke="#8A4428" stroke-width="2" stroke-linecap="round" stroke-linejoin="round" stroke-miterlimit="10" d="
	M835.322,54.25v-0.884c0,0,10.156-2.009,9.905,6.53s-9.905,14.566-9.905,14.566V54.25z"/>
<path fill="none" stroke="#8A4428" stroke-width="2" stroke-linecap="round" stroke-linejoin="round" stroke-miterlimit="10" d="
	M757.317,58.891v-6.178c0,0-10.156-2.009-9.905,6.53c0.251,8.539,9.905,14.566,9.905,14.566V58.891z"/>
<path fill="none" stroke="#8A4428" stroke-width="2" stroke-linecap="round" stroke-linejoin="round" stroke-miterlimit="10" d="
	M756.654,73.808c0,0-3.918,24.794,12.145,36.929c0.914,0.693,1.889,1.346,2.933,1.959c5.636,3.315,13.27,5.455,23.597,5.455
	c2.2,0,4.29-0.1,6.259-0.271c1.688-0.161,3.285-0.382,4.812-0.673c7.956-1.437,13.733-4.47,17.912-8.258
	c13.562-12.276,10.73-33.881,10.73-33.881"/>
<path fill="none" stroke="#8A4428" stroke-width="2" stroke-linecap="round" stroke-linejoin="round" stroke-miterlimit="10" d="
	M790.297,102.209c0,0-0.442-3.345,2.893-3.687c1.868-0.181,2.612,0.794,2.913,1.698c0.241,0.713,0.191,1.386,0.191,1.386"/>
<path fill="none" stroke="#8A4428" stroke-width="2" stroke-linecap="round" stroke-linejoin="round" stroke-miterlimit="10" d="
	M802.252,99.788c0,0,0.442,3.345-2.903,3.677c-3.335,0.342-3.094-3.074-3.094-3.074"/>
<polyline fill="none" stroke="#8A4428" stroke-width="2" stroke-linecap="round" stroke-linejoin="round" stroke-miterlimit="10" points="
	796.244,49.599 796.244,59.896 787.454,79.234 796.244,79.234 796.104,100.22 795.993,118.152 "/>
<polyline fill="none" stroke="#8A4428" stroke-width="2" stroke-linecap="round" stroke-linejoin="round" stroke-miterlimit="10" points="
	804.753,187.919 843.389,187.487 843.399,187.487 "/>
<line fill="none" stroke="#8A4428" stroke-width="2" stroke-linecap="round" stroke-linejoin="round" stroke-miterlimit="10" x1="751.008" y1="188.512" x2="791.563" y2="188.06"/>
<polyline fill="none" stroke="#8A4428" stroke-width="2" stroke-linecap="round" stroke-linejoin="round" stroke-miterlimit="10" points="
	783.868,193.555 768.618,193.766 750.405,194.007 "/>
<line fill="none" stroke="#8A4428" stroke-width="2" stroke-linecap="round" stroke-linejoin="round" stroke-miterlimit="10" x1="843.891" y1="192.751" x2="797.982" y2="193.374"/>
<path fill="none" stroke="#8A4428" stroke-width="2" stroke-linecap="round" stroke-linejoin="round" stroke-miterlimit="10" d="
	M790.376,241.902c0,0-15.429-4.276-21.024-22.66"/>
<path fill="none" stroke="#8A4428" stroke-width="2" stroke-linecap="round" stroke-linejoin="round" stroke-miterlimit="10" d="
	M736.974,325.858h-1.758l-18.836,14.315c0,0-2.763,3.767,0,3.767c2.763,0,27.124-0.492,32.649,0.01
	c5.525,0.502,3.265-18.092,3.265-18.092h-1.507c0,0-1.115,4.521-5.957,4.521s-5.847-4.521-5.847-4.521H736.974z"/>
<path fill="none" stroke="#8A4428" stroke-width="2" stroke-linecap="round" stroke-linejoin="round" stroke-miterlimit="10" d="
	M757.116,256.994c0,0-8.338,4.822-8.338,16.375c0,11.553,2.009,52.489,2.009,52.489"/>
<path fill="none" stroke="#8A4428" stroke-width="2" stroke-linecap="round" stroke-linejoin="round" stroke-miterlimit="10" d="
	M747.241,247.671c0,0,0,0-0.01,0.01c-0.392,0.412-12.015,12.889-12.015,28.45c0,15.822,1.758,49.727,1.758,49.727"/>
<path fill="none" stroke="#8A4428" stroke-width="2" stroke-linecap="round" stroke-linejoin="round" stroke-miterlimit="10" d="
	M794.506,325.858h-2.049l-18.836,14.315c0,0-2.763,3.767,0,3.767c2.763,0,27.124-0.492,32.649,0.01
	c5.525,0.502,3.265-18.092,3.265-18.092h-1.507c0,0-1.115,4.521-5.957,4.521s-5.847-4.521-5.847-4.521H794.506z"/>
<path fill="none" stroke="#8A4428" stroke-width="2" stroke-linecap="round" stroke-linejoin="round" stroke-miterlimit="10" d="
	M806.4,261.354c0,0-8.609,51.947-11.894,64.504"/>
<path fill="none" stroke="#8A4428" stroke-width="2" stroke-linecap="round" stroke-linejoin="round" stroke-miterlimit="10" d="
	M808.028,325.858c0,0,12.828-59.762,14.084-63.539"/>
<path fill="none" stroke="#8A4428" stroke-width="2" stroke-linecap="round" stroke-linejoin="round" stroke-miterlimit="10" d="
	M725.357,208.64c-2.03,1.34-2.144,4.746-0.254,7.609l3.001,4.547c1.889,2.863,5.066,4.097,7.096,2.757l1.934-1.277
	c2.03-1.34,2.144-4.746,0.254-7.609l-3.001-4.547c-1.889-2.863-5.066-4.097-7.096-2.757L725.357,208.64z"/>
<path fill="none" stroke="#8A4428" stroke-width="1.9098" stroke-linecap="round" stroke-linejoin="round" stroke-miterlimit="10" d="
	M657.238,205.017c-1.46,1.815-0.581,4.946,1.963,6.992l4.041,3.25c2.544,2.046,5.79,2.234,7.25,0.419l1.391-1.73
	c1.46-1.815,0.581-4.946-1.963-6.992l-4.041-3.25c-2.544-2.046-5.79-2.234-7.25-0.419L657.238,205.017z"/>
<path fill="none" stroke="#8A4428" stroke-linecap="round" stroke-linejoin="round" stroke-miterlimit="10" d="M805.338,18.872
	c16.748,0,20.932,10.571,23.051,22.28"/>
<path fill="none" stroke="#8A4428" stroke-linecap="round" stroke-linejoin="round" stroke-miterlimit="10" d="M789.387,19.08
	c3.22-0.062,6.637-0.133,10.252-0.174"/>
<path fill="none" stroke="#8A4428" stroke-linecap="round" stroke-linejoin="round" stroke-miterlimit="10" d="M753.906,11.887
	c1.505,2.987,3.746,4.966,6.733,6.265"/>
<path fill="none" stroke="#8A4428" stroke-linecap="round" stroke-linejoin="round" stroke-miterlimit="10" d="M776.635,226.157
	c1.447,2.341,6.504,9.495,11.504,11.245"/>
<path fill="none" stroke="#8A4428" stroke-linecap="round" stroke-linejoin="round" stroke-miterlimit="10" d="M772.639,216.902
	c0.055,0.265,0.328,1.402,2.25,5.5"/>
<path fill="none" stroke="#8A4428" stroke-linecap="round" stroke-linejoin="round" stroke-miterlimit="10" d="M756.889,183.402
	c0,0,3-19,5.5-29.5"/>
<line fill="none" stroke="#8A4428" stroke-width="0.8819" stroke-linecap="round" stroke-linejoin="round" stroke-miterlimit="10" x1="763.389" y1="148.402" x2="764.889" y2="141.402"/>
<path fill="none" stroke="#8A4428" stroke-linecap="round" stroke-linejoin="round" stroke-miterlimit="10" d="M201.889,186.402
	c0,0-3-19-5.5-29.5"/>
<line fill="none" stroke="#8A4428" stroke-width="0.8819" stroke-linecap="round" stroke-linejoin="round" stroke-miterlimit="10" x1="195.389" y1="151.402" x2="193.889" y2="144.402"/>
<path fill="none" stroke="#8A4428" stroke-width="0.8767" stroke-linecap="round" stroke-linejoin="round" stroke-miterlimit="10" d="
	M181.143,230.657c-1.352,1.924-6.08,7.806-10.754,9.245"/>
<path fill="none" stroke="#8A4428" stroke-linecap="round" stroke-linejoin="round" stroke-miterlimit="10" d="M185.139,221.402
	c-0.055,0.265-0.328,1.402-2.25,5.5"/>
<path fill="none" stroke="#8A4428" stroke-linecap="round" stroke-linejoin="round" stroke-miterlimit="10" d="M153.957,22.372
	c-16.748,0-20.932,10.571-23.051,22.28"/>
<path fill="none" stroke="#8A4428" stroke-linecap="round" stroke-linejoin="round" stroke-miterlimit="10" d="M169.908,22.58
	c-3.22-0.062-6.637-0.133-10.252-0.174"/>
<path fill="none" stroke="#8A4428" stroke-linecap="round" stroke-linejoin="round" stroke-miterlimit="10" d="M205.389,15.387
	c-1.505,2.987-3.746,4.966-6.733,6.265"/>
</svg>
