<svg id="aromatiques" xmlns="http://www.w3.org/2000/svg" viewBox="0 0 27.18 30.63"><defs><style>.cls-1{fill:none;stroke:#717070;stroke-linecap:round;stroke-linejoin:round;stroke-width:0.86px;}</style></defs><title>aromatiques</title><line class="cls-1" x1="13.97" y1="20.12" x2="13.97" y2="30.2"/><path class="cls-1" d="M30.38,33c0.86-1.52,2.75-2.29,4.06-3.36,2-1.67,4.47-5.31,3.36-8.07a0.47,0.47,0,0,0-.17-0.24,0.38,0.38,0,0,0-.32,0,15.25,15.25,0,0,0-2.58,1.3A4.54,4.54,0,0,0,35,20a1.52,1.52,0,0,0-1-1.31c-0.66-.1-0.93-1.43-1.37-1.9a7.06,7.06,0,0,0-2.19-1.68,7.07,7.07,0,0,0-2.19,1.68c-0.43.47-.71,1.8-1.36,1.9A1.53,1.53,0,0,0,25.75,20a4.67,4.67,0,0,0,0,2,1.9,1.9,0,0,0,.18.6,20.87,20.87,0,0,0-2.47-1.25c-0.63-.27-0.74.55-0.8,1-0.34,2.58,1.51,5.5,3.38,7.1,1.42,1.21,3.19,2,4.3,3.54h0" transform="translate(-16.41 -14.68)"/><path class="cls-1" d="M24.55,38a14.19,14.19,0,0,1,.31-3.19,5.17,5.17,0,0,0-1.52-4.27c-0.21-.16-0.58-0.45-0.73-0.08a12,12,0,0,0-.5,1.51,1.09,1.09,0,0,0-.17-0.32,2.42,2.42,0,0,0-.21-0.3,2.58,2.58,0,0,0-.6-0.54,0.88,0.88,0,0,0-1-.11c-0.31.23-1-.2-1.33-0.22a4.07,4.07,0,0,0-1.58.21,4.08,4.08,0,0,0-.21,1.57c0,0.37.44,1,.22,1.33a0.88,0.88,0,0,0,.11,1,2.62,2.62,0,0,0,1.17,1,8.75,8.75,0,0,0-1.58.52,0.22,0.22,0,0,0-.13.13,0.27,0.27,0,0,0,0,.17C17.54,38,20,38.48,21.53,38.33c1-.1,2.07-0.55,3-0.29l5.81,2.61L35.44,38c1-.27,2.07.19,3,0.29,1.51,0.15,4-.34,4.65-1.92a0.28,0.28,0,0,0,0-.17A0.22,0.22,0,0,0,43,36.11a8.73,8.73,0,0,0-1.58-.52,2.63,2.63,0,0,0,1.17-1,0.88,0.88,0,0,0,.11-1c-0.23-.31.2-1,0.22-1.33a4.07,4.07,0,0,0-.21-1.57,4.07,4.07,0,0,0-1.58-.21c-0.37,0-1,.44-1.33.22a0.88,0.88,0,0,0-1,.11,2.73,2.73,0,0,0-.81.84,1.1,1.1,0,0,0-.17.32,12.15,12.15,0,0,0-.5-1.51c-0.15-.37-0.52-0.08-0.73.08a5.18,5.18,0,0,0-1.52,4.27A14.17,14.17,0,0,1,35.45,38" transform="translate(-16.41 -14.68)"/></svg>