<svg id="autres" xmlns="http://www.w3.org/2000/svg" viewBox="0 0 16.58 42.16"><defs><style>.cls-1{fill:#717070;}</style></defs><title>autres</title><path class="cls-1" d="M28.09,28.42c0.15,0.3.25,0.47,0.26,0.48a0.36,0.36,0,1,1-.62.37l-0.08-.15c-0.12.34-.22,0.68-0.31,1-1.72,6.72-1.3,12.18,1.33,17.19l0.12,0.2c0.24,0,.49,0,0.74,0a0.38,0.38,0,0,1,.23.08A2.24,2.24,0,0,1,29.3,47C26.76,42.17,26.36,36.88,28,30.34a16.47,16.47,0,0,1,1.34-3.4,1.22,1.22,0,0,1-.58-0.47l-0.22.44a1,1,0,0,1,.15.53A1.12,1.12,0,0,1,28.09,28.42Z" transform="translate(-21.71 -8.92)"/><path class="cls-1" d="M30.6,23.39h0l-0.31.49A0.58,0.58,0,0,0,30.6,23.39Z" transform="translate(-21.71 -8.92)"/><path class="cls-1" d="M33,19.5q-0.28.5-.59,1a0.78,0.78,0,0,0,.54.22,0.82,0.82,0,0,0,.19,0l0.48-.83A0.74,0.74,0,0,0,33,19.5Z" transform="translate(-21.71 -8.92)"/><path class="cls-1" d="M29.87,25.28a0.78,0.78,0,0,0-.55.22l-0.15.28a0.5,0.5,0,0,0,0,.12,0.63,0.63,0,0,0,.48.57c0.2-.37.41-0.73,0.62-1.09A0.81,0.81,0,0,0,29.87,25.28Z" transform="translate(-21.71 -8.92)"/><path class="cls-1" d="M38.2,30.67a133.66,133.66,0,0,0-2.36-18.2,0.36,0.36,0,0,0-.72.06,11.9,11.9,0,0,1-.94,4.53,1,1,0,0,1,0,.22,1.11,1.11,0,0,1-.55.94q-0.19.39-.39,0.77a1.28,1.28,0,0,1,.63.35,17,17,0,0,0,1.67-4.28A117.14,117.14,0,0,1,37.48,30.7c0.17,4.71.44,11.83-3.28,15.28-0.91.84-3.48,2.42-4.41,1.71a0.36,0.36,0,0,1,.09.24,0.36,0.36,0,0,1-.36.37H29.4a1.73,1.73,0,0,0,1,.29,4.65,4.65,0,0,0,1.86-.49,4.4,4.4,0,0,0,.1-0.67,0.36,0.36,0,0,1,.38-0.34,0.36,0.36,0,0,1,.34.38c0,0.06,0,.13,0,0.2a9.9,9.9,0,0,0,1.62-1.16C38.65,42.83,38.38,35.51,38.2,30.67Z" transform="translate(-21.71 -8.92)"/><path class="cls-1" d="M30.51,24.92c0.4-.65.81-1.3,1.21-1.94s0.74-1.16,1.1-1.75A1.3,1.3,0,0,1,32.13,21c-0.33.54-.68,1.08-1,1.63L31,22.83a1.05,1.05,0,0,1,.17.56,1.2,1.2,0,0,1-1.23,1.14l-0.14.24h0.12A1.33,1.33,0,0,1,30.51,24.92Z" transform="translate(-21.71 -8.92)"/><path class="cls-1" d="M26.44,24.93a0.6,0.6,0,0,0,.36.52c-0.09-.25-0.19-0.52-0.28-0.79A0.53,0.53,0,0,0,26.44,24.93Z" transform="translate(-21.71 -8.92)"/><path class="cls-1" d="M27.47,28.05a0.81,0.81,0,0,0,.38-0.1c-0.15-.3-0.31-0.67-0.5-1.1a0.67,0.67,0,0,0-.59.47L27,27.92A0.8,0.8,0,0,0,27.47,28.05Z" transform="translate(-21.71 -8.92)"/><path class="cls-1" d="M27.47,28.58H27.35l0.29,0.56c0.07-.21.15-0.41,0.23-0.61A1.36,1.36,0,0,1,27.47,28.58Z" transform="translate(-21.71 -8.92)"/><path class="cls-1" d="M27.17,47.28a0.36,0.36,0,0,1,.37.35,3.59,3.59,0,0,0,.05.48,8.25,8.25,0,0,0,1.75.19H29.4l-0.12-.08a2.35,2.35,0,0,1-.51-0.67,5.72,5.72,0,0,1-3.32-1.21,7,7,0,0,1-1.95-3.24c-1.67-5-1-10.48-.46-15.35l0.88-7.48c0.08-.71.19-1.43,0.3-2.15l0-.15a35.09,35.09,0,0,0,2.27,8.72,1.27,1.27,0,0,1,.63-0.37L27,26.06a1.18,1.18,0,0,1-1.12-1.13,1.09,1.09,0,0,1,.42-0.85c-0.07-.22-0.14-0.43-0.21-0.67a1.14,1.14,0,0,1-.72-1,1.06,1.06,0,0,1,.26-0.69,34,34,0,0,1-1-8.23,0.36,0.36,0,0,0-.36-0.37h0a0.36,0.36,0,0,0-.36.36h0A33.15,33.15,0,0,1,23.51,18c-0.11.73-.22,1.46-0.3,2.17l-0.88,7.48c-0.58,4.95-1.23,10.55.49,15.67A7.66,7.66,0,0,0,25,46.9a5.63,5.63,0,0,0,1.84,1c0-.09,0-0.18,0-0.26A0.36,0.36,0,0,1,27.17,47.28Z" transform="translate(-21.71 -8.92)"/><path class="cls-1" d="M29.74,47.65l0,0,0,0Z" transform="translate(-21.71 -8.92)"/><path class="cls-1" d="M27.64,29.13l0.08,0.15a0.36,0.36,0,1,0,.62-0.37s-0.11-.19-0.26-0.48l-0.22.09C27.79,28.72,27.71,28.92,27.64,29.13Z" transform="translate(-21.71 -8.92)"/><path class="cls-1" d="M29.74,47.65a0.38,0.38,0,0,0-.23-0.08c-0.25,0-.5,0-0.74,0a2.35,2.35,0,0,0,.51.67L29.4,48.3h0.13a0.36,0.36,0,0,0,.36-0.37,0.36,0.36,0,0,0-.09-0.24l0,0Z" transform="translate(-21.71 -8.92)"/><path class="cls-1" d="M29.9,50.35a2.37,2.37,0,0,1-2.31-2.24,6.89,6.89,0,0,1-.76-0.21,3.17,3.17,0,0,0,3.07,3.17c2.26,0,3-2.12,3.18-3.41-0.26.15-.53,0.3-0.81,0.43A2.51,2.51,0,0,1,29.9,50.35Z" transform="translate(-21.71 -8.92)"/><path class="cls-1" d="M32.76,47.09a0.36,0.36,0,0,0-.38.34,4.4,4.4,0,0,1-.1.67c0.28-.13.55-0.28,0.81-0.43,0-.07,0-0.14,0-0.2A0.36,0.36,0,0,0,32.76,47.09Z" transform="translate(-21.71 -8.92)"/><path class="cls-1" d="M27.54,47.64a0.36,0.36,0,0,0-.73,0c0,0.08,0,.17,0,0.26a6.89,6.89,0,0,0,.76.21A3.59,3.59,0,0,1,27.54,47.64Z" transform="translate(-21.71 -8.92)"/><path class="cls-1" d="M29.95,11.8a1.15,1.15,0,1,0,1.26,1.14A1.2,1.2,0,0,0,29.95,11.8Zm0,1.75a0.62,0.62,0,1,1,.73-0.61A0.68,0.68,0,0,1,29.95,13.56Z" transform="translate(-21.71 -8.92)"/><path class="cls-1" d="M29.87,11.2a1.2,1.2,0,0,0,1.26-1.14,1.26,1.26,0,0,0-2.51,0A1.2,1.2,0,0,0,29.87,11.2Zm0-1.75a0.68,0.68,0,0,1,.73.61,0.74,0.74,0,0,1-1.46,0A0.68,0.68,0,0,1,29.87,9.45Z" transform="translate(-21.71 -8.92)"/><path class="cls-1" d="M30,14.42a1.15,1.15,0,1,0,1.26,1.14A1.2,1.2,0,0,0,30,14.42Zm0,1.75a0.62,0.62,0,1,1,.73-0.61A0.68,0.68,0,0,1,30,16.17Z" transform="translate(-21.71 -8.92)"/><path class="cls-1" d="M29.95,17a1.15,1.15,0,1,0,1.26,1.14A1.2,1.2,0,0,0,29.95,17Zm0,1.75a0.62,0.62,0,1,1,.73-0.61A0.68,0.68,0,0,1,29.95,18.78Z" transform="translate(-21.71 -8.92)"/><path class="cls-1" d="M29.87,21.87a1.14,1.14,0,1,0-1.26-1.14A1.2,1.2,0,0,0,29.87,21.87Zm0-1.75a0.62,0.62,0,1,1-.73.61A0.68,0.68,0,0,1,29.87,20.11Z" transform="translate(-21.71 -8.92)"/><path class="cls-1" d="M29.87,24a0.62,0.62,0,1,1,.73-0.62L31,22.83a1.28,1.28,0,0,0-1.08-.58,1.15,1.15,0,1,0,0,2.28h0l0.4-.65A0.79,0.79,0,0,1,29.87,24Z" transform="translate(-21.71 -8.92)"/><path class="cls-1" d="M31.13,23.39A1.05,1.05,0,0,0,31,22.83l-0.36.56h0a0.58,0.58,0,0,1-.31.49l-0.4.65A1.2,1.2,0,0,0,31.13,23.39Z" transform="translate(-21.71 -8.92)"/><path class="cls-1" d="M27.17,13.21a1.2,1.2,0,0,0,1.26-1.14,1.26,1.26,0,0,0-2.51,0A1.2,1.2,0,0,0,27.17,13.21Zm0-1.75a0.68,0.68,0,0,1,.73.61,0.74,0.74,0,0,1-1.46,0A0.68,0.68,0,0,1,27.17,11.45Z" transform="translate(-21.71 -8.92)"/><path class="cls-1" d="M26.66,15.84a1.15,1.15,0,1,0-1.26-1.14A1.2,1.2,0,0,0,26.66,15.84Zm0-1.75a0.62,0.62,0,1,1-.73.61A0.68,0.68,0,0,1,26.66,14.08Z" transform="translate(-21.71 -8.92)"/><path class="cls-1" d="M26.66,18.43a1.14,1.14,0,1,0-1.26-1.14A1.2,1.2,0,0,0,26.66,18.43Zm0-1.75a0.62,0.62,0,1,1-.73.61A0.68,0.68,0,0,1,26.66,16.68Z" transform="translate(-21.71 -8.92)"/><path class="cls-1" d="M26.66,21a1.15,1.15,0,1,0-1.26-1.14A1.2,1.2,0,0,0,26.66,21Zm0-1.75a0.62,0.62,0,1,1-.73.61A0.68,0.68,0,0,1,26.66,19.24Z" transform="translate(-21.71 -8.92)"/><path class="cls-1" d="M26.65,23.53a1.15,1.15,0,1,0,0-2.28,1.29,1.29,0,0,0-1,.44c0.14,0.6.28,1.18,0.44,1.72A1.34,1.34,0,0,0,26.65,23.53Zm0-1.75a0.62,0.62,0,1,1-.74.61A0.68,0.68,0,0,1,26.67,21.77Z" transform="translate(-21.71 -8.92)"/><path class="cls-1" d="M26.13,23.42c-0.16-.54-0.31-1.11-0.46-1.71a1.06,1.06,0,0,0-.26.69A1.14,1.14,0,0,0,26.13,23.42Z" transform="translate(-21.71 -8.92)"/><path class="cls-1" d="M27.17,24.31a0.62,0.62,0,1,1,0,1.23,0.81,0.81,0,0,1-.37-0.1L27,26.06h0.13a1.15,1.15,0,1,0,0-2.28,1.32,1.32,0,0,0-.83.29l0.19,0.58A0.75,0.75,0,0,1,27.17,24.31Z" transform="translate(-21.71 -8.92)"/><path class="cls-1" d="M25.91,24.93A1.18,1.18,0,0,0,27,26.06l-0.23-.61a0.6,0.6,0,0,1-.36-0.52,0.53,0.53,0,0,1,.08-0.27l-0.19-.58A1.09,1.09,0,0,0,25.91,24.93Z" transform="translate(-21.71 -8.92)"/><path class="cls-1" d="M29.32,25.5l0.43-.73a1.19,1.19,0,0,0-1.14,1.13,1,1,0,0,0,.18.58l0.38-.69A0.57,0.57,0,0,1,29.32,25.5Z" transform="translate(-21.71 -8.92)"/><path class="cls-1" d="M29.37,26.94l0.24-.47a0.63,0.63,0,0,1-.48-0.57,0.5,0.5,0,0,1,0-.12l-0.37.69A1.22,1.22,0,0,0,29.37,26.94Z" transform="translate(-21.71 -8.92)"/><path class="cls-1" d="M29.87,25.28a0.81,0.81,0,0,1,.36.09l0.27-.46a1.33,1.33,0,0,0-.64-0.16H29.75l-0.43.73A0.78,0.78,0,0,1,29.87,25.28Z" transform="translate(-21.71 -8.92)"/><path class="cls-1" d="M27.47,26.82a0.68,0.68,0,0,1,.73.61,0.6,0.6,0,0,1-.35.51L28,28.21c0.18-.44.38-0.87,0.6-1.3a1.27,1.27,0,0,0-1.11-.61,1.37,1.37,0,0,0-.32,0l0.21,0.5Z" transform="translate(-21.71 -8.92)"/><path class="cls-1" d="M28.09,28.42a1.12,1.12,0,0,0,.64-1,1,1,0,0,0-.15-0.53c-0.21.43-.41,0.86-0.6,1.3Z" transform="translate(-21.71 -8.92)"/><path class="cls-1" d="M26.51,26.71l0.26,0.61a0.67,0.67,0,0,1,.59-0.47l-0.21-.5A1.27,1.27,0,0,0,26.51,26.71Z" transform="translate(-21.71 -8.92)"/><path class="cls-1" d="M27,27.92l0.31,0.65h0.12a1.36,1.36,0,0,0,.4-0.06l0.11-.3-0.13-.27A0.76,0.76,0,0,1,27,27.92Z" transform="translate(-21.71 -8.92)"/><path class="cls-1" d="M28.09,28.42L28,28.21l-0.11.3Z" transform="translate(-21.71 -8.92)"/><path class="cls-1" d="M32.5,13a1.2,1.2,0,0,0,1.26-1.14,1.26,1.26,0,0,0-2.51,0A1.2,1.2,0,0,0,32.5,13Zm0-1.75a0.68,0.68,0,0,1,.73.61,0.74,0.74,0,0,1-1.46,0A0.68,0.68,0,0,1,32.5,11.2Z" transform="translate(-21.71 -8.92)"/><path class="cls-1" d="M31.7,14.43A1.26,1.26,0,1,0,33,13.29,1.2,1.2,0,0,0,31.7,14.43Zm2,0A0.74,0.74,0,1,1,33,13.81,0.68,0.68,0,0,1,33.68,14.43Z" transform="translate(-21.71 -8.92)"/><path class="cls-1" d="M33,16.15a1.14,1.14,0,1,0,0,2.28,1.33,1.33,0,0,0,.71-0.2c0.19-.39.36-0.77,0.52-1.16A1.23,1.23,0,0,0,33,16.15Zm0,1.75a0.62,0.62,0,1,1,.73-0.61A0.68,0.68,0,0,1,33,17.91Z" transform="translate(-21.71 -8.92)"/><path class="cls-1" d="M34.21,17.29a1,1,0,0,0,0-.22c-0.16.39-.33,0.78-0.52,1.16A1.11,1.11,0,0,0,34.21,17.29Z" transform="translate(-21.71 -8.92)"/><path class="cls-1" d="M32.22,20.1A0.68,0.68,0,0,1,33,19.49h0L33.27,19A1.37,1.37,0,0,0,33,19,1.2,1.2,0,0,0,31.7,20.1a1.09,1.09,0,0,0,.43.86l0.28-.46A0.56,0.56,0,0,1,32.22,20.1Z" transform="translate(-21.71 -8.92)"/><path class="cls-1" d="M33.62,19.86l0.27-.5A1.28,1.28,0,0,0,33.27,19L33,19.5A0.74,0.74,0,0,1,33.62,19.86Z" transform="translate(-21.71 -8.92)"/><path class="cls-1" d="M33.14,20.69a0.82,0.82,0,0,1-.19,0,0.78,0.78,0,0,1-.54-0.22L32.13,21a1.3,1.3,0,0,0,.68.27Z" transform="translate(-21.71 -8.92)"/></svg>