<svg id="choux" xmlns="http://www.w3.org/2000/svg" viewBox="0 0 46.39 40.28"><defs><style>.cls-1{fill:none;}.cls-2{fill:#717070;}</style></defs><title>choux</title><path class="cls-1" d="M19.77,35.7C22.61,36.31,25.83,37,28,39.17a9,9,0,0,1,2,3A9.06,9.06,0,0,1,32,39.24c2.2-2.17,5.42-2.89,8.25-3.5a56.48,56.48,0,0,0,7-1.84,18,18,0,0,0,.77-5.2,21.7,21.7,0,0,0-8.83-16.57c-0.37,2.55-1.73,6.09-3.8,7.78a22.71,22.71,0,0,1-6.95,3.84l-0.12,0A0.39,0.39,0,0,1,28.13,23a21.88,21.88,0,0,0,6.7-3.7c1.79-1.47,2.85-4.23,3.42-6.65a16,16,0,0,0-8.32-2,15.31,15.31,0,0,0-4.15.57,12.69,12.69,0,0,0,8,6.19,0.34,0.34,0,0,1-.08.67H33.64a13.19,13.19,0,0,1-8.93-7.44,17.82,17.82,0,0,0-7.19,4.9,11.4,11.4,0,0,1,6.22,2.77,14.08,14.08,0,0,1,3.1,5.11,12.62,12.62,0,0,0,5.56,5.86c4.92,2.86,11.12.26,14.05-3.8a0.36,0.36,0,1,1,.59.43,13,13,0,0,1-10.11,5.3A9.64,9.64,0,0,1,32,29.94a13.35,13.35,0,0,1-5.87-6.21,13.45,13.45,0,0,0-2.91-4.85,10.09,10.09,0,0,0-7.91-2.5h0c-2.62,3.13-3.41,7.94-3.41,12.33a18,18,0,0,0,.75,5.12A56.26,56.26,0,0,0,19.77,35.7Z" transform="translate(-6.81 -9.86)"/><path class="cls-1" d="M11.87,33.54a18.65,18.65,0,0,1-.64-4.83c0-.37,0-0.73,0-1.1l-0.11,0C10.49,27.77,10,27.87,9.41,28A2.57,2.57,0,0,0,7.8,29.16a2.15,2.15,0,0,0,.38,2.23,5.82,5.82,0,0,0,2.19,1.51C10.86,33.13,11.37,33.34,11.87,33.54Z" transform="translate(-6.81 -9.86)"/><path class="cls-1" d="M29.59,43.38h0a7.38,7.38,0,0,0-2.15-3.63c-2-2-5-2.63-7.85-3.24A61.47,61.47,0,0,1,13,34.81l-0.8-.28C11.45,34.27,10.73,34,10,33.66a11.36,11.36,0,0,1-1.1-.58C12.77,38.92,22.13,46.35,29,46.71A15.59,15.59,0,0,1,29.59,43.38Z" transform="translate(-6.81 -9.86)"/><path class="cls-1" d="M29.67,47.4l-0.6,0a18.64,18.64,0,0,1-3.83-.57,2.62,2.62,0,0,0,1,2.06,5.39,5.39,0,0,0,2.78.58h0.31c0.7,0,1.41,0,2.21,0A3.09,3.09,0,0,0,33.32,49a3.69,3.69,0,0,0,1.24-2.17,18.69,18.69,0,0,1-4.63.58H29.67Z" transform="translate(-6.81 -9.86)"/><path class="cls-1" d="M50.59,28.05c-0.62-.18-1.07-0.28-1.75-0.42l-0.25-.05c0,0.37,0,.75,0,1.13A18.64,18.64,0,0,1,48,33.62c0.56-.22,1.12-0.44,1.66-0.69a5.86,5.86,0,0,0,2.19-1.52,2.16,2.16,0,0,0,.38-2.24A2.57,2.57,0,0,0,50.59,28.05Z" transform="translate(-6.81 -9.86)"/><path class="cls-1" d="M47.67,34.59l-0.8.27a62.61,62.61,0,0,1-6.47,1.65c-2.86.61-5.82,1.24-7.85,3.24a10.82,10.82,0,0,0-2.73,7h0.11c7.28,0,17.93-7.17,21.33-13.76a10.52,10.52,0,0,1-1.28.69C49.22,34,48.45,34.31,47.67,34.59Z" transform="translate(-6.81 -9.86)"/><path class="cls-2" d="M52.93,28.78a3.35,3.35,0,0,0-2.11-1.53C50.17,27.07,49.7,27,49,26.82l-0.39-.08H48.52c-0.61-5.79-4.66-12.37-9.34-15.36L39,11.26,38.62,11c0,0.12-.17.74-0.18,0.76l0,0.22a17,17,0,0,0-8.46-2,16.29,16.29,0,0,0-4.52.57L25,9.86a18.05,18.05,0,0,0-8.35,5.68c-0.22,0-.43,0-0.64,0h0l-0.22,0-0.77.15-0.1,0c-2.41,2.81-3.22,7.11-3.62,11L11,26.82c-0.7.15-1.16,0.25-1.81,0.43a3.35,3.35,0,0,0-2.11,1.53,2.52,2.52,0,0,0-.22,1.63h0a3.44,3.44,0,0,0,.46,1.18c3.11,7.34,11.69,13.34,17.23,15a3.35,3.35,0,0,0,1.36,2.81,5.87,5.87,0,0,0,3.13.69h0.31l0.87,0,1.39,0a3.73,3.73,0,0,0,2.1-.57,4.57,4.57,0,0,0,1.59-2.93c5.83-1.75,16.88-8.82,17.8-16h0A2.58,2.58,0,0,0,52.93,28.78ZM15.32,16.38h0a10.09,10.09,0,0,1,7.91,2.5,13.45,13.45,0,0,1,2.91,4.85A13.35,13.35,0,0,0,32,29.94a9.64,9.64,0,0,0,4.89,1.3A13,13,0,0,0,47,25.94a0.36,0.36,0,1,0-.59-0.43c-2.93,4.05-9.14,6.66-14.05,3.8a12.62,12.62,0,0,1-5.56-5.86,14.08,14.08,0,0,0-3.1-5.11,11.4,11.4,0,0,0-6.22-2.77,17.82,17.82,0,0,1,7.19-4.9,13.19,13.19,0,0,0,8.93,7.44h0.08a0.34,0.34,0,0,0,.08-0.67,12.69,12.69,0,0,1-8-6.19,15.31,15.31,0,0,1,4.15-.57,16,16,0,0,1,8.32,2c-0.57,2.42-1.63,5.19-3.42,6.65a21.88,21.88,0,0,1-6.7,3.7,0.39,0.39,0,0,0,.12.76l0.12,0a22.71,22.71,0,0,0,6.95-3.84c2.07-1.69,3.44-5.23,3.8-7.78A21.7,21.7,0,0,1,48,28.71a18,18,0,0,1-.77,5.2,56.48,56.48,0,0,1-7,1.84c-2.84.6-6.06,1.33-8.25,3.5a9.06,9.06,0,0,0-1.92,2.89,9,9,0,0,0-2-3c-2.2-2.17-5.42-2.86-8.26-3.46a56.26,56.26,0,0,1-7.11-1.87,18,18,0,0,1-.75-5.12C11.91,24.32,12.7,19.51,15.32,16.38Zm-7.13,15a2.15,2.15,0,0,1-.38-2.23A2.57,2.57,0,0,1,9.41,28c0.62-.18,1.07-0.27,1.75-0.42l0.11,0c0,0.36,0,.73,0,1.1a18.65,18.65,0,0,0,.64,4.83c-0.51-.2-1-0.4-1.5-0.63A5.82,5.82,0,0,1,8.18,31.4Zm0.74,1.68a11.36,11.36,0,0,0,1.1.58c0.71,0.33,1.42.62,2.15,0.88L13,34.81a61.47,61.47,0,0,0,6.62,1.7c2.86,0.61,5.82,1.24,7.85,3.24a7.38,7.38,0,0,1,2.15,3.63h0A15.61,15.61,0,0,0,29,46.71C22.13,46.35,12.77,38.92,8.92,33.07ZM33.32,49a3.09,3.09,0,0,1-1.74.45c-0.8,0-1.51,0-2.21,0H29.06a5.39,5.39,0,0,1-2.78-.58,2.62,2.62,0,0,1-1-2.06,18.64,18.64,0,0,0,3.83.57l0.6,0h0.26a18.69,18.69,0,0,0,4.63-.58A3.69,3.69,0,0,1,33.32,49Zm-3.39-2.26H29.83a10.82,10.82,0,0,1,2.73-7c2-2,5-2.63,7.85-3.24a62.61,62.61,0,0,0,6.47-1.65l0.8-.27c0.78-.28,1.55-0.59,2.31-0.94A10.52,10.52,0,0,0,51.27,33C47.87,39.56,37.22,46.73,29.93,46.73ZM51.82,31.41a5.86,5.86,0,0,1-2.19,1.52c-0.55.25-1.1,0.48-1.66,0.69a18.64,18.64,0,0,0,.66-4.91c0-.38,0-0.75,0-1.13l0.25,0.05c0.68,0.14,1.13.24,1.75,0.42a2.57,2.57,0,0,1,1.61,1.12A2.16,2.16,0,0,1,51.82,31.41Z" transform="translate(-6.81 -9.86)"/></svg>