<svg id="courges" xmlns="http://www.w3.org/2000/svg" viewBox="0 0 27.03 38.79"><defs><style>.cls-1{fill:none;stroke:#717070;stroke-miterlimit:10;stroke-width:0.86px;}</style></defs><title>courges</title><path class="cls-1" d="M29.59,49c-1.71,0-2.69-.17-3.69-1.05a8.93,8.93,0,0,1-2.17-3.31c-2.28-5.39-2.25-11.45-2-17.3,0.08-2,.23-4.08,1.45-5.62,1.42-1.78,4.22-2.59,6.42-2.59H30.8c2.2,0,5,.81,6.42,2.59,1.23,1.54,1.38,3.65,1.45,5.62,0.23,5.85.26,11.91-2,17.3a8.92,8.92,0,0,1-2.17,3.31A5.22,5.22,0,0,1,30.78,49h-1.2Z" transform="translate(-16.49 -10.61)"/><path class="cls-1" d="M23.52,20.92c-2,.18-4.53,1.15-5.69,2.9-1,1.51-1,3.47-.88,5.28,0.27,5.4.73,11,3.27,15.73a8.24,8.24,0,0,0,2.27,2.86,3.85,3.85,0,0,0,3.47.66" transform="translate(-16.49 -10.61)"/><path class="cls-1" d="M36.48,20.92c2,0.18,4.53,1.15,5.69,2.9,1,1.51,1,3.47.88,5.28-0.27,5.4-.73,11-3.27,15.73a8.23,8.23,0,0,1-2.27,2.86,3.85,3.85,0,0,1-3.47.66" transform="translate(-16.49 -10.61)"/><path class="cls-1" d="M32.68,21a5.19,5.19,0,0,1,2.46,1.82,5.27,5.27,0,0,1,1,3.53" transform="translate(-16.49 -10.61)"/><path class="cls-1" d="M30.74,16.81a1.18,1.18,0,0,1-1.22.3A0.36,0.36,0,0,1,29.35,17c-0.45-.35.2-2.82,0.34-3.3a3.77,3.77,0,0,1,1.92-2.51,2,2,0,0,1,2.56.81,0.41,0.41,0,0,1,.1.19,0.47,0.47,0,0,1-.35.4A5.51,5.51,0,0,0,31.43,15,16.58,16.58,0,0,1,30.74,16.81Z" transform="translate(-16.49 -10.61)"/></svg>