<svg id="fruits" xmlns="http://www.w3.org/2000/svg" viewBox="0 0 34.13 36.21"><defs><style>.cls-1{fill:#717070;}</style></defs><title>fruits</title><path class="cls-1" d="M35.22,48.3h0A8.06,8.06,0,0,1,30,46.46a8.07,8.07,0,0,1-5.21,1.84h0a10.77,10.77,0,0,1-7.66-3.89A15.7,15.7,0,0,1,13,32.6c0.37-3.88,2.34-8.77,6.77-10.86a8,8,0,0,1,7.88.43,0.4,0.4,0,0,1-.42.68,7.24,7.24,0,0,0-7.12-.38c-4.12,1.95-6,6.55-6.31,10.21a14.89,14.89,0,0,0,3.92,11.2,10,10,0,0,0,7.07,3.63h0a7.42,7.42,0,0,0,5-1.86,0.4,0.4,0,0,1,.51,0,7.4,7.4,0,0,0,5,1.86h0a10,10,0,0,0,7.07-3.63,14.89,14.89,0,0,0,3.92-11.2C45.86,29,44,24.41,39.89,22.46a7.23,7.23,0,0,0-7.33.52,0.4,0.4,0,0,1-.44-0.67,8.11,8.11,0,0,1,8.11-.58c4.42,2.09,6.4,7,6.77,10.86a15.7,15.7,0,0,1-4.12,11.81A10.78,10.78,0,0,1,35.22,48.3Z" transform="translate(-12.94 -12.08)"/><path class="cls-1" d="M29.66,20.92a0.4,0.4,0,0,1-.37-0.54c2.81-7.44,8.13-8.26,8.36-8.29a0.39,0.39,0,0,1,.34.12,0.4,0.4,0,0,1,.11.34c-1.17,7-8.29,8.35-8.36,8.37H29.66ZM37.19,13c-1.34.41-4.73,1.92-6.86,6.93A9.55,9.55,0,0,0,37.19,13Z" transform="translate(-12.94 -12.08)"/><path class="cls-1" d="M29.77,20.92l-0.14,0c-5.79-2.18-6.43-6.35-6.46-6.52a0.4,0.4,0,0,1,.46-0.45c5.48,0.91,6.52,6.47,6.53,6.53A0.4,0.4,0,0,1,29.77,20.92Zm-5.66-6.08c0.36,1.08,1.51,3.44,5.07,5A7.24,7.24,0,0,0,24.11,14.84Z" transform="translate(-12.94 -12.08)"/><path class="cls-1" d="M42.26,29.74a0.4,0.4,0,0,1-.39-0.32,6.41,6.41,0,0,0-1.53-3,6.63,6.63,0,0,0-2.17-1.58,0.4,0.4,0,1,1,.33-0.73,7.41,7.41,0,0,1,2.43,1.76,7.22,7.22,0,0,1,1.72,3.36,0.4,0.4,0,0,1-.31.47H42.26Z" transform="translate(-12.94 -12.08)"/><path class="cls-1" d="M29.77,23.44a0.4,0.4,0,0,1-.4-0.4v-3.9a0.4,0.4,0,1,1,.8,0V23A0.4,0.4,0,0,1,29.77,23.44Z" transform="translate(-12.94 -12.08)"/></svg>