<svg id="racines" xmlns="http://www.w3.org/2000/svg" viewBox="0 0 34.62 34.92"><defs><style>.cls-1{fill:#717070;}</style></defs><title>racines</title><path class="cls-1" d="M32.15,21.63l0,0,0,0-0.14-.11-0.2-.15-0.05,0a11.31,11.31,0,0,0-3.3-1.77,7.46,7.46,0,0,0-1-.25,6.71,6.71,0,0,0-1-.09,6.19,6.19,0,0,0-.87,0,6.26,6.26,0,0,0-1.5.37,6.42,6.42,0,0,0-.62.27,5.18,5.18,0,0,0-.5.29,0.13,0.13,0,0,0-.05.14,2.11,2.11,0,0,0,.12.5L23,20.9l0,0a0.07,0.07,0,0,0,.06,0l0.11-.07,0.13-.08,0.26-.15a5.79,5.79,0,0,1,.54-0.27l0,0,0.07,0a5.61,5.61,0,0,1,.7-0.24,5.44,5.44,0,0,1,.79-0.14,5.61,5.61,0,0,1,.88,0,6.21,6.21,0,0,1,1,.13c0.22,0,.44.1,0.65,0.17a10.13,10.13,0,0,1,2.87,1.53l-4.5,4.5a0.4,0.4,0,0,0,.56.56l4.57-4.57A26.49,26.49,0,0,1,36.17,27l-1.73,1.73a0.4,0.4,0,0,0,.56.56l1.64-1.64c3.17,4.46,6.42,10.79,9.67,18.81-3.7-1.5-7.08-3-10.05-4.52l3.05-3.05a0.4,0.4,0,0,0-.56-0.56l-3.24,3.24a66.7,66.7,0,0,1-8-4.78l3.33-3.33a0.4,0.4,0,0,0-.56-0.56l-3.42,3.42c-3.73-2.75-6-5.41-6.8-7.89a6.12,6.12,0,0,1-.28-2.53A5.51,5.51,0,0,1,20.39,24a9.64,9.64,0,0,1,.66-1s0.11-.14.06-0.17a1.25,1.25,0,0,0-.32-0.14,1.29,1.29,0,0,0-.26,0,0.43,0.43,0,0,0-.23,0,0.41,0.41,0,0,0-.13.16L20,23l-0.25.42a6.35,6.35,0,0,0-.41.88A6.21,6.21,0,0,0,19,26.38a7.09,7.09,0,0,0,.34,2.16c1.89,6,11.15,12.35,27.5,18.89h0l0.12,0H47.1a0.3,0.3,0,0,0,.12-0.07,0.31,0.31,0,0,0,.08-0.16v0a0.37,0.37,0,0,0,0-.12v0c-3.42-8.56-6.83-15.23-10.13-19.86l-0.06-.09L37,26.94l-0.15-.21-0.07-.09A26.85,26.85,0,0,0,32.15,21.63Z" transform="translate(-12.69 -12.54)"/><path class="cls-1" d="M20.18,12.55a1.21,1.21,0,0,0-1,.31A1.38,1.38,0,0,0,18.84,14c0,0.49.17,2.19,0.27,3.36l-3.3-3.54a1.87,1.87,0,0,0-1.15-.6,1.05,1.05,0,0,0-.8.33,1.27,1.27,0,0,0,.16,2l3.5,3.37-2.79-.21-0.56,0a1.43,1.43,0,0,0-1.15.37,1.21,1.21,0,0,0-.31,1,1,1,0,0,0,.48.77A1.73,1.73,0,0,0,14,21l5.32,0.41a0.33,0.33,0,0,0,.24-0.13,7.19,7.19,0,0,1,2.09-2l0.09-.06A0.35,0.35,0,0,0,21.8,19l-0.61-5.18A1.72,1.72,0,0,0,20.94,13,1,1,0,0,0,20.18,12.55Zm-6.62,7a0.74,0.74,0,0,1,.55-0.12l0.56,0,3.77,0.3a0.35,0.35,0,0,0,.36-0.2,0.35,0.35,0,0,0-.08-0.4s-3.9-3.74-4.21-4.05-0.48-.69-0.16-1a0.36,0.36,0,0,1,.28-0.12,1.16,1.16,0,0,1,.65.37l4,4.29a0.35,0.35,0,0,0,.61-0.28c-0.07-.7-0.31-3.74-0.36-4.37a0.68,0.68,0,0,1,.14-0.58,0.49,0.49,0,0,1,.4-0.13,0.34,0.34,0,0,1,.26.16,1,1,0,0,1,.14.47l0.58,4.91v0a6.77,6.77,0,0,0-1.09.91,10.71,10.71,0,0,0-.87,1L14,20.33a1,1,0,0,1-.46-0.14,0.34,0.34,0,0,1-.16-0.26,0.5,0.5,0,0,1,.13-0.4Z" transform="translate(-12.69 -12.54)"/></svg>