<svg id="salades_épinards" data-name="salades/épinards" xmlns="http://www.w3.org/2000/svg" viewBox="0 0 37.81 43.77"><defs><style>.cls-1{fill:none;stroke:#717070;stroke-linecap:round;stroke-linejoin:round;stroke-width:1.03px;}</style></defs><title>salades,épinards</title><path class="cls-1" d="M30,51.18V17.91" transform="translate(-11.09 -8.11)"/><line class="cls-1" x1="25.66" y1="18.37" x2="18.87" y2="25.02"/><line class="cls-1" x1="12.27" y1="25.87" x2="18.87" y2="32.31"/><line class="cls-1" x1="14.26" y1="14.68" x2="18.66" y2="19.88"/><path class="cls-1" d="M27.36,51.37a10.77,10.77,0,0,0-.7-1.42c-0.67-1.06-2.2.14-2.9-.91-0.39-.59.06-1.34,0.26-2A3.84,3.84,0,0,0,22.34,43a9.46,9.46,0,0,0-4.48-1.39,6.45,6.45,0,0,1-2.54-.6,3.7,3.7,0,0,1-1.68-3.29,8,8,0,0,1,1.16-3.65c1.49-2.72,1.86-5.49-1.21-7.38-2.66-1.64-2.32-3.88-.92-6.4,4-7.13,11.92-13.38,20.61-11.22,5.93,1.47,11.12,6,14,11.22,1.41,2.51,1.75,4.76-.92,6.4-3.07,1.89-2.69,4.66-1.21,7.38a8,8,0,0,1,1.16,3.65A3.71,3.71,0,0,1,44.68,41a6.46,6.46,0,0,1-2.54.6A9.46,9.46,0,0,0,37.66,43,3.84,3.84,0,0,0,36,47c0.21,0.67.65,1.42,0.26,2-0.7,1-2.53-.16-3.2.91a10.45,10.45,0,0,0-.66,1.42" transform="translate(-11.09 -8.11)"/></svg>