<svg id="tomates" xmlns="http://www.w3.org/2000/svg" viewBox="0 0 33.79 30.29"><defs><style>.cls-1{fill:#717070;}</style></defs><title>tomates</title><path class="cls-1" d="M45.13,23.49A16.65,16.65,0,0,0,43.34,21a0.87,0.87,0,0,0-.56.55,14.83,14.83,0,0,1,1.76,2.56,12.79,12.79,0,0,1,1.55,6.08C46.09,38,38.87,44.43,30,44.43S13.91,38,13.91,30.15a12.76,12.76,0,0,1,1.55-6.08,15.87,15.87,0,0,1,1.76-2.55A0.85,0.85,0,0,0,16.67,21a16.28,16.28,0,0,0-1.8,2.53,13.43,13.43,0,0,0-1.77,6.66c0,8.27,7.58,15,16.9,15s16.9-6.73,16.9-15A13.44,13.44,0,0,0,45.13,23.49Z" transform="translate(-13.1 -14.86)"/><path class="cls-1" d="M30,23.59a0.37,0.37,0,0,1-.27-0.11l-4.51-4.69a41.88,41.88,0,0,0-6.91,1.65,0.37,0.37,0,0,1-.49-0.35c0-.62,1.76-3.23,4.47-4.52a7,7,0,0,1,7.71,1,7.52,7.52,0,0,1,9.37.09c1.61,1.23,3,3.17,2.75,3.85a0.37,0.37,0,0,1-.19.21,0.37,0.37,0,0,1-.28,0,39.23,39.23,0,0,0-6.89-2.08l-4.5,4.79A0.26,0.26,0,0,1,30,23.59ZM25.37,18a0.37,0.37,0,0,1,.26.11L30,22.69,34.36,18a0.36,0.36,0,0,1,.31-0.11,34,34,0,0,1,6.56,1.89,9.17,9.17,0,0,0-3.63-3.37c-2.41-1.19-4.9-.89-7.4.91a0.37,0.37,0,0,1-.45,0A6.4,6.4,0,0,0,23.2,16a9.59,9.59,0,0,0-4.3,3.5A38.53,38.53,0,0,1,25.33,18h0Z" transform="translate(-13.1 -14.86)"/><path class="cls-1" d="M37.05,40.76A0.39,0.39,0,0,1,36.91,40a10.63,10.63,0,0,0,2.87-2.1,11.52,11.52,0,0,0,2-2.68,0.39,0.39,0,0,1,.7.36,12.15,12.15,0,0,1-2.17,2.89,11,11,0,0,1-3.12,2.26Z" transform="translate(-13.1 -14.86)"/></svg>