<?xml version="1.0" encoding="utf-8"?>
<!-- Generator: Adobe Illustrator 17.0.0, SVG Export Plug-In . SVG Version: 6.00 Build 0)  -->
<!DOCTYPE svg PUBLIC "-//W3C//DTD SVG 1.1//EN" "http://www.w3.org/Graphics/SVG/1.1/DTD/svg11.dtd">
<svg version="1.1" id="Calque_1" xmlns="http://www.w3.org/2000/svg" xmlns:xlink="http://www.w3.org/1999/xlink" x="0px" y="0px"
	 width="129.5px" height="49.5px" viewBox="0 0 129.5 49.5" enable-background="new 0 0 129.5 49.5" xml:space="preserve">
<g>
	<path fill="#FFFFFF" d="M68.602,17.578c2.115,0,2.104,0,1.988-2.077c-0.021-0.366-0.146-0.446-0.477-0.441
		c-0.999,0.017-2,0.017-2.998,0c-0.326-0.005-0.457,0.058-0.476,0.431C66.533,17.578,66.52,17.578,68.602,17.578"/>
	<path fill="#FFFFFF" d="M29.836,24.168c-0.037-2.487-1.92-4.541-4.398-4.719c-2.236-0.161-4.48-0.092-6.722-0.021
		c-0.802,0.023-1.534,0.277-2.188,0.723c-0.325,0.221-0.558,0.244-0.888,0.01c-0.646-0.461-1.389-0.718-2.186-0.728
		c-2.144-0.026-4.293-0.124-6.432-0.013c-2.883,0.15-4.742,2.255-4.744,5.168c-0.004,6.876-0.001,13.752,0,20.629
		c0,0.203,0.018,0.406,0.031,0.703c1.12-0.592,2.133-1.163,3.18-1.664c0.463-0.221,0.608-0.486,0.606-0.994
		c-0.018-6.217-0.012-12.436-0.01-18.652c0-1.031,0.377-1.414,1.404-1.418c1.682-0.007,3.365-0.002,5.047-0.002
		c1.33,0.001,1.644,0.31,1.644,1.629c0,4.656-0.002,9.314,0.005,13.971c0.001,0.254-0.095,0.531,0.116,0.805
		c1.035-0.541,2.055-1.102,3.101-1.609c0.456-0.223,0.601-0.506,0.598-1.012c-0.023-4.096-0.014-8.191-0.011-12.288
		c0-1.166,0.32-1.491,1.467-1.494c1.658-0.004,3.316-0.001,4.975-0.001c1.334,0.001,1.654,0.328,1.654,1.695
		c0,2.801,0,5.603,0,8.504c1.188-0.628,2.251-1.213,3.337-1.748c0.35-0.174,0.429-0.391,0.427-0.742
		C29.838,28.654,29.871,26.411,29.836,24.168"/>
	<path fill="#FFFFFF" d="M53.984,38.261c1.902,0.012,3.805,0.004,5.707,0.002c0.44-0.001,0.873-0.047,1.3-0.162
		c2.301-0.619,3.679-2.53,3.683-5.154c0.008-4.561,0.002-9.122,0.002-13.684v-4.17c0-3.269-0.018-6.537,0.016-9.805
		c0.007-0.626-0.174-0.793-0.773-0.75c-0.752,0.054-1.516,0.062-2.266-0.002c-0.658-0.057-0.804,0.16-0.799,0.8
		c0.029,4.464,0.007,8.927,0.026,13.39c0.003,0.51-0.104,0.619-0.634,0.604c-2.121-0.057-4.244-0.08-6.364-0.034
		c-2.853,0.062-4.864,2.176-4.867,5.031c-0.003,2.976-0.003,5.951,0,8.926C49.018,36.117,51.121,38.244,53.984,38.261
		 M54.126,23.092c1.805-0.005,3.61-0.005,5.415,0c0.932,0.003,1.32,0.394,1.326,1.34c0.008,1.44,0.002,2.878,0.002,4.317
		c0,1.44,0.005,2.879-0.002,4.316c-0.005,1.008-0.416,1.431-1.413,1.438c-1.757,0.01-3.513,0.01-5.27,0
		c-0.972-0.007-1.409-0.461-1.411-1.451c-0.005-2.854-0.005-5.708,0-8.562C52.774,23.506,53.174,23.095,54.126,23.092"/>
	<path fill="#FFFFFF" d="M128.14,24.333c-0.016-2.386-1.688-4.421-4.051-4.732c-2.346-0.311-4.723-0.155-7.081-0.06
		c-0.725,0.029-0.756-0.131-0.753-0.717c0.02-4.535,0-9.07,0.024-13.605c0.003-0.547-0.126-0.716-0.681-0.68
		c-0.801,0.052-1.61,0.055-2.412,0c-0.596-0.043-0.719,0.168-0.716,0.73c0.023,4.73,0.013,9.461,0.013,14.192
		c0,4.681-0.007,9.362,0.003,14.045c0.008,2.697,2.057,4.872,4.744,4.957c2.07,0.066,4.147,0.066,6.217-0.004
		c2.644-0.09,4.675-2.213,4.692-4.836C128.16,30.527,128.159,27.429,128.14,24.333 M124.385,32.988
		c-0.007,1.097-0.416,1.512-1.496,1.516c-1.706,0.008-3.413,0.007-5.119,0.001c-1.085-0.005-1.502-0.425-1.503-1.511
		c-0.004-2.754-0.004-5.509,0-8.264c0.002-1.041,0.424-1.465,1.46-1.467c1.73-0.006,3.461-0.006,5.192,0
		c1.042,0.002,1.458,0.412,1.466,1.46c0.01,1.39,0.002,2.78,0.002,4.169C124.387,30.257,124.394,31.623,124.385,32.988"/>
	<path fill="#FFFFFF" d="M110.631,24.503c-0.011-2.882-2.154-5.015-5.046-5.021c-1.78-0.005-3.561-0.001-5.341-0.001
		c-3.261,0.001-5.364,2.189-5.284,5.469c0.01,0.4,0.096,0.56,0.525,0.541c0.804-0.032,1.612-0.047,2.414,0.004
		c0.625,0.039,0.882-0.092,0.85-0.802c-0.045-0.988,0.449-1.419,1.43-1.429c0.902-0.009,1.805-0.002,2.707-0.002
		c0.927,0,1.854-0.012,2.779,0.006c0.646,0.013,1.035,0.386,1.184,0.996c0.15,0.613-0.417,0.635-0.74,0.807
		c-2.788,1.485-5.59,2.945-8.38,4.428c-2.042,1.085-3.09,3.16-2.616,5.127c0.546,2.271,2.452,3.821,4.798,3.853
		c1.95,0.025,3.902,0.036,5.852-0.003c2.779-0.055,4.857-2.201,4.868-4.975c0.005-1.487,0.001-2.975,0.001-4.462
		C110.632,27.526,110.636,26.014,110.631,24.503 M106.87,33.336c-0.008,0.91-0.446,1.338-1.347,1.34
		c-1.802,0.005-3.604-0.01-5.407,0.008c-0.633,0.005-1.129-0.197-1.276-0.834c-0.138-0.595,0.346-0.844,0.782-1.074
		c2.379-1.251,4.76-2.501,7.252-3.809C106.874,30.511,106.884,31.924,106.87,33.336"/>
	<path fill="#FFFFFF" d="M46.816,32.469c-0.827,0.044-1.662,0.059-2.486-0.003c-0.63-0.047-0.768,0.168-0.748,0.766
		c0.036,1.064-0.386,1.442-1.452,1.444c-0.757,0.002-1.512,0.001-2.269,0.001c-1.049,0-2.098-0.009-3.146,0.002
		c-0.666,0.008-1.035-0.346-1.213-0.945c-0.183-0.615,0.371-0.652,0.696-0.825c2.813-1.491,5.637-2.962,8.451-4.45
		c2.051-1.084,3.047-3.14,2.551-5.221c-0.516-2.164-2.455-3.725-4.722-3.753c-1.975-0.024-3.951-0.028-5.926,0.001
		c-2.668,0.04-4.824,2.194-4.85,4.863c-0.029,3.098-0.029,6.195,0,9.292c0.023,2.333,1.707,4.29,4.01,4.732
		c1.257,0.24,2.53,0.04,3.574,0.109c1.05,0,1.879,0,2.708,0c3.372-0.002,5.407-2.074,5.372-5.438
		C47.363,32.614,47.291,32.445,46.816,32.469 M35.49,24.395c0.012-0.661,0.514-1.12,1.198-1.128c1.901-0.018,3.804-0.01,5.704-0.002
		c0.543,0.002,0.938,0.276,1.112,0.787c0.156,0.457-0.138,0.775-0.484,0.96l-7.54,3.983C35.48,27.397,35.459,25.896,35.49,24.395"/>
	<path fill="#FFFFFF" d="M83.118,38.453c2.637-0.098,4.623-2.248,4.632-4.885c0.005-1.537,0.001-3.073,0.001-4.609
		c0-1.537,0.007-3.072-0.003-4.609c-0.013-2.409-1.697-4.439-4.1-4.764c-2.081-0.281-4.188-0.084-6.282-0.1
		c-3.258-0.024-5.454,2.313-5.286,5.547c0.019,0.354,0.114,0.463,0.461,0.455c0.878-0.019,1.759-0.045,2.633,0.007
		c0.576,0.034,0.73-0.14,0.713-0.712c-0.035-1.117,0.41-1.517,1.551-1.521c0.537-0.002,1.073,0,1.61,0
		c1.244,0,2.487-0.009,3.73,0.005c0.604,0.007,0.991,0.321,1.172,0.909c0.201,0.656-0.357,0.713-0.706,0.898
		c-2.834,1.504-5.684,2.977-8.513,4.49c-1.937,1.035-2.928,3.097-2.494,5.063c0.463,2.099,2.34,3.751,4.519,3.825
		C78.874,38.525,81,38.531,83.118,38.453 M77.185,34.681c-0.61,0.01-1.071-0.228-1.218-0.822c-0.135-0.544,0.284-0.826,0.702-1.047
		c2.233-1.177,4.477-2.338,6.701-3.531c0.511-0.274,0.647-0.207,0.632,0.379c-0.032,1.218,0,2.438-0.014,3.655
		c-0.011,0.967-0.423,1.357-1.394,1.361c-0.877,0.003-1.755,0.001-2.632,0.001C79.038,34.677,78.111,34.666,77.185,34.681"/>
	<path fill="#FFFFFF" d="M89.633,34.018c0.142,2.035,1.694,3.82,3.776,4.281v-0.851V5.486c0-0.122-0.014-0.246,0.004-0.365
		c0.064-0.443-0.098-0.601-0.561-0.58c-0.828,0.037-1.663,0.067-2.485-0.006c-0.69-0.061-0.777,0.207-0.776,0.814
		c0.019,9.239,0.013,18.479,0.015,27.72C89.605,33.385,89.61,33.703,89.633,34.018"/>
	<path fill="#FFFFFF" d="M66.732,33.285c0.018,2.357,1.211,4.116,3.166,4.872c0.45,0.175,0.654,0.19,0.646-0.427
		c-0.033-2.873-0.014-5.748-0.014-8.622c0-2.874-0.012-5.747,0.01-8.622c0.004-0.477-0.121-0.625-0.606-0.603
		c-0.899,0.04-1.803,0.035-2.702,0.001c-0.435-0.016-0.52,0.143-0.519,0.54C66.727,24.711,66.7,28.998,66.732,33.285"/>
	<path fill="#FFFFFF" d="M14.064,4.684c-0.004-0.486,0.146-0.606,0.617-0.608c1.804-0.005,1.804-0.022,1.804,1.752
		c0,2.535-0.003,5.072,0.005,7.607c0,0.262-0.074,0.537,0.079,0.786c0.097-3.426,0.042-6.852,0.028-10.279h-2.635
		c-0.006,3.479-0.012,6.958-0.018,10.436c0,0.194-0.005,0.393,0.15,0.545C14.089,11.511,14.091,8.097,14.064,4.684"/>
	<path fill="#FFFFFF" d="M24.963,4.216c0.489,0.383,0.147,1.414,0.149,2.157c0.013,2.802-0.004,5.602-0.011,8.404
		c0.173-0.178,0.146-0.406,0.146-0.62c-0.002-3.405-0.01-6.811-0.016-10.216h-2.635c0.009,0.062,0.017,0.122,0.026,0.183
		C23.424,4.076,24.419,3.791,24.963,4.216"/>
	<path fill="#FFFFFF" d="M2.108,7.162v7.318l0.062,0.01l0.062-0.003c0-2.443,0-4.888,0-7.332C2.19,7.149,2.148,7.152,2.108,7.162"/>
	<path fill="#FFFFFF" d="M10.305,3.943H5.328C5.327,3.984,5.325,4.025,5.32,4.066c1.664,0.002,3.326,0.004,4.99,0.006
		C10.299,4.029,10.297,3.986,10.305,3.943"/>
	<path fill="#FFFFFF" d="M45.722,3.943h-4.976c0.003,0.042,0,0.084-0.007,0.125h4.989C45.722,4.027,45.719,3.985,45.722,3.943"/>
	<path fill="#FFFFFF" d="M33.867,3.943h-4.977c0.008,0.043,0.006,0.086-0.005,0.129c1.663-0.002,3.325-0.004,4.989-0.006
		C33.871,4.025,33.868,3.984,33.867,3.943"/>
	<path fill="#FFFFFF" d="M52.016,3.943h-2.488c0.004,0.054,0.008,0.109,0.012,0.164c0.822,0,1.642,0,2.465,0
		C52.008,4.052,52.012,3.998,52.016,3.943"/>
	<path fill="#FFFFFF" d="M36.962,14.411c0.048-0.955,0.048-0.955-0.884-0.955c-0.34,0-0.684,0.022-1.022-0.006
		c-0.415-0.034-0.616,0.054-0.594,0.544c0.03,0.652-0.302,1.066-1.004,1.069c-1.364,0.007-2.73,0.001-4.094,0.003
		c-0.507,0.001-0.817-0.246-0.958-0.728c-0.148-0.503,0.243-0.62,0.559-0.786c1.979-1.043,3.958-2.081,5.936-3.124
		c1.506-0.794,2.266-2.123,2.027-3.537c-0.247-1.463-1.41-2.539-3.053-2.825c-1.664,0.003-3.326,0.005-4.99,0.007
		c-1.86,0.393-3.014,1.648-3.037,3.393c-0.027,2.242-0.029,4.483,0.002,6.725c0.024,1.783,1.414,3.301,3.118,3.365
		c1.63,0.061,3.266,0.058,4.896-0.001C35.496,17.496,36.879,16.041,36.962,14.411 M28.389,7.474C28.406,6.91,28.76,6.584,29.34,6.58
		c1.391-0.009,2.779-0.002,4.17-0.004c0.445,0,0.742,0.228,0.895,0.624c0.139,0.358-0.063,0.657-0.34,0.807
		c-1.853,0.999-3.721,1.97-5.686,3.004C28.379,9.749,28.355,8.61,28.389,7.474"/>
	<path fill="#FFFFFF" d="M5.852,17.578c1.291,0.003,2.584,0.003,3.875-0.001c2.173-0.007,3.623-1.45,3.627-3.61
		c0.003-2.046,0.001-4.094,0-6.141c0-2.07-1.026-3.334-3.043-3.754C8.646,4.07,6.984,4.068,5.32,4.066
		C3.543,4.379,2.537,5.383,2.232,7.155c0,2.444,0,4.889-0.001,7.332C2.564,16.466,3.858,17.572,5.852,17.578 M4.745,7.661
		c0.007-0.743,0.33-1.075,1.061-1.081c1.316-0.01,2.634-0.01,3.95,0c0.706,0.005,1.094,0.356,1.101,1.076
		c0.023,2.096,0.023,4.193,0,6.289c-0.008,0.774-0.38,1.113-1.133,1.117c-1.292,0.009-2.585,0.009-3.876,0.001
		c-0.781-0.005-1.097-0.325-1.104-1.112c-0.008-1.048-0.002-2.097-0.002-3.144C4.742,9.757,4.735,8.709,4.745,7.661"/>
	<path fill="#FFFFFF" d="M46.973,11.357c-2.05-1.064-4.1-2.13-6.146-3.203c-0.351-0.184-0.715-0.432-0.593-0.892
		c0.113-0.429,0.438-0.689,0.922-0.687c1.391,0.004,2.78,0,4.17,0.002c0.516,0.002,0.952,0.313,0.912,0.76
		c-0.086,0.985,0.493,0.885,1.107,0.852c0.292-0.016,0.588-0.026,0.877,0.003c0.421,0.043,0.588-0.058,0.588-0.541
		c-0.002-1.86-1.135-3.208-3.082-3.583h-4.989c-0.144,0.027-0.29,0.043-0.431,0.082c-1.483,0.414-2.498,1.605-2.624,3.072
		c-0.124,1.451,0.464,2.389,1.96,3.16c1.988,1.027,3.972,2.062,5.953,3.102c0.369,0.194,0.76,0.436,0.623,0.939
		c-0.131,0.483-0.514,0.672-1.01,0.669c-1.316-0.008-2.633-0.007-3.95-0.001c-0.529,0.003-1.034-0.235-1.013-0.732
		c0.042-1-0.54-0.92-1.185-0.882c-0.316,0.019-0.636,0.024-0.95-0.003c-0.368-0.031-0.435,0.132-0.449,0.466
		c-0.087,2.021,1.419,3.627,3.447,3.637c1.438,0.008,2.878,0.01,4.316,0c1.614-0.012,2.902-1.08,3.282-2.699
		C49.075,13.322,48.492,12.146,46.973,11.357"/>
	<path fill="#FFFFFF" d="M16.489,13.435c-0.007-2.535-0.004-5.071-0.004-7.607c0-1.773,0-1.757-1.804-1.752
		c-0.47,0.002-0.621,0.122-0.617,0.608c0.027,3.413,0.024,6.827,0.031,10.239c0.637,1.873,1.721,2.652,3.698,2.654
		c1.193,0.001,2.388,0,3.58,0c2.025-0.002,3.164-0.857,3.728-2.8c0.007-2.802,0.024-5.603,0.011-8.404
		c-0.003-0.743,0.34-1.774-0.149-2.157c-0.544-0.426-1.539-0.141-2.338-0.092c-0.002,3.258,0,6.517-0.006,9.775
		c-0.001,0.842-0.309,1.159-1.122,1.163c-1.288,0.007-2.577-0.003-3.866,0.004c-0.59,0.004-0.983-0.219-1.062-0.846
		C16.416,13.972,16.49,13.698,16.489,13.435"/>
	<path fill="#FFFFFF" d="M52.967,17.586c1.341-0.039,2.684-0.008,4.024-0.008c1.926,0,1.908,0,1.892-1.957
		c-0.004-0.461-0.136-0.574-0.578-0.565c-1.341,0.027-2.684-0.019-4.023,0.017c-2.361,0.061-2.261-0.109-2.264-2.41
		c-0.001-0.514,0.223-0.874,0.686-1.111c0.715-0.365,1.423-0.744,2.123-1.137c0.547-0.307,1.462-0.453,1.543-0.955
		c0.086-0.519-0.527-1.137-0.787-1.733c-0.176-0.406-0.354-0.393-0.703-0.196c-0.92,0.52-1.864,0.992-2.875,1.525V4.107
		c-0.822,0-1.643,0-2.465,0c-0.004,3.341,0.078,6.686-0.045,10.021C49.424,16.015,51.201,17.636,52.967,17.586"/>
	<path fill="#FFFFFF" d="M120.581,42.824c-0.063-0.561-0.623-0.918-0.993-0.637c-0.717,0.545-1.399-0.398-2.143,0.165
		c-0.36,0.272-0.552,0.021-0.552,0.619c0,0.194,0,0.39,0,0.585c0,0.365-0.004,0.73,0.002,1.096c0.003,0.185-0.046,0.426,0.263,0.404
		c0.264-0.02,0.19-0.24,0.196-0.395c0.021-0.461,0.017-0.925,0.047-1.385c0.029-0.423,0.267-0.702,0.7-0.681
		c0.46,0.022,0.393,0.415,0.398,0.723c0.011,0.463,0.002,0.926,0.004,1.389c0.001,0.171-0.012,0.353,0.242,0.358
		c0.253,0.006,0.254-0.168,0.256-0.345c0.007-0.512-0.005-1.024,0.026-1.534c0.026-0.404,0.289-0.614,0.688-0.594
		c0.395,0.02,0.433,0.324,0.433,0.635c0.001,0.512,0.002,1.023,0.003,1.535c0,0.156,0.025,0.293,0.225,0.299
		c0.186,0.007,0.259-0.096,0.256-0.27C120.619,44.137,120.654,43.474,120.581,42.824"/>
	<path fill="#FFFFFF" d="M87.914,42.172c-0.521,0.186-0.94,0.207-1.429-0.022c-0.294-0.138-0.526,0.251-0.798,0.228
		c-0.555-0.049-0.552-0.08-0.553,0.49c-0.001,0.244,0,0.488,0,0.73c0,0.342-0.008,0.684,0.003,1.023
		c0.005,0.178-0.077,0.438,0.231,0.437c0.309-0.003,0.218-0.264,0.226-0.438c0.024-0.51-0.052-1.026,0.083-1.528
		c0.094-0.352,0.348-0.535,0.706-0.494c0.36,0.042,0.355,0.348,0.358,0.617c0.005,0.487,0.002,0.975,0.002,1.463
		c0.001,0.198-0.016,0.412,0.285,0.387c0.256-0.021,0.209-0.224,0.213-0.385c0.013-0.512-0.002-1.024,0.035-1.533
		c0.027-0.371,0.29-0.558,0.648-0.556c0.392,0.001,0.463,0.288,0.464,0.607c0.002,0.512,0.003,1.022,0.001,1.534
		c0,0.188,0.021,0.35,0.269,0.33c0.198-0.016,0.215-0.158,0.214-0.312c-0.004-0.608,0.024-1.22-0.025-1.825
		C88.803,42.386,88.425,41.99,87.914,42.172"/>
	<path fill="#FFFFFF" d="M67.6,42.821c-0.064-0.562-0.623-0.913-0.997-0.634c-0.717,0.535-1.398-0.394-2.142,0.163
		c-0.358,0.269-0.548,0.016-0.548,0.625c-0.001,0.195-0.001,0.39,0,0.585c0,0.365-0.004,0.73,0.002,1.096
		c0.002,0.187-0.042,0.428,0.268,0.399c0.262-0.023,0.183-0.243,0.191-0.397c0.024-0.486,0.02-0.974,0.062-1.458
		c0.035-0.396,0.297-0.622,0.689-0.604c0.411,0.018,0.393,0.361,0.395,0.654c0.007,0.487,0.001,0.975,0.003,1.462
		c0.001,0.172-0.009,0.353,0.246,0.354c0.253,0.002,0.25-0.174,0.252-0.348c0.008-0.513-0.006-1.025,0.027-1.535
		c0.027-0.403,0.292-0.613,0.689-0.59c0.395,0.022,0.43,0.33,0.43,0.639c0.002,0.512,0.002,1.023,0.003,1.535
		c0,0.157,0.03,0.291,0.229,0.296c0.188,0.005,0.254-0.101,0.251-0.273C67.639,44.132,67.674,43.47,67.6,42.821"/>
	<path fill="#FFFFFF" d="M113.337,41.556c0-0.149-0.004-0.293-0.22-0.293c-0.196,0-0.245,0.108-0.243,0.275
		c0.002,0.268,0,0.536,0,0.866c-0.868-0.371-1.267-0.335-1.654,0.109c-0.429,0.494-0.51,1.44-0.155,1.993
		c0.273,0.427,0.66,0.645,1.179,0.537c0.273-0.057,0.514-0.427,0.826,0.004c0.093,0.129,0.273-0.058,0.271-0.274
		C113.335,43.703,113.339,42.63,113.337,41.556 M112.073,44.617c-0.648-0.027-0.732-0.571-0.724-1.063
		c0.008-0.475,0.151-0.968,0.757-0.962c0.648,0.006,0.732,0.518,0.774,1.044C112.815,44.122,112.725,44.644,112.073,44.617"/>
	<path fill="#FFFFFF" d="M94.551,41.265c-0.186-0.01-0.267,0.07-0.265,0.253c0.003,0.284,0.001,0.568,0.001,0.936
		c-0.606-0.369-1.152-0.479-1.638,0.044c-0.424,0.457-0.524,1.36-0.218,1.925c0.226,0.414,0.561,0.646,1.058,0.649
		c0.342,0.003,0.673-0.522,1.038-0.017c0.049,0.068,0.222-0.026,0.222-0.188c-0.001-1.122,0-2.242-0.001-3.364
		C94.748,41.373,94.712,41.274,94.551,41.265 M93.516,44.619c-0.655-0.008-0.757-0.541-0.753-1.035
		c0.004-0.504,0.147-1.024,0.799-0.99c0.645,0.033,0.691,0.568,0.735,1.051C94.222,44.137,94.122,44.626,93.516,44.619"/>
	<path fill="#FFFFFF" d="M105.662,41.299c-0.474-0.02-0.169,0.483-0.25,0.743c-0.028,0.088-0.004,0.192-0.004,0.354
		c-0.876-0.36-1.258-0.327-1.644,0.109c-0.415,0.468-0.51,1.366-0.205,1.93c0.314,0.582,0.872,0.763,1.478,0.496
		c0.109-0.048,0.241-0.331,0.359-0.059c0.08,0.182,0.179,0.217,0.324,0.185c0.253-0.054,0.149-0.271,0.15-0.419
		c0.01-0.854,0.027-1.708-0.01-2.56C105.85,41.812,106.107,41.318,105.662,41.299 M105.403,43.696
		c-0.044,0.489-0.195,0.955-0.8,0.922c-0.652-0.036-0.671-0.585-0.738-1.046c0.08-0.494,0.173-0.963,0.782-0.988
		C105.132,42.564,105.461,43.047,105.403,43.696"/>
	<path fill="#FFFFFF" d="M68.711,42.44c0-0.333,0.002-0.596,0-0.858c-0.002-0.143,0.02-0.296-0.196-0.316
		c-0.253-0.023-0.267,0.136-0.267,0.318c0.002,1.068,0.002,2.137,0,3.205c0,0.359,0.312,0.368,0.395,0.195
		c0.143-0.303,0.205-0.163,0.384-0.071c0.63,0.326,1.21,0.127,1.497-0.523c0.279-0.633,0.324-1.294-0.132-1.859
		C69.926,41.956,69.332,42.076,68.711,42.44 M69.501,44.618c-0.658,0.021-0.747-0.494-0.801-0.914
		c0.001-0.628,0.166-1.088,0.782-1.11c0.626-0.022,0.738,0.492,0.741,0.963C70.227,44.043,70.17,44.597,69.501,44.618"/>
	<path fill="#FFFFFF" d="M123.48,43.051c-0.035-0.55-0.314-0.808-0.785-0.886c-0.488-0.08-0.983-0.051-1.294,0.43
		c-0.062,0.096-0.187,0.268-0.021,0.38c0.119,0.081,0.308,0.092,0.391-0.054c0.154-0.268,0.374-0.361,0.867-0.323
		c0.04,0.006,0.317,0.007,0.354,0.325c0.04,0.357-0.257,0.348-0.49,0.385c-0.143,0.024-0.289,0.021-0.432,0.046
		c-0.396,0.069-0.764,0.181-0.89,0.632c-0.094,0.337-0.014,0.642,0.243,0.861c0.352,0.303,0.771,0.32,1.15,0.079
		c0.29-0.186,0.482-0.221,0.703,0.083c0.081,0.111,0.28,0.096,0.397,0.005c0.058-0.044,0.095-0.225,0.06-0.257
		C123.198,44.256,123.518,43.619,123.48,43.051 M122.206,44.623c-0.282,0.028-0.595-0.066-0.537-0.409
		c0.105-0.642,0.74-0.366,1.113-0.557c0.248-0.128,0.194,0.097,0.221,0.236C122.993,44.401,122.645,44.58,122.206,44.623"/>
	<path fill="#FFFFFF" d="M98.743,43.024c-0.029-0.515-0.299-0.76-0.737-0.849c-0.492-0.101-0.979-0.06-1.319,0.379
		c-0.076,0.097-0.126,0.329-0.069,0.391c0.118,0.131,0.335,0.129,0.436-0.044c0.144-0.243,0.34-0.328,0.746-0.315
		c0.128,0.006,0.435,0.013,0.459,0.365c0.023,0.344-0.285,0.324-0.519,0.359c-0.166,0.024-0.336,0.035-0.5,0.072
		c-0.653,0.149-0.938,0.534-0.796,1.061c0.146,0.537,0.717,0.799,1.292,0.536c0.31-0.141,0.536-0.328,0.839,0.037
		c0.11,0.134,0.582,0.036,0.409-0.201C98.556,44.229,98.776,43.617,98.743,43.024 M97.282,44.617
		c-0.171-0.042-0.321-0.116-0.354-0.311c-0.035-0.216,0.042-0.385,0.261-0.447c0.182-0.053,0.372-0.077,0.557-0.119
		c0.154-0.036,0.306-0.08,0.466-0.121C98.249,44.325,97.835,44.756,97.282,44.617"/>
	<path fill="#FFFFFF" d="M46.996,43.756c0.391-0.01,0.781-0.021,1.17,0.001c0.33,0.019,0.416-0.108,0.397-0.424
		c-0.042-0.717-0.509-1.192-1.212-1.192c-0.77,0.001-1.332,0.66-1.311,1.535c0.021,0.836,0.54,1.4,1.435,1.392
		c0.257-0.011,0.618-0.143,0.845-0.499c0.089-0.139,0.321-0.327,0.1-0.489c-0.191-0.141-0.32,0.058-0.461,0.209
		c-0.42,0.452-0.94,0.458-1.234,0.046c-0.104-0.145-0.182-0.307-0.111-0.478C46.685,43.683,46.864,43.758,46.996,43.756
		 M47.379,42.582c0.354,0.009,0.687,0.189,0.651,0.531c-0.045,0.432-0.477,0.074-0.704,0.236c-0.22-0.168-0.673,0.2-0.688-0.242
		C46.625,42.745,46.998,42.57,47.379,42.582"/>
	<path fill="#FFFFFF" d="M107.35,43.757c0.39-0.014,0.779-0.013,1.17-0.002c0.24,0.006,0.375-0.067,0.342-0.314
		c0.048-0.7-0.432-1.249-1.119-1.299c-0.756-0.054-1.326,0.503-1.398,1.37c-0.069,0.848,0.437,1.517,1.184,1.557
		c0.44,0.023,0.824-0.115,1.08-0.484c0.096-0.139,0.322-0.326,0.124-0.495c-0.181-0.153-0.33,0.016-0.462,0.187
		c-0.343,0.444-0.756,0.504-1.189,0.127c-0.149-0.132-0.245-0.328-0.173-0.527C106.983,43.661,107.197,43.761,107.35,43.757
		 M107.658,42.581c0.356,0.001,0.686,0.172,0.669,0.515c-0.024,0.465-0.468,0.079-0.675,0.252c-0.241-0.146-0.685,0.178-0.718-0.223
		C106.904,42.764,107.277,42.58,107.658,42.581"/>
	<path fill="#FFFFFF" d="M115.737,44.272c-0.341,0.445-0.754,0.508-1.189,0.132c-0.15-0.13-0.245-0.324-0.178-0.525
		c0.074-0.221,0.287-0.116,0.439-0.122c0.365-0.015,0.732-0.026,1.096,0.001c0.381,0.028,0.447-0.144,0.416-0.475
		c-0.067-0.717-0.554-1.172-1.257-1.143c-0.74,0.031-1.27,0.665-1.261,1.512c0.009,0.836,0.52,1.412,1.42,1.418
		c0.249-0.006,0.61-0.136,0.847-0.483c0.096-0.14,0.32-0.327,0.129-0.495C116.022,43.935,115.869,44.099,115.737,44.272
		 M115.122,42.581c0.355,0.001,0.688,0.172,0.669,0.515c-0.024,0.465-0.468,0.079-0.675,0.252c-0.241-0.147-0.685,0.178-0.718-0.223
		C114.369,42.763,114.741,42.58,115.122,42.581"/>
	<path fill="#FFFFFF" d="M39.67,43.748c0.39,0.021,0.781-0.011,1.17,0.009c0.314,0.015,0.467-0.085,0.401-0.392
		c-0.018-0.74-0.497-1.221-1.198-1.225c-0.754-0.004-1.295,0.592-1.318,1.453c-0.023,0.828,0.473,1.441,1.198,1.475
		c0.44,0.02,0.824-0.119,1.075-0.494c0.092-0.137,0.323-0.324,0.111-0.491c-0.188-0.146-0.32,0.046-0.463,0.198
		c-0.443,0.476-1.014,0.466-1.275-0.003C39.197,43.963,39.182,43.72,39.67,43.748 M40.043,42.582c0.353,0,0.685,0.171,0.668,0.514
		c-0.025,0.463-0.467,0.08-0.677,0.253l-0.122-0.038l-0.594-0.186C39.289,42.763,39.662,42.58,40.043,42.582"/>
	<path fill="#FFFFFF" d="M53.314,43.761c0.313-0.035,0.635-0.033,0.949-0.004c0.429,0.041,0.479-0.166,0.435-0.521
		c-0.09-0.706-0.6-1.15-1.296-1.095c-0.729,0.058-1.247,0.724-1.213,1.558c0.035,0.84,0.558,1.389,1.441,1.366
		c0.271-0.02,0.625-0.156,0.851-0.516c0.084-0.133,0.266-0.309,0.123-0.444c-0.166-0.159-0.345-0.055-0.465,0.147
		c-0.199,0.337-0.519,0.443-0.882,0.353c-0.311-0.076-0.526-0.307-0.509-0.631C52.77,43.567,53.117,43.784,53.314,43.761
		 M53.529,42.582c0.354,0.011,0.686,0.193,0.648,0.535c-0.047,0.439-0.494,0.016-0.677,0.259c-0.249-0.196-0.704,0.176-0.716-0.271
		C52.775,42.742,53.148,42.569,53.529,42.582"/>
	<path fill="#FFFFFF" d="M61.943,43.759c0.213-0.036,0.438-0.008,0.656-0.008c0.783-0.002,0.962-0.295,0.602-1
		c-0.225-0.44-0.621-0.589-1.094-0.619c-0.58,0.056-0.996,0.33-1.174,0.915c-0.197,0.652-0.154,1.265,0.381,1.745
		c0.5,0.449,1.367,0.355,1.76-0.178c0.107-0.145,0.315-0.358,0.169-0.504c-0.206-0.205-0.378-0.003-0.509,0.195
		c-0.199,0.304-0.505,0.381-0.834,0.301c-0.312-0.075-0.527-0.303-0.516-0.627C61.4,43.568,61.746,43.794,61.943,43.759
		 M62.1,42.582c0.384-0.011,0.748,0.164,0.712,0.542c-0.04,0.419-0.494,0.018-0.684,0.254c-0.242-0.203-0.692,0.182-0.708-0.281
		C61.407,42.769,61.748,42.591,62.1,42.582"/>
	<path fill="#FFFFFF" d="M73.42,43.761c0.312-0.039,0.634-0.028,0.949-0.005c0.337,0.026,0.41-0.12,0.392-0.429
		c-0.046-0.764-0.622-1.278-1.362-1.186c-0.795,0.1-1.301,0.926-1.119,1.827c0.171,0.843,0.837,1.277,1.602,1.048
		c0.318-0.096,0.575-0.268,0.717-0.578c0.054-0.118,0.204-0.262,0.02-0.367c-0.12-0.068-0.279-0.057-0.375,0.104
		c-0.155,0.266-0.363,0.458-0.699,0.452c-0.428,0-0.735-0.215-0.735-0.637C72.808,43.554,73.204,43.79,73.42,43.761 M73.583,42.582
		c0.354,0.013,0.686,0.197,0.645,0.538c-0.051,0.431-0.494,0.018-0.681,0.256c-0.246-0.198-0.702,0.178-0.712-0.274
		C72.829,42.739,73.203,42.568,73.583,42.582"/>
	<path fill="#FFFFFF" d="M78.801,43.757c0.365-0.017,0.733-0.027,1.097,0c0.373,0.028,0.452-0.133,0.422-0.471
		c-0.065-0.715-0.549-1.173-1.253-1.146c-0.743,0.028-1.271,0.656-1.266,1.507c0.006,0.835,0.515,1.414,1.253,1.423
		c0.384,0.002,0.728-0.117,0.967-0.422c0.122-0.154,0.363-0.376,0.177-0.551c-0.216-0.201-0.357,0.064-0.503,0.229
		c-0.347,0.395-0.744,0.434-1.146,0.082c-0.151-0.132-0.245-0.323-0.185-0.526C78.435,43.649,78.651,43.765,78.801,43.757
		 M79.129,42.581c0.354,0.006,0.687,0.183,0.659,0.523c-0.034,0.449-0.473,0.076-0.689,0.245c-0.23-0.16-0.678,0.19-0.703-0.233
		C78.375,42.754,78.748,42.575,79.129,42.581"/>
	<path fill="#FFFFFF" d="M90.491,43.761c0.312-0.036,0.635-0.035,0.949-0.004c0.435,0.045,0.477-0.184,0.441-0.524
		c-0.068-0.663-0.558-1.105-1.23-1.093c-0.745,0.015-1.278,0.629-1.289,1.531c0.027,0.584,0.224,1.125,0.877,1.333
		c0.561,0.179,1.065,0.048,1.42-0.454c0.089-0.126,0.268-0.307,0.123-0.443c-0.171-0.164-0.341-0.045-0.464,0.15
		c-0.204,0.327-0.522,0.441-0.887,0.348c-0.311-0.079-0.526-0.309-0.508-0.633C89.947,43.566,90.293,43.785,90.491,43.761
		 M90.65,42.58c0.39-0.009,0.749,0.179,0.706,0.551c-0.045,0.387-0.483,0.077-0.734,0.217c-0.199-0.179-0.654,0.22-0.662-0.258
		C89.954,42.761,90.297,42.589,90.65,42.58"/>
	<path fill="#FFFFFF" d="M127.639,43.062c-0.066-0.81-0.629-1.117-1.384-0.82c-0.131,0.053-0.195,0.266-0.419,0.139
		c-0.448-0.252-0.462-0.236-0.474,0.231c-0.009,0.316-0.002,0.631-0.002,0.946c0,0.363-0.004,0.729,0.002,1.092
		c0.003,0.184-0.052,0.425,0.256,0.411c0.307-0.015,0.219-0.265,0.226-0.438c0.018-0.461-0.018-0.926,0.04-1.381
		c0.05-0.394,0.307-0.66,0.742-0.654c0.47,0.006,0.527,0.359,0.54,0.712c0.017,0.46,0.003,0.922,0.009,1.383
		c0.003,0.16-0.043,0.364,0.215,0.379c0.305,0.017,0.269-0.21,0.269-0.399C127.657,44.129,127.683,43.592,127.639,43.062"/>
	<path fill="#FFFFFF" d="M57.67,42.984c-0.07-0.729-0.633-1.029-1.318-0.76c-0.154,0.062-0.322,0.218-0.451,0.188
		c-0.499-0.112-0.495-0.134-0.498,0.368c-0.001,0.268,0,0.537,0,0.805c0,0.367-0.002,0.732,0.002,1.099
		c0.002,0.165-0.033,0.364,0.221,0.378c0.314,0.018,0.258-0.223,0.262-0.407c0.01-0.438-0.017-0.88,0.021-1.315
		c0.036-0.432,0.267-0.742,0.74-0.75c0.521-0.008,0.549,0.393,0.562,0.768c0.016,0.463,0.004,0.928,0.006,1.391
		c0.002,0.148,0.006,0.298,0.209,0.313c0.242,0.018,0.279-0.132,0.275-0.323C57.693,44.154,57.727,43.564,57.67,42.984"/>
	<path fill="#FFFFFF" d="M35.582,43.064c-0.066-0.811-0.629-1.119-1.383-0.822c-0.132,0.052-0.196,0.265-0.42,0.141
		c-0.449-0.249-0.463-0.232-0.475,0.228c-0.008,0.315-0.002,0.631-0.002,0.946c0.001,0.389,0.003,0.776,0,1.165
		c0,0.181,0.009,0.351,0.256,0.342c0.256-0.009,0.227-0.201,0.229-0.366c0.011-0.484-0.019-0.975,0.038-1.453
		c0.047-0.395,0.305-0.66,0.74-0.656c0.471,0.005,0.529,0.357,0.541,0.71c0.018,0.461,0.004,0.922,0.011,1.383
		c0.003,0.159-0.046,0.364,0.212,0.381c0.305,0.018,0.271-0.206,0.271-0.396C35.6,44.131,35.625,43.594,35.582,43.064"/>
	<path fill="#FFFFFF" d="M44.053,42.947c-0.07-0.683-0.626-0.98-1.271-0.739c-0.155,0.058-0.307,0.221-0.448,0.208
		c-0.543-0.052-0.541-0.071-0.542,0.53v0.655c0,0.291-0.021,0.585,0.008,0.873c0.021,0.207-0.162,0.56,0.222,0.578
		c0.405,0.021,0.235-0.343,0.251-0.547c0.035-0.434-0.011-0.877,0.056-1.305c0.062-0.397,0.341-0.641,0.773-0.612
		c0.422,0.029,0.484,0.356,0.496,0.682c0.018,0.484,0.009,0.971,0.01,1.456c0,0.18,0.01,0.351,0.258,0.34
		c0.195-0.01,0.229-0.142,0.227-0.301C44.081,44.158,44.115,43.549,44.053,42.947"/>
	<path fill="#FFFFFF" d="M82.258,43.394c-0.095-0.02-0.187-0.053-0.28-0.076c-0.277-0.07-0.672-0.091-0.525-0.504
		c0.117-0.332,0.487-0.248,0.774-0.203c0.18,0.026,0.278,0.17,0.384,0.31c0.098,0.131,0.263,0.148,0.383,0.043
		c0.109-0.097,0.018-0.221-0.038-0.322c-0.285-0.519-0.767-0.564-1.265-0.471c-0.414,0.076-0.703,0.328-0.721,0.793
		c-0.021,0.562,0.433,0.633,0.816,0.77c0.09,0.033,0.193,0.026,0.282,0.062c0.234,0.093,0.565,0.054,0.627,0.397
		c0.027,0.156-0.084,0.271-0.225,0.339c-0.278,0.134-0.567,0.16-0.835-0.001c-0.113-0.068-0.199-0.205-0.264-0.328
		c-0.089-0.17-0.229-0.199-0.363-0.131c-0.188,0.096-0.056,0.26-0.015,0.376c0.175,0.485,0.565,0.63,1.045,0.627
		c0.559-0.022,1.029-0.206,1.103-0.829C83.212,43.63,82.73,43.496,82.258,43.394"/>
	<path fill="#FFFFFF" d="M100.748,43.409c-0.095-0.02-0.185-0.062-0.279-0.081c-0.235-0.049-0.497-0.053-0.601-0.329
		c-0.048-0.126,0.002-0.245,0.117-0.312c0.273-0.162,0.562-0.151,0.832-0.009c0.1,0.053,0.154,0.182,0.24,0.264
		c0.096,0.094,0.233,0.115,0.335,0.053c0.181-0.109,0.062-0.254-0.009-0.368c-0.346-0.557-0.864-0.569-1.409-0.404
		c-0.358,0.108-0.558,0.374-0.565,0.764c-0.007,0.386,0.231,0.562,0.561,0.66c0.301,0.089,0.604,0.175,0.905,0.263
		c0.152,0.045,0.264,0.139,0.262,0.305c-0.002,0.159-0.102,0.275-0.247,0.327c-0.418,0.148-0.82,0.192-1.06-0.289
		c-0.095-0.192-0.228-0.27-0.399-0.166c-0.173,0.103-0.034,0.268,0.009,0.383c0.183,0.482,0.581,0.614,1.056,0.604
		c0.531-0.02,0.976-0.194,1.075-0.775C101.677,43.681,101.237,43.509,100.748,43.409"/>
	<path fill="#FFFFFF" d="M59.629,43.41c-0.119-0.022-0.234-0.065-0.352-0.095c-0.254-0.062-0.607-0.082-0.526-0.448
		c0.083-0.379,0.453-0.289,0.734-0.27c0.208,0.015,0.327,0.172,0.448,0.335c0.094,0.124,0.272,0.139,0.385,0.024
		c0.094-0.097,0.004-0.223-0.056-0.326c-0.293-0.514-0.774-0.552-1.271-0.456c-0.416,0.082-0.698,0.341-0.707,0.805
		c-0.012,0.563,0.449,0.621,0.828,0.76c0.09,0.033,0.197,0.023,0.282,0.061c0.241,0.108,0.701,0.062,0.593,0.473
		c-0.12,0.446-0.564,0.388-0.926,0.319c-0.164-0.03-0.301-0.155-0.359-0.333c-0.065-0.203-0.223-0.284-0.391-0.177
		c-0.199,0.129-0.033,0.318,0.026,0.447c0.196,0.431,0.578,0.557,1.026,0.543c0.566-0.016,1.023-0.223,1.092-0.84
		C60.519,43.666,60.091,43.501,59.629,43.41"/>
	<path fill="#FFFFFF" d="M38.282,42.152c-0.254-0.077-0.317,0.133-0.38,0.327c-0.194,0.605-0.398,1.208-0.66,1.999
		c-0.194-0.599-0.281-1.028-0.473-1.404c-0.172-0.342,0.025-1.034-0.824-0.901c0.315,0.863,0.609,1.685,0.918,2.5
		c0.063,0.165,0.07,0.409,0.351,0.392c0.264-0.016,0.267-0.249,0.334-0.417c0.269-0.677,0.532-1.354,0.779-2.038
		C38.379,42.466,38.597,42.249,38.282,42.152"/>
	<path fill="#FFFFFF" d="M77.076,41.258c-0.287-0.022-0.299,0.17-0.299,0.379c0.003,0.51,0.002,1.021,0.002,1.53
		s-0.002,1.021,0,1.53c0,0.169-0.02,0.355,0.229,0.375c0.288,0.022,0.299-0.169,0.299-0.379c-0.002-1.02-0.001-2.04-0.002-3.06
		C77.305,41.465,77.324,41.278,77.076,41.258"/>
	<path fill="#FFFFFF" d="M71.504,41.257c-0.296-0.017-0.286,0.191-0.286,0.391c-0.001,0.485-0.001,0.971-0.001,1.457
		c0,0.51-0.005,1.02,0.002,1.53c0.003,0.181-0.061,0.414,0.238,0.437c0.295,0.022,0.287-0.19,0.287-0.389c0-1.021,0-2.04,0-3.06
		C71.744,41.451,71.75,41.272,71.504,41.257"/>
	<path fill="#FFFFFF" d="M45.45,44.589c-0.206-0.063-0.185-0.289-0.147-0.438c0.138-0.56-0.4-1.296,0.428-1.68
		c0.021-0.01,0.008-0.091,0.012-0.141c-0.006-0.268-0.26-0.144-0.378-0.237c-0.222-0.174,0.171-0.688-0.313-0.664
		c-0.423,0.022-0.041,0.535-0.293,0.681c-0.144,0.083-0.429,0.179-0.277,0.298c0.747,0.592,0.197,1.374,0.355,2.043
		c0.045,0.191,0.049,0.394,0.222,0.515c0.213,0.149,0.499,0.204,0.655,0.002C45.861,44.774,45.664,44.656,45.45,44.589"/>
	<path fill="#FFFFFF" d="M124.7,42.421c-0.001-0.158-0.049-0.28-0.24-0.286c-0.184-0.005-0.262,0.092-0.262,0.263
		c-0.002,0.798-0.002,1.593-0.002,2.391c0,0.163,0.054,0.278,0.24,0.287c0.245,0.011,0.265-0.157,0.266-0.336
		c0.001-0.362,0-0.725,0-1.087C124.7,43.242,124.702,42.832,124.7,42.421"/>
	<path fill="#FFFFFF" d="M32.361,42.135c-0.192,0.015-0.224,0.148-0.224,0.305c0,0.772,0.001,1.545-0.001,2.317
		c0,0.194,0.053,0.334,0.285,0.316c0.192-0.015,0.222-0.152,0.223-0.305c0.002-0.386,0-0.773,0-1.159c0-0.386,0-0.772,0.001-1.159
		C32.646,42.259,32.592,42.117,32.361,42.135"/>
	<path fill="#FFFFFF" d="M95.87,42.539c-0.003-0.188,0.035-0.414-0.27-0.402c-0.245,0.008-0.237,0.19-0.237,0.361
		c-0.001,0.748-0.001,1.496-0.001,2.245c0,0.184,0.027,0.344,0.27,0.332c0.246-0.013,0.236-0.194,0.238-0.363
		c0.003-0.362,0.001-0.725,0.001-1.087C95.871,43.263,95.875,42.901,95.87,42.539"/>
	<path fill="#FFFFFF" d="M50.194,42.153c-0.323,0.302-0.64,0.073-0.958,0.022v2.858h0.289c0.064-0.669-0.148-1.357,0.133-2.012
		c0.09-0.345,0.389-0.377,0.663-0.437c0.194-0.043,0.222-0.182,0.173-0.326C50.449,42.129,50.269,42.084,50.194,42.153"/>
	<path fill="#FFFFFF" d="M91.155,41.15c-0.734-0.166-0.688,0.453-0.867,0.817C90.731,41.86,90.931,41.522,91.155,41.15"/>
	<path fill="#FFFFFF" d="M124.505,41.71c0.141-0.013,0.204-0.107,0.193-0.248c-0.016-0.197-0.155-0.223-0.308-0.206
		c-0.139,0.016-0.208,0.104-0.198,0.189C124.211,41.706,124.355,41.724,124.505,41.71"/>
	<path fill="#FFFFFF" d="M95.673,41.256c-0.149-0.016-0.292,0.006-0.308,0.205c-0.011,0.143,0.054,0.233,0.194,0.248
		c0.151,0.018,0.293-0.006,0.315-0.306C95.88,41.361,95.811,41.269,95.673,41.256"/>
	<path fill="#FFFFFF" d="M32.422,41.714c0.086-0.013,0.202-0.03,0.217-0.19c0.018-0.18-0.065-0.271-0.242-0.27
		c-0.127,0-0.237,0.031-0.254,0.188C32.123,41.625,32.207,41.709,32.422,41.714"/>
</g>
</svg>
