<?xml version="1.0" encoding="utf-8"?>
<!-- Generator: Adobe Illustrator 17.0.0, SVG Export Plug-In . SVG Version: 6.00 Build 0)  -->
<!DOCTYPE svg PUBLIC "-//W3C//DTD SVG 1.1//EN" "http://www.w3.org/Graphics/SVG/1.1/DTD/svg11.dtd">
<svg version="1.1" id="Calque_1" xmlns="http://www.w3.org/2000/svg" xmlns:xlink="http://www.w3.org/1999/xlink" x="0px" y="0px"
	 width="182.25px" height="52.25px" viewBox="0 0 182.25 52.25" enable-background="new 0 0 182.25 52.25" xml:space="preserve">
<g>
	<path fill="#FFFFFF" d="M69.879,20.063c0.018-0.051,0.036-0.087,0.036-0.139c0-0.14-0.123-0.263-0.297-0.263h-1.919
		c-0.157,0-0.28,0.14-0.331,0.28l-2.093,5.198c-0.123,0.297-0.228,0.35-0.314,0.35c-0.069,0-0.175-0.053-0.296-0.35l-2.094-5.198
		c-0.052-0.141-0.174-0.28-0.331-0.28h-1.937c-0.174,0-0.28,0.123-0.28,0.263c0,0.033,0.018,0.088,0.035,0.139l1.775,4.08
		c0,0.003,0.001,0.005,0.002,0.009l1.921,4.413v3.71c0,0.191,0.138,0.349,0.331,0.349h1.745c0.192,0,0.331-0.157,0.331-0.349v-3.71
		l1.124-2.584L69.879,20.063z"/>
	<path fill="#FFFFFF" d="M44.986,27.792c-0.453,0-1.151-0.053-1.554-0.07v4.555c0,0.191-0.142,0.347-0.331,0.347h-1.746
		c-0.191,0-0.346-0.155-0.346-0.347V20.272c0-0.348,0.208-0.471,0.558-0.523c0.908-0.139,2.146-0.227,3.419-0.227
		c2.687,0,5.024,0.943,5.024,4.03v0.158C50.01,26.797,47.673,27.792,44.986,27.792 M47.601,23.552c0-1.467-0.871-2.023-2.615-2.023
		c-0.367,0-1.239,0.032-1.554,0.069v4.151c0.28,0.018,1.257,0.053,1.554,0.053c1.884,0,2.615-0.696,2.615-2.093V23.552z"/>
	<path fill="#FFFFFF" d="M60.285,32.622h-1.852c-0.154,0-0.295-0.136-0.33-0.293l-0.802-3.314h-4.013l-0.804,3.314
		c-0.034,0.157-0.174,0.293-0.331,0.293h-1.848c-0.176,0-0.316-0.12-0.316-0.293c0-0.018,0.017-0.053,0.017-0.088l2.862-10.939
		c0.42-1.622,1.676-1.779,2.427-1.779c0.75,0,2.006,0.157,2.427,1.779l2.86,10.939c0,0.035,0.017,0.069,0.017,0.088
		C60.599,32.502,60.458,32.622,60.285,32.622 M55.572,21.841c-0.05-0.209-0.103-0.279-0.276-0.279c-0.176,0-0.229,0.07-0.28,0.279
		l-1.257,5.184h3.07L55.572,21.841z"/>
	<path fill="#FFFFFF" d="M74.689,32.765c-1.309,0-2.252-0.123-3.088-0.315c-0.173-0.034-0.332-0.156-0.332-0.351v-1.253
		c0-0.192,0.158-0.333,0.332-0.333h0.034c0.7,0.087,2.444,0.175,3.089,0.175c1.554,0,2.023-0.559,2.023-1.569
		c0-0.681-0.333-1.03-1.482-1.712l-2.304-1.377c-1.624-0.96-2.058-1.973-2.058-3.193c0-1.921,1.116-3.314,4.362-3.314
		c1.149,0,2.757,0.175,3.348,0.314c0.177,0.033,0.315,0.156,0.315,0.33v1.292c0,0.174-0.123,0.314-0.295,0.314h-0.037
		c-1.15-0.106-2.302-0.175-3.435-0.175c-1.292,0-1.834,0.453-1.834,1.238c0,0.576,0.299,0.924,1.433,1.553l2.093,1.17
		c1.918,1.065,2.424,2.18,2.424,3.56C79.277,30.882,78.177,32.765,74.689,32.765"/>
	<path fill="#FFFFFF" d="M89.625,32.765c-1.24,0-2.914-0.123-3.439-0.21c-0.295-0.054-0.452-0.193-0.452-0.541V20.272
		c0-0.348,0.156-0.489,0.452-0.541c0.525-0.088,2.199-0.209,3.439-0.209c3.489,0,5.479,1.885,5.479,5.338v2.566
		C95.104,30.882,93.114,32.765,89.625,32.765 M92.695,24.86c0-2.616-1.328-3.298-3.07-3.298c-0.646,0-1.1,0.036-1.467,0.054v9.055
		c0.367,0.018,0.821,0.052,1.467,0.052c1.743,0,3.07-0.68,3.07-3.296V24.86z"/>
	<path fill="#FFFFFF" d="M104.435,32.52c-0.558,0.086-1.238,0.244-3.312,0.244c-2.27,0-4.031-0.61-4.031-3.576v-6.091
		c0-2.964,1.762-3.575,4.031-3.575c2.075,0,2.755,0.157,3.312,0.244c0.264,0.035,0.351,0.122,0.351,0.367v1.115
		c0,0.192-0.159,0.351-0.351,0.351h-3.559c-1.012,0-1.376,0.35-1.376,1.498v1.886h4.726c0.192,0,0.349,0.155,0.349,0.35v1.256
		c0,0.191-0.157,0.349-0.349,0.349H99.5v2.251c0,1.15,0.364,1.5,1.376,1.5h3.559c0.192,0,0.351,0.157,0.351,0.349v1.117
		C104.786,32.397,104.698,32.486,104.435,32.52"/>
	<path fill="#FFFFFF" d="M118.5,32.52c-0.526,0.123-2.042,0.244-2.966,0.244c-2.271,0-4.03-0.61-4.03-3.576v-9.177
		c0-0.194,0.153-0.35,0.347-0.35h1.726c0.193,0,0.347,0.155,0.347,0.35v9.177c0,1.15,0.354,1.5,1.367,1.5h3.21
		c0.19,0,0.348,0.157,0.348,0.349v1.117C118.848,32.397,118.76,32.467,118.5,32.52"/>
	<path fill="#FFFFFF" d="M129.823,32.622h-1.849c-0.158,0-0.297-0.136-0.332-0.293l-0.801-3.314h-4.016l-0.805,3.314
		c-0.032,0.157-0.174,0.293-0.331,0.293h-1.847c-0.177,0-0.315-0.12-0.315-0.293c0-0.018,0.018-0.053,0.018-0.088l2.86-10.939
		c0.419-1.622,1.676-1.779,2.426-1.779c0.753,0,2.009,0.157,2.425,1.779l2.862,10.939c0,0.035,0.016,0.069,0.016,0.088
		C130.135,32.502,129.996,32.622,129.823,32.622 M125.112,21.841c-0.054-0.209-0.105-0.279-0.28-0.279
		c-0.175,0-0.228,0.07-0.276,0.279l-1.258,5.184h3.069L125.112,21.841z"/>
	<path fill="#FFFFFF" d="M143.134,32.52c-0.523,0.123-2.041,0.244-2.963,0.244c-2.271,0-4.034-0.61-4.034-3.576v-9.177
		c0-0.194,0.158-0.35,0.35-0.35h1.728c0.192,0,0.349,0.155,0.349,0.35v9.177c0,1.15,0.35,1.5,1.361,1.5h3.21
		c0.193,0,0.349,0.157,0.349,0.349v1.117C143.483,32.397,143.394,32.467,143.134,32.52"/>
	<path fill="#FFFFFF" d="M149.15,32.765c-2.878,0-4.973-1.606-4.973-5.442v-2.357c0-3.838,2.095-5.443,4.973-5.443
		c2.879,0,4.972,1.605,4.972,5.443v2.357C154.123,31.159,152.03,32.765,149.15,32.765 M151.681,24.966
		c0-2.303-0.822-3.333-2.53-3.333c-1.711,0-2.53,1.03-2.53,3.333v2.357c0,2.302,0.819,3.331,2.53,3.331
		c1.708,0,2.53-1.029,2.53-3.331V24.966z"/>
	<path fill="#FFFFFF" d="M158.468,32.622h-1.726c-0.194,0-0.349-0.154-0.349-0.345V19.993c0-0.191,0.155-0.331,0.349-0.331h1.726
		c0.192,0,0.349,0.14,0.349,0.331v12.284C158.817,32.467,158.66,32.622,158.468,32.622"/>
	<path fill="#FFFFFF" d="M170.645,32.623h-2.129c-0.189,0-0.263-0.173-0.349-0.347l-2.512-4.658h-0.243
		c-0.456,0-1.154-0.053-1.556-0.07v4.728c0,0.191-0.138,0.347-0.333,0.347h-1.741c-0.193,0-0.349-0.155-0.349-0.347V20.272
		c0-0.348,0.209-0.471,0.559-0.523c0.906-0.14,2.144-0.227,3.419-0.227c2.688,0,5.022,0.96,5.022,3.943v0.157
		c0,1.851-0.924,3.001-2.356,3.559l2.743,5.095c0.033,0.053,0.033,0.104,0.033,0.14C170.854,32.537,170.784,32.623,170.645,32.623
		 M168.03,23.466c0-1.312-0.875-1.867-2.617-1.867c-0.368,0-1.24,0.034-1.556,0.068v3.928c0.28,0.017,1.258,0.053,1.556,0.053
		c1.796,0,2.617-0.49,2.617-2.024V23.466z"/>
	<path fill="#FFFFFF" d="M179.734,32.52c-0.56,0.086-1.239,0.244-3.315,0.244c-2.27,0-4.033-0.61-4.033-3.576v-6.091
		c0-2.964,1.763-3.575,4.033-3.575c2.076,0,2.755,0.157,3.315,0.244c0.261,0.035,0.349,0.122,0.349,0.367v1.115
		c0,0.192-0.156,0.351-0.349,0.351h-3.561c-1.011,0-1.377,0.35-1.377,1.498v1.886h4.727c0.192,0,0.349,0.155,0.349,0.35v1.256
		c0,0.191-0.157,0.349-0.349,0.349h-4.727v2.251c0,1.15,0.366,1.5,1.377,1.5h3.561c0.192,0,0.349,0.157,0.349,0.349v1.117
		C180.082,32.397,179.995,32.486,179.734,32.52"/>
	<path fill="#FFFFFF" d="M45.054,14.614h-0.937c-0.085,0-0.114-0.078-0.154-0.154l-1.106-2.053h-0.109
		c-0.199,0-0.505-0.024-0.684-0.03v2.083c0,0.085-0.062,0.154-0.145,0.154H41.15c-0.084,0-0.153-0.069-0.153-0.154V9.172
		c0-0.154,0.092-0.208,0.244-0.231c0.401-0.061,0.946-0.1,1.507-0.1c1.185,0,2.215,0.424,2.215,1.738v0.067
		c0,0.816-0.408,1.324-1.039,1.568l1.207,2.245c0.016,0.023,0.016,0.045,0.016,0.061C45.147,14.575,45.116,14.614,45.054,14.614
		 M43.901,10.579c0-0.578-0.384-0.824-1.153-0.824c-0.161,0-0.544,0.016-0.684,0.031v1.729c0.123,0.009,0.555,0.023,0.684,0.023
		c0.792,0,1.153-0.214,1.153-0.892V10.579z"/>
	<path fill="#FFFFFF" d="M49.311,12.799h-2.506v0.023c0,0.446,0.185,0.976,0.924,0.976c0.56,0,1.09-0.045,1.413-0.075h0.024
		c0.076,0,0.139,0.038,0.139,0.114v0.508c0,0.124-0.023,0.177-0.163,0.2c-0.499,0.091-0.8,0.13-1.492,0.13
		c-0.769,0-1.86-0.416-1.86-1.93v-0.568c0-1.199,0.67-1.953,1.846-1.953c1.184,0,1.83,0.807,1.83,1.953v0.431
		C49.466,12.729,49.418,12.799,49.311,12.799 M48.443,12.046c0-0.6-0.33-0.944-0.808-0.944c-0.478,0-0.823,0.338-0.823,0.944v0.031
		h1.631V12.046z M48.897,8.742l-0.908,0.953c-0.062,0.068-0.092,0.099-0.184,0.099h-0.661c-0.047,0-0.07-0.023-0.07-0.056
		c0-0.021,0.009-0.054,0.032-0.074l0.728-0.922c0.07-0.086,0.102-0.117,0.201-0.117h0.807c0.055,0,0.086,0.024,0.086,0.055
		C48.929,8.694,48.919,8.718,48.897,8.742"/>
	<path fill="#FFFFFF" d="M54.139,10.977l-0.254,0.101c0.122,0.176,0.191,0.346,0.191,0.613v0.055c0,0.96-0.66,1.398-1.821,1.398
		c-0.407,0-0.685-0.07-0.838-0.131c-0.094,0.061-0.13,0.131-0.13,0.2c0,0.153,0.084,0.215,0.26,0.254l0.908,0.215
		c1.045,0.247,1.721,0.407,1.721,1.23v0.055c0,0.783-0.576,1.205-1.883,1.205c-1.245,0-1.906-0.468-1.906-1.275v-0.068
		c0-0.315,0.146-0.623,0.391-0.845c-0.212-0.162-0.344-0.431-0.344-0.71v-0.006c0-0.24,0.1-0.478,0.307-0.623
		c-0.231-0.237-0.315-0.516-0.315-0.898v-0.055c0-0.768,0.5-1.414,1.83-1.414h1.798c0.115,0,0.207,0.093,0.207,0.207v0.323
		C54.261,10.924,54.23,10.939,54.139,10.977 M53.163,14.913c0-0.168-0.1-0.269-0.907-0.461L51.57,14.29
		c-0.114,0.162-0.191,0.263-0.191,0.539v0.068c0,0.316,0.191,0.508,0.915,0.508c0.738,0,0.869-0.162,0.869-0.438V14.913z
		 M53.077,11.708c0-0.369-0.162-0.652-0.822-0.652c-0.653,0-0.831,0.291-0.831,0.652v0.062c0,0.284,0.116,0.607,0.831,0.607
		c0.638,0,0.822-0.223,0.822-0.607V11.708z"/>
	<path fill="#FFFFFF" d="M56.037,9.702h-0.745c-0.085,0-0.161-0.07-0.161-0.154V8.871c0-0.083,0.076-0.152,0.161-0.152h0.745
		c0.084,0,0.154,0.069,0.154,0.152v0.677C56.19,9.632,56.121,9.702,56.037,9.702 M56.014,14.614h-0.708
		c-0.084,0-0.153-0.078-0.153-0.162v-4.02c0-0.084,0.068-0.154,0.153-0.154h0.708c0.083,0,0.152,0.07,0.152,0.154v4.02
		C56.166,14.536,56.097,14.614,56.014,14.614"/>
	<path fill="#FFFFFF" d="M59.051,14.674c-1.208,0-1.837-0.814-1.837-1.914v-0.622c0-1.1,0.629-1.915,1.837-1.915
		c1.206,0,1.836,0.815,1.836,1.915v0.622C60.887,13.86,60.257,14.674,59.051,14.674 M59.873,12.138c0-0.63-0.284-1.037-0.822-1.037
		c-0.539,0-0.823,0.407-0.823,1.037v0.622c0,0.631,0.284,1.037,0.823,1.037c0.538,0,0.822-0.406,0.822-1.037V12.138z"/>
	<path fill="#FFFFFF" d="M65.306,14.614h-0.707c-0.085,0-0.154-0.078-0.154-0.162v-2.507c0-0.667-0.062-0.858-0.654-0.858
		c-0.26,0-0.543,0.106-0.868,0.276v3.089c0,0.084-0.068,0.162-0.154,0.162h-0.706c-0.085,0-0.153-0.078-0.153-0.162v-4.02
		c0-0.084,0.068-0.154,0.153-0.154h0.669c0.084,0,0.153,0.07,0.153,0.154v0.16c0.446-0.284,0.738-0.369,1.246-0.369
		c1.108,0,1.331,0.746,1.331,1.722v2.507C65.461,14.536,65.391,14.614,65.306,14.614"/>
	<path fill="#FFFFFF" d="M20.872,26.135c0-9.717-3.768-18.547-9.927-25.174h-8.38c7.552,5.819,12.424,14.926,12.424,25.174
		c0,10.267-4.872,19.365-12.432,25.184h8.389C17.103,44.696,20.872,35.859,20.872,26.135"/>
	<path fill="#FFFFFF" d="M25.121,26.261c0-9.407-2.994-18.138-8.087-25.3h11.583c4.25,7.481,6.676,16.117,6.676,25.3
		c0,9.096-2.374,17.641-6.524,25.058H17.192C22.19,44.21,25.121,35.582,25.121,26.261"/>
</g>
</svg>
