<?xml version="1.0" encoding="utf-8"?>
<!-- Generator: Adobe Illustrator 17.0.0, SVG Export Plug-In . SVG Version: 6.00 Build 0)  -->
<!DOCTYPE svg PUBLIC "-//W3C//DTD SVG 1.1//EN" "http://www.w3.org/Graphics/SVG/1.1/DTD/svg11.dtd">
<svg version="1.1" id="Calque_1" xmlns="http://www.w3.org/2000/svg" xmlns:xlink="http://www.w3.org/1999/xlink" x="0px" y="0px"
	 width="48.75px" height="53.5px" viewBox="0 0 48.75 53.5" enable-background="new 0 0 48.75 53.5" xml:space="preserve">
<g>
	<path fill="#FFFFFF" d="M24.435,52.25c-0.763-0.249-0.975-0.832-1.139-1.572c-0.274-1.24-0.602-2.493-1.1-3.659
		c-1.188-2.776-3.508-4.178-6.33-4.872c-1.869-0.459-3.763-0.823-5.613-1.348c-2.371-0.673-4.409-1.926-5.863-3.967
		c-1.315-1.844-1.716-3.89-1.024-6.074c0.18-0.569,0.564-1.075,0.896-1.685c0.026,0.069,0.022,0.009-0.008-0.014
		c-1.597-1.159-2.361-2.808-2.721-4.679c-0.439-2.285-0.425-4.557,0.305-6.789c0.753-2.302,2.163-3.908,4.756-4.337
		c-0.148-0.184-0.242-0.316-0.352-0.436c-1.064-1.157-1.947-2.425-2.295-3.983C3.282,5.847,4.905,3.029,7.852,2.014
		c1.748-0.603,3.544-0.629,5.338-0.334c1.586,0.26,3.149,0.67,4.734,0.931c1.439,0.236,2.904,0.341,4.317-0.143
		c0.51-0.174,0.961-0.521,1.436-0.795c0.256-0.149,0.506-0.309,0.758-0.464h0.285c0.336,0.228,0.682,0.443,1.008,0.685
		c0.822,0.608,1.771,0.814,2.762,0.868c1.624,0.085,3.218-0.145,4.789-0.533c1.707-0.423,3.423-0.788,5.194-0.693
		c2.201,0.118,4.219,0.705,5.687,2.491c1.059,1.286,1.523,2.819,1.724,4.446c0.311,2.522-0.183,4.904-1.231,7.192
		c-0.026,0.058-0.051,0.116-0.069,0.177c-0.007,0.027,0.005,0.061,0.013,0.127c0.087,0.026,0.186,0.078,0.287,0.085
		c1.17,0.084,2.041,0.683,2.478,1.725c0.373,0.89,0.658,1.857,0.76,2.812c0.198,1.857,0.016,3.694-0.758,5.435
		c-0.573,1.288-1.412,2.355-2.629,3.148c0.083,0.125,0.139,0.233,0.216,0.323c0.674,0.796,0.941,1.749,1.023,2.755
		c0.229,2.798-0.984,4.919-3.141,6.586c-1.81,1.399-3.919,2.073-6.117,2.545c-1.357,0.293-2.714,0.59-4.054,0.951
		c-3.285,0.888-5.375,3.015-6.332,6.264c-0.196,0.665-0.39,1.342-0.475,2.025c-0.095,0.773-0.354,1.363-1.134,1.627H24.435z
		 M47.773,21.475c0.024-0.861-0.113-2.065-0.605-3.204c-0.565-1.306-1.45-1.856-2.862-1.809c-0.313,0.011-0.415-0.11-0.297-0.401
		c0.041-0.103,0.097-0.199,0.145-0.299c1.306-2.685,1.807-5.481,1.127-8.427c-0.639-2.767-2.286-4.569-5.112-5.181
		c-1.762-0.381-3.525-0.27-5.268,0.125C32.803,2.754,30.718,3.29,28.54,3.17c-1.256-0.068-2.438-0.342-3.398-1.243
		c-0.351-0.331-0.764-0.341-1.11-0.015c-0.998,0.941-2.226,1.207-3.534,1.261c-1.576,0.065-3.123-0.162-4.646-0.535
		c-1.787-0.436-3.578-0.811-5.432-0.7C8.976,2.024,7.596,2.342,6.413,3.221C4.898,4.346,4.131,5.876,4.201,7.762
		c0.055,1.473,0.691,2.749,1.596,3.886c0.413,0.52,0.892,0.985,1.329,1.485c0.083,0.096,0.104,0.244,0.154,0.369
		c-0.111,0.043-0.219,0.102-0.334,0.127c-0.278,0.059-0.563,0.086-0.838,0.152c-2.043,0.488-3.181,1.914-3.832,3.793
		C1.5,19.812,1.47,22.102,1.947,24.402c0.382,1.838,1.141,3.453,2.823,4.48c0.291,0.178,0.193,0.351-0.019,0.516
		c-0.658,0.514-0.998,1.212-1.165,2.009c-0.411,1.947,0.049,3.71,1.21,5.285c1.45,1.964,3.455,3.146,5.769,3.781
		c1.764,0.485,3.563,0.842,5.345,1.259c3.425,0.802,5.957,2.659,7.088,6.106c0.314,0.956,0.499,1.954,0.743,2.934
		c0.026,0.106,0.054,0.214,0.072,0.323c0.074,0.441,0.355,0.689,0.78,0.683c0.399-0.008,0.659-0.251,0.747-0.669
		c0.175-0.833,0.334-1.672,0.56-2.493c0.916-3.338,2.971-5.61,6.334-6.584c1.317-0.382,2.662-0.671,4.003-0.962
		c2.033-0.441,4.031-0.957,5.782-2.154c2.06-1.411,3.491-3.215,3.571-5.825c0.042-1.359-0.191-2.656-1.264-3.642
		c-0.274-0.252-0.178-0.377,0.081-0.58c0.567-0.448,1.174-0.883,1.624-1.438C47.342,25.814,47.777,23.891,47.773,21.475"/>
	<path fill="#FFFFFF" d="M6.607,28.951c-0.38-0.112-0.638-0.175-0.885-0.264c-1.327-0.479-2.192-1.453-2.684-2.723
		c-1.122-2.903-1.174-5.845,0.012-8.737c1.044-2.551,3.1-3.321,5.571-2.927c0.271,0.043,0.541,0.098,0.857,0.047
		c-0.267-0.212-0.534-0.422-0.8-0.634c-1.159-0.925-2.212-1.946-2.987-3.224C4.434,8.416,4.465,6.316,5.806,4.594
		c1.02-1.311,2.46-1.814,4.046-2.024c2.119-0.281,4.142,0.237,6.176,0.698c1.685,0.383,3.387,0.635,5.123,0.444
		c1.135-0.125,2.203-0.434,3.08-1.214c0.191-0.171,0.356-0.3,0.609-0.076c1.427,1.259,3.156,1.394,4.946,1.331
		c2.005-0.069,3.912-0.687,5.869-1.025c1.777-0.307,3.559-0.345,5.296,0.252c2.181,0.75,3.316,2.402,3.782,4.561
		c0.735,3.405-0.08,6.514-1.919,9.403c-0.102,0.159-0.208,0.316-0.31,0.478c-0.015,0.024-0.009,0.06-0.022,0.164
		c0.151-0.052,0.271-0.097,0.394-0.135c0.45-0.143,0.891-0.35,1.352-0.412c1.082-0.146,1.872,0.299,2.339,1.31
		c1.104,2.391,0.859,6.715-1.14,8.94c-0.674,0.75-1.465,1.294-2.447,1.549c-0.112,0.029-0.217,0.086-0.396,0.158
		c0.178,0.104,0.28,0.175,0.391,0.226c1.441,0.664,1.989,1.887,2.044,3.372c0.09,2.419-1.085,4.19-2.955,5.584
		c-1.677,1.25-3.621,1.824-5.629,2.259c-1.433,0.311-2.867,0.631-4.278,1.028c-3.564,1.007-5.77,3.388-6.787,6.906
		c-0.218,0.756-0.346,1.538-0.537,2.303c-0.044,0.174-0.176,0.325-0.268,0.487c-0.088-0.169-0.211-0.329-0.259-0.509
		c-0.285-1.064-0.477-2.161-0.841-3.197c-1.173-3.339-3.621-5.293-6.982-6.158c-1.772-0.456-3.573-0.802-5.346-1.255
		c-2.275-0.582-4.284-1.646-5.763-3.529c-1.108-1.41-1.551-3.013-1.253-4.807c0.158-0.948,0.597-1.689,1.438-2.173
		C5.869,29.355,6.185,29.186,6.607,28.951 M32.825,22.806c0.517,0.194,1.031,0.393,1.549,0.583c1.589,0.584,3.185,1.156,4.564,2.178
		c0.633,0.469,1.203,1.017,1.404,1.801c0.112,0.438,0.305,0.561,0.739,0.47c-0.079-0.985-0.546-1.777-1.292-2.341
		c-0.828-0.624-1.736-1.146-2.639-1.663c-0.49-0.282-1.038-0.462-1.59-0.702c0.426-0.045,0.806-0.068,1.179-0.127
		c1.188-0.185,2.314-0.533,3.231-1.357c0.464-0.418,0.822-0.907,0.919-1.553c-0.548-0.094-0.504-0.062-0.765,0.305
		c-0.287,0.404-0.616,0.815-1.015,1.099c-0.955,0.68-2.078,0.934-3.227,0.952c-0.969,0.015-1.94-0.104-2.898-0.162
		c-0.058,0.133-0.132,0.303-0.205,0.473c-0.17,0.009-0.339,0.017-0.526,0.027v5.039h0.571V22.806z M24.684,2.85
		c-0.751,0.353-1.408,0.752-2.118,0.978c-1.619,0.516-3.29,0.409-4.935,0.145c-1.587-0.254-3.151-0.657-4.735-0.934
		c-1.578-0.273-3.149-0.216-4.68,0.326c-1.884,0.667-3.161,2.443-3.02,4.408c0.095,1.321,0.688,2.423,1.487,3.426
		c1.438,1.802,3.303,3.078,5.279,4.209c0.119,0.066,0.331,0.041,0.471-0.014c0.368-0.141,0.689-0.094,0.964,0.175
		c1.753,1.707,2.776,3.707,2.52,6.23c-0.014,0.136,0.095,0.312,0.197,0.425c0.328,0.362,0.728,0.668,1.014,1.059
		c1.266,1.732,1.114,3.692,0.817,5.655c-0.063,0.419-0.563,0.618-0.989,0.492c-0.411-0.123-0.606-0.534-0.538-0.976
		c0.11-0.713,0.256-1.435,0.238-2.15c-0.029-1.189-0.49-2.222-1.495-2.931c-0.203-0.143-0.488-0.227-0.738-0.234
		c-0.966-0.027-1.936,0.036-2.897-0.026c-0.722-0.048-1.233,0.248-1.635,0.765c-0.278,0.356-0.533,0.758-0.683,1.181
		c-0.385,1.084-0.428,2.192-0.039,3.298c0.127,0.361,0.084,0.745-0.258,0.923c-0.245,0.127-0.689,0.2-0.862,0.065
		c-0.38-0.298-0.689-0.217-1.042-0.055c-0.416,0.192-0.837,0.374-1.239,0.593c-0.716,0.392-1.088,1.022-1.23,1.817
		c-0.31,1.733,0.145,3.266,1.211,4.623c1.171,1.492,2.723,2.483,4.514,3.014c1.813,0.537,3.677,0.902,5.516,1.351
		c1.891,0.462,3.691,1.127,5.206,2.407c1.857,1.571,2.821,3.655,3.416,5.95c0.037,0.143,0.09,0.279,0.136,0.418
		c0.169-0.26,0.245-0.513,0.313-0.768c0.92-3.43,2.819-6.064,6.258-7.277c1.719-0.606,3.527-0.965,5.307-1.392
		c1.728-0.414,3.445-0.831,4.929-1.879c1.33-0.938,2.484-2.042,3.039-3.612c0.758-2.15,0.208-4.579-2.575-5.352
		c-0.165-0.046-0.405-0.015-0.547,0.078c-0.342,0.223-0.672,0.283-1.015,0.06c-0.336-0.22-0.429-0.566-0.301-0.921
		c0.208-0.58,0.046-1.106-0.314-1.503c-0.494-0.542-1.032-1.112-1.67-1.442c-1.314-0.68-2.704-1.22-4.072-1.794
		c-0.592-0.248-0.635-0.207-0.625,0.448c0.024,1.486,0.058,2.973,0.095,4.459c0.013,0.508-0.299,0.87-0.781,0.881
		c-0.496,0.012-0.822-0.318-0.816-0.835c0.002-0.19,0.037-0.379,0.036-0.568c-0.01-3.944-0.023-7.888-0.038-11.832
		c-0.002-0.482,0.215-0.806,0.671-0.894c1.543-0.299,3.097-0.5,4.661-0.195c1.824,0.354,3.429,1.045,4.189,2.932
		c0.008,0.019,0.053,0.024,0.079,0.035c0.018-0.004,0.036-0.002,0.048-0.01c0.038-0.026,0.082-0.051,0.11-0.086
		c2.506-3.07,3.647-6.51,2.774-10.467c-0.479-2.175-1.7-3.713-3.931-4.309c-1.334-0.357-2.692-0.418-4.044-0.185
		c-1.6,0.277-3.177,0.707-4.783,0.926c-1.23,0.167-2.495,0.195-3.735,0.124C26.618,4.018,25.514,3.587,24.684,2.85 M11.942,15.795
		c-1.026-0.355-1.943-0.756-2.899-0.988c-2.996-0.733-5.017,0.456-5.941,3.407c-0.54,1.727-0.589,3.487-0.335,5.256
		c0.196,1.357,0.57,2.668,1.505,3.731c0.871,0.99,1.972,1.414,3.311,1.305c-0.014-0.224-0.02-0.396-0.036-0.566
		c-0.011-0.125-0.037-0.25-0.049-0.376c-0.171-1.86,0.146-3.587,1.555-4.925c0.456-0.434,0.672-0.782,0.624-1.461
		c-0.114-1.604,0.492-3.036,1.414-4.331C11.318,16.527,11.584,16.235,11.942,15.795 M37.278,23.388
		c0.269,0.144,0.411,0.208,0.541,0.292c0.731,0.468,1.501,0.888,2.176,1.427c0.965,0.772,1.565,1.778,1.511,3.072
		c-0.019,0.45,0.253,0.426,0.559,0.399c1.671-0.142,2.858-1.027,3.675-2.438c0.936-1.617,1.204-3.393,1.016-5.218
		c-0.088-0.848-0.333-1.699-0.643-2.498c-0.28-0.723-0.929-1.067-1.726-0.991c-1.098,0.106-1.99,0.68-2.825,1.346
		c-0.093,0.075-0.108,0.282-0.113,0.429c-0.043,1.363-0.582,2.465-1.764,3.169c-0.577,0.343-1.228,0.565-1.849,0.834
		C37.697,23.271,37.545,23.304,37.278,23.388 M33.261,19.209c0,0.727,0.008,1.456-0.004,2.185c-0.005,0.302,0.083,0.486,0.414,0.505
		c0.803,0.047,1.609,0.176,2.406,0.135c1.081-0.056,2.127-0.33,3.011-1.014c0.451-0.348,0.805-0.766,0.799-1.382
		c-0.001-0.204,0.009-0.415-0.034-0.612c-0.083-0.371-0.108-0.805-0.324-1.083c-0.28-0.36-0.688-0.665-1.102-0.868
		c-1.537-0.754-3.167-0.768-4.817-0.476c-0.266,0.047-0.355,0.213-0.352,0.474C33.267,17.783,33.261,18.496,33.261,19.209
		 M12.755,17.035c-0.354,0.529-0.707,0.986-0.984,1.485c-0.45,0.811-0.687,1.69-0.666,2.627c0.007,0.315,0.085,0.542,0.489,0.53
		c0.821-0.021,1.643-0.013,2.463-0.004c0.298,0.004,0.451-0.111,0.431-0.415c-0.03-0.438-0.016-0.89-0.112-1.313
		C14.133,18.869,13.646,17.913,12.755,17.035 M40.917,18.41c-0.309-1.184-1.104-1.843-2.094-2.317
		c-1.136-0.545-2.357-0.712-3.597-0.706c-0.652,0.002-1.303,0.121-1.992,0.191c0.075,0.269,0.12,0.43,0.136,0.489
		c0.986,0,1.921-0.069,2.843,0.015c1.721,0.157,3.314,0.609,4.126,2.385C40.517,18.449,40.686,18.433,40.917,18.41 M8.562,27.798
		c-0.215-2.007,0.103-3.771,1.884-4.966c-0.123-0.193-0.218-0.345-0.312-0.492c-1.999,1.063-2.616,3.93-2.102,5.578
		C8.195,27.882,8.359,27.844,8.562,27.798 M12.016,16.44c-1.456,1.217-2.347,4.096-1.765,5.658c0.171-0.046,0.346-0.093,0.534-0.145
		c-0.334-1.978,0.388-3.61,1.599-5.086C12.254,16.718,12.142,16.587,12.016,16.44 M17.583,27.92
		c0.513-2.064-0.295-4.682-2.128-5.573c-0.088,0.161-0.176,0.32-0.26,0.475c1.642,1.458,1.642,1.458,1.912,4.986
		C17.251,27.841,17.401,27.877,17.583,27.92 M15.375,22.106c0.553-1.701-0.496-4.924-1.814-5.636
		c-0.048,0.059-0.098,0.12-0.147,0.18c-0.058,0.07-0.116,0.14-0.184,0.222c1.243,1.482,1.92,3.127,1.597,5.079
		C15.023,22.006,15.188,22.053,15.375,22.106 M32.262,16.935v5.086c0.215-0.01,0.38-0.017,0.553-0.024v-5.062H32.262z M14.611,22.11
		H11.02v0.587h3.591V22.11z"/>
	<path fill="#FFFFFF" d="M26.482,21.716c0.789-0.045,1.576-0.093,2.365-0.136c0.385-0.021,0.725,0.117,0.843,0.484
		c0.502,1.553,0.708,3.125,0.007,4.674c-0.826,1.823-2.256,2.76-4.269,2.756c-0.868-0.003-1.747,0.033-2.6-0.09
		c-2.073-0.301-3.696-2.118-3.764-4.219c-0.027-0.825,0.157-1.655,0.218-2.485c0.021-0.29-0.003-0.595-0.069-0.879
		c-0.421-1.825-0.235-3.528,1.007-5.005c0.84-0.999,1.933-1.519,3.246-1.508c1.073,0.01,2.161-0.033,3.217,0.119
		c1.236,0.178,2.128,0.937,2.598,2.118c0.26,0.652-0.115,1.223-0.729,1.102c-0.21-0.042-0.492-0.243-0.552-0.433
		c-0.351-1.098-1.647-1.729-3.075-1.358c-0.191,0.05-0.421,0.078-0.603,0.021c-1.676-0.517-3.331,0.59-3.719,2.32
		c-0.215,0.959-0.209,1.899,0.274,2.812c0.115,0.217,0.077,0.604-0.039,0.84c-0.622,1.262-0.467,3.057,0.454,4.112
		c0.803,0.92,1.799,1.303,3.022,0.934c0.156-0.046,0.347-0.042,0.506,0.001c1.433,0.379,2.784-0.222,3.448-1.554
		c0.442-0.886,0.47-1.816,0.307-2.776c-0.062-0.369-0.24-0.45-0.578-0.445c-1.092,0.017-2.186,0.033-3.277-0.013
		c-0.271-0.012-0.631-0.191-0.775-0.407c-0.302-0.453,0.066-1.009,0.634-1.024c0.633-0.017,1.267-0.005,1.9-0.005
		C26.481,21.689,26.481,21.703,26.482,21.716 M23.75,28.479c-0.842-0.043-1.609-0.203-2.249-0.728
		c-1.303-1.067-1.601-2.499-1.366-4.065c0.075-0.501-0.114-0.562-0.528-0.605c-0.42,1.787-0.188,3.41,1.08,4.779
		c0.823,0.89,1.875,1.261,3.108,1.21C23.778,28.839,23.766,28.683,23.75,28.479 M23.805,15.724c-1.482-0.062-2.64,0.47-3.479,1.627
		c-0.96,1.325-1.107,2.794-0.71,4.351c0.467-0.043,0.609-0.186,0.511-0.645c-0.1-0.469-0.061-0.978-0.024-1.464
		c0.117-1.56,1.278-2.877,2.799-3.197c0.272-0.057,0.556-0.059,0.841-0.087C23.764,16.113,23.78,15.957,23.805,15.724
		 M29.516,23.088c-0.394,0.033-0.61,0.105-0.497,0.602c0.104,0.453,0.064,0.945,0.04,1.417c-0.085,1.606-1.288,2.972-2.867,3.274
		c-0.259,0.05-0.522,0.079-0.794,0.119c-0.02,0.184-0.038,0.352-0.057,0.518C28.208,29.367,30.437,26.304,29.516,23.088
		 M25.404,16.338c1.224-0.03,2.227,0.312,2.842,1.385c0.198-0.082,0.364-0.151,0.529-0.22c-0.492-1.23-2.042-2.009-3.432-1.725
		C25.36,15.944,25.379,16.111,25.404,16.338 M28.129,22.111h-3.17v0.579h3.17V22.111z"/>
	<path fill="#FFFFFF" d="M32.514,35.085h-0.792c0.301-0.702,0.391-1.386,0.047-2.127c0.231-0.13,0.456-0.12,0.627,0.202
		c0.175,0.33,0.366,0.652,0.553,0.981c0.57-0.29,0.398-1.315,1.321-1.224c-0.339,0.56-0.292,1.696,0.097,2.156h-0.686
		c0.043-0.444,0.086-0.891,0.13-1.337c-0.06-0.022-0.12-0.046-0.18-0.067c-0.194,0.321-0.388,0.643-0.623,1.033
		c-0.226-0.363-0.425-0.685-0.632-1.019C32.105,34.101,32.143,34.697,32.514,35.085"/>
	<path fill="#FFFFFF" d="M19.583,10.303c-0.066-0.497-0.121-0.898-0.18-1.34h0.479v2.131c-0.06,0.021-0.121,0.041-0.182,0.062
		c-0.414-0.516-0.828-1.032-1.241-1.547c-0.11,0.512-0.323,1.007,0.184,1.506c-0.307,0.014-0.54,0.025-0.718,0.033V8.922
		C18.776,8.909,18.819,9.95,19.583,10.303"/>
	<path fill="#FFFFFF" d="M24.656,10.224c-0.062-0.399,0.209-0.853-0.343-1.254h0.893c-0.471,0.677-0.099,1.423-0.306,2.222
		c-0.465-0.564-0.888-1.078-1.311-1.591c-0.055,0.021-0.11,0.04-0.165,0.06c0.047,0.461,0.093,0.922,0.145,1.43h-0.585
		c0.309-0.703,0.34-1.393,0-2.106c0.489-0.237,0.653,0.178,0.879,0.448c0.229,0.274,0.446,0.561,0.669,0.841
		C24.574,10.256,24.615,10.24,24.656,10.224"/>
	<path fill="#FFFFFF" d="M21.939,11.147c0-0.294,0.034-0.651-0.006-0.66c-0.283-0.06-0.592-0.094-0.868-0.03
		c-0.081,0.019-0.08,0.384-0.129,0.657h-0.543c0.243-0.707,0.719-1.33,0.59-2.158h1.041c-0.241,0.82,0.298,1.42,0.558,2.162
		C22.342,11.129,22.108,11.139,21.939,11.147 M21.542,9.236c-0.052,0.005-0.104,0.01-0.155,0.015
		c-0.09,0.282-0.181,0.565-0.282,0.887h0.75C21.737,9.797,21.639,9.517,21.542,9.236"/>
	<path fill="#FFFFFF" d="M38.403,34.032c0.249,0.024,0.66-0.027,0.715,0.089c0.128,0.271,0.085,0.623,0.11,0.934
		c-0.282,0.027-0.49,0.008-0.667,0.071c-0.432,0.155-0.786,0.024-1.082-0.269c-0.368-0.364-0.375-0.837-0.223-1.286
		c0.135-0.398,0.458-0.684,0.892-0.664c0.321,0.014,0.64,0.165,0.948,0.285c0.037,0.015,0,0.223-0.004,0.34
		c-0.09-0.024-0.239-0.025-0.26-0.078c-0.174-0.438-0.498-0.378-0.826-0.258c-0.417,0.151-0.563,0.498-0.535,0.907
		c0.039,0.573,0.486,0.905,1.062,0.778c0.144-0.031,0.324-0.192,0.365-0.33c0.078-0.263-0.141-0.298-0.35-0.302
		c-0.054-0.002-0.107-0.037-0.161-0.057C38.392,34.139,38.397,34.086,38.403,34.032"/>
	<path fill="#FFFFFF" d="M14.866,34.025c-0.002-0.685,0.435-1.133,1.113-1.141c0.683-0.009,1.187,0.475,1.188,1.143
		c0.001,0.638-0.553,1.183-1.189,1.17C15.335,35.185,14.868,34.691,14.866,34.025 M15.178,34.036
		c0.006,0.542,0.324,0.866,0.84,0.858c0.486-0.007,0.845-0.392,0.833-0.893c-0.011-0.488-0.406-0.891-0.867-0.882
		C15.51,33.128,15.172,33.511,15.178,34.036"/>
	<path fill="#FFFFFF" d="M36.364,32.945c-0.248,0.397-0.11,0.986,0.479,2.132h-0.528c-0.065-0.251-0.095-0.61-0.172-0.62
		c-0.289-0.039-0.596,0.025-0.887,0.088c-0.021,0.005,0.021,0.307,0.039,0.522h-0.606c0.145-0.349,0.312-0.678,0.416-1.026
		c0.101-0.336,0.42-0.659,0.069-1.096H36.364z M35.818,33.26c-0.046-0.003-0.093-0.005-0.138-0.007
		c-0.096,0.274-0.19,0.549-0.304,0.875h0.761C36.012,33.789,35.915,33.524,35.818,33.26"/>
	<path fill="#FFFFFF" d="M22.391,32.982c0.83-0.225,1.634-0.049,1.94,0.406c0.242,0.359,0.243,0.949-0.03,1.288
		c-0.514,0.638-1.211,0.403-1.915,0.438C22.765,34.569,22.755,33.408,22.391,32.982 M22.928,33.988c0,0.078-0.017,0.161,0.002,0.234
		c0.06,0.222,0.132,0.439,0.2,0.658c0.287-0.095,0.634-0.12,0.848-0.302c0.298-0.253,0.294-0.651,0.106-0.999
		c-0.196-0.365-0.577-0.472-0.929-0.398c-0.117,0.025-0.157,0.432-0.227,0.665C22.917,33.89,22.928,33.941,22.928,33.988"/>
	<path fill="#FFFFFF" d="M29.013,9.928c-0.211,0.284-0.727-0.001-0.675,0.535c0.015,0.147,0.136,0.406,0.2,0.404
		c0.253-0.011,0.502-0.105,0.836-0.189c0.005,0.027,0.078,0.189,0.036,0.312c-0.027,0.082-0.216,0.148-0.336,0.154
		c-0.414,0.017-0.83,0.007-1.303,0.007c0.4-0.611,0.404-1.709-0.002-2.225c0.544,0,1.022-0.02,1.495,0.02
		c0.073,0.006,0.124,0.281,0.162,0.377c-0.387-0.05-0.698-0.147-0.99-0.108c-0.197,0.026-0.123,0.602,0.092,0.657
		C28.684,9.914,28.851,9.911,29.013,9.928"/>
	<path fill="#FFFFFF" d="M41.349,33.333c-0.371-0.071-0.64-0.146-0.912-0.157c-0.047-0.002-0.137,0.245-0.154,0.384
		c-0.06,0.468,0.413,0.251,0.637,0.472c-0.225,0.06-0.409,0.107-0.674,0.178c0.05,0.224,0.06,0.599,0.153,0.621
		c0.258,0.062,0.551-0.025,0.922-0.062c0.002,0.104,0.124,0.347-0.302,0.35c-0.401,0.004-0.802,0.002-1.205,0.002
		c0.233-0.761,0.227-1.435,0.012-2.203c0.44,0,0.915-0.017,1.385,0.021C41.274,32.943,41.315,33.232,41.349,33.333"/>
	<path fill="#FFFFFF" d="M26.55,34.726c0.065,0.142,0.15,0.373-0.269,0.39c-0.423,0.016-0.847,0.004-1.292,0.004
		c0.321-0.74,0.334-1.428-0.019-2.208c0.489,0,0.98-0.019,1.466,0.022c0.063,0.006,0.1,0.321,0.126,0.413
		c-0.377-0.068-0.672-0.136-0.969-0.155c-0.033-0.002-0.164,0.338-0.112,0.395c0.163,0.183,0.393,0.306,0.614,0.466
		c-0.168,0.152-0.772-0.05-0.625,0.534c0.027,0.106,0.121,0.282,0.177,0.279C25.911,34.854,26.171,34.791,26.55,34.726"/>
	<path fill="#FFFFFF" d="M10.342,35.119c0.426-0.515,0.428-1.608,0.053-2.212c0.524,0,1.006-0.023,1.481,0.021
		c0.075,0.008,0.121,0.316,0.167,0.446c-0.384-0.083-0.686-0.217-0.973-0.188c-0.238,0.024-0.206,0.6,0.042,0.684
		c0.153,0.052,0.32,0.059,0.546,0.096c-0.256,0.253-0.785-0.011-0.731,0.508c0.015,0.138,0.111,0.384,0.161,0.382
		c0.278-0.013,0.554-0.086,0.872-0.147c0.165,0.272,0.122,0.395-0.25,0.407C11.292,35.131,10.872,35.119,10.342,35.119"/>
	<path fill="#FFFFFF" d="M30.524,11.232c-0.21-0.119-0.437-0.217-0.621-0.367c-0.058-0.047,0-0.234,0.005-0.358
		c0.094,0.048,0.189,0.096,0.284,0.146c0.17,0.091,0.337,0.241,0.513,0.252c0.103,0.007,0.334-0.248,0.31-0.31
		c-0.063-0.166-0.221-0.304-0.365-0.424c-0.093-0.077-0.264-0.074-0.337-0.16c-0.161-0.188-0.423-0.445-0.382-0.609
		c0.055-0.215,0.342-0.486,0.561-0.516c0.247-0.035,0.531,0.161,0.788,0.281c0.027,0.013-0.018,0.184-0.031,0.281
		c-0.092-0.031-0.197-0.045-0.275-0.098c-0.107-0.072-0.198-0.25-0.29-0.246c-0.151,0.007-0.361,0.089-0.425,0.205
		c-0.047,0.088,0.062,0.312,0.164,0.414c0.102,0.105,0.28,0.137,0.425,0.197c0.339,0.14,0.576,0.355,0.483,0.757
		C31.238,11.076,30.927,11.167,30.524,11.232"/>
	<path fill="#FFFFFF" d="M21.146,34.737c0.06,0.179,0.075,0.39-0.32,0.383c-0.38-0.006-0.759-0.007-1.139-0.015
		c-0.039-0.001-0.076-0.043-0.118-0.066c0.343-0.318,0.35-1.688-0.07-2.132c0.551,0,1.033-0.021,1.508,0.022
		c0.079,0.007,0.13,0.303,0.181,0.429c-0.375-0.073-0.675-0.146-0.979-0.171c-0.034-0.004-0.171,0.332-0.12,0.394
		c0.154,0.186,0.378,0.313,0.593,0.479c-0.164,0.138-0.712-0.07-0.607,0.469c0.023,0.123,0.113,0.334,0.17,0.334
		C20.512,34.859,20.777,34.796,21.146,34.737"/>
	<path fill="#FFFFFF" d="M14.466,34.681c-0.391,0.518-0.854,0.621-1.376,0.408c-0.454-0.185-0.744-0.687-0.686-1.186
		c0.058-0.502,0.456-0.975,0.928-0.994c0.312-0.011,0.635,0.095,0.941,0.189c0.072,0.021,0.112,0.206,0.128,0.321
		c0.006,0.043-0.131,0.153-0.143,0.145c-0.091-0.062-0.154-0.173-0.25-0.219c-0.18-0.09-0.384-0.221-0.563-0.201
		c-0.511,0.057-0.833,0.59-0.711,1.091c0.128,0.523,0.651,0.797,1.188,0.623C14.065,34.812,14.207,34.766,14.466,34.681"/>
	<path fill="#FFFFFF" d="M17.481,35.119c0.437-0.467,0.436-1.703,0.072-2.172h0.838c-0.46,0.569-0.229,1.192-0.237,1.778
		c-0.003,0.214,0.504,0.239,0.701,0.036c0.049-0.051,0.09-0.11,0.224-0.277c0.041,0.234,0.107,0.371,0.068,0.465
		c-0.034,0.082-0.185,0.158-0.287,0.162C18.443,35.129,18.023,35.119,17.481,35.119"/>
	<path fill="#FFFFFF" d="M26.918,11.111h-0.872c0.488-0.479,0.277-1.027,0.305-1.535c0.007-0.134-0.094-0.273-0.146-0.409
		c-0.154,0.067-0.308,0.136-0.462,0.205c-0.04,0.018-0.079,0.04-0.118,0.06C25.452,9,25.49,8.923,25.912,8.911
		c0.378-0.011,0.757,0.008,1.135-0.006c0.392-0.013,0.453,0.178,0.204,0.634c-0.033-0.1-0.062-0.283-0.099-0.285
		c-0.168-0.009-0.485,0.03-0.486,0.06C26.649,9.891,26.429,10.499,26.918,11.111"/>
	<path fill="#FFFFFF" d="M8.397,34.943c0.293-0.08,0.551-0.151,0.871-0.238c0.082,0.122,0.146,0.353-0.168,0.394
		c-0.427,0.056-0.867,0.014-1.346,0.014c0.378-0.545,0.365-1.713-0.048-2.18c0.329-0.015,0.589-0.027,0.881-0.041
		C8.31,33.427,8.252,34.025,8.397,34.943"/>
	<path fill="#FFFFFF" d="M29.281,34.585c0.123,0.357,0.087,0.545-0.291,0.537c-0.376-0.009-0.752-0.002-1.151-0.002
		c0.34-0.739,0.327-1.423,0.014-2.191c0.23-0.011,0.487-0.022,0.745-0.034c-0.48,0.479-0.237,1.037-0.269,1.537
		c-0.009,0.145,0.105,0.423,0.167,0.423c0.209,0.004,0.42-0.086,0.628-0.147C29.163,34.695,29.194,34.654,29.281,34.585"/>
	<path fill="#FFFFFF" d="M30.476,32.924h0.726c-0.343,0.723-0.355,1.415-0.014,2.15h-0.686
		C30.817,34.359,30.836,33.674,30.476,32.924"/>
	<path fill="#FFFFFF" d="M9.654,33.869c-0.025-0.334-0.055-0.532-0.048-0.73c0.003-0.08,0.086-0.158,0.131-0.237
		c0.078,0.058,0.229,0.137,0.22,0.168C9.884,33.315,9.78,33.551,9.654,33.869"/>
	<path fill="#FFFFFF" d="M29.676,33.858c-0.02-0.308-0.049-0.516-0.039-0.722c0.004-0.08,0.096-0.156,0.148-0.235
		c0.074,0.063,0.223,0.15,0.211,0.185C29.914,33.334,29.8,33.571,29.676,33.858"/>
</g>
</svg>
