<?xml version="1.0" encoding="utf-8"?>
<!-- Generator: Adobe Illustrator 16.0.0, SVG Export Plug-In . SVG Version: 6.00 Build 0)  -->
<!DOCTYPE svg PUBLIC "-//W3C//DTD SVG 1.1//EN" "http://www.w3.org/Graphics/SVG/1.1/DTD/svg11.dtd">
<svg version="1.1" id="Calque_1" xmlns="http://www.w3.org/2000/svg" xmlns:xlink="http://www.w3.org/1999/xlink" x="0px" y="0px"
	 width="141.73px" height="141.73px" viewBox="0 0 141.73 141.73" enable-background="new 0 0 141.73 141.73" xml:space="preserve">
<g>
	<polygon fill="#EB6A5B" points="64.046,87.664 64.046,71.111 45.131,71.111 45.131,79.783 28.579,79.783 28.579,90.814 
		64.832,90.814 	"/>
	<path fill="#183356" d="M122.726,80H89.051l-1.205,4H71.972h-0.013H59v-0.072l-39,0.034V97h0.401c0.583,2,2.294,3.201,4.335,3.201
		c2.046,0,3.756-1.201,4.339-3.201h0.947c0.585,2,2.293,3.201,4.337,3.201c2.043,0,3.752-1.201,4.338-3.201h0.946
		c0.583,2,2.293,3.201,4.335,3.201c2.045,0,3.753-1.201,4.339-3.201h0.946c0.586,2,2.294,3.17,4.338,3.17
		c2.02,0,3.707-1.17,4.312-3.17h0.975c0.585,2,2.294,3.199,4.337,3.199S66.978,99,67.561,97h0.947c0.585,2,2.296,3.31,4.338,3.31
		c2.043,0,3.75-1.405,4.336-3.249L77.979,97h0.148c0.586,2,2.296,3.199,4.338,3.199c2.044,0,3.754-1.199,4.339-3.199h0.945
		c0.586,2,2.296,3.31,4.337,3.31c2.044,0,3.753-1.298,4.337-3.144l0.145-0.521L122.726,80z"/>
	<g>
		<circle fill="#F2EDEC" cx="47.734" cy="89.294" r="2.797"/>
		<path fill="#AFDCDF" d="M44.354,89.294c0-1.862,1.517-3.378,3.382-3.378c1.864,0,3.381,1.516,3.381,3.378
			c0,1.864-1.517,3.382-3.381,3.382C45.87,92.676,44.354,91.158,44.354,89.294z M45.522,89.294c0,1.221,0.991,2.214,2.213,2.214
			c1.22,0,2.214-0.993,2.214-2.214c0-1.22-0.994-2.212-2.214-2.212C46.514,87.082,45.522,88.074,45.522,89.294z"/>
	</g>
	<g>
		<circle fill="#F2EDEC" cx="39.41" cy="89.294" r="2.797"/>
		<path fill="#AFDCDF" d="M36.03,89.294c0-1.862,1.515-3.378,3.38-3.378c1.864,0,3.38,1.516,3.38,3.378
			c0,1.864-1.516,3.382-3.38,3.382C37.545,92.676,36.03,91.158,36.03,89.294z M37.198,89.294c0,1.221,0.991,2.214,2.212,2.214
			s2.212-0.993,2.212-2.214c0-1.22-0.991-2.212-2.212-2.212S37.198,88.074,37.198,89.294z"/>
	</g>
	<g>
		<circle fill="#F2EDEC" cx="31.084" cy="89.294" r="2.797"/>
		<path fill="#AFDCDF" d="M27.703,89.294c0-1.862,1.517-3.378,3.38-3.378c1.865,0,3.381,1.516,3.381,3.378
			c0,1.864-1.516,3.382-3.381,3.382C29.22,92.676,27.703,91.158,27.703,89.294z M28.871,89.294c0,1.221,0.992,2.214,2.212,2.214
			c1.221,0,2.214-0.993,2.214-2.214c0-1.22-0.993-2.212-2.214-2.212C29.863,87.082,28.871,88.074,28.871,89.294z"/>
	</g>
	<polygon fill="#AFDCDF" points="95.093,66.669 95.093,68.956 91.604,68.956 91.604,79.998 87.846,84.001 70.798,84.001 
		70.798,66.55 	"/>
	<rect x="74.404" y="72.773" fill="#FFFFFF" width="4.736" height="4.736"/>
	<rect x="83.391" y="72.773" fill="#FFFFFF" width="4.734" height="4.736"/>
	<rect x="69.114" y="61.858" fill="#183356" width="3.427" height="15.154"/>
	<rect x="69.112" y="65.15" fill="#8C99AB" width="3.427" height="0.736"/>
	<path fill="#F2EDEC" d="M70.439,41.878c0,0,3.608,2.886,2.645,6.976c-0.963,4.091,0.961,1.444,0.48,4.331
		c-0.48,2.887-1.201,5.293-2.645,5.293c-1.444,0-3.371-5.773-3.128-6.977C68.033,50.298,67.312,42.119,70.439,41.878z"/>
</g>
</svg>
