<?xml version="1.0" encoding="utf-8"?>
<!-- Generator: Adobe Illustrator 16.0.0, SVG Export Plug-In . SVG Version: 6.00 Build 0)  -->
<!DOCTYPE svg PUBLIC "-//W3C//DTD SVG 1.1//EN" "http://www.w3.org/Graphics/SVG/1.1/DTD/svg11.dtd">
<svg version="1.1" id="Calque_1" xmlns="http://www.w3.org/2000/svg" xmlns:xlink="http://www.w3.org/1999/xlink" x="0px" y="0px"
	 width="85.04px" height="85.04px" viewBox="0 0 85.04 85.04" enable-background="new 0 0 85.04 85.04" xml:space="preserve">
<g>
	<path fill="#ED796B" d="M35.006,42.307L10.802,57.895l-1.206,3.988l4.62,0.828l24.397-13.838
		C38.613,48.874,34.803,46.39,35.006,42.307z"/>
	<path fill="#EB6A5B" d="M35.927,45.96c-0.574-0.998-0.993-2.225-0.921-3.654L10.802,57.895l-1.206,3.988L35.927,45.96z"/>
	<path fill="#ED796B" d="M45.999,49.38l24.957,14.354l4.096-0.759l-1.384-4.486l-23.49-15.326
		C50.177,43.163,49.719,47.688,45.999,49.38z"/>
	<path fill="#EB6A5B" d="M48.819,46.883c-0.62,0.968-1.521,1.906-2.82,2.497l24.957,14.354l4.096-0.759L48.819,46.883z"/>
	<path fill="#ED796B" d="M46.5,35.88L45.628,7.103l-2.795-3.09l-3.09,3.533l-0.729,28.037C39.014,35.583,43.107,33.6,46.5,35.88z"/>
	<path fill="#EB6A5B" d="M42.896,34.785c1.149,0.022,2.419,0.297,3.604,1.095L45.628,7.103l-2.795-3.09L42.896,34.785z"/>
</g>
<g>
	<path fill="#183356" d="M104.875,45.275V42.04h-0.412V24.456c0,0-0.658,0.285-1.507,0.066v17.584h-0.46v3.2
		c0,0-0.098,1.331,1.227,1.331C104.987,46.637,104.875,45.275,104.875,45.275z"/>
	<path fill="#ED796B" d="M101.878,21.807l-7.534,1.107l-0.727,0.829l1.022,0.705l7.389-0.664
		C102.029,23.784,101.383,22.769,101.878,21.807z"/>
	<path fill="#EB6A5B" d="M101.701,22.789c-0.028-0.304,0.005-0.646,0.178-0.981l-7.534,1.107l-0.727,0.829L101.701,22.789z"/>
	<path fill="#ED796B" d="M103.752,24.713l4.44,6.187l1.069,0.266l0.156-1.231l-3.979-6.261
		C105.439,23.673,104.833,24.713,103.752,24.713z"/>
	<path fill="#EB6A5B" d="M104.706,24.421c-0.257,0.165-0.576,0.292-0.953,0.292l4.44,6.187l1.069,0.266L104.706,24.421z"/>
	<circle fill="#183356" cx="103.664" cy="22.695" r="2.063"/>
	<path fill="#ED796B" d="M105.351,21.516l2.938-7.024l-0.335-1.05l-1.131,0.513l-3.242,6.673
		C103.581,20.626,104.783,20.596,105.351,21.516z"/>
	<path fill="#EB6A5B" d="M104.602,20.859c0.275,0.131,0.551,0.336,0.749,0.657l2.938-7.024l-0.335-1.05L104.602,20.859z"/>
	<circle fill="#EB6A5B" cx="103.664" cy="22.694" r="0.701"/>
</g>
<g>
	<path fill="#183356" d="M125.257,45.275V42.04h-0.412V24.456c0,0-0.658,0.285-1.507,0.066v17.584h-0.459v3.2
		c0,0-0.098,1.331,1.226,1.331C125.371,46.637,125.257,45.275,125.257,45.275z"/>
	<path fill="#ED796B" d="M124.173,20.703l-3.688-6.662l-1.032-0.388l-0.299,1.205l3.223,6.681
		C122.376,21.539,123.099,20.578,124.173,20.703z"/>
	<path fill="#EB6A5B" d="M123.193,20.882c0.273-0.134,0.605-0.223,0.98-0.179l-3.688-6.662l-1.032-0.388L123.193,20.882z"/>
	<path fill="#ED796B" d="M122.114,23.478l-4.227,6.335l0.128,1.095l1.208-0.287l4.458-5.93
		C123.681,24.69,122.495,24.49,122.114,23.478z"/>
	<path fill="#EB6A5B" d="M122.722,24.267c-0.244-0.182-0.476-0.436-0.608-0.789l-4.227,6.335l0.128,1.095L122.722,24.267z"/>
	<circle fill="#183356" cx="123.973" cy="22.686" r="2.063"/>
	<path fill="#ED796B" d="M125.67,23.849l7.609,0.275l0.864-0.684l-0.878-0.878l-7.387-0.685
		C125.879,21.877,126.332,22.993,125.67,23.849z"/>
	<path fill="#EB6A5B" d="M126.022,22.916c-0.026,0.303-0.121,0.634-0.352,0.933l7.609,0.275l0.864-0.684L126.022,22.916z"/>
	<circle fill="#EB6A5B" cx="123.973" cy="22.685" r="0.701"/>
</g>
</svg>
