<?xml version="1.0" encoding="utf-8"?>
<!-- Generator: Adobe Illustrator 16.0.0, SVG Export Plug-In . SVG Version: 6.00 Build 0)  -->
<!DOCTYPE svg PUBLIC "-//W3C//DTD SVG 1.1//EN" "http://www.w3.org/Graphics/SVG/1.1/DTD/svg11.dtd">
<svg version="1.1" id="Calque_1" xmlns="http://www.w3.org/2000/svg" xmlns:xlink="http://www.w3.org/1999/xlink" x="0px" y="0px"
	 width="141.73px" height="141.73px" viewBox="0 0 141.73 141.73" enable-background="new 0 0 141.73 141.73" xml:space="preserve">
<path fill="#ED796B" d="M73.093,68.6L32.984,74.49l-3.869,4.41l5.444,3.75l39.333-3.529C73.893,79.121,70.456,73.717,73.093,68.6z"
	/>
<path fill="#EB6A5B" d="M72.146,73.821c-0.155-1.615,0.025-3.436,0.947-5.222L32.984,74.49l-3.869,4.41L72.146,73.821z"/>
<path fill="#ED796B" d="M83.064,84.067l23.638,32.936l5.692,1.412l0.835-6.555L92.043,78.529
	C92.043,78.529,88.82,84.066,83.064,84.067z"/>
<path fill="#EB6A5B" d="M88.139,82.51c-1.365,0.881-3.066,1.558-5.074,1.558l23.638,32.936l5.692,1.412L88.139,82.51z"/>
<path fill="#ED796B" d="M91.575,67.045l15.639-37.394l-1.783-5.593l-6.022,2.73L82.15,62.312
	C82.15,62.312,88.553,62.15,91.575,67.045z"/>
<path fill="#EB6A5B" d="M87.588,63.55c1.464,0.695,2.931,1.787,3.987,3.495l15.639-37.394l-1.783-5.593L87.588,63.55z"/>
</svg>
