<?xml version="1.0" encoding="utf-8"?>
<!-- Generator: Adobe Illustrator 16.0.0, SVG Export Plug-In . SVG Version: 6.00 Build 0)  -->
<!DOCTYPE svg PUBLIC "-//W3C//DTD SVG 1.1//EN" "http://www.w3.org/Graphics/SVG/1.1/DTD/svg11.dtd">
<svg version="1.1" id="Calque_1" xmlns="http://www.w3.org/2000/svg" xmlns:xlink="http://www.w3.org/1999/xlink" x="0px" y="0px"
	 width="85.04px" height="85.04px" viewBox="0 0 85.04 85.04" enable-background="new 0 0 85.04 85.04" xml:space="preserve">
<g>
	<path fill="#183356" d="M45.623,78.288v-6.603h-0.546V15.946c0,0-0.87,0.376-1.993,0.087v55.739h-0.608v6.558
		c0,0-0.128,1.761,1.623,1.761C45.772,80.091,45.623,78.288,45.623,78.288z"/>
	<path fill="#183356" d="M44.938,16.138"/>
	<path fill="#B7DFE2" d="M56.376,8.507"/>
	<path fill="#AFDCDF" d="M56.376,8.507"/>
	<path fill="#ED796B" d="M56.376,8.507"/>
	<path fill="#EB6A5B" d="M56.376,8.507"/>
	<path fill="#FCEE21" d="M45.705,71.93v6.604c0,0,0.162,1.803-1.659,1.803c-1.905,0-1.766-1.762-1.766-1.762v-6.673L45.705,71.93z"
		/>
</g>
<rect x="42" y="73" fill="#FCEE21" width="4" height="1"/>
<rect x="42" y="75" fill="#FCEE21" width="4" height="1"/>
</svg>
