<?xml version="1.0" encoding="utf-8"?>
<!-- Generator: Adobe Illustrator 16.0.0, SVG Export Plug-In . SVG Version: 6.00 Build 0)  -->
<!DOCTYPE svg PUBLIC "-//W3C//DTD SVG 1.1//EN" "http://www.w3.org/Graphics/SVG/1.1/DTD/svg11.dtd">
<svg version="1.1" id="Calque_1" xmlns="http://www.w3.org/2000/svg" xmlns:xlink="http://www.w3.org/1999/xlink" x="0px" y="0px"
	 width="85.04px" height="85.04px" viewBox="0 0 85.04 85.04" enable-background="new 0 0 85.04 85.04" xml:space="preserve">
<path fill="#B7DFE2" d="M38.836,29.083L12.83,11.194l-4.544,0.468l1.119,5.023l24.312,18.82
	C33.716,35.505,34.618,30.604,38.836,29.083z"/>
<path fill="#AFDCDF" d="M35.528,31.559c0.768-1.003,1.834-1.945,3.308-2.477L12.83,11.194l-4.544,0.468L35.528,31.559z"/>
<path fill="#B7DFE2" d="M36.326,43.188l-3.959,31.314l2.5,3.823l3.95-3.302l5.569-30.24C44.386,44.783,39.614,46.233,36.326,43.188z
	"/>
<path fill="#AFDCDF" d="M40.046,44.985c-1.243-0.221-2.572-0.734-3.72-1.798l-3.959,31.314l2.5,3.823L40.046,44.985z"/>
<path fill="#183356" d="M45.055,44.695c-4.356,1.822-9.368-0.23-11.191-4.591c-1.821-4.357,0.237-9.361,4.594-11.185
	c4.359-1.821,9.366,0.228,11.186,4.585C51.467,37.863,49.411,42.873,45.055,44.695z"/>
<path fill="#B7DFE2" d="M50.205,37.982l28.736-13.055l1.942-4.136l-4.883-1.632L47.336,30.284
	C47.336,30.284,51.074,33.584,50.205,37.982z"/>
<path fill="#AFDCDF" d="M49.784,33.873c0.466,1.172,0.724,2.574,0.421,4.109l28.736-13.055l1.942-4.136L49.784,33.873z"/>
<circle fill="#EB6A5B" cx="41.755" cy="36.806" r="2.904"/>
<polygon fill="#ED796B" points="75.045,19.531 76.001,19.16 80.884,20.792 78.941,24.927 77.976,25.365 78.842,21.65 "/>
<polygon fill="#EB6A5B" points="77.947,25.379 78.941,24.927 80.884,20.792 78.842,21.65 "/>
<polygon fill="#ED796B" points="70.157,21.433 71.158,21.045 76.262,22.75 74.229,27.074 73.222,27.533 74.129,23.648 "/>
<polygon fill="#EB6A5B" points="73.19,27.546 74.229,27.074 76.262,22.75 74.129,23.648 "/>
<polygon fill="#ED796B" points="39.016,74.002 38.828,75.012 34.874,78.307 32.377,74.479 32.511,73.43 35.217,76.119 "/>
<polygon fill="#EB6A5B" points="32.517,73.362 32.377,74.479 34.87,78.298 35.231,76.114 "/>
<polygon fill="#ED796B" points="39.966,68.844 39.771,69.9 35.638,73.345 33.026,69.343 33.167,68.244 35.995,71.058 "/>
<polygon fill="#EB6A5B" points="33.167,68.244 33.026,69.343 35.637,73.343 35.995,71.058 "/>
<polygon fill="#ED796B" points="10.214,17.309 9.402,16.679 8.285,11.655 12.831,11.189 13.703,11.79 10.072,12.962 "/>
<polygon fill="#ED796B" points="14.364,20.517 13.514,19.858 12.346,14.607 17.098,14.119 18.01,14.747 14.215,15.973 "/>
<polygon fill="#EB6A5B" points="18.01,14.747 17.098,14.119 12.348,14.607 14.215,15.973 "/>
</svg>
