<?xml version="1.0" encoding="utf-8"?>
<!-- Generator: Adobe Illustrator 16.0.0, SVG Export Plug-In . SVG Version: 6.00 Build 0)  -->
<!DOCTYPE svg PUBLIC "-//W3C//DTD SVG 1.1//EN" "http://www.w3.org/Graphics/SVG/1.1/DTD/svg11.dtd">
<svg version="1.1" id="Calque_1" xmlns="http://www.w3.org/2000/svg" xmlns:xlink="http://www.w3.org/1999/xlink" x="0px" y="0px"
	 width="85.04px" height="85.04px" viewBox="0 0 85.04 85.04" enable-background="new 0 0 85.04 85.04" xml:space="preserve">
<g>
	<path fill="#B7DFE2" d="M46.057,36.559l-0.942-25.762l-2.519-2.751l-2.749,3.18l-0.493,25.106
		C39.354,36.332,43.006,34.536,46.057,36.559z"/>
	<path fill="#AFDCDF" d="M42.824,35.598c1.03,0.014,2.168,0.254,3.233,0.961l-0.942-25.762l-2.519-2.751L42.824,35.598z"/>
	<path fill="#B7DFE2" d="M35.59,41.786L13.133,54.443l-1.288,3.501l4.087,0.983L38.47,47.845
		C38.47,47.845,35.194,45.423,35.59,41.786z"/>
	<path fill="#AFDCDF" d="M36.223,45.1c-0.46-0.923-0.771-2.044-0.632-3.314L13.133,54.443l-1.288,3.501L36.223,45.1z"/>
	<path fill="#183356" d="M38.853,48.242c-3.317-1.969-4.412-6.254-2.441-9.572c1.968-3.317,6.251-4.405,9.567-2.437
		c3.316,1.97,4.413,6.25,2.444,9.566C46.455,49.117,42.171,50.21,38.853,48.242z"/>
	<path fill="#B7DFE2" d="M45.76,48.346l22.557,12.479l3.658-0.741l-1.308-3.994L49.41,42.718
		C49.41,42.718,49.068,46.775,45.76,48.346z"/>
	<path fill="#AFDCDF" d="M48.25,46.069c-0.542,0.876-1.335,1.729-2.49,2.277l22.557,12.479l3.658-0.741L48.25,46.069z"/>
	<circle fill="#EB6A5B" cx="42.416" cy="42.234" r="2.371"/>
	<polygon fill="#ED796B" points="69.956,55.642 70.667,56.089 71.975,60.083 68.317,60.825 67.56,60.406 70.417,59.166 	"/>
	<polygon fill="#EB6A5B" points="67.537,60.393 68.317,60.825 71.975,60.083 70.417,59.166 	"/>
	<polygon fill="#ED796B" points="66.33,53.365 67.073,53.832 68.44,58.008 64.616,58.783 63.824,58.345 66.811,57.047 	"/>
	<polygon fill="#EB6A5B" points="63.799,58.333 64.616,58.783 68.44,58.008 66.811,57.047 	"/>
	<polygon fill="#ED796B" points="16.7,58.558 15.946,58.928 11.861,57.94 13.153,54.439 13.907,54.015 13.461,57.099 	"/>
	<polygon fill="#EB6A5B" points="13.953,53.987 13.153,54.439 11.864,57.934 13.471,57.107 	"/>
	<polygon fill="#ED796B" points="20.544,56.667 19.756,57.056 15.485,56.024 16.836,52.364 17.624,51.92 17.159,55.144 	"/>
	<polygon fill="#EB6A5B" points="17.624,51.92 16.836,52.364 15.486,56.022 17.159,55.144 	"/>
	<polygon fill="#ED796B" points="39.833,12.061 39.851,11.222 42.6,8.042 45.119,10.795 45.15,11.659 42.614,9.85 	"/>
	<polygon fill="#EB6A5B" points="45.154,11.713 45.119,10.795 42.604,8.047 42.604,9.856 	"/>
	<polygon fill="#ED796B" points="39.752,16.344 39.769,15.466 42.643,12.143 45.276,15.02 45.309,15.924 42.659,14.033 	"/>
	<polygon fill="#EB6A5B" points="45.309,15.924 45.276,15.02 42.644,12.143 42.659,14.033 	"/>
</g>
</svg>
