<?xml version="1.0" encoding="utf-8"?>
<!-- Generator: Adobe Illustrator 16.0.0, SVG Export Plug-In . SVG Version: 6.00 Build 0)  -->
<!DOCTYPE svg PUBLIC "-//W3C//DTD SVG 1.1//EN" "http://www.w3.org/Graphics/SVG/1.1/DTD/svg11.dtd">
<svg version="1.1" id="Calque_1" xmlns="http://www.w3.org/2000/svg" xmlns:xlink="http://www.w3.org/1999/xlink" x="0px" y="0px"
	 width="85.04px" height="85.04px" viewBox="0 0 85.04 85.04" enable-background="new 0 0 85.04 85.04" xml:space="preserve">
<path fill="#B7DFE2" d="M35.873,42.176L14.529,55.923l-1.063,3.518l4.074,0.729l21.514-12.202
	C39.054,47.967,35.693,45.778,35.873,42.176z"/>
<path fill="#AFDCDF" d="M36.686,45.4c-0.507-0.882-0.876-1.967-0.813-3.224L14.529,55.923l-1.063,3.518L36.686,45.4z"/>
<path fill="#B7DFE2" d="M45.565,48.416l22.008,12.655l3.613-0.668l-1.222-3.955L49.25,42.93
	C49.25,42.93,48.846,46.922,45.565,48.416z"/>
<path fill="#AFDCDF" d="M48.054,46.212c-0.55,0.854-1.344,1.681-2.489,2.203l22.008,12.655l3.613-0.668L48.054,46.212z"/>
<circle fill="#183356" cx="42.514" cy="42.406" r="6.878"/>
<path fill="#B7DFE2" d="M46.01,36.507L45.24,11.132l-2.464-2.725l-2.727,3.115l-0.643,24.724
	C39.406,36.245,43.016,34.497,46.01,36.507z"/>
<path fill="#AFDCDF" d="M42.83,35.542c1.015,0.02,2.135,0.263,3.181,0.965L45.24,11.132l-2.464-2.725L42.83,35.542z"/>
<circle fill="#EB6A5B" cx="42.514" cy="42.406" r="2.336"/>
</svg>
