<?xml version="1.0" encoding="utf-8"?>
<!-- Generator: Adobe Illustrator 16.0.0, SVG Export Plug-In . SVG Version: 6.00 Build 0)  -->
<!DOCTYPE svg PUBLIC "-//W3C//DTD SVG 1.1//EN" "http://www.w3.org/Graphics/SVG/1.1/DTD/svg11.dtd">
<svg version="1.1" id="Calque_1" xmlns="http://www.w3.org/2000/svg" xmlns:xlink="http://www.w3.org/1999/xlink" x="0px" y="0px"
	 width="85.04px" height="85.04px" viewBox="0 0 85.04 85.04" enable-background="new 0 0 85.04 85.04" xml:space="preserve">
<path fill="#B7DFE2" d="M34.986,50.677L8.234,67.908l-1.333,4.409l5.106,0.913l26.968-15.294
	C38.976,57.937,34.763,55.191,34.986,50.677z"/>
<path fill="#AFDCDF" d="M36.006,54.718c-0.635-1.104-1.098-2.464-1.02-4.041L8.234,67.908l-1.333,4.409L36.006,54.718z"/>
<path fill="#B7DFE2" d="M47.136,58.498l27.586,15.863l4.528-0.838l-1.531-4.958L51.756,51.623
	C51.756,51.623,51.248,56.626,47.136,58.498z"/>
<path fill="#AFDCDF" d="M50.257,55.737c-0.688,1.07-1.684,2.106-3.121,2.761l27.586,15.863l4.528-0.838L50.257,55.737z"/>
<circle fill="#183356" cx="43.312" cy="50.966" r="8.622"/>
<path fill="#B7DFE2" d="M47.693,43.572l-0.965-31.806l-3.09-3.416l-3.417,3.904l-0.806,30.99
	C39.416,43.244,43.94,41.052,47.693,43.572z"/>
<path fill="#AFDCDF" d="M43.708,42.362c1.271,0.025,2.675,0.33,3.985,1.209l-0.965-31.806l-3.09-3.416L43.708,42.362z"/>
<circle fill="#EB6A5B" cx="43.312" cy="50.966" r="2.928"/>
</svg>
