<?xml version="1.0" encoding="utf-8"?>
<!-- Generator: Adobe Illustrator 16.0.0, SVG Export Plug-In . SVG Version: 6.00 Build 0)  -->
<!DOCTYPE svg PUBLIC "-//W3C//DTD SVG 1.1//EN" "http://www.w3.org/Graphics/SVG/1.1/DTD/svg11.dtd">
<svg version="1.1" id="Calque_1" xmlns="http://www.w3.org/2000/svg" xmlns:xlink="http://www.w3.org/1999/xlink" x="0px" y="0px"
	 width="99.21px" height="99.21px" viewBox="0 0 99.21 99.21" enable-background="new 0 0 99.21 99.21" xml:space="preserve">
<g>
	<path fill="#AECD58" d="M40.807,21.226h4.426c0.577,0,1.042-0.466,1.042-1.041c0-0.578-0.465-1.042-1.042-1.042h-4.426
		c-0.572,0-1.035,0.464-1.035,1.042C39.771,20.76,40.234,21.226,40.807,21.226z"/>
	<g>
		
			<path fill="none" stroke="#AECD58" stroke-width="1.8282" stroke-linecap="round" stroke-linejoin="round" stroke-miterlimit="10" d="
			M11.61,50.438c0,4.759,1.888,9.104,5.318,12.244c3.331,3.048,7.837,4.728,12.693,4.728c4.854,0,9.361-1.68,12.692-4.728
			c3.427-3.139,5.317-7.485,5.317-12.244c0-9.935-8.078-17.104-18.009-17.104C19.692,33.333,11.61,40.503,11.61,50.438z
			 M21.949,50.438c0-4.232,3.439-7.676,7.673-7.676c4.228,0,7.672,3.443,7.672,7.676c0,4.231-3.444,7.673-7.672,7.673
			C25.388,58.11,21.949,54.669,21.949,50.438z"/>
		
			<path fill="none" stroke="#AECD58" stroke-width="1.8282" stroke-linecap="round" stroke-linejoin="round" stroke-miterlimit="10" d="
			M58.7,55.878c0,3.175,1.262,6.077,3.548,8.167c2.225,2.037,5.229,3.156,8.467,3.156c3.235,0,6.246-1.119,8.466-3.156
			c2.29-2.09,3.548-4.992,3.548-8.167c0-6.624-5.387-12.016-12.014-12.016C64.089,43.862,58.7,49.254,58.7,55.878z M65.622,55.878
			c0-2.81,2.284-5.095,5.093-5.095s5.093,2.285,5.093,5.095c0,2.812-2.284,5.095-5.093,5.095S65.622,58.689,65.622,55.878z"/>
		
			<path fill="none" stroke="#AECD58" stroke-width="1.8282" stroke-linecap="round" stroke-linejoin="round" stroke-miterlimit="10" d="
			M51.699,50.443c0,1.08-0.079,2.141-0.237,3.178h3.175c1.127-7.862,7.906-13.927,16.074-13.927c4.668,0,8.882,1.98,11.851,5.14
			c3.446-6.024,1.507-19.466-4.748-19.466c-0.256,0-1.571,0-3.644,0v-8.185c0-1.191-0.97-2.16-2.159-2.16
			c-1.194,0-2.16,0.969-2.16,2.16v8.185c-4.062,0-9.322,0-14.93,0c-1.063-4.997-2.447-11.541-3.073-14.647
			c-1.112-5.527-4.729-5.528-6.677-5.524H23.329c-1.417,0-5.184,0-5.633,5.211c-0.281,3.298-1.783,20.106-1.796,20.275
			c-0.08,0.895,0.581,1.675,1.468,1.757c0.403,0.037,0.783-0.082,1.089-0.301c0.015-0.005,0.034-0.01,0.045-0.021
			c3.316-1.79,7.126-2.743,11.12-2.743c5.923,0,11.446,2.102,15.549,5.916C49.381,39.205,51.699,44.586,51.699,50.443z
			 M23.889,8.872h8.619v16.497c-5.951,0-9.768,0-12.327,0c0.469-5.258,1.121-12.175,1.301-14.243
			C21.667,8.957,22.312,8.872,23.889,8.872z M51.056,25.367c-5.389,0-9.826,0-14.839,0V9.091h8.396c1.811,0,2.913-0.002,3.504,2.926
			C48.563,14.225,49.929,20.087,51.056,25.367z"/>
	</g>
</g>
<text transform="matrix(1 0 0 1 15.4771 93.1953)" fill="#AECD58" font-family="'Ubuntu-Medium'" font-size="14">Biomasse</text>
</svg>
