<?xml version="1.0" encoding="utf-8"?>
<!-- Generator: Adobe Illustrator 16.0.0, SVG Export Plug-In . SVG Version: 6.00 Build 0)  -->
<!DOCTYPE svg PUBLIC "-//W3C//DTD SVG 1.1//EN" "http://www.w3.org/Graphics/SVG/1.1/DTD/svg11.dtd">
<svg version="1.1" id="Calque_1" xmlns="http://www.w3.org/2000/svg" xmlns:xlink="http://www.w3.org/1999/xlink" x="0px" y="0px"
	 width="99.21px" height="127.25px" viewBox="0 0 99.21 127.25" enable-background="new 0 0 99.21 127.25" xml:space="preserve">
<g>
	
		<path fill="none" stroke="#EB6A5B" stroke-width="1.8282" stroke-linecap="round" stroke-linejoin="round" stroke-miterlimit="10" d="
		M41.688,38.319L20.543,51.554l-1.096,3.364l3.911,0.791L44.34,44.396C44.34,44.396,41.149,42.05,41.688,38.319z"/>
	
		<path fill="none" stroke="#EB6A5B" stroke-width="1.8282" stroke-linecap="round" stroke-linejoin="round" stroke-miterlimit="10" d="
		M78.254,48.072l-21.498-9.503c0,0,0.271,3.854-2.619,5.784l22.559,8.488l3.334-1.196L78.254,48.072z"/>
	
		<path fill="none" stroke="#EB6A5B" stroke-width="1.8282" stroke-linecap="round" stroke-linejoin="round" stroke-miterlimit="10" d="
		M49.444,43.231c2.476-0.09,4.408-2.17,4.317-4.646c-0.09-2.471-2.17-4.404-4.643-4.315c-2.472,0.09-4.407,2.169-4.316,4.641
		C44.892,41.387,46.973,43.321,49.444,43.231z"/>
	
		<path fill="none" stroke="#EB6A5B" stroke-width="1.8282" stroke-linecap="round" stroke-linejoin="round" stroke-miterlimit="10" d="
		M52.108,31.622L49.201,7.33l-2.599-2.407l-2.352,3.223l1.493,23.788C45.744,31.934,49.061,29.951,52.108,31.622z"/>
	<path fill="none" stroke="#EB6A5B" stroke-width="2" stroke-linecap="round" stroke-linejoin="round" stroke-miterlimit="10" d="
		M50,46.066c0,0-1,0.916-3,0.211v37.501l-2,0.004v9.256l1-0.005v0.005l2.057-0.013L52,93.012v-9.249l-2,0.003V46.066z"/>
</g>
<text transform="matrix(1 0 0 1 30.4771 121.9453)" fill="#EB6A5B" font-family="'Ubuntu-Medium'" font-size="14">éolien</text>
</svg>
