<?xml version="1.0" encoding="utf-8"?>
<!-- Generator: Adobe Illustrator 16.0.0, SVG Export Plug-In . SVG Version: 6.00 Build 0)  -->
<!DOCTYPE svg PUBLIC "-//W3C//DTD SVG 1.1//EN" "http://www.w3.org/Graphics/SVG/1.1/DTD/svg11.dtd">
<svg version="1.1" id="Calque_1" xmlns="http://www.w3.org/2000/svg" xmlns:xlink="http://www.w3.org/1999/xlink" x="0px" y="0px"
	 width="85.04px" height="85.04px" viewBox="0 0 85.04 85.04" enable-background="new 0 0 85.04 85.04" xml:space="preserve">
<g>
	<path fill="#183356" d="M104.875,45.275V42.04h-0.412V24.456c0,0-0.658,0.285-1.507,0.066v17.584h-0.46v3.2
		c0,0-0.098,1.331,1.227,1.331C104.987,46.637,104.875,45.275,104.875,45.275z"/>
	<path fill="#ED796B" d="M101.878,21.807l-7.534,1.107l-0.727,0.829l1.022,0.705l7.389-0.664
		C102.029,23.784,101.383,22.769,101.878,21.807z"/>
	<path fill="#EB6A5B" d="M101.701,22.789c-0.028-0.304,0.005-0.646,0.178-0.981l-7.534,1.107l-0.727,0.829L101.701,22.789z"/>
	<path fill="#ED796B" d="M103.752,24.713l4.44,6.187l1.069,0.266l0.156-1.231l-3.979-6.261
		C105.439,23.673,104.833,24.713,103.752,24.713z"/>
	<path fill="#EB6A5B" d="M104.706,24.421c-0.257,0.165-0.576,0.292-0.953,0.292l4.44,6.187l1.069,0.266L104.706,24.421z"/>
	<circle fill="#183356" cx="103.664" cy="22.695" r="2.063"/>
	<path fill="#ED796B" d="M105.351,21.516l2.938-7.024l-0.335-1.05l-1.131,0.513l-3.242,6.673
		C103.581,20.626,104.783,20.596,105.351,21.516z"/>
	<path fill="#EB6A5B" d="M104.602,20.859c0.275,0.131,0.551,0.336,0.749,0.657l2.938-7.024l-0.335-1.05L104.602,20.859z"/>
	<circle fill="#EB6A5B" cx="103.664" cy="22.694" r="0.701"/>
</g>
<g>
	<path fill="#183356" d="M125.257,45.275V42.04h-0.412V24.456c0,0-0.658,0.285-1.507,0.066v17.584h-0.459v3.2
		c0,0-0.098,1.331,1.226,1.331C125.371,46.637,125.257,45.275,125.257,45.275z"/>
	<path fill="#ED796B" d="M124.173,20.703l-3.688-6.662l-1.032-0.388l-0.299,1.205l3.223,6.681
		C122.376,21.539,123.099,20.578,124.173,20.703z"/>
	<path fill="#EB6A5B" d="M123.193,20.882c0.273-0.134,0.605-0.223,0.98-0.179l-3.688-6.662l-1.032-0.388L123.193,20.882z"/>
	<path fill="#ED796B" d="M122.114,23.478l-4.227,6.335l0.128,1.095l1.208-0.287l4.458-5.93
		C123.681,24.69,122.495,24.49,122.114,23.478z"/>
	<path fill="#EB6A5B" d="M122.722,24.267c-0.244-0.182-0.476-0.436-0.608-0.789l-4.227,6.335l0.128,1.095L122.722,24.267z"/>
	<circle fill="#183356" cx="123.973" cy="22.686" r="2.063"/>
	<path fill="#ED796B" d="M125.67,23.849l7.609,0.275l0.864-0.684l-0.878-0.878l-7.387-0.685
		C125.879,21.877,126.332,22.993,125.67,23.849z"/>
	<path fill="#EB6A5B" d="M126.022,22.916c-0.026,0.303-0.121,0.634-0.352,0.933l7.609,0.275l0.864-0.684L126.022,22.916z"/>
	<circle fill="#EB6A5B" cx="123.973" cy="22.685" r="0.701"/>
</g>
<g>
	<path fill="#C7E6E9" d="M60.972,42.542c0.013,0.965-0.073,1.895-0.247,2.764l18.85-0.783l2.405-2.284l-2.158-2.004l-19.149-0.348
		C60.854,40.724,60.958,41.616,60.972,42.542z"/>
	<path fill="#AFDCDF" d="M60.97,42.49l21.01-0.251l-2.158-2.004l-19.149-0.348C60.851,40.707,60.956,41.582,60.97,42.49z"/>
	<polygon fill="#5D7089" points="79.069,44.544 79.575,44.523 81.98,42.239 79.822,40.235 79.335,40.226 80.665,42.254 	"/>
	<polygon fill="#183356" points="80.665,42.254 81.98,42.239 79.822,40.235 79.341,40.226 	"/>
</g>
<g>
	<path fill="#C7E6E9" d="M33.266,58.239c-0.921-0.514-1.757-1.096-2.495-1.72l-8.7,16.742l0.959,3.326l2.979-0.777l9.921-16.383
		C35.047,59.128,34.15,58.733,33.266,58.239z"/>
	<path fill="#AFDCDF" d="M33.317,58.267L23.03,76.587l2.979-0.777l9.921-16.383C35.064,59.134,34.185,58.749,33.317,58.267z"/>
</g>
<g>
	<path fill="#C7E6E9" d="M33.822,26.43c0.925-0.509,1.861-0.91,2.781-1.206L27.009,8.978L23.68,8.029l-0.918,2.938l8.644,17.092
		C32.125,27.47,32.935,26.917,33.822,26.43z"/>
	<path fill="#AFDCDF" d="M33.772,26.458L23.68,8.029l-0.918,2.938l8.644,17.092C32.111,27.48,32.905,26.939,33.772,26.458z"/>
</g>
</svg>
