<?xml version="1.0" encoding="utf-8"?>
<!-- Generator: Adobe Illustrator 16.0.0, SVG Export Plug-In . SVG Version: 6.00 Build 0)  -->
<!DOCTYPE svg PUBLIC "-//W3C//DTD SVG 1.1//EN" "http://www.w3.org/Graphics/SVG/1.1/DTD/svg11.dtd">
<svg version="1.1" id="Calque_1" xmlns="http://www.w3.org/2000/svg" xmlns:xlink="http://www.w3.org/1999/xlink" x="0px" y="0px"
	 width="85.04px" height="85.04px" viewBox="0 0 85.04 85.04" enable-background="new 0 0 85.04 85.04" xml:space="preserve">
<g>
	<path fill="#C7E6E9" d="M55.645,42.141c0.014,1.038-0.081,2.036-0.266,2.973l20.265-0.844l2.585-2.456l-2.321-2.154l-20.586-0.374
		C55.516,40.185,55.63,41.144,55.645,42.141z"/>
	<path fill="#AFDCDF" d="M55.642,42.083l22.587-0.27l-2.321-2.154l-20.586-0.374C55.513,40.167,55.624,41.107,55.642,42.083z"/>
	<polygon fill="#5D7089" points="75.099,44.292 75.644,44.27 78.229,41.814 75.907,39.66 75.386,39.65 76.814,41.831 	"/>
	<polygon fill="#183356" points="76.814,41.831 78.229,41.814 75.907,39.66 75.392,39.65 	"/>
</g>
<g>
	<path fill="#C7E6E9" d="M25.857,59.016c-0.99-0.553-1.888-1.179-2.682-1.849l-9.353,17.999l1.03,3.575l3.204-0.835l10.666-17.614
		C27.773,59.972,26.808,59.547,25.857,59.016z"/>
	<path fill="#AFDCDF" d="M25.913,59.047l-11.06,19.694l3.204-0.835l10.666-17.614C27.791,59.979,26.846,59.563,25.913,59.047z"/>
</g>
<g>
	<path fill="#C7E6E9" d="M26.456,24.818c0.993-0.547,2-0.978,2.988-1.296L19.13,6.056l-3.579-1.02l-0.987,3.16l9.292,18.375
		C24.631,25.937,25.502,25.343,26.456,24.818z"/>
	<path fill="#AFDCDF" d="M26.402,24.849L15.552,5.036l-0.987,3.16l9.292,18.375C24.616,25.948,25.469,25.366,26.402,24.849z"/>
</g>
</svg>
