<?xml version="1.0" encoding="utf-8"?>
<!-- Generator: Adobe Illustrator 16.0.0, SVG Export Plug-In . SVG Version: 6.00 Build 0)  -->
<!DOCTYPE svg PUBLIC "-//W3C//DTD SVG 1.1//EN" "http://www.w3.org/Graphics/SVG/1.1/DTD/svg11.dtd">
<svg version="1.1" id="Calque_1" xmlns="http://www.w3.org/2000/svg" xmlns:xlink="http://www.w3.org/1999/xlink" x="0px" y="0px"
	 width="99.21px" height="99.21px" viewBox="0 0 99.21 99.21" enable-background="new 0 0 99.21 99.21" xml:space="preserve">
<g>
	
		<rect x="42.191" y="44.93" fill="none" stroke="#183356" stroke-width="1.8282" stroke-linecap="round" stroke-linejoin="round" stroke-miterlimit="10" width="9.68" height="16.13"/>
	
		<polygon fill="none" stroke="#183356" stroke-width="1.8282" stroke-linecap="round" stroke-linejoin="round" stroke-miterlimit="10" points="
		50.258,38.47 50.258,41.695 69.614,41.695 82.518,28.792 82.518,25.563 63.163,25.563 	"/>
	
		<polygon fill="none" stroke="#183356" stroke-width="1.8282" stroke-linecap="round" stroke-linejoin="round" stroke-miterlimit="10" points="
		77.68,11.048 66.388,22.341 85.742,22.341 85.742,25.563 97.035,14.275 97.035,11.048 	"/>
	
		<polygon fill="none" stroke="#183356" stroke-width="1.8282" stroke-linecap="round" stroke-linejoin="round" stroke-miterlimit="10" points="
		61.548,22.341 72.841,11.048 53.483,11.048 42.191,22.341 	"/>
	
		<polygon fill="none" stroke="#183356" stroke-width="1.8282" stroke-linecap="round" stroke-linejoin="round" stroke-miterlimit="10" points="
		38.966,25.563 26.062,38.47 26.062,41.695 45.418,41.695 45.418,38.47 45.418,38.47 58.323,25.563 	"/>
	
		<polygon fill="none" stroke="#183356" stroke-width="1.8282" stroke-linecap="round" stroke-linejoin="round" stroke-miterlimit="10" points="
		48.645,11.048 29.29,11.048 17.997,22.341 37.353,22.341 	"/>
	
		<polygon fill="none" stroke="#183356" stroke-width="1.8282" stroke-linecap="round" stroke-linejoin="round" stroke-miterlimit="10" points="
		14.774,25.563 1.868,38.47 1.868,41.695 21.225,41.695 21.225,38.47 34.128,25.563 	"/>
</g>
<text transform="matrix(1 0 0 1 22.4771 86.1953)" fill="#183356" font-family="'Ubuntu-Medium'" font-size="14">Solaire</text>
</svg>
