<?xml version="1.0" encoding="utf-8"?>
<!-- Generator: Adobe Illustrator 15.1.0, SVG Export Plug-In . SVG Version: 6.00 Build 0)  -->
<!DOCTYPE svg PUBLIC "-//W3C//DTD SVG 1.1//EN" "http://www.w3.org/Graphics/SVG/1.1/DTD/svg11.dtd">
<svg version="1.1" id="Calque_1" xmlns="http://www.w3.org/2000/svg" xmlns:xlink="http://www.w3.org/1999/xlink" x="0px" y="0px"
	 width="84px" height="92px" viewBox="0 0 84 92" enable-background="new 0 0 84 92" xml:space="preserve">
<g id="XMLID_1574_">
	<path id="XMLID_1579_" fill="#727272" d="M75.498,63.232L46.723,48.568l14.683,28.756l0.058-8.653l0.291,0.254l11.062,11.062
		c3.651-3.651,3.025-7.93,0-10.954l-5.525-5.526L75.498,63.232z"/>
	<g id="XMLID_1576_">
		<path id="XMLID_1577_" fill="#727272" d="M43.125,44.365v11.256h-4.828V44.365H26.946v-5.048h11.351V28.061h4.828v11.256h11.287
			v5.048H43.125z"/>
	</g>
	<path id="XMLID_1575_" fill="none" stroke="#727272" stroke-miterlimit="10" d="M9.742,42.857L18.5,32.256v-4.708l7.904-5.003
		l7.65-12.485l6.459,4.036L48.5,15.44v6.054l9.399,2.69l4.601,3.277v6.14l3.414,3.027L62.5,42.558v3.151l3.779,4.877
		c0,0,5.367,0.632-3.333,5.885c-8.701,5.254-3.843-4.127-7.206,3.486c-3.363,7.612-3.317,6.339-3.317,6.339l-0.649,5.981
		l-9.405,1.346l-6.721-5.717l-7.06-1.61l0.337-6.339l1.683-1.805l-1.682-3.699c0,0,0.674,0-3.699-0.336
		c-4.371-0.337-4.371-0.337-4.371-0.337l-5.382,3.027c0,0-3.391-0.337-4.554-4.372c-1.163-4.036-1.752-4.036-1.752-4.036
		L9.742,42.857z"/>
</g>
</svg>
