<?xml version="1.0" encoding="utf-8"?>
<!-- Generator: Adobe Illustrator 15.1.0, SVG Export Plug-In . SVG Version: 6.00 Build 0)  -->
<!DOCTYPE svg PUBLIC "-//W3C//DTD SVG 1.1//EN" "http://www.w3.org/Graphics/SVG/1.1/DTD/svg11.dtd">
<svg version="1.1" id="Calque_1" xmlns="http://www.w3.org/2000/svg" xmlns:xlink="http://www.w3.org/1999/xlink" x="0px" y="0px"
	 width="819px" height="44.166px" viewBox="0 0 819 44.166" enable-background="new 0 0 819 44.166" xml:space="preserve">
<g id="XMLID_3992_">
	<rect id="XMLID_4000_" x="10.334" y="23.166" fill="#FCE8AB" width="201.166" height="21"/>
	<rect id="XMLID_3998_" x="211.5" y="23.166" fill="#E3CEB3" width="201.166" height="21"/>
	<rect id="XMLID_3996_" x="412.666" y="23.166" fill="#DBA774" width="201.167" height="21"/>
	<rect id="XMLID_3994_" x="613.833" y="23.166" fill="#A77548" width="201.167" height="21"/>
</g>
<g>
	<path fill="#727272" d="M8.437,6.097c0,0.94-0.102,1.754-0.304,2.441s-0.479,1.256-0.829,1.706c-0.35,0.45-0.764,0.785-1.241,1.005
		c-0.478,0.221-0.988,0.33-1.533,0.33c-0.551,0-1.062-0.109-1.534-0.33c-0.473-0.22-0.884-0.555-1.233-1.005
		c-0.351-0.45-0.625-1.019-0.825-1.706s-0.3-1.501-0.3-2.441c0-0.939,0.1-1.755,0.3-2.445c0.2-0.689,0.475-1.261,0.825-1.713
		c0.35-0.453,0.761-0.789,1.233-1.009C3.468,0.709,3.979,0.6,4.529,0.6c0.545,0,1.056,0.109,1.533,0.33
		c0.478,0.22,0.892,0.556,1.241,1.009c0.351,0.452,0.627,1.023,0.829,1.713C8.335,4.342,8.437,5.157,8.437,6.097z M7.049,6.097
		c0-0.82-0.068-1.509-0.206-2.066S6.521,3.024,6.288,2.685S5.786,2.101,5.481,1.953S4.859,1.731,4.529,1.731
		S3.882,1.806,3.576,1.953C3.271,2.101,3.004,2.345,2.774,2.685C2.544,3.024,2.36,3.473,2.223,4.03S2.017,5.276,2.017,6.097
		s0.068,1.508,0.206,2.062s0.321,1.003,0.552,1.343c0.229,0.34,0.497,0.584,0.802,0.731c0.306,0.147,0.623,0.221,0.953,0.221
		s0.647-0.073,0.952-0.221s0.574-0.392,0.807-0.731s0.417-0.788,0.555-1.343S7.049,6.917,7.049,6.097z"/>
	<path fill="#727272" d="M12.036,4.725h1.103c0.1-0.63,0.269-1.199,0.506-1.707c0.238-0.507,0.533-0.939,0.886-1.297
		s0.759-0.631,1.219-0.821s0.96-0.285,1.5-0.285c0.67,0,1.242,0.125,1.717,0.375c0.476,0.25,0.888,0.595,1.238,1.035l-0.458,0.51
		c-0.04,0.045-0.08,0.084-0.12,0.116c-0.04,0.033-0.095,0.049-0.165,0.049c-0.085,0-0.174-0.048-0.266-0.143
		c-0.093-0.095-0.217-0.2-0.371-0.314c-0.155-0.115-0.354-0.221-0.597-0.315s-0.552-0.143-0.927-0.143
		c-0.729,0-1.336,0.25-1.818,0.75s-0.804,1.23-0.964,2.19h4.103v0.412c0,0.09-0.033,0.172-0.102,0.244
		c-0.067,0.072-0.161,0.108-0.281,0.108h-3.81c-0.005,0.101-0.009,0.2-0.011,0.3c-0.003,0.101-0.004,0.203-0.004,0.308
		c0,0.08,0,0.157,0,0.232s0.002,0.15,0.007,0.226h3.503v0.42c0,0.085-0.035,0.163-0.105,0.236c-0.069,0.072-0.165,0.108-0.284,0.108
		h-3.046c0.141,1.03,0.45,1.803,0.931,2.317c0.479,0.515,1.085,0.772,1.814,0.772c0.271,0,0.508-0.026,0.713-0.079
		c0.205-0.052,0.383-0.118,0.532-0.198c0.15-0.08,0.279-0.166,0.387-0.259s0.201-0.179,0.281-0.259s0.151-0.146,0.214-0.198
		c0.062-0.053,0.123-0.079,0.184-0.079c0.04,0,0.075,0.009,0.104,0.026c0.03,0.018,0.065,0.044,0.105,0.078l0.562,0.525
		c-0.351,0.51-0.785,0.906-1.305,1.188c-0.521,0.283-1.138,0.424-1.853,0.424c-0.58,0-1.103-0.099-1.568-0.296
		c-0.465-0.197-0.867-0.48-1.207-0.848s-0.619-0.814-0.836-1.343c-0.218-0.527-0.366-1.118-0.446-1.773h-1.065V6.555h1.005
		c-0.005-0.075-0.007-0.15-0.007-0.226s0-0.152,0-0.232c0-0.1,0.001-0.201,0.003-0.304c0.003-0.103,0.007-0.203,0.012-0.304h-1.013
		V4.725z"/>
</g>
<g>
	<path fill="#727272" d="M182.807,0.6c0.454,0,0.875,0.064,1.26,0.194c0.385,0.131,0.716,0.315,0.993,0.556
		c0.278,0.239,0.494,0.529,0.649,0.87c0.154,0.34,0.232,0.717,0.232,1.132c0,0.34-0.044,0.645-0.132,0.911
		c-0.087,0.268-0.212,0.503-0.375,0.705c-0.162,0.203-0.358,0.374-0.588,0.514c-0.23,0.141-0.488,0.253-0.772,0.338
		c0.699,0.185,1.226,0.495,1.578,0.93c0.353,0.436,0.529,0.98,0.529,1.636c0,0.494-0.094,0.939-0.281,1.335
		c-0.188,0.395-0.444,0.73-0.77,1.009c-0.324,0.277-0.703,0.489-1.136,0.637s-0.896,0.222-1.392,0.222
		c-0.569,0-1.058-0.071-1.462-0.214c-0.405-0.143-0.748-0.339-1.028-0.589c-0.279-0.25-0.51-0.546-0.689-0.889
		s-0.333-0.714-0.458-1.113l0.57-0.24c0.105-0.045,0.21-0.067,0.315-0.067c0.1,0,0.188,0.021,0.266,0.063
		c0.078,0.043,0.137,0.108,0.177,0.198c0.01,0.021,0.02,0.042,0.03,0.064c0.01,0.022,0.02,0.046,0.029,0.071
		c0.07,0.145,0.155,0.309,0.255,0.491c0.101,0.183,0.235,0.354,0.405,0.514s0.381,0.295,0.634,0.405
		c0.253,0.109,0.566,0.165,0.941,0.165s0.703-0.062,0.986-0.185c0.282-0.122,0.518-0.281,0.705-0.476
		c0.188-0.195,0.328-0.413,0.424-0.652c0.095-0.24,0.143-0.478,0.143-0.713c0-0.29-0.039-0.555-0.116-0.795
		c-0.078-0.24-0.218-0.447-0.421-0.623c-0.202-0.175-0.482-0.312-0.84-0.412s-0.816-0.15-1.376-0.15V5.467
		c0.455,0,0.844-0.048,1.166-0.143s0.586-0.225,0.791-0.39s0.354-0.362,0.446-0.593c0.093-0.229,0.14-0.485,0.14-0.765
		c0-0.311-0.049-0.58-0.146-0.811c-0.098-0.229-0.231-0.42-0.401-0.569c-0.17-0.15-0.371-0.263-0.604-0.338
		s-0.484-0.112-0.754-0.112c-0.271,0-0.521,0.04-0.75,0.119c-0.23,0.08-0.434,0.191-0.611,0.334s-0.326,0.312-0.446,0.51
		s-0.21,0.41-0.271,0.641c-0.04,0.145-0.1,0.249-0.18,0.314c-0.08,0.064-0.183,0.097-0.308,0.097c-0.024,0-0.051-0.001-0.078-0.003
		c-0.028-0.003-0.06-0.007-0.094-0.012l-0.698-0.118c0.07-0.489,0.205-0.923,0.405-1.301s0.454-0.693,0.762-0.949
		c0.307-0.255,0.659-0.448,1.057-0.581C181.918,0.666,182.346,0.6,182.807,0.6z"/>
	<path fill="#727272" d="M191.364,0.6c0.455,0,0.88,0.067,1.274,0.202c0.396,0.135,0.736,0.331,1.024,0.589
		c0.287,0.258,0.514,0.571,0.679,0.941s0.247,0.79,0.247,1.26c0,0.4-0.06,0.771-0.18,1.11s-0.283,0.666-0.487,0.979
		c-0.205,0.312-0.441,0.615-0.709,0.907c-0.268,0.293-0.552,0.592-0.852,0.896l-2.827,2.895c0.199-0.055,0.402-0.099,0.607-0.131
		s0.402-0.049,0.593-0.049h3.6c0.145,0,0.26,0.043,0.345,0.128s0.128,0.194,0.128,0.33v0.81h-7.17V11.01
		c0-0.096,0.019-0.193,0.056-0.293c0.038-0.1,0.099-0.192,0.184-0.277l3.443-3.458c0.284-0.29,0.545-0.568,0.779-0.836
		c0.235-0.268,0.437-0.536,0.604-0.807c0.167-0.27,0.296-0.543,0.386-0.821c0.09-0.277,0.135-0.573,0.135-0.889
		c0-0.314-0.05-0.591-0.149-0.828c-0.101-0.237-0.238-0.434-0.413-0.589s-0.38-0.271-0.614-0.349
		c-0.235-0.078-0.488-0.116-0.758-0.116c-0.271,0-0.521,0.04-0.75,0.12c-0.23,0.08-0.434,0.19-0.611,0.333s-0.327,0.312-0.45,0.507
		c-0.122,0.194-0.209,0.41-0.259,0.645c-0.04,0.146-0.1,0.25-0.18,0.315c-0.08,0.064-0.186,0.098-0.315,0.098
		c-0.024,0-0.051-0.002-0.078-0.004c-0.028-0.003-0.06-0.007-0.094-0.012l-0.698-0.12c0.07-0.489,0.205-0.923,0.405-1.301
		s0.454-0.693,0.762-0.949c0.308-0.255,0.66-0.448,1.058-0.581C190.476,0.666,190.904,0.6,191.364,0.6z"/>
	<path fill="#727272" d="M199.899,11.587c-0.535,0-1.025-0.071-1.471-0.214c-0.444-0.143-0.827-0.346-1.147-0.611
		c-0.319-0.265-0.567-0.586-0.742-0.964c-0.175-0.377-0.263-0.801-0.263-1.271c0-0.689,0.181-1.258,0.54-1.706
		c0.36-0.447,0.875-0.766,1.545-0.956c-0.564-0.21-0.991-0.523-1.278-0.941c-0.288-0.417-0.432-0.916-0.432-1.496
		c0-0.395,0.078-0.765,0.232-1.11c0.155-0.345,0.375-0.645,0.66-0.899s0.626-0.455,1.024-0.601c0.397-0.145,0.841-0.217,1.331-0.217
		c0.484,0,0.927,0.072,1.327,0.217c0.4,0.146,0.742,0.346,1.027,0.601s0.505,0.555,0.66,0.899c0.155,0.346,0.232,0.716,0.232,1.11
		c0,0.58-0.145,1.079-0.435,1.496c-0.29,0.418-0.716,0.731-1.275,0.941c0.67,0.19,1.186,0.509,1.545,0.956
		c0.36,0.448,0.54,1.017,0.54,1.706c0,0.471-0.089,0.895-0.266,1.271c-0.178,0.378-0.426,0.699-0.743,0.964
		c-0.317,0.266-0.698,0.469-1.144,0.611S200.435,11.587,199.899,11.587z M199.899,10.521c0.35,0,0.663-0.049,0.941-0.146
		c0.277-0.098,0.512-0.235,0.704-0.413c0.193-0.178,0.341-0.39,0.443-0.638c0.102-0.247,0.153-0.521,0.153-0.821
		c0-0.369-0.062-0.686-0.184-0.948c-0.123-0.263-0.288-0.477-0.495-0.642c-0.208-0.165-0.446-0.286-0.716-0.363
		c-0.271-0.078-0.553-0.116-0.848-0.116s-0.578,0.038-0.848,0.116c-0.271,0.077-0.509,0.198-0.717,0.363
		c-0.207,0.165-0.372,0.379-0.494,0.642c-0.123,0.263-0.185,0.579-0.185,0.948c0,0.301,0.052,0.574,0.154,0.821
		c0.103,0.248,0.25,0.46,0.442,0.638s0.428,0.315,0.705,0.413C199.235,10.473,199.549,10.521,199.899,10.521z M199.899,5.361
		c0.35,0,0.648-0.053,0.896-0.161c0.248-0.107,0.449-0.25,0.604-0.427c0.154-0.178,0.268-0.382,0.337-0.611
		c0.07-0.23,0.105-0.468,0.105-0.713c0-0.25-0.041-0.484-0.124-0.705c-0.082-0.22-0.205-0.412-0.367-0.577
		c-0.163-0.165-0.365-0.295-0.607-0.391c-0.243-0.095-0.524-0.142-0.844-0.142c-0.32,0-0.602,0.047-0.844,0.142
		c-0.243,0.096-0.445,0.226-0.607,0.391c-0.163,0.165-0.285,0.357-0.368,0.577c-0.082,0.221-0.123,0.455-0.123,0.705
		c0,0.245,0.034,0.482,0.104,0.713c0.07,0.229,0.183,0.434,0.338,0.611c0.154,0.177,0.356,0.319,0.604,0.427
		C199.25,5.309,199.549,5.361,199.899,5.361z"/>
	<path fill="#727272" d="M209.304,10.447h2.311V3.119c0-0.22,0.007-0.442,0.022-0.667l-1.92,1.643
		c-0.051,0.04-0.101,0.068-0.15,0.086s-0.098,0.026-0.143,0.026c-0.075,0-0.143-0.017-0.202-0.049
		c-0.061-0.032-0.105-0.071-0.136-0.116l-0.42-0.578l3.195-2.767h1.088v9.75h2.114v1.02h-5.76V10.447z"/>
	<path fill="#727272" d="M218.004,10.447h2.311V3.119c0-0.22,0.007-0.442,0.022-0.667l-1.92,1.643
		c-0.051,0.04-0.101,0.068-0.15,0.086s-0.098,0.026-0.143,0.026c-0.075,0-0.143-0.017-0.202-0.049
		c-0.061-0.032-0.105-0.071-0.136-0.116l-0.42-0.578l3.195-2.767h1.088v9.75h2.114v1.02h-5.76V10.447z"/>
	<path fill="#727272" d="M229.427,4.882c0.43,0,0.838,0.071,1.223,0.214s0.723,0.35,1.013,0.622s0.52,0.607,0.689,1.005
		s0.255,0.852,0.255,1.361c0,0.495-0.09,0.955-0.27,1.38c-0.18,0.426-0.432,0.796-0.754,1.11c-0.322,0.315-0.711,0.562-1.166,0.742
		c-0.455,0.181-0.955,0.271-1.5,0.271c-0.54,0-1.029-0.086-1.467-0.259s-0.811-0.418-1.121-0.735
		c-0.31-0.317-0.549-0.702-0.716-1.154c-0.168-0.453-0.252-0.959-0.252-1.52c0-0.47,0.105-0.97,0.315-1.5
		c0.21-0.529,0.542-1.1,0.997-1.71l2.723-3.667c0.07-0.09,0.168-0.166,0.293-0.229s0.268-0.094,0.428-0.094h1.185l-3.728,4.717
		c0.255-0.175,0.537-0.311,0.848-0.408C228.731,4.931,229.066,4.882,229.427,4.882z M226.651,8.151c0,0.346,0.051,0.66,0.15,0.945
		s0.246,0.53,0.438,0.735s0.428,0.363,0.705,0.476c0.277,0.113,0.594,0.169,0.949,0.169c0.359,0,0.685-0.058,0.975-0.172
		c0.29-0.115,0.539-0.275,0.746-0.48c0.208-0.205,0.368-0.447,0.48-0.728s0.169-0.585,0.169-0.915c0-0.35-0.056-0.666-0.165-0.948
		c-0.11-0.283-0.266-0.522-0.466-0.721c-0.199-0.197-0.439-0.349-0.72-0.453c-0.28-0.105-0.587-0.158-0.922-0.158
		c-0.36,0-0.686,0.062-0.976,0.185c-0.29,0.122-0.536,0.287-0.738,0.494c-0.203,0.208-0.357,0.448-0.465,0.721
		C226.705,7.573,226.651,7.856,226.651,8.151z"/>
	<path fill="#727272" d="M236.401,4.725h1.103c0.1-0.63,0.269-1.199,0.506-1.707c0.238-0.507,0.533-0.939,0.886-1.297
		s0.759-0.631,1.219-0.821s0.96-0.285,1.5-0.285c0.67,0,1.242,0.125,1.717,0.375c0.476,0.25,0.888,0.595,1.238,1.035l-0.458,0.51
		c-0.04,0.045-0.08,0.084-0.12,0.116c-0.04,0.033-0.095,0.049-0.165,0.049c-0.085,0-0.174-0.048-0.266-0.143
		c-0.093-0.095-0.217-0.2-0.371-0.314c-0.155-0.115-0.354-0.221-0.597-0.315s-0.552-0.143-0.927-0.143
		c-0.729,0-1.336,0.25-1.818,0.75s-0.804,1.23-0.964,2.19h4.103v0.412c0,0.09-0.033,0.172-0.102,0.244
		c-0.067,0.072-0.161,0.108-0.281,0.108h-3.81c-0.005,0.101-0.009,0.2-0.011,0.3c-0.003,0.101-0.004,0.203-0.004,0.308
		c0,0.08,0,0.157,0,0.232s0.002,0.15,0.007,0.226h3.503v0.42c0,0.085-0.035,0.163-0.105,0.236c-0.069,0.072-0.165,0.108-0.284,0.108
		h-3.046c0.141,1.03,0.45,1.803,0.931,2.317c0.479,0.515,1.085,0.772,1.814,0.772c0.271,0,0.508-0.026,0.713-0.079
		c0.205-0.052,0.383-0.118,0.532-0.198c0.15-0.08,0.279-0.166,0.387-0.259s0.201-0.179,0.281-0.259s0.151-0.146,0.214-0.198
		c0.062-0.053,0.123-0.079,0.184-0.079c0.04,0,0.075,0.009,0.104,0.026c0.03,0.018,0.065,0.044,0.105,0.078l0.562,0.525
		c-0.351,0.51-0.785,0.906-1.305,1.188c-0.521,0.283-1.138,0.424-1.853,0.424c-0.58,0-1.103-0.099-1.568-0.296
		c-0.465-0.197-0.867-0.48-1.207-0.848s-0.619-0.814-0.836-1.343c-0.218-0.527-0.366-1.118-0.446-1.773h-1.065V6.555h1.005
		c-0.005-0.075-0.007-0.15-0.007-0.226s0-0.152,0-0.232c0-0.1,0.001-0.201,0.003-0.304c0.003-0.103,0.007-0.203,0.012-0.304h-1.013
		V4.725z"/>
</g>
<g>
	<path fill="#727272" d="M384.196,4.882c0.43,0,0.838,0.071,1.223,0.214s0.723,0.35,1.013,0.622s0.52,0.607,0.689,1.005
		s0.255,0.852,0.255,1.361c0,0.495-0.09,0.955-0.27,1.38c-0.18,0.426-0.432,0.796-0.754,1.11c-0.322,0.315-0.711,0.562-1.166,0.742
		c-0.455,0.181-0.955,0.271-1.5,0.271c-0.54,0-1.029-0.086-1.467-0.259s-0.811-0.418-1.121-0.735
		c-0.31-0.317-0.549-0.702-0.716-1.154c-0.168-0.453-0.252-0.959-0.252-1.52c0-0.47,0.105-0.97,0.315-1.5
		c0.21-0.529,0.542-1.1,0.997-1.71l2.723-3.667c0.07-0.09,0.168-0.166,0.293-0.229s0.268-0.094,0.428-0.094h1.185l-3.728,4.717
		c0.255-0.175,0.537-0.311,0.848-0.408C383.501,4.931,383.836,4.882,384.196,4.882z M381.421,8.151c0,0.346,0.051,0.66,0.15,0.945
		s0.246,0.53,0.438,0.735s0.428,0.363,0.705,0.476c0.277,0.113,0.594,0.169,0.949,0.169c0.359,0,0.685-0.058,0.975-0.172
		c0.29-0.115,0.539-0.275,0.746-0.48c0.208-0.205,0.368-0.447,0.48-0.728s0.169-0.585,0.169-0.915c0-0.35-0.056-0.666-0.165-0.948
		c-0.11-0.283-0.266-0.522-0.466-0.721c-0.199-0.197-0.439-0.349-0.72-0.453c-0.28-0.105-0.587-0.158-0.922-0.158
		c-0.36,0-0.686,0.062-0.976,0.185c-0.29,0.122-0.536,0.287-0.738,0.494c-0.203,0.208-0.357,0.448-0.465,0.721
		C381.475,7.573,381.421,7.856,381.421,8.151z"/>
	<path fill="#727272" d="M395.356,1.305c0,0.189-0.06,0.346-0.18,0.469c-0.12,0.122-0.323,0.184-0.607,0.184h-3.375l-0.495,2.819
		c0.56-0.119,1.077-0.18,1.553-0.18c0.56,0,1.054,0.083,1.48,0.248c0.428,0.165,0.786,0.393,1.076,0.682
		c0.29,0.29,0.509,0.633,0.656,1.028c0.147,0.395,0.222,0.824,0.222,1.29c0,0.569-0.101,1.085-0.3,1.545
		c-0.2,0.46-0.474,0.854-0.821,1.181c-0.348,0.328-0.757,0.579-1.227,0.754s-0.978,0.263-1.522,0.263
		c-0.314,0-0.617-0.031-0.907-0.094s-0.561-0.146-0.811-0.251c-0.25-0.105-0.482-0.226-0.697-0.36s-0.405-0.277-0.57-0.428
		l0.405-0.569c0.09-0.131,0.21-0.195,0.36-0.195c0.095,0,0.206,0.039,0.334,0.116c0.127,0.077,0.281,0.164,0.461,0.259
		s0.391,0.181,0.634,0.259c0.242,0.077,0.531,0.116,0.866,0.116c0.375,0,0.712-0.061,1.013-0.18c0.3-0.12,0.556-0.292,0.769-0.515
		c0.212-0.222,0.376-0.488,0.491-0.798c0.115-0.311,0.173-0.658,0.173-1.043c0-0.335-0.049-0.638-0.146-0.907
		c-0.098-0.271-0.245-0.5-0.442-0.69c-0.198-0.189-0.444-0.337-0.739-0.442c-0.295-0.104-0.64-0.157-1.035-0.157
		c-0.27,0-0.55,0.022-0.84,0.067s-0.59,0.117-0.899,0.218l-0.841-0.248l0.87-5.024h5.093V1.305z"/>
	<path fill="#727272" d="M401.597,4.882c0.43,0,0.838,0.071,1.223,0.214s0.723,0.35,1.013,0.622s0.52,0.607,0.689,1.005
		s0.255,0.852,0.255,1.361c0,0.495-0.09,0.955-0.27,1.38c-0.18,0.426-0.432,0.796-0.754,1.11c-0.322,0.315-0.711,0.562-1.166,0.742
		c-0.455,0.181-0.955,0.271-1.5,0.271c-0.54,0-1.029-0.086-1.467-0.259s-0.811-0.418-1.121-0.735
		c-0.31-0.317-0.549-0.702-0.716-1.154c-0.168-0.453-0.252-0.959-0.252-1.52c0-0.47,0.105-0.97,0.315-1.5
		c0.21-0.529,0.542-1.1,0.997-1.71l2.723-3.667c0.07-0.09,0.168-0.166,0.293-0.229s0.268-0.094,0.428-0.094h1.185l-3.728,4.717
		c0.255-0.175,0.537-0.311,0.848-0.408C400.901,4.931,401.236,4.882,401.597,4.882z M398.821,8.151c0,0.346,0.051,0.66,0.15,0.945
		s0.246,0.53,0.438,0.735s0.428,0.363,0.705,0.476c0.277,0.113,0.594,0.169,0.949,0.169c0.359,0,0.685-0.058,0.975-0.172
		c0.29-0.115,0.539-0.275,0.746-0.48c0.208-0.205,0.368-0.447,0.48-0.728s0.169-0.585,0.169-0.915c0-0.35-0.056-0.666-0.165-0.948
		c-0.11-0.283-0.266-0.522-0.466-0.721c-0.199-0.197-0.439-0.349-0.72-0.453c-0.28-0.105-0.587-0.158-0.922-0.158
		c-0.36,0-0.686,0.062-0.976,0.185c-0.29,0.122-0.536,0.287-0.738,0.494c-0.203,0.208-0.357,0.448-0.465,0.721
		C398.875,7.573,398.821,7.856,398.821,8.151z"/>
	<path fill="#727272" d="M412.824,0.6c0.455,0,0.88,0.067,1.274,0.202c0.396,0.135,0.736,0.331,1.024,0.589
		c0.287,0.258,0.514,0.571,0.679,0.941s0.247,0.79,0.247,1.26c0,0.4-0.06,0.771-0.18,1.11s-0.283,0.666-0.487,0.979
		c-0.205,0.312-0.441,0.615-0.709,0.907c-0.268,0.293-0.552,0.592-0.852,0.896l-2.827,2.895c0.199-0.055,0.402-0.099,0.607-0.131
		s0.402-0.049,0.593-0.049h3.6c0.145,0,0.26,0.043,0.345,0.128s0.128,0.194,0.128,0.33v0.81h-7.17V11.01
		c0-0.096,0.019-0.193,0.056-0.293c0.038-0.1,0.099-0.192,0.184-0.277l3.443-3.458c0.284-0.29,0.545-0.568,0.779-0.836
		c0.235-0.268,0.437-0.536,0.604-0.807c0.167-0.27,0.296-0.543,0.386-0.821c0.09-0.277,0.135-0.573,0.135-0.889
		c0-0.314-0.05-0.591-0.149-0.828c-0.101-0.237-0.238-0.434-0.413-0.589s-0.38-0.271-0.614-0.349
		c-0.235-0.078-0.488-0.116-0.758-0.116c-0.271,0-0.521,0.04-0.75,0.12c-0.23,0.08-0.434,0.19-0.611,0.333s-0.327,0.312-0.45,0.507
		c-0.122,0.194-0.209,0.41-0.259,0.645c-0.04,0.146-0.1,0.25-0.18,0.315c-0.08,0.064-0.186,0.098-0.315,0.098
		c-0.024,0-0.051-0.002-0.078-0.004c-0.028-0.003-0.06-0.007-0.094-0.012l-0.698-0.12c0.07-0.489,0.205-0.923,0.405-1.301
		s0.454-0.693,0.762-0.949c0.308-0.255,0.66-0.448,1.058-0.581C411.936,0.666,412.364,0.6,412.824,0.6z"/>
	<path fill="#727272" d="M421.667,0.6c0.454,0,0.875,0.064,1.26,0.194c0.385,0.131,0.716,0.315,0.993,0.556
		c0.278,0.239,0.494,0.529,0.649,0.87c0.154,0.34,0.232,0.717,0.232,1.132c0,0.34-0.044,0.645-0.132,0.911
		c-0.087,0.268-0.212,0.503-0.375,0.705c-0.162,0.203-0.358,0.374-0.588,0.514c-0.23,0.141-0.488,0.253-0.772,0.338
		c0.699,0.185,1.226,0.495,1.578,0.93c0.353,0.436,0.529,0.98,0.529,1.636c0,0.494-0.094,0.939-0.281,1.335
		c-0.188,0.395-0.444,0.73-0.77,1.009c-0.324,0.277-0.703,0.489-1.136,0.637s-0.896,0.222-1.392,0.222
		c-0.569,0-1.058-0.071-1.462-0.214c-0.405-0.143-0.748-0.339-1.028-0.589c-0.279-0.25-0.51-0.546-0.689-0.889
		s-0.333-0.714-0.458-1.113l0.57-0.24c0.105-0.045,0.21-0.067,0.315-0.067c0.1,0,0.188,0.021,0.266,0.063
		c0.078,0.043,0.137,0.108,0.177,0.198c0.01,0.021,0.02,0.042,0.03,0.064c0.01,0.022,0.02,0.046,0.029,0.071
		c0.07,0.145,0.155,0.309,0.255,0.491c0.101,0.183,0.235,0.354,0.405,0.514s0.381,0.295,0.634,0.405
		c0.253,0.109,0.566,0.165,0.941,0.165s0.703-0.062,0.986-0.185c0.282-0.122,0.518-0.281,0.705-0.476
		c0.188-0.195,0.328-0.413,0.424-0.652c0.095-0.24,0.143-0.478,0.143-0.713c0-0.29-0.039-0.555-0.116-0.795
		c-0.078-0.24-0.218-0.447-0.421-0.623c-0.202-0.175-0.482-0.312-0.84-0.412s-0.816-0.15-1.376-0.15V5.467
		c0.455,0,0.844-0.048,1.166-0.143s0.586-0.225,0.791-0.39s0.354-0.362,0.446-0.593c0.093-0.229,0.14-0.485,0.14-0.765
		c0-0.311-0.049-0.58-0.146-0.811c-0.098-0.229-0.231-0.42-0.401-0.569c-0.17-0.15-0.371-0.263-0.604-0.338
		s-0.484-0.112-0.754-0.112c-0.271,0-0.521,0.04-0.75,0.119c-0.23,0.08-0.434,0.191-0.611,0.334s-0.326,0.312-0.446,0.51
		s-0.21,0.41-0.271,0.641c-0.04,0.145-0.1,0.249-0.18,0.314c-0.08,0.064-0.183,0.097-0.308,0.097c-0.024,0-0.051-0.001-0.078-0.003
		c-0.028-0.003-0.06-0.007-0.094-0.012l-0.698-0.118c0.07-0.489,0.205-0.923,0.405-1.301s0.454-0.693,0.762-0.949
		c0.307-0.255,0.659-0.448,1.057-0.581C420.778,0.666,421.206,0.6,421.667,0.6z"/>
	<path fill="#727272" d="M430.225,0.6c0.455,0,0.88,0.067,1.274,0.202c0.396,0.135,0.736,0.331,1.024,0.589
		c0.287,0.258,0.514,0.571,0.679,0.941s0.247,0.79,0.247,1.26c0,0.4-0.06,0.771-0.18,1.11s-0.283,0.666-0.487,0.979
		c-0.205,0.312-0.441,0.615-0.709,0.907c-0.268,0.293-0.552,0.592-0.852,0.896l-2.827,2.895c0.199-0.055,0.402-0.099,0.607-0.131
		s0.402-0.049,0.593-0.049h3.6c0.145,0,0.26,0.043,0.345,0.128s0.128,0.194,0.128,0.33v0.81h-7.17V11.01
		c0-0.096,0.019-0.193,0.056-0.293c0.038-0.1,0.099-0.192,0.184-0.277l3.443-3.458c0.284-0.29,0.545-0.568,0.779-0.836
		c0.235-0.268,0.437-0.536,0.604-0.807c0.167-0.27,0.296-0.543,0.386-0.821c0.09-0.277,0.135-0.573,0.135-0.889
		c0-0.314-0.05-0.591-0.149-0.828c-0.101-0.237-0.238-0.434-0.413-0.589s-0.38-0.271-0.614-0.349
		c-0.235-0.078-0.488-0.116-0.758-0.116c-0.271,0-0.521,0.04-0.75,0.12c-0.23,0.08-0.434,0.19-0.611,0.333s-0.327,0.312-0.45,0.507
		c-0.122,0.194-0.209,0.41-0.259,0.645c-0.04,0.146-0.1,0.25-0.18,0.315c-0.08,0.064-0.186,0.098-0.315,0.098
		c-0.024,0-0.051-0.002-0.078-0.004c-0.028-0.003-0.06-0.007-0.094-0.012l-0.698-0.12c0.07-0.489,0.205-0.923,0.405-1.301
		s0.454-0.693,0.762-0.949c0.308-0.255,0.66-0.448,1.058-0.581C429.336,0.666,429.765,0.6,430.225,0.6z"/>
	<path fill="#727272" d="M437.566,4.725h1.103c0.1-0.63,0.269-1.199,0.506-1.707c0.238-0.507,0.533-0.939,0.886-1.297
		s0.759-0.631,1.219-0.821s0.96-0.285,1.5-0.285c0.67,0,1.242,0.125,1.717,0.375c0.476,0.25,0.888,0.595,1.238,1.035l-0.458,0.51
		c-0.04,0.045-0.08,0.084-0.12,0.116c-0.04,0.033-0.095,0.049-0.165,0.049c-0.085,0-0.174-0.048-0.266-0.143
		c-0.093-0.095-0.217-0.2-0.371-0.314c-0.155-0.115-0.354-0.221-0.597-0.315s-0.552-0.143-0.927-0.143
		c-0.729,0-1.336,0.25-1.818,0.75s-0.804,1.23-0.964,2.19h4.103v0.412c0,0.09-0.033,0.172-0.102,0.244
		c-0.067,0.072-0.161,0.108-0.281,0.108h-3.81c-0.005,0.101-0.009,0.2-0.011,0.3c-0.003,0.101-0.004,0.203-0.004,0.308
		c0,0.08,0,0.157,0,0.232s0.002,0.15,0.007,0.226h3.503v0.42c0,0.085-0.035,0.163-0.105,0.236c-0.069,0.072-0.165,0.108-0.284,0.108
		h-3.046c0.141,1.03,0.45,1.803,0.931,2.317c0.479,0.515,1.085,0.772,1.814,0.772c0.271,0,0.508-0.026,0.713-0.079
		c0.205-0.052,0.383-0.118,0.532-0.198c0.15-0.08,0.279-0.166,0.387-0.259s0.201-0.179,0.281-0.259s0.151-0.146,0.214-0.198
		c0.062-0.053,0.123-0.079,0.184-0.079c0.04,0,0.075,0.009,0.104,0.026c0.03,0.018,0.065,0.044,0.105,0.078l0.562,0.525
		c-0.351,0.51-0.785,0.906-1.305,1.188c-0.521,0.283-1.138,0.424-1.853,0.424c-0.58,0-1.103-0.099-1.568-0.296
		c-0.465-0.197-0.867-0.48-1.207-0.848s-0.619-0.814-0.836-1.343c-0.218-0.527-0.366-1.118-0.446-1.773h-1.065V6.555h1.005
		c-0.005-0.075-0.007-0.15-0.007-0.226s0-0.152,0-0.232c0-0.1,0.001-0.201,0.003-0.304c0.003-0.103,0.007-0.203,0.012-0.304h-1.013
		V4.725z"/>
</g>
<g>
	<path fill="#727272" d="M584.606,7.057c-0.404,0-0.788-0.067-1.151-0.202c-0.362-0.135-0.681-0.334-0.956-0.597
		c-0.274-0.263-0.493-0.585-0.656-0.967c-0.162-0.383-0.243-0.821-0.243-1.316c0-0.471,0.087-0.91,0.262-1.32
		c0.176-0.41,0.421-0.768,0.735-1.072c0.315-0.305,0.69-0.545,1.125-0.721c0.436-0.175,0.912-0.262,1.433-0.262
		c0.515,0,0.982,0.085,1.402,0.255s0.78,0.407,1.08,0.712c0.3,0.306,0.531,0.671,0.693,1.096c0.163,0.425,0.244,0.895,0.244,1.41
		c0,0.31-0.028,0.604-0.086,0.881s-0.142,0.549-0.252,0.813c-0.109,0.266-0.241,0.529-0.394,0.791
		c-0.152,0.263-0.326,0.534-0.521,0.814l-2.617,3.779c-0.064,0.096-0.157,0.172-0.277,0.229s-0.258,0.086-0.412,0.086h-1.23
		l3.271-4.282c0.109-0.146,0.212-0.282,0.307-0.413c0.096-0.13,0.186-0.26,0.271-0.39c-0.275,0.22-0.585,0.388-0.93,0.503
		C585.356,6.999,584.992,7.057,584.606,7.057z M587.292,3.914c0-0.335-0.054-0.639-0.161-0.911
		c-0.108-0.272-0.257-0.504-0.446-0.693c-0.19-0.19-0.417-0.337-0.679-0.439c-0.263-0.102-0.552-0.153-0.866-0.153
		c-0.33,0-0.632,0.054-0.904,0.161s-0.505,0.257-0.697,0.446c-0.192,0.19-0.342,0.418-0.446,0.683
		c-0.105,0.265-0.157,0.555-0.157,0.87c0,0.34,0.049,0.644,0.146,0.911c0.098,0.268,0.238,0.494,0.421,0.679
		c0.182,0.185,0.404,0.325,0.667,0.42s0.557,0.143,0.881,0.143c0.36,0,0.679-0.059,0.957-0.176c0.277-0.118,0.511-0.274,0.701-0.469
		c0.189-0.195,0.335-0.421,0.435-0.676C587.242,4.454,587.292,4.189,587.292,3.914z"/>
	<path fill="#727272" d="M593.532,11.587c-0.535,0-1.025-0.071-1.471-0.214c-0.444-0.143-0.827-0.346-1.147-0.611
		c-0.319-0.265-0.567-0.586-0.742-0.964c-0.175-0.377-0.263-0.801-0.263-1.271c0-0.689,0.181-1.258,0.54-1.706
		c0.36-0.447,0.875-0.766,1.545-0.956c-0.564-0.21-0.991-0.523-1.278-0.941c-0.288-0.417-0.432-0.916-0.432-1.496
		c0-0.395,0.078-0.765,0.232-1.11c0.155-0.345,0.375-0.645,0.66-0.899s0.626-0.455,1.024-0.601c0.397-0.145,0.841-0.217,1.331-0.217
		c0.484,0,0.927,0.072,1.327,0.217c0.4,0.146,0.742,0.346,1.027,0.601s0.505,0.555,0.66,0.899c0.155,0.346,0.232,0.716,0.232,1.11
		c0,0.58-0.145,1.079-0.435,1.496c-0.29,0.418-0.716,0.731-1.275,0.941c0.67,0.19,1.186,0.509,1.545,0.956
		c0.36,0.448,0.54,1.017,0.54,1.706c0,0.471-0.089,0.895-0.266,1.271c-0.178,0.378-0.426,0.699-0.743,0.964
		c-0.317,0.266-0.698,0.469-1.144,0.611S594.067,11.587,593.532,11.587z M593.532,10.521c0.35,0,0.663-0.049,0.941-0.146
		c0.277-0.098,0.512-0.235,0.704-0.413c0.193-0.178,0.341-0.39,0.443-0.638c0.102-0.247,0.153-0.521,0.153-0.821
		c0-0.369-0.062-0.686-0.184-0.948c-0.123-0.263-0.288-0.477-0.495-0.642c-0.208-0.165-0.446-0.286-0.716-0.363
		c-0.271-0.078-0.553-0.116-0.848-0.116s-0.578,0.038-0.848,0.116c-0.271,0.077-0.509,0.198-0.717,0.363
		c-0.207,0.165-0.372,0.379-0.494,0.642c-0.123,0.263-0.185,0.579-0.185,0.948c0,0.301,0.052,0.574,0.154,0.821
		c0.103,0.248,0.25,0.46,0.442,0.638s0.428,0.315,0.705,0.413C592.868,10.473,593.182,10.521,593.532,10.521z M593.532,5.361
		c0.35,0,0.648-0.053,0.896-0.161c0.248-0.107,0.449-0.25,0.604-0.427c0.154-0.178,0.268-0.382,0.337-0.611
		c0.07-0.23,0.105-0.468,0.105-0.713c0-0.25-0.041-0.484-0.124-0.705c-0.082-0.22-0.205-0.412-0.367-0.577
		c-0.163-0.165-0.365-0.295-0.607-0.391c-0.243-0.095-0.524-0.142-0.844-0.142c-0.32,0-0.602,0.047-0.844,0.142
		c-0.243,0.096-0.445,0.226-0.607,0.391c-0.163,0.165-0.285,0.357-0.368,0.577c-0.082,0.221-0.123,0.455-0.123,0.705
		c0,0.245,0.034,0.482,0.104,0.713c0.07,0.229,0.183,0.434,0.338,0.611c0.154,0.177,0.356,0.319,0.604,0.427
		C592.883,5.309,593.182,5.361,593.532,5.361z"/>
	<path fill="#727272" d="M604.662,7.589h1.628v0.766c0,0.08-0.024,0.147-0.071,0.202c-0.048,0.056-0.122,0.083-0.222,0.083h-1.335
		v2.827h-1.178V8.64h-4.763c-0.1,0-0.186-0.029-0.258-0.087c-0.073-0.057-0.119-0.128-0.14-0.214l-0.135-0.682l5.228-6.938h1.245
		V7.589z M603.484,3.157c0-0.131,0.004-0.271,0.012-0.421c0.007-0.149,0.023-0.305,0.049-0.465l-3.908,5.317h3.848V3.157z"/>
	<path fill="#727272" d="M614.135,0.6c0.454,0,0.875,0.064,1.26,0.194c0.385,0.131,0.716,0.315,0.993,0.556
		c0.278,0.239,0.494,0.529,0.649,0.87c0.154,0.34,0.232,0.717,0.232,1.132c0,0.34-0.044,0.645-0.132,0.911
		c-0.087,0.268-0.212,0.503-0.375,0.705c-0.162,0.203-0.358,0.374-0.588,0.514c-0.23,0.141-0.488,0.253-0.772,0.338
		c0.699,0.185,1.226,0.495,1.578,0.93c0.353,0.436,0.529,0.98,0.529,1.636c0,0.494-0.094,0.939-0.281,1.335
		c-0.188,0.395-0.444,0.73-0.77,1.009c-0.324,0.277-0.703,0.489-1.136,0.637s-0.896,0.222-1.392,0.222
		c-0.569,0-1.058-0.071-1.462-0.214c-0.405-0.143-0.748-0.339-1.028-0.589c-0.279-0.25-0.51-0.546-0.689-0.889
		s-0.333-0.714-0.458-1.113l0.57-0.24c0.105-0.045,0.21-0.067,0.315-0.067c0.1,0,0.188,0.021,0.266,0.063
		c0.078,0.043,0.137,0.108,0.177,0.198c0.01,0.021,0.02,0.042,0.03,0.064c0.01,0.022,0.02,0.046,0.029,0.071
		c0.07,0.145,0.155,0.309,0.255,0.491c0.101,0.183,0.235,0.354,0.405,0.514s0.381,0.295,0.634,0.405
		c0.253,0.109,0.566,0.165,0.941,0.165s0.703-0.062,0.986-0.185c0.282-0.122,0.518-0.281,0.705-0.476
		c0.188-0.195,0.328-0.413,0.424-0.652c0.095-0.24,0.143-0.478,0.143-0.713c0-0.29-0.039-0.555-0.116-0.795
		c-0.078-0.24-0.218-0.447-0.421-0.623c-0.202-0.175-0.482-0.312-0.84-0.412s-0.816-0.15-1.376-0.15V5.467
		c0.455,0,0.844-0.048,1.166-0.143s0.586-0.225,0.791-0.39s0.354-0.362,0.446-0.593c0.093-0.229,0.14-0.485,0.14-0.765
		c0-0.311-0.049-0.58-0.146-0.811c-0.098-0.229-0.231-0.42-0.401-0.569c-0.17-0.15-0.371-0.263-0.604-0.338
		s-0.484-0.112-0.754-0.112c-0.271,0-0.521,0.04-0.75,0.119c-0.23,0.08-0.434,0.191-0.611,0.334s-0.326,0.312-0.446,0.51
		s-0.21,0.41-0.271,0.641c-0.04,0.145-0.1,0.249-0.18,0.314c-0.08,0.064-0.183,0.097-0.308,0.097c-0.024,0-0.051-0.001-0.078-0.003
		c-0.028-0.003-0.06-0.007-0.094-0.012l-0.698-0.118c0.07-0.489,0.205-0.923,0.405-1.301s0.454-0.693,0.762-0.949
		c0.307-0.255,0.659-0.448,1.057-0.581C613.246,0.666,613.674,0.6,614.135,0.6z"/>
	<path fill="#727272" d="M624.957,7.589h1.628v0.766c0,0.08-0.024,0.147-0.071,0.202c-0.048,0.056-0.122,0.083-0.222,0.083h-1.335
		v2.827h-1.178V8.64h-4.763c-0.1,0-0.186-0.029-0.258-0.087c-0.073-0.057-0.119-0.128-0.14-0.214l-0.135-0.682l5.228-6.938h1.245
		V7.589z M623.779,3.157c0-0.131,0.004-0.271,0.012-0.421c0.007-0.149,0.023-0.305,0.049-0.465l-3.908,5.317h3.848V3.157z"/>
	<path fill="#727272" d="M631.228,11.587c-0.535,0-1.025-0.071-1.471-0.214c-0.444-0.143-0.827-0.346-1.147-0.611
		c-0.319-0.265-0.567-0.586-0.742-0.964c-0.175-0.377-0.263-0.801-0.263-1.271c0-0.689,0.181-1.258,0.54-1.706
		c0.36-0.447,0.875-0.766,1.545-0.956c-0.564-0.21-0.991-0.523-1.278-0.941c-0.288-0.417-0.432-0.916-0.432-1.496
		c0-0.395,0.078-0.765,0.232-1.11c0.155-0.345,0.375-0.645,0.66-0.899s0.626-0.455,1.024-0.601c0.397-0.145,0.841-0.217,1.331-0.217
		c0.484,0,0.927,0.072,1.327,0.217c0.4,0.146,0.742,0.346,1.027,0.601s0.505,0.555,0.66,0.899c0.155,0.346,0.232,0.716,0.232,1.11
		c0,0.58-0.145,1.079-0.435,1.496c-0.29,0.418-0.716,0.731-1.275,0.941c0.67,0.19,1.186,0.509,1.545,0.956
		c0.36,0.448,0.54,1.017,0.54,1.706c0,0.471-0.089,0.895-0.266,1.271c-0.178,0.378-0.426,0.699-0.743,0.964
		c-0.317,0.266-0.698,0.469-1.144,0.611S631.763,11.587,631.228,11.587z M631.228,10.521c0.35,0,0.663-0.049,0.941-0.146
		c0.277-0.098,0.512-0.235,0.704-0.413c0.193-0.178,0.341-0.39,0.443-0.638c0.102-0.247,0.153-0.521,0.153-0.821
		c0-0.369-0.062-0.686-0.184-0.948c-0.123-0.263-0.288-0.477-0.495-0.642c-0.208-0.165-0.446-0.286-0.716-0.363
		c-0.271-0.078-0.553-0.116-0.848-0.116s-0.578,0.038-0.848,0.116c-0.271,0.077-0.509,0.198-0.717,0.363
		c-0.207,0.165-0.372,0.379-0.494,0.642c-0.123,0.263-0.185,0.579-0.185,0.948c0,0.301,0.052,0.574,0.154,0.821
		c0.103,0.248,0.25,0.46,0.442,0.638s0.428,0.315,0.705,0.413C630.563,10.473,630.877,10.521,631.228,10.521z M631.228,5.361
		c0.35,0,0.648-0.053,0.896-0.161c0.248-0.107,0.449-0.25,0.604-0.427c0.154-0.178,0.268-0.382,0.337-0.611
		c0.07-0.23,0.105-0.468,0.105-0.713c0-0.25-0.041-0.484-0.124-0.705c-0.082-0.22-0.205-0.412-0.367-0.577
		c-0.163-0.165-0.365-0.295-0.607-0.391c-0.243-0.095-0.524-0.142-0.844-0.142c-0.32,0-0.602,0.047-0.844,0.142
		c-0.243,0.096-0.445,0.226-0.607,0.391c-0.163,0.165-0.285,0.357-0.368,0.577c-0.082,0.221-0.123,0.455-0.123,0.705
		c0,0.245,0.034,0.482,0.104,0.713c0.07,0.229,0.183,0.434,0.338,0.611c0.154,0.177,0.356,0.319,0.604,0.427
		C630.578,5.309,630.877,5.361,631.228,5.361z"/>
	<path fill="#727272" d="M638.734,4.725h1.103c0.1-0.63,0.269-1.199,0.506-1.707c0.238-0.507,0.533-0.939,0.886-1.297
		s0.759-0.631,1.219-0.821s0.96-0.285,1.5-0.285c0.67,0,1.242,0.125,1.717,0.375c0.476,0.25,0.888,0.595,1.238,1.035l-0.458,0.51
		c-0.04,0.045-0.08,0.084-0.12,0.116c-0.04,0.033-0.095,0.049-0.165,0.049c-0.085,0-0.174-0.048-0.266-0.143
		c-0.093-0.095-0.217-0.2-0.371-0.314c-0.155-0.115-0.354-0.221-0.597-0.315s-0.552-0.143-0.927-0.143
		c-0.729,0-1.336,0.25-1.818,0.75s-0.804,1.23-0.964,2.19h4.103v0.412c0,0.09-0.033,0.172-0.102,0.244
		c-0.067,0.072-0.161,0.108-0.281,0.108h-3.81c-0.005,0.101-0.009,0.2-0.011,0.3c-0.003,0.101-0.004,0.203-0.004,0.308
		c0,0.08,0,0.157,0,0.232s0.002,0.15,0.007,0.226h3.503v0.42c0,0.085-0.035,0.163-0.105,0.236c-0.069,0.072-0.165,0.108-0.284,0.108
		h-3.046c0.141,1.03,0.45,1.803,0.931,2.317c0.479,0.515,1.085,0.772,1.814,0.772c0.271,0,0.508-0.026,0.713-0.079
		c0.205-0.052,0.383-0.118,0.532-0.198c0.15-0.08,0.279-0.166,0.387-0.259s0.201-0.179,0.281-0.259s0.151-0.146,0.214-0.198
		c0.062-0.053,0.123-0.079,0.184-0.079c0.04,0,0.075,0.009,0.104,0.026c0.03,0.018,0.065,0.044,0.105,0.078l0.562,0.525
		c-0.351,0.51-0.785,0.906-1.305,1.188c-0.521,0.283-1.138,0.424-1.853,0.424c-0.58,0-1.103-0.099-1.568-0.296
		c-0.465-0.197-0.867-0.48-1.207-0.848s-0.619-0.814-0.836-1.343c-0.218-0.527-0.366-1.118-0.446-1.773h-1.065V6.555h1.005
		c-0.005-0.075-0.007-0.15-0.007-0.226s0-0.152,0-0.232c0-0.1,0.001-0.201,0.003-0.304c0.003-0.103,0.007-0.203,0.012-0.304h-1.013
		V4.725z"/>
</g>
<g>
	<path fill="#727272" d="M815.532,2.722v3.202h3.052v1.013h-3.052v3.226h-1.096V6.937h-3.037V5.924h3.037V2.722H815.532z"/>
</g>
</svg>
