<?xml version="1.0" encoding="utf-8"?>
<!-- Generator: Adobe Illustrator 15.1.0, SVG Export Plug-In . SVG Version: 6.00 Build 0)  -->
<!DOCTYPE svg PUBLIC "-//W3C//DTD SVG 1.1//EN" "http://www.w3.org/Graphics/SVG/1.1/DTD/svg11.dtd">
<svg version="1.1" id="Calque_1" xmlns="http://www.w3.org/2000/svg" xmlns:xlink="http://www.w3.org/1999/xlink" x="0px" y="0px"
	 width="815.113px" height="43.754px" viewBox="0 0 815.113 43.754" enable-background="new 0 0 815.113 43.754"
	 xml:space="preserve">
<g id="XMLID_3991_">
	<rect id="XMLID_3999_" x="5.445" y="22.754" fill="#FCE8AB" width="201.166" height="21"/>
	<rect id="XMLID_3997_" x="206.611" y="22.754" fill="#E3CEB3" width="201.166" height="21"/>
	<rect id="XMLID_3995_" x="407.777" y="22.754" fill="#DBA774" width="201.168" height="21"/>
	<rect id="XMLID_3993_" x="608.945" y="22.754" fill="#A77548" width="201.166" height="21"/>
</g>
<rect id="XMLID_15_" x="0" fill="none" width="12.445" height="66.993"/>
<g enable-background="new    ">
	<path fill="#727272" d="M10.123,5.685c0,0.94-0.101,1.754-0.304,2.441S9.34,9.382,8.991,9.832c-0.35,0.45-0.764,0.785-1.241,1.005
		c-0.478,0.221-0.989,0.33-1.534,0.33c-0.55,0-1.061-0.109-1.534-0.33c-0.472-0.22-0.884-0.555-1.233-1.005
		c-0.35-0.45-0.625-1.019-0.825-1.706c-0.2-0.688-0.3-1.501-0.3-2.441c0-0.939,0.1-1.755,0.3-2.445
		c0.2-0.689,0.475-1.261,0.825-1.713c0.35-0.453,0.761-0.789,1.233-1.009c0.473-0.221,0.984-0.33,1.534-0.33
		c0.545,0,1.057,0.109,1.534,0.33c0.477,0.22,0.891,0.556,1.241,1.009C9.34,1.979,9.617,2.55,9.819,3.239
		C10.022,3.93,10.123,4.745,10.123,5.685z M8.735,5.685c0-0.82-0.068-1.509-0.206-2.066S8.207,2.612,7.974,2.272
		c-0.232-0.34-0.501-0.584-0.806-0.731S6.545,1.319,6.215,1.319c-0.33,0-0.647,0.074-0.952,0.222C4.958,1.688,4.69,1.933,4.46,2.272
		S4.047,3.061,3.909,3.618S3.703,4.864,3.703,5.685s0.068,1.508,0.206,2.062S4.23,8.75,4.46,9.09s0.498,0.584,0.803,0.731
		c0.305,0.147,0.623,0.221,0.952,0.221c0.33,0,0.647-0.073,0.953-0.221S7.742,9.43,7.974,9.09c0.233-0.34,0.417-0.788,0.555-1.343
		S8.735,6.505,8.735,5.685z"/>
</g>
<rect id="XMLID_13_" x="196.375" fill="none" width="21.07" height="66.993"/>
<g enable-background="new    ">
	<path fill="#727272" d="M209.895,0.893c0,0.189-0.06,0.346-0.18,0.469c-0.12,0.122-0.322,0.184-0.607,0.184h-3.375l-0.495,2.819
		c0.56-0.119,1.077-0.18,1.552-0.18c0.56,0,1.054,0.083,1.481,0.248c0.427,0.165,0.786,0.393,1.076,0.682
		c0.29,0.29,0.509,0.633,0.656,1.028c0.147,0.395,0.221,0.824,0.221,1.29c0,0.569-0.1,1.085-0.3,1.545
		c-0.2,0.46-0.474,0.854-0.821,1.181c-0.348,0.328-0.756,0.579-1.227,0.754c-0.47,0.175-0.978,0.263-1.522,0.263
		c-0.315,0-0.618-0.031-0.907-0.094c-0.29-0.062-0.56-0.146-0.81-0.251c-0.25-0.105-0.483-0.226-0.698-0.36s-0.405-0.277-0.57-0.428
		l0.405-0.569c0.09-0.131,0.21-0.195,0.36-0.195c0.095,0,0.206,0.039,0.333,0.116s0.281,0.164,0.461,0.259
		c0.18,0.095,0.391,0.181,0.634,0.259c0.242,0.077,0.531,0.116,0.866,0.116c0.375,0,0.712-0.061,1.012-0.18
		c0.3-0.12,0.556-0.292,0.769-0.515c0.212-0.222,0.376-0.488,0.491-0.798c0.115-0.311,0.172-0.658,0.172-1.043
		c0-0.335-0.049-0.638-0.146-0.907c-0.098-0.271-0.245-0.5-0.443-0.69c-0.197-0.189-0.444-0.337-0.739-0.442
		c-0.295-0.104-0.64-0.157-1.035-0.157c-0.27,0-0.55,0.022-0.84,0.067s-0.59,0.117-0.9,0.218l-0.84-0.248l0.87-5.024h5.092V0.893z"
		/>
</g>
<rect id="XMLID_11_" x="396.41" fill="none" width="23.035" height="66.993"/>
<g enable-background="new    ">
	<path fill="#727272" d="M401.378,10.035h2.311V2.707c0-0.22,0.008-0.442,0.022-0.667l-1.92,1.643
		c-0.05,0.04-0.101,0.068-0.149,0.086c-0.051,0.018-0.098,0.026-0.143,0.026c-0.076,0-0.143-0.017-0.203-0.049
		s-0.105-0.071-0.135-0.116l-0.42-0.578l3.195-2.767h1.087v9.75h2.115v1.02h-5.761V10.035z"/>
	<path fill="#727272" d="M416.176,5.685c0,0.94-0.101,1.754-0.304,2.441s-0.479,1.256-0.828,1.706
		c-0.351,0.45-0.765,0.785-1.242,1.005c-0.477,0.221-0.988,0.33-1.533,0.33c-0.551,0-1.062-0.109-1.534-0.33
		c-0.472-0.22-0.884-0.555-1.233-1.005s-0.625-1.019-0.825-1.706s-0.3-1.501-0.3-2.441c0-0.939,0.1-1.755,0.3-2.445
		c0.2-0.689,0.476-1.261,0.825-1.713c0.35-0.453,0.762-0.789,1.233-1.009c0.473-0.221,0.983-0.33,1.534-0.33
		c0.545,0,1.057,0.109,1.533,0.33c0.478,0.22,0.892,0.556,1.242,1.009c0.35,0.452,0.625,1.023,0.828,1.713
		C416.076,3.93,416.176,4.745,416.176,5.685z M414.789,5.685c0-0.82-0.068-1.509-0.206-2.066s-0.322-1.006-0.556-1.346
		c-0.232-0.34-0.5-0.584-0.806-0.731s-0.622-0.222-0.952-0.222s-0.648,0.074-0.953,0.222s-0.572,0.392-0.803,0.731
		c-0.229,0.34-0.413,0.788-0.551,1.346s-0.206,1.246-0.206,2.066s0.068,1.508,0.206,2.062s0.321,1.003,0.551,1.343
		c0.23,0.34,0.498,0.584,0.803,0.731s0.623,0.221,0.953,0.221s0.646-0.073,0.952-0.221s0.573-0.392,0.806-0.731
		c0.233-0.34,0.418-0.788,0.556-1.343S414.789,6.505,414.789,5.685z"/>
</g>
<rect id="XMLID_7_" x="596.742" fill="none" width="24.701" height="66.993"/>
<g enable-background="new    ">
	<path fill="#727272" d="M602.544,10.035h2.311V2.707c0-0.22,0.008-0.442,0.022-0.667l-1.92,1.643
		c-0.05,0.04-0.101,0.068-0.149,0.086c-0.051,0.018-0.098,0.026-0.143,0.026c-0.076,0-0.143-0.017-0.203-0.049
		s-0.105-0.071-0.135-0.116l-0.42-0.578l3.195-2.767h1.087v9.75h2.115v1.02h-5.761V10.035z"/>
	<path fill="#727272" d="M616.427,0.893c0,0.189-0.061,0.346-0.18,0.469c-0.12,0.122-0.322,0.184-0.607,0.184h-3.375l-0.495,2.819
		c0.56-0.119,1.077-0.18,1.552-0.18c0.561,0,1.055,0.083,1.482,0.248c0.427,0.165,0.785,0.393,1.076,0.682
		c0.289,0.29,0.508,0.633,0.656,1.028c0.146,0.395,0.221,0.824,0.221,1.29c0,0.569-0.1,1.085-0.3,1.545s-0.474,0.854-0.821,1.181
		c-0.348,0.328-0.756,0.579-1.227,0.754c-0.47,0.175-0.978,0.263-1.522,0.263c-0.315,0-0.618-0.031-0.907-0.094
		c-0.29-0.062-0.561-0.146-0.811-0.251c-0.25-0.105-0.482-0.226-0.697-0.36s-0.404-0.277-0.57-0.428l0.405-0.569
		c0.091-0.131,0.21-0.195,0.36-0.195c0.095,0,0.206,0.039,0.334,0.116c0.127,0.077,0.281,0.164,0.461,0.259s0.391,0.181,0.634,0.259
		c0.242,0.077,0.531,0.116,0.866,0.116c0.375,0,0.713-0.061,1.012-0.18c0.301-0.12,0.557-0.292,0.77-0.515
		c0.213-0.222,0.376-0.488,0.491-0.798c0.114-0.311,0.173-0.658,0.173-1.043c0-0.335-0.049-0.638-0.146-0.907
		c-0.098-0.271-0.245-0.5-0.443-0.69c-0.197-0.189-0.443-0.337-0.738-0.442c-0.295-0.104-0.64-0.157-1.035-0.157
		c-0.27,0-0.55,0.022-0.84,0.067s-0.59,0.117-0.9,0.218l-0.84-0.248l0.871-5.024h5.092V0.893z"/>
</g>
<rect id="XMLID_3_" x="793.378" fill="none" width="33.73" height="66.993"/>
<g enable-background="new    ">
	<path fill="#727272" d="M810.776,2.31v3.202h3.053v1.013h-3.053V9.75h-1.095V6.524h-3.037V5.512h3.037V2.31H810.776z"/>
</g>
</svg>
