<?xml version="1.0" encoding="utf-8"?>
<!-- Generator: Adobe Illustrator 15.1.0, SVG Export Plug-In . SVG Version: 6.00 Build 0)  -->
<!DOCTYPE svg PUBLIC "-//W3C//DTD SVG 1.1//EN" "http://www.w3.org/Graphics/SVG/1.1/DTD/svg11.dtd">
<svg version="1.1" id="Calque_1" xmlns="http://www.w3.org/2000/svg" xmlns:xlink="http://www.w3.org/1999/xlink" x="0px" y="0px"
	 width="818.479px" height="64.993px" viewBox="0 0 818.479 64.993" enable-background="new 0 0 818.479 64.993"
	 xml:space="preserve">
<g id="XMLID_4478_">
	<rect id="XMLID_4482_" x="7.445" y="24.539" fill="#FCE8AB" width="201.166" height="14.356"/>
	<rect id="XMLID_4481_" x="208.611" y="24.539" fill="#E3CEB3" width="201.166" height="14.356"/>
	<rect id="XMLID_4480_" x="409.776" y="24.539" fill="#DBA774" width="201.168" height="14.356"/>
	<rect id="XMLID_4479_" x="610.944" y="24.539" fill="#A77548" width="201.166" height="14.356"/>
</g>
<rect id="XMLID_4477_" x="7.445" y="38.895" fill="#5D5DA5" width="402.333" height="25.857"/>
<rect id="XMLID_4476_" x="409.778" y="38.895" fill="#9393CC" width="402.332" height="25.857"/>
<rect id="XMLID_21_" x="2" fill="none" width="11.611" height="64.754"/>
<g enable-background="new    ">
	<path fill="#727272" d="M11.706,5.686c0,0.94-0.101,1.754-0.304,2.441s-0.479,1.256-0.829,1.706
		c-0.35,0.45-0.764,0.785-1.241,1.005c-0.478,0.221-0.989,0.33-1.534,0.33c-0.55,0-1.061-0.109-1.534-0.33
		c-0.472-0.22-0.884-0.555-1.233-1.005c-0.35-0.45-0.625-1.019-0.825-1.706c-0.2-0.688-0.3-1.501-0.3-2.441
		c0-0.939,0.1-1.755,0.3-2.445c0.2-0.689,0.475-1.261,0.825-1.713c0.35-0.453,0.761-0.789,1.233-1.009
		c0.473-0.221,0.984-0.33,1.534-0.33c0.545,0,1.057,0.109,1.534,0.33c0.477,0.22,0.891,0.556,1.241,1.009
		c0.35,0.452,0.626,1.023,0.829,1.713C11.604,3.931,11.706,4.746,11.706,5.686z M10.318,5.686c0-0.82-0.068-1.509-0.206-2.066
		S9.79,2.613,9.557,2.273C9.324,1.934,9.056,1.689,8.75,1.542S8.128,1.32,7.798,1.32c-0.33,0-0.647,0.074-0.952,0.222
		C6.541,1.689,6.273,1.934,6.043,2.273S5.629,3.062,5.492,3.619S5.286,4.865,5.286,5.686s0.068,1.508,0.206,2.062
		s0.321,1.003,0.551,1.343s0.498,0.584,0.803,0.731c0.305,0.147,0.623,0.221,0.952,0.221c0.33,0,0.647-0.073,0.953-0.221
		s0.574-0.392,0.806-0.731c0.233-0.34,0.417-0.788,0.555-1.343S10.318,6.506,10.318,5.686z"/>
</g>
<rect id="XMLID_19_" x="198.374" fill="none" width="21.737" height="64.754"/>
<g enable-background="new    ">
	<path fill="#727272" d="M205.05,0.188c0.455,0,0.88,0.067,1.275,0.202c0.395,0.135,0.736,0.331,1.023,0.589
		s0.514,0.571,0.679,0.941s0.248,0.79,0.248,1.26c0,0.4-0.06,0.771-0.18,1.11c-0.12,0.34-0.283,0.666-0.488,0.979
		s-0.441,0.615-0.708,0.907c-0.268,0.293-0.551,0.592-0.852,0.896l-2.827,2.895c0.2-0.055,0.402-0.099,0.607-0.131
		c0.205-0.032,0.402-0.049,0.592-0.049h3.6c0.145,0,0.26,0.043,0.345,0.128s0.128,0.194,0.128,0.33v0.81h-7.17v-0.457
		c0-0.096,0.019-0.193,0.057-0.293c0.037-0.1,0.099-0.192,0.184-0.277l3.442-3.458c0.285-0.29,0.545-0.568,0.78-0.836
		c0.235-0.268,0.436-0.536,0.604-0.807c0.167-0.27,0.296-0.543,0.386-0.821c0.09-0.277,0.135-0.573,0.135-0.889
		c0-0.314-0.05-0.591-0.15-0.828s-0.237-0.434-0.412-0.589c-0.175-0.155-0.38-0.271-0.615-0.349
		c-0.235-0.078-0.487-0.116-0.757-0.116s-0.52,0.04-0.75,0.12s-0.434,0.19-0.611,0.333c-0.178,0.143-0.328,0.312-0.45,0.507
		c-0.123,0.194-0.208,0.41-0.259,0.645c-0.04,0.146-0.1,0.25-0.18,0.315c-0.08,0.064-0.185,0.098-0.315,0.098
		c-0.025,0-0.051-0.002-0.079-0.004c-0.027-0.003-0.059-0.007-0.094-0.012l-0.697-0.12c0.07-0.489,0.205-0.923,0.405-1.301
		c0.2-0.378,0.454-0.693,0.761-0.949c0.308-0.255,0.66-0.448,1.058-0.581C204.161,0.255,204.59,0.188,205.05,0.188z"/>
	<path fill="#727272" d="M216.577,0.894c0,0.189-0.06,0.346-0.18,0.469c-0.12,0.122-0.322,0.184-0.607,0.184h-3.375l-0.495,2.819
		c0.56-0.119,1.077-0.18,1.552-0.18c0.56,0,1.054,0.083,1.481,0.248c0.427,0.165,0.786,0.393,1.076,0.682
		c0.29,0.29,0.509,0.633,0.656,1.028c0.147,0.395,0.221,0.824,0.221,1.29c0,0.569-0.1,1.085-0.3,1.545
		c-0.2,0.46-0.474,0.854-0.821,1.181c-0.348,0.328-0.756,0.579-1.227,0.754c-0.47,0.175-0.978,0.263-1.522,0.263
		c-0.315,0-0.618-0.031-0.907-0.094c-0.29-0.062-0.56-0.146-0.81-0.251c-0.25-0.105-0.483-0.226-0.698-0.36s-0.405-0.277-0.57-0.428
		l0.405-0.569c0.09-0.131,0.21-0.195,0.36-0.195c0.095,0,0.206,0.039,0.333,0.116s0.281,0.164,0.461,0.259
		c0.18,0.095,0.391,0.181,0.634,0.259c0.242,0.077,0.531,0.116,0.866,0.116c0.375,0,0.712-0.061,1.012-0.18
		c0.3-0.12,0.556-0.292,0.769-0.515c0.212-0.222,0.376-0.488,0.491-0.798c0.115-0.311,0.172-0.658,0.172-1.043
		c0-0.335-0.049-0.638-0.146-0.907c-0.098-0.271-0.245-0.5-0.443-0.69c-0.197-0.189-0.444-0.337-0.739-0.442
		c-0.295-0.104-0.64-0.157-1.035-0.157c-0.27,0-0.55,0.022-0.84,0.067s-0.59,0.117-0.9,0.218l-0.84-0.248l0.87-5.024h5.092V0.894z"
		/>
</g>
<rect id="XMLID_17_" x="398.409" fill="none" width="23.202" height="64.995"/>
<g enable-background="new    ">
	<path fill="#727272" d="M408.645,0.894c0,0.189-0.06,0.346-0.18,0.469c-0.12,0.122-0.322,0.184-0.607,0.184h-3.375l-0.495,2.819
		c0.56-0.119,1.077-0.18,1.552-0.18c0.56,0,1.054,0.083,1.481,0.248c0.427,0.165,0.786,0.393,1.076,0.682
		c0.29,0.29,0.509,0.633,0.656,1.028c0.147,0.395,0.221,0.824,0.221,1.29c0,0.569-0.1,1.085-0.3,1.545
		c-0.2,0.46-0.474,0.854-0.821,1.181c-0.348,0.328-0.756,0.579-1.227,0.754c-0.47,0.175-0.978,0.263-1.522,0.263
		c-0.315,0-0.618-0.031-0.907-0.094c-0.29-0.062-0.56-0.146-0.81-0.251c-0.25-0.105-0.483-0.226-0.698-0.36s-0.405-0.277-0.57-0.428
		l0.405-0.569c0.09-0.131,0.21-0.195,0.36-0.195c0.095,0,0.206,0.039,0.333,0.116s0.281,0.164,0.461,0.259
		c0.18,0.095,0.391,0.181,0.634,0.259c0.242,0.077,0.531,0.116,0.866,0.116c0.375,0,0.712-0.061,1.012-0.18
		c0.3-0.12,0.556-0.292,0.769-0.515c0.212-0.222,0.376-0.488,0.491-0.798c0.115-0.311,0.172-0.658,0.172-1.043
		c0-0.335-0.049-0.638-0.146-0.907c-0.098-0.271-0.245-0.5-0.443-0.69c-0.197-0.189-0.444-0.337-0.739-0.442
		c-0.295-0.104-0.64-0.157-1.035-0.157c-0.27,0-0.55,0.022-0.84,0.067s-0.59,0.117-0.9,0.218l-0.84-0.248l0.87-5.024h5.092V0.894z"
		/>
	<path fill="#727272" d="M418.26,5.686c0,0.94-0.101,1.754-0.304,2.441s-0.479,1.256-0.828,1.706
		c-0.351,0.45-0.765,0.785-1.242,1.005c-0.477,0.221-0.988,0.33-1.533,0.33c-0.551,0-1.062-0.109-1.534-0.33
		c-0.472-0.22-0.884-0.555-1.233-1.005s-0.625-1.019-0.825-1.706s-0.3-1.501-0.3-2.441c0-0.939,0.1-1.755,0.3-2.445
		c0.2-0.689,0.476-1.261,0.825-1.713c0.35-0.453,0.762-0.789,1.233-1.009c0.473-0.221,0.983-0.33,1.534-0.33
		c0.545,0,1.057,0.109,1.533,0.33c0.478,0.22,0.892,0.556,1.242,1.009c0.35,0.452,0.625,1.023,0.828,1.713
		C418.159,3.931,418.26,4.746,418.26,5.686z M416.872,5.686c0-0.82-0.068-1.509-0.206-2.066s-0.322-1.006-0.556-1.346
		c-0.232-0.34-0.5-0.584-0.806-0.731s-0.622-0.222-0.952-0.222s-0.648,0.074-0.953,0.222s-0.572,0.392-0.803,0.731
		c-0.229,0.34-0.413,0.788-0.551,1.346s-0.206,1.246-0.206,2.066s0.068,1.508,0.206,2.062s0.321,1.003,0.551,1.343
		c0.23,0.34,0.498,0.584,0.803,0.731s0.623,0.221,0.953,0.221s0.646-0.073,0.952-0.221s0.573-0.392,0.806-0.731
		c0.233-0.34,0.418-0.788,0.556-1.343S416.872,6.506,416.872,5.686z"/>
</g>
<rect id="XMLID_15_" x="598.741" fill="none" width="24.369" height="64.754"/>
<g enable-background="new    ">
	<path fill="#727272" d="M610.356,0.309v0.6c0,0.17-0.02,0.31-0.057,0.42s-0.076,0.202-0.116,0.277l-4.448,8.978
		c-0.064,0.13-0.154,0.241-0.27,0.334s-0.27,0.139-0.465,0.139h-0.953l4.516-8.865c0.064-0.125,0.131-0.24,0.199-0.345
		c0.066-0.105,0.143-0.205,0.229-0.3h-5.61c-0.085,0-0.161-0.034-0.229-0.102s-0.101-0.144-0.101-0.229V0.309H610.356z"/>
	<path fill="#727272" d="M618.261,0.894c0,0.189-0.061,0.346-0.18,0.469c-0.12,0.122-0.322,0.184-0.607,0.184h-3.375l-0.495,2.819
		c0.56-0.119,1.077-0.18,1.552-0.18c0.561,0,1.055,0.083,1.482,0.248c0.427,0.165,0.785,0.393,1.076,0.682
		c0.289,0.29,0.508,0.633,0.656,1.028c0.146,0.395,0.221,0.824,0.221,1.29c0,0.569-0.1,1.085-0.3,1.545s-0.474,0.854-0.821,1.181
		c-0.348,0.328-0.756,0.579-1.227,0.754c-0.47,0.175-0.978,0.263-1.522,0.263c-0.315,0-0.618-0.031-0.907-0.094
		c-0.29-0.062-0.561-0.146-0.811-0.251c-0.25-0.105-0.482-0.226-0.697-0.36s-0.404-0.277-0.57-0.428l0.405-0.569
		c0.091-0.131,0.21-0.195,0.36-0.195c0.095,0,0.206,0.039,0.334,0.116c0.127,0.077,0.281,0.164,0.461,0.259s0.391,0.181,0.634,0.259
		c0.242,0.077,0.531,0.116,0.866,0.116c0.375,0,0.713-0.061,1.012-0.18c0.301-0.12,0.557-0.292,0.77-0.515
		c0.213-0.222,0.376-0.488,0.491-0.798c0.114-0.311,0.173-0.658,0.173-1.043c0-0.335-0.049-0.638-0.146-0.907
		c-0.098-0.271-0.245-0.5-0.443-0.69c-0.197-0.189-0.443-0.337-0.738-0.442c-0.295-0.104-0.64-0.157-1.035-0.157
		c-0.27,0-0.55,0.022-0.84,0.067s-0.59,0.117-0.9,0.218l-0.84-0.248l0.871-5.024h5.092V0.894z"/>
</g>
<rect id="XMLID_11_" x="803.745" fill="none" width="16.732" height="64.995"/>
<g enable-background="new    ">
	<path fill="#727272" d="M812.644,2.311v3.202h3.053v1.013h-3.053v3.226h-1.095V6.525h-3.038V5.513h3.038V2.311H812.644z"/>
</g>
<rect id="XMLID_7_" x="8.919" y="46.995" fill="none" width="401.191" height="55"/>
<g opacity="0.5" enable-background="new    ">
	<path fill="#FFFFFF" d="M125.964,58.786h-1.08c-0.125,0-0.223-0.031-0.292-0.094c-0.07-0.062-0.118-0.143-0.143-0.244l-0.585-2.625
		h-4.38l-1.23,2.625c-0.045,0.092-0.114,0.17-0.207,0.236c-0.092,0.068-0.196,0.102-0.311,0.102h-1.095l5.272-10.746h1.417
		L125.964,58.786z M119.956,54.803h3.683l-0.99-4.447c-0.03-0.129-0.062-0.277-0.098-0.441c-0.035-0.166-0.065-0.344-0.09-0.533
		c-0.07,0.189-0.142,0.369-0.214,0.535c-0.073,0.168-0.142,0.316-0.206,0.447L119.956,54.803z"/>
	<path fill="#FFFFFF" d="M130.816,57.684c0.4,0,0.769-0.078,1.106-0.232c0.338-0.156,0.633-0.369,0.885-0.643
		c0.252-0.271,0.46-0.598,0.623-0.979c0.162-0.379,0.271-0.795,0.326-1.244l0.802-6.547h1.403l-0.795,6.547
		c-0.075,0.615-0.236,1.186-0.484,1.713s-0.566,0.986-0.957,1.373c-0.39,0.387-0.844,0.691-1.361,0.912
		c-0.518,0.219-1.084,0.33-1.699,0.33c-0.555,0-1.048-0.092-1.478-0.271c-0.43-0.18-0.794-0.432-1.091-0.754
		c-0.298-0.322-0.524-0.705-0.679-1.15c-0.155-0.445-0.232-0.932-0.232-1.463c0-0.225,0.015-0.455,0.045-0.689l0.795-6.547h1.402
		l-0.802,6.539c-0.01,0.1-0.019,0.197-0.026,0.293c-0.007,0.094-0.011,0.188-0.011,0.277c0,0.375,0.049,0.717,0.146,1.027
		c0.098,0.311,0.24,0.578,0.428,0.803s0.42,0.398,0.697,0.521C130.138,57.622,130.457,57.684,130.816,57.684z"/>
	<path fill="#FFFFFF" d="M144.992,48.04l-0.15,1.176h-3.173l-1.17,9.57h-1.395l1.17-9.57h-3.188l0.143-1.176H144.992z"/>
	<path fill="#FFFFFF" d="M152.341,49.186h-4.703l-0.45,3.623h3.81l-0.143,1.102h-3.803l-0.458,3.736h4.718l-0.143,1.139h-6.127
		l1.328-10.746h6.112L152.341,49.186z"/>
	<path fill="#FFFFFF" d="M157.043,57.684c0.4,0,0.769-0.078,1.106-0.232c0.338-0.156,0.633-0.369,0.885-0.643
		c0.252-0.271,0.46-0.598,0.623-0.979c0.162-0.379,0.271-0.795,0.326-1.244l0.802-6.547h1.403l-0.795,6.547
		c-0.075,0.615-0.236,1.186-0.484,1.713s-0.566,0.986-0.957,1.373c-0.39,0.387-0.844,0.691-1.361,0.912
		c-0.518,0.219-1.084,0.33-1.699,0.33c-0.555,0-1.048-0.092-1.478-0.271c-0.43-0.18-0.794-0.432-1.091-0.754
		c-0.298-0.322-0.524-0.705-0.679-1.15c-0.155-0.445-0.232-0.932-0.232-1.463c0-0.225,0.015-0.455,0.045-0.689l0.795-6.547h1.402
		l-0.802,6.539c-0.01,0.1-0.019,0.197-0.026,0.293c-0.007,0.094-0.011,0.188-0.011,0.277c0,0.375,0.049,0.717,0.146,1.027
		c0.098,0.311,0.24,0.578,0.428,0.803s0.42,0.398,0.697,0.521C156.365,57.622,156.684,57.684,157.043,57.684z"/>
	<path fill="#FFFFFF" d="M165.196,54.278l-0.555,4.508h-1.395l1.312-10.746h2.828c0.57,0,1.063,0.059,1.481,0.18
		c0.417,0.119,0.763,0.291,1.035,0.514s0.475,0.492,0.607,0.809c0.132,0.318,0.199,0.672,0.199,1.062
		c0,0.436-0.065,0.84-0.195,1.215c-0.13,0.375-0.318,0.711-0.562,1.008c-0.245,0.299-0.54,0.551-0.885,0.758
		c-0.345,0.207-0.735,0.361-1.17,0.461c0.16,0.111,0.292,0.262,0.397,0.451l2.318,4.289h-1.245c-0.245,0-0.42-0.1-0.525-0.299
		l-2.025-3.871c-0.065-0.125-0.14-0.213-0.225-0.262c-0.085-0.051-0.22-0.076-0.405-0.076H165.196z M165.833,49.141l-0.51,4.117
		h1.373c0.425,0,0.8-0.061,1.125-0.18c0.325-0.119,0.599-0.289,0.821-0.506c0.222-0.219,0.39-0.475,0.502-0.773
		c0.112-0.297,0.168-0.623,0.168-0.979c0-0.545-0.171-0.961-0.514-1.248s-0.856-0.432-1.541-0.432H165.833z"/>
	<path fill="#FFFFFF" d="M178.246,49.704c-0.055,0.07-0.107,0.123-0.157,0.162c-0.05,0.037-0.11,0.055-0.18,0.055
		c-0.085,0-0.175-0.043-0.27-0.131c-0.095-0.088-0.216-0.182-0.364-0.285c-0.147-0.102-0.326-0.197-0.536-0.285
		c-0.21-0.086-0.473-0.131-0.788-0.131c-0.32,0-0.605,0.051-0.855,0.15s-0.461,0.236-0.634,0.408
		c-0.172,0.174-0.304,0.375-0.394,0.604c-0.09,0.23-0.135,0.479-0.135,0.742c0,0.262,0.06,0.48,0.18,0.656
		c0.12,0.178,0.277,0.33,0.473,0.459c0.195,0.127,0.418,0.24,0.671,0.338c0.252,0.096,0.509,0.197,0.769,0.299
		c0.26,0.104,0.516,0.217,0.769,0.342s0.477,0.279,0.671,0.465s0.353,0.408,0.473,0.668c0.12,0.26,0.18,0.574,0.18,0.945
		c0,0.51-0.087,0.99-0.262,1.443c-0.175,0.451-0.426,0.848-0.754,1.188s-0.724,0.611-1.189,0.811
		c-0.465,0.199-0.987,0.301-1.567,0.301c-0.64,0-1.211-0.127-1.714-0.379c-0.502-0.252-0.916-0.594-1.241-1.023l0.495-0.668
		c0.04-0.055,0.09-0.1,0.15-0.135s0.125-0.053,0.195-0.053c0.095,0,0.197,0.057,0.307,0.168c0.11,0.113,0.25,0.238,0.42,0.375
		c0.17,0.139,0.38,0.264,0.63,0.375c0.25,0.113,0.562,0.17,0.938,0.17c0.345,0,0.656-0.055,0.934-0.166
		c0.277-0.109,0.513-0.262,0.705-0.457s0.341-0.43,0.446-0.701c0.105-0.273,0.157-0.574,0.157-0.904c0-0.275-0.06-0.504-0.18-0.686
		c-0.12-0.184-0.278-0.336-0.473-0.461s-0.416-0.234-0.664-0.326c-0.248-0.094-0.502-0.188-0.765-0.281
		c-0.263-0.096-0.518-0.203-0.765-0.324c-0.248-0.119-0.469-0.271-0.664-0.457c-0.195-0.184-0.353-0.412-0.473-0.682
		c-0.12-0.27-0.18-0.604-0.18-0.998c0-0.439,0.08-0.863,0.24-1.268s0.39-0.762,0.69-1.072c0.3-0.311,0.665-0.557,1.095-0.742
		c0.43-0.186,0.915-0.277,1.455-0.277c0.55,0,1.045,0.105,1.485,0.314c0.44,0.211,0.802,0.498,1.087,0.863L178.246,49.704z"/>
	<path fill="#FFFFFF" d="M189.548,49.186h-4.703l-0.45,3.623h3.81l-0.143,1.102h-3.803l-0.458,3.736h4.718l-0.143,1.139h-6.127
		l1.328-10.746h6.112L189.548,49.186z"/>
	<path fill="#FFFFFF" d="M192.574,48.084c0.057,0.029,0.116,0.094,0.176,0.193l4.635,8.213c0.01-0.115,0.02-0.223,0.03-0.326
		c0.01-0.102,0.02-0.201,0.03-0.297l0.96-7.828h1.238l-1.32,10.746h-0.705c-0.115,0-0.21-0.018-0.285-0.057
		c-0.075-0.037-0.14-0.105-0.195-0.205l-4.627-8.221c0,0.025-0.001,0.061-0.003,0.105c-0.003,0.045-0.006,0.092-0.011,0.143
		c-0.005,0.051-0.01,0.102-0.015,0.154s-0.01,0.096-0.015,0.131l-0.975,7.949h-1.237l1.328-10.746h0.72
		C192.425,48.04,192.517,48.053,192.574,48.084z"/>
	<path fill="#FFFFFF" d="M208.193,47.192h-0.982c-0.055,0-0.114-0.008-0.176-0.023s-0.114-0.039-0.154-0.074l-0.855-0.803
		l-1.065,0.803c-0.045,0.035-0.101,0.059-0.168,0.074c-0.068,0.016-0.131,0.023-0.191,0.023h-0.975l1.845-1.568h1.267
		L208.193,47.192z M205.23,58.786h-1.41l1.312-10.746h1.41L205.23,58.786z"/>
	<path fill="#FFFFFF" d="M209.37,57.602h4.252l-0.143,1.184h-5.655l1.328-10.746h1.402L209.37,57.602z"/>
	<path fill="#FFFFFF" d="M222.225,49.186h-4.703l-0.45,3.623h3.81l-0.143,1.102h-3.803l-0.458,3.736h4.718l-0.143,1.139h-6.127
		l1.328-10.746h6.112L222.225,49.186z"/>
	<path fill="#FFFFFF" d="M235.155,52.659c0,0.914-0.142,1.748-0.424,2.502c-0.283,0.752-0.672,1.396-1.17,1.934
		c-0.498,0.539-1.09,0.955-1.778,1.25s-1.436,0.441-2.246,0.441h-3.712l1.328-10.746h3.705c0.66,0,1.256,0.111,1.789,0.336
		c0.532,0.227,0.983,0.541,1.354,0.949s0.655,0.895,0.855,1.463C235.055,51.354,235.155,51.979,235.155,52.659z M233.715,52.688
		c0-0.539-0.069-1.027-0.207-1.461c-0.138-0.436-0.335-0.805-0.592-1.107c-0.258-0.303-0.571-0.535-0.941-0.697
		s-0.788-0.244-1.252-0.244h-2.295l-1.05,8.475h2.295c0.6,0,1.147-0.113,1.642-0.34c0.495-0.229,0.92-0.555,1.275-0.982
		c0.355-0.428,0.631-0.947,0.829-1.561C233.616,54.157,233.715,53.463,233.715,52.688z"/>
	<path fill="#FFFFFF" d="M243.51,49.186h-4.703l-0.45,3.623h3.81l-0.143,1.102h-3.803l-0.458,3.736h4.718l-0.143,1.139h-6.127
		l1.328-10.746h6.112L243.51,49.186z"/>
	<path fill="#FFFFFF" d="M254.407,49.186h-4.703l-0.472,3.824h4.027l-0.157,1.141h-4.005l-0.57,4.635h-1.417l1.328-10.746h6.112
		L254.407,49.186z"/>
	<path fill="#FFFFFF" d="M256.995,54.278l-0.555,4.508h-1.395l1.312-10.746h2.828c0.57,0,1.063,0.059,1.481,0.18
		c0.417,0.119,0.763,0.291,1.035,0.514s0.475,0.492,0.607,0.809c0.132,0.318,0.199,0.672,0.199,1.062
		c0,0.436-0.065,0.84-0.195,1.215c-0.13,0.375-0.318,0.711-0.562,1.008c-0.245,0.299-0.54,0.551-0.885,0.758
		c-0.345,0.207-0.735,0.361-1.17,0.461c0.16,0.111,0.292,0.262,0.397,0.451l2.318,4.289h-1.245c-0.245,0-0.42-0.1-0.525-0.299
		l-2.025-3.871c-0.065-0.125-0.14-0.213-0.225-0.262c-0.085-0.051-0.22-0.076-0.405-0.076H256.995z M257.632,49.141l-0.51,4.117
		h1.373c0.425,0,0.8-0.061,1.125-0.18c0.325-0.119,0.599-0.289,0.821-0.506c0.222-0.219,0.39-0.475,0.502-0.773
		c0.112-0.297,0.168-0.623,0.168-0.979c0-0.545-0.171-0.961-0.514-1.248s-0.856-0.432-1.541-0.432H257.632z"/>
	<path fill="#FFFFFF" d="M271.95,58.786h-1.08c-0.125,0-0.223-0.031-0.292-0.094c-0.07-0.062-0.118-0.143-0.143-0.244l-0.585-2.625
		h-4.38l-1.23,2.625c-0.045,0.092-0.114,0.17-0.207,0.236c-0.092,0.068-0.196,0.102-0.311,0.102h-1.095l5.272-10.746h1.417
		L271.95,58.786z M265.942,54.803h3.683l-0.99-4.447c-0.03-0.129-0.062-0.277-0.098-0.441c-0.035-0.166-0.065-0.344-0.09-0.533
		c-0.07,0.189-0.142,0.369-0.214,0.535c-0.073,0.168-0.142,0.316-0.206,0.447L265.942,54.803z"/>
	<path fill="#FFFFFF" d="M275.426,48.084c0.057,0.029,0.116,0.094,0.176,0.193l4.635,8.213c0.01-0.115,0.02-0.223,0.03-0.326
		c0.01-0.102,0.02-0.201,0.03-0.297l0.96-7.828h1.238l-1.32,10.746h-0.705c-0.115,0-0.21-0.018-0.285-0.057
		c-0.075-0.037-0.14-0.105-0.195-0.205l-4.627-8.221c0,0.025-0.001,0.061-0.003,0.105c-0.003,0.045-0.006,0.092-0.011,0.143
		c-0.005,0.051-0.01,0.102-0.015,0.154s-0.01,0.096-0.015,0.131l-0.975,7.949h-1.237l1.328-10.746h0.72
		C275.277,48.04,275.368,48.053,275.426,48.084z"/>
	<path fill="#FFFFFF" d="M287.902,57.698c0.33,0,0.623-0.027,0.878-0.082c0.255-0.055,0.48-0.121,0.675-0.201
		s0.361-0.17,0.499-0.268c0.138-0.098,0.258-0.186,0.36-0.266c0.102-0.08,0.188-0.148,0.259-0.203
		c0.07-0.055,0.132-0.082,0.188-0.082c0.045,0,0.083,0.008,0.112,0.025s0.055,0.039,0.075,0.064l0.487,0.607
		c-0.47,0.51-1.011,0.906-1.624,1.189c-0.613,0.281-1.327,0.424-2.142,0.424c-0.64,0-1.215-0.115-1.725-0.346
		c-0.51-0.23-0.941-0.551-1.293-0.963c-0.353-0.414-0.623-0.904-0.81-1.475s-0.281-1.197-0.281-1.883
		c0-0.934,0.145-1.789,0.435-2.564s0.688-1.441,1.196-1.998c0.507-0.559,1.104-0.99,1.789-1.299
		c0.685-0.307,1.422-0.461,2.212-0.461c0.38,0,0.725,0.033,1.035,0.098s0.592,0.16,0.848,0.285c0.255,0.125,0.486,0.275,0.694,0.449
		c0.207,0.176,0.401,0.371,0.581,0.586l-0.48,0.584c-0.04,0.051-0.085,0.092-0.135,0.125c-0.05,0.031-0.112,0.049-0.188,0.049
		c-0.09,0-0.185-0.051-0.285-0.15c-0.1-0.1-0.236-0.209-0.409-0.326c-0.173-0.117-0.395-0.227-0.667-0.326
		c-0.273-0.1-0.626-0.15-1.062-0.15c-0.58,0-1.123,0.117-1.627,0.35s-0.942,0.564-1.312,0.996c-0.37,0.434-0.661,0.957-0.874,1.572
		c-0.213,0.615-0.319,1.305-0.319,2.07c0,0.555,0.072,1.053,0.217,1.492s0.346,0.812,0.604,1.121
		c0.257,0.307,0.563,0.543,0.918,0.709C287.087,57.616,287.477,57.698,287.902,57.698z"/>
	<path fill="#FFFFFF" d="M300.089,49.186h-4.703l-0.45,3.623h3.81l-0.143,1.102h-3.803l-0.458,3.736h4.718l-0.143,1.139h-6.127
		l1.328-10.746h6.112L300.089,49.186z"/>
</g>
<rect id="XMLID_3_" x="409.177" y="46.995" fill="none" width="402.933" height="55"/>
<g opacity="0.5" enable-background="new    ">
	<path fill="#FFFFFF" d="M548.864,58.786h-1.08c-0.125,0-0.223-0.031-0.293-0.094s-0.117-0.143-0.143-0.244l-0.584-2.625h-4.381
		l-1.229,2.625c-0.045,0.092-0.114,0.17-0.206,0.236c-0.093,0.068-0.197,0.102-0.312,0.102h-1.095l5.271-10.746h1.418
		L548.864,58.786z M542.856,54.803h3.683l-0.989-4.447c-0.031-0.129-0.062-0.277-0.098-0.441c-0.035-0.166-0.065-0.344-0.09-0.533
		c-0.07,0.189-0.143,0.369-0.215,0.535c-0.072,0.168-0.141,0.316-0.205,0.447L542.856,54.803z"/>
	<path fill="#FFFFFF" d="M553.717,57.684c0.399,0,0.769-0.078,1.106-0.232c0.338-0.156,0.633-0.369,0.885-0.643
		c0.252-0.271,0.46-0.598,0.623-0.979c0.162-0.379,0.271-0.795,0.326-1.244l0.802-6.547h1.403l-0.795,6.547
		c-0.076,0.615-0.236,1.186-0.484,1.713s-0.566,0.986-0.957,1.373c-0.389,0.387-0.844,0.691-1.36,0.912
		c-0.518,0.219-1.084,0.33-1.698,0.33c-0.556,0-1.049-0.092-1.479-0.271s-0.793-0.432-1.091-0.754s-0.524-0.705-0.679-1.15
		c-0.155-0.445-0.232-0.932-0.232-1.463c0-0.225,0.015-0.455,0.045-0.689l0.795-6.547h1.402l-0.803,6.539
		c-0.01,0.1-0.019,0.197-0.025,0.293c-0.008,0.094-0.012,0.188-0.012,0.277c0,0.375,0.049,0.717,0.146,1.027s0.24,0.578,0.428,0.803
		s0.42,0.398,0.697,0.521C553.038,57.622,553.356,57.684,553.717,57.684z"/>
	<path fill="#FFFFFF" d="M567.892,48.04l-0.149,1.176h-3.173l-1.17,9.57h-1.395l1.17-9.57h-3.188l0.143-1.176H567.892z"/>
	<path fill="#FFFFFF" d="M575.241,49.186h-4.703l-0.449,3.623h3.811l-0.143,1.102h-3.803l-0.458,3.736h4.718l-0.143,1.139h-6.127
		l1.327-10.746h6.112L575.241,49.186z"/>
	<path fill="#FFFFFF" d="M579.944,57.684c0.399,0,0.768-0.078,1.105-0.232c0.338-0.156,0.633-0.369,0.885-0.643
		c0.253-0.271,0.461-0.598,0.623-0.979c0.162-0.379,0.271-0.795,0.326-1.244l0.803-6.547h1.402l-0.795,6.547
		c-0.075,0.615-0.236,1.186-0.484,1.713c-0.247,0.527-0.566,0.986-0.956,1.373s-0.844,0.691-1.36,0.912
		c-0.518,0.219-1.084,0.33-1.699,0.33c-0.555,0-1.048-0.092-1.478-0.271c-0.431-0.18-0.794-0.432-1.091-0.754
		c-0.299-0.322-0.524-0.705-0.68-1.15c-0.154-0.445-0.232-0.932-0.232-1.463c0-0.225,0.016-0.455,0.045-0.689l0.795-6.547h1.402
		l-0.802,6.539c-0.011,0.1-0.019,0.197-0.026,0.293c-0.008,0.094-0.012,0.188-0.012,0.277c0,0.375,0.049,0.717,0.146,1.027
		s0.24,0.578,0.428,0.803s0.42,0.398,0.697,0.521C579.265,57.622,579.584,57.684,579.944,57.684z"/>
	<path fill="#FFFFFF" d="M588.097,54.278l-0.555,4.508h-1.396l1.312-10.746h2.827c0.57,0,1.064,0.059,1.481,0.18
		c0.417,0.119,0.763,0.291,1.035,0.514s0.476,0.492,0.607,0.809c0.132,0.318,0.198,0.672,0.198,1.062
		c0,0.436-0.064,0.84-0.194,1.215s-0.317,0.711-0.562,1.008c-0.245,0.299-0.54,0.551-0.886,0.758
		c-0.344,0.207-0.734,0.361-1.17,0.461c0.16,0.111,0.293,0.262,0.398,0.451l2.317,4.289h-1.245c-0.245,0-0.42-0.1-0.525-0.299
		l-2.025-3.871c-0.064-0.125-0.139-0.213-0.225-0.262c-0.085-0.051-0.22-0.076-0.404-0.076H588.097z M588.733,49.141l-0.51,4.117
		h1.373c0.425,0,0.8-0.061,1.125-0.18c0.324-0.119,0.599-0.289,0.821-0.506c0.222-0.219,0.39-0.475,0.503-0.773
		c0.111-0.297,0.168-0.623,0.168-0.979c0-0.545-0.172-0.961-0.514-1.248s-0.856-0.432-1.541-0.432H588.733z"/>
	<path fill="#FFFFFF" d="M601.146,49.704c-0.055,0.07-0.107,0.123-0.156,0.162c-0.051,0.037-0.111,0.055-0.181,0.055
		c-0.085,0-0.175-0.043-0.271-0.131c-0.094-0.088-0.216-0.182-0.363-0.285c-0.147-0.102-0.326-0.197-0.536-0.285
		c-0.21-0.086-0.473-0.131-0.788-0.131c-0.319,0-0.604,0.051-0.854,0.15s-0.461,0.236-0.634,0.408
		c-0.172,0.174-0.304,0.375-0.394,0.604c-0.09,0.23-0.136,0.479-0.136,0.742c0,0.262,0.061,0.48,0.181,0.656
		c0.12,0.178,0.277,0.33,0.473,0.459c0.194,0.127,0.419,0.24,0.671,0.338c0.252,0.096,0.509,0.197,0.77,0.299
		c0.26,0.104,0.516,0.217,0.768,0.342c0.253,0.125,0.477,0.279,0.672,0.465s0.353,0.408,0.473,0.668
		c0.119,0.26,0.18,0.574,0.18,0.945c0,0.51-0.088,0.99-0.262,1.443c-0.176,0.451-0.427,0.848-0.754,1.188
		c-0.328,0.34-0.725,0.611-1.189,0.811s-0.987,0.301-1.567,0.301c-0.64,0-1.211-0.127-1.714-0.379
		c-0.502-0.252-0.916-0.594-1.241-1.023l0.495-0.668c0.04-0.055,0.09-0.1,0.15-0.135c0.06-0.035,0.125-0.053,0.195-0.053
		c0.094,0,0.197,0.057,0.307,0.168c0.11,0.113,0.25,0.238,0.42,0.375c0.17,0.139,0.381,0.264,0.631,0.375
		c0.25,0.113,0.562,0.17,0.938,0.17c0.344,0,0.656-0.055,0.934-0.166c0.277-0.109,0.512-0.262,0.705-0.457
		c0.191-0.195,0.341-0.43,0.445-0.701c0.105-0.273,0.158-0.574,0.158-0.904c0-0.275-0.061-0.504-0.18-0.686
		c-0.121-0.184-0.278-0.336-0.473-0.461c-0.195-0.125-0.416-0.234-0.664-0.326c-0.248-0.094-0.502-0.188-0.766-0.281
		c-0.262-0.096-0.518-0.203-0.765-0.324c-0.247-0.119-0.469-0.271-0.663-0.457c-0.195-0.184-0.354-0.412-0.473-0.682
		c-0.12-0.27-0.18-0.604-0.18-0.998c0-0.439,0.079-0.863,0.239-1.268s0.39-0.762,0.69-1.072c0.3-0.311,0.664-0.557,1.095-0.742
		c0.43-0.186,0.915-0.277,1.455-0.277c0.55,0,1.045,0.105,1.485,0.314c0.439,0.211,0.802,0.498,1.087,0.863L601.146,49.704z"/>
	<path fill="#FFFFFF" d="M612.448,49.186h-4.703l-0.449,3.623h3.811l-0.143,1.102h-3.803l-0.458,3.736h4.718l-0.143,1.139h-6.127
		l1.327-10.746h6.112L612.448,49.186z"/>
	<path fill="#FFFFFF" d="M615.475,48.084c0.058,0.029,0.116,0.094,0.177,0.193l4.635,8.213c0.01-0.115,0.02-0.223,0.029-0.326
		c0.01-0.102,0.021-0.201,0.03-0.297l0.96-7.828h1.238l-1.32,10.746h-0.705c-0.115,0-0.211-0.018-0.285-0.057
		c-0.075-0.037-0.141-0.105-0.195-0.205l-4.627-8.221c0,0.025-0.002,0.061-0.004,0.105c-0.003,0.045-0.006,0.092-0.012,0.143
		c-0.005,0.051-0.01,0.102-0.015,0.154s-0.011,0.096-0.015,0.131l-0.976,7.949h-1.237l1.328-10.746h0.719
		C615.325,48.04,615.417,48.053,615.475,48.084z"/>
	<path fill="#FFFFFF" d="M628.559,54.278l-0.556,4.508h-1.395l1.312-10.746h2.828c0.569,0,1.062,0.059,1.48,0.18
		c0.418,0.119,0.763,0.291,1.035,0.514s0.475,0.492,0.607,0.809c0.133,0.318,0.199,0.672,0.199,1.062
		c0,0.436-0.065,0.84-0.195,1.215c-0.131,0.375-0.318,0.711-0.562,1.008c-0.245,0.299-0.54,0.551-0.885,0.758
		c-0.346,0.207-0.735,0.361-1.17,0.461c0.16,0.111,0.292,0.262,0.396,0.451l2.318,4.289h-1.245c-0.245,0-0.42-0.1-0.524-0.299
		l-2.025-3.871c-0.065-0.125-0.141-0.213-0.225-0.262c-0.086-0.051-0.221-0.076-0.406-0.076H628.559z M629.196,49.141l-0.51,4.117
		h1.372c0.425,0,0.8-0.061,1.125-0.18s0.599-0.289,0.821-0.506c0.223-0.219,0.39-0.475,0.502-0.773
		c0.113-0.297,0.169-0.623,0.169-0.979c0-0.545-0.171-0.961-0.514-1.248s-0.856-0.432-1.541-0.432H629.196z"/>
	<path fill="#FFFFFF" d="M642.688,49.186h-4.703l-0.449,3.623h3.81l-0.143,1.102H637.4l-0.458,3.736h4.719l-0.143,1.139h-6.128
		l1.327-10.746h6.113L642.688,49.186z M642.658,45.428l-2.16,1.576c-0.085,0.059-0.159,0.105-0.222,0.139
		c-0.062,0.031-0.144,0.049-0.243,0.049h-1.087l1.635-1.523c0.049-0.045,0.096-0.084,0.139-0.115
		c0.042-0.033,0.086-0.059,0.131-0.076s0.095-0.029,0.15-0.037c0.055-0.008,0.122-0.012,0.202-0.012H642.658z"/>
	<path fill="#FFFFFF" d="M647.945,57.774c0.261,0,0.503-0.014,0.728-0.041s0.437-0.068,0.634-0.125
		c0.198-0.055,0.388-0.121,0.57-0.197c0.183-0.078,0.364-0.166,0.544-0.268l0.292-2.43h-1.492c-0.085,0-0.151-0.021-0.198-0.066
		c-0.049-0.045-0.072-0.104-0.072-0.174c0.006-0.049,0.009-0.09,0.012-0.119c0.002-0.031,0.006-0.07,0.012-0.121l0.066-0.592h3.076
		l-0.504,4.102c-0.27,0.195-0.548,0.365-0.836,0.512c-0.287,0.145-0.591,0.266-0.91,0.363c-0.32,0.098-0.658,0.17-1.014,0.217
		c-0.354,0.049-0.737,0.072-1.146,0.072c-0.65,0-1.239-0.117-1.767-0.35c-0.528-0.232-0.979-0.557-1.354-0.975
		s-0.663-0.916-0.865-1.496c-0.203-0.58-0.305-1.215-0.305-1.906c0-0.924,0.145-1.77,0.432-2.537s0.686-1.428,1.192-1.98
		c0.508-0.553,1.11-0.98,1.808-1.287c0.697-0.305,1.459-0.457,2.283-0.457c0.416,0,0.793,0.035,1.133,0.105s0.648,0.168,0.923,0.293
		s0.524,0.271,0.746,0.441c0.223,0.17,0.427,0.355,0.611,0.555l-0.45,0.586c-0.05,0.064-0.102,0.115-0.153,0.15
		c-0.053,0.035-0.114,0.053-0.185,0.053c-0.084,0-0.167-0.025-0.247-0.076c-0.11-0.064-0.231-0.148-0.364-0.252
		c-0.132-0.102-0.292-0.199-0.479-0.291c-0.188-0.094-0.413-0.174-0.679-0.24c-0.266-0.068-0.585-0.102-0.96-0.102
		c-0.614,0-1.179,0.117-1.69,0.352c-0.514,0.236-0.953,0.57-1.32,1.006s-0.654,0.961-0.859,1.574
		c-0.205,0.615-0.307,1.301-0.307,2.057c0,0.564,0.073,1.072,0.221,1.521c0.147,0.451,0.355,0.832,0.626,1.148
		c0.271,0.314,0.595,0.555,0.976,0.723C647.05,57.69,647.476,57.774,647.945,57.774z"/>
	<path fill="#FFFFFF" d="M655.161,58.786h-1.41l1.312-10.746h1.41L655.161,58.786z"/>
	<path fill="#FFFFFF" d="M667.692,52.651c0,0.609-0.064,1.188-0.194,1.732s-0.313,1.049-0.552,1.512
		c-0.237,0.463-0.525,0.879-0.862,1.248c-0.337,0.371-0.715,0.686-1.132,0.945c-0.418,0.26-0.871,0.461-1.357,0.6
		c-0.488,0.141-1,0.211-1.534,0.211c-0.66,0-1.254-0.117-1.781-0.354c-0.528-0.234-0.978-0.561-1.351-0.979
		c-0.372-0.416-0.657-0.914-0.854-1.488c-0.198-0.574-0.296-1.205-0.296-1.891c0-0.914,0.143-1.756,0.428-2.523
		c0.284-0.768,0.678-1.428,1.181-1.984c0.503-0.555,1.097-0.986,1.784-1.297s1.435-0.465,2.239-0.465
		c0.66,0,1.254,0.119,1.781,0.355c0.528,0.238,0.978,0.566,1.351,0.986c0.372,0.42,0.657,0.92,0.854,1.498
		C667.595,51.334,667.692,51.965,667.692,52.651z M666.253,52.68c0-0.545-0.07-1.037-0.21-1.48c-0.14-0.441-0.339-0.818-0.597-1.129
		s-0.572-0.549-0.945-0.719c-0.372-0.17-0.791-0.256-1.256-0.256c-0.59,0-1.133,0.119-1.627,0.355
		c-0.495,0.238-0.92,0.576-1.275,1.018c-0.355,0.439-0.633,0.971-0.832,1.594c-0.201,0.621-0.301,1.318-0.301,2.088
		c0,0.545,0.07,1.037,0.211,1.479c0.139,0.439,0.338,0.814,0.596,1.125c0.258,0.309,0.571,0.549,0.941,0.715
		c0.369,0.168,0.787,0.252,1.252,0.252c0.601,0,1.148-0.117,1.643-0.354c0.495-0.234,0.92-0.57,1.275-1.008s0.631-0.967,0.828-1.59
		S666.253,53.452,666.253,52.68z"/>
	<path fill="#FFFFFF" d="M671.064,48.084c0.058,0.029,0.116,0.094,0.177,0.193l4.635,8.213c0.01-0.115,0.02-0.223,0.029-0.326
		c0.01-0.102,0.021-0.201,0.03-0.297l0.96-7.828h1.238l-1.32,10.746h-0.705c-0.115,0-0.211-0.018-0.285-0.057
		c-0.075-0.037-0.141-0.105-0.195-0.205l-4.627-8.221c0,0.025-0.002,0.061-0.004,0.105c-0.003,0.045-0.006,0.092-0.012,0.143
		c-0.005,0.051-0.01,0.102-0.015,0.154s-0.011,0.096-0.015,0.131l-0.976,7.949h-1.237l1.328-10.746h0.719
		C670.915,48.04,671.007,48.053,671.064,48.084z"/>
	<path fill="#FFFFFF" d="M685.393,49.704c-0.055,0.07-0.107,0.123-0.157,0.162c-0.051,0.037-0.11,0.055-0.18,0.055
		c-0.086,0-0.176-0.043-0.271-0.131s-0.216-0.182-0.364-0.285c-0.146-0.102-0.326-0.197-0.535-0.285
		c-0.211-0.086-0.473-0.131-0.788-0.131c-0.319,0-0.604,0.051-0.854,0.15s-0.461,0.236-0.635,0.408
		c-0.172,0.174-0.303,0.375-0.393,0.604c-0.09,0.23-0.136,0.479-0.136,0.742c0,0.262,0.06,0.48,0.181,0.656
		c0.119,0.178,0.277,0.33,0.473,0.459c0.194,0.127,0.418,0.24,0.67,0.338c0.253,0.096,0.51,0.197,0.77,0.299
		c0.26,0.104,0.516,0.217,0.769,0.342s0.477,0.279,0.671,0.465c0.195,0.186,0.354,0.408,0.473,0.668
		c0.12,0.26,0.18,0.574,0.18,0.945c0,0.51-0.087,0.99-0.262,1.443c-0.176,0.451-0.426,0.848-0.754,1.188s-0.724,0.611-1.189,0.811
		c-0.465,0.199-0.986,0.301-1.566,0.301c-0.641,0-1.211-0.127-1.715-0.379c-0.502-0.252-0.916-0.594-1.24-1.023l0.494-0.668
		c0.041-0.055,0.09-0.1,0.15-0.135s0.125-0.053,0.195-0.053c0.095,0,0.197,0.057,0.307,0.168c0.111,0.113,0.25,0.238,0.421,0.375
		c0.17,0.139,0.38,0.264,0.63,0.375c0.25,0.113,0.562,0.17,0.938,0.17c0.345,0,0.656-0.055,0.934-0.166
		c0.277-0.109,0.513-0.262,0.705-0.457s0.342-0.43,0.446-0.701c0.104-0.273,0.157-0.574,0.157-0.904c0-0.275-0.06-0.504-0.18-0.686
		c-0.12-0.184-0.277-0.336-0.473-0.461s-0.416-0.234-0.664-0.326c-0.247-0.094-0.502-0.188-0.765-0.281
		c-0.263-0.096-0.518-0.203-0.765-0.324c-0.248-0.119-0.469-0.271-0.664-0.457c-0.195-0.184-0.353-0.412-0.473-0.682
		c-0.119-0.27-0.18-0.604-0.18-0.998c0-0.439,0.08-0.863,0.24-1.268s0.39-0.762,0.689-1.072c0.301-0.311,0.665-0.557,1.096-0.742
		c0.43-0.186,0.914-0.277,1.455-0.277c0.549,0,1.045,0.105,1.484,0.314c0.439,0.211,0.803,0.498,1.088,0.863L685.393,49.704z"/>
</g>
</svg>
