<?xml version="1.0" encoding="utf-8"?>
<!-- Generator: Adobe Illustrator 15.1.0, SVG Export Plug-In . SVG Version: 6.00 Build 0)  -->
<!DOCTYPE svg PUBLIC "-//W3C//DTD SVG 1.1//EN" "http://www.w3.org/Graphics/SVG/1.1/DTD/svg11.dtd">
<svg version="1.1" id="Calque_1" xmlns="http://www.w3.org/2000/svg" xmlns:xlink="http://www.w3.org/1999/xlink" x="0px" y="0px"
	 width="685.438px" height="225.585px" viewBox="0 0 685.438 225.585" enable-background="new 0 0 685.438 225.585"
	 xml:space="preserve">
<g>
	<path fill="#FFFFFF" d="M18.285,154.218C13.039,154.674,0,155.816,0,155.816l0.063,0.755c1.785-0.101,3.982,0.751,6.25,2.687
		c13.142,11.197,42.341,62.606,56.791,61.34c2.215-0.193,2.215-0.193,9.312-0.815C65.817,206.975,31.249,153.083,18.285,154.218"/>
	<path fill="#FFFFFF" d="M68.642,106.362c-8.488,0.739-29.59,2.59-29.59,2.59l0.106,1.227c2.882-0.166,6.442,1.212,10.109,4.344
		c21.266,18.111,68.509,101.291,91.879,99.247c3.594-0.313,3.594-0.313,15.072-1.32C145.553,191.729,89.61,104.526,68.642,106.362"
		/>
	<path fill="#FFFFFF" d="M0.364,160.001L6.1,225.585l15.755-1.378l-4.015-45.905c-5.401-7.247-10.296-13.504-13.746-16.442
		C2.46,160.471,1.121,159.994,0.364,160.001"/>
	<path fill="#FFFFFF" d="M152.359,28.738c-13.737,1.204-47.878,4.188-47.878,4.188l0.173,1.99
		c4.663-0.275,10.424,1.959,16.359,7.023c34.405,29.304,110.839,163.892,148.664,160.586c5.811-0.512,5.811-0.512,24.387-2.134
		C276.801,166.857,186.285,25.772,152.359,28.738"/>
	<path fill="#FFFFFF" d="M294.343,180.706L280.068,17.565l-41.235,3.608l7.697,87.938c19.179,26.861,36.174,53.578,46.818,71.68
		L294.343,180.706z"/>
	<path fill="#FFFFFF" d="M156.432,200.768L146.332,85.316c-12.208-16.171-23.149-29.76-31.133-36.562
		c-4.259-3.631-7.774-4.893-9.76-4.889l8.251,94.353c17.454,22.361,33.969,48.951,42.129,62.61L156.432,200.768z"/>
	<path fill="#FFFFFF" d="M72.544,212.564l-6.045-69.126c-8.179-10.917-15.546-20.213-20.825-24.707
		c-2.629-2.241-4.803-3.024-6.03-3.02l4.915,56.222c11.359,14.196,22.315,31.823,27.607,40.666L72.544,212.564z"/>
	<path fill="#FFFFFF" d="M357.564,42.784l-11.282-24.607l5.284-0.465l4.938,11.258c1.428,3.241,2.598,6.012,3.619,9.013l0.07-0.008
		c0.522-3.02,1.304-6.155,2.172-9.388l3.231-12.102l5.13-0.45l-7.538,26.256L357.564,42.784z"/>
	
		<rect x="373.441" y="25.047" transform="matrix(-0.0872 -0.9962 0.9962 -0.0872 392.4741 414.5994)" fill="#FFFFFF" width="25.502" height="4.87"/>
	<polygon fill="#FFFFFF" points="404.545,13.078 409.399,12.652 411.266,34.003 422.931,32.981 423.283,37.039 406.769,38.479 	"/>
	<polygon fill="#FFFFFF" points="432.374,10.642 437.22,10.217 439.086,31.568 450.755,30.55 451.107,34.6 434.592,36.047 	"/>
	<polygon fill="#FFFFFF" points="477.038,21.081 466.292,22.021 466.927,29.26 478.913,28.211 479.257,32.137 462.416,33.612 
		460.197,8.208 476.435,6.787 476.78,10.716 465.39,11.711 465.951,18.095 476.694,17.155 	"/>
	<path fill="#FFFFFF" d="M508.44,25.912c0.767,0.058,1.951-0.031,3.129-0.135c7.123-0.578,10.734-4.607,10.209-10.604
		c-0.465-5.726-4.492-8.421-11.1-7.843c-1.808,0.158-3.039,0.429-3.81,0.646L508.44,25.912z M501.716,4.917
		c2.338-0.549,5.228-1.022,8.312-1.292c5.37-0.473,9.092,0.208,11.891,2.11c2.782,1.835,4.634,4.711,4.985,8.765
		c0.376,4.251-0.948,7.739-3.302,10.252c-2.621,2.725-7.038,4.398-12.535,4.878c-3.137,0.274-5.414,0.325-7.164,0.267L501.716,4.917
		z"/>
	<polygon fill="#FFFFFF" points="554.623,14.294 543.877,15.234 544.508,22.474 556.498,21.425 556.842,25.351 540.001,26.825 
		537.779,1.42 554.016,0 554.36,3.929 542.975,4.924 543.531,11.309 554.279,10.368 	"/>
	<path fill="#FFFFFF" d="M355.47,123.16c-14.72,1.153-24.379,5.339-23.608,14.1c0.503,5.815,4.816,8.579,11.104,8.03
		c6.774-0.593,11.827-5.688,13.026-10.926c0.269-1.374,0.198-2.973,0.074-4.375L355.47,123.16z M381.502,138.298
		c0.689,7.851,1.773,15.122,2.961,19.129l-22.88,2.001l-2.207-7.638l-0.573,0.054c-4.816,6.741-13.104,10.902-23.109,11.778
		c-17.244,1.509-27.809-9.579-28.863-21.585c-1.772-20.259,15.579-31.912,46.51-34.518l-0.066-0.751
		c-0.305-3.473-2.605-9.21-16.248-8.498c-13.648,0.72-23.59,6.349-23.59,6.349l-5.66-14.502c0,0,12.104-7.564,32.034-9.307
		c26.732-2.339,37.693,11.743,39.369,30.891L381.502,138.298z"/>
	<path fill="#FFFFFF" d="M522.561,128.437c-7.478,0.128-10.496-5.253-11.274-14.142l-2.388-27.302l18.188-1.586l-1.655-18.909
		l-18.187,1.591l-1.874-21.417l-24.08,8.695l5.601,64.035c1.591,18.212,10.039,29.455,28.763,28.476
		c10.2-0.534,19.871-5.191,19.871-5.191l-4.688-15.785C530.837,126.899,526.438,128.367,522.561,128.437"/>
	<path fill="#FFFFFF" d="M422.792,154.074l-25.401,2.226l-4.603-52.606c-0.885-10.112-1.909-18.529-2.862-25.342l22.032-1.928
		l2.138,11.301l0.572-0.047c2.455-4.878,10.021-14.294,24.675-15.579c16.311-1.425,31.196,7.577,33.364,32.377l3.929,44.89
		l-25.404,2.219l-3.616-41.367c-1.11-12.703-7.204-17.786-15.822-17.035c-8.618,0.754-13.733,6.821-12.621,19.52L422.792,154.074z"
		/>
	<path fill="#FFFFFF" d="M626.599,114.155c3.453,1.51,13.666,4.758,23.668,4.058c7.994-0.558,11.118-3.206,10.461-6.95
		c-1.655-9.365-37.458-5.226-40.091-30.286c-1.561-14.836,10.554-25.661,31.146-27.465c10.005-0.871,19.482,1.034,24.526,2.741
		l-2.446,16.446c0,0-9.544-3.508-19.63-2.621c-6.12,0.535-9.879,2.989-9.168,7.011c1.541,8.73,37.574,4.956,40.233,30.24
		c1.476,14.038-8.657,26.462-33.06,28.599c-11.397,0.995-21.281-0.639-28.377-3.396L626.599,114.155z"/>
	<path fill="#FFFFFF" d="M589.588,90.752c-0.356-4.449-3.884-14.901-16.527-13.798c-11.397,0.999-15.208,10.553-15.525,16.604
		L589.588,90.752z M559.323,110.807c2.971,16.241,30.903,14.258,48.097,7.085l4.622,15.555c0,0-13.654,7.19-29.462,8.576
		c-29.28,2.555-45.509-14.406-47.422-36.288c-1.556-17.786,6.705-43.693,37.793-45.323c28.188-1.475,38.925,18.548,40.485,36.416
		c0.332,3.771,0.154,7.569-0.143,9.26L559.323,110.807z"/>
</g>
</svg>
