<?xml version="1.0" encoding="utf-8"?>
<!-- Generator: Adobe Illustrator 15.1.0, SVG Export Plug-In . SVG Version: 6.00 Build 0)  -->
<!DOCTYPE svg PUBLIC "-//W3C//DTD SVG 1.1//EN" "http://www.w3.org/Graphics/SVG/1.1/DTD/svg11.dtd">
<svg version="1.1" id="Calque_1" xmlns="http://www.w3.org/2000/svg" xmlns:xlink="http://www.w3.org/1999/xlink" x="0px" y="0px"
	 width="299.275px" height="101.526px" viewBox="0 0 299.275 101.526" enable-background="new 0 0 299.275 101.526"
	 xml:space="preserve">
<g>
	<g>
		<g>
			<path fill-rule="evenodd" clip-rule="evenodd" fill="#FFFFFF" d="M59.583,0.253c9.209-1.637,11.596,12.667,2.55,14.035
				C55.084,15.358,51.504,7.06,55.248,2.55C56.246,1.347,57.852,0.565,59.583,0.253z"/>
			<path fill-rule="evenodd" clip-rule="evenodd" fill="#FFFFFF" d="M133.076,0c4.169,0,8.337,0,12.504,0
				c0,12.652,0,28.018,0,41.596c0,7.875-1.03,15.564,2.55,19.646c-2.479,2.709-5.661,4.713-8.419,7.147
				c-3.438-2.695-6.329-7.242-6.891-12.504c-0.446-4.185,0-9.056,0-13.779c0-13.19,0-28.358,0-41.342
				C132.798,0.404,132.78,0.042,133.076,0z"/>
			<path fill-rule="evenodd" clip-rule="evenodd" fill="#FFFFFF" d="M165.994,0.253c3.751-0.565,7.469,1.666,8.166,5.104
				c1.191,5.867-3.345,9.555-8.166,8.932C158.438,13.312,157.677,1.505,165.994,0.253z"/>
			<path fill-rule="evenodd" clip-rule="evenodd" fill="#FFFFFF" d="M41.976,27.049c-1.109,2.463-2.701,4.443-3.826,6.888
				c-4.963-2.371-10.186-4.499-15.313-3.572c-12.499,2.271-13.737,27.432,1.787,28.327c5.418,0.312,9.586-1.576,13.267-3.575
				c1.706,2.297,3.107,4.892,4.34,7.656c-3.076,1.943-6.378,3.662-10.463,4.594c0,4.25,0,8.506,0,12.76c-4.253,0-8.504,0-12.76,0
				c0-4.169,0-8.335,0-12.506C7.503,63.958-1.157,55.637,0.126,41.85C1.238,29.913,11.02,22.146,22.584,20.923
				C31.048,20.028,37.031,23.146,41.976,27.049z"/>
			<path fill-rule="evenodd" clip-rule="evenodd" fill="#FFFFFF" d="M120.825,26.792c-0.938,2.72-2.777,4.536-3.823,7.145
				c-6.27-3.353-15.397-5.935-20.926-0.766c-3.205,2.999-4.388,8.082-4.084,12.76c0.43,6.598,4.428,12.464,11.741,12.76
				c5.328,0.216,9.362-1.558,13.011-3.575c1.661,2.339,3.057,4.939,4.34,7.656c-3.176,1.927-6.434,3.775-10.719,4.594
				c0,4.25,0,8.506,0,12.76c-4.253,0-8.507,0-12.76,0c0-4.169,0-8.335,0-12.506c-8.998-3.229-17.478-9.027-18.626-20.158
				c-1.537-14.88,8.919-25.105,22.455-26.539C109.937,20.023,115.513,23.257,120.825,26.792z"/>
			<path fill-rule="evenodd" clip-rule="evenodd" fill="#FFFFFF" d="M227.238,26.792c-1.233,2.511-2.786,4.702-4.085,7.145
				c-12.303-7.456-26.478-3.575-24.751,13.272c0.594,5.793,4.633,11.155,11.482,11.482c5.302,0.251,9.471-1.505,13.017-3.575
				c1.801,2.196,3.137,4.858,4.338,7.656c-2.971,2.049-6.402,3.636-10.463,4.594c0,4.25,0,8.506,0,12.76c-4.25,0-8.507,0-12.757,0
				c0-4.169,0-8.335,0-12.506c-5.003-1.835-9.061-3.617-12.504-7.145c-8.137-8.33-8.306-23.646,0-32.152
				c4.24-4.346,9.964-7.155,16.839-7.656C216.997,20.044,221.831,23.656,227.238,26.792z"/>
			<path fill-rule="evenodd" clip-rule="evenodd" fill="#FFFFFF" d="M54.736,21.18c4.167,0,8.335,0,12.504,0
				c0,15.054,0,30.108,0,45.168c-4.253,0-8.506,0-12.76,0C54.651,51.375,54.139,35.727,54.736,21.18z"/>
			<path fill-rule="evenodd" clip-rule="evenodd" fill="#FFFFFF" d="M161.146,21.18c4.082,0,8.164,0,12.248,0
				c0,15.054,0,30.108,0,45.168c-4.253,0-8.504,0-12.76,0c0-14.803,0-29.602,0-44.402C160.624,21.51,160.824,21.285,161.146,21.18z"
				/>
			<path fill-rule="evenodd" clip-rule="evenodd" fill="#FFFFFF" d="M24.112,87.271c4.243-0.668,8.394,2.347,8.422,6.888
				c0.061,9.32-16.287,9.879-14.289-1.785C18.571,90.482,20.741,87.802,24.112,87.271z"/>
			<path fill-rule="evenodd" clip-rule="evenodd" fill="#FFFFFF" d="M102.964,87.271c0,0,0.082-0.238,0.256-0.256
				c11.458-1.209,9.647,17.716-1.787,14.035C95.247,99.057,95.435,88.404,102.964,87.271z"/>
			<path fill-rule="evenodd" clip-rule="evenodd" fill="#FFFFFF" d="M209.375,87.271c4.771-0.668,8.398,2.331,8.166,7.4
				c-0.206,4.473-4.09,7.585-8.932,6.632C201.446,99.899,201.267,88.399,209.375,87.271z"/>
		</g>
	</g>
	<g>
		<path fill="#FFFFFF" d="M37.105,89.875h1.175v7.036h2.331v1.178h-3.506V89.875z"/>
		<path fill="#FFFFFF" d="M42.098,89.875h1.177v8.214h-1.177V89.875z"/>
		<path fill="#FFFFFF" d="M47.412,98.088h-1.035l-1.674-8.214h1.246l0.935,5.734h0.021l0.945-5.734h1.246L47.412,98.088z"/>
		<path fill="#FFFFFF" d="M50.493,89.875h1.893c1.383,0,2.075,0.808,2.075,2.413c0,0.478-0.077,0.885-0.227,1.228
			c-0.148,0.343-0.412,0.618-0.79,0.826l1.27,3.747h-1.246l-1.096-3.506h-0.705v3.506h-1.175V89.875z M51.668,93.547h0.671
			c0.206,0,0.372-0.031,0.496-0.087c0.122-0.061,0.217-0.143,0.283-0.248c0.066-0.108,0.108-0.243,0.132-0.401
			c0.024-0.156,0.035-0.338,0.035-0.546c0-0.206-0.011-0.388-0.035-0.547c-0.024-0.156-0.071-0.293-0.145-0.404
			c-0.074-0.111-0.174-0.195-0.307-0.246c-0.129-0.055-0.303-0.082-0.517-0.082h-0.613V93.547z"/>
		<path fill="#FFFFFF" d="M56.096,89.875h3.509v1.112h-2.331v2.41h2.03V94.5h-2.03v2.411h2.331v1.178h-3.509V89.875z"/>
	</g>
	<g>
		<path fill="#FFFFFF" d="M67.89,89.875h1.177v8.214H67.89V89.875z"/>
		<path fill="#FFFFFF" d="M70.899,89.875h1.13l1.51,4.349h0.026l1.497-4.349h1.143v8.214h-1.178v-4.99h-0.021l-1.167,3.525h-0.589
			l-1.154-3.525h-0.021v4.99h-1.177V89.875z"/>
		<path fill="#FFFFFF" d="M79.306,89.875h0.982l1.833,8.214h-1.178l-0.343-1.764h-1.605l-0.343,1.764h-1.178L79.306,89.875z
			 M79.802,92.243h-0.021l-0.578,2.973h1.175L79.802,92.243z"/>
		<path fill="#FFFFFF" d="M83.319,91.815c0-0.333,0.058-0.623,0.174-0.876s0.269-0.462,0.454-0.628
			c0.19-0.164,0.401-0.29,0.633-0.372c0.238-0.087,0.475-0.129,0.713-0.129s0.473,0.042,0.708,0.129
			c0.238,0.082,0.446,0.208,0.634,0.372c0.19,0.167,0.341,0.375,0.457,0.628c0.114,0.253,0.174,0.544,0.174,0.876v0.417h-1.177
			v-0.417c0-0.285-0.08-0.494-0.235-0.628c-0.159-0.135-0.346-0.201-0.56-0.201c-0.216,0-0.401,0.066-0.56,0.201
			c-0.159,0.134-0.238,0.343-0.238,0.628v4.338c0,0.283,0.079,0.491,0.238,0.628c0.158,0.135,0.343,0.204,0.56,0.204
			c0.214,0,0.401-0.069,0.56-0.204c0.155-0.137,0.235-0.346,0.235-0.628v-1.547h-0.935v-1.038h2.112v2.584
			c0,0.335-0.061,0.631-0.174,0.879c-0.116,0.248-0.267,0.459-0.457,0.623c-0.188,0.167-0.396,0.293-0.634,0.375
			c-0.235,0.084-0.47,0.126-0.708,0.126s-0.475-0.042-0.713-0.126c-0.232-0.082-0.443-0.208-0.633-0.375
			c-0.185-0.164-0.338-0.375-0.454-0.623s-0.174-0.544-0.174-0.879V91.815z"/>
		<path fill="#FFFFFF" d="M88.995,89.875h3.506v1.112H90.17v2.41h2.03V94.5h-2.03v2.411h2.332v1.178h-3.506V89.875z"/>
	</g>
	<g>
		<path fill="#FFFFFF" d="M118.201,96.24c0,0.25-0.047,0.496-0.143,0.723c-0.098,0.23-0.229,0.433-0.398,0.607
			c-0.172,0.171-0.367,0.312-0.594,0.412c-0.227,0.106-0.473,0.156-0.734,0.156c-0.222,0-0.449-0.029-0.681-0.089
			c-0.229-0.063-0.438-0.167-0.621-0.314c-0.185-0.153-0.335-0.349-0.457-0.597c-0.119-0.248-0.177-0.56-0.177-0.932v-4.522
			c0-0.269,0.045-0.52,0.14-0.75c0.09-0.232,0.222-0.433,0.391-0.599c0.169-0.171,0.37-0.301,0.605-0.396
			c0.235-0.098,0.494-0.15,0.779-0.15c0.269,0,0.518,0.053,0.75,0.15c0.227,0.095,0.428,0.229,0.6,0.398
			c0.169,0.174,0.301,0.383,0.398,0.628c0.095,0.24,0.143,0.502,0.143,0.787v0.459h-1.177v-0.388c0-0.232-0.063-0.433-0.195-0.602
			c-0.129-0.169-0.307-0.253-0.531-0.253c-0.293,0-0.486,0.092-0.581,0.272c-0.098,0.179-0.145,0.406-0.145,0.684v4.198
			c0,0.24,0.053,0.438,0.153,0.6c0.105,0.164,0.293,0.243,0.562,0.243c0.077,0,0.161-0.013,0.248-0.042
			c0.087-0.024,0.169-0.066,0.241-0.129c0.074-0.061,0.134-0.148,0.179-0.256c0.047-0.105,0.069-0.243,0.069-0.401V95.73h1.177
			V96.24z"/>
		<path fill="#FFFFFF" d="M123.655,96.227c0,0.269-0.05,0.517-0.15,0.747c-0.098,0.232-0.235,0.433-0.409,0.607
			c-0.174,0.174-0.375,0.309-0.607,0.409c-0.227,0.1-0.475,0.147-0.734,0.147c-0.264,0-0.509-0.047-0.739-0.147
			c-0.232-0.101-0.433-0.235-0.607-0.409c-0.169-0.174-0.307-0.375-0.407-0.607c-0.1-0.23-0.15-0.478-0.15-0.747v-6.366h1.175v6.25
			c0,0.291,0.069,0.509,0.208,0.646c0.14,0.138,0.309,0.206,0.52,0.206c0.206,0,0.38-0.068,0.518-0.206
			c0.137-0.137,0.206-0.356,0.206-0.646v-6.25h1.177V96.227z"/>
		<path fill="#FFFFFF" d="M125.456,89.861h1.172v7.034h2.334v1.177h-3.506V89.861z"/>
		<path fill="#FFFFFF" d="M130.33,90.968h-1.357v-1.106h3.897v1.106h-1.362v7.104h-1.177V90.968z"/>
		<path fill="#FFFFFF" d="M137.886,96.227c0,0.269-0.05,0.517-0.151,0.747c-0.1,0.232-0.235,0.433-0.409,0.607
			c-0.174,0.174-0.375,0.309-0.607,0.409c-0.227,0.1-0.475,0.147-0.737,0.147c-0.261,0-0.507-0.047-0.736-0.147
			c-0.232-0.101-0.433-0.235-0.607-0.409c-0.174-0.174-0.309-0.375-0.409-0.607c-0.101-0.23-0.15-0.478-0.15-0.747v-6.366h1.177
			v6.25c0,0.291,0.069,0.509,0.206,0.646c0.14,0.138,0.312,0.206,0.52,0.206s0.383-0.068,0.52-0.206
			c0.137-0.137,0.206-0.356,0.206-0.646v-6.25h1.178V96.227z"/>
		<path fill="#FFFFFF" d="M139.684,89.861h1.893c1.383,0,2.075,0.803,2.075,2.411c0,0.478-0.074,0.884-0.227,1.228
			c-0.148,0.343-0.412,0.615-0.787,0.824l1.267,3.749h-1.246l-1.093-3.506h-0.708v3.506h-1.175V89.861z M140.859,93.526h0.67
			c0.209,0,0.375-0.026,0.497-0.084s0.216-0.143,0.28-0.248c0.069-0.108,0.111-0.243,0.135-0.399s0.034-0.34,0.034-0.546
			c0-0.208-0.01-0.391-0.034-0.549c-0.024-0.158-0.071-0.29-0.146-0.404c-0.074-0.108-0.174-0.193-0.303-0.246
			c-0.129-0.055-0.304-0.082-0.52-0.082h-0.613V93.526z"/>
		<path fill="#FFFFFF" d="M145.289,89.861h3.506v1.106h-2.329v2.41h2.027v1.109h-2.027v2.408h2.329v1.177h-3.506V89.861z"/>
		<path fill="#FFFFFF" d="M153.041,89.861h1.13l1.774,4.945h0.021v-4.945h1.178v8.211h-1.106l-1.798-4.937h-0.023v4.937h-1.175
			V89.861z"/>
		<path fill="#FFFFFF" d="M162.701,96.227c0,0.269-0.05,0.517-0.15,0.747c-0.098,0.232-0.235,0.433-0.407,0.607
			c-0.174,0.174-0.375,0.309-0.607,0.409c-0.232,0.1-0.478,0.147-0.739,0.147c-0.259,0-0.507-0.047-0.737-0.147
			c-0.23-0.101-0.436-0.235-0.604-0.409c-0.174-0.174-0.309-0.375-0.409-0.607c-0.101-0.23-0.151-0.478-0.151-0.747v-6.366h1.178
			v6.25c0,0.291,0.068,0.509,0.206,0.646c0.14,0.138,0.312,0.206,0.518,0.206c0.211,0,0.383-0.068,0.522-0.206
			c0.137-0.137,0.206-0.356,0.206-0.646v-6.25h1.175V96.227z"/>
		<path fill="#FFFFFF" d="M164.502,89.861h1.127l1.513,4.349h0.023l1.5-4.349h1.14v8.211h-1.177v-4.995h-0.021l-1.167,3.53h-0.586
			l-1.156-3.53h-0.021v4.995h-1.175V89.861z"/>
		<path fill="#FFFFFF" d="M171.606,89.861h3.501v1.106h-2.326v2.41h2.03v1.109h-2.03v2.408h2.326v1.177h-3.501V89.861z
			 M173.589,87.865h1.244l-1.521,1.626h-0.76L173.589,87.865z"/>
		<path fill="#FFFFFF" d="M176.565,89.861h1.89c1.384,0,2.075,0.803,2.075,2.411c0,0.478-0.074,0.884-0.224,1.228
			c-0.151,0.343-0.415,0.615-0.79,0.824l1.267,3.749h-1.246l-1.093-3.506h-0.705v3.506h-1.175V89.861z M177.74,93.526h0.668
			c0.208,0,0.372-0.026,0.496-0.084c0.125-0.058,0.217-0.143,0.283-0.248c0.066-0.108,0.108-0.243,0.135-0.399
			c0.021-0.156,0.032-0.34,0.032-0.546c0-0.208-0.011-0.391-0.032-0.549c-0.026-0.158-0.074-0.29-0.148-0.404
			c-0.071-0.108-0.174-0.193-0.304-0.246c-0.132-0.055-0.304-0.082-0.52-0.082h-0.61V93.526z"/>
		<path fill="#FFFFFF" d="M182.202,89.861h1.177v8.211h-1.177V89.861z"/>
		<path fill="#FFFFFF" d="M185.14,91.797c0-0.33,0.061-0.621,0.174-0.877c0.116-0.253,0.269-0.462,0.459-0.628
			c0.185-0.164,0.396-0.288,0.633-0.372c0.232-0.087,0.47-0.132,0.708-0.132c0.237,0,0.475,0.045,0.71,0.132
			c0.235,0.084,0.443,0.208,0.634,0.372c0.188,0.167,0.34,0.375,0.457,0.628c0.114,0.256,0.172,0.547,0.172,0.877v4.337
			c0,0.322-0.058,0.602-0.172,0.84l0.726,0.589l-0.602,0.715l-0.691-0.565c-0.177,0.145-0.37,0.253-0.581,0.322
			c-0.214,0.068-0.43,0.103-0.652,0.103c-0.238,0-0.476-0.04-0.708-0.126c-0.237-0.082-0.449-0.208-0.633-0.375
			c-0.19-0.164-0.343-0.372-0.459-0.621c-0.114-0.25-0.174-0.543-0.174-0.882V91.797z M186.317,96.134
			c0,0.283,0.08,0.494,0.238,0.628c0.159,0.135,0.343,0.201,0.56,0.201c0.1,0,0.185-0.013,0.253-0.045l-0.528-0.428l0.597-0.713
			l0.475,0.38v-0.024v-4.337c0-0.285-0.079-0.494-0.237-0.628c-0.159-0.135-0.343-0.201-0.56-0.201c-0.217,0-0.401,0.066-0.56,0.201
			c-0.158,0.134-0.238,0.343-0.238,0.628V96.134z"/>
		<path fill="#FFFFFF" d="M194.624,96.227c0,0.269-0.053,0.517-0.153,0.747c-0.098,0.232-0.235,0.433-0.409,0.607
			c-0.172,0.174-0.373,0.309-0.605,0.409c-0.229,0.1-0.475,0.147-0.739,0.147c-0.258,0-0.504-0.047-0.734-0.147
			c-0.232-0.101-0.433-0.235-0.607-0.409c-0.174-0.174-0.312-0.375-0.412-0.607c-0.098-0.23-0.148-0.478-0.148-0.747v-6.366h1.178
			v6.25c0,0.291,0.068,0.509,0.206,0.646c0.137,0.138,0.312,0.206,0.517,0.206c0.211,0,0.383-0.068,0.523-0.206
			c0.137-0.137,0.206-0.356,0.206-0.646v-6.25h1.177V96.227z"/>
		<path fill="#FFFFFF" d="M196.419,89.861h3.506v1.106h-2.329v2.41h2.03v1.109h-2.03v2.408h2.329v1.177h-3.506V89.861z"/>
	</g>
	<g>
		<path fill="#FFFFFF" d="M222.417,89.861h3.504v1.106h-2.329v2.41h2.03v1.109h-2.03v2.408h2.329v1.177h-3.504V89.861z"/>
		<path fill="#FFFFFF" d="M227.33,89.861h1.13l1.774,4.945h0.023v-4.945h1.176v8.211h-1.106l-1.798-4.937h-0.024v4.937h-1.175
			V89.861z"/>
		<path fill="#FFFFFF" d="M236.027,89.861h1.891c1.38,0,2.072,0.803,2.072,2.411c0,0.478-0.074,0.884-0.225,1.228
			c-0.147,0.343-0.412,0.615-0.792,0.824l1.272,3.749H239l-1.096-3.506h-0.705v3.506h-1.172V89.861z M237.199,93.526h0.671
			c0.206,0,0.369-0.026,0.496-0.084c0.121-0.058,0.217-0.143,0.28-0.248c0.068-0.108,0.11-0.243,0.132-0.399
			c0.026-0.156,0.037-0.34,0.037-0.546c0-0.208-0.011-0.391-0.037-0.549c-0.021-0.158-0.068-0.29-0.143-0.404
			c-0.074-0.108-0.175-0.193-0.307-0.246c-0.129-0.055-0.304-0.082-0.518-0.082h-0.612V93.526z"/>
		<path fill="#FFFFFF" d="M241.627,89.861h3.509v1.106h-2.329v2.41h2.028v1.109h-2.028v2.408h2.329v1.177h-3.509V89.861z
			 M243.612,87.865h1.243l-1.521,1.626h-0.763L243.612,87.865z"/>
		<path fill="#FFFFFF" d="M246.52,91.797c0-0.33,0.058-0.621,0.171-0.877c0.114-0.253,0.267-0.462,0.457-0.628
			c0.188-0.164,0.401-0.288,0.634-0.372c0.232-0.087,0.47-0.132,0.707-0.132c0.24,0,0.476,0.045,0.711,0.132
			c0.234,0.084,0.446,0.208,0.636,0.372c0.186,0.167,0.338,0.375,0.454,0.628c0.116,0.256,0.175,0.547,0.175,0.877v0.414h-1.178
			v-0.414c0-0.285-0.079-0.494-0.237-0.628c-0.159-0.135-0.344-0.201-0.561-0.201c-0.213,0-0.4,0.066-0.56,0.201
			c-0.155,0.134-0.234,0.343-0.234,0.628v4.337c0,0.283,0.079,0.494,0.234,0.628c0.159,0.135,0.347,0.201,0.56,0.201
			c0.217,0,0.401-0.066,0.561-0.201c0.158-0.134,0.237-0.346,0.237-0.628v-1.547h-0.935v-1.035h2.112v2.582
			c0,0.338-0.059,0.631-0.175,0.882c-0.116,0.249-0.269,0.457-0.454,0.621c-0.189,0.167-0.401,0.293-0.636,0.375
			c-0.235,0.087-0.471,0.126-0.711,0.126c-0.237,0-0.475-0.04-0.707-0.126c-0.232-0.082-0.446-0.208-0.634-0.375
			c-0.19-0.164-0.343-0.372-0.457-0.621c-0.113-0.25-0.171-0.543-0.171-0.882V91.797z"/>
		<path fill="#FFFFFF" d="M252.228,89.861h1.175v8.211h-1.175V89.861z"/>
		<path fill="#FFFFFF" d="M255.166,91.797c0-0.33,0.058-0.621,0.174-0.877c0.113-0.253,0.267-0.462,0.454-0.628
			c0.188-0.164,0.401-0.288,0.637-0.372c0.232-0.087,0.47-0.132,0.707-0.132c0.238,0,0.476,0.045,0.711,0.132
			c0.234,0.084,0.446,0.208,0.633,0.372c0.188,0.167,0.341,0.375,0.457,0.628c0.113,0.256,0.175,0.547,0.175,0.877v4.337
			c0,0.338-0.062,0.631-0.175,0.882c-0.116,0.249-0.27,0.457-0.457,0.621c-0.187,0.167-0.398,0.293-0.633,0.375
			c-0.235,0.087-0.473,0.126-0.711,0.126c-0.237,0-0.475-0.04-0.707-0.126c-0.235-0.082-0.449-0.208-0.637-0.375
			c-0.188-0.164-0.341-0.372-0.454-0.621c-0.116-0.25-0.174-0.543-0.174-0.882V91.797z M256.344,96.134
			c0,0.283,0.079,0.494,0.234,0.628c0.158,0.135,0.344,0.201,0.56,0.201c0.217,0,0.401-0.066,0.56-0.201
			c0.159-0.134,0.238-0.346,0.238-0.628v-4.337c0-0.285-0.079-0.494-0.238-0.628c-0.158-0.135-0.343-0.201-0.56-0.201
			c-0.216,0-0.401,0.066-0.56,0.201c-0.155,0.134-0.234,0.343-0.234,0.628V96.134z"/>
		<path fill="#FFFFFF" d="M260.792,89.861h1.13l1.779,4.945h0.021v-4.945h1.178v8.211h-1.109l-1.798-4.937h-0.023v4.937h-1.178
			V89.861z"/>
		<path fill="#FFFFFF" d="M273.225,96.24c0,0.25-0.048,0.496-0.143,0.723c-0.098,0.23-0.229,0.433-0.398,0.607
			c-0.169,0.171-0.37,0.312-0.594,0.412c-0.225,0.106-0.473,0.156-0.731,0.156c-0.225,0-0.449-0.029-0.682-0.089
			c-0.232-0.063-0.438-0.167-0.623-0.314c-0.185-0.153-0.338-0.349-0.454-0.597c-0.121-0.248-0.18-0.56-0.18-0.932v-4.522
			c0-0.269,0.048-0.52,0.138-0.75c0.095-0.232,0.222-0.433,0.394-0.599c0.166-0.171,0.372-0.301,0.604-0.396
			c0.234-0.098,0.493-0.15,0.776-0.15c0.271,0,0.522,0.053,0.749,0.15c0.232,0.095,0.434,0.229,0.603,0.398
			c0.169,0.174,0.301,0.383,0.398,0.628c0.095,0.24,0.143,0.502,0.143,0.787v0.459h-1.175v-0.388c0-0.232-0.068-0.433-0.195-0.602
			c-0.132-0.169-0.309-0.253-0.533-0.253c-0.291,0-0.486,0.092-0.581,0.272c-0.095,0.179-0.143,0.406-0.143,0.684v4.198
			c0,0.24,0.05,0.438,0.153,0.6c0.105,0.164,0.29,0.243,0.56,0.243c0.079,0,0.158-0.013,0.248-0.042
			c0.09-0.024,0.169-0.066,0.243-0.129c0.074-0.061,0.132-0.148,0.18-0.256c0.045-0.105,0.068-0.243,0.068-0.401V95.73h1.175V96.24z
			"/>
		<path fill="#FFFFFF" d="M274.875,89.861h3.506v1.106h-2.328v2.41h2.027v1.109h-2.027v2.408h2.328v1.177h-3.506V89.861z"/>
		<path fill="#FFFFFF" d="M279.788,89.861h1.128l1.779,4.945h0.021v-4.945h1.178v8.211h-1.108l-1.799-4.937h-0.023v4.937h-1.175
			V89.861z"/>
		<path fill="#FFFFFF" d="M286.418,90.968h-1.362v-1.106h3.899v1.106h-1.359v7.104h-1.178V90.968z"/>
		<path fill="#FFFFFF" d="M290.167,89.861h1.89c1.384,0,2.076,0.803,2.076,2.411c0,0.478-0.074,0.884-0.225,1.228
			s-0.415,0.615-0.79,0.824l1.268,3.749h-1.246l-1.093-3.506h-0.705v3.506h-1.175V89.861z M291.342,93.526h0.668
			c0.208,0,0.375-0.026,0.496-0.084s0.217-0.143,0.282-0.248c0.066-0.108,0.111-0.243,0.135-0.399
			c0.021-0.156,0.032-0.34,0.032-0.546c0-0.208-0.011-0.391-0.032-0.549c-0.023-0.158-0.073-0.29-0.147-0.404
			c-0.071-0.108-0.175-0.193-0.301-0.246c-0.133-0.055-0.307-0.082-0.523-0.082h-0.609V93.526z"/>
		<path fill="#FFFFFF" d="M295.77,89.861h3.506v1.106h-2.328v2.41h2.027v1.109h-2.027v2.408h2.328v1.177h-3.506V89.861z"/>
	</g>
</g>
</svg>
