<?xml version="1.0" encoding="utf-8"?>
<!-- Generator: Adobe Illustrator 15.1.0, SVG Export Plug-In . SVG Version: 6.00 Build 0)  -->
<!DOCTYPE svg PUBLIC "-//W3C//DTD SVG 1.1//EN" "http://www.w3.org/Graphics/SVG/1.1/DTD/svg11.dtd">
<svg version="1.1" id="Calque_1" xmlns="http://www.w3.org/2000/svg" xmlns:xlink="http://www.w3.org/1999/xlink" x="0px" y="0px"
	 width="118.985px" height="91.208px" viewBox="0 0 118.985 91.208" enable-background="new 0 0 118.985 91.208"
	 xml:space="preserve">
<g id="XMLID_9_">
	<path id="XMLID_365_" fill="#FFFFFF" d="M8.661,26.81v22.735H3.14V26.81H0v-4.223h3.14v-4.223c0-3.953,2.384-7.632,7.523-7.632
		h3.465v4.709h-2.434c-2.059,0-3.033,1.19-3.033,3.194v3.951h5.466v4.223H8.661z"/>
	<path id="XMLID_358_" fill="#FFFFFF" d="M20.18,38.096V10.65h5.519v27.446H20.18z"/>
	<path id="XMLID_323_" fill="#FFFFFF" d="M41.769,49.545c-5.299,0-7.593-3.552-7.593-7.649V10.646h5.574V41.57
		c0,2.13,0.765,3.222,3.002,3.222h2.461v4.753H41.769z"/>
	<path id="XMLID_317_" fill="#FFFFFF" d="M84.643,49.545V32.818c0-4.276-2.438-6.115-5.525-6.115c-2.979,0-5.687,1.893-5.687,5.846
		v16.997h-5.519V32.818c0-4.276-2.436-6.115-5.521-6.115c-3.087,0-5.688,1.893-5.688,6.115v16.728h-5.519V22.101h5.413v2.762
		c1.839-2.003,4.55-3.086,7.309-3.086c3.412,0,6.061,1.354,7.794,4.006c2.22-2.707,4.981-4.006,8.61-4.006
		c2.814,0,5.306,0.92,6.928,2.488c2.111,2.06,2.923,4.657,2.923,7.744v17.538H84.643z"/>
	<path id="XMLID_312_" fill="#FFFFFF" d="M107.563,49.872c-4.492,0-8.284-0.758-11.531-3.953l3.625-3.626
		c2.219,2.273,5.199,2.867,7.906,2.867c3.354,0,6.007-1.19,6.007-3.788c0-1.84-1.026-3.03-3.679-3.249l-4.387-0.377
		c-5.14-0.434-8.12-2.763-8.12-7.578c0-5.361,4.601-8.392,10.343-8.392c4.113,0,7.63,0.866,10.176,3.086l-3.464,3.517
		c-1.733-1.462-4.17-2.004-6.771-2.004c-3.302,0-4.976,1.461-4.976,3.521c0,1.624,0.862,2.87,3.785,3.138l4.334,0.379
		c5.14,0.434,8.173,2.87,8.173,7.744C118.985,46.892,114.112,49.872,107.563,49.872z"/>
	<g id="XMLID_275_">
		<path id="XMLID_306_" fill="#FFFFFF" d="M14.095,74.675c-0.83,0.833-2.166,1.338-3.68,1.338c-1.634,0-2.85-0.416-3.979-1.782
			v1.604H3.469V54.696h3.026v7.602c1.101-1.308,2.347-1.693,3.951-1.693c1.513,0,2.82,0.505,3.65,1.337
			c1.515,1.512,1.694,4.067,1.694,6.353C15.79,70.58,15.61,73.16,14.095,74.675z M9.642,63.306c-2.73,0-3.147,2.314-3.147,4.987
			s0.417,5.018,3.147,5.018c2.732,0,3.119-2.345,3.119-5.018S12.374,63.306,9.642,63.306z"/>
		<path id="XMLID_304_" fill="#FFFFFF" d="M28.18,64.315c-0.683-0.682-1.217-1.009-2.257-1.009c-1.634,0-3,1.306-3,3.384v9.145
			h-3.026V60.781h2.967v1.634c0.773-1.067,2.316-1.811,4.009-1.811c1.455,0,2.552,0.386,3.593,1.425L28.18,64.315z"/>
		<path id="XMLID_301_" fill="#FFFFFF" d="M34.204,69.184c0,2.583,1.365,4.214,3.829,4.214c1.692,0,2.585-0.472,3.653-1.542
			l1.929,1.81c-1.545,1.545-2.997,2.348-5.64,2.348c-3.771,0-6.77-1.991-6.77-7.72c0-4.869,2.523-7.689,6.383-7.689
			c4.037,0,6.382,2.97,6.382,7.245v1.335H34.204z M40.558,65.027c-0.475-1.128-1.546-1.901-2.969-1.901
			c-1.427,0-2.525,0.773-2.998,1.901c-0.298,0.684-0.357,1.13-0.387,2.049h6.769C40.944,66.157,40.854,65.71,40.558,65.027z"/>
		<path id="XMLID_299_" fill="#FFFFFF" d="M52.47,75.834c-2.819,0-4.127-2.021-4.127-4.185v-8.284h-1.719v-2.316h1.719v-4.572h3.029
			v4.572h2.908v2.316h-2.908v8.133c0,1.1,0.533,1.752,1.663,1.752h1.245v2.584H52.47z"/>
		<path id="XMLID_293_" fill="#FFFFFF" d="M66.098,75.834v-1.367c-1.099,1.1-2.139,1.546-4.007,1.546
			c-1.872,0-3.119-0.446-4.039-1.365c-0.772-0.804-1.187-1.962-1.187-3.237c0-2.524,1.752-4.335,5.193-4.335h3.979v-1.067
			c0-1.901-0.949-2.822-3.294-2.822c-1.663,0-2.467,0.388-3.295,1.456l-1.989-1.871c1.425-1.662,2.907-2.167,5.401-2.167
			c4.128,0,6.206,1.753,6.206,5.165v10.065H66.098z M66.037,69.184h-3.532c-1.78,0-2.701,0.801-2.701,2.166
			c0,1.367,0.86,2.14,2.759,2.14c1.158,0,2.02-0.092,2.823-0.863c0.443-0.444,0.651-1.156,0.651-2.226V69.184z"/>
		<path id="XMLID_290_" fill="#FFFFFF" d="M78.784,82.098c-2.288,0-3.743-0.534-5.316-1.989l1.933-1.931
			c0.949,0.891,1.778,1.337,3.263,1.337c2.556,0,3.532-1.811,3.532-3.829v-1.931c-1.096,1.306-2.343,1.722-3.889,1.722
			c-1.513,0-2.76-0.505-3.59-1.336c-1.456-1.455-1.693-3.562-1.693-6.116c0-2.552,0.237-4.659,1.693-6.115
			c0.83-0.832,2.106-1.306,3.62-1.306c1.604,0,2.82,0.415,3.95,1.782v-1.605h2.938v14.964
			C85.226,79.426,82.791,82.098,78.784,82.098z M79.14,63.306c-2.732,0-3.087,2.345-3.087,4.719c0,2.376,0.354,4.722,3.087,4.722
			c2.73,0,3.056-2.346,3.056-4.722C82.195,65.651,81.87,63.306,79.14,63.306z"/>
		<path id="XMLID_280_" fill="#FFFFFF" d="M99.218,75.834V66.66c0-2.345-1.337-3.354-3.031-3.354c-1.69,0-3.115,1.038-3.115,3.354
			v9.175h-3.027V60.781h2.968v1.517c1.039-1.13,2.495-1.693,4.008-1.693c1.542,0,2.821,0.505,3.711,1.364
			c1.157,1.13,1.513,2.555,1.513,4.247v9.619H99.218z"/>
		<path id="XMLID_277_" fill="#FFFFFF" d="M109.142,69.184c0,2.583,1.367,4.214,3.83,4.214c1.691,0,2.585-0.472,3.652-1.542
			l1.929,1.81c-1.544,1.545-2.996,2.348-5.639,2.348c-3.772,0-6.771-1.991-6.771-7.72c0-4.869,2.523-7.689,6.384-7.689
			c4.037,0,6.382,2.97,6.382,7.245v1.335H109.142z M115.493,65.027c-0.472-1.128-1.542-1.901-2.967-1.901
			c-1.426,0-2.524,0.773-2.998,1.901c-0.295,0.684-0.357,1.13-0.387,2.049h6.77C115.883,66.157,115.792,65.71,115.493,65.027z"/>
	</g>
	<circle id="XMLID_273_" fill="#FFFFFF" cx="22.935" cy="3.124" r="3.124"/>
	<g id="XMLID_160_">
		<path id="XMLID_255_" fill="#FFFFFF" d="M13.62,50.915c0,1.853,0.98,3.024,2.75,3.024c1.214,0,1.854-0.339,2.621-1.106
			l1.385,1.299c-1.109,1.106-2.152,1.684-4.049,1.684c-2.707,0-4.861-1.428-4.861-5.542c0-3.492,1.811-5.52,4.583-5.52
			c2.898,0,4.581,2.134,4.581,5.201v0.96H13.62z M18.179,47.93c-0.339-0.811-1.108-1.364-2.13-1.364
			c-1.023,0-1.812,0.554-2.153,1.364c-0.212,0.49-0.255,0.811-0.276,1.47h4.859C18.458,48.741,18.394,48.42,18.179,47.93z"/>
		<path id="XMLID_162_" fill="#FFFFFF" d="M30.1,55.687v-6.585c0-1.684-0.96-2.407-2.174-2.407c-1.215,0-2.238,0.745-2.238,2.407
			v6.585h-2.172V44.883h2.13v1.087c0.746-0.812,1.791-1.217,2.877-1.217c1.109,0,2.026,0.364,2.663,0.982
			c0.832,0.811,1.086,1.832,1.086,3.047v6.904H30.1z"/>
	</g>
	<g id="XMLID_10_">
		<path id="XMLID_156_" fill="#FFFFFF" d="M5.52,91.257c-1.234,0-2.215-0.837-2.215-2.113v-3.957h1.175v3.914
			c0,0.695,0.406,1.108,1.04,1.108c0.635,0,1.049-0.413,1.049-1.108v-3.914h1.167v3.957C7.735,90.42,6.755,91.257,5.52,91.257z"/>
		<path id="XMLID_152_" fill="#FFFFFF" d="M12.607,91.208l-2.384-3.695v3.695H9.048v-6.021h1.048l2.384,3.688v-3.688h1.175v6.021
			H12.607z"/>
		<path id="XMLID_139_" fill="#FFFFFF" d="M15.061,91.208v-6.021h1.175v6.021H15.061z"/>
		<path id="XMLID_125_" fill="#FFFFFF" d="M21.284,90.599c-0.422,0.423-0.938,0.658-1.624,0.658c-0.685,0-1.208-0.235-1.632-0.658
			c-0.608-0.609-0.592-1.363-0.592-2.402s-0.016-1.792,0.592-2.4c0.424-0.423,0.947-0.659,1.632-0.659
			c0.685,0,1.201,0.236,1.624,0.659c0.609,0.608,0.601,1.361,0.601,2.4S21.893,89.99,21.284,90.599z M20.413,86.505
			c-0.169-0.193-0.431-0.32-0.752-0.32c-0.321,0-0.591,0.127-0.76,0.32c-0.229,0.255-0.288,0.533-0.288,1.691
			c0,1.159,0.06,1.438,0.288,1.691c0.169,0.194,0.439,0.321,0.76,0.321c0.322,0,0.583-0.127,0.752-0.321
			c0.229-0.254,0.297-0.532,0.297-1.691C20.709,87.039,20.642,86.76,20.413,86.505z"/>
		<path id="XMLID_123_" fill="#FFFFFF" d="M26.647,91.208l-2.386-3.695v3.695h-1.174v-6.021h1.048l2.385,3.688v-3.688h1.176v6.021
			H26.647z"/>
		<path id="XMLID_119_" fill="#FFFFFF" d="M34.825,90.633c-0.397,0.396-0.964,0.574-1.59,0.574h-2.173v-6.021h2.173
			c0.626,0,1.193,0.178,1.59,0.575c0.677,0.677,0.608,1.505,0.608,2.41C35.433,89.077,35.501,89.956,34.825,90.633z M34.005,86.608
			c-0.204-0.245-0.474-0.372-0.879-0.372h-0.888v3.924h0.888c0.405,0,0.676-0.128,0.879-0.372c0.22-0.271,0.253-0.703,0.253-1.615
			C34.258,87.259,34.225,86.879,34.005,86.608z"/>
		<path id="XMLID_114_" fill="#FFFFFF" d="M36.636,91.208v-6.021h3.965v1.049h-2.79v1.413h2.376v1.047h-2.376v1.464h2.79v1.048
			H36.636z"/>
		<path id="XMLID_110_" fill="#FFFFFF" d="M43.409,91.257c-0.912,0-1.605-0.193-2.198-0.794l0.761-0.761
			c0.381,0.38,0.897,0.507,1.455,0.507c0.692,0,1.065-0.263,1.065-0.745c0-0.211-0.059-0.388-0.186-0.508
			c-0.12-0.109-0.253-0.167-0.533-0.21l-0.727-0.101c-0.516-0.076-0.896-0.237-1.167-0.499c-0.287-0.288-0.431-0.677-0.431-1.185
			c0-1.073,0.795-1.825,2.097-1.825c0.829,0,1.429,0.202,1.944,0.703l-0.744,0.733c-0.38-0.364-0.837-0.413-1.234-0.413
			c-0.626,0-0.93,0.345-0.93,0.761c0,0.151,0.05,0.312,0.177,0.431c0.118,0.109,0.312,0.203,0.558,0.236l0.71,0.102
			c0.55,0.075,0.896,0.229,1.149,0.464c0.322,0.307,0.466,0.746,0.466,1.277C45.642,90.599,44.669,91.257,43.409,91.257z"/>
		<path id="XMLID_107_" fill="#FFFFFF" d="M51.046,88.942h-1.158v2.266h-1.175v-6.021h2.333c1.243,0,1.987,0.854,1.987,1.877
			C53.034,88.088,52.29,88.942,51.046,88.942z M50.987,86.236h-1.099v1.648h1.099c0.532,0,0.871-0.329,0.871-0.82
			C51.858,86.574,51.52,86.236,50.987,86.236z"/>
		<path id="XMLID_95_" fill="#FFFFFF" d="M57.22,91.208l-1.174-2.402h-0.847v2.402h-1.174v-6.021h2.359
			c1.225,0,1.952,0.837,1.952,1.844c0,0.844-0.515,1.369-1.099,1.581l1.345,2.596H57.22z M56.307,86.236h-1.107v1.591h1.107
			c0.516,0,0.854-0.331,0.854-0.796C57.161,86.565,56.822,86.236,56.307,86.236z"/>
		<path id="XMLID_80_" fill="#FFFFFF" d="M63.199,90.599c-0.422,0.423-0.938,0.658-1.624,0.658c-0.684,0-1.209-0.235-1.631-0.658
			c-0.608-0.609-0.591-1.363-0.591-2.402s-0.018-1.792,0.591-2.4c0.422-0.423,0.947-0.659,1.631-0.659
			c0.686,0,1.202,0.236,1.624,0.659c0.609,0.608,0.6,1.361,0.6,2.4S63.809,89.99,63.199,90.599z M62.327,86.505
			c-0.168-0.193-0.43-0.32-0.752-0.32c-0.319,0-0.591,0.127-0.76,0.32c-0.229,0.255-0.287,0.533-0.287,1.691
			c0,1.159,0.059,1.438,0.287,1.691c0.169,0.194,0.44,0.321,0.76,0.321c0.322,0,0.584-0.127,0.752-0.321
			c0.229-0.254,0.297-0.532,0.297-1.691C62.624,87.039,62.557,86.76,62.327,86.505z"/>
		<path id="XMLID_78_" fill="#FFFFFF" d="M66.177,86.236v1.479h2.377v1.051h-2.377v2.442h-1.176v-6.021h3.966v1.049H66.177z"/>
		<path id="XMLID_76_" fill="#FFFFFF" d="M69.992,91.208v-6.021h3.965v1.049h-2.791v1.413h2.376v1.047h-2.376v1.464h2.791v1.048
			H69.992z"/>
		<path id="XMLID_74_" fill="#FFFFFF" d="M76.767,91.257c-0.914,0-1.607-0.193-2.199-0.794l0.761-0.761
			c0.382,0.38,0.896,0.507,1.455,0.507c0.691,0,1.064-0.263,1.064-0.745c0-0.211-0.06-0.388-0.185-0.508
			c-0.119-0.109-0.253-0.167-0.535-0.21l-0.726-0.101c-0.516-0.076-0.896-0.237-1.167-0.499c-0.287-0.288-0.432-0.677-0.432-1.185
			c0-1.073,0.797-1.825,2.097-1.825c0.83,0,1.431,0.202,1.945,0.703l-0.743,0.733c-0.382-0.364-0.838-0.413-1.235-0.413
			c-0.626,0-0.931,0.345-0.931,0.761c0,0.151,0.05,0.312,0.178,0.431c0.119,0.109,0.313,0.203,0.559,0.236l0.712,0.102
			c0.548,0.075,0.894,0.229,1.147,0.464c0.322,0.307,0.464,0.746,0.464,1.277C78.996,90.599,78.025,91.257,76.767,91.257z"/>
		<path id="XMLID_70_" fill="#FFFFFF" d="M81.712,91.257c-0.912,0-1.604-0.193-2.197-0.794l0.763-0.761
			c0.378,0.38,0.895,0.507,1.452,0.507c0.693,0,1.064-0.263,1.064-0.745c0-0.211-0.059-0.388-0.185-0.508
			c-0.119-0.109-0.255-0.167-0.533-0.21l-0.728-0.101c-0.515-0.076-0.896-0.237-1.168-0.499c-0.285-0.288-0.43-0.677-0.43-1.185
			c0-1.073,0.794-1.825,2.096-1.825c0.829,0,1.43,0.202,1.946,0.703l-0.743,0.733c-0.383-0.364-0.84-0.413-1.236-0.413
			c-0.624,0-0.929,0.345-0.929,0.761c0,0.151,0.049,0.312,0.177,0.431c0.118,0.109,0.312,0.203,0.559,0.236l0.709,0.102
			c0.552,0.075,0.896,0.229,1.15,0.464c0.322,0.307,0.466,0.746,0.466,1.277C83.945,90.599,82.973,91.257,81.712,91.257z"/>
		<path id="XMLID_68_" fill="#FFFFFF" d="M85.053,91.208v-6.021h1.177v6.021H85.053z"/>
		<path id="XMLID_32_" fill="#FFFFFF" d="M91.276,90.599c-0.423,0.423-0.938,0.658-1.623,0.658c-0.685,0-1.209-0.235-1.632-0.658
			c-0.607-0.609-0.591-1.363-0.591-2.402s-0.017-1.792,0.591-2.4c0.423-0.423,0.947-0.659,1.632-0.659
			c0.686,0,1.2,0.236,1.623,0.659c0.611,0.608,0.601,1.361,0.601,2.4S91.888,89.99,91.276,90.599z M90.405,86.505
			c-0.168-0.193-0.431-0.32-0.752-0.32s-0.591,0.127-0.761,0.32c-0.228,0.255-0.286,0.533-0.286,1.691
			c0,1.159,0.059,1.438,0.286,1.691c0.17,0.194,0.439,0.321,0.761,0.321s0.584-0.127,0.752-0.321
			c0.229-0.254,0.297-0.532,0.297-1.691C90.702,87.039,90.635,86.76,90.405,86.505z"/>
		<path id="XMLID_30_" fill="#FFFFFF" d="M96.64,91.208l-2.385-3.695v3.695h-1.176v-6.021h1.05l2.385,3.688v-3.688h1.174v6.021
			H96.64z"/>
		<path id="XMLID_28_" fill="#FFFFFF" d="M102.652,91.208l-2.383-3.695v3.695h-1.177v-6.021h1.049l2.384,3.688v-3.688h1.177v6.021
			H102.652z"/>
		<path id="XMLID_19_" fill="#FFFFFF" d="M105.106,91.208v-6.021h3.965v1.049h-2.789v1.413h2.375v1.047h-2.375v1.464h2.789v1.048
			H105.106z"/>
		<path id="XMLID_17_" fill="#FFFFFF" d="M110.223,91.208v-6.021h1.177v4.973h2.729v1.048H110.223z"/>
		<path id="XMLID_11_" fill="#FFFFFF" d="M116.744,91.257c-0.913,0-1.606-0.193-2.198-0.794l0.761-0.761
			c0.38,0.38,0.897,0.507,1.454,0.507c0.692,0,1.064-0.263,1.064-0.745c0-0.211-0.059-0.388-0.186-0.508
			c-0.118-0.109-0.254-0.167-0.532-0.21l-0.728-0.101c-0.516-0.076-0.896-0.237-1.167-0.499c-0.287-0.288-0.43-0.677-0.43-1.185
			c0-1.073,0.795-1.825,2.097-1.825c0.828,0,1.428,0.202,1.944,0.703l-0.744,0.733c-0.38-0.364-0.837-0.413-1.236-0.413
			c-0.624,0-0.929,0.345-0.929,0.761c0,0.151,0.051,0.312,0.179,0.431c0.117,0.109,0.312,0.203,0.558,0.236l0.709,0.102
			c0.55,0.075,0.896,0.229,1.151,0.464c0.319,0.307,0.465,0.746,0.465,1.277C118.977,90.599,118.004,91.257,116.744,91.257z"/>
	</g>
</g>
</svg>
