<?xml version="1.0" encoding="utf-8"?>
<!-- Generator: Adobe Illustrator 15.1.0, SVG Export Plug-In . SVG Version: 6.00 Build 0)  -->
<!DOCTYPE svg PUBLIC "-//W3C//DTD SVG 1.1//EN" "http://www.w3.org/Graphics/SVG/1.1/DTD/svg11.dtd">
<svg version="1.1" xmlns="http://www.w3.org/2000/svg" xmlns:xlink="http://www.w3.org/1999/xlink" x="0px" y="0px"
	 width="546.521px" height="621.489px" viewBox="0 0 546.521 621.489" enable-background="new 0 0 546.521 621.489"
	 xml:space="preserve">
<g id="Calque_1" display="none">
	<g display="inline">
		<g>
			<path fill-rule="evenodd" clip-rule="evenodd" fill="#1B1464" d="M218.292,6.804c-42.176,10.756-73.755,31.647-100.009,55.205
				C80.855,95.592,55.222,138.586,46.277,197.22c-4.73,31.011-3.177,64.895,4,92.808c17.464,67.917,57.546,114.802,112.81,145.612
				c9.766,5.444,27.558,17.059,36.003,14.401c5.318-1.673,6.906-8.992,9.601-16.001c15.297-39.78,28.468-72.954,43.204-111.21
				c2.045-5.309,6.902-15.87,5.601-20.802c-1.133-4.293-7.393-6.353-12.001-8.801c-20.617-10.952-37.508-31.198-37.604-60.806
				c-0.125-38.771,30.425-65.101,61.605-68.006c31.021-2.89,54.188,13.745,65.605,32.803c20.271,33.833,4.791,79.118-26.402,96.008
				c-4.754,2.574-12.122,3.091-13.601,8.801c-1.412,5.449,2.94,12.943,5.601,20.002c13.452,35.692,22.607,58.066,36.003,93.607
				c3.075,8.159,9.138,32.648,17.602,34.403c5.53,1.146,12.851-3.141,20.002-6.4c42.572-19.412,77.082-51.611,99.208-86.407
				c26.094-41.037,44.71-106.59,31.203-172.016c-11.591-56.141-40.86-100.172-80.007-132.011
				c-38.865-31.61-93.849-56.716-160.014-52.805C249.536,1.299,233.149,3.015,218.292,6.804z M262.296,494.046
				c-1.585,20.125,28.484,11.942,28.802,24.002c0.317,12.003-24.097,6.767-28.802,3.2c0,2.934,0,5.867,0,8.801
				c13.863,3.539,31.714,4.544,36.003-6.4c2.019-5.152,0.834-10.885-0.8-13.602c-5.278-8.771-27.238-4.887-27.203-15.201
				c0.036-10.632,18.078-7.124,26.402-4c0-2.4,0-4.801,0-7.201C282.039,478.178,263.349,480.686,262.296,494.046z M315.101,527.648
				c6.17,5.642,19.887,6.611,27.202,2.4c12.43-7.154,14.508-34.673,2.4-44.804c-3.345-2.798-10.326-5.682-20.802-3.2
				C306.169,486.245,302.995,516.581,315.101,527.648z M429.51,488.445c-0.095-2.305,0.438-5.237-0.8-6.4c-2.667,0-5.334,0-8.001,0
				c0,16.268,0,32.536,0,48.804c1.639,1.238,7.162,1.238,8.801,0c-0.008-20.095-4.596-48.751,20.002-41.604c0-2.667,0-5.334,0-8
				C439.434,480.234,433.091,482.959,429.51,488.445z M459.113,486.845c-18.595,17.722-0.249,58.491,31.203,43.204
				c-0.502-2.432,1.024-6.892-0.8-8.001c-4.557,3.338-14.275,4.718-20.002,2.4c-11.954-4.838-12.765-31.824,2.4-36.003
				c5.436-1.498,11.122-0.115,18.401,3.2c0-2.667,0-5.334,0-8.001C479.395,479.189,465.344,480.907,459.113,486.845z
				 M537.52,484.445c-8.932-6.533-25.746-3.685-32.003,4.8c-6.049,8.202-6.469,22.812-2.4,31.203
				c3.748,7.729,14.997,13.682,28.803,12.001c5.365-0.653,14.456-2.145,12.001-11.201c-11.852,7.029-36.864,6.161-34.403-12.801
				c12.001,0,24.003,0,36.004,0C545.527,498.029,544.287,489.395,537.52,484.445z M364.705,482.045
				c0.016,24.059-4.875,55.735,21.603,50.404c4.306-0.867,7.279-5.637,10.4-6.4c0.108,2.559-0.788,6.122,2.4,5.601
				c1.867,0,3.733,0,5.601,0c1.85-14.686,0.279-32.79,0.8-48.805c-1.718-1.482-5.86-0.54-8.801-0.8
				c-2.447,10.777,3.569,25.208-0.8,36.003c-3.135,7.745-16.87,10.826-21.602,2.4c-5.203-9.265,0.587-25.009-1.601-38.403
				C370.039,482.045,367.372,482.045,364.705,482.045z M13.475,530.849c8.936,6.161,24.489,4.924,31.203-4.8
				c3.568-5.169,5.773-15.482,4-25.603c-2.303-13.145-13.353-20.13-28.002-16.802C1.854,487.922-1.439,520.566,13.475,530.849z
				 M77.48,533.249c31.288,11.052,34.183-42.378,15.201-49.604c-7.736-2.945-19.438,0.484-23.202,6.4c0-2.133,0-4.267,0-6.4
				c-2.667,0-5.334,0-8.001,0c0,22.669,0,45.338,0,68.006c2.667,0,5.334,0,8.001,0c0-8.534,0-17.067,0-25.602
				C72.52,529.216,73.999,532.02,77.48,533.249z M151.086,486.045c-11.511-8.362-28.452-2.34-33.603,7.201
				c-3.309,6.129-3.921,13.904-3.2,20.001c1.695,14.337,13.861,22.913,31.203,20.802c5.114-0.622,14.5-2.096,12.001-11.2
				c-11.851,7.029-36.864,6.16-34.403-12.802c12.001,0,24.002,0,36.003,0C159.112,498.071,157.175,490.468,151.086,486.045z
				 M203.091,483.645c-8.521-3.364-19.723,1.365-23.202,6.4c0-2.133,0-4.267,0-6.4c-2.667,0-5.334,0-8.001,0
				c0,16.535,0,33.07,0,49.604c2.667,0,5.334,0,8.001,0c-0.646-20.605-3.65-51.345,20.802-41.604c6.498,8.703,1.047,29.355,4,41.604
				c2.4,0,4.801,0,7.201,0C210.106,514.83,217.274,489.245,203.091,483.645z M93.481,562.852c2.934,0,5.867,0,8.801,0
				c0-3.2,0-6.4,0-9.601C95.336,549.438,91.483,555.106,93.481,562.852z M174.289,562.852c2.667,0,5.333,0,8,0
				c0-3.467,0-6.934,0-10.4c-2.667,0-5.334,0-8,0C174.289,555.918,174.289,559.385,174.289,562.852z M233.494,562.852
				c2.667,0,5.333,0,8,0c0-3.467,0-6.934,0-10.4c-2.667,0-5.333,0-8,0C233.494,555.918,233.494,559.385,233.494,562.852z
				 M346.303,562.852c2.667,0,5.334,0,8.001,0c0-3.467,0-6.934,0-10.4c-2.667,0-5.334,0-8.001,0
				C346.303,555.918,346.303,559.385,346.303,562.852z M198.291,558.052c0,4.533,0,9.067,0,13.601
				c-1.817,0.583-6.242-1.441-5.601,1.601c0,1.333,0,2.667,0,4c0.108,2.292,5.492-0.691,5.601,1.601
				c1.985,13.752-4.345,33.61,4.8,40.003c4.359,3.047,12.335,2.446,20.002,1.601c0-2.134,0-4.268,0-6.4
				c-5.456-0.145-11.922,0.721-15.202-1.601c-2.219-8.986-2.264-24.399-0.8-34.403c5.334,0,10.667,0,16.001,0c0-2.133,0-4.267,0-6.4
				c-5.342-0.525-12.791,1.056-16.802-0.8c0-4.268,0-8.534,0-12.801C203.625,558.052,200.958,558.051,198.291,558.052z
				 M311.9,558.052c0,4.533,0,9.067,0,13.601c-2.008,0.659-6.889-1.556-6.4,1.601c0,1.333,0,2.667,0,4
				c0.355,2.312,6.045-0.711,6.4,1.601c2.468,13.144-4.655,32.145,3.201,39.203c4.779,4.295,11.262,2.268,20.802,3.2
				c0-2.4,0-4.801,0-7.2c-5.62-0.248-12.839,1.104-15.202-2.4c-1.243-9.429-1.397-24.199,0-33.604c5.067,0,10.135,0,15.202,0
				c0-2.133,0-4.267,0-6.4c-5.076-0.524-12.256,1.055-16.002-0.8c0-4.268,0-8.534,0-12.801
				C317.234,558.052,314.567,558.051,311.9,558.052z M149.486,571.652c-8.453-3.338-18.966,1.413-23.202,5.601
				c-0.583-1.817,1.441-6.242-1.6-5.601c-2.133,0-4.267,0-6.4,0c0,16.535,0,33.069,0,49.604c2.4,0,4.8,0,7.201,0
				c2.839-15.403-4.104-40.239,10.401-43.204c3.671-0.75,7.564,0.171,11.201,1.601c6.499,8.703,1.047,29.355,4,41.604
				c2.4,0,4.8,0,7.201,0C156.462,602.894,163.69,577.262,149.486,571.652z M291.899,577.253c-6.407-8.783-22.263-7.701-33.603-3.2
				c0,2.4,0,4.801,0,7.2c9.277-4.709,30.065-7.341,28.802,8.801c-15.15-0.502-27.121-0.337-31.203,8.801
				c-7.069,15.827,8.593,27.562,23.202,22.402c3.118-1.102,4.616-4.791,8.001-5.601c0.008,2.125-0.302,4.569,0.8,5.601
				c2.4,0,4.801,0,7.201,0C294.791,605.922,299.451,587.605,291.899,577.253z M451.913,571.652
				c-33.963-12.038-42.589,38.95-19.202,48.805c6.972,2.938,27.668,2.058,29.603-3.2c0.764-2.076-0.546-2.927,0-6.401
				c-11.979,7.158-36.619,5.917-34.402-12.801c12.001,0,24.002,0,36.003,0C464.575,584.234,460.445,574.677,451.913,571.652z
				 M93.481,574.053c0.52,15.481-1.048,33.051,0.8,47.204c2.4,0,4.8,0,7.2,0c1.85-14.951,0.279-33.324,0.8-49.604
				C99.141,572.245,93.126,569.964,93.481,574.053z M174.289,571.652c0,16.535,0,33.069,0,49.604c2.667,0,5.333,0,8,0
				c0-16.535,0-33.069,0-49.604C179.622,571.652,176.955,571.652,174.289,571.652z M233.494,571.652c0,16.535,0,33.069,0,49.604
				c2.4,0,4.8,0,7.201,0c1.85-14.951,0.279-33.324,0.8-49.604C238.827,571.652,236.161,571.652,233.494,571.652z M346.303,571.652
				c0,16.535,0,33.069,0,49.604c2.667,0,5.334,0,8.001,0c0-16.535,0-33.069,0-49.604
				C351.637,571.652,348.97,571.652,346.303,571.652z M383.107,621.257c3.467,0,6.934,0,10.4,0
				c6.546-16.123,12.471-32.867,18.401-49.604c-2.934,0-5.867,0-8.801,0c-4.715,13.953-9.152,28.184-15.201,40.804
				c-3.992-14.409-9.789-27.015-14.401-40.804c-2.667,0-5.334,0-8,0C370.547,589.013,377.424,604.537,383.107,621.257z"/>
			<path fill-rule="evenodd" clip-rule="evenodd" fill="#1B1464" d="M264.696,0.403c66.166-3.911,121.149,21.194,160.014,52.805
				c39.146,31.839,68.416,75.871,80.007,132.011c13.507,65.425-5.109,130.979-31.203,172.016
				c-22.126,34.796-56.636,66.995-99.208,86.407c-7.151,3.26-14.472,7.547-20.002,6.4c-8.464-1.755-14.526-26.244-17.602-34.403
				c-13.396-35.541-22.551-57.915-36.003-93.607c-2.66-7.059-7.013-14.553-5.601-20.002c1.479-5.71,8.847-6.227,13.601-8.801
				c31.193-16.89,46.674-62.175,26.402-96.008c-11.418-19.058-34.585-35.693-65.605-32.803c-31.18,2.905-61.73,29.235-61.605,68.006
				c0.095,29.607,16.986,49.854,37.604,60.806c4.608,2.448,10.868,4.507,12.001,8.801c1.301,4.932-3.556,15.493-5.601,20.802
				c-14.735,38.256-27.907,71.43-43.204,111.21c-2.695,7.009-4.283,14.328-9.601,16.001c-8.445,2.657-26.237-8.957-36.003-14.401
				c-55.264-30.811-95.345-77.695-112.81-145.612c-7.178-27.913-8.731-61.797-4-92.808c8.944-58.634,34.578-101.628,72.006-135.212
				c26.254-23.557,57.833-44.449,100.009-55.205C233.149,3.015,249.536,1.299,264.696,0.403z"/>
			<path fill-rule="evenodd" clip-rule="evenodd" fill="#1B1464" d="M296.699,483.645c0,2.4,0,4.801,0,7.201
				c-8.324-3.124-26.366-6.632-26.402,4c-0.035,10.314,21.924,6.431,27.203,15.201c1.634,2.717,2.818,8.449,0.8,13.602
				c-4.289,10.944-22.141,9.939-36.003,6.4c0-2.934,0-5.867,0-8.801c4.706,3.566,29.12,8.803,28.802-3.2
				c-0.318-12.06-30.388-3.877-28.802-24.002C263.349,480.686,282.039,478.178,296.699,483.645z"/>
			<path fill-rule="evenodd" clip-rule="evenodd" fill="#1B1464" d="M323.902,482.045c10.476-2.481,17.457,0.402,20.802,3.2
				c12.107,10.131,10.029,37.649-2.4,44.804c-7.315,4.211-21.032,3.241-27.202-2.4C302.995,516.581,306.169,486.245,323.902,482.045
				z M335.903,524.448c14.647-5.888,8.609-37.415-6.401-36.003C309.231,490.353,313.767,533.346,335.903,524.448z"/>
			<path fill-rule="evenodd" clip-rule="evenodd" fill="#1B1464" d="M449.512,481.245c0,2.666,0,5.333,0,8
				c-24.598-7.147-20.01,21.509-20.002,41.604c-1.639,1.238-7.162,1.238-8.801,0c0-16.268,0-32.536,0-48.804
				c2.667,0,5.334,0,8.001,0c1.237,1.163,0.705,4.096,0.8,6.4C433.091,482.959,439.434,480.234,449.512,481.245z"/>
			<path fill-rule="evenodd" clip-rule="evenodd" fill="#1B1464" d="M490.316,483.645c0,2.667,0,5.334,0,8.001
				c-7.279-3.315-12.966-4.698-18.401-3.2c-15.165,4.179-14.354,31.165-2.4,36.003c5.727,2.317,15.445,0.938,20.002-2.4
				c1.824,1.109,0.298,5.569,0.8,8.001c-31.452,15.287-49.798-25.482-31.203-43.204
				C465.344,480.907,479.395,479.189,490.316,483.645z"/>
			<path fill-rule="evenodd" clip-rule="evenodd" fill="#1B1464" d="M545.521,508.447c-12.001,0-24.003,0-36.004,0
				c-2.461,18.962,22.552,19.83,34.403,12.801c2.455,9.057-6.636,10.548-12.001,11.201c-13.806,1.681-25.055-4.271-28.803-12.001
				c-4.068-8.392-3.648-23.001,2.4-31.203c6.257-8.484,23.071-11.333,32.003-4.8C544.287,489.395,545.527,498.029,545.521,508.447z
				 M509.517,502.047c9.335,0,18.669,0,28.003,0C538.953,482.867,508.662,484.376,509.517,502.047z"/>
			<path fill-rule="evenodd" clip-rule="evenodd" fill="#1B1464" d="M372.706,482.045c2.188,13.395-3.603,29.139,1.601,38.403
				c4.731,8.426,18.467,5.345,21.602-2.4c4.369-10.795-1.647-25.226,0.8-36.003c2.94,0.26,7.083-0.683,8.801,0.8
				c-0.521,16.015,1.05,34.119-0.8,48.805c-1.867,0-3.733,0-5.601,0c-3.188,0.521-2.292-3.042-2.4-5.601
				c-3.121,0.764-6.095,5.533-10.4,6.4c-26.478,5.331-21.587-26.346-21.603-50.404C367.372,482.045,370.039,482.045,372.706,482.045
				z"/>
			<path fill-rule="evenodd" clip-rule="evenodd" fill="#1B1464" d="M20.675,483.645c14.65-3.328,25.7,3.657,28.002,16.802
				c1.772,10.12-0.432,20.434-4,25.603c-6.713,9.724-22.267,10.961-31.203,4.8C-1.439,520.566,1.854,487.922,20.675,483.645z
				 M18.275,492.445c-6.438,5.357-7.24,27.69,0.8,32.803c22.295,14.178,31.409-38.084,6.4-35.203
				C22.4,490.399,19.791,491.185,18.275,492.445z"/>
			<path fill-rule="evenodd" clip-rule="evenodd" fill="#1B1464" d="M69.479,526.049c0,8.534,0,17.067,0,25.602
				c-2.667,0-5.334,0-8.001,0c0-22.668,0-45.337,0-68.006c2.667,0,5.334,0,8.001,0c0,2.134,0,4.268,0,6.4
				c3.764-5.916,15.466-9.346,23.202-6.4c18.982,7.227,16.086,60.656-15.201,49.604C73.999,532.02,72.52,529.216,69.479,526.049z
				 M93.481,494.846c-5.563-8.331-17.313-6.63-21.602,1.601c-5.594,10.735-2.158,24.465,6.401,30.402
				c4.181,0.181,7.987-0.014,11.201-0.8C96.978,520.209,99.214,503.431,93.481,494.846z"/>
			<path fill-rule="evenodd" clip-rule="evenodd" fill="#1B1464" d="M159.087,510.047c-12.001,0-24.002,0-36.003,0
				c-2.461,18.962,22.552,19.831,34.403,12.802c2.499,9.104-6.887,10.578-12.001,11.2c-17.341,2.111-29.508-6.465-31.203-20.802
				c-0.721-6.097-0.109-13.872,3.2-20.001c5.151-9.541,22.092-15.563,33.603-7.201C157.175,490.468,159.112,498.071,159.087,510.047
				z M123.084,503.646c9.334,0,18.668,0,28.002,0C152.519,484.468,122.229,485.976,123.084,503.646z"/>
			<path fill-rule="evenodd" clip-rule="evenodd" fill="#1B1464" d="M211.892,533.249c-2.4,0-4.8,0-7.201,0
				c-2.953-12.248,2.498-32.9-4-41.604c-24.452-9.741-21.447,20.998-20.802,41.604c-2.667,0-5.334,0-8.001,0
				c0-16.534,0-33.069,0-49.604c2.667,0,5.334,0,8.001,0c0,2.134,0,4.268,0,6.4c3.479-5.035,14.68-9.765,23.202-6.4
				C217.274,489.245,210.106,514.83,211.892,533.249z"/>
			<path fill-rule="evenodd" clip-rule="evenodd" fill="#1B1464" d="M329.501,488.445c15.011-1.412,21.049,30.115,6.401,36.003
				C313.767,533.346,309.231,490.353,329.501,488.445z"/>
			<path fill-rule="evenodd" clip-rule="evenodd" fill="#1B1464" d="M537.52,502.047c-9.334,0-18.668,0-28.003,0
				C508.662,484.376,538.953,482.867,537.52,502.047z"/>
			<path fill-rule="evenodd" clip-rule="evenodd" fill="#1B1464" d="M25.476,490.045c25.008-2.881,15.895,49.381-6.4,35.203
				c-8.04-5.112-7.239-27.445-0.8-32.803C19.791,491.185,22.4,490.399,25.476,490.045z"/>
			<path fill-rule="evenodd" clip-rule="evenodd" fill="#1B1464" d="M89.481,526.049c-3.213,0.786-7.02,0.98-11.201,0.8
				c-8.559-5.938-11.995-19.667-6.401-30.402c4.289-8.23,16.039-9.932,21.602-1.601C99.214,503.431,96.978,520.209,89.481,526.049z"
				/>
			<path fill-rule="evenodd" clip-rule="evenodd" fill="#1B1464" d="M151.086,503.646c-9.334,0-18.668,0-28.002,0
				C122.229,485.976,152.519,484.468,151.086,503.646z"/>
			<path fill-rule="evenodd" clip-rule="evenodd" fill="#1B1464" d="M102.282,553.251c0,3.2,0,6.4,0,9.601c-2.934,0-5.867,0-8.801,0
				C91.483,555.106,95.336,549.438,102.282,553.251z"/>
			<path fill-rule="evenodd" clip-rule="evenodd" fill="#1B1464" d="M174.289,552.451c2.667,0,5.333,0,8,0c0,3.467,0,6.934,0,10.4
				c-2.667,0-5.333,0-8,0C174.289,559.385,174.289,555.918,174.289,552.451z"/>
			<path fill-rule="evenodd" clip-rule="evenodd" fill="#1B1464" d="M233.494,552.451c2.667,0,5.333,0,8,0c0,3.467,0,6.934,0,10.4
				c-2.667,0-5.333,0-8,0C233.494,559.385,233.494,555.918,233.494,552.451z"/>
			<path fill-rule="evenodd" clip-rule="evenodd" fill="#1B1464" d="M346.303,552.451c2.667,0,5.334,0,8.001,0
				c0,3.467,0,6.934,0,10.4c-2.667,0-5.334,0-8.001,0C346.303,559.385,346.303,555.918,346.303,552.451z"/>
			<path fill-rule="evenodd" clip-rule="evenodd" fill="#1B1464" d="M206.291,558.052c0,4.267,0,8.533,0,12.801
				c4.011,1.855,11.459,0.274,16.802,0.8c0,2.134,0,4.268,0,6.4c-5.334,0-10.667,0-16.001,0c-1.464,10.004-1.419,25.417,0.8,34.403
				c3.279,2.321,9.746,1.456,15.202,1.601c0,2.133,0,4.267,0,6.4c-7.667,0.846-15.643,1.446-20.002-1.601
				c-9.145-6.393-2.815-26.251-4.8-40.003c-0.108-2.292-5.492,0.691-5.601-1.601c0-1.333,0-2.667,0-4
				c-0.641-3.042,3.783-1.018,5.601-1.601c0-4.533,0-9.067,0-13.601C200.958,558.051,203.625,558.052,206.291,558.052z"/>
			<path fill-rule="evenodd" clip-rule="evenodd" fill="#1B1464" d="M319.901,558.052c0,4.267,0,8.533,0,12.801
				c3.746,1.854,10.926,0.275,16.002,0.8c0,2.134,0,4.268,0,6.4c-5.067,0-10.135,0-15.202,0c-1.397,9.404-1.243,24.175,0,33.604
				c2.363,3.504,9.582,2.152,15.202,2.4c0,2.399,0,4.8,0,7.2c-9.54-0.933-16.022,1.095-20.802-3.2
				c-7.856-7.059-0.733-26.06-3.201-39.203c-0.355-2.312-6.045,0.711-6.4-1.601c0-1.333,0-2.667,0-4
				c-0.488-3.156,4.393-0.941,6.4-1.601c0-4.533,0-9.067,0-13.601C314.567,558.051,317.234,558.052,319.901,558.052z"/>
			<path fill-rule="evenodd" clip-rule="evenodd" fill="#1B1464" d="M158.287,621.257c-2.4,0-4.8,0-7.201,0
				c-2.953-12.248,2.498-32.9-4-41.604c-3.636-1.43-7.529-2.351-11.201-1.601c-14.505,2.965-7.562,27.801-10.401,43.204
				c-2.4,0-4.801,0-7.201,0c0-16.535,0-33.069,0-49.604c2.133,0,4.267,0,6.4,0c3.042-0.642,1.018,3.783,1.6,5.601
				c4.236-4.188,14.75-8.938,23.202-5.601C163.69,577.262,156.462,602.894,158.287,621.257z"/>
			<path fill-rule="evenodd" clip-rule="evenodd" fill="#1B1464" d="M295.099,621.257c-2.4,0-4.801,0-7.201,0
				c-1.102-1.031-0.792-3.476-0.8-5.601c-3.385,0.81-4.883,4.499-8.001,5.601c-14.608,5.16-30.271-6.575-23.202-22.402
				c4.082-9.138,16.053-9.303,31.203-8.801c1.263-16.142-19.525-13.51-28.802-8.801c0-2.399,0-4.8,0-7.2
				c11.34-4.501,27.196-5.583,33.603,3.2C299.451,587.605,294.791,605.922,295.099,621.257z M263.896,600.455
				c-6.946,23.419,28.408,16.521,23.202-4C278,596.424,268.156,595.647,263.896,600.455z"/>
			<path fill-rule="evenodd" clip-rule="evenodd" fill="#1B1464" d="M463.914,598.055c-12.001,0-24.002,0-36.003,0
				c-2.217,18.718,22.424,19.959,34.402,12.801c-0.546,3.475,0.764,4.325,0,6.401c-1.935,5.258-22.631,6.138-29.603,3.2
				c-23.387-9.854-14.761-60.843,19.202-48.805C460.445,574.677,464.575,584.234,463.914,598.055z M427.911,591.654
				c9.334,0,18.668,0,28.002,0C457.28,572.117,427.347,574.464,427.911,591.654z"/>
			<path fill-rule="evenodd" clip-rule="evenodd" fill="#1B1464" d="M102.282,571.652c-0.521,16.28,1.05,34.653-0.8,49.604
				c-2.4,0-4.8,0-7.2,0c-1.849-14.153-0.281-31.723-0.8-47.204C93.126,569.964,99.141,572.245,102.282,571.652z"/>
			<path fill-rule="evenodd" clip-rule="evenodd" fill="#1B1464" d="M182.289,571.652c0,16.535,0,33.069,0,49.604
				c-2.667,0-5.333,0-8,0c0-16.535,0-33.069,0-49.604C176.955,571.652,179.622,571.652,182.289,571.652z"/>
			<path fill-rule="evenodd" clip-rule="evenodd" fill="#1B1464" d="M241.494,571.652c-0.521,16.28,1.05,34.653-0.8,49.604
				c-2.4,0-4.8,0-7.201,0c0-16.535,0-33.069,0-49.604C236.161,571.652,238.827,571.652,241.494,571.652z"/>
			<path fill-rule="evenodd" clip-rule="evenodd" fill="#1B1464" d="M354.304,571.652c0,16.535,0,33.069,0,49.604
				c-2.667,0-5.334,0-8.001,0c0-16.535,0-33.069,0-49.604C348.97,571.652,351.637,571.652,354.304,571.652z"/>
			<path fill-rule="evenodd" clip-rule="evenodd" fill="#1B1464" d="M365.505,571.652c2.666,0,5.333,0,8,0
				c4.612,13.789,10.409,26.395,14.401,40.804c6.049-12.62,10.486-26.851,15.201-40.804c2.934,0,5.867,0,8.801,0
				c-5.931,16.737-11.855,33.481-18.401,49.604c-3.467,0-6.934,0-10.4,0C377.424,604.537,370.547,589.013,365.505,571.652z"/>
			<path fill-rule="evenodd" clip-rule="evenodd" fill="#1B1464" d="M455.913,591.654c-9.334,0-18.668,0-28.002,0
				C427.347,574.464,457.28,572.117,455.913,591.654z"/>
			<path fill-rule="evenodd" clip-rule="evenodd" fill="#1B1464" d="M287.098,596.455c5.206,20.521-30.148,27.419-23.202,4
				C268.156,595.647,278,596.424,287.098,596.455z"/>
		</g>
	</g>
</g>
<g id="Calque_2">
	<g>
		<path fill="#FFFFFF" d="M51.006,506.822c0,19.303-13.479,27.713-25.989,27.713C10.999,534.535,0,524.183,0,507.683
			c0-17.358,11.539-27.604,25.881-27.604C40.868,480.078,51.006,490.97,51.006,506.822z M9.705,507.36
			c0,11.43,6.469,20.059,15.745,20.059c9.058,0,15.852-8.519,15.852-20.274c0-8.842-4.421-19.946-15.636-19.946
			C14.558,487.198,9.705,497.549,9.705,507.36z"/>
		<path fill="#FFFFFF" d="M62.976,498.197c0-6.688-0.215-12.078-0.43-17.04h8.41l0.541,8.951h0.215
			c3.772-6.364,10.029-10.03,18.546-10.03c12.724,0,22.214,10.677,22.214,26.422c0,18.762-11.54,28.035-23.831,28.035
			c-6.901,0-12.942-3.018-16.068-8.194h-0.215V554.7h-9.382V498.197z M72.358,512.107c0,1.401,0.108,2.695,0.43,3.881
			c1.728,6.578,7.442,11.104,14.234,11.104c10.03,0,15.853-8.192,15.853-20.162c0-10.353-5.5-19.303-15.528-19.303
			c-6.47,0-12.617,4.528-14.344,11.645c-0.323,1.187-0.646,2.588-0.646,3.774V512.107z"/>
		<path fill="#FFFFFF" d="M129.62,508.978c0.215,12.835,8.303,18.115,17.901,18.115c6.793,0,10.999-1.183,14.451-2.692l1.723,6.791
			c-3.342,1.513-9.165,3.344-17.468,3.344c-16.068,0-25.664-10.675-25.664-26.418c0-15.745,9.272-28.039,24.477-28.039
			c17.147,0,21.568,14.882,21.568,24.479c0,1.943-0.108,3.345-0.325,4.421H129.62z M157.441,502.184
			c0.107-5.931-2.481-15.312-13.157-15.312c-9.704,0-13.803,8.736-14.557,15.312H157.441z"/>
		<path fill="#FFFFFF" d="M178.363,495.282c0-5.5-0.107-9.812-0.431-14.125h8.412l0.538,8.625h0.215
			c2.588-4.85,8.626-9.704,17.252-9.704c7.227,0,18.441,4.315,18.441,22.216v31.055h-9.49v-30.085
			c0-8.411-3.126-15.421-12.079-15.421c-6.145,0-10.999,4.422-12.724,9.706c-0.433,1.187-0.648,2.803-0.648,4.419v31.381h-9.487
			V495.282z"/>
		<path fill="#FFFFFF" d="M259.78,523.753c2.911,1.724,7.871,3.666,12.617,3.666c6.793,0,10.027-3.344,10.027-7.765
			c0-4.529-2.696-6.901-9.598-9.489c-9.489-3.45-13.91-8.52-13.91-14.774c0-8.411,6.901-15.312,18.009-15.312
			c5.283,0,9.92,1.401,12.724,3.236l-2.264,6.901c-2.05-1.294-5.822-3.128-10.676-3.128c-5.607,0-8.625,3.236-8.625,7.118
			c0,4.313,3.018,6.253,9.812,8.948c8.949,3.346,13.695,7.874,13.695,15.636c0,9.275-7.224,15.745-19.409,15.745
			c-5.715,0-11-1.509-14.667-3.666L259.78,523.753z"/>
		<path fill="#FFFFFF" d="M351.008,506.822c0,19.303-13.48,27.713-25.989,27.713c-14.018,0-25.017-10.353-25.017-26.853
			c0-17.358,11.537-27.604,25.881-27.604C340.873,480.078,351.008,490.97,351.008,506.822z M309.708,507.36
			c0,11.43,6.471,20.059,15.743,20.059c9.059,0,15.853-8.519,15.853-20.274c0-8.842-4.421-19.946-15.636-19.946
			C314.561,487.198,309.708,497.549,309.708,507.36z"/>
		<path fill="#FFFFFF" d="M406.651,519.009c0,5.499,0.108,10.242,0.435,14.34h-8.412l-0.539-8.517h-0.216
			c-2.373,4.204-7.98,9.703-17.253,9.703c-8.196,0-18.01-4.636-18.01-22.86v-30.518h9.49v28.791c0,9.921,3.129,16.715,11.646,16.715
			c6.362,0,10.785-4.421,12.509-8.733c0.539-1.296,0.863-3.019,0.863-4.854v-31.918h9.487V519.009z"/>
		<path fill="#FFFFFF" d="M422.399,497.441c0-6.146-0.105-11.43-0.432-16.284h8.304l0.434,10.352h0.321
			c2.374-7.008,8.196-11.431,14.556-11.431c0.972,0,1.729,0.107,2.59,0.219v8.948c-0.969-0.216-1.939-0.216-3.234-0.216
			c-6.686,0-11.43,4.959-12.725,12.078c-0.215,1.295-0.323,2.91-0.323,4.422v27.819h-9.49V497.441z"/>
		<path fill="#FFFFFF" d="M493.788,531.518c-2.481,1.187-7.98,3.018-14.99,3.018c-15.744,0-25.987-10.675-25.987-26.634
			c0-16.067,10.998-27.823,28.035-27.823c5.606,0,10.569,1.401,13.158,2.804l-2.158,7.227c-2.263-1.187-5.822-2.48-11-2.48
			c-11.967,0-18.439,8.95-18.439,19.732c0,12.079,7.765,19.519,18.115,19.519c5.394,0,8.951-1.295,11.646-2.479L493.788,531.518z"/>
		<path fill="#FFFFFF" d="M509.535,508.978c0.216,12.835,8.304,18.115,17.902,18.115c6.789,0,10.996-1.183,14.448-2.692l1.724,6.791
			c-3.342,1.513-9.165,3.344-17.466,3.344c-16.071,0-25.667-10.675-25.667-26.418c0-15.745,9.274-28.039,24.478-28.039
			c17.145,0,21.567,14.882,21.567,24.479c0,1.943-0.107,3.345-0.323,4.421H509.535z M537.354,502.184
			c0.108-5.931-2.479-15.312-13.153-15.312c-9.706,0-13.806,8.736-14.558,15.312H537.354z"/>
		<path fill="#FFFFFF" d="M100.745,553.447c0,3.232-2.266,5.823-6.038,5.823c-3.452,0-5.715-2.591-5.715-5.823
			c0-3.237,2.371-5.934,5.931-5.934C98.372,547.514,100.745,550.102,100.745,553.447z M90.177,620.303v-52.191h9.49v52.191H90.177z"
			/>
		<path fill="#FFFFFF" d="M115.409,582.237c0-5.5-0.107-9.813-0.43-14.126h8.411l0.541,8.626h0.215
			c2.588-4.851,8.628-9.705,17.255-9.705c7.224,0,18.438,4.315,18.438,22.216v31.055h-9.49v-30.085
			c0-8.413-3.126-15.421-12.075-15.421c-6.148,0-11,4.422-12.726,9.705c-0.431,1.187-0.647,2.804-0.647,4.42v31.381h-9.492V582.237z
			"/>
		<path fill="#FFFFFF" d="M185.828,553.447c0,3.232-2.266,5.823-6.038,5.823c-3.45,0-5.715-2.591-5.715-5.823
			c0-3.237,2.373-5.934,5.93-5.934C183.455,547.514,185.828,550.102,185.828,553.447z M175.259,620.303v-52.191h9.492v52.191
			H175.259z"/>
		<path fill="#FFFFFF" d="M211.926,555.602v12.51h13.585v7.224h-13.585v28.146c0,6.469,1.833,10.136,7.114,10.136
			c2.591,0,4.1-0.216,5.502-0.646l0.431,7.225c-1.833,0.646-4.744,1.294-8.411,1.294c-4.421,0-7.981-1.509-10.244-3.989
			c-2.587-2.912-3.667-7.55-3.667-13.694v-28.471h-8.087v-7.224h8.087v-9.705L211.926,555.602z"/>
		<path fill="#FFFFFF" d="M246.756,553.447c0,3.232-2.263,5.823-6.038,5.823c-3.452,0-5.715-2.591-5.715-5.823
			c0-3.237,2.373-5.934,5.93-5.934C244.385,547.514,246.756,550.102,246.756,553.447z M236.189,620.303v-52.191h9.49v52.191H236.189
			z"/>
		<path fill="#FFFFFF" d="M298.085,607.794c0,4.528,0.215,8.95,0.756,12.509h-8.519l-0.756-6.578h-0.323
			c-2.911,4.099-8.519,7.765-15.961,7.765c-10.565,0-15.958-7.442-15.958-14.988c0-12.616,11.214-19.519,31.378-19.41v-1.079
			c0-4.207-1.184-12.079-11.86-11.972c-4.961,0-10.027,1.405-13.695,3.884l-2.157-6.361c4.315-2.696,10.676-4.53,17.255-4.53
			c15.958,0,19.841,10.892,19.841,21.244V607.794z M288.92,593.669c-10.354-0.216-22.105,1.616-22.105,11.753
			c0,6.256,4.097,9.059,8.841,9.059c6.901,0,11.322-4.314,12.832-8.736c0.325-1.076,0.433-2.154,0.433-3.018V593.669z"/>
		<path fill="#FFFFFF" d="M324.399,555.602v12.51h13.588v7.224h-13.588v28.146c0,6.469,1.832,10.136,7.117,10.136
			c2.588,0,4.098-0.216,5.499-0.646l0.431,7.225c-1.832,0.646-4.744,1.294-8.411,1.294c-4.42,0-7.978-1.509-10.242-3.989
			c-2.589-2.912-3.668-7.55-3.668-13.694v-28.471h-8.088v-7.224h8.088v-9.705L324.399,555.602z"/>
		<path fill="#FFFFFF" d="M359.227,553.447c0,3.232-2.262,5.823-6.036,5.823c-3.451,0-5.715-2.591-5.715-5.823
			c0-3.237,2.373-5.934,5.93-5.934C356.859,547.514,359.227,550.102,359.227,553.447z M348.663,620.303v-52.191h9.489v52.191
			H348.663z"/>
		<path fill="#FFFFFF" d="M377.559,568.111l10.248,29.223c1.724,4.854,3.126,9.167,4.205,13.479h0.32
			c1.189-4.312,2.697-8.626,4.423-13.479l10.139-29.223h9.919l-20.488,52.191h-9.06l-19.842-52.191H377.559z"/>
		<path fill="#FFFFFF" d="M429.971,595.933c0.214,12.832,8.302,18.114,17.9,18.114c6.791,0,10.996-1.184,14.447-2.692l1.727,6.791
			c-3.342,1.511-9.165,3.344-17.469,3.344c-16.068,0-25.664-10.676-25.664-26.419c0-15.745,9.272-28.038,24.478-28.038
			c17.145,0,21.565,14.881,21.565,24.479c0,1.942-0.108,3.345-0.321,4.422H429.971z M457.791,589.139
			c0.108-5.932-2.48-15.312-13.155-15.312c-9.706,0-13.803,8.735-14.556,15.312H457.791z"/>
		<path fill-rule="evenodd" clip-rule="evenodd" fill="#FFFFFF" d="M264.696,0.403c66.166-3.911,121.149,21.194,160.014,52.805
			c39.146,31.839,68.416,75.871,80.007,132.011c13.507,65.425-5.109,130.979-31.203,172.016
			c-22.126,34.796-56.636,66.995-99.208,86.407c-7.151,3.26-14.472,7.547-20.002,6.4c-8.464-1.755-14.526-26.244-17.602-34.403
			c-13.396-35.541-22.551-57.915-36.003-93.607c-2.66-7.059-7.013-14.553-5.601-20.002c1.479-5.71,8.847-6.227,13.601-8.801
			c31.193-16.89,46.674-62.175,26.402-96.008c-11.418-19.058-34.585-35.693-65.605-32.803c-31.18,2.905-61.73,29.235-61.605,68.006
			c0.095,29.607,16.986,49.854,37.604,60.806c4.608,2.448,10.868,4.507,12.001,8.801c1.301,4.932-3.556,15.493-5.601,20.802
			c-14.735,38.256-27.907,71.43-43.204,111.21c-2.695,7.009-4.283,14.328-9.601,16.001c-8.445,2.657-26.237-8.957-36.003-14.401
			c-55.264-30.811-95.345-77.695-112.81-145.612c-7.178-27.913-8.731-61.797-4-92.808c8.944-58.634,34.578-101.628,72.006-135.212
			c26.254-23.557,57.833-44.449,100.009-55.205C233.149,3.015,249.536,1.299,264.696,0.403z"/>
	</g>
</g>
</svg>
