<?xml version="1.0" encoding="utf-8"?>
<!-- Generator: Adobe Illustrator 15.1.0, SVG Export Plug-In . SVG Version: 6.00 Build 0)  -->
<!DOCTYPE svg PUBLIC "-//W3C//DTD SVG 1.1//EN" "http://www.w3.org/Graphics/SVG/1.1/DTD/svg11.dtd">
<svg version="1.1" id="Calque_1" xmlns="http://www.w3.org/2000/svg" xmlns:xlink="http://www.w3.org/1999/xlink" x="0px" y="0px"
	 width="95.362px" height="28.212px" viewBox="0 0 95.362 28.212" enable-background="new 0 0 95.362 28.212" xml:space="preserve">
<g>
	<path fill="#FFFFFF" d="M11.713,24.757c-0.835,0.812-1.792,1.176-2.958,1.167c-3.439-0.022-5.603-2.303-6.145-6.393
		c-0.167-1.253,0.203-1.736,1.466-1.718c2.487,0.036,4.977-0.059,7.462,0.01c1.239,0.033,1.549-0.49,1.473-1.604
		c-0.134-1.953-1.727-3.674-3.914-4.125c-3.767-0.775-7.235,1.315-8.649,5.182c-0.007,0.021-0.012,0.043-0.019,0.062
		c-0.012,0.04-0.028,0.1-0.048,0.176c-0.045,0.199-0.076,0.408-0.138,0.602C-0.033,19.503-0.351,22.371,1,24.893
		c2.364,4.081,8.68,4.502,11.496,0.687c0.279-0.378,0.816-0.839,0.37-1.298C12.312,23.712,12.014,24.464,11.713,24.757
		 M3.343,15.506c0.982-1.776,3.453-2.799,5.21-2.108c0.983,0.386,1.558,1.113,1.473,2.162c-0.093,1.151-1.11,0.923-1.842,0.993
		c-0.735,0.071-1.482,0.016-2.224,0.016v0.042c-0.644,0-1.288-0.027-1.93,0.007C3.084,16.668,2.871,16.362,3.343,15.506"/>
	<path fill="#FFFFFF" d="M82.845,16.396c-1.439-4.162-5.818-5.889-10.307-3.942c-1.219,0.528-1.324,0.097-1.312-0.915
		c0.039-3.479-0.07-6.957,0.176-10.431c0.037-0.526,0.293-1.382-0.795-1.022c-1.129,0.374-2.23,0.833-3.336,1.271
		c-0.74,0.291-0.822,0.806-0.152,1.168c1.249,0.672,1.273,1.781,1.273,2.942c0.002,3.431,0.002,6.861,0.002,10.291
		c-0.035,0-0.07,0-0.104,0c0,3.627-0.001,7.254,0.001,10.88c0,0.435-0.006,1.141,0.625,0.702c0.797-0.552,1.408-0.206,2.094,0.019
		c2.141,0.703,4.291,0.758,6.453,0.104C81.956,26.1,84.437,21.001,82.845,16.396 M75.694,26.607
		c-2.154,0.323-3.887-0.835-4.235-2.971c-0.458-2.807-0.206-5.643-0.167-8.467c0.014-0.942,0.587-1.374,1.455-1.604
		c2.898-0.767,5.602,0.618,6.713,3.487c0.418,1.079,0.516,2.217,0.607,3.101C80.036,23.904,78.421,26.195,75.694,26.607"/>
	<path fill="#FFFFFF" d="M65.062,25.916c-1.771,0.401-2.494-0.123-2.564-1.947c-0.056-1.39-0.012-2.783-0.012-3.879
		c0.074-1.488,0.125-2.679,0.195-3.869c0.18-3.007-1.367-4.646-4.363-4.438c-2.5,0.174-4.534,1.381-6.159,3.258
		c-0.281,0.326-0.461,0.771-0.584,1.189c-0.13,0.443,0.062,0.753,0.582,0.828c1.013,0.148,2.304-0.655,2.539-1.611
		c0.396-1.623,1.181-2.264,2.628-2.148c1.396,0.111,2.317,1.014,2.482,2.521c0.076,0.689,0.011,1.392,0.035,2.087
		c0.031,0.919-0.354,1.435-1.267,1.74c-1.739,0.581-3.471,1.22-5.143,1.975c-1.71,0.771-2.249,1.948-1.88,3.601
		c0.351,1.585,1.623,2.603,3.295,2.75c1.385,0.12,2.534-0.445,3.613-1.162c0.798-0.531,1.306-0.504,2.017,0.229
		c1.344,1.384,3.824,1.153,5.051-0.327c0.191-0.229,0.44-0.466,0.213-0.771C65.562,25.702,65.304,25.86,65.062,25.916
		 M59.601,22.865c-0.114,2.236-0.674,3.008-2.431,3.245c-1.244,0.167-2.141-0.339-2.565-1.541c-0.395-1.119,0.064-1.944,1.034-2.499
		c0.558-0.319,1.154-0.585,1.757-0.811C59.615,20.428,59.72,20.511,59.601,22.865"/>
	<path fill="#FFFFFF" d="M40.22,26.058c-1.541,0.41-2.235-0.021-2.484-1.605c-0.249-1.586,0.062-3.172,0.104-4.761
		c0-1.441,0.043-2.884-0.013-4.324c-0.052-1.372-0.583-2.516-1.895-3.151c-2.584-1.253-8.115,1.067-9.042,3.771
		c-0.184,0.537-0.26,0.979,0.426,1.165c0.884,0.239,2.377-0.646,2.59-1.53c0.395-1.641,1.172-2.315,2.583-2.244
		c1.41,0.071,2.398,1.069,2.527,2.642c0.061,0.74-0.027,1.491,0.006,2.235c0.036,0.776-0.328,1.154-1.038,1.408
		c-1.777,0.634-3.557,1.274-5.285,2.028c-1.641,0.716-2.25,1.887-1.991,3.435c0.267,1.597,1.498,2.696,3.155,2.912
		c1.434,0.188,2.647-0.345,3.778-1.093c0.773-0.513,1.272-0.591,2.005,0.19c1.292,1.375,3.872,1.143,5.083-0.285
		c0.201-0.235,0.426-0.488,0.26-0.786C40.779,25.688,40.485,25.989,40.22,26.058 M34.947,21.734
		c-0.026,0.393-0.097,0.781-0.122,0.973c-0.128,2.598-1.143,3.691-3.084,3.519c-1-0.089-1.621-0.63-1.92-1.583
		c-0.289-0.922-0.022-1.674,0.711-2.236c1.042-0.799,2.302-1.126,3.535-1.481C34.716,20.738,34.988,21.117,34.947,21.734"/>
	<path fill="#FFFFFF" d="M48.781,26.492c-1.714-0.027-1.807-1.207-1.806-2.479c0.006-3.727,0.002-7.454,0.002-11.182h0.073
		c0-3.627-0.012-7.254,0.004-10.88c0.008-2.059,0.031-2.051-1.812-1.303c-0.688,0.278-1.395,0.513-2.096,0.762
		c-0.837,0.299-1.14,0.756-0.225,1.284c0.972,0.561,1.151,1.411,1.151,2.397c-0.003,6.362-0.006,12.724,0.001,19.085
		c0.002,1.246-0.171,2.314-1.777,2.342c-0.364,0.008-0.686,0.184-0.644,0.646c0.045,0.504,0.414,0.473,0.771,0.446
		c2.08-0.154,4.161-0.153,6.242-0.018c0.378,0.024,0.717-0.002,0.765-0.471C49.478,26.664,49.152,26.498,48.781,26.492"/>
	<path fill="#FFFFFF" d="M21.073,14.031c1.043,0.021,2.087-0.012,3.131-0.006c0.562,0.004,0.988-0.115,0.955-0.812
		c-0.031-0.646-0.41-0.833-0.991-0.822c-0.744,0.017-1.496-0.052-2.234,0.022c-1.344,0.137-2.276-0.076-1.939-1.767
		c0.067-0.338,0.023-0.723-0.419-0.835c-0.436-0.11-0.63,0.201-0.8,0.513c-0.722,1.317-1.755,2.265-3.203,2.734
		c-0.284,0.093-0.595,0.233-0.562,0.595c0.044,0.5,0.484,0.445,0.803,0.43c1.148-0.061,1.273,0.631,1.252,1.539
		c-0.036,1.49-0.01,2.98-0.01,4.472h0.006c0,1.541-0.02,3.081,0.006,4.62c0.02,1.205,0.412,2.26,1.507,2.902
		c1.646,0.968,4.611,0.56,6.002-0.806c0.232-0.229,0.651-0.437,0.421-0.845c-0.301-0.531-0.661-0.137-1.01,0.011
		c-2.239,0.943-3.789,0.117-3.945-2.325c-0.182-2.82-0.098-5.658-0.149-8.487C19.875,14.322,20.275,14.015,21.073,14.031"/>
	<path fill="#FFFFFF" d="M76.847,6.428h-0.014c-0.289,0.328-0.617,0.525-1.062,0.525c-0.665,0-1.172-0.539-1.172-1.472
		c0-0.952,0.625-1.722,1.559-1.722c0.17,0,0.348,0.039,0.5,0.093c0.143,0.051,0.262,0.104,0.375,0.104
		c0.131,0,0.301-0.132,0.42-0.197v2.97c0,0.98-0.658,1.473-1.531,1.473c-0.789,0-1.15-0.224-1.15-0.52
		c0-0.151,0.125-0.295,0.316-0.295c0.381,0,0.295,0.577,0.906,0.577c0.539,0,0.854-0.309,0.854-1.071V6.428z M76.847,4.661
		c0-0.453-0.275-0.703-0.684-0.703c-0.531,0-0.92,0.493-0.92,1.301c0,0.763,0.375,1.223,0.939,1.223
		c0.309,0,0.547-0.125,0.664-0.354V4.661z"/>
	<path fill="#FFFFFF" d="M79.79,3.761c0.934,0,1.59,0.643,1.59,1.562c0,0.986-0.734,1.695-1.59,1.695
		c-0.934,0-1.59-0.643-1.59-1.563C78.2,4.47,78.937,3.761,79.79,3.761 M79.909,6.822c0.42,0,0.787-0.289,0.787-1.155
		c0-1.137-0.473-1.709-1.023-1.709c-0.422,0-0.789,0.289-0.789,1.156C78.884,6.251,79.356,6.822,79.909,6.822"/>
	<path fill="#FFFFFF" d="M84.022,4.404c0-0.393-0.086-0.486-0.447-0.486V3.799h1.051v2.444c0,0.283,0.059,0.354,0.184,0.354
		s0.236-0.019,0.289-0.025v0.105L84.343,6.92c-0.123,0.04-0.203,0.073-0.242,0.073c-0.066,0-0.078-0.039-0.078-0.132V6.56
		c-0.238,0.224-0.633,0.434-0.992,0.434c-0.48,0-0.875-0.315-0.875-1.039V4.404c0-0.393-0.078-0.486-0.447-0.486V3.799h1.053v2.123
		c0,0.466,0.17,0.676,0.551,0.676c0.289,0,0.598-0.17,0.711-0.288V4.404z"/>
	<path fill="#FFFFFF" d="M86.88,3.799v0.118c-0.289,0-0.383,0.086-0.383,0.198c0,0.079,0.047,0.184,0.139,0.394L87.3,6.086
		l0.645-1.603c0.059-0.146,0.105-0.283,0.105-0.388c0-0.126-0.066-0.179-0.316-0.179V3.799h1.025v0.118
		c-0.184,0.04-0.289,0.112-0.367,0.29l-1.15,2.654c-0.039,0.093-0.072,0.132-0.119,0.132c-0.039,0-0.059-0.039-0.098-0.132
		l-1.104-2.49c-0.158-0.354-0.238-0.434-0.486-0.454V3.799H86.88z"/>
	<path fill="#FFFFFF" d="M89.278,6.218c0.217,0,0.393,0.176,0.393,0.395c0,0.216-0.176,0.393-0.393,0.393s-0.395-0.177-0.395-0.393
		C88.884,6.394,89.062,6.218,89.278,6.218"/>
	<path fill="#FFFFFF" d="M90.487,3.799h0.578v-0.46c0-0.801,0.539-1.144,1.037-1.144c0.441,0,0.711,0.191,0.711,0.479
		c0,0.165-0.113,0.297-0.33,0.297c-0.406,0-0.236-0.578-0.551-0.578c-0.158,0-0.264,0.098-0.264,0.328v1.077h0.775v0.237h-0.775
		v2.312c0,0.395,0.08,0.486,0.828,0.486v0.119h-2.01V6.835c0.498,0,0.578-0.092,0.578-0.486V4.037h-0.578V3.799z"/>
	<path fill="#FFFFFF" d="M93.495,4.509c0-0.283-0.059-0.355-0.184-0.355s-0.236,0.021-0.289,0.027V4.076l0.756-0.243
		c0.125-0.039,0.203-0.071,0.242-0.071c0.066,0,0.08,0.038,0.08,0.131v0.473h0.014c0.15-0.269,0.498-0.604,0.828-0.604
		c0.236,0,0.42,0.163,0.42,0.373c0,0.158-0.119,0.31-0.283,0.31c-0.211,0-0.322-0.249-0.512-0.249c-0.186,0-0.355,0.209-0.467,0.485
		v1.669c0,0.395,0.078,0.486,0.539,0.486v0.119h-1.604V6.835c0.381,0,0.459-0.092,0.459-0.486V4.509z"/>
</g>
</svg>
