<?xml version="1.0" encoding="utf-8"?>
<!-- Generator: Adobe Illustrator 15.1.0, SVG Export Plug-In . SVG Version: 6.00 Build 0)  -->
<!DOCTYPE svg PUBLIC "-//W3C//DTD SVG 1.1//EN" "http://www.w3.org/Graphics/SVG/1.1/DTD/svg11.dtd">
<svg version="1.1" id="Calque_1" xmlns="http://www.w3.org/2000/svg" xmlns:xlink="http://www.w3.org/1999/xlink" x="0px" y="0px"
	 width="134.274px" height="109.068px" viewBox="0 0 134.274 109.068" enable-background="new 0 0 134.274 109.068"
	 xml:space="preserve">
<g>
	<path fill="#5D5DA5" d="M134.274,12.899c-4.92,2.175-10.24,3.692-15.817,4.35c5.698-3.402,10.041-8.814,12.13-15.25
		c-5.328,3.159-11.227,5.447-17.533,6.685C108.051,3.361,100.882,0,92.974,0C77.772,0,65.433,12.33,65.433,27.534
		c0,2.17,0.259,4.257,0.707,6.266C43.232,32.65,22.954,21.713,9.35,5.039C6.97,9.093,5.616,13.847,5.616,18.886
		c0,9.544,4.875,17.985,12.25,22.909c-4.51-0.124-8.728-1.398-12.449-3.449v0.332c0,13.355,9.5,24.499,22.081,27.047
		c-2.302,0.606-4.754,0.938-7.25,0.938c-1.764,0-3.48-0.166-5.199-0.492C18.57,77.112,28.72,85.061,40.778,85.305
		C31.343,92.679,19.461,97.06,6.559,97.06c-2.211,0-4.384-0.124-6.559-0.368c12.216,7.83,26.677,12.376,42.243,12.376
		c50.65,0,78.35-41.961,78.35-78.345l-0.085-3.562C125.917,23.267,130.587,18.436,134.274,12.899L134.274,12.899z M134.274,12.899"
		/>
</g>
</svg>
