<?xml version="1.0" encoding="utf-8"?>
<!-- Generator: Adobe Illustrator 15.1.0, SVG Export Plug-In . SVG Version: 6.00 Build 0)  -->
<!DOCTYPE svg PUBLIC "-//W3C//DTD SVG 1.1//EN" "http://www.w3.org/Graphics/SVG/1.1/DTD/svg11.dtd">
<svg version="1.1" id="Calque_1" xmlns="http://www.w3.org/2000/svg" xmlns:xlink="http://www.w3.org/1999/xlink" x="0px" y="0px"
	 width="441.573px" height="346.068px" viewBox="0 0 441.573 346.068" enable-background="new 0 0 441.573 346.068"
	 xml:space="preserve">
<g id="XMLID_1712_">
	<path id="XMLID_2249_" fill="#FFFFFF" d="M38.719,103.995v81.014H19.044v-81.014H7.857V88.952h11.187V73.904
		c0-14.084,8.494-27.195,26.807-27.195h12.345v16.781h-8.669c-7.335,0-10.807,4.241-10.807,11.382v14.079h19.476v15.042H38.719z"/>
	<path id="XMLID_2245_" fill="#FFFFFF" d="M79.762,144.211V46.414h19.663v97.797H79.762z"/>
	<path id="XMLID_2241_" fill="#FFFFFF" d="M156.686,185.009c-18.883,0-27.056-12.655-27.056-27.257V46.402h19.859v110.186
		c0,7.594,2.729,11.486,10.699,11.486h8.769v16.935H156.686z"/>
	<path id="XMLID_2237_" fill="#FFFFFF" d="M309.45,185.009v-59.602c0-15.24-8.685-21.792-19.683-21.792
		c-10.616,0-20.265,6.742-20.265,20.827v60.567H249.84v-59.602c0-15.24-8.678-21.792-19.672-21.792
		c-10.998,0-20.267,6.742-20.267,21.792v59.602h-19.665V87.216h19.289v9.839c6.552-7.137,16.211-10.999,26.04-10.999
		c12.159,0,21.595,4.829,27.771,14.274c7.911-9.644,17.747-14.274,30.68-14.274c10.028,0,18.907,3.278,24.686,8.87
		c7.523,7.335,10.414,16.594,10.414,27.592v62.49H309.45z"/>
	<path id="XMLID_2233_" fill="#FFFFFF" d="M391.122,186.165c-16.005,0-29.515-2.693-41.086-14.082l12.922-12.918
		c7.901,8.098,18.521,10.217,28.164,10.217c11.953,0,21.404-4.243,21.404-13.5c0-6.555-3.657-10.798-13.107-11.577l-15.631-1.345
		c-18.314-1.542-28.931-9.838-28.931-27.001c0-19.1,16.393-29.903,36.848-29.903c14.659,0,27.187,3.086,36.266,10.999
		l-12.345,12.534c-6.177-5.208-14.86-7.14-24.127-7.14c-11.763,0-17.729,5.207-17.729,12.544c0,5.786,3.072,10.225,13.485,11.183
		l15.444,1.348c18.312,1.544,29.12,10.226,29.12,27.593C431.82,175.552,414.458,186.165,391.122,186.165z"/>
	<g id="XMLID_2209_">
		<path id="XMLID_2228_" fill="#FFFFFF" d="M58.081,274.55c-2.955,2.965-7.717,4.762-13.111,4.762
			c-5.823,0-10.153-1.479-14.175-6.348v5.713H20.217V203.36H31v27.083c3.92-4.656,8.362-6.034,14.075-6.034
			c5.393,0,10.05,1.799,13.005,4.766c5.399,5.387,6.039,14.49,6.039,22.634S63.479,269.154,58.081,274.55z M42.214,234.039
			c-9.731,0-11.213,8.247-11.213,17.771c0,9.522,1.482,17.876,11.213,17.876c9.735,0,11.112-8.354,11.112-17.876
			C53.326,242.286,51.949,234.039,42.214,234.039z"/>
		<path id="XMLID_2226_" fill="#FFFFFF" d="M108.265,237.634c-2.431-2.433-4.335-3.596-8.04-3.596
			c-5.821,0-10.692,4.65-10.692,12.056v32.583H78.752v-53.635h10.575v5.82c2.752-3.806,8.251-6.453,14.283-6.453
			c5.183,0,9.093,1.378,12.801,5.075L108.265,237.634z"/>
		<path id="XMLID_2223_" fill="#FFFFFF" d="M129.733,254.98c0,9.207,4.864,15.02,13.645,15.02c6.027,0,9.21-1.686,13.014-5.494
			l6.874,6.449c-5.505,5.504-10.678,8.357-20.096,8.357c-13.437,0-24.124-7.086-24.124-27.503c0-17.351,8.99-27.399,22.745-27.399
			c14.384,0,22.741,10.582,22.741,25.812v4.758H129.733z M152.371,240.168c-1.689-4.019-5.507-6.771-10.58-6.771
			c-5.082,0-8.993,2.753-10.68,6.771c-1.061,2.437-1.275,4.024-1.378,7.3h24.115C153.749,244.193,153.425,242.605,152.371,240.168z"
			/>
		<path id="XMLID_2221_" fill="#FFFFFF" d="M194.815,278.677c-10.044,0-14.705-7.195-14.705-14.912V234.25h-6.125v-8.251h6.125
			v-16.292h10.793v16.292h10.364v8.251h-10.364v28.984c0,3.916,1.902,6.238,5.929,6.238h4.436v9.205H194.815z"/>
		<path id="XMLID_2218_" fill="#FFFFFF" d="M243.375,278.677v-4.869c-3.915,3.914-7.619,5.504-14.281,5.504
			c-6.665,0-11.108-1.59-14.389-4.861c-2.751-2.861-4.229-6.988-4.229-11.533c0-8.998,6.245-15.449,18.507-15.449h14.175v-3.803
			c0-6.773-3.382-10.053-11.738-10.053c-5.923,0-8.784,1.379-11.739,5.187l-7.087-6.667c5.075-5.924,10.362-7.723,19.25-7.723
			c14.703,0,22.108,6.244,22.108,18.406v35.861H243.375z M243.157,254.98h-12.581c-6.348,0-9.627,2.855-9.627,7.723
			s3.064,7.619,9.831,7.619c4.127,0,7.194-0.322,10.056-3.072c1.582-1.586,2.321-4.123,2.321-7.932V254.98z"/>
		<path id="XMLID_2215_" fill="#FFFFFF" d="M288.576,300.998c-8.146,0-13.333-1.904-18.939-7.088l6.885-6.879
			c3.383,3.174,6.334,4.764,11.625,4.764c9.104,0,12.588-6.453,12.588-13.645v-6.877c-3.906,4.652-8.348,6.135-13.857,6.135
			c-5.389,0-9.832-1.803-12.793-4.76c-5.187-5.186-6.031-12.695-6.031-21.793c0-9.096,0.845-16.605,6.031-21.791
			c2.961-2.964,7.508-4.654,12.901-4.654c5.715,0,10.049,1.478,14.072,6.35v-5.717h10.472v53.316
			C311.529,291.478,302.855,300.998,288.576,300.998z M289.846,234.039c-9.736,0-11,8.355-11,16.816c0,8.463,1.264,16.818,11,16.818
			c9.728,0,10.889-8.355,10.889-16.818C300.734,242.394,299.573,234.039,289.846,234.039z"/>
		<path id="XMLID_2213_" fill="#FFFFFF" d="M361.389,278.677v-32.689c0-8.354-4.765-11.949-10.801-11.949
			c-6.025,0-11.106,3.697-11.106,11.949v32.689h-10.783v-53.635h10.573v5.401c3.706-4.024,8.893-6.034,14.281-6.034
			c5.495,0,10.054,1.799,13.221,4.864c4.128,4.023,5.395,9.102,5.395,15.132v34.271H361.389z"/>
		<path id="XMLID_2210_" fill="#FFFFFF" d="M396.749,254.98c0,9.207,4.869,15.02,13.646,15.02c6.027,0,9.21-1.686,13.014-5.494
			l6.871,6.449c-5.504,5.504-10.675,8.357-20.091,8.357c-13.44,0-24.13-7.086-24.13-27.503c0-17.351,8.993-27.399,22.749-27.399
			c14.381,0,22.741,10.582,22.741,25.812v4.758H396.749z M419.381,240.168c-1.684-4.019-5.497-6.771-10.572-6.771
			c-5.081,0-8.995,2.753-10.682,6.771c-1.055,2.437-1.278,4.024-1.378,7.3h24.119C420.766,244.193,420.444,242.605,419.381,240.168z
			"/>
	</g>
	<path id="XMLID_2208_" fill="#FFFFFF" d="M82.409,11.087c-4.693,3.96-5.296,10.981-1.339,15.68
		c3.959,4.697,10.982,5.3,15.681,1.342c4.697-3.96,5.299-10.982,1.337-15.684C94.131,7.727,87.111,7.127,82.409,11.087z"/>
	<g id="XMLID_2202_">
		<path id="XMLID_2205_" fill="#FFFFFF" d="M56.389,189.882c0,6.607,3.492,10.779,9.796,10.779c4.327,0,6.611-1.208,9.339-3.942
			l4.937,4.629c-3.952,3.944-7.665,5.995-14.428,5.995c-9.644,0-17.318-5.085-17.318-19.745c0-12.443,6.451-19.668,16.329-19.668
			c10.326,0,16.324,7.602,16.324,18.534v3.418H56.389z M72.634,179.249c-1.209-2.884-3.951-4.859-7.591-4.859
			c-3.646,0-6.454,1.975-7.671,4.859c-0.756,1.751-0.91,2.89-0.983,5.239h17.313C73.626,182.139,73.4,181,72.634,179.249z"/>
		<path id="XMLID_2203_" fill="#FFFFFF" d="M115.109,206.89v-23.461c0-6.002-3.422-8.579-7.748-8.579
			c-4.329,0-7.976,2.656-7.976,8.579v23.461h-7.741v-38.497h7.589v3.874c2.659-2.889,6.383-4.337,10.256-4.337
			c3.949,0,7.215,1.3,9.487,3.498c2.964,2.889,3.871,6.532,3.871,10.861v24.601H115.109z"/>
	</g>
	<g id="XMLID_1713_">
		<path id="XMLID_2200_" fill="#FFFFFF" d="M27.526,333.634c-4.398,0-7.895-2.982-7.895-7.529v-14.1h4.187v13.947
			c0,2.471,1.447,3.945,3.708,3.945c2.259,0,3.734-1.475,3.734-3.945v-13.947h4.159v14.1
			C35.419,330.652,31.926,333.634,27.526,333.634z"/>
		<path id="XMLID_2198_" fill="#FFFFFF" d="M52.779,333.455l-8.495-13.162v13.162h-4.189v-21.449h3.736l8.496,13.137v-13.137h4.187
			v21.449H52.779z"/>
		<path id="XMLID_2196_" fill="#FFFFFF" d="M61.521,333.455v-21.449h4.187v21.449H61.521z"/>
		<path id="XMLID_2193_" fill="#FFFFFF" d="M83.695,331.291c-1.504,1.504-3.343,2.344-5.784,2.344c-2.439,0-4.307-0.84-5.814-2.344
			c-2.167-2.174-2.11-4.857-2.11-8.561c0-3.705-0.057-6.387,2.11-8.553c1.508-1.51,3.375-2.354,5.814-2.354
			c2.441,0,4.28,0.844,5.784,2.354c2.169,2.166,2.141,4.848,2.141,8.553C85.836,326.433,85.865,329.117,83.695,331.291z
			 M80.592,316.705c-0.603-0.693-1.535-1.146-2.681-1.146c-1.145,0-2.107,0.453-2.709,1.146c-0.814,0.906-1.025,1.9-1.025,6.025
			c0,4.129,0.211,5.119,1.025,6.025c0.603,0.693,1.565,1.143,2.709,1.143c1.146,0,2.078-0.449,2.681-1.143
			c0.815-0.906,1.057-1.896,1.057-6.025C81.649,318.605,81.408,317.611,80.592,316.705z"/>
		<path id="XMLID_1885_" fill="#FFFFFF" d="M102.803,333.455l-8.499-13.162v13.162h-4.186v-21.449h3.734l8.498,13.137v-13.137h4.188
			v21.449H102.803z"/>
		<path id="XMLID_1832_" fill="#FFFFFF" d="M131.943,331.408c-1.415,1.416-3.435,2.047-5.663,2.047h-7.742v-21.449h7.742
			c2.229,0,4.248,0.635,5.663,2.047c2.411,2.412,2.169,5.361,2.169,8.588C134.112,325.865,134.354,328.996,131.943,331.408z
			 M129.022,317.066c-0.723-0.875-1.688-1.326-3.134-1.326h-3.163v13.98h3.163c1.445,0,2.411-0.453,3.134-1.324
			c0.783-0.965,0.901-2.504,0.901-5.756C129.924,319.386,129.806,318.033,129.022,317.066z"/>
		<path id="XMLID_1820_" fill="#FFFFFF" d="M138.396,333.455v-21.449h14.131v3.734h-9.942v5.033h8.467v3.732h-8.467v5.215h9.942
			v3.734H138.396z"/>
		<path id="XMLID_1813_" fill="#FFFFFF" d="M162.531,333.634c-3.251,0-5.722-0.691-7.83-2.832l2.708-2.709
			c1.359,1.355,3.196,1.805,5.185,1.805c2.469,0,3.797-0.932,3.797-2.648c0-0.754-0.212-1.385-0.663-1.811
			c-0.424-0.393-0.903-0.602-1.899-0.75l-2.59-0.361c-1.839-0.27-3.194-0.844-4.158-1.779c-1.024-1.025-1.538-2.408-1.538-4.217
			c0-3.828,2.835-6.508,7.474-6.508c2.953,0,5.091,0.723,6.93,2.504l-2.651,2.617c-1.357-1.297-2.984-1.473-4.399-1.473
			c-2.23,0-3.312,1.232-3.312,2.709c0,0.539,0.181,1.115,0.632,1.537c0.422,0.393,1.112,0.723,1.987,0.842l2.532,0.363
			c1.958,0.27,3.194,0.811,4.097,1.656c1.144,1.084,1.656,2.652,1.656,4.547C170.486,331.291,167.021,333.634,162.531,333.634z"/>
		<path id="XMLID_1810_" fill="#FFFFFF" d="M189.745,325.382h-4.124v8.072h-4.19v-21.449h8.314c4.43,0,7.081,3.041,7.081,6.688
			S194.175,325.382,189.745,325.382z M189.534,315.74h-3.913v5.873h3.913c1.897,0,3.103-1.172,3.103-2.92
			S191.432,315.74,189.534,315.74z"/>
		<path id="XMLID_1807_" fill="#FFFFFF" d="M211.742,333.455l-4.186-8.559h-3.016v8.559h-4.184v-21.449h8.404
			c4.364,0,6.958,2.98,6.958,6.566c0,3.012-1.837,4.881-3.915,5.637l4.789,9.246H211.742z M208.49,315.74h-3.949v5.668h3.949
			c1.835,0,3.041-1.178,3.041-2.836C211.531,316.916,210.325,315.74,208.49,315.74z"/>
		<path id="XMLID_1804_" fill="#FFFFFF" d="M233.048,331.291c-1.506,1.504-3.346,2.344-5.786,2.344c-2.438,0-4.307-0.84-5.812-2.344
			c-2.168-2.174-2.106-4.857-2.106-8.561c0-3.705-0.062-6.387,2.106-8.553c1.506-1.51,3.375-2.354,5.812-2.354
			c2.44,0,4.28,0.844,5.786,2.354c2.17,2.166,2.14,4.848,2.14,8.553C235.188,326.433,235.218,329.117,233.048,331.291z
			 M229.943,316.705c-0.602-0.693-1.535-1.146-2.682-1.146c-1.143,0-2.106,0.453-2.709,1.146c-0.814,0.906-1.023,1.9-1.023,6.025
			c0,4.129,0.209,5.119,1.023,6.025c0.603,0.693,1.566,1.143,2.709,1.143c1.146,0,2.08-0.449,2.682-1.143
			c0.815-0.906,1.055-1.896,1.055-6.025C230.998,318.605,230.759,317.611,229.943,316.705z"/>
		<path id="XMLID_1802_" fill="#FFFFFF" d="M243.657,315.74v5.27h8.467v3.74h-8.467v8.705h-4.19v-21.449h14.131v3.734H243.657z"/>
		<path id="XMLID_1739_" fill="#FFFFFF" d="M257.251,333.455v-21.449h14.13v3.734h-9.946v5.033h8.469v3.732h-8.469v5.215h9.946
			v3.734H257.251z"/>
		<path id="XMLID_1737_" fill="#FFFFFF" d="M281.387,333.634c-3.251,0-5.723-0.691-7.833-2.832l2.711-2.709
			c1.359,1.355,3.194,1.805,5.184,1.805c2.466,0,3.795-0.932,3.795-2.648c0-0.754-0.213-1.385-0.663-1.811
			c-0.421-0.393-0.902-0.602-1.899-0.75l-2.59-0.361c-1.837-0.27-3.194-0.844-4.155-1.779c-1.024-1.025-1.538-2.408-1.538-4.217
			c0-3.828,2.835-6.508,7.471-6.508c2.956,0,5.094,0.723,6.931,2.504l-2.65,2.617c-1.357-1.297-2.983-1.473-4.4-1.473
			c-2.229,0-3.315,1.232-3.315,2.709c0,0.539,0.181,1.115,0.635,1.537c0.422,0.393,1.114,0.723,1.989,0.842l2.532,0.363
			c1.955,0.27,3.19,0.811,4.092,1.656c1.148,1.084,1.658,2.652,1.658,4.547C289.339,331.291,285.876,333.634,281.387,333.634z"/>
		<path id="XMLID_1735_" fill="#FFFFFF" d="M299.011,333.634c-3.251,0-5.718-0.691-7.828-2.832l2.715-2.709
			c1.351,1.355,3.188,1.805,5.175,1.805c2.47,0,3.793-0.932,3.793-2.648c0-0.754-0.206-1.385-0.658-1.811
			c-0.422-0.393-0.905-0.602-1.899-0.75l-2.59-0.361c-1.839-0.27-3.192-0.844-4.161-1.779c-1.021-1.025-1.533-2.408-1.533-4.217
			c0-3.828,2.833-6.508,7.469-6.508c2.954,0,5.096,0.723,6.936,2.504l-2.65,2.617c-1.362-1.297-2.99-1.473-4.403-1.473
			c-2.226,0-3.312,1.232-3.312,2.709c0,0.539,0.179,1.115,0.632,1.537c0.422,0.393,1.112,0.723,1.988,0.842l2.529,0.363
			c1.962,0.27,3.194,0.811,4.1,1.656c1.145,1.084,1.657,2.652,1.657,4.547C306.968,331.291,303.504,333.634,299.011,333.634z"/>
		<path id="XMLID_1733_" fill="#FFFFFF" d="M310.915,333.455v-21.449h4.19v21.449H310.915z"/>
		<path id="XMLID_1730_" fill="#FFFFFF" d="M333.093,331.291c-1.506,1.504-3.343,2.344-5.782,2.344c-2.44,0-4.311-0.84-5.814-2.344
			c-2.168-2.174-2.109-4.857-2.109-8.561c0-3.705-0.059-6.387,2.109-8.553c1.504-1.51,3.374-2.354,5.814-2.354
			c2.439,0,4.276,0.844,5.782,2.354c2.174,2.166,2.141,4.848,2.141,8.553C335.233,326.433,335.267,329.117,333.093,331.291z
			 M329.988,316.705c-0.6-0.693-1.535-1.146-2.678-1.146c-1.146,0-2.107,0.453-2.712,1.146c-0.812,0.906-1.024,1.9-1.024,6.025
			c0,4.129,0.213,5.119,1.024,6.025c0.604,0.693,1.565,1.143,2.712,1.143c1.143,0,2.078-0.449,2.678-1.143
			c0.814-0.906,1.055-1.896,1.055-6.025C331.043,318.605,330.803,317.611,329.988,316.705z"/>
		<path id="XMLID_1728_" fill="#FFFFFF" d="M352.199,333.455l-8.496-13.162v13.162h-4.188v-21.449h3.736l8.499,13.137v-13.137h4.186
			v21.449H352.199z"/>
		<path id="XMLID_1720_" fill="#FFFFFF" d="M373.625,333.455l-8.492-13.162v13.162h-4.19v-21.449h3.736l8.494,13.137v-13.137h4.19
			v21.449H373.625z"/>
		<path id="XMLID_1718_" fill="#FFFFFF" d="M382.368,333.455v-21.449h14.133v3.734h-9.943v5.033h8.465v3.732h-8.465v5.215h9.943
			v3.734H382.368z"/>
		<path id="XMLID_1716_" fill="#FFFFFF" d="M400.601,333.455v-21.449h4.193v17.715h9.729v3.734H400.601z"/>
		<path id="XMLID_1714_" fill="#FFFFFF" d="M423.833,333.634c-3.25,0-5.722-0.691-7.832-2.832l2.715-2.709
			c1.354,1.355,3.194,1.805,5.18,1.805c2.468,0,3.795-0.932,3.795-2.648c0-0.754-0.211-1.385-0.663-1.811
			c-0.421-0.393-0.903-0.602-1.897-0.75l-2.592-0.361c-1.837-0.27-3.194-0.844-4.156-1.779c-1.023-1.025-1.533-2.408-1.533-4.217
			c0-3.828,2.831-6.508,7.469-6.508c2.954,0,5.092,0.723,6.933,2.504l-2.654,2.617c-1.355-1.297-2.981-1.473-4.403-1.473
			c-2.225,0-3.312,1.232-3.312,2.709c0,0.539,0.183,1.115,0.639,1.537c0.419,0.393,1.11,0.723,1.988,0.842l2.526,0.363
			c1.958,0.27,3.193,0.811,4.099,1.656c1.142,1.084,1.658,2.652,1.658,4.547C431.79,331.291,428.324,333.634,423.833,333.634z"/>
	</g>
</g>
</svg>
