<?xml version="1.0" encoding="utf-8"?>
<!-- Generator: Adobe Illustrator 15.1.0, SVG Export Plug-In . SVG Version: 6.00 Build 0)  -->
<!DOCTYPE svg PUBLIC "-//W3C//DTD SVG 1.1//EN" "http://www.w3.org/Graphics/SVG/1.1/DTD/svg11.dtd">
<svg version="1.1" id="Calque_1" xmlns="http://www.w3.org/2000/svg" xmlns:xlink="http://www.w3.org/1999/xlink" x="0px" y="0px"
	 width="126.25px" height="233.52px" viewBox="0 0 126.25 233.52" enable-background="new 0 0 126.25 233.52" xml:space="preserve">
<path fill="#5D5DA5" d="M121.502,0.058L91.219,0c-34.02,0-56.014,22.569-56.014,57.486v26.49H4.76c-2.627,0-4.76,2.127-4.76,4.748
	v38.401c0,2.622,2.133,4.771,4.76,4.771h30.445v96.864c0,2.633,2.132,4.76,4.771,4.76h39.712c2.645,0,4.771-2.127,4.771-4.76
	v-96.864h35.595c2.633,0,4.749-2.149,4.749-4.771l0.033-38.401c0-1.241-0.517-2.46-1.391-3.368c-0.896-0.874-2.115-1.38-3.381-1.38
	H84.459V61.51c0-10.784,2.574-16.269,16.625-16.269l20.406-0.011c2.633,0,4.76-2.138,4.76-4.76V4.829
	C126.25,2.185,124.123,0.069,121.502,0.058L121.502,0.058z"/>
</svg>
