<?xml version="1.0" encoding="utf-8"?>
<!-- Generator: Adobe Illustrator 15.1.0, SVG Export Plug-In . SVG Version: 6.00 Build 0)  -->
<!DOCTYPE svg PUBLIC "-//W3C//DTD SVG 1.1//EN" "http://www.w3.org/Graphics/SVG/1.1/DTD/svg11.dtd">
<svg version="1.1" id="Calque_1" xmlns="http://www.w3.org/2000/svg" xmlns:xlink="http://www.w3.org/1999/xlink" x="0px" y="0px"
	 width="143.6px" height="44.663px" viewBox="0 0 143.6 44.663" enable-background="new 0 0 143.6 44.663" xml:space="preserve">
<g>
	<path fill="#FFFFFF" d="M50.358,25.349v-8.112v-0.341h4.739c0.898-0.006,1.556,0.29,1.931,0.816
		c0.375,0.521,0.469,1.179,0.471,1.876c-0.002,0.354,0.006,1.006-0.307,1.613c-0.305,0.618-1.004,1.134-2.141,1.121h-3.035v3.026
		H50.358z M52.016,20.865h2.193h0.055c0.473,0.002,0.844-0.006,1.074-0.068c0.23-0.076,0.307-0.131,0.404-0.352
		c0.057-0.152,0.098-0.394,0.098-0.742c0.006-0.733-0.097-1.074-0.206-1.17c-0.088-0.107-0.365-0.186-0.963-0.181h-2.656V20.865z"/>
	<path fill="#FFFFFF" d="M66.142,16.835c1.102,0.013,1.896,0.171,2.441,0.675c0.541,0.513,0.705,1.274,0.705,2.276v2.767
		c0.002,0.953-0.191,1.701-0.74,2.198c-0.549,0.488-1.342,0.658-2.408,0.659h-1.166c-1.064-0.001-1.859-0.171-2.408-0.659
		c-0.549-0.497-0.742-1.245-0.74-2.198v-2.767c0-1.002,0.164-1.764,0.705-2.276c0.543-0.504,1.338-0.662,2.443-0.675h1.166
		 M64.974,18.291c-0.707-0.004-1.074,0.098-1.223,0.254c-0.158,0.144-0.271,0.502-0.268,1.241v2.767
		c0.002,0.742,0.141,1.049,0.314,1.181c0.172,0.149,0.557,0.221,1.176,0.221h1.16c0.625,0,1.012-0.071,1.184-0.221
		c0.172-0.132,0.312-0.438,0.312-1.181v-2.767c0.004-0.739-0.109-1.098-0.27-1.241c-0.146-0.156-0.514-0.258-1.221-0.254H64.974"/>
	<polygon fill="#FFFFFF" points="74.503,25.349 74.503,16.896 76.163,16.896 76.163,23.891 80.562,23.891 80.562,25.349 	"/>
	<polygon fill="#FFFFFF" points="86.872,25.348 86.872,21.872 83.392,16.896 85.36,16.896 87.741,20.282 90.122,16.896 
		92.128,16.896 88.532,21.875 88.532,25.348 	"/>
	<polygon fill="#FFFFFF" points="98.505,25.348 98.505,18.353 95.704,18.353 95.704,16.896 102.96,16.896 102.96,18.353 
		100.163,18.353 100.163,25.008 100.163,25.348 	"/>
	<polygon fill="#FFFFFF" points="107.595,25.349 107.595,16.896 113.825,16.896 113.825,18.353 109.253,18.353 109.253,20.316 
		113.632,20.316 113.632,21.722 109.253,21.721 109.253,23.891 113.825,23.891 113.825,25.349 	"/>
	<path fill="#FFFFFF" d="M121.763,25.41h-0.004c-0.85,0-1.57-0.244-2.078-0.736c-0.512-0.49-0.771-1.205-0.766-2.048v-3.007
		c-0.016-1.169,0.441-1.963,1.195-2.348c0.744-0.385,1.684-0.433,2.748-0.437h0.807c0.939,0,1.635,0.18,2.1,0.645
		c0.459,0.468,0.6,1.133,0.6,1.935v0.587h-1.658v-0.339v-0.219c0.004-0.525-0.076-0.806-0.193-0.922
		c-0.107-0.122-0.379-0.232-0.988-0.231h-0.551c-0.752-0.001-1.309,0.034-1.674,0.134c-0.363,0.104-0.506,0.225-0.611,0.45
		c-0.074,0.154-0.117,0.388-0.117,0.714v2.135c0,0.66,0.016,1.172,0.102,1.509c0.098,0.343,0.199,0.479,0.451,0.598
		c0.174,0.076,0.443,0.125,0.822,0.125h1.164c0.576,0,0.99-0.032,1.24-0.106c0.252-0.086,0.32-0.153,0.396-0.315
		c0.043-0.112,0.076-0.29,0.072-0.544v-0.963h1.66v1.066c0.016,0.962-0.387,1.645-1.035,1.961c-0.635,0.318-1.424,0.354-2.299,0.357
		H121.763"/>
	<polygon fill="#FFFFFF" points="137.499,25.349 137.499,21.773 133.122,21.773 133.122,25.349 131.464,25.349 131.464,16.896 
		133.122,16.896 133.122,20.316 137.499,20.316 137.499,16.896 139.159,16.896 139.159,25.349 	"/>
	<path fill="#FFFFFF" d="M142.456,15.798c0.604,0,1.145,0.436,1.145,1.114c0,0.676-0.541,1.113-1.145,1.113
		c-0.605,0-1.145-0.438-1.145-1.113C141.312,16.233,141.851,15.798,142.456,15.798 M142.456,17.789c0.461,0,0.838-0.369,0.838-0.877
		c0-0.51-0.377-0.877-0.838-0.877c-0.471,0-0.842,0.367-0.842,0.877C141.614,17.42,141.985,17.789,142.456,17.789 M143.04,17.098
		c-0.049,0.298-0.277,0.471-0.543,0.471c-0.387,0-0.639-0.289-0.639-0.662c0-0.385,0.238-0.667,0.633-0.667
		c0.271,0,0.5,0.16,0.539,0.462h-0.23c-0.031-0.141-0.154-0.225-0.309-0.225c-0.225,0-0.35,0.18-0.35,0.424
		c0,0.231,0.137,0.43,0.355,0.43c0.164,0,0.285-0.089,0.303-0.232H143.04z"/>
	<path fill="#FFFFFF" d="M20.71,0C10.468,0.001,1.934,7.285,0,16.955h8.642c0.637-1.845,1.685-3.497,3.041-4.857
		c2.326-2.317,5.489-3.738,9.027-3.739c3.539,0.001,6.704,1.422,9.028,3.739c2.317,2.321,3.737,5.486,3.739,9.026
		c-0.002,3.541-1.422,6.704-3.739,9.028c-2.324,2.316-5.489,3.738-9.028,3.74c-3.538-0.002-6.702-1.424-9.027-3.74
		c-1.345-1.35-2.385-2.984-3.023-4.807H0.015v10.766c0,9.078,7.86,8.545,7.86,8.545l0.004-6.752
		c3.557,2.725,8.004,4.346,12.831,4.346c11.67-0.002,21.123-9.455,21.126-21.125C41.833,9.455,32.38,0.002,20.71,0"/>
	<path fill="#FFFFFF" d="M55.929,35.917h-1.618l-2.213-3.859c-0.104-0.189-0.199-0.379-0.561-1.078l-0.072-0.143l-0.199-0.396
		h-0.039c0.02,0.436,0.01,0.254,0.02,0.549c0.01,0.217,0.01,0.359,0.01,0.766v4.162h-0.955v-6.309h1.607l1.957,3.471
		c0.229,0.396,0.379,0.682,1.088,2.016h0.029V34.99c-0.012-0.283,0-0.15-0.012-0.436c-0.008-0.227-0.008-0.367-0.008-0.756v-4.189
		h0.965V35.917z"/>
	<path fill="#FFFFFF" d="M59.05,34.65l-0.436,1.268h-1.021l2.205-6.309h1.41l2.23,6.309h-1.002l-0.443-1.268H59.05z M60.517,30.365
		l-1.219,3.547h2.457L60.517,30.365z"/>
	<path fill="#FFFFFF" d="M70.798,35.917h-1.615l-2.215-3.859c-0.104-0.189-0.197-0.379-0.559-1.078l-0.074-0.143l-0.199-0.396
		h-0.037c0.02,0.436,0.01,0.254,0.02,0.549c0.008,0.217,0.008,0.359,0.008,0.766v4.162h-0.955v-6.309h1.609l1.957,3.471
		c0.225,0.396,0.379,0.682,1.088,2.016h0.029V34.99c-0.012-0.283,0-0.15-0.012-0.436c-0.008-0.227-0.008-0.367-0.008-0.756v-4.189
		h0.963V35.917z"/>
	<polygon fill="#FFFFFF" points="75.444,35.917 74.479,35.917 74.479,30.478 72.55,30.478 72.55,29.609 77.403,29.609 
		77.403,30.478 75.444,30.478 	"/>
	<polygon fill="#FFFFFF" points="79.938,32.304 83.013,32.304 83.013,33.052 79.938,33.052 79.938,35.105 83.173,35.105 
		83.173,35.917 78.974,35.917 78.974,29.609 83.155,29.609 83.155,30.421 79.938,30.421 	"/>
	<path fill="#FFFFFF" d="M88.772,31.386c0-0.898-0.17-1.041-1.295-1.041c-1.305,0-1.561,0.152-1.561,0.938
		c0,0.568,0.123,0.803,0.463,0.908c0.174,0.055,0.266,0.066,1.221,0.113c1.145,0.057,1.504,0.133,1.797,0.367
		c0.32,0.266,0.457,0.645,0.457,1.355c0,0.783-0.098,1.199-0.361,1.465c-0.361,0.377-0.824,0.482-2.195,0.482
		c-0.832,0-1.193-0.037-1.494-0.143c-0.502-0.18-0.758-0.529-0.842-1.152c-0.029-0.209-0.029-0.256-0.039-0.738h0.947v0.141
		c0,0.549,0.086,0.814,0.322,0.955c0.168,0.115,0.377,0.133,1.246,0.133c1.287,0,1.457-0.133,1.457-1.115
		c0-0.492-0.105-0.709-0.389-0.814c-0.104-0.037-0.301-0.066-0.547-0.074l-0.238-0.018l-0.225-0.01l-0.238-0.02
		c-0.783-0.039-0.85-0.049-1.049-0.078c-0.891-0.139-1.258-0.623-1.258-1.627c0-1.502,0.463-1.861,2.422-1.861
		c1.02,0,1.445,0.066,1.797,0.293c0.367,0.236,0.547,0.672,0.547,1.342v0.199H88.772z"/>
</g>
</svg>
