<?xml version="1.0" encoding="utf-8"?>
<!-- Generator: Adobe Illustrator 15.1.0, SVG Export Plug-In . SVG Version: 6.00 Build 0)  -->
<!DOCTYPE svg PUBLIC "-//W3C//DTD SVG 1.1//EN" "http://www.w3.org/Graphics/SVG/1.1/DTD/svg11.dtd">
<svg version="1.1" id="Calque_1" xmlns="http://www.w3.org/2000/svg" xmlns:xlink="http://www.w3.org/1999/xlink" x="0px" y="0px"
	 width="433.882px" height="102.452px" viewBox="0 0 433.882 102.452" enable-background="new 0 0 433.882 102.452"
	 xml:space="preserve">
<g>
	<g>
		<g>
			<path fill-rule="evenodd" clip-rule="evenodd" fill="#FFFFFF" d="M193.485,0.51c3.794-0.468,9.465,1.565,10.471,5.778
				c3.245,13.635-18.555,14.631-18.773,2.886C185.099,4.625,188.008,1.18,193.485,0.51z M188.432,8.81
				c0,7.622,12.302,7.529,12.637,0.364c0.191-4.15-3.353-6.295-7.222-5.775C190.395,3.855,188.432,5.36,188.432,8.81z"/>
			<path fill-rule="evenodd" clip-rule="evenodd" fill="#FFFFFF" d="M162.801,0.51c0,0.96,0,1.926,0,2.889
				c-6.488-0.522-12.274,0.049-12.274,5.411c0,3.458,2.986,6.161,8.664,5.417c0.826-0.619,0.133-2.758,0.363-3.975
				c-0.743-1.062-3.954,0.347-4.695-0.722c0-0.476,0-0.958,0-1.442c1.256-1.63,5.498-0.279,7.942-0.72c0,3.248,0,6.495,0,9.748
				c-7.705,0.539-13.924-0.574-15.162-5.778C145.646,2.975,153.162-0.771,162.801,0.51z"/>
			<path fill-rule="evenodd" clip-rule="evenodd" fill="#FFFFFF" d="M168.578,0.51c10.22-2.511,17.765,4.76,11.188,10.828
				c1.25,1.395,1.944,3.351,2.527,5.417c-0.383,0.818-2.27,0.137-3.249,0.361c-0.517-3.696-2.726-5.696-7.22-5.417
				c-0.832,1.094-0.127,3.726-0.359,5.417c-0.963,0-1.926,0-2.888,0C168.616,11.759,168.523,4.679,168.578,0.51z M171.466,8.81
				c2.651-0.367,4.01,0.566,6.137,0.72c3.745-3.434-0.508-7.685-6.137-6.131C171.466,5.199,171.466,7.004,171.466,8.81z"/>
			<path fill-rule="evenodd" clip-rule="evenodd" fill="#FFFFFF" d="M210.451,0.51c-0.005,6.353-1.428,14.779,5.417,13.717
				c5.39-0.837,2.807-8.52,3.973-13.717c0.599,0,1.203,0,1.806,0c1.324,1.034,0.72,3.729,0.72,5.778c0,2.156,0,4.317,0,6.134
				c-2.126,5.107-10.229,6.401-13.719,2.167c-2.652-3.217-0.939-7.567-1.443-12.995c0-0.361,0-0.722,0-1.083
				C208.288,0.51,209.37,0.51,210.451,0.51z"/>
			<path fill-rule="evenodd" clip-rule="evenodd" fill="#FFFFFF" d="M227.419,0.51c2.889,0,5.777,0,8.664,0
				c8.831,3.201,5.022,15.895-5.414,14.078c-1.034,0.049,0.312,2.479-0.723,2.528c-0.602,0-1.203,0-1.806,0
				c-1.352-0.449-0.694-2.446-0.722-3.611c-0.085-3.491,0.065-8.117,0-11.911C227.419,1.232,227.419,0.871,227.419,0.51z
				 M230.308,11.699c3.479,0.109,6.128-0.61,7.578-2.525c0.782-5.233-2.665-6.235-7.578-5.775
				C230.308,6.162,230.308,8.931,230.308,11.699z"/>
			<path fill-rule="evenodd" clip-rule="evenodd" fill="#FFFFFF" d="M256.658,0.51c0,0.96,0,1.926,0,2.889c-2.766,0-5.534,0-8.3,0
				c-0.826,0.615-0.135,2.752-0.361,3.969c2.889,0,5.775,0,8.661,0c0,0.72,0,1.442,0,2.162c-0.187,0.9-2.484,0.347-4.328,0.361
				c-1.808,0.019-3.633,0.21-4.333,0c0.413,3.923,4.032,4.634,8.661,4.336c0,0.963,0,1.926,0,2.889
				c-11.165,1.891-13.618-6.828-11.911-16.606C248.719,0.51,252.688,0.51,256.658,0.51z"/>
			<path fill-rule="evenodd" clip-rule="evenodd" fill="#FFFFFF" d="M108.291,38.05c-2.24-0.93-3.544-3.086-5.417-4.692
				c-11.457-9.818-30.65-18.655-52.705-17.689c-13.048,0.575-23.399,3.8-33.933,7.581c0.182-2.222,3.745-2.763,6.136-3.608
				c9.214-3.261,20.574-5.986,33.573-5.414c19.214,0.842,37.591,8.292,48.733,18.77C106.127,34.359,108.274,35.976,108.291,38.05z"
				/>
			<path fill-rule="evenodd" clip-rule="evenodd" fill="#FFFFFF" d="M431.023,34.444c-2.074,0.572-4.027,1.264-5.778,2.164
				c-1.455-1.261-2.049-3.526-4.691-3.97c-6.971-1.173-9.846,7.808-4.331,10.467c2.501,1.207,5.521,0.733,7.939,1.444
				c5.146,1.507,11.917,6.703,9.028,15.522C429.939,70,408.65,72.2,406.114,59.714c2.618-0.265,4.438-1.338,6.497-2.167
				c1.453,1.683,2.744,4.013,5.775,4.331c7.009,0.739,10.96-8.689,3.608-11.189c-2.691-0.919-5.378-0.312-7.578-1.086
				c-3.9-1.365-8.24-5.387-8.303-11.189C405.97,25.148,427.423,20.902,431.023,34.444z"/>
			<path fill-rule="evenodd" clip-rule="evenodd" fill="#FFFFFF" d="M171.104,26.5c6.083,14.015,12.706,27.486,18.772,41.515
				c-2.768,0-5.537,0-8.305,0c-1.267-3.543-3.101-6.525-4.33-10.106c-11.798,0.233-21.172,2.892-25.992,10.106
				c-2.646,0-5.294,0-7.942,0c6.245-14.089,12.746-27.929,19.494-41.515C165.569,26.5,168.336,26.5,171.104,26.5z M162.078,45.272
				c-1.656,3.422-3.421,6.768-4.331,9.748c4.417-1.961,9.693-3.062,16.244-2.889c-1.773-5.928-4.896-10.502-6.857-16.245
				C164.84,38.277,163.646,42.036,162.078,45.272z"/>
			<path fill-rule="evenodd" clip-rule="evenodd" fill="#FFFFFF" d="M201.427,26.86c0,5.255,0,9.362,0,13.717
				c0,4.104-0.876,8.727,0.362,13.358c2.636,9.862,18.905,9.693,21.66,0.361c2.358-7.986-1.015-17.774,0.361-27.076
				c1.978-0.788,5.375-0.159,7.941-0.361c-1.274,10.938,2.062,21.67-0.722,29.604c-2.296,6.53-9.053,11.682-17.689,11.912
				c-6.861,0.183-12.971-2.87-16.245-6.859c-5.971-7.274-2.823-20.036-3.61-33.576c-0.031-0.506-0.059-1.021,0.361-1.081
				C196.375,26.86,198.901,26.86,201.427,26.86z"/>
			<path fill-rule="evenodd" clip-rule="evenodd" fill="#FFFFFF" d="M245.83,26.86c11.003,0.383,20.683-1.176,27.795,2.164
				c4.569,2.147,9.039,6.462,10.834,11.197c5.206,13.747-5.811,25.609-17.328,27.073c-6.484,0.821-13.745-0.602-21.662,0
				c0-13.12,0-26.233,0-39.354C245.437,27.435,245.409,26.92,245.83,26.86z M253.053,34.802c0,8.544,0,17.09,0,25.631
				c12.226,0.842,21.136-0.619,24.184-8.303c1.236-3.116,1.11-6.517,0.361-9.025c-2.405-8.068-12.617-10.533-24.185-9.386
				C252.992,33.779,253.02,34.291,253.053,34.802z"/>
			<path fill-rule="evenodd" clip-rule="evenodd" fill="#FFFFFF" d="M303.59,26.86c0,13.479,0,26.958,0,40.434
				c-2.525,0-5.053,0-7.581,0c0.241-13.358-0.481-27.677,0.361-40.434C298.777,26.86,301.183,26.86,303.59,26.86z"/>
			<path fill-rule="evenodd" clip-rule="evenodd" fill="#FFFFFF" d="M346.91,27.222c0,2.167,0,4.333,0,6.498
				c-7.102,0-14.198,0-21.298,0c-0.752,2.741-0.758,6.221-0.722,9.747c6.617,0.843,14.8,0.123,22.02,0.361c0,2.046,0,4.09,0,6.136
				c-7.34,0-14.68,0-22.02,0c1.885,9.069,10.836,11.066,22.02,10.831c0,2.167,0,4.333,0,6.5
				c-10.924,0.525-18.177-0.542-23.467-5.056c-7.95-6.79-6.566-19.401-6.495-34.298c0-0.361,0-0.719,0-1.081
				C327.606,27.008,336.665,26.595,346.91,27.222z"/>
			<path fill-rule="evenodd" clip-rule="evenodd" fill="#FFFFFF" d="M358.46,26.86c14.122,0.32,23,5.885,29.965,13.361
				c0-4.459,0-8.907,0-13.361c2.407,0,4.812,0,7.22,0c0,13.479,0,26.958,0,40.434c-2.407,0-4.812,0-7.22,0
				c0.867-19.038-7.662-28.679-22.022-32.492c-0.84,10.108-0.12,21.779-0.361,32.492c-2.524,0-5.053,0-7.581,0
				C358.46,53.818,358.46,40.339,358.46,26.86z"/>
			<path fill-rule="evenodd" clip-rule="evenodd" fill="#FFFFFF" d="M94.21,49.964c-10.891-5.658-24.738-12.002-40.43-12.992
				c-19.913-1.264-34.249,5.261-45.848,14.073c8.329-9.198,19.717-16.705,35.016-18.048c27.627-2.429,46.398,12.032,62.815,21.662
				l3.61,2.167c38.483,22.753,87.778,42.374,150.535,38.99c28.755-1.554,56.487-10.087,77.255-20.217
				c2.552-1.245,4.828-3.023,7.583-3.611c-24.849,17.626-57.694,28.547-96.749,30.326c-3.967,0.181-7.759,0.191-11.914,0
				c-54.588-2.539-93.374-22.521-127.433-44.765C108.65,57.547,98.017,51.942,94.21,49.964z"/>
		</g>
	</g>
	<path fill-rule="evenodd" clip-rule="evenodd" fill="#FFFFFF" d="M44.801,47.488c0,0,2.369-9.559,3.098-10.114
		c2.099,1.272,6.928,4.555,9.482,7.838c4.283-0.184,12.761-0.184,12.761-0.184s-1.733,4.829-6.291,9.387
		c1.094,1.641,7.474,9.936,7.565,11.667c-1.548,0-7.108-0.366-15.223-3.097c-1.185,1.275-11.393,10.391-11.393,10.391l-0.362-15.498
		c0,0-11.669-5.286-12.4-6.651C34.046,50.587,37.875,49.129,44.801,47.488z"/>
	<path fill-rule="evenodd" clip-rule="evenodd" fill="#FFFFFF" d="M114.486,46.394v4.834c0,0-25.979,29.623-61.528,32.219
		C17.41,86.045,0.046,66.083,0.046,66.083s-0.41-1.091,1.23,0.137c1.64,1.231,23.038,19.656,60.988,11.071
		C93.702,70.184,114.486,46.394,114.486,46.394z"/>
</g>
</svg>
