<?xml version="1.0" encoding="utf-8"?>
<!-- Generator: Adobe Illustrator 15.1.0, SVG Export Plug-In . SVG Version: 6.00 Build 0)  -->
<!DOCTYPE svg PUBLIC "-//W3C//DTD SVG 1.1//EN" "http://www.w3.org/Graphics/SVG/1.1/DTD/svg11.dtd">
<svg version="1.1" id="Calque_1" xmlns="http://www.w3.org/2000/svg" xmlns:xlink="http://www.w3.org/1999/xlink" x="0px" y="0px"
	 width="77.407px" height="36.306px" viewBox="0 0 77.407 36.306" enable-background="new 0 0 77.407 36.306" xml:space="preserve">
<g>
	<path fill-rule="evenodd" clip-rule="evenodd" fill="#FFFFFF" d="M25.668,36.306v-2.748c0-2.723,0.01-5.442-0.01-8.164
		c-0.003-0.434,0.108-0.565,0.55-0.559c0.438,0.007,0.621,0.081,0.617,0.58c-0.023,3.077-0.014,6.156-0.01,9.233
		C26.817,35.413,26.537,35.98,25.668,36.306"/>
	<path fill-rule="evenodd" clip-rule="evenodd" fill="#FFFFFF" d="M26.235,23.398c0.291,0.011,0.603-0.104,0.596,0.386
		c-0.006,0.526-0.354,0.392-0.638,0.403c-0.283,0.012-0.559,0.068-0.564-0.401C25.622,23.229,25.999,23.443,26.235,23.398"/>
	<path fill="#FFFFFF" d="M22.231,7.039c-0.066-0.005-0.135,0.009-0.2-0.002c-0.467-0.078-0.596,0.11-0.594,0.58
		c0.014,2.879-0.005,5.758-0.017,8.637c-0.003,0.801-0.283,1.09-1.077,1.096c-1.116,0.009-2.231,0.005-3.348,0.002
		c-0.956-0.003-1.237-0.283-1.238-1.228c-0.001-2.856-0.008-5.714,0.009-8.57c0.002-0.394-0.065-0.563-0.504-0.525
		c-0.486,0.044-0.982,0.042-1.471,0.001c-0.461-0.04-0.596,0.095-0.591,0.573c0.024,2.946,0.007,5.893,0.014,8.839
		c0.003,1.834,1.374,3.215,3.206,3.23c1.45,0.011,2.903,0.051,4.352-0.021c0.662-0.032,0.738,0.19,0.734,0.759
		c-0.023,3.414-0.012,6.826-0.012,10.355c0.777-0.407,1.435-0.775,2.116-1.095c0.321-0.15,0.392-0.353,0.392-0.678
		c0.007-6.716,0.025-13.435,0.034-20.151c0-0.576,0.148-1.323-0.147-1.681C23.578,6.787,22.802,7.08,22.231,7.039"/>
	<path fill="#FFFFFF" d="M62.696,12.363c0-0.264,0.029-0.542-0.186-0.754c-0.01-0.469-0.016-0.935-0.029-1.402
		c-0.051-1.742-1.432-3.14-3.156-3.164c-1.383-0.021-2.768-0.052-4.147,0.02c-0.572,0.028-0.592-0.173-0.585-0.616
		c0.021-1.493,0.018-2.987,0.002-4.481c-0.006-0.617,0.272-1.463-0.114-1.788c-0.369-0.312-1.189-0.055-1.805-0.114
		c-0.53-0.051-0.611,0.16-0.609,0.637c0.017,5.218,0.008,10.436,0.012,15.653c0.002,1.835,1.42,3.259,3.254,3.275
		c1.114,0.011,2.231-0.026,3.344,0.011c0.848,0.029,1.635-0.123,2.373-0.533c0.363-0.035,0.607-0.257,0.818-0.524
		c0.523-0.669,0.818-1.427,0.828-2.28C62.71,14.988,62.704,13.675,62.696,12.363 M59.956,16.042
		c-0.008,0.657-0.273,0.922-0.936,0.927c-1.158,0.009-2.316,0.008-3.475,0.001c-0.678-0.005-0.939-0.256-0.942-0.914
		c-0.007-1.871,0.004-3.742-0.006-5.613c-0.003-0.625,0.314-0.896,0.901-0.9c1.18-0.007,2.362-0.013,3.542,0.002
		c0.662,0.009,0.91,0.276,0.916,0.95c0.008,0.936,0.002,1.872,0.002,2.808C59.958,14.215,59.966,15.128,59.956,16.042"/>
	<path fill="#FFFFFF" d="M32.452,7.041c-1.339-0.014-2.68-0.05-4.016,0.019c-0.608,0.031-0.67-0.167-0.658-0.684
		c0.035-1.45,0.017-2.901,0.011-4.352C27.787,1.403,28,0.58,27.687,0.214c-0.363-0.427-1.215-0.069-1.848-0.146
		c-0.472-0.06-0.588,0.107-0.583,0.576c0.023,2.633,0.012,5.266,0.012,7.9c0,2.61-0.005,5.221,0.001,7.832
		c0.005,1.801,1.415,3.23,3.213,3.25c1.339,0.014,2.679,0.021,4.017-0.002c1.703-0.028,3.118-1.41,3.144-3.107
		c0.031-2.12,0.033-4.24-0.001-6.36C35.614,8.408,34.208,7.059,32.452,7.041 M33.147,16.068c-0.001,0.595-0.285,0.908-0.897,0.905
		c-1.18-0.004-2.36,0.006-3.54-0.004c-0.664-0.005-0.91-0.262-0.916-0.938c-0.009-0.914-0.003-1.826-0.003-2.74
		c0-0.936-0.006-1.87,0.003-2.805c0.006-0.693,0.23-0.933,0.918-0.941c1.18-0.015,2.359-0.01,3.541-0.002
		c0.594,0.004,0.896,0.309,0.896,0.913C33.146,12.327,33.149,14.197,33.147,16.068"/>
	<path fill="#FFFFFF" d="M11.959,10.265c-0.055-2.052-1.418-3.227-3.488-3.228c-1.428,0-2.856-0.022-4.283,0.016
		C3.772,7.064,3.664,6.986,3.67,6.565c0.027-1.517,0.016-3.034,0.009-4.551c-0.003-0.62,0.208-1.449-0.107-1.807
		C3.206-0.208,2.354,0.142,1.721,0.066C1.234,0.007,1.144,0.197,1.146,0.653C1.168,3.732,1.158,6.81,1.158,9.888
		c0,2.611-0.009,5.221,0.006,7.832c0.004,0.639-0.282,1.49,0.121,1.855c0.347,0.313,1.188,0.057,1.806,0.107
		c0.488,0.041,0.633-0.089,0.627-0.606c-0.031-2.744-0.015-5.488-0.015-8.233c0-1.294,0.194-1.484,1.521-1.484
		c0.914,0,1.828,0,2.743,0c1.235,0,1.473,0.24,1.474,1.492c0,2.767,0.007,5.533-0.008,8.3c-0.002,0.384,0.053,0.567,0.498,0.533
		c0.554-0.044,1.115-0.021,1.672-0.006c0.28,0.007,0.391-0.078,0.389-0.378C11.98,16.289,12.04,13.275,11.959,10.265"/>
	<path fill="#FFFFFF" d="M50.849,10.305c-0.016-1.852-1.412-3.252-3.261-3.265c-1.294-0.01-2.588-0.01-3.883,0
		c-1.951,0.014-3.436,1.655-3.29,3.598c0.022,0.294,0.117,0.385,0.396,0.379c0.557-0.012,1.117-0.028,1.672,0.005
		c0.397,0.022,0.471-0.131,0.476-0.493c0.009-0.742,0.274-0.978,1.03-0.986c0.736-0.009,1.473-0.005,2.209-0.002
		c0.49,0.004,0.981-0.004,1.471,0.029c0.347,0.021,0.557,0.241,0.642,0.584c0.095,0.379-0.205,0.429-0.435,0.549
		c-1.889,0.994-3.782,1.98-5.662,2.99c-1.37,0.737-2.017,2.152-1.653,3.526c0.371,1.399,1.675,2.398,3.167,2.408
		c1.293,0.009,2.588,0.011,3.882,0c1.794-0.015,3.216-1.433,3.239-3.231c0.013-1.002,0.002-2.007,0.002-3.012
		C50.85,12.359,50.858,11.332,50.849,10.305 M48.319,16.34c-0.008,0.472-0.287,0.753-0.756,0.759
		c-1.29,0.016-2.581,0.01-3.871,0.002c-0.354-0.002-0.592-0.216-0.68-0.54c-0.084-0.308,0.146-0.504,0.38-0.628
		c1.618-0.863,3.243-1.711,4.932-2.599C48.324,14.393,48.335,15.366,48.319,16.34"/>
	<path fill="#FFFFFF" d="M39.401,9.833c0-3.058-0.01-6.115,0.01-9.173c0.003-0.457-0.102-0.642-0.584-0.598
		c-0.465,0.042-0.938,0.032-1.405,0.003c-0.384-0.024-0.536,0.053-0.535,0.496c0.018,5.312,0.001,10.623,0.021,15.935
		c0.004,1.333,0.732,2.246,1.889,2.851c0.469,0.245,0.623,0.17,0.618-0.409C39.385,15.904,39.401,12.869,39.401,9.833"/>
	<path fill="#FFFFFF" d="M4.356,23.38c-0.561-0.022-0.779,0.141-0.676,0.695c0.098,0.533-0.077,0.77-0.663,0.697
		c-0.461-0.057-0.935-0.023-1.402-0.008c-0.921,0.03-1.526,0.562-1.575,1.477c-0.051,0.955-0.053,1.917-0.003,2.872
		c0.05,0.96,0.655,1.482,1.618,1.498c0.513,0.009,1.025,0.007,1.538,0.001c1.059-0.013,1.64-0.594,1.652-1.664
		c0.011-0.824,0.002-1.648,0.002-2.474c0-0.847-0.016-1.693,0.007-2.54C4.864,23.557,4.797,23.399,4.356,23.38 M3.121,29.429
		c-0.022-0.002-0.045,0-0.067-0.001c-2.182-0.045-1.778,0.347-1.823-1.748v-0.134c0-1.635,0.397-1.941,2.051-1.599
		c0.301,0.062,0.399,0.245,0.399,0.521c0,0.803-0.006,1.604,0.002,2.406C3.686,29.266,3.52,29.458,3.121,29.429"/>
	<path fill="#FFFFFF" d="M10.155,26.187c-0.083-0.865-0.621-1.371-1.486-1.416c-0.601-0.033-1.206-0.034-1.806,0
		c-0.866,0.047-1.511,0.717-1.489,1.497c0.005,0.15-0.028,0.387,0.188,0.35c0.358-0.064,0.933,0.358,1.024-0.417
		c0.022-0.188,0.23-0.253,0.426-0.252c0.513,0,1.024-0.003,1.538,0.002c0.191,0.001,0.365,0.063,0.403,0.274
		c0.037,0.202-0.148,0.244-0.283,0.314c-0.827,0.436-1.659,0.859-2.478,1.312c-0.66,0.364-0.929,0.965-0.771,1.615
		c0.163,0.679,0.714,1.122,1.459,1.143c0.602,0.018,1.204,0.018,1.807,0.001c0.812-0.024,1.376-0.527,1.461-1.355
		c0.053-0.506,0.011-1.021,0.011-1.533h0.005C10.164,27.209,10.204,26.693,10.155,26.187 M8.822,29.296
		c-0.567,0.359-1.345,0.156-2.021,0.087c-0.288-0.028-0.259-0.349-0.01-0.488c0.692-0.386,1.399-0.743,2.124-1.124
		C8.997,28.354,9.217,29.046,8.822,29.296"/>
	<path fill="#FFFFFF" d="M20.066,27.709c0-0.445,0.008-0.892-0.001-1.337c-0.021-0.957-0.568-1.552-1.516-1.604
		c-0.6-0.032-1.204-0.029-1.804,0.002c-0.595,0.03-1.067,0.312-1.34,0.856c-0.141,0.281-0.283,0.637-0.123,0.896
		s0.536,0.08,0.815,0.113c0.202,0.023,0.332-0.024,0.339-0.278c0.01-0.353,0.267-0.417,0.563-0.413
		c0.445,0.006,0.891,0.004,1.336,0.001c0.211-0.001,0.429,0.018,0.5,0.243c0.089,0.283-0.203,0.316-0.354,0.397
		c-0.8,0.437-1.621,0.833-2.418,1.273c-0.655,0.364-0.923,0.987-0.751,1.619c0.188,0.685,0.73,1.113,1.471,1.131
		c0.578,0.015,1.158,0.015,1.737,0.001c0.938-0.021,1.519-0.609,1.543-1.564C20.076,28.601,20.066,28.156,20.066,27.709
		 M18.686,29.339c-0.616,0.258-1.363,0.137-2.043,0.041c-0.25-0.036-0.207-0.342,0-0.458c0.71-0.398,1.437-0.769,2.18-1.161
		c0.039,0.148,0.077,0.215,0.069,0.275C18.839,28.486,19.136,29.149,18.686,29.339"/>
	<path fill="#FFFFFF" d="M14.108,29.538c-0.356,0.012-0.713,0.003-1.069,0.003c-1.218,0-1.094-0.019-1.259-1.195
		c-0.193-1.366,0.213-2.21,1.524-2.619c0.364-0.112,0.361-0.3,0.203-0.644c-0.228-0.501-0.474-0.542-0.893-0.248
		c-0.231,0.163-0.505,0.268-0.804,0.421c0-0.491-0.033-0.917,0.01-1.334c0.051-0.485-0.187-0.522-0.58-0.534
		c-0.432-0.012-0.57,0.103-0.563,0.552c0.027,1.693,0.007,3.387,0.013,5.081c0.004,0.973,0.596,1.566,1.582,1.591
		c0.602,0.014,1.203-0.008,1.805,0.007c0.405,0.01,0.71,0.032,0.704-0.563C14.776,29.486,14.48,29.526,14.108,29.538"/>
	<path fill="#FFFFFF" d="M72.169,26.422c-0.008-1.065-0.582-1.664-1.658-1.65c-0.834,0.012-1.703-0.196-2.49,0.263
		c-0.1,0.057-0.166,0.005-0.24-0.032c-0.869-0.433-1.801-0.244-2.699-0.212c-0.883,0.032-1.365,0.664-1.371,1.577
		c-0.004,0.603-0.002,1.204-0.002,1.806c0,0.625,0.021,1.25-0.006,1.873c-0.02,0.406,0.055,0.595,0.531,0.585
		c0.434-0.01,0.568-0.12,0.557-0.562c-0.029-1.182,0-2.363-0.014-3.545c-0.006-0.455,0.18-0.659,0.635-0.643
		c0.379,0.013,0.76,0.029,1.137-0.005c0.592-0.052,0.842,0.135,0.812,0.782c-0.051,1.112,0.01,2.23-0.025,3.344
		c-0.016,0.49,0.107,0.652,0.623,0.646c0.482-0.006,0.6-0.153,0.578-0.609c-0.035-0.779-0.01-1.562-0.01-2.341
		c0-1.884,0-1.872,1.893-1.823c0.486,0.013,0.674,0.182,0.664,0.676c-0.023,1.182,0.01,2.364-0.016,3.545
		c-0.01,0.404,0.092,0.549,0.518,0.529c0.379-0.018,0.611-0.028,0.598-0.525C72.146,28.875,72.177,27.648,72.169,26.422"/>
	<path fill="#FFFFFF" d="M53.795,26.253c-0.02-0.858-0.602-1.469-1.463-1.507c-0.623-0.026-1.249-0.026-1.871,0
		c-0.797,0.035-1.395,0.603-1.464,1.376c-0.017,0.18-0.171,0.523,0.22,0.478c0.322-0.035,0.811,0.272,0.941-0.231
		c0.101-0.389,0.295-0.445,0.607-0.443c0.445,0.002,0.891-0.003,1.336,0.002c0.202,0,0.43,0,0.481,0.252
		c0.05,0.24-0.182,0.272-0.33,0.35c-0.822,0.439-1.656,0.861-2.471,1.314c-0.628,0.351-0.896,0.951-0.749,1.564
		c0.164,0.686,0.712,1.14,1.443,1.161c0.624,0.017,1.248,0.022,1.871-0.002c0.865-0.034,1.428-0.631,1.447-1.509
		c0.01-0.467,0.002-0.936,0.002-1.402C53.797,27.188,53.805,26.72,53.795,26.253 M52.395,29.318c-0.599,0.25-1.328,0.17-1.974,0.027
		c-0.4-0.088-0.181-0.396,0.042-0.518c0.676-0.375,1.37-0.721,2.103-1.1c0.022,0.143,0.059,0.229,0.044,0.304
		C52.525,28.47,52.886,29.113,52.395,29.318"/>
	<path fill="#FFFFFF" d="M76.806,28.818c-0.215,0.012-0.389,0.011-0.412,0.299c-0.023,0.262-0.217,0.371-0.471,0.371
		c-0.559,0-1.115,0-1.672-0.002c-0.195-0.001-0.346-0.075-0.414-0.271c-0.092-0.263,0.137-0.289,0.279-0.365
		c0.824-0.438,1.654-0.865,2.477-1.307c0.67-0.361,1.004-0.976,0.875-1.575c-0.15-0.69-0.717-1.163-1.5-1.2
		c-0.578-0.027-1.16-0.027-1.738,0c-0.949,0.049-1.506,0.643-1.523,1.595c-0.01,0.445-0.002,0.893-0.002,1.338
		c0,0.446-0.006,0.892,0.002,1.338c0.016,0.913,0.576,1.527,1.471,1.569c0.623,0.029,1.25,0.031,1.871-0.004
		c0.656-0.035,1.131-0.369,1.359-1.005C77.647,28.93,77.522,28.775,76.806,28.818 M73.983,26.025
		c0.588-0.369,1.391-0.179,2.09-0.093c0.404,0.05,0.336,0.406,0.062,0.566c-0.738,0.435-1.506,0.817-2.24,1.208
		c-0.074-0.079-0.1-0.094-0.1-0.107C73.827,27.058,73.511,26.323,73.983,26.025"/>
	<path fill="#FFFFFF" d="M32.232,26.365c-0.008-0.962-0.547-1.548-1.51-1.598c-0.579-0.028-1.162-0.027-1.741,0.001
		c-0.947,0.049-1.498,0.644-1.508,1.604c-0.008,0.895-0.012,1.786,0.002,2.68c0.013,0.92,0.576,1.517,1.482,1.556
		c0.602,0.026,1.207,0.026,1.809-0.001c0.912-0.04,1.455-0.634,1.466-1.563c0.005-0.447,0.001-0.894,0.001-1.34
		C32.233,27.256,32.235,26.81,32.232,26.365 M31.17,26.691c-0.042,0.711-0.029,1.427-0.003,2.14
		c0.018,0.501-0.198,0.699-0.677,0.659c-0.045-0.004-0.09,0-0.135,0c-2.095-0.031-1.771,0.301-1.801-1.805
		c0.028-2.089-0.289-1.756,1.809-1.809C30.977,25.861,31.207,26.074,31.17,26.691"/>
	<path fill="#FFFFFF" d="M60.218,25.889c0.377-0.018,0.758-0.001,1.137-0.005c0.35-0.004,0.617,0.018,0.75,0.466
		c0.125,0.413,0.58,0.196,0.871,0.179c0.348-0.018,0.195-0.342,0.164-0.529c-0.113-0.702-0.688-1.194-1.459-1.231
		c-0.602-0.028-1.207-0.026-1.809-0.001c-0.754,0.034-1.324,0.531-1.471,1.233c-0.133,0.64,0.164,1.163,0.881,1.537
		c0.789,0.413,1.58,0.819,2.369,1.233c0.201,0.106,0.418,0.248,0.35,0.504c-0.061,0.236-0.309,0.215-0.51,0.215
		c-0.49,0-0.982,0.002-1.473-0.002c-0.201-0.002-0.445,0.004-0.484-0.251c-0.111-0.716-0.695-0.468-0.98-0.363
		c-0.4,0.146-0.154,0.581-0.037,0.858c0.238,0.562,0.709,0.844,1.314,0.878c0.289,0.017,0.578,0.003,0.869,0.003v-0.002
		c0.357,0,0.717,0.021,1.07-0.004c0.678-0.051,1.221-0.535,1.367-1.185c0.145-0.642-0.123-1.173-0.777-1.518
		c-0.768-0.405-1.541-0.8-2.307-1.21c-0.225-0.123-0.561-0.217-0.502-0.548C59.618,25.778,59.972,25.902,60.218,25.889"/>
	<path fill="#FFFFFF" d="M48.458,26.361c-0.013-0.965-0.574-1.551-1.522-1.594c-0.579-0.027-1.162-0.027-1.74,0
		c-0.919,0.045-1.484,0.623-1.513,1.536c-0.019,0.625-0.004,1.25-0.004,1.874c-0.001,0.67,0.021,1.34-0.008,2.009
		c-0.019,0.449,0.241,0.431,0.552,0.433c0.318,0.003,0.561,0.003,0.546-0.439c-0.027-0.824-0.016-1.65-0.005-2.477
		c0.025-2.107-0.306-1.775,1.861-1.826c0.602-0.014,0.769,0.232,0.752,0.8c-0.033,1.137,0.005,2.276-0.018,3.413
		c-0.009,0.393,0.07,0.564,0.509,0.537c0.367-0.023,0.622-0.006,0.606-0.517C48.436,28.861,48.474,27.611,48.458,26.361"/>
	<path fill="#FFFFFF" d="M37.053,24.747c-0.425,0-0.58,0.101-0.568,0.556c0.031,1.157,0.002,2.318,0.015,3.478
		c0.006,0.496-0.169,0.753-0.704,0.716c-0.399-0.028-0.804-0.028-1.203,0c-0.551,0.039-0.754-0.183-0.739-0.736
		c0.03-1.182-0.013-2.364,0.02-3.545c0.015-0.498-0.264-0.45-0.589-0.459c-0.33-0.009-0.535,0.012-0.525,0.448
		c0.028,1.292-0.006,2.586,0.016,3.879c0.015,0.902,0.611,1.488,1.522,1.526c0.534,0.022,1.07,0.01,1.605,0.003
		c1.071-0.015,1.653-0.591,1.666-1.651c0.007-0.602,0.001-1.204,0.001-1.806c0-0.626-0.023-1.25,0.009-1.872
		C37.598,24.871,37.468,24.748,37.053,24.747"/>
	<path fill="#FFFFFF" d="M41.627,24.808c-0.667-0.025-1.337-0.026-2.005,0.001c-0.893,0.038-1.499,0.649-1.513,1.543
		c-0.021,1.269,0.018,2.54-0.018,3.81c-0.016,0.57,0.342,0.445,0.656,0.451c0.305,0.005,0.633,0.085,0.593-0.439
		c-0.044-0.576-0.011-1.158-0.011-1.738v-0.601c0-1.963,0-1.962,1.982-1.816c0.313,0.022,0.502,0.093,0.604,0.468
		c0.152,0.557,0.668,0.207,1.01,0.242c0.358,0.037,0.222-0.312,0.203-0.501C43.051,25.414,42.454,24.841,41.627,24.808"/>
	<path fill="#FFFFFF" d="M55.652,27.038c0-1.089-0.016-2.179,0.006-3.268c0.011-0.554-0.376-0.367-0.644-0.387
		c-0.276-0.021-0.564-0.093-0.558,0.394c0.025,1.801,0.006,3.602,0.015,5.402c0.003,0.495,0.224,0.899,0.628,1.191
		c0.142,0.102,0.303,0.25,0.478,0.162c0.156-0.081,0.07-0.283,0.071-0.427C55.655,29.083,55.652,28.06,55.652,27.038"/>
	<path fill="#FFFFFF" d="M57.095,24.851c-0.342-0.037-0.525,0.028-0.518,0.449c0.027,1.291,0.012,2.583,0.01,3.874
		c-0.002,0.712,0.355,1.155,1.117,1.45c0-1.848-0.016-3.605,0.01-5.362C57.722,24.72,57.374,24.881,57.095,24.851"/>
	<path fill="#FFFFFF" d="M57.155,23.375c-0.311,0.008-0.65-0.106-0.635,0.422c0.012,0.48,0.314,0.388,0.592,0.391
		c0.303,0.006,0.617,0.09,0.611-0.431C57.716,23.255,57.401,23.394,57.155,23.375"/>
</g>
</svg>
