<?xml version="1.0" encoding="utf-8"?>
<!-- Generator: Adobe Illustrator 15.1.0, SVG Export Plug-In . SVG Version: 6.00 Build 0)  -->
<!DOCTYPE svg PUBLIC "-//W3C//DTD SVG 1.1//EN" "http://www.w3.org/Graphics/SVG/1.1/DTD/svg11.dtd">
<svg version="1.1" id="Calque_1" xmlns="http://www.w3.org/2000/svg" xmlns:xlink="http://www.w3.org/1999/xlink" x="0px" y="0px"
	 width="342.426px" height="200.125px" viewBox="0 0 342.426 200.125" enable-background="new 0 0 342.426 200.125"
	 xml:space="preserve">
<g>
	<g>
		<g>
			<defs>
				<path id="SVGID_1_" d="M186.396,22.89c-0.435,1.587-0.871,3.172-1.301,4.757c-0.165,0.592-0.329,1.21-0.498,1.847
					c-2.229,8.388-5.599,21.064-16.471,21.064c-0.688,0-1.412-0.052-2.145-0.155c-7.711-1.106-14.472-6.481-20.438-11.223
					c-0.913-0.726-1.809-1.435-2.691-2.121c-5.55-4.302-11.341-9.05-17.667-14.491c-9.629,11.435-14.913,25.907-14.913,40.896
					c0,7.097,1.156,14.053,3.442,20.693c0.023-0.009,0.048-0.021,0.073-0.03c7.626-2.959,15.5-5.641,23.399-7.968
					c0.583-0.174,1.184-0.354,1.799-0.543c4.153-1.259,8.859-2.684,13.438-2.684c2.857,0,5.3,0.549,7.459,1.677
					c10.568,5.511,8.675,21.444,7.289,33.078c-0.235,1.984-0.458,3.858-0.59,5.47l-0.231,2.872
					c-0.275,3.424-0.562,6.951-0.867,10.438c2.751,0.357,5.548,0.543,8.329,0.543c18.456,0,35.854-7.947,47.951-21.849
					c-6.343-5.104-12.562-10.549-18.488-16.189c-0.441-0.423-0.902-0.851-1.372-1.287c-4.903-4.599-11.006-10.321-11.318-17.594
					c-0.512-11.911,14.235-18.237,25.002-22.854c1.839-0.784,3.572-1.528,5.033-2.224l2.677-1.268
					c3.051-1.449,6.197-2.94,9.32-4.396c-3.2-7.806-7.864-14.804-13.871-20.813c-7.515-7.512-16.798-13.033-26.922-16.025
					C190.111,9.346,188.225,16.225,186.396,22.89"/>
			</defs>
			<use xlink:href="#SVGID_1_"  overflow="visible" fill="#FFFFFF"/>
			<clipPath id="SVGID_2_">
				<use xlink:href="#SVGID_1_"  overflow="visible"/>
			</clipPath>
		</g>
		<g>
			<defs>
				<path id="SVGID_3_" d="M144.101,7.285c0.135,0.209,0.681,1.083,0.681,1.083c4.362,6.937,9.311,14.12,15.557,22.584
					c0.162,0.214,0.324,0.432,0.491,0.657c1.695,2.28,3.809,5.117,6.513,5.117c0.118,0,0.239-0.005,0.36-0.014
					c2.158-0.188,3.381-3.467,3.443-9.239c0.052-4.603,0.102-9.36,0.035-14.05c-0.072-4.901-0.217-9.309-0.445-13.423
					C161.445,0.444,152.29,2.952,144.101,7.285"/>
			</defs>
			<use xlink:href="#SVGID_3_"  overflow="visible" fill="#FFFFFF"/>
			<clipPath id="SVGID_4_">
				<use xlink:href="#SVGID_3_"  overflow="visible"/>
			</clipPath>
		</g>
		<g>
			<defs>
				<path id="SVGID_5_" d="M235.861,60.007c-8.334,1.028-16.955,2.09-24.888,4.432c-3.32,0.981-5.664,2.877-5.974,4.833
					c-0.301,1.891,1.399,3.496,2.877,4.506c2.062,1.414,4.539,2.607,6.935,3.76c0.604,0.294,1.197,0.58,1.777,0.867
					c5.199,2.564,10.826,5.037,16.743,7.361c2.671-7.117,4.025-14.613,4.025-22.302c0-1.2-0.035-2.419-0.101-3.628
					C236.789,59.895,236.326,59.951,235.861,60.007"/>
			</defs>
			<use xlink:href="#SVGID_5_"  overflow="visible" fill="#FFFFFF"/>
			<clipPath id="SVGID_6_">
				<use xlink:href="#SVGID_5_"  overflow="visible"/>
			</clipPath>
		</g>
		<g>
			<defs>
				<path id="SVGID_7_" d="M149.03,87.307c-2.26,0.899-4.521,2.426-6.705,3.902c-0.511,0.346-1.02,0.69-1.515,1.018
					c-5.263,3.478-10.647,7.401-16.014,11.676c1.293,1.563,2.663,3.071,4.086,4.494c4.843,4.845,10.378,8.842,16.471,11.897
					c0.383-0.921,0.771-1.842,1.16-2.767c3.066-7.299,6.239-14.849,8.068-22.437c0.711-2.939,0.424-5.783-0.728-7.247
					c-0.575-0.728-1.341-1.084-2.349-1.084C150.783,86.76,149.95,86.942,149.03,87.307"/>
			</defs>
			<use xlink:href="#SVGID_7_"  overflow="visible" fill="#FFFFFF"/>
			<clipPath id="SVGID_8_">
				<use xlink:href="#SVGID_7_"  overflow="visible"/>
			</clipPath>
		</g>
	</g>
	<g>
		<path fill="#FFFFFF" d="M24.958,189.131c0,3.407-1.466,6.176-4.398,8.301c-2.638,1.907-5.736,2.86-9.291,2.86
			c-4.396,0-8.008-0.899-10.828-2.696v-5.826c4.323,2.051,7.969,3.079,10.941,3.079c1.5,0,2.765-0.329,3.792-0.989
			c1.207-0.729,1.813-1.811,1.813-3.238c0-1.681-1.465-3.203-4.398-4.553c-4.8-2.196-7.531-3.514-8.191-3.95
			C1.464,180.068,0,177.307,0,173.831c0-3.109,1.337-5.671,4.013-7.684c2.454-1.867,5.278-2.797,8.465-2.797
			c3.337,0,6.542,0.913,9.621,2.747v4.232c-3.079-0.844-5.772-1.283-8.081-1.318c-1.576,0-2.897,0.272-3.958,0.822
			c-1.356,0.735-2.035,1.834-2.035,3.297c0,1.139,1.467,2.384,4.397,3.741c4.251,2.015,6.964,3.464,8.137,4.342
			C23.492,183.412,24.958,186.052,24.958,189.131"/>
		<path fill="#FFFFFF" d="M55.314,198.475c-3.701,1.102-7.369,1.65-10.996,1.65c-4.434,0-8.062-1.43-10.883-4.288
			c-2.823-2.857-4.234-6.502-4.234-10.938c0-4.253,1.319-7.677,3.959-10.278c2.64-2.604,6.083-3.908,10.335-3.908
			c3.883,0,7.386,0.846,10.5,2.532v4.562c-4.105-0.918-7.185-1.301-9.236-1.153c-4.617,0.329-6.925,3.143-6.925,8.436
			c0,2.757,0.676,5,2.034,6.726c1.463,1.912,3.534,2.867,6.211,2.867c3.666,0,6.742-0.364,9.236-1.099V198.475z"/>
		<path fill="#FFFFFF" d="M69.512,164.118c0,1.245-0.43,2.302-1.291,3.161c-0.863,0.861-1.915,1.291-3.162,1.291
			c-1.245,0-2.299-0.43-3.161-1.291c-0.861-0.859-1.292-1.916-1.292-3.161c0-1.247,0.431-2.299,1.292-3.161
			c0.861-0.861,1.916-1.291,3.161-1.291c1.247,0,2.299,0.43,3.162,1.291C69.082,161.819,69.512,162.871,69.512,164.118
			 M69.348,199.409h-8.741V171.76h8.741V199.409z"/>
		<path fill="#FFFFFF" d="M102.062,185.666c0,0.439-0.037,1.064-0.11,1.87H83.701c0.256,4.767,3.169,7.146,8.742,7.146
			c3.15,0,6.1-0.364,8.85-1.099v4.892c-3.445,1.137-7.111,1.686-10.993,1.65c-4.289-0.072-7.881-1.51-10.776-4.316
			c-2.896-2.801-4.342-6.331-4.342-10.581c0-4.434,1.262-7.964,3.792-10.582c2.529-2.62,5.994-3.934,10.392-3.934
			c4.251,0,7.492,1.468,9.729,4.401C101.074,177.753,102.062,181.268,102.062,185.666 M95.027,182.534
			c-0.075-1.757-0.59-3.218-1.542-4.37c-0.952-1.153-2.291-1.731-4.012-1.731c-1.576,0-2.896,0.604-3.958,1.813
			c-1.062,1.209-1.668,2.639-1.814,4.288H95.027z"/>
		<path fill="#FFFFFF" d="M135.431,199.409H126.8V182.59c0-3.52-1.191-5.278-3.572-5.278c-2.347,0-4.31,0.641-5.883,1.923v20.175
			h-8.631V171.76h8.631v3.022c1.245-1.135,2.738-2.098,4.479-2.887c1.74-0.786,3.4-1.184,4.976-1.184
			c2.859,0,5.04,0.935,6.542,2.807c1.39,1.722,2.089,4.051,2.089,6.981V199.409z"/>
		<path fill="#FFFFFF" d="M167.331,198.475c-3.701,1.102-7.368,1.65-10.993,1.65c-4.437,0-8.064-1.43-10.885-4.288
			c-2.825-2.857-4.234-6.502-4.234-10.938c0-4.253,1.32-7.677,3.959-10.278c2.638-2.604,6.083-3.908,10.336-3.908
			c3.884,0,7.384,0.846,10.499,2.532v4.562c-4.104-0.918-7.185-1.301-9.236-1.153c-4.619,0.329-6.925,3.143-6.925,8.436
			c0,2.757,0.676,5,2.033,6.726c1.466,1.912,3.536,2.867,6.212,2.867c3.663,0,6.742-0.364,9.234-1.099V198.475z"/>
		<path fill="#FFFFFF" d="M197.33,185.666c0,0.439-0.037,1.064-0.108,1.87H178.97c0.254,4.767,3.168,7.146,8.74,7.146
			c3.152,0,6.102-0.364,8.849-1.099v4.892c-3.442,1.137-7.108,1.686-10.992,1.65c-4.286-0.072-7.881-1.51-10.776-4.316
			c-2.895-2.801-4.343-6.331-4.343-10.581c0-4.434,1.264-7.964,3.793-10.582c2.529-2.62,5.993-3.934,10.392-3.934
			c4.25,0,7.493,1.468,9.729,4.401C196.341,177.753,197.33,181.268,197.33,185.666 M190.294,182.534
			c-0.075-1.757-0.588-3.218-1.541-4.37c-0.953-1.153-2.292-1.731-4.011-1.731c-1.578,0-2.898,0.604-3.96,1.813
			c-1.063,1.209-1.669,2.639-1.812,4.288H190.294z"/>
		<path fill="#FFFFFF" d="M225.355,190.89c0,2.931-1.282,5.26-3.847,6.981c-2.235,1.503-4.895,2.254-7.971,2.254
			c-4.656,0-8.397-0.861-11.216-2.585v-5.605c3.739,1.944,7.273,2.914,10.61,2.914c2.82,0,4.231-0.97,4.231-2.914
			c0-1.102-1.244-2.106-3.736-3.022c-3.813-1.433-6.104-2.384-6.873-2.86c-2.494-1.503-3.739-3.537-3.739-6.101
			c0-3.006,1.212-5.353,3.631-7.036c2.123-1.468,4.763-2.203,7.914-2.203c3.335,0,6.284,0.772,8.851,2.312v4.4
			c-2.529-0.735-4.929-1.082-7.2-1.047c-3.374,0.037-5.061,0.898-5.061,2.585c0,1.207,1.25,2.233,3.741,3.076
			c3.884,1.285,6.192,2.145,6.928,2.586C224.11,186.089,225.355,188.18,225.355,190.89"/>
		<path fill="#FFFFFF" d="M259.73,198.146c-3.114,1.431-7.294,2.146-12.533,2.146c-5.131,0-9.403-1.797-12.811-5.39
			c-3.41-3.591-5.109-7.97-5.109-13.139c0-5.277,1.69-9.666,5.081-13.165c3.392-3.499,7.708-5.248,12.949-5.248
			c4.029,0,7.73,0.932,11.103,2.802v5.443c-3.113-1.393-6.669-2.091-10.664-2.091c-6.488,0-9.731,4.087-9.731,12.259
			c0,3.813,0.827,6.817,2.474,9.018c1.871,2.416,4.654,3.626,8.354,3.626c2.643,0,6.271-0.622,10.888-1.869V198.146z"/>
		<path fill="#FFFFFF" d="M293.574,185.229c0,4.763-1.308,8.438-3.927,11.019c-2.623,2.586-6.314,3.877-11.077,3.877
			c-4.765,0-8.461-1.291-11.079-3.877c-2.618-2.581-3.929-6.256-3.929-11.019c0-4.767,1.301-8.376,3.903-10.83
			c2.602-2.456,6.3-3.688,11.104-3.688c4.507,0,8.135,1.304,10.885,3.908C292.203,177.222,293.574,180.759,293.574,185.229
			 M284.946,185.338c0-2.419-0.458-4.377-1.374-5.883c-1.101-1.867-2.769-2.802-5.002-2.802c-2.275,0-3.961,0.916-5.058,2.748
			c-0.881,1.503-1.322,3.479-1.322,5.937c0,2.566,0.423,4.673,1.264,6.321c1.104,2.126,2.809,3.189,5.116,3.189
			c2.307,0,4.012-1.063,5.11-3.189C284.523,190.011,284.946,187.904,284.946,185.338"/>
		<path fill="#FFFFFF" d="M342.426,199.409h-8.63V182.59c0-3.52-1.184-5.278-3.554-5.278c-1.817,0-3.439,0.624-4.858,1.869v1.319
			v18.909h-8.63V182.59c0-3.52-1.177-5.278-3.521-5.278c-2.09,0-3.72,0.641-4.892,1.923v20.175h-8.63V171.76h8.63v3.022
			c1.064-1.102,2.377-2.053,3.937-2.858c1.562-0.808,3.036-1.212,4.434-1.212c3.743,0,6.296,1.541,7.65,4.62
			c3.673-3.079,6.812-4.62,9.417-4.62c2.862,0,5.049,0.935,6.552,2.807c1.395,1.684,2.095,4.014,2.095,6.981V199.409z"/>
	</g>
</g>
</svg>
