<?xml version="1.0" encoding="utf-8"?>
<!-- Generator: Adobe Illustrator 15.1.0, SVG Export Plug-In . SVG Version: 6.00 Build 0)  -->
<!DOCTYPE svg PUBLIC "-//W3C//DTD SVG 1.1//EN" "http://www.w3.org/Graphics/SVG/1.1/DTD/svg11.dtd">
<svg version="1.1" id="Calque_1" xmlns="http://www.w3.org/2000/svg" xmlns:xlink="http://www.w3.org/1999/xlink" x="0px" y="0px"
	 width="79.025px" height="85.671px" viewBox="0 0 79.025 85.671" enable-background="new 0 0 79.025 85.671" xml:space="preserve">
<g>
	<path fill="none" d="M12.152,45.634c0.205,0,0.39,0.148,0.429,0.357c0.044,0.234-0.11,0.463-0.345,0.51
		c-0.05,0.01-5.055,1.035-6.085,3.309c-1.005,2.213-1.72,8.906,6.931,13.234c2.337,1.168,5.065,1.738,7.956,2.344
		c7.285,1.521,15.487,3.232,18.239,15.771c2.757-12.539,10.964-14.25,18.253-15.771c2.893-0.605,5.623-1.176,7.961-2.344
		c3.607-1.803,9.641-6.889,6.645-13.236c-1.02-2.162-4.863-3.092-5.625-3.256c-0.08-0.014-0.172-0.033-0.264-0.053
		c-0.232-0.051-0.383-0.277-0.336-0.512c0.045-0.232,0.268-0.389,0.504-0.348c0,0,0.102,0.018,0.283,0.057
		c0.504,0.096,1.018,0.145,1.516,0.145c1.998,0,3.811-0.797,5.234-2.303c2.143-2.262,3.244-5.889,3.021-9.947
		c-0.229-4.174-1.455-6.29-3.645-6.29c-2.799,0-6.223,3.256-6.256,3.289c-0.174,0.166-0.449,0.16-0.617-0.011
		c-0.168-0.173-0.166-0.448,0.006-0.617c9.176-9.056,7.391-19.85,4.396-23.616c-2.221-2.794-5.906-3.381-8.607-3.381
		c-1.873,0-3.881,0.271-5.969,0.801c-3.458,0.883-6.357,1.311-8.86,1.311c-3.346,0-5.915-0.8-7.642-2.377
		c-1.726,1.577-4.291,2.377-7.635,2.377c-2.5,0-5.397-0.428-8.858-1.311c-2.163-0.551-4.231-0.831-6.146-0.831
		c-2.705,0-6.359,0.59-8.408,3.397c-1.296,1.78-1.713,3.75-1.241,5.855c0.641,2.859,3.271,7.288,12.161,12.149l0.567,0.308
		c0.21,0.11,0.292,0.368,0.185,0.58c-0.105,0.213-0.362,0.302-0.576,0.201c-0.063-0.03-0.181-0.094-0.346-0.186l-0.249-0.135
		l-0.002-0.002c-3.079-1.672-5.839-2.521-8.2-2.521c-4.059,0-6.639,2.593-7.661,7.706c-0.646,3.225-0.61,9.634,2.236,13.108
		c1.632,1.994,3.988,2.748,6.974,2.242C12.102,45.636,12.126,45.634,12.152,45.634"/>
	<polygon fill="#FFFFFF" points="10.923,56.447 11.375,56.447 11.375,53.707 10.923,53.707 10.923,53.101 12.576,53.101 
		12.576,53.707 12.053,53.707 12.053,56.453 13.14,56.453 13.14,55.894 13.794,55.894 13.794,57.054 10.923,57.054 	"/>
	<path fill="#FFFFFF" d="M13.743,54.662c0.379-0.299,0.564-0.588,0.577-0.756c-0.211-0.061-0.349-0.223-0.349-0.445
		c0-0.229,0.204-0.432,0.463-0.432s0.486,0.186,0.486,0.559c0,0.348-0.246,0.877-0.997,1.309L13.743,54.662z"/>
	<path fill="#FFFFFF" d="M15.347,56.447h0.451v-2.74h-0.451v-0.605h2.95v1.129h-0.649v-0.529h-1.171v1.057h1.194v0.578h-1.194v1.117
		h1.177v-0.529h0.65v1.131h-2.957V56.447z M16.61,52.554l0.66-0.9c0.09-0.115,0.21-0.188,0.331-0.188
		c0.161,0,0.293,0.133,0.293,0.307c0,0.115-0.061,0.234-0.186,0.33l-0.896,0.65L16.61,52.554z"/>
	<path fill="#FFFFFF" d="M18.75,55.078c0-1.189,0.925-2.049,2.079-2.049c0.918,0,1.531,0.48,1.531,0.955
		c0,0.287-0.187,0.486-0.433,0.486c-0.271,0-0.456-0.168-0.456-0.426c0-0.078,0.019-0.156,0.042-0.205
		c-0.114-0.09-0.343-0.18-0.703-0.18c-0.769,0-1.357,0.588-1.357,1.412c0,0.793,0.553,1.422,1.387,1.422
		c0.463,0,0.842-0.203,1.137-0.521l0.45,0.469c-0.385,0.426-0.955,0.684-1.587,0.684C19.621,57.125,18.75,56.308,18.75,55.078"/>
	<path fill="#FFFFFF" d="M22.849,55.078c0-1.16,0.842-2.049,2.042-2.049c1.196,0,2.013,0.895,2.013,2.049
		c0,1.16-0.841,2.047-2.043,2.047C23.666,57.125,22.849,56.23,22.849,55.078 M26.201,55.078c0-0.824-0.558-1.418-1.32-1.418
		c-0.77,0-1.328,0.588-1.328,1.418c0,0.822,0.559,1.416,1.328,1.416C25.643,56.494,26.201,55.906,26.201,55.078"/>
	<polygon fill="#FFFFFF" points="27.404,56.447 27.856,56.447 27.856,53.707 27.404,53.707 27.404,53.101 29.057,53.101 
		29.057,53.707 28.535,53.707 28.535,56.453 29.621,56.453 29.621,55.894 30.276,55.894 30.276,57.054 27.404,57.054 	"/>
	<polygon fill="#FFFFFF" points="30.699,56.447 31.15,56.447 31.15,53.707 30.699,53.707 30.699,53.101 33.649,53.101 33.649,54.23 
		33,54.23 33,53.701 31.829,53.701 31.829,54.757 33.023,54.757 33.023,55.335 31.829,55.335 31.829,56.453 33.005,56.453 
		33.005,55.923 33.656,55.923 33.656,57.054 30.699,57.054 	"/>
	<path fill="#FFFFFF" d="M35.49,56.447h0.45v-2.74h-0.45v-0.605h1.495c1.43,0,2.277,0.746,2.277,1.939
		c0,1.207-0.8,2.014-2.349,2.014H35.49V56.447z M37.009,56.447c1.021,0,1.551-0.553,1.551-1.4c0-0.863-0.615-1.34-1.599-1.34h-0.343
		v2.74H37.009z"/>
	<polygon fill="#FFFFFF" points="39.763,56.447 40.214,56.447 40.214,53.707 39.763,53.707 39.763,53.101 42.714,53.101 
		42.714,54.23 42.064,54.23 42.064,53.701 40.893,53.701 40.893,54.757 42.087,54.757 42.087,55.335 40.893,55.335 40.893,56.453 
		42.07,56.453 42.07,55.923 42.719,55.923 42.719,57.054 39.763,57.054 	"/>
	<polygon fill="#FFFFFF" points="44.554,56.447 45.004,56.447 45.004,53.707 44.554,53.707 44.554,53.101 46.206,53.101 
		46.206,53.707 45.684,53.707 45.684,56.453 46.771,56.453 46.771,55.894 47.425,55.894 47.425,57.054 44.554,57.054 	"/>
	<path fill="#FFFFFF" d="M47.373,54.662c0.379-0.299,0.565-0.588,0.576-0.756c-0.209-0.061-0.347-0.223-0.347-0.445
		c0-0.229,0.204-0.432,0.462-0.432s0.486,0.186,0.486,0.559c0,0.348-0.246,0.877-0.998,1.309L47.373,54.662z"/>
	<polygon fill="#FFFFFF" points="48.978,56.447 49.458,56.447 49.458,53.707 48.978,53.707 48.978,53.101 50.618,53.101 
		50.618,53.707 50.137,53.707 50.137,56.447 50.618,56.447 50.618,57.054 48.978,57.054 	"/>
	<polygon fill="#FFFFFF" points="51.034,56.447 51.501,56.447 51.628,53.707 51.136,53.707 51.136,53.101 52.217,53.101 
		53.431,55.298 54.644,53.101 55.718,53.101 55.718,53.707 55.226,53.707 55.352,56.447 55.821,56.447 55.821,57.054 54.199,57.054 
		54.199,56.447 54.674,56.447 54.595,54.41 53.467,56.392 53.376,56.392 52.247,54.41 52.169,56.447 52.643,56.447 52.643,57.054 
		51.034,57.054 	"/>
	<path fill="#FFFFFF" d="M56.04,56.447h0.344l0.984-2.746h-0.432v-0.6h2.234v0.6h-0.434l0.986,2.746h0.342v0.607h-1.52v-0.602h0.455
		l-0.223-0.648h-1.477l-0.223,0.648h0.48v0.602h-1.52V56.447z M58.593,55.24l-0.553-1.557l-0.553,1.557H58.593z"/>
	<path fill="#FFFFFF" d="M60.302,55.089c0-1.221,0.924-2.061,2.078-2.061c0.92,0,1.531,0.48,1.531,0.955
		c0,0.287-0.186,0.486-0.432,0.486c-0.27,0-0.457-0.168-0.457-0.426c0-0.078,0.02-0.156,0.043-0.205
		c-0.115-0.09-0.344-0.18-0.703-0.18c-0.77,0-1.357,0.57-1.357,1.422c0,0.873,0.631,1.432,1.297,1.432
		c0.414,0,0.703-0.092,0.955-0.254v-0.678h-0.984v-0.576h1.65v2.049h-0.646v-0.297c-0.277,0.217-0.631,0.367-1.076,0.367
		C61.226,57.125,60.302,56.357,60.302,55.089"/>
	<polygon fill="#FFFFFF" points="64.61,56.447 65.063,56.447 65.063,53.707 64.61,53.707 64.61,53.101 67.562,53.101 67.562,54.23 
		66.913,54.23 66.913,53.701 65.741,53.701 65.741,54.757 66.937,54.757 66.937,55.335 65.741,55.335 65.741,56.453 66.919,56.453 
		66.919,55.923 67.567,55.923 67.567,57.054 64.61,57.054 	"/>
	<polygon fill="#FFFFFF" points="28.853,14.026 28.853,16.146 29.345,16.146 29.345,16.753 27.742,16.753 27.742,16.146 
		28.192,16.146 28.192,13.407 27.742,13.407 27.742,12.8 28.769,12.8 30.714,15.28 30.714,13.407 30.223,13.407 30.223,12.8 
		31.808,12.8 31.808,13.407 31.375,13.407 31.375,16.759 31.009,16.771 	"/>
	<path fill="#FFFFFF" d="M32.064,16.146h0.342l0.984-2.745h-0.432V12.8h2.234v0.602H34.76l0.985,2.745h0.342v0.606h-1.52v-0.602
		h0.457l-0.222-0.648h-1.478l-0.223,0.648h0.479v0.602h-1.519V16.146z M34.617,14.938l-0.553-1.555l-0.553,1.555H34.617z"/>
	<polygon fill="#FFFFFF" points="37.502,14.026 37.502,16.146 37.996,16.146 37.996,16.753 36.391,16.753 36.391,16.146 
		36.841,16.146 36.841,13.407 36.391,13.407 36.391,12.8 37.418,12.8 39.365,15.28 39.365,13.407 38.873,13.407 38.873,12.8 
		40.458,12.8 40.458,13.407 40.025,13.407 40.025,16.759 39.659,16.771 	"/>
	<polygon fill="#FFFFFF" points="41.657,16.146 42.148,16.146 42.148,13.39 41.416,13.39 41.416,14.014 40.773,14.014 40.773,12.8 
		44.203,12.8 44.203,14.014 43.561,14.014 43.561,13.39 42.828,13.39 42.828,16.146 43.32,16.146 43.32,16.753 41.657,16.753 	"/>
	<polygon fill="#FFFFFF" points="44.566,16.146 45.016,16.146 45.016,13.407 44.566,13.407 44.566,12.8 47.515,12.8 47.515,13.93 
		46.866,13.93 46.866,13.401 45.695,13.401 45.695,14.458 46.89,14.458 46.89,15.035 45.695,15.035 45.695,16.151 46.872,16.151 
		46.872,15.624 47.521,15.624 47.521,16.753 44.566,16.753 	"/>
	<path fill="#FFFFFF" d="M47.962,15.906c0-0.282,0.168-0.47,0.414-0.47c0.264,0,0.433,0.199,0.433,0.391
		c0,0.097-0.019,0.169-0.055,0.24c0.145,0.103,0.367,0.169,0.625,0.169c0.434,0,0.708-0.192,0.708-0.534
		c0-0.324-0.329-0.48-0.727-0.619c-0.731-0.265-1.248-0.498-1.248-1.231c0-0.63,0.51-1.123,1.309-1.123
		c0.738,0,1.31,0.378,1.31,0.853c0,0.283-0.175,0.445-0.402,0.445c-0.277,0-0.433-0.204-0.433-0.402
		c0-0.096,0.018-0.139,0.042-0.188c-0.107-0.065-0.275-0.118-0.522-0.118c-0.39,0-0.619,0.197-0.619,0.485
		c0,0.324,0.33,0.468,0.728,0.613c0.709,0.251,1.243,0.498,1.243,1.23c0,0.751-0.583,1.178-1.393,1.178
		C48.592,16.825,47.962,16.387,47.962,15.906"/>
	<path fill="#FFFFFF" d="M39.277,85.671L39.277,85.671c-1.043,0-1.912-0.748-2.067-1.779c-1.944-12.951-9.106-14.447-16.688-16.031
		c-2.922-0.609-5.941-1.24-8.57-2.557c-9.335-4.668-9.959-12.449-8.102-16.541c0.303-0.666,0.779-1.291,1.421-1.861
		C4.48,46.394,3.768,45.757,3.149,45c-3.424-4.177-3.526-11.382-2.76-15.206c1.412-7.051,5.285-9.191,8.627-9.64
		c-2.422-2.417-3.932-4.907-4.494-7.414C3.894,9.936,4.468,7.206,6.187,4.845c2.117-2.902,5.732-4.436,10.451-4.436
		c2.124,0,4.402,0.305,6.77,0.908c3.254,0.829,5.947,1.231,8.235,1.231c2.841,0,4.905-0.643,6.131-1.912
		C38.166,0.233,38.712,0.001,39.276,0c0.563,0,1.111,0.232,1.503,0.637c1.229,1.269,3.295,1.912,6.14,1.912
		c2.289,0,4.983-0.402,8.235-1.231c2.292-0.583,4.511-0.879,6.593-0.879c4.672,0,8.332,1.5,10.586,4.336
		c3.246,4.083,4.4,12.18,0.512,19.999c2.594,0.007,5.756,1.524,6.148,8.681c0.262,4.748-1.092,9.058-3.709,11.823
		c-0.645,0.684-1.357,1.26-2.121,1.725c0.543,0.529,0.965,1.107,1.258,1.727c1.676,3.549,2.201,11.58-7.799,16.576
		c-2.631,1.316-5.652,1.947-8.576,2.557c-7.587,1.584-14.753,3.08-16.702,16.031C41.192,84.908,40.303,85.671,39.277,85.671
		 M16.638,1.282c-4.429,0-7.799,1.41-9.744,4.078c-1.565,2.15-2.091,4.637-1.52,7.189c0.576,2.562,2.235,5.131,4.934,7.634
		c0.129,0.12,0.174,0.306,0.113,0.471c-0.061,0.166-0.215,0.278-0.391,0.286c-3.212,0.146-7.344,1.83-8.784,9.025
		c-0.733,3.66-0.653,10.537,2.578,14.481c0.689,0.84,1.502,1.518,2.414,2.012c0.131,0.07,0.217,0.203,0.229,0.352
		c0.011,0.148-0.055,0.293-0.173,0.383c-0.779,0.586-1.333,1.236-1.648,1.934C2.929,52.908,3.56,60.13,12.342,64.523
		c2.528,1.266,5.49,1.885,8.356,2.482c7.89,1.648,15.342,3.203,17.376,16.756c0.09,0.6,0.595,1.035,1.202,1.035
		c0.597,0,1.113-0.443,1.202-1.035c2.038-13.553,9.494-15.107,17.389-16.756c2.867-0.598,5.832-1.217,8.363-2.482
		c9.393-4.695,8.947-12.141,7.398-15.422c-0.316-0.67-0.818-1.289-1.492-1.844c-0.111-0.094-0.17-0.238-0.156-0.383
		c0.016-0.146,0.104-0.275,0.232-0.344c0.887-0.459,1.705-1.084,2.436-1.855c2.453-2.591,3.719-6.665,3.471-11.173
		c-0.283-5.138-2.111-7.853-5.295-7.853c-0.217,0-0.441,0.014-0.67,0.041c-0.16,0.021-0.322-0.053-0.414-0.187
		c-0.092-0.136-0.102-0.312-0.023-0.454c4.133-7.697,3.094-15.752-0.068-19.731c-2.084-2.62-5.508-4.005-9.902-4.005
		c-2.01,0-4.156,0.286-6.378,0.852c-3.322,0.847-6.087,1.259-8.45,1.259c-3.091,0-5.368-0.733-6.768-2.179
		c-0.456-0.471-1.293-0.471-1.748,0c-1.397,1.445-3.672,2.179-6.76,2.179c-2.362,0-5.126-0.412-8.45-1.259
		C20.895,1.58,18.69,1.282,16.638,1.282"/>
	<path fill="#FFFFFF" d="M39.277,84.019L39.277,84.019c-0.217,0-0.4-0.158-0.434-0.373C36.73,69.558,28.662,67.873,20.859,66.244
		c-2.947-0.615-5.732-1.197-8.169-2.416c-3.924-1.963-6.53-4.691-7.541-7.889c-0.83-2.625-0.438-5.074,0.206-6.492
		c0.602-1.326,2.194-2.26,3.68-2.871c-1.857-0.273-3.402-1.152-4.607-2.623c-3.061-3.734-3.122-10.319-2.418-13.834
		c0.769-3.836,2.87-8.409,8.52-8.409c1.107,0,2.291,0.172,3.545,0.515c-4.477-3.168-7.192-6.52-7.938-9.845
		c-0.522-2.327-0.042-4.597,1.388-6.562c1.793-2.458,4.945-3.756,9.115-3.756c1.987,0,4.127,0.288,6.362,0.858
		c3.388,0.862,6.216,1.282,8.642,1.282c3.308,0,5.771-0.812,7.32-2.416c0.165-0.168,0.464-0.17,0.629,0
		c1.552,1.604,4.018,2.416,7.327,2.416c2.43,0,5.257-0.42,8.643-1.282c2.161-0.55,4.243-0.829,6.186-0.829
		c4.15,0,7.363,1.284,9.293,3.712c3.377,4.249,4.201,13.614-1.84,21.765c1.121-0.632,2.404-1.141,3.625-1.141
		c2.74,0,4.26,2.395,4.518,7.117c0.234,4.297-0.953,8.16-3.26,10.596c-1.275,1.348-2.828,2.188-4.549,2.469
		c1.355,0.596,2.768,1.502,3.391,2.826c1.438,3.041,1.814,9.965-7.041,14.393c-2.441,1.219-5.225,1.801-8.174,2.416
		c-7.809,1.629-15.882,3.314-18,17.402C39.677,83.861,39.494,84.019,39.277,84.019 M12.152,45.634c0.205,0,0.39,0.148,0.429,0.357
		c0.044,0.234-0.11,0.463-0.345,0.51c-0.05,0.01-5.055,1.035-6.085,3.309c-1.005,2.213-1.72,8.906,6.931,13.234
		c2.337,1.168,5.065,1.738,7.956,2.344c7.285,1.521,15.487,3.232,18.239,15.771c2.757-12.539,10.964-14.25,18.253-15.771
		c2.893-0.605,5.623-1.176,7.961-2.344c3.607-1.803,9.641-6.889,6.645-13.236c-1.02-2.162-4.863-3.092-5.625-3.256
		c-0.08-0.014-0.172-0.033-0.264-0.053c-0.232-0.051-0.383-0.277-0.336-0.512c0.045-0.232,0.268-0.389,0.504-0.348
		c0,0,0.102,0.018,0.283,0.057c0.504,0.096,1.018,0.145,1.516,0.145c1.998,0,3.811-0.797,5.234-2.303
		c2.143-2.262,3.244-5.889,3.021-9.947c-0.229-4.174-1.455-6.29-3.645-6.29c-2.799,0-6.223,3.256-6.256,3.289
		c-0.174,0.166-0.449,0.16-0.617-0.011c-0.168-0.173-0.166-0.448,0.006-0.617c9.176-9.056,7.391-19.85,4.396-23.616
		c-2.221-2.794-5.906-3.381-8.607-3.381c-1.873,0-3.881,0.271-5.969,0.801c-3.458,0.883-6.357,1.311-8.86,1.311
		c-3.346,0-5.915-0.8-7.642-2.377c-1.726,1.577-4.291,2.377-7.635,2.377c-2.5,0-5.397-0.428-8.858-1.311
		c-2.163-0.551-4.231-0.831-6.146-0.831c-2.705,0-6.359,0.59-8.408,3.397c-1.296,1.78-1.713,3.75-1.241,5.855
		c0.641,2.859,3.271,7.288,12.161,12.149l0.567,0.308c0.21,0.11,0.292,0.368,0.185,0.58c-0.105,0.213-0.362,0.302-0.576,0.201
		c-0.063-0.03-0.181-0.094-0.346-0.186l-0.249-0.135l-0.002-0.002c-3.079-1.672-5.839-2.521-8.2-2.521
		c-4.059,0-6.639,2.593-7.661,7.706c-0.646,3.225-0.61,9.634,2.236,13.108c1.632,1.994,3.988,2.748,6.974,2.242
		C12.102,45.636,12.126,45.634,12.152,45.634"/>
	<path fill="#FFFFFF" d="M22.869,35.113c1.097-3.515-1.142-7.835-3.347-9.548c-2.208,1.713-4.45,6.033-3.353,9.548H22.869z
		 M19.522,26.744c1.64,1.634,3.149,4.785,2.657,7.483H16.86C16.367,31.529,17.88,28.378,19.522,26.744"/>
	<path fill="#FFFFFF" d="M24.742,34.935c0.906-4.303-1.817-9.164-4.455-10.991c-0.441-0.308-1.085-0.306-1.527-0.001
		c-2.642,1.827-5.369,6.688-4.463,10.99c-3.36,2.264-4.609,6.389-3.432,11.502c0.141,0.613,0.686,1.027,1.288,1.027
		c0.099,0,0.198-0.012,0.298-0.035c0.712-0.164,1.156-0.873,0.992-1.586c-0.569-2.467-0.937-6.857,2.762-8.968h6.628
		c3.686,2.112,3.323,6.501,2.759,8.97c-0.164,0.713,0.281,1.422,0.993,1.586c0.716,0.164,1.422-0.283,1.585-0.994
		C29.338,41.321,28.09,37.196,24.742,34.935 M27.306,46.236l-0.853-0.195c0.63-2.756,1.019-7.708-3.38-10.053h-7.11
		c-4.413,2.346-4.019,7.297-3.384,10.053l-0.852,0.197c-1.148-4.985,0.158-8.931,3.586-10.895c-1.25-4.067,1.396-8.906,3.949-10.673
		l0.111-0.077h0.274l0.134,0.078c2.549,1.766,5.19,6.604,3.941,10.672C27.141,37.307,28.445,41.253,27.306,46.236"/>
	<path fill="#FFFFFF" d="M47.844,35.011c-0.213-0.476-0.686-0.783-1.206-0.783h-7.376c-0.729,0-1.322,0.593-1.322,1.323
		c0,0.729,0.593,1.322,1.322,1.322h6.466c0.703,2.206,0.35,4.638-0.962,6.261c-1.224,1.512-3.077,2.098-5.217,1.643
		c-0.182-0.037-0.368-0.037-0.55,0c-2.141,0.455-3.992-0.131-5.215-1.643c-1.469-1.819-1.736-4.649-0.664-7.043
		c0.153-0.344,0.153-0.736,0-1.08c-1.072-2.395-0.805-5.226,0.664-7.043c1.209-1.498,3.034-2.086,5.146-1.658
		c0.195,0.051,0.4,0.061,0.602,0.021c2.541-0.505,4.445,0.183,5.232,1.884c0.034,0.076,0.069,0.184,0.08,0.226
		c0.179,0.708,0.896,1.133,1.607,0.958c0.708-0.18,1.136-0.9,0.957-1.608c-0.016-0.058-0.097-0.368-0.244-0.685
		c-1.27-2.75-4.271-4.049-7.877-3.42c-3.02-0.559-5.761,0.392-7.562,2.62c-1.998,2.474-2.464,6.046-1.245,9.246
		c-1.219,3.2-0.753,6.772,1.245,9.246c1.798,2.225,4.538,3.174,7.548,2.623c0.562,0.104,1.112,0.152,1.65,0.152
		c2.349,0,4.434-0.965,5.897-2.775C48.935,42.183,49.335,38.342,47.844,35.011 M46.133,44.242c-1.288,1.594-3.136,2.443-5.222,2.443
		c-0.531,0-1.079-0.055-1.637-0.168c-2.746,0.555-5.241-0.273-6.859-2.275c-1.867-2.312-2.244-5.704-0.979-8.691
		c-1.265-2.987-0.888-6.38,0.979-8.689c1.619-2.006,4.119-2.834,6.868-2.275c3.309-0.628,5.952,0.448,7.079,2.89
		c0.116,0.252,0.182,0.504,0.188,0.531l-0.846,0.217c0,0-0.053-0.2-0.137-0.381c-0.957-2.073-3.277-2.963-6.208-2.381l-0.522,0.104
		v-0.173c-2.339-0.396-4.367,0.316-5.741,2.019c-1.699,2.104-2.007,5.229-0.783,7.961l0.08,0.179l-0.08,0.179
		c-1.224,2.732-0.916,5.857,0.783,7.961c1.442,1.785,3.604,2.479,6.087,1.953l0.092-0.02l0.092,0.02
		c2.483,0.525,4.645-0.168,6.087-1.953c1.646-2.038,1.987-5.034,0.896-7.704h-7.087v-0.874h7.659l0.115,0.259
		C48.392,38.402,48.039,41.884,46.133,44.242"/>
	<path fill="#FFFFFF" d="M64.267,33.778c1.154-0.946,1.693-2.143,1.559-3.457l-0.023-0.227l0.043-0.035
		c0.07-1.248-0.471-2.381-1.574-3.287c-2.438-1.997-7.088-2.582-11.167-1.426v9.859C57.183,36.36,61.831,35.776,64.267,33.778
		 M53.986,26.032c3.654-0.855,7.619-0.301,9.722,1.425c0.902,0.741,1.322,1.617,1.248,2.604c-0.02,0.113-0.021,0.232-0.012,0.35
		c0.105,1.02-0.312,1.923-1.24,2.684c-2.102,1.726-6.064,2.281-9.718,1.426V26.032z"/>
	<path fill="#FFFFFF" d="M60.708,37.222c1.824-0.382,3.455-1.083,4.674-2.082c1.564-1.283,2.346-2.996,2.209-4.838
		c0.154-1.861-0.627-3.594-2.205-4.889c-2.967-2.436-8.357-3.117-13.11-1.657c-0.554,0.171-0.934,0.683-0.934,1.264v10.399
		c-0.005,0.049-0.001,0.098,0,0.146v0.01c0.001,0.023-0.003,0.047,0,0.07v10.422c0,0.73,0.593,1.322,1.322,1.322
		c0.73,0,1.321-0.592,1.321-1.322v-8.616c0.171,0.06,0.342,0.119,0.521,0.184c4.293,1.515,11.479,4.049,10.561,8.186
		c-0.158,0.713,0.291,1.418,1.004,1.578c0.098,0.021,0.193,0.031,0.289,0.031c0.605,0,1.152-0.42,1.289-1.035
		C68.638,41.949,64.839,39.133,60.708,37.222 M66.784,46.203l-0.852-0.189c1.088-4.902-6.266-7.497-11.132-9.212
		c-0.629-0.223-1.194-0.423-1.698-0.612v9.879h-0.875V24.697l0.309-0.095c4.415-1.355,9.581-0.728,12.29,1.494
		c1.387,1.137,2.033,2.59,1.877,4.2c0.143,1.595-0.508,3.031-1.883,4.157c-1.822,1.496-4.764,2.268-7.84,2.199
		C61.767,38.421,67.89,41.231,66.784,46.203"/>
	<path fill="#FFFFFF" d="M20.889,25.03c0,0.766-0.623,1.381-1.378,1.381c-0.757,0-1.38-0.615-1.38-1.381
		c0-0.758,0.623-1.373,1.38-1.373C20.266,23.657,20.889,24.272,20.889,25.03"/>
	<path fill="#FFFFFF" d="M23.881,35.552c0,0.382-0.312,0.69-0.691,0.69c-0.374,0-0.69-0.309-0.69-0.69
		c0-0.375,0.316-0.691,0.69-0.691C23.57,34.86,23.881,35.177,23.881,35.552"/>
	<path fill="#FFFFFF" d="M16.536,35.552c0,0.382-0.306,0.69-0.688,0.69c-0.381,0-0.688-0.309-0.688-0.69
		c0-0.375,0.307-0.691,0.688-0.691C16.23,34.86,16.536,35.177,16.536,35.552"/>
	<path fill="#FFFFFF" d="M28.276,46.068c0,0.762-0.612,1.381-1.378,1.381c-0.757,0-1.376-0.619-1.376-1.381
		c0-0.758,0.619-1.373,1.376-1.373C27.664,44.695,28.276,45.31,28.276,46.068"/>
	<path fill="#FFFFFF" d="M13.528,46.068c0,0.762-0.62,1.381-1.374,1.381c-0.762,0-1.38-0.619-1.38-1.381
		c0-0.758,0.618-1.373,1.38-1.373C12.908,44.695,13.528,45.31,13.528,46.068"/>
	<path fill="#FFFFFF" d="M40.638,25.03c0,0.766-0.613,1.381-1.374,1.381c-0.759,0-1.378-0.615-1.378-1.381
		c0-0.758,0.619-1.373,1.378-1.373C40.025,23.657,40.638,24.272,40.638,25.03"/>
	<path fill="#FFFFFF" d="M33.286,35.55c0,0.762-0.61,1.377-1.372,1.377s-1.374-0.615-1.374-1.377c0-0.754,0.612-1.374,1.374-1.374
		S33.286,34.796,33.286,35.55"/>
	<path fill="#FFFFFF" d="M39.952,35.552c0,0.382-0.309,0.69-0.691,0.69c-0.379,0-0.688-0.309-0.688-0.69
		c0-0.375,0.309-0.691,0.688-0.691C39.643,34.86,39.952,35.177,39.952,35.552"/>
	<path fill="#FFFFFF" d="M46.818,28.111c0,0.383-0.312,0.69-0.691,0.69c-0.376,0-0.689-0.308-0.689-0.69
		c0-0.376,0.313-0.684,0.689-0.684C46.506,27.428,46.818,27.735,46.818,28.111"/>
	<path fill="#FFFFFF" d="M48.018,35.55c0,0.762-0.616,1.377-1.378,1.377s-1.377-0.615-1.377-1.377c0-0.754,0.615-1.374,1.377-1.374
		S48.018,34.796,48.018,35.55"/>
	<path fill="#FFFFFF" d="M67.716,46.068c0,0.762-0.611,1.381-1.377,1.381c-0.758,0-1.377-0.619-1.377-1.381
		c0-0.758,0.619-1.373,1.377-1.373C67.104,44.695,67.716,45.31,67.716,46.068"/>
	<path fill="#FFFFFF" d="M54.044,46.068c0,0.762-0.62,1.381-1.374,1.381c-0.761,0-1.38-0.619-1.38-1.381
		c0-0.758,0.619-1.373,1.38-1.373C53.424,44.695,54.044,45.31,54.044,46.068"/>
	<path fill="#FFFFFF" d="M53.351,35.552c0,0.382-0.306,0.69-0.688,0.69c-0.379,0-0.685-0.309-0.685-0.69
		c0-0.375,0.306-0.691,0.685-0.691C53.045,34.86,53.351,35.177,53.351,35.552"/>
	<path fill="#FFFFFF" d="M54.04,25.033c0,0.759-0.616,1.374-1.376,1.374c-0.756,0-1.373-0.615-1.373-1.374
		c0-0.757,0.617-1.376,1.373-1.376C53.423,23.657,54.04,24.276,54.04,25.033"/>
	<path fill="#FFFFFF" d="M67.642,30.275c0,0.765-0.621,1.38-1.379,1.38c-0.762,0-1.379-0.615-1.379-1.38
		c0-0.759,0.617-1.374,1.379-1.374C67.021,28.901,67.642,29.517,67.642,30.275"/>
	<path fill="#FFFFFF" d="M40.639,46.074c0,0.76-0.619,1.375-1.38,1.375c-0.759,0-1.374-0.615-1.374-1.375
		c0-0.756,0.615-1.381,1.374-1.381C40.02,44.693,40.639,45.318,40.639,46.074"/>
</g>
</svg>
