<?xml version="1.0" encoding="utf-8"?>
<!-- Generator: Adobe Illustrator 15.1.0, SVG Export Plug-In . SVG Version: 6.00 Build 0)  -->
<!DOCTYPE svg PUBLIC "-//W3C//DTD SVG 1.1//EN" "http://www.w3.org/Graphics/SVG/1.1/DTD/svg11.dtd">
<svg version="1.1" id="Calque_2" xmlns="http://www.w3.org/2000/svg" xmlns:xlink="http://www.w3.org/1999/xlink" x="0px" y="0px"
	 width="722.982px" height="198.292px" viewBox="0 0 722.982 198.292" enable-background="new 0 0 722.982 198.292"
	 xml:space="preserve">
<g>
	<g>
		<path fill-rule="evenodd" clip-rule="evenodd" fill="#FFFFFF" d="M663.027,0c5.412,0,10.824,0,16.238,0
			c-0.352,15.076-1.057,28.612-1.875,42.468c13.666-5.07,27.049-10.424,40.596-15.613c1.461,5.824,4.016,10.557,4.996,16.862
			c-13.834,3.237-26.832,7.31-39.971,11.241c6.773,10.715,18.432,21.954,26.23,33.725c-5.395,2.726-9.121,7.117-14.365,9.992
			c-7.584-12.4-15.713-24.256-23.73-36.223c-7.979,12.008-15.094,24.876-23.732,36.223c-4.012-4.107-9.756-6.482-13.115-11.241
			c6.283-8.045,13.902-16.662,19.984-24.356c2.121-2.682,4.689-5.567,4.996-8.743c-13.832-3.237-26.83-7.31-39.969-11.241
			c2.195-5.091,2.404-12.169,5.621-16.238c12.734,5.793,26.779,10.274,39.969,15.613C664.63,28.741,663.605,13.026,663.027,0z"/>
		<path fill-rule="evenodd" clip-rule="evenodd" fill="#FFFFFF" d="M100.953,19.984c3.25-0.394,1.874,6.866,1.874,11.242
			c0,11.669,0.872,23.902,0,36.223c-0.098,1.382,1.21,5.508-1.874,4.996c-3.819,0.335-3.133-6.2-3.747-9.368
			C92.447,38.54,76.477,14.98,42.872,18.111c-17.343,1.616-30.161,14.857-31.851,31.227C9.4,65.041,14.197,76.059,24.761,81.188
			c18.449,8.959,47.518,7.81,66.2,17.486c7.1,3.679,13.96,9.871,17.487,17.487c9.851,21.272,3.376,54.446-11.242,68.697
			c-15.141,14.762-44.833,17.183-67.449,8.119c-4.989-1.999-21.451-13.199-24.981-3.122c-0.212,2.702,0.704,6.533-2.498,6.245
			c-3.399-0.392-1.8-4.892-1.874-6.87c-0.569-15.314-0.389-33.596,0-49.962c0.049-2.087-1.122-5.615,1.249-6.87
			c4.514-0.359,2.733,6.579,3.123,10.617c2.874,29.835,23.285,54.686,60.579,51.211c24.27-2.261,44.283-26.983,31.851-55.583
			c-12.458-28.659-73.367-14.143-90.556-42.468c-6.175-10.175-7.437-27.183-6.245-39.97c2.179-23.394,20.149-40.735,42.468-42.468
			c17.103-1.327,27.575,4.376,38.096,10.617c2.995,1.776,6.961,5.354,10.617,4.996c3.703-0.362,4.102-2.649,5.621-4.996
			C98.273,22.707,97.848,18.193,100.953,19.984z"/>
		<path fill-rule="evenodd" clip-rule="evenodd" fill="#FFFFFF" d="M196.505,74.318c12.523-0.399,29.821,3.651,36.847,12.491
			c2.88,3.623,5.419,10.003,4.372,16.237c-3.375,20.096-37.324,9.465-24.356-10.617c1.763-2.729,4.812-2.388,4.372-6.245
			c-0.659-5.768-15.77-8.41-25.605-7.494c-28.636,2.668-28.729,27.3-28.729,60.579c0,27.646,0.862,50.492,23.732,53.709
			c31.094,4.374,44.527-14.075,49.962-31.227c1.075-3.391-0.376-7.099,3.747-6.245c1.57,0.325,1.762-1.423,1.874,2.498
			c0.026,0.91-0.848,2.465-1.249,4.372c-4.233,20.106-20.066,34.216-42.468,35.598c-35.904,2.216-62.505-22.509-62.453-56.832
			c0.03-19.623,7.821-37.735,19.36-49.337C165.559,82.105,178.703,74.887,196.505,74.318z"/>
		<path fill-rule="evenodd" clip-rule="evenodd" fill="#FFFFFF" d="M384.488,181.737c3.697,0.609,0.068,4.537-0.625,5.621
			c-9.146,14.313-42.256,15-46.214-6.246c-4.254,2.586-6.429,6.929-11.242,9.993c-18.323,11.667-51.869,8.665-61.204-6.87
			c-7.908-13.162-2.552-32.397,8.744-41.219c14.385-11.234,38.688-13.598,62.453-14.364c-0.646-18.786,5.684-39.793-6.246-46.84
			c-10.004-5.908-42.337-2.753-43.092,8.744c-0.432,6.585,6.803,6.077,8.744,11.865c6.484,19.35-21.374,22.598-24.356,6.87
			c-4.777-25.187,24.316-35.478,42.468-35.598c15.798-0.105,29.148,5.122,37.472,12.49c3.584,3.173,8.447,10.198,9.367,16.862
			c2.006,14.518,0,32.54,0,48.089c0,12.513-3.947,39.64,7.494,40.594c7.074,0.59,9.604-4.99,13.115-8.743
			C381.888,182.429,383.302,179.205,384.488,181.737z M289.56,148.638c-5.547,11.268-4.288,33.097,4.372,39.345
			c13.837,9.983,40.309-2.229,43.092-16.237c2.467-12.417-1.85-24.517,0-38.097C315.304,133.134,296.5,134.539,289.56,148.638z"/>
		<path fill-rule="evenodd" clip-rule="evenodd" fill="#FFFFFF" d="M516.888,103.047c3.506-3.569,4.4-8.444,6.869-11.866
			c1.846-2.56,4.496-5.443,6.869-7.494c14.572-12.593,43.607-13.226,56.832,0c17.947,17.947,4.492,73.877,8.744,106.17
			c3.287,0.018,8.145-0.023,12.49,0c3.314,0.018,9.584-1.708,9.367,2.498c0.512,4.174-5.137,2.402-6.869,2.498
			c-16.373,0.897-36.328,0.713-53.709,0c-1.861-0.076-6.611,1.508-6.869-1.874c-0.846-4.924,5.689-3.103,9.367-3.122
			c4.434-0.024,9.191,0.019,12.49,0c-1.912-30.37,2.553-64.417,0-91.806c-1.381-14.825-13.295-23.784-28.729-17.487
			c-11.059,4.513-23.613,20.149-26.23,34.35c-1.658,9.004,0,23.631,0,36.223c0,13.127,0,26.251,0,38.721
			c3.842,0.895,22.33-2.246,21.234,2.498c-0.811,3.513-2.793,2.254-6.869,2.498c-17.111,1.022-36.734,0.796-53.709,0
			c-2.59-0.122-6.609,1.192-6.871-1.874c-0.688-4.785,5.74-3.085,9.369-3.122c4.371-0.046,9.217,0.035,12.49,0
			c1.133-14.253,0.625-30.428,0.625-46.84s1.373-33.547,0-47.464c-1.691-17.113-19.174-21.842-34.975-11.866
			c-7.213,4.555-18.936,18.939-20.609,28.104c-2.086,11.426,0,27.115,0,39.346c0,13.205,0,25.642,0,38.721
			c3.129,0.018,7.617-0.023,11.867,0c3.354,0.018,9.613-1.701,9.367,2.498c0.516,4.14-4.812,2.385-6.869,2.498
			c-16.273,0.893-36.447,1.181-53.711,0c-1.602-0.11-7.025,1.539-6.244-2.498c-0.246-4.199,6.014-2.48,9.367-2.498
			c4.25-0.023,8.738,0.018,11.867,0c1.457-33.725,0.207-70.155,0.623-104.921c-3.467,0-7.84,0-11.865,0
			c-3.541,0-8.205,1.044-9.992-1.249c-1.123-5.023,4.479-3.538,6.869-3.747c15.023-1.316,31.695,3.187,38.721-4.996
			c0,8.535,0,17.07,0,25.605c4.602-4.146,7.436-11.53,13.74-16.862C470.57,67.928,516.708,70.203,516.888,103.047z"/>
	</g>
</g>
</svg>
