<?xml version="1.0" encoding="utf-8"?>
<!-- Generator: Adobe Illustrator 15.1.0, SVG Export Plug-In . SVG Version: 6.00 Build 0)  -->
<!DOCTYPE svg PUBLIC "-//W3C//DTD SVG 1.1//EN" "http://www.w3.org/Graphics/SVG/1.1/DTD/svg11.dtd">
<svg version="1.1" id="Calque_1" xmlns="http://www.w3.org/2000/svg" xmlns:xlink="http://www.w3.org/1999/xlink" x="0px" y="0px"
	 width="78.343px" height="26.458px" viewBox="0 0 78.343 26.458" enable-background="new 0 0 78.343 26.458" xml:space="preserve">
<g>
	<path fill="#FFFFFF" d="M41.27,8.452c1.314,0,1.308,0,1.235-1.292c-0.012-0.229-0.09-0.277-0.296-0.274
		c-0.621,0.01-1.242,0.01-1.864,0c-0.203-0.004-0.284,0.037-0.295,0.268C39.982,8.452,39.976,8.452,41.27,8.452"/>
	<path fill="#FFFFFF" d="M17.165,12.549c-0.023-1.546-1.193-2.823-2.735-2.934c-1.39-0.101-2.786-0.057-4.18-0.014
		c-0.499,0.015-0.954,0.173-1.36,0.45c-0.203,0.137-0.347,0.151-0.552,0.006C7.935,9.77,7.474,9.611,6.979,9.604
		c-1.333-0.015-2.67-0.076-4-0.007C1.188,9.69,0.031,10.999,0.03,12.81c-0.002,4.275-0.001,8.551,0,12.828
		c0,0.127,0.01,0.252,0.019,0.438c0.697-0.37,1.326-0.724,1.977-1.035c0.288-0.139,0.378-0.303,0.377-0.617
		c-0.012-3.868-0.008-7.734-0.007-11.6c0.001-0.643,0.234-0.879,0.873-0.881c1.047-0.005,2.093-0.002,3.14-0.002
		c0.826,0,1.022,0.194,1.022,1.013c0.001,2.896-0.001,5.792,0.003,8.688c0,0.157-0.059,0.329,0.072,0.5
		c0.644-0.337,1.278-0.686,1.928-1.002c0.284-0.137,0.374-0.313,0.372-0.628c-0.014-2.547-0.009-5.094-0.008-7.642
		c0.001-0.723,0.201-0.927,0.913-0.928c1.031-0.003,2.062-0.001,3.093-0.001c0.83,0,1.029,0.204,1.029,1.055
		c0,1.742,0,3.483,0,5.289c0.739-0.391,1.4-0.755,2.074-1.088c0.218-0.107,0.268-0.242,0.267-0.462
		C17.166,15.338,17.186,13.944,17.165,12.549"/>
	<path fill="#FFFFFF" d="M32.18,21.313c1.183,0.007,2.365,0.001,3.548,0c0.273,0,0.543-0.029,0.808-0.1
		c1.432-0.385,2.289-1.575,2.291-3.206c0.005-2.835,0.002-5.672,0.002-8.507V6.906c0-2.032-0.012-4.063,0.01-6.097
		c0.004-0.389-0.109-0.493-0.482-0.466c-0.467,0.034-0.943,0.039-1.409-0.001c-0.408-0.035-0.5,0.099-0.497,0.498
		c0.019,2.775,0.005,5.551,0.016,8.325c0.003,0.317-0.064,0.385-0.394,0.376c-1.318-0.036-2.638-0.049-3.958-0.021
		c-1.774,0.039-3.024,1.354-3.025,3.128c-0.002,1.851-0.002,3.701,0,5.551C29.091,19.98,30.399,21.302,32.18,21.313 M32.269,11.881
		c1.123-0.004,2.245-0.004,3.367,0c0.579,0.001,0.821,0.244,0.824,0.832c0.005,0.895,0.001,1.79,0.001,2.685
		c0,0.894,0.004,1.791,0,2.685c-0.004,0.626-0.259,0.889-0.879,0.894c-1.092,0.006-2.184,0.006-3.276,0
		c-0.604-0.003-0.877-0.286-0.877-0.903c-0.003-1.774-0.003-3.548,0-5.323C31.427,12.137,31.676,11.882,32.269,11.881"/>
	<path fill="#FFFFFF" d="M78.292,12.652c-0.01-1.484-1.051-2.748-2.521-2.943c-1.458-0.193-2.937-0.096-4.402-0.038
		C70.918,9.69,70.898,9.59,70.9,9.227c0.012-2.821,0-5.641,0.016-8.461c0.002-0.339-0.079-0.445-0.423-0.422
		c-0.497,0.033-1.002,0.034-1.5,0c-0.37-0.026-0.447,0.104-0.445,0.453c0.014,2.942,0.008,5.883,0.008,8.825
		c0,2.912-0.004,5.823,0.002,8.733c0.004,1.679,1.278,3.031,2.95,3.083c1.288,0.041,2.578,0.042,3.866-0.003
		c1.644-0.056,2.906-1.376,2.916-3.007C78.304,16.503,78.304,14.577,78.292,12.652 M75.957,18.033
		c-0.006,0.683-0.259,0.941-0.932,0.944c-1.061,0.004-2.121,0.004-3.184,0c-0.675-0.003-0.934-0.265-0.934-0.94
		c-0.002-1.712-0.002-3.425,0-5.138c0-0.648,0.263-0.91,0.908-0.912c1.076-0.004,2.152-0.004,3.229,0
		c0.647,0.002,0.906,0.256,0.91,0.907c0.008,0.865,0.002,1.729,0.002,2.593C75.957,16.335,75.961,17.185,75.957,18.033"/>
	<path fill="#FFFFFF" d="M67.404,12.758c-0.008-1.792-1.339-3.119-3.138-3.123c-1.108-0.002-2.214,0-3.322,0
		c-2.027,0-3.335,1.361-3.284,3.401c0.006,0.248,0.058,0.347,0.327,0.336c0.498-0.022,1.001-0.03,1.499,0.001
		c0.39,0.024,0.55-0.056,0.528-0.498c-0.027-0.615,0.279-0.882,0.891-0.889c0.56-0.006,1.122-0.002,1.682-0.002
		c0.577,0,1.153-0.008,1.729,0.004c0.401,0.009,0.643,0.241,0.735,0.621c0.093,0.381-0.259,0.393-0.461,0.5
		c-1.733,0.925-3.474,1.832-5.209,2.754c-1.271,0.675-1.921,1.965-1.629,3.188c0.341,1.413,1.525,2.376,2.984,2.396
		c1.213,0.015,2.427,0.022,3.64-0.002c1.728-0.035,3.02-1.368,3.027-3.093c0.002-0.926,0-1.851,0-2.774
		C67.404,14.637,67.406,13.696,67.404,12.758 M65.065,18.25c-0.006,0.566-0.276,0.831-0.839,0.833
		c-1.119,0.003-2.239-0.006-3.361,0.005c-0.394,0.004-0.702-0.123-0.793-0.519c-0.085-0.37,0.216-0.525,0.486-0.668
		c1.479-0.778,2.96-1.554,4.509-2.369C65.067,16.493,65.074,17.372,65.065,18.25"/>
	<path fill="#FFFFFF" d="M27.724,17.711c-0.514,0.027-1.034,0.037-1.546-0.002c-0.392-0.027-0.478,0.105-0.466,0.476
		c0.022,0.663-0.24,0.897-0.902,0.899c-0.471,0.002-0.941,0-1.411,0c-0.652,0-1.304-0.005-1.957,0.002
		c-0.415,0.004-0.644-0.216-0.755-0.588c-0.113-0.383,0.23-0.406,0.434-0.514c1.748-0.927,3.504-1.841,5.254-2.766
		c1.276-0.674,1.895-1.953,1.586-3.247c-0.321-1.346-1.527-2.317-2.937-2.333c-1.228-0.016-2.456-0.018-3.684,0.001
		c-1.659,0.023-3,1.364-3.016,3.023c-0.018,1.926-0.017,3.852,0,5.778c0.015,1.45,1.062,2.668,2.494,2.942
		c0.782,0.149,1.574,0.025,2.224,0.068c0.652,0,1.167,0,1.683,0c2.096-0.001,3.362-1.29,3.34-3.382
		C28.063,17.802,28.019,17.696,27.724,17.711 M20.681,12.69c0.008-0.411,0.319-0.696,0.746-0.702c1.181-0.011,2.363-0.006,3.545,0
		c0.338,0,0.583,0.171,0.692,0.489c0.097,0.284-0.086,0.482-0.301,0.598l-4.689,2.476C20.674,14.557,20.663,13.623,20.681,12.69"/>
	<path fill="#FFFFFF" d="M50.296,21.431c1.64-0.06,2.875-1.397,2.879-3.037c0.004-0.956,0.002-1.91,0.002-2.866
		s0.004-1.911-0.002-2.867c-0.008-1.498-1.055-2.76-2.55-2.962c-1.292-0.174-2.603-0.051-3.906-0.061
		c-2.025-0.015-3.391,1.438-3.287,3.449c0.011,0.219,0.07,0.286,0.287,0.282c0.545-0.013,1.093-0.028,1.636,0.004
		c0.358,0.021,0.455-0.086,0.443-0.441c-0.021-0.695,0.255-0.944,0.966-0.948c0.333-0.001,0.667,0,1.001,0
		c0.772,0,1.546-0.004,2.319,0.004c0.376,0.004,0.615,0.199,0.728,0.564c0.125,0.409-0.222,0.444-0.439,0.56
		c-1.761,0.935-3.534,1.852-5.292,2.792c-1.204,0.644-1.82,1.926-1.551,3.148c0.289,1.307,1.456,2.334,2.81,2.38
		C47.657,21.476,48.979,21.479,50.296,21.431 M46.607,19.086c-0.38,0.007-0.666-0.141-0.758-0.511
		c-0.084-0.338,0.177-0.514,0.436-0.651c1.389-0.732,2.784-1.454,4.167-2.196c0.318-0.17,0.403-0.129,0.394,0.236
		c-0.02,0.757,0,1.516-0.008,2.272c-0.008,0.602-0.263,0.844-0.867,0.847c-0.546,0.002-1.092,0-1.638,0
		C47.759,19.084,47.183,19.076,46.607,19.086"/>
	<path fill="#FFFFFF" d="M54.347,18.674c0.089,1.266,1.054,2.376,2.349,2.663v-0.53V0.932c0-0.075-0.008-0.152,0.002-0.228
		c0.041-0.275-0.06-0.373-0.349-0.359c-0.515,0.023-1.033,0.041-1.545-0.005c-0.43-0.039-0.483,0.129-0.483,0.505
		c0.012,5.746,0.008,11.492,0.01,17.237C54.331,18.281,54.333,18.479,54.347,18.674"/>
	<path fill="#FFFFFF" d="M40.107,18.217c0.011,1.468,0.753,2.56,1.969,3.031c0.28,0.108,0.406,0.117,0.402-0.266
		c-0.021-1.786-0.01-3.574-0.01-5.36c0-1.788-0.006-3.574,0.007-5.361c0.003-0.297-0.075-0.389-0.376-0.375
		c-0.559,0.025-1.121,0.021-1.681,0c-0.27-0.01-0.322,0.088-0.321,0.335C40.104,12.887,40.087,15.552,40.107,18.217"/>
	<path fill="#FFFFFF" d="M21.596,6.482c0.03-0.594,0.03-0.594-0.549-0.594c-0.211,0-0.425,0.014-0.635-0.004
		c-0.259-0.021-0.384,0.033-0.37,0.338c0.018,0.406-0.188,0.663-0.625,0.666c-0.849,0.004-1.697,0-2.545,0.001
		c-0.316,0-0.509-0.153-0.597-0.453c-0.092-0.312,0.151-0.385,0.348-0.489c1.229-0.648,2.461-1.294,3.69-1.943
		c0.937-0.494,1.41-1.319,1.261-2.199c-0.153-0.91-0.877-1.579-1.898-1.756c-1.036,0.001-2.068,0.002-3.102,0.003
		c-1.159,0.245-1.875,1.024-1.889,2.11c-0.018,1.393-0.019,2.788,0,4.181c0.016,1.109,0.879,2.052,1.939,2.093
		c1.014,0.038,2.031,0.035,3.045,0C20.685,8.4,21.543,7.496,21.596,6.482 M16.266,2.169c0.01-0.351,0.23-0.554,0.59-0.556
		c0.865-0.006,1.729-0.001,2.593-0.002c0.277-0.001,0.462,0.142,0.557,0.387c0.086,0.223-0.04,0.41-0.212,0.503
		c-1.152,0.621-2.312,1.225-3.535,1.868C16.259,3.583,16.245,2.875,16.266,2.169"/>
	<path fill="#FFFFFF" d="M2.251,8.451c0.803,0.003,1.606,0.003,2.41,0c1.351-0.004,2.252-0.901,2.254-2.245
		c0.002-1.272,0.001-2.545,0.001-3.818C6.915,1.1,6.278,0.314,5.023,0.053C3.989,0.052,2.955,0.051,1.921,0.05
		C0.815,0.244,0.19,0.869,0,1.97c0,1.521,0,3.04,0,4.559C0.207,7.76,1.012,8.449,2.251,8.451 M1.563,2.286
		c0.004-0.463,0.205-0.67,0.659-0.673c0.819-0.007,1.637-0.007,2.457,0c0.439,0.003,0.68,0.222,0.685,0.669
		c0.014,1.304,0.014,2.607,0,3.912c-0.005,0.481-0.238,0.69-0.705,0.695c-0.803,0.005-1.606,0.005-2.411,0
		C1.762,6.884,1.566,6.685,1.562,6.196C1.559,5.545,1.562,4.893,1.562,4.241C1.562,3.588,1.558,2.937,1.563,2.286"/>
	<path fill="#FFFFFF" d="M27.821,4.583C26.546,3.921,25.271,3.259,24,2.591c-0.219-0.115-0.444-0.269-0.369-0.554
		c0.071-0.266,0.272-0.427,0.574-0.427c0.865,0.003,1.728,0,2.593,0.002c0.32,0.001,0.593,0.194,0.567,0.472
		c-0.054,0.613,0.307,0.551,0.688,0.53c0.182-0.011,0.366-0.017,0.546,0.001c0.262,0.026,0.365-0.035,0.365-0.336
		c-0.001-1.157-0.706-1.995-1.917-2.228h-3.102c-0.089,0.017-0.18,0.027-0.267,0.052c-0.923,0.257-1.554,0.997-1.632,1.91
		c-0.078,0.902,0.289,1.485,1.218,1.964c1.236,0.639,2.47,1.282,3.703,1.929c0.229,0.12,0.471,0.27,0.388,0.583
		c-0.082,0.301-0.321,0.418-0.629,0.417C25.907,6.9,25.087,6.9,24.269,6.904c-0.33,0.002-0.643-0.146-0.629-0.455
		c0.026-0.621-0.335-0.572-0.737-0.549c-0.196,0.012-0.396,0.016-0.592-0.001c-0.228-0.02-0.269,0.082-0.278,0.29
		c-0.054,1.256,0.882,2.255,2.144,2.262c0.895,0.004,1.789,0.006,2.684,0c1.004-0.008,1.804-0.672,2.041-1.679
		C29.128,5.804,28.767,5.074,27.821,4.583"/>
	<path fill="#FFFFFF" d="M8.866,5.876C8.862,4.3,8.863,2.722,8.863,1.145c0-1.103,0-1.092-1.122-1.089
		C7.449,0.057,7.355,0.131,7.357,0.434c0.017,2.123,0.016,4.246,0.02,6.368c0.396,1.165,1.071,1.649,2.3,1.65
		c0.742,0,1.484,0,2.226,0c1.259-0.001,1.968-0.532,2.318-1.74c0.004-1.742,0.015-3.485,0.007-5.226
		c-0.002-0.463,0.211-1.104-0.093-1.342c-0.338-0.264-0.957-0.087-1.454-0.057c-0.001,2.026,0.001,4.052-0.003,6.078
		c-0.001,0.524-0.193,0.721-0.698,0.724c-0.802,0.004-1.604-0.002-2.405,0.002c-0.367,0.002-0.61-0.137-0.66-0.526
		C8.82,6.21,8.866,6.039,8.866,5.876"/>
	<path fill="#FFFFFF" d="M31.548,8.457c0.833-0.024,1.667-0.005,2.501-0.005c1.198,0,1.187,0,1.176-1.217
		c-0.003-0.286-0.085-0.358-0.359-0.352c-0.834,0.017-1.669-0.011-2.502,0.011c-1.468,0.038-1.407-0.068-1.408-1.499
		c-0.001-0.321,0.139-0.543,0.426-0.691c0.444-0.228,0.885-0.463,1.32-0.707c0.34-0.191,0.91-0.282,0.96-0.594
		c0.052-0.323-0.33-0.707-0.49-1.079c-0.11-0.251-0.222-0.243-0.438-0.122c-0.572,0.323-1.159,0.618-1.788,0.949V0.075
		c-0.511,0-1.022,0-1.532,0c-0.002,2.078,0.048,4.158-0.029,6.232C29.344,7.48,30.45,8.487,31.548,8.457"/>
	<path fill="#FFFFFF" d="M73.591,24.151c-0.039-0.349-0.388-0.572-0.617-0.396c-0.447,0.338-0.87-0.249-1.333,0.101
		c-0.224,0.172-0.343,0.014-0.343,0.386c0,0.121,0,0.243,0,0.364c0,0.226-0.002,0.455,0,0.683c0.002,0.113-0.027,0.263,0.164,0.25
		c0.164-0.012,0.119-0.148,0.123-0.243c0.012-0.289,0.01-0.578,0.029-0.863c0.019-0.263,0.164-0.436,0.436-0.423
		c0.285,0.014,0.243,0.259,0.247,0.449c0.006,0.289,0.002,0.578,0.002,0.864c0.002,0.105-0.008,0.22,0.15,0.222
		c0.158,0.004,0.158-0.105,0.16-0.214c0.004-0.318-0.004-0.637,0.017-0.954c0.016-0.251,0.18-0.384,0.427-0.37
		c0.245,0.014,0.27,0.202,0.27,0.396c0.002,0.318,0.002,0.637,0.002,0.954c0,0.097,0.016,0.182,0.139,0.186
		c0.116,0.006,0.162-0.06,0.16-0.166C73.615,24.966,73.637,24.554,73.591,24.151"/>
	<path fill="#FFFFFF" d="M53.278,23.743c-0.325,0.117-0.584,0.13-0.889-0.012c-0.182-0.087-0.326,0.157-0.497,0.141
		c-0.344-0.032-0.342-0.049-0.344,0.305c0,0.152,0,0.305,0,0.455c0.002,0.212-0.004,0.425,0.004,0.635
		c0.002,0.111-0.049,0.273,0.143,0.271c0.192,0,0.137-0.162,0.141-0.271c0.016-0.317-0.032-0.639,0.051-0.95
		c0.06-0.22,0.218-0.333,0.439-0.307c0.226,0.025,0.221,0.216,0.223,0.384c0.002,0.303,0,0.605,0.002,0.908
		c0,0.125-0.01,0.257,0.176,0.241c0.158-0.014,0.131-0.141,0.133-0.239c0.008-0.319-0.002-0.637,0.021-0.954
		c0.018-0.229,0.18-0.346,0.404-0.346c0.243,0.002,0.287,0.18,0.289,0.378c0,0.318,0.002,0.637,0,0.956
		c0,0.115,0.012,0.217,0.167,0.204c0.125-0.01,0.134-0.099,0.134-0.192c-0.004-0.38,0.014-0.76-0.018-1.136
		C53.83,23.877,53.597,23.63,53.278,23.743"/>
	<path fill="#FFFFFF" d="M40.646,24.148c-0.041-0.35-0.387-0.57-0.619-0.394c-0.446,0.333-0.87-0.245-1.333,0.101
		c-0.223,0.166-0.34,0.01-0.34,0.388c0,0.123,0,0.243,0,0.364c0,0.228-0.002,0.455,0.001,0.682c0.002,0.117-0.026,0.265,0.167,0.248
		c0.163-0.014,0.113-0.15,0.12-0.248c0.016-0.303,0.012-0.605,0.039-0.906c0.021-0.248,0.185-0.386,0.428-0.376
		c0.255,0.012,0.243,0.224,0.246,0.407c0.003,0.301,0.001,0.605,0.002,0.908c0,0.107-0.006,0.22,0.151,0.22
		c0.159,0.004,0.157-0.107,0.159-0.216c0.004-0.318-0.004-0.637,0.017-0.954c0.016-0.251,0.181-0.382,0.428-0.368
		c0.246,0.016,0.267,0.206,0.267,0.397c0.001,0.318,0.001,0.637,0.002,0.956c0,0.097,0.019,0.18,0.143,0.182
		c0.117,0.004,0.158-0.062,0.156-0.168C40.671,24.964,40.692,24.552,40.646,24.148"/>
	<path fill="#FFFFFF" d="M69.086,23.361c0-0.093-0.002-0.182-0.137-0.182c-0.122,0-0.152,0.069-0.15,0.172c0,0.166,0,0.332,0,0.538
		c-0.54-0.231-0.787-0.21-1.028,0.069c-0.268,0.307-0.318,0.895-0.097,1.239c0.17,0.265,0.411,0.399,0.731,0.334
		c0.17-0.036,0.32-0.265,0.515,0.002c0.058,0.079,0.17-0.036,0.17-0.17C69.084,24.697,69.088,24.03,69.086,23.361 M68.301,25.265
		c-0.403-0.016-0.455-0.354-0.449-0.661c0.004-0.294,0.093-0.601,0.471-0.597c0.401,0.002,0.453,0.32,0.48,0.649
		C68.762,24.958,68.704,25.282,68.301,25.265"/>
	<path fill="#FFFFFF" d="M57.405,23.181c-0.115-0.006-0.166,0.043-0.164,0.156c0.002,0.178,0,0.354,0,0.584
		c-0.378-0.232-0.717-0.299-1.02,0.027c-0.263,0.283-0.326,0.845-0.134,1.197c0.14,0.255,0.348,0.401,0.656,0.403
		c0.214,0,0.42-0.326,0.647-0.012c0.029,0.043,0.139-0.016,0.137-0.117c0-0.696,0.002-1.393,0-2.091
		C57.528,23.249,57.506,23.187,57.405,23.181 M56.76,25.267c-0.405-0.006-0.469-0.336-0.467-0.645
		c0.002-0.311,0.092-0.635,0.497-0.615c0.401,0.021,0.43,0.354,0.457,0.655C57.201,24.968,57.138,25.271,56.76,25.267"/>
	<path fill="#FFFFFF" d="M64.314,23.201c-0.295-0.012-0.105,0.303-0.154,0.463c-0.019,0.055-0.005,0.119-0.005,0.222
		c-0.544-0.224-0.781-0.204-1.022,0.067c-0.257,0.291-0.316,0.849-0.127,1.199c0.196,0.362,0.542,0.475,0.918,0.309
		c0.069-0.03,0.15-0.206,0.224-0.036c0.052,0.113,0.111,0.134,0.202,0.115c0.158-0.034,0.093-0.17,0.093-0.261
		c0.006-0.53,0.018-1.061-0.006-1.591C64.431,23.521,64.591,23.215,64.314,23.201 M64.153,24.693
		c-0.027,0.303-0.122,0.593-0.498,0.574c-0.405-0.024-0.418-0.364-0.459-0.651c0.052-0.309,0.106-0.6,0.486-0.613
		C63.983,23.988,64.189,24.289,64.153,24.693"/>
	<path fill="#FFFFFF" d="M41.337,23.911c0-0.208,0.001-0.37,0-0.534c-0.001-0.089,0.012-0.184-0.122-0.196
		c-0.157-0.014-0.166,0.085-0.165,0.198c0,0.665,0,1.33,0,1.993c-0.001,0.225,0.193,0.229,0.243,0.123
		c0.09-0.188,0.129-0.101,0.239-0.043c0.392,0.201,0.753,0.077,0.931-0.327c0.174-0.394,0.202-0.805-0.082-1.155
		C42.093,23.61,41.724,23.686,41.337,23.911 M41.829,25.267c-0.409,0.012-0.465-0.309-0.499-0.57c0.001-0.39,0.103-0.677,0.487-0.69
		c0.389-0.014,0.459,0.307,0.461,0.599C42.28,24.906,42.244,25.252,41.829,25.267"/>
	<path fill="#FFFFFF" d="M75.394,24.291c-0.021-0.342-0.196-0.502-0.486-0.55c-0.305-0.052-0.614-0.032-0.806,0.267
		c-0.04,0.059-0.117,0.166-0.014,0.235c0.073,0.051,0.191,0.057,0.243-0.032c0.095-0.168,0.231-0.226,0.538-0.202
		c0.025,0.004,0.198,0.004,0.222,0.204c0.023,0.22-0.16,0.214-0.305,0.237c-0.089,0.014-0.18,0.014-0.27,0.028
		c-0.245,0.043-0.475,0.113-0.554,0.394c-0.058,0.21-0.008,0.4,0.152,0.536c0.218,0.188,0.479,0.198,0.714,0.05
		c0.183-0.117,0.301-0.139,0.438,0.051c0.052,0.069,0.174,0.06,0.247,0.002c0.036-0.028,0.06-0.138,0.038-0.16
		C75.22,25.041,75.417,24.645,75.394,24.291 M74.603,25.269c-0.177,0.018-0.37-0.042-0.335-0.253
		c0.065-0.399,0.459-0.229,0.692-0.348c0.154-0.077,0.121,0.062,0.137,0.148C75.091,25.13,74.875,25.241,74.603,25.269"/>
	<path fill="#FFFFFF" d="M60.011,24.273c-0.018-0.319-0.186-0.471-0.457-0.526c-0.307-0.063-0.609-0.038-0.821,0.235
		c-0.047,0.06-0.079,0.204-0.043,0.244c0.073,0.081,0.21,0.081,0.272-0.028c0.09-0.15,0.21-0.206,0.463-0.196
		c0.079,0.004,0.271,0.008,0.285,0.228c0.016,0.213-0.176,0.202-0.322,0.223c-0.103,0.014-0.208,0.022-0.311,0.044
		c-0.405,0.093-0.584,0.332-0.495,0.659c0.092,0.336,0.445,0.496,0.804,0.334c0.191-0.087,0.334-0.204,0.522,0.023
		c0.067,0.083,0.362,0.022,0.253-0.125C59.896,25.023,60.032,24.643,60.011,24.273 M59.103,25.267
		c-0.104-0.028-0.199-0.073-0.22-0.194c-0.021-0.135,0.026-0.24,0.162-0.279c0.113-0.033,0.231-0.047,0.347-0.073
		c0.097-0.023,0.191-0.049,0.289-0.075C59.704,25.084,59.447,25.352,59.103,25.267"/>
	<path fill="#FFFFFF" d="M27.835,24.729c0.243-0.006,0.486-0.012,0.727,0.002c0.204,0.012,0.259-0.067,0.248-0.263
		c-0.027-0.447-0.317-0.742-0.754-0.742c-0.478,0-0.828,0.41-0.815,0.954c0.014,0.521,0.336,0.871,0.892,0.867
		c0.159-0.008,0.384-0.089,0.525-0.311c0.054-0.087,0.2-0.204,0.061-0.305c-0.119-0.087-0.199,0.036-0.286,0.13
		c-0.261,0.281-0.584,0.285-0.769,0.028c-0.063-0.089-0.112-0.19-0.068-0.297C27.642,24.685,27.753,24.732,27.835,24.729
		 M28.073,23.999c0.221,0.006,0.427,0.119,0.405,0.332c-0.028,0.267-0.296,0.045-0.437,0.146c-0.137-0.105-0.418,0.125-0.428-0.15
		C27.604,24.101,27.836,23.992,28.073,23.999"/>
	<path fill="#FFFFFF" d="M65.364,24.73c0.242-0.01,0.483-0.008,0.727-0.002c0.15,0.004,0.233-0.042,0.214-0.196
		c0.029-0.436-0.27-0.776-0.696-0.808c-0.472-0.033-0.825,0.315-0.869,0.853c-0.043,0.526,0.271,0.941,0.734,0.967
		c0.274,0.014,0.514-0.071,0.673-0.301c0.059-0.087,0.199-0.204,0.077-0.309c-0.113-0.095-0.206,0.01-0.287,0.117
		c-0.214,0.275-0.471,0.312-0.74,0.079c-0.093-0.083-0.152-0.204-0.106-0.328C65.135,24.671,65.268,24.732,65.364,24.73
		 M65.555,23.999c0.222,0,0.427,0.106,0.417,0.32c-0.016,0.289-0.291,0.049-0.421,0.156c-0.148-0.091-0.426,0.111-0.445-0.139
		C65.088,24.113,65.319,23.999,65.555,23.999"/>
	<path fill="#FFFFFF" d="M70.578,25.051c-0.21,0.277-0.467,0.314-0.738,0.083c-0.095-0.081-0.152-0.204-0.11-0.328
		c0.045-0.137,0.178-0.071,0.272-0.075c0.228-0.01,0.455-0.016,0.683,0c0.235,0.018,0.277-0.089,0.258-0.295
		c-0.042-0.445-0.345-0.728-0.782-0.71c-0.461,0.02-0.789,0.414-0.783,0.94c0.006,0.521,0.322,0.878,0.883,0.882
		c0.156-0.004,0.38-0.085,0.525-0.301c0.062-0.089,0.2-0.204,0.081-0.309C70.756,24.841,70.661,24.944,70.578,25.051 M70.196,23.999
		c0.222,0.002,0.427,0.106,0.417,0.32c-0.016,0.289-0.293,0.049-0.421,0.156c-0.148-0.091-0.426,0.111-0.445-0.139
		C69.728,24.113,69.961,23.999,70.196,23.999"/>
	<path fill="#FFFFFF" d="M23.28,24.725c0.241,0.014,0.484-0.008,0.727,0.006c0.195,0.008,0.29-0.054,0.249-0.244
		c-0.011-0.461-0.309-0.76-0.745-0.762c-0.469-0.002-0.805,0.368-0.82,0.902c-0.015,0.517,0.294,0.898,0.745,0.918
		c0.275,0.012,0.512-0.075,0.668-0.307c0.058-0.085,0.201-0.202,0.069-0.307c-0.117-0.089-0.199,0.03-0.287,0.125
		c-0.277,0.295-0.631,0.289-0.793-0.002C22.985,24.857,22.976,24.707,23.28,24.725 M23.511,23.999
		c0.222,0.002,0.427,0.106,0.417,0.32c-0.016,0.289-0.291,0.049-0.42,0.156l-0.076-0.022l-0.37-0.117
		C23.042,24.113,23.274,23.999,23.511,23.999"/>
	<path fill="#FFFFFF" d="M31.764,24.732c0.195-0.022,0.395-0.02,0.591-0.002c0.266,0.025,0.298-0.103,0.27-0.325
		c-0.056-0.439-0.373-0.714-0.806-0.681c-0.453,0.036-0.775,0.449-0.753,0.97c0.021,0.52,0.345,0.862,0.895,0.849
		c0.168-0.012,0.389-0.097,0.53-0.32c0.052-0.083,0.165-0.192,0.076-0.277c-0.104-0.099-0.215-0.033-0.29,0.093
		c-0.124,0.209-0.322,0.275-0.548,0.22c-0.193-0.05-0.327-0.192-0.317-0.394C31.425,24.612,31.641,24.746,31.764,24.732
		 M31.897,23.999c0.221,0.008,0.426,0.123,0.402,0.334c-0.028,0.273-0.307,0.01-0.419,0.16c-0.156-0.123-0.437,0.109-0.445-0.168
		C31.428,24.099,31.661,23.99,31.897,23.999"/>
	<path fill="#FFFFFF" d="M37.129,24.732c0.132-0.024,0.272-0.006,0.409-0.006c0.486,0,0.596-0.184,0.374-0.622
		c-0.14-0.275-0.387-0.366-0.681-0.386c-0.361,0.036-0.62,0.206-0.73,0.57c-0.123,0.406-0.095,0.786,0.238,1.084
		c0.312,0.28,0.85,0.223,1.094-0.109c0.066-0.091,0.196-0.224,0.105-0.315c-0.127-0.126-0.234-0.002-0.315,0.123
		c-0.125,0.188-0.314,0.235-0.52,0.186c-0.194-0.048-0.328-0.188-0.32-0.39C36.791,24.614,37.007,24.754,37.129,24.732
		 M37.227,23.999c0.239-0.006,0.465,0.103,0.442,0.338c-0.025,0.261-0.307,0.012-0.424,0.156c-0.151-0.125-0.43,0.115-0.44-0.174
		C36.796,24.115,37.009,24.004,37.227,23.999"/>
	<path fill="#FFFFFF" d="M44.266,24.732c0.194-0.024,0.394-0.018,0.59-0.002c0.209,0.016,0.255-0.075,0.243-0.267
		c-0.028-0.475-0.387-0.795-0.846-0.738c-0.495,0.063-0.809,0.576-0.695,1.138c0.104,0.522,0.519,0.793,0.995,0.651
		c0.198-0.059,0.356-0.166,0.445-0.358c0.034-0.075,0.127-0.164,0.013-0.229c-0.075-0.043-0.175-0.036-0.233,0.065
		c-0.097,0.164-0.226,0.285-0.435,0.281c-0.267,0-0.458-0.133-0.458-0.396C43.885,24.604,44.131,24.75,44.266,24.732 M44.367,23.999
		c0.221,0.008,0.426,0.123,0.401,0.336c-0.031,0.267-0.308,0.01-0.423,0.158c-0.152-0.123-0.437,0.111-0.442-0.17
		C43.898,24.097,44.13,23.99,44.367,23.999"/>
	<path fill="#FFFFFF" d="M47.611,24.73c0.228-0.01,0.456-0.016,0.683,0c0.231,0.018,0.281-0.083,0.261-0.293
		c-0.041-0.445-0.341-0.73-0.778-0.712c-0.463,0.018-0.791,0.408-0.787,0.938c0.003,0.519,0.319,0.878,0.778,0.884
		c0.238,0,0.452-0.073,0.602-0.263c0.075-0.095,0.226-0.233,0.11-0.342c-0.135-0.125-0.223,0.04-0.312,0.143
		c-0.216,0.245-0.463,0.269-0.712,0.051c-0.095-0.083-0.152-0.202-0.115-0.326C47.384,24.663,47.519,24.734,47.611,24.73
		 M47.815,23.999c0.221,0.004,0.427,0.114,0.411,0.326c-0.021,0.279-0.294,0.045-0.429,0.152c-0.143-0.101-0.421,0.117-0.437-0.146
		C47.347,24.107,47.579,23.996,47.815,23.999"/>
	<path fill="#FFFFFF" d="M54.881,24.732c0.194-0.022,0.396-0.022,0.589-0.002c0.271,0.027,0.296-0.113,0.275-0.327
		c-0.042-0.412-0.346-0.687-0.766-0.679c-0.463,0.008-0.793,0.39-0.801,0.952c0.018,0.364,0.139,0.701,0.546,0.829
		c0.348,0.111,0.663,0.03,0.882-0.283c0.055-0.077,0.167-0.19,0.077-0.275c-0.107-0.101-0.212-0.027-0.289,0.093
		c-0.126,0.204-0.324,0.275-0.552,0.218c-0.192-0.05-0.327-0.194-0.315-0.394C54.542,24.612,54.758,24.748,54.881,24.732
		 M54.979,23.999c0.244-0.006,0.467,0.11,0.439,0.342c-0.028,0.24-0.301,0.048-0.457,0.135c-0.125-0.111-0.408,0.137-0.412-0.16
		C54.546,24.111,54.76,24.004,54.979,23.999"/>
	<path fill="#FFFFFF" d="M77.979,24.299c-0.042-0.504-0.392-0.696-0.861-0.51c-0.081,0.032-0.12,0.164-0.261,0.085
		c-0.279-0.156-0.287-0.146-0.295,0.145c-0.004,0.196,0,0.392,0,0.59c0,0.225-0.002,0.451,0,0.676
		c0.004,0.117-0.031,0.265,0.16,0.257c0.19-0.01,0.137-0.164,0.141-0.273c0.01-0.287-0.01-0.576,0.023-0.859
		c0.032-0.245,0.192-0.409,0.464-0.405c0.292,0.002,0.326,0.222,0.334,0.443c0.012,0.285,0.002,0.572,0.008,0.859
		c0,0.099-0.027,0.226,0.133,0.235c0.189,0.01,0.166-0.13,0.166-0.247C77.991,24.962,78.007,24.627,77.979,24.299"/>
	<path fill="#FFFFFF" d="M34.472,24.25c-0.044-0.453-0.394-0.641-0.82-0.471c-0.096,0.038-0.2,0.132-0.281,0.115
		c-0.31-0.069-0.308-0.081-0.309,0.229c-0.001,0.168,0,0.334,0,0.5c0,0.228-0.001,0.457,0.001,0.683
		c0.001,0.103-0.021,0.228,0.137,0.235c0.196,0.012,0.161-0.139,0.163-0.253c0.006-0.273-0.01-0.546,0.013-0.819
		c0.023-0.267,0.166-0.461,0.46-0.465c0.324-0.006,0.343,0.245,0.35,0.477c0.009,0.289,0.003,0.576,0.004,0.865
		c0.001,0.093,0.003,0.186,0.13,0.196c0.149,0.012,0.172-0.083,0.171-0.2C34.486,24.976,34.508,24.61,34.472,24.25"/>
	<path fill="#FFFFFF" d="M20.738,24.299c-0.042-0.502-0.391-0.696-0.861-0.51c-0.081,0.032-0.121,0.164-0.26,0.087
		c-0.279-0.154-0.288-0.145-0.295,0.141c-0.005,0.198-0.001,0.394-0.001,0.589c0,0.242,0.001,0.483,0,0.724
		c-0.001,0.113,0.005,0.218,0.158,0.214c0.159-0.006,0.141-0.126,0.143-0.229c0.007-0.301-0.012-0.605,0.023-0.902
		c0.03-0.245,0.19-0.411,0.461-0.407c0.293,0.002,0.329,0.222,0.336,0.441c0.011,0.285,0.002,0.572,0.006,0.859
		c0.002,0.099-0.027,0.228,0.133,0.237c0.189,0.012,0.168-0.128,0.168-0.247C20.749,24.964,20.766,24.629,20.738,24.299"/>
	<path fill="#FFFFFF" d="M26.004,24.226c-0.043-0.424-0.389-0.609-0.791-0.459c-0.097,0.036-0.191,0.139-0.279,0.129
		c-0.337-0.032-0.335-0.043-0.336,0.331v0.407c0,0.18-0.013,0.364,0.005,0.544c0.013,0.127-0.101,0.347,0.138,0.358
		c0.252,0.014,0.146-0.214,0.156-0.34c0.021-0.269-0.007-0.544,0.035-0.811c0.038-0.246,0.212-0.398,0.48-0.38
		c0.262,0.018,0.302,0.219,0.309,0.423c0.011,0.301,0.006,0.604,0.006,0.904c0.001,0.113,0.007,0.22,0.161,0.212
		c0.121-0.006,0.142-0.087,0.141-0.186C26.022,24.979,26.044,24.6,26.004,24.226"/>
	<path fill="#FFFFFF" d="M49.76,24.505c-0.057-0.012-0.115-0.034-0.174-0.047c-0.172-0.044-0.417-0.058-0.327-0.315
		c0.073-0.204,0.303-0.152,0.483-0.126c0.111,0.018,0.172,0.107,0.237,0.194c0.062,0.081,0.164,0.093,0.237,0.028
		c0.069-0.062,0.012-0.137-0.021-0.202c-0.178-0.322-0.479-0.35-0.788-0.292c-0.257,0.049-0.437,0.206-0.447,0.495
		c-0.014,0.35,0.267,0.394,0.507,0.479c0.055,0.02,0.121,0.016,0.174,0.038c0.146,0.058,0.352,0.034,0.392,0.248
		c0.016,0.097-0.053,0.168-0.14,0.209c-0.174,0.083-0.354,0.101-0.519,0c-0.071-0.043-0.125-0.126-0.166-0.204
		c-0.054-0.105-0.143-0.125-0.226-0.081c-0.117,0.059-0.036,0.162-0.008,0.233c0.107,0.303,0.35,0.392,0.649,0.39
		c0.346-0.014,0.641-0.128,0.687-0.514C50.354,24.651,50.055,24.568,49.76,24.505"/>
	<path fill="#FFFFFF" d="M61.259,24.515c-0.059-0.014-0.114-0.04-0.174-0.051c-0.146-0.03-0.309-0.032-0.374-0.204
		c-0.029-0.081,0.002-0.152,0.073-0.196c0.17-0.099,0.349-0.093,0.517-0.006c0.063,0.034,0.097,0.115,0.15,0.166
		c0.06,0.058,0.145,0.071,0.21,0.032c0.11-0.067,0.035-0.158-0.008-0.228c-0.214-0.348-0.536-0.354-0.877-0.253
		c-0.222,0.067-0.346,0.233-0.35,0.475c-0.006,0.239,0.144,0.35,0.348,0.412c0.188,0.055,0.376,0.107,0.564,0.162
		c0.095,0.028,0.164,0.087,0.162,0.19c0,0.099-0.062,0.17-0.152,0.204c-0.262,0.093-0.511,0.121-0.659-0.18
		c-0.06-0.119-0.143-0.167-0.249-0.103c-0.107,0.063-0.022,0.166,0.006,0.237c0.112,0.301,0.36,0.384,0.656,0.378
		c0.329-0.014,0.605-0.123,0.669-0.484C61.837,24.683,61.562,24.576,61.259,24.515"/>
	<path fill="#FFFFFF" d="M35.69,24.515c-0.073-0.014-0.146-0.042-0.218-0.059c-0.159-0.038-0.378-0.052-0.328-0.279
		c0.052-0.235,0.282-0.178,0.457-0.168c0.129,0.01,0.204,0.107,0.279,0.209c0.059,0.077,0.169,0.085,0.239,0.014
		c0.059-0.06,0.002-0.139-0.034-0.202c-0.183-0.32-0.483-0.344-0.792-0.283c-0.257,0.049-0.434,0.211-0.439,0.499
		c-0.007,0.35,0.28,0.388,0.517,0.473c0.055,0.02,0.121,0.014,0.175,0.04c0.149,0.067,0.436,0.038,0.367,0.293
		c-0.074,0.277-0.349,0.241-0.575,0.198c-0.102-0.018-0.187-0.095-0.223-0.208c-0.042-0.125-0.14-0.176-0.243-0.109
		c-0.125,0.079-0.021,0.198,0.016,0.277c0.123,0.269,0.36,0.348,0.638,0.338c0.353-0.01,0.637-0.139,0.68-0.522
		C36.244,24.673,35.977,24.572,35.69,24.515"/>
	<path fill="#FFFFFF" d="M22.417,23.731c-0.157-0.047-0.197,0.083-0.236,0.206c-0.121,0.376-0.248,0.75-0.411,1.242
		c-0.122-0.374-0.175-0.639-0.294-0.874c-0.106-0.212,0.017-0.643-0.512-0.56c0.197,0.536,0.38,1.048,0.572,1.555
		c0.039,0.101,0.043,0.255,0.218,0.243c0.163-0.01,0.166-0.154,0.208-0.259c0.166-0.421,0.331-0.843,0.485-1.268
		C22.477,23.927,22.612,23.792,22.417,23.731"/>
	<path fill="#FFFFFF" d="M46.539,23.177c-0.178-0.014-0.186,0.105-0.185,0.235c0.001,0.316,0.001,0.633,0.001,0.952
		c0,0.316-0.002,0.633,0,0.952c0,0.103-0.013,0.22,0.142,0.233c0.179,0.014,0.186-0.107,0.186-0.235
		c-0.001-0.635-0.001-1.268-0.001-1.903C46.682,23.306,46.693,23.189,46.539,23.177"/>
	<path fill="#FFFFFF" d="M43.075,23.177c-0.184-0.012-0.178,0.117-0.179,0.241c0,0.303,0,0.604,0,0.906
		c0,0.316-0.003,0.633,0.002,0.952c0.001,0.113-0.039,0.259,0.147,0.271c0.184,0.014,0.178-0.117,0.178-0.241
		c0-0.635,0-1.268,0-1.903C43.223,23.296,43.227,23.185,43.075,23.177"/>
	<path fill="#FFFFFF" d="M26.874,25.249c-0.128-0.04-0.115-0.182-0.092-0.273c0.086-0.348-0.249-0.805,0.265-1.044
		c0.014-0.006,0.006-0.058,0.008-0.087c-0.004-0.167-0.163-0.089-0.234-0.148c-0.138-0.109,0.105-0.428-0.195-0.412
		c-0.263,0.014-0.025,0.33-0.182,0.423c-0.089,0.049-0.267,0.109-0.173,0.184c0.464,0.368,0.124,0.854,0.222,1.27
		c0.029,0.119,0.031,0.245,0.138,0.32c0.132,0.093,0.311,0.127,0.407,0.002C27.129,25.363,27.008,25.288,26.874,25.249"/>
	<path fill="#FFFFFF" d="M76.153,23.899c-0.002-0.099-0.032-0.174-0.15-0.178c-0.115-0.002-0.162,0.058-0.164,0.165
		c0,0.495,0,0.989,0,1.486c0,0.101,0.033,0.172,0.15,0.178c0.152,0.006,0.164-0.097,0.164-0.208c0.002-0.226,0-0.451,0-0.677
		C76.153,24.41,76.153,24.155,76.153,23.899"/>
	<path fill="#FFFFFF" d="M18.734,23.723c-0.12,0.008-0.138,0.091-0.138,0.188c0,0.481,0.001,0.959-0.001,1.44
		c0,0.123,0.033,0.208,0.177,0.198c0.12-0.01,0.138-0.095,0.139-0.19c0.001-0.239,0.001-0.48,0.001-0.72c0-0.239-0.001-0.48,0-0.722
		C18.912,23.798,18.878,23.711,18.734,23.723"/>
	<path fill="#FFFFFF" d="M58.227,23.973c-0.002-0.117,0.02-0.257-0.169-0.25c-0.152,0.004-0.147,0.117-0.147,0.224
		c0,0.465,0,0.932,0,1.397c0,0.115,0.018,0.213,0.168,0.206c0.152-0.008,0.146-0.121,0.148-0.226c0.002-0.226,0-0.449,0-0.674
		C58.227,24.424,58.229,24.198,58.227,23.973"/>
	<path fill="#FFFFFF" d="M29.823,23.733c-0.201,0.188-0.396,0.045-0.594,0.014v1.777h0.179c0.041-0.416-0.091-0.843,0.083-1.25
		c0.055-0.216,0.241-0.233,0.412-0.271c0.121-0.028,0.138-0.113,0.107-0.204C29.982,23.717,29.871,23.689,29.823,23.733"/>
	<path fill="#FFFFFF" d="M55.294,23.108c-0.457-0.103-0.429,0.283-0.54,0.511C55.029,23.551,55.154,23.341,55.294,23.108"/>
	<path fill="#FFFFFF" d="M76.03,23.458c0.087-0.01,0.127-0.067,0.121-0.154c-0.01-0.123-0.097-0.14-0.192-0.128
		c-0.085,0.008-0.128,0.063-0.122,0.117C75.849,23.454,75.938,23.466,76.03,23.458"/>
	<path fill="#FFFFFF" d="M58.104,23.175c-0.093-0.01-0.182,0.004-0.191,0.128c-0.007,0.087,0.033,0.145,0.12,0.154
		c0.095,0.01,0.183-0.006,0.196-0.192C58.23,23.241,58.188,23.183,58.104,23.175"/>
	<path fill="#FFFFFF" d="M18.773,23.46c0.054-0.008,0.126-0.02,0.135-0.119c0.011-0.111-0.041-0.168-0.151-0.168
		c-0.078,0-0.147,0.02-0.157,0.117C18.587,23.405,18.64,23.458,18.773,23.46"/>
</g>
</svg>
