<?xml version="1.0" encoding="utf-8"?>
<!-- Generator: Adobe Illustrator 15.1.0, SVG Export Plug-In . SVG Version: 6.00 Build 0)  -->
<!DOCTYPE svg PUBLIC "-//W3C//DTD SVG 1.1//EN" "http://www.w3.org/Graphics/SVG/1.1/DTD/svg11.dtd">
<svg version="1.1" id="Calque_1" xmlns="http://www.w3.org/2000/svg" xmlns:xlink="http://www.w3.org/1999/xlink" x="0px" y="0px"
	 width="400.48px" height="383.98px" viewBox="0 0 400.48 383.98" enable-background="new 0 0 400.48 383.98" xml:space="preserve">
<path fill="#5D5DA5" d="M388.574,85.831c-6.08-14.371-17.479-25.563-31.988-31.438c-22.801-9.188-48.02-2.971-64.116,13.611
	l-95.606-55.342L41.765,102.344v117.197c-0.146,0.064,0,0.122,0,0.188v0.202c-14,6.051-24.452,16.882-30.262,31.304
	C-0.587,281.22,13.7,315.49,43.755,327.581c7.116,2.832,14.398,4.214,21.722,4.214c14.025,0,27.648-5.109,38.22-14.161
	l92.908,53.684l155.162-89.683V164.941V164.9c2-0.612,3.907-1.289,5.733-2.102c14.371-6.148,25.623-17.549,31.496-32.058
	C394.8,116.232,394.722,100.272,388.574,85.831z M101.708,287.784c-3.385,8.359-9.327,14.924-16.582,19.139
	c-10.087,5.872-22.662,7.256-34.338,2.558c-19.967-8.083-29.487-30.952-21.404-50.989c2.625-6.562,6.382-12.021,12.382-16.167v-0.33
	c6.767-5.109,15.15-7.961,23.738-7.961c4.836,0,9.811,0.897,14.579,2.833c0.069,0.069,0.207,0.069,0.275,0.138
	c4.698,1.937,8.844,4.698,12.368,8.084c2.349,2.28,4.353,4.837,6.079,7.669c0.968,1.591,1.865,3.316,2.625,5.113
	c0.553,1.243,1.036,2.557,1.451,3.869c1.105,3.729,1.728,7.6,1.728,11.398C104.61,278.112,103.642,283.016,101.708,287.784z
	 M312.766,259.112l-116.17,67.156l-73.473-42.479c0.001-0.004,0.002-0.007,0.002-0.011c2.003-10.849,0.967-21.973-3.247-32.404
	l170.517-104.12c5.873,6.84,13.361,12.367,22.273,15.96c0.068,0,0.098,0.069,0.098,0.069V259.112z M370.895,123.417
	c-3.662,9.051-10.129,16.306-19.129,20.521v0.061c-0.584,0.315-1.168,0.579-1.814,0.837c-9.604,4.077-20.242,4.146-29.984,0.276
	c-2.558-1.036-4.904-2.28-7.115-3.8c-2.005-1.312-3.801-2.765-5.527-4.423c-2.35-2.279-4.354-4.904-6.08-7.669
	c-1.729-2.833-3.04-5.873-4.075-8.981c-0.483-1.658-0.829-3.385-1.104-5.043l-10.299-5.942l-9.604-5.527
	c-0.761,9.259,0.69,18.447,4.075,26.876l-170.516,104.12c-5.941-6.979-13.61-12.438-22.385-15.96
	c-2.28-0.969-4.629-1.729-6.979-2.279c-4.975-1.341-10.007-1.979-14.981-1.972c4.988-0.02,10.118,0.617,15.389,1.972v-91.615
	l116.076-67.087l79.422,45.944l9.554,5.527l10.271,5.942c-1.175-6.84-0.496-14.096,2.269-21.004
	c2.556-6.495,6.764-11.884,11.877-15.96l-0.004-0.002c6.907-5.526,15.544-8.565,24.455-8.565c4.837,0,9.812,0.967,14.578,2.833
	c9.674,3.938,17.271,11.4,21.35,21.003C374.755,103.105,374.763,113.744,370.895,123.417z"/>
</svg>
