<?xml version="1.0" encoding="utf-8"?>
<!-- Generator: Adobe Illustrator 15.1.0, SVG Export Plug-In . SVG Version: 6.00 Build 0)  -->
<!DOCTYPE svg PUBLIC "-//W3C//DTD SVG 1.1//EN" "http://www.w3.org/Graphics/SVG/1.1/DTD/svg11.dtd">
<svg version="1.1" id="Calque_1" xmlns="http://www.w3.org/2000/svg" xmlns:xlink="http://www.w3.org/1999/xlink" x="0px" y="0px"
	 width="604.48px" height="171.468px" viewBox="0 0 604.48 171.468" enable-background="new 0 0 604.48 171.468"
	 xml:space="preserve">
<g>
	<path fill="#FFFFFF" d="M229.238,65.042c0.062-0.175,0.12-0.297,0.12-0.472c0-0.478-0.417-0.895-1.009-0.895h-6.533
		c-0.536,0-0.953,0.475-1.13,0.954l-7.127,17.697c-0.417,1.012-0.774,1.192-1.069,1.192c-0.237,0-0.596-0.18-1.01-1.192
		l-7.126-17.697c-0.18-0.479-0.592-0.954-1.128-0.954h-6.594c-0.595,0-0.953,0.417-0.953,0.895c0,0.115,0.062,0.297,0.12,0.472
		l6.043,13.893c0.005,0.009,0.007,0.021,0.012,0.03l6.54,15.026v12.634c0,0.652,0.472,1.185,1.128,1.185h5.938
		c0.655,0,1.126-0.533,1.126-1.185V93.99l3.827-8.796L229.238,65.042z"/>
	<path fill="#FFFFFF" d="M144.479,91.356c-1.545,0-3.923-0.18-5.292-0.237v15.508c0,0.652-0.484,1.18-1.13,1.18h-5.943
		c-0.65,0-1.18-0.528-1.18-1.18V65.752c0-1.185,0.709-1.602,1.9-1.781c3.091-0.473,7.304-0.772,11.645-0.772
		c9.146,0,17.104,3.213,17.104,13.724v0.537C161.583,87.969,153.625,91.356,144.479,91.356 M153.38,76.922
		c0-4.994-2.966-6.889-8.901-6.889c-1.25,0-4.22,0.113-5.292,0.235v14.14c0.951,0.058,4.28,0.177,5.292,0.177
		c6.411,0,8.901-2.369,8.901-7.126V76.922z"/>
	<path fill="#FFFFFF" d="M196.567,107.807h-6.303c-0.522,0-1.002-0.466-1.126-1.002l-2.727-11.286h-13.664l-2.74,11.286
		c-0.116,0.537-0.59,1.002-1.126,1.002h-6.292c-0.601,0-1.078-0.411-1.078-1.002c0-0.06,0.059-0.178,0.059-0.297l9.748-37.252
		c1.43-5.52,5.706-6.057,8.262-6.057c2.556,0,6.832,0.537,8.265,6.057l9.737,37.252c0,0.12,0.056,0.237,0.056,0.297
		C197.637,107.396,197.157,107.807,196.567,107.807 M180.521,71.096c-0.173-0.71-0.351-0.95-0.941-0.95
		c-0.6,0-0.779,0.24-0.954,0.95l-4.281,17.651h10.458L180.521,71.096z"/>
	<path fill="#FFFFFF" d="M245.613,108.291c-4.454,0-7.664-0.417-10.512-1.072c-0.589-0.115-1.131-0.535-1.131-1.191v-4.271
		c0-0.655,0.542-1.134,1.131-1.134h0.116c2.383,0.3,8.324,0.598,10.519,0.598c5.291,0,6.891-1.902,6.891-5.345
		c0-2.318-1.135-3.507-5.047-5.831l-7.846-4.688c-5.529-3.268-7.006-6.716-7.006-10.871c0-6.541,3.798-11.288,14.852-11.288
		c3.912,0,9.385,0.597,11.398,1.069c0.6,0.115,1.075,0.535,1.075,1.127v4.399c0,0.59-0.417,1.07-1.007,1.07h-0.123
		c-3.917-0.362-7.84-0.595-11.698-0.595c-4.397,0-6.243,1.542-6.243,4.218c0,1.959,1.016,3.146,4.876,5.287l7.128,3.98
		c6.531,3.625,8.252,7.423,8.252,12.122C261.238,101.879,257.491,108.291,245.613,108.291"/>
	<path fill="#FFFFFF" d="M296.472,108.291c-4.22,0-9.922-0.417-11.71-0.712c-1.005-0.182-1.537-0.657-1.537-1.844V65.752
		c0-1.185,0.532-1.664,1.537-1.839c1.789-0.302,7.491-0.714,11.71-0.714c11.88,0,18.655,6.418,18.655,18.174v8.739
		C315.127,101.879,308.352,108.291,296.472,108.291 M306.928,81.373c0-8.905-4.519-11.226-10.456-11.226
		c-2.197,0-3.745,0.122-4.995,0.182v30.832c1.25,0.06,2.798,0.177,4.995,0.177c5.937,0,10.456-2.314,10.456-11.226V81.373z"/>
	<path fill="#FFFFFF" d="M346.9,107.457c-1.899,0.293-4.215,0.834-11.279,0.834c-7.73,0-13.727-2.082-13.727-12.178V75.374
		c0-10.094,5.997-12.175,13.727-12.175c7.064,0,9.38,0.537,11.279,0.834c0.897,0.118,1.193,0.413,1.193,1.247v3.798
		c0,0.654-0.54,1.191-1.193,1.191h-12.118c-3.443,0-4.684,1.192-4.684,5.105v6.421h16.091c0.655,0,1.189,0.528,1.189,1.192v4.274
		c0,0.65-0.534,1.187-1.189,1.187h-16.091v7.665c0,3.916,1.24,5.108,4.684,5.108H346.9c0.653,0,1.193,0.537,1.193,1.186v3.803
		C348.094,107.04,347.798,107.341,346.9,107.457"/>
	<path fill="#FFFFFF" d="M394.791,107.457c-1.791,0.417-6.952,0.834-10.1,0.834c-7.732,0-13.722-2.082-13.722-12.178V64.865
		c0-0.659,0.521-1.189,1.179-1.189h5.878c0.658,0,1.185,0.53,1.185,1.189v31.248c0,3.916,1.2,5.108,4.653,5.108h10.927
		c0.648,0,1.184,0.537,1.184,1.186v3.803C395.975,107.04,395.68,107.279,394.791,107.457"/>
	<path fill="#FFFFFF" d="M433.347,107.807h-6.297c-0.538,0-1.014-0.466-1.128-1.002l-2.729-11.286h-13.671l-2.738,11.286
		c-0.11,0.537-0.595,1.002-1.127,1.002h-6.289c-0.604,0-1.074-0.411-1.074-1.002c0-0.06,0.061-0.178,0.061-0.297l9.739-37.252
		c1.429-5.52,5.706-6.057,8.259-6.057c2.564,0,6.841,0.537,8.257,6.057l9.748,37.252c0,0.12,0.056,0.237,0.056,0.297
		C434.412,107.396,433.938,107.807,433.347,107.807 M417.307,71.096c-0.185-0.71-0.359-0.95-0.955-0.95
		c-0.594,0-0.773,0.24-0.939,0.95l-4.282,17.651h10.449L417.307,71.096z"/>
	<path fill="#FFFFFF" d="M478.67,107.457c-1.779,0.417-6.951,0.834-10.09,0.834c-7.729,0-13.735-2.082-13.735-12.178V64.865
		c0-0.659,0.54-1.189,1.193-1.189h5.881c0.655,0,1.19,0.53,1.19,1.189v31.248c0,3.916,1.188,5.108,4.632,5.108h10.929
		c0.659,0,1.189,0.537,1.189,1.186v3.803C479.859,107.04,479.56,107.279,478.67,107.457"/>
	<path fill="#FFFFFF" d="M499.158,108.291c-9.799,0-16.935-5.466-16.935-18.534v-8.025c0-13.067,7.136-18.536,16.935-18.536
		c9.805,0,16.928,5.469,16.928,18.536v8.025C516.086,102.825,508.963,108.291,499.158,108.291 M507.772,81.732
		c0-7.84-2.799-11.346-8.614-11.346c-5.827,0-8.615,3.505-8.615,11.346v8.025c0,7.842,2.788,11.345,8.615,11.345
		c5.815,0,8.614-3.503,8.614-11.345V81.732z"/>
	<path fill="#FFFFFF" d="M530.885,107.807h-5.878c-0.658,0-1.188-0.528-1.188-1.18V64.802c0-0.652,0.53-1.127,1.188-1.127h5.878
		c0.653,0,1.188,0.475,1.188,1.127v41.825C532.073,107.279,531.538,107.807,530.885,107.807"/>
	<path fill="#FFFFFF" d="M572.35,107.807h-7.251c-0.646,0-0.895-0.588-1.185-1.18l-8.555-15.863h-0.83
		c-1.554,0-3.926-0.177-5.297-0.239v16.103c0,0.652-0.47,1.18-1.133,1.18h-5.928c-0.654,0-1.185-0.528-1.185-1.18V65.752
		c0-1.185,0.71-1.602,1.899-1.781c3.088-0.471,7.301-0.77,11.643-0.77c9.154,0,17.101,3.268,17.101,13.424v0.539
		c0,6.301-3.144,10.214-8.02,12.114l9.338,17.349c0.11,0.178,0.11,0.357,0.11,0.477C573.059,107.514,572.819,107.807,572.35,107.807
		 M563.444,76.625c0-4.464-2.983-6.356-8.915-6.356c-1.248,0-4.222,0.118-5.297,0.233v13.371c0.955,0.058,4.283,0.182,5.297,0.182
		c6.117,0,8.915-1.669,8.915-6.891V76.625z"/>
	<path fill="#FFFFFF" d="M603.295,107.457c-1.907,0.293-4.221,0.834-11.287,0.834c-7.729,0-13.731-2.082-13.731-12.178V75.374
		c0-10.094,6.002-12.175,13.731-12.175c7.066,0,9.38,0.537,11.287,0.834c0.891,0.118,1.186,0.413,1.186,1.247v3.798
		c0,0.654-0.53,1.191-1.186,1.191h-12.126c-3.443,0-4.688,1.192-4.688,5.105v6.421h16.095c0.655,0,1.19,0.528,1.19,1.192v4.274
		c0,0.65-0.535,1.187-1.19,1.187h-16.095v7.665c0,3.916,1.244,5.108,4.688,5.108h12.126c0.655,0,1.186,0.537,1.186,1.186v3.803
		C604.48,107.04,604.186,107.341,603.295,107.457"/>
	<path fill="#FFFFFF" d="M144.709,46.482h-3.193c-0.288,0-0.387-0.263-0.524-0.523l-3.77-6.985h-0.367
		c-0.68,0-1.723-0.081-2.329-0.106v7.091c0,0.291-0.21,0.523-0.493,0.523h-2.619c-0.287,0-0.522-0.232-0.522-0.523V27.953
		c0-0.523,0.313-0.708,0.835-0.786c1.361-0.208,3.216-0.341,5.128-0.341c4.036,0,7.542,1.443,7.542,5.918v0.233
		c0,2.779-1.39,4.505-3.535,5.34l4.108,7.642c0.052,0.078,0.052,0.156,0.052,0.21C145.023,46.352,144.917,46.482,144.709,46.482
		 M140.782,32.745c0-1.963-1.31-2.8-3.927-2.8c-0.547,0-1.855,0.048-2.329,0.103v5.887c0.417,0.027,1.888,0.078,2.329,0.078
		c2.697,0,3.927-0.729,3.927-3.035V32.745z"/>
	<path fill="#FFFFFF" d="M159.204,40.306h-8.535v0.082c0,1.516,0.633,3.321,3.146,3.321c1.904,0,3.711-0.157,4.812-0.258h0.083
		c0.259,0,0.469,0.131,0.469,0.39v1.729c0,0.424-0.077,0.602-0.552,0.682c-1.7,0.309-2.723,0.442-5.078,0.442
		c-2.62,0-6.334-1.416-6.334-6.568v-1.937c0-4.086,2.279-6.653,6.285-6.653c4.027,0,6.227,2.75,6.227,6.653v1.463
		C159.727,40.069,159.568,40.306,159.204,40.306 M156.246,37.743c0-2.042-1.12-3.217-2.746-3.217c-1.629,0-2.804,1.15-2.804,3.217
		v0.102h5.55V37.743z M157.792,26.492l-3.091,3.245c-0.21,0.232-0.314,0.336-0.626,0.336h-2.248c-0.161,0-0.238-0.081-0.238-0.187
		c0-0.077,0.027-0.182,0.106-0.259l2.48-3.136c0.238-0.291,0.345-0.399,0.684-0.399h2.748c0.187,0,0.292,0.081,0.292,0.185
		C157.898,26.331,157.867,26.412,157.792,26.492"/>
	<path fill="#FFFFFF" d="M175.643,34.102l-0.867,0.348c0.415,0.599,0.651,1.173,0.651,2.087v0.187c0,3.268-2.25,4.759-6.199,4.759
		c-1.389,0-2.332-0.235-2.854-0.442c-0.318,0.207-0.442,0.442-0.442,0.677c0,0.523,0.286,0.733,0.886,0.867l3.091,0.733
		c3.557,0.839,5.857,1.383,5.857,4.183v0.187c0,2.671-1.96,4.107-6.409,4.107c-4.235,0-6.49-1.597-6.49-4.342v-0.235
		c0-1.075,0.5-2.125,1.332-2.876c-0.725-0.553-1.173-1.466-1.173-2.416v-0.023c0-0.814,0.341-1.629,1.044-2.12
		c-0.786-0.809-1.073-1.754-1.073-3.059v-0.187c0-2.613,1.704-4.816,6.231-4.816h6.124c0.392,0,0.703,0.318,0.703,0.706v1.102
		C176.055,33.925,175.954,33.975,175.643,34.102 M172.317,47.501c0-0.569-0.34-0.913-3.089-1.567l-2.332-0.551
		c-0.387,0.551-0.655,0.89-0.655,1.835v0.235c0,1.074,0.655,1.729,3.116,1.729c2.513,0,2.959-0.554,2.959-1.494V47.501z
		 M172.026,36.589c0-1.253-0.549-2.222-2.798-2.222c-2.224,0-2.83,0.991-2.83,2.222v0.212c0,0.967,0.396,2.067,2.83,2.067
		c2.173,0,2.798-0.758,2.798-2.067V36.589z"/>
	<path fill="#FFFFFF" d="M182.102,29.76h-2.535c-0.294,0-0.549-0.237-0.549-0.528v-2.3c0-0.286,0.255-0.521,0.549-0.521h2.535
		c0.29,0,0.524,0.235,0.524,0.521v2.3C182.626,29.523,182.392,29.76,182.102,29.76 M182.026,46.482h-2.41
		c-0.288,0-0.524-0.263-0.524-0.548V32.247c0-0.286,0.237-0.523,0.524-0.523h2.41c0.284,0,0.518,0.237,0.518,0.523v13.687
		C182.544,46.22,182.31,46.482,182.026,46.482"/>
	<path fill="#FFFFFF" d="M192.364,46.692c-4.112,0-6.254-2.775-6.254-6.518v-2.118c0-3.743,2.142-6.522,6.254-6.522
		s6.253,2.78,6.253,6.522v2.118C198.618,43.917,196.476,46.692,192.364,46.692 M195.166,38.057c0-2.146-0.969-3.531-2.802-3.531
		c-1.831,0-2.802,1.385-2.802,3.531v2.118c0,2.146,0.971,3.533,2.802,3.533c1.833,0,2.802-1.388,2.802-3.533V38.057z"/>
	<path fill="#FFFFFF" d="M213.667,46.482h-2.408c-0.292,0-0.526-0.263-0.526-0.548V37.4c0-2.272-0.209-2.927-2.225-2.927
		c-0.887,0-1.854,0.364-2.954,0.943v10.518c0,0.286-0.232,0.548-0.528,0.548h-2.401c-0.291,0-0.524-0.263-0.524-0.548V32.247
		c0-0.286,0.233-0.523,0.524-0.523h2.275c0.291,0,0.521,0.237,0.521,0.523v0.548c1.521-0.967,2.513-1.26,4.244-1.26
		c3.768,0,4.529,2.542,4.529,5.866v8.534C214.193,46.22,213.953,46.482,213.667,46.482"/>
	<path fill="#FFFFFF" d="M62.366,85.714c0-33.081-12.831-63.147-33.804-85.714H0.028c25.714,19.815,42.301,50.827,42.301,85.714
		c0,34.957-16.587,65.941-42.329,85.754h28.562C49.535,148.917,62.366,118.826,62.366,85.714"/>
	<path fill="#FFFFFF" d="M76.836,86.148C76.836,54.115,66.644,24.386,49.3,0h39.439c14.471,25.474,22.733,54.878,22.733,86.148
		c0,30.97-8.082,60.067-22.213,85.32H49.838C66.856,147.26,76.836,117.883,76.836,86.148"/>
</g>
</svg>
