<?xml version="1.0" encoding="utf-8"?>
<!-- Generator: Adobe Illustrator 17.0.0, SVG Export Plug-In . SVG Version: 6.00 Build 0)  -->
<!DOCTYPE svg PUBLIC "-//W3C//DTD SVG 1.1//EN" "http://www.w3.org/Graphics/SVG/1.1/DTD/svg11.dtd">
<svg version="1.1" id="Calque_1" xmlns="http://www.w3.org/2000/svg" xmlns:xlink="http://www.w3.org/1999/xlink" x="0px" y="0px"
	 width="561px" height="583px" viewBox="0 0 561 583" enable-background="new 0 0 561 583" xml:space="preserve">
<polygon fill="#E2C9BB" points="317.506,531.864 50.71,378.772 286.293,239.8 555.876,393.553 "/>
<polygon fill="#91B024" points="318.043,512.832 78.71,375.499 290.043,250.832 531.876,388.758 "/>
<polygon fill="#C5AEA4" points="317.276,531.964 555.876,393.553 555.832,396.933 317.253,536.059 "/>
<polygon fill="#3D3D3D" points="2.543,410.874 267.898,566.425 267.876,561.416 2.71,405.499 "/>
<polygon fill="#562D13" points="267.898,566.425 2.718,409.107 2.668,420.999 267.904,575.024 "/>
<polygon fill="#744712" points="555.718,406.89 267.987,574.993 267.938,564.907 555.86,396.867 "/>
<polygon fill="#EEEEEE" points="318.71,488.166 118.21,369.586 291.376,266.166 494.543,386.839 "/>
<polygon fill="#575556" points="268.043,561.499 2.71,405.499 50.71,378.772 317.506,531.864 "/>
<polygon fill="#696969" points="267.876,561.416 317.506,531.864 317.398,536.008 267.898,566.425 "/>
<path fill="#5B2911" d="M248.917,255.397c0-0.571,1.004-1.033,2.243-1.033l0,0c1.239,0,2.243,0.462,2.243,1.033v30.104
	c0,0.57-1.004,1.033-2.243,1.033l0,0c-1.239,0-2.243-0.462-2.243-1.033V255.397z"/>
<ellipse fill="#52822F" cx="250.526" cy="246.985" rx="21.073" ry="28.038"/>
<path fill="#436729" d="M251.286,275.023c11.639,0,21.073-12.553,21.073-28.038s-9.435-28.038-21.073-28.038
	c0,0,12.72,11.51,12.34,29.219C263.246,265.874,251.286,275.023,251.286,275.023z"/>
<path fill="#5B2911" d="M206.152,283.9c0-0.57,1.004-1.033,2.243-1.033l0,0c1.239,0,2.243,0.462,2.243,1.033v30.104
	c0,0.571-1.004,1.033-2.243,1.033l0,0c-1.239,0-2.243-0.462-2.243-1.033V283.9z"/>
<ellipse fill="#52822F" cx="207.761" cy="275.488" rx="21.073" ry="28.038"/>
<path fill="#436729" d="M208.521,303.527c11.639,0,21.073-12.553,21.073-28.038c0-15.485-9.435-28.038-21.073-28.038
	c0,0,12.72,11.51,12.34,29.219S208.521,303.527,208.521,303.527z"/>
<path fill="#5B2911" d="M156.25,310.73c0-0.57,1.004-1.033,2.243-1.033l0,0c1.239,0,2.243,0.462,2.243,1.033v30.104
	c0,0.57-1.004,1.033-2.243,1.033l0,0c-1.239,0-2.243-0.462-2.243-1.033V310.73z"/>
<ellipse fill="#52822F" cx="157.86" cy="302.318" rx="21.073" ry="28.038"/>
<path fill="#436729" d="M158.619,330.357c11.639,0,21.073-12.553,21.073-28.038s-9.435-28.038-21.073-28.038
	c0,0,12.72,11.51,12.34,29.219S158.619,330.357,158.619,330.357z"/>
<path fill="#5B2911" d="M105.583,338.73c0-0.57,1.004-1.033,2.243-1.033l0,0c1.239,0,2.243,0.462,2.243,1.033v30.104
	c0,0.57-1.004,1.033-2.243,1.033l0,0c-1.239,0-2.243-0.462-2.243-1.033V338.73z"/>
<ellipse fill="#52822F" cx="107.193" cy="330.318" rx="21.073" ry="28.038"/>
<path fill="#436729" d="M107.953,358.357c11.639,0,21.073-12.553,21.073-28.038s-9.435-28.038-21.073-28.038
	c0,0,12.72,11.51,12.34,29.219C119.913,349.207,107.953,358.357,107.953,358.357z"/>
<g>
	<g>
		<line fill="none" stroke="#FFFFFF" stroke-miterlimit="10" x1="28.293" y1="392.166" x2="33.498" y2="395.15"/>
		
			<line fill="none" stroke="#FFFFFF" stroke-miterlimit="10" stroke-dasharray="11.7182,11.7182" x1="43.663" y1="400.98" x2="282.552" y2="537.965"/>
		<line fill="none" stroke="#FFFFFF" stroke-miterlimit="10" x1="287.634" y1="540.88" x2="292.839" y2="543.864"/>
	</g>
</g>
<g>
	<path fill="#FFFFFF" d="M5.376,404.439c0,0,4.204,2.331,11.56,6.41c7.335,4.116,17.854,9.927,30.406,17.024
		c12.547,7.105,27.229,15.317,42.881,24.254c15.654,8.933,32.351,18.462,49.048,27.992c16.653,9.607,33.305,19.214,48.917,28.221
		c15.616,8.999,30.112,17.536,42.578,24.783c12.462,7.253,22.785,13.406,30.04,17.662c7.234,4.294,11.367,6.747,11.367,6.747
		s-4.204-2.331-11.561-6.409c-7.335-4.116-17.856-9.924-30.406-17.023c-12.547-7.105-27.232-15.313-42.881-24.254
		c-15.653-8.934-32.35-18.463-49.048-27.993c-16.652-9.607-33.305-19.215-48.916-28.222c-15.614-9.003-30.112-17.536-42.577-24.784
		c-12.461-7.255-22.785-13.405-30.04-17.661C9.51,406.892,5.376,404.439,5.376,404.439z"/>
</g>
<g>
	<path fill="#FFFFFF" d="M46.71,381.106c0,0,4.204,2.331,11.56,6.41c7.335,4.116,17.854,9.927,30.406,17.024
		c12.547,7.105,27.229,15.317,42.881,24.254c15.654,8.933,32.351,18.463,49.048,27.992c16.652,9.607,33.305,19.214,48.917,28.221
		c15.616,8.999,30.112,17.536,42.577,24.783c12.462,7.253,22.785,13.406,30.04,17.662c7.234,4.294,11.367,6.747,11.367,6.747
		s-4.204-2.331-11.561-6.409c-7.335-4.116-17.856-9.924-30.406-17.023c-12.547-7.105-27.232-15.313-42.881-24.254
		c-15.653-8.934-32.35-18.463-49.048-27.993c-16.652-9.607-33.305-19.215-48.916-28.222c-15.614-9.003-30.112-17.536-42.577-24.784
		c-12.461-7.255-22.785-13.405-30.04-17.661C50.843,383.559,46.71,381.106,46.71,381.106z"/>
</g>
<polygon fill="#808181" points="445.21,383.082 303.21,464.832 302.543,465.166 151.793,376.499 168.626,367.999 308.96,448.332 
	451.835,367.082 464.293,371.999 "/>
<polygon fill="#EEEEEE" points="206.293,308.999 168.793,331.249 308.052,412.947 380.168,371.374 357.293,358.249 "/>
<polygon fill="#C9C9C9" points="206.273,130.346 304.876,186.416 304.96,387.832 206.626,334.999 "/>
<polygon fill="#5E9CA1" points="234.249,286.132 219.748,277.956 219.774,292.949 234.275,301.126 "/>
<polygon fill="#9C9B9B" points="162.293,394.749 159.043,392.999 159.043,369.249 162.272,370.999 "/>
<polygon fill="#9C9B9B" points="184.585,407.811 181.418,406.124 181.418,382.374 184.543,384.124 "/>
<polygon fill="#9C9B9B" points="233.543,436.499 230.418,434.749 230.418,410.999 233.423,412.749 "/>
<polygon fill="#9C9B9B" points="256.355,450.124 253.105,448.374 253.168,424.374 256.376,426.145 "/>
<polygon fill="#808181" points="184.585,407.811 194.689,400.957 194.689,400.957 194.647,390.228 184.543,384.124 "/>
<polygon fill="#808181" points="233.543,436.499 243.48,429.999 243.48,429.999 243.543,420.707 233.418,414.749 "/>
<polygon fill="#808181" points="256.355,450.124 267.189,443.145 267.376,442.957 267.355,434.561 256.355,428.186 "/>
<polygon fill="#808181" points="162.293,394.749 172.605,388.061 172.605,388.061 172.543,377.875 162.272,371.041 "/>
<polygon fill="#6F6166" points="308.543,449.499 168.543,367.249 168.793,331.249 308.052,412.947 "/>
<polygon fill="#7C7C7E" points="271.323,437.005 149.005,365.669 175.664,350.993 298.585,422.207 "/>
<polygon fill="#A2A2A2" points="357.293,359.499 304.751,388.074 304.751,186.416 356.668,157.249 "/>
<polygon fill="#716167" points="380.251,371.499 357.168,359.499 356.78,157.249 379.251,169.512 "/>
<path fill="none" stroke="#1D1D1B" stroke-width="0.25" stroke-miterlimit="10" d="M398.105,364.123"/>
<path fill="none" stroke="#1D1D1B" stroke-width="0.25" stroke-miterlimit="10" d="M397.48,161.873"/>
<path fill="none" stroke="#1D1D1B" stroke-width="0.25" stroke-miterlimit="10" d="M420.626,373.832"/>
<polygon fill="#584D50" points="451.835,367.082 308.543,449.499 308.052,412.947 451.793,329.624 "/>
<polygon fill="#584C50" points="380.168,371.374 430.523,341.997 430.523,140.082 379.139,169.512 "/>
<polygon fill="#EEEEEE" points="430.501,316.666 451.793,329.624 430.523,341.997 "/>
<polygon fill="#BEB5B8" points="256.951,320.51 214.883,296.674 235.293,284.749 277.876,308.582 "/>
<polygon fill="#978B91" points="277.793,372.999 257.46,383.499 256.868,320.51 277.876,308.582 "/>
<polygon fill="#6E5C63" points="257.46,383.499 215.293,358.749 215.126,296.832 256.951,320.51 "/>
<polygon fill="#EFEFF0" points="271.364,434.88 149.046,363.544 175.706,348.868 298.539,420.202 "/>
<polygon fill="#7C7C7E" points="298.585,422.207 298.539,420.202 295.855,421.686 "/>
<polygon fill="#7C7C7E" points="149.005,365.669 149.046,363.544 151.501,364.999 151.501,366.041 "/>
<g>
	<polygon fill="#5E9CA1" points="257.761,258.341 276.758,269.053 276.732,254.06 257.735,243.347 	"/>
	<polygon fill="#5E9CA1" points="257.793,276.704 276.79,287.417 276.762,271.547 257.765,260.834 	"/>
	<polygon fill="#5E9CA1" points="257.826,296.202 276.823,306.914 276.795,290.283 257.797,279.571 	"/>
	<polygon fill="#5E9CA1" points="257.73,240.627 276.727,251.339 276.701,236.161 257.704,225.448 	"/>
	<polygon fill="#5E9CA1" points="257.699,222.454 276.696,233.167 276.671,218.674 257.674,207.962 	"/>
	<polygon fill="#5E9CA1" points="254.964,277.973 236.799,267.73 236.828,284.361 254.993,294.604 	"/>
	<polygon fill="#5E9CA1" points="254.932,259.237 236.767,248.994 236.794,264.864 254.959,275.107 	"/>
	<polygon fill="#5E9CA1" points="254.901,241.75 236.737,231.507 236.763,246.5 254.927,256.743 	"/>
	<polygon fill="#5E9CA1" points="254.81,188.671 236.645,178.428 236.671,193.443 254.836,203.686 	"/>
	<polygon fill="#5E9CA1" points="276.666,215.996 276.64,200.981 257.643,190.269 257.669,205.283 	"/>
	<polygon fill="#5E9CA1" points="254.84,206.364 236.675,196.121 236.701,210.614 254.865,220.857 	"/>
	<polygon fill="#5E9CA1" points="254.87,223.851 236.706,213.608 236.732,228.786 254.897,239.029 	"/>
	<polygon fill="#5E9CA1" points="233.966,266.132 219.465,257.956 219.494,274.587 233.995,282.764 	"/>
	<polygon fill="#5E9CA1" points="233.933,247.396 219.433,239.219 219.461,255.089 233.961,263.266 	"/>
	<polygon fill="#5E9CA1" points="233.842,194.523 219.342,186.347 219.367,200.839 233.867,209.016 	"/>
	<polygon fill="#5E9CA1" points="233.872,212.01 219.372,203.834 219.398,219.012 233.898,227.188 	"/>
	<polygon fill="#5E9CA1" points="233.903,229.909 219.403,221.732 219.429,236.726 233.929,244.902 	"/>
	<polygon fill="#5E9CA1" points="279.657,308.512 293.497,316.316 293.468,299.685 279.628,291.881 	"/>
	<polygon fill="#5E9CA1" points="279.687,325.999 293.527,333.803 293.501,318.81 279.661,311.006 	"/>
	<polygon fill="#5E9CA1" points="233.811,176.83 219.311,168.654 219.337,183.668 233.837,191.845 	"/>
	<polygon fill="#5E9CA1" points="279.623,289.014 293.464,296.819 293.436,280.949 279.596,273.144 	"/>
	<polygon fill="#5E9CA1" points="279.747,360.753 293.587,368.558 293.558,351.789 279.718,343.985 	"/>
	<polygon fill="#5E9CA1" points="279.714,341.433 293.554,349.237 293.531,336.173 279.691,328.368 	"/>
	<polygon fill="#5E9CA1" points="233.78,158.676 219.28,150.5 219.306,165.827 233.807,174.003 	"/>
	<polygon fill="#5E9CA1" points="293.309,207.556 293.283,192.229 279.443,184.425 279.469,199.752 	"/>
	<polygon fill="#5E9CA1" points="254.805,185.844 254.778,170.517 236.614,160.274 236.64,175.601 	"/>
	<polygon fill="#5E9CA1" points="276.635,198.154 276.609,182.827 257.612,172.115 257.638,187.441 	"/>
	<polygon fill="#5E9CA1" points="279.561,252.937 293.401,260.741 293.375,245.563 279.535,237.758 	"/>
	<polygon fill="#5E9CA1" points="279.591,270.651 293.432,278.455 293.406,263.462 279.566,255.657 	"/>
	<polygon fill="#5E9CA1" points="279.5,217.593 293.34,225.398 293.314,210.383 279.474,202.579 	"/>
	<polygon fill="#5E9CA1" points="279.529,234.764 293.37,242.569 293.345,228.076 279.504,220.272 	"/>
</g>
<g>
	<polygon fill="#4D8080" points="327.21,340.147 343.71,330.917 343.71,318.226 327.21,327.456 	"/>
	<polygon fill="#4D8080" points="327.21,359.707 343.71,350.477 343.71,334.264 327.21,343.494 	"/>
	<polygon fill="#4D8080" points="327.21,288.206 343.71,278.976 343.71,263.934 327.21,273.164 	"/>
	<polygon fill="#4D8080" points="327.21,324.037 343.71,314.807 343.71,301.765 327.21,310.995 	"/>
	<polygon fill="#4D8080" points="327.21,269.817 343.71,260.587 343.71,245.896 327.21,255.126 	"/>
	<polygon fill="#4D8080" points="327.21,307.647 343.71,298.417 343.71,282.726 327.21,291.956 	"/>
	<polygon fill="#4D8080" points="325.21,221.008 313.71,227.441 313.71,241.78 325.21,235.346 	"/>
	<polygon fill="#4D8080" points="325.21,312.113 313.71,318.547 313.71,331.588 325.21,325.155 	"/>
	<polygon fill="#4D8080" points="325.21,293.075 313.71,299.508 313.71,315.199 325.21,308.766 	"/>
	<polygon fill="#4D8080" points="325.21,274.283 313.71,280.716 313.71,295.758 325.21,289.325 	"/>
	<polygon fill="#4D8080" points="325.21,328.575 313.71,335.008 313.71,347.698 325.21,341.265 	"/>
	<polygon fill="#4D8080" points="327.21,359.707 327.21,365.805 343.71,356.575 343.71,350.477 	"/>
	<polygon fill="#4D8080" points="327.21,251.617 343.71,242.387 343.71,228.345 327.21,237.575 	"/>
	<polygon fill="#4D8080" points="325.21,344.613 313.71,351.046 313.71,367.259 325.21,360.826 	"/>
	<polygon fill="#4D8080" points="313.71,367.259 313.71,373.356 325.21,366.923 325.21,360.826 	"/>
	<polygon fill="#4D8080" points="325.21,256.245 313.71,262.678 313.71,277.368 325.21,270.935 	"/>
	<polygon fill="#4D8080" points="343.71,189.922 343.71,174.231 327.21,183.461 327.21,199.152 	"/>
	<polygon fill="#4D8080" points="327.21,216.541 343.71,207.311 343.71,193.269 327.21,202.499 	"/>
	<polygon fill="#4D8080" points="327.21,234.228 343.71,224.998 343.71,210.659 327.21,219.889 	"/>
	<polygon fill="#4D8080" points="325.21,238.694 313.71,245.127 313.71,259.169 325.21,252.736 	"/>
	<polygon fill="#4D8080" points="325.21,184.58 313.71,191.013 313.71,206.703 325.21,200.27 	"/>
	<polygon fill="#4D8080" points="325.21,203.618 313.71,210.051 313.71,224.093 325.21,217.66 	"/>
</g>
<g>
	<polygon fill="#48867D" points="409.671,272.645 423.175,265.091 423.146,249.416 409.623,256.981 	"/>
	<polygon fill="#48867D" points="409.672,290.066 409.721,305.73 409.773,305.701 409.725,290.037 	"/>
	<polygon fill="#48867D" points="409.773,305.701 423.235,298.17 423.207,282.495 409.725,290.037 	"/>
	<polygon fill="#48867D" points="409.619,272.674 409.671,272.645 409.623,256.981 409.57,257.01 	"/>
	<polygon fill="#48867D" points="409.515,239.167 409.568,239.138 409.519,223.474 409.467,223.504 	"/>
	<polygon fill="#48867D" points="409.568,239.138 423.114,231.56 423.085,215.886 409.519,223.474 	"/>
	<polygon fill="#48867D" points="409.415,206.831 409.468,206.801 409.419,191.138 409.367,191.167 	"/>
	<polygon fill="#48867D" points="401.464,261.545 386.817,269.739 386.865,285.402 401.512,277.209 	"/>
	<polygon fill="#48867D" points="401.566,294.601 386.919,302.795 386.967,318.458 401.615,310.265 	"/>
	<polygon fill="#48867D" points="387.019,335.136 387.067,350.799 401.714,342.605 401.666,326.942 	"/>
	<line fill="#48867D" x1="409.821" y1="338.071" x2="409.873" y2="338.042"/>
	<polygon fill="#48867D" points="401.16,163.087 386.512,171.28 386.561,186.944 401.208,178.75 	"/>
	<polygon fill="#48867D" points="422.995,166.562 422.967,150.888 409.318,158.523 409.367,174.186 	"/>
	<polygon fill="#48867D" points="409.468,206.801 423.055,199.201 423.026,183.526 409.419,191.138 	"/>
	<polygon fill="#48867D" points="401.36,228.038 386.713,236.232 386.761,251.896 401.409,243.702 	"/>
	<polygon fill="#48867D" points="401.26,195.702 386.613,203.895 386.661,219.559 401.309,211.365 	"/>
</g>
<polygon fill="#48867D" points="412.148,338.326 425.61,330.795 425.582,315.12 412.1,322.662 "/>
<g>
	<polygon fill="#5E9CA1" points="251.46,326.749 251.46,321.211 241.21,315.704 241.21,321.241 	"/>
	<polygon fill="#5E9CA1" points="241.21,340.954 251.46,346.461 251.46,328.368 241.21,322.861 	"/>
	<polygon fill="#5E9CA1" points="229.46,334.641 238.96,339.745 238.96,321.652 229.46,316.548 	"/>
	<polygon fill="#5E9CA1" points="229.543,346.044 239.043,351.148 238.96,345.223 229.46,340.118 	"/>
	<polygon fill="#5E9CA1" points="227.71,308.451 218.96,303.749 218.96,309.287 227.71,313.988 	"/>
	<polygon fill="#5E9CA1" points="241.21,369.353 251.46,374.86 251.46,359.286 241.21,353.779 	"/>
	<polygon fill="#5E9CA1" points="229.46,347.466 229.46,363.04 238.96,368.144 238.96,352.57 	"/>
	<polygon fill="#5E9CA1" points="241.126,352.107 251.376,357.614 251.46,351.939 241.21,346.432 	"/>
	<polygon fill="#5E9CA1" points="238.96,320.032 238.96,314.495 229.46,309.391 229.46,314.928 	"/>
	<polygon fill="#5E9CA1" points="227.71,315.607 218.96,310.906 218.96,328.999 227.71,333.701 	"/>
	<polygon fill="#5E9CA1" points="218.96,341.824 218.96,357.399 227.71,362.1 227.71,346.525 	"/>
	<polygon fill="#5E9CA1" points="227.71,339.178 218.96,334.477 218.876,340.236 227.626,344.937 	"/>
</g>
<path fill="#5B2911" d="M481.906,374.329c0-0.57,1.004-1.033,2.243-1.033l0,0c1.239,0,2.243,0.462,2.243,1.033v30.104
	c0,0.57-1.004,1.033-2.243,1.033l0,0c-1.239,0-2.243-0.462-2.243-1.033V374.329z"/>
<ellipse fill="#52822F" cx="483.516" cy="365.918" rx="21.073" ry="28.038"/>
<path fill="#436729" d="M484.275,393.956c11.639,0,21.073-12.553,21.073-28.038s-9.435-28.038-21.073-28.038
	c0,0,12.72,11.51,12.34,29.219S484.275,393.956,484.275,393.956z"/>
<path fill="#5B2911" d="M439.141,402.832c0-0.57,1.004-1.033,2.243-1.033l0,0c1.239,0,2.243,0.462,2.243,1.033v30.104
	c0,0.57-1.004,1.033-2.243,1.033l0,0c-1.239,0-2.243-0.462-2.243-1.033V402.832z"/>
<ellipse fill="#52822F" cx="440.751" cy="394.421" rx="21.073" ry="28.038"/>
<path fill="#436729" d="M441.51,422.459c11.639,0,21.073-12.553,21.073-28.038c0-15.485-9.435-28.038-21.073-28.038
	c0,0,12.72,11.51,12.34,29.219S441.51,422.459,441.51,422.459z"/>
<path fill="#5B2911" d="M389.239,429.662c0-0.57,1.004-1.033,2.243-1.033l0,0c1.239,0,2.243,0.462,2.243,1.033v30.104
	c0,0.57-1.004,1.033-2.243,1.033l0,0c-1.239,0-2.243-0.462-2.243-1.033V429.662z"/>
<ellipse fill="#52822F" cx="390.849" cy="421.251" rx="21.073" ry="28.038"/>
<path fill="#436729" d="M391.609,449.289c11.639,0,21.073-12.553,21.073-28.038s-9.435-28.038-21.073-28.038
	c0,0,12.72,11.51,12.34,29.219C403.569,440.14,391.609,449.289,391.609,449.289z"/>
<path fill="#5B2911" d="M338.573,457.662c0-0.57,1.004-1.033,2.243-1.033l0,0c1.239,0,2.243,0.462,2.243,1.033v30.104
	c0,0.57-1.004,1.033-2.243,1.033l0,0c-1.239,0-2.243-0.462-2.243-1.033V457.662z"/>
<ellipse fill="#52822F" cx="340.182" cy="449.251" rx="21.073" ry="28.038"/>
<path fill="#436729" d="M340.942,477.289c11.639,0,21.073-12.553,21.073-28.038s-9.435-28.038-21.073-28.038
	c0,0,12.72,11.51,12.34,29.219S340.942,477.289,340.942,477.289z"/>
<polygon fill="#EDEEEC" points="304.793,186.341 206.106,130.512 309.775,71.819 409.147,127.696 "/>
<polygon fill="#767676" points="228.366,132.981 222.176,129.635 310.456,79.655 310.73,86.374 "/>
<polygon fill="#9D9C9C" points="310.456,79.655 310.501,85.207 390.126,129.999 395.077,127.237 "/>
<polygon fill="#BCBBBB" points="306.354,176.927 228.366,132.981 311.516,85.905 390.053,129.889 "/>
<polygon fill="#9F8C92" points="378.98,169.936 356.668,157.249 409.147,127.696 430.605,140.061 "/>
<polygon fill="#EEEEEE" points="322.517,118.798 284.376,96.533 308.376,82.866 345.972,104.965 "/>
<polygon fill="#828383" points="345.972,126.366 322.71,140.124 322.517,118.798 345.972,104.965 "/>
<polygon fill="#9F9D9D" points="290.168,159.124 251.96,137.166 251.793,115.332 289.934,137.597 "/>
<polygon fill="#9F9D9D" points="322.71,140.124 284.556,118.332 284.389,96.499 322.53,118.764 "/>
<line fill="none" stroke="#716167" stroke-width="3" stroke-linecap="round" stroke-miterlimit="10" x1="311.074" y1="124.651" x2="311.074" y2="9.318"/>
<rect x="311.74" y="10.651" fill="#716167" width="60" height="38.667"/>
<g>
	<polygon fill="#EEEEEE" points="289.934,137.597 251.793,115.332 275.793,101.666 313.46,123.999 	"/>
	<polygon fill="#828383" points="313.501,145.374 290.168,159.124 289.934,137.597 313.501,123.972 	"/>
</g>
</svg>
