<?xml version="1.0" encoding="utf-8"?>
<!-- Generator: Adobe Illustrator 17.0.0, SVG Export Plug-In . SVG Version: 6.00 Build 0)  -->
<!DOCTYPE svg PUBLIC "-//W3C//DTD SVG 1.1//EN" "http://www.w3.org/Graphics/SVG/1.1/DTD/svg11.dtd">
<svg version="1.1" id="Calque_1" xmlns="http://www.w3.org/2000/svg" xmlns:xlink="http://www.w3.org/1999/xlink" x="0px" y="0px"
	 width="404px" height="403px" viewBox="0 0 404 403" enable-background="new 0 0 404 403" xml:space="preserve">
<polygon fill="#91B024" points="216.425,383.095 4.903,262.173 185.514,157.77 396.538,277.91 "/>
<polygon fill="#9BC448" points="216.154,383.005 395.839,278.243 395.791,281.902 216.171,386.427 "/>
<polygon fill="#676F28" points="4.592,265.542 216.081,386.156 216.064,382.734 4.545,262.02 "/>
<polygon fill="#562D13" points="216.081,386.156 4.592,265.542 4.628,277.382 216.135,397.022 "/>
<polygon fill="#744712" points="395.69,292.83 216.225,397.349 216.171,386.427 395.845,281.977 "/>
<ellipse fill="#52822F" cx="291.582" cy="268.494" rx="21.749" ry="18.961"/>
<path fill="#436729" d="M292.366,287.455c12.012,0,21.749-8.489,21.749-18.961c0-10.472-9.738-18.961-21.749-18.961
	c0,0,13.128,7.784,12.736,19.759C304.71,281.268,292.366,287.455,292.366,287.455z"/>
<polygon fill="#634C36" points="303.366,332.112 258.156,306.033 286.221,290.422 330.98,316.05 "/>
<polygon fill="#BFB485" points="219.308,327.059 111.021,264.248 111.021,209.026 219.308,263.173 "/>
<polygon fill="#E9DEA2" points="271.151,165.124 289.109,213.132 223.595,252.296 241.282,181.548 "/>
<polygon fill="#E9DEA2" points="219.173,327.465 288.748,288.978 288.748,212.951 219.173,254.103 "/>
<polygon fill="#B2B0A7" points="255.697,294.045 229.054,309.462 229.077,264.697 255.697,249.363 "/>
<polygon fill="#B2B0A7" points="269.165,222.576 242.522,237.993 242.546,193.228 269.165,177.894 "/>
<polygon fill="#704C25" points="284.777,291.505 261.495,304.499 261.315,249.453 284.777,236.458 "/>
<polygon fill="#9ED7F0" points="253.69,293.084 231.22,306.078 231.22,265.877 253.69,252.611 "/>
<polygon fill="#9ED7F0" points="267.158,221.615 244.553,234.203 244.688,194.543 266.955,181.683 "/>
<polygon fill="#9A9994" points="206.991,311.899 180.596,296.738 180.596,251.664 206.991,266.825 "/>
<polygon fill="#9A9994" points="176.873,294.911 150.478,279.886 150.478,235.218 176.873,250.243 "/>
<polygon fill="#9A9994" points="146.147,277.721 119.752,262.696 119.752,218.027 146.147,233.052 "/>
<polygon fill="#98CFE2" points="205.2,308.853 182.792,295.869 182.792,255.657 205.2,268.641 "/>
<polygon fill="#98CFE2" points="175.015,291.933 152.607,278.949 152.607,238.737 175.015,251.722 "/>
<polygon fill="#98CFE2" points="144.424,274.743 122.016,261.758 122.016,221.547 144.424,234.531 "/>
<path fill="#5B2911" d="M71.079,243.673c0-0.618,1.087-1.119,2.428-1.119l0,0c1.341,0,2.428,0.501,2.428,1.119v32.599
	c0,0.618-1.087,1.119-2.428,1.119l0,0c-1.341,0-2.428-0.501-2.428-1.119V243.673z"/>
<ellipse fill="#52822F" cx="72.822" cy="234.564" rx="22.82" ry="30.362"/>
<path fill="#436729" d="M73.644,264.926c12.603,0,22.82-13.594,22.82-30.362s-10.217-30.362-22.82-30.362
	c0,0,13.774,12.464,13.363,31.64S73.644,264.926,73.644,264.926z"/>
<ellipse fill="#52822F" cx="111.218" cy="268.855" rx="15.367" ry="13.397"/>
<path fill="#436729" d="M111.772,282.252c8.487,0,15.367-5.998,15.367-13.397s-6.88-13.397-15.367-13.397
	c0,0,9.276,5.5,8.999,13.961C120.494,277.881,111.772,282.252,111.772,282.252z"/>
<ellipse fill="#52822F" cx="133.843" cy="288.708" rx="21.749" ry="18.961"/>
<path fill="#436729" d="M134.627,307.669c12.012,0,21.749-8.489,21.749-18.961c0-10.472-9.738-18.961-21.749-18.961
	c0,0,13.128,7.784,12.736,19.759C146.971,301.482,134.627,307.669,134.627,307.669z"/>
<polygon fill="#E9DEA2" points="218.09,120.501 204.96,120.501 204.96,99.655 218.09,92.075 "/>
<polygon fill="#C1B365" points="204.915,114.004 189.665,113.823 189.665,90.812 204.915,99.656 "/>
<polygon fill="#EF8028" points="204.96,99.655 183.844,87.744 183.887,87.719 204.419,75.832 225.264,88.285 "/>
<polygon fill="#EF8028" points="215.112,266.147 237.853,174.645 133.084,114.545 97.62,201.716 "/>
<polygon fill="#F5A467" points="237.853,174.645 133.084,114.545 171.797,92.617 275.753,152.716 "/>
<polygon fill="#F5A467" points="204.825,97.219 183.709,85.307 204.283,73.396 225.129,85.849 "/>
<polygon fill="#C1B365" points="112.781,188 149.057,208.575 130.828,145.046 "/>
<polygon fill="#BC6723" points="130.828,145.046 151.764,133.134 149.057,208.575 "/>
<polygon fill="#9C8E4D" points="117.834,186.195 141.116,199.731 139.672,194.678 125.595,186.376 125.053,173.201 128.663,165.079 
	131.911,166.523 129.565,158.221 "/>
<polygon fill="#9ED7F0" points="131.911,166.523 139.672,194.678 125.595,186.376 125.053,173.201 128.663,165.079 "/>
<polygon fill="#C1B365" points="162.773,216.696 199.05,237.271 180.821,173.742 "/>
<polygon fill="#BC6723" points="180.821,173.742 201.757,161.83 199.05,237.271 "/>
<polygon fill="#9C8E4D" points="167.827,214.891 191.108,228.427 189.665,223.374 175.587,215.072 175.046,201.897 178.655,193.775 
	181.904,195.219 179.558,186.917 "/>
<polygon fill="#9ED7F0" points="181.904,195.219 189.665,223.374 175.587,215.072 175.046,201.897 178.655,193.775 "/>
<polygon fill="#BD671D" points="295.786,219.945 299.396,217.959 275.753,152.716 237.853,174.645 215.112,266.147 220.527,263.801 
	241.011,181.142 274.851,162.733 "/>
<polygon fill="#723D13" points="288.838,216.741 295.786,219.9 274.851,162.733 270.835,164.944 288.793,212.816 "/>
<polygon fill="#96673F" points="203.785,77.148 204.154,93.377 217.985,85.631 "/>
<polygon fill="#C0824E" points="203.785,77.193 204.154,93.422 189.769,85.307 "/>
<polygon fill="#EF8028" points="225.264,88.285 225.129,85.849 222.422,87.36 223.256,89.346 "/>
<polyline fill="#EF8028" points="183.709,85.307 183.756,85.334 186.416,86.864 186.303,88.263 183.844,87.744 "/>
<line fill="none" stroke="#EF8028" stroke-width="3.2486" stroke-linecap="round" stroke-miterlimit="10" x1="204.818" y1="131.595" x2="204.818" y2="6.703"/>
<rect x="205.54" y="8.147" fill="#EF8028" width="64.972" height="41.871"/>
</svg>
