<?xml version="1.0" encoding="utf-8"?>
<!-- Generator: Adobe Illustrator 17.0.0, SVG Export Plug-In . SVG Version: 6.00 Build 0)  -->
<!DOCTYPE svg PUBLIC "-//W3C//DTD SVG 1.1//EN" "http://www.w3.org/Graphics/SVG/1.1/DTD/svg11.dtd">
<svg version="1.1" id="Calque_1" xmlns="http://www.w3.org/2000/svg" xmlns:xlink="http://www.w3.org/1999/xlink" x="0px" y="0px"
	 width="155px" height="349px" viewBox="0 0 155 349" enable-background="new 0 0 155 349" xml:space="preserve">
<path fill="#5B2911" d="M67.476,236.355c0-1.865,3.282-3.376,7.33-3.376l0,0c4.048,0,7.33,1.512,7.33,3.376v98.396
	c0,1.865-3.282,3.376-7.33,3.376l0,0c-4.048,0-7.33-1.512-7.33-3.376V236.355z"/>
<ellipse fill="#52822F" cx="72.738" cy="208.862" rx="68.879" ry="91.643"/>
<path fill="#436729" d="M75.22,300.505c38.041,0,68.879-41.03,68.879-91.643s-30.838-91.643-68.879-91.643
	c0,0,41.575,37.622,40.334,95.502C114.314,270.6,75.22,300.505,75.22,300.505z"/>
<line fill="none" stroke="#3E6028" stroke-width="3" stroke-linecap="round" stroke-miterlimit="10" x1="72.824" y1="121.651" x2="72.824" y2="6.317"/>
<rect x="73.491" y="7.651" fill="#3E6028" width="60" height="38.667"/>
</svg>
