<?xml version="1.0" encoding="utf-8"?>
<!-- Generator: Adobe Illustrator 17.0.0, SVG Export Plug-In . SVG Version: 6.00 Build 0)  -->
<!DOCTYPE svg PUBLIC "-//W3C//DTD SVG 1.1//EN" "http://www.w3.org/Graphics/SVG/1.1/DTD/svg11.dtd">
<svg version="1.1" id="Calque_1" xmlns="http://www.w3.org/2000/svg" xmlns:xlink="http://www.w3.org/1999/xlink" x="0px" y="0px"
	 width="465px" height="416px" viewBox="0 0 465 416" enable-background="new 0 0 465 416" xml:space="preserve">
<polygon fill="#744712" points="458.5,223.344 458.531,236.406 458.5,236.5 158.437,410.187 158.416,410.114 158.375,396.864 "/>
<polygon fill="#562D13" points="158.5,410.187 6.791,321.667 5.781,321.125 5.791,307.667 158.375,396.875 "/>
<polygon fill="#676F28" points="158.406,400.656 5.771,311.208 5.791,307.667 158.375,396.864 "/>
<polygon fill="#9BC448" points="458.5,226.875 158.406,400.656 158.375,396.875 458.5,223.344 "/>
<polygon fill="#91B024" points="374.041,173.708 458.5,223.344 458.25,223.5 158.375,396.875 157.937,396.687 5.791,307.667 
	6.375,307.417 63.458,275 "/>
<polygon fill="#F2DECB" points="317.666,266.167 252.333,305 252.166,206.083 285.666,152 317,168.5 317.416,240.083 317.5,266.25 
	"/>
<ellipse transform="matrix(0.5802 -0.8145 0.8145 0.5802 -22.6382 305.2564)" fill="#C41718" cx="284.817" cy="174.59" rx="13.072" ry="8.332"/>
<polyline fill="#FAC690" points="124.5,355.5 62.5,319.5 62.5,233 91.833,229.833 124.625,270.583 124.75,355.75 "/>
<polyline fill="#FAC690" points="252.166,206.083 252.333,305 158.5,248.333 158.5,159.5 "/>
<polygon fill="#F4D9C2" points="316.875,163.75 373.875,130.25 374,208.5 317.5,242 "/>
<line fill="none" stroke="#1D1D1B" stroke-width="0.25" stroke-miterlimit="10" x1="230.75" y1="282" x2="125" y2="344.25"/>
<polygon fill="#F4D9C2" points="124.625,270.583 227.293,211.731 229.375,212.375 230.75,214.875 230.751,292.5 124.75,355.75 "/>
<path fill="none" stroke="#1D1D1B" stroke-width="0.25" stroke-miterlimit="10" d="M233.25,281.5"/>
<path fill="none" stroke="#1D1D1B" stroke-width="0.25" stroke-miterlimit="10" d="M339,219.25"/>
<path fill="none" stroke="#1D1D1B" stroke-width="0.25" stroke-miterlimit="10" d="M223.75,256.25"/>
<path fill="none" stroke="#1D1D1B" stroke-width="0.25" stroke-miterlimit="10" d="M329.5,194"/>
<polygon fill="#F4A06F" points="124.5,344.5 230.75,282 230.751,292.5 124.75,355.75 "/>
<path fill="none" stroke="#1D1D1B" stroke-width="0.25" stroke-miterlimit="10" d="M224,254"/>
<path fill="none" stroke="#1D1D1B" stroke-width="0.25" stroke-miterlimit="10" d="M329.75,191.75"/>
<path fill="none" stroke="#1D1D1B" stroke-width="0.25" stroke-miterlimit="10" d="M230.25,233"/>
<path fill="none" stroke="#1D1D1B" stroke-width="0.25" stroke-miterlimit="10" d="M336,170.75"/>
<path fill="none" stroke="#1D1D1B" stroke-width="0.25" stroke-miterlimit="10" d="M291,307.667"/>
<ellipse transform="matrix(0.5802 -0.8145 0.8145 0.5802 -22.6382 305.2564)" fill="#FFFFFF" cx="284.817" cy="174.59" rx="10.982" ry="7"/>
<polyline fill="#F4A06F" points="317.416,232.083 317.5,242 374,208.5 373.958,198.708 317.416,232.083 "/>
<polyline fill="none" stroke="#1D1D1B" stroke-miterlimit="10" points="284,169.833 285.5,175.667 288.5,172.667 "/>
<polygon fill="#817D8A" points="262.125,324.75 198.041,363.25 160.791,339.75 226.25,303.25 "/>
<path fill="none" stroke="#FFFFFF" stroke-width="0.531" stroke-linecap="round" stroke-miterlimit="10" stroke-dasharray="2.1239" d="
	M163.5,338.667c9.955-6.967,26.54-8.764,35.333-2c6.5,5,11.163,18.617,1.208,25.583"/>
<path fill="#5B2911" d="M381.815,192.625c0-0.483,0.661-0.875,1.477-0.875l0,0c0.815,0,1.477,0.392,1.477,0.875v25.5
	c0,0.483-0.661,0.875-1.477,0.875l0,0c-0.815,0-1.477-0.392-1.477-0.875V192.625z"/>
<polygon fill="#D2D7DA" points="304.041,276.958 335.125,294.792 302.916,313.458 272.496,295.573 274.25,291.875 301.875,275.5 "/>
<path fill="#5B2911" d="M241.791,291.875c0-0.483,0.392-0.875,0.875-0.875l0,0c0.483,0,0.875,0.392,0.875,0.875v25.5
	c0,0.483-0.392,0.875-0.875,0.875l0,0c-0.483,0-0.875-0.392-0.875-0.875V291.875z"/>
<polygon fill="#CBD0EA" points="193.791,340.25 173.541,328.249 173.541,312.25 193.791,324.251 "/>
<polygon fill="#CBD0EA" points="252.041,304.5 231.791,292.499 231.791,276.5 252.041,288.501 "/>
<ellipse fill="none" stroke="#D3224E" stroke-miterlimit="10" cx="240.167" cy="295.375" rx="3.875" ry="2.875"/>
<path fill="#5B2911" d="M180.291,324.375c0-0.483,0.392-0.875,0.875-0.875l0,0c0.483,0,0.875,0.392,0.875,0.875v25.5
	c0,0.483-0.392,0.875-0.875,0.875l0,0c-0.483,0-0.875-0.392-0.875-0.875V324.375z"/>
<ellipse fill="#52822F" cx="382.875" cy="185.5" rx="13.875" ry="23.75"/>
<path fill="#436729" d="M383.375,209.25c7.663,0,13.875-10.633,13.875-23.75s-6.212-23.75-13.875-23.75c0,0,8.375,9.75,8.125,24.75
	S383.375,209.25,383.375,209.25z"/>
<path fill="#5B2911" d="M121.565,344.261c0-0.376,0.661-0.68,1.477-0.68l0,0c0.815,0,1.477,0.305,1.477,0.68v19.821
	c0,0.376-0.661,0.68-1.477,0.68l0,0c-0.815,0-1.477-0.305-1.477-0.68V344.261z"/>
<ellipse fill="#52822F" cx="122.625" cy="338.723" rx="13.875" ry="18.461"/>
<path fill="#436729" d="M123.125,357.183c7.663,0,13.875-8.265,13.875-18.461c0-10.196-6.212-18.461-13.875-18.461
	c0,0,8.375,7.579,8.125,19.238S123.125,357.183,123.125,357.183z"/>
<g>
	<g>
		<path fill="none" stroke="#FFFFFF" stroke-width="0.5" stroke-linecap="round" stroke-miterlimit="10" d="M261.5,324.667
			c-0.242,0.227-0.493,0.446-0.751,0.659"/>
		
			<path fill="none" stroke="#FFFFFF" stroke-width="0.5" stroke-linecap="round" stroke-miterlimit="10" stroke-dasharray="2.0536,2.0536" d="
			M259.087,326.53c-8.376,5.357-22.587,4.872-30.587-0.864c-7.76-5.564-9.664-13.884-3.557-20.876"/>
		<path fill="none" stroke="#FFFFFF" stroke-width="0.5" stroke-linecap="round" stroke-miterlimit="10" d="M225.643,304.03
			c0.229-0.236,0.468-0.47,0.716-0.702"/>
	</g>
</g>
<polygon fill="#BAE1F2" points="282.75,264.167 301.613,253.535 301.581,275.716 "/>
<polyline fill="#C41718" points="301.581,275.716 301.581,253.552 304.186,252.12 304.202,277.373 301.581,275.716 "/>
<polygon fill="#C41718" points="306.958,247.875 304.291,246.542 269.666,265.75 272.353,267.474 "/>
<polygon fill="#E53122" points="304.162,277.365 304.17,252.816 304.186,252.271 276.229,267.799 276.201,293.649 272.204,295.948 
	272.353,267.24 306.815,247.824 306.75,275.695 "/>
<polygon fill="#C41718" points="269.583,294.542 272.253,295.948 272.265,285.412 272.353,267.474 269.666,265.75 269.583,283.833 
	"/>
<g>
	<line fill="#3599D4" x1="272.917" y1="231.67" x2="272.917" y2="218.213"/>
	<line fill="#3599D4" x1="267.417" y1="221.45" x2="267.417" y2="234.908"/>
	<line fill="#3599D4" x1="282.875" y1="225.808" x2="272.917" y2="231.67"/>
	<line fill="#3599D4" x1="272.917" y1="237.936" x2="282.875" y2="232.074"/>
	<path fill="#3599D4" d="M272.917,231.67"/>
	<path fill="#3599D4" d="M272.917,237.936"/>
	<path fill="#3599D4" d="M267.417,241.174"/>
	<path fill="#3599D4" d="M267.417,234.908"/>
	<polygon fill="#3599D4" points="303,213.961 311.75,208.811 311.75,195.353 303,200.504 	"/>
	<path fill="#3599D4" d="M282.875,232.074"/>
	<path fill="#3599D4" d="M272.917,212.402"/>
	<path fill="#3599D4" d="M272.917,218.213"/>
	<path fill="#3599D4" d="M267.417,221.45"/>
	<path fill="#3599D4" d="M267.417,215.64"/>
	<polygon fill="#3599D4" points="288.375,209.113 288.375,222.57 297.5,217.199 297.5,203.742 	"/>
	<polygon fill="#3599D4" points="272.917,218.213 272.917,231.67 282.875,225.808 282.875,212.351 	"/>
	<line fill="#3599D4" x1="288.375" y1="242.202" x2="288.375" y2="228.836"/>
	<line fill="#3599D4" x1="282.875" y1="232.074" x2="282.875" y2="245.439"/>
	<line fill="#3599D4" x1="272.917" y1="251.301" x2="272.917" y2="237.936"/>
	<line fill="#3599D4" x1="267.417" y1="241.174" x2="267.417" y2="254.539"/>
	<polygon fill="#3599D4" points="311.75,189.543 311.75,176.321 303,181.472 303,194.694 	"/>
	<polygon fill="#3599D4" points="257.292,247.134 257.292,260.499 267.417,254.539 267.417,241.174 	"/>
	<polygon fill="#3599D4" points="303,220.227 303,233.593 311.75,228.442 311.75,215.077 	"/>
	<line fill="#3599D4" x1="257.292" y1="247.134" x2="267.417" y2="241.174"/>
	<line fill="#3599D4" x1="267.417" y1="234.908" x2="257.292" y2="240.868"/>
	<polygon fill="#3599D4" points="288.375,228.836 288.375,242.202 297.5,236.83 297.5,223.465 	"/>
	<polygon fill="#3599D4" points="272.917,237.936 272.917,251.301 282.875,245.439 282.875,232.074 	"/>
	<polygon fill="#3599D4" points="297.5,197.931 297.5,184.709 288.375,190.081 288.375,203.303 	"/>
	<polygon fill="#3599D4" points="267.417,221.45 257.292,227.41 257.292,240.868 267.417,234.908 	"/>
	<polygon fill="#3599D4" points="282.875,206.54 282.875,193.318 272.917,199.18 272.917,212.402 	"/>
	<line fill="#3599D4" x1="257.292" y1="227.41" x2="267.417" y2="221.45"/>
	<line fill="#3599D4" x1="267.417" y1="215.64" x2="257.292" y2="221.6"/>
	<polygon fill="#3599D4" points="267.417,202.418 257.292,208.378 257.292,221.6 267.417,215.64 	"/>
	<line fill="#3599D4" x1="272.917" y1="212.402" x2="272.917" y2="199.18"/>
	<line fill="#3599D4" x1="267.417" y1="202.418" x2="267.417" y2="215.64"/>
</g>
<g>
	<polygon fill="#69C3E9" points="345.517,176.905 345.481,154.102 330.721,162.702 330.757,185.523 	"/>
	<polygon fill="#69C3E9" points="319.893,169.011 317.024,170.683 317.06,193.52 319.929,191.845 	"/>
	<polygon fill="#69C3E9" points="368.164,163.682 368.128,140.906 353.888,149.202 353.925,171.996 	"/>
	<polygon fill="#69C3E9" points="353.939,180.777 353.974,202.896 368.213,194.528 368.178,172.481 	"/>
	<line fill="#69C3E9" x1="319.929" y1="191.845" x2="317.06" y2="193.52"/>
	<polygon fill="#69C3E9" points="330.75,194.292 330.807,216.512 345.566,207.838 345.531,185.677 	"/>
</g>
<g>
	<polygon fill="#69C3E9" points="176.913,275.584 176.88,253.333 162.762,261.413 162.794,283.664 	"/>
	<polygon fill="#69C3E9" points="224.676,248.249 224.643,225.998 210.645,234.009 210.678,256.26 	"/>
	<polygon fill="#69C3E9" points="201.298,261.628 201.265,239.377 187.517,247.246 187.549,269.497 	"/>
	<polygon fill="#69C3E9" points="187.563,278.971 187.595,300.669 201.343,292.8 201.312,271.103 	"/>
	<polygon fill="#69C3E9" points="224.69,257.724 210.692,265.735 210.724,287.432 224.722,279.421 	"/>
	<polygon fill="#69C3E9" points="162.808,293.139 162.84,314.836 176.958,306.756 176.926,285.059 	"/>
	<polygon fill="#69C3E9" points="151.635,267.781 136.317,276.452 136.349,298.703 151.667,290.032 	"/>
	<polygon fill="#69C3E9" points="136.363,308.011 136.395,329.708 151.713,321.204 151.681,299.507 	"/>
</g>
<polyline fill="#69C3E9" points="317.074,202.258 319.943,200.586 319.979,222.876 320.059,222.844 317.19,224.516 "/>
<polygon fill="#E23933" points="245.146,210.448 149,153.917 149,153.667 192.75,92.917 284.75,146.917 "/>
<polygon fill="#A62A20" points="242.458,122.125 308.25,85.458 308.25,85.5 344.5,84.167 260.666,132.833 "/>
<polygon fill="#E53122" points="260.666,132.833 344.5,84.167 379.25,127.167 315.75,164.167 284.813,146.917 "/>
<polygon fill="#E53122" points="183.25,174.667 93.75,226.417 130.75,271.917 130.625,272.166 231.75,214.292 231.375,214.167 "/>
<polygon fill="#A62A20" points="183.156,174.687 156.75,173.667 156.333,173.75 56.333,229.833 58.187,229.625 93.75,226.417 "/>
<polygon fill="#C41718" points="319.312,169.698 321.333,167 284.813,146.917 245.083,210.5 245.146,210.448 247.812,211.781 
	248.312,212.031 285.5,152.167 "/>
<polygon fill="#C41718" points="56.333,229.833 57.833,232.583 57.833,232.583 91.709,229.917 126.676,272.917 127.25,273.625 
	130.875,272.042 93.75,226.417 "/>
<line fill="none" stroke="#E23933" stroke-width="3" stroke-linecap="round" stroke-miterlimit="10" x1="231" y1="119" x2="231" y2="3.667"/>
<rect x="231.666" y="5" fill="#E23933" width="60" height="38.667"/>
</svg>
