<?xml version="1.0" encoding="utf-8"?>
<!-- Generator: Adobe Illustrator 17.0.0, SVG Export Plug-In . SVG Version: 6.00 Build 0)  -->
<!DOCTYPE svg PUBLIC "-//W3C//DTD SVG 1.1//EN" "http://www.w3.org/Graphics/SVG/1.1/DTD/svg11.dtd">
<svg version="1.1" id="Calque_1" xmlns="http://www.w3.org/2000/svg" xmlns:xlink="http://www.w3.org/1999/xlink" x="0px" y="0px"
	 width="400px" height="438px" viewBox="0 0 400 438" enable-background="new 0 0 400 438" xml:space="preserve">
<path fill="none" stroke="#1D1D1B" stroke-width="0.2818" stroke-linecap="round" stroke-linejoin="round" stroke-miterlimit="10" d="
	M368.659,294.373"/>
<path fill="none" stroke="#1D1D1B" stroke-width="0.2818" stroke-linecap="round" stroke-linejoin="round" stroke-miterlimit="10" d="
	M360.322,289.442"/>
<polygon fill="#828584" points="360.416,289.536 184.443,391.306 184.578,385.723 360.322,284.323 "/>
<polygon fill="#828584" points="368.412,300.044 193.096,401.462 193.167,396.413 368.6,294.408 "/>
<polygon fill="#828584" points="376.76,309.777 201.045,411.266 201.209,405.959 376.76,304.611 "/>
<polygon fill="#828584" points="392.234,329.244 217.248,430.826 217.224,426.106 392.305,324.383 "/>
<polygon fill="#828584" points="384.203,319.522 208.09,421.175 208.448,415.851 384.186,314.268 "/>
<polygon fill="#828584" points="217.248,430.826 7.754,309.977 7.754,283.63 184.737,385.706 184.713,391.341 193.472,396.296 
	193.355,401.533 201.356,406.029 201.245,411.301 208.688,415.768 208.735,420.858 217.265,426.106 "/>
<polygon fill="#A3A4A4" points="295.019,247.879 360.322,284.323 360.322,284.323 184.578,385.723 7.602,283.595 7.602,283.595 
	68.678,248.126 "/>
<polygon fill="#A3A4A4" points="193.366,396.378 184.455,391.253 360.375,289.495 368.653,294.426 "/>
<polygon fill="#A3A4A4" points="201.209,405.959 193.096,401.462 368.353,300.032 376.76,304.611 "/>
<polygon fill="#A3A4A4" points="208.688,415.768 201.045,411.266 376.76,309.777 384.203,314.239 "/>
<polygon fill="#A3A4A4" points="217.224,426.106 208.735,420.858 384.203,319.522 392.305,324.383 "/>
<polyline fill="#828584" points="63.535,273.944 69.969,271.549 70.909,272.394 69.159,274.416 63.535,273.944 "/>
<polygon fill="#828584" points="295.653,265.138 301.453,268.59 295.756,268.854 "/>
<polygon fill="#828584" points="295.756,268.854 301.477,268.613 178.608,340.444 178.855,336.922 "/>
<polygon fill="#A3A4A4" points="63.535,273.944 69.159,274.416 178.855,336.922 178.643,340.339 "/>
<polygon fill="#75634E" points="178.855,336.922 69.159,274.416 69.312,170.671 178.972,233.879 "/>
<polygon fill="#9F8E6F" points="178.908,233.755 178.937,233.967 178.819,336.94 295.756,268.854 295.97,167.782 "/>
<path fill="none" stroke="#1D1D1B" stroke-width="0.2818" stroke-linecap="round" stroke-linejoin="round" stroke-miterlimit="10" d="
	M74.851,300.386"/>
<path fill="none" stroke="#1D1D1B" stroke-width="0.2818" stroke-linecap="round" stroke-linejoin="round" stroke-miterlimit="10" d="
	M223.658,329.948"/>
<polyline fill="#50504F" points="178.714,356.271 301.406,284.417 301.477,268.613 301.477,268.613 178.737,340.397 "/>
<polygon fill="#313433" points="178.737,355.871 178.737,340.469 178.737,340.397 63.535,273.944 63.535,274.132 63.535,274.226 
	63.512,290.193 178.714,356.271 "/>
<polygon fill="#97CFC1" points="233.826,286.248 261.605,270.844 261.558,303.226 "/>
<polyline fill="#D2E9E2" points="261.558,303.226 261.558,270.868 265.362,268.778 265.385,305.644 261.558,303.226 "/>
<polygon fill="#828584" points="275.283,258.857 271.444,257.319 220.582,285.497 223.999,287.786 "/>
<polygon fill="#50504F" points="265.327,305.539 265.338,269.576 265.362,268.778 230.022,288.362 229.981,326.232 223.781,329.842 
	223.999,287.786 275.283,258.857 274.414,300.308 "/>
<polygon fill="#A3A4A4" points="220.77,312.495 223.852,314.027 223.869,313.975 223.999,287.786 220.582,285.497 220.77,312.454 
	"/>
<path fill="#98B7AE" d="M265.327,305.539l-31.501-19.29l-3.804,2.113c0,0-0.041,37.307-0.041,37.87S265.327,305.539,265.327,305.539
	"/>
<polygon fill="#D9D9D9" points="182.494,211.529 60.392,140.192 181.461,69.84 303.849,140.144 "/>
<polygon fill="#959998" points="181.884,203.263 83.683,146.015 181.461,87.686 280.085,146.062 "/>
<polygon fill="#5E6160" points="290.605,140.332 181.367,77.401 73.492,140.191 83.683,146.015 181.461,87.686 280.085,146.062 "/>
<polygon fill="#C6C6C5" points="303.849,140.144 303.755,150.664 181.837,221.579 60.389,150.946 60.389,140.332 182.494,211.529 
	"/>
<polygon fill="#50504F" points="178.925,234.072 181.837,221.579 300.937,152.355 297.462,166.82 178.925,234.072 "/>
<polygon fill="#313433" points="61.845,151.885 67.339,169.778 178.925,234.072 181.837,221.579 "/>
<path fill="#C3AE3F" d="M227.611,267.632c-14.672-4.655-14.913-27.149-5-45.156s26.986-27.066,39.548-21.13"/>
<ellipse transform="matrix(0.876 0.4823 -0.4823 0.876 143.6703 -89.233)" fill="#F3DC53" cx="245.391" cy="234.819" rx="21.834" ry="37.361"/>
<ellipse transform="matrix(0.876 0.4823 -0.4823 0.876 143.7443 -89.2793)" fill="#9F8E6F" cx="245.518" cy="234.939" rx="19.148" ry="31.982"/>
<path fill="#C3AE3F" d="M259.378,206.11c7.674,6.082,7.747,21.572-0.189,35.987c-8.465,15.376-22.837,23.706-32.101,18.606
	c0,0,8.277,10.002,22.564-1.482c15.075-12.117,17.47-26.417,18.175-30.926C268.352,224.936,270.293,210.684,259.378,206.11
	L259.378,206.11z"/>
<g>
	<path fill="#C3AE3F" d="M244.54,217.279c0.466-0.219,0.937-0.46,1.398-0.654c2.894-1.217,4.872-0.833,5.844,1.264
		c0.25,0.539,0.385,1.193,0.582,1.826c-1.271,0.993-2.465,1.926-3.674,2.871c-0.066-0.312-0.111-0.626-0.195-0.903
		c-0.536-1.749-1.812-2.352-4.041-1.353c-2.74,1.229-5.191,4.209-6.084,7.048c-0.373,1.187-0.383,2.179-0.227,3.041
		c0.218,1.205,0.537,2.327,0.803,3.493c0.045,0.196,0.159,0.175,0.385,0.03c1.886-1.207,3.771-2.401,5.656-3.6
		c0.118-0.075,0.237-0.151,0.376-0.239c-0.034,0.986-0.066,1.95-0.101,2.962c-0.94,0.597-1.883,1.196-2.826,1.795
		c-0.946,0.601-1.891,1.202-2.827,1.797c0.086,0.4,0.214,0.746,0.24,1.165c0.068,1.072-0.206,2.322-0.617,3.633
		c-0.603,1.923-1.55,3.859-2.698,5.802c-0.15,0.253-0.297,0.507-0.481,0.822c0.483-0.403,0.909-0.768,1.338-1.115
		c1.331-1.075,2.65-1.838,3.951-2.423c1.321-0.594,2.639-1.171,3.943-1.691c1.784-0.712,3.507-1.994,5.2-3.816
		c0.22-0.237,0.444-0.469,0.666-0.702c0.027-0.029,0.056-0.055,0.13-0.126c0.351,0.844,0.701,1.687,1.048,2.522
		c-2.532,2.794-5.092,4.918-7.766,5.766c-1.113,0.353-2.245,0.768-3.373,1.168c-1.775,0.63-3.566,1.826-5.369,3.452
		c-1.11,1.001-2.172,2.089-3.167,3.3c-0.077,0.094-0.159,0.183-0.259,0.298c-0.426-0.859-0.846-1.709-1.266-2.555
		c4.997-6.016,5.335-10.766,4.615-13.041c-1.288,0.818-2.582,1.641-3.899,2.478c0.033-0.984,0.066-1.948,0.1-2.948
		c0.999-0.635,2.01-1.277,3.072-1.952c-0.073-0.263-0.144-0.481-0.196-0.716c-0.212-0.957-0.514-1.848-0.606-2.894
		c-0.187-2.125,0.295-4.554,1.887-7.359c1.285-2.265,2.922-4.203,4.814-5.841c0.496-0.429,1.006-0.801,1.509-1.202
		c0.086-0.069,0.171-0.149,0.256-0.223C243.303,218.065,243.921,217.672,244.54,217.279z"/>
</g>
<g>
	<path fill="#F3DC53" d="M249.594,217.631c0.466-0.216,0.937-0.453,1.398-0.644c2.893-1.198,4.871-0.818,5.845,1.249
		c0.25,0.531,0.385,1.177,0.583,1.801c-1.271,0.979-2.464,1.897-3.672,2.828c-0.066-0.308-0.111-0.617-0.196-0.89
		c-0.537-1.725-1.813-2.32-4.042-1.335c-2.74,1.21-5.189,4.146-6.08,6.945c-0.373,1.17-0.382,2.148-0.226,2.998
		c0.218,1.188,0.538,2.295,0.805,3.444c0.045,0.194,0.159,0.173,0.385,0.03c1.885-1.189,3.77-2.365,5.655-3.546
		c0.118-0.074,0.237-0.148,0.376-0.235c-0.033,0.972-0.065,1.922-0.099,2.92c-0.94,0.588-1.882,1.178-2.825,1.769
		c-0.945,0.592-1.891,1.184-2.827,1.77c0.086,0.395,0.214,0.736,0.241,1.149c0.069,1.057-0.205,2.289-0.615,3.581
		c-0.602,1.895-1.548,3.804-2.695,5.718c-0.15,0.25-0.297,0.5-0.481,0.81c0.482-0.397,0.909-0.757,1.338-1.099
		c1.331-1.059,2.649-1.811,3.95-2.387c1.32-0.585,2.639-1.153,3.943-1.665c1.783-0.701,3.506-1.964,5.198-3.76
		c0.22-0.234,0.443-0.462,0.666-0.692c0.027-0.028,0.056-0.054,0.13-0.125c0.351,0.832,0.702,1.664,1.049,2.487
		c-2.53,2.753-5.089,4.845-7.763,5.68c-1.113,0.348-2.245,0.756-3.372,1.15c-1.774,0.62-3.566,1.798-5.367,3.4
		c-1.109,0.986-2.171,2.058-3.166,3.252c-0.077,0.092-0.159,0.18-0.259,0.293c-0.426-0.847-0.847-1.685-1.267-2.52
		c4.994-5.928,5.329-10.611,4.609-12.853c-1.288,0.806-2.582,1.616-3.898,2.441c0.033-0.97,0.065-1.921,0.099-2.906
		c0.999-0.625,2.009-1.258,3.072-1.923c-0.073-0.259-0.144-0.475-0.196-0.706c-0.212-0.944-0.515-1.821-0.607-2.853
		c-0.188-2.095,0.293-4.489,1.883-7.254c1.283-2.232,2.92-4.142,4.812-5.755c0.496-0.423,1.006-0.789,1.509-1.184
		c0.086-0.068,0.171-0.146,0.256-0.22C248.358,218.405,248.976,218.018,249.594,217.631z"/>
</g>
<polygon fill="#C3AE3F" points="250.424,230.275 245.363,230.105 243.383,231.395 244.064,234.283 "/>
<path fill="#C3AE3F" d="M253.747,222.865l-5.057-0.279c0,0-2.536-0.279-4.439,3.103c0,0,3.311-5.941,7.514-5.495
	C253.817,220.412,253.747,222.865,253.747,222.865z"/>
<path fill="#C3AE3F" d="M256.347,238.264c0,0-2.75,2.993-4.628,3.909c-1.879,0.916-4.438,1.879-5.424,2.372
	c-0.986,0.493-3.732,2.079-5.171,3.446c0,0,2.224-3.775,2.365-4.338l4.051-1.444l3.743-4.002L256.347,238.264z"/>
<path fill="#C3AE3F" d="M237.469,254.526l-1.267-2.52c0,0,3.377-4.057,4.152-6.981s1.02-3.926,0.457-5.873l-3.898,2.441l-1.244,3.15
	l-3.628,7.15l-0.911,0.262l1.266,2.555L237.469,254.526z"/>
<polygon fill="#C3AE3F" points="237.012,238.688 231.947,238.646 231.846,241.593 236.913,241.594 "/>
<polygon fill="#C3AE3F" points="240.083,236.765 239.455,237.154 239.015,236.432 239.861,236.15 "/>
<path fill="#C3AE3F" d="M253.691,216.272c0,0-5.119,0.423-10.332,6.481c-5.213,6.058-4.204,12.008-3.276,14.011l-2.782-0.955
	l-0.798-7.702l5.73-8.125l6.528-4.039L253.691,216.272z"/>
<path fill="#F3DC53" d="M143.139,140.936l0,6.852c0,5.609,8.326,10.155,18.598,10.155c10.271,0,18.457-4.301,18.457-9.91
	l0.141-7.365"/>
<path fill="#C3AE3F" d="M180.334,140.178c0,5.609-8.514,10.133-18.668,10.133s-18.621-4.614-18.621-10.222S151.512,130,161.666,130
	S180.334,134.569,180.334,140.178z"/>
<ellipse fill="#E1C951" cx="161.76" cy="140.959" rx="16.038" ry="8.28"/>
<path fill="#F3DC53" d="M145.957,130.792l0,6.852c0,5.609,8.326,10.155,18.598,10.155c10.271,0,18.457-4.301,18.457-9.91
	l0.141-7.365"/>
<path fill="#C3AE3F" d="M183.081,129.822c0,5.609-8.514,10.133-18.668,10.133s-18.621-4.614-18.621-10.222
	s8.467-10.088,18.621-10.088S183.081,124.214,183.081,129.822z"/>
<ellipse fill="#E0C74E" cx="164.578" cy="130.815" rx="16.038" ry="8.28"/>
<path fill="#F3DC53" d="M143.561,118.447l0,7.209c0,5.901,8.326,10.684,18.598,10.684s18.457-4.525,18.457-10.426l0.141-7.749"/>
<path fill="#C3AE3F" d="M180.757,117.649c0,5.901-8.514,10.661-18.668,10.661c-10.154,0-18.621-4.854-18.621-10.755
	s8.467-10.614,18.621-10.614C172.243,106.941,180.757,111.748,180.757,117.649z"/>
<ellipse fill="#F3DC53" cx="162.183" cy="118.47" rx="16.038" ry="8.712"/>
<path fill="#F3DC53" d="M185.688,143.285l0,6.852c0,5.609,8.326,10.155,18.598,10.155c10.271,0,18.457-4.301,18.457-9.91
	l0.141-7.365"/>
<path fill="#C3AE3F" d="M222.883,142.526c0,5.609-8.514,10.133-18.668,10.133s-18.621-4.614-18.621-10.222
	s8.467-10.088,18.621-10.088S222.883,136.917,222.883,142.526z"/>
<ellipse fill="#E1C951" cx="204.309" cy="143.307" rx="16.038" ry="8.28"/>
<path fill="#F3DC53" d="M188.506,133.14l0,6.852c0,5.609,8.326,10.155,18.598,10.155c10.271,0,18.457-4.301,18.457-9.91l0.141-7.365
	"/>
<path fill="#C3AE3F" d="M225.631,132.17c0,5.609-8.514,10.133-18.668,10.133c-10.154,0-18.621-4.614-18.621-10.222
	s8.467-10.088,18.621-10.088C217.117,121.993,225.631,126.562,225.631,132.17z"/>
<ellipse fill="#E0C74E" cx="207.127" cy="133.163" rx="16.038" ry="8.28"/>
<path fill="#F3DC53" d="M186.111,120.795l0,7.209c0,5.901,8.326,10.684,18.598,10.684s18.457-4.525,18.457-10.426l0.141-7.749"/>
<path fill="#C3AE3F" d="M223.306,119.997c0,5.901-8.514,10.661-18.668,10.661c-10.154,0-18.621-4.854-18.621-10.755
	c0-5.901,8.467-10.614,18.621-10.614C214.792,109.289,223.306,114.096,223.306,119.997z"/>
<ellipse fill="#F3DC53" cx="204.732" cy="120.819" rx="16.038" ry="8.712"/>
<path fill="#F3DC53" d="M155.537,162.399l0,6.757c0,5.531,8.326,10.015,18.598,10.015c10.271,0,18.457-4.242,18.457-9.773
	l0.141-7.264L155.537,162.399z"/>
<path fill="#C3AE3F" d="M192.732,161.651c0,5.531-8.514,9.993-18.668,9.993s-18.621-4.55-18.621-10.081s8.467-9.949,18.621-9.949
	S192.732,156.119,192.732,161.651z"/>
<ellipse fill="#E1C951" cx="174.158" cy="162.421" rx="16.038" ry="8.166"/>
<path fill="#F3DC53" d="M158.355,152.395l0,6.757c0,5.531,8.326,10.015,18.598,10.015s18.457-4.242,18.457-9.773l0.141-7.264
	L158.355,152.395z"/>
<path fill="#C3AE3F" d="M195.55,151.646c0,5.531-8.514,9.993-18.668,9.993c-10.154,0-18.621-4.55-18.621-10.081
	s8.467-9.949,18.621-9.949C187.037,141.61,195.55,146.115,195.55,151.646z"/>
<ellipse fill="#E0C74E" cx="176.976" cy="152.417" rx="16.038" ry="8.166"/>
<path fill="#F3DC53" d="M155.96,140.22l0,7.109c0,5.819,8.326,10.537,18.598,10.537c10.271,0,18.457-4.463,18.457-10.282
	l0.141-7.642"/>
<line fill="#F3DC53" stroke="#C3AE3F" stroke-width="3.3814" stroke-linecap="round" stroke-miterlimit="10" x1="183.421" y1="135.252" x2="183.421" y2="5.257"/>
<rect x="184.173" y="6.76" fill="#F3DC53" width="67.628" height="43.582"/>
<path fill="#C3AE3F" d="M193.155,139.433c0,5.819-8.514,10.514-18.668,10.514s-18.621-4.787-18.621-10.606
	s8.467-10.467,18.621-10.467S193.155,133.614,193.155,139.433z"/>
<ellipse fill="#F3DC53" cx="174.581" cy="140.243" rx="16.038" ry="8.591"/>
</svg>
