<?xml version="1.0" encoding="utf-8"?>
<!-- Generator: Adobe Illustrator 17.0.0, SVG Export Plug-In . SVG Version: 6.00 Build 0)  -->
<!DOCTYPE svg PUBLIC "-//W3C//DTD SVG 1.1//EN" "http://www.w3.org/Graphics/SVG/1.1/DTD/svg11.dtd">
<svg version="1.1" id="Calque_1" xmlns="http://www.w3.org/2000/svg" xmlns:xlink="http://www.w3.org/1999/xlink" x="0px" y="0px"
	 width="415px" height="449px" viewBox="0 0 415 449" enable-background="new 0 0 415 449" xml:space="preserve">
<polygon fill="#91B024" points="208.928,427.538 6.602,308.349 210.316,194.193 412.039,310.908 "/>
<polygon fill="#9BC448" points="208.928,427.538 412.039,310.908 411.982,315.098 208.949,431.455 "/>
<polygon fill="#676F28" points="6.659,312.381 208.949,431.455 208.928,427.538 6.602,308.349 "/>
<polygon fill="#562D13" points="208.949,431.455 6.659,312.381 6.702,325.935 209.013,443.895 "/>
<polygon fill="#744712" points="411.86,327.544 209.013,443.895 208.949,431.391 412.046,315.119 "/>
<polygon fill="#8BADC8" points="207.462,403.975 57.737,315.898 57.847,163.766 207.462,252.072 "/>
<polygon fill="#B7D5F1" points="207.462,403.975 359.475,317.5 359.475,164.697 207.462,252.072 "/>
<polygon fill="#FFFFFF" points="210.665,402.373 210.407,250.484 207.662,252.072 207.347,387.961 "/>
<path fill="none" stroke="#1D1D1B" stroke-width="0.3432" stroke-linecap="round" stroke-miterlimit="10" d="M205.06,251.042"/>
<polygon fill="#D7D6D6" points="205.003,402.545 204.945,250.585 207.633,252.243 207.462,380.182 "/>
<polyline fill="#AC1919" points="50.372,294.509 59.135,291.315 60.414,292.442 58.031,295.139 50.372,294.509 "/>
<polygon fill="#8BADC8" points="359.465,295.738 365.341,296.66 207.119,384.872 207.408,379.997 "/>
<polygon fill="#8BADC8" points="359.465,292.692 365.341,296.66 359.465,295.738 "/>
<polyline fill="#B7D5F1" points="206.71,407.218 365.298,316.691 365.341,296.66 365.341,296.66 207.362,384.658 "/>
<polygon fill="#FFFFFF" points="276.851,319.167 310.68,300.408 310.623,339.842 "/>
<polygon fill="#E8493F" points="327.337,285.81 322.662,283.937 260.722,318.252 264.883,321.04 "/>
<polygon fill="#CF1B19" points="315.556,345.233 315.227,298.864 315.255,297.892 272.218,321.741 272.168,369.919 264.619,374.315 
	264.883,321.04 327.337,285.81 326.622,338.863 "/>
<polygon fill="#AC1919" points="260.951,351.131 264.704,352.997 264.726,352.932 264.883,321.04 260.722,318.252 260.951,351.081 
	"/>
<path fill="#B7D5F1" d="M315.541,342.793l-38.69-23.625l-4.633,2.574c0,0-0.378,48.348-0.358,48.49l43.695-24.998"/>
<polygon fill="#B7D5F1" points="50.372,294.509 58.031,295.139 207.408,379.997 207.29,384.672 "/>
<polygon fill="#8BADC8" points="206.88,403.86 207.362,384.658 207.49,384.658 50.372,294.509 50.372,294.759 50.372,294.884 
	50.869,314.297 206.782,407.397 "/>
<polygon fill="#AC1919" points="310.48,300.585 315.255,297.892 315.556,345.233 310.565,341.635 "/>
<polygon fill="#FFFFFF" points="215.871,334.735 234.283,324.262 234.283,298.891 215.871,308.101 "/>
<polygon fill="#FFFFFF" points="244.467,318.035 262.879,307.561 262.879,282.191 244.467,291.401 "/>
<polygon fill="#FFFFFF" points="274.436,300.42 292.848,289.946 292.848,264.576 274.436,273.786 "/>
<polygon fill="#FFFFFF" points="303.033,284.864 321.444,274.39 321.444,249.019 303.033,258.229 "/>
<polygon fill="#FFFFFF" points="331.857,267.248 350.269,256.775 350.269,231.404 331.857,240.614 "/>
<polygon fill="#FFFFFF" points="220.401,283.413 236.617,274.188 236.617,254.588 220.401,262.7 "/>
<polygon fill="#FFFFFF" points="247.395,267.857 263.611,258.632 263.611,239.032 247.395,247.143 "/>
<polygon fill="#FFFFFF" points="274.39,252.071 290.606,242.847 290.606,223.247 274.39,231.358 "/>
<polygon fill="#FFFFFF" points="300.012,236.744 316.228,227.519 316.228,207.919 300.012,216.031 "/>
<polygon fill="#FFFFFF" points="326.092,221.416 342.308,212.192 342.308,192.592 326.092,200.703 "/>
<polygon fill="#FFFFFF" points="184.932,277.007 166.394,266.103 166.408,247.267 184.932,258.2 "/>
<polygon fill="#FFFFFF" points="141.465,250.241 122.928,239.337 122.942,220.501 141.465,231.434 "/>
<polygon fill="#FFFFFF" points="103.718,229.423 85.181,218.519 85.195,199.683 103.718,210.616 "/>
<polygon fill="#FFFFFF" points="97.999,268.772 79.462,257.867 79.475,239.032 97.999,249.965 "/>
<polygon fill="#FFFFFF" points="184.703,319.101 166.165,308.196 166.179,289.361 184.703,300.294 "/>
<polygon fill="#FFFFFF" points="138.256,298.512 115.156,284.923 115.173,253.215 138.256,266.839 "/>
<polygon fill="#DAE9F8" points="208.408,220.893 66.654,139.517 207.326,58.141 351.243,140.595 "/>
<polygon fill="#B7D5F1" points="321.046,145.007 329.282,139.974 207.576,69.971 207.748,80.666 320.302,144.578 "/>
<polygon fill="#8BADC8" points="207.576,69.971 88.616,139.059 96.852,144.092 207.748,80.666 "/>
<polygon fill="#D8E5EF" points="208.491,208.148 96.852,144.092 207.919,80.409 321.046,145.007 "/>
<polyline fill="#8BADC8" points="350.786,165.597 208.491,247.725 207.576,252.286 359.589,164.697 350.786,165.597 "/>
<polyline fill="#DAE9F8" points="66.654,164.91 208.491,247.725 207.576,252.286 57.789,163.852 66.654,164.91 "/>
<polyline fill="#9FB9D3" points="81.181,153.243 75.601,153.433 57.789,163.852 67.455,165.025 "/>
<polyline fill="#DAE9F8" points="350.8,159.591 350.786,165.597 359.589,164.697 350.216,159.268 "/>
<polygon fill="#B7D5F1" points="208.491,247.725 350.786,165.597 350.786,140.203 208.408,220.893 "/>
<polygon fill="#8BADC8" points="208.491,247.725 66.654,164.91 66.197,139.517 208.408,220.893 "/>
<polygon fill="#FFFFFF" points="208.66,179.094 138.087,138.602 208.826,98.11 279.81,139.18 "/>
<polygon fill="#E4261E" points="134.986,161.413 117.956,151.642 135.027,141.87 152.157,151.781 "/>
<polygon fill="#E4261E" points="228.629,157.741 176.197,127.67 193.644,117.909 245.226,147.811 "/>
<polygon fill="#E4261E" points="240.984,128.823 194.786,157.831 176.998,147.668 225.329,119.311 "/>
<path fill="#5B2911" d="M67.433,303.212c0-0.613,1.079-1.11,2.409-1.11l0,0c1.331,0,2.409,0.497,2.409,1.11v32.343
	c0,0.613-1.079,1.11-2.409,1.11l0,0c-1.331,0-2.409-0.497-2.409-1.11V303.212z"/>
<ellipse fill="#52822F" cx="69.163" cy="294.175" rx="22.641" ry="30.123"/>
<path fill="#436729" d="M69.979,324.298c12.504,0,22.641-13.487,22.641-30.123c0-16.637-10.137-30.123-22.641-30.123
	c0,0,13.666,12.366,13.258,31.392C82.829,314.469,69.979,324.298,69.979,324.298z"/>
<path fill="#5B2911" d="M120.39,335.687c0-0.613,1.079-1.11,2.409-1.11l0,0c1.331,0,2.409,0.497,2.409,1.11v32.343
	c0,0.613-1.079,1.11-2.409,1.11l0,0c-1.331,0-2.409-0.497-2.409-1.11V335.687z"/>
<ellipse fill="#52822F" cx="122.119" cy="326.65" rx="22.641" ry="30.123"/>
<path fill="#436729" d="M122.935,356.774c12.504,0,22.641-13.487,22.641-30.123c0-16.637-10.137-30.123-22.641-30.123
	c0,0,13.666,12.366,13.258,31.392C135.785,346.944,122.935,356.774,122.935,356.774z"/>
<path fill="#5B2911" d="M178.158,369.555c0-0.613,1.079-1.11,2.409-1.11l0,0c1.331,0,2.409,0.497,2.409,1.11v32.343
	c0,0.613-1.079,1.11-2.409,1.11l0,0c-1.331,0-2.409-0.497-2.409-1.11V369.555z"/>
<ellipse fill="#52822F" cx="179.887" cy="360.518" rx="22.641" ry="30.123"/>
<path fill="#436729" d="M180.703,390.642c12.504,0,22.641-13.487,22.641-30.123s-10.137-30.123-22.641-30.123
	c0,0,13.666,12.366,13.258,31.392C193.553,380.812,180.703,390.642,180.703,390.642z"/>
<line fill="none" stroke="#E4261E" stroke-width="4.2975" stroke-linecap="round" stroke-linejoin="round" stroke-miterlimit="10" x1="208.394" y1="128.698" x2="208.394" y2="4.787"/>
<rect x="209.111" y="6.22" fill="#E4261E" width="64.462" height="41.542"/>
</svg>
