<?xml version="1.0" encoding="utf-8"?>
<!-- Generator: Adobe Illustrator 17.0.0, SVG Export Plug-In . SVG Version: 6.00 Build 0)  -->
<!DOCTYPE svg PUBLIC "-//W3C//DTD SVG 1.1//EN" "http://www.w3.org/Graphics/SVG/1.1/DTD/svg11.dtd">
<svg version="1.1" id="Calque_1" xmlns="http://www.w3.org/2000/svg" xmlns:xlink="http://www.w3.org/1999/xlink" x="0px" y="0px"
	 width="400px" height="451px" viewBox="0 0 400 451" enable-background="new 0 0 400 451" xml:space="preserve">
<polygon fill="#91B024" points="161.601,430.865 4.734,342.261 236.897,210.909 395,300.062 "/>
<polygon fill="#9BC448" points="161.342,430.779 394.332,300.379 394.286,303.874 161.359,434.048 "/>
<polygon fill="#676F28" points="4.437,345.479 161.273,433.789 161.256,430.521 4.392,342.115 "/>
<polygon fill="#562D13" points="161.273,433.789 4.437,345.479 4.471,356.787 161.324,444.167 "/>
<polygon fill="#744712" points="394.19,314.312 161.41,444.479 161.359,434.048 394.337,303.946 "/>
<path fill="#5B2911" d="M339.912,259.432c0-0.59,1.038-1.068,2.319-1.068l0,0c1.281,0,2.32,0.478,2.32,1.068v31.136
	c0,0.59-1.038,1.068-2.32,1.068l0,0c-1.281,0-2.319-0.478-2.319-1.068V259.432z"/>
<ellipse fill="#52822F" cx="341.577" cy="250.732" rx="21.796" ry="29"/>
<path fill="#436729" d="M342.363,279.732c12.038,0,21.796-12.984,21.796-29s-9.758-29-21.796-29c0,0,13.156,11.905,12.763,30.221
	S342.363,279.732,342.363,279.732z"/>
<polygon fill="#798389" points="209.64,304.099 95.814,240.044 227.215,165.509 342.015,230.244 "/>
<polygon fill="#FDFDFC" points="210.4,301.341 100.636,239.12 227.188,166.888 337.882,229.758 "/>
<polygon fill="#3D4446" points="95.869,250.445 209.705,314.506 209.64,304.099 95.814,240.044 "/>
<polygon fill="#4D5457" points="342.093,240.813 209.705,314.506 209.64,304.099 342.015,230.244 "/>
<polygon fill="#D9DBDB" points="96.503,307.962 209.511,371.844 209.705,314.506 95.869,250.445 95.912,308.02 "/>
<polygon fill="#EBECF4" points="342.158,298.281 209.511,371.844 209.899,314.054 342.093,240.813 342.158,297.893 "/>
<polygon fill="#D9DCDC" points="210.028,296.988 106.794,239.585 106.794,193.56 209.985,251.35 "/>
<polygon fill="#EAEDEC" points="331.039,230.449 210.028,296.988 209.985,251.35 330.824,184.122 "/>
<polygon fill="#7793A6" points="132.413,315.994 111.556,304.616 111.556,263.589 132.413,276.001 "/>
<polygon fill="#7793A6" points="164.735,334.438 143.877,323.06 143.877,282.034 164.735,294.446 "/>
<polygon fill="#7793A6" points="196.97,352.538 176.112,341.16 176.112,300.134 196.97,312.546 "/>
<polygon fill="#738FA2" points="244.892,340.471 224.034,352.883 224.034,310.822 244.892,299.444 "/>
<polygon fill="#738FA2" points="326.083,294.962 305.484,306.512 305.225,265.313 326.083,253.935 "/>
<polygon fill="#738FA2" points="294.757,322.233 255.493,343.919 255.666,293.066 294.757,272.208 "/>
<polygon fill="#728EA2" points="150.6,253.247 122.847,237.904 122.847,202.049 150.6,217.392 "/>
<polygon fill="#728EA2" points="197.142,279.362 169.389,264.02 169.389,228.165 197.142,243.507 "/>
<polygon fill="#728EA2" points="245.064,267.813 223.172,279.706 223.172,243.851 245.064,231.958 "/>
<polygon fill="#728EA2" points="280.23,247.817 258.338,259.71 258.338,223.855 280.23,211.962 "/>
<polygon fill="#728EA2" points="315.396,228.338 293.504,240.231 293.504,204.376 315.396,192.483 "/>
<path fill="#5B2911" d="M48.244,306.492c0-0.59,1.038-1.068,2.319-1.068l0,0c1.281,0,2.319,0.478,2.319,1.068v31.136
	c0,0.59-1.038,1.068-2.319,1.068l0,0c-1.281,0-2.319-0.478-2.319-1.068V306.492z"/>
<ellipse fill="#52822F" cx="49.909" cy="297.792" rx="21.796" ry="29"/>
<path fill="#436729" d="M50.695,326.792c12.038,0,21.796-12.984,21.796-29s-9.758-29-21.796-29c0,0,13.156,11.905,12.763,30.221
	S50.695,326.792,50.695,326.792z"/>
<path fill="#5B2911" d="M158.458,328.404c0-0.59,1.038-1.068,2.32-1.068l0,0c1.281,0,2.319,0.478,2.319,1.068v31.136
	c0,0.59-1.038,1.068-2.319,1.068l0,0c-1.281,0-2.32-0.478-2.32-1.068V328.404z"/>
<ellipse fill="#52822F" cx="160.123" cy="319.704" rx="21.796" ry="29"/>
<path fill="#436729" d="M160.909,348.704c12.038,0,21.796-12.984,21.796-29c0-16.016-9.758-29-21.796-29
	c0,0,13.156,11.905,12.763,30.221S160.909,348.704,160.909,348.704z"/>
<polygon fill="#41484D" points="129.914,395.782 70.012,362.167 69.839,347.302 129.914,380.615 "/>
<polygon fill="#B2B5B3" points="129.828,395.804 131.336,397.572 67.34,361.76 69.99,359.368 70.012,362.167 "/>
<polygon fill="#41484D" points="131.379,401.321 67.34,365.55 67.34,361.76 131.336,397.572 "/>
<ellipse transform="matrix(0.8531 -0.5217 0.5217 0.8531 -181.2094 95.4331)" fill="#666767" cx="78.896" cy="369.567" rx="5.201" ry="8.328"/>
<ellipse transform="matrix(0.8531 -0.5217 0.5217 0.8531 -187.1731 119.9159)" fill="#666767" cx="119.399" cy="392.401" rx="5.201" ry="8.328"/>
<polygon fill="#646E75" points="81.13,353.572 69.572,347.232 94.014,332.175 106.087,339.635 "/>
<polygon fill="#6E787C" points="108.491,353.11 80.615,337.61 110.313,320.872 138.208,336.567 "/>
<polygon fill="#788082" points="129.828,380.636 115.262,372.577 144.788,355.835 159.52,364.26 "/>
<polygon fill="#4A5155" points="162.726,383.728 131.342,401.354 131.336,397.572 162.726,379.332 "/>
<polygon fill="#B2B5B3" points="159.607,378.395 129.828,395.804 129.828,380.636 159.52,364.26 "/>
<polygon fill="#585E61" points="80.678,353.356 80.743,337.734 96.386,346.332 96.386,362.083 "/>
<polygon fill="#C4C9CC" points="115.262,372.577 108.491,353.11 96.386,346.332 96.386,362.083 "/>
<polygon fill="#B2B5B3" points="144.933,355.834 138.21,336.635 108.491,353.11 115.262,372.577 "/>
<polygon fill="#ECF0DC" points="148.747,352.925 144.868,354.994 144.868,344.393 148.747,342.324 "/>
<polygon fill="#B42421" points="106.729,348.271 97.679,343.358 97.722,338.855 106.729,344.005 "/>
<polygon fill="#738FA2" points="143.058,354.865 116.425,370.056 110.931,353.895 137.434,339.157 "/>
<polygon fill="#ECF0DC" points="156.094,387.1 144.157,393.956 144.157,390.806 156.23,383.744 "/>
<polygon fill="#FCFBFB" points="114.637,339.652 105.415,334.373 113.344,329.891 122.588,335.213 "/>
<path fill="#6E787C" d="M139.567,389.168c0,0.381-0.309,0.69-0.69,0.69l0,0c-0.381,0-0.69-0.309-0.69-0.69v-10.601
	c0-0.381,0.309-0.69,0.69-0.69l0,0c0.381,0,0.69,0.309,0.69,0.69V389.168z"/>
<path fill="#6E787C" d="M142.756,387.315c0,0.381-0.309,0.69-0.69,0.69l0,0c-0.381,0-0.69-0.309-0.69-0.69v-10.601
	c0-0.381,0.309-0.69,0.69-0.69l0,0c0.381,0,0.69,0.309,0.69,0.69V387.315z"/>
<path fill="#6E787C" d="M149.738,383.092c0,0.381-0.309,0.69-0.69,0.69l0,0c-0.381,0-0.69-0.309-0.69-0.69v-10.601
	c0-0.381,0.309-0.69,0.69-0.69l0,0c0.381,0,0.69,0.309,0.69,0.69V383.092z"/>
<path fill="#6E787C" d="M146.376,385.247c0,0.381-0.309,0.69-0.69,0.69l0,0c-0.381,0-0.69-0.309-0.69-0.69v-10.601
	c0-0.381,0.309-0.69,0.69-0.69l0,0c0.381,0,0.69,0.309,0.69,0.69V385.247z"/>
<path fill="#6E787C" d="M152.841,381.454c0,0.381-0.309,0.69-0.69,0.69l0,0c-0.381,0-0.69-0.309-0.69-0.69v-10.601
	c0-0.381,0.309-0.69,0.69-0.69l0,0c0.381,0,0.69,0.309,0.69,0.69V381.454z"/>
<polygon fill="#FCFBFB" points="135.258,391.323 130.776,393.995 130.776,383.049 135.344,380.636 "/>
<polygon fill="#FCFBFB" points="158.745,377.705 154.996,379.86 154.952,369.689 158.788,367.449 "/>
<polygon fill="#DC4136" points="106.729,344.005 97.679,338.833 105.415,334.373 114.745,339.587 "/>
<polygon fill="#2F9ECA" points="122.545,335.235 113.344,329.891 121.015,325.538 130.194,330.839 "/>
<polygon fill="#738FA2" points="112.353,369.517 107.538,354.547 98.196,349.004 98.263,361.726 "/>
<polygon fill="#ECF0DC" points="110.866,373.74 106.988,375.809 106.988,365.208 110.866,363.139 "/>
<polygon fill="#1A8EB1" points="122.416,339.609 122.243,335.386 130.194,330.839 130.194,335.278 "/>
<polygon fill="#EDEBEB" points="114.68,343.984 114.637,339.652 122.502,335.256 122.502,339.566 "/>
<polygon fill="#C62E25" points="106.729,348.271 106.729,344.005 114.702,339.609 114.702,344.026 "/>
<polygon fill="#788082" points="159.607,377.694 162.71,379.375 131.336,397.572 129.828,395.804 159.607,378.395 "/>
<path fill="#C62E25" d="M130.776,389.707l4.482-2.478c0,0-0.043,4.029,0,4.094c0.043,0.065-4.482,2.672-4.482,2.672V389.707z"/>
<path fill="#C62E25" d="M154.952,375.615l3.835-1.875c0,0-0.043,4.029,0,4.094c0.043,0.065-3.835,2.069-3.835,2.069V375.615z"/>
<ellipse transform="matrix(0.8531 -0.5217 0.5217 0.8531 -187.156 119.8179)" fill="#B2B5B3" cx="119.233" cy="392.321" rx="3.056" ry="5.936"/>
<ellipse transform="matrix(0.8531 -0.5217 0.5217 0.8531 -181.1346 95.3674)" fill="#B2B5B3" cx="78.817" cy="369.401" rx="3.056" ry="5.936"/>
<polygon fill="#757E82" points="209.739,223.171 95.913,159.117 227.314,84.582 342.115,149.316 "/>
<polygon fill="#EFF1F0" points="210.674,216.874 106.945,159.278 227.167,90.879 331.772,149.086 "/>
<polygon fill="#C5C8C6" points="210.959,207.565 132.27,163.07 228.085,108.117 307.482,153.107 "/>
<polyline fill="#D9DBDB" points="173.052,127.624 172.893,164.605 172.901,164.668 217.333,188.97 217.268,152.317 "/>
<polygon fill="#FDFDFC" points="217.324,147.324 171.6,122.458 221.738,93.981 267.343,119.467 "/>
<polygon fill="#34383C" points="171.63,126.784 217.268,152.317 217.324,147.324 171.6,122.458 "/>
<polyline fill="#424C4E" points="266.655,125.491 217.268,152.317 217.324,147.324 267.108,119.608 267.108,125.103 "/>
<polygon fill="#688295" points="201.754,176.494 186.951,168.349 187.08,141.716 201.948,149.99 "/>
<polygon fill="#EAEDEC" points="265.039,162.66 217.333,188.97 217.397,188.776 217.268,152.317 265.074,125.819 265.074,162.278 
	"/>
<polygon fill="#505659" points="209.705,251.479 341.253,177.916 342.128,177.404 342.115,149.316 209.739,223.171 "/>
<polygon fill="#414448" points="95.804,187.418 209.64,251.221 209.739,223.171 95.913,159.117 "/>
<polygon fill="#C5C8C6" points="217.987,137.278 197.156,125.776 220.651,112.443 241.497,124.092 "/>
<polygon fill="#EAEDEC" points="220.694,112.368 220.67,103.979 188.6,121.377 197.156,125.776 "/>
<polygon fill="#DADBDA" points="220.694,112.368 220.67,103.979 248.943,119.867 241.703,124.133 "/>
<path fill="#C3AE3F" d="M241.7,236.59c-6.728-0.187-10.885-6.681-12.007-10.465s-1.436-10.113-1.436-10.113
	c9.25-4.345,9.612-10.257,9.612-10.257l3.597,0.747L241.7,236.59z"/>
<path fill="#F3DC53" d="M241.467,206.503c0,0,3.357,5.158,8.683,3.476c0,0,0.669,7.985-0.69,13.963
	c-1.402,6.167-5.05,9.985-7.853,12.929c0,0-5.466-2.336-7.428-7.241s-2.409-9.37-2.129-11.893
	C232.05,217.736,240.345,213.651,241.467,206.503z"/>
<path fill="none" stroke="#FFFFFF" stroke-width="0.9391" stroke-linecap="round" stroke-linejoin="round" stroke-miterlimit="10" d="
	M242.144,212.169c0,0,2.49,3.326,5.42,2.292c0,0,0.514,4.816-0.517,8.791c-0.876,3.374-2.932,7.288-4.809,9.26
	c0,0-3.662-1.565-4.976-4.851c-1.314-3.286-1.952-6.339-1.764-8.029C235.497,219.632,240.953,216.968,242.144,212.169z"/>
<g>
	<path fill="#FFFFFF" d="M265.427,215.395l-4.095,2.364v-15.162l3.967-2.291c1.977-1.141,3.444-1.586,4.399-1.332
		c1.126,0.299,1.689,1.293,1.689,2.982c0,1.84-0.599,3.557-1.797,5.152c-0.818,1.081-1.993,2.064-3.525,2.949l-0.638,0.369V215.395z
		 M265.427,207.235l0.187-0.098c0.498-0.287,0.894-0.668,1.188-1.143c0.295-0.475,0.442-0.977,0.442-1.507
		c0-0.524-0.144-0.866-0.432-1.027c-0.288-0.168-0.655-0.123-1.1,0.134l-0.285,0.164V207.235z"/>
	<path fill="#FFFFFF" d="M285.758,196.128c0,2.231-0.527,4.35-1.581,6.355c-1.047,1.996-2.412,3.48-4.095,4.451
		c-1.493,0.862-2.773,1.067-3.84,0.615c-1.342-0.579-2.013-2.219-2.013-4.926c0-2.591,0.701-4.977,2.102-7.158
		c1.041-1.619,2.275-2.84,3.702-3.664c1.748-1.009,3.139-1.123,4.174-0.342C285.241,192.239,285.758,193.796,285.758,196.128z
		 M281.506,198.618c0-2.689-0.484-3.755-1.453-3.195c-0.484,0.28-0.871,0.856-1.159,1.728c-0.282,0.817-0.422,1.861-0.422,3.133
		c0,1.252,0.133,2.146,0.398,2.684c0.265,0.536,0.633,0.669,1.105,0.397c0.484-0.28,0.858-0.836,1.12-1.668
		C281.368,200.858,281.506,199.831,281.506,198.618z"/>
	<path fill="#FFFFFF" d="M296.463,197.476l-7.169,4.139v-15.162l4.095-2.364v11.529l3.074-1.775V197.476z"/>
	<path fill="#FFFFFF" d="M303.566,193.375l-4.095,2.364v-15.162l4.095-2.364V193.375z"/>
	<path fill="#FFFFFF" d="M316.002,181.58l-0.236,4.246c-0.91,0.863-1.725,1.502-2.445,1.917c-1.696,0.979-3.123,1.202-4.282,0.67
		c-1.296-0.597-1.944-2.13-1.944-4.594c0-2.308,0.609-4.512,1.827-6.611c1.218-2.094,2.845-3.729,4.881-4.905
		c0.661-0.382,1.336-0.652,2.023-0.81v4.188c-0.609-0.257-1.234-0.201-1.876,0.17c-0.838,0.484-1.493,1.215-1.964,2.194
		c-0.471,0.987-0.707,2.109-0.707,3.369c0,0.609,0.059,1.12,0.177,1.533c0.118,0.412,0.286,0.72,0.506,0.924
		c0.219,0.206,0.489,0.302,0.81,0.292c0.321-0.01,0.687-0.133,1.1-0.371C314.578,183.384,315.288,182.647,316.002,181.58z"/>
	<path fill="#FFFFFF" d="M319.391,184.239v-15.162l7.611-4.394v3.633l-3.516,2.03v1.935l3.152-1.82v3.633l-3.152,1.82v2.327
		l3.516-2.03v3.633L319.391,184.239z"/>
</g>
<line fill="none" stroke="#2F9ECA" stroke-width="3.1029" stroke-linecap="round" stroke-linejoin="round" stroke-miterlimit="10" x1="219.991" y1="127.219" x2="219.991" y2="7.932"/>
<rect x="220.68" y="9.311" fill="#2F9ECA" width="62.057" height="39.992"/>
</svg>
