<?xml version="1.0" encoding="utf-8"?>
<!-- Generator: Adobe Illustrator 16.0.0, SVG Export Plug-In . SVG Version: 6.00 Build 0)  -->
<!DOCTYPE svg PUBLIC "-//W3C//DTD SVG 1.1//EN" "http://www.w3.org/Graphics/SVG/1.1/DTD/svg11.dtd">
<svg version="1.1" id="Calque_1" xmlns="http://www.w3.org/2000/svg" xmlns:xlink="http://www.w3.org/1999/xlink" x="0px" y="0px"
	 width="38px" height="38px" viewBox="0 0 38 38" enable-background="new 0 0 38 38" xml:space="preserve">
<g>
	<path fill="#179FAE" d="M10.422,18.722c0.329,0,0.596-0.267,0.596-0.596V5.481c0-0.329-0.268-0.597-0.596-0.597
		c-0.329,0-0.596,0.268-0.596,0.597v12.645C9.827,18.455,10.093,18.722,10.422,18.722z"/>
	<path fill="#179FAE" d="M14.879,13.582c0.33,0,0.596-0.266,0.596-0.597V5.481c0-0.329-0.266-0.597-0.596-0.597
		s-0.596,0.268-0.596,0.597v7.503C14.283,13.315,14.55,13.582,14.879,13.582z"/>
	<path fill="#179FAE" d="M19.335,16.112c0.33,0,0.597-0.267,0.597-0.597V5.481c0-0.329-0.268-0.597-0.597-0.597
		c-0.328,0-0.596,0.268-0.596,0.597v10.034C18.739,15.845,19.007,16.112,19.335,16.112z"/>
	<path fill="#179FAE" d="M23.793,10.696c0.329,0,0.597-0.267,0.597-0.596V5.481c0-0.329-0.268-0.597-0.597-0.597
		s-0.597,0.268-0.597,0.597V10.1C23.196,10.429,23.464,10.696,23.793,10.696z"/>
	<path fill="#179FAE" d="M32.706,13.129c-0.33,0-0.597,0.268-0.597,0.597v17.601h-3.265V17.733c0-0.329-0.267-0.595-0.597-0.595
		c-0.328,0-0.595,0.266-0.595,0.595v13.594H24.39v-7.286c0-0.33-0.268-0.598-0.597-0.598s-0.597,0.268-0.597,0.598v7.286h-3.264
		v-4.384c0-0.33-0.268-0.597-0.597-0.597c-0.328,0-0.595,0.267-0.595,0.597v4.384h-3.265v-5.414c0-0.329-0.266-0.596-0.596-0.596
		s-0.596,0.267-0.596,0.596v5.414h-3.265v-0.574c0-0.329-0.268-0.597-0.596-0.597c-0.329,0-0.596,0.268-0.596,0.597v0.574H7.286
		l7.945-11.63l4.615,2.881c0.404,0.251,0.933,0.144,1.208-0.245l9.958-14.25l0.402,2.099c0.081,0.429,0.456,0.727,0.878,0.727
		c0.055,0,0.111-0.005,0.167-0.017c0.486-0.092,0.803-0.56,0.711-1.045l-0.784-4.111c-0.045-0.233-0.181-0.439-0.377-0.572
		c-0.195-0.133-0.438-0.183-0.67-0.138l-4.111,0.787c-0.484,0.092-0.802,0.561-0.71,1.045c0.094,0.485,0.561,0.804,1.046,0.71
		l1.879-0.359l-9.369,13.403l-4.623-2.886c-0.407-0.254-0.941-0.142-1.211,0.254L6.486,29.328V5.862c0-0.494-0.4-0.894-0.894-0.894
		c-0.494,0-0.894,0.4-0.894,0.894v26.353v0.003v0.004c0,0.012,0.003,0.022,0.003,0.033c0.002,0.047,0.005,0.094,0.015,0.14
		c0.005,0.027,0.015,0.051,0.022,0.077c0.009,0.031,0.016,0.061,0.027,0.09c0.012,0.024,0.026,0.049,0.039,0.073
		c0.014,0.027,0.026,0.055,0.043,0.079c0.016,0.024,0.035,0.045,0.052,0.067c0.019,0.023,0.036,0.047,0.057,0.068
		c0.029,0.028,0.062,0.054,0.095,0.08c0.013,0.009,0.023,0.021,0.037,0.03c0.001,0.001,0.002,0.001,0.003,0.002
		c0.005,0.004,0.011,0.006,0.016,0.008c0.04,0.027,0.081,0.049,0.123,0.069c0.014,0.005,0.03,0.011,0.044,0.015
		c0.037,0.015,0.073,0.027,0.111,0.036c0.016,0.003,0.031,0.007,0.046,0.01c0.053,0.01,0.106,0.016,0.16,0.016h0c0,0,0,0,0,0h26.74
		c0.334,0,0.622-0.185,0.776-0.456c0.117-0.109,0.193-0.264,0.193-0.438V13.726C33.302,13.397,33.034,13.129,32.706,13.129z"/>
</g>
</svg>
