<?xml version="1.0" encoding="utf-8"?>
<!-- Generator: Adobe Illustrator 16.0.0, SVG Export Plug-In . SVG Version: 6.00 Build 0)  -->
<!DOCTYPE svg PUBLIC "-//W3C//DTD SVG 1.1//EN" "http://www.w3.org/Graphics/SVG/1.1/DTD/svg11.dtd">
<svg version="1.1" id="Calque_1" xmlns="http://www.w3.org/2000/svg" xmlns:xlink="http://www.w3.org/1999/xlink" x="0px" y="0px"
	 width="85.04px" height="85.04px" viewBox="0 0 85.04 85.04" enable-background="new 0 0 85.04 85.04" xml:space="preserve">
<text transform="matrix(1 0 0 1 32.3906 48.9443)" fill="#EB6A5B" font-family="'Ubuntu-Medium'" font-size="19.7712">2008</text>
<path fill="#EB6A5B" d="M16.091,41.771l-1.776-1.933c-0.151-0.153-0.151-0.4,0-0.554c0.152-0.152,0.397-0.152,0.548,0l2.164,2.208
	c0.152,0.154,0.152,0.401,0,0.553l-2.164,2.209c-0.151,0.153-0.396,0.153-0.548,0c-0.151-0.152-0.151-0.4,0-0.552L16.091,41.771z
	 M15.319,34.366c4.089,0,7.404,3.314,7.404,7.404s-3.315,7.404-7.404,7.404c-4.089,0-7.404-3.314-7.404-7.404
	S11.23,34.366,15.319,34.366z M15.319,48.213c3.558,0,6.443-2.884,6.443-6.442c0-3.559-2.885-6.443-6.443-6.443
	c-3.56,0-6.443,2.884-6.443,6.443C8.875,45.329,11.76,48.213,15.319,48.213z"/>
</svg>
