<?xml version="1.0" encoding="utf-8"?>
<!-- Generator: Adobe Illustrator 16.0.0, SVG Export Plug-In . SVG Version: 6.00 Build 0)  -->
<!DOCTYPE svg PUBLIC "-//W3C//DTD SVG 1.1//EN" "http://www.w3.org/Graphics/SVG/1.1/DTD/svg11.dtd">
<svg version="1.1" id="Calque_1" xmlns="http://www.w3.org/2000/svg" xmlns:xlink="http://www.w3.org/1999/xlink" x="0px" y="0px"
	 width="85.04px" height="85.04px" viewBox="0 0 85.04 85.04" enable-background="new 0 0 85.04 85.04" xml:space="preserve">
<text transform="matrix(1 0 0 1 32.1807 48.0156)" fill="#183356" font-family="'Ubuntu-Medium'" font-size="18.82">2014</text>
<path fill="#183356" d="M16.664,41.31l-1.69-1.84c-0.144-0.146-0.144-0.38,0-0.527c0.145-0.144,0.377-0.144,0.522,0l2.06,2.103
	c0.144,0.147,0.144,0.382,0,0.527l-2.06,2.103c-0.145,0.146-0.377,0.146-0.522,0c-0.144-0.145-0.144-0.381,0-0.526L16.664,41.31z
	 M15.93,34.261c3.893,0,7.048,3.156,7.048,7.049c0,3.894-3.155,7.048-7.048,7.048c-3.892,0-7.048-3.154-7.048-7.048
	C8.882,37.417,12.038,34.261,15.93,34.261z M15.93,47.443c3.387,0,6.134-2.745,6.134-6.133c0-3.388-2.747-6.133-6.134-6.133
	c-3.388,0-6.133,2.745-6.133,6.133C9.795,44.698,12.542,47.443,15.93,47.443z"/>
</svg>
