<?xml version="1.0" encoding="utf-8"?>
<!-- Generator: Adobe Illustrator 16.0.0, SVG Export Plug-In . SVG Version: 6.00 Build 0)  -->
<!DOCTYPE svg PUBLIC "-//W3C//DTD SVG 1.1//EN" "http://www.w3.org/Graphics/SVG/1.1/DTD/svg11.dtd">
<svg version="1.1" id="Calque_1" xmlns="http://www.w3.org/2000/svg" xmlns:xlink="http://www.w3.org/1999/xlink" x="0px" y="0px"
	 width="85.04px" height="85.04px" viewBox="0 0 85.04 85.04" enable-background="new 0 0 85.04 85.04" xml:space="preserve">
<g>
	<ellipse fill="#AECD58" cx="43.325" cy="40.741" rx="18.493" ry="32.99"/>
	<path fill="#183356" d="M35.27,80.586h16.206C51.476,80.586,44.709,73.06,35.27,80.586z"/>
	<g>
		<path fill="#183356" d="M43.604,80.352c-0.38,0-0.684-0.308-0.684-0.688V27.153c0-0.377,0.304-0.685,0.684-0.685
			c0.379,0,0.685,0.307,0.685,0.685v52.511C44.288,80.044,43.982,80.352,43.604,80.352z"/>
	</g>
	<g>
		<path fill="#183356" d="M43.506,67.927c-0.106,0-0.218-0.026-0.321-0.083l-10.301-5.52c-0.332-0.181-0.459-0.594-0.28-0.928
			c0.178-0.334,0.594-0.46,0.93-0.279l10.3,5.518c0.333,0.182,0.459,0.594,0.28,0.93C43.99,67.793,43.752,67.927,43.506,67.927z"/>
	</g>
	<g>
		<path fill="#183356" d="M44.034,61.062c-0.201,0-0.399-0.087-0.537-0.259c-0.235-0.296-0.186-0.729,0.111-0.963l12.104-9.598
			c0.296-0.234,0.727-0.183,0.961,0.113c0.234,0.295,0.185,0.727-0.111,0.961l-12.102,9.6
			C44.336,61.014,44.186,61.062,44.034,61.062z"/>
	</g>
	<g>
		<path fill="#183356" d="M43.578,52.811c-0.111,0-0.222-0.025-0.324-0.082l-9.614-5.159c-0.333-0.181-0.457-0.594-0.278-0.929
			c0.179-0.332,0.596-0.459,0.928-0.278l9.612,5.161c0.335,0.179,0.461,0.595,0.28,0.926C44.057,52.681,43.823,52.811,43.578,52.811
			z"/>
	</g>
	<g>
		<path fill="#183356" d="M43.551,40.884c-0.108,0-0.221-0.027-0.323-0.083l-6.479-3.477c-0.332-0.18-0.457-0.594-0.277-0.927
			c0.178-0.333,0.594-0.457,0.926-0.28l6.479,3.479c0.334,0.178,0.461,0.594,0.28,0.926C44.031,40.753,43.795,40.884,43.551,40.884z
			"/>
	</g>
	<g>
		<path fill="#183356" d="M43.875,46.219c-0.158,0-0.318-0.055-0.449-0.168c-0.285-0.248-0.316-0.682-0.066-0.967l7.152-8.22
			c0.249-0.287,0.681-0.315,0.968-0.065c0.282,0.247,0.314,0.681,0.065,0.965l-7.153,8.221
			C44.258,46.139,44.066,46.219,43.875,46.219z"/>
	</g>
	<g>
		<path fill="#183356" d="M43.894,35.506c-0.157,0-0.319-0.056-0.449-0.168c-0.286-0.248-0.315-0.682-0.067-0.967l5.203-5.978
			c0.249-0.287,0.683-0.314,0.965-0.067c0.286,0.25,0.317,0.683,0.068,0.968l-5.204,5.977
			C44.275,35.425,44.083,35.506,43.894,35.506z"/>
	</g>
</g>
</svg>
