<?xml version="1.0" encoding="utf-8"?>
<!-- Generator: Adobe Illustrator 16.0.0, SVG Export Plug-In . SVG Version: 6.00 Build 0)  -->
<!DOCTYPE svg PUBLIC "-//W3C//DTD SVG 1.1//EN" "http://www.w3.org/Graphics/SVG/1.1/DTD/svg11.dtd">
<svg version="1.1" id="Calque_1" xmlns="http://www.w3.org/2000/svg" xmlns:xlink="http://www.w3.org/1999/xlink" x="0px" y="0px"
	 width="85.04px" height="85.04px" viewBox="0 0 85.04 85.04" enable-background="new 0 0 85.04 85.04" xml:space="preserve">
<g>
	<g>
		<path fill="#EB6A5B" d="M28.785,67.815h11.526V56.028h6.929v11.787h11.523V15.043H28.785V67.815z M45.88,21.263h6.925v6.929H45.88
			V21.263z M45.88,32.397h6.925v6.929H45.88V32.397z M45.88,43.533h6.925v6.929H45.88V43.533z M34.744,21.263h6.925v6.929h-6.925
			V21.263z M34.744,32.397h6.925v6.929h-6.925V32.397z M34.744,43.533h6.925v6.929h-6.925V43.533z"/>
		<path fill="#EB6A5B" d="M61.458,19.774v37.31h4.45v10.731H76.4V19.774H61.458z M70.974,52.017h-6.306v-6.308h6.306V52.017
			L70.974,52.017z M70.974,41.877h-6.306V35.57h6.306V41.877L70.974,41.877z M70.974,31.741h-6.306v-6.309h6.306V31.741
			L70.974,31.741z"/>
		<path fill="#EB6A5B" d="M11.148,67.815h10.493V57.084h4.449v-37.31H11.148V67.815z M16.571,25.432h6.309v6.309h-6.309V25.432z
			 M16.571,35.57h6.309v6.307h-6.309V35.57z M16.571,45.709h6.309v6.308h-6.309V45.709z"/>
	</g>
</g>
</svg>
