<?xml version="1.0" encoding="utf-8"?>
<!-- Generator: Adobe Illustrator 16.0.0, SVG Export Plug-In . SVG Version: 6.00 Build 0)  -->
<!DOCTYPE svg PUBLIC "-//W3C//DTD SVG 1.1//EN" "http://www.w3.org/Graphics/SVG/1.1/DTD/svg11.dtd">
<svg version="1.1" id="Calque_1" xmlns="http://www.w3.org/2000/svg" xmlns:xlink="http://www.w3.org/1999/xlink" x="0px" y="0px"
	 width="85.04px" height="85.04px" viewBox="0 0 85.04 85.04" enable-background="new 0 0 85.04 85.04" xml:space="preserve">
<g>
	<path fill="#183356" d="M44.064,80.589v-8.056h-1.027V28.756c0,0-1.638,0.709-3.75,0.164v43.778h-1.145v7.969
		c0,0-0.242,3.314,3.054,3.314C44.346,83.981,44.064,80.589,44.064,80.589z"/>
	<path fill="#ED796B" d="M36.606,22.163l-18.758,2.755L16.04,26.98l2.545,1.754l18.396-1.652
		C36.981,27.083,35.373,24.557,36.606,22.163z"/>
	<path fill="#EB6A5B" d="M36.164,24.606c-0.072-0.756,0.012-1.607,0.442-2.443l-18.758,2.755L16.04,26.98L36.164,24.606z"/>
	<path fill="#ED796B" d="M41.271,29.398l11.055,15.402l2.663,0.659l0.391-3.065L45.47,26.808
		C45.47,26.808,43.962,29.396,41.271,29.398z"/>
	<path fill="#EB6A5B" d="M43.643,28.67c-0.637,0.412-1.433,0.728-2.372,0.729l11.055,15.402l2.663,0.659L43.643,28.67z"/>
	<path fill="#183356" d="M45.728,26.495c-1.172,2.583-4.217,3.726-6.8,2.553c-2.584-1.173-3.727-4.219-2.554-6.801
		c1.174-2.58,4.219-3.724,6.802-2.55C45.76,20.867,46.901,23.912,45.728,26.495z"/>
	<path fill="#ED796B" d="M45.252,21.436l7.312-17.487l-0.833-2.616l-2.817,1.276l-8.071,16.614
		C40.843,19.223,43.838,19.147,45.252,21.436z"/>
	<path fill="#EB6A5B" d="M43.386,19.8c0.686,0.327,1.371,0.838,1.866,1.635l7.312-17.487l-0.833-2.616L43.386,19.8z"/>
	<circle fill="#EB6A5B" cx="41.052" cy="24.371" r="1.745"/>
</g>
</svg>
