<?xml version="1.0" encoding="utf-8"?>
<!-- Generator: Adobe Illustrator 16.0.0, SVG Export Plug-In . SVG Version: 6.00 Build 0)  -->
<!DOCTYPE svg PUBLIC "-//W3C//DTD SVG 1.1//EN" "http://www.w3.org/Graphics/SVG/1.1/DTD/svg11.dtd">
<svg version="1.1" id="Calque_1" xmlns="http://www.w3.org/2000/svg" xmlns:xlink="http://www.w3.org/1999/xlink" x="0px" y="0px"
	 width="85.04px" height="85.04px" viewBox="0 0 85.04 85.04" enable-background="new 0 0 85.04 85.04" xml:space="preserve">
<g>
	<rect x="38.277" y="53.165" fill="#EB6A5B" width="7.125" height="11.879"/>
	<polygon fill="#183356" points="44.217,48.407 44.217,50.783 58.467,50.783 67.968,41.286 67.968,38.908 53.716,38.908 	"/>
	<polygon fill="#183356" points="64.404,28.22 56.089,36.534 70.343,36.534 70.343,38.908 78.655,30.596 78.655,28.22 	"/>
	<polygon fill="#183356" points="52.527,36.534 60.842,28.22 46.59,28.22 38.277,36.534 	"/>
	<polygon fill="#183356" points="35.902,38.908 26.403,48.407 26.403,50.783 40.652,50.783 40.652,48.407 40.652,48.407 
		50.151,38.908 	"/>
	<polygon fill="#183356" points="43.028,28.22 28.779,28.22 20.463,36.534 34.714,36.534 	"/>
	<polygon fill="#183356" points="18.09,38.908 8.588,48.407 8.588,50.783 22.841,50.783 22.841,48.407 32.341,38.908 	"/>
</g>
</svg>
