<?xml version="1.0" encoding="utf-8"?>
<!-- Generator: Adobe Illustrator 16.0.0, SVG Export Plug-In . SVG Version: 6.00 Build 0)  -->
<!DOCTYPE svg PUBLIC "-//W3C//DTD SVG 1.1//EN" "http://www.w3.org/Graphics/SVG/1.1/DTD/svg11.dtd">
<svg version="1.1" id="Calque_1" xmlns="http://www.w3.org/2000/svg" xmlns:xlink="http://www.w3.org/1999/xlink" x="0px" y="0px"
	 width="85.04px" height="85.04px" viewBox="0 0 85.04 85.04" enable-background="new 0 0 85.04 85.04" xml:space="preserve">
<pattern  width="49" height="49" patternUnits="userSpaceOnUse" id="Nouvelle_nuance_de_motif_1" viewBox="0 -49 49 49" overflow="visible">
	<g>
		<polygon fill="none" points="0,-49 49,-49 49,0 0,0 		"/>
		<polygon fill="#EB6A5B" points="49,0 0,0 0,-49 49,-49 		"/>
	</g>
</pattern>
<g>
	<circle fill="#2B3D49" cx="41.295" cy="14.561" r="9.07"/>
	<path fill="#F2EDEC" d="M41.238,28.401c0,0-4.121,0.494-4.121-3.627s-0.041-10.261-0.041-10.261s0.083-2.721,4.244-2.638
		c4.163,0.083,4.245,2.596,4.245,2.596v10.303C45.565,24.773,45.896,28.565,41.238,28.401z"/>
	<path fill="#2B3D49" d="M38.051,10.727c0,0,1.18,5.162,7.152,5.162C51.177,15.889,43.802,8.367,38.051,10.727z"/>
	<circle fill="#2B3D49" cx="40.188" cy="18.175" r="0.384"/>
	<circle fill="#2B3D49" cx="43.084" cy="18.175" r="0.384"/>
	<rect x="41.424" y="28.129" fill="#F2EDEB" width="0.497" height="3.208"/>
	<polygon fill="#2B3D49" points="38.437,29.789 44.631,29.789 45.793,46.436 37.607,46.436 	"/>
	<circle fill="#AECD58" cx="40.059" cy="30.323" r="0.304"/>
	<circle fill="#AECD58" cx="40.327" cy="31.457" r="0.304"/>
	<circle fill="#AECD58" cx="41.037" cy="32.425" r="0.304"/>
	<circle fill="#AECD58" cx="42.309" cy="32.416" r="0.304"/>
	<circle fill="#AECD58" cx="42.935" cy="31.373" r="0.304"/>
	<circle fill="#AECD58" cx="43.36" cy="30.277" r="0.304"/>
	
		<pattern  id="SVGID_1_" xlink:href="#Nouvelle_nuance_de_motif_1" patternTransform="matrix(-0.0311 0.0619 -0.0619 -0.0311 -8901.5801 -7740.4453)">
	</pattern>
	<path fill="url(#SVGID_1_)" d="M45.376,48.689c-0.382-0.192-0.536-0.657-0.345-1.04l0.449-0.897
		c0.192-0.382,0.658-0.536,1.041-0.345l0,0c0.382,0.192,0.537,0.657,0.346,1.04l-0.45,0.897
		C46.225,48.727,45.759,48.881,45.376,48.689L45.376,48.689z"/>
	
		<pattern  id="SVGID_2_" xlink:href="#Nouvelle_nuance_de_motif_1" patternTransform="matrix(0.0311 0.0619 0.0619 -0.0311 -7388.936 -7736.1587)">
	</pattern>
	<path fill="url(#SVGID_2_)" d="M38.391,48.855c0.384-0.192,0.538-0.657,0.346-1.04l-0.449-0.897
		c-0.192-0.382-0.658-0.536-1.041-0.345l0,0c-0.383,0.192-0.537,0.658-0.346,1.041l0.45,0.896
		C37.543,48.893,38.009,49.048,38.391,48.855L38.391,48.855z"/>
	<rect x="38.938" y="73.645" fill="#AFDCDF" width="1.789" height="2.36"/>
	<rect x="41.441" y="73.645" fill="#AFDCDF" width="1.789" height="2.36"/>
	<path fill="#183356" d="M40.742,78.045H36.7c-0.562,0-1.02-0.457-1.02-1.02l0,0c0-0.563,0.457-1.021,1.02-1.021h4.042"/>
	<path fill="#183356" d="M41.423,78.045h4.041c0.562,0,1.02-0.457,1.02-1.02l0,0c0-0.563-0.457-1.021-1.02-1.021h-4.041"/>
</g>
</svg>
