<?xml version="1.0" encoding="utf-8"?>
<!-- Generator: Adobe Illustrator 16.0.0, SVG Export Plug-In . SVG Version: 6.00 Build 0)  -->
<!DOCTYPE svg PUBLIC "-//W3C//DTD SVG 1.1//EN" "http://www.w3.org/Graphics/SVG/1.1/DTD/svg11.dtd">
<svg version="1.1" id="Calque_1" xmlns="http://www.w3.org/2000/svg" xmlns:xlink="http://www.w3.org/1999/xlink" x="0px" y="0px"
	 width="85.04px" height="85.04px" viewBox="0 0 85.04 85.04" enable-background="new 0 0 85.04 85.04" xml:space="preserve">
<pattern  width="49" height="49" patternUnits="userSpaceOnUse" id="Nouvelle_nuance_de_motif_1" viewBox="0 -49 49 49" overflow="visible">
	<g>
		<polygon fill="none" points="0,-49 49,-49 49,0 0,0 		"/>
		<polygon fill="#EB6A5B" points="49,0 0,0 0,-49 49,-49 		"/>
	</g>
</pattern>
<path fill="#183356" d="M47.566,34.442c3.203,3.231,1.908,8.604,1.908,8.604l-1.61,6.597"/>
<path fill="#183356" d="M39.211,49.852c-1.063-4.259-1.745-6.712-1.745-6.712s-1.227-5.511,2.096-8.637"/>
<pattern  id="SVGID_1_" xlink:href="#Nouvelle_nuance_de_motif_1" patternTransform="matrix(-0.0167 0.0971 -0.0971 -0.0167 -9054.6611 -7265.5962)">
</pattern>
<path fill="url(#SVGID_1_)" d="M46.73,53.172c-0.6-0.104-1.004-0.673-0.9-1.272l0.241-1.406c0.104-0.601,0.674-1.003,1.272-0.899
	l0,0c0.601,0.103,1.004,0.672,0.9,1.271l-0.241,1.407C47.9,52.872,47.33,53.274,46.73,53.172L46.73,53.172z"/>
<pattern  id="SVGID_2_" xlink:href="#Nouvelle_nuance_de_motif_1" patternTransform="matrix(0.0337 0.0871 0.0871 -0.0337 -7168.708 -7479.2241)">
</pattern>
<path fill="url(#SVGID_2_)" d="M38.201,54.37c0.539-0.207,0.806-0.813,0.598-1.351l-0.489-1.263
	c-0.208-0.539-0.813-0.806-1.351-0.598l0,0c-0.539,0.209-0.806,0.813-0.599,1.352l0.489,1.263
	C37.057,54.312,37.662,54.579,38.201,54.37L38.201,54.37z"/>
<path fill="#183356" d="M42.529,80.841h-6.847c-0.953,0-1.727-0.649-1.727-1.449l0,0c0-0.801,0.774-1.451,1.727-1.451h6.847"/>
<path fill="#F2EDEC" d="M43.549,27.856c0,0-5.86,0.703-5.86-5.157c0-5.861-0.059-14.594-0.059-14.594s0.117-3.869,6.036-3.751
	c5.919,0.117,6.037,3.692,6.037,3.692v14.653C49.703,22.699,50.172,28.091,43.549,27.856z"/>
<circle fill="#2B3D49" cx="46.175" cy="13.313" r="0.547"/>
<circle fill="#2B3D49" cx="42.472" cy="13.313" r="0.547"/>
<path fill="#2B3D49" d="M41.113,4.556c0,0,0.882,5.766,8.611,5.926C49.725,10.482,52.042,2.962,41.113,4.556z"/>
<path fill="#2B3D49" d="M46.329,4.622c0,0-0.88,5.751-8.63,5.913C37.699,10.534,35.397,2.8,46.329,4.622z"/>
<path fill="#2B3D49" d="M49.354,19.153c0.046-3.571-3.26-3.98-5.088-3.936c-1.657-0.09-5.597,0.102-5.488,3.998l4.625-0.069
	l0.001,0.007H49.354z"/>
<path fill="#183356" d="M48.505,81.554h-6.848c-0.952,0-1.725-0.649-1.725-1.449l0,0c0-0.801,0.773-1.45,1.725-1.45h6.848"/>
<rect x="46.4" y="76.426" fill="#183356" width="2.099" height="2.333"/>
<rect x="40.425" y="75.661" fill="#183356" width="2.097" height="2.333"/>
</svg>
