<?xml version="1.0" encoding="utf-8"?>
<!-- Generator: Adobe Illustrator 16.0.0, SVG Export Plug-In . SVG Version: 6.00 Build 0)  -->
<!DOCTYPE svg PUBLIC "-//W3C//DTD SVG 1.1//EN" "http://www.w3.org/Graphics/SVG/1.1/DTD/svg11.dtd">
<svg version="1.1" id="Calque_1" xmlns="http://www.w3.org/2000/svg" xmlns:xlink="http://www.w3.org/1999/xlink" x="0px" y="0px"
	 width="85.04px" height="85.04px" viewBox="0 0 85.04 85.04" enable-background="new 0 0 85.04 85.04" xml:space="preserve">
<g>
	<g id="Layer_3_49_">
		<path fill="#EB6A5B" d="M49.939,32.86h-2.935c-0.383,0-0.692-0.31-0.692-0.69c0-0.383,0.31-0.693,0.692-0.693h2.935
			c0.381,0,0.687,0.311,0.687,0.693C50.626,32.55,50.32,32.86,49.939,32.86z"/>
		<g>
			<path fill="#183356" d="M58.762,42.941c-9.46,0-17.153,6.829-17.153,16.29c0,4.532,1.8,8.675,5.065,11.666
				c3.173,2.9,7.465,4.5,12.088,4.5c4.625,0,8.917-1.6,12.09-4.5c3.268-2.993,5.065-7.134,5.065-11.666
				C75.917,49.77,68.221,42.941,58.762,42.941z M58.762,66.539c-4.027,0-7.31-3.278-7.31-7.309c0-4.029,3.282-7.308,7.31-7.308
				c4.03,0,7.31,3.278,7.31,7.308C66.071,63.261,62.792,66.539,58.762,66.539z"/>
			<path fill="#183356" d="M23.468,51.804c-6.698,0-12.145,5.451-12.145,12.147c0,3.209,1.273,6.144,3.588,8.26
				c2.244,2.055,5.286,3.186,8.556,3.186c3.273,0,6.311-1.131,8.559-3.186c2.312-2.116,3.587-5.051,3.587-8.26
				C35.614,57.255,30.166,51.804,23.468,51.804z M23.468,69.101c-2.838,0-5.148-2.308-5.148-5.149c0-2.838,2.31-5.15,5.148-5.15
				c2.841,0,5.15,2.312,5.15,5.15C28.618,66.793,26.309,69.101,23.468,69.101z"/>
			<path fill="#EB6A5B" d="M45.407,46.217c3.523-3.276,8.266-5.083,13.354-5.083c3.43,0,6.701,0.82,9.55,2.358
				c0.01,0.008,0.026,0.012,0.04,0.019c0.261,0.186,0.589,0.288,0.936,0.256c0.762-0.071,1.328-0.742,1.26-1.508
				c-0.012-0.146-1.302-14.582-1.543-17.414c-0.386-4.475-3.62-4.475-4.839-4.475H45.407c-1.673-0.004-4.779-0.002-5.734,4.744
				c-0.539,2.669-1.726,8.287-2.64,12.578c-4.817,0-9.334,0-12.821,0v-7.027c0-1.025-0.83-1.855-1.855-1.855
				c-1.023,0-1.856,0.83-1.856,1.855v7.027c-1.78,0-2.91,0-3.128,0c-5.373,0-7.038,11.546-4.077,16.721
				c2.548-2.714,6.167-4.415,10.176-4.415c7.016,0,12.838,5.21,13.807,11.963h2.726c-0.136-0.893-0.204-1.802-0.204-2.73
				C39.8,54.199,41.792,49.581,45.407,46.217z M66.233,25.084c0.154,1.777,0.714,8.094,1.116,12.61c-2.197,0-6.436,0-11.547,0
				V23.149h8.362C65.52,23.149,66.074,23.223,66.233,25.084z M42.396,25.663c0.508-2.515,1.455-2.514,3.011-2.514h8.17v14.543
				c-4.306,0-9.076,0-13.704,0C40.84,33.158,42.014,27.56,42.396,25.663z"/>
		</g>
	</g>
</g>
</svg>
