<?xml version="1.0" encoding="utf-8"?>
<!-- Generator: Adobe Illustrator 19.2.1, SVG Export Plug-In . SVG Version: 6.00 Build 0)  -->
<svg version="1.1" id="Calque_1" xmlns="http://www.w3.org/2000/svg" xmlns:xlink="http://www.w3.org/1999/xlink" x="0px" y="0px"
	 viewBox="0 0 100 60" style="enable-background:new 0 0 100 60;" xml:space="preserve">
<style type="text/css">
	.st0{fill:#D6D6D6;}
</style>
<path class="st0" d="M70.4,60c-0.4,0-0.7-0.1-1-0.4L52.4,42.7c0,0,0,0,0,0c0,0,0,0,0,0c0,0,0,0,0,0c0,0,0,0,0,0c0,0,0,0,0,0l0,0
	c0,0,0,0,0,0l0,0c-0.2-0.2-0.3-0.4-0.4-0.7v0c0,0,0,0,0,0c0,0,0,0,0,0v0c0,0,0,0,0,0c0,0,0,0,0,0c0,0,0,0,0,0c0,0,0,0,0,0l0,0
	c0,0,0,0,0,0c0,0,0,0,0,0v0c0,0,0,0,0,0c0,0,0,0,0,0c0,0,0,0,0,0c0,0,0,0,0,0c0,0,0,0,0,0c0,0,0,0,0,0l0,0c0,0,0,0,0,0c0,0,0,0,0,0
	c0,0,0,0,0,0c0,0,0,0,0,0c0-0.3,0-0.5,0.1-0.8c0.1-0.2,0.2-0.3,0.3-0.5l16.9-16.9c0.6-0.6,1.5-0.6,2,0c0.6,0.6,0.6,1.5,0,2
	L56.9,40.2h41.7c0.8,0,1.4,0.6,1.4,1.4c0,0.8-0.6,1.4-1.4,1.4H56.9l14.5,14.5c0.3,0.3,0.4,0.6,0.4,1c0,0.4-0.1,0.7-0.4,1
	C71.1,59.9,70.7,60,70.4,60z"/>
</svg>
