<?xml version="1.0" encoding="UTF-8" standalone="no"?>
<!-- Generator: Adobe Illustrator 16.0.0, SVG Export Plug-In . SVG Version: 6.00 Build 0)  -->

<svg
   xmlns:dc="http://purl.org/dc/elements/1.1/"
   xmlns:cc="http://creativecommons.org/ns#"
   xmlns:rdf="http://www.w3.org/1999/02/22-rdf-syntax-ns#"
   xmlns:svg="http://www.w3.org/2000/svg"
   xmlns="http://www.w3.org/2000/svg"
   version="1.1"
   id="Capa_1"
   x="0px"
   y="0px"
   width="96.699997"
   height="60"
   viewBox="0 0 96.699998 60"
   xml:space="preserve"><metadata
     id="metadata41"><rdf:RDF><cc:Work
         rdf:about=""><dc:format>image/svg+xml</dc:format><dc:type
           rdf:resource="http://purl.org/dc/dcmitype/StillImage" /><dc:title></dc:title></cc:Work></rdf:RDF></metadata><defs
     id="defs39" /><g
     id="g3"
     style="fill:#b3b3b3"
     transform="matrix(0.12088244,0,0,0.12088244,48.346537,20.82333)"><path
       d="m 382.688,182.686 -323.572,0 77.209,-77.214 c 6.764,-6.76 6.764,-17.726 0,-24.485 -6.764,-6.764 -17.73,-6.764 -24.484,0 L 5.073,187.757 c -6.764,6.76 -6.764,17.727 0,24.485 l 106.768,106.775 c 3.381,3.383 7.812,5.072 12.242,5.072 4.43,0 8.861,-1.689 12.242,-5.072 6.764,-6.76 6.764,-17.726 0,-24.484 l -77.209,-77.218 323.572,0 c 9.562,0 17.316,-7.753 17.316,-17.315 0,-9.562 -7.753,-17.314 -17.316,-17.314 z"
       id="path5"
       style="fill:#b3b3b3"
       inkscape:connector-curvature="0" /></g><g
     id="g7"
     transform="translate(-175.82527,-155.0015)" /><g
     id="g9"
     transform="translate(-175.82527,-155.0015)" /><g
     id="g11"
     transform="translate(-175.82527,-155.0015)" /><g
     id="g13"
     transform="translate(-175.82527,-155.0015)" /><g
     id="g15"
     transform="translate(-175.82527,-155.0015)" /><g
     id="g17"
     transform="translate(-175.82527,-155.0015)" /><g
     id="g19"
     transform="translate(-175.82527,-155.0015)" /><g
     id="g21"
     transform="translate(-175.82527,-155.0015)" /><g
     id="g23"
     transform="translate(-175.82527,-155.0015)" /><g
     id="g25"
     transform="translate(-175.82527,-155.0015)" /><g
     id="g27"
     transform="translate(-175.82527,-155.0015)" /><g
     id="g29"
     transform="translate(-175.82527,-155.0015)" /><g
     id="g31"
     transform="translate(-175.82527,-155.0015)" /><g
     id="g33"
     transform="translate(-175.82527,-155.0015)" /><g
     id="g35"
     transform="translate(-175.82527,-155.0015)" /></svg>