<?xml version="1.0" encoding="utf-8"?>
<!-- Generator: Adobe Illustrator 17.0.0, SVG Export Plug-In . SVG Version: 6.00 Build 0)  -->
<!DOCTYPE svg PUBLIC "-//W3C//DTD SVG 1.1//EN" "http://www.w3.org/Graphics/SVG/1.1/DTD/svg11.dtd">
<svg version="1.1" id="Calque_1" xmlns="http://www.w3.org/2000/svg" xmlns:xlink="http://www.w3.org/1999/xlink" x="0px" y="0px"
	 width="54.625px" height="55.125px" viewBox="23.75 22.875 54.625 55.125" enable-background="new 23.75 22.875 54.625 55.125"
	 xml:space="preserve">
<g id="XMLID_1_">
	<g>
		<path fill="#6BC0ED" d="M43.517,53.691c0.02-0.92,0.01-1.84,0.01-2.8c0.25,0.09,0.47,0.18,0.7,0.26c2.13,0.83,4.27,1.65,6.4,2.46
			c0.18,0.07,0.42,0.06,0.6,0c2.17-0.83,4.33-1.67,6.5-2.5c0.12-0.05,0.25-0.09,0.4-0.14c0,0.98,0,1.93-0.01,2.88
			c0,0.09-0.07,0.19-0.13,0.24c-1.73,1.31-3.66,2.15-5.82,2.39c-3.1,0.35-5.88-0.47-8.39-2.3
			C43.597,54.051,43.517,53.921,43.517,53.691z"/>
		<path fill="#6BC0ED" d="M40.517,52.481c0.38,0,0.69,0.3,0.69,0.68s-0.31,0.68-0.69,0.68c-0.37,0-0.68-0.3-0.68-0.68
			S40.147,52.481,40.517,52.481z"/>
		<path fill="#6BC0ED" d="M50.677,43.421c0.13-0.04,0.29-0.06,0.42-0.02c4.5,1.27,9,2.54,13.58,3.84c-0.17,0.07-0.27,0.12-0.38,0.16
			c-4.34,1.68-8.69,3.35-13.03,5.04c-0.23,0.08-0.43,0.09-0.67,0c-2.48-0.96-4.96-1.92-7.44-2.88c-0.08-0.03-0.17-0.07-0.26-0.11
			c0-0.02,0.01-0.04,0.02-0.07c2.69-0.56,5.39-1.11,8.12-1.68c0.85-0.2,0.6-1.21-0.22-1.06c-0.55,0.11-1.09,0.21-1.62,0.32
			c-2.72,0.57-5.44,1.13-8.17,1.69c-0.09,0.02-0.2,0.01-0.29-0.02c-1.13-0.43-2.27-0.87-3.41-1.31c-0.02-0.01-0.05-0.04-0.12-0.09
			c0.73-0.21,1.43-0.41,2.13-0.61C43.117,45.561,46.897,44.491,50.677,43.421z"/>
		<path fill="#6BC0ED" d="M46.387,56.851c2.19,0.82,4.43,1.04,6.73,0.61c2.2-0.42,4.15-1.37,5.89-2.76
			c0.17-0.13,0.24-0.26,0.24-0.48c-0.01-1.1,0-2.21-0.01-3.32c-0.01-0.27,0.07-0.41,0.33-0.51c2.08-0.78,4.15-1.59,6.23-2.39
			c0.34-0.13,0.48-0.18,1.29-0.49c0.33-0.13,0.35-0.71-0.44-0.87c-5.55-1.57-9.92-2.78-15.47-4.35c-0.16-0.04-0.36-0.04-0.52,0
			c-4.88,1.38-9.78,2.74-14.65,4.14c-0.61,0.18-0.48,0.15-0.54,0.16c-0.83,0.27-0.74,0.92-0.3,1.06c1.86,0.72,2.71,1.06,4.58,1.77
			c0.22,0.08,0.31,0.19,0.3,0.43c-0.02,0.59,0,1.19-0.02,1.78c0,0.12-0.09,0.29-0.2,0.36c-0.94,0.61-0.95,1.93,0,2.51
			c0.16,0.1,0.22,0.21,0.22,0.4c-0.01,1.07-0.01,2.15-0.01,3.22v0.36c0.01,0.89,1.1,0.85,1.11,0v-0.38c0-1.06,0-2.13,0.01-3.19
			c0-0.13,0.08-0.31,0.18-0.38c0.99-0.65,0.99-1.91,0-2.55c-0.08-0.05-0.17-0.16-0.18-0.24c-0.01-0.57,0-1.14,0-1.77
			c0.37,0.14,0.68,0.28,1,0.38c0.22,0.07,0.29,0.18,0.28,0.4c-0.01,1.15,0.01,2.29-0.01,3.43c0,0.26,0.08,0.41,0.28,0.56
			C43.837,55.621,45.047,56.351,46.387,56.851z M51.077,23.761c14.69,0,26.61,11.91,26.61,26.61s-11.92,26.61-26.61,26.61
			c-14.7,0-26.62-11.91-26.62-26.61S36.377,23.761,51.077,23.761z"/>
		<path fill="#8F421D" d="M40.517,53.841c0.38,0,0.69-0.3,0.69-0.68s-0.31-0.68-0.69-0.68c-0.37,0-0.68,0.3-0.68,0.68
			S40.147,53.841,40.517,53.841z M53.117,57.461c-2.3,0.43-4.54,0.21-6.73-0.61c-1.34-0.5-2.55-1.23-3.68-2.11
			c-0.2-0.15-0.28-0.3-0.28-0.56c0.02-1.14,0-2.28,0.01-3.43c0.01-0.22-0.06-0.33-0.28-0.4c-0.32-0.1-0.63-0.24-1-0.38
			c0,0.63-0.01,1.2,0,1.77c0.01,0.08,0.1,0.19,0.18,0.24c0.99,0.64,0.99,1.9,0,2.55c-0.1,0.07-0.18,0.25-0.18,0.38
			c-0.01,1.06-0.01,2.13-0.01,3.19v0.38c-0.01,0.85-1.1,0.89-1.11,0v-0.36c0-1.07,0-2.15,0.01-3.22c0-0.19-0.06-0.3-0.22-0.4
			c-0.95-0.58-0.94-1.9,0-2.51c0.11-0.07,0.2-0.24,0.2-0.36c0.02-0.59,0-1.19,0.02-1.78c0.01-0.24-0.08-0.35-0.3-0.43
			c-1.87-0.71-2.72-1.05-4.58-1.77c-0.44-0.14-0.53-0.79,0.3-1.06c0.06-0.01-0.07,0.02,0.54-0.16c4.87-1.4,9.77-2.76,14.65-4.14
			c0.16-0.04,0.36-0.04,0.52,0c5.55,1.57,9.92,2.78,15.47,4.35c0.79,0.16,0.77,0.74,0.44,0.87c-0.81,0.31-0.95,0.36-1.29,0.49
			c-2.08,0.8-4.15,1.61-6.23,2.39c-0.26,0.1-0.34,0.24-0.33,0.51c0.01,1.11,0,2.22,0.01,3.32c0,0.22-0.07,0.35-0.24,0.48
			C57.267,56.091,55.317,57.041,53.117,57.461z M50.817,46.641c0.82-0.15,1.07,0.86,0.22,1.06c-2.73,0.57-5.43,1.12-8.12,1.68
			c-0.01,0.03-0.02,0.05-0.02,0.07c0.09,0.04,0.18,0.08,0.26,0.11c2.48,0.96,4.96,1.92,7.44,2.88c0.24,0.09,0.44,0.08,0.67,0
			c4.34-1.69,8.69-3.36,13.03-5.04c0.11-0.04,0.21-0.09,0.38-0.16c-4.58-1.3-9.08-2.57-13.58-3.84c-0.13-0.04-0.29-0.02-0.42,0.02
			c-3.78,1.07-7.56,2.14-11.34,3.2c-0.7,0.2-1.4,0.4-2.13,0.61c0.07,0.05,0.1,0.08,0.12,0.09c1.14,0.44,2.28,0.88,3.41,1.31
			c0.09,0.03,0.2,0.04,0.29,0.02c2.73-0.56,5.45-1.12,8.17-1.69C49.727,46.851,50.267,46.751,50.817,46.641z M43.777,54.181
			c2.51,1.83,5.29,2.65,8.39,2.3c2.16-0.24,4.09-1.08,5.82-2.39c0.06-0.05,0.13-0.15,0.13-0.24c0.01-0.95,0.01-1.9,0.01-2.88
			c-0.15,0.05-0.28,0.09-0.4,0.14c-2.17,0.83-4.33,1.67-6.5,2.5c-0.18,0.06-0.42,0.07-0.6,0c-2.13-0.81-4.27-1.63-6.4-2.46
			c-0.23-0.08-0.45-0.17-0.7-0.26c0,0.96,0.01,1.88-0.01,2.8C43.517,53.921,43.597,54.051,43.777,54.181z"/>
	</g>
	<g>
		<path fill="none" stroke="#8F421D" stroke-width="1.13" stroke-miterlimit="10" d="M77.687,50.371c0,14.7-11.92,26.61-26.61,26.61
			c-14.7,0-26.62-11.91-26.62-26.61s11.92-26.61,26.62-26.61C65.767,23.761,77.687,35.671,77.687,50.371z"/>
	</g>
</g>
</svg>
