<?xml version="1.0" encoding="utf-8"?>
<!-- Generator: Adobe Illustrator 17.0.0, SVG Export Plug-In . SVG Version: 6.00 Build 0)  -->
<!DOCTYPE svg PUBLIC "-//W3C//DTD SVG 1.1//EN" "http://www.w3.org/Graphics/SVG/1.1/DTD/svg11.dtd">
<svg version="1.1" id="Calque_1" xmlns="http://www.w3.org/2000/svg" xmlns:xlink="http://www.w3.org/1999/xlink" x="0px" y="0px"
	 width="53.76px" height="54px" viewBox="28.896 9.75 53.76 54" enable-background="new 28.896 9.75 53.76 54" xml:space="preserve"
	>
<g id="XMLID_1_">
	<g>
		<path fill="#56C3F1" d="M60.707,46.102c0,0.154,0.029,0.308,0.048,0.471h-1.546v-4.518h1.499v0.317
			C60.707,43.622,60.696,44.852,60.707,46.102z"/>
		<path fill="#6BC0ED" d="M66.232,33.374c0-0.096,0.01-0.202,0-0.298c-0.019-0.163-0.095-0.317-0.21-0.442l0.239-0.211
			c0.019,0.019,0.038,0.048,0.057,0.067c0.897,1.009,1.804,2.028,2.72,3.028c0.286,0.317,0.611,0.375,0.945,0.202
			c0.305-0.173,0.477-0.5,0.382-0.836c-0.057-0.173-0.172-0.346-0.296-0.49c-2.682-2.99-5.364-5.979-8.056-8.969
			c-0.544-0.615-1.04-0.615-1.623-0.019c-1.804,1.865-3.608,3.72-5.422,5.576c-0.067,0.077-0.153,0.154-0.277,0.269
			c0-0.173,0-0.298,0-0.413c-0.01-0.663,0-1.327-0.029-1.99c-0.019-0.375-0.162-0.471-0.525-0.481c-1.069,0-2.129,0-3.188,0
			c-0.554,0.01-0.811,0.279-0.811,0.827c0,1.432,0,2.865,0,4.297c0,0.106-0.01,0.202-0.01,0.346
			c-0.076-0.048-0.124-0.077-0.162-0.106c-0.678-0.49-0.792-0.49-1.489-0.01c-2.768,1.913-5.527,3.816-8.285,5.739
			c-0.22,0.154-0.449,0.413-0.64,0.615c-0.057,0.144,0.038,0.202,0.067,0.336c0.277,0.654,0.792,0.702,1.479,0.221
			c0.181-0.087,0.477-0.298,0.63-0.404c0.554-0.375,1.098-0.75,1.651-1.134l0.506,0.75c-0.172,0.163-0.277,0.423-0.277,0.759
			c0,2.182-0.01,4.374,0,6.566c0,0.558,0.124,0.942,0.926,0.942c6.968-0.019,13.936-0.01,20.903-0.01
			c0.678,0,0.792-0.115,0.792-0.808c0-0.058,0-0.106,0-0.154C66.232,42.555,66.232,37.96,66.232,33.374z M55.905,10.408
			c14.48,0,26.22,11.824,26.22,26.408s-11.74,26.407-26.22,26.407s-26.22-11.824-26.22-26.407S41.425,10.408,55.905,10.408z"/>
		<path fill="#6BC0ED" d="M53.157,32.076c0.01,0.25,0.067,0.5,0.115,0.817c-0.515,0.606-1.088,1.279-1.661,1.951
			c0.143-1.596,0.01-3.259,0.076-4.941h1.47c0,0.308,0,0.606,0,0.904C53.157,31.231,53.138,31.653,53.157,32.076z"/>
		<path fill="#8F421D" d="M60.754,46.573c-0.019-0.163-0.048-0.317-0.048-0.471c-0.01-1.25,0-2.48,0-3.73v-0.317h-1.499v4.518
			H60.754z M66.232,33.374c0,4.586,0,9.181,0,13.766c0,0.048,0,0.096,0,0.154c0,0.692-0.115,0.808-0.792,0.808
			c-6.968,0-13.936-0.01-20.903,0.01c-0.802,0-0.926-0.385-0.926-0.942c-0.01-2.192,0-4.384,0-6.566
			c0-0.336,0.105-0.596,0.277-0.759c0.105-0.096,0.239-0.154,0.391-0.163c0.477-0.058,0.859,0.288,0.859,0.808
			c0.01,0.769,0,1.538,0,2.298c0.01,1.25,0,2.499,0,3.778h12.542c0-1.682-0.01-3.355,0-5.028c0.01-0.606,0.305-1.077,1.079-1.038
			c0.859,0.038,1.718,0.01,2.577,0.01c0.592,0,0.85,0.24,0.869,0.856c0.019,0.461,0.01,0.932,0.01,1.394c0,1.125,0,2.259,0,3.384
			c0,0.423,0.029,0.442,0.439,0.442c0.678,0,1.346,0,2.062,0v-0.394c0-4.259,0-8.508,0-12.766c0-0.221,0.038-0.471,0.134-0.663
			c0.134-0.298,0.468-0.433,0.754-0.375c0.162,0.038,0.305,0.135,0.42,0.25c0.115,0.125,0.191,0.279,0.21,0.442
			C66.243,33.172,66.232,33.278,66.232,33.374z"/>
		<path fill="#6BC0ED" d="M64.715,46.189v0.394c-0.716,0-1.384,0-2.062,0c-0.41,0-0.439-0.019-0.439-0.442c0-1.125,0-2.259,0-3.384
			c0-0.461,0.01-0.932-0.01-1.394c-0.019-0.615-0.277-0.856-0.869-0.856c-0.859,0-1.718,0.029-2.577-0.01
			c-0.773-0.038-1.069,0.433-1.079,1.038c-0.01,1.673,0,3.345,0,5.028H45.139c0-1.279,0.01-2.528,0-3.778
			c0-0.759,0.01-1.528,0-2.298c0-0.519-0.382-0.865-0.859-0.808c-0.153,0.01-0.286,0.067-0.391,0.163l-0.506-0.75
			c1.861-1.269,3.723-2.557,5.584-3.845c0.086-0.058,0.181-0.115,0.267-0.173c0.057,0.048,0.095,0.077,0.143,0.106
			c1.642,1.202,3.283,2.394,4.925,3.605c0.22,0.154,0.439,0.269,0.725,0.202c0.286-0.077,0.506-0.25,0.573-0.558
			c0.057-0.327-0.029-0.615-0.315-0.827c-0.754-0.548-1.508-1.096-2.253-1.644c-0.095-0.077-0.181-0.144-0.248-0.192
			c2.835-2.99,5.641-5.941,8.476-8.911c0.095,0.106,0.172,0.192,0.239,0.269c1.584,1.769,3.169,3.528,4.763,5.297l-0.239,0.211
			c-0.115-0.115-0.258-0.211-0.42-0.25c-0.286-0.058-0.62,0.077-0.754,0.375c-0.095,0.192-0.134,0.442-0.134,0.663
			C64.715,37.681,64.715,41.93,64.715,46.189z"/>
		<path fill="#8F421D" d="M53.271,32.894c-0.048-0.317-0.105-0.567-0.115-0.817c-0.019-0.423,0-0.846,0-1.269
			c0-0.298,0-0.596,0-0.904h-1.47c-0.067,1.682,0.067,3.345-0.076,4.941C52.182,34.172,52.756,33.499,53.271,32.894z M70.366,34.884
			c0.095,0.336-0.076,0.663-0.382,0.836c-0.334,0.173-0.659,0.115-0.945-0.202c-0.916-1-1.823-2.019-2.72-3.028
			c-0.019-0.019-0.038-0.048-0.057-0.067c-1.594-1.769-3.178-3.528-4.763-5.297c-0.067-0.077-0.143-0.163-0.239-0.269
			c-2.835,2.97-5.641,5.922-8.476,8.911c0.067,0.048,0.153,0.115,0.248,0.192c0.745,0.548,1.499,1.096,2.253,1.644
			c0.286,0.211,0.372,0.5,0.315,0.827c-0.067,0.308-0.286,0.481-0.573,0.558c-0.286,0.067-0.506-0.048-0.725-0.202
			c-1.642-1.211-3.283-2.403-4.925-3.605c-0.048-0.029-0.086-0.058-0.143-0.106c-0.086,0.058-0.181,0.115-0.267,0.173
			c-1.861,1.288-3.723,2.576-5.584,3.845c-0.554,0.385-1.098,0.759-1.651,1.134c-0.153,0.106-0.449,0.317-0.63,0.404
			c-0.687,0.481-1.203,0.433-1.479-0.221c-0.029-0.135-0.124-0.192-0.067-0.336c0.191-0.202,0.42-0.461,0.64-0.615
			c2.758-1.923,5.517-3.826,8.285-5.739c0.697-0.481,0.811-0.481,1.489,0.01c0.038,0.029,0.086,0.058,0.162,0.106
			c0-0.144,0.01-0.24,0.01-0.346c0-1.432,0-2.865,0-4.297c0-0.548,0.258-0.817,0.811-0.827c1.059,0,2.119,0,3.188,0
			c0.363,0.01,0.506,0.106,0.525,0.481c0.029,0.663,0.019,1.327,0.029,1.99c0,0.115,0,0.24,0,0.413
			c0.124-0.115,0.21-0.192,0.277-0.269c1.814-1.855,3.618-3.711,5.422-5.576c0.582-0.596,1.079-0.596,1.623,0.019
			c2.692,2.99,5.374,5.979,8.056,8.969C70.193,34.537,70.309,34.71,70.366,34.884z"/>
	</g>
	<g>
		
			<ellipse fill="none" stroke="#8F421D" stroke-width="1.13" stroke-miterlimit="10" cx="55.906" cy="36.816" rx="26.22" ry="26.407"/>
		<path fill="none" stroke="#56C3F1" stroke-width="0.5" stroke-miterlimit="10" d="M43.382,39.094
			c-0.554,0.385-1.098,0.759-1.651,1.134c-0.153,0.106-0.449,0.317-0.63,0.404c-0.687,0.481-1.203,0.433-1.479-0.221
			c-0.029-0.135-0.124-0.192-0.067-0.336c0.191-0.202,0.42-0.461,0.64-0.615c2.758-1.923,5.517-3.826,8.285-5.739
			c0.697-0.481,0.811-0.481,1.489,0.01c0.038,0.029,0.086,0.058,0.162,0.106c0-0.144,0.01-0.24,0.01-0.346c0-1.432,0-2.865,0-4.297
			c0-0.548,0.258-0.817,0.811-0.827c1.059,0,2.119,0,3.188,0c0.363,0.01,0.506,0.106,0.525,0.481
			c0.029,0.663,0.019,1.327,0.029,1.99c0,0.115,0,0.24,0,0.413c0.124-0.115,0.21-0.192,0.277-0.269
			c1.814-1.855,3.618-3.711,5.422-5.576c0.582-0.596,1.079-0.596,1.623,0.019c2.692,2.99,5.374,5.979,8.056,8.969
			c0.124,0.144,0.239,0.317,0.296,0.49c0.095,0.336-0.076,0.663-0.382,0.836c-0.334,0.173-0.659,0.115-0.945-0.202
			c-0.916-1-1.823-2.019-2.72-3.028c-0.019-0.019-0.038-0.048-0.057-0.067c-1.594-1.769-3.178-3.528-4.763-5.297
			c-0.067-0.077-0.143-0.163-0.239-0.269c-2.835,2.97-5.641,5.922-8.476,8.911c0.067,0.048,0.153,0.115,0.248,0.192
			c0.745,0.548,1.499,1.096,2.253,1.644c0.286,0.211,0.372,0.5,0.315,0.827c-0.067,0.308-0.286,0.481-0.573,0.558
			c-0.286,0.067-0.506-0.048-0.725-0.202c-1.642-1.211-3.283-2.403-4.925-3.605c-0.048-0.029-0.086-0.058-0.143-0.106
			c-0.086,0.058-0.181,0.115-0.267,0.173C47.104,36.537,45.243,37.825,43.382,39.094z"/>
		<path fill="none" stroke="#56C3F1" stroke-width="0.5" stroke-miterlimit="10" d="M51.61,34.845
			c0.573-0.673,1.145-1.346,1.661-1.951c-0.048-0.317-0.105-0.567-0.115-0.817c-0.019-0.423,0-0.846,0-1.269
			c0-0.298,0-0.596,0-0.904h-1.47C51.619,31.586,51.754,33.249,51.61,34.845z"/>
		<path fill="none" stroke="#56C3F1" stroke-width="0.5" stroke-miterlimit="10" d="M43.889,39.844
			c0.105-0.096,0.239-0.154,0.391-0.163c0.477-0.058,0.859,0.288,0.859,0.808c0.01,0.769,0,1.538,0,2.298c0.01,1.25,0,2.499,0,3.778
			h12.542c0-1.682-0.01-3.355,0-5.028c0.01-0.606,0.305-1.077,1.079-1.038c0.859,0.038,1.718,0.01,2.577,0.01
			c0.592,0,0.85,0.24,0.869,0.856c0.019,0.461,0.01,0.932,0.01,1.394c0,1.125,0,2.259,0,3.384c0,0.423,0.029,0.442,0.439,0.442
			c0.678,0,1.346,0,2.062,0v-0.394c0-4.259,0-8.508,0-12.766c0-0.221,0.038-0.471,0.134-0.663c0.134-0.298,0.468-0.433,0.754-0.375
			c0.162,0.038,0.305,0.135,0.42,0.25c0.115,0.125,0.191,0.279,0.21,0.442c0.01,0.096,0,0.202,0,0.298c0,4.586,0,9.181,0,13.766
			c0,0.048,0,0.096,0,0.154c0,0.692-0.115,0.808-0.792,0.808c-6.968,0-13.936-0.01-20.903,0.01c-0.802,0-0.926-0.385-0.926-0.942
			c-0.01-2.192,0-4.384,0-6.566C43.611,40.267,43.716,40.007,43.889,39.844z"/>
		<path fill="none" stroke="#56C3F1" stroke-width="0.5" stroke-miterlimit="10" d="M60.754,46.573
			c-0.019-0.163-0.048-0.317-0.048-0.471c-0.01-1.25,0-2.48,0-3.73v-0.317h-1.499v4.518H60.754z"/>
	</g>
</g>
</svg>
