<?xml version="1.0" encoding="utf-8"?>
<!-- Generator: Adobe Illustrator 17.0.0, SVG Export Plug-In . SVG Version: 6.00 Build 0)  -->
<!DOCTYPE svg PUBLIC "-//W3C//DTD SVG 1.1//EN" "http://www.w3.org/Graphics/SVG/1.1/DTD/svg11.dtd">
<svg version="1.1" id="Calque_1" xmlns="http://www.w3.org/2000/svg" xmlns:xlink="http://www.w3.org/1999/xlink" x="0px" y="0px"
	 width="100px" height="100px" viewBox="0 0 100 100" enable-background="new 0 0 100 100" xml:space="preserve">
<g>
	<circle fill="none" stroke="#8F421D" stroke-miterlimit="10" cx="52.39" cy="49.565" r="34.874"/>
	<path fill="#8F421D" d="M30.644,53.869c0.254-0.262,0.554-0.611,0.845-0.812c3.668-2.533,7.345-5.051,11.02-7.57
		c0.93-0.637,1.081-0.635,1.983,0.01c0.051,0.037,0.108,0.067,0.211,0.131c0.011-0.18,0.023-0.318,0.023-0.455
		c0-1.893,0-3.785,0-5.674c0-0.726,0.337-1.079,1.074-1.084c1.413-0.011,2.822-0.008,4.236-0.002
		c0.492,0.004,0.672,0.139,0.696,0.627c0.045,0.877,0.03,1.758,0.042,2.635c0,0.154,0,0.309,0,0.547
		c0.171-0.161,0.277-0.253,0.374-0.354c2.404-2.453,4.807-4.908,7.212-7.365c0.774-0.793,1.425-0.793,2.158,0.02
		c3.577,3.947,7.148,7.897,10.717,11.853c0.163,0.182,0.314,0.407,0.383,0.639c0.132,0.443-0.096,0.881-0.506,1.104
		c-0.437,0.234-0.874,0.156-1.256-0.262c-1.212-1.328-2.417-2.664-3.622-3.996c-2.135-2.361-4.269-4.723-6.404-7.082
		c-0.096-0.109-0.192-0.217-0.322-0.362c-3.763,3.927-7.502,7.825-11.274,11.765c0.092,0.071,0.206,0.162,0.327,0.252
		c1,0.729,1.997,1.459,3.002,2.184c0.382,0.275,0.494,0.66,0.415,1.09c-0.079,0.404-0.371,0.635-0.763,0.732
		c-0.369,0.094-0.668-0.06-0.96-0.271c-2.184-1.59-4.369-3.175-6.556-4.76c-0.053-0.04-0.111-0.076-0.187-0.131
		c-0.117,0.073-0.237,0.148-0.354,0.229c-3.207,2.194-6.408,4.395-9.619,6.578c-0.202,0.137-0.601,0.406-0.843,0.52
		c-0.915,0.645-1.604,0.574-1.966-0.287C30.69,54.145,30.56,54.063,30.644,53.869 M46.674,46.965
		c0.761-0.887,1.527-1.776,2.214-2.576c-0.062-0.419-0.138-0.748-0.152-1.076c-0.025-0.56-0.007-1.117-0.007-1.677
		c0-0.393,0-0.788,0-1.194h-1.949C46.689,42.66,46.869,44.861,46.674,46.965"/>
	<path fill="none" stroke="#9ED8F7" stroke-width="0.5" stroke-miterlimit="10" d="M30.644,53.869
		c0.254-0.262,0.554-0.611,0.845-0.812c3.668-2.533,7.345-5.051,11.02-7.57c0.93-0.637,1.081-0.635,1.983,0.01
		c0.051,0.037,0.108,0.067,0.211,0.131c0.011-0.18,0.023-0.318,0.023-0.455c0-1.893,0-3.785,0-5.674
		c0-0.726,0.337-1.079,1.074-1.084c1.413-0.011,2.822-0.008,4.236-0.002c0.492,0.004,0.672,0.139,0.696,0.627
		c0.045,0.877,0.03,1.758,0.042,2.635c0,0.154,0,0.309,0,0.547c0.171-0.161,0.277-0.253,0.374-0.354
		c2.404-2.453,4.807-4.908,7.212-7.365c0.774-0.793,1.425-0.793,2.158,0.02c3.577,3.947,7.148,7.897,10.717,11.853
		c0.163,0.182,0.314,0.407,0.383,0.639c0.132,0.443-0.096,0.881-0.506,1.104c-0.437,0.234-0.874,0.156-1.256-0.262
		c-1.212-1.328-2.417-2.664-3.622-3.996c-2.135-2.361-4.269-4.723-6.404-7.082c-0.096-0.109-0.192-0.217-0.322-0.362
		c-3.763,3.927-7.502,7.825-11.274,11.765c0.092,0.071,0.206,0.162,0.327,0.252c1,0.729,1.997,1.459,3.002,2.184
		c0.382,0.275,0.494,0.66,0.415,1.09c-0.079,0.404-0.371,0.635-0.763,0.732c-0.369,0.094-0.668-0.06-0.96-0.271
		c-2.184-1.59-4.369-3.175-6.556-4.76c-0.053-0.04-0.111-0.076-0.187-0.131c-0.117,0.073-0.237,0.148-0.354,0.229
		c-3.207,2.194-6.408,4.395-9.619,6.578c-0.202,0.137-0.601,0.406-0.843,0.52c-0.915,0.645-1.604,0.574-1.966-0.287
		C30.69,54.145,30.56,54.063,30.644,53.869z M46.674,46.965c0.761-0.887,1.527-1.776,2.214-2.576
		c-0.062-0.419-0.138-0.748-0.152-1.076c-0.025-0.56-0.007-1.117-0.007-1.677c0-0.393,0-0.788,0-1.194h-1.949
		C46.689,42.66,46.869,44.861,46.674,46.965z"/>
	<path fill="#8F421D" d="M38.074,62.445h16.673c0-2.229-0.011-4.438,0.009-6.648c0.007-0.793,0.402-1.418,1.424-1.37
		c1.142,0.054,2.289,0.013,3.436,0.014c0.788,0,1.129,0.319,1.158,1.133c0.021,0.614,0.008,1.226,0.008,1.838
		c0.001,1.493,0,2.983,0.001,4.476c0,0.551,0.033,0.58,0.588,0.58c0.892,0,1.782,0,2.735,0v-0.523c0-5.62-0.003-11.238,0.006-16.859
		c0-0.295,0.051-0.616,0.174-0.879c0.18-0.389,0.627-0.564,1.003-0.484c0.434,0.092,0.79,0.473,0.837,0.903
		c0.017,0.132,0.007,0.267,0.007,0.401c0,6.059,0,12.117,0,18.176c0,0.066,0,0.133,0,0.201c-0.007,0.915-0.162,1.068-1.063,1.068
		c-9.269,0.002-18.536-0.009-27.804,0.012c-1.067,0.004-1.227-0.503-1.227-1.246c-0.007-2.892-0.004-5.781-0.002-8.67
		c0-0.709,0.338-1.158,0.89-1.221c0.638-0.072,1.143,0.391,1.146,1.076c0.011,1.012,0.003,2.025,0.003,3.036
		C38.077,59.108,38.074,60.758,38.074,62.445 M58.844,62.455c-0.027-0.221-0.073-0.426-0.073-0.629
		c-0.004-1.639-0.001-3.275-0.001-4.914v-0.42h-1.986v5.963H58.844z"/>
	<path fill="none" stroke="#9ED8F7" stroke-width="0.5" stroke-miterlimit="10" d="M38.074,62.445h16.673
		c0-2.229-0.011-4.438,0.009-6.648c0.007-0.793,0.402-1.418,1.424-1.37c1.142,0.054,2.289,0.013,3.436,0.014
		c0.788,0,1.129,0.319,1.158,1.133c0.021,0.614,0.008,1.226,0.008,1.838c0.001,1.493,0,2.983,0.001,4.476
		c0,0.551,0.033,0.58,0.588,0.58c0.892,0,1.782,0,2.735,0v-0.523c0-5.62-0.003-11.238,0.006-16.859c0-0.295,0.051-0.616,0.174-0.879
		c0.18-0.389,0.627-0.564,1.003-0.484c0.434,0.092,0.79,0.473,0.837,0.903c0.017,0.132,0.007,0.267,0.007,0.401
		c0,6.059,0,12.117,0,18.176c0,0.066,0,0.133,0,0.201c-0.007,0.915-0.162,1.068-1.063,1.068c-9.269,0.002-18.536-0.009-27.804,0.012
		c-1.067,0.004-1.227-0.503-1.227-1.246c-0.007-2.892-0.004-5.781-0.002-8.67c0-0.709,0.338-1.158,0.89-1.221
		c0.638-0.072,1.143,0.391,1.146,1.076c0.011,1.012,0.003,2.025,0.003,3.036C38.077,59.108,38.074,60.758,38.074,62.445z
		 M58.844,62.455c-0.027-0.221-0.073-0.426-0.073-0.629c-0.004-1.639-0.001-3.275-0.001-4.914v-0.42h-1.986v5.963H58.844z"/>
</g>
</svg>
