<?xml version="1.0" encoding="utf-8"?>
<!-- Generator: Adobe Illustrator 16.0.0, SVG Export Plug-In . SVG Version: 6.00 Build 0)  -->
<!DOCTYPE svg PUBLIC "-//W3C//DTD SVG 1.1//EN" "http://www.w3.org/Graphics/SVG/1.1/DTD/svg11.dtd">
<svg version="1.1" id="POINTS_RADIOS" xmlns="http://www.w3.org/2000/svg" xmlns:xlink="http://www.w3.org/1999/xlink" x="0px"
	 y="0px" width="419.037px" height="407.543px" viewBox="0 0 419.037 407.543" enable-background="new 0 0 419.037 407.543"
	 xml:space="preserve">
<circle fill="#FFFFFF" cx="134.716" cy="330.95" r="3.492"/>
<circle fill="#FFFFFF" cx="142.93" cy="322.737" r="3.492"/>
<circle fill="#FFFFFF" cx="26.323" cy="330.95" r="3.492"/>
<circle fill="#FFFFFF" cx="67.387" cy="297.277" r="3.492"/>
<circle fill="#FFFFFF" cx="41.635" cy="222.281" r="3.492"/>
<circle fill="#FFFFFF" cx="58.95" cy="248.742" r="3.492"/>
<circle fill="#FFFFFF" cx="150.455" cy="151.125" r="3.492"/>
<circle fill="#FFFFFF" cx="58.95" cy="260.654" r="3.492"/>
<circle fill="#FFFFFF" cx="101.524" cy="223.309" r="3.492"/>
<circle fill="#FFFFFF" cx="109.123" cy="229.881" r="3.492"/>
<circle fill="#FFFFFF" cx="86.481" cy="255.727" r="3.492"/>
<circle fill="#FFFFFF" cx="120.008" cy="230.087" r="3.492"/>
<circle fill="#FFFFFF" cx="115.487" cy="219.817" r="3.492"/>
<circle fill="#FFFFFF" cx="99.538" cy="237.479" r="3.493"/>
<circle fill="#FFFFFF" cx="110.766" cy="240.15" r="3.492"/>
<circle fill="#FFFFFF" cx="238.695" cy="197.208" r="3.492"/>
<circle fill="#FFFFFF" cx="248.007" cy="200.7" r="3.492"/>
<circle fill="#FFFFFF" cx="240.615" cy="208.913" r="3.492"/>
<circle fill="#FFFFFF" cx="327.673" cy="199.878" r="3.492"/>
<circle fill="#FFFFFF" cx="232.514" cy="138.131" r="3.492"/>
<circle fill="#FFFFFF" cx="248.007" cy="47.732" r="3.492"/>
<circle fill="#FFFFFF" cx="337.444" cy="103.58" r="3.492"/>
</svg>
