<?xml version="1.0" encoding="utf-8"?>
<!-- Generator: Adobe Illustrator 16.0.0, SVG Export Plug-In . SVG Version: 6.00 Build 0)  -->
<!DOCTYPE svg PUBLIC "-//W3C//DTD SVG 1.1//EN" "http://www.w3.org/Graphics/SVG/1.1/DTD/svg11.dtd">
<svg version="1.1" id="M__A__P_-_copie" xmlns="http://www.w3.org/2000/svg" xmlns:xlink="http://www.w3.org/1999/xlink" x="0px"
	 y="0px" width="673.42px" height="653.078px" viewBox="0 0 673.42 653.078" enable-background="new 0 0 673.42 653.078"
	 xml:space="preserve">
<g>
	<path fill="#179FAE" d="M56.422,472.979c-5.818-3.054-12.209-6.581-14.77-8.222c0.502-0.591,1.212-1.339,1.91-1.996
		c0.411-0.385,0.645-0.925,0.645-1.489v-4.077c0-0.76-0.423-1.459-1.097-1.812l-4.849-2.539c-0.334-0.173-0.71-0.253-1.085-0.228
		l-6.792,0.454c-1.073,0.072-1.908,0.963-1.908,2.04v6.85c0,0.528,0.205,1.035,0.571,1.417l7.114,7.403
		c0.253,0.263,0.571,0.453,0.922,0.551l11.56,3.239l5.161,7.277c0.391,0.551,1.018,0.862,1.668,0.862
		c0.207,0,0.416-0.031,0.621-0.097c0.848-0.27,1.423-1.058,1.423-1.948v-5.877C57.516,474.029,57.095,473.333,56.422,472.979z"/>
	<path fill="#179FAE" d="M25.252,543.448c-0.263-0.356-0.636-0.617-1.061-0.743l-9.172-2.729c-0.504-0.152-1.045-0.101-1.514,0.139
		l-1.836,0.938c-0.609,0.311-1.022,0.906-1.101,1.585c-0.078,0.68,0.188,1.353,0.71,1.795l7.524,6.372
		c0.369,0.312,0.837,0.484,1.321,0.484h6.874c0.772,0,1.479-0.434,1.826-1.124c0.348-0.689,0.277-1.517-0.182-2.136L25.252,543.448z
		"/>
	<path fill="#179FAE" d="M382.619,639.765c-0.135-0.654-0.58-1.2-1.194-1.464l-6.481-2.789c-0.716-0.309-1.546-0.181-2.138,0.326
		l-4.544,3.895c-0.171,0.148-0.443,0.194-0.635,0.137c-0.223-0.066-0.396-0.24-0.462-0.463l-2.47-8.403
		c-0.053-0.181-0.026-0.379,0.072-0.542l3.915-6.5c0.203-0.338,0.305-0.728,0.292-1.122l-2.216-67.234
		c-0.011-0.352-0.113-0.693-0.295-0.994l-19.066-31.394c-0.002-0.179,0.066-0.355,0.195-0.485l4.196-4.285
		c0.476-0.486,0.68-1.178,0.542-1.845c-0.138-0.667-0.598-1.221-1.229-1.479l-13.126-5.361c-0.036-0.015-0.07-0.033-0.103-0.053
		l-8.596-24.48c-0.113-0.322-0.304-0.609-0.558-0.838l-15.799-14.297c-0.17-0.153-0.251-0.38-0.217-0.605
		c0.031-0.206,0.163-0.384,0.362-0.491c0.07-0.037,0.117-0.1,0.181-0.144l-2.622-7.474c-0.037-0.099-0.117-0.173-0.217-0.205
		l-19.485-6.082c-0.146-0.045-0.303,0.01-0.387,0.14l-2.138,3.27l-24.387-6.312l-1.603-0.415l-0.757-0.245l-1.087-0.595
		l-23.19-12.676c-0.106-0.058-0.234-0.056-0.336,0.005l-21.339,12.504c-0.121,0.07-0.186,0.208-0.165,0.346l2.671,17.546
		l-13.808,1.562l-5.279-5.265l-5.653-18.093c-0.033-0.104-0.113-0.186-0.216-0.221c-0.104-0.037-0.217-0.019-0.306,0.044
		l-12.428,8.789c-0.096,0.067-0.149,0.179-0.143,0.295l1.069,20.759l0.491,6.7c0.004,0.061,0.025,0.119,0.059,0.169l7.578,11.013
		l-9.031,6.382l-36.354-6.823l-3.393-11.896c-0.037-0.129-0.146-0.225-0.279-0.244l-13.984-2.031l-2.65-5.805
		c-0.023-0.05-0.058-0.094-0.101-0.127l-26.976-20.951c-0.041-0.031-0.087-0.053-0.137-0.064l-5.555-0.858
		c-0.001,0.033,0.009,0.063,0.009,0.097l-0.057-0.015c-0.062,0.178-0.178,0.316-0.323,0.39l-6.959,3.503
		c-0.509,0.256-0.888,0.712-1.045,1.258l-5.367,18.572c-0.034,0.12-0.101,0.228-0.193,0.312L59.49,492.287
		c-0.502,0.459-0.743,1.137-0.643,1.81l2.929,19.71c0.072,0.484,0.315,0.927,0.686,1.247l29.042,25.101l26.804,34.05
		c0.066,0.084,0.112,0.184,0.133,0.289l6.547,32.802c0.191,0.956,1.031,1.644,2.005,1.644h6.904c0.15,0,0.299,0.051,0.478,0.188
		l62.691,45.26c0.365,0.264,0.803,0.401,1.256,0.386l23.352-0.684c0.218,0,0.432,0.111,0.557,0.289l9.415,13.354
		c0.198,0.281,0.463,0.508,0.772,0.659l15.866,7.759c0.284,0.139,0.592,0.208,0.898,0.208c0.377,0,0.753-0.104,1.082-0.31
		c0.599-0.374,0.962-1.029,0.962-1.734v-12.098c0-0.376,0.306-0.682,0.682-0.682h21.746c0.606,0,1.181-0.269,1.569-0.734
		l6.486-7.771c0.002-0.003,0.006-0.006,0.01-0.01l22.902,7.036c0.16,0.05,0.324,0.079,0.491,0.088l14.888,0.795
		c0.433,0.025,0.87-0.094,1.235-0.335l10.206-6.733c0.173-0.114,0.376-0.148,0.589-0.08c0.198,0.064,0.354,0.215,0.425,0.41
		l1.76,4.748c0.206,0.556,0.644,0.995,1.198,1.203l11.261,4.228c0.381,0.143,0.795,0.171,1.192,0.075l15.703-3.741
		c0.388-0.092,0.74-0.295,1.013-0.585l17.518-18.547C382.562,641.097,382.754,640.419,382.619,639.765z"/>
</g>
<path fill="#179FAE" d="M299.424,316.114c-0.043-0.143-0.176-0.24-0.325-0.24h-8.18l-7.009-4.488
	c-0.055-0.035-0.119-0.054-0.184-0.054h-19.308l-5.799-6.718v-11.808l23.294,1.802c0.097,0.01,0.203-0.031,0.274-0.106l8.202-8.704
	c0.077-0.082,0.108-0.197,0.084-0.307c-0.024-0.109-0.101-0.201-0.205-0.243l-18.751-7.628c-0.041-0.017-0.085-0.025-0.128-0.025
	h-8.315l-7.793-13.537l3.145-8.477c0.059-0.159-0.008-0.338-0.158-0.419l-14.539-7.834l-0.338-15.26
	c-0.031-0.006-0.055-0.024-0.086-0.028l-0.08,0.002l-24.642-6.101c-0.095-0.024-0.184-0.067-0.261-0.128l-12.819-10.147
	c-0.365-0.289-0.848-0.456-1.283-0.441l-6.842,0.047c-0.556,0.004-1.085,0.234-1.468,0.637c-0.382,0.402-0.585,0.943-0.56,1.499
	l0.309,6.964c0.013,0.292-0.161,0.559-0.434,0.665l-27.067,10.519c-0.244,0.095-0.467,0.236-0.658,0.415l-20.467,19.207
	c-0.025,0.001-0.052,0.001-0.08,0.001l-27.446-2.3c-0.351-0.025-0.705,0.033-1.025,0.18l-21.999,10.123
	c-0.198,0.091-0.438,0.08-0.624-0.028c-0.191-0.109-0.317-0.306-0.339-0.524l-0.17-1.753c-0.078-0.795-0.611-1.473-1.367-1.734
	c-0.755-0.262-1.594-0.059-2.146,0.519l-4.653,4.867c-0.101,0.105-0.235,0.176-0.38,0.202l-12.716,2.139
	c-0.776,0.13-1.409,0.695-1.626,1.451l-1.405,4.895c-0.188,0.655-0.037,1.36,0.402,1.881l2.707,3.213
	c0.2,0.238,0.214,0.581,0.035,0.833l-4.858,6.86c-0.315,0.446-0.44,0.999-0.345,1.536l2.933,16.648
	c0.063,0.365-0.18,0.718-0.544,0.788l-10.409,1.973c-0.249,0.047-0.486,0.14-0.701,0.274c-3.493,2.176-7.63,4.578-9.898,5.687
	c-0.144-0.542-0.504-1.001-0.997-1.271c-0.514-0.28-1.123-0.325-1.675-0.128l-8.252,2.987c-0.187,0.067-0.404,0.046-0.578-0.057
	l-5.089-3.044c-0.864-0.518-1.978-0.326-2.623,0.449l-4.198,5.061c-0.171,0.206-0.3,0.443-0.379,0.699l-2.167,6.981
	c-0.067,0.218-0.24,0.384-0.452,0.449l-20.022-3.786c-0.647-0.123-1.316,0.076-1.793,0.531l-4.071,3.895
	c-0.549,0.526-0.761,1.313-0.551,2.044l2.485,8.617c0.063,0.219,0.014,0.452-0.132,0.626c-0.132,0.157-0.331,0.26-0.592,0.242
	l-3.865-0.398c-0.512-0.052-1.023,0.089-1.434,0.396l-15.187,11.353c-0.485,0.363-0.785,0.923-0.818,1.527
	c-0.032,0.605,0.206,1.194,0.65,1.607l8.163,7.593c0.113,0.105,0.187,0.248,0.21,0.398l-4.728,13.184
	c-0.354,0.989,0.097,2.085,1.045,2.536l15.551,7.41c0.274,0.131,0.575,0.199,0.879,0.199h1.708c0.395,0,0.78-0.115,1.112-0.329
	l11.043-7.158c0.234-0.02,0.454,0.086,0.592,0.267l5.232,6.874c0.075,0.099,0.159,0.19,0.251,0.274l7.235,6.583
	c0.576,0.524,1.398,0.674,2.119,0.393l14.349-5.594c0.237-0.093,0.455-0.229,0.641-0.4l10.808-9.944
	c0.094-0.086,0.21-0.145,0.333-0.168l21.489-4.091c0.055,0,0.109,0.007,0.16,0.019l27.983,7.133
	c0.354,0.085,1.132,0.257,0.849,0.484c-0.25,0.199-0.885,0.247-1.274,0.196l-21.837-2.713c-0.252-0.035-0.507-0.023-0.754,0.038
	l-24.672,5.91c-0.727,0.174-1.301,0.731-1.497,1.454l-2.255,8.33c-0.189,0.699,0.005,1.446,0.512,1.963l4.23,4.324
	c0.159,0.163,0.227,0.395,0.18,0.619l-2.931,13.795c-0.054,0.258-0.256,0.463-0.513,0.523l-7.562,1.755
	c-0.412,0.096-0.785,0.317-1.066,0.633l-2.553,2.874c-0.453,0.51-0.623,1.214-0.449,1.875c0.173,0.662,0.664,1.192,1.311,1.415
	L77.4,431.702c0.142,0.05,0.261,0.141,0.344,0.264l13.249,19.512c0.105,0.153,0.115,0.323,0.105,0.439
	c-0.003,0.027,0.009,0.053,0.008,0.08l5.555,0.858c0.049,0.011,0.096,0.033,0.137,0.064l26.976,20.951
	c0.043,0.033,0.078,0.077,0.101,0.127l2.65,5.805l13.984,2.031c0.133,0.019,0.242,0.115,0.279,0.244l3.393,11.896l36.354,6.823
	l9.031-6.382l-7.578-11.013c-0.034-0.05-0.055-0.108-0.059-0.169l-0.491-6.7l-1.069-20.759c-0.006-0.116,0.047-0.229,0.143-0.295
	l12.428-8.789c0.089-0.063,0.203-0.081,0.306-0.044c0.103,0.035,0.184,0.117,0.216,0.221l5.653,18.093l5.279,5.265l13.808-1.562
	l-2.671-17.546c-0.021-0.138,0.044-0.275,0.165-0.346l21.339-12.504c0.103-0.061,0.23-0.062,0.336-0.005l23.19,12.676l1.087,0.595
	l0.757,0.245l4.786-4.151c0.131-0.113,0.157-0.308,0.058-0.451l-10.06-14.609c-0.039-0.055-0.092-0.099-0.154-0.123l-8.082-3.24
	l-3.453-9.374l14.645-12.586c0.11-0.094,0.148-0.249,0.094-0.383l-8.037-20.206c-0.034-0.084-0.1-0.151-0.184-0.188
	c-0.082-0.034-0.176-0.037-0.261-0.002l-6.528,2.64l-9.312-9.353l-1.756-6.816c-0.034-0.13-0.141-0.229-0.273-0.251l-13.113-2.202
	l9.668-8.166l38.822-10.721l24.238,2.799c0.087,0.01,0.173-0.013,0.242-0.065l14.041-10.401c0.116-0.086,0.165-0.236,0.123-0.374
	L299.424,316.114z"/>
<path fill="#179FAE" d="M540.793,290.541c0.212-0.335,0.321-0.725,0.316-1.122l-0.12-8.648c0.003-0.032,0.003-0.065,0.003-0.096
	s-0.015-0.06-0.016-0.092l-8.57-0.716l-7.937,8.663c-0.062,0.067-0.149,0.107-0.242,0.11c-0.004,0-0.006,0-0.01,0
	c-0.09,0-0.174-0.035-0.238-0.098l-6.038-5.913l-13.195-0.926c-0.084-0.006-0.162-0.042-0.221-0.103l-11.117-11.423l-18.613-3.282
	l-4.45,6.138c-0.08,0.108-0.213,0.163-0.346,0.134l-14.13-2.921c-0.112-0.023-0.206-0.103-0.249-0.209l-5.181-13.188
	c-0.054-0.138-0.013-0.295,0.103-0.388l6.611-5.403l-14.236,0.574l-21.941-1.759c-0.154-0.012-0.281-0.127-0.308-0.278
	l-2.192-12.175l-0.361-2.011l-1.556-0.946l-4.208-2.562c-0.062-0.037-0.134-0.056-0.203-0.049l-9.482,0.704l-7.501-2.451
	l-5.709-0.669c-0.135-0.012-0.264,0.048-0.333,0.165l-4.47,7.493l-8.839,1.665c-0.042,0.008-0.081,0.023-0.116,0.045l-9.083,5.634
	l-23.527-2.784l-11.857-8.724c-0.074-0.056-0.166-0.078-0.258-0.062l-6.51,1.09l-4.25,1.459l-13.56-8.421
	c-0.032-0.02-0.068-0.034-0.105-0.042l-6.275-1.413c-0.104-0.025-0.213,0.004-0.294,0.072c-0.082,0.069-0.126,0.171-0.121,0.278
	l0.385,7.463l-34.811-5.711c-0.135-0.024-0.266,0.037-0.339,0.149l-2.116,3.202l-10.662-4.492l-6.198-2.611l-1.994-0.841
	c-0.025,0.131-0.051,0.263-0.051,0.398v7.935c0,0.211-0.096,0.407-0.262,0.537c-0.103,0.081-0.24,0.112-0.337,0.125
	c-0.029,0.004-0.052,0.02-0.081,0.026l0.338,15.26l14.539,7.834c0.15,0.081,0.217,0.26,0.158,0.419l-3.145,8.477l7.793,13.537h8.315
	c0.043,0,0.088,0.009,0.128,0.025l18.751,7.628c0.104,0.042,0.181,0.133,0.205,0.243c0.024,0.11-0.008,0.225-0.084,0.307
	l-8.202,8.704c-0.071,0.075-0.177,0.116-0.274,0.106l-23.294-1.802v11.808l5.799,6.718h19.308c0.065,0,0.129,0.019,0.184,0.054
	l7.009,4.488h8.18c0.148,0,0.281,0.097,0.325,0.24l8.487,27.438c0.042,0.137-0.007,0.288-0.123,0.374l-14.041,10.401
	c-0.069,0.052-0.155,0.075-0.242,0.065l-24.238-2.799l-38.822,10.721l-9.668,8.166l13.113,2.202c0.132,0.022,0.24,0.121,0.273,0.251
	l1.756,6.816l9.312,9.353l6.528-2.64c0.085-0.035,0.179-0.032,0.261,0.002c0.084,0.037,0.149,0.104,0.184,0.188l8.037,20.206
	c0.054,0.135,0.016,0.289-0.094,0.383l-14.645,12.586l3.453,9.374l8.082,3.24c0.062,0.024,0.115,0.068,0.154,0.123l10.06,14.609
	c0.099,0.143,0.073,0.337-0.058,0.451l-3.536,3.067l-1.25,1.084l1.603,0.415l24.387,6.312l2.138-3.27
	c0.084-0.129,0.241-0.185,0.387-0.14l19.485,6.082c0.1,0.031,0.18,0.106,0.217,0.205l2.622,7.474
	c0.114-0.03,0.229-0.064,0.338-0.115l21.798-10.226c0.219-0.103,0.48-0.081,0.683,0.066l5.303,3.811
	c0.309,0.221,0.672,0.352,1.05,0.378l29.12,2.053c0.634,0.051,1.255-0.208,1.676-0.686l10.355-11.718
	c0.545-0.616,0.667-1.5,0.31-2.241l-3.592-7.457c-0.085-0.176-0.09-0.381-0.012-0.562c0.077-0.18,0.229-0.318,0.416-0.379
	l18.793-6.125c1.309-0.291,21.191-3.058,34.236-4.847c0.02-0.002,0.153-0.015,0.173-0.017l31.54,0.521
	c3.206,0.056,10.021,0.312,11.05,0.577c0.605,0.188,1.268,0.084,1.786-0.281l7.45-5.254c0.354-0.25,0.615-0.602,0.753-1.002
	c0.627-1.152,5.095-7.6,9.156-13.311c0.129-0.176,0.335-0.281,0.553-0.281h10.72c1.118,0,2.029-0.898,2.045-2.015l0.352-24.767
	c0.001-0.083,0.017-0.162,0.045-0.238l8.57-22.454c0.033-0.09,0.084-0.168,0.153-0.238l13.297-13.247
	c0.3-0.298,0.499-0.683,0.571-1.1l7.078-40.911c0.157-0.907-0.312-1.808-1.145-2.199l-3.903-1.834
	c-0.176-0.083-0.309-0.238-0.364-0.429c-0.054-0.187-0.026-0.388,0.079-0.553L540.793,290.541z"/>
<path fill="#179FAE" d="M483.597,54.225c-0.011-0.046-0.023-0.092-0.026-0.143l-0.548-18.974c-0.017-0.544-0.249-1.06-0.646-1.433
	c-0.398-0.372-0.909-0.558-1.472-0.551l-14.289,0.519c-0.199,0-0.388-0.104-0.511-0.271l-2.49-21.194
	c-0.056-0.469-0.271-0.904-0.612-1.232L452.251,0.573C451.871,0.206,451.363,0,450.833,0h-3.834c-0.868,0-1.641,0.547-1.928,1.367
	l-3.972,11.295c-0.096,0.271-0.354,0.454-0.643,0.454h-8.834c-0.569,0-1.111,0.236-1.498,0.653l-7.788,8.38
	c-1.517-0.52-4.982-2.424-7.743-4.166c-0.326-0.207-0.705-0.316-1.091-0.316h-22.86c-0.137,0-0.274,0.015-0.409,0.042l-33.544,6.843
	c-0.151,0.031-0.298,0.078-0.438,0.143l-5.833,2.657c-0.719,0.328-1.185,1.039-1.198,1.828l-0.073,4.568
	c-0.005,0.291-0.194,0.546-0.471,0.636l-9.085,2.953c-0.242,0.077-0.515,0.014-0.693-0.166l-17.76-17.753
	c-0.429-0.428-1.027-0.64-1.627-0.591l-30.295,2.698c-0.127,0-0.248-0.036-0.359-0.105l-6.877-4.328
	c-0.588-0.371-1.323-0.416-1.951-0.125c-0.629,0.293-1.066,0.884-1.163,1.572l-2.754,19.736c-0.033,0.243-0.023,0.489,0.029,0.728
	l6.654,29.875c0.047,0.213-0.011,0.438-0.156,0.601l-9.288,10.445c-0.333,0.374-0.516,0.857-0.516,1.358v11.644
	c0,0.15,0.016,0.3,0.049,0.446l15.646,69.958c0.047,0.211-0.01,0.434-0.152,0.597l-5.873,6.72c-0.129,0.147-0.313,0.232-0.545,0.232
	c-0.002,0-0.004,0-0.005,0l-11.37-0.636c-0.787-0.04-1.528,0.367-1.907,1.057l-14.938,27.226c-0.036,0.065-0.069,0.133-0.098,0.202
	l-9.416,22.757c-0.103,0.248-0.155,0.513-0.155,0.781v0.421c0,0.125,0.029,0.242,0.051,0.361l1.994,0.841l6.198,2.611l10.63,5.236
	c0.152,0.076,0.341,0.026,0.435-0.118l2.16-3.268l35.011,5.743c0.102,0.017,0.205-0.014,0.282-0.082
	c0.078-0.069,0.119-0.168,0.113-0.271l-0.384-7.437l5.781,1.301l13.648,8.476c0.088,0.053,0.193,0.066,0.29,0.032l4.35-1.498
	l6.314-1.052l11.813,8.692c0.047,0.035,0.103,0.058,0.161,0.064l23.736,2.809c0.013,0.002,0.026,0.003,0.04,0.003
	c0.063,0,0.125-0.018,0.18-0.051l9.13-5.664l8.927-1.683c0.097-0.018,0.18-0.076,0.23-0.16l4.435-7.436l5.423,0.629l7.5,2.458
	c0.042,0.013,0.086,0.02,0.131,0.016l9.439-0.701l4.631,2.819l-0.162-0.895l1.556,0.946l-0.323-1.793l-1.814-10.08l-7.718-0.082
	c-0.126-0.001-0.24-0.07-0.297-0.182l-4.042-7.7c-0.071-0.134-0.044-0.298,0.064-0.403l14.64-14.199l-6.381-10.063
	c-0.054-0.083-0.067-0.186-0.039-0.281c0.029-0.095,0.096-0.172,0.187-0.212l24.216-10.835l-10.231-17.325
	c-0.03-0.052-0.046-0.112-0.046-0.173V151.43c0-0.188,0.151-0.341,0.34-0.341h7.443l13.871-3.959l2.023-16.428l-5.288-3.677
	c-0.087-0.061-0.141-0.158-0.146-0.263l-0.333-7.22c-0.005-0.115,0.048-0.225,0.14-0.292l19.661-14.286l-1.219-38.417
	c-0.005-0.148,0.087-0.282,0.226-0.332l5.027-1.801l0.276-4.336c0.009-0.133,0.093-0.248,0.217-0.295l14.626-5.327
	c0.229-0.041,0.312-0.126,0.345-0.212c0.003-0.007,0.013-0.013,0.015-0.02c0.016,0.033,0.023,0.054,0.049,0.094
	C483.597,54.288,483.607,54.256,483.597,54.225z"/>
<path fill="#179FAE" d="M672.48,117.792l-42.203-27.121c-0.309-0.198-0.663-0.309-1.027-0.323l-2.322-0.088
	c-0.809-0.023-1.492,0.379-1.865,1.054c-0.979,1.771-2.226,3.828-3.032,4.973c-18.027-9.949-45.486-25.29-49.764-28.164
	l-4.772-34.879c-0.086-0.623-0.453-1.173-0.999-1.49l-16.34-9.515c-0.644-0.375-1.437-0.371-2.076,0.01l-38.631,22.995
	c-0.49,0.293-0.838,0.778-0.955,1.337l-1.391,6.616c-0.038,0.182-0.15,0.343-0.307,0.44c-0.155,0.098-0.349,0.126-0.528,0.081
	l-11.385-2.89c-0.428-0.108-0.878-0.075-1.286,0.094l-9.09,3.773c-0.198,0.083-0.438,0.06-0.625-0.061
	c-0.091-0.059-0.167-0.144-0.225-0.25c-0.014-0.025-0.038-0.041-0.052-0.066c-0.025-0.04-0.033-0.061-0.049-0.094
	c-0.002,0.007-0.012,0.013-0.015,0.02c-0.032,0.086-0.116,0.172-0.345,0.212l-14.626,5.327c-0.124,0.047-0.208,0.162-0.217,0.295
	l-0.276,4.336l-5.027,1.801c-0.139,0.05-0.23,0.184-0.226,0.332l1.219,38.417l-19.661,14.286c-0.092,0.067-0.145,0.177-0.14,0.292
	l0.333,7.22c0.005,0.105,0.059,0.203,0.146,0.263l5.288,3.677l-2.023,16.428l-13.871,3.959h-7.443c-0.188,0-0.34,0.152-0.34,0.341
	v10.647c0,0.062,0.016,0.121,0.046,0.173l10.231,17.325l-24.216,10.835c-0.09,0.041-0.158,0.118-0.187,0.212
	c-0.029,0.096-0.015,0.198,0.039,0.281l6.381,10.063l-14.64,14.199c-0.109,0.105-0.135,0.27-0.064,0.403l4.042,7.7
	c0.057,0.111,0.171,0.181,0.297,0.182l7.718,0.082l1.814,10.08l0,0l0.685,3.805c-0.001,0-0.001,0-0.001,0l2.192,12.175
	c0.026,0.151,0.153,0.267,0.308,0.278l21.941,1.759l14.236-0.574l-6.611,5.403c-0.115,0.093-0.156,0.25-0.103,0.388l5.181,13.188
	c0.043,0.106,0.137,0.186,0.249,0.209l14.13,2.921c0.133,0.029,0.266-0.025,0.346-0.134l4.45-6.138l18.613,3.282l11.117,11.423
	c0.059,0.061,0.137,0.097,0.221,0.103l13.195,0.926l6.038,5.913c0.064,0.063,0.148,0.098,0.238,0.098c0.004,0,0.006,0,0.01,0
	c0.093-0.003,0.18-0.043,0.242-0.11l7.937-8.663l8.57,0.716c0.008-0.029,0.028-0.051,0.037-0.081
	c0.042-0.167,0.143-0.312,0.279-0.402c0.194-0.127,0.442-0.15,0.654-0.057l25.113,11.134c0.265,0.117,0.546,0.176,0.828,0.176
	c0.214,0,0.429-0.034,0.635-0.101l3.812-1.24c0.445-0.144,0.825-0.436,1.078-0.826l8.021-12.281h2.143
	c0.327,0,0.652-0.079,0.942-0.23l30.037-15.579c0.269-0.139,0.503-0.336,0.687-0.576l34.592-45.423
	c0.319-0.421,0.467-0.949,0.405-1.475l-1.886-16.209c-0.023-0.193,0.038-0.387,0.168-0.532c0.128-0.145,0.314-0.228,0.51-0.228
	h7.253c0.996,0,1.848-0.718,2.016-1.7l6.07-35.528c0.184-1.073-0.509-2.102-1.571-2.339c-2.266-0.506-4.949-1.211-6.266-1.673
	l-0.283-10.155c-0.008-0.364,0.269-0.671,0.634-0.698l3.692-0.271c0.645-0.048,1.229-0.398,1.576-0.943l10.946-17.239
	c0.208-0.328,0.32-0.708,0.32-1.096v-5.5C673.42,118.816,673.066,118.168,672.48,117.792z"/>
</svg>
