<?xml version="1.0" encoding="utf-8"?>
<!-- Generator: Adobe Illustrator 18.1.1, SVG Export Plug-In . SVG Version: 6.00 Build 0)  -->
<svg version="1.1" id="Calque_1" xmlns="http://www.w3.org/2000/svg" xmlns:xlink="http://www.w3.org/1999/xlink" x="0px" y="0px"
	 viewBox="0 0 141.7 141.7" enable-background="new 0 0 141.7 141.7" xml:space="preserve">
<path id="XMLID_316_" fill="#005F79" d="M43.7,50V15.5c0-1.2,1-2.2,2.2-2.2h67.9c1.2,0,2.2,1,2.2,2.2v7.3c0,1.2-1,2.2-2.2,2.2
	s-2.2-1-2.2-2.2v-5H48.2V50c0,1.2-1,2.2-2.2,2.2C44.7,52.2,43.7,51.2,43.7,50z M63.8,47.9C63.8,47.9,63.8,47.9,63.8,47.9
	c-1.3,0-2.3,1-2.2,2.3c0,0.4,0,0.9,0.1,1.3c0.1,1.2,1.1,2.1,2.2,2.1c0.1,0,0.1,0,0.2,0c1.2-0.1,2.2-1.1,2.1-2.4c0-0.3,0-0.7,0-1.1
	C66,48.8,65.1,47.9,63.8,47.9z M68,40.8c3.2-7,10-11.6,17.6-12.1c3.1-0.2,6.2,0.3,9.1,1.4c1.1,0.5,2.4-0.1,2.9-1.3
	c0.5-1.1-0.1-2.4-1.3-2.9c-3.5-1.4-7.2-2-11.1-1.7c-9.3,0.6-17.5,6.3-21.4,14.7c-0.5,1.1,0,2.4,1.1,3c0.3,0.1,0.6,0.2,0.9,0.2
	C66.8,42.1,67.6,41.6,68,40.8z M72.4,67.3v36.3c0,7.4-20.5,7.6-22.9,7.6c-2.3,0-22.9-0.2-22.9-7.6V67.3c0-7.4,20.5-7.6,22.9-7.6
	C51.9,59.6,72.4,59.9,72.4,67.3z M31.4,67.3c0.8,0.6,3,1.7,7.9,2.4c1.1,0.2,1.9,1.1,1.9,2.2v9.5c0,1.3,1.1,2.4,2.4,2.4
	c1.3,0,2.4-1.1,2.4-2.4v-8.7c0-0.6,0.2-1.2,0.7-1.6c0.4-0.4,1-0.6,1.6-0.6c0.4,0,0.9,0,1.3,0c4.8,0,9.3-0.4,12.9-1.2
	c3.1-0.7,4.6-1.5,5.2-1.9c-0.6-0.5-2.1-1.2-5.2-1.9c-3.6-0.8-8.2-1.2-12.9-1.2s-9.3,0.4-12.9,1.2C33.5,66,32,66.8,31.4,67.3z
	 M67.9,72.1c-5.5,2.3-14.4,2.7-17.5,2.7v6.5c0,3.8-3.1,6.9-6.9,6.9c-3.8,0-6.9-3.1-6.9-6.9v-7.6c-2.2-0.4-4.1-1-5.5-1.6v31.1
	c0.4,0.4,1.8,1.3,5.5,2.1c3.6,0.8,8.2,1.2,12.9,1.2s9.3-0.4,12.9-1.2c3.6-0.8,5.1-1.7,5.5-2.1L67.9,72.1L67.9,72.1z M113.8,67.5
	c-1.2,0-2.2,1-2.2,2.2v23.4H99c-1.2,0-2.2,1-2.2,2.2s1,2.2,2.2,2.2h14.9c1.2,0,2.2-1,2.2-2.2V69.8C116.1,68.5,115.1,67.5,113.8,67.5
	z M105,59.1l-23.5,50.4c-0.4,0.8-1.2,1.3-2,1.3c-0.3,0-0.6-0.1-0.9-0.2c-1.1-0.5-1.6-1.8-1.1-3l23.5-50.4c-2.8-2.4-3.9-6.5-2.2-10
	c0.5-1,0.9-1.9,1.3-2.8c3.2-6.6,3.9-8.5,2.3-12.3c-0.4-0.9-0.1-1.9,0.6-2.5c0.7-0.6,1.7-0.8,2.6-0.3c14.7,8.1,12.2,17.7,8.5,25.1v0
	C112.2,57.9,108.5,59.7,105,59.1z M104.7,54.4c2,0.9,4.3,0,5.3-2c2.7-5.3,4.5-10.9-2.4-16.4c-0.1,3.1-1.6,6.1-3.6,10.4
	c-0.4,0.9-0.8,1.8-1.3,2.8C101.8,51.1,102.7,53.5,104.7,54.4L104.7,54.4C104.7,54.4,104.7,54.4,104.7,54.4
	C104.7,54.4,104.7,54.4,104.7,54.4z"/>
</svg>
