<?xml version="1.0" encoding="utf-8"?>
<!-- Generator: Adobe Illustrator 16.0.0, SVG Export Plug-In . SVG Version: 6.00 Build 0)  -->
<!DOCTYPE svg PUBLIC "-//W3C//DTD SVG 1.1//EN" "http://www.w3.org/Graphics/SVG/1.1/DTD/svg11.dtd">
<svg version="1.1" id="Capa_1" xmlns="http://www.w3.org/2000/svg" xmlns:xlink="http://www.w3.org/1999/xlink" x="0px" y="0px"
	 width="595.279px" height="841.891px" viewBox="0 0 595.279 841.891" enable-background="new 0 0 595.279 841.891"
	 xml:space="preserve">
<g>
	<path fill="#005F78" d="M215.12,353.453l86.27,274.562c1.627,5.231,6.336,8.952,11.801,9.359c0.349,0.058,0.64,0.058,0.988,0.058
		c5.115,0,9.824-2.965,12.092-7.615l54.296-112.836l117.428,117.429c2.616,2.615,6.046,3.953,9.476,3.953
		c3.431,0,6.86-1.338,9.476-3.953c5.232-5.232,5.232-13.72,0-18.952L389.17,487.565c-0.523-0.523-1.104-0.988-1.686-1.396
		c-1.279-1.686-2.965-3.139-5-4.127c-6.686-3.197-14.707-0.407-17.904,6.278l-47.786,99.291L248.547,370.37l214.277,70.108
		l-55.517,25.172c-6.744,3.022-9.767,10.987-6.686,17.73c3.022,6.743,10.987,9.767,17.73,6.686l86.967-39.414
		c5.058-2.326,8.139-7.441,7.848-12.964c-0.349-5.522-4.011-10.29-9.243-12.033L232.095,336.71
		c-4.767-1.569-10.057-0.349-13.603,3.197C214.947,343.454,213.61,348.686,215.12,353.453z"/>
	<path fill="#005F78" d="M74.439,405.598c0,91.56,61.68,171.841,150.041,195.326c1.104,0.291,2.268,0.466,3.43,0.466
		c5.93,0,11.395-3.953,12.964-9.941c1.86-7.149-2.384-14.475-9.533-16.393c-76.619-20.347-130.102-90.048-130.102-169.399
		c0-96.675,78.653-175.271,175.271-175.271c71.445,0,135.158,42.728,162.248,108.825c2.791,6.859,10.639,10.115,17.498,7.325
		c6.86-2.791,10.115-10.639,7.325-17.498c-31.275-76.271-104.697-125.509-187.071-125.509
		C165.069,203.528,74.439,294.215,74.439,405.598z"/>
	<path fill="#005F78" d="M158.732,404.552c0-63.656,51.796-115.452,115.452-115.452c44.413,0,85.396,25.927,104.406,66.039
		c3.139,6.743,11.161,9.592,17.847,6.395c6.743-3.139,9.592-11.162,6.395-17.847c-23.428-49.413-73.887-81.328-128.59-81.328
		c-78.421,0-142.251,63.771-142.251,142.25c0,29.299,8.836,57.436,25.578,81.387c16.336,23.369,39.008,41.157,65.517,51.389
		c1.569,0.64,3.197,0.931,4.824,0.931c5.349,0,10.464-3.256,12.499-8.604c2.674-6.918-0.756-14.649-7.674-17.324
		C188.495,495.297,158.79,451.988,158.732,404.552z"/>
</g>
</svg>
