<?xml version="1.0" encoding="utf-8"?>
<!-- Generator: Adobe Illustrator 16.0.0, SVG Export Plug-In . SVG Version: 6.00 Build 0)  -->
<!DOCTYPE svg PUBLIC "-//W3C//DTD SVG 1.1//EN" "http://www.w3.org/Graphics/SVG/1.1/DTD/svg11.dtd">
<svg version="1.1" id="Layer_1" xmlns="http://www.w3.org/2000/svg" xmlns:xlink="http://www.w3.org/1999/xlink" x="0px" y="0px"
	 width="124.563px" height="96.072px" viewBox="0 0 124.563 96.072" enable-background="new 0 0 124.563 96.072"
	 xml:space="preserve">
<path opacity="0.8" fill="#FFFFFF" enable-background="new    " d="M121.653,87.928L121.653,87.928l-16.988-9.6
	c0.466-1.164,0.698-2.561,0.698-4.189c0-6.516-3.956-14.137-8.901-16.93c-0.116-0.059-0.232-0.116-0.291-0.174
	c-1.338-9.367-7.098-19.083-13.904-23.039c-7.854-4.538-14.254,0.291-14.254,10.763c0,0.175,0,0.349,0,0.524
	c-0.756-0.756-1.513-1.396-2.327-1.92c-0.873-0.524-1.745-0.756-2.502-0.814c-1.105-5.178-4.305-10.356-8.087-12.508
	c-0.116-0.059-0.29-0.175-0.407-0.233c-1.687-11.287-8.552-22.98-16.755-27.751C28.451-3.413,20.771,2.405,20.771,15.03
	c0,1.862,0.175,3.84,0.524,5.76c-0.757-0.756-1.513-1.396-2.327-1.92c-3.84-2.211-6.924,0.116-6.924,5.236
	c0,0.524,0.059,1.047,0.116,1.571l-9.25-5.12c-1.629-0.931-2.967-0.058-2.909,2.095c0,2.152,1.339,4.538,2.968,5.469l0,0
	l118.684,67.603c1.629,0.932,2.967-0.058,2.908-2.269C124.62,91.359,123.282,88.857,121.653,87.928z"/>
</svg>
