<?xml version="1.0" encoding="utf-8"?>
<!-- Generator: Adobe Illustrator 16.0.0, SVG Export Plug-In . SVG Version: 6.00 Build 0)  -->
<!DOCTYPE svg PUBLIC "-//W3C//DTD SVG 1.1//EN" "http://www.w3.org/Graphics/SVG/1.1/DTD/svg11.dtd">
<svg version="1.1" id="Layer_1" xmlns="http://www.w3.org/2000/svg" xmlns:xlink="http://www.w3.org/1999/xlink" x="0px" y="0px"
	 width="63.416px" height="64.204px" viewBox="0 0 63.416 64.204" enable-background="new 0 0 63.416 64.204" xml:space="preserve">
<path opacity="0.8" fill="#FFFFFF" enable-background="new    " d="M60.272,52.718l-6.69-3.84c0.232-0.698,0.407-1.571,0.407-2.56
	c0-4.247-2.618-9.192-5.76-10.996c-0.814-0.466-1.571-0.698-2.327-0.698c0.059-0.64,0.059-1.279,0.059-1.92
	c0-11.868-7.215-25.599-16.116-30.776c-8.61-4.945-15.592-0.058-16.057,10.996c-0.814-0.931-1.688-1.688-2.677-2.211
	c-3.956-2.269-7.155,0.116-7.155,5.411c0,1.512,0.291,3.024,0.698,4.596l-1.804-1.164C1.163,18.568,0,19.615,0,21.883v2.793
	c0,2.269,1.163,4.945,2.851,5.935l57.48,33.22c1.687,0.988,3.083-0.059,3.083-2.327V58.71
	C63.473,56.326,62.018,53.708,60.272,52.718z"/>
</svg>
