<?xml version="1.0" encoding="utf-8"?>
<!-- Generator: Adobe Illustrator 16.0.0, SVG Export Plug-In . SVG Version: 6.00 Build 0)  -->
<!DOCTYPE svg PUBLIC "-//W3C//DTD SVG 1.1//EN" "http://www.w3.org/Graphics/SVG/1.1/DTD/svg11.dtd">
<svg version="1.1" id="Layer_1" xmlns="http://www.w3.org/2000/svg" xmlns:xlink="http://www.w3.org/1999/xlink" x="0px" y="0px"
	 width="81.74px" height="68.492px" viewBox="0 0 81.74 68.492" enable-background="new 0 0 81.74 68.492" xml:space="preserve">
<path opacity="0.8" fill="#FFFFFF" enable-background="new    " d="M79.646,62.099l-0.989-0.582
	c0.175-0.523,0.232-1.279,0.232-2.036c0-4.014-2.443-8.727-5.469-10.472c-0.349-0.175-0.698-0.35-0.989-0.466
	c0-0.058,0-0.058,0-0.116c0-8.028-4.887-17.279-10.879-20.77c-1.163-0.698-2.327-1.105-3.433-1.222
	C56.375,16.371,50.208,6.074,42.819,1.884c-8.727-5.003-15.767,0.291-15.767,11.927c0,0.291,0,0.523,0,0.814
	c-1.629-2.967-3.781-5.469-6.225-6.865c-5.004-2.908-9.134,0.175-9.134,6.865c0,0.989,0.116,1.979,0.232,2.967
	c-0.232-0.174-0.466-0.349-0.757-0.523c-2.152-1.222-3.897,0.059-3.897,2.968c0,0.116,0,0.349,0,0.349L2.27,17.535
	C0.989,16.778,0,17.592,0,19.28s1.047,3.607,2.27,4.363l77.202,44.564c1.28,0.757,2.269-0.058,2.269-1.745
	S80.926,62.856,79.646,62.099z M34.441,35.802c0.116,0.117,0.175,0.291,0.291,0.407l-0.349-0.174
	C34.384,35.918,34.441,35.861,34.441,35.802z"/>
</svg>
