<?xml version="1.0" encoding="utf-8"?>
<!-- Generator: Adobe Illustrator 18.1.1, SVG Export Plug-In . SVG Version: 6.00 Build 0)  -->
<svg version="1.1" id="Calque_1" xmlns="http://www.w3.org/2000/svg" xmlns:xlink="http://www.w3.org/1999/xlink" x="0px" y="0px"
	 viewBox="0 0 1280 720" enable-background="new 0 0 1280 720" xml:space="preserve">
<g>
	<polygon fill="#006079" points="772.3,810.9 1181.8,574.4 1123.3,540.7 713.8,777.1 	"/>
	<g>
		<g>
			
				<line fill="none" stroke="#80CDEB" stroke-width="1.211" stroke-miterlimit="10" x1="1152.6" y1="557.6" x2="1147.3" y2="560.6"/>
			
				<line fill="none" stroke="#80CDEB" stroke-width="1.211" stroke-miterlimit="10" stroke-dasharray="11.9045,11.9045" x1="1137" y1="566.5" x2="812.3" y2="754"/>
			<line fill="none" stroke="#80CDEB" stroke-width="1.211" stroke-miterlimit="10" x1="807.1" y1="757" x2="801.9" y2="760"/>
		</g>
	</g>
</g>
<g>
	<polygon fill="#006079" points="1017.9,669.1 1427.4,432.7 1368.9,398.9 959.4,635.3 	"/>
	<g>
		<g>
			
				<line fill="none" stroke="#80CDEB" stroke-width="1.211" stroke-miterlimit="10" x1="1398.1" y1="415.8" x2="1392.9" y2="418.8"/>
			
				<line fill="none" stroke="#80CDEB" stroke-width="1.211" stroke-miterlimit="10" stroke-dasharray="11.8133,11.8133" x1="1382.7" y1="424.7" x2="999" y2="646.2"/>
			<line fill="none" stroke="#80CDEB" stroke-width="1.211" stroke-miterlimit="10" x1="993.9" y1="649.2" x2="988.7" y2="652.2"/>
		</g>
	</g>
</g>
<polygon fill="#95DCEF" points="1189,566 1134.2,597.7 1155.7,590.6 1210.5,558.9 "/>
<polygon fill="#006079" points="1232,620.8 1177,652.4 1177,622.3 1232,590.6 "/>
<g>
	<polygon fill="#FFFFFF" points="1192.5,627.3 1187.1,630.5 1187.1,625.1 1192.5,622 	"/>
	<polygon fill="#FFFFFF" points="1200.1,623 1194.7,626.1 1194.7,620.7 1200.1,617.6 	"/>
	<polygon fill="#FFFFFF" points="1192.5,635 1187.1,638.1 1187.1,632.7 1192.5,629.6 	"/>
	<polygon fill="#FFFFFF" points="1200.1,630.6 1194.7,633.7 1194.7,628.3 1200.1,625.2 	"/>
</g>
<g>
	<polygon fill="#FFFFFF" points="1214.4,614.7 1209,617.8 1209,612.4 1214.4,609.3 	"/>
	<polygon fill="#FFFFFF" points="1222,610.3 1216.6,613.4 1216.6,608 1222,604.9 	"/>
	<polygon fill="#FFFFFF" points="1214.4,622.3 1209,625.4 1209,620 1214.4,616.9 	"/>
	<polygon fill="#FFFFFF" points="1222,617.9 1216.6,621.1 1216.6,615.7 1222,612.5 	"/>
</g>
<polygon fill="#23D1F9" points="1177,652.4 1134,627.6 1134,597.5 1155.5,590.6 1177,622.3 "/>
<line fill="#006079" x1="1062" y1="645" x2="1062" y2="611"/>
<g>
	<polygon fill="#FFFFFF" points="1154.6,623.2 1149.2,620.1 1149.2,614.7 1154.6,617.8 	"/>
	<polygon fill="#FFFFFF" points="1162.1,627.6 1156.7,624.5 1156.7,619.1 1162.1,622.2 	"/>
	<polygon fill="#FFFFFF" points="1154.6,630.8 1149.2,627.7 1149.2,622.3 1154.6,625.4 	"/>
	<polygon fill="#FFFFFF" points="1162.1,635.2 1156.7,632.1 1156.7,626.7 1162.1,629.8 	"/>
</g>
<polygon fill="#80CDEB" points="1232.1,590.6 1177.2,622.3 1155.7,590.6 1210.5,558.9 "/>
<g>
	<polygon fill="#006079" points="1136,662.9 1084,692.2 1084,605.9 1136,576.6 	"/>
	<polygon fill="#FFFFFF" points="1101.8,616.7 1095,620.6 1095,612.7 1101.8,608.8 	"/>
	<polygon fill="#FFFFFF" points="1113.5,609.9 1106.7,613.9 1106.7,606 1113.5,602 	"/>
	<polygon fill="#FFFFFF" points="1125.2,603.2 1118.4,607.1 1118.4,599.2 1125.2,595.3 	"/>
	<polygon fill="#FFFFFF" points="1101.8,630 1095,634 1095,626.1 1101.8,622.1 	"/>
	<polygon fill="#FFFFFF" points="1113.5,623.3 1106.7,627.3 1106.7,619.3 1113.5,615.4 	"/>
	<polygon fill="#FFFFFF" points="1125.2,616.5 1118.4,620.5 1118.4,612.6 1125.2,608.6 	"/>
	<polygon fill="#FFFFFF" points="1101.8,643.4 1095,647.4 1095,639.5 1101.8,635.5 	"/>
	<polygon fill="#FFFFFF" points="1113.5,636.7 1106.7,640.6 1106.7,632.7 1113.5,628.8 	"/>
	<polygon fill="#FFFFFF" points="1125.2,629.9 1118.4,633.9 1118.4,626 1125.2,622 	"/>
	<polygon fill="#FFFFFF" points="1101.8,656.8 1095,660.8 1095,652.9 1101.8,648.9 	"/>
	<polygon fill="#FFFFFF" points="1113.5,650.1 1106.7,654 1106.7,646.1 1113.5,642.2 	"/>
	<polygon fill="#FFFFFF" points="1125.2,643.3 1118.4,647.3 1118.4,639.4 1125.2,635.4 	"/>
	<polygon fill="#FFFFFF" points="1101.8,670.2 1095,674.2 1095,666.3 1101.8,662.3 	"/>
	<polygon fill="#FFFFFF" points="1113.5,663.5 1106.7,667.4 1106.7,659.5 1113.5,655.6 	"/>
	<polygon fill="#FFFFFF" points="1125.2,656.7 1118.4,660.7 1118.4,652.8 1125.2,648.8 	"/>
	<polygon fill="#23D1F9" points="1034,662.9 1084,692.2 1084,605.9 1034,576.6 	"/>
	<polygon fill="#FFFFFF" points="1067.8,616.7 1074.7,620.6 1074.7,612.7 1067.8,608.8 	"/>
	<polygon fill="#FFFFFF" points="1056.1,609.9 1063,613.9 1063,606 1056.1,602 	"/>
	<polygon fill="#FFFFFF" points="1044.4,603.2 1051.3,607.1 1051.3,599.2 1044.4,595.3 	"/>
	<polygon fill="#FFFFFF" points="1067.8,630 1074.7,634 1074.7,626.1 1067.8,622.1 	"/>
	<polygon fill="#FFFFFF" points="1056.1,623.3 1063,627.3 1063,619.3 1056.1,615.4 	"/>
	<polygon fill="#FFFFFF" points="1044.4,616.5 1051.3,620.5 1051.3,612.6 1044.4,608.6 	"/>
	<polygon fill="#FFFFFF" points="1067.8,643.4 1074.7,647.4 1074.7,639.5 1067.8,635.5 	"/>
	<polygon fill="#FFFFFF" points="1056.1,636.7 1063,640.6 1063,632.7 1056.1,628.8 	"/>
	<polygon fill="#FFFFFF" points="1044.4,629.9 1051.3,633.9 1051.3,626 1044.4,622 	"/>
	<polygon fill="#FFFFFF" points="1067.8,656.8 1074.7,660.8 1074.7,652.9 1067.8,648.9 	"/>
	<polygon fill="#FFFFFF" points="1056.1,650.1 1063,654 1063,646.1 1056.1,642.2 	"/>
	<polygon fill="#FFFFFF" points="1044.4,643.3 1051.3,647.3 1051.3,639.4 1044.4,635.4 	"/>
	<polygon fill="#FFFFFF" points="1067.8,670.2 1074.7,674.2 1074.7,666.3 1067.8,662.3 	"/>
	<polygon fill="#FFFFFF" points="1056.1,663.5 1063,667.4 1063,659.5 1056.1,655.6 	"/>
	<polygon fill="#FFFFFF" points="1044.4,656.7 1051.3,660.7 1051.3,652.8 1044.4,648.8 	"/>
	<polygon fill="#80CDEB" points="1085.2,547.4 1034.4,576.7 1084.3,605.9 1136.2,576.6 	"/>
</g>
<path opacity="0.8" fill="#FFFFFF" d="M1064.4,611.1l-1.5-0.9c0.3-0.8,0.4-1.9,0.4-3.1c0-6.1-3.7-13.2-8.3-15.8
	c-0.5-0.3-1-0.5-1.5-0.7c0-0.1,0-0.1,0-0.2c0-12.1-7.4-26.1-16.4-31.4c-1.8-1-3.5-1.6-5.2-1.9c-2.7-15.2-12-30.7-23.1-37.1
	c-13.2-7.6-23.8,0.5-23.8,18c0,0.4,0,0.8,0,1.2c-2.5-4.5-5.8-8.3-9.4-10.4c-7.6-4.4-13.8,0.3-13.8,10.4c0,1.5,0.1,3,0.4,4.5
	c-0.4-0.3-0.7-0.6-1.1-0.8c-3.3-1.9-5.9,0.1-5.9,4.4c0,0.2,0,0.6,0,0.6l-7.5-4.3c-1.9-1.1-3.5,0.1-3.5,2.6c0,2.5,1.5,5.5,3.5,6.6
	l116.7,67.4c1.9,1.1,3.5-0.1,3.5-2.6C1067.8,615.2,1066.3,612.2,1064.4,611.1z M996,571.3c0.1,0.2,0.3,0.4,0.4,0.6l-0.5-0.3
	C996,571.5,996,571.4,996,571.3z"/>
<g>
	<polyline fill="none" stroke="#006079" stroke-width="5.2938" stroke-linecap="round" stroke-miterlimit="10" points="
		1166.8,670.8 1169.5,675.3 1169.8,685.9 	"/>
	<path fill="none" stroke="#006079" stroke-width="3.5148" stroke-linecap="round" stroke-miterlimit="10" d="M1171.8,677.3
		c0,0,5.8-1.4,7.4-5.3"/>
	<path fill="none" stroke="#006079" stroke-width="1.8149" stroke-linecap="round" stroke-miterlimit="10" d="M1163.2,680.3
		c0,0,1.9,1.9,6,3.2"/>
	<circle fill="#95DCEF" cx="1165.3" cy="656.3" r="9.1"/>
	<circle fill="#95DCEF" cx="1170.8" cy="665.7" r="9.6"/>
	<circle fill="#95DCEF" cx="1173.1" cy="634.3" r="6.4"/>
	<circle fill="#95DCEF" cx="1177.5" cy="652.9" r="7.8"/>
	<circle fill="#95DCEF" cx="1184.3" cy="665.3" r="5.2"/>
	<circle fill="#95DCEF" cx="1181.5" cy="659.6" r="5.2"/>
	<circle fill="#95DCEF" cx="1160.1" cy="665.3" r="5"/>
	<circle fill="#95DCEF" cx="1168.8" cy="643.3" r="6.8"/>
	<circle fill="#95DCEF" cx="1176.7" cy="668.5" r="8.4"/>
	<circle fill="#95DCEF" cx="1177.5" cy="642.6" r="5.7"/>
</g>
<g>
	
		<line fill="none" stroke="#006079" stroke-width="6.156" stroke-linecap="round" stroke-miterlimit="10" x1="1220.1" y1="655.2" x2="1220.1" y2="676.8"/>
	<path fill="none" stroke="#006079" stroke-width="3.7515" stroke-linecap="round" stroke-miterlimit="10" d="M1221.9,664.7
		c0,0,4.3-3.8,6.6-11.2"/>
	<path fill="none" stroke="#006079" stroke-width="3.7515" stroke-linecap="round" stroke-miterlimit="10" d="M1217.7,662.2
		c0,0-4.3-3.8-6.6-11.2"/>
	<path fill="none" stroke="#006079" stroke-width="2.1105" stroke-linecap="round" stroke-miterlimit="10" d="M1212.6,665.1
		c0,0,1.8,2.7,5.7,4.6"/>
	<circle fill="#95DCEF" cx="1221.7" cy="643.5" r="13.3"/>
	<circle fill="#95DCEF" cx="1218.3" cy="636.3" r="9.1"/>
	<circle fill="#95DCEF" cx="1206.9" cy="644.6" r="8.2"/>
	<circle fill="#95DCEF" cx="1202.1" cy="652.6" r="5.7"/>
	<circle fill="#95DCEF" cx="1212.6" cy="652.2" r="7.1"/>
	<circle fill="#95DCEF" cx="1233.8" cy="646.6" r="7.1"/>
</g>
<g>
	
		<line fill="none" stroke="#006079" stroke-width="6.156" stroke-linecap="round" stroke-miterlimit="10" x1="1254.3" y1="553.2" x2="1254.3" y2="574.8"/>
	<path fill="none" stroke="#006079" stroke-width="3.7515" stroke-linecap="round" stroke-miterlimit="10" d="M1256.2,562.7
		c0,0,4.3-3.8,6.6-11.2"/>
	<path fill="none" stroke="#006079" stroke-width="3.7515" stroke-linecap="round" stroke-miterlimit="10" d="M1252,560.2
		c0,0-4.3-3.8-6.6-11.2"/>
	<path fill="none" stroke="#006079" stroke-width="2.1105" stroke-linecap="round" stroke-miterlimit="10" d="M1246.9,563.1
		c0,0,1.8,2.7,5.7,4.6"/>
	<circle fill="#95DCEF" cx="1256" cy="541.5" r="13.3"/>
	<circle fill="#95DCEF" cx="1252.6" cy="534.3" r="9.1"/>
	<circle fill="#95DCEF" cx="1241.2" cy="542.6" r="8.2"/>
	<circle fill="#95DCEF" cx="1236.4" cy="550.6" r="5.7"/>
	<circle fill="#95DCEF" cx="1246.9" cy="550.1" r="7.1"/>
	<circle fill="#95DCEF" cx="1268.1" cy="544.6" r="7.1"/>
</g>
<g>
	<polyline fill="none" stroke="#006079" stroke-width="6.3944" stroke-linecap="round" stroke-miterlimit="10" points="
		1196.4,676.5 1199,683.2 1199.4,698.9 	"/>
	<path fill="none" stroke="#006079" stroke-width="3.787" stroke-linecap="round" stroke-miterlimit="10" d="M1199.5,686.1
		c0,0,5.1-1.9,6.5-7"/>
	<path fill="none" stroke="#006079" stroke-width="2.1923" stroke-linecap="round" stroke-miterlimit="10" d="M1192.8,690.5
		c0,0,1.8,2.8,5.9,4.8"/>
	<circle fill="#80CDEB" cx="1196.9" cy="667.3" r="12.6"/>
	<circle fill="#80CDEB" cx="1196.9" cy="656.8" r="8.2"/>
	<circle fill="#80CDEB" cx="1207.1" cy="664.1" r="7.4"/>
	<circle fill="#80CDEB" cx="1214.5" cy="672" r="6"/>
	<circle fill="#80CDEB" cx="1188" cy="665.1" r="6"/>
	<circle fill="#80CDEB" cx="1206.6" cy="673.3" r="7.4"/>
	<circle fill="#80CDEB" cx="1184.9" cy="672" r="7.4"/>
</g>
<g>
	
		<line fill="none" stroke="#006079" stroke-width="6.156" stroke-linecap="round" stroke-miterlimit="10" x1="1129.4" y1="683.4" x2="1129.4" y2="704.9"/>
	<path fill="none" stroke="#006079" stroke-width="3.7515" stroke-linecap="round" stroke-miterlimit="10" d="M1127.5,692.9
		c0,0-4.3-3.8-6.6-11.2"/>
	<path fill="none" stroke="#006079" stroke-width="3.7515" stroke-linecap="round" stroke-miterlimit="10" d="M1131.7,690.3
		c0,0,4.3-3.8,6.6-11.2"/>
	<path fill="none" stroke="#006079" stroke-width="2.1105" stroke-linecap="round" stroke-miterlimit="10" d="M1136.8,693.3
		c0,0-1.8,2.7-5.7,4.6"/>
	<circle fill="#95DCEF" cx="1127.7" cy="671.7" r="13.3"/>
	<circle fill="#95DCEF" cx="1131.1" cy="664.4" r="9.1"/>
	<circle fill="#95DCEF" cx="1142.5" cy="672.7" r="8.2"/>
	<circle fill="#95DCEF" cx="1147.3" cy="680.7" r="5.7"/>
	<circle fill="#95DCEF" cx="1136.8" cy="680.3" r="7.1"/>
	<circle fill="#95DCEF" cx="1115.6" cy="674.8" r="7.1"/>
</g>
<path opacity="0.8" fill="#FFFFFF" d="M1236.9,630.7C1236.9,630.7,1236.9,630.7,1236.9,630.7l-9.4-5.3c0.2-0.6,0.4-1.4,0.4-2.3
	c0-3.6-2.2-7.8-4.9-9.4c-0.1,0-0.1-0.1-0.2-0.1c-0.8-5.2-3.9-10.6-7.7-12.7c-4.3-2.5-7.9,0.2-7.9,5.9c0,0.1,0,0.2,0,0.3
	c-0.4-0.4-0.8-0.8-1.3-1c-0.5-0.3-0.9-0.4-1.4-0.5c-0.6-2.9-2.4-5.7-4.5-6.9c-0.1,0-0.2-0.1-0.2-0.1c-0.9-6.2-4.7-12.7-9.3-15.3
	c-5.2-3-9.5,0.2-9.5,7.2c0,1,0.1,2.1,0.3,3.2c-0.4-0.4-0.8-0.8-1.3-1c-2.1-1.2-3.8,0.1-3.8,2.9c0,0.3,0,0.6,0.1,0.9l-5-2.9
	c-0.9-0.5-1.6,0-1.6,1.2c0,1.2,0.7,2.5,1.6,3c0,0,0,0,0,0l65.6,37.4c0.9,0.5,1.6,0,1.6-1.2C1238.5,632.6,1237.8,631.2,1236.9,630.7z
	"/>
</svg>
