<?xml version="1.0" encoding="utf-8"?>
<!-- Generator: Adobe Illustrator 18.1.1, SVG Export Plug-In . SVG Version: 6.00 Build 0)  -->
<svg version="1.1" id="Calque_1" xmlns="http://www.w3.org/2000/svg" xmlns:xlink="http://www.w3.org/1999/xlink" x="0px" y="0px"
	 viewBox="0 0 1280 760" enable-background="new 0 0 1280 760" xml:space="preserve">
<g>
	<defs>
		<rect id="SVGID_1_" y="-0.3" width="1280" height="760.3"/>
	</defs>
	<clipPath id="SVGID_2_">
		<use xlink:href="#SVGID_1_"  overflow="visible"/>
	</clipPath>
	<g clip-path="url(#SVGID_2_)">
		<g>
			<polygon fill="#006079" points="1025.8,264.3 560.2,-4.5 626.7,-42.9 1092.3,225.9 			"/>
			<g>
				<g>
					
						<line fill="none" stroke="#80CDEB" stroke-width="1.3771" stroke-miterlimit="10" x1="593.4" y1="-23.7" x2="599.4" y2="-20.3"/>
					
						<line fill="none" stroke="#80CDEB" stroke-width="1.3771" stroke-miterlimit="10" stroke-dasharray="13.4335,13.4335" x1="611" y1="-13.6" x2="1047.3" y2="238.3"/>
					
						<line fill="none" stroke="#80CDEB" stroke-width="1.3771" stroke-miterlimit="10" x1="1053.1" y1="241.7" x2="1059.1" y2="245.1"/>
				</g>
			</g>
		</g>
		<g>
			<g>
				<polygon fill="#005F78" points="1418.3,491 952.7,222.2 1019.2,183.8 1484.8,452.7 				"/>
			</g>
			<g>
				<line fill="#005F78" x1="984.6" y1="202.2" x2="1191.1" y2="321.4"/>
				<g>
					
						<line fill="none" stroke="#80CDEB" stroke-width="1.3771" stroke-miterlimit="10" x1="984.6" y1="202.2" x2="990.5" y2="205.7"/>
					
						<line fill="none" stroke="#80CDEB" stroke-width="1.3771" stroke-miterlimit="10" stroke-dasharray="13.2164,13.2164" x1="1002" y1="212.3" x2="1179.4" y2="314.7"/>
					
						<line fill="none" stroke="#80CDEB" stroke-width="1.3771" stroke-miterlimit="10" x1="1185.1" y1="318" x2="1191.1" y2="321.4"/>
				</g>
			</g>
		</g>
		<g>
			<g>
				<polygon fill="#005F78" points="1640.4,619.2 1174.7,350.3 1241.2,312 1706.9,580.8 				"/>
			</g>
			<g>
				<line fill="#005F78" x1="1206.6" y1="330.3" x2="1413.1" y2="449.6"/>
				<g>
					
						<line fill="none" stroke="#80CDEB" stroke-width="1.3771" stroke-miterlimit="10" x1="1206.6" y1="330.3" x2="1212.6" y2="333.8"/>
					
						<line fill="none" stroke="#80CDEB" stroke-width="1.3771" stroke-miterlimit="10" stroke-dasharray="13.2164,13.2164" x1="1224" y1="340.4" x2="1401.4" y2="442.8"/>
					
						<line fill="none" stroke="#80CDEB" stroke-width="1.3771" stroke-miterlimit="10" x1="1407.1" y1="446.1" x2="1413.1" y2="449.6"/>
				</g>
			</g>
		</g>
	</g>
	<g clip-path="url(#SVGID_2_)">
		<polygon fill="#006079" points="817.8,834.4 1283.4,565.5 1216.9,527.1 751.3,796 		"/>
		<g>
			<g>
				
					<line fill="none" stroke="#80CDEB" stroke-width="1.3771" stroke-miterlimit="10" x1="1250.2" y1="546.3" x2="1244.2" y2="549.8"/>
				
					<line fill="none" stroke="#80CDEB" stroke-width="1.3771" stroke-miterlimit="10" stroke-dasharray="13.5372,13.5372" x1="1232.5" y1="556.5" x2="863.2" y2="769.7"/>
				
					<line fill="none" stroke="#80CDEB" stroke-width="1.3771" stroke-miterlimit="10" x1="857.3" y1="773.1" x2="851.3" y2="776.6"/>
			</g>
		</g>
	</g>
	<g clip-path="url(#SVGID_2_)">
		<polygon fill="#006079" points="1097,673.1 1562.7,404.3 1496.2,365.9 1030.5,634.7 		"/>
		<g>
			<g>
				
					<line fill="none" stroke="#80CDEB" stroke-width="1.3771" stroke-miterlimit="10" x1="1529.4" y1="385.1" x2="1523.4" y2="388.5"/>
				
					<line fill="none" stroke="#80CDEB" stroke-width="1.3771" stroke-miterlimit="10" stroke-dasharray="13.4335,13.4335" x1="1511.8" y1="395.2" x2="1075.5" y2="647.1"/>
				
					<line fill="none" stroke="#80CDEB" stroke-width="1.3771" stroke-miterlimit="10" x1="1069.7" y1="650.5" x2="1063.8" y2="653.9"/>
			</g>
		</g>
	</g>
	<polygon clip-path="url(#SVGID_2_)" fill="#95DCEF" points="1188,616.9 1132.2,649.1 1154.1,641.9 1209.9,609.7 	"/>
	<polygon clip-path="url(#SVGID_2_)" fill="#006079" points="1232,672.7 1176,704.9 1176,674.2 1232,641.9 	"/>
	<g clip-path="url(#SVGID_2_)">
		<polygon fill="#FFFFFF" points="1191.6,679.4 1186.1,682.5 1186.1,677 1191.6,673.9 		"/>
		<polygon fill="#FFFFFF" points="1199.3,674.9 1193.8,678.1 1193.8,672.6 1199.3,669.4 		"/>
		<polygon fill="#FFFFFF" points="1191.6,687.1 1186.1,690.3 1186.1,684.8 1191.6,681.6 		"/>
		<polygon fill="#FFFFFF" points="1199.3,682.7 1193.8,685.8 1193.8,680.3 1199.3,677.2 		"/>
	</g>
	<g clip-path="url(#SVGID_2_)">
		<polygon fill="#FFFFFF" points="1213.9,666.5 1208.4,669.7 1208.4,664.2 1213.9,661 		"/>
		<polygon fill="#FFFFFF" points="1221.6,662 1216.1,665.2 1216.1,659.7 1221.6,656.5 		"/>
		<polygon fill="#FFFFFF" points="1213.9,674.2 1208.4,677.4 1208.4,671.9 1213.9,668.8 		"/>
		<polygon fill="#FFFFFF" points="1221.6,669.8 1216.1,673 1216.1,667.5 1221.6,664.3 		"/>
	</g>
	<polygon clip-path="url(#SVGID_2_)" fill="#23D1F9" points="1176,704.9 1132,679.7 1132,648.9 1154,641.9 1176,674.2 	"/>
	<line clip-path="url(#SVGID_2_)" fill="#006079" x1="1176" y1="704" x2="1176" y2="674"/>
	<g clip-path="url(#SVGID_2_)">
		<polygon fill="#FFFFFF" points="1152.9,675.2 1147.5,672 1147.5,666.5 1152.9,669.7 		"/>
		<polygon fill="#FFFFFF" points="1160.7,679.6 1155.2,676.4 1155.2,671 1160.7,674.1 		"/>
		<polygon fill="#FFFFFF" points="1152.9,682.9 1147.5,679.7 1147.5,674.2 1152.9,677.4 		"/>
		<polygon fill="#FFFFFF" points="1160.7,687.4 1155.2,684.2 1155.2,678.7 1160.7,681.9 		"/>
	</g>
	<polygon clip-path="url(#SVGID_2_)" fill="#80CDEB" points="1231.9,641.9 1176.1,674.2 1154.1,641.9 1209.9,609.7 	"/>
	<g clip-path="url(#SVGID_2_)">
		<polygon fill="#006079" points="1137,721.3 1089,748.3 1089,668.8 1137,641.9 		"/>
		<polygon fill="#FFFFFF" points="1105.6,678.7 1099.3,682.4 1099.3,675.1 1105.6,671.5 		"/>
		<polygon fill="#FFFFFF" points="1116.3,672.5 1110,676.2 1110,668.9 1116.3,665.3 		"/>
		<polygon fill="#FFFFFF" points="1127.1,666.3 1120.8,670 1120.8,662.7 1127.1,659 		"/>
		<polygon fill="#FFFFFF" points="1105.6,691.1 1099.3,694.7 1099.3,687.4 1105.6,683.8 		"/>
		<polygon fill="#FFFFFF" points="1116.3,684.9 1110,688.5 1110,681.2 1116.3,677.6 		"/>
		<polygon fill="#FFFFFF" points="1127.1,678.6 1120.8,682.3 1120.8,675 1127.1,671.4 		"/>
		<polygon fill="#FFFFFF" points="1105.6,703.4 1099.3,707 1099.3,699.8 1105.6,696.1 		"/>
		<polygon fill="#FFFFFF" points="1116.3,697.2 1110,700.8 1110,693.5 1116.3,689.9 		"/>
		<polygon fill="#FFFFFF" points="1127.1,691 1120.8,694.6 1120.8,687.3 1127.1,683.7 		"/>
		<polygon fill="#FFFFFF" points="1105.6,715.7 1099.3,719.4 1099.3,712.1 1105.6,708.5 		"/>
		<polygon fill="#FFFFFF" points="1116.3,709.5 1110,713.2 1110,705.9 1116.3,702.2 		"/>
		<polygon fill="#FFFFFF" points="1127.1,703.3 1120.8,706.9 1120.8,699.7 1127.1,696 		"/>
		<polygon fill="#FFFFFF" points="1105.6,728.1 1099.3,731.7 1099.3,724.4 1105.6,720.8 		"/>
		<polygon fill="#FFFFFF" points="1116.3,721.8 1110,725.5 1110,718.2 1116.3,714.6 		"/>
		<polygon fill="#FFFFFF" points="1127.1,715.6 1120.8,719.3 1120.8,712 1127.1,708.3 		"/>
		<polygon fill="#23D1F9" points="1043,721.3 1089,748.3 1089,668.8 1043,641.9 		"/>
		<polygon fill="#FFFFFF" points="1074.3,678.7 1080.6,682.4 1080.6,675.1 1074.3,671.5 		"/>
		<polygon fill="#FFFFFF" points="1063.5,672.5 1069.8,676.2 1069.8,668.9 1063.5,665.3 		"/>
		<polygon fill="#FFFFFF" points="1052.7,666.3 1059,670 1059,662.7 1052.7,659 		"/>
		<polygon fill="#FFFFFF" points="1074.3,691.1 1080.6,694.7 1080.6,687.4 1074.3,683.8 		"/>
		<polygon fill="#FFFFFF" points="1063.5,684.9 1069.8,688.5 1069.8,681.2 1063.5,677.6 		"/>
		<polygon fill="#FFFFFF" points="1052.7,678.6 1059,682.3 1059,675 1052.7,671.4 		"/>
		<polygon fill="#FFFFFF" points="1074.3,703.4 1080.6,707 1080.6,699.8 1074.3,696.1 		"/>
		<polygon fill="#FFFFFF" points="1063.5,697.2 1069.8,700.8 1069.8,693.5 1063.5,689.9 		"/>
		<polygon fill="#FFFFFF" points="1052.7,691 1059,694.6 1059,687.3 1052.7,683.7 		"/>
		<polygon fill="#FFFFFF" points="1074.3,715.7 1080.6,719.4 1080.6,712.1 1074.3,708.5 		"/>
		<polygon fill="#FFFFFF" points="1063.5,709.5 1069.8,713.2 1069.8,705.9 1063.5,702.2 		"/>
		<polygon fill="#FFFFFF" points="1052.7,703.3 1059,706.9 1059,699.7 1052.7,696 		"/>
		<polygon fill="#FFFFFF" points="1074.3,728.1 1080.6,731.7 1080.6,724.4 1074.3,720.8 		"/>
		<polygon fill="#FFFFFF" points="1063.5,721.8 1069.8,725.5 1069.8,718.2 1063.5,714.6 		"/>
		<polygon fill="#FFFFFF" points="1052.7,715.6 1059,719.3 1059,712 1052.7,708.3 		"/>
		<polygon fill="#80CDEB" points="1090.2,615 1043.5,642 1089.4,668.8 1137.2,641.9 		"/>
	</g>
	<path opacity="0.8" clip-path="url(#SVGID_2_)" fill="#FFFFFF" d="M1071.1,673.6l-1.4-0.8c0.2-0.7,0.4-1.8,0.4-2.8
		c0-5.6-3.4-12.1-7.6-14.6c-0.5-0.3-0.9-0.5-1.4-0.6c0-0.1,0-0.1,0-0.2c0-11.1-6.8-24.1-15.1-28.9c-1.7-1-3.3-1.5-4.7-1.7
		c-2.4-14-11-28.3-21.3-34.2c-12.1-7-22,0.4-22,16.6c0,0.4,0,0.8,0,1.1c-2.3-4.1-5.3-7.6-8.6-9.5c-7-4-12.7,0.2-12.7,9.6
		c0,1.3,0.1,2.7,0.4,4.1c-0.3-0.3-0.7-0.5-1-0.7c-3-1.7-5.4,0.1-5.4,4.1c0,0.2,0,0.5,0,0.5l-6.9-4c-1.8-1-3.2,0.1-3.2,2.4
		s1.4,5.1,3.2,6.1l107.4,62c1.8,1,3.2-0.1,3.2-2.4S1072.8,674.6,1071.1,673.6z M1008.1,637c0.1,0.2,0.3,0.4,0.4,0.6l-0.5-0.3
		C1008.1,637.2,1008.1,637.1,1008.1,637z"/>
	<g clip-path="url(#SVGID_2_)">
		<polyline fill="none" stroke="#006079" stroke-width="4.8743" stroke-linecap="round" stroke-miterlimit="10" points="
			1165.4,728.6 1167.9,732.8 1168.2,742.5 		"/>
		<path fill="none" stroke="#006079" stroke-width="3.2363" stroke-linecap="round" stroke-miterlimit="10" d="M1170,734.6
			c0,0,5.4-1.3,6.8-4.9"/>
		<path fill="none" stroke="#006079" stroke-width="1.6711" stroke-linecap="round" stroke-miterlimit="10" d="M1162.1,737.3
			c0,0,1.7,1.8,5.5,3"/>
		<circle fill="#95DCEF" cx="1164" cy="715.3" r="8.4"/>
		<circle fill="#95DCEF" cx="1169" cy="723.9" r="8.8"/>
		<circle fill="#95DCEF" cx="1171.2" cy="695" r="5.9"/>
		<circle fill="#95DCEF" cx="1175.3" cy="712.1" r="7.2"/>
		<circle fill="#95DCEF" cx="1181.5" cy="723.5" r="4.8"/>
		<circle fill="#95DCEF" cx="1178.9" cy="718.3" r="4.8"/>
		<circle fill="#95DCEF" cx="1159.2" cy="723.5" r="4.6"/>
		<circle fill="#95DCEF" cx="1167.2" cy="703.2" r="6.2"/>
		<circle fill="#95DCEF" cx="1174.6" cy="726.5" r="7.8"/>
		<circle fill="#95DCEF" cx="1175.3" cy="702.6" r="5.2"/>
	</g>
	<g clip-path="url(#SVGID_2_)">
		
			<line fill="none" stroke="#006079" stroke-width="5.6682" stroke-linecap="round" stroke-miterlimit="10" x1="1214.4" y1="714.3" x2="1214.4" y2="734.1"/>
		<path fill="none" stroke="#006079" stroke-width="3.4542" stroke-linecap="round" stroke-miterlimit="10" d="M1216.1,723
			c0,0,4-3.5,6.1-10.3"/>
		<path fill="none" stroke="#006079" stroke-width="3.4542" stroke-linecap="round" stroke-miterlimit="10" d="M1212.2,720.7
			c0,0-4-3.5-6.1-10.3"/>
		<path fill="none" stroke="#006079" stroke-width="1.9433" stroke-linecap="round" stroke-miterlimit="10" d="M1207.6,723.4
			c0,0,1.6,2.5,5.3,4.2"/>
		<circle fill="#95DCEF" cx="1215.9" cy="703.5" r="12.3"/>
		<circle fill="#95DCEF" cx="1212.8" cy="696.8" r="8.4"/>
		<circle fill="#95DCEF" cx="1202.4" cy="704.4" r="7.6"/>
		<circle fill="#95DCEF" cx="1197.9" cy="711.8" r="5.3"/>
		<circle fill="#95DCEF" cx="1207.5" cy="711.4" r="6.6"/>
		<circle fill="#95DCEF" cx="1227.1" cy="706.4" r="6.6"/>
	</g>
	<g clip-path="url(#SVGID_2_)">
		
			<line fill="none" stroke="#006079" stroke-width="5.6682" stroke-linecap="round" stroke-miterlimit="10" x1="1246" y1="620.4" x2="1246" y2="640.2"/>
		<path fill="none" stroke="#006079" stroke-width="3.4542" stroke-linecap="round" stroke-miterlimit="10" d="M1247.7,629.1
			c0,0,4-3.5,6.1-10.3"/>
		<path fill="none" stroke="#006079" stroke-width="3.4542" stroke-linecap="round" stroke-miterlimit="10" d="M1243.8,626.7
			c0,0-4-3.5-6.1-10.3"/>
		<path fill="none" stroke="#006079" stroke-width="1.9433" stroke-linecap="round" stroke-miterlimit="10" d="M1239.2,629.4
			c0,0,1.6,2.5,5.3,4.2"/>
		<circle fill="#95DCEF" cx="1247.5" cy="609.6" r="12.3"/>
		<circle fill="#95DCEF" cx="1244.4" cy="602.9" r="8.4"/>
		<circle fill="#95DCEF" cx="1233.9" cy="610.5" r="7.6"/>
		<circle fill="#95DCEF" cx="1229.5" cy="617.9" r="5.3"/>
		<circle fill="#95DCEF" cx="1239.1" cy="617.5" r="6.6"/>
		<circle fill="#95DCEF" cx="1258.7" cy="612.4" r="6.6"/>
	</g>
	<g clip-path="url(#SVGID_2_)">
		<polyline fill="none" stroke="#006079" stroke-width="5.8877" stroke-linecap="round" stroke-miterlimit="10" points="
			1192.6,733.8 1195.1,740 1195.4,754.4 		"/>
		<path fill="none" stroke="#006079" stroke-width="3.4869" stroke-linecap="round" stroke-miterlimit="10" d="M1195.5,742.7
			c0,0,4.7-1.7,6-6.5"/>
		<path fill="none" stroke="#006079" stroke-width="2.0185" stroke-linecap="round" stroke-miterlimit="10" d="M1189.3,746.7
			c0,0,1.7,2.6,5.5,4.4"/>
		<circle fill="#80CDEB" cx="1193.1" cy="725.4" r="11.6"/>
		<circle fill="#80CDEB" cx="1193.1" cy="715.7" r="7.5"/>
		<circle fill="#80CDEB" cx="1202.5" cy="722.5" r="6.8"/>
		<circle fill="#80CDEB" cx="1209.3" cy="729.7" r="5.5"/>
		<circle fill="#80CDEB" cx="1184.9" cy="723.3" r="5.5"/>
		<circle fill="#80CDEB" cx="1202" cy="730.9" r="6.8"/>
		<circle fill="#80CDEB" cx="1182" cy="729.7" r="6.8"/>
	</g>
	<g clip-path="url(#SVGID_2_)">
		
			<line fill="none" stroke="#006079" stroke-width="5.6682" stroke-linecap="round" stroke-miterlimit="10" x1="1130.9" y1="740.2" x2="1130.9" y2="760"/>
		<path fill="none" stroke="#006079" stroke-width="3.4542" stroke-linecap="round" stroke-miterlimit="10" d="M1129.2,748.9
			c0,0-4-3.5-6.1-10.3"/>
		<path fill="none" stroke="#006079" stroke-width="3.4542" stroke-linecap="round" stroke-miterlimit="10" d="M1133.1,746.6
			c0,0,4-3.5,6.1-10.3"/>
		<path fill="none" stroke="#006079" stroke-width="1.9433" stroke-linecap="round" stroke-miterlimit="10" d="M1137.7,749.3
			c0,0-1.6,2.5-5.3,4.2"/>
		<circle fill="#95DCEF" cx="1129.4" cy="729.4" r="12.3"/>
		<circle fill="#95DCEF" cx="1132.5" cy="722.7" r="8.4"/>
		<circle fill="#95DCEF" cx="1143" cy="730.3" r="7.6"/>
		<circle fill="#95DCEF" cx="1147.4" cy="737.7" r="5.3"/>
		<circle fill="#95DCEF" cx="1137.8" cy="737.3" r="6.6"/>
		<circle fill="#95DCEF" cx="1118.2" cy="732.3" r="6.6"/>
	</g>
	<path opacity="0.8" clip-path="url(#SVGID_2_)" fill="#FFFFFF" d="M1229.9,691.7C1229.9,691.7,1229.9,691.7,1229.9,691.7l-8.6-4.9
		c0.2-0.6,0.4-1.3,0.4-2.1c0-3.3-2-7.2-4.5-8.6c-0.1,0-0.1,0-0.2-0.1c-0.7-4.8-3.6-9.7-7.1-11.7c-4-2.3-7.2,0.1-7.2,5.5
		c0,0.1,0,0.2,0,0.3c-0.4-0.4-0.8-0.7-1.2-1c-0.4-0.3-0.9-0.4-1.3-0.4c-0.6-2.6-2.2-5.3-4.1-6.4c-0.1,0-0.1-0.1-0.2-0.1
		c-0.8-5.7-4.3-11.7-8.5-14.1c-4.8-2.8-8.7,0.2-8.7,6.6c0,1,0.1,1.9,0.3,2.9c-0.4-0.4-0.8-0.7-1.2-1c-2-1.1-3.5,0.1-3.5,2.7
		c0,0.3,0,0.5,0,0.8l-4.6-2.6c-0.8-0.5-1.5,0-1.5,1.1c0,1.1,0.7,2.3,1.5,2.8c0,0,0,0,0,0l60.4,34.4c0.8,0.5,1.5,0,1.5-1.1
		C1231.4,693.4,1230.7,692.1,1229.9,691.7z"/>
	<polygon clip-path="url(#SVGID_2_)" fill="#006079" points="1157.5,298 1177,304.5 1177,331.1 1177,332.6 1177,359.3 1138,382.4 
		1138,355.8 1138,354.3 1138,327.6 	"/>
	<polygon clip-path="url(#SVGID_2_)" fill="#23D1F9" points="1098,304.5 1098,331.1 1098,332.6 1098,359.3 1138,382.4 1138,355.8 
		1138,354.3 1138,327.6 	"/>
	<g clip-path="url(#SVGID_2_)">
		<polygon fill="#FFFFFF" points="1116.4,331.4 1111.4,328.5 1111.4,323.5 1116.4,326.4 		"/>
		<polygon fill="#FFFFFF" points="1123.5,335.5 1118.4,332.6 1118.4,327.6 1123.5,330.5 		"/>
		<polygon fill="#FFFFFF" points="1116.4,338.5 1111.4,335.6 1111.4,330.6 1116.4,333.5 		"/>
		<polygon fill="#FFFFFF" points="1123.5,342.6 1118.4,339.7 1118.4,334.7 1123.5,337.6 		"/>
	</g>
	<g clip-path="url(#SVGID_2_)">
		<polygon fill="#FFFFFF" points="1116.4,353.3 1111.4,350.3 1111.4,345.3 1116.4,348.2 		"/>
		<polygon fill="#FFFFFF" points="1123.5,357.3 1118.4,354.4 1118.4,349.4 1123.5,352.3 		"/>
		<polygon fill="#FFFFFF" points="1116.4,360.4 1111.4,357.5 1111.4,352.4 1116.4,355.3 		"/>
		<polygon fill="#FFFFFF" points="1123.5,364.5 1118.4,361.5 1118.4,356.5 1123.5,359.4 		"/>
	</g>
	<g clip-path="url(#SVGID_2_)">
		<polygon fill="#FFFFFF" points="1159.9,329.2 1164.9,326.3 1164.9,321.2 1159.9,324.1 		"/>
		<polygon fill="#FFFFFF" points="1152.8,333.3 1157.9,330.3 1157.9,325.3 1152.8,328.2 		"/>
		<polygon fill="#FFFFFF" points="1159.9,336.3 1164.9,333.4 1164.9,328.3 1159.9,331.2 		"/>
		<polygon fill="#FFFFFF" points="1152.8,340.4 1157.9,337.5 1157.9,332.4 1152.8,335.3 		"/>
	</g>
	<g clip-path="url(#SVGID_2_)">
		<polygon fill="#FFFFFF" points="1159.9,351 1164.9,348.1 1164.9,343 1159.9,346 		"/>
		<polygon fill="#FFFFFF" points="1152.8,355.1 1157.9,352.2 1157.9,347.1 1152.8,350 		"/>
		<polygon fill="#FFFFFF" points="1159.9,358.1 1164.9,355.2 1164.9,350.2 1159.9,353.1 		"/>
		<polygon fill="#FFFFFF" points="1152.8,362.2 1157.9,359.3 1157.9,354.2 1152.8,357.2 		"/>
	</g>
	<polygon clip-path="url(#SVGID_2_)" fill="#95DCEF" points="1098.2,304.5 1138.2,327.6 1157.7,298 1117.2,274.9 	"/>
	<polygon clip-path="url(#SVGID_2_)" fill="#80CDEB" points="1137,281.5 1177.2,304.5 1157.4,298 1117.3,274.9 	"/>
	
		<polyline clip-path="url(#SVGID_2_)" fill="none" stroke="#006079" stroke-width="6.2591" stroke-linecap="round" stroke-miterlimit="10" points="
		1130.7,426.5 1133.9,431.8 1134.3,444.4 	"/>
	
		<path clip-path="url(#SVGID_2_)" fill="none" stroke="#006079" stroke-width="4.1558" stroke-linecap="round" stroke-miterlimit="10" d="
		M1136.6,434.2c0,0,6.9-1.7,8.7-6.3"/>
	
		<path clip-path="url(#SVGID_2_)" fill="none" stroke="#006079" stroke-width="2.1459" stroke-linecap="round" stroke-miterlimit="10" d="
		M1126.5,437.7c0,0,2.2,2.3,7.1,3.8"/>
	<circle clip-path="url(#SVGID_2_)" fill="#80CDEB" cx="1128.9" cy="409.4" r="10.8"/>
	<circle clip-path="url(#SVGID_2_)" fill="#80CDEB" cx="1135.4" cy="420.4" r="11.4"/>
	<circle clip-path="url(#SVGID_2_)" fill="#80CDEB" cx="1138.2" cy="383.3" r="7.5"/>
	<circle clip-path="url(#SVGID_2_)" fill="#80CDEB" cx="1143.4" cy="405.3" r="9.3"/>
	<circle clip-path="url(#SVGID_2_)" fill="#80CDEB" cx="1151.5" cy="419.9" r="6.1"/>
	<circle clip-path="url(#SVGID_2_)" fill="#80CDEB" cx="1148.1" cy="413.3" r="6.1"/>
	<circle clip-path="url(#SVGID_2_)" fill="#80CDEB" cx="1122.8" cy="419.9" r="5.9"/>
	<circle clip-path="url(#SVGID_2_)" fill="#80CDEB" cx="1133.1" cy="393.9" r="8"/>
	<circle clip-path="url(#SVGID_2_)" fill="#80CDEB" cx="1142.5" cy="423.8" r="10"/>
	<circle clip-path="url(#SVGID_2_)" fill="#80CDEB" cx="1143.4" cy="393.1" r="6.7"/>
	<g clip-path="url(#SVGID_2_)">
		
			<line fill="none" stroke="#006079" stroke-width="7.0003" stroke-linecap="round" stroke-miterlimit="10" x1="1191.5" y1="385.2" x2="1191.5" y2="409.7"/>
		<path fill="none" stroke="#006079" stroke-width="4.266" stroke-linecap="round" stroke-miterlimit="10" d="M1193.6,395.9
			c0,0,4.9-4.3,7.6-12.7"/>
		<path fill="none" stroke="#006079" stroke-width="4.266" stroke-linecap="round" stroke-miterlimit="10" d="M1188.8,393
			c0,0-4.9-4.3-7.6-12.7"/>
		<path fill="none" stroke="#006079" stroke-width="2.4" stroke-linecap="round" stroke-miterlimit="10" d="M1183.1,396.4
			c0,0,2,3.1,6.5,5.2"/>
		<circle fill="#95DCEF" cx="1193.4" cy="371.8" r="15.2"/>
		<circle fill="#95DCEF" cx="1189.5" cy="363.6" r="10.4"/>
		<circle fill="#95DCEF" cx="1176.6" cy="373" r="9.4"/>
		<circle fill="#95DCEF" cx="1171.2" cy="382.1" r="6.5"/>
		<circle fill="#95DCEF" cx="1183" cy="381.6" r="8.1"/>
		<circle fill="#95DCEF" cx="1207.2" cy="375.4" r="8.1"/>
	</g>
	
		<line clip-path="url(#SVGID_2_)" fill="none" stroke="#006079" stroke-width="7.0003" stroke-linecap="round" stroke-miterlimit="10" x1="1076.5" y1="369.2" x2="1076.5" y2="393.7"/>
	
		<path clip-path="url(#SVGID_2_)" fill="none" stroke="#006079" stroke-width="4.266" stroke-linecap="round" stroke-miterlimit="10" d="
		M1078.6,379.9c0,0,4.9-4.3,7.6-12.7"/>
	
		<path clip-path="url(#SVGID_2_)" fill="none" stroke="#006079" stroke-width="4.266" stroke-linecap="round" stroke-miterlimit="10" d="
		M1073.8,377c0,0-4.9-4.3-7.6-12.7"/>
	
		<path clip-path="url(#SVGID_2_)" fill="none" stroke="#006079" stroke-width="2.4" stroke-linecap="round" stroke-miterlimit="10" d="
		M1068.1,380.4c0,0,2,3.1,6.5,5.2"/>
	<path clip-path="url(#SVGID_2_)" fill="#80CDEB" d="M1092.9,351.3c-1.5-4.7-5.2-8.5-10-9.9c-1.7-2.3-4.4-3.9-7.5-4.1
		c-5.7-0.4-10.7,3.8-11.2,9.6c0,0.4,0,0.8,0,1.2c-0.6-0.2-1.2-0.3-1.8-0.3c-5.2-0.4-9.7,3.5-10.1,8.6c-0.1,1.5,0.1,2.9,0.6,4.2
		c-1.8,1-3.1,2.9-3.3,5.1c-0.3,3.6,2.4,6.7,6,7c2.3,0.2,4.3-0.8,5.6-2.5c1.3,2,3.5,3.4,6.1,3.6c2.9,0.2,5.5-1.1,7.1-3.2
		c0.9,0.2,1.8,0.4,2.7,0.5c4.5,0.3,8.6-1.3,11.6-4.2c0.8,0.4,1.7,0.6,2.7,0.7c4.5,0.3,8.4-3,8.7-7.5
		C1100.6,355.5,1097.3,351.7,1092.9,351.3z"/>
	<g clip-path="url(#SVGID_2_)">
		<polyline fill="none" stroke="#006079" stroke-width="7.2714" stroke-linecap="round" stroke-miterlimit="10" points="
			1163.6,419.3 1166.7,426.9 1167,444.7 		"/>
		<path fill="none" stroke="#006079" stroke-width="4.3063" stroke-linecap="round" stroke-miterlimit="10" d="M1167.2,430.3
			c0,0,5.8-2.1,7.4-8"/>
		<path fill="none" stroke="#006079" stroke-width="2.4929" stroke-linecap="round" stroke-miterlimit="10" d="M1159.6,435.2
			c0,0,2.1,3.2,6.7,5.4"/>
		<circle fill="#95DCEF" cx="1164.2" cy="408.9" r="14.3"/>
		<circle fill="#95DCEF" cx="1164.2" cy="396.9" r="9.3"/>
		<circle fill="#95DCEF" cx="1175.9" cy="405.3" r="8.4"/>
		<circle fill="#95DCEF" cx="1184.2" cy="414.2" r="6.8"/>
		<circle fill="#95DCEF" cx="1154.1" cy="406.3" r="6.8"/>
		<circle fill="#95DCEF" cx="1175.2" cy="415.6" r="8.4"/>
		<circle fill="#95DCEF" cx="1150.5" cy="414.2" r="8.4"/>
	</g>
	<g clip-path="url(#SVGID_2_)">
		
			<line fill="none" stroke="#006079" stroke-width="7.0003" stroke-linecap="round" stroke-miterlimit="10" x1="1097.4" y1="442.2" x2="1097.4" y2="466.7"/>
		<path fill="none" stroke="#006079" stroke-width="4.266" stroke-linecap="round" stroke-miterlimit="10" d="M1095.3,452.9
			c0,0-4.9-4.3-7.6-12.7"/>
		<path fill="none" stroke="#006079" stroke-width="4.266" stroke-linecap="round" stroke-miterlimit="10" d="M1100.1,450
			c0,0,4.9-4.3,7.6-12.7"/>
		<path fill="none" stroke="#006079" stroke-width="2.4" stroke-linecap="round" stroke-miterlimit="10" d="M1105.8,453.4
			c0,0-2,3.1-6.5,5.2"/>
		<circle fill="#95DCEF" cx="1095.5" cy="428.8" r="15.2"/>
		<circle fill="#95DCEF" cx="1099.4" cy="420.6" r="10.4"/>
		<circle fill="#95DCEF" cx="1112.3" cy="430" r="9.4"/>
		<circle fill="#95DCEF" cx="1117.8" cy="439.1" r="6.5"/>
		<circle fill="#95DCEF" cx="1105.9" cy="438.6" r="8.1"/>
		<circle fill="#95DCEF" cx="1081.8" cy="432.4" r="8.1"/>
	</g>
	<g clip-path="url(#SVGID_2_)">
		<polyline fill="none" stroke="#006079" stroke-width="5.6921" stroke-linecap="round" stroke-miterlimit="10" points="1143.3,456 
			1146.2,460.8 1146.6,472.3 		"/>
		<path fill="none" stroke="#006079" stroke-width="3.7792" stroke-linecap="round" stroke-miterlimit="10" d="M1148.7,463
			c0,0,6.3-1.5,7.9-5.7"/>
		<path fill="none" stroke="#006079" stroke-width="1.9515" stroke-linecap="round" stroke-miterlimit="10" d="M1139.4,466.2
			c0,0,2,2.1,6.5,3.5"/>
		<circle fill="#95DCEF" cx="1141.7" cy="440.4" r="9.8"/>
		<circle fill="#95DCEF" cx="1147.6" cy="450.5" r="10.3"/>
		<circle fill="#95DCEF" cx="1150.1" cy="416.7" r="6.8"/>
		<circle fill="#95DCEF" cx="1154.9" cy="436.8" r="8.4"/>
		<circle fill="#95DCEF" cx="1162.2" cy="450" r="5.6"/>
		<circle fill="#95DCEF" cx="1159.2" cy="444" r="5.6"/>
		<circle fill="#95DCEF" cx="1136.1" cy="450" r="5.4"/>
		<circle fill="#95DCEF" cx="1145.5" cy="426.4" r="7.3"/>
		<circle fill="#95DCEF" cx="1154" cy="453.5" r="9.1"/>
		<circle fill="#95DCEF" cx="1154.9" cy="425.6" r="6.1"/>
	</g>
	<g clip-path="url(#SVGID_2_)">
		<polyline fill="none" stroke="#006079" stroke-width="7.2714" stroke-linecap="round" stroke-miterlimit="10" points="
			1223.6,420.3 1226.7,427.9 1227,445.7 		"/>
		<path fill="none" stroke="#006079" stroke-width="4.3063" stroke-linecap="round" stroke-miterlimit="10" d="M1227.2,431.3
			c0,0,5.8-2.1,7.4-8"/>
		<path fill="none" stroke="#006079" stroke-width="2.4929" stroke-linecap="round" stroke-miterlimit="10" d="M1219.6,436.2
			c0,0,2.1,3.2,6.7,5.4"/>
		<circle fill="#95DCEF" cx="1224.2" cy="409.9" r="14.3"/>
		<circle fill="#95DCEF" cx="1224.2" cy="397.9" r="9.3"/>
		<circle fill="#95DCEF" cx="1235.9" cy="406.3" r="8.4"/>
		<circle fill="#95DCEF" cx="1244.2" cy="415.2" r="6.8"/>
		<circle fill="#95DCEF" cx="1214.1" cy="407.3" r="6.8"/>
		<circle fill="#95DCEF" cx="1235.2" cy="416.6" r="8.4"/>
		<circle fill="#95DCEF" cx="1210.5" cy="415.2" r="8.4"/>
	</g>
	<g clip-path="url(#SVGID_2_)">
		<polygon fill="#006079" points="844,79.7 895,108.2 895,24.3 844,-4.1 		"/>
		<polygon fill="#FFFFFF" points="877.6,34.8 884.3,38.6 884.3,31 877.6,27.1 		"/>
		<polygon fill="#FFFFFF" points="866.3,28.2 872.9,32.1 872.9,24.4 866.3,20.6 		"/>
		<polygon fill="#FFFFFF" points="854.9,21.7 861.6,25.5 861.6,17.8 854.9,14 		"/>
		<polygon fill="#FFFFFF" points="877.6,47.8 884.3,51.6 884.3,44 877.6,40.1 		"/>
		<polygon fill="#FFFFFF" points="866.3,41.2 872.9,45.1 872.9,37.4 866.3,33.6 		"/>
		<polygon fill="#FFFFFF" points="854.9,34.7 861.6,38.5 861.6,30.8 854.9,27 		"/>
		<polygon fill="#FFFFFF" points="877.6,60.8 884.3,64.7 884.3,57 877.6,53.1 		"/>
		<polygon fill="#FFFFFF" points="866.3,54.3 872.9,58.1 872.9,50.4 866.3,46.6 		"/>
		<polygon fill="#FFFFFF" points="854.9,47.7 861.6,51.5 861.6,43.9 854.9,40 		"/>
		<polygon fill="#FFFFFF" points="877.6,73.8 884.3,77.7 884.3,70 877.6,66.1 		"/>
		<polygon fill="#FFFFFF" points="866.3,67.3 872.9,71.1 872.9,63.4 866.3,59.6 		"/>
		<polygon fill="#FFFFFF" points="854.9,60.7 861.6,64.6 861.6,56.9 854.9,53 		"/>
		<polygon fill="#FFFFFF" points="877.6,86.8 884.3,90.7 884.3,83 877.6,79.2 		"/>
		<polygon fill="#FFFFFF" points="866.3,80.3 872.9,84.1 872.9,76.4 866.3,72.6 		"/>
		<polygon fill="#FFFFFF" points="854.9,73.7 861.6,77.6 861.6,69.9 854.9,66 		"/>
		<polygon fill="#23D1F9" points="944,79.7 895,108.2 895,24.3 944,-4.1 		"/>
		<polygon fill="#FFFFFF" points="910.7,34.8 904,38.6 904,31 910.7,27.1 		"/>
		<polygon fill="#FFFFFF" points="922,28.2 915.4,32.1 915.4,24.4 922,20.6 		"/>
		<polygon fill="#FFFFFF" points="933.4,21.7 926.7,25.5 926.7,17.8 933.4,14 		"/>
		<polygon fill="#FFFFFF" points="910.7,47.8 904,51.6 904,44 910.7,40.1 		"/>
		<polygon fill="#FFFFFF" points="922,41.2 915.4,45.1 915.4,37.4 922,33.6 		"/>
		<polygon fill="#FFFFFF" points="933.4,34.7 926.7,38.5 926.7,30.8 933.4,27 		"/>
		<polygon fill="#FFFFFF" points="910.7,60.8 904,64.7 904,57 910.7,53.1 		"/>
		<polygon fill="#FFFFFF" points="922,54.3 915.4,58.1 915.4,50.4 922,46.6 		"/>
		<polygon fill="#FFFFFF" points="933.4,47.7 926.7,51.5 926.7,43.9 933.4,40 		"/>
		<polygon fill="#FFFFFF" points="910.7,73.8 904,77.7 904,70 910.7,66.1 		"/>
		<polygon fill="#FFFFFF" points="922,67.3 915.4,71.1 915.4,63.4 922,59.6 		"/>
		<polygon fill="#FFFFFF" points="933.4,60.7 926.7,64.6 926.7,56.9 933.4,53 		"/>
		<polygon fill="#FFFFFF" points="910.7,86.8 904,90.7 904,83 910.7,79.2 		"/>
		<polygon fill="#FFFFFF" points="922,80.3 915.4,84.1 915.4,76.4 922,72.6 		"/>
		<polygon fill="#FFFFFF" points="933.4,73.7 926.7,77.6 926.7,69.9 933.4,66 		"/>
		<polygon fill="#80CDEB" points="893.8,-32.5 943.8,-4.1 894.8,24.3 843.8,-4.1 		"/>
	</g>
	<g clip-path="url(#SVGID_2_)">
		<polygon fill="#006079" points="923,110.3 978,142 978,-23.4 923,-55.1 		"/>
		<polygon fill="#FFFFFF" points="959.2,-11.7 966.6,-7.5 966.6,-16 959.2,-20.3 		"/>
		<polygon fill="#FFFFFF" points="946.6,-19 954,-14.7 954,-23.3 946.6,-27.6 		"/>
		<polygon fill="#FFFFFF" points="934,-26.3 941.4,-22 941.4,-30.6 934,-34.9 		"/>
		<polygon fill="#FFFFFF" points="959.2,2.7 966.6,7 966.6,-1.5 959.2,-5.8 		"/>
		<polygon fill="#FFFFFF" points="946.6,-4.5 954,-0.3 954,-8.8 946.6,-13.1 		"/>
		<polygon fill="#FFFFFF" points="934,-11.8 941.4,-7.6 941.4,-16.1 934,-20.4 		"/>
		<polygon fill="#FFFFFF" points="959.2,17.2 966.6,21.5 966.6,13 959.2,8.7 		"/>
		<polygon fill="#FFFFFF" points="946.6,9.9 954,14.2 954,5.7 946.6,1.4 		"/>
		<polygon fill="#FFFFFF" points="934,2.6 941.4,6.9 941.4,-1.6 934,-5.9 		"/>
		<polygon fill="#FFFFFF" points="959.2,31.7 966.6,36 966.6,27.4 959.2,23.2 		"/>
		<polygon fill="#FFFFFF" points="946.6,24.4 954,28.7 954,20.1 946.6,15.9 		"/>
		<polygon fill="#FFFFFF" points="934,17.1 941.4,21.4 941.4,12.8 934,8.6 		"/>
		<polygon fill="#FFFFFF" points="959.2,46.2 966.6,50.4 966.6,41.9 959.2,37.6 		"/>
		<polygon fill="#FFFFFF" points="946.6,38.9 954,43.2 954,34.6 946.6,30.3 		"/>
		<polygon fill="#FFFFFF" points="934,31.6 941.4,35.9 941.4,27.3 934,23 		"/>
		<polygon fill="#FFFFFF" points="959.2,60.8 966.6,65.1 966.6,56.6 959.2,52.3 		"/>
		<polygon fill="#FFFFFF" points="946.6,53.6 954,57.8 954,49.3 946.6,45 		"/>
		<polygon fill="#FFFFFF" points="934,46.3 941.4,50.5 941.4,42 934,37.7 		"/>
		<polygon fill="#FFFFFF" points="959.2,89.8 966.6,94.1 966.6,85.5 959.2,81.3 		"/>
		<polygon fill="#FFFFFF" points="946.6,82.5 954,86.8 954,78.2 946.6,74 		"/>
		<polygon fill="#FFFFFF" points="934,75.2 941.4,79.5 941.4,70.9 934,66.7 		"/>
		<polygon fill="#FFFFFF" points="959.2,104.3 966.6,108.5 966.6,100 959.2,95.7 		"/>
		<polygon fill="#FFFFFF" points="946.6,97 954,101.3 954,92.7 946.6,88.4 		"/>
		<polygon fill="#FFFFFF" points="934,89.7 941.4,94 941.4,85.4 934,81.1 		"/>
		<polygon fill="#FFFFFF" points="959.2,118.8 966.6,123 966.6,114.5 959.2,110.2 		"/>
		<polygon fill="#FFFFFF" points="946.6,111.5 954,115.7 954,107.2 946.6,102.9 		"/>
		<polygon fill="#FFFFFF" points="934,104.2 941.4,108.4 941.4,99.9 934,95.6 		"/>
		<polygon fill="#23D1F9" points="1032,110.3 978,142 978,-23.4 1032,-55.1 		"/>
		<g>
			<polygon fill="#FFFFFF" points="996,-11.7 988.6,-7.5 988.6,-16 996,-20.3 			"/>
			<polygon fill="#FFFFFF" points="1008.6,-19 1001.2,-14.7 1001.2,-23.3 1008.6,-27.6 			"/>
			<polygon fill="#FFFFFF" points="1021.3,-26.3 1013.9,-22 1013.9,-30.6 1021.3,-34.9 			"/>
			<polygon fill="#FFFFFF" points="996,2.7 988.6,7 988.6,-1.5 996,-5.8 			"/>
			<polygon fill="#FFFFFF" points="1008.6,-4.5 1001.2,-0.3 1001.2,-8.8 1008.6,-13.1 			"/>
			<polygon fill="#FFFFFF" points="1021.3,-11.8 1013.9,-7.6 1013.9,-16.1 1021.3,-20.4 			"/>
			<polygon fill="#FFFFFF" points="996,17.2 988.6,21.5 988.6,13 996,8.7 			"/>
			<polygon fill="#FFFFFF" points="1008.6,9.9 1001.2,14.2 1001.2,5.7 1008.6,1.4 			"/>
			<polygon fill="#FFFFFF" points="1021.3,2.6 1013.9,6.9 1013.9,-1.6 1021.3,-5.9 			"/>
			<polygon fill="#FFFFFF" points="996,31.7 988.6,36 988.6,27.4 996,23.2 			"/>
			<polygon fill="#FFFFFF" points="1008.6,24.4 1001.2,28.7 1001.2,20.1 1008.6,15.9 			"/>
			<polygon fill="#FFFFFF" points="1021.3,17.1 1013.9,21.4 1013.9,12.8 1021.3,8.6 			"/>
			<polygon fill="#FFFFFF" points="996,46.2 988.6,50.4 988.6,41.9 996,37.6 			"/>
			<polygon fill="#FFFFFF" points="1008.6,38.9 1001.2,43.2 1001.2,34.6 1008.6,30.3 			"/>
			<polygon fill="#FFFFFF" points="1021.3,31.6 1013.9,35.9 1013.9,27.3 1021.3,23 			"/>
		</g>
		<g>
			<polygon fill="#FFFFFF" points="996,61.3 988.6,65.6 988.6,57.1 996,52.8 			"/>
			<polygon fill="#FFFFFF" points="1008.6,54 1001.2,58.3 1001.2,49.8 1008.6,45.5 			"/>
			<polygon fill="#FFFFFF" points="1021.3,46.7 1013.9,51 1013.9,42.5 1021.3,38.2 			"/>
			<polygon fill="#FFFFFF" points="996,75.8 988.6,80.1 988.6,71.5 996,67.3 			"/>
			<polygon fill="#FFFFFF" points="1008.6,68.5 1001.2,72.8 1001.2,64.2 1008.6,60 			"/>
			<polygon fill="#FFFFFF" points="1021.3,61.2 1013.9,65.5 1013.9,56.9 1021.3,52.7 			"/>
			<polygon fill="#FFFFFF" points="996,90.3 988.6,94.6 988.6,86 996,81.7 			"/>
			<polygon fill="#FFFFFF" points="1008.6,83 1001.2,87.3 1001.2,78.7 1008.6,74.4 			"/>
			<polygon fill="#FFFFFF" points="1021.3,75.7 1013.9,80 1013.9,71.4 1021.3,67.1 			"/>
			<polygon fill="#FFFFFF" points="996,104.8 988.6,109 988.6,100.5 996,96.2 			"/>
			<polygon fill="#FFFFFF" points="1008.6,97.5 1001.2,101.7 1001.2,93.2 1008.6,88.9 			"/>
			<polygon fill="#FFFFFF" points="1021.3,90.2 1013.9,94.4 1013.9,85.9 1021.3,81.6 			"/>
			<polygon fill="#FFFFFF" points="996,119.2 988.6,123.5 988.6,115 996,110.7 			"/>
			<polygon fill="#FFFFFF" points="1008.6,111.9 1001.2,116.2 1001.2,107.7 1008.6,103.4 			"/>
			<polygon fill="#FFFFFF" points="1021.3,104.6 1013.9,108.9 1013.9,100.4 1021.3,96.1 			"/>
		</g>
		<polygon fill="#80CDEB" points="977.3,-86.6 1031.8,-55.1 977.8,-23.4 922.8,-55.1 		"/>
	</g>
	<g clip-path="url(#SVGID_2_)">
		<polygon fill="#23D1F9" points="1157.2,112.3 1032.4,184.3 1032.4,99.6 1157.2,27.6 		"/>
		<g>
			<polygon fill="#FFFFFF" points="1047.1,116.9 1041,120.5 1041,107.6 1047.1,104 			"/>
			<polygon fill="#FFFFFF" points="1059.8,109.6 1053.7,113.2 1053.7,100.3 1059.8,96.7 			"/>
			<polygon fill="#FFFFFF" points="1072.5,102.3 1066.3,105.8 1066.3,92.9 1072.5,89.4 			"/>
			<polygon fill="#FFFFFF" points="1085.2,95 1079,98.5 1079,85.6 1085.2,82.1 			"/>
			<polygon fill="#FFFFFF" points="1097.9,87.6 1091.7,91.2 1091.7,78.3 1097.9,74.7 			"/>
			<polygon fill="#FFFFFF" points="1110.6,80.3 1104.4,83.8 1104.4,71 1110.6,67.4 			"/>
			<polygon fill="#FFFFFF" points="1123.2,73 1117.1,76.5 1117.1,63.6 1123.2,60.1 			"/>
			<polygon fill="#FFFFFF" points="1135.9,65.6 1129.8,69.2 1129.8,56.3 1135.9,52.8 			"/>
			<polygon fill="#FFFFFF" points="1148.6,58.3 1142.5,61.9 1142.5,49 1148.6,45.4 			"/>
			<polygon fill="#FFFFFF" points="1047.1,137.1 1041,140.7 1041,127.8 1047.1,124.2 			"/>
			<polygon fill="#FFFFFF" points="1059.8,129.8 1053.7,133.3 1053.7,120.4 1059.8,116.9 			"/>
			<polygon fill="#FFFFFF" points="1072.5,122.5 1066.3,126 1066.3,113.1 1072.5,109.6 			"/>
			<polygon fill="#FFFFFF" points="1085.2,115.1 1079,118.7 1079,105.8 1085.2,102.2 			"/>
			<polygon fill="#FFFFFF" points="1097.9,107.8 1091.7,111.3 1091.7,98.5 1097.9,94.9 			"/>
			<polygon fill="#FFFFFF" points="1110.6,100.5 1104.4,104 1104.4,91.1 1110.6,87.6 			"/>
			<polygon fill="#FFFFFF" points="1123.2,93.1 1117.1,96.7 1117.1,83.8 1123.2,80.3 			"/>
			<polygon fill="#FFFFFF" points="1135.9,85.8 1129.8,89.4 1129.8,76.5 1135.9,72.9 			"/>
			<polygon fill="#FFFFFF" points="1148.6,78.5 1142.5,82 1142.5,69.1 1148.6,65.6 			"/>
			<polygon fill="#FFFFFF" points="1047.1,158 1041,161.5 1041,148.6 1047.1,145.1 			"/>
			<polygon fill="#FFFFFF" points="1059.8,150.6 1053.7,154.2 1053.7,141.3 1059.8,137.7 			"/>
			<polygon fill="#FFFFFF" points="1072.5,143.3 1066.3,146.8 1066.3,134 1072.5,130.4 			"/>
			<polygon fill="#FFFFFF" points="1085.2,136 1079,139.5 1079,126.6 1085.2,123.1 			"/>
			<polygon fill="#FFFFFF" points="1097.9,128.6 1091.7,132.2 1091.7,119.3 1097.9,115.7 			"/>
			<polygon fill="#FFFFFF" points="1110.6,121.3 1104.4,124.9 1104.4,112 1110.6,108.4 			"/>
			<polygon fill="#FFFFFF" points="1123.2,114 1117.1,117.5 1117.1,104.6 1123.2,101.1 			"/>
			<polygon fill="#FFFFFF" points="1135.9,106.7 1129.8,110.2 1129.8,97.3 1135.9,93.8 			"/>
			<polygon fill="#FFFFFF" points="1148.6,99.3 1142.5,102.9 1142.5,90 1148.6,86.4 			"/>
		</g>
		<polygon fill="#006079" points="996.4,163.2 1032.4,184 1032.4,99.4 996.4,78.6 		"/>
		<g>
			<polygon fill="#FFFFFF" points="1017.8,116.7 1011.6,113.1 1011.6,100.2 1017.8,103.8 			"/>
			<polygon fill="#FFFFFF" points="1017.8,136.8 1011.6,133.3 1011.6,120.4 1017.8,124 			"/>
			<polygon fill="#FFFFFF" points="1017.8,157.7 1011.6,154.1 1011.6,141.2 1017.8,144.8 			"/>
		</g>
		<polygon fill="#80CDEB" points="1157.2,27.6 1032.4,99.6 996.4,78.6 1121.1,6.2 		"/>
	</g>
	<path clip-path="url(#SVGID_2_)" fill="#80CDEB" d="M949.3,130.9c0.3-3.3,3.1-5.8,6.4-5.6c-0.2-0.8-0.3-1.7-0.3-2.6
		c0.3-4.2,4-7.3,8.1-7c0.5,0,1,0.1,1.5,0.3c0-0.3,0-0.6,0-0.9c0.4-4.6,4.4-8.1,9-7.7c4.6,0.4,8.1,4.4,7.7,9c0,0.1,0,0.2,0,0.3
		c0.6,0.5,1.1,1,1.5,1.5c3.1,0.4,5.4,3.1,5.4,6.2c3,1.2,5,4.3,4.7,7.6c-0.3,4.2-4,7.3-8.2,7c-1.7-0.1-3.2-0.8-4.4-1.8
		c-2.4,1.7-5.3,2.5-8.4,2.3c-1.4-0.1-2.8-0.5-4-1c-1.5,1.2-3.4,1.9-5.5,1.8c-2.3-0.2-4.3-1.4-5.5-3.1c-0.8,0.3-1.6,0.4-2.5,0.3
		C951.6,137.3,949.1,134.3,949.3,130.9z"/>
	<g clip-path="url(#SVGID_2_)">
		<line fill="none" stroke="#FFFFFF" stroke-linejoin="round" stroke-miterlimit="10" x1="749.5" y1="170" x2="749.5" y2="139"/>
		<polygon fill="#006079" points="730,110.9 711,116.9 711,142.1 711,143.5 711,148.4 749,170.3 749,165.4 749,163.9 749,138.8 		
			"/>
		<line fill="#006079" x1="749" y1="165" x2="749" y2="139"/>
		<polygon fill="#23D1F9" points="787,116.9 787,142.1 787,143.5 787,148.4 749,170.3 749,165.4 749,163.9 749,138.8 		"/>
		<g>
			<polygon fill="#FFFFFF" points="768.9,142.4 773.6,139.6 773.6,134.9 768.9,137.6 			"/>
			<polygon fill="#FFFFFF" points="762.2,146.2 767,143.5 767,138.7 762.2,141.5 			"/>
			<polygon fill="#FFFFFF" points="768.9,149.1 773.6,146.3 773.6,141.6 768.9,144.3 			"/>
			<polygon fill="#FFFFFF" points="762.2,152.9 767,150.2 767,145.4 762.2,148.2 			"/>
		</g>
		<g>
			<polygon fill="#FFFFFF" points="727.8,140.2 723.1,137.5 723.1,132.7 727.8,135.5 			"/>
			<polygon fill="#FFFFFF" points="734.5,144.1 729.8,141.4 729.8,136.6 734.5,139.3 			"/>
			<polygon fill="#FFFFFF" points="727.8,146.9 723.1,144.2 723.1,139.4 727.8,142.2 			"/>
			<polygon fill="#FFFFFF" points="734.5,150.8 729.8,148.1 729.8,143.3 734.5,146 			"/>
		</g>
		<polygon fill="#80CDEB" points="787.1,116.9 749.1,139 730.1,110.9 768.1,89 		"/>
		<polygon fill="#95DCEF" points="749.4,95.2 711.6,117.1 730.2,110.9 768,89 		"/>
	</g>
	<g clip-path="url(#SVGID_2_)">
		
			<line fill="none" stroke="#006079" stroke-width="7.0003" stroke-linecap="round" stroke-miterlimit="10" x1="694.9" y1="108.2" x2="694.9" y2="132.7"/>
		<path fill="none" stroke="#006079" stroke-width="4.266" stroke-linecap="round" stroke-miterlimit="10" d="M697,118.9
			c0,0,4.9-4.3,7.6-12.7"/>
		<path fill="none" stroke="#006079" stroke-width="4.266" stroke-linecap="round" stroke-miterlimit="10" d="M692.2,116
			c0,0-4.9-4.3-7.6-12.7"/>
		<path fill="none" stroke="#006079" stroke-width="2.4" stroke-linecap="round" stroke-miterlimit="10" d="M686.5,119.4
			c0,0,2,3.1,6.5,5.2"/>
		<circle fill="#95DCEF" cx="696.8" cy="94.8" r="15.2"/>
		<circle fill="#95DCEF" cx="692.9" cy="86.6" r="10.4"/>
		<circle fill="#95DCEF" cx="680" cy="96" r="9.4"/>
		<circle fill="#95DCEF" cx="674.5" cy="105.1" r="6.5"/>
		<circle fill="#95DCEF" cx="686.4" cy="104.6" r="8.1"/>
		<circle fill="#95DCEF" cx="710.5" cy="98.4" r="8.1"/>
	</g>
</g>
</svg>
