<?xml version="1.0" encoding="utf-8"?>
<!-- Generator: Adobe Illustrator 18.1.1, SVG Export Plug-In . SVG Version: 6.00 Build 0)  -->
<svg version="1.1" xmlns="http://www.w3.org/2000/svg" xmlns:xlink="http://www.w3.org/1999/xlink" x="0px" y="0px"
	 viewBox="0 0 283.5 283.5" enable-background="new 0 0 283.5 283.5" xml:space="preserve">
<g id="Calque_2">
</g>
<g id="Calque_1">
	
		<line fill="none" stroke="#FFFFFF" stroke-width="5" stroke-linejoin="round" stroke-miterlimit="10" x1="131.5" y1="246" x2="131.5" y2="165"/>
	<polygon fill="none" stroke="#006179" stroke-width="7" stroke-linejoin="round" stroke-miterlimit="10" points="80.5,93.4 
		30.5,109.2 30.5,174.1 30.5,177.9 30.5,190.6 130.5,247.1 130.5,234.4 130.5,230.7 130.5,165.7 	"/>
	<line fill="#296664" x1="131" y1="235" x2="131" y2="165"/>
	<polyline fill="none" stroke="#006179" stroke-width="7" stroke-linejoin="round" stroke-miterlimit="10" points="213.8,199 
		130.5,247.1 130.5,234.4 130.5,230.7 130.5,165.7 227.5,109.2 227.5,128 	"/>
	<g>
		<polygon fill="#006179" points="181.9,175 194.2,167.9 194.2,155.6 181.9,162.7 		"/>
		<polygon fill="#006179" points="166.7,184.9 179,177.8 179,165.5 166.7,172.6 		"/>
		<polygon fill="#006179" points="181.9,192.3 194.2,185.2 194.2,172.9 181.9,180 		"/>
		<polygon fill="#006179" points="166.7,202.3 179,195.2 179,182.9 166.7,190 		"/>
	</g>
	<g>
		<polygon fill="#006179" points="75.7,169.4 63.4,162.3 63.4,150 75.7,157.1 		"/>
		<polygon fill="#006179" points="93,179.4 80.7,172.3 80.7,160 93,167.1 		"/>
		<polygon fill="#006179" points="75.7,186.8 63.4,179.7 63.4,167.4 75.7,174.5 		"/>
		<polygon fill="#006179" points="93,196.8 80.7,189.7 80.7,177.4 93,184.5 		"/>
	</g>
	<polygon fill="none" stroke="#006179" stroke-width="4.5132" stroke-linejoin="round" stroke-miterlimit="10" points="228.3,109.1 
		130.4,165.6 82,93.4 179.9,36.9 	"/>
	<polygon fill="none" stroke="#006179" stroke-width="4.5132" stroke-linejoin="round" stroke-miterlimit="10" points="131.5,53.1 
		30.6,109.2 80.6,93.4 179.6,36.9 	"/>
	<path fill="#006179" d="M256.1,197.3l-6.8-37.5c-0.6-3.3-3.9-5.7-7.2-5.3l-2.3,0.1l-0.2,0c0,0-0.1,0-0.1,0h-4.1
		c-1,0-1.8-0.8-1.8-1.8l0,0c0-0.6,0.3-1.2,0.9-1.5c3.6-2.4,6.6-6.5,6.6-11.7c0-7.7-6.2-13.9-13.8-13.9c-7.8,0-14.4,6.4-14.4,13.9
		c0,4.8,2.3,9.1,6,11.7c0.5,0.3,0.8,0.9,0.8,1.5v0c0,1-0.8,1.8-1.8,1.8h-4.1c0,0-0.1,0-0.1,0l0,0l-2.2-0.1c-3.3-0.4-6.6,2-7.2,5.3
		l-6.8,37.5c-0.3,1.7,0.1,3.5,1,4.9c0.9,1.2,2.1,2,3.5,2.2c0.2,0,0.5,0.1,0.7,0.1c2.8,0,5.3-2.3,5.8-5.4l3.2-20.4v57.2
		c0,2.1,1.7,3.8,3.8,3.8h4.3c2.1,0,3.8-1.7,3.8-3.8v-28c0-1,0.8-1.8,1.8-1.8h2.3c1,0,1.8,0.8,1.8,1.8v28c0,2.1,1.7,3.8,3.8,3.8h4.3
		c2.1,0,3.8-1.7,3.8-3.8v-56v-2.4l0.3,1.1l3.2,20.4c0.5,3.1,3,5.4,5.8,5.4c0.2,0,0.5,0,0.7-0.1c1.4-0.2,2.7-1,3.5-2.2
		C256.1,200.8,256.5,199,256.1,197.3z M251.9,199.8c-0.2,0.2-0.4,0.5-0.9,0.6c-0.9,0.1-1.9-0.8-2.1-2l-5.5-28.3
		c-1-4.3-2.2-5.4-3.8-5.7c-1.1-0.2-2.1,0.7-2.1,1.8v67.7c0,1-0.8,1.8-1.8,1.8h-0.3c-1,0-1.8-0.8-1.8-1.8v-28c0-2.1-1.7-3.8-3.8-3.8
		h-6.3c-2.1,0-3.8,1.7-3.8,3.8v28c0,1-0.8,1.8-1.8,1.8h-0.3c-1,0-1.8-0.8-1.8-1.8v-67.7c0-1.1-1-2-2.1-1.8c-1.4,0.3-2.5,1.4-3.4,5.7
		l-5.5,28.3c-0.2,1.2-1.2,2.2-2.1,2c-0.4-0.1-0.7-0.3-0.9-0.6c-0.3-0.5-0.5-1.2-0.4-1.8l6.8-37.5c0.2-1.2,1.4-2.1,2.6-2.1
		c0.1,0,3,0.1,3,0.1h4.8h1.3c2.1,0,3.8-1.7,3.8-3.8v-3.3c0-1.3-0.8-2.4-1.9-3.1c-3-1.7-5-5.2-5-8.8c0-5.4,4.8-9.9,10.4-9.9
		c5.4,0,9.9,4.5,9.9,9.9c0,4-2.8,7.3-5.6,8.9c-1.2,0.7-1.9,1.9-1.9,3.3l0,4.9c0,0.9,0.6,1.7,1.5,1.9c0,0,3.4,0.1,3.4,0.1h5l2.9-0.1
		c0.1,0,0.3,0,0.4,0c1.2,0,2.3,0.9,2.6,2.1l6.8,37.5C252.4,198.7,252.3,199.3,251.9,199.8z"/>
</g>
</svg>
