<?xml version="1.0" encoding="utf-8"?>
<!-- Generator: Adobe Illustrator 18.1.1, SVG Export Plug-In . SVG Version: 6.00 Build 0)  -->
<svg version="1.1" xmlns="http://www.w3.org/2000/svg" xmlns:xlink="http://www.w3.org/1999/xlink" x="0px" y="0px"
	 viewBox="0 0 283.5 283.5" enable-background="new 0 0 283.5 283.5" xml:space="preserve">
<g id="Calque_2">
</g>
<g id="Calque_1">
	<g>
		
			<line fill="none" stroke="#006179" stroke-width="4.3156" stroke-linecap="round" stroke-linejoin="round" stroke-miterlimit="10" x1="378" y1="170.4" x2="385.9" y2="178.3"/>
		
			<line fill="none" stroke="#006179" stroke-width="4.3156" stroke-linecap="round" stroke-linejoin="round" stroke-miterlimit="10" x1="393.8" y1="170.4" x2="385.9" y2="178.3"/>
	</g>
	
		<line fill="none" stroke="#006179" stroke-width="4.2796" stroke-linecap="round" stroke-linejoin="round" stroke-miterlimit="10" x1="134" y1="205.7" x2="134" y2="259.3"/>
	
		<line fill="none" stroke="#FFFFFF" stroke-width="3" stroke-linejoin="round" stroke-miterlimit="10" x1="89.5" y1="179" x2="89.5" y2="126"/>
	<polygon fill="none" stroke="#006179" stroke-width="5" stroke-linejoin="round" stroke-miterlimit="10" points="56,77.5 
		22.5,88.1 22.5,131.7 22.5,134.2 22.5,142.7 89.5,180.6 89.5,172.1 89.5,169.6 89.5,126 	"/>
	<line fill="#296664" x1="90" y1="173" x2="90" y2="126"/>
	<polygon fill="none" stroke="#006179" stroke-width="5" stroke-linejoin="round" stroke-miterlimit="10" points="154.5,88.1 
		154.5,131.7 154.5,134.2 154.5,142.7 89.5,180.6 89.5,172.1 89.5,169.6 89.5,126 	"/>
	<g>
		<polygon fill="#006179" points="123.1,132.2 131.3,127.4 131.3,119.2 123.1,124 		"/>
		<polygon fill="#006179" points="112.9,138.9 121.1,134.1 121.1,125.9 112.9,130.7 		"/>
		<polygon fill="#006179" points="123.1,143.8 131.3,139.1 131.3,130.8 123.1,135.6 		"/>
		<polygon fill="#006179" points="112.9,150.5 121.1,145.8 121.1,137.5 112.9,142.3 		"/>
	</g>
	<g>
		<polygon fill="#006179" points="51.8,128.5 43.6,123.7 43.6,115.5 51.8,120.3 		"/>
		<polygon fill="#006179" points="63.4,135.2 55.2,130.4 55.2,122.2 63.4,126.9 		"/>
		<polygon fill="#006179" points="51.8,140.1 43.6,135.4 43.6,127.1 51.8,131.9 		"/>
		<polygon fill="#006179" points="63.4,146.8 55.2,142.1 55.2,133.8 63.4,138.6 		"/>
	</g>
	<polygon fill="none" stroke="#006179" stroke-width="3.0278" stroke-linejoin="round" stroke-miterlimit="10" points="154.2,88 
		88.5,126 56,77.5 121.7,39.6 	"/>
	<polygon fill="none" stroke="#006179" stroke-width="3.0278" stroke-linejoin="round" stroke-miterlimit="10" points="89.3,50.4 
		21.6,88.1 55.1,77.5 121.6,39.6 	"/>
	<g>
		<path fill="#006179" d="M252.5,55.2c-0.1-0.1-0.1-0.1-0.3-0.1l-21.8-32.6c-0.2-0.3-0.5-0.4-0.8-0.4c0,0-0.1,0-0.1,0c0,0,0,0,0,0
			c-0.1,0-0.2,0-0.3,0l-22.2,7.5c-0.1,0-0.1,0-0.2,0.1l-43.3,24.1l-4.5,1.4c-0.6,0.2-0.9,0.7-0.9,1.4V94c0,0.5-0.1,1,0.3,1.2
			l46.7,26.1V121h0.6l0,0.2c0.1,0,0.1,0.2,0.2,0.2c0,0,0.1,0.1,0.1,0.1c0.1,0,0.2,0.1,0.4,0.1c0.1,0,0.2,0,0.4,0c0,0,0.1,0,0.1,0
			c0.1,0,0.2-0.1,0.3-0.1l45.5-26.1c0.4-0.3,0.5-0.7,0.5-1.2V56.4C253,55.9,252.9,55.4,252.5,55.2z M206.7,80.7l-0.5-0.7l-20.4-30.5
			l43.5-25.1l21,31.3L206.7,80.7z M207.6,31.4l12-4L183.6,48c-0.4-0.2-0.8-0.3-1.2-0.2l-9.3,2.9L207.6,31.4z M161,57.5L161,57.5
			C161,57.4,160.9,57.4,161,57.5l0.3-0.2l20.9-6.5L205,83v34.8l-44-24.6V57.5z M251,93.2l-43,23.7V83h0.5L251,58.9V93.2z"/>
		<polygon fill="#006179" points="236,77.9 231,81.1 231,86.8 236,83.5 		"/>
		<polygon fill="#006179" points="230,82.5 224,85.7 224,91.4 230,88.1 		"/>
		<polygon fill="#006179" points="236,85.9 231,89.2 231,94.8 236,91.6 		"/>
		<polygon fill="#006179" points="230,90.5 224,93.8 224,99.4 230,96.2 		"/>
		<polygon fill="#006179" points="177,81 183,84.3 183,78.6 177,75.3 		"/>
		<polygon fill="#006179" points="184,85.6 189,88.9 189,83.2 184,79.9 		"/>
		<polygon fill="#006179" points="177,89 183,92.3 183,86.6 177,83.3 		"/>
		<polygon fill="#006179" points="184,93.6 189,96.9 189,91.2 184,87.9 		"/>
	</g>
	
		<path fill="none" stroke="#006179" stroke-width="4.2796" stroke-linecap="round" stroke-linejoin="round" stroke-miterlimit="10" d="
		M230.9,130c0.4,2.2,0.6,4.5,0.6,6.8c0,21.5-17.4,38.8-38.8,38.8c-11.5,0-21.8-5-28.9-12.9"/>
	<g>
		
			<line fill="none" stroke="#006179" stroke-width="4.2796" stroke-linecap="round" stroke-linejoin="round" stroke-miterlimit="10" x1="173.9" y1="161.2" x2="162.8" y2="161.9"/>
		
			<line fill="none" stroke="#006179" stroke-width="4.2796" stroke-linecap="round" stroke-linejoin="round" stroke-miterlimit="10" x1="163.4" y1="172.9" x2="162.8" y2="161.9"/>
	</g>
	<g>
		
			<line fill="none" stroke="#006179" stroke-width="4.2796" stroke-linecap="round" stroke-linejoin="round" stroke-miterlimit="10" x1="239" y1="130.5" x2="229.3" y2="125.1"/>
		
			<line fill="none" stroke="#006179" stroke-width="4.2796" stroke-linecap="round" stroke-linejoin="round" stroke-miterlimit="10" x1="223.9" y1="134.8" x2="229.3" y2="125.1"/>
	</g>
	<g>
		
			<line fill="none" stroke="#006179" stroke-width="4.28" stroke-linecap="round" stroke-linejoin="round" stroke-miterlimit="10" x1="128.1" y1="254.1" x2="134" y2="260"/>
		
			<line fill="none" stroke="#006179" stroke-width="4.28" stroke-linecap="round" stroke-linejoin="round" stroke-miterlimit="10" x1="139.9" y1="254.1" x2="134" y2="260"/>
	</g>
</g>
</svg>
