<?xml version="1.0" encoding="utf-8"?>
<!-- Generator: Adobe Illustrator 18.1.1, SVG Export Plug-In . SVG Version: 6.00 Build 0)  -->
<svg version="1.1" xmlns="http://www.w3.org/2000/svg" xmlns:xlink="http://www.w3.org/1999/xlink" x="0px" y="0px"
	 viewBox="0 0 283.5 283.5" enable-background="new 0 0 283.5 283.5" xml:space="preserve">
<g id="Calque_2">
</g>
<g id="Calque_1">
	<g>
		
			<line fill="none" stroke="#006179" stroke-width="4.8945" stroke-linecap="round" stroke-linejoin="round" stroke-miterlimit="10" x1="128.8" y1="254.5" x2="137.8" y2="263.5"/>
		
			<line fill="none" stroke="#006179" stroke-width="4.8945" stroke-linecap="round" stroke-linejoin="round" stroke-miterlimit="10" x1="146.8" y1="254.5" x2="137.8" y2="263.5"/>
	</g>
	<g>
		<g>
			
				<line fill="none" stroke="#006179" stroke-width="4.8945" stroke-linecap="round" stroke-linejoin="round" x1="137.8" y1="157.2" x2="137.8" y2="161.3"/>
			
				<line fill="none" stroke="#006179" stroke-width="4.8945" stroke-linecap="round" stroke-linejoin="round" stroke-dasharray="8.474,8.474,8.474,8.474" x1="137.8" y1="169.7" x2="137.8" y2="199.4"/>
			
				<line fill="none" stroke="#006179" stroke-width="4.8945" stroke-linecap="round" stroke-linejoin="round" stroke-dasharray="8.474,8.474,8.474,8.474,8.474,8.474" x1="137.8" y1="203.6" x2="137.8" y2="250.2"/>
			
				<line fill="none" stroke="#006179" stroke-width="4.8945" stroke-linecap="round" stroke-linejoin="round" x1="137.8" y1="254.5" x2="137.8" y2="258.6"/>
		</g>
	</g>
	<g>
		<g>
			
				<line fill="none" stroke="#006179" stroke-width="4.8945" stroke-linecap="round" stroke-linejoin="round" x1="137.8" y1="10.7" x2="137.8" y2="14.8"/>
			
				<line fill="none" stroke="#006179" stroke-width="4.8945" stroke-linecap="round" stroke-linejoin="round" stroke-dasharray="8.534,8.534,8.534,8.534" x1="137.8" y1="23.3" x2="137.8" y2="53.2"/>
			
				<line fill="none" stroke="#006179" stroke-width="4.8945" stroke-linecap="round" stroke-linejoin="round" stroke-dasharray="8.534,8.534,8.534,8.534,8.534,8.534" x1="137.8" y1="57.5" x2="137.8" y2="104.4"/>
			
				<line fill="none" stroke="#006179" stroke-width="4.8945" stroke-linecap="round" stroke-linejoin="round" x1="137.8" y1="108.7" x2="137.8" y2="112.7"/>
		</g>
	</g>
	<g>
		<path fill="#006179" d="M227.6,166.6c-0.1-0.4-0.4-0.7-0.8-0.9l-68.3-29.9l6.7-3.9c6.5-3.8,12.3-8.6,17.1-14.4l30.5,0.8
			c0,0,0,0,0,0c0.3,0,0.6-0.1,0.8-0.2l5.9-3.7c0.5-0.3,0.8-0.9,0.7-1.5c-0.1-0.6-0.6-1.1-1.2-1.2l-28.6-6.2l4.8-8.2
			c1-1.7,1.2-3.6,0.7-5.4c-0.4-1.4-1.3-2.6-2.4-3.4l9-23.2c0.2-0.6,0.1-1.2-0.4-1.7c-0.5-0.4-1.2-0.5-1.7-0.2l-16.8,9.4
			c-0.2,0.1-0.3,0.2-0.5,0.4l-14.1,19l-7.8-11.7c-0.4-0.7-1.3-0.9-2-0.4l-5.1,3.2c-0.5,0.3-0.7,0.8-0.7,1.4l1.8,18.1
			c-8,4.6-17.6,10.1-27.5,15.9L93,87.9c-0.4-0.4-1-0.5-1.5-0.3c-4.5,1.8-6.7,6.8-5,11.3l6.4,17.4l-10.4,6.9
			c-1.3,0.8-2.1,2.3-2.2,4.2c-0.1,1.7,0.4,3.6,1.4,5.3c1,1.7,2.3,3.1,3.8,3.9c0.9,0.5,1.8,0.7,2.7,0.7c0.8,0,1.5-0.2,2.1-0.5
			c0,0,8-5.6,8-5.6l1.3,3.5c-10.8,6.3-20.4,11.8-26.4,15.4c-6.7,4-12.1,9.7-15.4,16.4c-1.1,2.3-2.1,4.8-2.7,7.3
			c-0.8,3.1,0,6.2,2.3,8.5c1.7,1.6,3.8,2.5,6,2.5c0.8,0,1.7-0.1,2.5-0.4c5.5-1.6,11-3.6,16.2-5.8c5.3-2.3,10.5-4.9,15.4-7.7
			l27.2-15.7l24,4.6l-4.7,3c-1.3,0.8-2.1,2.3-2.2,4.2c-0.1,1.7,0.4,3.6,1.4,5.3c1.7,2.9,4.2,4.6,6.5,4.6c0.7,0,1.5-0.2,2.1-0.6
			c0,0,18-12.5,18-12.5l47,8.9c0.6,0.1,1.2,0.2,1.9,0.2c3.6,0,6.9-1.9,8.7-5.1C227.7,167.4,227.8,167,227.6,166.6z M214.9,113.8
			l-2.4,1.6l-36.8-1c2.5-1.9,6.9-4.5,10.9-6.7L214.9,113.8z M185.3,75.2l13-7.2l-9.3,24l-26.6,14L185.3,75.2z M159.5,83.3l7.6,11.4
			l-1.6,2.1c-2.2,1.3-4.7,2.7-7.5,4.3l-1.6-15.9L159.5,83.3z M89.1,134.1l-0.2,0.2c-0.5,0.2-1.1,0.2-1.9-0.2c-1-0.5-2-1.5-2.7-2.7
			c-0.7-1.2-1.1-2.5-1-3.7c0-0.9,0.3-1.5,0.8-1.8c0.2-0.1,0.4-0.2,0.6-0.2c0.4,0,0.8,0.1,1.3,0.4c1,0.5,2,1.5,2.7,2.7
			C89.9,131,89.9,133.3,89.1,134.1z M92.6,131.6c-0.1-1.4-0.6-2.9-1.4-4.3c-0.9-1.6-2.3-3-3.7-3.8l6.4-4.3l3.4,9.1L92.6,131.6z
			 M89.2,97.9c-1-2.7,0.1-5.7,2.5-7.1l33.2,29.4c-7.6,4.4-15.4,8.9-22.7,13.1L89.2,97.9z M60.1,180.8c-0.2-0.2-0.4-0.3-0.6-0.5
			c-1.5-1.5-2.1-3.5-1.5-5.6c0.5-0.3,1.1-0.5,1.7-0.5c1.7,0,3.1,1.5,3.1,3.3C62.7,179.1,61.6,180.5,60.1,180.8z M96.1,168.4
			c-4.9,2.8-10,5.4-15.1,7.6c-5.2,2.2-10.5,4.1-15.9,5.7c-0.4,0.1-0.7,0.2-1.1,0.2c1.1-1.1,1.7-2.7,1.7-4.4c0-3.5-2.7-6.3-6.1-6.3
			c-0.2,0-0.4,0-0.5,0c0.4-1.1,0.9-2.2,1.4-3.3c0.1-0.2,0.2-0.3,0.3-0.5c1.6,1.9,4.8,2.9,9.4,2.9c1.2,0,2.5-0.1,3.8-0.2
			c0.8-0.1,1.4-0.8,1.3-1.6s-0.8-1.4-1.6-1.3c-7.4,0.7-9.8-0.7-10.6-1.6c-0.4-0.5-0.5-1-0.5-1.3c3-4.6,7.2-8.6,12.1-11.5
			c17.2-10.2,62.2-36.1,86.3-50l-5,6.7c-0.4,0.6-0.4,1.3,0.1,1.9c0.3,0.3,0.7,0.5,1.1,0.5c0.2,0,0.5-0.1,0.7-0.2l32.9-17.4
			c0.3-0.2,0.6-0.4,0.7-0.8l0.8-2.1c0.3,0.4,0.6,0.8,0.7,1.3c0.3,1,0.2,2.1-0.4,3l-5.4,9l-0.6-0.1c-0.3-0.1-0.7,0-1,0.1
			c-2.2,1.1-13.1,6.8-14.8,10.3c-0.2,0.5-0.2,1,0.1,1.4c0.3,0.4,0.7,0.7,1.2,0.7l6.3,0.2c-4.3,4.7-9.2,8.8-14.8,12l-8.6,5l-1-0.4
			c-0.3-0.1-0.7-0.2-1-0.1c-1,0.3-23.5,7.5-33.8,18c-0.4,0.4-0.5,1-0.4,1.5s0.6,0.9,1.1,1l0.2,0L96.1,168.4z M150.7,173.6l-0.2,0.1
			c-1,0.6-3.2-0.6-4.6-3c-0.7-1.2-1.1-2.5-1-3.7c0-0.9,0.3-1.5,0.8-1.8c0.2-0.1,0.4-0.2,0.6-0.2c1.1,0,2.8,1.1,4,3.1l0,0
			C151.6,170.6,151.6,172.9,150.7,173.6z M154.3,171.2c-0.1-1.4-0.6-2.9-1.4-4.3l0,0c-1-1.7-2.3-3-3.6-3.7l3.8-2.5l12.9,2.4
			L154.3,171.2z M217.6,169.8l-94-17.8c9.6-8.2,26.7-14.1,29.9-15.1l70.5,30.9C222.4,169.4,220,170.3,217.6,169.8z"/>
	</g>
</g>
</svg>
