<?xml version="1.0" encoding="utf-8"?>
<!-- Generator: Adobe Illustrator 18.1.1, SVG Export Plug-In . SVG Version: 6.00 Build 0)  -->
<svg version="1.1" xmlns="http://www.w3.org/2000/svg" xmlns:xlink="http://www.w3.org/1999/xlink" x="0px" y="0px"
	 viewBox="0 0 283.5 283.5" enable-background="new 0 0 283.5 283.5" xml:space="preserve">
<g id="Calque_2">
</g>
<g id="Calque_1">
	<g>
		
			<line fill="none" stroke="#006179" stroke-width="4.3156" stroke-linecap="round" stroke-linejoin="round" stroke-miterlimit="10" x1="378" y1="170.4" x2="385.9" y2="178.3"/>
		
			<line fill="none" stroke="#006179" stroke-width="4.3156" stroke-linecap="round" stroke-linejoin="round" stroke-miterlimit="10" x1="393.8" y1="170.4" x2="385.9" y2="178.3"/>
	</g>
	
		<line fill="none" stroke="#FFFFFF" stroke-width="4" stroke-linejoin="round" stroke-miterlimit="10" x1="121" y1="199" x2="121" y2="135"/>
	<polygon fill="none" stroke="#006179" stroke-width="5" stroke-linejoin="round" stroke-miterlimit="10" points="80.5,78.3 
		41.5,90.7 41.5,141.8 41.5,144.7 41.5,154.7 119.5,199.2 119.5,189.2 119.5,186.3 119.5,135.2 	"/>
	<line fill="#296664" x1="121" y1="190" x2="121" y2="135"/>
	<polyline fill="none" stroke="#006179" stroke-width="5" stroke-linejoin="round" stroke-miterlimit="10" points="142.3,186.4 
		119.5,199.2 119.5,189.2 119.5,186.3 119.5,135.2 198.5,90.7 198.5,120 	"/>
	<g>
		<polygon fill="#006179" points="161.1,142.4 170.8,136.9 170.8,127.2 161.1,132.8 		"/>
		<polygon fill="#006179" points="147.5,150.3 157.2,144.7 157.2,135 147.5,140.6 		"/>
		<polygon fill="#006179" points="161.1,156.1 170.8,150.5 170.8,140.8 161.1,146.4 		"/>
		<polygon fill="#006179" points="147.5,163.9 157.2,158.4 157.2,148.7 147.5,154.3 		"/>
	</g>
	<g>
		<polygon fill="#006179" points="77.6,138.1 67.9,132.5 67.9,122.9 77.6,128.4 		"/>
		<polygon fill="#006179" points="91.2,146 81.5,140.4 81.5,130.7 91.2,136.3 		"/>
		<polygon fill="#006179" points="77.6,151.8 67.9,146.2 67.9,136.5 77.6,142.1 		"/>
		<polygon fill="#006179" points="91.2,159.6 81.5,154 81.5,144.3 91.2,149.9 		"/>
	</g>
	<polygon fill="none" stroke="#006179" stroke-width="3.5492" stroke-linejoin="round" stroke-miterlimit="10" points="197.6,90.7 
		120.6,135.1 82.5,78.3 159.5,33.9 	"/>
	<polygon fill="none" stroke="#006179" stroke-width="3.5492" stroke-linejoin="round" stroke-miterlimit="10" points="121.5,46.6 
		42.1,90.7 81.4,78.3 159.3,33.9 	"/>
	<g>
		<path fill="#006179" d="M228.1,146.4c-2.9,0-5.4,0.3-7.8,1v-19.2c0-5.8-8.1-10.4-18.3-10.4c-10.3,0-18.4,4.6-18.4,10.4V161
			c4,1.7,7,4.9,10.8,7c2.4,1.3,4.8,2.6,7.2,3.9c0.1,0,0.2,0,0.3,0c2.8,0,5.4-0.3,7.8-0.9v5.1c1.3,0.7,2.6,1.5,3.9,2.3v-4
			c0.8,0.6,1.7,1.1,2.8,1.6c0.2,0.1,0.3,0.2,0.5,0.2c0.1,0,0.2,0.1,0.3,0.1c3.1,1.2,6.8,2,11,2c6,0,11.3-1.5,14.5-4v4
			c0,3.2-5.9,6.7-14.5,6.7c-1.3,0-2.6-0.1-3.8-0.2c1.8,0.9,3.6,1.6,5.5,2.2c1.2,0.3,2.1,1.2,2.8,2.2c4.1-0.6,7.6-1.9,10.1-3.7v4
			c0,2.8-4.5,5.8-11.3,6.5c-0.1,0-0.5-0.9-0.6-0.9c-2.7,1.1-5.2,3.3-8,4.4c1.7,0.3,3.4,0.4,5.2,0.4c10.2,0,18.3-4.6,18.3-10.4v-32.6
			h0.1C246.4,151,238.3,146.4,228.1,146.4z M201.9,121.5c8.6,0,14.5,3.5,14.5,6.7s-5.9,6.7-14.5,6.7s-14.5-3.5-14.5-6.7
			C187.3,125.1,193.3,121.5,201.9,121.5z M216.5,134.6v4c0,3.2-5.9,6.7-14.5,6.7c-8.6,0-14.5-3.5-14.5-6.7v-4c0,0,0.1,0.1,0.2,0.1
			c0.1,0.2,0.4,0.4,0.7,0.6c0.1,0.1,0.3,0.2,0.4,0.2c0.4,0.3,0.9,0.5,1.4,0.7c0.5,0.2,1,0.4,1.5,0.6c0.2,0.1,0.4,0.1,0.5,0.2
			c0.4,0.1,0.7,0.2,1.1,0.4c0.2,0.1,0.4,0.1,0.7,0.2c0.4,0.1,0.7,0.2,1.1,0.3c0.2,0.1,0.5,0.1,0.7,0.1c0.4,0.1,0.8,0.1,1.2,0.2
			c0.2,0,0.5,0.1,0.7,0.1c0.4,0.1,0.9,0.1,1.3,0.1c0.2,0,0.4,0,0.6,0.1c0.7,0,1.3,0.1,2,0.1c0.7,0,1.4,0,2-0.1c0.2,0,0.4,0,0.6-0.1
			c0.4,0,0.9-0.1,1.3-0.1c0.2,0,0.5-0.1,0.7-0.1c0.4-0.1,0.8-0.1,1.2-0.2c0.2,0,0.5-0.1,0.7-0.1c0.4-0.1,0.7-0.2,1.1-0.3
			c0.2-0.1,0.4-0.1,0.7-0.2c0.4-0.1,0.7-0.2,1.1-0.4c0.2-0.1,0.4-0.1,0.5-0.2c0.5-0.2,1-0.4,1.5-0.6c0.5-0.2,0.9-0.5,1.4-0.7
			c0.1-0.1,0.3-0.2,0.4-0.2c0.3-0.2,0.6-0.4,0.9-0.6C216.3,134.8,216.4,134.6,216.5,134.6z M209.8,166.4c-2.4,0.7-5,1.1-7.8,1.1
			c-8.6,0-14.5-3.5-14.5-6.7v-4c3.4,2.5,8.6,4,14.5,4c2.8,0,5.4-0.3,7.8-0.9L209.8,166.4z M211.1,152.8c-0.2,0.2-0.3,0.5-0.5,0.7
			c-0.1,0.1-0.1,0.2-0.2,0.4c-0.1,0.2-0.2,0.4-0.2,0.5c-0.1,0.2-0.1,0.4-0.2,0.5c0,0.1-0.1,0.1-0.1,0.2c-2.4,0.8-5.1,1.2-8,1.2
			c-8.6,0-14.5-3.5-14.5-6.7v-4c3.4,2.5,8.6,4,14.5,4s11.3-1.5,14.5-4v2.9c-2.4,1-4.2,2.5-5.3,4
			C211.2,152.8,211.1,152.8,211.1,152.8z M213.5,157.2c0-0.1,0-0.2,0-0.2c0-0.2,0-0.4,0.1-0.7c0.5-1.6,2.5-3.2,5.4-4.3h0.1
			c2.5-0.9,5.4-1.5,9-1.5c8.5-0.2,14.5,3.3,14.5,6.4c0,3.2-5.9,6.7-14.5,6.7c-4,0-7.4-0.7-9.8-1.8c-0.3-0.1-0.6-0.3-0.9-0.4
			c0,0-0.1,0-0.1-0.1c0,0,0,0-0.1,0l-0.4-0.2c-0.2-0.2-0.3-0.3-0.4-0.3c0,0-0.1,0-0.1-0.1c0,0,0,0-0.1,0c-0.2-0.1-0.4-0.3-0.6-0.5
			c0,0,0,0-0.1,0c-0.1-0.1-0.2-0.2-0.3-0.3c-0.1-0.1-0.2-0.2-0.3-0.2c-0.1-0.1-0.2-0.2-0.3-0.3c-0.1-0.1-0.2-0.2-0.2-0.3
			c-0.1-0.1-0.1-0.2-0.2-0.3c-0.1-0.1-0.1-0.2-0.2-0.3C213.6,157.9,213.5,157.6,213.5,157.2z M242.8,167.2c0,3.2-5.9,6.7-14.5,6.7
			c-3.7,0-7-0.6-9.4-1.6c0,0-0.1,0-0.1-0.1c-2.8-1.1-4.6-2.8-5-4.3c0,0,0,0,0-0.1v-4.6c0.2,0.1,0.3,0.2,0.5,0.4c0,0,0,0,0.1,0
			s0.1,0.1,0.2,0.1c0.2,0.1,0.3,0.2,0.5,0.3c0.2,0.1,0.3,0.2,0.5,0.3h0.1c0.1,0,0.1,0.1,0.2,0.1c0.4,0.2,0.8,0.4,1.3,0.6
			c0.1,0,0.2,0.1,0.3,0.1c0.2,0.1,0.5,0.2,0.7,0.3c0.2,0.1,0.3,0.1,0.5,0.2c0.1,0.3,0.5,0.4,0.9,0.5c0.2,0.1,0.4,0.1,0.7,0.2
			c0.4,0.1,0.7,0.2,1.1,0.3c0.2,0.1,0.5,0.1,0.7,0.1c0.4,0.1,0.8,0.1,1.2,0.2c0.2,0,0.5,0.1,0.7,0.1c0.4,0.1,0.9,0.1,1.3,0.1
			c0.2,0,0.4,0,0.6,0.1c0.7,0,1.3,0.1,2,0.1c0.7,0,1.4,0,2-0.1c0.2,0,0.4,0,0.6-0.1c0.4,0,0.9-0.1,1.3-0.1c0.2,0,0.5-0.1,0.7-0.1
			c0.4-0.1,0.8-0.1,1.2-0.2c0.2,0,0.5-0.1,0.7-0.1c0.4-0.1,0.7-0.2,1.1-0.3c0.2-0.1,0.4-0.1,0.7-0.2c0.4-0.1,0.7-0.2,1.1-0.4
			c0.2-0.1,0.4-0.1,0.5-0.2c0.5-0.2,1-0.4,1.5-0.6c0.5-0.2,0.9-0.5,1.4-0.7c0.1-0.1,0.3-0.2,0.4-0.2c0.3-0.2,0.6-0.4,0.9-0.6
			c0,0,0.1-0.1,0.2-0.1V167.2z"/>
	</g>
	<g>
		<g>
			<path fill="#006179" d="M161.3,189.7C161.3,189.7,161.3,189.7,161.3,189.7l0,26.9c0,0.8,0.4,1.5,1,1.9l11.6,7.3
				c0.4,0.2,0.8,0.3,1.2,0.3c0.4,0,0.7-0.1,1.1-0.3c0.7-0.4,1.2-1.1,1.2-2v-25.6l33.9-19.3l19,12l-31.8,18.1l-15.4-9.7
				c-1-0.7-2.4-0.3-3.1,0.7c-0.7,1-0.3,2.4,0.7,3.1l16.6,10.4c0.4,0.2,0.8,0.3,1.2,0.3c0.4,0,0.8-0.1,1.1-0.3l36.2-20.6
				c0.7-0.4,1.1-1.1,1.1-1.9c0-0.8-0.4-1.5-1-1.9l-23.3-14.7c0,0,0,0,0,0l-11.6-7.3c0,0,0,0,0,0l-23.3-14.7
				c-0.7-0.4-1.6-0.5-2.3-0.1l-36.2,20.6c-0.7,0.4-1.1,1.1-1.1,1.9c0,0.8,0.4,1.5,1,1.9l16.6,10.4c1,0.7,2.4,0.3,3.1-0.7
				c0.7-1,0.3-2.4-0.7-3.1l-13.4-8.4l31.8-18.1l19,12l-33,18.7c-0.1,0-0.2,0.1-0.2,0.2c0,0,0,0,0,0c-0.1,0-0.1,0.1-0.2,0.1
				c0,0,0,0,0,0c-0.1,0.1-0.1,0.1-0.2,0.2c0,0,0,0,0,0c0,0-0.1,0.1-0.1,0.2c0,0,0,0,0,0c0,0,0,0,0,0.1c0,0.1-0.1,0.1-0.1,0.2
				c0,0,0,0,0,0.1c0,0.1-0.1,0.2-0.1,0.2c0,0,0,0,0,0c0,0.1,0,0.2-0.1,0.3c0,0,0,0,0,0.1C161.3,189.5,161.3,189.6,161.3,189.7z
				 M165.8,215.3v-21.6l2.5,1.6c0.4,0.2,0.8,0.3,1.2,0.3c0.7,0,1.5-0.4,1.9-1c0.7-1,0.3-2.4-0.7-3.1l-2.8-1.8l31.8-18.1l7.3,4.6
				l-33,18.8c-0.7,0.4-1.1,1.1-1.1,1.9v22.8L165.8,215.3z"/>
			<path fill="#006179" d="M138.3,182.8c-0.7,1-0.3,2.4,0.7,3.1l16.6,10.4c0.4,0.2,0.8,0.3,1.2,0.3c0.7,0,1.5-0.4,1.9-1
				c0.7-1,0.3-2.4-0.7-3.1l-16.6-10.4C140.4,181.5,139,181.8,138.3,182.8z"/>
			<path fill="#006179" d="M180,209c-0.7,1-0.3,2.4,0.7,3.1l16.6,10.4c0.4,0.2,0.8,0.3,1.2,0.3c0.4,0,0.8-0.1,1.1-0.3l36.2-20.6
				c1.1-0.6,1.5-2,0.8-3.1c-0.6-1.1-2-1.5-3.1-0.8l-35.1,19.9l-15.4-9.7C182,207.7,180.6,208,180,209z"/>
			<path fill="#006179" d="M138.3,191.8c-0.7,1-0.3,2.4,0.7,3.1l16.6,10.4c0.4,0.2,0.8,0.3,1.2,0.3c0.7,0,1.5-0.4,1.9-1
				c0.7-1,0.3-2.4-0.7-3.1l-16.6-10.4C140.4,190.4,139,190.7,138.3,191.8z"/>
			<path fill="#006179" d="M180,218c-0.7,1-0.3,2.4,0.7,3.1l16.6,10.4c0.4,0.2,0.8,0.3,1.2,0.3c0.4,0,0.8-0.1,1.1-0.3l36.2-20.6
				c1.1-0.6,1.5-2,0.8-3.1c-0.6-1.1-2-1.5-3.1-0.8L198.5,227l-15.4-9.7C182,216.6,180.6,216.9,180,218z"/>
			<path fill="#006179" d="M138.3,200.7c-0.7,1-0.3,2.4,0.7,3.1l16.6,10.4c0.4,0.2,0.8,0.3,1.2,0.3c0.7,0,1.5-0.4,1.9-1
				c0.7-1,0.3-2.4-0.7-3.1L141.4,200C140.4,199.4,139,199.7,138.3,200.7z"/>
			<path fill="#006179" d="M180,226.9c-0.7,1-0.3,2.4,0.7,3.1l16.6,10.4c0.4,0.2,0.8,0.3,1.2,0.3c0.4,0,0.8-0.1,1.1-0.3l36.2-20.6
				c1.1-0.6,1.5-2,0.8-3.1c-0.6-1.1-2-1.5-3.1-0.8L198.5,236l-15.4-9.7C182,225.6,180.6,225.9,180,226.9z"/>
		</g>
	</g>
</g>
</svg>
