<?xml version="1.0" encoding="utf-8"?>
<!-- Generator: Adobe Illustrator 18.1.1, SVG Export Plug-In . SVG Version: 6.00 Build 0)  -->
<svg version="1.1" xmlns="http://www.w3.org/2000/svg" xmlns:xlink="http://www.w3.org/1999/xlink" x="0px" y="0px"
	 viewBox="0 0 283.5 283.5" enable-background="new 0 0 283.5 283.5" xml:space="preserve">
<g id="Calque_2">
</g>
<g id="Calque_1">
	
		<line fill="none" stroke="#006179" stroke-width="4.3156" stroke-linecap="round" stroke-linejoin="round" stroke-miterlimit="10" x1="150.4" y1="200" x2="150.4" y2="254.1"/>
	<g>
		
			<line fill="none" stroke="#006179" stroke-width="4.3156" stroke-linecap="round" stroke-linejoin="round" stroke-miterlimit="10" x1="142.5" y1="247.7" x2="150.4" y2="255.6"/>
		
			<line fill="none" stroke="#006179" stroke-width="4.3156" stroke-linecap="round" stroke-linejoin="round" stroke-miterlimit="10" x1="158.3" y1="247.7" x2="150.4" y2="255.6"/>
	</g>
	
		<line fill="none" stroke="#FFFFFF" stroke-width="3" stroke-linejoin="round" stroke-miterlimit="10" x1="136.5" y1="170" x2="136.5" y2="116"/>
	<polygon fill="none" stroke="#006179" stroke-width="5" stroke-linejoin="round" stroke-miterlimit="10" points="102,67 68.5,77.6 
		68.5,121.6 68.5,124.1 68.5,132.7 135.5,171 135.5,162.4 135.5,159.8 135.5,115.9 	"/>
	<line fill="#296664" x1="136" y1="163" x2="136" y2="116"/>
	<polyline fill="none" stroke="#006179" stroke-width="5" stroke-linejoin="round" stroke-miterlimit="10" points="165.3,154 
		135.5,171 135.5,162.4 135.5,159.8 135.5,115.9 201.5,77.6 201.5,113 	"/>
	<g>
		<polygon fill="#006179" points="170.7,122.2 179,117.3 179,109 170.7,113.8 		"/>
		<polygon fill="#006179" points="160.5,128.9 168.8,124.1 168.8,115.8 160.5,120.6 		"/>
		<polygon fill="#006179" points="160.5,140.6 167.2,135.6 168.8,127.5 160.5,132.3 		"/>
	</g>
	<g>
		<polygon fill="#006179" points="98.9,118.4 90.6,113.6 90.6,105.3 98.9,110.1 		"/>
		<polygon fill="#006179" points="110.6,125.2 102.3,120.4 102.3,112 110.6,116.8 		"/>
		<polygon fill="#006179" points="98.9,130.2 90.6,125.3 90.6,117 98.9,121.8 		"/>
		<polygon fill="#006179" points="110.6,136.9 102.3,132.1 102.3,123.8 110.6,128.6 		"/>
	</g>
	<polygon fill="none" stroke="#006179" stroke-width="3.0532" stroke-linejoin="round" stroke-miterlimit="10" points="202.2,77.6 
		135.9,115.8 103.1,67 169.4,28.8 	"/>
	<polygon fill="none" stroke="#006179" stroke-width="3.0532" stroke-linejoin="round" stroke-miterlimit="10" points="136.7,39.7 
		68.4,77.6 102.2,67 169.2,28.8 	"/>
	<g>
		<g>
			<g>
				<path fill="#006179" d="M194.4,179.3c-19.5,0-35.3-15.8-35.3-35.3s15.8-35.3,35.3-35.3s35.3,15.8,35.3,35.3
					S213.9,179.3,194.4,179.3z M194.4,114.5c-16.2,0-29.5,13.2-29.5,29.5c0,16.2,13.2,29.5,29.5,29.5c16.2,0,29.5-13.2,29.5-29.5
					C223.9,127.8,210.7,114.5,194.4,114.5z"/>
				<path fill="#FFFFFF" d="M194.4,109.7c18.9,0,34.3,15.4,34.3,34.3s-15.4,34.3-34.3,34.3s-34.3-15.4-34.3-34.3
					S175.5,109.7,194.4,109.7 M194.4,174.4c16.8,0,30.4-13.6,30.4-30.4c0-16.8-13.6-30.4-30.4-30.4S164,127.2,164,144
					C164,160.8,177.7,174.4,194.4,174.4 M194.4,107.8c-20,0-36.2,16.3-36.2,36.2c0,20,16.3,36.2,36.2,36.2s36.2-16.3,36.2-36.2
					C230.7,124,214.4,107.8,194.4,107.8L194.4,107.8z M194.4,172.5c-15.7,0-28.5-12.8-28.5-28.5s12.8-28.5,28.5-28.5
					S223,128.3,223,144S210.2,172.5,194.4,172.5L194.4,172.5z"/>
			</g>
			<g>
				<path fill="#006179" d="M194.1,148.4c-1.4,0-2.5-1.1-2.5-2.5v-22.6c0-1.4,1.1-2.5,2.5-2.5s2.5,1.1,2.5,2.5v20.1h16.8
					c1.4,0,2.5,1.1,2.5,2.5c0,1.4-1.1,2.5-2.5,2.5H194.1z"/>
				<path fill="#FFFFFF" d="M194.1,121.3c1.1,0,2,0.9,2,2v19.6v1h1h16.3c1.1,0,2,0.9,2,2s-0.9,2-2,2h-19.3c-1.1,0-2-0.9-2-2v-22.6
					C192,122.2,192.9,121.3,194.1,121.3 M194.1,120.3c-1.6,0-3,1.3-3,3v22.6c0,1.6,1.3,3,3,3h19.3c1.6,0,3-1.3,3-3s-1.3-3-3-3H197
					v-19.6C197,121.7,195.7,120.3,194.1,120.3L194.1,120.3z"/>
			</g>
		</g>
	</g>
</g>
</svg>
