<?xml version="1.0" encoding="utf-8"?>
<!-- Generator: Adobe Illustrator 19.2.0, SVG Export Plug-In . SVG Version: 6.00 Build 0)  -->
<svg version="1.1" id="Calque_1" xmlns="http://www.w3.org/2000/svg" xmlns:xlink="http://www.w3.org/1999/xlink" x="0px" y="0px"
	 viewBox="0 0 800.4 171" style="enable-background:new 0 0 800.4 171;" xml:space="preserve">
<style type="text/css">
	.st0{fill:none;}
	.st1{fill:#005F78;}
	.st2{font-family:'Montserrat-Regular';}
	.st3{font-size:14px;}
</style>
<g>
	
		<image style="overflow:visible;enable-background:new    ;" width="142" height="142" xlink:href="7567E4A2F68AB797.png"  transform="matrix(0.3554 0 0 0.3554 288.2556 28.7964)">
	</image>
	
		<image style="overflow:visible;enable-background:new    ;" width="142" height="142" xlink:href="7567E4A2F68AB795.png"  transform="matrix(0.3554 0 0 0.3554 288.2556 28.7964)">
	</image>
</g>
<g>
	
		<image style="overflow:visible;enable-background:new    ;" width="142" height="142" xlink:href="7567E4A2F68AB79B.png"  transform="matrix(0.6952 0 0 0.6952 498.7496 74.6653)">
	</image>
	
		<image style="overflow:visible;enable-background:new    ;" width="142" height="142" xlink:href="7567E4A2F68AB79D.png"  transform="matrix(0.6952 0 0 0.6952 498.7496 74.6653)">
	</image>
</g>
<g>
	
		<image style="overflow:visible;enable-background:new    ;" width="142" height="142" xlink:href="7567E4A2F68AB79F.png"  transform="matrix(0.3451 0 0 0.3451 724.9956 29.5279)">
	</image>
	
		<image style="overflow:visible;enable-background:new    ;" width="142" height="142" xlink:href="7567E4A2F68AB79C.png"  transform="matrix(0.3451 0 0 0.3451 724.9956 29.5279)">
	</image>
</g>
<g>
	
		<image style="overflow:visible;enable-background:new    ;" width="142" height="142" xlink:href="7567E4A2F68AB794.png"  transform="matrix(0.4629 0 0 0.4629 461.0933 24.5836)">
	</image>
	
		<image style="overflow:visible;enable-background:new    ;" width="142" height="142" xlink:href="7567E4A2F68AB796.png"  transform="matrix(0.4629 0 0 0.4629 461.0933 24.5836)">
	</image>
</g>
<g>
	
		<image style="overflow:visible;enable-background:new    ;" width="142" height="142" xlink:href="7567E4A2F68AB792.png"  transform="matrix(0.4151 0 0 0.4151 207.9929 25.4423)">
	</image>
	
		<image style="overflow:visible;enable-background:new    ;" width="142" height="142" xlink:href="F8040B8DA20C88D4.png"  transform="matrix(0.4151 0 0 0.4151 207.9929 25.4423)">
	</image>
</g>
<g>
	
		<image style="overflow:visible;enable-background:new    ;" width="142" height="142" xlink:href="F8040B8DA20C88D3.png"  transform="matrix(0.4847 0 0 0.4847 25.183 19.6143)">
	</image>
	
		<image style="overflow:visible;enable-background:new    ;" width="142" height="142" xlink:href="F8040B8DA20C88EC.png"  transform="matrix(0.4847 0 0 0.4847 25.183 19.6143)">
	</image>
</g>
<g>
	
		<image style="overflow:visible;enable-background:new    ;" width="142" height="142" xlink:href="F8040B8DA20C88EF.png"  transform="matrix(0.5023 0 0 0.5023 115.3358 18.3621)">
	</image>
	
		<image style="overflow:visible;enable-background:new    ;" width="142" height="142" xlink:href="F8040B8DA20C88ED.png"  transform="matrix(0.5023 0 0 0.5023 115.3358 18.3621)">
	</image>
</g>
<g>
	
		<image style="overflow:visible;enable-background:new    ;" width="142" height="142" xlink:href="F8040B8DA20C88F3.png"  transform="matrix(0.5614 0 0 0.5614 360.0458 12.2148)">
	</image>
	
		<image style="overflow:visible;enable-background:new    ;" width="142" height="142" xlink:href="F8040B8DA20C88F4.png"  transform="matrix(0.5614 0 0 0.5614 360.0458 12.2148)">
	</image>
</g>
<g>
	
		<image style="overflow:visible;enable-background:new    ;" width="90" height="34" xlink:href="F8040B8DA20C88F7.png"  transform="matrix(0.7063 0 0 0.7063 640.1069 42.0212)">
	</image>
	
		<image style="overflow:visible;enable-background:new    ;" width="90" height="34" xlink:href="F8040B8DA20C88F5.png"  transform="matrix(0.7063 0 0 0.7063 640.1069 42.0212)">
	</image>
</g>
<g>
	
		<image style="overflow:visible;enable-background:new    ;" width="100" height="28" xlink:href="F8040B8DA20C88F2.png"  transform="matrix(0.7063 0 0 0.7063 548.1556 44.1398)">
	</image>
	
		<image style="overflow:visible;enable-background:new    ;" width="100" height="28" xlink:href="F8040B8DA20C8917.png"  transform="matrix(0.7063 0 0 0.7063 548.1556 44.1398)">
	</image>
</g>
<rect x="195.1" y="116" class="st0" width="202.5" height="14.3"/>
<text transform="matrix(1 0 0 1 195.1139 126.4031)" class="st1 st2 st3">un projet réalisé dans le cadre de l&apos;atelier </text>
</svg>
