<?xml version="1.0" encoding="utf-8"?>
<!-- Generator: Adobe Illustrator 18.1.1, SVG Export Plug-In . SVG Version: 6.00 Build 0)  -->
<svg version="1.1" id="Calque_1" xmlns="http://www.w3.org/2000/svg" xmlns:xlink="http://www.w3.org/1999/xlink" x="0px" y="0px"
	 viewBox="0 0 141.7 141.7" enable-background="new 0 0 141.7 141.7" xml:space="preserve">
<path id="XMLID_272_" fill="#00607A" d="M38.5,25.8c0,1.5-1.2,2.6-2.6,2.6h-0.4c-1.5,0-2.6-1.2-2.6-2.6c0-1.5,1.2-2.6,2.6-2.6h0.4
	C37.3,23.1,38.5,24.3,38.5,25.8z M47.3,23.1h-0.4c-1.5,0-2.6,1.2-2.6,2.6c0,1.5,1.2,2.6,2.6,2.6h0.4c1.5,0,2.6-1.2,2.6-2.6
	C50,24.3,48.8,23.1,47.3,23.1z M24.3,23.1h-0.4c-1.5,0-2.6,1.2-2.6,2.6c0,1.5,1.2,2.6,2.6,2.6h0.4c1.5,0,2.6-1.2,2.6-2.6
	C27,24.3,25.8,23.1,24.3,23.1z M65.9,77.5c1.5,0,2.6,1.2,2.6,2.6v13.6c0,1.5-1.2,2.6-2.6,2.6H24.3c-1.5,0-2.6-1.2-2.6-2.6V80.2
	c0-1.5,1.2-2.6,2.6-2.6H65.9z M63.3,82.8H27v8.4h36.3V82.8z M98.4,91.2h-18v-8.4h24.8c1.5,0,2.6-1.2,2.6-2.6c0-1.5-1.2-2.6-2.6-2.6
	H77.8c-1.5,0-2.6,1.2-2.6,2.6v13.6c0,1.5,1.2,2.6,2.6,2.6h20.6c1.5,0,2.6-1.2,2.6-2.6C101.1,92.3,99.9,91.2,98.4,91.2z M94.1,107
	c0,1.5-1.2,2.6-2.6,2.6H10.9c-1.5,0-2.6-1.2-2.6-2.6V15.6c0-1.5,1.2-2.6,2.6-2.6h121.9c1.5,0,2.6,1.2,2.6,2.6v64.9
	c0,1.5-1.2,2.6-2.6,2.6s-2.6-1.2-2.6-2.6V38.6h-13.1c-1.1,0-2.1-0.7-2.5-1.8c-1-2.9-3.7-4.9-6.8-4.9H83.1c-3.1,0-5.8,2-6.8,4.9
	c-0.4,1.1-1.4,1.8-2.5,1.8H13.6v65.8h77.9C93,104.4,94.1,105.6,94.1,107z M13.6,33.3h58.6c2.1-4.1,6.3-6.7,11-6.7h24.7
	c4.7,0,8.9,2.6,11,6.7h11.4V18.3H13.6V33.3z M140.3,108.2c-0.4,0.9-1.4,1.5-2.4,1.5h-8v17.9c0,1.5-1.2,2.6-2.6,2.6H115
	c-1.5,0-2.6-1.2-2.6-2.6v-17.9h-8c-1,0-1.9-0.6-2.4-1.5c-0.4-0.9-0.4-2,0.2-2.8L119,82.9c0.5-0.7,1.3-1.1,2.1-1.1s1.6,0.4,2.1,1.1
	l16.8,22.5C140.6,106.3,140.7,107.3,140.3,108.2z M132.7,104.4l-11.5-15.5l-11.5,15.5h5.4c1.5,0,2.6,1.2,2.6,2.6v17.9h7.1V107
	c0-1.5,1.2-2.6,2.6-2.6L132.7,104.4L132.7,104.4z M119.4,71.7H24.3c-1.5,0-2.6-1.2-2.6-2.6V50.2c0-1.5,1.2-2.6,2.6-2.6h95.1
	c1.5,0,2.6,1.2,2.6,2.6v18.8C122.1,70.5,120.9,71.7,119.4,71.7z M116.8,52.9H27v13.6h89.8V52.9z"/>
</svg>
