<?xml version="1.0" encoding="utf-8"?>
<!-- Generator: Adobe Illustrator 18.1.1, SVG Export Plug-In . SVG Version: 6.00 Build 0)  -->
<svg version="1.1" id="Calque_1" xmlns="http://www.w3.org/2000/svg" xmlns:xlink="http://www.w3.org/1999/xlink" x="0px" y="0px"
	 viewBox="0 0 183.9 177.5" enable-background="new 0 0 183.9 177.5" xml:space="preserve">
<polyline fill="none" stroke="#005F78" stroke-width="3" stroke-linejoin="round" stroke-miterlimit="10" points="75,68 75,32.2 
	126,62 126,137.7 102.9,124 "/>
<polygon fill="#005F78" points="90.6,57.9 83,53.6 83,46 90.6,50.4 "/>
<polygon fill="#005F78" points="103.5,65.4 95.9,61 95.9,53.5 103.5,57.8 "/>
<polygon fill="#005F78" points="116.5,72.9 108.9,68.5 108.9,60.9 116.5,65.3 "/>
<polygon fill="#005F78" points="90.6,70.8 83,66.4 83,58.8 90.6,63.2 "/>
<polygon fill="#005F78" points="103.5,78.2 95.9,73.9 95.9,66.3 103.5,70.7 "/>
<polygon fill="#005F78" points="116.5,85.7 108.9,81.3 108.9,73.8 116.5,78.1 "/>
<polygon fill="#005F78" points="103.5,91.1 95.9,86.7 95.9,79.1 103.5,83.5 "/>
<polygon fill="#005F78" points="116.5,98.5 108.9,94.2 108.9,86.6 116.5,91 "/>
<polygon fill="#005F78" points="116.5,111.4 108.9,107 108.9,99.4 116.5,103.8 "/>
<polygon fill="#005F78" points="116.5,124.2 108.9,119.8 108.9,112.3 116.5,116.6 "/>
<polygon fill="none" stroke="#005F78" stroke-width="2.9503" stroke-linejoin="round" stroke-miterlimit="10" points="127,62 
	75.4,32.5 126.8,4.3 178.4,32.1 "/>
<polygon fill="none" stroke="#005F78" stroke-width="3" stroke-linejoin="round" stroke-miterlimit="10" points="178,107.9 
	126,137.7 126,61.9 178,32.2 "/>
<polygon fill="#005F78" points="145.3,69.9 138.3,73.9 138.3,67 145.3,63 "/>
<polygon fill="#005F78" points="157.1,63.1 150.2,67 150.2,60.1 157.1,56.1 "/>
<polygon fill="#005F78" points="168.9,56.2 162,60.2 162,53.3 168.9,49.3 "/>
<polygon fill="#005F78" points="145.3,81.6 138.3,85.6 138.3,78.7 145.3,74.7 "/>
<polygon fill="#005F78" points="157.1,74.8 150.2,78.8 150.2,71.9 157.1,67.9 "/>
<polygon fill="#005F78" points="168.9,68 162,71.9 162,65 168.9,61 "/>
<polygon fill="#005F78" points="145.3,93.3 138.3,97.3 138.3,90.4 145.3,86.4 "/>
<polygon fill="#005F78" points="157.1,86.5 150.2,90.5 150.2,83.6 157.1,79.6 "/>
<polygon fill="#005F78" points="168.9,79.7 162,83.7 162,76.8 168.9,72.8 "/>
<polygon fill="#005F78" points="145.3,105.1 138.3,109.1 138.3,102.1 145.3,98.1 "/>
<polygon fill="#005F78" points="157.1,98.2 150.2,102.2 150.2,95.3 157.1,91.3 "/>
<polygon fill="#005F78" points="168.9,91.4 162,95.4 162,88.5 168.9,84.5 "/>
<polygon fill="#005F78" points="145.3,116.8 138.3,120.8 138.3,113.9 145.3,109.9 "/>
<polygon fill="#005F78" points="157.1,110 150.2,114 150.2,107 157.1,103 "/>
<polygon fill="#005F78" points="168.9,103.1 162,107.1 162,100.2 168.9,96.2 "/>
<line fill="none" stroke="#FFFFFF" stroke-width="2" stroke-linejoin="round" stroke-miterlimit="10" x1="57.5" y1="163" x2="57.5" y2="125"/>
<polygon fill="none" stroke="#005F78" stroke-width="3" stroke-linejoin="round" stroke-miterlimit="10" points="33.5,91.2 10,98.6 
	10,129.2 10,130.9 10,136.9 57,163.5 57,157.5 57,155.8 57,125.2 "/>
<line fill="#296664" x1="57.5" y1="158" x2="57.5" y2="125"/>
<polygon fill="none" stroke="#005F78" stroke-width="3" stroke-linejoin="round" stroke-miterlimit="10" points="103,98.6 
	103,129.2 103,130.9 103,136.9 57,163.5 57,157.5 57,155.8 57,125.2 "/>
<g>
	<g>
		<g>
			<polygon fill="#005F78" points="81.5,129.6 86.5,126.2 86.5,120.4 81.5,123.8 			"/>
		</g>
		<g>
			<polygon fill="#005F78" points="74.5,134.2 79.5,130.9 79.5,125.1 74.5,128.5 			"/>
		</g>
		<g>
			<polygon fill="#005F78" points="81.5,137.7 86.5,134.4 86.5,128.6 81.5,131.9 			"/>
		</g>
		<g>
			<polygon fill="#005F78" points="74.5,142.4 79.5,139.1 79.5,133.3 74.5,136.6 			"/>
		</g>
	</g>
</g>
<g>
	<g>
		<g>
			<polygon fill="#005F78" points="31.5,127 25.5,123.6 25.5,117.8 31.5,121.2 			"/>
		</g>
		<g>
			<polygon fill="#005F78" points="39.5,131.6 33.5,128.3 33.5,122.5 39.5,125.9 			"/>
		</g>
		<g>
			<polygon fill="#005F78" points="31.5,135.1 25.5,131.8 25.5,126 31.5,129.3 			"/>
		</g>
		<g>
			<polygon fill="#005F78" points="39.5,139.8 33.5,136.5 33.5,130.7 39.5,134 			"/>
		</g>
	</g>
</g>
<polygon fill="none" stroke="#005F78" stroke-width="2.9503" stroke-linejoin="round" stroke-miterlimit="10" points="103,98.6 
	57,125.2 34.2,91.2 80.3,64.6 "/>
<polygon fill="none" stroke="#005F78" stroke-width="2.9503" stroke-linejoin="round" stroke-miterlimit="10" points="57.5,72.2 
	10,98.6 33.5,91.2 80.1,64.6 "/>
</svg>
