<?xml version="1.0" encoding="utf-8"?>
<!-- Generator: Adobe Illustrator 18.1.1, SVG Export Plug-In . SVG Version: 6.00 Build 0)  -->
<svg version="1.1" id="Calque_1" xmlns="http://www.w3.org/2000/svg" xmlns:xlink="http://www.w3.org/1999/xlink" x="0px" y="0px"
	 viewBox="0 0 141.7 141.7" enable-background="new 0 0 141.7 141.7" xml:space="preserve">
<g>
	<polygon fill="#00607A" points="40.7,71 45.8,74.2 45.8,68.6 40.7,65.4 	"/>
	<polygon fill="#00607A" points="53.4,73.2 48.3,69.9 48.3,75.5 53.4,78.8 	"/>
	<polygon fill="#00607A" points="40.7,78.9 45.8,82.1 45.8,76.5 40.7,73.3 	"/>
	<polygon fill="#00607A" points="53.4,81.1 48.3,77.8 48.3,83.4 53.4,86.7 	"/>
	<path fill="#00607A" d="M116.5,46.1l-22.1-33c-0.2-0.3-0.5-0.4-0.9-0.4c0,0-0.1,0-0.1,0c0,0,0,0,0,0c-0.1,0-0.2,0-0.3,0l-22,7.4
		c-0.1,0-0.1,0-0.2,0.1L25.6,45.3l-0.4,0.1c-0.4,0.1-0.7,0.5-0.8,0.9c0,0.1-0.1,0.3-0.1,0.4v37.1c0,0.5,0.2,0.9,0.6,1.1l45.5,25.8
		c0.1,0,0.2,0.1,0.2,0.1c0,0,0,0,0.1,0c0.1,0,0.2,0,0.3,0c0.2,0,0.4-0.1,0.6-0.2c0,0,0,0,0,0L115.9,85c0.4-0.2,0.6-0.6,0.6-1.1V47.1
		c0-0.1,0.1-0.1,0.1-0.2C116.7,46.6,116.7,46.3,116.5,46.1z M71.8,22l11.9-4L48.3,38.3c-0.1,0-0.2,0-0.3,0l-12.5,3.9L71.8,22z
		 M69.8,107.5l-43-24.4V47.6l21-6.6l22,31.9V107.5z M71.4,70.8L57,49.8l-6.7-10l42.9-24.8L114,46L71.4,70.8z M114,83.1l-41.7,24.3
		V73.2L114,48.9V83.1z"/>
	<polygon fill="#00607A" points="100.1,67.2 95.1,70.4 95.1,76 100.1,72.8 	"/>
	<polygon fill="#00607A" points="92.5,71.7 87.5,75 87.5,80.6 92.5,77.3 	"/>
	<polygon fill="#00607A" points="100.1,75.1 95.1,78.3 95.1,83.9 100.1,80.7 	"/>
	<polygon fill="#00607A" points="92.5,79.6 87.5,82.9 87.5,88.5 92.5,85.3 	"/>
</g>
</svg>
