<?xml version="1.0" encoding="utf-8"?>
<!-- Generator: Adobe Illustrator 18.1.1, SVG Export Plug-In . SVG Version: 6.00 Build 0)  -->
<svg version="1.1" id="Calque_1" xmlns="http://www.w3.org/2000/svg" xmlns:xlink="http://www.w3.org/1999/xlink" x="0px" y="0px"
	 viewBox="0 0 141.7 141.7" enable-background="new 0 0 141.7 141.7" xml:space="preserve">
<polygon fill="none" stroke="#005F78" stroke-width="3" stroke-linejoin="round" stroke-miterlimit="10" points="67.5,135.7 
	44.4,122.2 16.5,106 16.5,66.4 16.5,30.2 67.5,60 "/>
<polygon fill="#005F78" points="32,55.9 24.5,51.6 24.5,44 32,48.4 "/>
<polygon fill="#005F78" points="45,63.4 37.4,59 37.4,51.5 45,55.8 "/>
<polygon fill="#005F78" points="57.9,70.9 50.3,66.5 50.3,58.9 57.9,63.3 "/>
<polygon fill="#005F78" points="32,68.8 24.5,64.4 24.5,56.8 32,61.2 "/>
<polygon fill="#005F78" points="45,76.2 37.4,71.9 37.4,64.3 45,68.7 "/>
<polygon fill="#005F78" points="57.9,83.7 50.3,79.3 50.3,71.8 57.9,76.1 "/>
<polygon fill="#005F78" points="32,81.6 24.5,77.2 24.5,69.7 32,74 "/>
<polygon fill="#005F78" points="45,89.1 37.4,84.7 37.4,77.1 45,81.5 "/>
<polygon fill="#005F78" points="57.9,96.6 50.3,92.2 50.3,84.6 57.9,89 "/>
<polygon fill="#005F78" points="32,94.4 24.5,90.1 24.5,82.5 32,86.9 "/>
<polygon fill="#005F78" points="45,101.9 37.4,97.5 37.4,90 45,94.3 "/>
<polygon fill="#005F78" points="57.9,109.4 50.3,105 50.3,97.4 57.9,101.8 "/>
<polygon fill="#005F78" points="32,107.3 24.5,102.9 24.5,95.3 32,99.7 "/>
<polygon fill="#005F78" points="45,114.7 37.4,110.4 37.4,102.8 45,107.2 "/>
<polygon fill="#005F78" points="57.9,122.2 50.3,117.8 50.3,110.3 57.9,114.6 "/>
<polygon fill="none" stroke="#005F78" stroke-width="2.9503" stroke-linejoin="round" stroke-miterlimit="10" points="68.5,60 
	16.9,30.5 68.2,2.3 119.8,30.1 "/>
<polygon fill="none" stroke="#005F78" stroke-width="3" stroke-linejoin="round" stroke-miterlimit="10" points="119.5,105.9 
	67.5,135.7 67.5,59.9 119.5,30.2 "/>
<polygon fill="#005F78" points="86.7,67.9 79.8,71.9 79.8,65 86.7,61 "/>
<polygon fill="#005F78" points="98.6,61.1 91.6,65.1 91.6,58.1 98.6,54.1 "/>
<polygon fill="#005F78" points="110.4,54.2 103.5,58.2 103.5,51.3 110.4,47.3 "/>
<polygon fill="#005F78" points="86.7,79.6 79.8,83.6 79.8,76.7 86.7,72.7 "/>
<polygon fill="#005F78" points="98.6,72.8 91.6,76.8 91.6,69.9 98.6,65.9 "/>
<polygon fill="#005F78" points="110.4,66 103.5,70 103.5,63 110.4,59 "/>
<polygon fill="#005F78" points="86.7,91.3 79.8,95.3 79.8,88.4 86.7,84.4 "/>
<polygon fill="#005F78" points="98.6,84.5 91.6,88.5 91.6,81.6 98.6,77.6 "/>
<polygon fill="#005F78" points="110.4,77.7 103.5,81.7 103.5,74.8 110.4,70.8 "/>
<polygon fill="#005F78" points="86.7,103.1 79.8,107.1 79.8,100.1 86.7,96.1 "/>
<polygon fill="#005F78" points="98.6,96.2 91.6,100.2 91.6,93.3 98.6,89.3 "/>
<polygon fill="#005F78" points="110.4,89.4 103.5,93.4 103.5,86.5 110.4,82.5 "/>
<polygon fill="#005F78" points="86.7,114.8 79.8,118.8 79.8,111.9 86.7,107.9 "/>
<polygon fill="#005F78" points="98.6,108 91.6,112 91.6,105 98.6,101 "/>
<polygon fill="#005F78" points="110.4,101.1 103.5,105.1 103.5,98.2 110.4,94.2 "/>
<line fill="none" stroke="#FFFFFF" stroke-width="2" stroke-linejoin="round" stroke-miterlimit="10" x1="-1" y1="161" x2="-1" y2="123"/>
<line fill="#296664" x1="-1" y1="156" x2="-1" y2="123"/>
</svg>
