<?xml version="1.0" encoding="utf-8"?>
<!-- Generator: Adobe Illustrator 18.1.1, SVG Export Plug-In . SVG Version: 6.00 Build 0)  -->
<svg version="1.1" id="Calque_1" xmlns="http://www.w3.org/2000/svg" xmlns:xlink="http://www.w3.org/1999/xlink" x="0px" y="0px"
	 viewBox="0 0 141.7 141.7" enable-background="new 0 0 141.7 141.7" xml:space="preserve">
<path id="XMLID_89_" fill="#00607A" d="M84.9,93.3c-1.5,0-2.7-1.2-2.7-2.7V59.7c0-1.2-1-2.2-2.2-2.2h-4.9c-1.5,0-2.7-1.2-2.7-2.7
	c0-1.5,1.2-2.7,2.7-2.7H80c4.2,0,7.6,3.4,7.6,7.6v30.9C87.6,92.1,86.4,93.3,84.9,93.3z M124.6,36.4h-10c-1.5,0-2.7,1.2-2.7,2.7
	s1.2,2.7,2.7,2.7h7.3v54.1c0,4.5-3.7,8.2-8.2,8.2c-4.5,0-8.2-3.7-8.2-8.2V29.6c0-9.4-7.6-17-17-17H17.2c-1.5,0-2.7,1.2-2.7,2.7v77.1
	c0,9.4,7.6,17,17,17H62c1.5,0,2.7-1.2,2.7-2.7c0-1.5-1.2-2.7-2.7-2.7H31.5c-6.4,0-11.6-5.2-11.6-11.6V18h68.6
	c6.4,0,11.6,5.2,11.6,11.6v66.3c0,3.1,1,5.9,2.7,8.2H88.1c-1.5,0-2.7,1.2-2.7,2.7s1.2,2.7,2.7,2.7h25.6c7.5,0,13.5-6.1,13.5-13.5
	V39.1C127.2,37.6,126,36.4,124.6,36.4z M75.1,61.9c-1.5,0-2.7,1.2-2.7,2.7v51.4c0,1.5,1.2,2.7,2.7,2.7s2.7-1.2,2.7-2.7V64.6
	C77.8,63.1,76.6,61.9,75.1,61.9z M75.1,122.5c-1.5,0-2.7,1.2-2.7,2.7v0.5c0,1.5,1.2,2.7,2.7,2.7s2.7-1.2,2.7-2.7v-0.5
	C77.8,123.7,76.6,122.5,75.1,122.5z M60.9,31.5h23.5c1.5,0,2.7-1.2,2.7-2.7s-1.2-2.7-2.7-2.7H60.9c-1.5,0-2.7,1.2-2.7,2.7
	S59.4,31.5,60.9,31.5z M60.9,42.8h12.4c1.5,0,2.7-1.2,2.7-2.7s-1.2-2.7-2.7-2.7H60.9c-1.5,0-2.7,1.2-2.7,2.7S59.4,42.8,60.9,42.8z
	 M26.7,41.5v-14c0-1.5,1.2-2.7,2.7-2.7h14c1.5,0,2.7,1.2,2.7,2.7v14c0,1.5-1.2,2.7-2.7,2.7h-14C27.9,44.2,26.7,43,26.7,41.5z
	 M32.1,38.8h8.7v-8.7h-8.7V38.8z M53,52.1H29.4c-1.5,0-2.7,1.2-2.7,2.7s1.2,2.7,2.7,2.7H53c1.5,0,2.7-1.2,2.7-2.7S54.5,52.1,53,52.1
	z M55.7,79.3c0-1.5-1.2-2.7-2.7-2.7H29.4c-1.5,0-2.7,1.2-2.7,2.7c0,1.5,1.2,2.7,2.7,2.7H53C54.5,82,55.7,80.8,55.7,79.3z M29.4,87.9
	c-1.5,0-2.7,1.2-2.7,2.7c0,1.5,1.2,2.7,2.7,2.7h12.4c1.5,0,2.7-1.2,2.7-2.7c0-1.5-1.2-2.7-2.7-2.7H29.4z M29.4,68.8h12.4
	c1.5,0,2.7-1.2,2.7-2.7s-1.2-2.7-2.7-2.7H29.4c-1.5,0-2.7,1.2-2.7,2.7S27.9,68.8,29.4,68.8z"/>
</svg>
