<?xml version="1.0" encoding="utf-8"?>
<!-- Generator: Adobe Illustrator 17.0.0, SVG Export Plug-In . SVG Version: 6.00 Build 0)  -->
<!DOCTYPE svg PUBLIC "-//W3C//DTD SVG 1.1//EN" "http://www.w3.org/Graphics/SVG/1.1/DTD/svg11.dtd">
<svg version="1.1" id="Calque_1" xmlns="http://www.w3.org/2000/svg" xmlns:xlink="http://www.w3.org/1999/xlink" x="0px" y="0px"
	 width="400px" height="300px" viewBox="0 0 400 300" enable-background="new 0 0 400 300" xml:space="preserve">
<g>
	
		<line fill="none" stroke="#884328" stroke-width="4" stroke-linecap="round" stroke-miterlimit="10" x1="247.741" y1="260.378" x2="348.105" y2="260.378"/>
	
		<line fill="none" stroke="#884328" stroke-width="4" stroke-linecap="round" stroke-miterlimit="10" x1="52.591" y1="260.378" x2="152.741" y2="260.378"/>
	<g>
		<rect x="172.191" y="252.79" fill="none" width="60.314" height="20.432"/>
		<path fill="#884328" d="M178.076,265.79h-2.667v-9.139l-3.034,1.821v-2.74l3.384-1.967h2.317V265.79z"/>
		<path fill="#884328" d="M185.183,258.03c0.986,0,1.802,0.349,2.445,1.048s0.966,1.646,0.966,2.841s-0.384,2.2-1.149,3.016
			c-0.767,0.815-1.852,1.223-3.255,1.223s-2.482-0.53-3.236-1.59s-1.131-2.485-1.131-4.275c0-2.047,0.561-3.684,1.683-4.91
			s2.54-1.839,4.257-1.839c0.649,0,1.281,0.098,1.895,0.294v2.482c-0.479-0.257-1.036-0.386-1.674-0.386
			c-0.87,0-1.585,0.267-2.143,0.8s-0.935,1.248-1.131,2.142C183.371,258.312,184.195,258.03,185.183,258.03z M184.327,263.767
			c0.479,0,0.853-0.165,1.122-0.496s0.404-0.76,0.404-1.288c0-0.527-0.132-0.94-0.396-1.241c-0.264-0.3-0.634-0.45-1.112-0.45
			c-0.662,0-1.244,0.264-1.747,0.791C182.733,262.873,183.31,263.767,184.327,263.767z"/>
		<path fill="#884328" d="M196.39,267.684h-2.777l6.602-14.895h2.795L196.39,267.684z"/>
		<path fill="#884328" d="M215.348,265.79h-8.018v-2.078c1.324-0.907,2.491-1.912,3.503-3.016c1.012-1.103,1.517-2.078,1.517-2.924
			c0-0.515-0.153-0.922-0.459-1.223c-0.307-0.3-0.772-0.451-1.397-0.451c-1.043,0-2.029,0.386-2.961,1.159v-2.593
			c0.404-0.294,0.932-0.545,1.581-0.754c0.65-0.208,1.287-0.312,1.913-0.312c1.25,0,2.246,0.328,2.988,0.984
			c0.741,0.656,1.112,1.572,1.112,2.749c0,2.121-1.349,4.18-4.046,6.178h4.267V265.79z"/>
		<path fill="#884328" d="M223.586,259.005c0.698,0.674,1.048,1.615,1.048,2.822c0,1.208-0.414,2.188-1.241,2.942
			s-1.955,1.131-3.384,1.131c-1.428,0-2.553-0.214-3.374-0.644v-2.538c0.834,0.515,1.766,0.772,2.795,0.772
			c1.643,0,2.464-0.589,2.464-1.766c0-0.441-0.168-0.791-0.505-1.048c-0.338-0.258-0.911-0.386-1.72-0.386
			c-0.81,0-1.649,0.202-2.52,0.607v-7.172h6.749v2.28h-4.138v2.041c0.27-0.037,0.539-0.055,0.81-0.055
			C221.882,257.993,222.887,258.331,223.586,259.005z"/>
	</g>
</g>
<g>
	<g>
		<path fill="none" stroke="#884328" stroke-width="3.5026" stroke-linecap="round" stroke-miterlimit="10" d="M307.079,113.898"/>
		<path fill="none" stroke="#884328" stroke-width="4" stroke-miterlimit="10" d="M287.558,142.347c0,3.338-2.695,6.029-6.016,6.029
			c-3.338,0-6.032-2.691-6.032-6.029c0-3.325,2.694-6.016,6.032-6.016C284.864,136.331,287.558,139.022,287.558,142.347z"/>
		<path fill="none" stroke="#884328" stroke-width="4" stroke-miterlimit="10" d="M337.024,142.347c0,3.338-2.688,6.029-6.029,6.029
			c-3.325,0-6.013-2.691-6.013-6.029c0-3.325,2.688-6.016,6.013-6.016C334.336,136.331,337.024,139.022,337.024,142.347z"/>
		<path fill="none" stroke="#884328" stroke-width="4" stroke-linejoin="round" stroke-miterlimit="10" d="M371.808,122.178
			l-0.084-2.047c0,0,16.797-3.322,16.381,10.804c-0.413,14.122-16.381,24.091-16.381,24.091L371.808,122.178z"/>
		<path fill="none" stroke="#884328" stroke-width="4" stroke-miterlimit="10" d="M242.691,129.268v-10.215
			c0,0-16.8-3.325-16.388,10.801c0.419,14.122,16.388,24.094,16.388,24.094V129.268z"/>
		<path fill="none" stroke="#884328" stroke-width="4" stroke-miterlimit="10" d="M242.691,153.947c0,0-6.481,37.7,20.09,57.78
			c1.511,1.144,3.124,2.223,4.85,3.234c9.325,5.486,21.949,9.023,39.036,9.023c3.64,0,7.099-0.162,10.355-0.445
			c2.792-0.27,5.428-0.63,7.96-1.115c13.154-2.376,22.71-7.394,29.626-13.658c22.433-20.308,17.116-53.74,17.116-53.74"/>
		<polyline fill="none" stroke="#884328" stroke-width="4" stroke-linecap="round" stroke-miterlimit="10" points="307.079,113.898 
			307.079,130.935 292.541,162.918 307.079,162.918 306.845,197.634 306.666,223.984 		"/>
		<path fill="none" stroke="#884328" stroke-width="4" stroke-linecap="round" stroke-miterlimit="10" d="M293.697,197.207
			c0,0,3.608,6.405,13.088,6.084c11.53-0.39,13.939-5.083,13.939-5.083"/>
		<path fill="none" stroke="#884328" stroke-width="4" stroke-miterlimit="10" d="M306.787,104.557l50.681-0.416v15.786h13.713
			c0,0,0.25-2.938,0.25-7.674c0-19.232-4.024-67.931-44.701-67.931c-50.681,0-81.006,5.395-91.81-16.619
			c0,0-10.949,19.025-14.538,34.063c-3.954,16.566-6.647,38.636,22.433,42.79v15.37h12.465l-0.835-14.954L306.787,104.557z"/>
		<path fill="none" stroke="#884328" stroke-width="3" stroke-linecap="round" stroke-miterlimit="10" d="M256.353,51.68
			c-6.428-1.534-11.306-1.67-14.843-4.779"/>
		<path fill="none" stroke="#884328" stroke-width="3" stroke-linecap="round" stroke-miterlimit="10" d="M352.162,67.185
			c-6.116-8.083-15.381-13.864-29.376-13.864c-6.793,0-13.186,0.097-19.184,0.205"/>
		<path fill="none" stroke="#884328" stroke-width="3" stroke-linecap="round" stroke-miterlimit="10" d="M233.095,93.167
			c0,0-8-6.5-5-29.5"/>
	</g>
	<path fill="none" stroke="#884328" stroke-width="3.5385" stroke-linecap="round" stroke-miterlimit="10" d="M47.75,229.166"/>
	<g>
		<path fill="none" stroke="#884328" stroke-width="4" stroke-miterlimit="10" d="M129.719,141.432c0,3.338,2.695,6.029,6.016,6.029
			c3.338,0,6.032-2.691,6.032-6.029c0-3.325-2.694-6.016-6.032-6.016C132.413,135.415,129.719,138.107,129.719,141.432z"/>
		<path fill="none" stroke="#884328" stroke-width="4" stroke-miterlimit="10" d="M80.253,141.432c0,3.338,2.688,6.029,6.029,6.029
			c3.325,0,6.013-2.691,6.013-6.029c0-3.325-2.688-6.016-6.013-6.016C82.941,135.415,80.253,138.107,80.253,141.432z"/>
		<path fill="none" stroke="#884328" stroke-width="4" stroke-miterlimit="10" d="M45.553,120.679v-1.463
			c0,0-16.797-3.322-16.381,10.804c0.413,14.123,16.381,24.091,16.381,24.091V120.679z"/>
		<path fill="none" stroke="#884328" stroke-width="4" stroke-miterlimit="10" d="M174.585,128.352v-10.215
			c0,0,16.8-3.325,16.388,10.801c-0.419,14.123-16.388,24.094-16.388,24.094V128.352z"/>
		<path fill="none" stroke="#884328" stroke-width="4" stroke-miterlimit="10" d="M174.585,153.032c0,0,6.481,37.7-20.09,57.78
			c-1.511,1.144-3.124,2.223-4.85,3.234c-9.325,5.486-21.949,9.023-39.036,9.023c-3.64,0-7.099-0.162-10.355-0.445
			c-2.792-0.27-5.428-0.63-7.96-1.115c-13.154-2.376-22.71-7.394-29.626-13.658c-22.433-20.308-17.116-53.74-17.116-53.74"/>
		<polyline fill="none" stroke="#884328" stroke-width="4" stroke-linecap="round" stroke-miterlimit="10" points="110.198,112.982 
			110.198,130.02 124.736,162.003 110.198,162.003 110.432,196.718 110.61,223.068 		"/>
		<path fill="none" stroke="#884328" stroke-width="4" stroke-linecap="round" stroke-miterlimit="10" d="M123.579,198.043
			c0,0-3.608,6.405-13.088,6.084c-11.53-0.39-13.939-5.083-13.939-5.083"/>
		<path fill="none" stroke="#884328" stroke-width="4" stroke-linecap="round" stroke-miterlimit="10" d="M16.083,125
			c0,0-3.5-24.5,15-46"/>
		
			<line fill="none" stroke="#884328" stroke-width="4" stroke-linecap="round" stroke-miterlimit="10" x1="19.416" y1="229.835" x2="18.068" y2="135.285"/>
		<path fill="none" stroke="#884328" stroke-width="4" stroke-linecap="round" stroke-miterlimit="10" d="M181.317,69.427
			c-15.867-17.602-38.847-28.668-64.411-28.668h-14.145c-27.284,0-49.786,9.538-65.678,29.241"/>
		
			<line fill="none" stroke="#884328" stroke-width="4" stroke-linecap="round" stroke-miterlimit="10" x1="203.598" y1="221.751" x2="203.598" y2="130.452"/>
		<path fill="none" stroke="#884328" stroke-width="3" stroke-linecap="round" stroke-miterlimit="10" d="M103.75,47.27
			c-6.945,0-13.669,0.948-20.049,2.722"/>
		<path fill="none" stroke="#884328" stroke-width="3" stroke-linecap="round" stroke-miterlimit="10" d="M33.75,73.667
			c5.882,4.379,11.541,7.863,16.966,10.581c51.121,25.613,81.52-16.715,82.7-18.248"/>
		<path fill="none" stroke="#884328" stroke-width="4" stroke-linecap="round" stroke-miterlimit="10" d="M138.083,80.667
			c0,0-9,51.333-97.667,36"/>
		<path fill="none" stroke="#884328" stroke-width="3" stroke-linecap="round" stroke-miterlimit="10" d="M27.416,129.333
			c-11,1.667-14.833-0.833-14.833-0.833"/>
		<path fill="none" stroke="#884328" stroke-width="3" stroke-linecap="round" stroke-miterlimit="10" d="M191.083,124.833
			c11,1.667,14.833-0.833,14.833-0.833"/>
		<path fill="none" stroke="#884328" stroke-width="4" stroke-linecap="round" stroke-miterlimit="10" d="M205.25,118.167
			c0,0-0.667-24.667-16.667-42.167"/>
		<path fill="none" stroke="#884328" stroke-width="3" stroke-linecap="round" stroke-miterlimit="10" d="M150.583,76
			c0,0,30,12.5,35.5-6.5"/>
		<path fill="none" stroke="#884328" stroke-width="4" stroke-linecap="round" stroke-miterlimit="10" d="M143.083,85.5
			c0,0,5.502,34.137,31.502,32.637"/>
		<path fill="none" stroke="#884328" stroke-width="3" stroke-linecap="round" stroke-miterlimit="10" d="M101.462,99.238
			c6.235-2.873,11.235-6.116,14.751-8.735"/>
		<path fill="none" stroke="#884328" stroke-width="3" stroke-linecap="round" stroke-miterlimit="10" d="M57.691,97.107
			c13.998,7.013,25.984,7.433,35.668,5"/>
		<circle fill="#884328" cx="39.75" cy="153.333" r="10"/>
		<circle fill="#884328" cx="181.416" cy="152.333" r="10"/>
		<polyline fill="none" stroke="#884328" stroke-width="3" stroke-linecap="round" stroke-miterlimit="10" points="74.75,136.333 
			81.083,137.667 79.083,130 		"/>
		<polyline fill="none" stroke="#884328" stroke-width="3" stroke-linecap="round" stroke-miterlimit="10" points="148.416,137 
			142.083,138.333 144.083,130.667 		"/>
	</g>
</g>
</svg>
